<?xml version="1.0" encoding="utf-8" ?>
<svg baseProfile="full" height="792.0" version="1.1" width="612.0" xmlns="http://www.w3.org/2000/svg" xmlns:ev="http://www.w3.org/2001/xml-events" xmlns:xlink="http://www.w3.org/1999/xlink"><defs /><g id="acre0"><polygon fill="none" points="47.88,448.0425 168.75,357.39 289.62,448.0425 168.75,538.695" stroke="#000000" stroke-width="1" /><circle cx="47.88" cy="448.0425" fill="#000000" r="5" /><circle cx="78.0975" cy="425.379375" fill="#000000" r="5" /><circle cx="108.315" cy="402.71625" fill="#000000" r="5" /><circle cx="138.5325" cy="380.053125" fill="#000000" r="5" /><circle cx="168.75" cy="357.39" fill="#000000" r="5" /><circle cx="78.0975" cy="470.705625" fill="#000000" r="5" /><circle cx="108.315" cy="448.0425" fill="#000000" r="5" /><circle cx="138.5325" cy="425.379375" fill="#000000" r="5" /><circle cx="168.75" cy="402.71625" fill="#000000" r="5" /><circle cx="198.9675" cy="380.053125" fill="#000000" r="5" /><circle cx="108.315" cy="493.36875" fill="#000000" r="5" /><circle cx="138.5325" cy="470.705625" fill="#000000" r="5" /><circle cx="168.75" cy="448.0425" fill="#000000" r="5" /><circle cx="198.9675" cy="425.379375" fill="#000000" r="5" /><circle cx="229.185" cy="402.71625" fill="#000000" r="5" /><circle cx="138.5325" cy="516.031875" fill="#000000" r="5" /><circle cx="168.75" cy="493.36875" fill="#000000" r="5" /><circle cx="198.9675" cy="470.705625" fill="#000000" r="5" /><circle cx="229.185" cy="448.0425" fill="#000000" r="5" /><circle cx="259.4025" cy="425.379375" fill="#000000" r="5" /><circle cx="168.75" cy="538.695" fill="#000000" r="5" /><circle cx="198.9675" cy="516.031875" fill="#000000" r="5" /><circle cx="229.185" cy="493.36875" fill="#000000" r="5" /><circle cx="259.4025" cy="470.705625" fill="#000000" r="5" /><circle cx="289.62" cy="448.0425" fill="#000000" r="5" /></g><g id="acre1"><polygon fill="none" points="322.38,448.0425 443.25,357.39 564.12,448.0425 443.25,538.695" stroke="#000000" stroke-width="1" /><circle cx="322.38" cy="448.0425" fill="#000000" r="5" /><circle cx="352.5975" cy="425.379375" fill="#000000" r="5" /><circle cx="382.815" cy="402.71625" fill="#000000" r="5" /><circle cx="413.0325" cy="380.053125" fill="#000000" r="5" /><circle cx="443.25" cy="357.39" fill="#000000" r="5" /><circle cx="352.5975" cy="470.705625" fill="#000000" r="5" /><circle cx="382.815" cy="448.0425" fill="#000000" r="5" /><circle cx="413.0325" cy="425.379375" fill="#000000" r="5" /><circle cx="443.25" cy="402.71625" fill="#000000" r="5" /><circle cx="473.4675" cy="380.053125" fill="#000000" r="5" /><circle cx="382.815" cy="493.36875" fill="#000000" r="5" /><circle cx="413.0325" cy="470.705625" fill="#000000" r="5" /><circle cx="443.25" cy="448.0425" fill="#000000" r="5" /><circle cx="473.4675" cy="425.379375" fill="#000000" r="5" /><circle cx="503.685" cy="402.71625" fill="#000000" r="5" /><circle cx="413.0325" cy="516.031875" fill="#000000" r="5" /><circle cx="443.25" cy="493.36875" fill="#000000" r="5" /><circle cx="473.4675" cy="470.705625" fill="#000000" r="5" /><circle cx="503.685" cy="448.0425" fill="#000000" r="5" /><circle cx="533.9025" cy="425.379375" fill="#000000" r="5" /><circle cx="443.25" cy="538.695" fill="#000000" r="5" /><circle cx="473.4675" cy="516.031875" fill="#000000" r="5" /><circle cx="503.685" cy="493.36875" fill="#000000" r="5" /><circle cx="533.9025" cy="470.705625" fill="#000000" r="5" /><circle cx="564.12" cy="448.0425" fill="#000000" r="5" /></g><g id="acre2"><polygon fill="none" points="47.88,665.3475 168.75,574.695 289.62,665.3475 168.75,756.0" stroke="#000000" stroke-width="1" /><circle cx="47.88" cy="665.3475" fill="#000000" r="5" /><circle cx="78.0975" cy="642.684375" fill="#000000" r="5" /><circle cx="108.315" cy="620.02125" fill="#000000" r="5" /><circle cx="138.5325" cy="597.358125" fill="#000000" r="5" /><circle cx="168.75" cy="574.695" fill="#000000" r="5" /><circle cx="78.0975" cy="688.010625" fill="#000000" r="5" /><circle cx="108.315" cy="665.3475" fill="#000000" r="5" /><circle cx="138.5325" cy="642.684375" fill="#000000" r="5" /><circle cx="168.75" cy="620.02125" fill="#000000" r="5" /><circle cx="198.9675" cy="597.358125" fill="#000000" r="5" /><circle cx="108.315" cy="710.67375" fill="#000000" r="5" /><circle cx="138.5325" cy="688.010625" fill="#000000" r="5" /><circle cx="168.75" cy="665.3475" fill="#000000" r="5" /><circle cx="198.9675" cy="642.684375" fill="#000000" r="5" /><circle cx="229.185" cy="620.02125" fill="#000000" r="5" /><circle cx="138.5325" cy="733.336875" fill="#000000" r="5" /><circle cx="168.75" cy="710.67375" fill="#000000" r="5" /><circle cx="198.9675" cy="688.010625" fill="#000000" r="5" /><circle cx="229.185" cy="665.3475" fill="#000000" r="5" /><circle cx="259.4025" cy="642.684375" fill="#000000" r="5" /><circle cx="168.75" cy="756.0" fill="#000000" r="5" /><circle cx="198.9675" cy="733.336875" fill="#000000" r="5" /><circle cx="229.185" cy="710.67375" fill="#000000" r="5" /><circle cx="259.4025" cy="688.010625" fill="#000000" r="5" /><circle cx="289.62" cy="665.3475" fill="#000000" r="5" /></g><g id="acre3"><polygon fill="none" points="322.38,665.3475 443.25,574.695 564.12,665.3475 443.25,756.0" stroke="#000000" stroke-width="1" /><circle cx="322.38" cy="665.3475" fill="#000000" r="5" /><circle cx="352.5975" cy="642.684375" fill="#000000" r="5" /><circle cx="382.815" cy="620.02125" fill="#000000" r="5" /><circle cx="413.0325" cy="597.358125" fill="#000000" r="5" /><circle cx="443.25" cy="574.695" fill="#000000" r="5" /><circle cx="352.5975" cy="688.010625" fill="#000000" r="5" /><circle cx="382.815" cy="665.3475" fill="#000000" r="5" /><circle cx="413.0325" cy="642.684375" fill="#000000" r="5" /><circle cx="443.25" cy="620.02125" fill="#000000" r="5" /><circle cx="473.4675" cy="597.358125" fill="#000000" r="5" /><circle cx="382.815" cy="710.67375" fill="#000000" r="5" /><circle cx="413.0325" cy="688.010625" fill="#000000" r="5" /><circle cx="443.25" cy="665.3475" fill="#000000" r="5" /><circle cx="473.4675" cy="642.684375" fill="#000000" r="5" /><circle cx="503.685" cy="620.02125" fill="#000000" r="5" /><circle cx="413.0325" cy="733.336875" fill="#000000" r="5" /><circle cx="443.25" cy="710.67375" fill="#000000" r="5" /><circle cx="473.4675" cy="688.010625" fill="#000000" r="5" /><circle cx="503.685" cy="665.3475" fill="#000000" r="5" /><circle cx="533.9025" cy="642.684375" fill="#000000" r="5" /><circle cx="443.25" cy="756.0" fill="#000000" r="5" /><circle cx="473.4675" cy="733.336875" fill="#000000" r="5" /><circle cx="503.685" cy="710.67375" fill="#000000" r="5" /><circle cx="533.9025" cy="688.010625" fill="#000000" r="5" /><circle cx="564.12" cy="665.3475" fill="#000000" r="5" /></g><rect fill="none" height="720.0" stroke="#000000" stroke-width="1" width="540.0" x="36.0" y="36.0" /></svg>