<?xml version="1.0" encoding="utf-8" ?>
<svg baseProfile="full" height="1400" version="1.1" width="1400" xmlns="http://www.w3.org/2000/svg" xmlns:ev="http://www.w3.org/2001/xml-events" xmlns:xlink="http://www.w3.org/1999/xlink"><defs><g id="tree0"><path d="M 28.485614,0 C 28.235182,0 28.066973,0.4033169 28.066973,0.4033169 L 7.5735957,55.631311 c 0,0 -0.44565,0.821173 -0.09967,1.273635 0.34235,0.447715 1.284397,0.30249 1.284397,0.30249 H 10.871454 L 3.7659817,76.35972 c 0,0 -0.525686,0.972359 -0.116765,1.507136 0.404631,0.529163 1.517923,0.355556 1.517923,0.355556 h 2.617206 L 0.31149672,98.361768 c 0,0 -0.600605,1.10633 -0.133851,1.716742 0.461862,0.60401 1.73436098,0.40597 1.73436098,0.40597 H 22.462339 v 23.94434 h 12.012378 v -23.94434 h 21.988516 c 0,0 0.533832,0.0357 0.751842,-0.24942 0.218012,-0.285106 0.02279,-0.732332 0.02279,-0.732332 L 49.323584,78.222412 h 3.633902 c 0,0 0.469712,0.02954 0.660709,-0.220234 0.190997,-0.249778 0.01993,-0.63947 0.01993,-0.63947 L 46.142498,57.207436 h 3.052932 c 0,0 0.396587,0.02559 0.558184,-0.18574 0.1616,-0.211332 0.01424,-0.541293 0.01424,-0.541295 L 28.92134,0.4245447 c 0,0 -0.18478,-0.4245458999975 -0.435726,-0.4245447 z" fill="#FFFFFF" stroke="#000000" stroke-width="1" /></g></defs><g id="rects"><g transform="translate(499.99,360.0) scale(0.80004, 0.36) rotate(45, 250.0, 250.0)"><rect fill="#FFFFFF" height="500.0" stroke="#000000" stroke-width="2" width="500.0" x="0" y="0" /></g><g transform="translate(533.325,375.0) scale(0.6667, 0.3) rotate(45, 250.0, 250.0)"><rect fill="#FFFFFF" height="500.0" stroke="#000000" stroke-width="2" width="500.0" x="0" y="0" /></g><g transform="translate(149.99,526.675) scale(0.80004, 0.36) rotate(45, 250.0, 250.0)"><rect fill="#FFFFFF" height="500.0" stroke="#000000" stroke-width="2" width="500.0" x="0" y="0" /></g><g transform="translate(183.325,541.675) scale(0.6667, 0.3) rotate(45, 250.0, 250.0)"><rect fill="#FFFFFF" height="500.0" stroke="#000000" stroke-width="2" width="500.0" x="0" y="0" /></g><g transform="translate(849.99,526.675) scale(0.80004, 0.36) rotate(45, 250.0, 250.0)"><rect fill="#FFFFFF" height="500.0" stroke="#000000" stroke-width="2" width="500.0" x="0" y="0" /></g><g transform="translate(883.325,541.675) scale(0.6667, 0.3) rotate(45, 250.0, 250.0)"><rect fill="#FFFFFF" height="500.0" stroke="#000000" stroke-width="2" width="500.0" x="0" y="0" /></g><g transform="translate(499.99,693.35) scale(0.80004, 0.36) rotate(45, 250.0, 250.0)"><rect fill="#FFFFFF" height="500.0" stroke="#000000" stroke-width="2" width="500.0" x="0" y="0" /></g><g transform="translate(533.325,708.35) scale(0.6667, 0.3) rotate(45, 250.0, 250.0)"><rect fill="#FFFFFF" height="500.0" stroke="#000000" stroke-width="2" width="500.0" x="0" y="0" /></g></g><g id="trees"><g transform="translate(652.857190898,160.468073674) scale(1.64494926605, 1.64494926605)"><use xlink:href="#tree0" /></g><g transform="translate(605.714381797,181.68127711) scale(1.64494926605, 1.64494926605)"><use xlink:href="#tree0" /></g><g transform="translate(700.0,181.68127711) scale(1.64494926605, 1.64494926605)"><use xlink:href="#tree0" /></g><g transform="translate(558.571572695,202.894480545) scale(1.64494926605, 1.64494926605)"><use xlink:href="#tree0" /></g><g transform="translate(652.857190898,202.894480545) scale(1.64494926605, 1.64494926605)"><use xlink:href="#tree0" /></g><g transform="translate(747.142809102,202.894480545) scale(1.64494926605, 1.64494926605)"><use xlink:href="#tree0" /></g><g transform="translate(511.428763593,224.107683981) scale(1.64494926605, 1.64494926605)"><use xlink:href="#tree0" /></g><g transform="translate(605.714381797,224.107683981) scale(1.64494926605, 1.64494926605)"><use xlink:href="#tree0" /></g><g transform="translate(700.0,224.107683981) scale(1.64494926605, 1.64494926605)"><use xlink:href="#tree0" /></g><g transform="translate(794.285618203,224.107683981) scale(1.64494926605, 1.64494926605)"><use xlink:href="#tree0" /></g><g transform="translate(464.285954491,245.320887416) scale(1.64494926605, 1.64494926605)"><use xlink:href="#tree0" /></g><g transform="translate(558.571572695,245.320887416) scale(1.64494926605, 1.64494926605)"><use xlink:href="#tree0" /></g><g transform="translate(652.857190898,245.320887416) scale(1.64494926605, 1.64494926605)"><use xlink:href="#tree0" /></g><g transform="translate(747.142809102,245.320887416) scale(1.64494926605, 1.64494926605)"><use xlink:href="#tree0" /></g><g transform="translate(841.428427305,245.320887416) scale(1.64494926605, 1.64494926605)"><use xlink:href="#tree0" /></g><g transform="translate(511.428763593,266.534090852) scale(1.64494926605, 1.64494926605)"><use xlink:href="#tree0" /></g><g transform="translate(605.714381797,266.534090852) scale(1.64494926605, 1.64494926605)"><use xlink:href="#tree0" /></g><g transform="translate(700.0,266.534090852) scale(1.64494926605, 1.64494926605)"><use xlink:href="#tree0" /></g><g transform="translate(794.285618203,266.534090852) scale(1.64494926605, 1.64494926605)"><use xlink:href="#tree0" /></g><g transform="translate(558.571572695,287.747294288) scale(1.64494926605, 1.64494926605)"><use xlink:href="#tree0" /></g><g transform="translate(652.857190898,287.747294288) scale(1.64494926605, 1.64494926605)"><use xlink:href="#tree0" /></g><g transform="translate(747.142809102,287.747294288) scale(1.64494926605, 1.64494926605)"><use xlink:href="#tree0" /></g><g transform="translate(605.714381797,308.960497723) scale(1.64494926605, 1.64494926605)"><use xlink:href="#tree0" /></g><g transform="translate(700.0,308.960497723) scale(1.64494926605, 1.64494926605)"><use xlink:href="#tree0" /></g><g transform="translate(652.857190898,330.173701159) scale(1.64494926605, 1.64494926605)"><use xlink:href="#tree0" /></g><g transform="translate(302.857190898,327.143073674) scale(1.64494926605, 1.64494926605)"><use xlink:href="#tree0" /></g><g transform="translate(255.714381797,348.35627711) scale(1.64494926605, 1.64494926605)"><use xlink:href="#tree0" /></g><g transform="translate(350.0,348.35627711) scale(1.64494926605, 1.64494926605)"><use xlink:href="#tree0" /></g><g transform="translate(208.571572695,369.569480545) scale(1.64494926605, 1.64494926605)"><use xlink:href="#tree0" /></g><g transform="translate(302.857190898,369.569480545) scale(1.64494926605, 1.64494926605)"><use xlink:href="#tree0" /></g><g transform="translate(397.142809102,369.569480545) scale(1.64494926605, 1.64494926605)"><use xlink:href="#tree0" /></g><g transform="translate(161.428763593,390.782683981) scale(1.64494926605, 1.64494926605)"><use xlink:href="#tree0" /></g><g transform="translate(255.714381797,390.782683981) scale(1.64494926605, 1.64494926605)"><use xlink:href="#tree0" /></g><g transform="translate(350.0,390.782683981) scale(1.64494926605, 1.64494926605)"><use xlink:href="#tree0" /></g><g transform="translate(444.285618203,390.782683981) scale(1.64494926605, 1.64494926605)"><use xlink:href="#tree0" /></g><g transform="translate(114.285954491,411.995887416) scale(1.64494926605, 1.64494926605)"><use xlink:href="#tree0" /></g><g transform="translate(208.571572695,411.995887416) scale(1.64494926605, 1.64494926605)"><use xlink:href="#tree0" /></g><g transform="translate(302.857190898,411.995887416) scale(1.64494926605, 1.64494926605)"><use xlink:href="#tree0" /></g><g transform="translate(397.142809102,411.995887416) scale(1.64494926605, 1.64494926605)"><use xlink:href="#tree0" /></g><g transform="translate(491.428427305,411.995887416) scale(1.64494926605, 1.64494926605)"><use xlink:href="#tree0" /></g><g transform="translate(161.428763593,433.209090852) scale(1.64494926605, 1.64494926605)"><use xlink:href="#tree0" /></g><g transform="translate(255.714381797,433.209090852) scale(1.64494926605, 1.64494926605)"><use xlink:href="#tree0" /></g><g transform="translate(350.0,433.209090852) scale(1.64494926605, 1.64494926605)"><use xlink:href="#tree0" /></g><g transform="translate(444.285618203,433.209090852) scale(1.64494926605, 1.64494926605)"><use xlink:href="#tree0" /></g><g transform="translate(208.571572695,454.422294288) scale(1.64494926605, 1.64494926605)"><use xlink:href="#tree0" /></g><g transform="translate(302.857190898,454.422294288) scale(1.64494926605, 1.64494926605)"><use xlink:href="#tree0" /></g><g transform="translate(397.142809102,454.422294288) scale(1.64494926605, 1.64494926605)"><use xlink:href="#tree0" /></g><g transform="translate(255.714381797,475.635497723) scale(1.64494926605, 1.64494926605)"><use xlink:href="#tree0" /></g><g transform="translate(350.0,475.635497723) scale(1.64494926605, 1.64494926605)"><use xlink:href="#tree0" /></g><g transform="translate(302.857190898,496.848701159) scale(1.64494926605, 1.64494926605)"><use xlink:href="#tree0" /></g><g transform="translate(1002.8571909,327.143073674) scale(1.64494926605, 1.64494926605)"><use xlink:href="#tree0" /></g><g transform="translate(955.714381797,348.35627711) scale(1.64494926605, 1.64494926605)"><use xlink:href="#tree0" /></g><g transform="translate(1050.0,348.35627711) scale(1.64494926605, 1.64494926605)"><use xlink:href="#tree0" /></g><g transform="translate(908.571572695,369.569480545) scale(1.64494926605, 1.64494926605)"><use xlink:href="#tree0" /></g><g transform="translate(1002.8571909,369.569480545) scale(1.64494926605, 1.64494926605)"><use xlink:href="#tree0" /></g><g transform="translate(1097.1428091,369.569480545) scale(1.64494926605, 1.64494926605)"><use xlink:href="#tree0" /></g><g transform="translate(861.428763593,390.782683981) scale(1.64494926605, 1.64494926605)"><use xlink:href="#tree0" /></g><g transform="translate(955.714381797,390.782683981) scale(1.64494926605, 1.64494926605)"><use xlink:href="#tree0" /></g><g transform="translate(1050.0,390.782683981) scale(1.64494926605, 1.64494926605)"><use xlink:href="#tree0" /></g><g transform="translate(1144.2856182,390.782683981) scale(1.64494926605, 1.64494926605)"><use xlink:href="#tree0" /></g><g transform="translate(814.285954491,411.995887416) scale(1.64494926605, 1.64494926605)"><use xlink:href="#tree0" /></g><g transform="translate(908.571572695,411.995887416) scale(1.64494926605, 1.64494926605)"><use xlink:href="#tree0" /></g><g transform="translate(1002.8571909,411.995887416) scale(1.64494926605, 1.64494926605)"><use xlink:href="#tree0" /></g><g transform="translate(1097.1428091,411.995887416) scale(1.64494926605, 1.64494926605)"><use xlink:href="#tree0" /></g><g transform="translate(1191.42842731,411.995887416) scale(1.64494926605, 1.64494926605)"><use xlink:href="#tree0" /></g><g transform="translate(861.428763593,433.209090852) scale(1.64494926605, 1.64494926605)"><use xlink:href="#tree0" /></g><g transform="translate(955.714381797,433.209090852) scale(1.64494926605, 1.64494926605)"><use xlink:href="#tree0" /></g><g transform="translate(1050.0,433.209090852) scale(1.64494926605, 1.64494926605)"><use xlink:href="#tree0" /></g><g transform="translate(1144.2856182,433.209090852) scale(1.64494926605, 1.64494926605)"><use xlink:href="#tree0" /></g><g transform="translate(908.571572695,454.422294288) scale(1.64494926605, 1.64494926605)"><use xlink:href="#tree0" /></g><g transform="translate(1002.8571909,454.422294288) scale(1.64494926605, 1.64494926605)"><use xlink:href="#tree0" /></g><g transform="translate(1097.1428091,454.422294288) scale(1.64494926605, 1.64494926605)"><use xlink:href="#tree0" /></g><g transform="translate(955.714381797,475.635497723) scale(1.64494926605, 1.64494926605)"><use xlink:href="#tree0" /></g><g transform="translate(1050.0,475.635497723) scale(1.64494926605, 1.64494926605)"><use xlink:href="#tree0" /></g><g transform="translate(1002.8571909,496.848701159) scale(1.64494926605, 1.64494926605)"><use xlink:href="#tree0" /></g><g transform="translate(652.857190898,493.818073674) scale(1.64494926605, 1.64494926605)"><use xlink:href="#tree0" /></g><g transform="translate(605.714381797,515.03127711) scale(1.64494926605, 1.64494926605)"><use xlink:href="#tree0" /></g><g transform="translate(700.0,515.03127711) scale(1.64494926605, 1.64494926605)"><use xlink:href="#tree0" /></g><g transform="translate(558.571572695,536.244480545) scale(1.64494926605, 1.64494926605)"><use xlink:href="#tree0" /></g><g transform="translate(652.857190898,536.244480545) scale(1.64494926605, 1.64494926605)"><use xlink:href="#tree0" /></g><g transform="translate(747.142809102,536.244480545) scale(1.64494926605, 1.64494926605)"><use xlink:href="#tree0" /></g><g transform="translate(511.428763593,557.457683981) scale(1.64494926605, 1.64494926605)"><use xlink:href="#tree0" /></g><g transform="translate(605.714381797,557.457683981) scale(1.64494926605, 1.64494926605)"><use xlink:href="#tree0" /></g><g transform="translate(700.0,557.457683981) scale(1.64494926605, 1.64494926605)"><use xlink:href="#tree0" /></g><g transform="translate(794.285618203,557.457683981) scale(1.64494926605, 1.64494926605)"><use xlink:href="#tree0" /></g><g transform="translate(464.285954491,578.670887416) scale(1.64494926605, 1.64494926605)"><use xlink:href="#tree0" /></g><g transform="translate(558.571572695,578.670887416) scale(1.64494926605, 1.64494926605)"><use xlink:href="#tree0" /></g><g transform="translate(652.857190898,578.670887416) scale(1.64494926605, 1.64494926605)"><use xlink:href="#tree0" /></g><g transform="translate(747.142809102,578.670887416) scale(1.64494926605, 1.64494926605)"><use xlink:href="#tree0" /></g><g transform="translate(841.428427305,578.670887416) scale(1.64494926605, 1.64494926605)"><use xlink:href="#tree0" /></g><g transform="translate(511.428763593,599.884090852) scale(1.64494926605, 1.64494926605)"><use xlink:href="#tree0" /></g><g transform="translate(605.714381797,599.884090852) scale(1.64494926605, 1.64494926605)"><use xlink:href="#tree0" /></g><g transform="translate(700.0,599.884090852) scale(1.64494926605, 1.64494926605)"><use xlink:href="#tree0" /></g><g transform="translate(794.285618203,599.884090852) scale(1.64494926605, 1.64494926605)"><use xlink:href="#tree0" /></g><g transform="translate(558.571572695,621.097294288) scale(1.64494926605, 1.64494926605)"><use xlink:href="#tree0" /></g><g transform="translate(652.857190898,621.097294288) scale(1.64494926605, 1.64494926605)"><use xlink:href="#tree0" /></g><g transform="translate(747.142809102,621.097294288) scale(1.64494926605, 1.64494926605)"><use xlink:href="#tree0" /></g><g transform="translate(605.714381797,642.310497723) scale(1.64494926605, 1.64494926605)"><use xlink:href="#tree0" /></g><g transform="translate(700.0,642.310497723) scale(1.64494926605, 1.64494926605)"><use xlink:href="#tree0" /></g><g transform="translate(652.857190898,663.523701159) scale(1.64494926605, 1.64494926605)"><use xlink:href="#tree0" /></g></g></svg>