<?xml version="1.0" encoding="utf-8" ?>
<svg baseProfile="full" height="792.0" version="1.1" width="612.0" xmlns="http://www.w3.org/2000/svg" xmlns:ev="http://www.w3.org/2001/xml-events" xmlns:xlink="http://www.w3.org/1999/xlink"><defs><polygon fill="#FFFFFF" id="tree" points="22.5,0 0,129.6 18.0,129.6 18.0,144.0 27.0,144.0 27.0,129.6 45.0,129.6 22.5,0" stroke="#000000" stroke-width="1.5" /></defs><g id="acre0"><polygon fill="none" points="44.1,405.9225 171.0,301.23 297.9,405.9225 171.0,510.615" stroke="#000000" stroke-width="2" /><use x="148.5" xlink:href="#tree" y="171.63" /><use x="111.0" xlink:href="#tree" y="201.7275" /><use x="186.0" xlink:href="#tree" y="201.7275" /><use x="73.5" xlink:href="#tree" y="231.825" /><use x="223.5" xlink:href="#tree" y="231.825" /><use x="148.5" xlink:href="#tree" y="231.825" /><use x="36.0" xlink:href="#tree" y="261.9225" /><use x="111.0" xlink:href="#tree" y="261.9225" /><use x="186.0" xlink:href="#tree" y="261.9225" /><use x="261.0" xlink:href="#tree" y="261.9225" /><use x="148.5" xlink:href="#tree" y="292.02" /><use x="73.5" xlink:href="#tree" y="292.02" /><use x="223.5" xlink:href="#tree" y="292.02" /><use x="111.0" xlink:href="#tree" y="322.1175" /><use x="186.0" xlink:href="#tree" y="322.1175" /><use x="148.5" xlink:href="#tree" y="352.215" /></g><g id="acre1"><polygon fill="none" points="314.1,405.9225 441.0,301.23 567.9,405.9225 441.0,510.615" stroke="#000000" stroke-width="2" /><use x="418.5" xlink:href="#tree" y="171.63" /><use x="381.0" xlink:href="#tree" y="201.7275" /><use x="456.0" xlink:href="#tree" y="201.7275" /><use x="343.5" xlink:href="#tree" y="231.825" /><use x="493.5" xlink:href="#tree" y="231.825" /><use x="418.5" xlink:href="#tree" y="231.825" /><use x="306.0" xlink:href="#tree" y="261.9225" /><use x="381.0" xlink:href="#tree" y="261.9225" /><use x="456.0" xlink:href="#tree" y="261.9225" /><use x="531.0" xlink:href="#tree" y="261.9225" /><use x="418.5" xlink:href="#tree" y="292.02" /><use x="343.5" xlink:href="#tree" y="292.02" /><use x="493.5" xlink:href="#tree" y="292.02" /><use x="381.0" xlink:href="#tree" y="322.1175" /><use x="456.0" xlink:href="#tree" y="322.1175" /><use x="418.5" xlink:href="#tree" y="352.215" /></g><g id="acre2"><polygon fill="none" points="44.1,651.3075 171.0,546.615 297.9,651.3075 171.0,756.0" stroke="#000000" stroke-width="2" /><use x="148.5" xlink:href="#tree" y="417.015" /><use x="111.0" xlink:href="#tree" y="447.1125" /><use x="186.0" xlink:href="#tree" y="447.1125" /><use x="148.5" xlink:href="#tree" y="477.21" /><use x="73.5" xlink:href="#tree" y="477.21" /><use x="223.5" xlink:href="#tree" y="477.21" /><use x="36.0" xlink:href="#tree" y="507.3075" /><use x="111.0" xlink:href="#tree" y="507.3075" /><use x="186.0" xlink:href="#tree" y="507.3075" /><use x="261.0" xlink:href="#tree" y="507.3075" /><use x="73.5" xlink:href="#tree" y="537.405" /><use x="223.5" xlink:href="#tree" y="537.405" /><use x="148.5" xlink:href="#tree" y="537.405" /><use x="111.0" xlink:href="#tree" y="567.5025" /><use x="186.0" xlink:href="#tree" y="567.5025" /><use x="148.5" xlink:href="#tree" y="597.6" /></g><g id="acre3"><polygon fill="none" points="314.1,651.3075 441.0,546.615 567.9,651.3075 441.0,756.0" stroke="#000000" stroke-width="2" /><use x="418.5" xlink:href="#tree" y="417.015" /><use x="381.0" xlink:href="#tree" y="447.1125" /><use x="456.0" xlink:href="#tree" y="447.1125" /><use x="418.5" xlink:href="#tree" y="477.21" /><use x="343.5" xlink:href="#tree" y="477.21" /><use x="493.5" xlink:href="#tree" y="477.21" /><use x="306.0" xlink:href="#tree" y="507.3075" /><use x="381.0" xlink:href="#tree" y="507.3075" /><use x="456.0" xlink:href="#tree" y="507.3075" /><use x="531.0" xlink:href="#tree" y="507.3075" /><use x="343.5" xlink:href="#tree" y="537.405" /><use x="493.5" xlink:href="#tree" y="537.405" /><use x="418.5" xlink:href="#tree" y="537.405" /><use x="381.0" xlink:href="#tree" y="567.5025" /><use x="456.0" xlink:href="#tree" y="567.5025" /><use x="418.5" xlink:href="#tree" y="597.6" /></g><rect fill="none" height="720.0" stroke="#000000" stroke-width="1" width="540.0" x="36.0" y="36.0" /></svg>