<?xml version="1.0" encoding="utf-8" ?>
<svg baseProfile="full" height="612.0" version="1.1" width="612.0" xmlns="http://www.w3.org/2000/svg" xmlns:ev="http://www.w3.org/2001/xml-events" xmlns:xlink="http://www.w3.org/1999/xlink"><defs><g id="tree0"><path d="M 28.485614,0 C 28.235182,0 28.066973,0.4033169 28.066973,0.4033169 L 7.5735957,55.631311 c 0,0 -0.44565,0.821173 -0.09967,1.273635 0.34235,0.447715 1.284397,0.30249 1.284397,0.30249 H 10.871454 L 3.7659817,76.35972 c 0,0 -0.525686,0.972359 -0.116765,1.507136 0.404631,0.529163 1.517923,0.355556 1.517923,0.355556 h 2.617206 L 0.31149672,98.361768 c 0,0 -0.600605,1.10633 -0.133851,1.716742 0.461862,0.60401 1.73436098,0.40597 1.73436098,0.40597 H 22.462339 v 23.94434 h 12.012378 v -23.94434 h 21.988516 c 0,0 0.533832,0.0357 0.751842,-0.24942 0.218012,-0.285106 0.02279,-0.732332 0.02279,-0.732332 L 49.323584,78.222412 h 3.633902 c 0,0 0.469712,0.02954 0.660709,-0.220234 0.190997,-0.249778 0.01993,-0.63947 0.01993,-0.63947 L 46.142498,57.207436 h 3.052932 c 0,0 0.396587,0.02559 0.558184,-0.18574 0.1616,-0.211332 0.01424,-0.541293 0.01424,-0.541295 L 28.92134,0.4245447 c 0,0 -0.18478,-0.4245458999975 -0.435726,-0.4245447 z" fill="#FFFFFF" stroke="#000000" stroke-width="1" /></g></defs><g id="rects"><g transform="translate(197.9946,106.2) scale(0.80004, 0.48) rotate(45, 135.0, 135.0)"><rect fill="#FFFFFF" height="270.0" stroke="#000000" stroke-width="2" width="270.0" x="0" y="0" /></g><g transform="translate(215.9955,117.0) scale(0.6667, 0.4) rotate(45, 135.0, 135.0)"><rect fill="#FFFFFF" height="270.0" stroke="#000000" stroke-width="2" width="270.0" x="0" y="0" /></g><g transform="translate(8.9946,196.2045) scale(0.80004, 0.48) rotate(45, 135.0, 135.0)"><rect fill="#FFFFFF" height="270.0" stroke="#000000" stroke-width="2" width="270.0" x="0" y="0" /></g><g transform="translate(26.9955,207.0045) scale(0.6667, 0.4) rotate(45, 135.0, 135.0)"><rect fill="#FFFFFF" height="270.0" stroke="#000000" stroke-width="2" width="270.0" x="0" y="0" /></g><g transform="translate(386.9946,196.2045) scale(0.80004, 0.48) rotate(45, 135.0, 135.0)"><rect fill="#FFFFFF" height="270.0" stroke="#000000" stroke-width="2" width="270.0" x="0" y="0" /></g><g transform="translate(404.9955,207.0045) scale(0.6667, 0.4) rotate(45, 135.0, 135.0)"><rect fill="#FFFFFF" height="270.0" stroke="#000000" stroke-width="2" width="270.0" x="0" y="0" /></g><g transform="translate(197.9946,286.209) scale(0.80004, 0.48) rotate(45, 135.0, 135.0)"><rect fill="#FFFFFF" height="270.0" stroke="#000000" stroke-width="2" width="270.0" x="0" y="0" /></g><g transform="translate(215.9955,297.009) scale(0.6667, 0.4) rotate(45, 135.0, 135.0)"><rect fill="#FFFFFF" height="270.0" stroke="#000000" stroke-width="2" width="270.0" x="0" y="0" /></g></g><g id="trees"><g transform="translate(280.542883085,-0.620746689617) scale(0.888272603665, 0.888272603665)"><use xlink:href="#tree0" /></g><g transform="translate(255.08576617,14.652759784) scale(0.888272603665, 0.888272603665)"><use xlink:href="#tree0" /></g><g transform="translate(306.0,14.652759784) scale(0.888272603665, 0.888272603665)"><use xlink:href="#tree0" /></g><g transform="translate(229.628649255,29.9262662576) scale(0.888272603665, 0.888272603665)"><use xlink:href="#tree0" /></g><g transform="translate(280.542883085,29.9262662576) scale(0.888272603665, 0.888272603665)"><use xlink:href="#tree0" /></g><g transform="translate(331.457116915,29.9262662576) scale(0.888272603665, 0.888272603665)"><use xlink:href="#tree0" /></g><g transform="translate(204.17153234,45.1997727313) scale(0.888272603665, 0.888272603665)"><use xlink:href="#tree0" /></g><g transform="translate(255.08576617,45.1997727313) scale(0.888272603665, 0.888272603665)"><use xlink:href="#tree0" /></g><g transform="translate(306.0,45.1997727313) scale(0.888272603665, 0.888272603665)"><use xlink:href="#tree0" /></g><g transform="translate(356.91423383,45.1997727313) scale(0.888272603665, 0.888272603665)"><use xlink:href="#tree0" /></g><g transform="translate(178.714415425,60.4732792049) scale(0.888272603665, 0.888272603665)"><use xlink:href="#tree0" /></g><g transform="translate(229.628649255,60.4732792049) scale(0.888272603665, 0.888272603665)"><use xlink:href="#tree0" /></g><g transform="translate(280.542883085,60.4732792049) scale(0.888272603665, 0.888272603665)"><use xlink:href="#tree0" /></g><g transform="translate(331.457116915,60.4732792049) scale(0.888272603665, 0.888272603665)"><use xlink:href="#tree0" /></g><g transform="translate(382.371350745,60.4732792049) scale(0.888272603665, 0.888272603665)"><use xlink:href="#tree0" /></g><g transform="translate(204.17153234,75.7467856785) scale(0.888272603665, 0.888272603665)"><use xlink:href="#tree0" /></g><g transform="translate(255.08576617,75.7467856785) scale(0.888272603665, 0.888272603665)"><use xlink:href="#tree0" /></g><g transform="translate(306.0,75.7467856785) scale(0.888272603665, 0.888272603665)"><use xlink:href="#tree0" /></g><g transform="translate(356.91423383,75.7467856785) scale(0.888272603665, 0.888272603665)"><use xlink:href="#tree0" /></g><g transform="translate(229.628649255,91.0202921522) scale(0.888272603665, 0.888272603665)"><use xlink:href="#tree0" /></g><g transform="translate(280.542883085,91.0202921522) scale(0.888272603665, 0.888272603665)"><use xlink:href="#tree0" /></g><g transform="translate(331.457116915,91.0202921522) scale(0.888272603665, 0.888272603665)"><use xlink:href="#tree0" /></g><g transform="translate(255.08576617,106.293798626) scale(0.888272603665, 0.888272603665)"><use xlink:href="#tree0" /></g><g transform="translate(306.0,106.293798626) scale(0.888272603665, 0.888272603665)"><use xlink:href="#tree0" /></g><g transform="translate(280.542883085,121.567305099) scale(0.888272603665, 0.888272603665)"><use xlink:href="#tree0" /></g><g transform="translate(91.5428830851,89.3837533104) scale(0.888272603665, 0.888272603665)"><use xlink:href="#tree0" /></g><g transform="translate(66.0857661702,104.657259784) scale(0.888272603665, 0.888272603665)"><use xlink:href="#tree0" /></g><g transform="translate(117.0,104.657259784) scale(0.888272603665, 0.888272603665)"><use xlink:href="#tree0" /></g><g transform="translate(40.6286492552,119.930766258) scale(0.888272603665, 0.888272603665)"><use xlink:href="#tree0" /></g><g transform="translate(91.5428830851,119.930766258) scale(0.888272603665, 0.888272603665)"><use xlink:href="#tree0" /></g><g transform="translate(142.457116915,119.930766258) scale(0.888272603665, 0.888272603665)"><use xlink:href="#tree0" /></g><g transform="translate(15.1715323403,135.204272731) scale(0.888272603665, 0.888272603665)"><use xlink:href="#tree0" /></g><g transform="translate(66.0857661702,135.204272731) scale(0.888272603665, 0.888272603665)"><use xlink:href="#tree0" /></g><g transform="translate(117.0,135.204272731) scale(0.888272603665, 0.888272603665)"><use xlink:href="#tree0" /></g><g transform="translate(167.91423383,135.204272731) scale(0.888272603665, 0.888272603665)"><use xlink:href="#tree0" /></g><g transform="translate(-10.2855845746,150.477779205) scale(0.888272603665, 0.888272603665)"><use xlink:href="#tree0" /></g><g transform="translate(40.6286492552,150.477779205) scale(0.888272603665, 0.888272603665)"><use xlink:href="#tree0" /></g><g transform="translate(91.5428830851,150.477779205) scale(0.888272603665, 0.888272603665)"><use xlink:href="#tree0" /></g><g transform="translate(142.457116915,150.477779205) scale(0.888272603665, 0.888272603665)"><use xlink:href="#tree0" /></g><g transform="translate(193.371350745,150.477779205) scale(0.888272603665, 0.888272603665)"><use xlink:href="#tree0" /></g><g transform="translate(15.1715323403,165.751285679) scale(0.888272603665, 0.888272603665)"><use xlink:href="#tree0" /></g><g transform="translate(66.0857661702,165.751285679) scale(0.888272603665, 0.888272603665)"><use xlink:href="#tree0" /></g><g transform="translate(117.0,165.751285679) scale(0.888272603665, 0.888272603665)"><use xlink:href="#tree0" /></g><g transform="translate(167.91423383,165.751285679) scale(0.888272603665, 0.888272603665)"><use xlink:href="#tree0" /></g><g transform="translate(40.6286492552,181.024792152) scale(0.888272603665, 0.888272603665)"><use xlink:href="#tree0" /></g><g transform="translate(91.5428830851,181.024792152) scale(0.888272603665, 0.888272603665)"><use xlink:href="#tree0" /></g><g transform="translate(142.457116915,181.024792152) scale(0.888272603665, 0.888272603665)"><use xlink:href="#tree0" /></g><g transform="translate(66.0857661702,196.298298626) scale(0.888272603665, 0.888272603665)"><use xlink:href="#tree0" /></g><g transform="translate(117.0,196.298298626) scale(0.888272603665, 0.888272603665)"><use xlink:href="#tree0" /></g><g transform="translate(91.5428830851,211.571805099) scale(0.888272603665, 0.888272603665)"><use xlink:href="#tree0" /></g><g transform="translate(469.542883085,89.3837533104) scale(0.888272603665, 0.888272603665)"><use xlink:href="#tree0" /></g><g transform="translate(444.08576617,104.657259784) scale(0.888272603665, 0.888272603665)"><use xlink:href="#tree0" /></g><g transform="translate(495.0,104.657259784) scale(0.888272603665, 0.888272603665)"><use xlink:href="#tree0" /></g><g transform="translate(418.628649255,119.930766258) scale(0.888272603665, 0.888272603665)"><use xlink:href="#tree0" /></g><g transform="translate(469.542883085,119.930766258) scale(0.888272603665, 0.888272603665)"><use xlink:href="#tree0" /></g><g transform="translate(520.457116915,119.930766258) scale(0.888272603665, 0.888272603665)"><use xlink:href="#tree0" /></g><g transform="translate(393.17153234,135.204272731) scale(0.888272603665, 0.888272603665)"><use xlink:href="#tree0" /></g><g transform="translate(444.08576617,135.204272731) scale(0.888272603665, 0.888272603665)"><use xlink:href="#tree0" /></g><g transform="translate(495.0,135.204272731) scale(0.888272603665, 0.888272603665)"><use xlink:href="#tree0" /></g><g transform="translate(545.91423383,135.204272731) scale(0.888272603665, 0.888272603665)"><use xlink:href="#tree0" /></g><g transform="translate(367.714415425,150.477779205) scale(0.888272603665, 0.888272603665)"><use xlink:href="#tree0" /></g><g transform="translate(418.628649255,150.477779205) scale(0.888272603665, 0.888272603665)"><use xlink:href="#tree0" /></g><g transform="translate(469.542883085,150.477779205) scale(0.888272603665, 0.888272603665)"><use xlink:href="#tree0" /></g><g transform="translate(520.457116915,150.477779205) scale(0.888272603665, 0.888272603665)"><use xlink:href="#tree0" /></g><g transform="translate(571.371350745,150.477779205) scale(0.888272603665, 0.888272603665)"><use xlink:href="#tree0" /></g><g transform="translate(393.17153234,165.751285679) scale(0.888272603665, 0.888272603665)"><use xlink:href="#tree0" /></g><g transform="translate(444.08576617,165.751285679) scale(0.888272603665, 0.888272603665)"><use xlink:href="#tree0" /></g><g transform="translate(495.0,165.751285679) scale(0.888272603665, 0.888272603665)"><use xlink:href="#tree0" /></g><g transform="translate(545.91423383,165.751285679) scale(0.888272603665, 0.888272603665)"><use xlink:href="#tree0" /></g><g transform="translate(418.628649255,181.024792152) scale(0.888272603665, 0.888272603665)"><use xlink:href="#tree0" /></g><g transform="translate(469.542883085,181.024792152) scale(0.888272603665, 0.888272603665)"><use xlink:href="#tree0" /></g><g transform="translate(520.457116915,181.024792152) scale(0.888272603665, 0.888272603665)"><use xlink:href="#tree0" /></g><g transform="translate(444.08576617,196.298298626) scale(0.888272603665, 0.888272603665)"><use xlink:href="#tree0" /></g><g transform="translate(495.0,196.298298626) scale(0.888272603665, 0.888272603665)"><use xlink:href="#tree0" /></g><g transform="translate(469.542883085,211.571805099) scale(0.888272603665, 0.888272603665)"><use xlink:href="#tree0" /></g><g transform="translate(280.542883085,179.38825331) scale(0.888272603665, 0.888272603665)"><use xlink:href="#tree0" /></g><g transform="translate(255.08576617,194.661759784) scale(0.888272603665, 0.888272603665)"><use xlink:href="#tree0" /></g><g transform="translate(306.0,194.661759784) scale(0.888272603665, 0.888272603665)"><use xlink:href="#tree0" /></g><g transform="translate(229.628649255,209.935266258) scale(0.888272603665, 0.888272603665)"><use xlink:href="#tree0" /></g><g transform="translate(280.542883085,209.935266258) scale(0.888272603665, 0.888272603665)"><use xlink:href="#tree0" /></g><g transform="translate(331.457116915,209.935266258) scale(0.888272603665, 0.888272603665)"><use xlink:href="#tree0" /></g><g transform="translate(204.17153234,225.208772731) scale(0.888272603665, 0.888272603665)"><use xlink:href="#tree0" /></g><g transform="translate(255.08576617,225.208772731) scale(0.888272603665, 0.888272603665)"><use xlink:href="#tree0" /></g><g transform="translate(306.0,225.208772731) scale(0.888272603665, 0.888272603665)"><use xlink:href="#tree0" /></g><g transform="translate(356.91423383,225.208772731) scale(0.888272603665, 0.888272603665)"><use xlink:href="#tree0" /></g><g transform="translate(178.714415425,240.482279205) scale(0.888272603665, 0.888272603665)"><use xlink:href="#tree0" /></g><g transform="translate(229.628649255,240.482279205) scale(0.888272603665, 0.888272603665)"><use xlink:href="#tree0" /></g><g transform="translate(280.542883085,240.482279205) scale(0.888272603665, 0.888272603665)"><use xlink:href="#tree0" /></g><g transform="translate(331.457116915,240.482279205) scale(0.888272603665, 0.888272603665)"><use xlink:href="#tree0" /></g><g transform="translate(382.371350745,240.482279205) scale(0.888272603665, 0.888272603665)"><use xlink:href="#tree0" /></g><g transform="translate(204.17153234,255.755785679) scale(0.888272603665, 0.888272603665)"><use xlink:href="#tree0" /></g><g transform="translate(255.08576617,255.755785679) scale(0.888272603665, 0.888272603665)"><use xlink:href="#tree0" /></g><g transform="translate(306.0,255.755785679) scale(0.888272603665, 0.888272603665)"><use xlink:href="#tree0" /></g><g transform="translate(356.91423383,255.755785679) scale(0.888272603665, 0.888272603665)"><use xlink:href="#tree0" /></g><g transform="translate(229.628649255,271.029292152) scale(0.888272603665, 0.888272603665)"><use xlink:href="#tree0" /></g><g transform="translate(280.542883085,271.029292152) scale(0.888272603665, 0.888272603665)"><use xlink:href="#tree0" /></g><g transform="translate(331.457116915,271.029292152) scale(0.888272603665, 0.888272603665)"><use xlink:href="#tree0" /></g><g transform="translate(255.08576617,286.302798626) scale(0.888272603665, 0.888272603665)"><use xlink:href="#tree0" /></g><g transform="translate(306.0,286.302798626) scale(0.888272603665, 0.888272603665)"><use xlink:href="#tree0" /></g><g transform="translate(280.542883085,301.576305099) scale(0.888272603665, 0.888272603665)"><use xlink:href="#tree0" /></g></g></svg>