<?xml version="1.0" encoding="utf-8"?>
<!-- Generator: Adobe Illustrator 20.0.0, SVG Export Plug-In . SVG Version: 6.00 Build 0)  -->
<svg version="1.1" id="Layer_1" xmlns="http://www.w3.org/2000/svg" xmlns:xlink="http://www.w3.org/1999/xlink" x="0px" y="0px"
	 viewBox="0 0 612 792" style="enable-background:new 0 0 612 792;" xml:space="preserve">
<style type="text/css">
	.st0{fill:#FFFFFF;stroke:#000000;stroke-miterlimit:10;}
</style>
<g>
	<g>
		<g id="g4" transform="translate(-5.004,-29.069)">
			<path id="path2" class="st0" d="M221.8,402.3L161.1,426l-8,40.3l17.5,44.8l-6.6,2.6l5.6,14.4l6.7-2.6l1.1-0.4l13.1-5.1
				c0-0.1-0.1-0.2-0.1-0.3c-5-12.7,1.3-27.1,14-32c12.7-5,27.1,1.3,32,14c0,0.1,0.1,0.2,0.1,0.3l20.9-8.2L221.8,402.3z M200.4,449.3
				L200.4,449.3L200.4,449.3l-36,14.2l-0.5-1.4l0.2-0.1l6-30.3l-0.2-0.5l19.1-7.5l0,0l1.4-0.5L200.4,449.3z"/>
		</g>
		<path id="path6" class="st0" d="M377.1,441c-10.4,4.1-22.1-1.1-26.2-11.5c-4.1-10.4,1.1-22.1,11.5-26.2
			c10.4-4.1,22.1,1.1,26.2,11.5C392.6,425.2,387.4,436.9,377.1,441z M365.5,411.4c-5.9,2.3-8.9,9-6.6,15c2.3,5.9,9,8.9,15,6.6
			c5.9-2.3,8.9-9,6.6-15C378.2,412,371.4,409.1,365.5,411.4z"/>
		<path id="path8" class="st0" d="M215.9,500.7c-10.4,4.1-22.1-1.1-26.2-11.5c-4.1-10.4,1.1-22.1,11.5-26.2
			c10.4-4.1,22.1,1.1,26.2,11.5S226.3,496.6,215.9,500.7z M204.3,471.1c-5.9,2.3-8.9,9-6.6,15c2.3,5.9,9,8.9,15,6.6
			c5.9-2.3,8.9-9,6.6-15C217,471.7,210.3,468.8,204.3,471.1z"/>
		<g id="g12" transform="translate(-5.004,-29.069)">
			<path id="path10" class="st0" d="M323.8,336.5l-105.3,41.1l45.6,116.8l87.4-34.1c-4-12.3,2.3-25.8,14.5-30.6s26,0.9,31.4,12.6
				l33.8-13.2L323.8,336.5z"/>
		</g>
		<path id="path14" class="st0" d="M447.3,362.5c-2.5-6.3-7.1-11.2-12.6-14.2l0,0l-82.4-42.1l0,0c-7.1-4.4-16.1-5.6-24.4-2.3
			c-0.9,0.3-1.7,0.7-2.5,1.1l107.4,92.5l0,0C446.2,391.6,452.7,376.2,447.3,362.5z"/>
	</g>
	<g>
		<path class="st0" d="M290.6,388.1l3.6,0.7c0.5-0.2,0.7-0.5,0.5-0.9c-0.1-0.3-0.4-0.6-0.8-1l-11.3-9.7l-14.3,6
			c-0.6,0.3-0.8,0.7-0.6,1.4c0.1,0.1,0.3,0.3,0.9,0.4l3.7,0.6l-1.2,6.2c-0.3,1.8-0.3,3.1,0,4c0.3,0.8,1,1.6,2,2.4l16.5,13.3
			c-0.7-1-1.2-2-1.6-2.9c-0.7-1.7-0.8-3.6-0.4-5.7L290.6,388.1L290.6,388.1z"/>
		<path class="st0" d="M290.4,376.6l3.2-15.7c-5.7-5.7-10.3-7.9-13.7-6.6c-2.1,0.8-3.2,1.9-3.5,3.3l-2.9,15.2L290.4,376.6
			L290.4,376.6z"/>
		<path class="st0" d="M297.1,413.1l15.6-6.1l-6.3-16.2l-15,5.9c-0.8,3.4-1.3,5.6-1.4,6.7c-0.2,1.8,0,3.5,0.6,5
			C292.2,412.6,294.4,414.2,297.1,413.1L297.1,413.1z"/>
		<path class="st0" d="M314.8,363.7l2.4-14.4c0.1-0.5,0-1-0.1-1.4c-0.2-0.5-0.5-0.7-0.8-0.6c0.1,0-0.1,0.2-0.6,0.5l-2.6,2.7
			l-5.1-4.6c-2.3-2.1-5.4-2.4-9.2-0.8l-18.1,7.1c2.5-0.2,4.2-0.1,5.3,0.2c2.4,0.7,5.4,2.8,8.9,6l6.6,6.2l-2.2,2.3
			c-0.2,0.2-0.3,0.5-0.1,0.9c0.2,0.4,0.5,0.6,1.1,0.4L314.8,363.7L314.8,363.7z"/>
		<path class="st0" d="M335.2,395.4l2.9-22.3c-0.8,2.3-2,4.1-3.5,5.3c-1.2,1-3.1,2-5.7,3.1l-11.3,4.4l-0.9-2.3
			c-0.4-0.9-0.8-1.3-1.2-1.1c-0.3,0.1-0.5,0.3-0.6,0.6l-2.3,15.1l11.8,8.5c0.9,0.6,1.5,0.8,1.8,0.4c0.4-0.3,0.5-0.6,0.4-0.9
			l-1.5-3.9l6.2-2.4C333.7,399,335,397.5,335.2,395.4L335.2,395.4z"/>
		<path class="st0" d="M324.4,380.6l6.7-2.6c1.6-0.6,3-2,4.2-4.1c1.3-2.2,1.6-4.1,0.9-5.7c-0.3-0.8-0.8-1.4-1.6-1.9l-12.8-9.1
			l-10.6,13.4L324.4,380.6L324.4,380.6z"/>
	</g>
</g>
<g id="g8" transform="translate(-3.1777026,-7.9058643)">
	<path id="path2_1_" class="st0" d="M91,533.5c0,0-13.5,30.4,41.6,59.5c0,0,35.8,65.6,151.1,80c0,0,10.5,1,38.3-23.2
		c0,0,4.2-5.2,5.3-11.7c0,0,27.2-13,9-42.4l-8.1-2.7c0,0.1,0,0.2-0.1,0.3c-4.5,13.6-19.2,21-32.8,16.4s-21-19.2-16.4-32.8
		c0-0.1,0.1-0.2,0.1-0.3l-111-37c0,0.1,0,0.2-0.1,0.3c-4.5,13.6-19.2,21-32.8,16.4c-13.6-4.5-21-19.2-16.4-32.8
		c0-0.1,0.1-0.2,0.1-0.3l-6-2C112.6,521.3,94.9,515.1,91,533.5z M276.8,639.8c8.8,4.1,3.4,7.2,3.4,7.2c-7.4,7.9-26.9,5.3-41,2.1
		l7.4-22.1L276.8,639.8z M162.9,591.4l78.4,33.3l-7.7,23c-6-1.6-10.1-3-10.1-3c-54.6-21-65.3-45.6-65.3-45.6
		C152.3,585.8,162.9,591.4,162.9,591.4z"/>
	<path id="path4" class="st0" d="M136.1,553.3c12.1,4,25.1-2.5,29.1-14.6c4-12-2.5-25.1-14.6-29.1c-12.1-4-25.1,2.5-29.1,14.6
		C117.5,536.3,124,549.3,136.1,553.3z M147.1,520.2c6.3,2.1,9.6,8.9,7.6,15.1c-2.1,6.3-8.9,9.6-15.1,7.6c-6.3-2.1-9.6-8.9-7.6-15.1
		C134.1,521.5,140.9,518.1,147.1,520.2z"/>
	<path id="path6_1_" class="st0" d="M296,606.6c12.1,4,25.1-2.5,29.1-14.6c4-12-2.5-25.1-14.6-29.1s-25.1,2.5-29.1,14.6
		C277.5,589.6,284,602.6,296,606.6z M307.1,573.5c6.3,2.1,9.6,8.9,7.6,15.1c-2.1,6.3-8.9,9.6-15.1,7.6c-6.3-2.1-9.6-8.9-7.6-15.1
		S300.8,571.4,307.1,573.5z"/>
</g>
<g>
	<path id="path2_2_" class="st0" d="M372.6,550.6c-8.3-9.2-22.5-9.9-31.7-1.6c-9.2,8.3-9.9,22.5-1.6,31.7c8.3,9.2,22.5,9.9,31.7,1.6
		C380.2,574.1,380.9,559.9,372.6,550.6z M364.6,557.9c4.3,4.8,4,12.2-0.8,16.6c-4.8,4.3-12.2,4-16.6-0.8c-4.3-4.8-4-12.2,0.8-16.6
		C352.8,552.7,360.2,553.1,364.6,557.9z"/>
	<path id="path4_1_" class="st0" d="M494.7,439.4c-8.3-9.2-22.5-9.9-31.7-1.6c-9.2,8.3-9.9,22.5-1.6,31.7c8.3,9.2,22.5,9.9,31.7,1.6
		C502.4,462.8,503.1,448.6,494.7,439.4z M486.8,446.6c4.3,4.8,4,12.2-0.8,16.6c-4.8,4.3-12.2,4-16.6-0.8c-4.3-4.8-4-12.2,0.8-16.6
		C475,441.4,482.4,441.8,486.8,446.6z"/>
	<path id="path6_2_" class="st0" d="M516.3,428.3c0,0-8.6-2.5-12.7,0.5l-7.5,6.8c0.8,0.7,1.6,1.4,2.3,2.2
		c9.7,10.7,8.8,27.2-1.9,36.8s-27.2,8.8-36.8-1.9c-0.7-0.8-1.4-1.6-2-2.5l-84.3,76.2c0.8,0.7,1.6,1.4,2.3,2.2
		c9.7,10.7,8.8,27.2-1.9,36.8c-10.7,9.7-27.2,8.8-36.8-1.9c-0.7-0.8-1.4-1.6-2-2.5l-0.9,0.8c0,0-4.9,4.8-0.3,10.2
		c0,0-5.8,4.2-2.8,7.5c0,0,2.4,5,7.2,1.3c0,0,9.8,13.6,22.8,14.2c0,0,15.1,3,48.8-25c0,0,34.3,5.3,38.2,4.2c0,0,6.6-0.6,10.4-3.4
		l54.5-49.3c0,0,14.7-11.2,16-27.9c0,0,2.2-27.1-0.8-36.7c0,0,5.6-25.2-4.8-41.4c0,0,3.5-5.6,1.5-8.5
		C524.9,427.3,522.9,423,516.3,428.3z M458.1,522.7c0.6,0.7,0.6,1.8-0.1,2.4l-5.9,5.3c-0.7,0.6-1.8,0.6-2.4-0.1
		c-0.6-0.7-0.6-1.8,0.1-2.4l5.9-5.3C456.4,521.9,457.5,522,458.1,522.7z M486,545.7c5.3,6.4-2.5,11.1-2.5,11.1l-25.1,22.9
		c-4,3.6-11.4,2.7-11.4,2.7l-15.7-2.6c-12.2-2-3.3-9-3.3-9l38.8-35.1c4.1-3.7,8.6-1.7,8.6-1.7L486,545.7z M515.1,501.8
		c6.6,24.7-15.8,40.9-15.8,40.9c-2.9,2.3-5.6,0.3-5.6,0.3L481.1,529c-3.4-4.4,0-6.4,0-6.4l24.2-21.9
		C513.8,495.1,515.1,501.8,515.1,501.8z"/>
</g>
<g>
	<path id="path2_4_" class="st0" d="M179.2,235.1c-13.2,2.8-21.6,15.8-18.8,29c2.8,13.2,15.8,21.6,29,18.8
		c13.2-2.8,21.6-15.8,18.8-29C205.4,240.7,192.4,232.3,179.2,235.1z M187,271.5c-6.9,1.5-13.7-2.9-15.1-9.8
		c-1.5-6.9,2.9-13.7,9.8-15.1c6.9-1.5,13.6,2.9,15.1,9.8C198.3,263.2,193.9,270,187,271.5z"/>
	<path id="path4_3_" class="st0" d="M157.7,176c0,0,0.6-5.4,2.9-5.9l111.8-23.9c0,0,5.2-0.6,6.2,3.9L157.7,176z"/>
	<path id="path6_4_" class="st0" d="M345.3,199.5c-13.2,2.8-21.6,15.8-18.8,29c2.8,13.2,15.8,21.6,29,18.8
		c13.2-2.8,21.6-15.8,18.8-29C371.4,205.1,358.5,196.7,345.3,199.5z M353.1,235.9c-6.9,1.5-13.7-2.9-15.1-9.8
		c-1.5-6.9,2.9-13.7,9.8-15.1c6.9-1.5,13.6,2.9,15.1,9.8C364.3,227.6,359.9,234.4,353.1,235.9z"/>
	<path id="path12" class="st0" d="M399.7,213.4c1.2-3.6-2.2-18.7-2.2-18.7c-1.3-4.7-5.5-6.6-5.5-6.6c-9.7-25.2-55-17.2-55-17.2
		c-7.5,1.6-23.3-0.1-23.3-0.1c-10.5-8.4-34.4-18.6-34.4-18.6l-121.6,26c-6,1.3-12.3,29.5-12.3,29.5l-2.6,0.6
		c-10.2,3.9-4.3,31.6-4.3,31.6c-12.4,8.6,1.4,30.4,1.4,30.4c0.8,3,4.1,4.4,4.1,4.4l15.7-3.4c-1-2.1-1.9-4.3-2.4-6.6
		c-3.2-14.9,6.3-29.6,21.3-32.8c14.9-3.2,29.6,6.3,32.8,21.3c0.5,2.4,0.7,4.7,0.6,7l113.9-24.4c-1-2.1-1.9-4.3-2.4-6.6
		c-3.2-14.9,6.3-29.6,21.3-32.8c14.9-3.2,29.6,6.3,32.8,21.3c0.5,2.4,0.7,4.7,0.6,7l24.2-5.2c0.2-0.2,0.3-0.4,0.4-0.5
		C403.7,216.5,399.7,213.4,399.7,213.4z M233,192.2l-4.6-21.7l50.2-10.7c0,0,20.6,11.3,26.3,17.1L233,192.2z"/>
</g>
<g id="g8_1_" transform="translate(-1.7520512,-6.3140491)">
	<path id="path2_5_" class="st0" d="M123.6,312.8c-1.8,10.5,5.1,20.4,15.6,22.3c10.5,1.8,20.4-5.1,22.3-15.6
		c1.8-10.5-5.1-20.4-15.6-22.3C135.4,295.4,125.4,302.4,123.6,312.8z M152.8,318c-1,5.7-6.4,9.5-12.1,8.5c-5.7-1-9.5-6.4-8.5-12.1
		c1-5.7,6.4-9.5,12.1-8.5C150,306.9,153.8,312.3,152.8,318z"/>
	<path id="path4_4_" class="st0" d="M94.5,477.9c-1.8,10.5,5.1,20.4,15.6,22.3c10.5,1.8,20.4-5.1,22.3-15.6
		c1.8-10.5-5.1-20.4-15.6-22.3C106.3,460.4,96.3,467.4,94.5,477.9z M123.7,483c-1,5.7-6.4,9.5-12.1,8.4c-5.7-1-9.5-6.4-8.5-12.1
		c1-5.7,6.4-9.4,12.1-8.5C120.9,471.9,124.7,477.3,123.7,483z"/>
	<path id="path6_5_" class="st0" d="M90.9,316.6c0,0-32.4,35.8-41.3,81.3c0,0-8.7,28,4.1,74.4c0,0,6.9,20.6,4.4,40.6
		c0,0,5.4,10.4,25.6,13.4c0,0,13.8,2.7,21.7-5.6l3.5-18.1c-11.5-2.4-19.2-13.5-17.1-25.2c2.1-11.9,13.4-19.8,25.3-17.7c0,0,0,0,0,0
		l23.5-121.7c-0.7-0.1-1.3-0.1-2-0.2c-11.9-2.1-19.8-13.4-17.7-25.3c2.1-11.9,13.4-19.8,25.3-17.7c0.9,0.2,1.8,0.4,2.6,0.6l1-5
		c0,0,8.9-27.8-6.1-31l-8.9-1.6C134.9,257.9,111.8,253,90.9,316.6z M94,338.7l-23,120c-4.2,16-8.7,4.9-8.7,4.9s-11.9-27.4-4.6-62.2
		c7.2-34.8,28-64.2,28-64.2C96.9,323.4,94,338.7,94,338.7z"/>
</g>
<g>
	<path id="path2_3_" class="st0" d="M417.3,263.2c-6.1-8.1-17.6-9.8-25.8-3.7c-8.1,6.1-9.8,17.6-3.6,25.8c6.1,8.1,17.7,9.8,25.8,3.7
		C421.8,282.8,423.4,271.3,417.3,263.2z M394.9,280c-3.2-4.2-2.3-10.3,1.9-13.5c4.2-3.2,10.3-2.3,13.5,1.9
		c3.2,4.2,2.3,10.3-1.9,13.5C404.1,285.1,398.1,284.3,394.9,280z"/>
	<path id="path4_2_" class="st0" d="M512.3,389.5c-6.1-8.1-17.6-9.8-25.8-3.6c-8.1,6.1-9.8,17.6-3.6,25.8c6.1,8.1,17.7,9.8,25.8,3.7
		C516.8,409.2,518.4,397.7,512.3,389.5z M489.9,406.4c-3.2-4.2-2.3-10.3,1.9-13.5c4.2-3.2,10.3-2.3,13.5,1.9
		c3.2,4.2,2.3,10.3-1.9,13.5C499.1,411.5,493.1,410.6,489.9,406.4z"/>
	<path id="path6_3_" class="st0" d="M549.1,422.4c9.1-10.8-12.3-57.5-12.3-57.5c-12.6-64.2-32.5-89.8-32.5-89.8
		c-21.1-35.1-81.4-71.3-81.4-71.3l-28.3,15.3c-24.2,5.4-14.1,25.9-14.1,25.9l8.7,11.6c0.1-0.1,0.2-0.2,0.3-0.3
		c9.9-7.5,24.1-5.5,31.5,4.5c7.5,9.9,5.5,24.1-4.5,31.5c-0.1,0.1-0.2,0.1-0.3,0.2l67.9,90.4c9.9-7.5,24.1-5.5,31.5,4.5
		c7.5,9.9,5.5,24.1-4.5,31.5l12.9,17.2C533.3,446.1,549.1,422.4,549.1,422.4z M474.2,288l-31.4-41.7l22.1-3.8
		c13.9,9.8,28.7,30.8,28.7,30.8L474.2,288z M475.3,315l-5.5-7.3l1.6-1.2l5.5,7.3L475.3,315z M479,294.4l19.5-14.7
		c21.3,32.5,28.1,77.9,28.1,77.9L479,294.4z"/>
</g>
</svg>
