<?xml version="1.0" encoding="utf-8" ?>
<svg baseProfile="full" height="792.0" version="1.1" width="612.0" xmlns="http://www.w3.org/2000/svg" xmlns:ev="http://www.w3.org/2001/xml-events" xmlns:xlink="http://www.w3.org/1999/xlink"><defs><g id="tree0"><path d="m76.42711,15.43706c-2.8035,-1.37448 -5.76791,-2.35898 -8.86594,-2.92895c-2.45443,-4.07708 -5.96972,-7.30874 -10.22951,-9.40592c-3.44165,-1.68265 -7.11512,-2.55261 -10.92221,-2.55261c-9.51227,0 -18.03732,5.30429 -22.2453,13.84298c-2.09172,4.27889 -2.90986,9.08411 -2.36443,13.78025c-10.12043,4.18889 -16.74738,13.97933 -16.74738,25.15789c0,15.01565 12.21487,27.23597 27.22779,27.23597c4.82159,0 9.48773,-1.25176 13.61662,-3.64074c0.07363,0.02182 0.14727,0.05727 0.2209,0.11181c0.3818,0.18545 0.78269,0.3218 1.18358,0.49634l0,41.40348l-17.09373,0l0,6.06244l39.82992,0l0,-6.06244l-16.68193,0l0,-18.67547l11.9667,-9.18229l-3.67346,-4.81068l-8.29324,6.3597l0,-12.98938c2.56624,0.61088 5.19521,0.92723 7.88417,0.92723c13.20755,0 24.99972,-7.3442 30.82489,-19.18272c8.35597,-16.97919 1.33085,-37.59639 -15.63744,-45.9469l0,0.00001z" fill="#FFFFFF" stroke="#000000" stroke-width="2.76851851852" /></g><g id="tree1"><path d="m77.1088,30.61414c-3.35361,0 -6.62692,0.7394 -9.61222,2.17113c-3.41731,-7.84541 -11.16303,-13.05722 -20.00262,-13.05722c-11.75566,0 -21.38726,9.31314 -21.86635,20.97741c-7.33863,1.18248 -12.97137,7.57956 -12.97137,15.26712c0,8.52388 6.93708,15.47482 15.46651,15.47482c2.63913,0 5.13704,-0.7034 7.33309,-1.90527l11.8415,10.96918l0,38.3298l-17.36624,0l0,6.15891l40.47047,0l0,-6.15891l-16.95916,0l0,-30.77517l17.78163,-13.40062c1.88589,0.53448 3.84378,0.85017 5.87644,0.85017c12.37597,0 22.46175,-10.07746 22.46175,-22.45898c0.00831,-12.38705 -10.08023,-22.44236 -22.45344,-22.44236l0.00001,-0.00001zm-36.89531,34.95403c0.66463,-0.86679 1.29326,-1.77511 1.77511,-2.78037c1.73081,0.45139 3.51146,0.60094 5.31427,0.61755l0,8.72327l-7.08939,-6.56046zm13.23723,14.81018l0,-17.76779c0.98033,-0.26585 1.98005,-0.58986 2.90222,-1.00526c1.75574,4.22318 4.74934,7.73464 8.46851,10.19654l-11.37072,8.5765l-0.00001,0z" fill="#FFFFFF" stroke="#000000" stroke-width="2.76851851852" /></g><g id="tree2"><path d="M 50.042969 0.80078125 C 31.942969 0.80078125 17.341797 15.5 17.341797 33.5 C 17.341797 50.6 30.541797 64.6 47.341797 66 L 47.341797 72.400391 L 40.742188 68.300781 L 38.742188 67 C 38.727519 66.99057 38.711999 66.985707 38.697266 66.976562 L 35.574219 71.847656 C 35.59845 71.8642 35.617715 71.884407 35.642578 71.900391 L 47.443359 79.5 L 47.443359 118.40039 L 30.943359 118.40039 L 29.642578 118.40039 L 29.642578 124.19922 L 30.943359 124.19922 L 69.142578 124.19922 L 70.341797 124.19922 L 70.341797 118.40039 L 69.142578 118.40039 L 53.142578 118.40039 L 53.142578 89.300781 L 70.742188 76 C 73.542187 77.4 76.643359 78.199219 79.943359 78.199219 C 90.943359 78.199219 99.943359 69.199219 99.943359 58.199219 C 99.943359 48.099219 92.241797 39.600391 82.341797 38.400391 C 82.641797 36.700391 82.742188 35.1 82.742188 33.5 C 82.742188 15.5 68.142969 0.80078125 50.042969 0.80078125 z M 60.841797 64.300781 C 61.841797 67.500781 63.541797 70.3 65.841797 72.5 L 53.142578 82.099609 L 53.142578 66 C 55.742578 65.7 58.341797 65.200781 60.841797 64.300781 z " fill="#FFFFFF" stroke="#000000" stroke-width="2.76851851852" /></g></defs><rect fill="none" height="720.0" stroke="#000000" stroke-width="1" width="540.0" x="36.0" y="36.0" /><g id="rects_outer"><polygon fill="#FFFFFF" points="59.4782608696,183.927272727 36.0,198.327272727 59.4782608696,212.727272727 82.9565217391,198.327272727" stroke="#000000" stroke-width="1" /><polygon fill="#FFFFFF" points="106.434782609,183.927272727 82.9565217391,198.327272727 106.434782609,212.727272727 129.913043478,198.327272727" stroke="#000000" stroke-width="1" /><polygon fill="#FFFFFF" points="153.391304348,183.927272727 129.913043478,198.327272727 153.391304348,212.727272727 176.869565217,198.327272727" stroke="#000000" stroke-width="1" /><polygon fill="#FFFFFF" points="200.347826087,183.927272727 176.869565217,198.327272727 200.347826087,212.727272727 223.826086957,198.327272727" stroke="#000000" stroke-width="1" /><polygon fill="#FFFFFF" points="247.304347826,183.927272727 223.826086957,198.327272727 247.304347826,212.727272727 270.782608696,198.327272727" stroke="#000000" stroke-width="1" /><polygon fill="#FFFFFF" points="294.260869565,183.927272727 270.782608696,198.327272727 294.260869565,212.727272727 317.739130435,198.327272727" stroke="#000000" stroke-width="1" /><polygon fill="#FFFFFF" points="341.217391304,183.927272727 317.739130435,198.327272727 341.217391304,212.727272727 364.695652174,198.327272727" stroke="#000000" stroke-width="1" /><polygon fill="#FFFFFF" points="388.173913043,183.927272727 364.695652174,198.327272727 388.173913043,212.727272727 411.652173913,198.327272727" stroke="#000000" stroke-width="1" /><polygon fill="#FFFFFF" points="435.130434783,183.927272727 411.652173913,198.327272727 435.130434783,212.727272727 458.608695652,198.327272727" stroke="#000000" stroke-width="1" /><polygon fill="#FFFFFF" points="482.086956522,183.927272727 458.608695652,198.327272727 482.086956522,212.727272727 505.565217391,198.327272727" stroke="#000000" stroke-width="1" /><polygon fill="#FFFFFF" points="529.043478261,183.927272727 505.565217391,198.327272727 529.043478261,212.727272727 552.52173913,198.327272727" stroke="#000000" stroke-width="1" /><polygon fill="#FFFFFF" points="82.9565217391,238.254545455 59.4782608696,252.654545455 82.9565217391,267.054545455 106.434782609,252.654545455" stroke="#000000" stroke-width="1" /><polygon fill="#FFFFFF" points="129.913043478,238.254545455 106.434782609,252.654545455 129.913043478,267.054545455 153.391304348,252.654545455" stroke="#000000" stroke-width="1" /><polygon fill="#FFFFFF" points="176.869565217,238.254545455 153.391304348,252.654545455 176.869565217,267.054545455 200.347826087,252.654545455" stroke="#000000" stroke-width="1" /><polygon fill="#FFFFFF" points="223.826086957,238.254545455 200.347826087,252.654545455 223.826086957,267.054545455 247.304347826,252.654545455" stroke="#000000" stroke-width="1" /><polygon fill="#FFFFFF" points="270.782608696,238.254545455 247.304347826,252.654545455 270.782608696,267.054545455 294.260869565,252.654545455" stroke="#000000" stroke-width="1" /><polygon fill="#FFFFFF" points="317.739130435,238.254545455 294.260869565,252.654545455 317.739130435,267.054545455 341.217391304,252.654545455" stroke="#000000" stroke-width="1" /><polygon fill="#FFFFFF" points="364.695652174,238.254545455 341.217391304,252.654545455 364.695652174,267.054545455 388.173913043,252.654545455" stroke="#000000" stroke-width="1" /><polygon fill="#FFFFFF" points="411.652173913,238.254545455 388.173913043,252.654545455 411.652173913,267.054545455 435.130434783,252.654545455" stroke="#000000" stroke-width="1" /><polygon fill="#FFFFFF" points="458.608695652,238.254545455 435.130434783,252.654545455 458.608695652,267.054545455 482.086956522,252.654545455" stroke="#000000" stroke-width="1" /><polygon fill="#FFFFFF" points="505.565217391,238.254545455 482.086956522,252.654545455 505.565217391,267.054545455 529.043478261,252.654545455" stroke="#000000" stroke-width="1" /><polygon fill="#FFFFFF" points="552.52173913,238.254545455 529.043478261,252.654545455 552.52173913,267.054545455 576.0,252.654545455" stroke="#000000" stroke-width="1" /><polygon fill="#FFFFFF" points="59.4782608696,292.581818182 36.0,306.981818182 59.4782608696,321.381818182 82.9565217391,306.981818182" stroke="#000000" stroke-width="1" /><polygon fill="#FFFFFF" points="106.434782609,292.581818182 82.9565217391,306.981818182 106.434782609,321.381818182 129.913043478,306.981818182" stroke="#000000" stroke-width="1" /><polygon fill="#FFFFFF" points="153.391304348,292.581818182 129.913043478,306.981818182 153.391304348,321.381818182 176.869565217,306.981818182" stroke="#000000" stroke-width="1" /><polygon fill="#FFFFFF" points="200.347826087,292.581818182 176.869565217,306.981818182 200.347826087,321.381818182 223.826086957,306.981818182" stroke="#000000" stroke-width="1" /><polygon fill="#FFFFFF" points="247.304347826,292.581818182 223.826086957,306.981818182 247.304347826,321.381818182 270.782608696,306.981818182" stroke="#000000" stroke-width="1" /><polygon fill="#FFFFFF" points="294.260869565,292.581818182 270.782608696,306.981818182 294.260869565,321.381818182 317.739130435,306.981818182" stroke="#000000" stroke-width="1" /><polygon fill="#FFFFFF" points="341.217391304,292.581818182 317.739130435,306.981818182 341.217391304,321.381818182 364.695652174,306.981818182" stroke="#000000" stroke-width="1" /><polygon fill="#FFFFFF" points="388.173913043,292.581818182 364.695652174,306.981818182 388.173913043,321.381818182 411.652173913,306.981818182" stroke="#000000" stroke-width="1" /><polygon fill="#FFFFFF" points="435.130434783,292.581818182 411.652173913,306.981818182 435.130434783,321.381818182 458.608695652,306.981818182" stroke="#000000" stroke-width="1" /><polygon fill="#FFFFFF" points="482.086956522,292.581818182 458.608695652,306.981818182 482.086956522,321.381818182 505.565217391,306.981818182" stroke="#000000" stroke-width="1" /><polygon fill="#FFFFFF" points="529.043478261,292.581818182 505.565217391,306.981818182 529.043478261,321.381818182 552.52173913,306.981818182" stroke="#000000" stroke-width="1" /><polygon fill="#FFFFFF" points="82.9565217391,346.909090909 59.4782608696,361.309090909 82.9565217391,375.709090909 106.434782609,361.309090909" stroke="#000000" stroke-width="1" /><polygon fill="#FFFFFF" points="129.913043478,346.909090909 106.434782609,361.309090909 129.913043478,375.709090909 153.391304348,361.309090909" stroke="#000000" stroke-width="1" /><polygon fill="#FFFFFF" points="176.869565217,346.909090909 153.391304348,361.309090909 176.869565217,375.709090909 200.347826087,361.309090909" stroke="#000000" stroke-width="1" /><polygon fill="#FFFFFF" points="223.826086957,346.909090909 200.347826087,361.309090909 223.826086957,375.709090909 247.304347826,361.309090909" stroke="#000000" stroke-width="1" /><polygon fill="#FFFFFF" points="270.782608696,346.909090909 247.304347826,361.309090909 270.782608696,375.709090909 294.260869565,361.309090909" stroke="#000000" stroke-width="1" /><polygon fill="#FFFFFF" points="317.739130435,346.909090909 294.260869565,361.309090909 317.739130435,375.709090909 341.217391304,361.309090909" stroke="#000000" stroke-width="1" /><polygon fill="#FFFFFF" points="364.695652174,346.909090909 341.217391304,361.309090909 364.695652174,375.709090909 388.173913043,361.309090909" stroke="#000000" stroke-width="1" /><polygon fill="#FFFFFF" points="411.652173913,346.909090909 388.173913043,361.309090909 411.652173913,375.709090909 435.130434783,361.309090909" stroke="#000000" stroke-width="1" /><polygon fill="#FFFFFF" points="458.608695652,346.909090909 435.130434783,361.309090909 458.608695652,375.709090909 482.086956522,361.309090909" stroke="#000000" stroke-width="1" /><polygon fill="#FFFFFF" points="505.565217391,346.909090909 482.086956522,361.309090909 505.565217391,375.709090909 529.043478261,361.309090909" stroke="#000000" stroke-width="1" /><polygon fill="#FFFFFF" points="552.52173913,346.909090909 529.043478261,361.309090909 552.52173913,375.709090909 576.0,361.309090909" stroke="#000000" stroke-width="1" /><polygon fill="#FFFFFF" points="59.4782608696,401.236363636 36.0,415.636363636 59.4782608696,430.036363636 82.9565217391,415.636363636" stroke="#000000" stroke-width="1" /><polygon fill="#FFFFFF" points="106.434782609,401.236363636 82.9565217391,415.636363636 106.434782609,430.036363636 129.913043478,415.636363636" stroke="#000000" stroke-width="1" /><polygon fill="#FFFFFF" points="153.391304348,401.236363636 129.913043478,415.636363636 153.391304348,430.036363636 176.869565217,415.636363636" stroke="#000000" stroke-width="1" /><polygon fill="#FFFFFF" points="200.347826087,401.236363636 176.869565217,415.636363636 200.347826087,430.036363636 223.826086957,415.636363636" stroke="#000000" stroke-width="1" /><polygon fill="#FFFFFF" points="247.304347826,401.236363636 223.826086957,415.636363636 247.304347826,430.036363636 270.782608696,415.636363636" stroke="#000000" stroke-width="1" /><polygon fill="#FFFFFF" points="294.260869565,401.236363636 270.782608696,415.636363636 294.260869565,430.036363636 317.739130435,415.636363636" stroke="#000000" stroke-width="1" /><polygon fill="#FFFFFF" points="341.217391304,401.236363636 317.739130435,415.636363636 341.217391304,430.036363636 364.695652174,415.636363636" stroke="#000000" stroke-width="1" /><polygon fill="#FFFFFF" points="388.173913043,401.236363636 364.695652174,415.636363636 388.173913043,430.036363636 411.652173913,415.636363636" stroke="#000000" stroke-width="1" /><polygon fill="#FFFFFF" points="435.130434783,401.236363636 411.652173913,415.636363636 435.130434783,430.036363636 458.608695652,415.636363636" stroke="#000000" stroke-width="1" /><polygon fill="#FFFFFF" points="482.086956522,401.236363636 458.608695652,415.636363636 482.086956522,430.036363636 505.565217391,415.636363636" stroke="#000000" stroke-width="1" /><polygon fill="#FFFFFF" points="529.043478261,401.236363636 505.565217391,415.636363636 529.043478261,430.036363636 552.52173913,415.636363636" stroke="#000000" stroke-width="1" /><polygon fill="#FFFFFF" points="82.9565217391,455.563636364 59.4782608696,469.963636364 82.9565217391,484.363636364 106.434782609,469.963636364" stroke="#000000" stroke-width="1" /><polygon fill="#FFFFFF" points="129.913043478,455.563636364 106.434782609,469.963636364 129.913043478,484.363636364 153.391304348,469.963636364" stroke="#000000" stroke-width="1" /><polygon fill="#FFFFFF" points="176.869565217,455.563636364 153.391304348,469.963636364 176.869565217,484.363636364 200.347826087,469.963636364" stroke="#000000" stroke-width="1" /><polygon fill="#FFFFFF" points="223.826086957,455.563636364 200.347826087,469.963636364 223.826086957,484.363636364 247.304347826,469.963636364" stroke="#000000" stroke-width="1" /><polygon fill="#FFFFFF" points="270.782608696,455.563636364 247.304347826,469.963636364 270.782608696,484.363636364 294.260869565,469.963636364" stroke="#000000" stroke-width="1" /><polygon fill="#FFFFFF" points="317.739130435,455.563636364 294.260869565,469.963636364 317.739130435,484.363636364 341.217391304,469.963636364" stroke="#000000" stroke-width="1" /><polygon fill="#FFFFFF" points="364.695652174,455.563636364 341.217391304,469.963636364 364.695652174,484.363636364 388.173913043,469.963636364" stroke="#000000" stroke-width="1" /><polygon fill="#FFFFFF" points="411.652173913,455.563636364 388.173913043,469.963636364 411.652173913,484.363636364 435.130434783,469.963636364" stroke="#000000" stroke-width="1" /><polygon fill="#FFFFFF" points="458.608695652,455.563636364 435.130434783,469.963636364 458.608695652,484.363636364 482.086956522,469.963636364" stroke="#000000" stroke-width="1" /><polygon fill="#FFFFFF" points="505.565217391,455.563636364 482.086956522,469.963636364 505.565217391,484.363636364 529.043478261,469.963636364" stroke="#000000" stroke-width="1" /><polygon fill="#FFFFFF" points="552.52173913,455.563636364 529.043478261,469.963636364 552.52173913,484.363636364 576.0,469.963636364" stroke="#000000" stroke-width="1" /><polygon fill="#FFFFFF" points="59.4782608696,509.890909091 36.0,524.290909091 59.4782608696,538.690909091 82.9565217391,524.290909091" stroke="#000000" stroke-width="1" /><polygon fill="#FFFFFF" points="106.434782609,509.890909091 82.9565217391,524.290909091 106.434782609,538.690909091 129.913043478,524.290909091" stroke="#000000" stroke-width="1" /><polygon fill="#FFFFFF" points="153.391304348,509.890909091 129.913043478,524.290909091 153.391304348,538.690909091 176.869565217,524.290909091" stroke="#000000" stroke-width="1" /><polygon fill="#FFFFFF" points="200.347826087,509.890909091 176.869565217,524.290909091 200.347826087,538.690909091 223.826086957,524.290909091" stroke="#000000" stroke-width="1" /><polygon fill="#FFFFFF" points="247.304347826,509.890909091 223.826086957,524.290909091 247.304347826,538.690909091 270.782608696,524.290909091" stroke="#000000" stroke-width="1" /><polygon fill="#FFFFFF" points="294.260869565,509.890909091 270.782608696,524.290909091 294.260869565,538.690909091 317.739130435,524.290909091" stroke="#000000" stroke-width="1" /><polygon fill="#FFFFFF" points="341.217391304,509.890909091 317.739130435,524.290909091 341.217391304,538.690909091 364.695652174,524.290909091" stroke="#000000" stroke-width="1" /><polygon fill="#FFFFFF" points="388.173913043,509.890909091 364.695652174,524.290909091 388.173913043,538.690909091 411.652173913,524.290909091" stroke="#000000" stroke-width="1" /><polygon fill="#FFFFFF" points="435.130434783,509.890909091 411.652173913,524.290909091 435.130434783,538.690909091 458.608695652,524.290909091" stroke="#000000" stroke-width="1" /><polygon fill="#FFFFFF" points="482.086956522,509.890909091 458.608695652,524.290909091 482.086956522,538.690909091 505.565217391,524.290909091" stroke="#000000" stroke-width="1" /><polygon fill="#FFFFFF" points="529.043478261,509.890909091 505.565217391,524.290909091 529.043478261,538.690909091 552.52173913,524.290909091" stroke="#000000" stroke-width="1" /><polygon fill="#FFFFFF" points="82.9565217391,564.218181818 59.4782608696,578.618181818 82.9565217391,593.018181818 106.434782609,578.618181818" stroke="#000000" stroke-width="1" /><polygon fill="#FFFFFF" points="129.913043478,564.218181818 106.434782609,578.618181818 129.913043478,593.018181818 153.391304348,578.618181818" stroke="#000000" stroke-width="1" /><polygon fill="#FFFFFF" points="176.869565217,564.218181818 153.391304348,578.618181818 176.869565217,593.018181818 200.347826087,578.618181818" stroke="#000000" stroke-width="1" /><polygon fill="#FFFFFF" points="223.826086957,564.218181818 200.347826087,578.618181818 223.826086957,593.018181818 247.304347826,578.618181818" stroke="#000000" stroke-width="1" /><polygon fill="#FFFFFF" points="270.782608696,564.218181818 247.304347826,578.618181818 270.782608696,593.018181818 294.260869565,578.618181818" stroke="#000000" stroke-width="1" /><polygon fill="#FFFFFF" points="317.739130435,564.218181818 294.260869565,578.618181818 317.739130435,593.018181818 341.217391304,578.618181818" stroke="#000000" stroke-width="1" /><polygon fill="#FFFFFF" points="364.695652174,564.218181818 341.217391304,578.618181818 364.695652174,593.018181818 388.173913043,578.618181818" stroke="#000000" stroke-width="1" /><polygon fill="#FFFFFF" points="411.652173913,564.218181818 388.173913043,578.618181818 411.652173913,593.018181818 435.130434783,578.618181818" stroke="#000000" stroke-width="1" /><polygon fill="#FFFFFF" points="458.608695652,564.218181818 435.130434783,578.618181818 458.608695652,593.018181818 482.086956522,578.618181818" stroke="#000000" stroke-width="1" /><polygon fill="#FFFFFF" points="505.565217391,564.218181818 482.086956522,578.618181818 505.565217391,593.018181818 529.043478261,578.618181818" stroke="#000000" stroke-width="1" /><polygon fill="#FFFFFF" points="552.52173913,564.218181818 529.043478261,578.618181818 552.52173913,593.018181818 576.0,578.618181818" stroke="#000000" stroke-width="1" /><polygon fill="#FFFFFF" points="59.4782608696,618.545454545 36.0,632.945454545 59.4782608696,647.345454545 82.9565217391,632.945454545" stroke="#000000" stroke-width="1" /><polygon fill="#FFFFFF" points="106.434782609,618.545454545 82.9565217391,632.945454545 106.434782609,647.345454545 129.913043478,632.945454545" stroke="#000000" stroke-width="1" /><polygon fill="#FFFFFF" points="153.391304348,618.545454545 129.913043478,632.945454545 153.391304348,647.345454545 176.869565217,632.945454545" stroke="#000000" stroke-width="1" /><polygon fill="#FFFFFF" points="200.347826087,618.545454545 176.869565217,632.945454545 200.347826087,647.345454545 223.826086957,632.945454545" stroke="#000000" stroke-width="1" /><polygon fill="#FFFFFF" points="247.304347826,618.545454545 223.826086957,632.945454545 247.304347826,647.345454545 270.782608696,632.945454545" stroke="#000000" stroke-width="1" /><polygon fill="#FFFFFF" points="294.260869565,618.545454545 270.782608696,632.945454545 294.260869565,647.345454545 317.739130435,632.945454545" stroke="#000000" stroke-width="1" /><polygon fill="#FFFFFF" points="341.217391304,618.545454545 317.739130435,632.945454545 341.217391304,647.345454545 364.695652174,632.945454545" stroke="#000000" stroke-width="1" /><polygon fill="#FFFFFF" points="388.173913043,618.545454545 364.695652174,632.945454545 388.173913043,647.345454545 411.652173913,632.945454545" stroke="#000000" stroke-width="1" /><polygon fill="#FFFFFF" points="435.130434783,618.545454545 411.652173913,632.945454545 435.130434783,647.345454545 458.608695652,632.945454545" stroke="#000000" stroke-width="1" /><polygon fill="#FFFFFF" points="482.086956522,618.545454545 458.608695652,632.945454545 482.086956522,647.345454545 505.565217391,632.945454545" stroke="#000000" stroke-width="1" /><polygon fill="#FFFFFF" points="529.043478261,618.545454545 505.565217391,632.945454545 529.043478261,647.345454545 552.52173913,632.945454545" stroke="#000000" stroke-width="1" /><polygon fill="#FFFFFF" points="82.9565217391,672.872727273 59.4782608696,687.272727273 82.9565217391,701.672727273 106.434782609,687.272727273" stroke="#000000" stroke-width="1" /><polygon fill="#FFFFFF" points="129.913043478,672.872727273 106.434782609,687.272727273 129.913043478,701.672727273 153.391304348,687.272727273" stroke="#000000" stroke-width="1" /><polygon fill="#FFFFFF" points="176.869565217,672.872727273 153.391304348,687.272727273 176.869565217,701.672727273 200.347826087,687.272727273" stroke="#000000" stroke-width="1" /><polygon fill="#FFFFFF" points="223.826086957,672.872727273 200.347826087,687.272727273 223.826086957,701.672727273 247.304347826,687.272727273" stroke="#000000" stroke-width="1" /><polygon fill="#FFFFFF" points="270.782608696,672.872727273 247.304347826,687.272727273 270.782608696,701.672727273 294.260869565,687.272727273" stroke="#000000" stroke-width="1" /><polygon fill="#FFFFFF" points="317.739130435,672.872727273 294.260869565,687.272727273 317.739130435,701.672727273 341.217391304,687.272727273" stroke="#000000" stroke-width="1" /><polygon fill="#FFFFFF" points="364.695652174,672.872727273 341.217391304,687.272727273 364.695652174,701.672727273 388.173913043,687.272727273" stroke="#000000" stroke-width="1" /><polygon fill="#FFFFFF" points="411.652173913,672.872727273 388.173913043,687.272727273 411.652173913,701.672727273 435.130434783,687.272727273" stroke="#000000" stroke-width="1" /><polygon fill="#FFFFFF" points="458.608695652,672.872727273 435.130434783,687.272727273 458.608695652,701.672727273 482.086956522,687.272727273" stroke="#000000" stroke-width="1" /><polygon fill="#FFFFFF" points="505.565217391,672.872727273 482.086956522,687.272727273 505.565217391,701.672727273 529.043478261,687.272727273" stroke="#000000" stroke-width="1" /><polygon fill="#FFFFFF" points="552.52173913,672.872727273 529.043478261,687.272727273 552.52173913,701.672727273 576.0,687.272727273" stroke="#000000" stroke-width="1" /><polygon fill="#FFFFFF" points="59.4782608696,727.2 36.0,741.6 59.4782608696,756.0 82.9565217391,741.6" stroke="#000000" stroke-width="1" /><polygon fill="#FFFFFF" points="106.434782609,727.2 82.9565217391,741.6 106.434782609,756.0 129.913043478,741.6" stroke="#000000" stroke-width="1" /><polygon fill="#FFFFFF" points="153.391304348,727.2 129.913043478,741.6 153.391304348,756.0 176.869565217,741.6" stroke="#000000" stroke-width="1" /><polygon fill="#FFFFFF" points="200.347826087,727.2 176.869565217,741.6 200.347826087,756.0 223.826086957,741.6" stroke="#000000" stroke-width="1" /><polygon fill="#FFFFFF" points="247.304347826,727.2 223.826086957,741.6 247.304347826,756.0 270.782608696,741.6" stroke="#000000" stroke-width="1" /><polygon fill="#FFFFFF" points="294.260869565,727.2 270.782608696,741.6 294.260869565,756.0 317.739130435,741.6" stroke="#000000" stroke-width="1" /><polygon fill="#FFFFFF" points="341.217391304,727.2 317.739130435,741.6 341.217391304,756.0 364.695652174,741.6" stroke="#000000" stroke-width="1" /><polygon fill="#FFFFFF" points="388.173913043,727.2 364.695652174,741.6 388.173913043,756.0 411.652173913,741.6" stroke="#000000" stroke-width="1" /><polygon fill="#FFFFFF" points="435.130434783,727.2 411.652173913,741.6 435.130434783,756.0 458.608695652,741.6" stroke="#000000" stroke-width="1" /><polygon fill="#FFFFFF" points="482.086956522,727.2 458.608695652,741.6 482.086956522,756.0 505.565217391,741.6" stroke="#000000" stroke-width="1" /><polygon fill="#FFFFFF" points="529.043478261,727.2 505.565217391,741.6 529.043478261,756.0 552.52173913,741.6" stroke="#000000" stroke-width="1" /></g><g id="trees"><g transform="translate(36.0, 139.631620553) scale(0.469565217391)"><use xlink:href="#tree0" /></g><g transform="translate(82.9565217391, 139.631620553) scale(0.469565217391)"><use xlink:href="#tree1" /></g><g transform="translate(129.913043478, 139.631620553) scale(0.469565217391)"><use xlink:href="#tree2" /></g><g transform="translate(176.869565217, 139.631620553) scale(0.469565217391)"><use xlink:href="#tree0" /></g><g transform="translate(223.826086957, 139.631620553) scale(0.469565217391)"><use xlink:href="#tree1" /></g><g transform="translate(270.782608696, 139.631620553) scale(0.469565217391)"><use xlink:href="#tree2" /></g><g transform="translate(317.739130435, 139.631620553) scale(0.469565217391)"><use xlink:href="#tree0" /></g><g transform="translate(364.695652174, 139.631620553) scale(0.469565217391)"><use xlink:href="#tree1" /></g><g transform="translate(411.652173913, 139.631620553) scale(0.469565217391)"><use xlink:href="#tree2" /></g><g transform="translate(458.608695652, 139.631620553) scale(0.469565217391)"><use xlink:href="#tree0" /></g><g transform="translate(505.565217391, 139.631620553) scale(0.469565217391)"><use xlink:href="#tree1" /></g><g transform="translate(59.4782608696, 193.958893281) scale(0.469565217391)"><use xlink:href="#tree2" /></g><g transform="translate(106.434782609, 193.958893281) scale(0.469565217391)"><use xlink:href="#tree0" /></g><g transform="translate(153.391304348, 193.958893281) scale(0.469565217391)"><use xlink:href="#tree1" /></g><g transform="translate(200.347826087, 193.958893281) scale(0.469565217391)"><use xlink:href="#tree2" /></g><g transform="translate(247.304347826, 193.958893281) scale(0.469565217391)"><use xlink:href="#tree0" /></g><g transform="translate(294.260869565, 193.958893281) scale(0.469565217391)"><use xlink:href="#tree1" /></g><g transform="translate(341.217391304, 193.958893281) scale(0.469565217391)"><use xlink:href="#tree2" /></g><g transform="translate(388.173913043, 193.958893281) scale(0.469565217391)"><use xlink:href="#tree0" /></g><g transform="translate(435.130434783, 193.958893281) scale(0.469565217391)"><use xlink:href="#tree1" /></g><g transform="translate(482.086956522, 193.958893281) scale(0.469565217391)"><use xlink:href="#tree2" /></g><g transform="translate(529.043478261, 193.958893281) scale(0.469565217391)"><use xlink:href="#tree0" /></g><g transform="translate(36.0, 248.286166008) scale(0.469565217391)"><use xlink:href="#tree1" /></g><g transform="translate(82.9565217391, 248.286166008) scale(0.469565217391)"><use xlink:href="#tree2" /></g><g transform="translate(129.913043478, 248.286166008) scale(0.469565217391)"><use xlink:href="#tree0" /></g><g transform="translate(176.869565217, 248.286166008) scale(0.469565217391)"><use xlink:href="#tree1" /></g><g transform="translate(223.826086957, 248.286166008) scale(0.469565217391)"><use xlink:href="#tree2" /></g><g transform="translate(270.782608696, 248.286166008) scale(0.469565217391)"><use xlink:href="#tree0" /></g><g transform="translate(317.739130435, 248.286166008) scale(0.469565217391)"><use xlink:href="#tree1" /></g><g transform="translate(364.695652174, 248.286166008) scale(0.469565217391)"><use xlink:href="#tree2" /></g><g transform="translate(411.652173913, 248.286166008) scale(0.469565217391)"><use xlink:href="#tree0" /></g><g transform="translate(458.608695652, 248.286166008) scale(0.469565217391)"><use xlink:href="#tree1" /></g><g transform="translate(505.565217391, 248.286166008) scale(0.469565217391)"><use xlink:href="#tree2" /></g><g transform="translate(59.4782608696, 302.613438735) scale(0.469565217391)"><use xlink:href="#tree0" /></g><g transform="translate(106.434782609, 302.613438735) scale(0.469565217391)"><use xlink:href="#tree1" /></g><g transform="translate(153.391304348, 302.613438735) scale(0.469565217391)"><use xlink:href="#tree2" /></g><g transform="translate(200.347826087, 302.613438735) scale(0.469565217391)"><use xlink:href="#tree0" /></g><g transform="translate(247.304347826, 302.613438735) scale(0.469565217391)"><use xlink:href="#tree1" /></g><g transform="translate(294.260869565, 302.613438735) scale(0.469565217391)"><use xlink:href="#tree2" /></g><g transform="translate(341.217391304, 302.613438735) scale(0.469565217391)"><use xlink:href="#tree0" /></g><g transform="translate(388.173913043, 302.613438735) scale(0.469565217391)"><use xlink:href="#tree1" /></g><g transform="translate(435.130434783, 302.613438735) scale(0.469565217391)"><use xlink:href="#tree2" /></g><g transform="translate(482.086956522, 302.613438735) scale(0.469565217391)"><use xlink:href="#tree0" /></g><g transform="translate(529.043478261, 302.613438735) scale(0.469565217391)"><use xlink:href="#tree1" /></g><g transform="translate(36.0, 356.940711462) scale(0.469565217391)"><use xlink:href="#tree2" /></g><g transform="translate(82.9565217391, 356.940711462) scale(0.469565217391)"><use xlink:href="#tree0" /></g><g transform="translate(129.913043478, 356.940711462) scale(0.469565217391)"><use xlink:href="#tree1" /></g><g transform="translate(176.869565217, 356.940711462) scale(0.469565217391)"><use xlink:href="#tree2" /></g><g transform="translate(223.826086957, 356.940711462) scale(0.469565217391)"><use xlink:href="#tree0" /></g><g transform="translate(270.782608696, 356.940711462) scale(0.469565217391)"><use xlink:href="#tree1" /></g><g transform="translate(317.739130435, 356.940711462) scale(0.469565217391)"><use xlink:href="#tree2" /></g><g transform="translate(364.695652174, 356.940711462) scale(0.469565217391)"><use xlink:href="#tree0" /></g><g transform="translate(411.652173913, 356.940711462) scale(0.469565217391)"><use xlink:href="#tree1" /></g><g transform="translate(458.608695652, 356.940711462) scale(0.469565217391)"><use xlink:href="#tree2" /></g><g transform="translate(505.565217391, 356.940711462) scale(0.469565217391)"><use xlink:href="#tree0" /></g><g transform="translate(59.4782608696, 411.26798419) scale(0.469565217391)"><use xlink:href="#tree1" /></g><g transform="translate(106.434782609, 411.26798419) scale(0.469565217391)"><use xlink:href="#tree2" /></g><g transform="translate(153.391304348, 411.26798419) scale(0.469565217391)"><use xlink:href="#tree0" /></g><g transform="translate(200.347826087, 411.26798419) scale(0.469565217391)"><use xlink:href="#tree1" /></g><g transform="translate(247.304347826, 411.26798419) scale(0.469565217391)"><use xlink:href="#tree2" /></g><g transform="translate(294.260869565, 411.26798419) scale(0.469565217391)"><use xlink:href="#tree0" /></g><g transform="translate(341.217391304, 411.26798419) scale(0.469565217391)"><use xlink:href="#tree1" /></g><g transform="translate(388.173913043, 411.26798419) scale(0.469565217391)"><use xlink:href="#tree2" /></g><g transform="translate(435.130434783, 411.26798419) scale(0.469565217391)"><use xlink:href="#tree0" /></g><g transform="translate(482.086956522, 411.26798419) scale(0.469565217391)"><use xlink:href="#tree1" /></g><g transform="translate(529.043478261, 411.26798419) scale(0.469565217391)"><use xlink:href="#tree2" /></g><g transform="translate(36.0, 465.595256917) scale(0.469565217391)"><use xlink:href="#tree0" /></g><g transform="translate(82.9565217391, 465.595256917) scale(0.469565217391)"><use xlink:href="#tree1" /></g><g transform="translate(129.913043478, 465.595256917) scale(0.469565217391)"><use xlink:href="#tree2" /></g><g transform="translate(176.869565217, 465.595256917) scale(0.469565217391)"><use xlink:href="#tree0" /></g><g transform="translate(223.826086957, 465.595256917) scale(0.469565217391)"><use xlink:href="#tree1" /></g><g transform="translate(270.782608696, 465.595256917) scale(0.469565217391)"><use xlink:href="#tree2" /></g><g transform="translate(317.739130435, 465.595256917) scale(0.469565217391)"><use xlink:href="#tree0" /></g><g transform="translate(364.695652174, 465.595256917) scale(0.469565217391)"><use xlink:href="#tree1" /></g><g transform="translate(411.652173913, 465.595256917) scale(0.469565217391)"><use xlink:href="#tree2" /></g><g transform="translate(458.608695652, 465.595256917) scale(0.469565217391)"><use xlink:href="#tree0" /></g><g transform="translate(505.565217391, 465.595256917) scale(0.469565217391)"><use xlink:href="#tree1" /></g><g transform="translate(59.4782608696, 519.922529644) scale(0.469565217391)"><use xlink:href="#tree2" /></g><g transform="translate(106.434782609, 519.922529644) scale(0.469565217391)"><use xlink:href="#tree0" /></g><g transform="translate(153.391304348, 519.922529644) scale(0.469565217391)"><use xlink:href="#tree1" /></g><g transform="translate(200.347826087, 519.922529644) scale(0.469565217391)"><use xlink:href="#tree2" /></g><g transform="translate(247.304347826, 519.922529644) scale(0.469565217391)"><use xlink:href="#tree0" /></g><g transform="translate(294.260869565, 519.922529644) scale(0.469565217391)"><use xlink:href="#tree1" /></g><g transform="translate(341.217391304, 519.922529644) scale(0.469565217391)"><use xlink:href="#tree2" /></g><g transform="translate(388.173913043, 519.922529644) scale(0.469565217391)"><use xlink:href="#tree0" /></g><g transform="translate(435.130434783, 519.922529644) scale(0.469565217391)"><use xlink:href="#tree1" /></g><g transform="translate(482.086956522, 519.922529644) scale(0.469565217391)"><use xlink:href="#tree2" /></g><g transform="translate(529.043478261, 519.922529644) scale(0.469565217391)"><use xlink:href="#tree0" /></g><g transform="translate(36.0, 574.249802372) scale(0.469565217391)"><use xlink:href="#tree1" /></g><g transform="translate(82.9565217391, 574.249802372) scale(0.469565217391)"><use xlink:href="#tree2" /></g><g transform="translate(129.913043478, 574.249802372) scale(0.469565217391)"><use xlink:href="#tree0" /></g><g transform="translate(176.869565217, 574.249802372) scale(0.469565217391)"><use xlink:href="#tree1" /></g><g transform="translate(223.826086957, 574.249802372) scale(0.469565217391)"><use xlink:href="#tree2" /></g><g transform="translate(270.782608696, 574.249802372) scale(0.469565217391)"><use xlink:href="#tree0" /></g><g transform="translate(317.739130435, 574.249802372) scale(0.469565217391)"><use xlink:href="#tree1" /></g><g transform="translate(364.695652174, 574.249802372) scale(0.469565217391)"><use xlink:href="#tree2" /></g><g transform="translate(411.652173913, 574.249802372) scale(0.469565217391)"><use xlink:href="#tree0" /></g><g transform="translate(458.608695652, 574.249802372) scale(0.469565217391)"><use xlink:href="#tree1" /></g><g transform="translate(505.565217391, 574.249802372) scale(0.469565217391)"><use xlink:href="#tree2" /></g><g transform="translate(59.4782608696, 628.577075099) scale(0.469565217391)"><use xlink:href="#tree0" /></g><g transform="translate(106.434782609, 628.577075099) scale(0.469565217391)"><use xlink:href="#tree1" /></g><g transform="translate(153.391304348, 628.577075099) scale(0.469565217391)"><use xlink:href="#tree2" /></g><g transform="translate(200.347826087, 628.577075099) scale(0.469565217391)"><use xlink:href="#tree0" /></g><g transform="translate(247.304347826, 628.577075099) scale(0.469565217391)"><use xlink:href="#tree1" /></g><g transform="translate(294.260869565, 628.577075099) scale(0.469565217391)"><use xlink:href="#tree2" /></g><g transform="translate(341.217391304, 628.577075099) scale(0.469565217391)"><use xlink:href="#tree0" /></g><g transform="translate(388.173913043, 628.577075099) scale(0.469565217391)"><use xlink:href="#tree1" /></g><g transform="translate(435.130434783, 628.577075099) scale(0.469565217391)"><use xlink:href="#tree2" /></g><g transform="translate(482.086956522, 628.577075099) scale(0.469565217391)"><use xlink:href="#tree0" /></g><g transform="translate(529.043478261, 628.577075099) scale(0.469565217391)"><use xlink:href="#tree1" /></g><g transform="translate(36.0, 682.904347826) scale(0.469565217391)"><use xlink:href="#tree2" /></g><g transform="translate(82.9565217391, 682.904347826) scale(0.469565217391)"><use xlink:href="#tree0" /></g><g transform="translate(129.913043478, 682.904347826) scale(0.469565217391)"><use xlink:href="#tree1" /></g><g transform="translate(176.869565217, 682.904347826) scale(0.469565217391)"><use xlink:href="#tree2" /></g><g transform="translate(223.826086957, 682.904347826) scale(0.469565217391)"><use xlink:href="#tree0" /></g><g transform="translate(270.782608696, 682.904347826) scale(0.469565217391)"><use xlink:href="#tree1" /></g><g transform="translate(317.739130435, 682.904347826) scale(0.469565217391)"><use xlink:href="#tree2" /></g><g transform="translate(364.695652174, 682.904347826) scale(0.469565217391)"><use xlink:href="#tree0" /></g><g transform="translate(411.652173913, 682.904347826) scale(0.469565217391)"><use xlink:href="#tree1" /></g><g transform="translate(458.608695652, 682.904347826) scale(0.469565217391)"><use xlink:href="#tree2" /></g><g transform="translate(505.565217391, 682.904347826) scale(0.469565217391)"><use xlink:href="#tree0" /></g></g></svg>