<?xml version="1.0" encoding="utf-8" ?>
<svg baseProfile="full" height="1200" version="1.1" width="1245.45454545" xmlns="http://www.w3.org/2000/svg" xmlns:ev="http://www.w3.org/2001/xml-events" xmlns:xlink="http://www.w3.org/1999/xlink"><defs><g id="tree0"><path d="m76.42711,15.43706c-2.8035,-1.37448 -5.76791,-2.35898 -8.86594,-2.92895c-2.45443,-4.07708 -5.96972,-7.30874 -10.22951,-9.40592c-3.44165,-1.68265 -7.11512,-2.55261 -10.92221,-2.55261c-9.51227,0 -18.03732,5.30429 -22.2453,13.84298c-2.09172,4.27889 -2.90986,9.08411 -2.36443,13.78025c-10.12043,4.18889 -16.74738,13.97933 -16.74738,25.15789c0,15.01565 12.21487,27.23597 27.22779,27.23597c4.82159,0 9.48773,-1.25176 13.61662,-3.64074c0.07363,0.02182 0.14727,0.05727 0.2209,0.11181c0.3818,0.18545 0.78269,0.3218 1.18358,0.49634l0,41.40348l-17.09373,0l0,6.06244l39.82992,0l0,-6.06244l-16.68193,0l0,-18.67547l11.9667,-9.18229l-3.67346,-4.81068l-8.29324,6.3597l0,-12.98938c2.56624,0.61088 5.19521,0.92723 7.88417,0.92723c13.20755,0 24.99972,-7.3442 30.82489,-19.18272c8.35597,-16.97919 1.33085,-37.59639 -15.63744,-45.9469l0,0.00001z" fill="#FFFFFF" stroke="#000000" stroke-width="1" /></g><g id="tree1"><path d="m77.1088,30.61414c-3.35361,0 -6.62692,0.7394 -9.61222,2.17113c-3.41731,-7.84541 -11.16303,-13.05722 -20.00262,-13.05722c-11.75566,0 -21.38726,9.31314 -21.86635,20.97741c-7.33863,1.18248 -12.97137,7.57956 -12.97137,15.26712c0,8.52388 6.93708,15.47482 15.46651,15.47482c2.63913,0 5.13704,-0.7034 7.33309,-1.90527l11.8415,10.96918l0,38.3298l-17.36624,0l0,6.15891l40.47047,0l0,-6.15891l-16.95916,0l0,-30.77517l17.78163,-13.40062c1.88589,0.53448 3.84378,0.85017 5.87644,0.85017c12.37597,0 22.46175,-10.07746 22.46175,-22.45898c0.00831,-12.38705 -10.08023,-22.44236 -22.45344,-22.44236l0.00001,-0.00001zm-36.89531,34.95403c0.66463,-0.86679 1.29326,-1.77511 1.77511,-2.78037c1.73081,0.45139 3.51146,0.60094 5.31427,0.61755l0,8.72327l-7.08939,-6.56046zm13.23723,14.81018l0,-17.76779c0.98033,-0.26585 1.98005,-0.58986 2.90222,-1.00526c1.75574,4.22318 4.74934,7.73464 8.46851,10.19654l-11.37072,8.5765l-0.00001,0z" fill="#FFFFFF" stroke="#000000" stroke-width="1" /></g><g id="tree2"><path d="m82.37239,39.22383c0.25866,-1.66427 0.38145,-3.29195 0.38145,-4.93531c0,-17.98815 -14.64656,-32.653 -32.66345,-32.653s-32.67389,14.66746 -32.67389,32.65561c0,17.1103 13.2096,31.1481 29.96979,32.54587l0,6.3984l-6.64138,-4.10187l-0.01307,0l-1.9621,-1.26975c-1.35335,-0.88308 -3.1378,-0.49118 -4.00781,0.85695c-0.87524,1.34814 -0.49118,3.14303 0.87001,4.01043l11.75435,7.58194l0,38.89986l-16.37614,0l-2.85302,0c-1.60417,0 -2.89482,1.30633 -2.89482,2.90266s1.29065,2.88437 2.89482,2.88437l2.85302,0l38.15525,0l2.99672,0c1.60417,0 2.89482,-1.28543 2.89482,-2.88437s-1.29065,-2.90266 -2.89482,-2.90266l-2.99672,0l-15.98163,0l0,-29.05798l17.63805,-13.2932c2.75896,1.41345 5.87848,2.22076 9.17827,2.22076c11.02019,0 19.99989,-8.98232 19.99989,-20.00251c0.00261,-10.22594 -7.72301,-18.67789 -17.6276,-19.8562l0,-0.00001zm-29.186,43.67057l0,-16.0783c2.64139,-0.26649 5.2227,-0.82559 7.73347,-1.73481c0.99542,3.17438 2.73807,5.95425 5.02153,8.21942l-12.75499,9.59368z" fill="#FFFFFF" stroke="#000000" stroke-width="1" /></g></defs><g id="rects_outer"><g transform="translate(118.181818182,200.0) scale(0.7, 0.4) rotate(45, 45.4545454545, 45.4545454545)"><rect fill="#FFFFFF" height="90.9090909091" stroke="#000000" stroke-width="2" width="90.9090909091" x="0" y="0" /></g><g transform="translate(209.090909091,200.0) scale(0.7, 0.4) rotate(45, 45.4545454545, 45.4545454545)"><rect fill="#FFFFFF" height="90.9090909091" stroke="#000000" stroke-width="2" width="90.9090909091" x="0" y="0" /></g><g transform="translate(300.0,200.0) scale(0.7, 0.4) rotate(45, 45.4545454545, 45.4545454545)"><rect fill="#FFFFFF" height="90.9090909091" stroke="#000000" stroke-width="2" width="90.9090909091" x="0" y="0" /></g><g transform="translate(390.909090909,200.0) scale(0.7, 0.4) rotate(45, 45.4545454545, 45.4545454545)"><rect fill="#FFFFFF" height="90.9090909091" stroke="#000000" stroke-width="2" width="90.9090909091" x="0" y="0" /></g><g transform="translate(481.818181818,200.0) scale(0.7, 0.4) rotate(45, 45.4545454545, 45.4545454545)"><rect fill="#FFFFFF" height="90.9090909091" stroke="#000000" stroke-width="2" width="90.9090909091" x="0" y="0" /></g><g transform="translate(572.727272727,200.0) scale(0.7, 0.4) rotate(45, 45.4545454545, 45.4545454545)"><rect fill="#FFFFFF" height="90.9090909091" stroke="#000000" stroke-width="2" width="90.9090909091" x="0" y="0" /></g><g transform="translate(663.636363636,200.0) scale(0.7, 0.4) rotate(45, 45.4545454545, 45.4545454545)"><rect fill="#FFFFFF" height="90.9090909091" stroke="#000000" stroke-width="2" width="90.9090909091" x="0" y="0" /></g><g transform="translate(754.545454545,200.0) scale(0.7, 0.4) rotate(45, 45.4545454545, 45.4545454545)"><rect fill="#FFFFFF" height="90.9090909091" stroke="#000000" stroke-width="2" width="90.9090909091" x="0" y="0" /></g><g transform="translate(845.454545455,200.0) scale(0.7, 0.4) rotate(45, 45.4545454545, 45.4545454545)"><rect fill="#FFFFFF" height="90.9090909091" stroke="#000000" stroke-width="2" width="90.9090909091" x="0" y="0" /></g><g transform="translate(936.363636364,200.0) scale(0.7, 0.4) rotate(45, 45.4545454545, 45.4545454545)"><rect fill="#FFFFFF" height="90.9090909091" stroke="#000000" stroke-width="2" width="90.9090909091" x="0" y="0" /></g><g transform="translate(1027.27272727,200.0) scale(0.7, 0.4) rotate(45, 45.4545454545, 45.4545454545)"><rect fill="#FFFFFF" height="90.9090909091" stroke="#000000" stroke-width="2" width="90.9090909091" x="0" y="0" /></g><g transform="translate(163.636363636,290.909090909) scale(0.7, 0.4) rotate(45, 45.4545454545, 45.4545454545)"><rect fill="#FFFFFF" height="90.9090909091" stroke="#000000" stroke-width="2" width="90.9090909091" x="0" y="0" /></g><g transform="translate(254.545454545,290.909090909) scale(0.7, 0.4) rotate(45, 45.4545454545, 45.4545454545)"><rect fill="#FFFFFF" height="90.9090909091" stroke="#000000" stroke-width="2" width="90.9090909091" x="0" y="0" /></g><g transform="translate(345.454545455,290.909090909) scale(0.7, 0.4) rotate(45, 45.4545454545, 45.4545454545)"><rect fill="#FFFFFF" height="90.9090909091" stroke="#000000" stroke-width="2" width="90.9090909091" x="0" y="0" /></g><g transform="translate(436.363636364,290.909090909) scale(0.7, 0.4) rotate(45, 45.4545454545, 45.4545454545)"><rect fill="#FFFFFF" height="90.9090909091" stroke="#000000" stroke-width="2" width="90.9090909091" x="0" y="0" /></g><g transform="translate(527.272727273,290.909090909) scale(0.7, 0.4) rotate(45, 45.4545454545, 45.4545454545)"><rect fill="#FFFFFF" height="90.9090909091" stroke="#000000" stroke-width="2" width="90.9090909091" x="0" y="0" /></g><g transform="translate(618.181818182,290.909090909) scale(0.7, 0.4) rotate(45, 45.4545454545, 45.4545454545)"><rect fill="#FFFFFF" height="90.9090909091" stroke="#000000" stroke-width="2" width="90.9090909091" x="0" y="0" /></g><g transform="translate(709.090909091,290.909090909) scale(0.7, 0.4) rotate(45, 45.4545454545, 45.4545454545)"><rect fill="#FFFFFF" height="90.9090909091" stroke="#000000" stroke-width="2" width="90.9090909091" x="0" y="0" /></g><g transform="translate(800.0,290.909090909) scale(0.7, 0.4) rotate(45, 45.4545454545, 45.4545454545)"><rect fill="#FFFFFF" height="90.9090909091" stroke="#000000" stroke-width="2" width="90.9090909091" x="0" y="0" /></g><g transform="translate(890.909090909,290.909090909) scale(0.7, 0.4) rotate(45, 45.4545454545, 45.4545454545)"><rect fill="#FFFFFF" height="90.9090909091" stroke="#000000" stroke-width="2" width="90.9090909091" x="0" y="0" /></g><g transform="translate(981.818181818,290.909090909) scale(0.7, 0.4) rotate(45, 45.4545454545, 45.4545454545)"><rect fill="#FFFFFF" height="90.9090909091" stroke="#000000" stroke-width="2" width="90.9090909091" x="0" y="0" /></g><g transform="translate(1072.72727273,290.909090909) scale(0.7, 0.4) rotate(45, 45.4545454545, 45.4545454545)"><rect fill="#FFFFFF" height="90.9090909091" stroke="#000000" stroke-width="2" width="90.9090909091" x="0" y="0" /></g><g transform="translate(118.181818182,381.818181818) scale(0.7, 0.4) rotate(45, 45.4545454545, 45.4545454545)"><rect fill="#FFFFFF" height="90.9090909091" stroke="#000000" stroke-width="2" width="90.9090909091" x="0" y="0" /></g><g transform="translate(209.090909091,381.818181818) scale(0.7, 0.4) rotate(45, 45.4545454545, 45.4545454545)"><rect fill="#FFFFFF" height="90.9090909091" stroke="#000000" stroke-width="2" width="90.9090909091" x="0" y="0" /></g><g transform="translate(300.0,381.818181818) scale(0.7, 0.4) rotate(45, 45.4545454545, 45.4545454545)"><rect fill="#FFFFFF" height="90.9090909091" stroke="#000000" stroke-width="2" width="90.9090909091" x="0" y="0" /></g><g transform="translate(390.909090909,381.818181818) scale(0.7, 0.4) rotate(45, 45.4545454545, 45.4545454545)"><rect fill="#FFFFFF" height="90.9090909091" stroke="#000000" stroke-width="2" width="90.9090909091" x="0" y="0" /></g><g transform="translate(481.818181818,381.818181818) scale(0.7, 0.4) rotate(45, 45.4545454545, 45.4545454545)"><rect fill="#FFFFFF" height="90.9090909091" stroke="#000000" stroke-width="2" width="90.9090909091" x="0" y="0" /></g><g transform="translate(572.727272727,381.818181818) scale(0.7, 0.4) rotate(45, 45.4545454545, 45.4545454545)"><rect fill="#FFFFFF" height="90.9090909091" stroke="#000000" stroke-width="2" width="90.9090909091" x="0" y="0" /></g><g transform="translate(663.636363636,381.818181818) scale(0.7, 0.4) rotate(45, 45.4545454545, 45.4545454545)"><rect fill="#FFFFFF" height="90.9090909091" stroke="#000000" stroke-width="2" width="90.9090909091" x="0" y="0" /></g><g transform="translate(754.545454545,381.818181818) scale(0.7, 0.4) rotate(45, 45.4545454545, 45.4545454545)"><rect fill="#FFFFFF" height="90.9090909091" stroke="#000000" stroke-width="2" width="90.9090909091" x="0" y="0" /></g><g transform="translate(845.454545455,381.818181818) scale(0.7, 0.4) rotate(45, 45.4545454545, 45.4545454545)"><rect fill="#FFFFFF" height="90.9090909091" stroke="#000000" stroke-width="2" width="90.9090909091" x="0" y="0" /></g><g transform="translate(936.363636364,381.818181818) scale(0.7, 0.4) rotate(45, 45.4545454545, 45.4545454545)"><rect fill="#FFFFFF" height="90.9090909091" stroke="#000000" stroke-width="2" width="90.9090909091" x="0" y="0" /></g><g transform="translate(1027.27272727,381.818181818) scale(0.7, 0.4) rotate(45, 45.4545454545, 45.4545454545)"><rect fill="#FFFFFF" height="90.9090909091" stroke="#000000" stroke-width="2" width="90.9090909091" x="0" y="0" /></g><g transform="translate(163.636363636,472.727272727) scale(0.7, 0.4) rotate(45, 45.4545454545, 45.4545454545)"><rect fill="#FFFFFF" height="90.9090909091" stroke="#000000" stroke-width="2" width="90.9090909091" x="0" y="0" /></g><g transform="translate(254.545454545,472.727272727) scale(0.7, 0.4) rotate(45, 45.4545454545, 45.4545454545)"><rect fill="#FFFFFF" height="90.9090909091" stroke="#000000" stroke-width="2" width="90.9090909091" x="0" y="0" /></g><g transform="translate(345.454545455,472.727272727) scale(0.7, 0.4) rotate(45, 45.4545454545, 45.4545454545)"><rect fill="#FFFFFF" height="90.9090909091" stroke="#000000" stroke-width="2" width="90.9090909091" x="0" y="0" /></g><g transform="translate(436.363636364,472.727272727) scale(0.7, 0.4) rotate(45, 45.4545454545, 45.4545454545)"><rect fill="#FFFFFF" height="90.9090909091" stroke="#000000" stroke-width="2" width="90.9090909091" x="0" y="0" /></g><g transform="translate(527.272727273,472.727272727) scale(0.7, 0.4) rotate(45, 45.4545454545, 45.4545454545)"><rect fill="#FFFFFF" height="90.9090909091" stroke="#000000" stroke-width="2" width="90.9090909091" x="0" y="0" /></g><g transform="translate(618.181818182,472.727272727) scale(0.7, 0.4) rotate(45, 45.4545454545, 45.4545454545)"><rect fill="#FFFFFF" height="90.9090909091" stroke="#000000" stroke-width="2" width="90.9090909091" x="0" y="0" /></g><g transform="translate(709.090909091,472.727272727) scale(0.7, 0.4) rotate(45, 45.4545454545, 45.4545454545)"><rect fill="#FFFFFF" height="90.9090909091" stroke="#000000" stroke-width="2" width="90.9090909091" x="0" y="0" /></g><g transform="translate(800.0,472.727272727) scale(0.7, 0.4) rotate(45, 45.4545454545, 45.4545454545)"><rect fill="#FFFFFF" height="90.9090909091" stroke="#000000" stroke-width="2" width="90.9090909091" x="0" y="0" /></g><g transform="translate(890.909090909,472.727272727) scale(0.7, 0.4) rotate(45, 45.4545454545, 45.4545454545)"><rect fill="#FFFFFF" height="90.9090909091" stroke="#000000" stroke-width="2" width="90.9090909091" x="0" y="0" /></g><g transform="translate(981.818181818,472.727272727) scale(0.7, 0.4) rotate(45, 45.4545454545, 45.4545454545)"><rect fill="#FFFFFF" height="90.9090909091" stroke="#000000" stroke-width="2" width="90.9090909091" x="0" y="0" /></g><g transform="translate(1072.72727273,472.727272727) scale(0.7, 0.4) rotate(45, 45.4545454545, 45.4545454545)"><rect fill="#FFFFFF" height="90.9090909091" stroke="#000000" stroke-width="2" width="90.9090909091" x="0" y="0" /></g><g transform="translate(118.181818182,563.636363636) scale(0.7, 0.4) rotate(45, 45.4545454545, 45.4545454545)"><rect fill="#FFFFFF" height="90.9090909091" stroke="#000000" stroke-width="2" width="90.9090909091" x="0" y="0" /></g><g transform="translate(209.090909091,563.636363636) scale(0.7, 0.4) rotate(45, 45.4545454545, 45.4545454545)"><rect fill="#FFFFFF" height="90.9090909091" stroke="#000000" stroke-width="2" width="90.9090909091" x="0" y="0" /></g><g transform="translate(300.0,563.636363636) scale(0.7, 0.4) rotate(45, 45.4545454545, 45.4545454545)"><rect fill="#FFFFFF" height="90.9090909091" stroke="#000000" stroke-width="2" width="90.9090909091" x="0" y="0" /></g><g transform="translate(390.909090909,563.636363636) scale(0.7, 0.4) rotate(45, 45.4545454545, 45.4545454545)"><rect fill="#FFFFFF" height="90.9090909091" stroke="#000000" stroke-width="2" width="90.9090909091" x="0" y="0" /></g><g transform="translate(481.818181818,563.636363636) scale(0.7, 0.4) rotate(45, 45.4545454545, 45.4545454545)"><rect fill="#FFFFFF" height="90.9090909091" stroke="#000000" stroke-width="2" width="90.9090909091" x="0" y="0" /></g><g transform="translate(572.727272727,563.636363636) scale(0.7, 0.4) rotate(45, 45.4545454545, 45.4545454545)"><rect fill="#FFFFFF" height="90.9090909091" stroke="#000000" stroke-width="2" width="90.9090909091" x="0" y="0" /></g><g transform="translate(663.636363636,563.636363636) scale(0.7, 0.4) rotate(45, 45.4545454545, 45.4545454545)"><rect fill="#FFFFFF" height="90.9090909091" stroke="#000000" stroke-width="2" width="90.9090909091" x="0" y="0" /></g><g transform="translate(754.545454545,563.636363636) scale(0.7, 0.4) rotate(45, 45.4545454545, 45.4545454545)"><rect fill="#FFFFFF" height="90.9090909091" stroke="#000000" stroke-width="2" width="90.9090909091" x="0" y="0" /></g><g transform="translate(845.454545455,563.636363636) scale(0.7, 0.4) rotate(45, 45.4545454545, 45.4545454545)"><rect fill="#FFFFFF" height="90.9090909091" stroke="#000000" stroke-width="2" width="90.9090909091" x="0" y="0" /></g><g transform="translate(936.363636364,563.636363636) scale(0.7, 0.4) rotate(45, 45.4545454545, 45.4545454545)"><rect fill="#FFFFFF" height="90.9090909091" stroke="#000000" stroke-width="2" width="90.9090909091" x="0" y="0" /></g><g transform="translate(1027.27272727,563.636363636) scale(0.7, 0.4) rotate(45, 45.4545454545, 45.4545454545)"><rect fill="#FFFFFF" height="90.9090909091" stroke="#000000" stroke-width="2" width="90.9090909091" x="0" y="0" /></g><g transform="translate(163.636363636,654.545454545) scale(0.7, 0.4) rotate(45, 45.4545454545, 45.4545454545)"><rect fill="#FFFFFF" height="90.9090909091" stroke="#000000" stroke-width="2" width="90.9090909091" x="0" y="0" /></g><g transform="translate(254.545454545,654.545454545) scale(0.7, 0.4) rotate(45, 45.4545454545, 45.4545454545)"><rect fill="#FFFFFF" height="90.9090909091" stroke="#000000" stroke-width="2" width="90.9090909091" x="0" y="0" /></g><g transform="translate(345.454545455,654.545454545) scale(0.7, 0.4) rotate(45, 45.4545454545, 45.4545454545)"><rect fill="#FFFFFF" height="90.9090909091" stroke="#000000" stroke-width="2" width="90.9090909091" x="0" y="0" /></g><g transform="translate(436.363636364,654.545454545) scale(0.7, 0.4) rotate(45, 45.4545454545, 45.4545454545)"><rect fill="#FFFFFF" height="90.9090909091" stroke="#000000" stroke-width="2" width="90.9090909091" x="0" y="0" /></g><g transform="translate(527.272727273,654.545454545) scale(0.7, 0.4) rotate(45, 45.4545454545, 45.4545454545)"><rect fill="#FFFFFF" height="90.9090909091" stroke="#000000" stroke-width="2" width="90.9090909091" x="0" y="0" /></g><g transform="translate(618.181818182,654.545454545) scale(0.7, 0.4) rotate(45, 45.4545454545, 45.4545454545)"><rect fill="#FFFFFF" height="90.9090909091" stroke="#000000" stroke-width="2" width="90.9090909091" x="0" y="0" /></g><g transform="translate(709.090909091,654.545454545) scale(0.7, 0.4) rotate(45, 45.4545454545, 45.4545454545)"><rect fill="#FFFFFF" height="90.9090909091" stroke="#000000" stroke-width="2" width="90.9090909091" x="0" y="0" /></g><g transform="translate(800.0,654.545454545) scale(0.7, 0.4) rotate(45, 45.4545454545, 45.4545454545)"><rect fill="#FFFFFF" height="90.9090909091" stroke="#000000" stroke-width="2" width="90.9090909091" x="0" y="0" /></g><g transform="translate(890.909090909,654.545454545) scale(0.7, 0.4) rotate(45, 45.4545454545, 45.4545454545)"><rect fill="#FFFFFF" height="90.9090909091" stroke="#000000" stroke-width="2" width="90.9090909091" x="0" y="0" /></g><g transform="translate(981.818181818,654.545454545) scale(0.7, 0.4) rotate(45, 45.4545454545, 45.4545454545)"><rect fill="#FFFFFF" height="90.9090909091" stroke="#000000" stroke-width="2" width="90.9090909091" x="0" y="0" /></g><g transform="translate(1072.72727273,654.545454545) scale(0.7, 0.4) rotate(45, 45.4545454545, 45.4545454545)"><rect fill="#FFFFFF" height="90.9090909091" stroke="#000000" stroke-width="2" width="90.9090909091" x="0" y="0" /></g><g transform="translate(118.181818182,745.454545455) scale(0.7, 0.4) rotate(45, 45.4545454545, 45.4545454545)"><rect fill="#FFFFFF" height="90.9090909091" stroke="#000000" stroke-width="2" width="90.9090909091" x="0" y="0" /></g><g transform="translate(209.090909091,745.454545455) scale(0.7, 0.4) rotate(45, 45.4545454545, 45.4545454545)"><rect fill="#FFFFFF" height="90.9090909091" stroke="#000000" stroke-width="2" width="90.9090909091" x="0" y="0" /></g><g transform="translate(300.0,745.454545455) scale(0.7, 0.4) rotate(45, 45.4545454545, 45.4545454545)"><rect fill="#FFFFFF" height="90.9090909091" stroke="#000000" stroke-width="2" width="90.9090909091" x="0" y="0" /></g><g transform="translate(390.909090909,745.454545455) scale(0.7, 0.4) rotate(45, 45.4545454545, 45.4545454545)"><rect fill="#FFFFFF" height="90.9090909091" stroke="#000000" stroke-width="2" width="90.9090909091" x="0" y="0" /></g><g transform="translate(481.818181818,745.454545455) scale(0.7, 0.4) rotate(45, 45.4545454545, 45.4545454545)"><rect fill="#FFFFFF" height="90.9090909091" stroke="#000000" stroke-width="2" width="90.9090909091" x="0" y="0" /></g><g transform="translate(572.727272727,745.454545455) scale(0.7, 0.4) rotate(45, 45.4545454545, 45.4545454545)"><rect fill="#FFFFFF" height="90.9090909091" stroke="#000000" stroke-width="2" width="90.9090909091" x="0" y="0" /></g><g transform="translate(663.636363636,745.454545455) scale(0.7, 0.4) rotate(45, 45.4545454545, 45.4545454545)"><rect fill="#FFFFFF" height="90.9090909091" stroke="#000000" stroke-width="2" width="90.9090909091" x="0" y="0" /></g><g transform="translate(754.545454545,745.454545455) scale(0.7, 0.4) rotate(45, 45.4545454545, 45.4545454545)"><rect fill="#FFFFFF" height="90.9090909091" stroke="#000000" stroke-width="2" width="90.9090909091" x="0" y="0" /></g><g transform="translate(845.454545455,745.454545455) scale(0.7, 0.4) rotate(45, 45.4545454545, 45.4545454545)"><rect fill="#FFFFFF" height="90.9090909091" stroke="#000000" stroke-width="2" width="90.9090909091" x="0" y="0" /></g><g transform="translate(936.363636364,745.454545455) scale(0.7, 0.4) rotate(45, 45.4545454545, 45.4545454545)"><rect fill="#FFFFFF" height="90.9090909091" stroke="#000000" stroke-width="2" width="90.9090909091" x="0" y="0" /></g><g transform="translate(1027.27272727,745.454545455) scale(0.7, 0.4) rotate(45, 45.4545454545, 45.4545454545)"><rect fill="#FFFFFF" height="90.9090909091" stroke="#000000" stroke-width="2" width="90.9090909091" x="0" y="0" /></g><g transform="translate(163.636363636,836.363636364) scale(0.7, 0.4) rotate(45, 45.4545454545, 45.4545454545)"><rect fill="#FFFFFF" height="90.9090909091" stroke="#000000" stroke-width="2" width="90.9090909091" x="0" y="0" /></g><g transform="translate(254.545454545,836.363636364) scale(0.7, 0.4) rotate(45, 45.4545454545, 45.4545454545)"><rect fill="#FFFFFF" height="90.9090909091" stroke="#000000" stroke-width="2" width="90.9090909091" x="0" y="0" /></g><g transform="translate(345.454545455,836.363636364) scale(0.7, 0.4) rotate(45, 45.4545454545, 45.4545454545)"><rect fill="#FFFFFF" height="90.9090909091" stroke="#000000" stroke-width="2" width="90.9090909091" x="0" y="0" /></g><g transform="translate(436.363636364,836.363636364) scale(0.7, 0.4) rotate(45, 45.4545454545, 45.4545454545)"><rect fill="#FFFFFF" height="90.9090909091" stroke="#000000" stroke-width="2" width="90.9090909091" x="0" y="0" /></g><g transform="translate(527.272727273,836.363636364) scale(0.7, 0.4) rotate(45, 45.4545454545, 45.4545454545)"><rect fill="#FFFFFF" height="90.9090909091" stroke="#000000" stroke-width="2" width="90.9090909091" x="0" y="0" /></g><g transform="translate(618.181818182,836.363636364) scale(0.7, 0.4) rotate(45, 45.4545454545, 45.4545454545)"><rect fill="#FFFFFF" height="90.9090909091" stroke="#000000" stroke-width="2" width="90.9090909091" x="0" y="0" /></g><g transform="translate(709.090909091,836.363636364) scale(0.7, 0.4) rotate(45, 45.4545454545, 45.4545454545)"><rect fill="#FFFFFF" height="90.9090909091" stroke="#000000" stroke-width="2" width="90.9090909091" x="0" y="0" /></g><g transform="translate(800.0,836.363636364) scale(0.7, 0.4) rotate(45, 45.4545454545, 45.4545454545)"><rect fill="#FFFFFF" height="90.9090909091" stroke="#000000" stroke-width="2" width="90.9090909091" x="0" y="0" /></g><g transform="translate(890.909090909,836.363636364) scale(0.7, 0.4) rotate(45, 45.4545454545, 45.4545454545)"><rect fill="#FFFFFF" height="90.9090909091" stroke="#000000" stroke-width="2" width="90.9090909091" x="0" y="0" /></g><g transform="translate(981.818181818,836.363636364) scale(0.7, 0.4) rotate(45, 45.4545454545, 45.4545454545)"><rect fill="#FFFFFF" height="90.9090909091" stroke="#000000" stroke-width="2" width="90.9090909091" x="0" y="0" /></g><g transform="translate(1072.72727273,836.363636364) scale(0.7, 0.4) rotate(45, 45.4545454545, 45.4545454545)"><rect fill="#FFFFFF" height="90.9090909091" stroke="#000000" stroke-width="2" width="90.9090909091" x="0" y="0" /></g><g transform="translate(118.181818182,927.272727273) scale(0.7, 0.4) rotate(45, 45.4545454545, 45.4545454545)"><rect fill="#FFFFFF" height="90.9090909091" stroke="#000000" stroke-width="2" width="90.9090909091" x="0" y="0" /></g><g transform="translate(209.090909091,927.272727273) scale(0.7, 0.4) rotate(45, 45.4545454545, 45.4545454545)"><rect fill="#FFFFFF" height="90.9090909091" stroke="#000000" stroke-width="2" width="90.9090909091" x="0" y="0" /></g><g transform="translate(300.0,927.272727273) scale(0.7, 0.4) rotate(45, 45.4545454545, 45.4545454545)"><rect fill="#FFFFFF" height="90.9090909091" stroke="#000000" stroke-width="2" width="90.9090909091" x="0" y="0" /></g><g transform="translate(390.909090909,927.272727273) scale(0.7, 0.4) rotate(45, 45.4545454545, 45.4545454545)"><rect fill="#FFFFFF" height="90.9090909091" stroke="#000000" stroke-width="2" width="90.9090909091" x="0" y="0" /></g><g transform="translate(481.818181818,927.272727273) scale(0.7, 0.4) rotate(45, 45.4545454545, 45.4545454545)"><rect fill="#FFFFFF" height="90.9090909091" stroke="#000000" stroke-width="2" width="90.9090909091" x="0" y="0" /></g><g transform="translate(572.727272727,927.272727273) scale(0.7, 0.4) rotate(45, 45.4545454545, 45.4545454545)"><rect fill="#FFFFFF" height="90.9090909091" stroke="#000000" stroke-width="2" width="90.9090909091" x="0" y="0" /></g><g transform="translate(663.636363636,927.272727273) scale(0.7, 0.4) rotate(45, 45.4545454545, 45.4545454545)"><rect fill="#FFFFFF" height="90.9090909091" stroke="#000000" stroke-width="2" width="90.9090909091" x="0" y="0" /></g><g transform="translate(754.545454545,927.272727273) scale(0.7, 0.4) rotate(45, 45.4545454545, 45.4545454545)"><rect fill="#FFFFFF" height="90.9090909091" stroke="#000000" stroke-width="2" width="90.9090909091" x="0" y="0" /></g><g transform="translate(845.454545455,927.272727273) scale(0.7, 0.4) rotate(45, 45.4545454545, 45.4545454545)"><rect fill="#FFFFFF" height="90.9090909091" stroke="#000000" stroke-width="2" width="90.9090909091" x="0" y="0" /></g><g transform="translate(936.363636364,927.272727273) scale(0.7, 0.4) rotate(45, 45.4545454545, 45.4545454545)"><rect fill="#FFFFFF" height="90.9090909091" stroke="#000000" stroke-width="2" width="90.9090909091" x="0" y="0" /></g><g transform="translate(1027.27272727,927.272727273) scale(0.7, 0.4) rotate(45, 45.4545454545, 45.4545454545)"><rect fill="#FFFFFF" height="90.9090909091" stroke="#000000" stroke-width="2" width="90.9090909091" x="0" y="0" /></g><g transform="translate(163.636363636,1018.18181818) scale(0.7, 0.4) rotate(45, 45.4545454545, 45.4545454545)"><rect fill="#FFFFFF" height="90.9090909091" stroke="#000000" stroke-width="2" width="90.9090909091" x="0" y="0" /></g><g transform="translate(254.545454545,1018.18181818) scale(0.7, 0.4) rotate(45, 45.4545454545, 45.4545454545)"><rect fill="#FFFFFF" height="90.9090909091" stroke="#000000" stroke-width="2" width="90.9090909091" x="0" y="0" /></g><g transform="translate(345.454545455,1018.18181818) scale(0.7, 0.4) rotate(45, 45.4545454545, 45.4545454545)"><rect fill="#FFFFFF" height="90.9090909091" stroke="#000000" stroke-width="2" width="90.9090909091" x="0" y="0" /></g><g transform="translate(436.363636364,1018.18181818) scale(0.7, 0.4) rotate(45, 45.4545454545, 45.4545454545)"><rect fill="#FFFFFF" height="90.9090909091" stroke="#000000" stroke-width="2" width="90.9090909091" x="0" y="0" /></g><g transform="translate(527.272727273,1018.18181818) scale(0.7, 0.4) rotate(45, 45.4545454545, 45.4545454545)"><rect fill="#FFFFFF" height="90.9090909091" stroke="#000000" stroke-width="2" width="90.9090909091" x="0" y="0" /></g><g transform="translate(618.181818182,1018.18181818) scale(0.7, 0.4) rotate(45, 45.4545454545, 45.4545454545)"><rect fill="#FFFFFF" height="90.9090909091" stroke="#000000" stroke-width="2" width="90.9090909091" x="0" y="0" /></g><g transform="translate(709.090909091,1018.18181818) scale(0.7, 0.4) rotate(45, 45.4545454545, 45.4545454545)"><rect fill="#FFFFFF" height="90.9090909091" stroke="#000000" stroke-width="2" width="90.9090909091" x="0" y="0" /></g><g transform="translate(800.0,1018.18181818) scale(0.7, 0.4) rotate(45, 45.4545454545, 45.4545454545)"><rect fill="#FFFFFF" height="90.9090909091" stroke="#000000" stroke-width="2" width="90.9090909091" x="0" y="0" /></g><g transform="translate(890.909090909,1018.18181818) scale(0.7, 0.4) rotate(45, 45.4545454545, 45.4545454545)"><rect fill="#FFFFFF" height="90.9090909091" stroke="#000000" stroke-width="2" width="90.9090909091" x="0" y="0" /></g><g transform="translate(981.818181818,1018.18181818) scale(0.7, 0.4) rotate(45, 45.4545454545, 45.4545454545)"><rect fill="#FFFFFF" height="90.9090909091" stroke="#000000" stroke-width="2" width="90.9090909091" x="0" y="0" /></g><g transform="translate(1072.72727273,1018.18181818) scale(0.7, 0.4) rotate(45, 45.4545454545, 45.4545454545)"><rect fill="#FFFFFF" height="90.9090909091" stroke="#000000" stroke-width="2" width="90.9090909091" x="0" y="0" /></g><g transform="translate(118.181818182,1109.09090909) scale(0.7, 0.4) rotate(45, 45.4545454545, 45.4545454545)"><rect fill="#FFFFFF" height="90.9090909091" stroke="#000000" stroke-width="2" width="90.9090909091" x="0" y="0" /></g><g transform="translate(209.090909091,1109.09090909) scale(0.7, 0.4) rotate(45, 45.4545454545, 45.4545454545)"><rect fill="#FFFFFF" height="90.9090909091" stroke="#000000" stroke-width="2" width="90.9090909091" x="0" y="0" /></g><g transform="translate(300.0,1109.09090909) scale(0.7, 0.4) rotate(45, 45.4545454545, 45.4545454545)"><rect fill="#FFFFFF" height="90.9090909091" stroke="#000000" stroke-width="2" width="90.9090909091" x="0" y="0" /></g><g transform="translate(390.909090909,1109.09090909) scale(0.7, 0.4) rotate(45, 45.4545454545, 45.4545454545)"><rect fill="#FFFFFF" height="90.9090909091" stroke="#000000" stroke-width="2" width="90.9090909091" x="0" y="0" /></g><g transform="translate(481.818181818,1109.09090909) scale(0.7, 0.4) rotate(45, 45.4545454545, 45.4545454545)"><rect fill="#FFFFFF" height="90.9090909091" stroke="#000000" stroke-width="2" width="90.9090909091" x="0" y="0" /></g><g transform="translate(572.727272727,1109.09090909) scale(0.7, 0.4) rotate(45, 45.4545454545, 45.4545454545)"><rect fill="#FFFFFF" height="90.9090909091" stroke="#000000" stroke-width="2" width="90.9090909091" x="0" y="0" /></g><g transform="translate(663.636363636,1109.09090909) scale(0.7, 0.4) rotate(45, 45.4545454545, 45.4545454545)"><rect fill="#FFFFFF" height="90.9090909091" stroke="#000000" stroke-width="2" width="90.9090909091" x="0" y="0" /></g><g transform="translate(754.545454545,1109.09090909) scale(0.7, 0.4) rotate(45, 45.4545454545, 45.4545454545)"><rect fill="#FFFFFF" height="90.9090909091" stroke="#000000" stroke-width="2" width="90.9090909091" x="0" y="0" /></g><g transform="translate(845.454545455,1109.09090909) scale(0.7, 0.4) rotate(45, 45.4545454545, 45.4545454545)"><rect fill="#FFFFFF" height="90.9090909091" stroke="#000000" stroke-width="2" width="90.9090909091" x="0" y="0" /></g><g transform="translate(936.363636364,1109.09090909) scale(0.7, 0.4) rotate(45, 45.4545454545, 45.4545454545)"><rect fill="#FFFFFF" height="90.9090909091" stroke="#000000" stroke-width="2" width="90.9090909091" x="0" y="0" /></g><g transform="translate(1027.27272727,1109.09090909) scale(0.7, 0.4) rotate(45, 45.4545454545, 45.4545454545)"><rect fill="#FFFFFF" height="90.9090909091" stroke="#000000" stroke-width="2" width="90.9090909091" x="0" y="0" /></g></g><g id="rects_inner"><g transform="translate(126.136363636,204.545454545) scale(0.525, 0.3) rotate(45, 45.4545454545, 45.4545454545)"><rect fill="#FFFFFF" height="90.9090909091" stroke="#000000" stroke-width="2" width="90.9090909091" x="0" y="0" /></g><g transform="translate(217.045454545,204.545454545) scale(0.525, 0.3) rotate(45, 45.4545454545, 45.4545454545)"><rect fill="#FFFFFF" height="90.9090909091" stroke="#000000" stroke-width="2" width="90.9090909091" x="0" y="0" /></g><g transform="translate(307.954545455,204.545454545) scale(0.525, 0.3) rotate(45, 45.4545454545, 45.4545454545)"><rect fill="#FFFFFF" height="90.9090909091" stroke="#000000" stroke-width="2" width="90.9090909091" x="0" y="0" /></g><g transform="translate(398.863636364,204.545454545) scale(0.525, 0.3) rotate(45, 45.4545454545, 45.4545454545)"><rect fill="#FFFFFF" height="90.9090909091" stroke="#000000" stroke-width="2" width="90.9090909091" x="0" y="0" /></g><g transform="translate(489.772727273,204.545454545) scale(0.525, 0.3) rotate(45, 45.4545454545, 45.4545454545)"><rect fill="#FFFFFF" height="90.9090909091" stroke="#000000" stroke-width="2" width="90.9090909091" x="0" y="0" /></g><g transform="translate(580.681818182,204.545454545) scale(0.525, 0.3) rotate(45, 45.4545454545, 45.4545454545)"><rect fill="#FFFFFF" height="90.9090909091" stroke="#000000" stroke-width="2" width="90.9090909091" x="0" y="0" /></g><g transform="translate(671.590909091,204.545454545) scale(0.525, 0.3) rotate(45, 45.4545454545, 45.4545454545)"><rect fill="#FFFFFF" height="90.9090909091" stroke="#000000" stroke-width="2" width="90.9090909091" x="0" y="0" /></g><g transform="translate(762.5,204.545454545) scale(0.525, 0.3) rotate(45, 45.4545454545, 45.4545454545)"><rect fill="#FFFFFF" height="90.9090909091" stroke="#000000" stroke-width="2" width="90.9090909091" x="0" y="0" /></g><g transform="translate(853.409090909,204.545454545) scale(0.525, 0.3) rotate(45, 45.4545454545, 45.4545454545)"><rect fill="#FFFFFF" height="90.9090909091" stroke="#000000" stroke-width="2" width="90.9090909091" x="0" y="0" /></g><g transform="translate(944.318181818,204.545454545) scale(0.525, 0.3) rotate(45, 45.4545454545, 45.4545454545)"><rect fill="#FFFFFF" height="90.9090909091" stroke="#000000" stroke-width="2" width="90.9090909091" x="0" y="0" /></g><g transform="translate(1035.22727273,204.545454545) scale(0.525, 0.3) rotate(45, 45.4545454545, 45.4545454545)"><rect fill="#FFFFFF" height="90.9090909091" stroke="#000000" stroke-width="2" width="90.9090909091" x="0" y="0" /></g><g transform="translate(171.590909091,295.454545455) scale(0.525, 0.3) rotate(45, 45.4545454545, 45.4545454545)"><rect fill="#FFFFFF" height="90.9090909091" stroke="#000000" stroke-width="2" width="90.9090909091" x="0" y="0" /></g><g transform="translate(262.5,295.454545455) scale(0.525, 0.3) rotate(45, 45.4545454545, 45.4545454545)"><rect fill="#FFFFFF" height="90.9090909091" stroke="#000000" stroke-width="2" width="90.9090909091" x="0" y="0" /></g><g transform="translate(353.409090909,295.454545455) scale(0.525, 0.3) rotate(45, 45.4545454545, 45.4545454545)"><rect fill="#FFFFFF" height="90.9090909091" stroke="#000000" stroke-width="2" width="90.9090909091" x="0" y="0" /></g><g transform="translate(444.318181818,295.454545455) scale(0.525, 0.3) rotate(45, 45.4545454545, 45.4545454545)"><rect fill="#FFFFFF" height="90.9090909091" stroke="#000000" stroke-width="2" width="90.9090909091" x="0" y="0" /></g><g transform="translate(535.227272727,295.454545455) scale(0.525, 0.3) rotate(45, 45.4545454545, 45.4545454545)"><rect fill="#FFFFFF" height="90.9090909091" stroke="#000000" stroke-width="2" width="90.9090909091" x="0" y="0" /></g><g transform="translate(626.136363636,295.454545455) scale(0.525, 0.3) rotate(45, 45.4545454545, 45.4545454545)"><rect fill="#FFFFFF" height="90.9090909091" stroke="#000000" stroke-width="2" width="90.9090909091" x="0" y="0" /></g><g transform="translate(717.045454545,295.454545455) scale(0.525, 0.3) rotate(45, 45.4545454545, 45.4545454545)"><rect fill="#FFFFFF" height="90.9090909091" stroke="#000000" stroke-width="2" width="90.9090909091" x="0" y="0" /></g><g transform="translate(807.954545455,295.454545455) scale(0.525, 0.3) rotate(45, 45.4545454545, 45.4545454545)"><rect fill="#FFFFFF" height="90.9090909091" stroke="#000000" stroke-width="2" width="90.9090909091" x="0" y="0" /></g><g transform="translate(898.863636364,295.454545455) scale(0.525, 0.3) rotate(45, 45.4545454545, 45.4545454545)"><rect fill="#FFFFFF" height="90.9090909091" stroke="#000000" stroke-width="2" width="90.9090909091" x="0" y="0" /></g><g transform="translate(989.772727273,295.454545455) scale(0.525, 0.3) rotate(45, 45.4545454545, 45.4545454545)"><rect fill="#FFFFFF" height="90.9090909091" stroke="#000000" stroke-width="2" width="90.9090909091" x="0" y="0" /></g><g transform="translate(1080.68181818,295.454545455) scale(0.525, 0.3) rotate(45, 45.4545454545, 45.4545454545)"><rect fill="#FFFFFF" height="90.9090909091" stroke="#000000" stroke-width="2" width="90.9090909091" x="0" y="0" /></g><g transform="translate(126.136363636,386.363636364) scale(0.525, 0.3) rotate(45, 45.4545454545, 45.4545454545)"><rect fill="#FFFFFF" height="90.9090909091" stroke="#000000" stroke-width="2" width="90.9090909091" x="0" y="0" /></g><g transform="translate(217.045454545,386.363636364) scale(0.525, 0.3) rotate(45, 45.4545454545, 45.4545454545)"><rect fill="#FFFFFF" height="90.9090909091" stroke="#000000" stroke-width="2" width="90.9090909091" x="0" y="0" /></g><g transform="translate(307.954545455,386.363636364) scale(0.525, 0.3) rotate(45, 45.4545454545, 45.4545454545)"><rect fill="#FFFFFF" height="90.9090909091" stroke="#000000" stroke-width="2" width="90.9090909091" x="0" y="0" /></g><g transform="translate(398.863636364,386.363636364) scale(0.525, 0.3) rotate(45, 45.4545454545, 45.4545454545)"><rect fill="#FFFFFF" height="90.9090909091" stroke="#000000" stroke-width="2" width="90.9090909091" x="0" y="0" /></g><g transform="translate(489.772727273,386.363636364) scale(0.525, 0.3) rotate(45, 45.4545454545, 45.4545454545)"><rect fill="#FFFFFF" height="90.9090909091" stroke="#000000" stroke-width="2" width="90.9090909091" x="0" y="0" /></g><g transform="translate(580.681818182,386.363636364) scale(0.525, 0.3) rotate(45, 45.4545454545, 45.4545454545)"><rect fill="#FFFFFF" height="90.9090909091" stroke="#000000" stroke-width="2" width="90.9090909091" x="0" y="0" /></g><g transform="translate(671.590909091,386.363636364) scale(0.525, 0.3) rotate(45, 45.4545454545, 45.4545454545)"><rect fill="#FFFFFF" height="90.9090909091" stroke="#000000" stroke-width="2" width="90.9090909091" x="0" y="0" /></g><g transform="translate(762.5,386.363636364) scale(0.525, 0.3) rotate(45, 45.4545454545, 45.4545454545)"><rect fill="#FFFFFF" height="90.9090909091" stroke="#000000" stroke-width="2" width="90.9090909091" x="0" y="0" /></g><g transform="translate(853.409090909,386.363636364) scale(0.525, 0.3) rotate(45, 45.4545454545, 45.4545454545)"><rect fill="#FFFFFF" height="90.9090909091" stroke="#000000" stroke-width="2" width="90.9090909091" x="0" y="0" /></g><g transform="translate(944.318181818,386.363636364) scale(0.525, 0.3) rotate(45, 45.4545454545, 45.4545454545)"><rect fill="#FFFFFF" height="90.9090909091" stroke="#000000" stroke-width="2" width="90.9090909091" x="0" y="0" /></g><g transform="translate(1035.22727273,386.363636364) scale(0.525, 0.3) rotate(45, 45.4545454545, 45.4545454545)"><rect fill="#FFFFFF" height="90.9090909091" stroke="#000000" stroke-width="2" width="90.9090909091" x="0" y="0" /></g><g transform="translate(171.590909091,477.272727273) scale(0.525, 0.3) rotate(45, 45.4545454545, 45.4545454545)"><rect fill="#FFFFFF" height="90.9090909091" stroke="#000000" stroke-width="2" width="90.9090909091" x="0" y="0" /></g><g transform="translate(262.5,477.272727273) scale(0.525, 0.3) rotate(45, 45.4545454545, 45.4545454545)"><rect fill="#FFFFFF" height="90.9090909091" stroke="#000000" stroke-width="2" width="90.9090909091" x="0" y="0" /></g><g transform="translate(353.409090909,477.272727273) scale(0.525, 0.3) rotate(45, 45.4545454545, 45.4545454545)"><rect fill="#FFFFFF" height="90.9090909091" stroke="#000000" stroke-width="2" width="90.9090909091" x="0" y="0" /></g><g transform="translate(444.318181818,477.272727273) scale(0.525, 0.3) rotate(45, 45.4545454545, 45.4545454545)"><rect fill="#FFFFFF" height="90.9090909091" stroke="#000000" stroke-width="2" width="90.9090909091" x="0" y="0" /></g><g transform="translate(535.227272727,477.272727273) scale(0.525, 0.3) rotate(45, 45.4545454545, 45.4545454545)"><rect fill="#FFFFFF" height="90.9090909091" stroke="#000000" stroke-width="2" width="90.9090909091" x="0" y="0" /></g><g transform="translate(626.136363636,477.272727273) scale(0.525, 0.3) rotate(45, 45.4545454545, 45.4545454545)"><rect fill="#FFFFFF" height="90.9090909091" stroke="#000000" stroke-width="2" width="90.9090909091" x="0" y="0" /></g><g transform="translate(717.045454545,477.272727273) scale(0.525, 0.3) rotate(45, 45.4545454545, 45.4545454545)"><rect fill="#FFFFFF" height="90.9090909091" stroke="#000000" stroke-width="2" width="90.9090909091" x="0" y="0" /></g><g transform="translate(807.954545455,477.272727273) scale(0.525, 0.3) rotate(45, 45.4545454545, 45.4545454545)"><rect fill="#FFFFFF" height="90.9090909091" stroke="#000000" stroke-width="2" width="90.9090909091" x="0" y="0" /></g><g transform="translate(898.863636364,477.272727273) scale(0.525, 0.3) rotate(45, 45.4545454545, 45.4545454545)"><rect fill="#FFFFFF" height="90.9090909091" stroke="#000000" stroke-width="2" width="90.9090909091" x="0" y="0" /></g><g transform="translate(989.772727273,477.272727273) scale(0.525, 0.3) rotate(45, 45.4545454545, 45.4545454545)"><rect fill="#FFFFFF" height="90.9090909091" stroke="#000000" stroke-width="2" width="90.9090909091" x="0" y="0" /></g><g transform="translate(1080.68181818,477.272727273) scale(0.525, 0.3) rotate(45, 45.4545454545, 45.4545454545)"><rect fill="#FFFFFF" height="90.9090909091" stroke="#000000" stroke-width="2" width="90.9090909091" x="0" y="0" /></g><g transform="translate(126.136363636,568.181818182) scale(0.525, 0.3) rotate(45, 45.4545454545, 45.4545454545)"><rect fill="#FFFFFF" height="90.9090909091" stroke="#000000" stroke-width="2" width="90.9090909091" x="0" y="0" /></g><g transform="translate(217.045454545,568.181818182) scale(0.525, 0.3) rotate(45, 45.4545454545, 45.4545454545)"><rect fill="#FFFFFF" height="90.9090909091" stroke="#000000" stroke-width="2" width="90.9090909091" x="0" y="0" /></g><g transform="translate(307.954545455,568.181818182) scale(0.525, 0.3) rotate(45, 45.4545454545, 45.4545454545)"><rect fill="#FFFFFF" height="90.9090909091" stroke="#000000" stroke-width="2" width="90.9090909091" x="0" y="0" /></g><g transform="translate(398.863636364,568.181818182) scale(0.525, 0.3) rotate(45, 45.4545454545, 45.4545454545)"><rect fill="#FFFFFF" height="90.9090909091" stroke="#000000" stroke-width="2" width="90.9090909091" x="0" y="0" /></g><g transform="translate(489.772727273,568.181818182) scale(0.525, 0.3) rotate(45, 45.4545454545, 45.4545454545)"><rect fill="#FFFFFF" height="90.9090909091" stroke="#000000" stroke-width="2" width="90.9090909091" x="0" y="0" /></g><g transform="translate(580.681818182,568.181818182) scale(0.525, 0.3) rotate(45, 45.4545454545, 45.4545454545)"><rect fill="#FFFFFF" height="90.9090909091" stroke="#000000" stroke-width="2" width="90.9090909091" x="0" y="0" /></g><g transform="translate(671.590909091,568.181818182) scale(0.525, 0.3) rotate(45, 45.4545454545, 45.4545454545)"><rect fill="#FFFFFF" height="90.9090909091" stroke="#000000" stroke-width="2" width="90.9090909091" x="0" y="0" /></g><g transform="translate(762.5,568.181818182) scale(0.525, 0.3) rotate(45, 45.4545454545, 45.4545454545)"><rect fill="#FFFFFF" height="90.9090909091" stroke="#000000" stroke-width="2" width="90.9090909091" x="0" y="0" /></g><g transform="translate(853.409090909,568.181818182) scale(0.525, 0.3) rotate(45, 45.4545454545, 45.4545454545)"><rect fill="#FFFFFF" height="90.9090909091" stroke="#000000" stroke-width="2" width="90.9090909091" x="0" y="0" /></g><g transform="translate(944.318181818,568.181818182) scale(0.525, 0.3) rotate(45, 45.4545454545, 45.4545454545)"><rect fill="#FFFFFF" height="90.9090909091" stroke="#000000" stroke-width="2" width="90.9090909091" x="0" y="0" /></g><g transform="translate(1035.22727273,568.181818182) scale(0.525, 0.3) rotate(45, 45.4545454545, 45.4545454545)"><rect fill="#FFFFFF" height="90.9090909091" stroke="#000000" stroke-width="2" width="90.9090909091" x="0" y="0" /></g><g transform="translate(171.590909091,659.090909091) scale(0.525, 0.3) rotate(45, 45.4545454545, 45.4545454545)"><rect fill="#FFFFFF" height="90.9090909091" stroke="#000000" stroke-width="2" width="90.9090909091" x="0" y="0" /></g><g transform="translate(262.5,659.090909091) scale(0.525, 0.3) rotate(45, 45.4545454545, 45.4545454545)"><rect fill="#FFFFFF" height="90.9090909091" stroke="#000000" stroke-width="2" width="90.9090909091" x="0" y="0" /></g><g transform="translate(353.409090909,659.090909091) scale(0.525, 0.3) rotate(45, 45.4545454545, 45.4545454545)"><rect fill="#FFFFFF" height="90.9090909091" stroke="#000000" stroke-width="2" width="90.9090909091" x="0" y="0" /></g><g transform="translate(444.318181818,659.090909091) scale(0.525, 0.3) rotate(45, 45.4545454545, 45.4545454545)"><rect fill="#FFFFFF" height="90.9090909091" stroke="#000000" stroke-width="2" width="90.9090909091" x="0" y="0" /></g><g transform="translate(535.227272727,659.090909091) scale(0.525, 0.3) rotate(45, 45.4545454545, 45.4545454545)"><rect fill="#FFFFFF" height="90.9090909091" stroke="#000000" stroke-width="2" width="90.9090909091" x="0" y="0" /></g><g transform="translate(626.136363636,659.090909091) scale(0.525, 0.3) rotate(45, 45.4545454545, 45.4545454545)"><rect fill="#FFFFFF" height="90.9090909091" stroke="#000000" stroke-width="2" width="90.9090909091" x="0" y="0" /></g><g transform="translate(717.045454545,659.090909091) scale(0.525, 0.3) rotate(45, 45.4545454545, 45.4545454545)"><rect fill="#FFFFFF" height="90.9090909091" stroke="#000000" stroke-width="2" width="90.9090909091" x="0" y="0" /></g><g transform="translate(807.954545455,659.090909091) scale(0.525, 0.3) rotate(45, 45.4545454545, 45.4545454545)"><rect fill="#FFFFFF" height="90.9090909091" stroke="#000000" stroke-width="2" width="90.9090909091" x="0" y="0" /></g><g transform="translate(898.863636364,659.090909091) scale(0.525, 0.3) rotate(45, 45.4545454545, 45.4545454545)"><rect fill="#FFFFFF" height="90.9090909091" stroke="#000000" stroke-width="2" width="90.9090909091" x="0" y="0" /></g><g transform="translate(989.772727273,659.090909091) scale(0.525, 0.3) rotate(45, 45.4545454545, 45.4545454545)"><rect fill="#FFFFFF" height="90.9090909091" stroke="#000000" stroke-width="2" width="90.9090909091" x="0" y="0" /></g><g transform="translate(1080.68181818,659.090909091) scale(0.525, 0.3) rotate(45, 45.4545454545, 45.4545454545)"><rect fill="#FFFFFF" height="90.9090909091" stroke="#000000" stroke-width="2" width="90.9090909091" x="0" y="0" /></g><g transform="translate(126.136363636,750.0) scale(0.525, 0.3) rotate(45, 45.4545454545, 45.4545454545)"><rect fill="#FFFFFF" height="90.9090909091" stroke="#000000" stroke-width="2" width="90.9090909091" x="0" y="0" /></g><g transform="translate(217.045454545,750.0) scale(0.525, 0.3) rotate(45, 45.4545454545, 45.4545454545)"><rect fill="#FFFFFF" height="90.9090909091" stroke="#000000" stroke-width="2" width="90.9090909091" x="0" y="0" /></g><g transform="translate(307.954545455,750.0) scale(0.525, 0.3) rotate(45, 45.4545454545, 45.4545454545)"><rect fill="#FFFFFF" height="90.9090909091" stroke="#000000" stroke-width="2" width="90.9090909091" x="0" y="0" /></g><g transform="translate(398.863636364,750.0) scale(0.525, 0.3) rotate(45, 45.4545454545, 45.4545454545)"><rect fill="#FFFFFF" height="90.9090909091" stroke="#000000" stroke-width="2" width="90.9090909091" x="0" y="0" /></g><g transform="translate(489.772727273,750.0) scale(0.525, 0.3) rotate(45, 45.4545454545, 45.4545454545)"><rect fill="#FFFFFF" height="90.9090909091" stroke="#000000" stroke-width="2" width="90.9090909091" x="0" y="0" /></g><g transform="translate(580.681818182,750.0) scale(0.525, 0.3) rotate(45, 45.4545454545, 45.4545454545)"><rect fill="#FFFFFF" height="90.9090909091" stroke="#000000" stroke-width="2" width="90.9090909091" x="0" y="0" /></g><g transform="translate(671.590909091,750.0) scale(0.525, 0.3) rotate(45, 45.4545454545, 45.4545454545)"><rect fill="#FFFFFF" height="90.9090909091" stroke="#000000" stroke-width="2" width="90.9090909091" x="0" y="0" /></g><g transform="translate(762.5,750.0) scale(0.525, 0.3) rotate(45, 45.4545454545, 45.4545454545)"><rect fill="#FFFFFF" height="90.9090909091" stroke="#000000" stroke-width="2" width="90.9090909091" x="0" y="0" /></g><g transform="translate(853.409090909,750.0) scale(0.525, 0.3) rotate(45, 45.4545454545, 45.4545454545)"><rect fill="#FFFFFF" height="90.9090909091" stroke="#000000" stroke-width="2" width="90.9090909091" x="0" y="0" /></g><g transform="translate(944.318181818,750.0) scale(0.525, 0.3) rotate(45, 45.4545454545, 45.4545454545)"><rect fill="#FFFFFF" height="90.9090909091" stroke="#000000" stroke-width="2" width="90.9090909091" x="0" y="0" /></g><g transform="translate(1035.22727273,750.0) scale(0.525, 0.3) rotate(45, 45.4545454545, 45.4545454545)"><rect fill="#FFFFFF" height="90.9090909091" stroke="#000000" stroke-width="2" width="90.9090909091" x="0" y="0" /></g><g transform="translate(171.590909091,840.909090909) scale(0.525, 0.3) rotate(45, 45.4545454545, 45.4545454545)"><rect fill="#FFFFFF" height="90.9090909091" stroke="#000000" stroke-width="2" width="90.9090909091" x="0" y="0" /></g><g transform="translate(262.5,840.909090909) scale(0.525, 0.3) rotate(45, 45.4545454545, 45.4545454545)"><rect fill="#FFFFFF" height="90.9090909091" stroke="#000000" stroke-width="2" width="90.9090909091" x="0" y="0" /></g><g transform="translate(353.409090909,840.909090909) scale(0.525, 0.3) rotate(45, 45.4545454545, 45.4545454545)"><rect fill="#FFFFFF" height="90.9090909091" stroke="#000000" stroke-width="2" width="90.9090909091" x="0" y="0" /></g><g transform="translate(444.318181818,840.909090909) scale(0.525, 0.3) rotate(45, 45.4545454545, 45.4545454545)"><rect fill="#FFFFFF" height="90.9090909091" stroke="#000000" stroke-width="2" width="90.9090909091" x="0" y="0" /></g><g transform="translate(535.227272727,840.909090909) scale(0.525, 0.3) rotate(45, 45.4545454545, 45.4545454545)"><rect fill="#FFFFFF" height="90.9090909091" stroke="#000000" stroke-width="2" width="90.9090909091" x="0" y="0" /></g><g transform="translate(626.136363636,840.909090909) scale(0.525, 0.3) rotate(45, 45.4545454545, 45.4545454545)"><rect fill="#FFFFFF" height="90.9090909091" stroke="#000000" stroke-width="2" width="90.9090909091" x="0" y="0" /></g><g transform="translate(717.045454545,840.909090909) scale(0.525, 0.3) rotate(45, 45.4545454545, 45.4545454545)"><rect fill="#FFFFFF" height="90.9090909091" stroke="#000000" stroke-width="2" width="90.9090909091" x="0" y="0" /></g><g transform="translate(807.954545455,840.909090909) scale(0.525, 0.3) rotate(45, 45.4545454545, 45.4545454545)"><rect fill="#FFFFFF" height="90.9090909091" stroke="#000000" stroke-width="2" width="90.9090909091" x="0" y="0" /></g><g transform="translate(898.863636364,840.909090909) scale(0.525, 0.3) rotate(45, 45.4545454545, 45.4545454545)"><rect fill="#FFFFFF" height="90.9090909091" stroke="#000000" stroke-width="2" width="90.9090909091" x="0" y="0" /></g><g transform="translate(989.772727273,840.909090909) scale(0.525, 0.3) rotate(45, 45.4545454545, 45.4545454545)"><rect fill="#FFFFFF" height="90.9090909091" stroke="#000000" stroke-width="2" width="90.9090909091" x="0" y="0" /></g><g transform="translate(1080.68181818,840.909090909) scale(0.525, 0.3) rotate(45, 45.4545454545, 45.4545454545)"><rect fill="#FFFFFF" height="90.9090909091" stroke="#000000" stroke-width="2" width="90.9090909091" x="0" y="0" /></g><g transform="translate(126.136363636,931.818181818) scale(0.525, 0.3) rotate(45, 45.4545454545, 45.4545454545)"><rect fill="#FFFFFF" height="90.9090909091" stroke="#000000" stroke-width="2" width="90.9090909091" x="0" y="0" /></g><g transform="translate(217.045454545,931.818181818) scale(0.525, 0.3) rotate(45, 45.4545454545, 45.4545454545)"><rect fill="#FFFFFF" height="90.9090909091" stroke="#000000" stroke-width="2" width="90.9090909091" x="0" y="0" /></g><g transform="translate(307.954545455,931.818181818) scale(0.525, 0.3) rotate(45, 45.4545454545, 45.4545454545)"><rect fill="#FFFFFF" height="90.9090909091" stroke="#000000" stroke-width="2" width="90.9090909091" x="0" y="0" /></g><g transform="translate(398.863636364,931.818181818) scale(0.525, 0.3) rotate(45, 45.4545454545, 45.4545454545)"><rect fill="#FFFFFF" height="90.9090909091" stroke="#000000" stroke-width="2" width="90.9090909091" x="0" y="0" /></g><g transform="translate(489.772727273,931.818181818) scale(0.525, 0.3) rotate(45, 45.4545454545, 45.4545454545)"><rect fill="#FFFFFF" height="90.9090909091" stroke="#000000" stroke-width="2" width="90.9090909091" x="0" y="0" /></g><g transform="translate(580.681818182,931.818181818) scale(0.525, 0.3) rotate(45, 45.4545454545, 45.4545454545)"><rect fill="#FFFFFF" height="90.9090909091" stroke="#000000" stroke-width="2" width="90.9090909091" x="0" y="0" /></g><g transform="translate(671.590909091,931.818181818) scale(0.525, 0.3) rotate(45, 45.4545454545, 45.4545454545)"><rect fill="#FFFFFF" height="90.9090909091" stroke="#000000" stroke-width="2" width="90.9090909091" x="0" y="0" /></g><g transform="translate(762.5,931.818181818) scale(0.525, 0.3) rotate(45, 45.4545454545, 45.4545454545)"><rect fill="#FFFFFF" height="90.9090909091" stroke="#000000" stroke-width="2" width="90.9090909091" x="0" y="0" /></g><g transform="translate(853.409090909,931.818181818) scale(0.525, 0.3) rotate(45, 45.4545454545, 45.4545454545)"><rect fill="#FFFFFF" height="90.9090909091" stroke="#000000" stroke-width="2" width="90.9090909091" x="0" y="0" /></g><g transform="translate(944.318181818,931.818181818) scale(0.525, 0.3) rotate(45, 45.4545454545, 45.4545454545)"><rect fill="#FFFFFF" height="90.9090909091" stroke="#000000" stroke-width="2" width="90.9090909091" x="0" y="0" /></g><g transform="translate(1035.22727273,931.818181818) scale(0.525, 0.3) rotate(45, 45.4545454545, 45.4545454545)"><rect fill="#FFFFFF" height="90.9090909091" stroke="#000000" stroke-width="2" width="90.9090909091" x="0" y="0" /></g><g transform="translate(171.590909091,1022.72727273) scale(0.525, 0.3) rotate(45, 45.4545454545, 45.4545454545)"><rect fill="#FFFFFF" height="90.9090909091" stroke="#000000" stroke-width="2" width="90.9090909091" x="0" y="0" /></g><g transform="translate(262.5,1022.72727273) scale(0.525, 0.3) rotate(45, 45.4545454545, 45.4545454545)"><rect fill="#FFFFFF" height="90.9090909091" stroke="#000000" stroke-width="2" width="90.9090909091" x="0" y="0" /></g><g transform="translate(353.409090909,1022.72727273) scale(0.525, 0.3) rotate(45, 45.4545454545, 45.4545454545)"><rect fill="#FFFFFF" height="90.9090909091" stroke="#000000" stroke-width="2" width="90.9090909091" x="0" y="0" /></g><g transform="translate(444.318181818,1022.72727273) scale(0.525, 0.3) rotate(45, 45.4545454545, 45.4545454545)"><rect fill="#FFFFFF" height="90.9090909091" stroke="#000000" stroke-width="2" width="90.9090909091" x="0" y="0" /></g><g transform="translate(535.227272727,1022.72727273) scale(0.525, 0.3) rotate(45, 45.4545454545, 45.4545454545)"><rect fill="#FFFFFF" height="90.9090909091" stroke="#000000" stroke-width="2" width="90.9090909091" x="0" y="0" /></g><g transform="translate(626.136363636,1022.72727273) scale(0.525, 0.3) rotate(45, 45.4545454545, 45.4545454545)"><rect fill="#FFFFFF" height="90.9090909091" stroke="#000000" stroke-width="2" width="90.9090909091" x="0" y="0" /></g><g transform="translate(717.045454545,1022.72727273) scale(0.525, 0.3) rotate(45, 45.4545454545, 45.4545454545)"><rect fill="#FFFFFF" height="90.9090909091" stroke="#000000" stroke-width="2" width="90.9090909091" x="0" y="0" /></g><g transform="translate(807.954545455,1022.72727273) scale(0.525, 0.3) rotate(45, 45.4545454545, 45.4545454545)"><rect fill="#FFFFFF" height="90.9090909091" stroke="#000000" stroke-width="2" width="90.9090909091" x="0" y="0" /></g><g transform="translate(898.863636364,1022.72727273) scale(0.525, 0.3) rotate(45, 45.4545454545, 45.4545454545)"><rect fill="#FFFFFF" height="90.9090909091" stroke="#000000" stroke-width="2" width="90.9090909091" x="0" y="0" /></g><g transform="translate(989.772727273,1022.72727273) scale(0.525, 0.3) rotate(45, 45.4545454545, 45.4545454545)"><rect fill="#FFFFFF" height="90.9090909091" stroke="#000000" stroke-width="2" width="90.9090909091" x="0" y="0" /></g><g transform="translate(1080.68181818,1022.72727273) scale(0.525, 0.3) rotate(45, 45.4545454545, 45.4545454545)"><rect fill="#FFFFFF" height="90.9090909091" stroke="#000000" stroke-width="2" width="90.9090909091" x="0" y="0" /></g><g transform="translate(126.136363636,1113.63636364) scale(0.525, 0.3) rotate(45, 45.4545454545, 45.4545454545)"><rect fill="#FFFFFF" height="90.9090909091" stroke="#000000" stroke-width="2" width="90.9090909091" x="0" y="0" /></g><g transform="translate(217.045454545,1113.63636364) scale(0.525, 0.3) rotate(45, 45.4545454545, 45.4545454545)"><rect fill="#FFFFFF" height="90.9090909091" stroke="#000000" stroke-width="2" width="90.9090909091" x="0" y="0" /></g><g transform="translate(307.954545455,1113.63636364) scale(0.525, 0.3) rotate(45, 45.4545454545, 45.4545454545)"><rect fill="#FFFFFF" height="90.9090909091" stroke="#000000" stroke-width="2" width="90.9090909091" x="0" y="0" /></g><g transform="translate(398.863636364,1113.63636364) scale(0.525, 0.3) rotate(45, 45.4545454545, 45.4545454545)"><rect fill="#FFFFFF" height="90.9090909091" stroke="#000000" stroke-width="2" width="90.9090909091" x="0" y="0" /></g><g transform="translate(489.772727273,1113.63636364) scale(0.525, 0.3) rotate(45, 45.4545454545, 45.4545454545)"><rect fill="#FFFFFF" height="90.9090909091" stroke="#000000" stroke-width="2" width="90.9090909091" x="0" y="0" /></g><g transform="translate(580.681818182,1113.63636364) scale(0.525, 0.3) rotate(45, 45.4545454545, 45.4545454545)"><rect fill="#FFFFFF" height="90.9090909091" stroke="#000000" stroke-width="2" width="90.9090909091" x="0" y="0" /></g><g transform="translate(671.590909091,1113.63636364) scale(0.525, 0.3) rotate(45, 45.4545454545, 45.4545454545)"><rect fill="#FFFFFF" height="90.9090909091" stroke="#000000" stroke-width="2" width="90.9090909091" x="0" y="0" /></g><g transform="translate(762.5,1113.63636364) scale(0.525, 0.3) rotate(45, 45.4545454545, 45.4545454545)"><rect fill="#FFFFFF" height="90.9090909091" stroke="#000000" stroke-width="2" width="90.9090909091" x="0" y="0" /></g><g transform="translate(853.409090909,1113.63636364) scale(0.525, 0.3) rotate(45, 45.4545454545, 45.4545454545)"><rect fill="#FFFFFF" height="90.9090909091" stroke="#000000" stroke-width="2" width="90.9090909091" x="0" y="0" /></g><g transform="translate(944.318181818,1113.63636364) scale(0.525, 0.3) rotate(45, 45.4545454545, 45.4545454545)"><rect fill="#FFFFFF" height="90.9090909091" stroke="#000000" stroke-width="2" width="90.9090909091" x="0" y="0" /></g><g transform="translate(1035.22727273,1113.63636364) scale(0.525, 0.3) rotate(45, 45.4545454545, 45.4545454545)"><rect fill="#FFFFFF" height="90.9090909091" stroke="#000000" stroke-width="2" width="90.9090909091" x="0" y="0" /></g></g><g id="trees"><g transform="translate(104.132231405,104.132231405) scale(0.909090909091)"><use xlink:href="#tree0" /></g><g transform="translate(195.041322314,104.132231405) scale(0.909090909091)"><use xlink:href="#tree1" /></g><g transform="translate(285.950413223,104.132231405) scale(0.909090909091)"><use xlink:href="#tree2" /></g><g transform="translate(376.859504132,104.132231405) scale(0.909090909091)"><use xlink:href="#tree0" /></g><g transform="translate(467.768595041,104.132231405) scale(0.909090909091)"><use xlink:href="#tree1" /></g><g transform="translate(558.67768595,104.132231405) scale(0.909090909091)"><use xlink:href="#tree2" /></g><g transform="translate(649.58677686,104.132231405) scale(0.909090909091)"><use xlink:href="#tree0" /></g><g transform="translate(740.495867769,104.132231405) scale(0.909090909091)"><use xlink:href="#tree1" /></g><g transform="translate(831.404958678,104.132231405) scale(0.909090909091)"><use xlink:href="#tree2" /></g><g transform="translate(922.314049587,104.132231405) scale(0.909090909091)"><use xlink:href="#tree0" /></g><g transform="translate(1013.2231405,104.132231405) scale(0.909090909091)"><use xlink:href="#tree1" /></g><g transform="translate(149.58677686,195.041322314) scale(0.909090909091)"><use xlink:href="#tree2" /></g><g transform="translate(240.495867769,195.041322314) scale(0.909090909091)"><use xlink:href="#tree0" /></g><g transform="translate(331.404958678,195.041322314) scale(0.909090909091)"><use xlink:href="#tree1" /></g><g transform="translate(422.314049587,195.041322314) scale(0.909090909091)"><use xlink:href="#tree2" /></g><g transform="translate(513.223140496,195.041322314) scale(0.909090909091)"><use xlink:href="#tree0" /></g><g transform="translate(604.132231405,195.041322314) scale(0.909090909091)"><use xlink:href="#tree1" /></g><g transform="translate(695.041322314,195.041322314) scale(0.909090909091)"><use xlink:href="#tree2" /></g><g transform="translate(785.950413223,195.041322314) scale(0.909090909091)"><use xlink:href="#tree0" /></g><g transform="translate(876.859504132,195.041322314) scale(0.909090909091)"><use xlink:href="#tree1" /></g><g transform="translate(967.768595041,195.041322314) scale(0.909090909091)"><use xlink:href="#tree2" /></g><g transform="translate(1058.67768595,195.041322314) scale(0.909090909091)"><use xlink:href="#tree0" /></g><g transform="translate(104.132231405,285.950413223) scale(0.909090909091)"><use xlink:href="#tree1" /></g><g transform="translate(195.041322314,285.950413223) scale(0.909090909091)"><use xlink:href="#tree2" /></g><g transform="translate(285.950413223,285.950413223) scale(0.909090909091)"><use xlink:href="#tree0" /></g><g transform="translate(376.859504132,285.950413223) scale(0.909090909091)"><use xlink:href="#tree1" /></g><g transform="translate(467.768595041,285.950413223) scale(0.909090909091)"><use xlink:href="#tree2" /></g><g transform="translate(558.67768595,285.950413223) scale(0.909090909091)"><use xlink:href="#tree0" /></g><g transform="translate(649.58677686,285.950413223) scale(0.909090909091)"><use xlink:href="#tree1" /></g><g transform="translate(740.495867769,285.950413223) scale(0.909090909091)"><use xlink:href="#tree2" /></g><g transform="translate(831.404958678,285.950413223) scale(0.909090909091)"><use xlink:href="#tree0" /></g><g transform="translate(922.314049587,285.950413223) scale(0.909090909091)"><use xlink:href="#tree1" /></g><g transform="translate(1013.2231405,285.950413223) scale(0.909090909091)"><use xlink:href="#tree2" /></g><g transform="translate(149.58677686,376.859504132) scale(0.909090909091)"><use xlink:href="#tree0" /></g><g transform="translate(240.495867769,376.859504132) scale(0.909090909091)"><use xlink:href="#tree1" /></g><g transform="translate(331.404958678,376.859504132) scale(0.909090909091)"><use xlink:href="#tree2" /></g><g transform="translate(422.314049587,376.859504132) scale(0.909090909091)"><use xlink:href="#tree0" /></g><g transform="translate(513.223140496,376.859504132) scale(0.909090909091)"><use xlink:href="#tree1" /></g><g transform="translate(604.132231405,376.859504132) scale(0.909090909091)"><use xlink:href="#tree2" /></g><g transform="translate(695.041322314,376.859504132) scale(0.909090909091)"><use xlink:href="#tree0" /></g><g transform="translate(785.950413223,376.859504132) scale(0.909090909091)"><use xlink:href="#tree1" /></g><g transform="translate(876.859504132,376.859504132) scale(0.909090909091)"><use xlink:href="#tree2" /></g><g transform="translate(967.768595041,376.859504132) scale(0.909090909091)"><use xlink:href="#tree0" /></g><g transform="translate(1058.67768595,376.859504132) scale(0.909090909091)"><use xlink:href="#tree1" /></g><g transform="translate(104.132231405,467.768595041) scale(0.909090909091)"><use xlink:href="#tree2" /></g><g transform="translate(195.041322314,467.768595041) scale(0.909090909091)"><use xlink:href="#tree0" /></g><g transform="translate(285.950413223,467.768595041) scale(0.909090909091)"><use xlink:href="#tree1" /></g><g transform="translate(376.859504132,467.768595041) scale(0.909090909091)"><use xlink:href="#tree2" /></g><g transform="translate(467.768595041,467.768595041) scale(0.909090909091)"><use xlink:href="#tree0" /></g><g transform="translate(558.67768595,467.768595041) scale(0.909090909091)"><use xlink:href="#tree1" /></g><g transform="translate(649.58677686,467.768595041) scale(0.909090909091)"><use xlink:href="#tree2" /></g><g transform="translate(740.495867769,467.768595041) scale(0.909090909091)"><use xlink:href="#tree0" /></g><g transform="translate(831.404958678,467.768595041) scale(0.909090909091)"><use xlink:href="#tree1" /></g><g transform="translate(922.314049587,467.768595041) scale(0.909090909091)"><use xlink:href="#tree2" /></g><g transform="translate(1013.2231405,467.768595041) scale(0.909090909091)"><use xlink:href="#tree0" /></g><g transform="translate(149.58677686,558.67768595) scale(0.909090909091)"><use xlink:href="#tree1" /></g><g transform="translate(240.495867769,558.67768595) scale(0.909090909091)"><use xlink:href="#tree2" /></g><g transform="translate(331.404958678,558.67768595) scale(0.909090909091)"><use xlink:href="#tree0" /></g><g transform="translate(422.314049587,558.67768595) scale(0.909090909091)"><use xlink:href="#tree1" /></g><g transform="translate(513.223140496,558.67768595) scale(0.909090909091)"><use xlink:href="#tree2" /></g><g transform="translate(604.132231405,558.67768595) scale(0.909090909091)"><use xlink:href="#tree0" /></g><g transform="translate(695.041322314,558.67768595) scale(0.909090909091)"><use xlink:href="#tree1" /></g><g transform="translate(785.950413223,558.67768595) scale(0.909090909091)"><use xlink:href="#tree2" /></g><g transform="translate(876.859504132,558.67768595) scale(0.909090909091)"><use xlink:href="#tree0" /></g><g transform="translate(967.768595041,558.67768595) scale(0.909090909091)"><use xlink:href="#tree1" /></g><g transform="translate(1058.67768595,558.67768595) scale(0.909090909091)"><use xlink:href="#tree2" /></g><g transform="translate(104.132231405,649.58677686) scale(0.909090909091)"><use xlink:href="#tree0" /></g><g transform="translate(195.041322314,649.58677686) scale(0.909090909091)"><use xlink:href="#tree1" /></g><g transform="translate(285.950413223,649.58677686) scale(0.909090909091)"><use xlink:href="#tree2" /></g><g transform="translate(376.859504132,649.58677686) scale(0.909090909091)"><use xlink:href="#tree0" /></g><g transform="translate(467.768595041,649.58677686) scale(0.909090909091)"><use xlink:href="#tree1" /></g><g transform="translate(558.67768595,649.58677686) scale(0.909090909091)"><use xlink:href="#tree2" /></g><g transform="translate(649.58677686,649.58677686) scale(0.909090909091)"><use xlink:href="#tree0" /></g><g transform="translate(740.495867769,649.58677686) scale(0.909090909091)"><use xlink:href="#tree1" /></g><g transform="translate(831.404958678,649.58677686) scale(0.909090909091)"><use xlink:href="#tree2" /></g><g transform="translate(922.314049587,649.58677686) scale(0.909090909091)"><use xlink:href="#tree0" /></g><g transform="translate(1013.2231405,649.58677686) scale(0.909090909091)"><use xlink:href="#tree1" /></g><g transform="translate(149.58677686,740.495867769) scale(0.909090909091)"><use xlink:href="#tree2" /></g><g transform="translate(240.495867769,740.495867769) scale(0.909090909091)"><use xlink:href="#tree0" /></g><g transform="translate(331.404958678,740.495867769) scale(0.909090909091)"><use xlink:href="#tree1" /></g><g transform="translate(422.314049587,740.495867769) scale(0.909090909091)"><use xlink:href="#tree2" /></g><g transform="translate(513.223140496,740.495867769) scale(0.909090909091)"><use xlink:href="#tree0" /></g><g transform="translate(604.132231405,740.495867769) scale(0.909090909091)"><use xlink:href="#tree1" /></g><g transform="translate(695.041322314,740.495867769) scale(0.909090909091)"><use xlink:href="#tree2" /></g><g transform="translate(785.950413223,740.495867769) scale(0.909090909091)"><use xlink:href="#tree0" /></g><g transform="translate(876.859504132,740.495867769) scale(0.909090909091)"><use xlink:href="#tree1" /></g><g transform="translate(967.768595041,740.495867769) scale(0.909090909091)"><use xlink:href="#tree2" /></g><g transform="translate(1058.67768595,740.495867769) scale(0.909090909091)"><use xlink:href="#tree0" /></g><g transform="translate(104.132231405,831.404958678) scale(0.909090909091)"><use xlink:href="#tree1" /></g><g transform="translate(195.041322314,831.404958678) scale(0.909090909091)"><use xlink:href="#tree2" /></g><g transform="translate(285.950413223,831.404958678) scale(0.909090909091)"><use xlink:href="#tree0" /></g><g transform="translate(376.859504132,831.404958678) scale(0.909090909091)"><use xlink:href="#tree1" /></g><g transform="translate(467.768595041,831.404958678) scale(0.909090909091)"><use xlink:href="#tree2" /></g><g transform="translate(558.67768595,831.404958678) scale(0.909090909091)"><use xlink:href="#tree0" /></g><g transform="translate(649.58677686,831.404958678) scale(0.909090909091)"><use xlink:href="#tree1" /></g><g transform="translate(740.495867769,831.404958678) scale(0.909090909091)"><use xlink:href="#tree2" /></g><g transform="translate(831.404958678,831.404958678) scale(0.909090909091)"><use xlink:href="#tree0" /></g><g transform="translate(922.314049587,831.404958678) scale(0.909090909091)"><use xlink:href="#tree1" /></g><g transform="translate(1013.2231405,831.404958678) scale(0.909090909091)"><use xlink:href="#tree2" /></g><g transform="translate(149.58677686,922.314049587) scale(0.909090909091)"><use xlink:href="#tree0" /></g><g transform="translate(240.495867769,922.314049587) scale(0.909090909091)"><use xlink:href="#tree1" /></g><g transform="translate(331.404958678,922.314049587) scale(0.909090909091)"><use xlink:href="#tree2" /></g><g transform="translate(422.314049587,922.314049587) scale(0.909090909091)"><use xlink:href="#tree0" /></g><g transform="translate(513.223140496,922.314049587) scale(0.909090909091)"><use xlink:href="#tree1" /></g><g transform="translate(604.132231405,922.314049587) scale(0.909090909091)"><use xlink:href="#tree2" /></g><g transform="translate(695.041322314,922.314049587) scale(0.909090909091)"><use xlink:href="#tree0" /></g><g transform="translate(785.950413223,922.314049587) scale(0.909090909091)"><use xlink:href="#tree1" /></g><g transform="translate(876.859504132,922.314049587) scale(0.909090909091)"><use xlink:href="#tree2" /></g><g transform="translate(967.768595041,922.314049587) scale(0.909090909091)"><use xlink:href="#tree0" /></g><g transform="translate(1058.67768595,922.314049587) scale(0.909090909091)"><use xlink:href="#tree1" /></g><g transform="translate(104.132231405,1013.2231405) scale(0.909090909091)"><use xlink:href="#tree2" /></g><g transform="translate(195.041322314,1013.2231405) scale(0.909090909091)"><use xlink:href="#tree0" /></g><g transform="translate(285.950413223,1013.2231405) scale(0.909090909091)"><use xlink:href="#tree1" /></g><g transform="translate(376.859504132,1013.2231405) scale(0.909090909091)"><use xlink:href="#tree2" /></g><g transform="translate(467.768595041,1013.2231405) scale(0.909090909091)"><use xlink:href="#tree0" /></g><g transform="translate(558.67768595,1013.2231405) scale(0.909090909091)"><use xlink:href="#tree1" /></g><g transform="translate(649.58677686,1013.2231405) scale(0.909090909091)"><use xlink:href="#tree2" /></g><g transform="translate(740.495867769,1013.2231405) scale(0.909090909091)"><use xlink:href="#tree0" /></g><g transform="translate(831.404958678,1013.2231405) scale(0.909090909091)"><use xlink:href="#tree1" /></g><g transform="translate(922.314049587,1013.2231405) scale(0.909090909091)"><use xlink:href="#tree2" /></g><g transform="translate(1013.2231405,1013.2231405) scale(0.909090909091)"><use xlink:href="#tree0" /></g></g></svg>