<?xml version="1.0" encoding="utf-8" ?>
<svg baseProfile="full" height="792.0" version="1.1" width="612.0" xmlns="http://www.w3.org/2000/svg" xmlns:ev="http://www.w3.org/2001/xml-events" xmlns:xlink="http://www.w3.org/1999/xlink"><defs><g id="car0"><path d="m 87.145,32.358 c 0,0 1.019,-10.461 -18.423,-13.702 0,0 -17.312,-16.109 -53.324,-8.888 0,0 -3.241,0.741 -9.165,10.785 0,0 -0.741,1.989 -0.417,4.026 0,0 -6.851,6.623 1.527,13.61 h 2.695 c 0,-0.03 -0.004,-0.06 -0.004,-0.09 0,-4.537 3.678,-8.213 8.214,-8.213 4.536,0 8.214,3.676 8.214,8.213 0,0.03 -0.004,0.06 -0.004,0.09 h 36.999 c 0,-0.03 -0.004,-0.06 -0.004,-0.09 0,-4.537 3.677,-8.213 8.213,-8.213 4.537,0 8.214,3.676 8.214,8.213 0,0.03 -0.004,0.06 -0.004,0.09 h 1.99 c 0.001,10e-4 5.927,0.095 5.279,-5.831 z M 20.744,19.05 c -3.055,-0.347 -1.736,-1.817 -1.736,-1.817 1.443,-3.105 7.55,-4.276 12.084,-4.718 v 7.364 z m 39.022,3.124 -26.868,-2.151 v -7.656 c 1.964,-0.129 3.33,-0.122 3.33,-0.122 18.469,0.833 24.162,7.152 24.162,7.152 3.125,3.402 -0.624,2.777 -0.624,2.777 z" fill="#FFFFFF" stroke="#000000" stroke-width="1.40028025" /><path d="m 71.626,30.915 c -4.019,0 -7.275,3.258 -7.275,7.275 0,4.017 3.257,7.275 7.275,7.275 4.018,0 7.275,-3.258 7.275,-7.275 0,-4.017 -3.256,-7.275 -7.275,-7.275 z m 0,11.056 c -2.087,0 -3.779,-1.692 -3.779,-3.78 0,-2.087 1.692,-3.779 3.779,-3.779 2.088,0 3.78,1.692 3.78,3.779 0,2.087 -1.692,3.78 -3.78,3.78 z" fill="#FFFFFF" stroke="#000000" stroke-width="1.40028025" /><path d="m 18.303,30.915 c -4.019,0 -7.275,3.258 -7.275,7.275 0,4.017 3.257,7.275 7.275,7.275 4.018,0 7.275,-3.258 7.275,-7.275 0,-4.017 -3.257,-7.275 -7.275,-7.275 z m 0,11.056 c -2.087,0 -3.78,-1.692 -3.78,-3.78 0,-2.087 1.692,-3.779 3.78,-3.779 2.088,0 3.78,1.692 3.78,3.779 0,2.087 -1.693,3.78 -3.78,3.78 z" fill="#FFFFFF" stroke="#000000" stroke-width="1.40028025" /></g><g id="car1"><path d="m 70.466,24.752 c -3.358,0 -6.084,2.72 -6.084,6.081 0,3.365 2.726,6.085 6.084,6.085 3.358,0 6.086,-2.72 6.086,-6.085 0,-3.361 -2.728,-6.081 -6.086,-6.081 z m 0,9.382 c -1.819,0 -3.296,-1.475 -3.296,-3.299 0,-1.82 1.477,-3.296 3.296,-3.296 1.819,0 3.296,1.476 3.296,3.296 0,1.824 -1.477,3.299 -3.296,3.299 z" fill="#FFFFFF" stroke="#000000" stroke-width="1.44060261667" /><path d="m 17.466,24.752 c -3.358,0 -6.084,2.72 -6.084,6.081 0,3.365 2.726,6.085 6.084,6.085 3.358,0 6.086,-2.72 6.086,-6.085 0,-3.361 -2.728,-6.081 -6.086,-6.081 z m 0,9.382 c -1.819,0 -3.295,-1.475 -3.295,-3.299 0,-1.82 1.477,-3.296 3.295,-3.296 1.818,0 3.295,1.476 3.295,3.296 0,1.824 -1.476,3.299 -3.295,3.299 z" fill="#FFFFFF" stroke="#000000" stroke-width="1.44060261667" /><path d="m 67.483,14.779 c 0,0 -12.937,-8.131 -27.594,-8.383 0,0 -9.208,-1.174 -22.957,5.365 0,0 -6.036,3.269 -12.407,3.604 0,0 -2.934,2.264 -2.766,8.718 0,0 -0.084,4.443 2.934,6.455 l 5.817,0.092 c 0.108,-3.726 3.155,-6.714 6.906,-6.714 3.82,0 6.917,3.097 6.917,6.917 0,0.005 -10e-4,0.011 -10e-4,0.016 l 39.199,0.62 c -0.02,-0.21 -0.032,-0.421 -0.032,-0.636 0,-3.82 3.098,-6.917 6.917,-6.917 3.82,0 6.917,3.097 6.917,6.917 0,0.29 -0.023,0.573 -0.058,0.854 l 1.607,0.025 c 0,0 9.138,1.258 9.306,-3.604 v -2.851 c 10e-4,10e-4 0.252,-7.46 -20.705,-10.478 z M 60.776,16.958 22.13,16.372 c -5.197,-0.419 -2.012,-2.431 -2.012,-2.431 0,0 7.88,-5.197 19.113,-4.862 11.234,0.335 21.544,5.197 21.544,5.197 4.948,2.766 0.001,2.682 0.001,2.682 z" fill="#FFFFFF" stroke="#000000" stroke-width="1.44060261667" /></g><g id="car2"><path d="m 67.639,18.294 c 0,0 -19.872,-16.795 -52.963,-5.155 0,0 -6.153,1.995 -9.811,1.829 l -0.416,7.899 c 0,0 -7.732,11.307 6.984,11.307 l 1.953,0.026 c -0.002,-0.067 -0.01,-0.133 -0.01,-0.2 0,-3.866 3.134,-7 7,-7 3.866,0 7,3.134 7,7 0,0.132 -0.013,0.26 -0.02,0.39 l 38.085,0.517 c -0.039,-0.297 -0.065,-0.599 -0.065,-0.906 0,-3.866 3.134,-7 7,-7 3.866,0 7,3.134 7,7 0,0.391 -0.04,0.771 -0.102,1.145 1.753,0.207 8.58,0.684 8.652,-4.462 0,-0.001 2.412,-9.231 -20.287,-12.39 z m -8.065,1.579 -38.497,-2.328 c -3.991,-1.081 -0.832,-2.827 -0.832,-2.827 22.283,-9.478 39.329,2.245 39.329,2.245 5.404,2.994 0,2.91 0,2.91 z" fill="#FFFFFF" stroke="#000000" stroke-width="1.42635166667" /><path d="m 72.416,28.334 c -3.176,0 -5.75,2.574 -5.75,5.75 0,3.176 2.574,5.75 5.75,5.75 3.176,0 5.75,-2.574 5.75,-5.75 0,-3.176 -2.574,-5.75 -5.75,-5.75 z m 0,8.272 c -1.393,0 -2.521,-1.129 -2.521,-2.521 0,-1.394 1.129,-2.522 2.521,-2.522 1.392,0 2.522,1.129 2.522,2.522 0,1.393 -1.129,2.521 -2.522,2.521 z" fill="#FFFFFF" stroke="#000000" stroke-width="1.42635166667" /><path d="m 20.417,28.334 c -3.176,0 -5.75,2.574 -5.75,5.75 0,3.176 2.574,5.75 5.75,5.75 3.176,0 5.75,-2.574 5.75,-5.75 0,-3.176 -2.575,-5.75 -5.75,-5.75 z m 0,8.272 c -1.393,0 -2.522,-1.129 -2.522,-2.521 0,-1.394 1.129,-2.522 2.522,-2.522 1.393,0 2.522,1.129 2.522,2.522 -0.001,1.393 -1.13,2.521 -2.522,2.521 z" fill="#FFFFFF" stroke="#000000" stroke-width="1.42635166667" /></g><g id="car3"><path d="m 16.313311,19.877438 c -3.216,0 -5.823,2.605 -5.823,5.822 0,3.215 2.607,5.821 5.823,5.821 3.216,0 5.824,-2.606 5.824,-5.821 0,-3.217 -2.608,-5.822 -5.824,-5.822 z m 0,8.859 c -1.678,0 -3.039,-1.361 -3.039,-3.038 0,-1.679 1.36,-3.039 3.039,-3.039 1.678,0 3.038,1.358 3.038,3.039 0,1.677 -1.359,3.038 -3.038,3.038 z" fill="#FFFFFF" stroke="#000000" stroke-width="1.37712123333" /><path d="m 66.312311,19.877438 c -3.215,0 -5.822,2.605 -5.822,5.822 0,3.215 2.607,5.821 5.822,5.821 3.217,0 5.824,-2.606 5.824,-5.821 0,-3.217 -2.607,-5.822 -5.824,-5.822 z m 0,8.859 c -1.678,0 -3.039,-1.361 -3.039,-3.038 0,-1.679 1.361,-3.039 3.039,-3.039 1.68,0 3.039,1.358 3.039,3.039 0,1.677 -1.359,3.038 -3.039,3.038 z" fill="#FFFFFF" stroke="#000000" stroke-width="1.37712123333" /><path d="m 81.599311,16.827438 c -1,-4.37 -16.875,-7.8130001 -16.875,-7.8130001 -18.625,-9.00399998 -28.875,-8.87199998 -28.875,-8.87199998 C 22.974311,-1.1815621 2.3493112,7.1604379 2.3493112,7.1604379 L 0.84931123,17.223438 c -3.25000003,7.15 3.87499997,8.475 3.87499997,8.475 h 4.594 c -10e-4,-0.042 -0.006,-0.083 -0.006,-0.125 0,-3.935 3.1899998,-7.125 7.1249998,-7.125 3.935,0 7.125,3.19 7.125,7.125 0,0.042 -0.005,0.083 -0.006,0.125 h 35.756 c 0,-3.935 3.189,-7.125 7.125,-7.125 3.936,0 7.125,3.19 7.125,7.125 h 6.787 c 4.25,-0.397 1.25,-8.871 1.25,-8.871 z m -48.204,-6.629 h -16.5 l 3.25,-6.3140001 c 5.125,-1.665 13.25,-1.387 13.25,-1.387 z m 7.042,4.875 h -2.875 v -0.625 h 2.875 z m -4.5,-4.875 V 2.4794379 c 12.258,0.781 25.031,7.7190001 25.031,7.7190001 z" fill="#FFFFFF" stroke="#000000" stroke-width="1.37712123333" /></g><g id="car4"><path d="m 76.966,23.375 c -3.538,0 -6.409,2.865 -6.409,6.406 0,3.545 2.871,6.41 6.409,6.41 3.538,0 6.411,-2.865 6.411,-6.41 0,-3.541 -2.873,-6.406 -6.411,-6.406 z m 0,9.884 c -1.916,0 -3.472,-1.554 -3.472,-3.476 0,-1.918 1.556,-3.472 3.472,-3.472 1.916,0 3.472,1.554 3.472,3.472 0,1.922 -1.556,3.476 -3.472,3.476 z" fill="#FFFFFF" stroke="#000000" stroke-width="1.444782" /><path d="m 19.966,23.375 c -3.538,0 -6.409,2.865 -6.409,6.406 0,3.545 2.871,6.41 6.409,6.41 3.538,0 6.411,-2.865 6.411,-6.41 0,-3.541 -2.873,-6.406 -6.411,-6.406 z m 0,9.884 c -1.916,0 -3.472,-1.554 -3.472,-3.476 0,-1.918 1.556,-3.472 3.472,-3.472 1.916,0 3.472,1.554 3.472,3.472 0,1.922 -1.556,3.476 -3.472,3.476 z" fill="#FFFFFF" stroke="#000000" stroke-width="1.444782" /><path d="m 67.674,13.956 c 0,0 -12.975,-8.423 -27.673,-8.684 0,0 -9.236,-1.216 -23.023,5.558 0,0 -6.053,3.386 -12.443,3.734 0,0 -2.942,2.345 -2.775,9.03 0,0 -0.083,4.603 2.943,6.687 l 8.163,0.134 c -0.031,-0.272 -0.051,-0.548 -0.051,-0.828 0,-3.957 3.208,-7.165 7.165,-7.165 3.957,0 7.165,3.208 7.165,7.165 0,0.361 -0.035,0.713 -0.087,1.06 l 42.885,0.701 c -0.144,-0.564 -0.228,-1.152 -0.228,-1.761 0,-3.957 3.208,-7.165 7.165,-7.165 3.957,0 7.164,3.208 7.164,7.165 0,0.667 -0.098,1.309 -0.269,1.922 2.291,-0.313 4.581,-1.25 4.665,-3.745 V 24.81 c -0.001,0 0.251,-7.728 -20.766,-10.854 z m -6.727,2.257 -38.758,-0.608 c -5.212,-0.434 -2.017,-2.518 -2.017,-2.518 0,0 7.903,-5.384 19.168,-5.036 11.266,0.347 21.607,5.384 21.607,5.384 4.962,2.865 0,2.778 0,2.778 z" fill="#FFFFFF" stroke="#000000" stroke-width="1.444782" /></g><g id="car5"><path d="M 88.762,29.441 C 88.407,21.826 66.418,17.832 66.418,17.832 52.112,8.219 46.792,7.845 46.792,7.845 24.093,4.1 10.26,8.969 10.26,8.969 8.25,9.844 4.585,17.583 4.585,17.583 3.048,19.206 3.284,23.076 3.284,23.076 3.165,27.195 1.038,27.695 1.038,27.695 0.566,35.559 4.585,38.18 4.585,38.18 h 4.04 c 0.005,-4.853 3.94,-8.785 8.794,-8.785 4.854,0 8.789,3.933 8.794,8.785 h 35.321 c 0.006,-4.853 3.94,-8.785 8.795,-8.785 4.855,0 8.789,3.933 8.795,8.785 h 5.705 c 3.459,0.251 3.192,-4.463 3.192,-4.463 1.509,-0.281 0.741,-4.276 0.741,-4.276 z M 59.331,21.583 15.793,19.243 C 12.159,17.464 13.312,14 13.312,14 c 0,-6.085 23.497,-4.026 23.497,-4.026 11.438,0.187 21.636,7.209 21.636,7.209 8.334,4.962 0.886,4.4 0.886,4.4 z" fill="#FFFFFF" stroke="#000000" stroke-width="1.46596603333" /><path d="m 69.438543,24.256839 c -4.145,0 -7.504,3.36 -7.504,7.504 0,4.144 3.359,7.504001 7.504,7.504001 4.145,0 7.504,-3.360001 7.504,-7.504001 0,-4.144 -3.36,-7.504 -7.504,-7.504 z m 0,10.897 c -1.875,0 -3.395,-1.52 -3.395,-3.394 0,-1.874 1.52,-3.394 3.395,-3.394 1.875,0 3.395,1.52 3.395,3.394 0,1.874 -1.521,3.394 -3.395,3.394 z" fill="#FFFFFF" stroke="#000000" stroke-width="1.46596603333" /><path d="m 16.438543,24.256839 c -4.145,0 -7.5040004,3.36 -7.5040004,7.504 0,4.144 3.3590004,7.504001 7.5040004,7.504001 4.145,0 7.504,-3.360001 7.504,-7.504001 0,-4.144 -3.36,-7.504 -7.504,-7.504 z m 0,10.897 c -1.875,0 -3.394,-1.52 -3.394,-3.394 0,-1.874 1.52,-3.394 3.394,-3.394 1.874,0 3.394,1.52 3.394,3.394 0,1.874 -1.52,3.394 -3.394,3.394 z" fill="#FFFFFF" stroke="#000000" stroke-width="1.46596603333" /></g><g id="car6"><path d="m 15.414335,21.325 c -4.267,0 -7.7269998,3.455 -7.7269998,7.726 0,4.264 3.4579998,7.722 7.7269998,7.722 4.265,0 7.726,-3.458 7.726,-7.722 -0.002,-4.271 -3.46,-7.726 -7.726,-7.726 z m 0,11.757 c -2.228,0 -4.031,-1.805 -4.031,-4.031 0,-2.229 1.803,-4.033 4.031,-4.033 2.227,0 4.027,1.805 4.027,4.033 0,2.224 -1.801,4.031 -4.027,4.031 z" fill="#FFFFFF" stroke="#000000" stroke-width="1.42835706667" /><path d="m 12.660335,1.631 c 0,0 0.554,-1.631 1.293,-1.631 h 36.168 c 0,0 1.662,0.148 1.662,1.631 z" fill="#FFFFFF" stroke="#000000" stroke-width="1.42835706667" /><path d="m 69.121335,21.325 c -4.267,0 -7.727,3.455 -7.727,7.726 0,4.264 3.459,7.722 7.727,7.722 4.266,0 7.727,-3.458 7.727,-7.722 -0.002,-4.271 -3.46,-7.726 -7.727,-7.726 z m 0,11.757 c -2.228,0 -4.03,-1.805 -4.03,-4.031 0,-2.229 1.803,-4.033 4.03,-4.033 2.227,0 4.027,1.805 4.027,4.033 0,2.224 -1.8,4.031 -4.027,4.031 z" fill="#FFFFFF" stroke="#000000" stroke-width="1.42835706667" /><path d="M 147.062,6.75 V 17.375 Z" fill="#FFFFFF" stroke="#000000" stroke-width="1.42835706667" /><path d="m 85.044335,29.221 c 0.595,-1.037 0.549,-5.93 0.549,-5.93 -0.091,-1.531 -1.271,-2.421 -1.271,-2.421 -1.345,-8.434 -15.882,-8.961 -15.882,-8.961 -2.441,0 -7.207,-1.582 -7.207,-1.582 -2.688,-3.295 -9.406,-8.039 -9.406,-8.039 h -39.338 c -1.955,0 -5.7419998,8.302 -5.7419998,8.302 h -0.855 c -3.421,0.527 -3.42,9.488 -3.42,9.488 -4.398,1.845 -1.58800005,9.488 -1.58800005,9.488 0.043,0.988 0.97900005,1.631 0.97900005,1.631 h 5.077 c -0.185,-0.708 -0.293,-1.447 -0.293,-2.213 0,-4.832 3.9169998,-8.748 8.7479998,-8.748 4.831,0 8.748,3.916 8.748,8.748 0,0.766 -0.108,1.505 -0.293,2.213 h 36.826 c -0.186,-0.708 -0.294,-1.447 -0.294,-2.213 0,-4.832 3.917,-8.748 8.748,-8.748 4.831,0 8.746,3.918 8.746,8.75 0,0.766 -0.108,1.505 -0.294,2.213 h 7.827 c 0.064,-0.042 0.116,-0.091 0.157,-0.141 0.493,-0.615 -0.522,-1.837 -0.522,-1.837 z m -50.168,-17.595 V 4.605 h 16.233 c 0,0 5.622,4.857 7.017,7.021 z" fill="#FFFFFF" stroke="#000000" stroke-width="1.42835706667" /></g><g id="car7"><path d="M 88.396,19.088 C 85.453,12.486 64.378,10.499 64.378,10.499 L 51.334,4.851 C 44.017,1.113 25.406,3.101 25.406,3.101 8.863,4.215 2.978,11.054 2.978,11.054 1.705,12.009 2.183,16.781 2.183,16.781 -1,21.712 7.511,27.598 7.511,27.598 h 3.936 c -0.042,-0.328 -0.072,-0.66 -0.072,-1 0,-4.277 3.467,-7.744 7.744,-7.744 4.277,0 7.744,3.467 7.744,7.744 0,0.34 -0.029,0.672 -0.072,1 h 38.543 c -0.042,-0.328 -0.071,-0.66 -0.071,-1 0,-4.277 3.466,-7.744 7.743,-7.744 4.277,0 7.744,3.467 7.744,7.744 0,0.34 -0.029,0.672 -0.071,1 h 5.333 c 0.953,-0.158 1.512,-4.771 1.512,-4.771 1.509,-1.751 0.872,-3.739 0.872,-3.739 z m -73.25,-7.397 c -2.545,-0.159 0,-1.671 0,-1.671 2.04,-1.371 4.562,-2.349 7.252,-3.042 l 1.547,5.404 C 18.782,11.999 15.146,11.691 15.146,11.691 Z M 25.439,12.493 23.768,6.655 C 32.958,4.643 43.46,5.646 43.46,5.646 51.176,6.124 58.254,13.44 58.254,13.44 55.811,14.503 37.397,13.366 25.439,12.493 Z" fill="#FFFFFF" stroke="#000000" stroke-width="1.45098571667" /><path d="m 73.141,19.649 c -3.812,0 -6.904,3.088 -6.904,6.9 0,3.82 3.093,6.908 6.904,6.908 3.811,0 6.904,-3.088 6.904,-6.908 0,-3.812 -3.094,-6.9 -6.904,-6.9 z m 0,10.649 c -2.062,0 -3.74,-1.676 -3.74,-3.743 0,-2.067 1.678,-3.74 3.74,-3.74 2.063,0 3.74,1.673 3.74,3.74 0,2.067 -1.677,3.743 -3.74,3.743 z" fill="#FFFFFF" stroke="#000000" stroke-width="1.45098571667" /><path d="m 19.141,19.649 c -3.812,0 -6.904,3.088 -6.904,6.9 0,3.82 3.092,6.908 6.904,6.908 3.811,0 6.904,-3.088 6.904,-6.908 0,-3.812 -3.093,-6.9 -6.904,-6.9 z m 0,10.649 c -2.063,0 -3.74,-1.676 -3.74,-3.743 0,-2.067 1.677,-3.74 3.74,-3.74 2.063,0 3.74,1.673 3.74,3.74 0,2.067 -1.677,3.743 -3.74,3.743 z" fill="#FFFFFF" stroke="#000000" stroke-width="1.45098571667" /></g><g id="car8"><path d="m 60.222719,30.170648 c 0,3.598 2.916,6.515 6.512,6.515 3.6,0 6.516,-2.917 6.516,-6.515 0,-3.597 -2.916,-6.509 -6.516,-6.509 -3.596,0 -6.512,2.912 -6.512,6.509 z m 3.117,0.005 c 0,-1.877 1.518,-3.4 3.395,-3.4 1.877,0 3.398,1.521 3.398,3.4 0,1.874 -1.52,3.397 -3.398,3.397 -1.878,10e-4 -3.395,-1.525 -3.395,-3.397 z" fill="#FFFFFF" stroke="#000000" stroke-width="1.35395151667" /><path d="m 7.1477188,30.170648 c 0,3.598 2.9160002,6.515 6.5130002,6.515 3.599,0 6.515,-2.917 6.515,-6.515 0,-3.597 -2.916,-6.509 -6.515,-6.509 -3.597,0 -6.5130002,2.912 -6.5130002,6.509 z m 3.1170002,0.005 c 0,-1.877 1.519,-3.4 3.396,-3.4 1.876,0 3.397,1.521 3.397,3.4 0,1.874 -1.519,3.397 -3.397,3.397 -1.877,10e-4 -3.396,-1.525 -3.396,-3.397 z" fill="#FFFFFF" stroke="#000000" stroke-width="1.35395151667" /><path d="M 0.69971877,30.877648 H 5.7847188 c -0.036,-0.302 -0.092,-0.598 -0.092,-0.906 0,-4.333 3.509,-7.843 7.8410002,-7.843 4.331,0 7.839,3.51 7.839,7.843 0,0.309 -0.056,0.604 -0.092,0.906 h 37.763 c -0.035,-0.302 -0.092,-0.598 -0.092,-0.906 0,-4.333 3.51,-7.843 7.84,-7.843 4.332,0 7.842,3.51 7.842,7.843 0,0.309 -0.057,0.604 -0.092,0.906 h 6.577 c 0,0 2.037,-16.439 -10.789,-18.375 h -7.533 c 0,0 -8.346,-10.8820003 -23.412,-12.09000033 0,0 -33.3900002,-3.86899997 -37.6660002,12.08700033 0,0 -3.055,8.949 -1.01900003,18.378 z M 35.713719,4.1406477 h 4.905 c 6.953,0.341 17.395,8.8740003 17.395,8.8740003 h -22.3 z" fill="#FFFFFF" stroke="#000000" stroke-width="1.35395151667" /></g><g id="car9"><path d="m 61.937222,27.728956 c 0,3.924 3.182,7.106 7.107,7.106 3.928,0 7.109,-3.183 7.109,-7.106 0,-3.93 -3.182,-7.108 -7.109,-7.108 -3.925,0 -7.107,3.178 -7.107,7.108 z m 3.4,0 c 0,-2.05 1.657,-3.71 3.707,-3.71 2.049,0 3.709,1.66 3.709,3.71 0,2.049 -1.66,3.71 -3.709,3.71 -2.049,0 -3.707,-1.663 -3.707,-3.71 z" fill="#FFFFFF" stroke="#000000" stroke-width="1.36944593333" /><path d="m 9.6702223,27.916956 c 0,3.924 3.1819997,7.106 7.1069997,7.106 3.928,0 7.11,-3.183 7.11,-7.106 0,-3.93 -3.183,-7.108 -7.11,-7.108 -3.925,-10e-4 -7.1069997,3.178 -7.1069997,7.108 z m 3.4009997,0 c 0,-2.05 1.657,-3.71 3.707,-3.71 2.049,0 3.71,1.66 3.71,3.71 0,2.049 -1.661,3.71 -3.71,3.71 -2.05,0 -3.707,-1.664 -3.707,-3.71 z" fill="#FFFFFF" stroke="#000000" stroke-width="1.36944593333" /><path d="m 2.2732223,25.939956 c 0,0 1.499,2.417 3.083,2.583 h 3.2 c -0.04,-0.331 -0.067,-0.666 -0.067,-1.008 0,-4.557 3.6939997,-8.25 8.2499997,-8.25 4.556,0 8.25,3.693 8.25,8.25 0,0.342 -0.027,0.677 -0.067,1.008 h 35.941 c -0.04,-0.331 -0.067,-0.666 -0.067,-1.008 0,-4.557 3.694,-8.25 8.25,-8.25 4.556,0 8.25,3.693 8.25,8.25 0,0.342 -0.027,0.677 -0.067,1.008 h 0.379 c 0,0 2.168,-0.083 2.25,-2.333 0,0 2.25,0.249 2.25,-1.167 0,0 0.499,-1.666 -1.417,-1.833 0,0 0.583,-5.251 -2.333,-8.167 0,0 -2.917,-3.916 -16.75,-4.5 0,0 -6.918,-8.5000001 -8.084,-9.0830001 0,0 -1.666,-1.25 -3.166,-1.417 h -23.25 c 0,0 -5.834,-0.5 -9.667,3.167 0,0 -6.249,5.89 -7.5829997,8.7780001 0,0 -6.667,4.722 -7.667,10.722 0,0 -2.001,0.582 -2.167,1.666 -10e-4,0 -0.418,1.418 2.249,1.584 z m 33.6669997,-9.792 c 0,-0.299 0.242,-0.541 0.542,-0.541 h 2.5 c 0.299,0 0.541,0.242 0.541,0.541 0,0.3 -0.242,0.542 -0.541,0.542 h -2.5 c -0.3,0 -0.542,-0.242 -0.542,-0.542 z m -1.667,-11.3130001 c 0.125,-2.625 2.938,-2.062 2.938,-2.062 l 10.75,-0.051 c 1.688,0 3.25,1.801 3.25,1.801 l 3.125,3.938 c 2.438,3.0620001 -1.125,2.8120001 -1.125,2.8120001 h -16.563 c -1.75,0 -2.375,-1.4380001 -2.375,-1.4380001 z m -16.125,4.126 c 3.688,-7.188 12.375,-6.238 12.375,-6.238 1.188,0.074 1.375,1.113 1.375,1.113 v 5.938 c -0.125,1.7500001 -1.375,1.5050001 -1.375,1.5050001 h -10.313 c -3.187,-0.496 -2.062,-2.3180001 -2.062,-2.3180001 z" fill="#FFFFFF" stroke="#000000" stroke-width="1.36944593333" /></g></defs><g id="cars"><g transform="translate(36.0, 144.0) scale(0.714142758209)"><use xlink:href="#car0" /></g><g transform="translate(96.0, 144.0) scale(0.694153952263)"><use xlink:href="#car1" /></g><g transform="translate(156.0, 144.0) scale(0.701089376042)"><use xlink:href="#car2" /></g><g transform="translate(216.0, 144.0) scale(0.726152480838)"><use xlink:href="#car3" /></g><g transform="translate(276.0, 144.0) scale(0.692145943125)"><use xlink:href="#car4" /></g><g transform="translate(336.0, 144.0) scale(0.682144045129)"><use xlink:href="#car5" /></g><g transform="translate(396.0, 144.0) scale(0.700105053097)"><use xlink:href="#car6" /></g><g transform="translate(456.0, 144.0) scale(0.689186660154)"><use xlink:href="#car7" /></g><g transform="translate(516.0, 144.0) scale(0.738578883875)"><use xlink:href="#car8" /></g><g transform="translate(36.0, 150.580645161) scale(0.730222329819)"><use xlink:href="#car9" /></g><g transform="translate(96.0, 150.580645161) scale(0.714142758209)"><use xlink:href="#car0" /></g><g transform="translate(156.0, 150.580645161) scale(0.694153952263)"><use xlink:href="#car1" /></g><g transform="translate(216.0, 150.580645161) scale(0.701089376042)"><use xlink:href="#car2" /></g><g transform="translate(276.0, 150.580645161) scale(0.726152480838)"><use xlink:href="#car3" /></g><g transform="translate(336.0, 150.580645161) scale(0.692145943125)"><use xlink:href="#car4" /></g><g transform="translate(396.0, 150.580645161) scale(0.682144045129)"><use xlink:href="#car5" /></g><g transform="translate(456.0, 150.580645161) scale(0.700105053097)"><use xlink:href="#car6" /></g><g transform="translate(516.0, 150.580645161) scale(0.689186660154)"><use xlink:href="#car7" /></g><g transform="translate(36.0, 157.161290323) scale(0.738578883875)"><use xlink:href="#car8" /></g><g transform="translate(96.0, 157.161290323) scale(0.730222329819)"><use xlink:href="#car9" /></g><g transform="translate(156.0, 157.161290323) scale(0.714142758209)"><use xlink:href="#car0" /></g><g transform="translate(216.0, 157.161290323) scale(0.694153952263)"><use xlink:href="#car1" /></g><g transform="translate(276.0, 157.161290323) scale(0.701089376042)"><use xlink:href="#car2" /></g><g transform="translate(336.0, 157.161290323) scale(0.726152480838)"><use xlink:href="#car3" /></g><g transform="translate(396.0, 157.161290323) scale(0.692145943125)"><use xlink:href="#car4" /></g><g transform="translate(456.0, 157.161290323) scale(0.682144045129)"><use xlink:href="#car5" /></g><g transform="translate(516.0, 157.161290323) scale(0.700105053097)"><use xlink:href="#car6" /></g><g transform="translate(36.0, 163.741935484) scale(0.689186660154)"><use xlink:href="#car7" /></g><g transform="translate(96.0, 163.741935484) scale(0.738578883875)"><use xlink:href="#car8" /></g><g transform="translate(156.0, 163.741935484) scale(0.730222329819)"><use xlink:href="#car9" /></g><g transform="translate(216.0, 163.741935484) scale(0.714142758209)"><use xlink:href="#car0" /></g><g transform="translate(276.0, 163.741935484) scale(0.694153952263)"><use xlink:href="#car1" /></g><g transform="translate(336.0, 163.741935484) scale(0.701089376042)"><use xlink:href="#car2" /></g><g transform="translate(396.0, 163.741935484) scale(0.726152480838)"><use xlink:href="#car3" /></g><g transform="translate(456.0, 163.741935484) scale(0.692145943125)"><use xlink:href="#car4" /></g><g transform="translate(516.0, 163.741935484) scale(0.682144045129)"><use xlink:href="#car5" /></g><g transform="translate(36.0, 170.322580645) scale(0.700105053097)"><use xlink:href="#car6" /></g><g transform="translate(96.0, 170.322580645) scale(0.689186660154)"><use xlink:href="#car7" /></g><g transform="translate(156.0, 170.322580645) scale(0.738578883875)"><use xlink:href="#car8" /></g><g transform="translate(216.0, 170.322580645) scale(0.730222329819)"><use xlink:href="#car9" /></g><g transform="translate(276.0, 170.322580645) scale(0.714142758209)"><use xlink:href="#car0" /></g><g transform="translate(336.0, 170.322580645) scale(0.694153952263)"><use xlink:href="#car1" /></g><g transform="translate(396.0, 170.322580645) scale(0.701089376042)"><use xlink:href="#car2" /></g><g transform="translate(456.0, 170.322580645) scale(0.726152480838)"><use xlink:href="#car3" /></g><g transform="translate(516.0, 170.322580645) scale(0.692145943125)"><use xlink:href="#car4" /></g><g transform="translate(36.0, 176.903225806) scale(0.682144045129)"><use xlink:href="#car5" /></g><g transform="translate(96.0, 176.903225806) scale(0.700105053097)"><use xlink:href="#car6" /></g><g transform="translate(156.0, 176.903225806) scale(0.689186660154)"><use xlink:href="#car7" /></g><g transform="translate(216.0, 176.903225806) scale(0.738578883875)"><use xlink:href="#car8" /></g><g transform="translate(276.0, 176.903225806) scale(0.730222329819)"><use xlink:href="#car9" /></g><g transform="translate(336.0, 176.903225806) scale(0.714142758209)"><use xlink:href="#car0" /></g><g transform="translate(396.0, 176.903225806) scale(0.694153952263)"><use xlink:href="#car1" /></g><g transform="translate(456.0, 176.903225806) scale(0.701089376042)"><use xlink:href="#car2" /></g><g transform="translate(516.0, 176.903225806) scale(0.726152480838)"><use xlink:href="#car3" /></g><g transform="translate(36.0, 183.483870968) scale(0.692145943125)"><use xlink:href="#car4" /></g><g transform="translate(96.0, 183.483870968) scale(0.682144045129)"><use xlink:href="#car5" /></g><g transform="translate(156.0, 183.483870968) scale(0.700105053097)"><use xlink:href="#car6" /></g><g transform="translate(216.0, 183.483870968) scale(0.689186660154)"><use xlink:href="#car7" /></g><g transform="translate(276.0, 183.483870968) scale(0.738578883875)"><use xlink:href="#car8" /></g><g transform="translate(336.0, 183.483870968) scale(0.730222329819)"><use xlink:href="#car9" /></g><g transform="translate(396.0, 183.483870968) scale(0.714142758209)"><use xlink:href="#car0" /></g><g transform="translate(456.0, 183.483870968) scale(0.694153952263)"><use xlink:href="#car1" /></g><g transform="translate(516.0, 183.483870968) scale(0.701089376042)"><use xlink:href="#car2" /></g><g transform="translate(36.0, 190.064516129) scale(0.726152480838)"><use xlink:href="#car3" /></g><g transform="translate(96.0, 190.064516129) scale(0.692145943125)"><use xlink:href="#car4" /></g><g transform="translate(156.0, 190.064516129) scale(0.682144045129)"><use xlink:href="#car5" /></g><g transform="translate(216.0, 190.064516129) scale(0.700105053097)"><use xlink:href="#car6" /></g><g transform="translate(276.0, 190.064516129) scale(0.689186660154)"><use xlink:href="#car7" /></g><g transform="translate(336.0, 190.064516129) scale(0.738578883875)"><use xlink:href="#car8" /></g><g transform="translate(396.0, 190.064516129) scale(0.730222329819)"><use xlink:href="#car9" /></g><g transform="translate(456.0, 190.064516129) scale(0.714142758209)"><use xlink:href="#car0" /></g><g transform="translate(516.0, 190.064516129) scale(0.694153952263)"><use xlink:href="#car1" /></g><g transform="translate(36.0, 196.64516129) scale(0.701089376042)"><use xlink:href="#car2" /></g><g transform="translate(96.0, 196.64516129) scale(0.726152480838)"><use xlink:href="#car3" /></g><g transform="translate(156.0, 196.64516129) scale(0.692145943125)"><use xlink:href="#car4" /></g><g transform="translate(216.0, 196.64516129) scale(0.682144045129)"><use xlink:href="#car5" /></g><g transform="translate(276.0, 196.64516129) scale(0.700105053097)"><use xlink:href="#car6" /></g><g transform="translate(336.0, 196.64516129) scale(0.689186660154)"><use xlink:href="#car7" /></g><g transform="translate(396.0, 196.64516129) scale(0.738578883875)"><use xlink:href="#car8" /></g><g transform="translate(456.0, 196.64516129) scale(0.730222329819)"><use xlink:href="#car9" /></g><g transform="translate(516.0, 196.64516129) scale(0.714142758209)"><use xlink:href="#car0" /></g><g transform="translate(36.0, 203.225806452) scale(0.694153952263)"><use xlink:href="#car1" /></g><g transform="translate(96.0, 203.225806452) scale(0.701089376042)"><use xlink:href="#car2" /></g><g transform="translate(156.0, 203.225806452) scale(0.726152480838)"><use xlink:href="#car3" /></g><g transform="translate(216.0, 203.225806452) scale(0.692145943125)"><use xlink:href="#car4" /></g><g transform="translate(276.0, 203.225806452) scale(0.682144045129)"><use xlink:href="#car5" /></g><g transform="translate(336.0, 203.225806452) scale(0.700105053097)"><use xlink:href="#car6" /></g><g transform="translate(396.0, 203.225806452) scale(0.689186660154)"><use xlink:href="#car7" /></g><g transform="translate(456.0, 203.225806452) scale(0.738578883875)"><use xlink:href="#car8" /></g><g transform="translate(516.0, 203.225806452) scale(0.730222329819)"><use xlink:href="#car9" /></g><g transform="translate(36.0, 209.806451613) scale(0.714142758209)"><use xlink:href="#car0" /></g><g transform="translate(96.0, 209.806451613) scale(0.694153952263)"><use xlink:href="#car1" /></g><g transform="translate(156.0, 209.806451613) scale(0.701089376042)"><use xlink:href="#car2" /></g><g transform="translate(216.0, 209.806451613) scale(0.726152480838)"><use xlink:href="#car3" /></g><g transform="translate(276.0, 209.806451613) scale(0.692145943125)"><use xlink:href="#car4" /></g><g transform="translate(336.0, 209.806451613) scale(0.682144045129)"><use xlink:href="#car5" /></g><g transform="translate(396.0, 209.806451613) scale(0.700105053097)"><use xlink:href="#car6" /></g><g transform="translate(456.0, 209.806451613) scale(0.689186660154)"><use xlink:href="#car7" /></g><g transform="translate(516.0, 209.806451613) scale(0.738578883875)"><use xlink:href="#car8" /></g><g transform="translate(36.0, 216.387096774) scale(0.730222329819)"><use xlink:href="#car9" /></g><g transform="translate(96.0, 216.387096774) scale(0.714142758209)"><use xlink:href="#car0" /></g><g transform="translate(156.0, 216.387096774) scale(0.694153952263)"><use xlink:href="#car1" /></g><g transform="translate(216.0, 216.387096774) scale(0.701089376042)"><use xlink:href="#car2" /></g><g transform="translate(276.0, 216.387096774) scale(0.726152480838)"><use xlink:href="#car3" /></g><g transform="translate(336.0, 216.387096774) scale(0.692145943125)"><use xlink:href="#car4" /></g><g transform="translate(396.0, 216.387096774) scale(0.682144045129)"><use xlink:href="#car5" /></g><g transform="translate(456.0, 216.387096774) scale(0.700105053097)"><use xlink:href="#car6" /></g><g transform="translate(516.0, 216.387096774) scale(0.689186660154)"><use xlink:href="#car7" /></g><g transform="translate(36.0, 222.967741935) scale(0.738578883875)"><use xlink:href="#car8" /></g><g transform="translate(96.0, 222.967741935) scale(0.730222329819)"><use xlink:href="#car9" /></g><g transform="translate(156.0, 222.967741935) scale(0.714142758209)"><use xlink:href="#car0" /></g><g transform="translate(216.0, 222.967741935) scale(0.694153952263)"><use xlink:href="#car1" /></g><g transform="translate(276.0, 222.967741935) scale(0.701089376042)"><use xlink:href="#car2" /></g><g transform="translate(336.0, 222.967741935) scale(0.726152480838)"><use xlink:href="#car3" /></g><g transform="translate(396.0, 222.967741935) scale(0.692145943125)"><use xlink:href="#car4" /></g><g transform="translate(456.0, 222.967741935) scale(0.682144045129)"><use xlink:href="#car5" /></g><g transform="translate(516.0, 222.967741935) scale(0.700105053097)"><use xlink:href="#car6" /></g><g transform="translate(36.0, 229.548387097) scale(0.689186660154)"><use xlink:href="#car7" /></g><g transform="translate(96.0, 229.548387097) scale(0.738578883875)"><use xlink:href="#car8" /></g><g transform="translate(156.0, 229.548387097) scale(0.730222329819)"><use xlink:href="#car9" /></g><g transform="translate(216.0, 229.548387097) scale(0.714142758209)"><use xlink:href="#car0" /></g><g transform="translate(276.0, 229.548387097) scale(0.694153952263)"><use xlink:href="#car1" /></g><g transform="translate(336.0, 229.548387097) scale(0.701089376042)"><use xlink:href="#car2" /></g><g transform="translate(396.0, 229.548387097) scale(0.726152480838)"><use xlink:href="#car3" /></g><g transform="translate(456.0, 229.548387097) scale(0.692145943125)"><use xlink:href="#car4" /></g><g transform="translate(516.0, 229.548387097) scale(0.682144045129)"><use xlink:href="#car5" /></g><g transform="translate(36.0, 236.129032258) scale(0.700105053097)"><use xlink:href="#car6" /></g><g transform="translate(96.0, 236.129032258) scale(0.689186660154)"><use xlink:href="#car7" /></g><g transform="translate(156.0, 236.129032258) scale(0.738578883875)"><use xlink:href="#car8" /></g><g transform="translate(216.0, 236.129032258) scale(0.730222329819)"><use xlink:href="#car9" /></g><g transform="translate(276.0, 236.129032258) scale(0.714142758209)"><use xlink:href="#car0" /></g><g transform="translate(336.0, 236.129032258) scale(0.694153952263)"><use xlink:href="#car1" /></g><g transform="translate(396.0, 236.129032258) scale(0.701089376042)"><use xlink:href="#car2" /></g><g transform="translate(456.0, 236.129032258) scale(0.726152480838)"><use xlink:href="#car3" /></g><g transform="translate(516.0, 236.129032258) scale(0.692145943125)"><use xlink:href="#car4" /></g><g transform="translate(36.0, 242.709677419) scale(0.682144045129)"><use xlink:href="#car5" /></g><g transform="translate(96.0, 242.709677419) scale(0.700105053097)"><use xlink:href="#car6" /></g><g transform="translate(156.0, 242.709677419) scale(0.689186660154)"><use xlink:href="#car7" /></g><g transform="translate(216.0, 242.709677419) scale(0.738578883875)"><use xlink:href="#car8" /></g><g transform="translate(276.0, 242.709677419) scale(0.730222329819)"><use xlink:href="#car9" /></g><g transform="translate(336.0, 242.709677419) scale(0.714142758209)"><use xlink:href="#car0" /></g><g transform="translate(396.0, 242.709677419) scale(0.694153952263)"><use xlink:href="#car1" /></g><g transform="translate(456.0, 242.709677419) scale(0.701089376042)"><use xlink:href="#car2" /></g><g transform="translate(516.0, 242.709677419) scale(0.726152480838)"><use xlink:href="#car3" /></g><g transform="translate(36.0, 249.290322581) scale(0.692145943125)"><use xlink:href="#car4" /></g><g transform="translate(96.0, 249.290322581) scale(0.682144045129)"><use xlink:href="#car5" /></g><g transform="translate(156.0, 249.290322581) scale(0.700105053097)"><use xlink:href="#car6" /></g><g transform="translate(216.0, 249.290322581) scale(0.689186660154)"><use xlink:href="#car7" /></g><g transform="translate(276.0, 249.290322581) scale(0.738578883875)"><use xlink:href="#car8" /></g><g transform="translate(336.0, 249.290322581) scale(0.730222329819)"><use xlink:href="#car9" /></g><g transform="translate(396.0, 249.290322581) scale(0.714142758209)"><use xlink:href="#car0" /></g><g transform="translate(456.0, 249.290322581) scale(0.694153952263)"><use xlink:href="#car1" /></g><g transform="translate(516.0, 249.290322581) scale(0.701089376042)"><use xlink:href="#car2" /></g><g transform="translate(36.0, 255.870967742) scale(0.726152480838)"><use xlink:href="#car3" /></g><g transform="translate(96.0, 255.870967742) scale(0.692145943125)"><use xlink:href="#car4" /></g><g transform="translate(156.0, 255.870967742) scale(0.682144045129)"><use xlink:href="#car5" /></g><g transform="translate(216.0, 255.870967742) scale(0.700105053097)"><use xlink:href="#car6" /></g><g transform="translate(276.0, 255.870967742) scale(0.689186660154)"><use xlink:href="#car7" /></g><g transform="translate(336.0, 255.870967742) scale(0.738578883875)"><use xlink:href="#car8" /></g><g transform="translate(396.0, 255.870967742) scale(0.730222329819)"><use xlink:href="#car9" /></g><g transform="translate(456.0, 255.870967742) scale(0.714142758209)"><use xlink:href="#car0" /></g><g transform="translate(516.0, 255.870967742) scale(0.694153952263)"><use xlink:href="#car1" /></g><g transform="translate(36.0, 262.451612903) scale(0.701089376042)"><use xlink:href="#car2" /></g><g transform="translate(96.0, 262.451612903) scale(0.726152480838)"><use xlink:href="#car3" /></g><g transform="translate(156.0, 262.451612903) scale(0.692145943125)"><use xlink:href="#car4" /></g><g transform="translate(216.0, 262.451612903) scale(0.682144045129)"><use xlink:href="#car5" /></g><g transform="translate(276.0, 262.451612903) scale(0.700105053097)"><use xlink:href="#car6" /></g><g transform="translate(336.0, 262.451612903) scale(0.689186660154)"><use xlink:href="#car7" /></g><g transform="translate(396.0, 262.451612903) scale(0.738578883875)"><use xlink:href="#car8" /></g><g transform="translate(456.0, 262.451612903) scale(0.730222329819)"><use xlink:href="#car9" /></g><g transform="translate(516.0, 262.451612903) scale(0.714142758209)"><use xlink:href="#car0" /></g><g transform="translate(36.0, 269.032258065) scale(0.694153952263)"><use xlink:href="#car1" /></g><g transform="translate(96.0, 269.032258065) scale(0.701089376042)"><use xlink:href="#car2" /></g><g transform="translate(156.0, 269.032258065) scale(0.726152480838)"><use xlink:href="#car3" /></g><g transform="translate(216.0, 269.032258065) scale(0.692145943125)"><use xlink:href="#car4" /></g><g transform="translate(276.0, 269.032258065) scale(0.682144045129)"><use xlink:href="#car5" /></g><g transform="translate(336.0, 269.032258065) scale(0.700105053097)"><use xlink:href="#car6" /></g><g transform="translate(396.0, 269.032258065) scale(0.689186660154)"><use xlink:href="#car7" /></g><g transform="translate(456.0, 269.032258065) scale(0.738578883875)"><use xlink:href="#car8" /></g><g transform="translate(516.0, 269.032258065) scale(0.730222329819)"><use xlink:href="#car9" /></g><g transform="translate(36.0, 275.612903226) scale(0.714142758209)"><use xlink:href="#car0" /></g><g transform="translate(96.0, 275.612903226) scale(0.694153952263)"><use xlink:href="#car1" /></g><g transform="translate(156.0, 275.612903226) scale(0.701089376042)"><use xlink:href="#car2" /></g><g transform="translate(216.0, 275.612903226) scale(0.726152480838)"><use xlink:href="#car3" /></g><g transform="translate(276.0, 275.612903226) scale(0.692145943125)"><use xlink:href="#car4" /></g><g transform="translate(336.0, 275.612903226) scale(0.682144045129)"><use xlink:href="#car5" /></g><g transform="translate(396.0, 275.612903226) scale(0.700105053097)"><use xlink:href="#car6" /></g><g transform="translate(456.0, 275.612903226) scale(0.689186660154)"><use xlink:href="#car7" /></g><g transform="translate(516.0, 275.612903226) scale(0.738578883875)"><use xlink:href="#car8" /></g><g transform="translate(36.0, 282.193548387) scale(0.730222329819)"><use xlink:href="#car9" /></g><g transform="translate(96.0, 282.193548387) scale(0.714142758209)"><use xlink:href="#car0" /></g><g transform="translate(156.0, 282.193548387) scale(0.694153952263)"><use xlink:href="#car1" /></g><g transform="translate(216.0, 282.193548387) scale(0.701089376042)"><use xlink:href="#car2" /></g><g transform="translate(276.0, 282.193548387) scale(0.726152480838)"><use xlink:href="#car3" /></g><g transform="translate(336.0, 282.193548387) scale(0.692145943125)"><use xlink:href="#car4" /></g><g transform="translate(396.0, 282.193548387) scale(0.682144045129)"><use xlink:href="#car5" /></g><g transform="translate(456.0, 282.193548387) scale(0.700105053097)"><use xlink:href="#car6" /></g><g transform="translate(516.0, 282.193548387) scale(0.689186660154)"><use xlink:href="#car7" /></g><g transform="translate(36.0, 288.774193548) scale(0.738578883875)"><use xlink:href="#car8" /></g><g transform="translate(96.0, 288.774193548) scale(0.730222329819)"><use xlink:href="#car9" /></g><g transform="translate(156.0, 288.774193548) scale(0.714142758209)"><use xlink:href="#car0" /></g><g transform="translate(216.0, 288.774193548) scale(0.694153952263)"><use xlink:href="#car1" /></g><g transform="translate(276.0, 288.774193548) scale(0.701089376042)"><use xlink:href="#car2" /></g><g transform="translate(336.0, 288.774193548) scale(0.726152480838)"><use xlink:href="#car3" /></g><g transform="translate(396.0, 288.774193548) scale(0.692145943125)"><use xlink:href="#car4" /></g><g transform="translate(456.0, 288.774193548) scale(0.682144045129)"><use xlink:href="#car5" /></g><g transform="translate(516.0, 288.774193548) scale(0.700105053097)"><use xlink:href="#car6" /></g><g transform="translate(36.0, 295.35483871) scale(0.689186660154)"><use xlink:href="#car7" /></g><g transform="translate(96.0, 295.35483871) scale(0.738578883875)"><use xlink:href="#car8" /></g><g transform="translate(156.0, 295.35483871) scale(0.730222329819)"><use xlink:href="#car9" /></g><g transform="translate(216.0, 295.35483871) scale(0.714142758209)"><use xlink:href="#car0" /></g><g transform="translate(276.0, 295.35483871) scale(0.694153952263)"><use xlink:href="#car1" /></g><g transform="translate(336.0, 295.35483871) scale(0.701089376042)"><use xlink:href="#car2" /></g><g transform="translate(396.0, 295.35483871) scale(0.726152480838)"><use xlink:href="#car3" /></g><g transform="translate(456.0, 295.35483871) scale(0.692145943125)"><use xlink:href="#car4" /></g><g transform="translate(516.0, 295.35483871) scale(0.682144045129)"><use xlink:href="#car5" /></g><g transform="translate(36.0, 301.935483871) scale(0.700105053097)"><use xlink:href="#car6" /></g><g transform="translate(96.0, 301.935483871) scale(0.689186660154)"><use xlink:href="#car7" /></g><g transform="translate(156.0, 301.935483871) scale(0.738578883875)"><use xlink:href="#car8" /></g><g transform="translate(216.0, 301.935483871) scale(0.730222329819)"><use xlink:href="#car9" /></g><g transform="translate(276.0, 301.935483871) scale(0.714142758209)"><use xlink:href="#car0" /></g><g transform="translate(336.0, 301.935483871) scale(0.694153952263)"><use xlink:href="#car1" /></g><g transform="translate(396.0, 301.935483871) scale(0.701089376042)"><use xlink:href="#car2" /></g><g transform="translate(456.0, 301.935483871) scale(0.726152480838)"><use xlink:href="#car3" /></g><g transform="translate(516.0, 301.935483871) scale(0.692145943125)"><use xlink:href="#car4" /></g><g transform="translate(36.0, 308.516129032) scale(0.682144045129)"><use xlink:href="#car5" /></g><g transform="translate(96.0, 308.516129032) scale(0.700105053097)"><use xlink:href="#car6" /></g><g transform="translate(156.0, 308.516129032) scale(0.689186660154)"><use xlink:href="#car7" /></g><g transform="translate(216.0, 308.516129032) scale(0.738578883875)"><use xlink:href="#car8" /></g><g transform="translate(276.0, 308.516129032) scale(0.730222329819)"><use xlink:href="#car9" /></g><g transform="translate(336.0, 308.516129032) scale(0.714142758209)"><use xlink:href="#car0" /></g><g transform="translate(396.0, 308.516129032) scale(0.694153952263)"><use xlink:href="#car1" /></g><g transform="translate(456.0, 308.516129032) scale(0.701089376042)"><use xlink:href="#car2" /></g><g transform="translate(516.0, 308.516129032) scale(0.726152480838)"><use xlink:href="#car3" /></g><g transform="translate(36.0, 315.096774194) scale(0.692145943125)"><use xlink:href="#car4" /></g><g transform="translate(96.0, 315.096774194) scale(0.682144045129)"><use xlink:href="#car5" /></g><g transform="translate(156.0, 315.096774194) scale(0.700105053097)"><use xlink:href="#car6" /></g><g transform="translate(216.0, 315.096774194) scale(0.689186660154)"><use xlink:href="#car7" /></g><g transform="translate(276.0, 315.096774194) scale(0.738578883875)"><use xlink:href="#car8" /></g><g transform="translate(336.0, 315.096774194) scale(0.730222329819)"><use xlink:href="#car9" /></g><g transform="translate(396.0, 315.096774194) scale(0.714142758209)"><use xlink:href="#car0" /></g><g transform="translate(456.0, 315.096774194) scale(0.694153952263)"><use xlink:href="#car1" /></g><g transform="translate(516.0, 315.096774194) scale(0.701089376042)"><use xlink:href="#car2" /></g><g transform="translate(36.0, 321.677419355) scale(0.726152480838)"><use xlink:href="#car3" /></g><g transform="translate(96.0, 321.677419355) scale(0.692145943125)"><use xlink:href="#car4" /></g><g transform="translate(156.0, 321.677419355) scale(0.682144045129)"><use xlink:href="#car5" /></g><g transform="translate(216.0, 321.677419355) scale(0.700105053097)"><use xlink:href="#car6" /></g><g transform="translate(276.0, 321.677419355) scale(0.689186660154)"><use xlink:href="#car7" /></g><g transform="translate(336.0, 321.677419355) scale(0.738578883875)"><use xlink:href="#car8" /></g><g transform="translate(396.0, 321.677419355) scale(0.730222329819)"><use xlink:href="#car9" /></g><g transform="translate(456.0, 321.677419355) scale(0.714142758209)"><use xlink:href="#car0" /></g><g transform="translate(516.0, 321.677419355) scale(0.694153952263)"><use xlink:href="#car1" /></g><g transform="translate(36.0, 328.258064516) scale(0.701089376042)"><use xlink:href="#car2" /></g><g transform="translate(96.0, 328.258064516) scale(0.726152480838)"><use xlink:href="#car3" /></g><g transform="translate(156.0, 328.258064516) scale(0.692145943125)"><use xlink:href="#car4" /></g><g transform="translate(216.0, 328.258064516) scale(0.682144045129)"><use xlink:href="#car5" /></g><g transform="translate(276.0, 328.258064516) scale(0.700105053097)"><use xlink:href="#car6" /></g><g transform="translate(336.0, 328.258064516) scale(0.689186660154)"><use xlink:href="#car7" /></g><g transform="translate(396.0, 328.258064516) scale(0.738578883875)"><use xlink:href="#car8" /></g><g transform="translate(456.0, 328.258064516) scale(0.730222329819)"><use xlink:href="#car9" /></g><g transform="translate(516.0, 328.258064516) scale(0.714142758209)"><use xlink:href="#car0" /></g><g transform="translate(36.0, 334.838709677) scale(0.694153952263)"><use xlink:href="#car1" /></g><g transform="translate(96.0, 334.838709677) scale(0.701089376042)"><use xlink:href="#car2" /></g><g transform="translate(156.0, 334.838709677) scale(0.726152480838)"><use xlink:href="#car3" /></g><g transform="translate(216.0, 334.838709677) scale(0.692145943125)"><use xlink:href="#car4" /></g><g transform="translate(276.0, 334.838709677) scale(0.682144045129)"><use xlink:href="#car5" /></g><g transform="translate(336.0, 334.838709677) scale(0.700105053097)"><use xlink:href="#car6" /></g><g transform="translate(396.0, 334.838709677) scale(0.689186660154)"><use xlink:href="#car7" /></g><g transform="translate(456.0, 334.838709677) scale(0.738578883875)"><use xlink:href="#car8" /></g><g transform="translate(516.0, 334.838709677) scale(0.730222329819)"><use xlink:href="#car9" /></g><g transform="translate(36.0, 341.419354839) scale(0.714142758209)"><use xlink:href="#car0" /></g><g transform="translate(96.0, 341.419354839) scale(0.694153952263)"><use xlink:href="#car1" /></g><g transform="translate(156.0, 341.419354839) scale(0.701089376042)"><use xlink:href="#car2" /></g><g transform="translate(216.0, 341.419354839) scale(0.726152480838)"><use xlink:href="#car3" /></g><g transform="translate(276.0, 341.419354839) scale(0.692145943125)"><use xlink:href="#car4" /></g><g transform="translate(336.0, 341.419354839) scale(0.682144045129)"><use xlink:href="#car5" /></g><g transform="translate(396.0, 341.419354839) scale(0.700105053097)"><use xlink:href="#car6" /></g><g transform="translate(456.0, 341.419354839) scale(0.689186660154)"><use xlink:href="#car7" /></g><g transform="translate(516.0, 341.419354839) scale(0.738578883875)"><use xlink:href="#car8" /></g><g transform="translate(36.0, 348.0) scale(0.730222329819)"><use xlink:href="#car9" /></g><g transform="translate(96.0, 348.0) scale(0.714142758209)"><use xlink:href="#car0" /></g><g transform="translate(156.0, 348.0) scale(0.694153952263)"><use xlink:href="#car1" /></g><g transform="translate(216.0, 348.0) scale(0.701089376042)"><use xlink:href="#car2" /></g><g transform="translate(276.0, 348.0) scale(0.726152480838)"><use xlink:href="#car3" /></g><g transform="translate(336.0, 348.0) scale(0.692145943125)"><use xlink:href="#car4" /></g><g transform="translate(396.0, 348.0) scale(0.682144045129)"><use xlink:href="#car5" /></g><g transform="translate(456.0, 348.0) scale(0.700105053097)"><use xlink:href="#car6" /></g><g transform="translate(516.0, 348.0) scale(0.689186660154)"><use xlink:href="#car7" /></g><g transform="translate(36.0, 354.580645161) scale(0.738578883875)"><use xlink:href="#car8" /></g><g transform="translate(96.0, 354.580645161) scale(0.730222329819)"><use xlink:href="#car9" /></g><g transform="translate(156.0, 354.580645161) scale(0.714142758209)"><use xlink:href="#car0" /></g><g transform="translate(216.0, 354.580645161) scale(0.694153952263)"><use xlink:href="#car1" /></g><g transform="translate(276.0, 354.580645161) scale(0.701089376042)"><use xlink:href="#car2" /></g><g transform="translate(336.0, 354.580645161) scale(0.726152480838)"><use xlink:href="#car3" /></g><g transform="translate(396.0, 354.580645161) scale(0.692145943125)"><use xlink:href="#car4" /></g><g transform="translate(456.0, 354.580645161) scale(0.682144045129)"><use xlink:href="#car5" /></g><g transform="translate(516.0, 354.580645161) scale(0.700105053097)"><use xlink:href="#car6" /></g><g transform="translate(36.0, 361.161290323) scale(0.689186660154)"><use xlink:href="#car7" /></g><g transform="translate(96.0, 361.161290323) scale(0.738578883875)"><use xlink:href="#car8" /></g><g transform="translate(156.0, 361.161290323) scale(0.730222329819)"><use xlink:href="#car9" /></g><g transform="translate(216.0, 361.161290323) scale(0.714142758209)"><use xlink:href="#car0" /></g><g transform="translate(276.0, 361.161290323) scale(0.694153952263)"><use xlink:href="#car1" /></g><g transform="translate(336.0, 361.161290323) scale(0.701089376042)"><use xlink:href="#car2" /></g><g transform="translate(396.0, 361.161290323) scale(0.726152480838)"><use xlink:href="#car3" /></g><g transform="translate(456.0, 361.161290323) scale(0.692145943125)"><use xlink:href="#car4" /></g><g transform="translate(516.0, 361.161290323) scale(0.682144045129)"><use xlink:href="#car5" /></g><g transform="translate(36.0, 367.741935484) scale(0.700105053097)"><use xlink:href="#car6" /></g><g transform="translate(96.0, 367.741935484) scale(0.689186660154)"><use xlink:href="#car7" /></g><g transform="translate(156.0, 367.741935484) scale(0.738578883875)"><use xlink:href="#car8" /></g><g transform="translate(216.0, 367.741935484) scale(0.730222329819)"><use xlink:href="#car9" /></g><g transform="translate(276.0, 367.741935484) scale(0.714142758209)"><use xlink:href="#car0" /></g><g transform="translate(336.0, 367.741935484) scale(0.694153952263)"><use xlink:href="#car1" /></g><g transform="translate(396.0, 367.741935484) scale(0.701089376042)"><use xlink:href="#car2" /></g><g transform="translate(456.0, 367.741935484) scale(0.726152480838)"><use xlink:href="#car3" /></g><g transform="translate(516.0, 367.741935484) scale(0.692145943125)"><use xlink:href="#car4" /></g><g transform="translate(36.0, 374.322580645) scale(0.682144045129)"><use xlink:href="#car5" /></g><g transform="translate(96.0, 374.322580645) scale(0.700105053097)"><use xlink:href="#car6" /></g><g transform="translate(156.0, 374.322580645) scale(0.689186660154)"><use xlink:href="#car7" /></g><g transform="translate(216.0, 374.322580645) scale(0.738578883875)"><use xlink:href="#car8" /></g><g transform="translate(276.0, 374.322580645) scale(0.730222329819)"><use xlink:href="#car9" /></g><g transform="translate(336.0, 374.322580645) scale(0.714142758209)"><use xlink:href="#car0" /></g><g transform="translate(396.0, 374.322580645) scale(0.694153952263)"><use xlink:href="#car1" /></g><g transform="translate(456.0, 374.322580645) scale(0.701089376042)"><use xlink:href="#car2" /></g><g transform="translate(516.0, 374.322580645) scale(0.726152480838)"><use xlink:href="#car3" /></g><g transform="translate(36.0, 380.903225806) scale(0.692145943125)"><use xlink:href="#car4" /></g><g transform="translate(96.0, 380.903225806) scale(0.682144045129)"><use xlink:href="#car5" /></g><g transform="translate(156.0, 380.903225806) scale(0.700105053097)"><use xlink:href="#car6" /></g><g transform="translate(216.0, 380.903225806) scale(0.689186660154)"><use xlink:href="#car7" /></g><g transform="translate(276.0, 380.903225806) scale(0.738578883875)"><use xlink:href="#car8" /></g><g transform="translate(336.0, 380.903225806) scale(0.730222329819)"><use xlink:href="#car9" /></g><g transform="translate(396.0, 380.903225806) scale(0.714142758209)"><use xlink:href="#car0" /></g><g transform="translate(456.0, 380.903225806) scale(0.694153952263)"><use xlink:href="#car1" /></g><g transform="translate(516.0, 380.903225806) scale(0.701089376042)"><use xlink:href="#car2" /></g><g transform="translate(36.0, 387.483870968) scale(0.726152480838)"><use xlink:href="#car3" /></g><g transform="translate(96.0, 387.483870968) scale(0.692145943125)"><use xlink:href="#car4" /></g><g transform="translate(156.0, 387.483870968) scale(0.682144045129)"><use xlink:href="#car5" /></g><g transform="translate(216.0, 387.483870968) scale(0.700105053097)"><use xlink:href="#car6" /></g><g transform="translate(276.0, 387.483870968) scale(0.689186660154)"><use xlink:href="#car7" /></g><g transform="translate(336.0, 387.483870968) scale(0.738578883875)"><use xlink:href="#car8" /></g><g transform="translate(396.0, 387.483870968) scale(0.730222329819)"><use xlink:href="#car9" /></g><g transform="translate(456.0, 387.483870968) scale(0.714142758209)"><use xlink:href="#car0" /></g><g transform="translate(516.0, 387.483870968) scale(0.694153952263)"><use xlink:href="#car1" /></g><g transform="translate(36.0, 394.064516129) scale(0.701089376042)"><use xlink:href="#car2" /></g><g transform="translate(96.0, 394.064516129) scale(0.726152480838)"><use xlink:href="#car3" /></g><g transform="translate(156.0, 394.064516129) scale(0.692145943125)"><use xlink:href="#car4" /></g><g transform="translate(216.0, 394.064516129) scale(0.682144045129)"><use xlink:href="#car5" /></g><g transform="translate(276.0, 394.064516129) scale(0.700105053097)"><use xlink:href="#car6" /></g><g transform="translate(336.0, 394.064516129) scale(0.689186660154)"><use xlink:href="#car7" /></g><g transform="translate(396.0, 394.064516129) scale(0.738578883875)"><use xlink:href="#car8" /></g><g transform="translate(456.0, 394.064516129) scale(0.730222329819)"><use xlink:href="#car9" /></g><g transform="translate(516.0, 394.064516129) scale(0.714142758209)"><use xlink:href="#car0" /></g><g transform="translate(36.0, 400.64516129) scale(0.694153952263)"><use xlink:href="#car1" /></g><g transform="translate(96.0, 400.64516129) scale(0.701089376042)"><use xlink:href="#car2" /></g><g transform="translate(156.0, 400.64516129) scale(0.726152480838)"><use xlink:href="#car3" /></g><g transform="translate(216.0, 400.64516129) scale(0.692145943125)"><use xlink:href="#car4" /></g><g transform="translate(276.0, 400.64516129) scale(0.682144045129)"><use xlink:href="#car5" /></g><g transform="translate(336.0, 400.64516129) scale(0.700105053097)"><use xlink:href="#car6" /></g><g transform="translate(396.0, 400.64516129) scale(0.689186660154)"><use xlink:href="#car7" /></g><g transform="translate(456.0, 400.64516129) scale(0.738578883875)"><use xlink:href="#car8" /></g><g transform="translate(516.0, 400.64516129) scale(0.730222329819)"><use xlink:href="#car9" /></g><g transform="translate(36.0, 407.225806452) scale(0.714142758209)"><use xlink:href="#car0" /></g><g transform="translate(96.0, 407.225806452) scale(0.694153952263)"><use xlink:href="#car1" /></g><g transform="translate(156.0, 407.225806452) scale(0.701089376042)"><use xlink:href="#car2" /></g><g transform="translate(216.0, 407.225806452) scale(0.726152480838)"><use xlink:href="#car3" /></g><g transform="translate(276.0, 407.225806452) scale(0.692145943125)"><use xlink:href="#car4" /></g><g transform="translate(336.0, 407.225806452) scale(0.682144045129)"><use xlink:href="#car5" /></g><g transform="translate(396.0, 407.225806452) scale(0.700105053097)"><use xlink:href="#car6" /></g><g transform="translate(456.0, 407.225806452) scale(0.689186660154)"><use xlink:href="#car7" /></g><g transform="translate(516.0, 407.225806452) scale(0.738578883875)"><use xlink:href="#car8" /></g><g transform="translate(36.0, 413.806451613) scale(0.730222329819)"><use xlink:href="#car9" /></g><g transform="translate(96.0, 413.806451613) scale(0.714142758209)"><use xlink:href="#car0" /></g><g transform="translate(156.0, 413.806451613) scale(0.694153952263)"><use xlink:href="#car1" /></g><g transform="translate(216.0, 413.806451613) scale(0.701089376042)"><use xlink:href="#car2" /></g><g transform="translate(276.0, 413.806451613) scale(0.726152480838)"><use xlink:href="#car3" /></g><g transform="translate(336.0, 413.806451613) scale(0.692145943125)"><use xlink:href="#car4" /></g><g transform="translate(396.0, 413.806451613) scale(0.682144045129)"><use xlink:href="#car5" /></g><g transform="translate(456.0, 413.806451613) scale(0.700105053097)"><use xlink:href="#car6" /></g><g transform="translate(516.0, 413.806451613) scale(0.689186660154)"><use xlink:href="#car7" /></g><g transform="translate(36.0, 420.387096774) scale(0.738578883875)"><use xlink:href="#car8" /></g><g transform="translate(96.0, 420.387096774) scale(0.730222329819)"><use xlink:href="#car9" /></g><g transform="translate(156.0, 420.387096774) scale(0.714142758209)"><use xlink:href="#car0" /></g><g transform="translate(216.0, 420.387096774) scale(0.694153952263)"><use xlink:href="#car1" /></g><g transform="translate(276.0, 420.387096774) scale(0.701089376042)"><use xlink:href="#car2" /></g><g transform="translate(336.0, 420.387096774) scale(0.726152480838)"><use xlink:href="#car3" /></g><g transform="translate(396.0, 420.387096774) scale(0.692145943125)"><use xlink:href="#car4" /></g><g transform="translate(456.0, 420.387096774) scale(0.682144045129)"><use xlink:href="#car5" /></g><g transform="translate(516.0, 420.387096774) scale(0.700105053097)"><use xlink:href="#car6" /></g><g transform="translate(36.0, 426.967741935) scale(0.689186660154)"><use xlink:href="#car7" /></g><g transform="translate(96.0, 426.967741935) scale(0.738578883875)"><use xlink:href="#car8" /></g><g transform="translate(156.0, 426.967741935) scale(0.730222329819)"><use xlink:href="#car9" /></g><g transform="translate(216.0, 426.967741935) scale(0.714142758209)"><use xlink:href="#car0" /></g><g transform="translate(276.0, 426.967741935) scale(0.694153952263)"><use xlink:href="#car1" /></g><g transform="translate(336.0, 426.967741935) scale(0.701089376042)"><use xlink:href="#car2" /></g><g transform="translate(396.0, 426.967741935) scale(0.726152480838)"><use xlink:href="#car3" /></g><g transform="translate(456.0, 426.967741935) scale(0.692145943125)"><use xlink:href="#car4" /></g><g transform="translate(516.0, 426.967741935) scale(0.682144045129)"><use xlink:href="#car5" /></g><g transform="translate(36.0, 433.548387097) scale(0.700105053097)"><use xlink:href="#car6" /></g><g transform="translate(96.0, 433.548387097) scale(0.689186660154)"><use xlink:href="#car7" /></g><g transform="translate(156.0, 433.548387097) scale(0.738578883875)"><use xlink:href="#car8" /></g><g transform="translate(216.0, 433.548387097) scale(0.730222329819)"><use xlink:href="#car9" /></g><g transform="translate(276.0, 433.548387097) scale(0.714142758209)"><use xlink:href="#car0" /></g><g transform="translate(336.0, 433.548387097) scale(0.694153952263)"><use xlink:href="#car1" /></g><g transform="translate(396.0, 433.548387097) scale(0.701089376042)"><use xlink:href="#car2" /></g><g transform="translate(456.0, 433.548387097) scale(0.726152480838)"><use xlink:href="#car3" /></g><g transform="translate(516.0, 433.548387097) scale(0.692145943125)"><use xlink:href="#car4" /></g><g transform="translate(36.0, 440.129032258) scale(0.682144045129)"><use xlink:href="#car5" /></g><g transform="translate(96.0, 440.129032258) scale(0.700105053097)"><use xlink:href="#car6" /></g><g transform="translate(156.0, 440.129032258) scale(0.689186660154)"><use xlink:href="#car7" /></g><g transform="translate(216.0, 440.129032258) scale(0.738578883875)"><use xlink:href="#car8" /></g><g transform="translate(276.0, 440.129032258) scale(0.730222329819)"><use xlink:href="#car9" /></g><g transform="translate(336.0, 440.129032258) scale(0.714142758209)"><use xlink:href="#car0" /></g><g transform="translate(396.0, 440.129032258) scale(0.694153952263)"><use xlink:href="#car1" /></g><g transform="translate(456.0, 440.129032258) scale(0.701089376042)"><use xlink:href="#car2" /></g><g transform="translate(516.0, 440.129032258) scale(0.726152480838)"><use xlink:href="#car3" /></g><g transform="translate(36.0, 446.709677419) scale(0.692145943125)"><use xlink:href="#car4" /></g><g transform="translate(96.0, 446.709677419) scale(0.682144045129)"><use xlink:href="#car5" /></g><g transform="translate(156.0, 446.709677419) scale(0.700105053097)"><use xlink:href="#car6" /></g><g transform="translate(216.0, 446.709677419) scale(0.689186660154)"><use xlink:href="#car7" /></g><g transform="translate(276.0, 446.709677419) scale(0.738578883875)"><use xlink:href="#car8" /></g><g transform="translate(336.0, 446.709677419) scale(0.730222329819)"><use xlink:href="#car9" /></g><g transform="translate(396.0, 446.709677419) scale(0.714142758209)"><use xlink:href="#car0" /></g><g transform="translate(456.0, 446.709677419) scale(0.694153952263)"><use xlink:href="#car1" /></g><g transform="translate(516.0, 446.709677419) scale(0.701089376042)"><use xlink:href="#car2" /></g><g transform="translate(36.0, 453.290322581) scale(0.726152480838)"><use xlink:href="#car3" /></g><g transform="translate(96.0, 453.290322581) scale(0.692145943125)"><use xlink:href="#car4" /></g><g transform="translate(156.0, 453.290322581) scale(0.682144045129)"><use xlink:href="#car5" /></g><g transform="translate(216.0, 453.290322581) scale(0.700105053097)"><use xlink:href="#car6" /></g><g transform="translate(276.0, 453.290322581) scale(0.689186660154)"><use xlink:href="#car7" /></g><g transform="translate(336.0, 453.290322581) scale(0.738578883875)"><use xlink:href="#car8" /></g><g transform="translate(396.0, 453.290322581) scale(0.730222329819)"><use xlink:href="#car9" /></g><g transform="translate(456.0, 453.290322581) scale(0.714142758209)"><use xlink:href="#car0" /></g><g transform="translate(516.0, 453.290322581) scale(0.694153952263)"><use xlink:href="#car1" /></g><g transform="translate(36.0, 459.870967742) scale(0.701089376042)"><use xlink:href="#car2" /></g><g transform="translate(96.0, 459.870967742) scale(0.726152480838)"><use xlink:href="#car3" /></g><g transform="translate(156.0, 459.870967742) scale(0.692145943125)"><use xlink:href="#car4" /></g><g transform="translate(216.0, 459.870967742) scale(0.682144045129)"><use xlink:href="#car5" /></g><g transform="translate(276.0, 459.870967742) scale(0.700105053097)"><use xlink:href="#car6" /></g><g transform="translate(336.0, 459.870967742) scale(0.689186660154)"><use xlink:href="#car7" /></g><g transform="translate(396.0, 459.870967742) scale(0.738578883875)"><use xlink:href="#car8" /></g><g transform="translate(456.0, 459.870967742) scale(0.730222329819)"><use xlink:href="#car9" /></g><g transform="translate(516.0, 459.870967742) scale(0.714142758209)"><use xlink:href="#car0" /></g><g transform="translate(36.0, 466.451612903) scale(0.694153952263)"><use xlink:href="#car1" /></g><g transform="translate(96.0, 466.451612903) scale(0.701089376042)"><use xlink:href="#car2" /></g><g transform="translate(156.0, 466.451612903) scale(0.726152480838)"><use xlink:href="#car3" /></g><g transform="translate(216.0, 466.451612903) scale(0.692145943125)"><use xlink:href="#car4" /></g><g transform="translate(276.0, 466.451612903) scale(0.682144045129)"><use xlink:href="#car5" /></g><g transform="translate(336.0, 466.451612903) scale(0.700105053097)"><use xlink:href="#car6" /></g><g transform="translate(396.0, 466.451612903) scale(0.689186660154)"><use xlink:href="#car7" /></g><g transform="translate(456.0, 466.451612903) scale(0.738578883875)"><use xlink:href="#car8" /></g><g transform="translate(516.0, 466.451612903) scale(0.730222329819)"><use xlink:href="#car9" /></g><g transform="translate(36.0, 473.032258065) scale(0.714142758209)"><use xlink:href="#car0" /></g><g transform="translate(96.0, 473.032258065) scale(0.694153952263)"><use xlink:href="#car1" /></g><g transform="translate(156.0, 473.032258065) scale(0.701089376042)"><use xlink:href="#car2" /></g><g transform="translate(216.0, 473.032258065) scale(0.726152480838)"><use xlink:href="#car3" /></g><g transform="translate(276.0, 473.032258065) scale(0.692145943125)"><use xlink:href="#car4" /></g><g transform="translate(336.0, 473.032258065) scale(0.682144045129)"><use xlink:href="#car5" /></g><g transform="translate(396.0, 473.032258065) scale(0.700105053097)"><use xlink:href="#car6" /></g><g transform="translate(456.0, 473.032258065) scale(0.689186660154)"><use xlink:href="#car7" /></g><g transform="translate(516.0, 473.032258065) scale(0.738578883875)"><use xlink:href="#car8" /></g><g transform="translate(36.0, 479.612903226) scale(0.730222329819)"><use xlink:href="#car9" /></g><g transform="translate(96.0, 479.612903226) scale(0.714142758209)"><use xlink:href="#car0" /></g><g transform="translate(156.0, 479.612903226) scale(0.694153952263)"><use xlink:href="#car1" /></g><g transform="translate(216.0, 479.612903226) scale(0.701089376042)"><use xlink:href="#car2" /></g><g transform="translate(276.0, 479.612903226) scale(0.726152480838)"><use xlink:href="#car3" /></g><g transform="translate(336.0, 479.612903226) scale(0.692145943125)"><use xlink:href="#car4" /></g><g transform="translate(396.0, 479.612903226) scale(0.682144045129)"><use xlink:href="#car5" /></g><g transform="translate(456.0, 479.612903226) scale(0.700105053097)"><use xlink:href="#car6" /></g><g transform="translate(516.0, 479.612903226) scale(0.689186660154)"><use xlink:href="#car7" /></g><g transform="translate(36.0, 486.193548387) scale(0.738578883875)"><use xlink:href="#car8" /></g><g transform="translate(96.0, 486.193548387) scale(0.730222329819)"><use xlink:href="#car9" /></g><g transform="translate(156.0, 486.193548387) scale(0.714142758209)"><use xlink:href="#car0" /></g><g transform="translate(216.0, 486.193548387) scale(0.694153952263)"><use xlink:href="#car1" /></g><g transform="translate(276.0, 486.193548387) scale(0.701089376042)"><use xlink:href="#car2" /></g><g transform="translate(336.0, 486.193548387) scale(0.726152480838)"><use xlink:href="#car3" /></g><g transform="translate(396.0, 486.193548387) scale(0.692145943125)"><use xlink:href="#car4" /></g><g transform="translate(456.0, 486.193548387) scale(0.682144045129)"><use xlink:href="#car5" /></g><g transform="translate(516.0, 486.193548387) scale(0.700105053097)"><use xlink:href="#car6" /></g><g transform="translate(36.0, 492.774193548) scale(0.689186660154)"><use xlink:href="#car7" /></g><g transform="translate(96.0, 492.774193548) scale(0.738578883875)"><use xlink:href="#car8" /></g><g transform="translate(156.0, 492.774193548) scale(0.730222329819)"><use xlink:href="#car9" /></g><g transform="translate(216.0, 492.774193548) scale(0.714142758209)"><use xlink:href="#car0" /></g><g transform="translate(276.0, 492.774193548) scale(0.694153952263)"><use xlink:href="#car1" /></g><g transform="translate(336.0, 492.774193548) scale(0.701089376042)"><use xlink:href="#car2" /></g><g transform="translate(396.0, 492.774193548) scale(0.726152480838)"><use xlink:href="#car3" /></g><g transform="translate(456.0, 492.774193548) scale(0.692145943125)"><use xlink:href="#car4" /></g><g transform="translate(516.0, 492.774193548) scale(0.682144045129)"><use xlink:href="#car5" /></g><g transform="translate(36.0, 499.35483871) scale(0.700105053097)"><use xlink:href="#car6" /></g><g transform="translate(96.0, 499.35483871) scale(0.689186660154)"><use xlink:href="#car7" /></g><g transform="translate(156.0, 499.35483871) scale(0.738578883875)"><use xlink:href="#car8" /></g><g transform="translate(216.0, 499.35483871) scale(0.730222329819)"><use xlink:href="#car9" /></g><g transform="translate(276.0, 499.35483871) scale(0.714142758209)"><use xlink:href="#car0" /></g><g transform="translate(336.0, 499.35483871) scale(0.694153952263)"><use xlink:href="#car1" /></g><g transform="translate(396.0, 499.35483871) scale(0.701089376042)"><use xlink:href="#car2" /></g><g transform="translate(456.0, 499.35483871) scale(0.726152480838)"><use xlink:href="#car3" /></g><g transform="translate(516.0, 499.35483871) scale(0.692145943125)"><use xlink:href="#car4" /></g><g transform="translate(36.0, 505.935483871) scale(0.682144045129)"><use xlink:href="#car5" /></g><g transform="translate(96.0, 505.935483871) scale(0.700105053097)"><use xlink:href="#car6" /></g><g transform="translate(156.0, 505.935483871) scale(0.689186660154)"><use xlink:href="#car7" /></g><g transform="translate(216.0, 505.935483871) scale(0.738578883875)"><use xlink:href="#car8" /></g><g transform="translate(276.0, 505.935483871) scale(0.730222329819)"><use xlink:href="#car9" /></g><g transform="translate(336.0, 505.935483871) scale(0.714142758209)"><use xlink:href="#car0" /></g><g transform="translate(396.0, 505.935483871) scale(0.694153952263)"><use xlink:href="#car1" /></g><g transform="translate(456.0, 505.935483871) scale(0.701089376042)"><use xlink:href="#car2" /></g><g transform="translate(516.0, 505.935483871) scale(0.726152480838)"><use xlink:href="#car3" /></g><g transform="translate(36.0, 512.516129032) scale(0.692145943125)"><use xlink:href="#car4" /></g><g transform="translate(96.0, 512.516129032) scale(0.682144045129)"><use xlink:href="#car5" /></g><g transform="translate(156.0, 512.516129032) scale(0.700105053097)"><use xlink:href="#car6" /></g><g transform="translate(216.0, 512.516129032) scale(0.689186660154)"><use xlink:href="#car7" /></g><g transform="translate(276.0, 512.516129032) scale(0.738578883875)"><use xlink:href="#car8" /></g><g transform="translate(336.0, 512.516129032) scale(0.730222329819)"><use xlink:href="#car9" /></g><g transform="translate(396.0, 512.516129032) scale(0.714142758209)"><use xlink:href="#car0" /></g><g transform="translate(456.0, 512.516129032) scale(0.694153952263)"><use xlink:href="#car1" /></g><g transform="translate(516.0, 512.516129032) scale(0.701089376042)"><use xlink:href="#car2" /></g><g transform="translate(36.0, 519.096774194) scale(0.726152480838)"><use xlink:href="#car3" /></g><g transform="translate(96.0, 519.096774194) scale(0.692145943125)"><use xlink:href="#car4" /></g><g transform="translate(156.0, 519.096774194) scale(0.682144045129)"><use xlink:href="#car5" /></g><g transform="translate(216.0, 519.096774194) scale(0.700105053097)"><use xlink:href="#car6" /></g><g transform="translate(276.0, 519.096774194) scale(0.689186660154)"><use xlink:href="#car7" /></g><g transform="translate(336.0, 519.096774194) scale(0.738578883875)"><use xlink:href="#car8" /></g><g transform="translate(396.0, 519.096774194) scale(0.730222329819)"><use xlink:href="#car9" /></g><g transform="translate(456.0, 519.096774194) scale(0.714142758209)"><use xlink:href="#car0" /></g><g transform="translate(516.0, 519.096774194) scale(0.694153952263)"><use xlink:href="#car1" /></g><g transform="translate(36.0, 525.677419355) scale(0.701089376042)"><use xlink:href="#car2" /></g><g transform="translate(96.0, 525.677419355) scale(0.726152480838)"><use xlink:href="#car3" /></g><g transform="translate(156.0, 525.677419355) scale(0.692145943125)"><use xlink:href="#car4" /></g><g transform="translate(216.0, 525.677419355) scale(0.682144045129)"><use xlink:href="#car5" /></g><g transform="translate(276.0, 525.677419355) scale(0.700105053097)"><use xlink:href="#car6" /></g><g transform="translate(336.0, 525.677419355) scale(0.689186660154)"><use xlink:href="#car7" /></g><g transform="translate(396.0, 525.677419355) scale(0.738578883875)"><use xlink:href="#car8" /></g><g transform="translate(456.0, 525.677419355) scale(0.730222329819)"><use xlink:href="#car9" /></g><g transform="translate(516.0, 525.677419355) scale(0.714142758209)"><use xlink:href="#car0" /></g><g transform="translate(36.0, 532.258064516) scale(0.694153952263)"><use xlink:href="#car1" /></g><g transform="translate(96.0, 532.258064516) scale(0.701089376042)"><use xlink:href="#car2" /></g><g transform="translate(156.0, 532.258064516) scale(0.726152480838)"><use xlink:href="#car3" /></g><g transform="translate(216.0, 532.258064516) scale(0.692145943125)"><use xlink:href="#car4" /></g><g transform="translate(276.0, 532.258064516) scale(0.682144045129)"><use xlink:href="#car5" /></g><g transform="translate(336.0, 532.258064516) scale(0.700105053097)"><use xlink:href="#car6" /></g><g transform="translate(396.0, 532.258064516) scale(0.689186660154)"><use xlink:href="#car7" /></g><g transform="translate(456.0, 532.258064516) scale(0.738578883875)"><use xlink:href="#car8" /></g><g transform="translate(516.0, 532.258064516) scale(0.730222329819)"><use xlink:href="#car9" /></g><g transform="translate(36.0, 538.838709677) scale(0.714142758209)"><use xlink:href="#car0" /></g><g transform="translate(96.0, 538.838709677) scale(0.694153952263)"><use xlink:href="#car1" /></g><g transform="translate(156.0, 538.838709677) scale(0.701089376042)"><use xlink:href="#car2" /></g><g transform="translate(216.0, 538.838709677) scale(0.726152480838)"><use xlink:href="#car3" /></g><g transform="translate(276.0, 538.838709677) scale(0.692145943125)"><use xlink:href="#car4" /></g><g transform="translate(336.0, 538.838709677) scale(0.682144045129)"><use xlink:href="#car5" /></g><g transform="translate(396.0, 538.838709677) scale(0.700105053097)"><use xlink:href="#car6" /></g><g transform="translate(456.0, 538.838709677) scale(0.689186660154)"><use xlink:href="#car7" /></g><g transform="translate(516.0, 538.838709677) scale(0.738578883875)"><use xlink:href="#car8" /></g><g transform="translate(36.0, 545.419354839) scale(0.730222329819)"><use xlink:href="#car9" /></g><g transform="translate(96.0, 545.419354839) scale(0.714142758209)"><use xlink:href="#car0" /></g><g transform="translate(156.0, 545.419354839) scale(0.694153952263)"><use xlink:href="#car1" /></g><g transform="translate(216.0, 545.419354839) scale(0.701089376042)"><use xlink:href="#car2" /></g><g transform="translate(276.0, 545.419354839) scale(0.726152480838)"><use xlink:href="#car3" /></g><g transform="translate(336.0, 545.419354839) scale(0.692145943125)"><use xlink:href="#car4" /></g><g transform="translate(396.0, 545.419354839) scale(0.682144045129)"><use xlink:href="#car5" /></g><g transform="translate(456.0, 545.419354839) scale(0.700105053097)"><use xlink:href="#car6" /></g><g transform="translate(516.0, 545.419354839) scale(0.689186660154)"><use xlink:href="#car7" /></g><g transform="translate(36.0, 552.0) scale(0.738578883875)"><use xlink:href="#car8" /></g><g transform="translate(96.0, 552.0) scale(0.730222329819)"><use xlink:href="#car9" /></g><g transform="translate(156.0, 552.0) scale(0.714142758209)"><use xlink:href="#car0" /></g><g transform="translate(216.0, 552.0) scale(0.694153952263)"><use xlink:href="#car1" /></g><g transform="translate(276.0, 552.0) scale(0.701089376042)"><use xlink:href="#car2" /></g><g transform="translate(336.0, 552.0) scale(0.726152480838)"><use xlink:href="#car3" /></g><g transform="translate(396.0, 552.0) scale(0.692145943125)"><use xlink:href="#car4" /></g><g transform="translate(456.0, 552.0) scale(0.682144045129)"><use xlink:href="#car5" /></g><g transform="translate(516.0, 552.0) scale(0.700105053097)"><use xlink:href="#car6" /></g><g transform="translate(36.0, 558.580645161) scale(0.689186660154)"><use xlink:href="#car7" /></g><g transform="translate(96.0, 558.580645161) scale(0.738578883875)"><use xlink:href="#car8" /></g><g transform="translate(156.0, 558.580645161) scale(0.730222329819)"><use xlink:href="#car9" /></g><g transform="translate(216.0, 558.580645161) scale(0.714142758209)"><use xlink:href="#car0" /></g><g transform="translate(276.0, 558.580645161) scale(0.694153952263)"><use xlink:href="#car1" /></g><g transform="translate(336.0, 558.580645161) scale(0.701089376042)"><use xlink:href="#car2" /></g><g transform="translate(396.0, 558.580645161) scale(0.726152480838)"><use xlink:href="#car3" /></g><g transform="translate(456.0, 558.580645161) scale(0.692145943125)"><use xlink:href="#car4" /></g><g transform="translate(516.0, 558.580645161) scale(0.682144045129)"><use xlink:href="#car5" /></g><g transform="translate(36.0, 565.161290323) scale(0.700105053097)"><use xlink:href="#car6" /></g><g transform="translate(96.0, 565.161290323) scale(0.689186660154)"><use xlink:href="#car7" /></g><g transform="translate(156.0, 565.161290323) scale(0.738578883875)"><use xlink:href="#car8" /></g><g transform="translate(216.0, 565.161290323) scale(0.730222329819)"><use xlink:href="#car9" /></g><g transform="translate(276.0, 565.161290323) scale(0.714142758209)"><use xlink:href="#car0" /></g><g transform="translate(336.0, 565.161290323) scale(0.694153952263)"><use xlink:href="#car1" /></g><g transform="translate(396.0, 565.161290323) scale(0.701089376042)"><use xlink:href="#car2" /></g><g transform="translate(456.0, 565.161290323) scale(0.726152480838)"><use xlink:href="#car3" /></g><g transform="translate(516.0, 565.161290323) scale(0.692145943125)"><use xlink:href="#car4" /></g><g transform="translate(36.0, 571.741935484) scale(0.682144045129)"><use xlink:href="#car5" /></g><g transform="translate(96.0, 571.741935484) scale(0.700105053097)"><use xlink:href="#car6" /></g><g transform="translate(156.0, 571.741935484) scale(0.689186660154)"><use xlink:href="#car7" /></g><g transform="translate(216.0, 571.741935484) scale(0.738578883875)"><use xlink:href="#car8" /></g><g transform="translate(276.0, 571.741935484) scale(0.730222329819)"><use xlink:href="#car9" /></g><g transform="translate(336.0, 571.741935484) scale(0.714142758209)"><use xlink:href="#car0" /></g><g transform="translate(396.0, 571.741935484) scale(0.694153952263)"><use xlink:href="#car1" /></g><g transform="translate(456.0, 571.741935484) scale(0.701089376042)"><use xlink:href="#car2" /></g><g transform="translate(516.0, 571.741935484) scale(0.726152480838)"><use xlink:href="#car3" /></g><g transform="translate(36.0, 578.322580645) scale(0.692145943125)"><use xlink:href="#car4" /></g><g transform="translate(96.0, 578.322580645) scale(0.682144045129)"><use xlink:href="#car5" /></g><g transform="translate(156.0, 578.322580645) scale(0.700105053097)"><use xlink:href="#car6" /></g><g transform="translate(216.0, 578.322580645) scale(0.689186660154)"><use xlink:href="#car7" /></g><g transform="translate(276.0, 578.322580645) scale(0.738578883875)"><use xlink:href="#car8" /></g><g transform="translate(336.0, 578.322580645) scale(0.730222329819)"><use xlink:href="#car9" /></g><g transform="translate(396.0, 578.322580645) scale(0.714142758209)"><use xlink:href="#car0" /></g><g transform="translate(456.0, 578.322580645) scale(0.694153952263)"><use xlink:href="#car1" /></g><g transform="translate(516.0, 578.322580645) scale(0.701089376042)"><use xlink:href="#car2" /></g><g transform="translate(36.0, 584.903225806) scale(0.726152480838)"><use xlink:href="#car3" /></g><g transform="translate(96.0, 584.903225806) scale(0.692145943125)"><use xlink:href="#car4" /></g><g transform="translate(156.0, 584.903225806) scale(0.682144045129)"><use xlink:href="#car5" /></g><g transform="translate(216.0, 584.903225806) scale(0.700105053097)"><use xlink:href="#car6" /></g><g transform="translate(276.0, 584.903225806) scale(0.689186660154)"><use xlink:href="#car7" /></g><g transform="translate(336.0, 584.903225806) scale(0.738578883875)"><use xlink:href="#car8" /></g><g transform="translate(396.0, 584.903225806) scale(0.730222329819)"><use xlink:href="#car9" /></g><g transform="translate(456.0, 584.903225806) scale(0.714142758209)"><use xlink:href="#car0" /></g><g transform="translate(516.0, 584.903225806) scale(0.694153952263)"><use xlink:href="#car1" /></g><g transform="translate(36.0, 591.483870968) scale(0.701089376042)"><use xlink:href="#car2" /></g><g transform="translate(96.0, 591.483870968) scale(0.726152480838)"><use xlink:href="#car3" /></g><g transform="translate(156.0, 591.483870968) scale(0.692145943125)"><use xlink:href="#car4" /></g><g transform="translate(216.0, 591.483870968) scale(0.682144045129)"><use xlink:href="#car5" /></g><g transform="translate(276.0, 591.483870968) scale(0.700105053097)"><use xlink:href="#car6" /></g><g transform="translate(336.0, 591.483870968) scale(0.689186660154)"><use xlink:href="#car7" /></g><g transform="translate(396.0, 591.483870968) scale(0.738578883875)"><use xlink:href="#car8" /></g><g transform="translate(456.0, 591.483870968) scale(0.730222329819)"><use xlink:href="#car9" /></g><g transform="translate(516.0, 591.483870968) scale(0.714142758209)"><use xlink:href="#car0" /></g><g transform="translate(36.0, 598.064516129) scale(0.694153952263)"><use xlink:href="#car1" /></g><g transform="translate(96.0, 598.064516129) scale(0.701089376042)"><use xlink:href="#car2" /></g><g transform="translate(156.0, 598.064516129) scale(0.726152480838)"><use xlink:href="#car3" /></g><g transform="translate(216.0, 598.064516129) scale(0.692145943125)"><use xlink:href="#car4" /></g><g transform="translate(276.0, 598.064516129) scale(0.682144045129)"><use xlink:href="#car5" /></g><g transform="translate(336.0, 598.064516129) scale(0.700105053097)"><use xlink:href="#car6" /></g><g transform="translate(396.0, 598.064516129) scale(0.689186660154)"><use xlink:href="#car7" /></g><g transform="translate(456.0, 598.064516129) scale(0.738578883875)"><use xlink:href="#car8" /></g><g transform="translate(516.0, 598.064516129) scale(0.730222329819)"><use xlink:href="#car9" /></g><g transform="translate(36.0, 604.64516129) scale(0.714142758209)"><use xlink:href="#car0" /></g><g transform="translate(96.0, 604.64516129) scale(0.694153952263)"><use xlink:href="#car1" /></g><g transform="translate(156.0, 604.64516129) scale(0.701089376042)"><use xlink:href="#car2" /></g><g transform="translate(216.0, 604.64516129) scale(0.726152480838)"><use xlink:href="#car3" /></g><g transform="translate(276.0, 604.64516129) scale(0.692145943125)"><use xlink:href="#car4" /></g><g transform="translate(336.0, 604.64516129) scale(0.682144045129)"><use xlink:href="#car5" /></g><g transform="translate(396.0, 604.64516129) scale(0.700105053097)"><use xlink:href="#car6" /></g><g transform="translate(456.0, 604.64516129) scale(0.689186660154)"><use xlink:href="#car7" /></g><g transform="translate(516.0, 604.64516129) scale(0.738578883875)"><use xlink:href="#car8" /></g><g transform="translate(36.0, 611.225806452) scale(0.730222329819)"><use xlink:href="#car9" /></g><g transform="translate(96.0, 611.225806452) scale(0.714142758209)"><use xlink:href="#car0" /></g><g transform="translate(156.0, 611.225806452) scale(0.694153952263)"><use xlink:href="#car1" /></g><g transform="translate(216.0, 611.225806452) scale(0.701089376042)"><use xlink:href="#car2" /></g><g transform="translate(276.0, 611.225806452) scale(0.726152480838)"><use xlink:href="#car3" /></g><g transform="translate(336.0, 611.225806452) scale(0.692145943125)"><use xlink:href="#car4" /></g><g transform="translate(396.0, 611.225806452) scale(0.682144045129)"><use xlink:href="#car5" /></g><g transform="translate(456.0, 611.225806452) scale(0.700105053097)"><use xlink:href="#car6" /></g><g transform="translate(516.0, 611.225806452) scale(0.689186660154)"><use xlink:href="#car7" /></g><g transform="translate(36.0, 617.806451613) scale(0.738578883875)"><use xlink:href="#car8" /></g><g transform="translate(96.0, 617.806451613) scale(0.730222329819)"><use xlink:href="#car9" /></g><g transform="translate(156.0, 617.806451613) scale(0.714142758209)"><use xlink:href="#car0" /></g><g transform="translate(216.0, 617.806451613) scale(0.694153952263)"><use xlink:href="#car1" /></g><g transform="translate(276.0, 617.806451613) scale(0.701089376042)"><use xlink:href="#car2" /></g><g transform="translate(336.0, 617.806451613) scale(0.726152480838)"><use xlink:href="#car3" /></g><g transform="translate(396.0, 617.806451613) scale(0.692145943125)"><use xlink:href="#car4" /></g><g transform="translate(456.0, 617.806451613) scale(0.682144045129)"><use xlink:href="#car5" /></g><g transform="translate(516.0, 617.806451613) scale(0.700105053097)"><use xlink:href="#car6" /></g><g transform="translate(36.0, 624.387096774) scale(0.689186660154)"><use xlink:href="#car7" /></g><g transform="translate(96.0, 624.387096774) scale(0.738578883875)"><use xlink:href="#car8" /></g><g transform="translate(156.0, 624.387096774) scale(0.730222329819)"><use xlink:href="#car9" /></g><g transform="translate(216.0, 624.387096774) scale(0.714142758209)"><use xlink:href="#car0" /></g><g transform="translate(276.0, 624.387096774) scale(0.694153952263)"><use xlink:href="#car1" /></g><g transform="translate(336.0, 624.387096774) scale(0.701089376042)"><use xlink:href="#car2" /></g><g transform="translate(396.0, 624.387096774) scale(0.726152480838)"><use xlink:href="#car3" /></g><g transform="translate(456.0, 624.387096774) scale(0.692145943125)"><use xlink:href="#car4" /></g><g transform="translate(516.0, 624.387096774) scale(0.682144045129)"><use xlink:href="#car5" /></g><g transform="translate(36.0, 630.967741935) scale(0.700105053097)"><use xlink:href="#car6" /></g><g transform="translate(96.0, 630.967741935) scale(0.689186660154)"><use xlink:href="#car7" /></g><g transform="translate(156.0, 630.967741935) scale(0.738578883875)"><use xlink:href="#car8" /></g><g transform="translate(216.0, 630.967741935) scale(0.730222329819)"><use xlink:href="#car9" /></g><g transform="translate(276.0, 630.967741935) scale(0.714142758209)"><use xlink:href="#car0" /></g><g transform="translate(336.0, 630.967741935) scale(0.694153952263)"><use xlink:href="#car1" /></g><g transform="translate(396.0, 630.967741935) scale(0.701089376042)"><use xlink:href="#car2" /></g><g transform="translate(456.0, 630.967741935) scale(0.726152480838)"><use xlink:href="#car3" /></g><g transform="translate(516.0, 630.967741935) scale(0.692145943125)"><use xlink:href="#car4" /></g><g transform="translate(36.0, 637.548387097) scale(0.682144045129)"><use xlink:href="#car5" /></g><g transform="translate(96.0, 637.548387097) scale(0.700105053097)"><use xlink:href="#car6" /></g><g transform="translate(156.0, 637.548387097) scale(0.689186660154)"><use xlink:href="#car7" /></g><g transform="translate(216.0, 637.548387097) scale(0.738578883875)"><use xlink:href="#car8" /></g><g transform="translate(276.0, 637.548387097) scale(0.730222329819)"><use xlink:href="#car9" /></g><g transform="translate(336.0, 637.548387097) scale(0.714142758209)"><use xlink:href="#car0" /></g><g transform="translate(396.0, 637.548387097) scale(0.694153952263)"><use xlink:href="#car1" /></g><g transform="translate(456.0, 637.548387097) scale(0.701089376042)"><use xlink:href="#car2" /></g><g transform="translate(516.0, 637.548387097) scale(0.726152480838)"><use xlink:href="#car3" /></g><g transform="translate(36.0, 644.129032258) scale(0.692145943125)"><use xlink:href="#car4" /></g><g transform="translate(96.0, 644.129032258) scale(0.682144045129)"><use xlink:href="#car5" /></g><g transform="translate(156.0, 644.129032258) scale(0.700105053097)"><use xlink:href="#car6" /></g><g transform="translate(216.0, 644.129032258) scale(0.689186660154)"><use xlink:href="#car7" /></g><g transform="translate(276.0, 644.129032258) scale(0.738578883875)"><use xlink:href="#car8" /></g><g transform="translate(336.0, 644.129032258) scale(0.730222329819)"><use xlink:href="#car9" /></g><g transform="translate(396.0, 644.129032258) scale(0.714142758209)"><use xlink:href="#car0" /></g><g transform="translate(456.0, 644.129032258) scale(0.694153952263)"><use xlink:href="#car1" /></g><g transform="translate(516.0, 644.129032258) scale(0.701089376042)"><use xlink:href="#car2" /></g><g transform="translate(36.0, 650.709677419) scale(0.726152480838)"><use xlink:href="#car3" /></g><g transform="translate(96.0, 650.709677419) scale(0.692145943125)"><use xlink:href="#car4" /></g><g transform="translate(156.0, 650.709677419) scale(0.682144045129)"><use xlink:href="#car5" /></g><g transform="translate(216.0, 650.709677419) scale(0.700105053097)"><use xlink:href="#car6" /></g><g transform="translate(276.0, 650.709677419) scale(0.689186660154)"><use xlink:href="#car7" /></g><g transform="translate(336.0, 650.709677419) scale(0.738578883875)"><use xlink:href="#car8" /></g><g transform="translate(396.0, 650.709677419) scale(0.730222329819)"><use xlink:href="#car9" /></g><g transform="translate(456.0, 650.709677419) scale(0.714142758209)"><use xlink:href="#car0" /></g><g transform="translate(516.0, 650.709677419) scale(0.694153952263)"><use xlink:href="#car1" /></g><g transform="translate(36.0, 657.290322581) scale(0.701089376042)"><use xlink:href="#car2" /></g><g transform="translate(96.0, 657.290322581) scale(0.726152480838)"><use xlink:href="#car3" /></g><g transform="translate(156.0, 657.290322581) scale(0.692145943125)"><use xlink:href="#car4" /></g><g transform="translate(216.0, 657.290322581) scale(0.682144045129)"><use xlink:href="#car5" /></g><g transform="translate(276.0, 657.290322581) scale(0.700105053097)"><use xlink:href="#car6" /></g><g transform="translate(336.0, 657.290322581) scale(0.689186660154)"><use xlink:href="#car7" /></g><g transform="translate(396.0, 657.290322581) scale(0.738578883875)"><use xlink:href="#car8" /></g><g transform="translate(456.0, 657.290322581) scale(0.730222329819)"><use xlink:href="#car9" /></g><g transform="translate(516.0, 657.290322581) scale(0.714142758209)"><use xlink:href="#car0" /></g><g transform="translate(36.0, 663.870967742) scale(0.694153952263)"><use xlink:href="#car1" /></g><g transform="translate(96.0, 663.870967742) scale(0.701089376042)"><use xlink:href="#car2" /></g><g transform="translate(156.0, 663.870967742) scale(0.726152480838)"><use xlink:href="#car3" /></g><g transform="translate(216.0, 663.870967742) scale(0.692145943125)"><use xlink:href="#car4" /></g><g transform="translate(276.0, 663.870967742) scale(0.682144045129)"><use xlink:href="#car5" /></g><g transform="translate(336.0, 663.870967742) scale(0.700105053097)"><use xlink:href="#car6" /></g><g transform="translate(396.0, 663.870967742) scale(0.689186660154)"><use xlink:href="#car7" /></g><g transform="translate(456.0, 663.870967742) scale(0.738578883875)"><use xlink:href="#car8" /></g><g transform="translate(516.0, 663.870967742) scale(0.730222329819)"><use xlink:href="#car9" /></g><g transform="translate(36.0, 670.451612903) scale(0.714142758209)"><use xlink:href="#car0" /></g><g transform="translate(96.0, 670.451612903) scale(0.694153952263)"><use xlink:href="#car1" /></g><g transform="translate(156.0, 670.451612903) scale(0.701089376042)"><use xlink:href="#car2" /></g><g transform="translate(216.0, 670.451612903) scale(0.726152480838)"><use xlink:href="#car3" /></g><g transform="translate(276.0, 670.451612903) scale(0.692145943125)"><use xlink:href="#car4" /></g><g transform="translate(336.0, 670.451612903) scale(0.682144045129)"><use xlink:href="#car5" /></g><g transform="translate(396.0, 670.451612903) scale(0.700105053097)"><use xlink:href="#car6" /></g><g transform="translate(456.0, 670.451612903) scale(0.689186660154)"><use xlink:href="#car7" /></g><g transform="translate(516.0, 670.451612903) scale(0.738578883875)"><use xlink:href="#car8" /></g><g transform="translate(36.0, 677.032258065) scale(0.730222329819)"><use xlink:href="#car9" /></g><g transform="translate(96.0, 677.032258065) scale(0.714142758209)"><use xlink:href="#car0" /></g><g transform="translate(156.0, 677.032258065) scale(0.694153952263)"><use xlink:href="#car1" /></g><g transform="translate(216.0, 677.032258065) scale(0.701089376042)"><use xlink:href="#car2" /></g><g transform="translate(276.0, 677.032258065) scale(0.726152480838)"><use xlink:href="#car3" /></g><g transform="translate(336.0, 677.032258065) scale(0.692145943125)"><use xlink:href="#car4" /></g><g transform="translate(396.0, 677.032258065) scale(0.682144045129)"><use xlink:href="#car5" /></g><g transform="translate(456.0, 677.032258065) scale(0.700105053097)"><use xlink:href="#car6" /></g><g transform="translate(516.0, 677.032258065) scale(0.689186660154)"><use xlink:href="#car7" /></g><g transform="translate(36.0, 683.612903226) scale(0.738578883875)"><use xlink:href="#car8" /></g><g transform="translate(96.0, 683.612903226) scale(0.730222329819)"><use xlink:href="#car9" /></g><g transform="translate(156.0, 683.612903226) scale(0.714142758209)"><use xlink:href="#car0" /></g><g transform="translate(216.0, 683.612903226) scale(0.694153952263)"><use xlink:href="#car1" /></g><g transform="translate(276.0, 683.612903226) scale(0.701089376042)"><use xlink:href="#car2" /></g><g transform="translate(336.0, 683.612903226) scale(0.726152480838)"><use xlink:href="#car3" /></g><g transform="translate(396.0, 683.612903226) scale(0.692145943125)"><use xlink:href="#car4" /></g><g transform="translate(456.0, 683.612903226) scale(0.682144045129)"><use xlink:href="#car5" /></g><g transform="translate(516.0, 683.612903226) scale(0.700105053097)"><use xlink:href="#car6" /></g><g transform="translate(36.0, 690.193548387) scale(0.689186660154)"><use xlink:href="#car7" /></g><g transform="translate(96.0, 690.193548387) scale(0.738578883875)"><use xlink:href="#car8" /></g><g transform="translate(156.0, 690.193548387) scale(0.730222329819)"><use xlink:href="#car9" /></g><g transform="translate(216.0, 690.193548387) scale(0.714142758209)"><use xlink:href="#car0" /></g><g transform="translate(276.0, 690.193548387) scale(0.694153952263)"><use xlink:href="#car1" /></g><g transform="translate(336.0, 690.193548387) scale(0.701089376042)"><use xlink:href="#car2" /></g><g transform="translate(396.0, 690.193548387) scale(0.726152480838)"><use xlink:href="#car3" /></g><g transform="translate(456.0, 690.193548387) scale(0.692145943125)"><use xlink:href="#car4" /></g><g transform="translate(516.0, 690.193548387) scale(0.682144045129)"><use xlink:href="#car5" /></g><g transform="translate(36.0, 696.774193548) scale(0.700105053097)"><use xlink:href="#car6" /></g><g transform="translate(96.0, 696.774193548) scale(0.689186660154)"><use xlink:href="#car7" /></g><g transform="translate(156.0, 696.774193548) scale(0.738578883875)"><use xlink:href="#car8" /></g><g transform="translate(216.0, 696.774193548) scale(0.730222329819)"><use xlink:href="#car9" /></g><g transform="translate(276.0, 696.774193548) scale(0.714142758209)"><use xlink:href="#car0" /></g><g transform="translate(336.0, 696.774193548) scale(0.694153952263)"><use xlink:href="#car1" /></g><g transform="translate(396.0, 696.774193548) scale(0.701089376042)"><use xlink:href="#car2" /></g><g transform="translate(456.0, 696.774193548) scale(0.726152480838)"><use xlink:href="#car3" /></g><g transform="translate(516.0, 696.774193548) scale(0.692145943125)"><use xlink:href="#car4" /></g><g transform="translate(36.0, 703.35483871) scale(0.682144045129)"><use xlink:href="#car5" /></g><g transform="translate(96.0, 703.35483871) scale(0.700105053097)"><use xlink:href="#car6" /></g><g transform="translate(156.0, 703.35483871) scale(0.689186660154)"><use xlink:href="#car7" /></g><g transform="translate(216.0, 703.35483871) scale(0.738578883875)"><use xlink:href="#car8" /></g><g transform="translate(276.0, 703.35483871) scale(0.730222329819)"><use xlink:href="#car9" /></g><g transform="translate(336.0, 703.35483871) scale(0.714142758209)"><use xlink:href="#car0" /></g><g transform="translate(396.0, 703.35483871) scale(0.694153952263)"><use xlink:href="#car1" /></g><g transform="translate(456.0, 703.35483871) scale(0.701089376042)"><use xlink:href="#car2" /></g><g transform="translate(516.0, 703.35483871) scale(0.726152480838)"><use xlink:href="#car3" /></g><g transform="translate(36.0, 709.935483871) scale(0.692145943125)"><use xlink:href="#car4" /></g><g transform="translate(96.0, 709.935483871) scale(0.682144045129)"><use xlink:href="#car5" /></g><g transform="translate(156.0, 709.935483871) scale(0.700105053097)"><use xlink:href="#car6" /></g><g transform="translate(216.0, 709.935483871) scale(0.689186660154)"><use xlink:href="#car7" /></g><g transform="translate(276.0, 709.935483871) scale(0.738578883875)"><use xlink:href="#car8" /></g><g transform="translate(336.0, 709.935483871) scale(0.730222329819)"><use xlink:href="#car9" /></g><g transform="translate(396.0, 709.935483871) scale(0.714142758209)"><use xlink:href="#car0" /></g><g transform="translate(456.0, 709.935483871) scale(0.694153952263)"><use xlink:href="#car1" /></g><g transform="translate(516.0, 709.935483871) scale(0.701089376042)"><use xlink:href="#car2" /></g><g transform="translate(36.0, 716.516129032) scale(0.726152480838)"><use xlink:href="#car3" /></g><g transform="translate(96.0, 716.516129032) scale(0.692145943125)"><use xlink:href="#car4" /></g><g transform="translate(156.0, 716.516129032) scale(0.682144045129)"><use xlink:href="#car5" /></g><g transform="translate(216.0, 716.516129032) scale(0.700105053097)"><use xlink:href="#car6" /></g><g transform="translate(276.0, 716.516129032) scale(0.689186660154)"><use xlink:href="#car7" /></g><g transform="translate(336.0, 716.516129032) scale(0.738578883875)"><use xlink:href="#car8" /></g><g transform="translate(396.0, 716.516129032) scale(0.730222329819)"><use xlink:href="#car9" /></g><g transform="translate(456.0, 716.516129032) scale(0.714142758209)"><use xlink:href="#car0" /></g><g transform="translate(516.0, 716.516129032) scale(0.694153952263)"><use xlink:href="#car1" /></g><g transform="translate(36.0, 723.096774194) scale(0.701089376042)"><use xlink:href="#car2" /></g><g transform="translate(96.0, 723.096774194) scale(0.726152480838)"><use xlink:href="#car3" /></g><g transform="translate(156.0, 723.096774194) scale(0.692145943125)"><use xlink:href="#car4" /></g><g transform="translate(216.0, 723.096774194) scale(0.682144045129)"><use xlink:href="#car5" /></g><g transform="translate(276.0, 723.096774194) scale(0.700105053097)"><use xlink:href="#car6" /></g><g transform="translate(336.0, 723.096774194) scale(0.689186660154)"><use xlink:href="#car7" /></g><g transform="translate(396.0, 723.096774194) scale(0.738578883875)"><use xlink:href="#car8" /></g><g transform="translate(456.0, 723.096774194) scale(0.730222329819)"><use xlink:href="#car9" /></g><g transform="translate(516.0, 723.096774194) scale(0.714142758209)"><use xlink:href="#car0" /></g><g transform="translate(36.0, 729.677419355) scale(0.694153952263)"><use xlink:href="#car1" /></g><g transform="translate(96.0, 729.677419355) scale(0.701089376042)"><use xlink:href="#car2" /></g><g transform="translate(156.0, 729.677419355) scale(0.726152480838)"><use xlink:href="#car3" /></g><g transform="translate(216.0, 729.677419355) scale(0.692145943125)"><use xlink:href="#car4" /></g><g transform="translate(276.0, 729.677419355) scale(0.682144045129)"><use xlink:href="#car5" /></g><g transform="translate(336.0, 729.677419355) scale(0.700105053097)"><use xlink:href="#car6" /></g><g transform="translate(396.0, 729.677419355) scale(0.689186660154)"><use xlink:href="#car7" /></g><g transform="translate(456.0, 729.677419355) scale(0.738578883875)"><use xlink:href="#car8" /></g><g transform="translate(516.0, 729.677419355) scale(0.730222329819)"><use xlink:href="#car9" /></g><g transform="translate(36.0, 736.258064516) scale(0.714142758209)"><use xlink:href="#car0" /></g><g transform="translate(96.0, 736.258064516) scale(0.694153952263)"><use xlink:href="#car1" /></g><g transform="translate(156.0, 736.258064516) scale(0.701089376042)"><use xlink:href="#car2" /></g><g transform="translate(216.0, 736.258064516) scale(0.726152480838)"><use xlink:href="#car3" /></g><g transform="translate(276.0, 736.258064516) scale(0.692145943125)"><use xlink:href="#car4" /></g><g transform="translate(336.0, 736.258064516) scale(0.682144045129)"><use xlink:href="#car5" /></g><g transform="translate(396.0, 736.258064516) scale(0.700105053097)"><use xlink:href="#car6" /></g><g transform="translate(456.0, 736.258064516) scale(0.689186660154)"><use xlink:href="#car7" /></g><g transform="translate(516.0, 736.258064516) scale(0.738578883875)"><use xlink:href="#car8" /></g><g transform="translate(36.0, 742.838709677) scale(0.730222329819)"><use xlink:href="#car9" /></g><g transform="translate(96.0, 742.838709677) scale(0.714142758209)"><use xlink:href="#car0" /></g><g transform="translate(156.0, 742.838709677) scale(0.694153952263)"><use xlink:href="#car1" /></g><g transform="translate(216.0, 742.838709677) scale(0.701089376042)"><use xlink:href="#car2" /></g><g transform="translate(276.0, 742.838709677) scale(0.726152480838)"><use xlink:href="#car3" /></g><g transform="translate(336.0, 742.838709677) scale(0.692145943125)"><use xlink:href="#car4" /></g><g transform="translate(396.0, 742.838709677) scale(0.682144045129)"><use xlink:href="#car5" /></g><g transform="translate(456.0, 742.838709677) scale(0.700105053097)"><use xlink:href="#car6" /></g><g transform="translate(516.0, 742.838709677) scale(0.689186660154)"><use xlink:href="#car7" /></g><g transform="translate(36.0, 749.419354839) scale(0.738578883875)"><use xlink:href="#car8" /></g><g transform="translate(96.0, 749.419354839) scale(0.730222329819)"><use xlink:href="#car9" /></g><g transform="translate(156.0, 749.419354839) scale(0.714142758209)"><use xlink:href="#car0" /></g><g transform="translate(216.0, 749.419354839) scale(0.694153952263)"><use xlink:href="#car1" /></g><g transform="translate(276.0, 749.419354839) scale(0.701089376042)"><use xlink:href="#car2" /></g><g transform="translate(336.0, 749.419354839) scale(0.726152480838)"><use xlink:href="#car3" /></g><g transform="translate(396.0, 749.419354839) scale(0.692145943125)"><use xlink:href="#car4" /></g><g transform="translate(456.0, 749.419354839) scale(0.682144045129)"><use xlink:href="#car5" /></g><g transform="translate(516.0, 749.419354839) scale(0.700105053097)"><use xlink:href="#car6" /></g></g></svg>