<?xml version="1.0" encoding="utf-8" ?>
<svg baseProfile="full" height="859.459459459px" version="1.1" width="800px" xmlns="http://www.w3.org/2000/svg" xmlns:ev="http://www.w3.org/2001/xml-events" xmlns:xlink="http://www.w3.org/1999/xlink"><defs /><polyline fill="#000000" id="month199609" points="509.857183689,0.0678547765711 512.37774638,1.20382823672 514.661707144,4.25698872957 517.656648875,6.55457721137 517.656540736,9.66109325042 514.777481314,11.9606169746 514.778466829,14.9507520294 517.768036491,14.9516183429 520.070310592,12.3092993819 523.055719901,16.9194322874 523.055678821,31.9579216556 520.189100457,41.1812250029 520.190116167,50.5327796973 523.170334487,56.303916952 525.479331739,62.495239472 528.574210099,65.9604916091 530.885758528,68.9942853719 533.978600218,68.9945833164 536.292173122,66.1420253409 539.383002533,66.1430741702 541.699147021,69.1127917403 544.909514438,71.4276412589 549.544523761,74.2715170776 558.561179827,71.9531866894 563.199709739,63.185273101 566.530467545,60.8669574397 571.174093233,63.7051141757 580.237664172,66.0262932786 586.044194714,69.1083692759 592.080855411,71.4326407964 593.243704164,74.5128386667 590.478219443,76.8389761185 590.479971188,79.9173202532 593.494811149,82.2452992451 596.988062531,85.3218140353 603.139709439,87.651610176 608.965658209,90.726320013 617.994613046,93.0579089113 622.65877726,96.1308381864 625.859436917,98.4641954509 628.194361174,101.535368555 631.26466534,103.870469795 633.600629421,106.93991112 636.669214003,109.276731943 639.00541014,112.34446588 641.80854661,114.681865881 639.468719209,117.549509492 630.603148239,116.38029778 624.753838042,110.71602655 618.827240739,110.717597069 618.82613571,116.510095708 624.414749898,120.02354876 624.4124011,123.151608547 618.560103237,125.49744549 613.870379881,128.624672403 607.820669858,132.145614571 604.300571778,138.330017459 601.311919299,145.373308006 601.311903746,157.257925069 604.231183203,163.130787134 606.582069591,166.390920402 609.843051444,168.743353286 615.720929764,171.796818337 627.309439057,174.149493478 629.661762695,177.201495053 624.183683128,179.556052064 623.008489215,182.676397342 625.709598867,186.209470892 625.708828305,192.167868049 622.940838413,195.702692059 622.942947623,198.820565204 625.990667472,201.17844498 630.707707389,204.08330855 639.632730062,204.082968076 645.532103076,201.179446026 651.620567381,198.819326883 655.163361917,195.775593945 658.277680518,193.414194646 660.642493233,190.5151407 663.899824958,190.515928689 669.809950148,193.485705546 681.612332421,197.031753076 688.706580955,202.967334027 694.857059801,206.51489553 698.407893762,209.480747171 701.518429061,209.481876762 703.887278827,206.735205706 706.997192674,206.736458176 710.553366773,209.627098744 716.918215927,211.994307752 727.582430397,214.809318551 748.164438105,213.624983384 760.016108553,207.997995968 769.115632991,206.814938663 771.490979906,209.774771807 768.975823222,214.518494377 770.164463354,223.318036003 775.930795064,228.064831027 779.490986803,231.24402115 782.595617514,233.62060257 784.971698056,236.725086643 788.001024906,240.289331379 790.377600433,246.272336983 793.405939438,251.027508103 795.782454242,257.308568357 798.65937094,265.629955115 798.65808915,280.237757607 795.631212707,287.372639333 790.873687075,290.699975989 782.023684036,293.081946497 776.074014491,296.107020122 769.949087831,298.486733632 765.184545823,301.358981123 758.908790718,301.359831257 750.572852824,298.640784943 735.915270207,298.642059022 727.577594508,301.512224081 721.381028608,303.895531618 717.803972964,307.070350868 714.706196179,311.83764613 712.322810132,320.593839523 709.532745628,325.362284354 710.725099315,328.535931655 716.457221117,330.922622868 720.034443008,333.942062111 723.130526361,336.328384995 725.517747972,339.347116893 728.536135343,341.734688264 730.923491806,344.830146879 733.941208417,348.411763641 736.329223445,354.369134724 739.346293688,359.145250463 741.733264817,365.178762873 744.51636608,369.956116661 743.321509091,375.910556984 737.523154734,379.493689405 732.745147465,382.431125835 726.714592494,382.432674655 721.93434757,379.729889377 715.983071975,379.73115308 712.395022198,382.589378878 709.067726152,384.978310909 703.090042479,387.835538222 691.505392833,387.835414413 685.527425057,384.978674925 682.278939096,382.588782063 679.884821949,379.732945966 676.872044568,379.733057394 674.479200071,382.588454449 671.466849537,384.980363051 669.074742864,387.992509308 666.220443461,390.384812725 666.220539412,393.238831766 669.074460751,393.239895553 671.467322118,390.544147214 674.478538458,390.54538918 676.871734819,393.398532996 679.724486935,395.791893404 679.724409554,398.802624968 676.87196233,401.198611934 674.479322092,404.367389805 671.627421657,409.156499655 671.627486656,417.870211779 674.479130984,422.660288581 676.873444017,425.907961082 679.88325786,429.502542929 682.277786246,435.442671912 685.12867893,440.234856091 685.127461271,446.412635897 682.117956643,453.598866948 677.32813109,465.239229605 668.617995195,471.228353575 663.826780094,474.475795078 660.658784861,476.877349513 658.261279516,480.363262983 655.252258389,489.948874382 652.857003127,510.534861624 650.007070649,527.303689258 650.007086125,547.968464035 652.856957625,558.754583859 655.251159213,565.408382 658.100959393,573.798726726 658.102131743,588.524801719 655.411381771,599.30705826 655.412554121,611.342377338 658.262354301,619.7309534 660.656555888,628.837030547 663.506427389,636.027210078 663.507617337,645.053916737 660.816653404,652.24332568 660.81663271,661.27025186 663.507763057,668.458231334 663.506030317,677.326555473 660.576389491,682.11913546 656.983850056,685.287225112 651.124149589,687.684538376 647.530034158,690.693879638 644.36185622,693.090446405 640.768038285,696.179292891 634.907492773,699.772382281 631.315671522,705.63317678 628.385064085,709.227174053 628.385003956,712.474846554 631.315733121,717.264923356 634.906804371,725.978635481 640.769070153,730.769489325 644.359811627,734.175575981 647.29139579,740.162525982 647.292054502,751.810082319 644.439302387,758.990238599 642.045527705,764.933539783 638.955400193,766.131923505 635.364999113,763.357390627 629.499594594,760.9652902 625.909650156,757.953534203 622.81887774,755.560076876 620.425042354,752.547930619 617.412691821,750.154302612 615.021564227,747.063159777 612.244374155,743.474844899 613.438693404,737.605901755 618.994305992,734.018150068 620.188175005,730.92621185 617.331424762,728.533372344 613.746015905,725.441177858 607.795910701,721.855006971 603.015159328,715.982442208 597.063756378,712.395798327 593.479204062,709.146702351 590.5417147,704.367147298 590.539884484,695.632146374 593.24432796,690.848420165 593.244472818,686.899461729 590.538864444,672.570941894 590.538157859,640.939361393 593.167491579,626.614127651 591.973169435,622.821106481 586.247528312,620.428963671 582.668072259,617.565415685 579.572354089,617.5657918 577.185128518,620.507108235 574.166045997,624.085401267 571.780079835,630.04719426 568.760277771,634.815677098 566.375043347,640.549066421 563.35449735,640.549991269 560.970019055,634.891645498 557.948704734,631.318655932 555.563933908,628.373127831 552.389284012,628.37131404 547.626372663,631.088743759 539.090516119,631.087881183 537.899490181,628.216886821 543.490776441,625.835785321 547.057934632,622.735821264 549.855783784,619.165297062 547.477479374,613.266475554 538.854467117,609.697062513 534.095917176,606.595529189 530.692893603,604.217073177 524.746984312,601.34040474 513.013177709,601.340163313 505.881834214,604.217783009 499.675148888,606.59381665 494.920968732,609.622646528 488.862315031,611.998725083 484.112679232,615.028555003 478.274875926,617.403621321 477.086203564,620.434475674 479.746619011,622.809004446 479.745379028,625.914823691 476.861027693,629.472160568 474.489596846,635.16956344 471.456074699,635.1720775 469.084743292,629.765538677 466.050111343,630.94975256 463.678448936,639.322735812 460.423715437,640.507285904 454.502458778,635.018783267 442.719149727,633.836996544 435.617094569,636.728527132 429.467884254,640.277409186 425.915788538,646.20997212 422.659769573,649.758786988 417.929120166,652.870998485 409.023598892,655.236791549 403.115176389,658.349656532 397.174353191,661.895358081 395.991006576,667.979934566 398.67699426,673.884206079 398.673240291,682.801856677 395.345787124,687.523768458 385.908963907,690.71097753 365.43809888,693.072011804 356.003265126,696.188846112 352.46228919,699.726173651 348.923765418,705.751245919 342.967096076,710.464283066 339.434262032,716.492795873 336.523302553,720.02673324 337.699322377,723.216522656 343.523765146,726.748805042 347.053191032,732.921563449 350.244119242,739.977541867 353.773092878,751.846954271 359.949723807,757.724680146 366.999467216,760.985881467 378.948720298,763.337228206 385.99470316,766.461725025 392.177742034,769.984591486 395.699854696,776.167891587 398.826482561,783.205790584 401.17194351,795.106841959 404.098092442,800.969284609 404.098497915,804.232304896 401.170751356,806.576169034 398.82887911,809.505874099 395.765306931,809.507414321 393.42429386,806.774482371 390.359075272,807.944332083 388.019720807,813.812287397 384.952831417,817.319158976 382.615159949,820.452632149 379.546575367,822.791598169 377.209906038,826.185683441 374.010156754,834.354993788 369.343518681,852.005784292 360.514042409,857.837603842 358.181367291,854.959897997 360.997960766,847.96879279 363.326621034,832.915294053 366.275320721,822.43332621 366.275781908,810.253312632 363.325265072,804.432336319 360.998861719,801.164276899 357.919593766,798.837162991 355.59407487,795.756965121 352.450806067,793.432078057 348.966355994,790.226182312 342.92412588,785.58190277 339.442050342,776.453786972 336.295428037,769.492702655 333.975627533,760.173991153 330.888749507,752.060821696 328.569790831,740.073036119 325.179479081,736.596391535 317.077332635,739.203405583 299.073103819,738.045198406 289.819448667,731.982125837 283.453826744,726.202322524 279.985163222,717.098524366 276.830945986,712.477217041 274.52218815,709.263118269 271.658690931,706.954628666 273.964572246,703.972874269 282.912479256,703.9725811 287.523388797,707.014044755 290.912326132,710.468539443 296.669327447,716.329799999 308.739777113,715.180304396 314.492555985,706.265979676 317.768532501,701.66660833 320.068090725,698.446906765 323.175701322,696.149086948 325.472399691,693.151472999 328.582477599,693.150237113 330.878015614,696.037595072 334.042797306,696.036626396 337.489549258,693.040642662 343.589913917,690.741951379 347.039390497,687.579674154 350.200328476,684.128041071 352.503393418,678.035711881 355.778427035,674.581399835 361.539181966,671.422906048 373.592317068,669.11734221 379.356752208,666.018317337 382.629068359,663.71089103 384.938534939,660.613951609 388.093537245,658.304452045 391.559587813,655.209573685 397.688205298,652.897754649 402.313069835,649.745093604 408.496734837,646.274757117 413.125604827,640.213211696 419.244740443,636.740378903 422.719335554,633.591243334 425.8677215,631.273412656 428.185940899,628.186534629 431.148935434,625.866734125 431.14814223,622.72011182 428.12516473,619.237728511 424.641641193,613.133363479 418.477040559,608.487323749 412.666749666,602.387636642 403.551315935,598.900062124 397.736847955,595.758213507 391.580596748,593.431491684 388.088206003,590.480974848 384.884783083,590.481436036 381.389870107,593.430135723 375.368215321,595.759138612 371.870009848,598.640037845 368.474925857,597.474174507 361.475030515,591.717163178 346.636939679,590.552104798 339.633912253,593.493374858 336.304755771,596.99648132 333.9665113,603.068516912 330.898777363,607.741656508 328.561005357,613.545744138 325.62722597,612.375381947 325.626133799,603.575749207 328.29214847,597.726429632 325.949119879,591.733112597 317.093863119,590.56202817 311.236954821,593.423819132 305.047746737,595.767316415 300.357650021,598.895147027 294.306188339,602.413710965 290.787252178,608.395942908 287.797649593,611.916455183 287.796823543,615.041534203 290.580438531,617.390876888 290.579243979,620.446582885 287.661077962,622.798285807 285.311539994,626.05926766 282.396274337,631.938413155 282.397070911,643.73474037 285.380317228,649.61772225 288.90955293,653.085661713 294.73188541,658.971988004 295.90825968,670.54285417 292.998344596,672.898506471 289.463151893,667.502426573 283.296867105,667.505741718 276.224189065,673.31876506 264.53332821,678.03457902 260.995535526,684.055092094 263.686765554,687.595910344 266.044625168,690.782456355 268.945579686,694.324205495 268.945251593,700.124511779 266.045589811,701.305050477 263.682905109,698.477873174 260.641733253,696.113618159 258.276874677,692.856656881 255.236946776,686.942494195 252.870856441,675.00164836 249.832148103,665.537705445 247.464850401,653.603408384 244.427337235,647.685574541 242.058856557,644.649483416 239.02251417,645.833016264 236.653852234,651.685581193 233.765446369,656.425037804 233.764745328,662.56782919 236.504712273,668.495308569 236.503452116,677.374771546 233.617792646,682.118861197 231.245813946,685.298873909 228.213910769,687.673370228 225.839881079,690.704745944 222.809026726,693.079296997 220.434978257,696.109636084 217.554456643,698.485722392 217.55522315,701.589821345 220.509633326,705.154809992 224.07381871,711.136715898 229.979521296,715.890787368 233.545930815,721.870309041 236.64795105,725.43794353 239.027438156,728.539609442 242.053414257,730.920083895 244.43119037,734.021269303 247.153189922,737.590294339 244.7730307,743.336277827 236.155466203,744.52602625 231.392917293,741.729876591 227.989106175,739.349403573 222.033133284,736.326479428 210.400707349,733.943586565 204.445991456,730.921479528 201.424848243,728.537240712 202.613949265,725.439278682 208.195921578,721.86246374 209.386440305,715.898019454 206.596483803,711.128639843 204.211416061,705.166036548 201.037805828,701.588277507 196.265531304,698.646531574 187.440757079,698.646159898 181.474950888,701.510209848 175.439012199,703.896464779 171.857010515,706.91418139 168.762210464,709.299411327 166.375553511,711.928293512 163.669640092,708.345484428 166.056664787,696.745661757 174.482851174,688.387245356 176.868745948,679.417753519 174.008617885,674.639341029 169.231595674,671.702384246 160.498810327,672.896104658 155.718720582,678.613217015 152.548019527,682.195597898 150.155118021,684.974770593 147.062804863,682.586477709 143.475761788,674.250673875 137.605671798,673.056708145 134.019179691,678.612540711 131.084868762,682.198238809 131.083260855,685.289545293 133.781291444,687.684111555 133.780039938,690.853925519 130.925260146,695.638241008 128.532375328,704.201324463 125.441750854,706.595941575 121.851529659,704.215313595 115.986570298,706.610658276 112.395907683,715.170678182 109.305906616,719.955254244 106.910228523,722.88692332 103.82039403,721.688885523 100.229867624,715.667512787 94.5256013171,707.289094947 93.3287329223,692.791799887 96.1013949846,685.607970958 98.4950077091,682.281122933 101.504934362,679.88331274 103.900525924,676.873498897 106.910233055,674.477800623 109.306031943,671.468194106 112.315543945,669.072300701 114.711525767,666.062877119 117.720867029,663.666812975 120.118766742,660.657547936 123.366303763,658.260164084 129.352928262,655.092110962 140.59456406,650.30059236 141.792083964,641.591419758 133.480459074,636.800929929 128.691060378,633.792028905 125.443662647,633.789107158 121.849448726,636.400439006 116.14980051,635.201561811 114.950938328,629.501944084 117.562177408,625.910019497 117.56041431,622.980712506 114.710624724,622.977183423 112.315232956,625.429417516 109.306379519,621.835199852 106.911023643,610.435771739 104.061108783,604.447428479 104.061090212,601.199987803 106.911078246,598.801795665 109.30511469,595.792774538 112.155292912,593.396442091 112.157082447,590.387311203 109.545028858,587.990514796 110.743630609,584.901852318 116.444688644,581.304264474 120.035755407,574.888673247 122.96597634,562.913438566 122.966611155,539.788591563 120.115572993,527.815203288 117.721150578,521.557487485 114.711223925,520.356154816 112.31586408,523.12842486 109.305693515,525.520746002 106.906520456,528.372773794 103.342361087,528.374587312 92.5688175008,525.759481435 69.4318383236,526.957864948 56.2670095967,532.742436651 46.9966156432,537.527096284 42.2052528722,543.233884281 39.0359579102,543.235794669 36.6409658756,537.764772338 33.6292098786,536.570114306 31.235177819,539.345589372 28.1443483291,541.735397973 24.5542455061,544.511848596 18.5292249948,543.316161148 12.5505703696,537.605035399 3.90405177119,534.01808936 1.51221204941,530.926331638 4.21177610615,528.533818173 6.60176279117,525.520113924 9.69395727731,523.128659729 13.2789965292,520.11445546 18.995323664,517.723513481 20.1897357406,514.708784799 17.3311035852,512.317816737 13.7493620996,509.224617984 8.0297861703,505.639924164 6.8342299291,499.686144072 9.46139738633,494.908187712 9.45987067242,488.875291181 6.59853585998,484.096325338 4.21242626947,477.829723553 1.34985523794,469.4730237 1.34858397018,454.771563543 4.05731260926,445.221978914 4.05747816122,435.780649074 1.34741820928,425.042519319 1.34834021912,407.544534478 4.21360847403,399.194844706 6.59811560907,395.790038484 9.6182865905,393.400442875 12.0031459989,390.149953753 15.0240731093,384.189590073 17.408164193,372.410738374 20.4298718238,364.070391742 22.8131701916,355.080151025 25.8356827339,350.313619865 28.2181639945,347.138152862 31.2415058396,344.75342881 33.6236741386,341.502047183 36.7236381958,335.550932767 40.2978386526,323.907013402 46.7255607209,317.957430634 58.6201125661,314.704918038 81.8471970659,312.323393226 92.5502397359,309.221727314 96.1045236768,305.654092825 98.4861933178,299.674571152 101.514047546,294.919986984 103.891113947,288.863308975 106.919943825,284.110157921 109.29602238,278.05150422 112.325852301,273.300858307 114.700918618,267.314471755 117.731772971,263.752012532 120.105802661,260.572302492 123.137705838,257.012177748 125.510674507,251.095134965 128.5436509,247.536852791 130.915534158,244.429542656 133.949608157,242.057716265 136.320381613,239.023084316 139.355577611,236.652874908 141.725216873,233.617108765 144.761559259,231.247565836 147.130039937,228.137929857 150.167553104,224.586241617 152.535323908,218.582737461 155.646315842,213.850291778 159.194828135,207.843799785 165.130409086,204.295427221 168.677384019,201.182742242 171.790547131,198.817117658 174.154615643,195.632230894 177.197055844,190.905712669 179.559377729,181.777075731 182.603110667,172.332989059 184.964576524,157.466284392 188.080390597,149.205888852 191.619751804,142.972289951 197.641770966,139.432250721 202.357553859,136.314575141 208.3829532,133.956483444 211.918563339,130.908033846 215.037826787,128.551776238 217.393816035,125.501924143 220.444378525,123.147081228 222.798504947,120.095802244 225.850506522,117.741978801 228.203181663,114.620323231 231.256646714,111.093013945 233.607846184,105.122099564 236.662799101,101.595422487 239.011687765,98.2665044956 241.932089653,92.3951280448 241.932479651,80.5065431911 239.010541113,73.4655520224 236.664719913,67.2797743713 233.605157048,63.7596213387 231.260104175,60.5646889271 228.198955878,57.048496901 225.856263398,51.0584181146 222.926558333,47.5446288738 222.926518728,44.4143369631 225.923993784,42.072942509 229.433675807,39.0077239207 235.565381147,36.6683694553 241.410360774,33.6014800657 250.417149534,31.2638085972 255.09192661,28.1952240152 258.486828117,25.8603178063 264.32359235,22.9841813187 276.219953753,24.1502875666 282.053300231,30.0359104121 285.38386934,33.5338010731 288.882064671,36.6719233383 294.967389158,39.0022967093 299.626971159,41.9509963966 305.843239167,41.9514575842 311.662310528,39.0009407481 320.708501772,36.674537395 325.361236589,33.5952694414 328.629395706,31.2700619063 332.116201593,28.1889280214 338.217995074,25.8665110909 342.862746633,22.9685370327 349.092159109,24.1285215536 354.89249443,30.113349247 363.966764806,34.751158158 368.607161189,40.8641512641 372.482829786,44.3401594501 387.53553389,47.3691758291 423.347127248,47.3696916728 439.54778348,44.3396309981 446.153283203,40.869816684 447.313605836,34.6846137845 444.516681308,28.9073077904 444.517471785,19.9174220175 447.612399301,17.6066368534 452.227792678,20.3514447436 461.288290666,20.3514400834 465.901081795,17.4848617193 469.117383244,17.484350282 471.422602612,20.3550414519 474.639011561,20.3555588018 479.242516755,17.4807072791 488.384749481,17.4799651859 494.134300733,20.3026901753 500.347850918,19.1536306533 503.794834205,13.1074127582 506.904069353,8.53927654411 508.040253332,3.49815116158 509.857183689,0.0678547765711" stroke="#000000" stroke-width="2" /><polyline fill="#FFFFFF" id="month201609" points="426.704711412,167.635259296 442.058175569,168.770846695 460.36269405,171.711003552 490.975272329,171.710272329 509.379249242,168.833068977 527.933011451,168.83446997 535.998517534,171.820584077 539.444379544,174.126758069 542.908522437,177.223675718 548.980677939,179.533988945 552.44842153,182.62727497 555.659655061,184.941463942 559.13359178,188.09189948 565.188155562,191.568177739 568.666465047,197.6184631 571.874045346,201.099032897 575.358278693,204.243407596 581.396015613,206.568252778 584.884099954,209.710882043 588.024709517,213.202885618 590.354149257,219.356220533 593.428842524,225.182729994 595.76112901,234.273627836 598.832692899,240.109285567 601.167344413,246.64056867 604.104495197,257.15701083 604.10374019,277.969331676 601.169564247,288.49544207 598.829744369,295.020474087 595.901216784,300.878841658 595.90193257,309.861004849 598.827639851,314.551086546 601.17382664,317.744300984 604.230902665,320.093421659 606.580574587,323.149155143 609.634984846,325.500571244 611.9872839,328.622963913 615.039105661,332.153232391 617.393954579,338.115176725 620.44326511,341.648579472 622.800586624,344.766545685 625.847463193,347.12550978 628.207180034,350.171198345 631.251699911,352.532083873 633.61373481,355.575454379 636.655975263,357.938619331 639.020721127,360.979749049 642.133096823,363.347012995 645.681590769,366.676328235 651.466582577,373.777934952 652.650563324,388.379692697 649.979813832,395.486358328 649.981760077,398.960603953 652.869036837,403.70754826 655.240523769,412.881254747 658.272526133,423.559776318 660.646846739,441.301051274 663.677033291,451.987868881 666.053131075,461.373888832 669.081579083,469.696527804 671.458336811,481.957808959 674.334286989,495.037700693 674.333884972,515.615892368 671.459518801,526.324263948 669.079599075,532.751163122 666.055903086,537.517745865 663.674543131,543.639989876 660.805203763,549.598553082 660.80446297,558.663616288 663.518899475,567.009509263 663.518590425,579.090880626 660.806639198,589.824246482 660.808031981,604.533642312 663.672336207,611.695611719 666.057660858,615.332215864 668.919781052,622.497549937 668.920634911,637.038436334 666.215235779,645.398338622 666.216595698,651.741027324 669.076230106,657.719184705 671.464522459,666.84213296 674.322424704,676.403441433 674.31994198,691.003740286 671.14907449,698.176453398 663.975044152,701.346050197 649.460256362,701.348150516 641.088335372,698.492668096 634.906820503,696.100052688 631.314949718,693.009308129 628.224551735,689.42032677 625.829952196,683.71321126 622.818812356,682.518568756 620.424324643,685.529789036 617.41360978,691.514347073 615.018735725,703.240220202 612.008368571,711.618167339 609.612603401,720.332013399 606.523292325,721.530684159 602.930728109,715.985883939 597.069386423,712.394395116 593.477795464,709.146799192 590.547295539,704.356127631 590.545556143,695.643919977 593.238227641,690.847942638 593.238237006,686.887015638 590.545490196,672.518067821 590.544879694,640.99484748 593.158638077,626.627469404 591.960420348,622.825129014 586.257029348,620.425158425 582.665966456,617.573186071 579.576439956,617.573687468 577.180984814,620.505011334 574.170269951,624.095837121 571.775782239,630.038630071 568.764642399,634.824276233 566.370618298,640.531749346 563.358976212,640.532598232 560.965492991,634.902728193 557.95327139,631.316319633 555.559265125,628.382152379 552.389498458,628.380264312 547.608184132,631.079732668 539.115538885,631.078787579 537.919899448,628.221488623 543.479384151,625.831079552 547.060241915,622.738269868 549.842257418,619.153807241 547.454805573,613.277909363 538.872527974,609.694652224 534.09560976,606.600140057 530.691055816,604.21260105 524.722635737,601.349146343 513.035037822,601.348852185 505.877264026,604.213465921 499.683847755,606.598133878 494.912477819,609.618401072 488.870649182,612.002892158 484.104602752,615.024472919 478.288470158,617.407611805 477.095651489,620.4305834 479.739376936,622.812818742 479.738164624,625.912862396 476.864531995,629.480890378 474.486163509,635.156344505 471.459376777,635.159213897 469.081579083,629.77907921 466.053131075,630.96601084 463.675521756,639.307659436 460.422711409,640.495345062 454.488594918,635.027251538 442.730744872,633.842856542 435.614856738,636.72736617 429.472839579,640.282409478 425.914837196,646.205537299 422.659996982,649.75961204 417.923454076,652.869565217 409.027716317,655.238009445 403.112771059,658.349058591 397.032180982,661.895449045 393.485017824,667.690944627 390.370953453,668.872914095 388.009354473,666.044224491 385.10631848,663.684711858 385.106160238,660.639023293 388.08172637,658.280494457 391.616510918,655.232410566 397.644958533,652.875889895 402.354221111,649.75604709 408.457864632,646.226411236 413.162051689,640.258156829 419.202514278,636.731751684 422.727360443,633.607346224 425.852794397,631.258605793 428.199387176,628.200167908 431.125094457,625.854196552 431.12543066,622.726258079 428.130525712,619.212471814 424.619304557,613.151033747 418.488927547,608.472039253 412.644059504,602.403335041 403.569169958,598.897612195 397.731047905,595.762258832 391.587186585,593.428739242 388.087674884,590.483336527 384.885269997,590.482532494 381.391980941,593.431103222 375.362370631,595.756996586 371.872236656,598.649575813 368.480658813,597.489636929 361.515581519,591.695440194 346.584997587,590.534931226 339.62700914,593.497329872 336.294568897,596.972133885 333.977737732,603.090893355 330.886238544,607.717110485 328.574630392,613.608598935 325.596705156,612.455995209 325.594807239,603.518471499 328.345589854,597.753374962 326.042443224,591.665744891 317.02253084,590.512614191 311.270501679,593.445258242 305.001027527,595.743852282 300.406739272,598.907535802 294.240755618,602.348658432 290.799853099,608.458754385 287.748866494,611.9037628 287.74918713,615.065985263 290.626390483,617.367190666 290.62498949,620.469700631 287.638875382,622.775225431 285.33321262,626.049738283 282.35432841,631.821567396 282.355519438,643.847849545 285.390641487,649.626841556 288.86057857,653.077543772 294.79806084,658.867138384 295.95487613,670.671520215 292.989213218,672.988414125 289.507741825,667.433693623 283.278916908,667.437175057 276.306675067,673.351858354 264.302472692,678.000732706 258.485574493,683.839133189 255.219996406,682.672199824 252.888301983,673.701287618 249.815183064,665.54060941 247.481341547,653.513481485 244.411313372,647.677634383 242.074419746,644.611268217 239.007405046,645.780524671 236.668295744,651.714557054 233.737655089,656.396490371 233.737599948,662.588824991 236.530605111,668.448856217 236.529129109,677.425825352 233.605467777,682.118673853 231.257929692,685.311182035 228.202196209,687.661655668 225.851201062,690.716065927 222.798094711,693.068364981 220.445372194,696.120186742 217.534580351,698.47503566 217.533448369,701.524346191 220.15992767,703.880778849 217.800210266,706.786171534 209.087023146,706.785573411 204.366702855,703.882537419 201.038173119,701.522324098 196.310833969,698.62373148 187.402648369,698.624290381 181.490903132,701.520680844 175.413475049,703.886187918 171.862031626,706.92410133 168.752564421,709.290197426 166.384505095,711.95951651 163.6437976,708.40295795 166.014300585,696.707690689 174.52299421,688.407748223 176.892475128,679.38638919 174.008508739,674.639233606 169.260642616,671.684520348 160.47122946,672.87170966 155.718760535,678.629683351 152.541485353,682.192557587 150.162885165,684.992704378 147.288108005,682.614048761 147.288500217,673.991683789 150.161732005,669.232226743 152.540252426,666.056960657 155.258020737,663.673469276 152.87633385,660.651202757 144.423281837,658.266294134 142.039427581,655.091829152 144.445510462,650.322322669 142.058047011,641.571092669 133.463068811,636.800838898 128.691069275,633.782947331 125.441305758,633.780467384 121.859612085,636.410299358 116.136672541,635.215047177 114.941924489,629.493131442 117.56864134,625.911622292 117.566728112,622.974589041 114.707772304,622.971422449 112.317916444,625.438424365 109.303908007,621.851392582 106.913256232,610.42357904 104.057078395,604.446273037 104.05725489,601.198062229 106.912737309,598.803485366 109.303626402,595.791263766 112.157903839,593.397780545 112.159498822,590.386138459 109.54258699,587.991536059 110.740470092,584.90140192 116.446438317,581.306137384 120.036690206,574.88918601 123.126263993,562.916873357 125.521882084,539.545930106 128.53210436,523.982571838 130.927413051,508.932253314 133.937403521,500.547212479 136.333488304,494.369013349 139.422586737,490.772760492 143.01544005,487.52518306 148.876423209,482.733879992 152.469324742,473.942441106 155.558355075,467.955068552 157.954555981,461.935474934 160.964391914,458.34152295 163.359893776,455.252368369 166.369884246,452.855789132 168.765192937,449.766533073 171.775415213,446.172051197 174.170453464,439.993218261 177.180984814,431.61418895 179.575675357,417.113849801 182.58659305,409.931333048 184.980858615,406.525331748 187.99223992,402.932621572 190.387726253,397.066977564 193.635702943,393.477255659 199.618427128,390.386278161 211.432533958,387.993979945 220.99921494,385.137989844 232.817093723,385.136668071 238.796870306,387.836870713 242.045942965,387.835938217 244.438627824,384.978035972 247.453486216,382.588621351 249.842460675,379.573309006 252.70280217,377.182574429 252.703057107,374.011095092 249.84171112,369.234682597 247.45474183,360.415263572 244.436869963,354.447947407 242.049906281,348.410788882 239.030875384,344.831612724 236.645109366,341.888455252 233.624842172,341.886505931 231.240351085,344.600942435 228.218770324,344.600201642 225.836694584,341.730862274 222.965646103,339.348444749 222.965273503,336.173178663 225.837790086,331.411629656 228.216935195,322.487591574 231.242920266,315.349865518 233.620511443,306.194472152 236.498451684,297.873922598 236.498883117,286.059052891 233.619242967,280.116644942 231.246045947,276.565737506 228.362941471,269.443169478 228.362470817,254.727525001 231.24742974,245.240160718 233.617945949,236.137557457 236.652816909,231.394519875 239.022356521,228.139202858 242.059236465,224.58617697 244.429079335,218.655520084 247.828460282,215.106069796 256.104024873,211.9936941 273.704147221,209.6298635 283.155160801,206.730207245 289.457123706,206.730975441 293.000576683,209.845136946 296.117284561,215.741745496 298.476262299,227.576679055 301.524346191,234.647928045 303.880441066,240.886896 306.930997553,245.5970434 309.284581198,251.631705481 312.337687549,255.160482539 314.688682695,258.283874238 317.744416179,260.6339622 320.092745559,263.691038225 323.151183443,266.038396112 325.496769788,269.165271063 328.557989342,272.680812364 330.900755383,278.67265784 333.964833875,282.183893884 336.304702343,285.18444719 339.371717043,285.185576278 341.708962011,282.248425494 344.843591,279.91377398 348.344300595,276.842210091 354.489795722,274.509923605 360.31550115,271.435230338 369.417406793,269.105790598 375.235933795,265.965181035 381.395777611,262.477096694 384.882852868,256.439359774 388.028025294,252.955126427 390.348615693,249.747546128 393.313462538,246.269236643 393.314345014,240.214672861 390.346021081,236.741005473 388.032680375,233.589217326 384.93939435,231.275543795 382.629578415,227.887534259 379.648952041,219.811122283 379.648010734,201.742277895 382.632346001,192.522730747 384.935638384,186.143702567 388.265444922,182.690577498 395.159669332,179.471550406 410.198544367,176.050670363 415.877757576,171.063253615 426.704711412,167.635259296" stroke="#000000" stroke-width="2" /></svg>