<?xml version="1.0" encoding="utf-8" ?>
<svg baseProfile="full" height="859.459459459px" version="1.1" width="800px" xmlns="http://www.w3.org/2000/svg" xmlns:ev="http://www.w3.org/2001/xml-events" xmlns:xlink="http://www.w3.org/1999/xlink"><defs /><g id="month199609"><circle cx="509.857183689" cy="0.0678547765711" r="2" /><circle cx="523.055719901" cy="16.9194322874" r="2" /><circle cx="520.190116167" cy="50.5327796973" r="2" /><circle cx="549.544523761" cy="74.2715170776" r="2" /><circle cx="566.530467545" cy="60.8669574397" r="2" /><circle cx="641.80854661" cy="114.681865881" r="2" /><circle cx="601.311919299" cy="145.373308006" r="2" /><circle cx="627.309439057" cy="174.149493478" r="2" /><circle cx="622.942947623" cy="198.820565204" r="2" /><circle cx="660.642493233" cy="190.5151407" r="2" /><circle cx="727.582430397" cy="214.809318551" r="2" /><circle cx="769.115632991" cy="206.814938663" r="2" /><circle cx="798.65937094" cy="265.629955115" r="2" /><circle cx="795.631212707" cy="287.372639333" r="2" /><circle cx="765.184545823" cy="301.358981123" r="2" /><circle cx="721.381028608" cy="303.895531618" r="2" /><circle cx="709.532745628" cy="325.362284354" r="2" /><circle cx="744.51636608" cy="369.956116661" r="2" /><circle cx="703.090042479" cy="387.835538222" r="2" /><circle cx="676.872044568" cy="379.733057394" r="2" /><circle cx="671.627486656" cy="417.870211779" r="2" /><circle cx="685.12867893" cy="440.234856091" r="2" /><circle cx="655.252258389" cy="489.948874382" r="2" /><circle cx="650.007086125" cy="547.968464035" r="2" /><circle cx="663.506030317" cy="677.326555473" r="2" /><circle cx="628.385064085" cy="709.227174053" r="2" /><circle cx="647.29139579" cy="740.162525982" r="2" /><circle cx="642.045527705" cy="764.933539783" r="2" /><circle cx="612.244374155" cy="743.474844899" r="2" /><circle cx="620.188175005" cy="730.92621185" r="2" /><circle cx="590.5417147" cy="704.367147298" r="2" /><circle cx="591.973169435" cy="622.821106481" r="2" /><circle cx="566.375043347" cy="640.549066421" r="2" /><circle cx="539.090516119" cy="631.087881183" r="2" /><circle cx="547.477479374" cy="613.266475554" r="2" /><circle cx="513.013177709" cy="601.340163313" r="2" /><circle cx="478.274875926" cy="617.403621321" r="2" /><circle cx="474.489596846" cy="635.16956344" r="2" /><circle cx="442.719149727" cy="633.836996544" r="2" /><circle cx="397.174353191" cy="661.895358081" r="2" /><circle cx="398.673240291" cy="682.801856677" r="2" /><circle cx="356.003265126" cy="696.188846112" r="2" /><circle cx="336.523302553" cy="720.02673324" r="2" /><circle cx="353.773092878" cy="751.846954271" r="2" /><circle cx="392.177742034" cy="769.984591486" r="2" /><circle cx="404.098497915" cy="804.232304896" r="2" /><circle cx="390.359075272" cy="807.944332083" r="2" /><circle cx="360.514042409" cy="857.837603842" r="2" /><circle cx="366.275320721" cy="822.43332621" r="2" /><circle cx="342.92412588" cy="785.58190277" r="2" /><circle cx="328.569790831" cy="740.073036119" r="2" /><circle cx="299.073103819" cy="738.045198406" r="2" /><circle cx="271.658690931" cy="706.954628666" r="2" /><circle cx="308.739777113" cy="715.180304396" r="2" /><circle cx="431.148935434" cy="625.866734125" r="2" /><circle cx="388.088206003" cy="590.480974848" r="2" /><circle cx="346.636939679" cy="590.552104798" r="2" /><circle cx="328.561005357" cy="613.545744138" r="2" /><circle cx="325.949119879" cy="591.733112597" r="2" /><circle cx="294.306188339" cy="602.413710965" r="2" /><circle cx="283.296867105" cy="667.505741718" r="2" /><circle cx="255.236946776" cy="686.942494195" r="2" /><circle cx="242.058856557" cy="644.649483416" r="2" /><circle cx="236.503452116" cy="677.374771546" r="2" /><circle cx="217.554456643" cy="698.485722392" r="2" /><circle cx="247.153189922" cy="737.590294339" r="2" /><circle cx="201.424848243" cy="728.537240712" r="2" /><circle cx="196.265531304" cy="698.646531574" r="2" /><circle cx="166.375553511" cy="711.928293512" r="2" /><circle cx="176.868745948" cy="679.417753519" r="2" /><circle cx="137.605671798" cy="673.056708145" r="2" /><circle cx="128.532375328" cy="704.201324463" r="2" /><circle cx="106.910228523" cy="722.88692332" r="2" /><circle cx="98.4950077091" cy="682.281122933" r="2" /><circle cx="141.792083964" cy="641.591419758" r="2" /><circle cx="116.14980051" cy="635.201561811" r="2" /><circle cx="104.061090212" cy="601.199987803" r="2" /><circle cx="120.035755407" cy="574.888673247" r="2" /><circle cx="122.966611155" cy="539.788591563" r="2" /><circle cx="69.4318383236" cy="526.957864948" r="2" /><circle cx="24.5542455061" cy="544.511848596" r="2" /><circle cx="1.51221204941" cy="530.926331638" r="2" /><circle cx="1.34834021912" cy="407.544534478" r="2" /><circle cx="22.8131701916" cy="355.080151025" r="2" /><circle cx="46.7255607209" cy="317.957430634" r="2" /><circle cx="96.1045236768" cy="305.654092825" r="2" /><circle cx="114.700918618" cy="267.314471755" r="2" /><circle cx="177.197055844" cy="190.905712669" r="2" /><circle cx="191.619751804" cy="142.972289951" r="2" /><circle cx="231.256646714" cy="111.093013945" r="2" /><circle cx="241.932479651" cy="80.5065431911" r="2" /><circle cx="222.926518728" cy="44.4143369631" r="2" /><circle cx="264.32359235" cy="22.9841813187" r="2" /><circle cx="299.626971159" cy="41.9509963966" r="2" /><circle cx="342.862746633" cy="22.9685370327" r="2" /><circle cx="372.482829786" cy="44.3401594501" r="2" /><circle cx="446.153283203" cy="40.869816684" r="2" /><circle cx="444.517471785" cy="19.9174220175" r="2" /><circle cx="500.347850918" cy="19.1536306533" r="2" /><circle cx="508.040253332" cy="3.49815116158" r="2" /></g><polyline fill="#FFFFFF" id="month201609" points="426.704711412,167.635259296 442.058175569,168.770846695 460.36269405,171.711003552 490.975272329,171.710272329 509.379249242,168.833068977 527.933011451,168.83446997 535.998517534,171.820584077 539.444379544,174.126758069 542.908522437,177.223675718 548.980677939,179.533988945 552.44842153,182.62727497 555.659655061,184.941463942 559.13359178,188.09189948 565.188155562,191.568177739 568.666465047,197.6184631 571.874045346,201.099032897 575.358278693,204.243407596 581.396015613,206.568252778 584.884099954,209.710882043 588.024709517,213.202885618 590.354149257,219.356220533 593.428842524,225.182729994 595.76112901,234.273627836 598.832692899,240.109285567 601.167344413,246.64056867 604.104495197,257.15701083 604.10374019,277.969331676 601.169564247,288.49544207 598.829744369,295.020474087 595.901216784,300.878841658 595.90193257,309.861004849 598.827639851,314.551086546 601.17382664,317.744300984 604.230902665,320.093421659 606.580574587,323.149155143 609.634984846,325.500571244 611.9872839,328.622963913 615.039105661,332.153232391 617.393954579,338.115176725 620.44326511,341.648579472 622.800586624,344.766545685 625.847463193,347.12550978 628.207180034,350.171198345 631.251699911,352.532083873 633.61373481,355.575454379 636.655975263,357.938619331 639.020721127,360.979749049 642.133096823,363.347012995 645.681590769,366.676328235 651.466582577,373.777934952 652.650563324,388.379692697 649.979813832,395.486358328 649.981760077,398.960603953 652.869036837,403.70754826 655.240523769,412.881254747 658.272526133,423.559776318 660.646846739,441.301051274 663.677033291,451.987868881 666.053131075,461.373888832 669.081579083,469.696527804 671.458336811,481.957808959 674.334286989,495.037700693 674.333884972,515.615892368 671.459518801,526.324263948 669.079599075,532.751163122 666.055903086,537.517745865 663.674543131,543.639989876 660.805203763,549.598553082 660.80446297,558.663616288 663.518899475,567.009509263 663.518590425,579.090880626 660.806639198,589.824246482 660.808031981,604.533642312 663.672336207,611.695611719 666.057660858,615.332215864 668.919781052,622.497549937 668.920634911,637.038436334 666.215235779,645.398338622 666.216595698,651.741027324 669.076230106,657.719184705 671.464522459,666.84213296 674.322424704,676.403441433 674.31994198,691.003740286 671.14907449,698.176453398 663.975044152,701.346050197 649.460256362,701.348150516 641.088335372,698.492668096 634.906820503,696.100052688 631.314949718,693.009308129 628.224551735,689.42032677 625.829952196,683.71321126 622.818812356,682.518568756 620.424324643,685.529789036 617.41360978,691.514347073 615.018735725,703.240220202 612.008368571,711.618167339 609.612603401,720.332013399 606.523292325,721.530684159 602.930728109,715.985883939 597.069386423,712.394395116 593.477795464,709.146799192 590.547295539,704.356127631 590.545556143,695.643919977 593.238227641,690.847942638 593.238237006,686.887015638 590.545490196,672.518067821 590.544879694,640.99484748 593.158638077,626.627469404 591.960420348,622.825129014 586.257029348,620.425158425 582.665966456,617.573186071 579.576439956,617.573687468 577.180984814,620.505011334 574.170269951,624.095837121 571.775782239,630.038630071 568.764642399,634.824276233 566.370618298,640.531749346 563.358976212,640.532598232 560.965492991,634.902728193 557.95327139,631.316319633 555.559265125,628.382152379 552.389498458,628.380264312 547.608184132,631.079732668 539.115538885,631.078787579 537.919899448,628.221488623 543.479384151,625.831079552 547.060241915,622.738269868 549.842257418,619.153807241 547.454805573,613.277909363 538.872527974,609.694652224 534.09560976,606.600140057 530.691055816,604.21260105 524.722635737,601.349146343 513.035037822,601.348852185 505.877264026,604.213465921 499.683847755,606.598133878 494.912477819,609.618401072 488.870649182,612.002892158 484.104602752,615.024472919 478.288470158,617.407611805 477.095651489,620.4305834 479.739376936,622.812818742 479.738164624,625.912862396 476.864531995,629.480890378 474.486163509,635.156344505 471.459376777,635.159213897 469.081579083,629.77907921 466.053131075,630.96601084 463.675521756,639.307659436 460.422711409,640.495345062 454.488594918,635.027251538 442.730744872,633.842856542 435.614856738,636.72736617 429.472839579,640.282409478 425.914837196,646.205537299 422.659996982,649.75961204 417.923454076,652.869565217 409.027716317,655.238009445 403.112771059,658.349058591 397.032180982,661.895449045 393.485017824,667.690944627 390.370953453,668.872914095 388.009354473,666.044224491 385.10631848,663.684711858 385.106160238,660.639023293 388.08172637,658.280494457 391.616510918,655.232410566 397.644958533,652.875889895 402.354221111,649.75604709 408.457864632,646.226411236 413.162051689,640.258156829 419.202514278,636.731751684 422.727360443,633.607346224 425.852794397,631.258605793 428.199387176,628.200167908 431.125094457,625.854196552 431.12543066,622.726258079 428.130525712,619.212471814 424.619304557,613.151033747 418.488927547,608.472039253 412.644059504,602.403335041 403.569169958,598.897612195 397.731047905,595.762258832 391.587186585,593.428739242 388.087674884,590.483336527 384.885269997,590.482532494 381.391980941,593.431103222 375.362370631,595.756996586 371.872236656,598.649575813 368.480658813,597.489636929 361.515581519,591.695440194 346.584997587,590.534931226 339.62700914,593.497329872 336.294568897,596.972133885 333.977737732,603.090893355 330.886238544,607.717110485 328.574630392,613.608598935 325.596705156,612.455995209 325.594807239,603.518471499 328.345589854,597.753374962 326.042443224,591.665744891 317.02253084,590.512614191 311.270501679,593.445258242 305.001027527,595.743852282 300.406739272,598.907535802 294.240755618,602.348658432 290.799853099,608.458754385 287.748866494,611.9037628 287.74918713,615.065985263 290.626390483,617.367190666 290.62498949,620.469700631 287.638875382,622.775225431 285.33321262,626.049738283 282.35432841,631.821567396 282.355519438,643.847849545 285.390641487,649.626841556 288.86057857,653.077543772 294.79806084,658.867138384 295.95487613,670.671520215 292.989213218,672.988414125 289.507741825,667.433693623 283.278916908,667.437175057 276.306675067,673.351858354 264.302472692,678.000732706 258.485574493,683.839133189 255.219996406,682.672199824 252.888301983,673.701287618 249.815183064,665.54060941 247.481341547,653.513481485 244.411313372,647.677634383 242.074419746,644.611268217 239.007405046,645.780524671 236.668295744,651.714557054 233.737655089,656.396490371 233.737599948,662.588824991 236.530605111,668.448856217 236.529129109,677.425825352 233.605467777,682.118673853 231.257929692,685.311182035 228.202196209,687.661655668 225.851201062,690.716065927 222.798094711,693.068364981 220.445372194,696.120186742 217.534580351,698.47503566 217.533448369,701.524346191 220.15992767,703.880778849 217.800210266,706.786171534 209.087023146,706.785573411 204.366702855,703.882537419 201.038173119,701.522324098 196.310833969,698.62373148 187.402648369,698.624290381 181.490903132,701.520680844 175.413475049,703.886187918 171.862031626,706.92410133 168.752564421,709.290197426 166.384505095,711.95951651 163.6437976,708.40295795 166.014300585,696.707690689 174.52299421,688.407748223 176.892475128,679.38638919 174.008508739,674.639233606 169.260642616,671.684520348 160.47122946,672.87170966 155.718760535,678.629683351 152.541485353,682.192557587 150.162885165,684.992704378 147.288108005,682.614048761 147.288500217,673.991683789 150.161732005,669.232226743 152.540252426,666.056960657 155.258020737,663.673469276 152.87633385,660.651202757 144.423281837,658.266294134 142.039427581,655.091829152 144.445510462,650.322322669 142.058047011,641.571092669 133.463068811,636.800838898 128.691069275,633.782947331 125.441305758,633.780467384 121.859612085,636.410299358 116.136672541,635.215047177 114.941924489,629.493131442 117.56864134,625.911622292 117.566728112,622.974589041 114.707772304,622.971422449 112.317916444,625.438424365 109.303908007,621.851392582 106.913256232,610.42357904 104.057078395,604.446273037 104.05725489,601.198062229 106.912737309,598.803485366 109.303626402,595.791263766 112.157903839,593.397780545 112.159498822,590.386138459 109.54258699,587.991536059 110.740470092,584.90140192 116.446438317,581.306137384 120.036690206,574.88918601 123.126263993,562.916873357 125.521882084,539.545930106 128.53210436,523.982571838 130.927413051,508.932253314 133.937403521,500.547212479 136.333488304,494.369013349 139.422586737,490.772760492 143.01544005,487.52518306 148.876423209,482.733879992 152.469324742,473.942441106 155.558355075,467.955068552 157.954555981,461.935474934 160.964391914,458.34152295 163.359893776,455.252368369 166.369884246,452.855789132 168.765192937,449.766533073 171.775415213,446.172051197 174.170453464,439.993218261 177.180984814,431.61418895 179.575675357,417.113849801 182.58659305,409.931333048 184.980858615,406.525331748 187.99223992,402.932621572 190.387726253,397.066977564 193.635702943,393.477255659 199.618427128,390.386278161 211.432533958,387.993979945 220.99921494,385.137989844 232.817093723,385.136668071 238.796870306,387.836870713 242.045942965,387.835938217 244.438627824,384.978035972 247.453486216,382.588621351 249.842460675,379.573309006 252.70280217,377.182574429 252.703057107,374.011095092 249.84171112,369.234682597 247.45474183,360.415263572 244.436869963,354.447947407 242.049906281,348.410788882 239.030875384,344.831612724 236.645109366,341.888455252 233.624842172,341.886505931 231.240351085,344.600942435 228.218770324,344.600201642 225.836694584,341.730862274 222.965646103,339.348444749 222.965273503,336.173178663 225.837790086,331.411629656 228.216935195,322.487591574 231.242920266,315.349865518 233.620511443,306.194472152 236.498451684,297.873922598 236.498883117,286.059052891 233.619242967,280.116644942 231.246045947,276.565737506 228.362941471,269.443169478 228.362470817,254.727525001 231.24742974,245.240160718 233.617945949,236.137557457 236.652816909,231.394519875 239.022356521,228.139202858 242.059236465,224.58617697 244.429079335,218.655520084 247.828460282,215.106069796 256.104024873,211.9936941 273.704147221,209.6298635 283.155160801,206.730207245 289.457123706,206.730975441 293.000576683,209.845136946 296.117284561,215.741745496 298.476262299,227.576679055 301.524346191,234.647928045 303.880441066,240.886896 306.930997553,245.5970434 309.284581198,251.631705481 312.337687549,255.160482539 314.688682695,258.283874238 317.744416179,260.6339622 320.092745559,263.691038225 323.151183443,266.038396112 325.496769788,269.165271063 328.557989342,272.680812364 330.900755383,278.67265784 333.964833875,282.183893884 336.304702343,285.18444719 339.371717043,285.185576278 341.708962011,282.248425494 344.843591,279.91377398 348.344300595,276.842210091 354.489795722,274.509923605 360.31550115,271.435230338 369.417406793,269.105790598 375.235933795,265.965181035 381.395777611,262.477096694 384.882852868,256.439359774 388.028025294,252.955126427 390.348615693,249.747546128 393.313462538,246.269236643 393.314345014,240.214672861 390.346021081,236.741005473 388.032680375,233.589217326 384.93939435,231.275543795 382.629578415,227.887534259 379.648952041,219.811122283 379.648010734,201.742277895 382.632346001,192.522730747 384.935638384,186.143702567 388.265444922,182.690577498 395.159669332,179.471550406 410.198544367,176.050670363 415.877757576,171.063253615 426.704711412,167.635259296" stroke="#000000" stroke-width="2" /></svg>