<?xml version="1.0" encoding="utf-8" ?>
<svg baseProfile="full" height="792.0" version="1.1" width="612.0" xmlns="http://www.w3.org/2000/svg" xmlns:ev="http://www.w3.org/2001/xml-events" xmlns:xlink="http://www.w3.org/1999/xlink"><defs><pattern height="18" id="diagonal" patternUnits="userSpaceOnUse" width="18"><rect fill="#ffffff" height="18" width="18" x="0" y="0" /><path d="M0,18 l18,-18 M-4.5,4.5 l9.0,-9.0 M13.5,22.5 l9.0,-9.0" stroke="#000000" stroke-width="1" /></pattern></defs><g id="labels"><text alignment-baseline="after-edge" font-size="12" text-anchor="middle" x="144.0" y="98.0">September 1996</text><text alignment-baseline="before-edge" font-size="12" text-anchor="middle" x="387.0" y="622.0">September 2016</text></g><line stroke="#000000" stroke-dasharray="3 1" stroke-width="1" x1="144.0" x2="144.0" y1="396.0" y2="108.0" /><path d="M380.15359899,105.978234407 C380.664012935,106.208269032 381.43299992,106.377086957 381.854978807,106.745016492 S382.854388011,108.256255233 383.396652322,108.805899825 S385.047725054,109.688190449 385.418237991,110.35677205 S385.713873515,111.898436277 385.418164997,112.453670376 S383.831406102,113.350436535 383.474799887,114.00584889 S383.047342209,115.596003275 383.47546511,116.024190052 S384.951766389,116.295146477 385.493424631,116.024774814 S386.382340578,113.99368513 387.04745965,114.241209515 S388.895542741,116.253466343 389.062610933,117.353049226 S389.419910278,124.479772038 389.062583204,127.50402955 S387.42584552,131.796780099 387.127642809,133.729759309 S386.762062318,138.184126989 387.128328413,140.042058728 S388.608094749,142.734637047 389.139975779,143.937576375 S390.045102274,146.949028179 390.698548924,148.116719076 S392.185904334,149.732477943 392.787591817,150.455764269 S393.674412897,152.125478333 394.347887007,152.503575058 S395.88161699,152.796017108 396.435555147,152.503776171 S397.339415848,150.92537318 397.997216857,150.578299538 S399.53497788,150.277617022 400.08352671,150.579007497 S401.095724674,152.056498223 401.646924239,152.583566857 S403.144250165,153.705747588 403.813922246,154.146090282 S405.842190419,156.023346001 406.942553538,156.06570646 S411.565168773,155.689109668 413.028796383,154.500833448 S414.987377298,150.213477187 416.159804074,148.582491776 S417.58803193,146.964171634 418.408065593,147.017628704 S420.511094925,148.545162749 421.542512932,148.933384501 S425.879729415,149.85314087 427.660423316,150.500180395 S430.36884514,152.027773536 431.579831432,152.580581694 S434.606993082,153.363072865 435.654577402,154.14946497 S436.628987065,155.589383544 436.439500311,156.228598532 S434.905974457,157.147214784 434.572798124,157.798741312 S434.270242054,159.332264729 434.573980552,159.876623603 S436.015598411,160.955234866 436.608997526,161.448009423 S438.144697433,163.06375926 438.966942208,163.524656906 S441.905128621,164.549411653 443.119303872,165.097269301 S445.79828141,166.716485433 447.051819291,167.172698441 S451.389883803,168.053258291 453.146363806,168.746520948 S455.362594847,170.180035768 456.294674651,170.820748208 S457.881208309,171.835439963 458.455119919,172.395764362 S459.478827098,173.916332628 460.031193793,174.468806207 S461.551224507,175.49275128 462.103649105,176.044999544 S463.128199489,177.564471988 463.680424859,178.116872438 S465.199418291,179.141948423 465.751719452,179.694226494 S466.790602363,181.19907002 467.328651845,181.764946902 S469.155241041,182.606518774 469.220768962,183.342691902 S468.382395319,185.166034514 467.641385466,185.278351339 S463.299491022,185.251836146 461.657125062,184.489133434 S459.194795521,181.380303992 457.708840678,180.665750354 S454.566630706,179.827915344 453.708387499,180.666810454 S453.10383497,183.57111193 453.707641604,184.576747036 S456.619495,185.925325252 457.479956181,186.948327846 S457.941067712,188.627162175 457.478370742,189.059768202 S454.66121145,190.054918937 453.528069685,190.643208138 S451.333038318,192.153285505 450.362506419,192.754086304 S447.27416301,194.121416265 446.278952154,195.130722268 S444.539088028,198.012244676 443.90288595,199.305194217 S442.127191165,202.529019093 441.885545527,204.059415336 S441.495133495,209.706773245 441.885535029,212.081531854 S443.192271778,214.895413859 443.856048662,216.045713748 S444.867406247,217.670741406 445.442896974,218.246303703 S446.943249192,219.419646368 447.644059724,219.834195901 S450.330305172,221.49869401 451.611627591,221.89528481 S457.201238472,222.617778259 459.433871364,223.48334053 S461.412240132,224.867914393 461.021689819,225.543441593 S458.256337415,226.365546402 457.323986111,227.132767575 S456.379796733,228.580888476 456.53073022,229.239000638 S458.107541855,230.757618082 458.353979235,231.623825285 S458.691289464,234.487427809 458.353459106,235.645743366 S456.834085334,237.192262743 456.485065929,238.031749572 S456.179273612,239.584729229 456.486489646,240.136313945 S457.897781292,241.290096263 458.543700544,241.727882794 S460.630498272,243.455060634 461.727702488,243.688665704 S465.97848261,244.035857812 467.752092792,243.688435884 S470.515038458,242.263856786 471.734169577,241.7285585 S474.690693136,240.782503296 475.843882982,240.135478078 S477.500999632,238.677136379 478.235269294,238.080958345 S479.766524536,237.035138003 480.337434349,236.487013819 S481.260293427,234.877290743 481.933682932,234.530152405 S483.504892558,234.327356631 484.132381847,234.530684297 S486.864674543,236.072861081 488.12171635,236.535283676 S493.857833678,237.809688249 496.088324384,238.928865759 S499.353975837,241.844948494 500.876942145,242.935382901 S503.834803986,244.528535035 505.028515366,245.329986915 S506.569509311,246.950754054 507.425328289,247.331936773 S508.961795395,247.614872482 509.524939616,247.332699247 S510.467262137,245.807745351 511.123913208,245.478696284 S512.645370387,245.228907914 513.223105055,245.479541701 S514.803539521,246.996157264 515.623522572,247.430724085 S518.604226244,248.628241061 519.919795751,249.028590165 S524.887703138,250.812320546 527.118140518,250.928722454 S536.925367418,250.987309674 541.010995721,250.129296217 S546.484266497,247.152336218 549.010873274,246.331079711 S553.316772844,245.248185442 555.153052269,245.53251603 S556.77035663,246.762019486 556.756411436,247.530403402 S555.164668318,249.65031984 555.058680675,250.732416137 S555.039753872,255.072524496 555.861012764,256.672106734 S558.600813554,258.89678397 559.753286668,259.876193375 S561.413990115,261.403263138 562.156416092,262.022146709 S563.692212945,263.066474106 564.252041822,263.626339167 S565.35740139,265.106865718 565.855896188,265.721865916 S567.433970619,267.303464644 567.900691812,268.127731114 S568.918767975,271.001805286 569.504880293,272.166259896 S571.04689913,274.350736403 571.54900912,275.376000402 S572.692795252,278.33609486 573.153156614,279.615716073 S574.873207687,283.463565802 575.095075385,285.232652135 S575.502251064,292.163116774 575.094210176,295.092918817 S573.98793815,298.649813443 573.051068577,299.908963982 S570.923822411,301.700067544 569.839738776,302.154916225 S565.609191093,303.125868516 563.865986724,303.762746318 S561.083607848,305.252469923 559.849959781,305.804671015 S556.914145598,306.832938901 555.715634286,307.410977634 S553.58982982,309.06601796 552.499568431,309.349744691 S549.512839112,309.582743954 548.263433734,309.350318531 S544.399958835,307.723377595 542.636675656,307.514962269 S535.688094146,307.148041595 532.74280739,307.515822272 S528.794160809,308.846198099 527.114876293,309.453183687 S524.100852853,310.39731592 522.932194311,311.061916275 S521.140808317,312.463486042 520.517681751,313.204919268 S518.859135975,315.355865466 518.426682421,316.42284357 S517.474438079,320.616918139 516.817896839,322.33327411 S515.155243105,324.455191617 514.934603299,325.551974371 S515.204140453,327.264340311 515.739442038,327.6941863 S518.521315549,328.673779977 519.608624254,329.305202868 S521.286659287,330.746644183 522.02324903,331.343324358 S523.549371265,332.398403113 524.113105293,332.954092304 S525.17344045,334.440626129 525.724479881,334.991736335 S527.2147493,336.048382441 527.761891356,336.603347011 S528.875293711,338.077506653 529.373356969,338.692781576 S530.942724445,340.285258471 531.410315682,341.11037289 S532.43767675,343.970793409 533.022225825,345.131598371 S534.54720667,347.33224707 535.058748239,348.355476495 S536.103083888,351.242745644 536.669953751,352.428097372 S538.384637566,354.545271584 538.548547104,355.652811179 S538.469216009,358.680282588 537.742018636,359.672058397 S535.003048963,361.366308025 533.828129445,362.090672781 S531.698949147,363.775432965 530.602974539,364.073442371 S527.717113481,364.370518324 526.532349934,364.074487825 S524.38405477,362.521573511 523.30568461,362.250107762 S520.442958815,361.904924504 519.288573583,362.250960761 S517.606659885,363.61875818 516.866639983,364.180263175 S515.343247297,365.385427758 514.620715153,365.792792296 S511.910020964,367.505988237 510.585778673,367.721420732 S505.081597481,368.097986318 502.766140162,367.721337162 S499.897292604,366.456244714 498.731011914,365.793038007 S497.136401894,364.735909524 496.53828389,364.179860325 S495.589538717,362.604606001 494.922254816,362.252170959 S493.428077369,361.96728427 492.888630084,362.252246173 S491.814751498,363.654159222 491.273460048,364.179639185 S489.790919418,365.243422517 489.240123438,365.794177492 S488.167989267,367.268494882 487.625451433,367.827376215 S486.059209094,368.779710445 485.698799336,369.442181022 S485.290275899,370.959903125 485.698864103,371.368643875 S487.111178784,371.633388383 487.625261007,371.36936193 S488.587215504,369.875434763 489.24044243,369.549731802 S490.733825698,369.265793602 491.273013459,369.550570129 S492.355219826,370.943184542 492.888421003,371.476442205 S494.462014563,372.425106792 494.814028681,373.09196048 S495.098466975,374.584976615 494.813976449,375.124204286 S493.40598388,376.192551139 492.888574572,376.741495488 S491.715997641,378.209054028 491.273542412,378.880420551 S489.581754194,381.008707246 489.348509618,382.113069699 S488.98396446,386.268375462 489.348553493,387.994825383 S490.656424413,390.282789212 491.273413414,391.228127225 S492.383152934,392.779117182 492.889574711,393.420306163 S494.45305628,395.020719351 494.921199055,395.846648909 S495.968010634,398.691029313 496.537505716,399.856235973 S498.177959337,401.998077377 498.461858278,403.090960294 S498.735978222,406.040548184 498.461036358,407.260961663 S497.033441233,410.654121533 496.429620734,412.111667622 S494.746183105,417.945179188 493.196488486,419.968912416 S489.083816616,422.802954133 487.317146757,424.011571096 S485.038887939,425.525213423 484.083076563,426.20359411 S482.497690379,427.239640782 481.944679781,427.824643354 S480.653815101,429.385945586 480.326363673,430.177634946 S478.65397705,434.645317438 478.295274412,436.64792264 S477.262045176,446.38744939 476.678477111,450.543464029 S475.016245553,458.427981872 474.754772688,461.862422682 S474.377146038,471.643603364 474.754783134,475.811145656 S476.027909809,480.928323713 476.678446397,483.091776537 S477.823199625,486.230917086 478.294532469,487.583090282 S479.998509587,491.465691459 480.21814759,493.246572972 S480.531628406,500.221082695 480.218938926,503.186673593 S478.666116718,508.22980096 478.402682695,510.464696758 S478.066538666,516.174787969 478.403474031,518.588537135 S479.811972897,522.53233299 480.327089153,524.250825978 S481.359117618,528.582435676 481.943175225,530.397428052 S483.595645218,533.708247288 483.866838487,535.250799235 S484.166750823,539.540556475 483.867641703,541.34382623 S482.305718271,544.663153856 482.051241048,546.196677267 S481.751944403,550.486566435 482.051227079,552.289852438 S483.610985687,555.60885768 483.867740064,557.141738583 S484.243346361,561.371991298 483.866570464,563.127857377 S482.609934501,565.482986554 481.889062906,566.362848868 S480.299932376,568.009177282 479.464098788,568.501309383 S476.621708372,569.483022068 475.508800972,570.119495836 S473.824217643,571.558076054 473.082773057,572.150801188 S471.568979393,573.261698069 470.944252948,573.768483756 S469.302075725,575.299605232 468.518425843,575.853455134 S465.546806585,577.294383535 464.562557622,578.278790472 S462.928493721,581.089055178 462.138078278,582.234826759 S460.52967829,583.797566799 460.159918257,584.660774918 S459.934596136,586.235089312 460.15987767,586.852953856 S461.64358065,589.062281851 462.138119857,590.086255698 S463.467630573,594.404516995 464.562092951,595.968011382 S467.360833695,598.197456479 468.519122353,599.201837727 S470.371248054,600.677728713 470.942872848,601.50094622 S472.700272895,604.210522195 472.921692158,605.542137471 S473.275400798,611.072212959 472.922136789,613.404237998 S471.5773114,616.798097326 470.996529111,618.250843486 S470.170934212,621.233490537 469.380731201,622.262571786 S467.948119637,623.225597234 467.29489513,623.071480798 S465.677705331,621.639248716 464.871374401,621.198671106 S462.025901954,620.220483588 460.912226351,619.584003317 S459.226710686,618.147921445 458.489013855,617.551068019 S456.966537227,616.491157773 456.402742475,615.935484323 S455.337848748,614.453188807 454.786903589,613.9022856 S453.300367062,612.841613122 452.753566979,612.286586696 S451.623845905,610.82595462 451.139555853,610.200065282 S449.416630118,608.684188315 449.264952555,607.777952739 S449.366516411,604.803567221 450.071118048,603.816416117 S452.86928394,602.33671368 453.821156545,601.394683728 S454.821751369,599.949925389 454.627018128,599.307625431 S453.273276398,598.181659167 452.698711714,597.692458765 S451.063875775,596.155236718 450.278560736,595.605227486 S447.317597744,594.114809641 446.262239723,593.184562138 S444.185605436,590.234507563 443.035232547,589.220580923 S440.161652582,587.619385016 439.018035555,586.799596303 S437.216172623,585.366859062 436.598462742,584.606456519 S434.857093881,582.490345928 434.615657422,581.380256858 S434.267664085,577.218647257 434.614422027,575.484131235 S436.110707176,573.318096213 436.439921373,572.255116044 S436.557110979,570.380614074 436.440019152,569.589569099 S434.787305544,562.865512285 434.613733499,559.917818211 S434.247480109,544.96144417 434.613256555,538.566501373 S436.155192571,531.837079896 436.388056816,528.896968597 S436.182279866,526.87331708 435.581889369,526.336679307 S432.811188327,525.339954597 431.717081611,524.72198291 S430.154030979,523.154999214 429.300948775,522.78908802 S427.763739077,522.492969868 427.21133901,522.789341897 S426.089620686,524.18423787 425.59996175,524.774730491 S424.029421063,526.365208021 423.562081048,527.190078287 S422.536605997,530.052978964 421.951553889,531.214288558 S420.436230608,533.416752712 419.913187496,534.433014474 S419.165726462,537.388057647 418.303154259,538.303052267 S416.686817131,538.745938769 416.264285711,538.303676539 S415.283082937,535.557259444 414.654762862,534.484293143 S413.220250958,532.801868136 412.615375695,532.072525186 S411.683713006,530.443767794 411.005655388,530.084293719 S409.471020879,529.874972153 408.862766708,530.083069409 S406.735761599,531.695094594 405.647801547,531.91733447 S401.543863348,532.406206466 399.88609838,531.916752231 S398.677938629,530.461299699 399.082155872,529.978831036 S401.800306806,529.003553573 402.856274098,528.371587524 S404.603443979,526.971481361 405.264105877,526.279111785 S407.111996211,524.786676879 407.152654054,523.869007949 S406.523487794,520.727456364 405.547298577,519.887303431 S401.418097851,518.321108936 399.726765304,517.477949629 S397.469673756,516.02559055 396.514744094,515.384414635 S394.950597215,514.190923562 394.217703182,513.778956827 S391.524408881,512.052032641 390.204214411,511.837205632 S384.632825799,511.478775571 382.283894953,511.837042669 S378.919128061,513.20873952 377.470238094,513.779435964 S374.487757941,514.788064284 373.280725499,515.383258671 S371.09269714,516.917339661 370.071653894,517.427718839 S367.160710131,518.442055786 365.982062646,519.031571864 S363.792144485,520.557994332 362.776058481,521.07670706 S359.847059333,521.901650759 358.83554125,522.679876824 S357.859992786,524.089598418 358.033187406,524.725703512 S359.513734651,525.678840052 359.828967832,526.328510434 S360.078067932,527.847805472 359.828130844,528.424938424 S358.339167113,530.019709979 357.881193692,530.826140816 S357.140356347,533.765083219 356.280477871,534.671887754 S354.667251252,535.107918964 354.232850422,534.673584745 S353.574378629,531.760057835 352.632201722,531.02417104 S350.9086087,531.249366067 350.583825157,531.82351541 S349.876950971,535.95664884 348.982953032,537.475279105 S347.421003779,538.572692067 346.78600792,538.274850417 S344.319105862,535.146526506 342.789159675,534.570111137 S337.223749217,533.556183649 334.835426066,533.7724051 S331.438121647,535.045417632 330.041538834,535.724188246 S326.919022241,537.114785404 325.890821871,538.119683633 S324.309852589,540.986786043 323.493157263,542.124163613 S322.044322802,543.894952121 321.295344462,544.519613649 S319.166181818,546.192909599 318.102156112,546.62035641 S313.840998035,547.570036756 312.090929252,548.217266728 S309.281702152,549.655946743 308.102744062,550.318450591 S304.925889957,551.585497712 304.092688404,552.711799137 S303.137826796,555.573420604 303.293929439,556.818888264 S304.873070297,559.511744399 305.106971126,560.804271536 S305.532882834,565.069423417 305.104437196,566.823685689 S303.852744147,569.394855188 302.858406309,570.010976142 S298.471719165,571.794440156 296.488550637,572.162342265 S286.7752583,573.004205795 282.670716744,573.7560404 S278.092618144,574.941756172 276.30220396,575.859903558 S274.515123068,577.433012191 273.912045203,578.247599647 S272.460822706,581.254552732 271.523541657,582.314523428 S268.521152851,584.343097527 267.502789851,585.495823502 S265.908837391,588.391672344 265.118126872,589.565069646 S263.384874239,591.052741364 263.153229223,591.95047737 S263.450472832,593.626762783 263.947042605,594.103585225 S266.921294681,595.494691143 267.878541474,596.487875836 S269.608753163,599.370756135 270.260903947,600.65448776 S271.890067377,603.939513408 272.414780489,605.417273193 S273.59367563,611.229090147 274.796837693,613.429126565 S277.545586479,616.415095288 278.96606357,617.396591531 S282.216163104,619.152278826 283.724640371,619.597902423 S289.420755783,620.501957271 291.790386201,621.185061472 S295.151785847,622.593314042 296.546424633,623.294096824 S299.701064149,624.653013397 300.719975873,625.672031685 S302.449995698,628.558374594 303.09740192,629.845759254 S304.774995907,633.098139981 305.207875729,634.596341077 S306.09223243,640.274738307 306.791061869,642.629550754 S308.361028734,645.323272319 308.766212398,646.586699544 S309.072296999,648.203503144 308.766486093,648.789238238 S307.327070472,649.834130799 306.790257166,650.371346531 S305.877154737,651.98684042 305.209493399,652.348897449 S303.695263489,652.629758858 303.141582179,652.349937099 S302.261424441,650.707603788 301.561398356,650.505208033 S299.897023944,650.767926033 299.492375809,651.294856588 S298.5523558,654.147576398 297.913311544,655.255726426 S296.438676187,656.891181839 295.843161207,657.622864741 S294.821599807,659.174781274 294.265232965,659.737959133 S292.729922866,660.748272345 292.193938372,661.316761197 S290.977030586,662.855152191 290.616686576,663.607768755 S288.974636842,667.422523596 288.456855809,669.12205324 S287.14911613,677.830923301 285.30687511,681.03633683 S281.418431262,684.424595744 279.346978626,684.972815026 S277.735683828,683.779603952 277.772422921,683.030363581 S279.326712017,679.797693993 279.673623517,678.311367566 S280.62117634,671.171010528 281.245469198,668.150255918 S282.951290665,663.261476855 283.235841487,661.074927624 S283.635041278,655.287402261 283.236152788,652.853418459 S281.90808356,650.067131494 281.244553924,648.924259448 S280.238660426,647.302534804 279.674231661,646.718319339 S278.148265,645.700314786 277.595725792,645.147517451 S276.581865407,643.617773808 276.026000537,643.068383889 S274.512148855,642.006335461 273.904294095,641.499085121 S272.292250189,639.944847266 271.552290296,639.335105493 S268.351556465,637.469497367 267.473784969,636.200216802 S265.877009884,631.86794224 265.123383981,630.038738638 S263.491828417,626.806488127 262.999413925,625.340006724 S262.009623228,620.907220956 261.433548585,619.049876461 S259.80642219,615.270988053 259.349905917,613.573487077 S258.640939911,607.801235271 257.784608811,605.481731813 S256.476696289,603.209194457 255.49614838,603.134996719 S251.748078757,604.799228795 250.027199529,604.894731201 S241.405907595,605.048538592 237.874345078,604.112941357 S233.413271677,601.373902281 231.62812785,600.020367372 S228.291167558,597.57165212 227.331333052,596.119000136 S225.847339206,591.750697119 224.989985175,589.97393638 S223.508892873,587.783970055 222.860888541,586.854553935 S221.85027385,585.269938139 221.302477002,584.685037264 S219.447691727,583.867527484 219.369616378,583.126806782 S220.188258267,581.309633456 220.926086266,581.114122564 S225.197899599,580.717366311 226.965923498,581.113924675 S229.209961545,582.461823042 230.078287438,583.166912642 S231.679293683,584.799423067 232.365820139,585.498696557 S234.643349963,589.029937875 236.251796027,589.455047432 S242.261312215,589.886372803 244.399349551,588.679137899 S247.088958574,584.44835249 248.28247529,582.661968714 S249.829878692,580.488412625 250.493759438,579.557393055 S251.485174774,577.956325811 252.045961239,577.384094499 S253.584588801,576.380813907 254.143598392,575.833066123 S255.025141502,574.180584549 255.693869791,573.809676707 S257.237608089,573.512220159 257.79317238,573.808842483 S258.682290737,575.408729853 259.342660539,575.757809106 S260.895187745,576.021741733 261.478888182,575.75715525 S262.996704864,574.183380722 263.805445749,573.734866229 S266.77721437,572.838563876 267.923191894,572.183249613 S269.581694401,570.718960927 270.251588585,570.048712487 S271.914330058,568.541365622 272.385221722,567.718860156 S273.274411998,564.745300618 273.939790557,563.606537952 S275.372584262,561.844146661 276.150438249,561.274877321 S278.767049176,559.533023712 280.038947827,559.142894015 S285.79679464,558.307961058 288.174814021,557.586638424 S290.928511355,556.175211221 292.065807741,555.494796635 S293.692104465,554.501285258 294.274621143,553.937283878 S295.277391302,552.397063839 295.833511084,551.846849768 S297.349760171,550.78860169 297.963137641,550.287937563 S299.482961939,548.660838047 300.302721774,548.19889467 S303.257049959,547.239309209 304.439538576,546.63841682 S306.594892668,545.102556627 307.561322138,544.510370615 S310.658173059,543.117440362 311.735296015,542.167893486 S313.704422091,539.101252132 314.859783258,538.076350328 S317.81762532,536.541544982 318.990199799,535.732188192 S320.60322607,534.211022642 321.335551499,533.606521683 S322.897727116,532.598596372 323.460712012,532.041985975 S324.479264427,530.517566021 325.025510107,529.958343307 S326.662476039,529.06245748 327.025531418,528.392477967 S327.289434582,526.848236 327.024996005,526.268507911 S325.508892269,524.690564708 324.984486193,523.917899177 S323.583726848,520.856678315 322.633107806,519.797452781 S319.635421563,517.705375797 318.472002377,516.661375963 S315.985350962,513.466022176 314.550056025,512.544087166 S310.203437485,510.992037375 308.397138256,510.189974366 S305.689692147,508.625333401 304.472372369,508.06922655 S301.486148395,507.138197766 300.316902805,506.498689319 S298.806766216,504.880363578 297.959539052,504.507090455 S296.390925301,504.246007409 295.797228581,504.507401757 S294.247935692,506.048689553 293.438162322,506.497774046 S290.520442487,507.442192426 289.373545342,508.069850995 S287.902793447,509.792894298 287.012256647,510.014457977 S285.325592475,509.630431326 284.720574953,509.227500225 S281.745159233,505.896067582 279.995645598,505.341517577 S272.983978166,504.310801677 269.979934283,504.555103171 S266.557959227,505.726464835 265.252890771,506.540460461 S263.504174442,508.0628959 263.005710145,508.905057323 S262.019570103,511.826646707 261.427395127,513.003681348 S259.875697522,515.152054118 259.35667472,516.158050576 S258.73036466,519.239271958 257.778678616,520.075809725 S255.978999008,519.899400947 255.79837753,519.285815247 S255.478708702,515.099215059 255.797640314,513.346063147 S257.56171148,510.69900567 257.597200217,509.397772434 S257.113325946,506.054547086 256.015655918,505.352283435 S251.835333167,504.355294905 250.038357605,504.561801447 S247.296687076,505.96990015 246.084944504,506.493510347 S243.104498394,507.473250446 241.907229048,508.075371013 S239.712181775,509.585988972 238.741413764,510.186656675 S235.662657293,511.563023291 234.656677129,512.561687334 S233.075580109,515.440150078 232.28139522,516.599693895 S230.647206855,518.123140562 230.263413475,518.976039681 S229.976095226,520.521340143 230.262855892,521.08546802 S231.804194526,522.015459552 232.141796008,522.671274332 S232.434952659,524.189380616 232.140989686,524.73387588 S230.690599227,525.767890217 230.171227625,526.321275352 S228.991528859,527.817173523 228.585289496,528.522438103 S226.833677992,531.179709924 226.617485178,532.490861312 S226.22045456,538.097942532 226.618022865,540.453382182 S227.868339522,543.328306564 228.631714129,544.424394951 S230.305559238,546.056660756 231.013948227,546.765254089 S234.320141075,549.182348154 234.944022652,550.738524335 S236.02899726,556.211717443 235.738075284,558.548858997 S234.459554504,560.462384488 233.773882602,560.138924301 S232.529408688,557.131252788 231.387627528,556.496570369 S228.368594436,555.996556413 227.225385296,556.498808092 S224.068074147,559.515389326 222.451327619,560.422598848 S216.646367011,562.134864788 214.559996541,563.605773271 S212.296699941,566.261068545 212.17198648,567.669619596 S213.447953094,569.339362861 213.988566749,570.059671914 S215.085797732,571.578136194 215.580121988,572.210590472 S217.263363193,573.715889996 217.538266288,574.601271141 S217.988647945,577.431787708 217.538044825,578.516477884 S216.185824297,579.502667811 215.580773123,579.313341505 S214.524004035,577.921889573 213.985960948,577.404996825 S212.47387782,576.371355323 211.933169946,575.80912469 S210.750709155,574.312865091 210.336890407,573.610675827 S208.675149058,570.907402379 208.284939074,569.618616014 S207.291318133,563.948565035 206.687828098,561.558545075 S205.129722327,557.121881743 204.63669997,555.170383608 S203.752692889,549.472812476 203.038774021,547.114733092 S201.684662067,544.273324017 200.988452633,543.120195248 S200.127358837,541.323664177 199.389728176,541.070833738 S197.742211174,541.346386622 197.340197065,541.869718411 S196.309754654,544.674969766 195.741350258,545.820199738 S194.080074757,547.93303755 193.791676299,549.01933295 S193.515905339,551.952648165 193.791203096,553.165717136 S195.400177135,555.866471839 195.640680784,557.166765716 S196.012580287,561.401372364 195.639830179,563.160403226 S194.3136806,565.425706685 193.692010036,566.362663741 S192.651124756,567.933357022 192.090924413,568.509172321 S190.595822897,569.560530413 190.044389769,570.111957336 S188.993195916,571.606753404 188.441919729,572.158135945 S186.947410319,573.20964192 186.39609304,573.760957905 S185.336917882,575.247427825 184.793610323,575.806436789 S183.20099536,576.740937918 182.849258234,577.410295047 S182.595122952,578.930875053 182.849775626,579.50556184 S184.315304794,581.13761803 184.844002495,581.911929177 S186.317072918,584.892255057 187.249827629,585.949715664 S190.220347224,588.007597655 191.236176875,589.158713906 S192.836180641,592.039051387 193.6435033,593.194891035 S195.129492698,594.8634492 195.737366959,595.603044315 S196.78771365,597.132977509 197.343520755,597.696668806 S198.838723314,598.748266699 199.386054624,599.303489062 S200.510413967,600.768140612 200.9910535,601.396789212 S202.795069737,602.897558001 202.828403198,603.805881111 S202.287081874,607.012595564 201.221795723,607.684419966 S197.153988675,608.697488988 195.404939687,608.487500151 S193.134781241,607.198853215 192.190219173,606.600099131 S190.621084151,605.413806325 189.892646668,604.993279844 S187.165215836,603.350165424 185.872364967,602.952806047 S180.318866787,602.050709985 178.020477461,601.344353364 S175.159389122,600.002126233 174.001044233,599.304431114 S172.208786685,598.434234672 171.961772564,597.695069913 S172.285876,596.075679635 172.764415754,595.603945543 S175.755181662,594.284345145 176.532247065,593.189595457 S177.517366452,590.381770885 177.335847206,589.163595564 S175.938618881,586.952116843 175.452626567,585.944264327 S174.497386099,583.043135222 173.842705841,581.919507102 S172.44921333,580.118814695 171.700518934,579.50451975 S169.588793341,577.758926812 168.47923363,577.518841245 S164.27694629,577.178905374 162.522511029,577.518590363 S159.723332495,578.914734451 158.495591849,579.45182408 S155.567181677,580.418735515 154.421333234,581.062546159 S152.740777017,582.502877144 152.003482098,583.099504871 S150.498311208,584.175491912 149.914492063,584.709535078 S149.010214653,586.616410743 148.30349862,586.484030553 S146.496099014,584.974622601 146.477007062,584.065634422 S146.945830562,578.34434654 148.088248731,576.235754119 S152.503641012,572.632839583 153.775924543,570.593823048 S155.451197628,566.417781174 155.386403515,564.539416058 S154.249161665,562.115457582 153.455817073,561.313987627 S151.357537723,559.476862251 150.23132708,559.331541798 S145.92577237,559.324608941 144.336696971,560.137303077 S142.090783414,562.849358534 141.110136393,563.996353918 S139.607669082,565.685235966 138.969913181,566.414461013 S138.095473484,568.237614936 137.354704664,568.290402583 S135.68568901,567.349903118 135.267393282,566.678304886 S134.140575339,562.356015483 132.846139207,561.051637298 S129.985332895,559.737639375 128.883828464,560.24571043 S127.240587355,562.905720391 126.462946291,563.995897412 S124.859941115,565.557363562 124.482286414,566.416243628 S124.205067161,567.94108097 124.481201077,568.502875505 S125.98378024,569.461844224 126.302371725,570.119207732 S126.518445362,571.654708154 126.301526958,572.258832158 S124.78735124,574.438289512 124.374550599,575.488245113 S123.565088923,579.658224463 122.759353347,581.268326445 S121.464904613,582.883035194 120.673181826,582.884692996 S119.122109482,581.276411359 118.24978252,581.277769109 S115.129160428,581.923451554 114.290934951,582.894626769 S112.708720472,586.991782087 111.867237686,588.672640205 S110.449774635,590.96220479 109.781486966,591.902229047 S108.895434594,593.650072193 108.164404253,593.881105673 S106.534544667,593.564986412 106.07876597,593.072430161 S104.425060813,590.200757563 103.655160646,589.008003564 S100.397595483,585.317618871 99.804780889,583.352571522 S98.7833639203,576.504837706 98.9968947226,573.566897356 S100.180596683,570.117218816 100.868441615,568.717812829 S101.914448185,567.07572721 102.484130204,566.472190412 S103.964908163,565.404805685 104.515830694,564.853668532 S105.582046548,563.372874387 106.132854999,562.822044188 S107.613580174,561.755754485 108.164407312,561.204947853 S109.230766607,559.724287671 109.781571562,559.173463454 S111.262170726,558.107038823 111.812992163,557.556235406 S112.879477874,556.075693284 113.430279893,555.524874487 S114.910679336,554.458242321 115.461585245,553.907531191 S116.517431187,552.415211314 117.080167551,551.876277289 S118.572170189,550.679984922 119.27225504,550.258043189 S122.068115986,548.69485677 123.313226577,548.119607332 S129.224542949,546.705214166 130.901330741,544.885332275 S132.539602918,540.581539386 131.709656676,539.006640769 S127.768548792,536.766802849 126.099309875,535.773060135 S123.938992644,534.14398584 122.866465755,533.742051943 S121.288927616,533.505814569 120.674472287,533.740079764 S119.137808122,535.367555692 118.24837789,535.502728762 S115.235102842,535.527472281 114.401115345,534.693486655 S113.414638341,532.01227884 113.591883371,530.846244689 S115.020385503,529.256591473 115.35446975,528.421695593 S115.766789685,526.869710486 115.353279659,526.444413374 S113.952577982,526.197913228 113.429671688,526.442031243 S112.491959248,528.240807721 111.812782245,528.097289256 S110.103659825,526.564155454 109.781806175,525.671192333 S108.846183549,520.234858432 108.164940959,517.976578356 S106.637229465,515.217703047 106.241248429,513.934446656 S105.944888632,512.329471831 106.241235893,511.742424199 S107.639867274,510.665095963 108.164977816,510.123644506 S109.238753649,508.651414147 109.780952416,508.092555246 S111.352952303,507.141946733 111.704822716,506.475030844 S111.970986267,504.992597723 111.706030652,504.443867495 S110.1220201,503.521197737 109.942894479,502.82602992 S110.270161553,501.20806991 110.751950661,500.741182747 S113.671589107,499.313442697 114.600164835,498.312810953 S116.526559558,495.385509967 117.0241349,493.982286874 S118.794297158,488.386871106 119.00203403,485.899003465 S119.381513367,474.957146785 119.00246253,470.289731737 S117.76716784,464.602923031 117.078011771,462.207694652 S116.257830787,459.082445394 115.46177664,457.983736485 S114.06026524,456.989685199 113.43007615,457.172836933 S112.349639511,458.531598159 111.813208254,459.044119213 S110.340370585,460.116959862 109.781343122,460.658935984 S108.84266656,462.25826442 108.161901308,462.584054743 S106.466138156,462.714696646 105.756093734,462.585278868 S100.726988907,460.91379257 98.483951813,460.820082401 S87.4735492155,460.742785214 82.8664908684,461.628991273 S76.6144324302,464.292605346 73.9802314778,465.533577172 S69.4159164617,467.49992873 67.7227155592,468.763222424 S65.7147661662,471.735964562 64.4885456887,472.615304322 S62.8069778027,473.066471153 62.3492715894,472.616593834 S61.4945075982,469.862903398 60.732651966,468.923653761 S59.3294516843,467.933105895 58.699716668,468.117259589 S57.6240860387,469.481847455 57.0837450278,469.990705258 S55.6233005659,471.119854221 54.9974351222,471.603826064 S53.4809776707,473.32883865 52.5741157166,473.477930235 S49.5853545803,473.291186777 48.5072268715,472.670841207 S45.8845544594,469.714106265 44.4716349995,468.815831327 S40.2570810711,467.375932677 38.6352349456,466.394642751 S36.9763980891,465.098024833 37.0207431334,464.307706288 S38.3422509462,463.22461057 38.8429488717,462.692759699 S39.9015511727,461.205355563 40.456189884,460.658509331 S41.9281792225,459.542356435 42.5434211622,459.04427775 S44.1432643261,457.486236541 44.9633226572,457.009689868 S47.8335458484,456.168863369 48.8218434732,455.395804032 S49.8212816138,453.988444198 49.6280716249,453.360862172 S48.2730681495,452.236224666 47.69849492,451.74695873 S46.0592970757,450.217958589 45.2808194172,449.659049572 S42.2224065803,448.346045029 41.420105665,447.239381243 S40.4505028669,444.439489808 40.6131052021,443.220579681 S42.1258524434,441.068419606 42.3864432358,439.995459138 S42.698118474,437.104216356 42.3854127039,435.92325398 S40.9380224422,433.716266703 40.4540117055,432.697452036 S39.3021075288,429.745530911 38.8433877319,428.467495831 S37.131623901,424.60184554 36.9111522856,422.82672343 S36.5799802804,415.861902013 36.9102941799,412.903237824 S38.4548382426,408.447205169 38.7386860112,406.457268199 S38.9932580085,401.979230493 38.7387977588,400.084370557 S37.1236969234,395.068534248 36.9095072913,392.836132973 S36.5196100596,384.546749375 36.9101296479,381.024993205 S38.1152124651,377.021158288 38.84418572,375.388952609 S39.8795868193,373.706250139 40.4537280361,373.090708409 S41.952753815,372.040786719 42.4923434486,371.477731373 S43.6889022696,369.987733844 44.1021235492,369.283651216 S45.7468555803,366.554802115 46.1412493488,365.260405732 S47.1190314463,359.659908736 47.7505108303,357.309680835 S49.2553315604,353.394829566 49.7901634811,351.679946858 S50.7100665179,347.364460254 51.3988898793,345.611534374 S52.7960486281,343.338992863 53.4390858454,342.394125841 S54.4868770099,340.827071541 55.0472606963,340.250685614 S56.5482779057,339.203760309 57.0880164417,338.640996879 S58.2782519525,337.147527031 58.6959800436,336.446314281 S60.3065410168,333.699779172 60.7884557822,332.42931205 S61.9820605224,326.713867973 63.2010410905,324.569666479 S65.954801677,321.349717085 67.5397534866,320.55369811 S73.1030236645,318.753763691 75.5685759821,318.358252108 S86.5792695441,317.505016462 91.2468580195,316.75072286 S96.4274472798,315.613225272 98.4714118217,314.657098369 S100.33209442,313.114981637 100.870553482,312.248945089 S101.891615519,309.37668749 102.47818049,308.21276796 S104.01155924,306.02440354 104.521982093,305.003423646 S105.53718797,302.093579832 106.126501914,300.915165991 S107.660622624,298.727655645 108.170962082,297.706789029 S109.185343097,294.795867306 109.774815107,293.617197781 S111.306917699,291.429670619 111.819950303,290.41051179 S112.780608244,287.504613249 113.423120067,286.369700867 S114.876519199,284.70404784 115.468946756,283.965040891 S116.568639917,282.44557257 117.071416796,281.818736615 S118.648838658,280.238217786 119.11795144,279.415652413 S120.079967918,276.542954695 120.719705292,275.421648534 S122.170653052,273.755214406 122.766964357,273.019808066 S123.812017979,271.485867315 124.367985557,270.922373725 S125.864628433,269.872912313 126.415985506,269.321390912 S127.464790697,267.82436616 128.016257589,267.273014346 S129.513649762,266.224604446 130.065014887,265.673122995 S131.113049685,264.175383943 131.664521389,263.623980849 S133.166338944,262.579787995 133.7140525,262.024539372 S134.813981338,260.540156456 135.312776958,259.925535086 S136.897134558,258.351853151 137.363098345,257.528145524 S138.367314749,254.6398139 138.961343638,253.475780219 S140.45685714,251.256028354 141.061263194,250.281379383 S142.461287304,247.229645425 143.456508991,246.226997288 S146.317130349,244.63678467 147.463026133,243.831845807 S149.119211194,242.337845722 149.857234213,241.730783446 S151.402484941,240.697561729 151.958619313,240.133986851 S153.101188253,238.647327732 153.554365559,237.984188286 S155.194345803,235.854227201 155.608012695,234.793788484 S156.668935851,230.46531485 157.202579967,228.631958551 S158.821006692,224.218601752 159.2570997,222.257200047 S160.148593188,215.188371999 160.851089154,212.222174397 S162.208260061,208.27109368 162.954263653,206.646407407 S164.328235954,203.476359287 165.343332467,202.438728149 S168.205975389,200.794609151 169.408195402,200.049201669 S171.571461143,198.464701107 172.591348855,197.944770652 S175.517961192,196.998004727 176.65849341,196.353058757 S178.311208119,194.89132359 179.045030254,194.295355278 S180.587234369,193.261066615 181.150533081,192.704881393 S182.188899367,191.197968142 182.740825823,190.646231229 S184.248216772,189.60859728 184.799955505,189.056712261 S185.837108073,187.548877018 186.388990839,186.997098947 S187.900809043,185.963733592 188.449091902,185.408268123 S189.537780944,183.915317354 190.037147623,183.301150613 S191.631009393,181.741327544 192.098236532,180.920216845 S193.042463091,178.019186284 193.685296174,176.889849638 S195.162492538,175.251373245 195.747389393,174.509342611 S196.922861081,172.978240939 197.332889241,172.262322967 S199.088668168,169.609451446 199.304160516,168.299143863 S199.671634672,162.653617033 199.304423764,160.274349086 S197.903285188,156.955825316 197.332115251,155.521680048 S196.400502031,152.516683884 195.748685941,151.346280133 S194.275645685,149.705925055 193.683481007,148.970176836 S192.604031965,147.438582296 192.100570318,146.813597458 S190.500833627,145.260887889 190.034295218,144.440167841 S189.084817911,141.535800985 188.452977794,140.39686466 S186.849210962,138.872725264 186.475426875,138.025056922 S186.170855378,136.468042931 186.475400142,135.912109883 S187.906280878,134.823889457 188.498695804,134.331668626 S190.044628417,132.724044298 190.86773117,132.262646079 S193.795352258,131.230350404 195.006632274,130.683581815 S197.695927702,129.070514027 198.951993522,128.613431477 S203.279126334,127.727981814 205.031575936,127.035503236 S207.246141694,125.594245119 208.187050462,124.964208643 S209.752008698,123.798294502 210.478608979,123.388146952 S213.106858034,121.573231054 214.418424836,121.446754823 S220.199284108,121.3392966 222.448468784,122.23387654 S225.213550987,125.006150046 226.385977656,126.206671961 S227.932694325,127.886129176 228.634111804,128.567748157 S230.168843679,130.214339263 230.995393653,130.685980686 S233.918662198,131.677112524 235.102987682,132.258982711 S237.170497319,133.957117162 238.248205532,134.249355 S241.221584592,134.549345718 242.444186438,134.249666302 S245.126998871,132.700043224 246.372059606,132.258067437 S250.71880857,131.382025945 252.478238696,130.687745174 S254.685549646,129.246025535 255.618834698,128.609239305 S257.190720643,127.547243815 257.824842101,127.039724219 S259.357558988,125.422555195 260.178436076,124.959958847 S263.107947156,123.970009495 264.297146675,123.392327419 S266.337628165,121.611162127 267.432353977,121.436194929 S270.533980066,121.563946129 271.637207398,122.219184481 S274.178993524,125.278106666 275.55243374,126.258943174 S280.053458846,128.116341233 281.677566244,129.389464189 S283.777827177,132.353705725 284.809833803,133.515734536 S286.428908679,135.519405284 287.425910105,135.862040061 S294.482711666,137.721762019 297.586485376,137.906626117 S314.519733639,138.328656204 321.759310893,137.906974312 S329.485047758,136.776466557 332.694753849,135.861683356 S336.206490241,134.696905844 337.153466162,133.519558694 S338.109420186,130.607137776 337.936683939,129.344546737 S336.290575869,126.721965279 336.048759883,125.444865191 S335.568317569,121.132456296 336.049293455,119.376692294 S337.357465299,117.772954322 338.138369528,117.816912308 S340.187616507,119.455678583 341.253760058,119.669657634 S345.573883982,120.046122661 347.3695962,119.669654489 S349.450534062,118.112897461 350.483230212,117.734714093 S352.076345145,117.433972652 352.65423369,117.734368873 S353.548795768,119.328130272 354.210256763,119.672085412 S355.769999115,119.897140072 356.381332803,119.672434624 S358.412931558,117.9569592 359.48869881,117.731909846 S363.840774623,117.386722698 365.6597059,117.731408933 S368.256133066,119.457041002 369.540652995,119.636748301 S372.708586935,119.625468052 373.73479937,118.861133123 S375.320883517,115.978996846 376.061513088,114.779936044 S377.708039808,112.719988602 378.160246814,111.6964441 S378.58271601,109.28180181 378.927170999,108.293684467 S379.785670593,106.672869425 380.15359899,105.978234407" fill="url(#diagonal)" id="month199609" stroke="#000000" stroke-dasharray="3 1" stroke-width="1" /><line stroke="#000000" stroke-width="2" x1="387.0" x2="387.0" y1="396.0" y2="612.0" /><path d="M324.025680203,219.086232457 C327.134756695,219.316188905 331.294308385,219.477976114 334.389268509,219.852753951 S342.997400996,221.612177721 346.744818484,221.83735983 S361.219919091,222.200208409 367.408308822,221.836866255 S376.070287721,220.187386768 379.830993239,219.894753992 S388.621086852,219.476662118 392.35478273,219.895699662 S396.216610643,221.183832196 397.798999336,221.911326685 S399.463515108,222.950798144 400.124956192,223.467994129 S401.644734022,225.094300635 402.463252645,225.558413542 S405.41723124,226.469477908 406.561957609,227.11787497 S408.17133614,228.613724203 408.902684533,229.205843037 S410.449679904,230.260637123 411.070267166,230.767920593 S412.635517328,232.35224237 413.415174451,232.894464581 S416.501989908,234.241599203 417.502005004,235.240952406 S419.038271205,238.167955151 419.849863907,239.324895025 S421.333846922,240.999952302 422.014980609,241.674279638 S423.542716854,243.323374602 424.366838118,243.796732559 S427.306026454,244.713817379 428.442310539,245.366003058 S430.124798278,246.814706575 430.796767469,247.487277812 S432.447516455,249.017105996 432.916678924,249.844380225 S433.941189015,252.783385222 434.489050748,253.997881292 S436.109860596,256.67654923 436.564468704,257.930775178 S437.491808096,262.280110125 438.138762082,264.067131222 S439.677166473,266.782591544 440.212067707,268.00620019 S441.373007314,271.072968469 441.787957479,272.414816285 S443.564197782,277.311985837 443.770534258,279.513414742 S444.163004146,289.365597976 443.770024628,293.561731314 S442.443322234,298.552866945 441.789455867,300.666855829 S440.759600156,303.779583789 440.210077449,305.071252441 S438.49002944,307.724445121 438.233321329,309.025650552 S437.853110419,313.310008509 438.233804485,315.088610705 S439.586399806,317.323927326 440.208656899,318.254415851 S441.232203867,319.835289555 441.792332982,320.409835597 S443.303711772,321.443537923 443.855859299,321.995492052 S444.89009794,323.506009047 445.441887846,324.058112154 S446.955080379,325.089976096 447.503614771,325.645318022 S448.592283104,327.138482297 449.091416633,327.752933074 S450.683698168,329.314750775 451.151396321,330.135864296 S452.098852241,333.032036441 452.740919341,334.160176722 S454.203060295,335.811833294 454.799203949,336.545223576 S455.834452624,338.086425277 456.390395971,338.64985077 S457.89518337,339.690495342 458.447037656,340.242151534 S459.488279057,341.746185292 460.039846523,342.297991315 S461.543123139,343.340049347 462.09489744,343.891589046 S463.137758474,345.394120969 463.689270997,345.945864139 S465.191046703,346.989538541 465.742783303,347.541000481 S466.783902487,349.045644063 467.33898676,349.59376304 S468.838058201,350.677003723 469.439840355,351.191666204 S471.178040799,352.704666736 471.835073769,353.438953991 S475.172873622,356.466522304 475.739943239,358.232538525 S476.741829496,365.129097819 476.539130244,368.088725003 S475.112366165,371.395042598 474.736374336,372.885724304 S474.504426027,374.567100609 474.737688052,375.2308401 S476.288997685,377.382521363 476.686599865,378.435027508 S477.783432398,382.775890965 478.287353544,384.627279387 S479.913872996,389.627006226 480.33395514,391.835281447 S481.259661063,400.24978167 481.936621549,403.810642042 S483.397007446,408.852251293 483.981997471,411.024243927 S485.013555084,415.484568567 485.585863476,417.359807394 S487.174561955,421.242954186 487.630065881,422.9775887 S488.72105246,428.777468028 489.234377348,431.25395348 S490.944791834,437.380775791 491.175643718,440.0828804 S491.556658969,449.823556421 491.175372356,453.973159781 S489.893386148,459.054753826 489.235175191,461.201310597 S488.232067587,464.289664497 487.628729375,465.53946754 S486.095963441,467.733051741 485.587734583,468.756910891 S484.510562068,471.669437038 483.980316614,472.889425599 S482.29480993,475.596022784 482.04351254,476.911455763 S481.760314764,481.216596755 482.043012505,483.030373427 S483.641183416,486.902148379 483.875257145,488.663851185 S484.163856866,494.389405971 483.875048537,496.818776855 S482.281970138,501.83460213 482.044481458,504.063798808 S481.65845097,511.039231867 482.045421587,513.992640993 S483.29590534,517.422189301 483.97882694,518.826970343 S485.204096177,520.489510727 485.588921079,521.281678141 S487.316539836,524.569242792 487.52085221,526.11827864 S487.866772674,533.009169129 487.521428565,535.933376958 S486.017131086,539.826342353 485.695284151,541.576311002 S485.405685466,544.606518647 485.696202096,545.857625876 S487.185944459,548.625295617 487.626455322,549.892882108 S488.722320854,554.212319031 489.23855266,556.05087218 S490.930468202,560.49791491 491.167636675,562.5047554 S491.592365456,569.434306865 491.165960836,572.359957125 S490.148702782,576.078741927 489.025625281,577.201538476 S485.754653095,579.111205886 484.183154802,579.341016316 S477.302337197,579.7060668 474.385673044,579.342434031 S470.419629327,578.02261038 468.734626376,577.414983397 S465.73270209,576.456732378 464.562103839,575.799967997 S462.816234757,574.392100867 462.13759106,573.713715419 S460.538945238,572.117163387 460.051572421,571.291153002 S459.208022397,568.425525566 458.435217732,567.438850033 S457.024517467,566.423502112 456.40269834,566.632466343 S455.187664285,567.997255176 454.786419134,568.665040031 S453.15020954,571.407119415 452.754186602,572.704616707 S451.766898994,578.279190277 451.137646614,580.619581069 S449.649305408,584.555894218 449.105648785,586.274695386 S448.374547115,590.555308564 447.488507295,592.156541477 S445.965727532,593.331517647 445.40322232,592.96564424 S443.940302687,590.152643547 442.978241474,589.222904091 S440.149637888,587.614600556 439.021835836,586.798649136 S437.215316416,585.367946058 436.597511938,584.606521887 S434.860754726,582.484137506 434.619424489,581.372818583 S434.273576503,577.222303683 434.618250396,575.492078417 S436.108449868,573.31938546 436.435803658,572.254793713 S436.552388892,570.374738441 436.435809979,569.581167988 S434.791647719,562.837407061 434.618205883,559.882128212 S434.254888828,544.977082517 434.617793793,538.603954481 S436.152395474,531.854187678 436.382080702,528.90597428 S436.173740341,526.879010532 435.573283735,526.339394517 S432.814403466,525.335845424 431.72349481,524.719414369 S430.153604091,523.158877961 429.299527358,522.79433303 S427.765850864,522.499748699 427.214096971,522.794671473 S426.086373537,524.183120375 425.59716475,524.773315083 S424.032942234,526.371653138 423.564932217,527.197122489 S422.532455639,530.049846523 421.948653011,531.20850773 S420.440448419,533.420959339 419.916133619,534.43881889 S419.161944855,537.381336 418.300167351,538.291363241 S416.689706147,538.73183035 416.267308943,538.291936239 S415.278457128,535.560329663 414.651707769,534.491773963 S413.223798665,532.801063261 412.618458189,532.070948185 S411.680710922,530.448281483 411.002503959,530.090385288 S409.470758634,529.882885229 408.862911459,530.089110843 S406.725109153,531.689745349 405.635524289,531.911251983 S401.552464035,532.39724332 399.902988747,531.910614049 S398.694898718,530.464196847 399.095932127,529.981937253 S401.797719503,528.998816566 402.848584302,528.36841113 S404.604676999,526.974411204 405.265663293,526.280764593 S407.105235647,524.779277364 407.143523757,523.86125232 S406.504654152,520.733742522 405.531993762,519.895021252 S401.423529448,518.318378633 399.738956382,517.476322684 S397.472024036,516.029097961 396.514536588,515.387526971 S394.951087524,514.187494863 394.216462676,513.775938141 S391.510991012,512.057726892 390.187779123,511.843106214 S384.638516624,511.487269978 382.29865053,511.842907657 S378.920104388,513.205265738 377.467153218,513.776521929 S374.492023096,514.791975294 373.286597235,515.3861728 S371.088775315,516.913600909 370.065922528,517.424853156 S367.164041713,518.445975578 365.987688198,519.034384639 S363.788294288,520.554180135 362.770606858,521.073951653 S359.852554261,521.905210501 358.844717357,522.682570401 S357.868956478,524.087492289 358.039564755,524.723076228 S359.511177674,525.681924741 359.824079432,526.331085083 S360.071795805,527.847149692 359.823261121,528.42361455 S358.341862704,530.025422567 357.883559097,530.832033437 S357.137318439,533.760386364 356.278160369,534.662964974 S354.669579223,535.097205398 354.235079324,534.664901813 S353.571274808,531.763333242 352.630065881,531.033310899 S350.910897787,531.261592474 350.585863476,531.834489749 S349.874475074,535.952881348 348.980977185,537.465102552 S347.420952343,538.562941836 346.785330201,538.26679035 S344.309284489,535.15093952 342.779801569,534.57582722 S337.226616851,533.561671167 334.843252788,533.776360598 S331.438633405,535.044082229 330.040028298,535.723404597 S326.922018474,537.118714991 325.894166716,538.12305883 S324.309224522,540.985062758 323.492515107,542.121170109 S322.044998346,543.89516092 321.295497963,544.520170559 S319.162996738,546.191532499 318.098331501,546.619388954 S313.84203257,547.57126313 312.093708514,548.218088808 S309.284442453,549.661311417 308.101120465,550.318046982 S305.019733496,551.719224452 303.996722163,552.711860538 S302.552522247,555.628577778 301.602387031,556.623820055 S300.146310668,557.615898911 299.500393581,557.421649447 S298.437798697,556.036052223 297.906314269,555.512283964 S296.30521958,554.58698794 295.946764974,553.919612937 S295.649196824,552.404050587 295.946658161,551.863773155 S297.363663319,550.76298737 297.9551653,550.271766191 S299.518290996,548.679340604 300.34114487,548.214309564 S303.242721998,547.219161143 304.41034701,546.623658112 S306.614692044,545.116983324 307.58909925,544.517764218 S310.636570706,543.0777593 311.709058626,542.135260017 S313.731240283,539.125680611 314.88438489,538.106688292 S317.798792938,536.534938362 318.961697137,535.726364819 S320.604488366,534.223510282 321.340968299,533.617391134 S322.887498095,532.588455775 323.450636218,532.031991342 S324.489473045,530.526318093 325.034586344,529.96754577 S326.651444198,529.053735139 327.009438758,528.384015105 S327.27001251,526.850085985 327.009665695,526.272656636 S325.513548121,524.674158564 324.988104856,523.900850907 S323.565615416,520.864959474 322.618030576,519.809380212 S319.642257165,517.694153188 318.480026094,516.651058928 S315.970691733,513.476173996 314.534740165,512.554683585 S310.208832003,510.98973904 308.409189722,510.188320664 S305.689231867,508.629148772 304.468457336,508.071957144 S301.488733245,507.135873429 300.321350945,506.496831421 S298.807110485,504.881440183 297.959180547,504.508684588 S296.391072857,504.246847733 295.797557248,504.508141866 S294.249369321,506.049911703 293.439587135,506.498427107 S290.517177982,507.43933326 289.369600176,508.068405128 S287.903911293,509.796778542 287.013759743,510.020896106 S285.327050822,509.642566523 284.724444699,509.23793736 S281.771596776,505.882254739 280.023017525,505.326854563 S272.967212374,504.29470897 269.944873371,504.54351101 S266.546515952,505.730984897 265.248231169,506.543130096 S263.493536634,508.04852136 262.998834006,508.888622805 S262.030640795,511.835345008 261.434972969,513.018785447 S259.863067142,515.139261473 259.348211017,516.14148201 S258.742405739,519.263074572 257.787875515,520.118236714 S255.960917822,519.9603749 255.77777598,519.340229199 S255.44387895,515.086422494 255.776494887,513.307400694 S257.584456379,510.708555135 257.633273151,509.415960532 S257.189046902,506.016876682 256.078649176,505.306810234 S251.818388799,504.308213837 249.990208317,504.528447011 S247.306437609,505.986294544 246.107588633,506.507981746 S243.083788652,507.452104987 241.875693581,508.059532722 S239.73724511,509.6041027 238.774549009,510.195019099 S235.626532069,511.509630649 234.612510042,512.517776874 S233.087912554,515.467535969 232.289900842,516.642091642 S230.621114691,518.121433671 230.230484884,518.967472323 S229.932295265,520.535402084 230.230701313,521.101972485 S231.822310793,521.99668132 232.172813576,522.655286132 S232.475659264,524.199553689 232.171867906,524.749480358 S230.681924922,525.751389792 230.156240883,526.305709598 S229.008978882,527.815756545 228.599918518,528.516005773 S226.806206655,531.114740352 226.589171677,532.411990425 S226.180592705,538.129064387 226.589975621,540.529730875 S227.877191248,543.35010895 228.638683004,544.430550483 S230.273921597,546.065364823 230.980890535,546.759774478 S234.360680938,549.110275233 234.988691067,550.667750842 S236.074708527,556.253335809 235.769541388,558.635708578 S234.44874741,560.541632475 233.767718922,560.199611967 S232.570194162,557.10902553 231.417725732,556.450175628 S228.364236421,555.936535833 227.213268913,556.452525596 S224.124718405,559.54440975 222.50700567,560.444936821 S216.650800283,562.260840367 214.404169067,563.582927009 S211.961876536,566.760510511 210.477762783,567.523847335 S208.612915036,567.3509242 208.273497574,566.736167314 S207.26432764,562.470801755 206.699603839,560.680801575 S205.0820933,556.878051269 204.625248568,555.172343784 S203.768277202,549.428674259 203.049905544,547.054032435 S201.670818944,544.25612415 200.977636526,543.114835641 S200.136865828,541.303642546 199.400233328,541.045038479 S197.732540903,541.305372408 197.329998406,541.834286585 S196.325397949,544.682828544 195.751099627,545.839758444 S194.06397884,547.920086989 193.772917185,549.000063433 S193.489798377,551.958312533 193.772879965,553.179889301 S195.415095473,555.843528664 195.65815845,557.135410379 S196.037540806,561.417270441 195.657162148,563.194864545 S194.30592124,565.431722687 193.68369075,566.362537283 S192.659231301,567.942868521 192.099102542,568.517480306 S190.588593133,569.552127693 190.036482441,570.104050009 S189.001339454,571.613731928 188.449560717,572.165776933 S186.940679,573.201788126 186.38871393,573.753578795 S185.344943643,575.254436804 184.800626231,575.813558483 S183.19548219,576.735634664 182.835841737,577.403081503 S182.56532071,578.905920845 182.835077649,579.461366111 S184.571771887,580.338328852 184.607951177,581.051958155 S183.748279393,582.820771651 183.01514193,583.013098218 S178.858334188,583.385463008 177.133740623,583.012694485 S174.886716703,581.667295421 173.947524427,581.05314519 S172.392673966,579.911672554 171.700766856,579.460001199 S169.60818842,577.736895018 168.509812929,577.503451182 S164.267187861,577.157756665 162.496787649,577.50382844 S159.727054329,578.923144429 158.506359614,579.458892002 S155.555766916,580.409327512 154.404095658,581.055609277 S152.74180488,582.509947852 152.006871348,583.10620083 S150.490481373,584.167831059 149.907980984,584.703315695 S149.021470894,586.628746943 148.309540939,586.505106076 S146.481626584,585.013397288 146.45956338,584.104429049 S146.904763278,578.33273076 148.059652895,576.210123648 S152.522885963,572.646019786 153.803021092,570.607662483 S155.472949446,566.405715175 155.402420711,564.518245136 S154.247449977,562.112887083 153.455743399,561.313915117 S151.373820856,559.466095832 150.250933766,559.319483668 S145.91617949,559.301226433 144.318079886,560.120836453 S142.089815774,562.855957242 141.110163361,564.007468694 S139.601312076,565.684230306 138.965502613,566.412408804 S138.101557207,568.243006746 137.359947487,568.302507887 S135.610481481,567.427954972 135.419472904,566.696915346 S135.053150958,562.583930922 135.419737646,560.87681899 S136.737811027,558.602977739 137.359169103,557.664185484 S138.421760331,556.113057946 138.964670387,555.520880876 S140.753741804,554.642625057 140.799163997,553.912024194 S139.888729533,552.219940392 139.191525349,551.871994293 S135.068197091,551.074000104 133.48571524,550.262180973 S131.874364168,548.92331573 131.876613617,548.11941711 S133.499229864,545.981762983 133.500719562,544.900000234 S133.047270854,540.418748936 131.889181732,538.992919984 S127.80750702,536.775103164 126.087571447,535.772998688 S123.9364937,534.138808848 122.86647176,533.735921881 S121.287098908,533.498022232 120.672881386,533.734247917 S119.144535817,535.372273403 118.255238158,535.509384499 S115.229429629,535.53970205 114.392253965,534.702589277 S113.405729824,532.010196184 113.58579903,530.840296156 S115.022885868,529.2570818 115.358832905,528.42277748 S115.772302874,526.86654261 115.357541475,526.440280035 S113.951819067,526.192138525 113.427746305,526.438142586 S112.49565561,528.244528936 111.8145936,528.103368879 S110.101462607,526.574804019 109.780137905,525.682122425 S108.848820825,520.23195931 108.166447956,517.968348285 S106.635246323,515.215155042 106.238527916,513.933666732 S105.941639046,512.328012843 106.238647051,511.741124437 S107.640579972,510.666372388 108.166097684,510.124785055 S109.237639304,508.650442374 109.779947821,508.091535474 S111.354197122,507.142876253 111.706585091,506.4759343 S111.973241829,504.992069061 111.707661705,504.443075892 S110.121163037,503.522121928 109.941246218,502.826719272 S110.267695019,501.20774564 110.749817312,500.740878729 S113.672100796,499.314890783 114.601345864,498.314075167 S116.516396402,495.382151657 117.024765889,493.982632989 S118.726238282,488.375520496 119.110228196,485.901321948 S120.073002739,474.838145181 120.727270407,470.125935254 S122.201009179,462.781758173 122.759170443,459.620668423 S123.682425363,452.468800649 124.376003809,449.46170342 S125.779918146,445.493088402 126.407747377,443.801800856 S127.368410836,440.80172744 128.025104605,439.631516443 S129.439581775,437.890957708 130.110246047,437.204045764 S131.788292868,435.647237321 132.535422034,435.011930998 S135.615851799,433.036000308 136.491585666,431.777801427 S138.124479506,427.595987971 138.916794201,425.843580179 S140.434983784,423.043039514 141.001889675,421.802103705 S141.976247964,418.882461261 142.619325287,417.738878013 S144.053997778,416.051044268 144.650964542,415.312960423 S145.712322278,413.79163476 146.267928299,413.227781081 S147.752833538,412.165076031 148.299671866,411.610090097 S149.418721943,410.140332775 149.916505233,409.524842257 S151.488911806,407.929382497 151.948405269,407.09856699 S153.097941009,404.185852985 153.565056088,402.927854758 S155.182631593,399.026657057 155.59716475,397.272009973 S156.493666286,390.371986447 157.213580866,387.484281048 S158.528908579,384.040735688 159.245950309,382.63608224 S160.346729505,381.004257036 160.862079565,380.337031362 S162.423644379,378.736088464 162.894761946,377.911951994 S163.854153996,375.054356247 164.511715221,373.952642288 S165.909961085,372.104335919 166.704099486,371.529580002 S169.439250134,369.844687746 170.742438311,369.443170191 S176.346421158,368.410259219 178.716960422,367.828368896 S183.170541386,366.168331815 185.174470085,365.900575577 S190.785467598,365.540886521 193.151538263,365.89968338 S195.912677684,367.349344555 197.187887457,367.722320164 S198.794122384,368.019083695 199.381011502,367.721690729 S200.454404636,366.318226115 200.996073781,365.792606714 S202.480313898,364.730632275 203.031103195,364.179751844 S204.100975459,362.70330469 204.643660956,362.144416011 S206.229137678,361.201990108 206.574391465,360.530670172 S206.792087415,358.994186266 206.574563547,358.38992162 S205.049193497,356.217691372 204.643155006,355.165843185 S203.667128825,350.950475627 203.031950735,349.212735344 S201.550813341,346.419543286 200.994887225,345.184796932 S200.027900684,342.255660749 199.38368674,341.109714928 S197.950841308,339.423865912 197.345840884,338.693771021 S196.409166643,337.074168721 195.735448822,336.707139727 S194.243394389,336.431488668 193.696768466,336.705823936 S192.741117308,338.209839081 192.087236982,338.538068576 S190.588047462,338.824582847 190.047669969,338.537568541 S188.973828065,337.134684679 188.439768844,336.600764467 S186.848589703,335.663828396 186.50181112,334.992632638 S186.282762009,333.453948184 186.501559614,332.84932803 S188.037072627,330.686617146 188.440508308,329.63528245 S189.449926862,325.384115883 190.046431257,323.611556745 S191.594782075,320.283694087 192.08897118,318.793591657 S193.142213359,314.44801364 193.693845224,312.613701135 S195.384159747,308.762240696 195.636454887,306.997330186 S196.019672797,301.383961314 195.636746104,299.022293134 S194.340382446,296.181185025 193.692989003,295.011167768 S192.473176613,293.390190728 192.091081014,292.614305249 S190.348676103,289.349184255 190.144985493,287.80657183 S189.792020019,280.83248982 190.144667802,277.873511808 S191.545739263,273.401858994 192.092015074,271.469540917 S192.999407634,267.099616718 193.692113515,265.325283716 S195.102262347,263.068528725 195.740651414,262.123733348 S196.833054773,260.564908279 197.340090652,259.926394362 S198.921211548,258.350355071 199.389984614,257.528101887 S200.317295166,254.629700528 200.989628551,253.524908489 S202.419804779,251.622267114 203.284210691,251.129029544 S207.118613161,249.398876942 208.870216789,249.02817595 S217.220471573,248.119408115 220.750299374,247.432590295 S225.160911176,245.83762818 227.129733541,245.475322323 S230.16685418,245.090895366 231.383558501,245.475840855 S233.207579245,246.809689373 233.775389261,247.577899871 S235.48065724,250.267643205 235.879167079,251.558110643 S236.799527722,257.197171301 237.471477052,259.546690794 S238.942339593,262.875032518 239.528933679,264.319783863 S240.521361156,267.32019421 241.119297719,268.531087233 S242.667824558,270.695236049 243.178423348,271.710436727 S244.121560724,274.642007112 244.767092308,275.783833632 S246.232136677,277.43235626 246.827939095,278.165758146 S247.858533964,279.710852322 248.414860819,280.274047543 S249.925656432,281.308215763 250.477480921,281.860356917 S251.510502325,283.372020573 252.062603252,283.923883234 S253.578571449,284.952746663 254.127048824,285.508349808 S255.210631023,287.005108631 255.710319607,287.6189904 S257.310180765,289.171320736 257.776642806,289.991980778 S258.713752475,292.904128275 259.358009883,294.036476475 S260.823613453,295.680364552 261.426262866,296.406560804 S262.332005224,298.057940639 263.005674082,298.431934285 S264.530175645,298.729181985 265.075909004,298.43269642 S266.106159487,296.977494942 266.653549357,296.450119641 S268.155829069,295.374163055 268.769423925,294.874229869 S270.309629911,293.261845639 271.132402902,292.800924244 S274.067539342,291.774534134 275.280612113,291.226630866 S277.95869661,289.605285827 279.212963276,289.15121291 S283.570469011,288.233717727 285.356749585,287.578841086 S288.112741918,286.107231792 289.284255311,285.458929631 S292.422150812,284.111667724 293.442149887,283.104472701 S294.98895896,280.187568768 295.795925686,279.02900028 S297.317641677,277.413293063 297.918917073,276.677142771 S298.988136324,275.140940128 299.485315593,274.512026069 S301.21165224,273.047902657 301.486587213,272.164167166 S301.851748635,269.247929798 301.487182884,268.077336613 S300.060321626,266.456110391 299.48356423,265.732611127 S298.478840061,264.167993828 297.922059253,263.605154128 S296.372140893,262.611207394 295.834091186,262.043424494 S294.622883454,260.510458588 294.27496543,259.756518057 S292.460565305,256.037009002 292.263042628,254.304939973 S291.86475085,245.745738023 292.262407246,242.108470012 S293.646850682,237.743733937 294.27683355,235.885275687 S295.148823935,232.77108931 295.831555909,231.579431665 S297.265675067,229.779458498 298.079175322,229.248572244 S301.258107303,227.522162372 302.732776799,227.075728956 S309.99009853,225.94111246 312.884017448,224.766634928 S315.353922949,222.0953201 316.717486364,221.400128623 S321.833222051,219.780401307 324.025680203,219.086232457" fill="#FFFFFF" id="month201609" stroke="#000000" stroke-width="2" /></svg>