<?xml version="1.0" encoding="utf-8" ?>
<svg baseProfile="full" height="1650.0" version="1.1" width="1275.0" xmlns="http://www.w3.org/2000/svg" xmlns:ev="http://www.w3.org/2001/xml-events" xmlns:xlink="http://www.w3.org/1999/xlink"><defs><pattern height="36" id="diagonal" patternUnits="userSpaceOnUse" width="36"><rect fill="#ffffff" height="36" width="36" x="0" y="0" /><path d="M0,36 l36,-36 M-9.0,9.0 l18.0,-18.0 M27.0,45.0 l18.0,-18.0" stroke="#000000" stroke-width="1" /></pattern></defs><g id="labels"><text alignment-baseline="after-edge" font-size="24" text-anchor="middle" x="300.0" y="215.0">September 1996</text><text alignment-baseline="before-edge" font-size="24" text-anchor="middle" x="806.25" y="1285.0">September 2016</text></g><line stroke="#000000" stroke-dasharray="5 2" stroke-width="2" x1="300.0" x2="300.0" y1="825.0" y2="225.0" /><path d="M791.986664563,220.787988347 C793.050026948,221.267227151 794.652083166,221.61893116 795.531205847,222.385451025 S797.613308356,225.533865069 798.743025672,226.678957969 S802.182760528,228.517063434 802.954662481,229.909941771 S803.570569824,233.121742243 802.95451041,234.278479951 S799.648762713,236.146742782 798.905833098,237.512185188 S798.015296269,240.825006824 798.907218979,241.717062609 S801.982846644,242.28155516 803.111301315,241.718280862 S804.963209537,237.486844021 806.348874271,238.002519823 S810.199047377,242.194721549 810.547106111,244.485519222 S811.291479745,259.332858412 810.547048342,265.633394896 S807.137178167,274.576625207 806.515922518,278.603665228 S805.754296495,287.883597895 806.51735086,291.754289017 S809.600197393,297.363827181 810.708282872,299.869950781 S812.59396307,306.143808705 813.955310258,308.576498075 S817.053967362,311.942662381 818.307482951,313.449508893 S820.15502687,316.928079859 821.558097931,317.715781372 S824.753368728,318.325035641 825.907406556,317.716200356 S827.790449684,314.427860791 829.160868453,313.704790703 S832.36453725,313.078368796 833.507347312,313.706265619 S835.616093071,316.784371298 836.764425499,317.882430952 S839.883854511,320.220307476 841.279004678,321.137688088 S845.504563373,325.048637502 847.796986538,325.136888458 S857.427434944,324.352311808 860.476659132,321.87673635 S864.557036038,312.944744141 866.99959182,309.546857866 S869.975066522,306.17535757 871.683469986,306.286726467 S876.064781093,309.46908906 878.213568609,310.277884377 S887.249436282,312.19404348 890.959215241,313.542042491 S896.601760709,316.724528199 899.124648817,317.876211862 S905.431235588,319.506401802 907.613702922,321.144718687 S909.643723052,324.144549051 909.248958981,325.476246943 S906.054113451,327.390030799 905.359996092,328.747377734 S904.729670946,331.942218185 905.362459483,333.076299174 S908.365830023,335.323405971 909.602078178,336.350019631 S912.801452985,339.716165126 914.514462934,340.676368555 S920.635684627,342.811274277 923.165216399,343.952644378 S928.746419604,347.326011319 931.357956856,348.276455086 S940.395591257,350.110954772 944.054924596,351.555251974 S948.672072598,354.541741183 950.613905522,355.876558767 S953.919183977,357.990499924 955.114833165,359.15784242 S957.247556453,362.325692976 958.398320401,363.476679599 S961.565051056,365.609898501 962.715935635,366.760415717 S964.850415602,369.925983309 966.000885123,371.07681758 S969.165454773,373.212392549 970.316082191,374.362971863 S972.48042159,377.498062541 973.60135801,378.676972712 S977.406752168,380.430247446 977.54326867,381.963941462 S975.796656915,385.762571904 974.252886388,385.99656529 S965.207272962,385.941325303 961.785677212,384.35236132 S956.655824002,377.875633317 953.560084746,376.386979904 S947.013813972,374.6414903 945.225807289,376.389188446 S943.966322855,382.439816521 945.224253342,384.534889658 S951.290614582,387.344427608 953.083242044,389.475683012 S954.043891067,392.973254532 953.079939047,393.874517087 S947.210857187,395.947747786 944.850145177,397.173350288 S940.277163163,400.319344801 938.255221707,401.571013134 S931.821172938,404.419617219 929.747816988,406.522338057 S926.123100058,412.525509741 924.797679063,415.219154619 S921.098314928,421.935456444 920.594886514,425.12378195 S919.781528114,436.889110927 920.594864643,441.836524695 S923.31723287,447.698778873 924.700101379,450.095236975 S926.807096347,453.480711263 928.006035362,454.679799382 S931.131769149,457.124263267 932.591791093,457.987908126 S938.188135774,461.455612521 940.85755748,462.281843353 S952.502580149,463.787038041 957.153898674,465.590292771 S961.275500276,468.474821653 960.461853789,469.882169986 S954.700702947,471.594888338 952.758304399,473.193265782 S950.791243193,476.210184324 951.105687958,477.58125133 S954.390712198,480.74503767 954.904123406,482.54963601 S955.60685305,488.515474603 954.903039804,490.928632012 S951.737677779,494.150547381 951.010554019,495.899478275 S950.373486691,499.134852561 951.013520095,500.283987386 S953.953711025,502.687700548 955.299376133,503.599755821 S959.6468714,507.198042987 961.932713516,507.684720216 S970.788505438,508.408037109 974.483526649,507.684241425 S980.239663454,504.716368304 982.779519951,503.601163541 S988.938944032,501.630215201 991.34142288,500.282245996 S994.793749234,497.244034123 996.323477696,496.001996553 S999.513592783,493.823204172 1000.70298823,492.681278789 S1002.62561131,489.327689048 1004.02850611,488.604484176 S1007.3018595,488.18199298 1008.60912885,488.605592286 S1014.3014053,491.818460585 1016.9202424,492.781840991 S1028.87048683,495.436850519 1033.51734247,497.768470331 S1040.32078299,503.843642695 1043.49362947,506.115381043 S1049.65584164,509.43444799 1052.14274035,511.104139407 S1055.3531444,514.480737612 1057.1361006,515.274868277 S1060.33707374,515.86431767 1061.51029087,515.276456764 S1063.47346279,512.099469482 1064.84148585,511.413950592 S1068.01118831,510.893558155 1069.2148022,511.415711877 S1072.507374,514.575327633 1074.21567202,515.480675177 S1080.42547134,517.975502211 1083.16624115,518.809562844 S1093.5160482,522.525667804 1098.16279275,522.76817178 S1118.59451545,522.890228487 1127.10624108,521.102700451 S1138.50888854,514.900700454 1143.77265265,513.189749397 S1152.74327676,510.933719671 1156.56885889,511.526075063 S1159.93824298,514.087540596 1159.90919049,515.688340421 S1156.593059,520.104833 1156.37225141,522.359200285 S1156.33282057,531.4010927 1158.04377659,534.733555697 S1163.7516949,539.368299938 1166.15268056,541.408736199 S1169.61247941,544.590131537 1171.15920019,545.87947231 S1174.35877697,548.055154388 1175.52508713,549.221539931 S1177.82791956,552.305970247 1178.86645039,553.587220659 S1182.15410546,556.882218009 1183.12644127,558.59943982 S1185.24743328,564.587094346 1186.46850061,567.01304145 S1189.68103985,571.564034173 1190.72710233,573.700000837 S1193.10999011,579.866864291 1194.06907628,582.532741819 S1197.65251602,590.54909542 1198.11474038,594.234691949 S1198.96302305,608.673159945 1198.11293787,614.776914203 S1195.80820448,622.18711134 1193.85639287,624.810341629 S1189.42463002,628.541807384 1187.16612245,629.489408802 S1178.35248144,631.512226074 1174.72080568,632.839054829 S1168.92418302,635.942645673 1166.35408288,637.093064614 S1160.23780333,639.235289377 1157.74090476,640.439536738 S1153.31214546,643.887537416 1151.04076756,644.478634772 S1144.81841482,644.964049904 1142.21548695,644.479830273 S1134.16658091,641.090369989 1130.49307428,640.656171394 S1116.0168628,639.891753324 1109.88084873,640.657963067 S1101.65450169,643.429579372 1098.15599228,644.694132682 S1091.87677678,646.661074833 1089.44207148,648.045658906 S1085.71001733,650.965595921 1084.41183698,652.510248476 S1080.95653328,656.991386387 1080.05558838,659.214257438 S1078.071746,667.951912789 1076.70395175,671.527654396 S1073.2400898,675.94831587 1072.78042354,678.23327994 S1073.34195928,681.80070898 1074.45717091,682.696221458 S1080.25274073,684.73704162 1082.5179672,686.052505975 S1086.01387351,689.055508714 1087.54843548,690.298592412 S1090.7278568,692.496673151 1091.90230269,693.654358967 S1094.11133427,696.751304436 1095.25933309,697.899450698 S1098.36406104,700.100796751 1099.50394033,701.256972939 S1101.82352856,704.32813886 1102.86116035,705.609961616 S1106.13067593,708.927621814 1107.10482434,710.646610188 S1109.2451599,716.605819603 1110.46297047,719.024163273 S1113.6400139,723.608848062 1114.7057255,725.740576031 S1116.88142477,731.755720091 1118.06240365,734.225202858 S1121.6346616,738.635982466 1121.9761398,740.943356622 S1121.81086668,747.250588725 1120.29587216,749.316788326 S1114.58968534,752.846475051 1112.14193634,754.355568293 S1107.70614406,757.865485344 1105.42286362,758.486338273 S1099.41065309,759.105246507 1096.9423957,758.488516301 S1092.46678077,755.253278147 1090.22017627,754.687724504 S1084.2561642,753.968592716 1081.85119497,754.689501586 S1078.34720809,757.539079541 1076.80549997,758.708881614 S1073.6317652,761.219641163 1072.1264899,762.068317283 S1066.47921034,765.637475494 1063.72037224,766.086293193 S1052.25332808,766.870804828 1047.42945867,766.086119087 S1041.45269292,763.450509821 1039.02294149,762.068829181 S1035.70083728,759.866478174 1034.4547581,758.708042344 S1032.47820566,755.426262502 1031.08803087,754.692022832 S1027.97516119,754.098508896 1026.85131267,754.692179528 S1024.61406562,757.612831712 1023.4863751,758.707581636 S1020.39774879,760.92379691 1019.25025716,762.071203108 S1017.01664431,765.142697672 1015.88635715,766.307033782 S1012.62335228,768.291063428 1011.87249862,769.671210462 S1011.02140812,772.83313151 1011.87263355,773.684674739 S1014.8149558,774.236225797 1015.88596043,773.686170688 S1017.8900323,770.573822423 1019.25092173,769.895274587 S1022.36213687,769.30373667 1023.48544471,769.897021102 S1025.7400413,772.798301128 1026.85087709,773.909254594 S1030.12919701,775.88563915 1030.86255975,777.274917667 S1031.45513953,780.385367949 1030.86245094,781.508758929 S1027.92913308,783.73448154 1026.85119703,784.8781156 S1024.40832842,787.935529226 1023.48654669,789.334209481 S1019.9619879,793.768140096 1019.4760617,796.068895207 S1018.71659263,804.725782213 1019.47615311,808.322552882 S1022.20088419,813.089144191 1023.48627795,815.058598385 S1025.79823528,818.289827462 1026.85328065,819.625637839 S1030.11053392,822.959831981 1031.08583137,824.680518561 S1033.26668882,830.60631107 1034.45313691,833.033824944 S1037.87074862,837.495994535 1038.46220474,839.772833946 S1039.03328796,845.917808716 1038.46049241,848.460336797 S1035.4863359,855.529419861 1034.22837653,858.565974213 S1030.7212148,870.719123309 1027.49268435,874.9352342 S1018.92461795,880.839487778 1015.24405574,883.357439782 S1010.49768321,886.510861298 1008.50640951,887.924154397 S1005.20352162,890.082584963 1004.05141621,891.30134032 S1001.36211479,894.554053303 1000.67992432,896.203406137 S997.195785521,905.511077995 996.448488359,909.683172167 S994.29592745,929.973852897 993.080160648,938.632216727 S989.617178235,955.058295567 989.0724431,962.213380587 S988.285720913,982.590840341 989.072464863,991.273220117 S991.724812102,1001.93400774 993.080096661,1006.44120112 S995.46499922,1012.98107726 996.446942643,1015.79810475 S999.996894972,1023.88685721 1000.45447415,1027.59702703 S1001.10755918,1042.12725561 1000.45612276,1048.30556999 S997.221076495,1058.81208533 996.672255615,1063.46811825 S995.971955555,1075.3641416 996.673904232,1080.3927857 S999.608276868,1088.60902706 1000.68143574,1092.18922079 S1002.83149504,1101.21340766 1004.04828172,1104.99464177 S1007.49092754,1111.89218185 1008.05591352,1115.10583174 S1008.68073088,1124.04282599 1008.05758688,1127.79963798 S1004.80357973,1134.71490387 1004.27341885,1137.90974431 S1003.64988417,1146.84701341 1004.27338975,1150.60385925 S1007.52288685,1157.5184535 1008.0577918,1160.71195538 S1008.84030492,1169.52498187 1008.05535513,1173.1830362 S1005.43736354,1178.08955532 1003.93554772,1179.92260181 S1000.62485912,1183.35245267 998.883539142,1184.37772788 S992.961892442,1186.42296264 990.643335359,1187.74894966 S987.133786757,1190.74599178 985.589110535,1191.98083581 S982.435373736,1194.29520431 981.133860309,1195.35100782 S977.71265776,1198.54084423 976.080053839,1199.6946982 S969.889180385,1202.69663236 967.838661712,1204.74748015 S964.434361918,1210.60219829 962.787663078,1212.98922241 S959.43682977,1216.24493083 958.666496369,1218.04328108 S958.197075284,1221.32310273 958.666411813,1222.61032053 S961.757459688,1227.21308719 962.787749702,1229.34636604 S965.557563693,1238.34274374 967.837693647,1241.60002371 S973.66840353,1246.244701 976.081504903,1248.33716193 S979.940100112,1251.41193482 981.130985101,1253.12697129 S984.792235198,1258.77192124 985.25352533,1261.54611973 S985.990418328,1273.06711033 985.254451644,1277.92549583 S982.452732083,1284.9960361 981.242768982,1288.0225906 S979.522779608,1294.23643862 977.876523335,1296.38035789 S974.89191591,1298.3866609 973.531031522,1298.065585 S970.161886105,1295.08176816 968.482030003,1294.16389814 S962.553962403,1292.12600747 960.233804898,1290.80000691 S956.722313929,1287.80816968 955.185445531,1286.56472504 S952.013619224,1284.35657869 950.839046822,1283.19892567 S948.620518226,1280.11081001 947.472715811,1278.963095 S944.375764713,1276.75336067 943.236597873,1275.59705562 S940.883012301,1272.55407212 939.874074694,1271.250136 S936.284646079,1268.09205899 935.968651155,1266.20406821 S936.180242522,1260.00743171 937.6481626,1257.95086691 S943.477674876,1254.8681535 945.460742801,1252.9055911 S947.545315353,1249.89567789 947.139621101,1248.55755298 S944.319325829,1246.21178993 943.122316071,1245.19262243 S939.716407864,1241.9900765 938.080334866,1240.84422393 S931.911661967,1237.73918675 929.712999424,1235.80117112 S925.386677991,1229.65522409 922.990067805,1227.54287692 S917.003442879,1224.20705212 914.620907406,1222.49915897 S910.867026298,1219.51428971 909.580130712,1217.93011775 S905.952278918,1213.52155402 905.449286296,1211.20886846 S904.724300177,1202.53884845 905.446712556,1198.92527341 S908.563973284,1194.41270044 909.249836194,1192.19815843 S909.493981206,1188.29294599 909.250039901,1186.64493562 S905.806886549,1172.63648393 905.445278124,1166.49545461 S904.682250227,1135.33634202 905.444284489,1122.01354453 S908.65665119,1107.99391645 909.141785033,1101.86868458 S908.713083054,1097.65274392 907.462269519,1096.53474856 S901.689975681,1094.45823874 899.410586689,1093.17079773 S896.154231206,1089.90624836 894.376976615,1089.14393338 S891.17445641,1088.52702056 890.023622938,1089.14446229 S887.686709762,1092.05049556 886.666586979,1093.28068852 S883.394627214,1096.59418338 882.421002183,1098.3126631 S880.284595828,1104.27703951 879.065737268,1106.6964345 S875.908813767,1111.28490148 874.819140616,1113.40211349 S873.261930128,1119.55845343 871.464904707,1121.46469222 S868.097535691,1122.38737244 867.217261899,1121.46599279 S865.173089452,1115.74429051 863.864089296,1113.50894405 S860.87552283,1110.00389195 859.615366032,1108.48442747 S857.674402097,1105.0911829 856.261782058,1104.34227858 S853.064626832,1103.90619199 851.797430641,1104.33972794 S847.366169998,1107.69811374 845.099586557,1108.16111348 S836.549715308,1109.1795968 833.096038293,1108.15990048 S830.57903881,1105.12770771 831.421158067,1104.12256466 S837.083972512,1102.09073661 839.28390437,1100.77414067 S842.923841622,1097.85725284 844.300220577,1096.41481622 S848.149992106,1093.30557683 848.234695946,1091.39376656 S846.923932903,1084.84886743 844.890205369,1083.09854882 S836.287703855,1079.83564362 832.764094383,1078.07906173 S828.061820324,1075.05331365 826.072383529,1073.71753049 S822.813744199,1071.23109076 821.28688163,1070.37282672 S815.675851836,1066.775068 812.925446689,1066.32751173 S801.318387081,1065.58078244 796.424781153,1066.32717223 S789.414850127,1069.184874 786.396329363,1070.37382492 S780.182829045,1072.47513392 777.668178123,1073.71512223 S773.109785708,1076.91112429 770.982612279,1077.97441425 S764.918146106,1080.08761622 762.462630513,1081.31577472 S757.900301011,1084.49582152 755.78345517,1085.57647304 S749.68137361,1087.29510575 747.57404427,1088.91641005 S745.541651638,1091.85333004 745.902473762,1093.17854898 S748.986947191,1095.16425011 749.643682984,1096.51773007 S750.162641524,1099.68292807 749.641939259,1100.88528838 S746.539931486,1104.20772912 745.585820193,1105.88779337 S744.042409057,1112.01059004 742.250995564,1113.89976616 S738.890106775,1114.80816451 737.985105045,1113.90330155 S736.61328881,1107.83345382 734.650420255,1106.30035633 S731.059601459,1106.76951264 730.382969076,1107.9656571 S728.910314523,1116.57635175 727.047818817,1119.7401648 S723.793757874,1122.02644181 722.470849833,1121.40593837 S717.331470546,1114.88859689 714.144082657,1113.68773154 S702.549477536,1111.5753826 697.573804304,1112.02584396 S690.496086765,1114.6779534 687.586539237,1116.09205885 S681.081296336,1118.98913626 678.939212232,1121.08267424 S675.645526228,1127.05580426 673.944077632,1129.42534086 S670.925672504,1133.11448359 669.365300962,1134.41586177 S664.929545454,1137.901895 662.712825233,1138.79240919 S653.835412573,1140.77090991 650.189435941,1142.11930568 S644.336879483,1145.11655571 641.880716797,1146.49677207 S635.262270743,1149.13645357 633.526434175,1151.48291487 S631.537139158,1157.44462626 631.862352998,1160.03935055 S635.152229785,1165.6494675 635.639523179,1168.34223237 S636.526839238,1177.22796545 635.634244159,1180.88267852 S633.026550306,1186.23928164 630.955013143,1187.52286696 S621.816081595,1191.23841699 617.684480495,1192.00487972 S597.448454791,1193.75876207 588.897326551,1195.32508417 S579.359621134,1197.79532536 575.629591584,1199.70813241 S571.906506391,1202.98544206 570.650094173,1204.68249926 S567.626713971,1210.94698486 565.674045119,1213.15525714 S559.41906844,1217.38145318 557.297478857,1219.78296563 S553.976744564,1225.81598405 552.329430983,1228.26056176 S548.718487997,1231.35987784 548.235894215,1233.23016119 S548.855151732,1236.72242246 549.889672093,1237.71580255 S556.086030586,1240.61393988 558.080294737,1242.68307466 S561.684902424,1248.68907528 563.043549889,1251.36351617 S566.437640369,1258.2073196 567.530792684,1261.28598582 S569.986824229,1273.39393781 572.49341186,1277.97734701 S578.219971831,1284.19811518 581.179299104,1286.24289902 S587.950339801,1289.90058089 591.093000772,1290.82896338 S602.959907881,1292.71241098 607.896637919,1294.13554473 S614.899553848,1297.06940425 617.805051319,1298.52936838 S624.377216976,1301.36044458 626.499949735,1303.48339934 S630.104157704,1309.49661374 631.452920667,1312.17866511 S634.947908141,1318.95445829 635.849741102,1322.07571058 S637.692150897,1333.90570481 639.148045561,1338.81156407 S642.418809863,1344.423484 643.262942496,1347.05562405 S643.900618747,1350.42396488 643.263512694,1351.64424633 S640.26473015,1353.82110583 639.146369095,1354.94030527 S637.244072369,1358.30591754 635.853111248,1359.06020302 S632.698465603,1359.64533095 631.544962872,1359.06236896 S629.711300919,1355.64084123 628.252913241,1355.2191834 S624.785466549,1355.76651257 623.942449601,1356.86428456 S621.984074584,1362.80745083 620.652732384,1365.11609672 S617.580575389,1368.5232955 616.33991918,1370.04763488 S614.211666265,1373.28079432 613.052568678,1374.45408153 S609.85400597,1376.55890072 608.737371609,1377.74325249 S606.202147055,1380.94823373 605.451430367,1382.51618491 S602.030493422,1390.46359082 600.951782935,1394.00427758 S598.227325271,1412.14775688 594.389323145,1418.82570173 S586.288398462,1425.88457447 581.972872138,1427.02669797 S578.616007975,1424.54084157 578.692547753,1422.97992413 S581.930650036,1416.24519582 582.653382327,1413.14868243 S584.627450707,1398.2729386 585.928060829,1391.97969983 S589.481855551,1381.79474345 590.074669764,1377.23943255 S590.906335995,1365.18208804 590.075318309,1360.11128846 S587.308507417,1354.30652395 585.926154008,1351.92554052 S583.830542553,1348.54694751 582.654649293,1347.32983196 S579.475552082,1345.20898914 578.324428733,1344.05732802 S576.212219598,1340.8703621 575.054167786,1339.72579977 S571.900310115,1337.51319888 570.633946032,1336.45642734 S567.275521227,1333.2184318 565.733938116,1331.94813644 S559.065742635,1328.06145285 557.237052018,1325.41711834 S553.910437258,1316.39154633 552.340383293,1312.5807055 S548.941309202,1305.84685026 547.915445677,1302.79168068 S545.853381726,1293.55671033 544.653226218,1289.68724263 S541.263379562,1281.81455844 540.312303994,1278.27809808 S538.835291481,1266.25257348 537.051268355,1261.42027461 S534.326450602,1256.68582179 532.283642457,1256.53124316 S524.475164077,1259.99839332 520.889999018,1260.19735667 S502.928974157,1260.51778873 495.571552246,1258.56862783 S486.277649327,1252.86229642 482.558599688,1250.04243203 S475.60659908,1244.94094192 473.606943859,1241.91458362 S470.515290012,1232.81395233 468.72913578,1229.11236746 S465.643526818,1224.54993761 464.293517793,1222.61365403 S462.18807052,1219.31237112 461.046827087,1218.09382763 S457.182691098,1216.39068226 457.020034122,1214.84751413 S458.725538057,1211.06173637 460.262679721,1210.65442201 S469.162290831,1209.82784648 472.845673954,1210.65400974 S477.520753219,1213.46213134 479.329765496,1214.931068 S482.665195173,1218.33213139 484.095458623,1219.78895116 S488.840312422,1227.14570391 492.191241723,1228.03134882 S504.711067115,1228.92994334 509.165311565,1226.41487062 S514.768663697,1217.60073435 517.255156854,1213.87910149 S520.478913942,1209.35085964 521.86199883,1207.41123553 S523.927447447,1204.07567877 525.095752582,1202.88353021 S528.301226669,1200.79336231 529.465829984,1199.65222109 S531.302378128,1196.20955114 532.695562065,1195.43682647 S535.911683518,1194.81712533 537.069109124,1195.43508851 S538.921439035,1198.76818719 540.297209457,1199.49543564 S543.531641134,1200.04529528 544.747683712,1199.49407344 S547.909801799,1196.2153765 549.594678644,1195.28097131 S555.785863271,1193.41367474 558.173316446,1192.04843669 S561.628530002,1188.99783527 563.024142886,1187.60148435 S566.48818762,1184.46117838 567.46921192,1182.74762532 S569.321691663,1176.55270962 570.707896993,1174.1802874 S573.692883879,1170.50863888 575.313413018,1169.32266109 S580.764685783,1165.6937994 583.41447464,1164.8810292 S595.409988834,1163.14158554 600.364195877,1161.63883005 S606.101065322,1158.69835671 608.470432793,1157.28082632 S611.858550969,1155.21101095 613.07212738,1154.03600808 S615.161231879,1150.82721633 616.319814758,1149.68093702 S619.478667023,1147.47625352 620.756536751,1146.43320326 S623.922837372,1143.0434126 625.630670362,1142.08103056 S631.785520747,1140.08189419 634.249038701,1138.83003504 S638.739359725,1135.63032631 640.752754455,1134.39660545 S647.204527205,1131.49466742 649.448533364,1129.51644476 S653.550879357,1123.12760861 655.957881788,1120.99239652 S662.12005275,1117.79488538 664.562916248,1116.1087254 S667.923387646,1112.9396305 669.449065623,1111.68025351 S672.703598159,1109.58040911 673.876483359,1108.42080411 S675.998467557,1105.24492921 677.136479389,1104.07988189 S680.546825081,1102.21345308 681.303190454,1100.81766243 S681.852988713,1097.60049167 681.302075011,1096.39272482 S678.14352556,1093.10534314 677.051012902,1091.49562329 S674.132764266,1085.11807982 672.152307928,1082.91135996 S665.907128257,1078.55286624 663.483338285,1076.37786659 S658.302814505,1069.72087953 655.312616718,1067.8001816 S646.257161426,1064.56674453 642.494038034,1062.89577993 S636.853525307,1059.63611125 634.317442436,1058.47755531 S628.09614249,1056.53791201 625.660214177,1055.20560275 S622.514096283,1051.83409079 620.749039692,1051.05643845 S617.481094378,1050.51251544 616.24422621,1051.05708699 S613.016532692,1054.26810324 611.329504838,1055.20369593 S605.250921848,1057.17123422 602.861552795,1058.47885624 S599.797486348,1062.06852979 597.942201349,1062.53012079 S594.428317657,1061.73006526 593.167864486,1060.89062547 S586.969081736,1053.9501408 583.324261662,1052.79482829 S568.716621179,1050.64750349 562.458196424,1051.15646494 S555.329081722,1053.59680174 552.610189106,1055.29262596 S548.967030088,1058.46436646 547.928562803,1060.21886942 S545.874104381,1066.30551397 544.640406516,1068.75766947 S541.40770317,1073.23344608 540.326405667,1075.32927203 S539.021593042,1081.74848325 537.038913784,1083.49127026 S533.289581266,1083.12375197 532.91328652,1081.84544843 S532.247309796,1073.12336471 532.911750655,1069.47096489 S536.586898916,1063.95626181 536.660833786,1061.24535924 S535.652762387,1054.28030643 533.365949829,1052.81725716 S524.656944098,1050.74019772 520.913245011,1051.17041968 S515.201431408,1054.10395865 512.676967717,1055.19481322 S506.467704987,1057.23593843 503.973393849,1058.49035628 S499.400378698,1061.63747702 497.377945343,1062.88886807 S490.963869361,1065.75629852 488.868077352,1067.83684861 S485.574125228,1073.833646 483.919573376,1076.24936228 S480.515014282,1079.4232095 479.71544474,1081.20008267 S479.116865053,1084.41945863 479.714283107,1085.59472504 S482.925405263,1087.5322074 483.628741684,1088.89848819 S484.239484706,1092.06120962 483.627061846,1093.19557475 S480.605415056,1095.34977128 479.523390885,1096.50265698 S477.065685124,1099.61911151 476.219353116,1101.08841271 S472.570162482,1106.62439568 472.119760787,1109.35596107 S471.292613667,1121.03738028 472.120880968,1125.94454621 S474.725707337,1131.93397201 476.316071103,1134.21748948 S479.803248412,1137.61804324 481.279058807,1139.09427935 S488.166960574,1144.12989199 489.466713857,1147.3719257 S491.727077625,1158.77441134 491.120990175,1163.64345624 S488.457405217,1167.62996768 487.028922088,1166.95609229 S484.4362681,1160.69010997 482.05755735,1159.36785494 S475.767905074,1158.32615919 473.386219367,1159.37251686 S466.808487806,1165.6570611 463.440265872,1167.54708093 S451.34659794,1171.11430164 446.999992795,1174.17869431 S442.284791544,1179.71055947 442.024971834,1182.64504082 S444.683235612,1186.12367263 445.80951406,1187.62431649 S448.095411941,1190.78778374 449.125254142,1192.10539682 S452.632006653,1195.24143749 453.204721434,1197.08598154 S454.143016552,1202.98289106 453.204260053,1205.24266226 S450.387133951,1207.29722461 449.126610672,1206.9027948 S446.925008406,1204.00393661 445.804085309,1202.92707672 S442.653912124,1200.77365692 441.527437387,1199.6023431 S439.063977407,1196.48513561 438.201855015,1195.02224131 S434.73989387,1189.39042162 433.926956404,1186.70545003 S431.856912777,1174.89284382 430.599641871,1169.91363557 S427.35358818,1160.67058697 426.32645827,1156.60496585 S424.484776852,1144.73502599 422.997445877,1139.82236061 S420.176379306,1133.90275837 418.725942986,1131.50040677 S416.931997578,1127.7576337 415.395267033,1127.23090362 S411.962939946,1127.80497213 411.125410552,1128.89524669 S408.978655529,1134.73952035 407.794479704,1137.12541612 S404.333489077,1141.52716156 403.732658956,1143.79027698 S403.158136123,1149.90135034 403.731673117,1152.42857737 S407.083702364,1158.05514967 407.584751633,1160.76409524 S408.359542265,1169.58619242 407.582979539,1173.25084005 S404.820167916,1177.97022226 403.525020909,1179.92221613 S401.356509909,1183.19449379 400.189425861,1184.394109 S397.074631036,1186.58443836 395.925812018,1187.73324445 S393.735824825,1190.84740292 392.587332768,1191.99611655 S389.473771498,1194.186754 388.325193834,1195.33532897 S386.11857892,1198.4321413 384.986688174,1199.59674331 S381.668740333,1201.54362066 380.935954655,1202.93811468 S380.406506149,1206.10598969 380.937032554,1207.30325383 S383.99021832,1210.7033709 385.091671864,1212.31651912 S388.160568579,1218.52553137 390.103807561,1220.7285743 S396.29239005,1225.01582845 398.408701823,1227.4139873 S401.742043002,1233.41469039 403.423965209,1235.82268966 S406.519776454,1239.2988525 407.786181165,1240.83967566 S409.974403437,1244.02703648 411.132334907,1245.20139335 S414.247340237,1247.39222229 415.387613799,1248.54893555 S417.730029098,1251.60029294 418.731361458,1252.90997753 S422.489728618,1256.03657917 422.559173328,1257.92891898 S421.431420571,1264.60957409 419.212074422,1266.00920826 S410.737476406,1268.11976873 407.093624348,1267.68229198 S402.364127585,1264.99761087 400.396289943,1263.75020652 S397.127258648,1261.27876318 395.609680559,1260.40266634 S389.927532992,1256.9795113 387.234093681,1256.15167926 S375.664305805,1254.27231247 370.87599471,1252.80073617 S364.915394005,1250.00442965 362.502175484,1248.55089815 S358.768305595,1246.7379889 358.253692842,1245.19806232 S358.928908333,1241.82433257 359.925866155,1240.84155321 S366.156628462,1238.09238572 367.77551472,1235.8116572 S369.827846775,1229.96202268 369.449681678,1227.42415743 S366.538789335,1222.81691009 365.526305348,1220.71721735 S363.53622104,1214.67319838 362.172303835,1212.33230646 S359.269194439,1208.58086395 357.709414446,1207.30108281 S353.309986127,1203.66443086 350.998403396,1203.16425259 S342.243638105,1202.45605286 338.588564643,1203.16372992 S332.756942697,1206.07236344 330.199149686,1207.19130017 S324.098295161,1209.20569899 321.711110905,1210.54697116 S318.209952119,1213.54766072 316.673921037,1214.79063515 S313.538148351,1217.03227482 312.321858465,1218.14486475 S310.437947194,1222.11752238 308.965622125,1221.84173032 S305.20020628,1218.69713042 305.160431379,1216.80340504 S306.137147004,1204.88405529 308.517184857,1200.49115441 S317.715918776,1192.98508246 320.366509464,1188.73713135 S323.856661725,1180.03704411 323.72167399,1176.12378345 S321.352420135,1171.07386996 319.699618901,1169.40414089 S315.328203589,1165.57679636 312.981931417,1165.27404541 S304.012025771,1165.25960196 300.701452022,1166.95271474 S296.022465446,1172.60283028 293.979450819,1174.99240399 S290.849310588,1178.51090826 289.52065246,1180.03012711 S287.698903091,1183.82836445 286.155634718,1183.93833871 S282.67851877,1181.97896483 281.807069338,1180.57980185 S279.459531957,1171.57503226 276.762790014,1168.8575777 S270.802776864,1166.12008203 268.507975966,1167.1785634 S265.084556989,1172.72025082 263.464471441,1174.99145294 S260.124877322,1178.24450742 259.338096696,1180.03384089 S258.760556585,1183.21058536 259.335835578,1184.38099064 S262.466208834,1186.37884213 263.129941094,1187.74834944 S263.580094503,1190.94730865 263.128181163,1192.20590033 S259.973648417,1196.74643648 259.113647081,1198.93384399 S257.42726859,1207.62130096 255.748652805,1210.97568009 S253.05188461,1214.33965665 251.402462138,1214.34311041 S248.17106142,1210.99252366 246.353713583,1210.99535231 S239.852417558,1212.34052407 238.106114481,1214.36380577 S234.809834316,1222.89954601 233.056745179,1226.40133376 S230.103697156,1231.17125998 228.711431178,1233.12964385 S226.865488737,1236.77098373 225.34250886,1237.25230349 S221.946968057,1236.59372169 220.997429105,1235.56756283 S217.552210028,1229.58491159 215.948251346,1227.10000742 S209.161657256,1219.41170598 207.926626852,1215.31785734 S205.798674834,1201.05174522 206.243530672,1194.93103616 S208.709576423,1187.74420587 210.142586697,1184.82877673 S212.321767051,1181.40776502 213.508604591,1180.15039669 S216.593558674,1177.92667851 217.741313946,1176.77847611 S219.962596976,1173.69348831 221.110114581,1172.54592539 S224.194958697,1170.32448851 225.342515234,1169.17697469 S227.564097098,1166.09226598 228.71160742,1164.94471553 S231.796189012,1162.72299755 232.943733672,1161.57549043 S235.165578903,1158.49102767 236.31308311,1157.34348852 S239.397248616,1155.12133817 240.54496926,1153.97402331 S242.744648306,1150.86502357 243.917015731,1149.74224435 S247.02535456,1147.24996859 248.483864666,1146.37092331 S254.308574971,1143.11428494 256.902555369,1141.91584861 S269.21779781,1138.96919618 272.71110571,1135.17777557 S276.124172746,1126.21154039 274.395118075,1122.9305016 S266.18447665,1118.2641726 262.706895572,1116.19387528 S258.206234674,1112.7999705 255.971803657,1111.96260822 S252.685265866,1111.47044702 251.405150597,1111.95849951 S248.203766921,1115.34907436 246.350787272,1115.63068492 S240.07313092,1115.68223392 238.335656968,1113.94476386 S236.280496545,1108.35891425 236.649757024,1105.92967644 S239.62580313,1102.6178989 240.32181198,1100.87853248 S241.180811844,1097.64523018 240.319332623,1096.75919453 S237.401204129,1096.24565256 236.311816018,1096.75423176 S234.358248433,1100.50168275 232.943296344,1100.20268595 S229.382624635,1097.00865719 228.712096198,1095.14831736 S226.762882393,1083.82262173 225.343626999,1079.11787158 S222.160894718,1073.37021468 221.335934227,1070.69676387 S220.718517983,1067.35306631 221.335908111,1066.13005042 S224.249723487,1063.88561659 225.343703783,1062.75759272 S227.580736768,1059.69044614 228.710317533,1058.52615676 S231.985317298,1056.54572236 232.718380657,1055.15631426 S233.272888055,1052.06791192 232.720897191,1050.92472395 S229.420875208,1049.00249529 229.047696831,1047.554229 S229.729503235,1044.18347898 230.733230545,1043.21079739 S236.815810639,1040.23633895 238.750343406,1038.15168948 S242.763665745,1032.05314577 243.800281041,1029.12976432 S247.488119078,1017.47264814 247.920904228,1012.28959055 S248.711486181,989.494055802 247.921796937,979.770274453 S245.348266334,967.922756314 243.912524522,962.932697191 S242.20381414,956.421761238 240.545368,954.132784343 S237.625552583,952.061844165 236.312658645,952.443410278 S234.061748982,955.274162831 232.944183862,956.341915027 S229.875772052,958.576999713 228.711131505,959.706116634 S226.755555332,963.038050876 225.337294391,963.716780715 S221.804454491,963.988951346 220.325195279,963.719330975 S209.847893557,960.237067854 205.17489961,960.041838336 S182.236560866,959.880802529 172.638522643,961.727065151 S159.613400896,967.276261137 154.125482245,969.861619108 S144.616492629,973.958184854 141.088990748,976.590046717 S136.905762846,982.783259504 134.351136851,984.615217337 S130.847870422,985.555148236 129.894315811,984.617903821 S128.113557496,978.881048745 126.526358263,976.924278668 S123.603024342,974.86063728 122.291076392,975.24429081 S120.050179247,978.087182199 118.924468808,979.147302622 S115.881876179,981.499696295 114.577989838,982.507970967 S111.418703481,986.101747186 109.529407743,986.412354656 S103.302822042,986.023305785 101.056722649,984.730919182 S95.5928217903,978.571054718 92.6492395822,976.699648598 S83.8689188982,973.699859743 80.4900728032,971.65550573 S77.0341626856,968.954218401 77.1265481945,967.307721433 S79.8796894712,965.051272021 80.9228101493,963.943249374 S83.1282316097,960.844490756 84.2837289251,959.705227774 S87.3503733802,957.379909239 88.6321274212,956.342245312 S91.9651340127,953.096326128 93.6735888691,952.103520558 S99.6532205174,950.351798686 101.712173902,948.7412584 S103.794336695,945.809258745 103.391815885,944.501796192 S100.568891978,942.158801388 99.3718644166,941.139497354 S95.9568689076,937.954080393 94.3350404525,936.789686608 S87.9633470424,934.054260478 86.291886802,931.748710923 S84.2718809726,925.915603767 84.6106358378,923.376207669 S87.7621925905,918.892540846 88.3050900745,916.657206538 S88.9544134876,910.633784074 88.3029431331,908.173445791 S85.2875467545,903.575555631 84.2791910531,901.453025074 S81.8793906849,895.303189397 80.9237244414,892.640616314 S77.3575497937,884.587178208 76.8982339283,880.889007146 S76.2082922509,866.378962528 76.8964462081,860.2150788 S80.1142463387,850.931677435 80.7055958568,846.785975415 S81.2359541844,837.456730193 80.7058286642,833.509105328 S77.341035257,823.05944635 76.8948068568,818.40861036 S76.0825209574,801.139061198 76.8961034331,793.802069177 S79.4066926357,785.460746433 80.9253869166,782.060317935 S83.0824725402,778.55468779 84.2786000753,777.272309186 S87.4015704479,775.08497233 88.5257155179,773.911940361 S91.018546395,770.807778843 91.8794240609,769.340940033 S95.3059491255,763.65583774 96.12760281,760.959178608 S98.1646488465,749.291476534 99.4802308964,744.395168406 S102.615274084,736.239228262 103.729507252,732.666555955 S105.645971912,723.675958862 107.081020582,720.024029946 S109.991767975,715.289568465 111.331428845,713.321095503 S113.514327104,710.056399043 114.681793117,708.855595029 S117.808912303,706.674500644 118.933367587,705.502076832 S121.413024901,702.390681314 122.283291757,700.929821419 S125.638627118,695.207873274 126.642616213,692.561066772 S129.129292755,680.653891611 131.668835605,676.186805164 S137.405836827,669.478577261 140.707819764,667.820204396 S152.297965968,664.070341023 157.434533296,663.246358558 S180.373478217,661.468784295 190.097620874,659.897339292 S200.890515166,657.527552651 205.148774629,655.535621603 S209.025196709,652.322878411 210.14698642,650.518635603 S212.274198997,644.534765604 213.496209353,642.10993325 S216.690748417,637.550840709 217.754129361,635.423799263 S219.869141604,629.36162465 221.096878988,626.906595814 S224.2929638,622.349282593 225.356171004,620.222477144 S227.469464785,614.158056887 228.697531472,611.702495377 S231.889411873,607.145147122 232.958229798,605.021899561 S234.959600509,598.967944269 236.298166807,596.603543472 S239.326081665,593.133432999 240.560305741,591.59383519 S242.851333161,588.428276188 243.898784991,587.122367948 S247.185080537,583.829620387 248.162398834,582.115942526 S250.16659983,576.131155614 251.499386026,573.795101112 S254.522193857,570.323363346 255.764509078,568.791266805 S257.941704124,565.595556906 259.09996991,564.421611928 S262.217975903,562.235233986 263.366636471,561.086231066 S265.551647285,557.967429501 266.700536644,556.818779887 S269.82010367,554.634592595 270.968781015,553.485672907 S273.152186844,550.365383214 274.301086228,549.216626768 S277.4298728,547.041224989 278.570942709,545.884457024 S280.86246112,542.791992617 281.901618662,541.511531429 S285.202363663,538.233027398 286.173121553,536.516969841 S288.26523906,530.499612291 289.502799246,528.074542122 S292.618452374,523.450059071 293.877631653,521.41954038 S296.79434855,515.061761302 298.867727065,512.972911016 S304.827354895,509.659968062 307.214637777,507.983012097 S310.665023321,504.870511921 312.202571277,503.605798845 S315.421843627,501.453253603 316.580456902,500.279139274 S318.960808861,497.181932776 319.904928248,495.800392262 S323.321553755,491.362973336 324.18335978,489.153726008 S326.393616357,480.136072605 327.505374931,476.316580315 S330.877097274,467.122086983 331.785624375,463.035833432 S333.642902475,448.309108331 335.106435737,442.129529994 S337.933875127,433.898111834 339.488049278,430.513348765 S342.350491571,423.909081847 344.465275974,421.747350311 S350.429115394,418.322102397 352.933740421,416.769170144 S357.440544047,413.468127306 359.565310114,412.384938859 S365.662419151,410.412509847 368.038527938,409.06887241 S371.481683582,406.023590813 373.010479696,404.781990163 S376.223404935,402.627222114 377.396943919,401.468502902 S379.560207014,398.329100296 380.710053799,397.179648394 S383.850451608,395.017911001 384.999907301,393.868150544 S387.16064182,390.726827121 388.310397582,389.577289474 S391.460018841,387.424444982 392.602274796,386.267225256 S394.870376966,383.156911154 395.910724214,381.877397111 S399.23126957,378.627765718 400.204659441,376.917118428 S402.171798106,370.873304758 403.511033697,368.52052008 S406.588526121,365.107027595 407.807061236,363.56113044 S410.255960586,360.371335289 411.11018592,358.879839515 S414.768058684,353.353023846 415.217001075,350.623216381 S415.982572234,338.861702153 415.217549509,333.90489393 S412.298510808,326.991302742 411.108573441,324.003500099 S409.167712564,317.743091425 407.809762378,315.304750277 S404.74092851,311.887343865 403.507252099,310.354535075 S401.258399927,307.163713117 400.209521496,305.861661371 S396.876736722,302.626849768 395.904781703,300.917016335 S393.926703981,294.866252052 392.610370404,292.493468041 S389.269189504,289.318177634 388.490472656,287.552201921 S387.855948705,284.308422773 388.490416962,283.150228922 S391.471418496,280.883103036 392.705616259,279.857642971 S395.926309202,276.50842562 397.641106604,275.547179331 S403.740317204,273.396563342 406.263817238,272.257462114 S411.866516046,268.896904223 414.483319838,267.94464891 S423.498179863,266.099962112 427.149116532,264.657298407 S431.762795197,261.654677331 433.723021795,260.342101339 S436.983351455,257.913113545 438.497102039,257.058639483 S443.972620904,253.277564695 446.705051743,253.014072547 S458.748508558,252.790201249 463.434309966,254.653909458 S469.194897889,260.429479263 471.63745345,262.930566585 S474.859779844,266.429435783 476.321066259,267.849475327 S479.518424331,271.279873464 481.240403443,272.262459762 S487.330546246,274.327317757 489.797891004,275.539547315 S494.105202749,279.077327421 496.350428192,279.68615625 S502.544967899,280.311136914 505.092055079,279.686804795 S510.681247648,276.458423383 513.275124179,275.537640495 S522.330851187,273.712554052 525.996330616,272.266135779 S530.594895096,269.262553199 532.539238954,267.935915219 S535.814001339,265.723424614 537.135087711,264.666092123 S540.328247892,261.29698999 542.038408491,260.333247598 S548.141556575,258.270853115 550.619055572,257.067348789 S554.870058678,253.356587765 557.150737452,252.99207277 S563.612458471,253.258221103 565.910848746,254.623301002 S571.206236507,260.996055554 574.067570292,263.039464946 S583.44470593,266.909044235 586.828263009,269.561383727 S591.203806619,275.736886926 593.353820422,278.157780283 S596.72689308,282.332094341 598.803979386,283.045916794 S613.505649304,286.92033754 619.971844533,287.305471077 S655.249445082,288.184700425 670.331897693,287.306196482 S686.427182828,284.950971994 693.114070518,283.045173659 S700.430188001,280.618553843 702.403054504,278.165747279 S704.394625388,272.098203701 704.034758207,269.467805702 S700.605366394,264.004094331 700.101583089,261.343469148 S699.100661602,252.35928395 700.102694697,248.70144228 S702.828052706,245.360321504 704.454936517,245.451900643 S708.724201056,248.865997048 710.945333454,249.311786738 S719.945591629,250.096088877 723.686658749,249.311780185 S728.021945962,246.068536377 730.173396275,245.28065436 S733.492385719,244.654109691 734.696320187,245.279935152 S736.559991183,248.600271399 737.938034923,249.316844609 S741.187498157,249.785708482 742.461110007,249.317572133 S746.693607412,245.743665 748.934789187,245.274812179 S758.001613799,244.555672287 761.791053958,245.27376861 S767.20027722,248.86883542 769.876360406,249.243225627 S776.476222781,249.219725108 778.614165354,247.627360674 S781.918507327,241.622910097 783.461485601,239.124866759 S786.891749601,234.833309588 787.833847528,232.700925208 S788.713991687,227.670420438 789.431606247,225.611842639 S791.220147068,222.235144635 791.986664563,220.787988347" fill="url(#diagonal)" id="month199609" stroke="#000000" stroke-dasharray="5 2" stroke-width="2" /><line stroke="#000000" stroke-width="4" x1="806.25" x2="806.25" y1="825.0" y2="1275.0" /><path d="M675.053500423,456.429650952 C681.530743115,456.908726886 690.196475802,457.24578357 696.644309395,458.026570732 S714.577918742,461.692036918 722.385038508,462.161166312 S752.541498105,462.917100852 765.433976712,462.160138031 S783.479766085,458.723722433 791.314569247,458.114070816 S809.627264275,457.243046079 817.405797354,458.116040962 S825.451272172,460.799650408 828.747915283,462.315263926 S832.215656475,464.480829466 833.593658733,465.558321101 S836.759862546,468.946459657 838.465109677,469.913361546 S844.619231751,471.811412308 847.004078352,473.162239521 S850.356950291,476.278592089 851.880592776,477.512172994 S855.1034998,479.709660673 856.396389929,480.766501236 S859.657327767,484.067171604 861.28161344,485.196801211 S867.712478975,488.003331673 869.795843759,490.085317513 S872.996398344,496.183239897 874.687216472,498.593531302 S877.778847754,502.083233963 879.197876268,503.488082579 S882.380660113,506.923697087 884.097579412,507.909859499 S890.220888445,509.820452873 892.588146956,511.179173037 S896.093329746,514.197305364 897.49326556,515.598495441 S900.932325948,518.785637491 901.909747759,520.509125468 S904.044143781,526.632052545 905.185522392,529.162252693 S908.562209575,534.742810896 909.509309799,537.355781622 S911.441266866,546.416896093 912.78908767,550.139856712 S915.994096818,555.797065716 917.108474389,558.346250396 S919.527098571,564.735350977 920.39157808,567.53086726 S924.092078713,577.733303827 924.52194637,582.319614047 S925.339591971,602.844995784 924.520884642,611.586940237 S921.75692132,621.985139468 920.394699722,626.389282978 S918.249166993,632.874132893 917.104328019,635.565109252 S913.520894667,641.092594003 912.986086103,643.803438649 S912.19398004,652.729184393 912.987092677,656.434605636 S915.804999596,661.091515263 917.10136854,663.030033023 S919.233758056,666.323519907 920.400693712,667.520490827 S923.549399525,669.674037339 924.699706873,670.823941776 S926.854370709,673.970852181 928.003933013,675.121066987 S931.156417456,677.270783533 932.29919744,678.427745879 S934.567256467,681.538504786 935.607117985,682.818610571 S938.924371183,686.072397448 939.898742335,687.783050618 S941.872608836,693.816742585 943.210248627,696.167034837 S946.256375614,699.607986029 947.498341561,701.13588245 S949.655109633,704.346719328 950.813324939,705.520522438 S953.948298687,707.688531962 955.097995116,708.837815695 S957.267248035,711.971219358 958.416346923,713.12081524 S961.548173205,715.291769472 962.697703,716.440810513 S964.870330154,719.571085353 966.019314576,720.720550289 S969.148013965,722.89487196 970.297465214,724.043751002 S972.466463514,727.178425131 973.622889084,728.320339667 S976.745954585,730.577091089 977.999667407,731.649304591 S981.620918332,734.801389034 982.989737019,736.331154147 S989.943486713,742.638588133 991.124881749,746.317788594 S993.212144784,760.685620455 992.789854674,766.851510423 S989.817429511,773.739672079 989.034113201,776.845258966 S988.550887557,780.348126269 989.036850108,781.730916876 S992.268745178,786.213586173 993.097083052,788.406307308 S995.382150829,797.449772843 996.43198655,801.306832055 S999.820568741,811.722929637 1000.69573987,816.323503015 S1002.62429388,833.853711812 1004.03462823,841.272170921 S1007.07709884,851.775523527 1008.29582806,856.300508182 S1010.44490642,865.592851182 1011.63721557,869.499598738 S1014.94700407,877.589487887 1015.89597059,881.203309791 S1018.16885929,893.286391725 1019.23828614,898.445736416 S1022.80164965,911.209949564 1023.28259108,916.839334167 S1024.07637285,937.132409211 1023.28202574,945.77741621 S1020.61122114,956.364070472 1019.23994831,960.836063744 S1017.15014081,967.270134369 1015.8931862,969.873890708 S1012.69992384,974.443857794 1011.64111372,976.57689769 S1009.39700431,982.644660496 1008.29232628,985.186303331 S1004.78085402,990.825047467 1004.25731779,993.565532839 S1003.66732243,1002.53457657 1004.25627605,1006.31327797 S1007.58579878,1014.37947579 1008.07345239,1018.04968997 S1008.6747018,1029.97792911 1008.07301778,1035.03911845 S1004.75410445,1045.48875444 1004.25933637,1050.13291418 S1003.45510619,1064.66506639 1004.26129497,1070.81800207 S1006.86646946,1077.96289438 1008.28922279,1080.88952155 S1010.84186704,1084.35314735 1011.64358558,1086.00349613 S1015.24279132,1092.85258915 1015.6684421,1096.07974717 S1016.38910974,1110.43576902 1015.66964284,1116.52786866 S1012.53568976,1124.63821323 1011.86517531,1128.28398125 S1011.26184472,1134.59691385 1011.8670877,1137.20338724 S1014.97071762,1142.96936587 1015.88844859,1145.61017106 S1018.17150178,1154.60899798 1019.24698471,1158.43931704 S1022.77180875,1167.7039894 1023.26590974,1171.88490708 S1024.15076137,1186.32147263 1023.26241841,1192.41657734 S1021.1431308,1200.16404568 1018.803386,1202.50320516 S1011.98886062,1206.48167893 1008.71490584,1206.96045066 S994.379869161,1207.7209725 988.303485509,1206.96340423 S980.040894432,1204.21377163 976.530471617,1202.94788208 S970.276462687,1200.95152579 967.837716332,1199.58326666 S964.200489076,1196.65021014 962.786648041,1195.23690712 S959.456135912,1191.91075706 958.440775877,1190.18990209 S956.683379994,1184.21984493 955.073370276,1182.1642709 S952.134411389,1180.04896273 950.838954875,1180.48430488 S948.307633926,1183.32761495 947.47170653,1184.7188334 S944.062936541,1190.43149878 943.237888754,1193.13461814 S941.181039572,1204.74831308 939.870097113,1209.62412723 S936.769386266,1217.82477962 935.636768303,1221.40561539 S934.113639823,1230.32355951 932.267723532,1233.65946141 S929.095265692,1236.10732843 927.923379833,1235.34509217 S924.875630598,1229.48467406 922.871336404,1227.54771686 S916.978412267,1224.19708449 914.628824658,1222.4971857 S910.865242533,1219.51655429 909.578149871,1217.93025393 S905.95990568,1213.5086198 905.457134352,1211.19337205 S904.736617715,1202.54646601 905.454688326,1198.94183003 S908.559270558,1194.41538637 909.24125762,1192.1974869 S909.484143524,1188.28070509 909.24127079,1186.62743331 S905.815932747,1172.57793138 905.454595589,1166.42110044 S904.697685059,1135.36892191 905.453737069,1122.09157184 S908.650823905,1108.02955766 909.129334796,1101.88744642 S908.695292377,1097.66460527 907.444341114,1096.54040524 S901.696673887,1094.44967797 899.423947521,1093.1654466 S896.153341857,1089.91432909 894.374015329,1089.15486048 S891.178855966,1088.54114312 890.029368689,1089.15556557 S887.679944869,1092.04816745 886.660759895,1093.27773976 S883.401962988,1096.6076107 882.426942119,1098.32733852 S880.275949248,1104.27051359 879.059693774,1106.6843911 S875.917600874,1111.29366529 874.825278373,1113.41420602 S873.254051782,1119.54445 871.458681982,1121.44034008 S868.103554472,1122.3579799 867.223560298,1121.44153383 S865.163452349,1115.7506868 863.857724519,1113.52452909 S860.882913886,1110.00221513 859.621787893,1108.48114205 S857.668147755,1105.10058642 856.255216582,1104.35496935 S853.064080488,1103.92267756 851.797732207,1104.35231426 S847.343977402,1107.68696948 845.074008935,1108.14844163 S836.567633406,1109.16092358 833.131226557,1108.1471126 S830.614372328,1105.13374343 831.449858599,1104.12903594 S837.078582297,1102.08086785 839.267883963,1100.76752319 S842.926410414,1097.86335668 844.303465193,1096.41825957 S848.135907599,1093.29016118 848.215674494,1091.377609 S846.88469615,1084.86196359 844.858320337,1083.11462761 S836.299019684,1079.82995549 832.789492463,1078.07567226 S828.066716742,1075.06062075 826.071951225,1073.72401452 S822.814765676,1071.22394763 821.284297241,1070.36653779 S815.647897941,1066.78693102 812.891206505,1066.33980461 S801.330242967,1065.59847912 796.455521937,1066.33939095 S789.416884142,1069.17763695 786.389902537,1070.36775402 S780.191714784,1072.48328186 777.680410906,1073.72119333 S773.10161524,1076.90333523 770.970671933,1077.96844407 S764.925086902,1080.09578245 762.474350412,1081.32163467 S757.892279766,1084.48787528 755.77209762,1085.57073261 S749.692821376,1087.30252188 747.59316116,1088.92202167 S745.560325996,1091.84894227 745.915759907,1093.17307547 S748.981620155,1095.17067654 749.633498816,1096.52309392 S750.149574595,1099.68156186 749.631794002,1100.88253031 S746.545547299,1104.21963035 745.590748118,1105.90006966 S744.036080082,1112.00080493 742.246167435,1113.88117703 S738.894956714,1114.78584458 737.989748592,1113.88521211 S736.606822516,1107.84027759 734.645970585,1106.31939771 S731.06437039,1106.79498432 730.387215574,1107.98852031 S728.905156404,1116.56850281 727.04370247,1119.71896365 S723.793650715,1122.00612882 722.469437919,1121.38914656 S717.311009353,1114.89779067 714.124586603,1113.69964004 S702.555451774,1111.58681493 697.590109976,1112.03408458 S690.497152927,1114.67517131 687.583392288,1116.09042624 S681.087538488,1118.9973229 678.946180658,1121.0897059 S675.644217755,1127.05221408 673.942739807,1129.41910439 S670.927079888,1133.11491858 669.365620756,1134.417022 S664.922909872,1137.89902604 662.704857294,1138.79039365 S653.837567853,1140.77346485 650.195226071,1142.12101835 S644.342588444,1145.12773212 641.877334301,1146.49593121 S635.457778118,1149.41505094 633.326504506,1151.48304279 S630.317754681,1157.55953704 628.338306315,1159.63295845 S625.304813892,1161.6997894 623.959153293,1161.29510301 S621.745413951,1158.40844213 620.638154728,1157.31725826 S617.302540791,1155.38955821 616.555760363,1153.99919362 S615.935826717,1150.84177206 616.555537835,1149.71619407 S619.507631915,1147.42289035 620.739927708,1146.3995129 S623.996439575,1143.08195959 625.710718479,1142.11314493 S631.755670829,1140.03991905 634.188222937,1138.79928773 S638.780608424,1135.66038192 640.810623437,1134.41200879 S647.159522305,1131.41199854 649.393872138,1129.44845837 S653.606750589,1123.17850127 656.009135188,1121.05560061 S662.080818621,1117.78112159 664.503535703,1116.09659337 S667.926017429,1112.96564642 669.460350623,1111.7028982 S672.682287697,1109.55928286 673.855492121,1108.39998196 S676.01973551,1105.26316269 677.155388216,1104.09905369 S680.52384208,1102.19528154 681.26966408,1100.80003147 S681.812526063,1097.6043458 681.270136865,1096.40136799 S678.153225251,1093.07116368 677.058551782,1091.46010606 S674.095032118,1085.13533224 672.120897033,1082.93620877 S665.921369094,1078.52948581 663.500054363,1076.35637277 S658.272274444,1069.74202916 655.280708678,1067.82225747 S646.268400006,1064.56195633 642.519145253,1062.89233472 S636.85256639,1059.64405994 634.309286117,1058.48324405 S628.101527593,1056.53306964 625.669481135,1055.20173213 S622.51481351,1051.83633372 620.748292806,1051.05975956 S617.481401786,1050.51426611 616.244910933,1051.05862889 S613.019519418,1054.27064938 611.332473199,1055.20505647 S605.244120795,1057.16527762 602.8533337,1058.47584402 S599.799815194,1062.07662196 597.945332798,1062.54353355 S594.431355879,1061.75534692 593.175926456,1060.9123695 S587.024159949,1053.92136404 583.381286511,1052.76428034 S568.681692446,1050.61397702 562.385152856,1051.1323146 S555.305241567,1053.60621854 552.600481603,1055.2981877 S548.944867988,1058.4344195 547.914237512,1060.18463084 S545.897168323,1066.32363543 544.656193686,1068.78913635 S541.381389879,1073.20679474 540.308772952,1075.29475419 S539.046678622,1081.79807203 537.058073989,1083.57965982 S533.251912129,1083.25078104 532.870366626,1081.95881083 S532.174747813,1073.09671353 532.86769768,1069.39041811 S536.634284122,1063.97615653 536.735985732,1061.28325111 S535.810514378,1054.20182642 533.497185784,1052.72252132 S524.621643332,1050.64211216 520.812933994,1051.10093127 S515.221745019,1054.13811363 512.724142986,1055.22496197 S506.424559692,1057.19188539 503.90769496,1058.45735984 S499.45259398,1061.67521396 497.446977101,1062.90628979 S490.888608478,1065.64506385 488.776062587,1067.74536849 S485.599817821,1073.89069994 483.93729342,1076.33769092 S480.460655605,1079.41965348 479.646843508,1081.18223401 S479.025615134,1084.44875434 479.647294402,1085.62910934 S482.963147486,1087.49308608 483.693361616,1088.86517944 S484.324290134,1092.08240352 483.69139147,1093.22808408 S480.587343588,1095.3153954 479.492168506,1096.47022833 S477.102039338,1099.61615947 476.249830246,1101.07501203 S472.512930532,1106.4890424 472.060774327,1109.19164672 S471.209568136,1121.10221747 472.06244921,1126.10360599 S474.744148434,1131.97939365 476.330589591,1134.23031351 S479.73733666,1137.63617671 481.210188614,1139.0828635 S488.251418621,1143.97974007 489.559773056,1147.22448092 S491.82230943,1158.86111627 491.186544557,1163.82439287 S488.434890438,1167.79506766 487.016081088,1167.08252493 S484.521237838,1160.64380319 482.120261941,1159.27119923 S475.758825876,1158.20111632 473.360976902,1159.27609499 S466.926496677,1165.71752031 463.556261813,1167.59361838 S451.355833923,1171.37675076 446.675352223,1174.13109794 S441.587242783,1180.75106357 438.49533913,1182.34134861 S434.610239659,1181.98109208 433.903119945,1180.70034857 S431.800682583,1171.81417032 430.624174664,1168.08500328 S427.254361042,1160.16260681 426.302601184,1156.60904955 S424.517244171,1144.64307137 423.020636551,1139.69590091 S420.147539467,1133.86692531 418.703409429,1131.48924092 S416.951803808,1127.71592197 415.417152767,1127.1771635 S411.942793548,1127.71952585 411.104163346,1128.82143039 S409.011245727,1134.7558928 407.81479089,1137.16616342 S404.299955917,1141.50018123 403.693577469,1143.75013215 S403.103746619,1149.91315111 403.693499927,1152.45810271 S407.114782235,1158.00735138 407.621163438,1160.69877162 S408.411543345,1169.61931342 407.619087809,1173.32263447 S404.804002583,1177.9827556 403.507689062,1179.92195267 S401.373398543,1183.21430942 400.20646363,1184.4114173 S397.059569028,1186.56693269 395.909338419,1187.71677085 S393.75279053,1190.86194152 392.603251494,1192.01203528 S389.459747917,1194.17039193 388.309820688,1195.31995582 S386.135299255,1198.44674334 385.001304648,1199.61158017 S381.657254563,1201.53257222 380.908003619,1202.92308646 S380.344418145,1206.05400176 380.906411769,1207.2111794 S384.524524764,1209.03818511 384.599898285,1210.52491282 S382.808915401,1214.20994094 381.281545687,1214.61062129 S372.621529558,1215.38638127 369.028626298,1214.60978018 S364.347326465,1211.80686546 362.39067589,1210.52738581 S359.151404096,1208.14931782 357.709930949,1207.20833583 S353.350392542,1203.61853129 351.062110269,1203.13218996 S342.223308044,1202.41199305 338.534974269,1203.13297592 S332.764696518,1206.08988423 330.221582529,1207.206025 S324.074514409,1209.18609898 321.675199288,1210.53251933 S318.2120935,1213.56239136 316.680981974,1214.80458506 S313.521836194,1217.01631471 312.308293717,1218.1319077 S310.461397695,1222.1432228 308.97821029,1221.88563766 S305.170055383,1218.77791102 305.124090376,1216.88422718 S306.051590163,1204.85985575 308.457610198,1200.4377576 S317.756012424,1193.01254122 320.422960608,1188.76596351 S323.901978012,1180.01190661 323.755043149,1176.07967737 S321.348854119,1171.06851476 319.699465414,1169.40398983 S315.362126783,1165.55436632 313.022778679,1165.24892431 S303.992040604,1165.2108884 300.662666429,1166.91840928 S296.020449529,1172.61657759 293.979507003,1175.01555978 S290.836066826,1178.50881314 289.511463777,1180.02585167 S287.711577514,1183.83959739 286.166557264,1183.9635581 S282.52183642,1182.14157286 282.123901882,1180.61857364 S281.360731162,1172.04985609 282.12445343,1168.4933729 S284.870439639,1163.75620362 286.164935632,1161.80038642 S288.378667356,1158.56887072 289.509729974,1157.33516849 S293.236962093,1155.50546887 293.331591661,1153.98338374 S291.434853193,1150.45820915 289.982344477,1149.73332144 S281.392077274,1148.07083355 278.095240083,1146.37954369 S274.738258683,1143.5902411 274.742945035,1141.91545231 S278.123395551,1137.46200621 278.126499087,1135.20833382 S277.18181428,1125.87239362 274.769128609,1122.90191663 S266.265639626,1118.28146492 262.682440516,1116.19374727 S258.201028542,1112.7891851 255.971816168,1111.94983725 S252.681456058,1111.45421298 251.401836222,1111.94634983 S248.217782953,1115.35890292 246.365079495,1115.64455104 S240.061311727,1115.7077126 238.317195761,1113.96372766 S236.261937133,1108.35457538 236.637081313,1105.91728366 S239.631012225,1102.61892042 240.330901885,1100.88078642 S241.192297655,1097.63863044 240.328211407,1096.75058341 S237.399623056,1096.23362193 236.307804803,1096.74613039 S234.365949188,1100.50943528 232.94707,1100.21535183 S229.378047097,1097.03084171 228.708620635,1095.17108839 S226.76837672,1083.8165819 225.346766576,1079.10072559 S222.156763173,1073.36490634 221.330266492,1070.69513903 S220.711748012,1067.35002676 221.330514689,1066.12734258 S224.251208275,1063.88827581 225.346036841,1062.75996886 S227.578415217,1059.68842161 228.708224628,1058.52403224 S231.987910671,1056.54765886 232.722052273,1055.15819646 S233.277587144,1052.06681054 232.724295218,1050.92307478 S229.41908966,1049.00442068 229.044262955,1047.55566515 S229.724364622,1044.18280342 230.728786067,1043.21016402 S236.816876657,1040.2393558 238.752803883,1038.15432326 S242.742492504,1032.04614928 243.801595603,1029.13048539 S247.346329754,1017.44900103 248.146308741,1012.29442073 S250.15208904,989.246135794 251.515146681,979.429031779 S254.585435789,964.128662861 255.748271756,957.543059215 S257.671719507,942.643334685 259.116674603,936.378548791 S262.041496137,928.110600837 263.349473701,924.587085117 S265.350855908,918.336932167 266.718967928,915.89899259 S269.665795364,912.272828559 271.063012598,910.841762009 S274.558943474,907.598411085 276.11546257,906.274856246 S282.533024581,902.158333975 284.357470138,899.537086307 S287.759332305,890.82497494 289.409987918,887.174125373 S292.572882883,881.339665653 293.753936824,878.754382719 S295.783849926,872.671794294 297.123594348,870.289329194 S300.11249537,866.773008892 301.356176129,865.235334216 S303.56733808,862.06590575 304.724850623,860.891210586 S307.818403204,858.677241731 308.957649721,857.521021035 S311.289004048,854.459026615 312.326052568,853.176754701 S315.601899597,849.852880202 316.559177643,848.122014563 S318.95404377,842.053860386 319.927200184,839.433030747 S323.297149152,831.305535535 324.160759895,827.650020778 S326.02847143,813.274971764 327.52829347,807.25891885 S330.268559539,800.084866016 331.762396476,797.158504666 S334.05568647,793.758868825 335.129332427,792.368815338 S338.382592455,789.033517634 339.364087387,787.316566654 S341.362820825,781.363242181 342.732740044,779.068004766 S345.64575226,775.217366498 347.300207263,774.019958338 S352.998437779,770.509766139 355.713413148,769.673271232 S367.388377412,767.521373372 372.327000878,766.309101866 S381.605294555,762.850691281 385.78014601,762.292865786 S397.469724163,761.543513585 402.399038048,762.291007042 S408.151411842,765.311134489 410.808098868,766.088167008 S414.154421633,766.706424364 415.377107295,766.086855686 S417.613342991,763.162971072 418.741820377,762.067930654 S421.833987287,759.855483906 422.981464991,758.707816342 S425.21036554,755.631884771 426.340960324,754.467533357 S429.64403683,752.504146059 430.363315551,751.105562858 S430.816848781,747.90455472 430.363674057,746.645670041 S427.185819785,742.120190358 426.339906263,739.928839969 S424.306518385,731.146824222 422.983230699,727.526531966 S419.897527793,721.707381845 418.739348385,719.134993609 S416.724793092,713.03262656 415.382680707,710.645239433 S412.397586059,707.133053983 411.137168509,705.612022961 S409.185763839,702.237851503 407.782185046,701.473207765 S404.673738311,700.898934724 403.534934304,701.470466533 S401.543994391,704.603831418 400.181743713,705.287642867 S397.058432212,705.884547598 395.932645769,705.286601126 S393.695475136,702.363926415 392.582851758,701.251592641 S389.267895214,699.299642491 388.545439833,697.901317995 S388.089087518,694.695725384 388.544915863,693.436100062 S391.743901306,688.930452388 392.584392309,686.740171771 S394.68734763,677.883574756 395.930065118,674.190743219 S399.155795989,667.257696015 400.185356624,664.153315952 S402.379611164,655.100028417 403.528844217,651.278544032 S407.050332806,643.254668116 407.575947681,639.57777122 S408.374318327,627.883252738 407.576554383,622.963110696 S404.875796763,617.044135469 403.527060422,614.606599517 S400.985784611,611.229564016 400.189752113,609.613135936 S396.55974188,602.81080053 396.135386443,599.597024646 S395.400041707,585.067687125 396.134724587,578.9031496 S399.053623465,569.587206237 400.191698072,565.561543577 S402.082099237,556.45753483 403.52523649,552.761007741 S406.463046557,548.059434844 407.793023778,546.091111142 S410.06886411,542.843558914 411.125188857,541.513321587 S414.419190726,538.229906397 415.395801279,536.516878931 S417.327698263,530.478542766 418.728392815,528.176892685 S421.707926623,524.213056488 423.508772272,523.185478218 S431.497110751,519.580993628 435.146284977,518.808699895 S452.542649111,516.915433574 459.89645703,515.484563114 S469.085231617,512.161725374 473.186944877,511.406921506 S479.514279541,510.606032013 482.049080211,511.408001781 S485.849123427,514.18685286 487.03206096,515.787291398 S490.584702583,521.390923343 491.414931414,524.079397172 S493.332349421,535.827440211 494.732243858,540.722272488 S497.796540819,547.656317746 499.018611831,550.666216381 S501.086169074,556.91707127 502.331870248,559.439765068 S505.557967828,563.948408436 506.621715308,566.063409848 S508.586584842,572.170848151 509.931442309,574.5496534 S512.983618077,577.984075542 514.224873115,579.511996138 S516.371945759,582.730942338 517.53096004,583.904265714 S520.678450899,586.058782841 521.828085251,587.209076911 S523.980213178,590.358376194 525.130423442,591.508090072 S528.288690519,593.651555547 529.431351717,594.8090621 S531.688814631,597.927309647 532.729832514,599.20623 S536.062876593,602.440251533 537.034672513,604.149959954 S538.986984322,610.216933906 540.329187257,612.575992656 S543.382528027,616.000759483 544.638047637,617.513668342 S546.525010883,620.954042998 547.92848767,621.733196428 S551.104532594,622.352462469 552.241477092,621.734784208 S554.387832264,618.703114463 555.528227828,617.604415918 S558.657977227,615.362839698 559.936299844,614.321312227 S563.145062314,610.962178414 564.859172712,610.001925508 S570.974040297,607.863612779 573.501275234,606.722147637 S579.080617938,603.344345472 581.693673492,602.39836023 S590.77181044,600.486911931 594.493228302,599.122585596 S600.234878996,596.0567329 602.675531899,594.706103397 S609.212814193,591.899307758 611.337812265,589.800984794 S614.560331167,583.724101599 616.241511845,581.31041725 S619.411753493,577.944360549 620.664410569,576.410714106 S622.891950675,573.210291934 623.927740818,571.90005431 S627.5242755,568.849797203 628.097056695,567.008681597 S628.857809655,560.933187078 628.098297676,558.494451278 S625.125670053,555.116896648 623.924092146,553.609606515 S621.830916795,550.349987142 620.670956778,549.177404433 S617.441960194,547.106682071 616.321023305,545.923801029 S613.797673863,542.730122058 613.072844646,541.159412619 S609.292844386,533.41043542 608.881338808,529.801958278 S608.051564271,511.970287548 608.880015095,504.392645858 S611.764272253,495.299445703 613.076736563,491.42765768 S614.893383199,484.939769397 616.315741478,482.457149303 S619.303489722,478.707205203 620.998281921,477.601192175 S627.62105688,474.004504942 630.693284999,473.074435325 S645.812705272,470.710650957 651.841703017,468.263822766 S656.987339476,462.698583542 659.828096591,461.250267964 S670.485879274,457.875836056 675.053500423,456.429650952" fill="#FFFFFF" id="month201609" stroke="#000000" stroke-width="4" /></svg>