<?xml version="1.0" encoding="utf-8" ?>
<svg baseProfile="full" height="859.459459459px" version="1.1" width="800px" xmlns="http://www.w3.org/2000/svg" xmlns:ev="http://www.w3.org/2001/xml-events" xmlns:xlink="http://www.w3.org/1999/xlink"><defs /><polyline fill="#ffffff" id="month199609" points="509.248446067,0.0130367890473 512.555422179,0.971128123198 514.473036405,4.44588054397 517.931783275,6.3660003749 517.930719067,9.84914868527 514.503564788,11.7735322364 514.504629966,15.2247087668 517.954077941,15.2236700339 519.884812335,11.8622077762 523.328481464,15.7310746737 523.327440796,32.968569093 519.917623055,40.7157033702 519.918676332,51.1287406234 523.353201335,55.9812902617 525.296495649,62.9051082165 528.756523721,65.8226477183 530.70396747,69.2644462075 534.159868615,69.2634396591 536.111427483,65.8734801338 539.563225317,65.8745194036 541.518894897,69.29195246 545.000062263,71.2495821072 548.920492659,74.6276236598 559.183834335,72.663900315 563.110353128,62.4757506229 566.619114983,60.5120291311 570.555694096,63.8805180091 580.809782218,65.8502568212 585.738670432,69.2838820065 592.565167685,71.2576518896 593.55159878,74.6873036529 590.215671749,76.6650351499 590.216713508,80.0907371075 593.622243591,82.0724066021 596.598164487,85.4941823701 603.438167503,87.4797662462 608.407435472,90.8976394408 618.596642038,92.8871140823 622.578480246,96.3011083197 626.029839531,98.2944501102 628.025140723,101.704589007 631.433360805,103.70177433 633.432459039,107.108081502 636.836859204,109.109086742 638.839683892,112.511585805 642.156059087,114.516324804 640.147501455,117.851346725 630.062640639,116.845734826 625.03715237,110.205826816 618.316579148,110.207738433 618.318329901,116.881944272 624.921682983,119.905464202 624.919740096,123.314887293 618.236795628,125.334685134 614.193728705,128.741098903 607.452545319,131.776751041 604.415165032,138.56031892 601.060284846,144.642378157 601.06116832,158.032697192 604.389647697,163.108073682 606.422198398,166.550777057 609.864595869,168.585177895 614.956064448,171.954466707 628.210145743,173.992372225 630.247165405,177.358089091 623.737174397,179.399583979 622.716994605,182.786343359 625.954607517,185.854257584 625.953701674,192.522039518 622.696469711,195.594344472 622.697465397,198.974402056 626.051507923,201.026373594 630.159761748,204.326926117 640.13305884,204.326061857 645.27551716,201.0289632 651.968187362,198.970115165 655.058728518,195.625334041 658.427835136,193.563071491 660.492002437,190.274701533 663.911656502,190.275582841 669.081386375,193.587382994 682.292711882,196.691343858 688.504053957,203.306672808 695.196636601,206.414813933 698.307455494,209.71837506 701.664368292,209.717656329 703.741863341,206.499995317 707.096084601,206.500891595 710.217750336,209.770121196 716.976913828,211.852275835 726.356641786,215.088700652 749.3404254,214.044802799 759.774538025,207.579329435 769.723083385,206.536320185 771.812191307,209.823250038 768.701172405,214.00791625 769.749299873,223.826946375 776.253082587,228.016504339 779.397762568,231.383556113 782.73416154,233.482055398 784.834148274,236.817318456 788.13804389,239.969973904 790.241112347,246.54484493 793.541896531,250.754175769 795.647976576,257.443774409 798.884640445,264.821733119 798.88378425,281.088786547 795.588589,287.419446601 791.363369356,290.835184698 781.581267326,292.949177398 776.293421799,296.23925755 769.685195406,298.355995427 765.44834843,301.580086201 758.78229787,301.579434405 751.356733786,298.421857225 735.134270627,298.422690978 727.700621418,301.640294452 721.077756899,303.766036462 717.887172814,307.108852322 714.578257084,311.366807332 712.448242173,321.062914841 709.272520875,325.325217515 710.340050927,328.662770365 716.750894024,330.797305985 719.954185922,334.066845966 723.25527472,336.204134265 725.394030464,339.470834401 728.659319533,341.611002509 730.800841032,344.908508861 734.06332568,348.123239394 736.207639792,354.611799536 739.467343635,358.903150568 741.614266658,365.419795162 744.768434555,369.716658988 743.692494278,376.19342744 737.286846872,379.419766792 732.981907392,382.637736653 726.478901142,382.637225322 722.168459563,379.526105213 715.705832176,379.526883681 712.469113412,382.704599928 709.082201089,384.863628542 703.67988968,388.037715835 690.918061019,388.037058407 685.511208272,384.865598413 682.163829739,382.701320029 679.99785468,379.53342433 676.759547094,379.53406994 674.591162193,382.699385571 671.355422866,384.86893638 669.184599128,388.103400433 666.024285577,390.275492961 666.024916413,393.434311062 669.182708937,393.433802525 671.35857415,390.351067461 674.586750395,390.351808202 676.765098356,393.505170781 679.916544105,395.68475382 679.915930997,398.90922823 676.766935426,401.091504093 674.583810957,404.388469915 671.438137212,408.758109712 671.438738501,418.266670726 674.5820093,422.639976856 676.770060721,425.970486051 679.986104155,429.254949606 682.176520379,435.646768868 685.313745912,440.030268592 685.313034726,446.531982777 682.101251075,453.114520496 677.71051525,465.762983578 668.237577927,471.252889568 663.843270527,474.576445218 660.559194365,476.775672124 658.35928845,480.215124496 655.154787423,489.02043064 652.95289307,511.210261779 649.829188435,526.6315328 649.829742448,548.84270077 652.951233066,558.765625216 655.157421133,565.479183475 658.275913216,573.206678562 658.275505827,589.032008884 655.238944953,598.975180355 655.239615547,611.753453305 658.353400146,619.494751375 660.5660472,629.112191044 663.676930252,635.754186735 663.676543505,645.325322394 660.648687271,651.973537999 660.649204399,661.538421275 663.674223745,668.1927147 663.6735031,677.669917033 660.528758206,682.109793124 657.196901663,685.37548955 650.912399244,687.597847136 647.577816468,690.780030875 644.314388864,693.004321278 640.976325093,696.22581888 634.700515398,699.565289415 631.360208045,705.838958171 628.22470643,709.181014977 628.225190194,712.482108051 631.359117332,716.942679578 634.705697656,726.298780745 640.96885518,730.762358884 644.317802107,734.144540335 647.447064822,739.729922939 647.446672173,752.201922582 644.361194106,758.908217642 642.124613256,765.203030642 638.914340126,766.321276856 635.556470972,763.281406238 629.309460765,761.042246552 625.949340902,757.877119598 622.742503146,755.635949636 620.500373174,752.472599799 617.337903039,750.229589316 615.094320204,747.024984967 612.062854319,743.657828696 613.186041252,737.424270287 619.245064732,734.054966616 620.367748318,730.853639954 617.296767009,728.605398263 613.923394146,725.405443851 607.655504126,722.030672526 603.154483638,715.808141238 596.890191942,712.431156789 593.51221623,709.146787759 590.403843309,704.640400127 590.404011155,695.361095759 593.379081876,690.851606737 593.378688505,687.173055897 590.405775759,673.634479924 590.40608483,639.884739462 593.33258637,626.340885981 592.202670784,622.751860759 586.087721115,620.491945077 582.698077439,617.435574209 579.509041526,617.436027254 577.247423681,620.535535758 574.104295197,623.928976868 571.841286175,630.169138276 568.699615989,634.696209519 566.435160476,640.798516523 563.294924973,640.797884696 561.029046585,634.743451788 557.890222149,631.344236981 555.622783017,628.251393514 552.394907055,628.251495516 547.857664479,631.207370769 538.766604967,631.206870967 537.632521154,628.162035102 543.629799334,625.891443227 547.035902501,622.71184438 550.032437276,619.303779331 547.7593971,613.129419151 538.636785817,609.719738019 534.089344557,606.542605883 530.729616407,604.268137279 525.041206534,601.229665953 512.752107429,601.229974723 505.92342681,604.267212104 499.574784547,606.544066356 495.019376135,609.67185023 488.765001005,611.95006807 484.207634582,615.076665231 478.094399516,617.356057976 476.954678738,620.48149204 479.848012817,622.762119822 479.847480176,625.932834658 476.816483516,629.355145816 474.534424325,635.368994656 471.411794683,635.368785418 469.128475748,629.543809528 466.006926545,630.686320168 463.722285127,639.582668885 460.461491329,640.724303992 454.747691768,634.858397991 442.503879206,633.716316305 435.645109179,636.741731814 429.361440702,640.171950635 425.930045857,646.313951695 422.671542404,649.745657432 418.094450058,652.909635483 408.886163703,655.19871059 403.16326801,658.36191344 397.026661315,661.796879618 395.881595553,668.027167997 398.759994262,673.753918242 398.758996702,682.954574773 395.455555102,687.537567777 386.287248049,690.745567874 365.066076405,693.038344071 355.89537107,696.198305439 352.451031815,699.638452166 349.009834671,705.814214491 342.882536439,710.402405874 339.441107769,716.57640128 336.426121497,720.018859173 337.573922428,723.224262228 343.602422718,726.668248068 347.046351223,732.934654813 350.250829813,739.823998354 353.696485781,752.019003172 359.96079261,757.761632665 366.853455214,761.013020502 379.091672213,763.311301897 385.986061195,766.466416031 392.247541217,769.914590753 395.69604611,776.175622992 398.85019886,783.073229666 401.149695184,795.256122901 404.158943817,801.005458161 404.158791649,804.254963033 401.150151132,806.555556266 398.849526532,809.563738211 395.745211236,809.563860021 393.443837733,806.701039943 390.34008332,807.85215965 388.038160741,813.866023514 384.934943597,817.318974859 382.632495558,820.470244839 379.529792065,822.773478956 377.226664613,826.117960427 374.027597212,834.178809548 369.42097984,852.209509898 360.406468288,857.967457981 358.102984847,855.011116559 361.010413467,848.099308619 363.314193248,832.836334105 366.317985831,822.466666815 366.317886847,810.16109447 363.314489835,804.398859603 361.009563238,801.152866449 357.909445717,798.847311039 355.603891374,795.74737064 352.455476304,793.441555666 348.996822783,790.244630617 342.8952545,785.632630425 339.436209872,776.432078742 336.288391769,769.513381897 333.981898574,760.16766297 330.883032711,752.095189186 328.575915288,739.992646115 325.233561973,736.532428088 317.15958629,739.240959292 299.008110882,738.086827795 289.780232332,731.987775041 283.43759488,726.220123261 279.976271915,717.072248162 276.829493465,712.457554021 274.522266839,709.262055506 271.619697348,706.954482858 273.927229302,703.954364614 282.927402271,703.954485454 287.542819696,707.003311841 290.884568289,710.464426692 296.654181504,716.366467988 308.751125858,715.212555212 314.520693734,706.262067166 317.764655606,701.64658124 320.072923005,698.451481102 323.170312858,696.143465569 325.478340219,693.143790989 328.575712359,693.143612729 330.883835491,696.045579028 334.030063634,696.045403721 337.491993412,693.045716244 343.589112155,690.737808285 347.050990277,687.59153354 350.197297264,684.129714445 352.505565876,678.032402244 355.749599714,674.570679081 361.518844435,671.42425791 373.616433995,669.116400501 379.385482445,666.018703638 382.629709596,663.71106004 384.937641445,660.613227384 388.084345407,658.305731387 391.545443996,655.207739322 397.692810694,652.900324869 402.307181607,649.753381364 408.503732525,646.292801923 413.117690274,640.193555139 419.265940717,636.733248735 422.726161127,633.585888481 425.873634475,631.279129451 428.18008463,628.180263588 431.18170956,625.873770393 431.18169254,622.725952291 428.131117721,619.266818287 424.672305006,613.116604117 418.47312722,608.505179754 412.709257401,602.354256237 403.506665352,598.896015146 397.743579055,595.747282778 391.542943655,593.442266922 388.085343443,590.438869909 384.887567214,590.438770926 381.430837505,593.442563509 375.325670898,595.746432231 371.869198694,598.702329754 368.525394117,597.550821111 361.614912724,591.638014665 346.492439849,590.486480942 339.582980021,593.491796344 336.28690374,596.945893504 333.983846909,603.102917626 330.880889543,607.707282551 328.578878151,613.672276297 325.571921441,612.52173948 325.571430818,603.500154249 328.386091305,597.747357212 326.085199236,591.635043079 317.012388164,590.484334977 311.2614025,593.444680851 305.002843281,595.744708796 300.403048084,598.89828917 294.239449483,602.347499179 290.790645812,608.463692907 287.732103605,611.912098565 287.731673668,615.066906663 290.647000013,617.365268285 290.646997533,620.472742246 287.6350152,622.77058739 285.338135878,626.022229815 282.325175586,631.763867501 282.325078007,643.912750901 285.386495343,649.653358343 288.829594231,653.049323493 294.859004722,658.78719624 296.006615431,670.800181956 292.991162795,673.095449958 289.550077811,667.348817628 283.279394201,667.34892732 276.400035773,673.382868263 264.282284328,677.968320879 260.843145529,684.146715952 263.719361407,687.585040255 266.010407769,690.793476707 269.030089762,694.230003884 269.030315799,700.270349692 266.009730487,701.415758938 263.72005928,698.441845653 260.604030359,696.152470139 258.315126198,692.894839193 255.198146726,687.174135575 252.910204924,674.845410864 249.792251285,665.696114633 247.505295458,653.362900366 244.386344036,647.646640672 242.100397801,644.526898873 238.980424978,645.668972796 236.695680703,651.769656132 233.667906347,656.338261668 233.667470686,662.627932259 236.603269501,668.335926411 236.603374309,677.564300269 233.573239762,682.128945781 231.291736062,685.345622363 228.167441479,687.626900939 225.886897445,690.75176231 222.761463381,693.031733652 220.48223681,696.157746312 217.447843014,698.436637507 217.447628876,701.609871753 220.529200521,705.026154099 223.944329635,711.236879589 230.110448493,715.789536791 233.524215978,722.002932005 236.700322536,725.415853754 238.974956357,728.592528962 242.106442066,730.866612718 244.379397476,734.044323133 247.330055695,737.452874601 245.05888234,743.537720034 235.929587424,744.673799414 231.387992959,741.675466641 228.025935071,739.40570541 222.353191724,736.269632259 210.077498551,734.00097897 204.407545137,730.863541984 201.26903346,728.596184073 202.401316679,725.412396094 208.410591091,722.013755058 209.543469317,715.778247595 206.53721401,711.249496279 204.273559726,705.010854792 201.041900626,701.616317347 196.51779375,698.517616554 187.219951669,698.517166294 181.568014569,701.572650118 175.277155277,703.832537107 171.887952295,706.978653039 168.696718933,709.236789742 166.439192229,712.163717676 163.467059906,708.779286572 165.722173702,696.447211466 174.820132167,688.553581373 177.075092039,679.144964849 174.01166822,674.637049935 169.506473104,671.52808235 160.22173866,672.653352689 155.718668557,678.786683333 152.476592433,682.162233398 150.226602365,685.187831184 147.026802065,682.940196071 143.654954142,673.858073243 137.425123029,672.733619783 134.055543811,678.792328504 130.938526904,682.160472869 130.937868401,685.364288829 133.927753981,687.608322932 133.928042333,690.856325518 130.850387228,695.339697304 128.60929269,704.576461938 125.401646197,706.817782424 122.042873725,703.99191218 115.793890244,706.22963244 112.437383241,715.478862396 109.226278846,719.952114006 106.990399998,723.080030472 103.777788535,721.963254387 100.427431371,715.620706582 94.2500128892,707.806653097 93.1333796725,692.232346828 96.1822332264,685.538494101 98.4120985285,682.196170588 101.588384127,679.966762506 103.816535671,676.789508644 106.9947637,674.562331267 109.220961005,671.383123167 112.401155081,669.157911837 114.625374531,665.976725882 117.80755827,663.753504216 120.029985659,660.570316789 123.336431788,658.348969263 128.885664141,655.082445761 141.224425504,650.644753618 142.335231213,641.245211837 133.135012313,636.810747228 128.702762368,633.621029229 125.391468342,633.620162634 122.070834593,636.610809285 115.845980614,635.505076184 114.739185762,629.278096749 117.734294877,625.961984973 117.734631171,622.805777461 114.617424742,622.804834587 112.410012623,625.725914158 109.211061398,622.417667788 107.005837163,609.93272093 103.883037733,604.421592001 103.882480766,601.101490467 107.00750602,598.899266631 109.208149386,595.694765604 112.336253998,593.494988898 112.33701581,590.288226622 109.322292034,588.090658895 110.419674518,584.843166646 116.686079112,581.550263731 119.977125298,574.936611031 123.151735851,563.97437015 123.152385912,538.722344358 120.013769827,527.768429118 117.824533874,521.221642434 114.607303726,520.126285305 112.420321085,523.231318475 109.2006998,525.416793286 107.015692502,528.562912485 103.532968933,528.563702101 93.7157179923,525.526541393 68.3656856517,526.616209401 56.3763248031,532.956229251 46.5840140253,537.312747008 42.2286325254,543.622411476 38.9256367086,543.623838619 36.7507856157,537.418501028 33.5188543978,536.33105522 31.346585452,539.454928205 28.0760320771,541.625519346 24.8217951738,544.753345218 18.347991051,543.670174088 12.9308554005,537.337205548 3.39035961324,534.08834692 1.22460796956,530.811714282 4.32435873371,528.648456091 6.48607805531,525.404941138 9.76603832081,523.244367288 13.0044179911,519.998213227 19.3596048867,517.840290292 20.4387929267,514.591473507 17.2586499242,512.436170805 14.0284608038,509.15015705 7.66054197648,505.921670725 6.58387179108,499.447755191 9.66802607299,495.148152201 9.66855202127,488.634258892 6.47849621829,484.33993544 4.33300493305,477.719274866 1.13915853046,470.215322777 1.13835683736,454.071139193 4.26826829821,445.504354347 4.26897106135,435.541799493 1.13520434248,425.918836742 1.13459597973,406.574693438 4.33793009877,399.097532934 6.47226579545,395.661705719 9.74466923818,393.528305555 11.876230614,390.157137669 15.1515211345,384.832987026 17.2801836245,371.855512036 20.5583848389,364.410173818 22.6841248268,354.602809084 25.9652603514,350.353483963 28.0880542211,347.007068094 31.3721476719,344.885521825 33.492017917,341.50587755 36.8103089258,336.211312351 39.9854516198,323.244308328 46.720022367,317.955001121 57.2864589806,314.570178079 83.2311028878,312.457700977 92.7319853241,309.132552557 96.2427476893,305.969069802 98.3507673145,299.404193314 101.650004639,295.191901171 103.75462586,288.590332802 107.056962808,284.384195887 109.158472598,277.776404655 112.463932786,273.576555736 114.562307527,266.991862717 117.870914571,263.84622919 119.966130649,260.477595676 123.277908164,257.337550895 125.369941962,250.768664826 128.684913566,247.632653441 130.773741468,244.287294669 134.091930775,242.200038883 136.177529165,238.880231868 139.498959793,236.79625709 141.581305054,233.473196946 144.906000619,231.392450034 146.985069135,228.038532096 150.313053252,224.922813088 152.388857338,218.291119637 155.747275605,214.142973638 158.855489354,207.504019053 165.470818304,204.397440219 168.574847946,201.03416353 171.939652632,198.966646434 174.005412784,195.574274452 177.346787274,191.44699567 179.409117824,181.418399532 182.753898948,173.176922319 184.812843093,156.573665473 188.186610825,149.372291697 191.269383771,142.620671675 197.947157893,139.539531709 202.051104565,136.16073388 208.736475147,134.110439955 211.809685816,130.753549636 215.193244498,128.706788051 217.238276717,125.346384825 220.600445252,123.303147954 222.641910909,119.939208206 226.007627775,117.899492069 228.045533293,114.508220906 231.414822105,111.45452117 233.449143869,104.759564799 236.822028244,101.710281277 238.852691586,98.2428331717 242.183318956,93.1719652724 242.184230492,79.7735343699 238.849960327,73.6969435553 236.826581739,66.9098823501 233.442768977,63.8769603924 231.423018395,60.4467826256 228.035515605,57.4203905811 226.019511138,50.6855173207 222.671448068,47.6637907476 222.670534173,44.2489598716 226.043565387,42.238486021 229.055933177,38.8416548409 235.853014341,36.8349640058 240.864484765,33.4343601413 251.010033543,31.4314537987 255.013032945,28.0270536336 258.520946877,26.0280100781 263.512456825,22.6798003022 277.032993432,23.6759735655 282.017757209,30.4204426544 285.510698386,33.4079898906 288.494477058,36.8435684894 295.31075423,38.8310864847 299.281920637,42.2130478161 306.144221476,42.2140273109 311.097875582,38.828151598 321.319459993,36.8484783636 325.275909984,33.4208044552 328.760354582,31.4450508131 331.720539772,28.0134152908 338.569769466,26.0416708332 342.509337394,22.6584555455 349.401865178,23.6408424376 354.315780581,30.4676961699 364.58960308,34.3951767741 368.514196417,41.2657762826 372.175616477,44.20584287 384.894918678,47.6375868058 425.948459088,47.638609073 439.628707476,44.2035380303 446.650662893,41.2767231966 447.627055155,34.3653004678 444.247244782,29.4972403814 444.246242566,19.1935915263 447.7075773,17.2482054146 451.588966986,20.6218875195 461.928449079,20.6229174856 465.803591094,17.2130997445 469.303307867,17.2120522296 471.236177376,20.6276164874 474.738550635,20.6286698955 478.594756324,17.2073267918 488.990249903,17.2062660153 493.801747743,20.6201509416 500.768438083,19.6606206707 503.649154851,12.7298575791 507.136979492,8.89462814251 508.095071319,2.28067591807 509.248446067,0.0130367890473" stroke="#000000" stroke-width="2" /><polyline fill="#ffffff" id="month200609" points="281.375925972,135.148161998 297.859258529,136.106501243 303.611114386,139.620003556 307.146463172,144.42674497 309.071214441,158.295987527 312.548948672,165.042095924 314.479531265,175.451740937 317.951453856,179.317260623 319.887831047,182.81486895 323.369070483,184.754114655 326.282960839,188.186709628 333.188744503,188.185298035 337.084362444,184.790144159 343.977744278,184.791572504 346.907255074,188.211765646 350.389158443,190.168011386 353.328476987,193.580524644 360.181739284,193.579132043 363.128005189,190.172184075 366.583160304,188.204817984 368.553390463,184.805427267 372.058589734,184.806770058 377.988188842,188.163831099 394.975986792,188.162475866 400.91644524,184.812849442 404.412786377,184.81424203 406.399305598,188.214756867 409.815575284,191.199080203 411.807376072,197.986957698 415.218326819,200.977960219 417.215481809,204.406179461 420.683076359,206.405886638 425.690871045,209.767183023 439.188502886,209.765880086 445.209792625,206.409790663 452.020961422,204.399688768 455.039437715,201.007001581 458.451156336,198.991719074 460.469014131,195.604149266 463.854042046,193.583771776 465.877075789,190.201274556 469.372050239,188.175846873 476.472904915,184.798377451 496.560824191,182.767998023 506.72402202,179.442886035 520.227072332,179.444121724 527.358982643,182.764295496 537.453818961,184.80455022 542.560321537,188.167204996 549.478828073,190.212294958 560.744633973,193.494995909 590.56748182,192.468220717 600.824500146,185.862797392 604.377166046,182.781302714 606.434677349,179.407583381 609.858947477,177.348093587 615.015195564,174.057256062 628.14219721,174.058424502 630.205259392,177.344592558 623.772500964,179.413423972 622.738778101,182.774857668 625.934936929,185.885593191 625.933764054,192.49008503 622.71685705,195.606516895 622.71813596,198.959255971 626.041833402,201.041752006 630.212388509,204.305486457 640.082456018,204.304374057 645.30483836,201.045085119 651.932388617,198.953736247 655.072313689,195.641952929 658.410971399,193.54623076 660.509116871,190.298121507 663.903955203,190.299243013 669.161071761,193.573095768 682.124155128,196.73014327 685.281293679,203.267342333 682.197095089,206.429778764 682.19836438,209.75485319 685.429618215,211.867859695 687.544390487,215.220744431 690.769957223,219.455782638 690.768928884,229.220712625 687.547471729,234.522899035 685.42439189,241.086988935 682.144186276,244.274378348 680.016970886,247.616880256 676.740785271,250.81125808 674.609572278,257.327301566 671.33736187,261.593692923 669.202348201,268.167242646 666.033818915,273.510442816 667.104762674,283.209509203 673.500194139,287.490617961 676.713860737,290.887510499 679.940103312,295.178431691 679.939205473,304.989214997 676.750365504,314.658958033 674.599942198,333.775501908 671.346935962,336.999960334 669.192622904,327.696116602 665.908332565,325.542342597 662.671129037,328.650521229 656.320822089,330.810068289 655.241501205,334.053892356 658.413201504,336.217276535 661.661185669,339.457506119 668.06644099,341.624462385 671.319322572,344.861142277 674.771771898,347.03162584 682.376519112,350.264800831 701.400474801,352.438826445 709.012827448,355.705326956 712.350081859,358.971859938 712.349530578,365.387673431 709.198807121,369.749145806 707.01626696,376.157596477 703.682325624,379.433273913 698.216767176,382.61486044 685.571207678,382.614226158 680.099908705,379.54935325 676.771621399,379.550287509 674.579114351,382.687348428 671.367629436,384.881142949 669.172247755,388.091037782 666.04142371,390.28799763 666.042205472,393.416966859 669.16990534,393.416321731 671.371534657,390.368801374 674.573647041,390.369696646 676.778462959,393.491939044 679.977540748,395.698201832 682.185234375,398.935508331 685.30159127,402.249652977 685.300786421,408.479140988 682.147239424,409.584244476 678.826640265,406.593096452 672.607491539,406.594020328 671.500402814,409.702293064 674.607250334,411.920173983 677.93646888,415.106150384 684.224041343,417.3272599 687.556810582,420.674632358 690.697196288,427.346647416 690.696727867,443.002092526 687.682824244,451.906254829 687.683635576,461.438999259 690.777207095,465.896533298 693.007232744,469.196499891 696.097201922,472.544332234 696.096554656,478.805486596 693.009172163,482.156481735 690.773830854,485.410685397 687.605177399,488.766349111 685.367171298,495.143868022 682.201014946,501.862086527 679.960534139,514.394088792 676.796830097,522.239516426 674.553919374,531.726778415 671.392622853,537.337279728 669.147327006,543.95937402 665.988393213,555.193412128 663.740909585,580.109889072 660.671244337,595.850463574 660.671813146,614.913625198 663.739205247,629.545581626 665.991234646,651.355636754 669.143348999,661.493989705 671.397737433,668.014949418 674.547668221,672.52636323 676.804061238,678.868258663 679.863291421,684.512478398 679.862688673,693.864135872 676.761080482,699.512829805 673.369954053,705.712844515 667.171787295,706.842881882 663.777970536,703.744437063 660.591667163,699.216816742 658.326841324,689.974204547 655.187156493,685.443568273 652.92047291,682.30519968 649.782702898,682.305512929 647.514126892,685.352125897 644.378226907,687.62171381 642.107966124,690.893042734 639.064954733,696.57196443 639.065400253,708.922719712 642.1066312,716.878390427 644.380452464,726.45558642 647.511011114,736.692792019 649.786708899,755.15000037 652.915576687,764.255234763 655.192776957,770.787192643 658.22768765,777.622230942 658.227203605,789.897044025 655.147593052,795.595580772 651.726795152,798.766359077 645.571411043,798.766225271 642.148781521,795.735667588 639.119526655,793.452981852 640.261451907,790.331168658 646.177029596,788.046848592 646.176149925,784.92647991 640.170518795,782.640737727 636.74137467,779.521768766 633.576246426,777.234649258 631.288626177,774.117035227 628.312937298,771.828583184 629.457628898,768.712279292 635.358876166,766.422539506 635.358083586,763.307500962 629.365375189,761.016518223 625.928487046,757.902700236 622.767945089,755.610519336 620.475095859,752.497877114 617.363024723,750.204456273 615.069390654,747.045364202 612.101319297,743.60365085 613.24894794,737.478060489 619.182674918,734.035017524 620.329955684,730.877954909 617.316436896,728.581255056 613.871048672,725.425005198 607.703055915,721.978723852 603.107290509,715.859664632 596.941328031,712.412046217 593.49329857,709.161509249 590.435355925,704.562753936 590.435302386,695.43803125 593.348125869,690.837223139 593.347927474,687.154350413 590.436192358,673.348397818 590.436291233,640.167872607 593.298716147,626.359470984 592.147334675,622.773621899 586.134528396,620.470511165 582.680765736,617.464598367 579.530079306,617.464846805 577.22661206,620.518554242 574.124887661,623.973972702 571.820915513,630.128406303 568.7197622,634.736465778 566.415241361,640.744098389 563.314614343,640.7439353 561.009589605,634.785889032 557.909444091,631.328591178 555.603781757,628.277328724 552.406798128,628.277164675 547.795350384,631.182124325 538.838032064,631.181853372 537.685204544,628.180025602 543.591085101,625.873679164 547.050131158,622.726151307 550.002590933,619.266098791 547.695858177,613.16648623 538.693035601,609.706111808 534.078963078,606.559075293 530.736968499,604.251956653 524.968660856,601.25139663 512.82040376,601.251433056 505.898373005,604.251847508 499.605001194,606.559167725 494.989733465,609.657028895 488.794078313,611.964606724 484.179146844,615.062411905 478.129945193,617.370023327 476.975955968,620.46781731 479.829790156,622.775507184 479.829535188,625.922124001 476.829258698,629.383072035 474.521938551,635.334974933 471.423976602,635.335394924 469.116600332,629.578289027 466.018492812,630.73174357 463.711015913,639.538757482 460.466502135,640.692264963 454.699280485,634.885371858 442.548793994,633.732376105 435.628867875,636.733563151 429.382499152,640.193056166 425.922447489,646.293622715 422.67731284,649.752978274 418.065228126,652.900966651 408.912635171,655.207043342 403.148787836,658.355351342 397.046061524,661.813611566 395.892991983,668.013860247 398.750568761,673.776094745 398.749716218,682.932398194 395.358015214,687.541304817 383.838369812,690.642559348 356.797684327,690.642791366 347.582928617,687.589581474 350.200626228,684.134856689 352.50306964,678.026927318 355.75068016,674.572822719 361.506169899,671.42147562 373.629866388,669.119329788 379.384121816,666.015623384 382.632948049,663.714293909 384.934249572,660.609837254 388.087205717,658.309280425 391.537334009,655.204028729 397.700558465,652.904201633 402.29909832,649.750120279 408.512154802,646.30200271 413.108925919,640.183946399 419.275933651,636.7369625 422.722302495,633.581150767 425.878552354,631.284045041 428.174991392,628.175165268 431.189017178,625.879056716 431.189191069,622.721527547 428.126543067,619.279190131 424.685101885,613.104895417 418.46218164,608.517280112 412.729160222,602.340563739 403.48608432,598.90127466 397.755657189,595.740624255 391.5279107,593.449122194 388.09111221,590.42910927 384.881664955,590.428798246 381.447213154,593.450054122 375.308780659,595.738728837 371.875684042,598.71478024 368.523420356,597.571639333 361.662993597,591.616496538 346.442883434,590.473100986 339.585295875,593.49895041 336.27781395,596.926073422 333.993155666,603.121530858 330.871342472,607.688211463 328.588656737,613.701102759 325.558099053,612.56108052 325.55738175,603.467403023 328.404558158,597.766454332 326.125479276,591.607378855 316.977229364,590.467199501 311.281899694,593.455954683 304.979740243,595.733154386 300.426664431,598.907874031 294.213022554,602.321127124 290.800701734,608.490698733 287.714734039,611.90181045 287.714049235,615.079798588 290.665103514,617.352106899 290.665391375,620.486181648 287.621307711,622.75684768 285.352125897,626.028332588 282.305512929,631.6988296 282.305119535,643.97926345 285.398556526,649.646689144 288.796495188,653.055960485 294.898629094,658.716854494 296.031094348,670.880953421 292.978139895,673.145299402 289.585839497,667.303843278 283.252315863,667.303293182 276.474026001,673.416801286 264.108373729,677.933427911 258.463702948,684.008583392 255.182295659,682.881568996 252.926586891,673.608318808 249.77556992,665.718852662 247.522278867,653.285330336 244.369055936,647.654344666 242.117993238,644.499379159 238.962519556,645.623261419 236.713881498,651.806067217 233.642424588,656.301186227 233.641688555,662.662101523 236.629609339,668.274895664 236.630055214,677.630082087 233.55343699,682.11643076 231.311811396,685.365790234 228.104396818,687.606272731 224.746053431,690.687678415 218.580523771,690.688156797 217.4610571,687.519968118 220.378121324,683.049850663 219.261976136,673.662456939 213.168445417,668.080045454 212.051872367,661.732240739 215.101604684,658.386369301 217.330380431,655.168290017 220.508126473,652.940417255 222.734230566,649.678983318 225.791537044,645.2298832 224.680839377,635.848632941 218.478392254,631.403577813 215.147010909,628.096501199 211.920243543,624.767776319 209.702155897,618.5548652 206.513346461,617.445632934 204.298047967,620.554809139 201.026359013,623.874614992 196.602699963,630.101169188 187.178330437,631.207738235 182.759088229,628.210430571 179.48205252,628.209884169 177.275591095,631.329778271 174.075001608,633.534461067 171.871708586,636.736573451 168.668062108,638.938332378 166.467848473,642.143524148 163.261100213,644.342053125 161.064010755,647.473457623 157.854115922,647.474250593 155.660006479,644.339677127 152.332882368,642.147485358 146.857516929,638.932786684 134.21940169,636.743827352 128.74967611,633.60099064 125.379529167,633.599980746 122.103724568,636.634360286 115.806569635,635.544316168 114.714847396,629.243801905 117.75627996,625.975019871 117.75695359,622.783330841 114.60080997,622.782116917 112.426962993,625.75875874 109.193788002,622.502647235 107.02341953,609.852457714 103.858383628,604.429611745 103.857495389,601.083207058 107.026080984,598.9178586 109.189239089,595.675837373 112.362745328,593.514256036 112.363821163,590.26861793 109.291139182,588.110621229 110.367865953,584.826670694 116.731217927,581.595424735 119.960012601,574.918222068 123.181101556,564.168711187 123.182099618,538.490286029 119.991716324,526.681180302 117.846918685,516.796939032 114.551021419,512.509943737 111.339886784,509.244836715 104.774511496,509.243660686 98.364263939,512.379660656 85.414862572,512.38054274 79.0144378947,509.174111883 72.4329784159,507.042998513 69.2385018776,503.766812897 65.8959999694,501.639454963 62.7087987487,498.263898522 56.2710913804,492.957584887 55.2090372914,479.978667348 58.4005699872,473.620385827 60.5173653644,466.887736086 63.7461501341,459.486998798 63.7471952856,443.209324324 60.5142337486,435.820076505 58.4057376499,429.074186923 55.1669970391,422.755492514 55.1659294715,409.641941758 58.4089364317,402.283563037 60.5089901609,392.396826473 63.8164175474,388.199703075 65.9122231994,384.802125905 69.2240065175,381.662158081 71.3154338424,375.063259877 74.6316178831,370.884818672 76.7185456851,364.219774258 79.9831043393,359.008469005 79.9842279472,349.123759399 76.7151789883,344.96206065 74.637303011,341.551613589 71.3620457631,338.438483787 71.3609348077,331.80201474 74.6675463007,327.659744274 77.7701582219,321.013221672 84.3947571714,317.912821425 87.4916319793,314.545072208 90.8615066997,312.483129402 92.9210650521,309.111553837 96.269308301,306.026434523 98.3240965309,299.376151308 101.677098831,296.296980262 103.727105614,292.916325549 107.084911756,290.86869554 109.130092302,287.50847068 112.492747077,285.46572005 114.533056594,282.100624161 117.900604794,280.062766956 119.93599849,276.692755247 123.308484906,274.659836257 125.338943103,271.284863937 128.739180515,269.256927954 131.776692988,265.876950232 138.518919437,263.854018675 142.559627098,260.446923032 149.312934473,257.420807094 152.3365201,250.662629025 155.7723977,246.637236389 158.786967711,239.867830626 165.54042829,236.855828069 168.548495992,233.413621926 171.97243228,230.410750766 173.972180908,223.640191805 177.380488981,220.643905152 179.37494364,217.212799488 182.788548257,215.22098069 184.777683977,211.804711004 188.196629929,209.818251551 190.180401918,206.396618134 193.604733996,204.415544807 195.583071323,200.988502869 198.976986332,199.012823135 198.978391946,195.527315039 195.631251842,190.604017846 196.612921199,176.990866077 203.459094609,174.040444911 208.363028415,177.364875473 218.668706045,177.366220985 223.56009376,173.950393933 230.464482426,171.996941617 233.391172037,168.542185205 236.864632201,166.594369247 238.809616594,163.133935567 242.287724996,161.191819273 245.195876748,157.725663533 252.104837209,155.789291693 255.005781061,152.317369103 258.494891254,150.38678651 260.422567145,146.909052278 263.91643516,144.984303722 266.798421744,141.500713058 273.732948207,139.58220333 275.649621949,136.275185194 281.375925972,135.148161998" stroke="#000000" stroke-width="2" /><polyline fill="#ffffff" id="month201609" points="423.05467219,167.580583833 442.949087997,168.539181357 458.30930193,171.98539103 493.020306806,171.983500465 508.435690227,168.560318923 529.264012592,168.562199477 536.031503725,172.004597674 539.585369623,173.943211851 542.499796443,177.40629222 549.387739815,179.352302464 552.311342326,182.808031125 555.795619423,184.761365048 558.731953132,188.226583544 565.588104223,191.168319602 568.53344381,198.016624783 572.005973947,200.967315821 574.963782908,204.41886587 581.788795544,206.393710472 584.755408161,209.839509088 588.197385982,212.813148147 590.182713152,219.653973319 593.599344945,224.626738435 595.591560578,234.826937216 599.001327036,239.815258786 601.000330979,246.751125417 604.361429356,255.766197898 604.359748893,279.354079946 601.005366198,288.390978394 598.992978166,295.304937708 595.647686426,300.345288366 595.649329442,310.437477766 598.988055153,314.480525292 601.013614889,317.905255288 604.390177069,319.934147256 606.422237836,323.307491894 609.792383639,325.342779552 611.830823369,328.733986471 615.194627624,331.797147438 617.23937149,338.469410014 620.596909021,341.540403666 622.647882197,344.919655155 625.999227831,346.973745142 628.05635549,350.322022888 631.401584055,352.382199729 633.46479137,355.724397819 636.803977692,357.790616902 638.873225624,361.126810162 642.233779454,363.199142518 645.347118518,366.639829037 651.890811279,372.876845369 652.92916675,389.275892817 649.748099416,395.52462026 649.749649885,399.013161929 653.008599225,403.194144385 655.101004168,413.163151537 658.411101671,422.593945804 660.509215568,442.260977576 663.813719788,451.712867296 665.917389556,461.737426529 669.216375318,469.110840886 671.325436384,482.357805213 674.557037739,493.974811338 674.555694304,516.762498569 671.329461753,526.286573121 669.209664313,533.013692707 665.926784964,537.259023247 663.801736997,543.851730898 660.588926637,549.17179133 660.590114526,558.997501867 663.731988644,566.463255941 663.730723599,579.543610613 660.595789336,589.164800466 660.597139691,605.32201169 663.7928712,611.748551266 665.9380851,615.279065465 669.12708162,621.725176509 669.125977704,637.761032283 666.011248408,645.29358506 666.0125494,651.932570818 669.191043842,657.327159247 671.350667303,667.099634474 674.522734056,675.749253515 674.521348061,691.739877222 671.209901876,698.237768811 664.700655631,701.544827772 648.783627907,701.543929461 641.178014332,698.384536764 634.646423329,696.208772465 631.379753365,692.944369085 628.117740536,689.673680818 625.935293228,683.376946779 622.714426375,682.286531915 620.527755266,685.506441224 617.31113482,690.979735965 615.120254718,703.686184961 611.907805851,711.360508647 609.712727212,720.836986197 606.465609255,721.933101689 603.166560929,715.75228605 596.835799758,712.451362107 593.531903633,709.131435304 590.371375131,704.720480331 590.37214419,695.283139978 593.409971693,690.865767634 593.409024077,687.191602008 590.376395063,673.911294993 590.37725521,639.61589787 593.364253767,626.322700115 592.253693515,622.731889521 586.045478223,620.51127918 582.713345467,617.40979471 579.490708074,617.410750261 577.265244188,620.550053153 574.086972345,623.891045589 571.858117773,630.202793279 568.683269243,634.663546128 566.45102877,640.841961676 563.279528728,640.840377787 561.043977181,634.710864916 557.8757508,631.355940279 555.636814459,628.232193291 552.386345892,628.232761567 547.90204067,631.225339164 538.716797104,631.22441826 537.596260269,628.149776108 543.655659957,625.903299007 547.026677061,622.702521875 550.051624502,619.327943009 547.799418956,613.106207295 538.602328853,609.728004351 534.095416178,606.532758835 530.725399749,604.277588146 525.082784679,601.217218511 512.714036304,601.21789725 505.93690047,604.275554422 499.558788472,606.536072389 495.034663218,609.679493771 488.75040197,611.942768553 484.221548531,615.083627125 478.077440979,617.349427303 476.944682111,620.487797893 479.856220105,622.756129547 479.855384552,625.937452563 476.811119397,629.343359096 474.539494911,635.382920487 471.407016911,635.3821163 469.132967107,629.530632003 466.002715197,630.669492458 463.726228625,639.598169775 460.459893433,640.735337555 454.763399571,634.849658431 442.490069776,633.711230057 435.649729013,636.744082571 429.355598728,640.16606917 425.931971545,646.319275764 422.670184927,649.743920132 418.101232311,652.911616035 408.880533163,655.196946334 403.165860294,658.363162426 396.929087298,661.793532848 393.497516821,667.840793658 390.333802875,668.98440435 388.044425011,666.009544506 385.023787547,663.719531879 385.024262065,660.605180608 388.09073638,658.313359501 391.529603688,655.200523468 397.706427134,652.907138042 402.294360533,649.74815622 408.515767486,646.306019276 413.106431269,640.181254106 419.27741451,636.737457101 422.722256887,633.581009116 425.878146217,631.283638719 428.175940365,628.17611537 431.186914263,625.877565778 431.186550334,622.723148725 428.128597006,619.273666836 424.678421395,613.111069715 418.468708175,608.510056523 412.716062651,602.349625199 403.500925791,598.897417047 397.746218492,595.745791454 391.540340864,593.443452464 388.086005654,590.437632358 384.887088144,590.437824277 381.431587685,593.442877411 375.325579144,595.746395522 371.868946525,598.702000474 368.525573103,597.549727404 361.610802875,591.639912602 346.498183996,590.487873782 339.582417849,593.490759207 336.288400604,596.949102817 333.982118398,603.09946106 330.882844676,607.711188984 328.576704526,613.665996217 325.575160268,612.512643053 325.574873044,603.5084023 328.381298904,597.742228101 326.074226713,591.642632321 317.022493719,590.489119413 311.255246865,593.44132228 305.009919932,595.748247935 300.395636268,598.89524683 294.247881885,602.355900558 290.787317579,608.454921336 287.737778993,611.915551683 287.737487348,615.062586265 290.640947983,617.369724002 290.640811276,620.468155926 287.639721973,622.775303869 285.333311629,626.020002623 282.331889418,631.786221419 282.331899063,643.889860485 285.382279721,649.655790399 288.840982187,653.046901541 294.845498501,658.811288047 295.998346559,670.772769682 292.99564748,673.078695515 289.538010275,667.363860434 283.288583782,667.364104309 276.375244092,673.371569107 264.213138401,677.97936712 258.453151956,683.940217 255.206031986,682.78878176 252.902533848,673.675962753 249.799967758,665.616833577 247.497539989,653.398037135 244.3941321,647.643066014 242.092583543,644.538955529 238.988259029,645.688873284 236.687840014,651.75397135 233.678593668,656.353973907 233.678151848,662.613638182 236.592598452,668.360883255 236.592708732,677.537969767 233.581051403,682.133941279 231.283942702,685.337822283 228.175203422,687.634662881 225.879173322,690.744038187 222.769143284,693.039413554 220.474614023,696.150117031 217.458131987,698.444126814 217.45742756,701.556233288 220.286068066,703.848631012 217.995004229,706.867715825 208.935586909,706.868104344 204.354824859,703.847466881 201.050474648,701.558344272 196.473523258,698.535478884 187.26162906,698.535052917 181.544319363,701.559620609 175.305463564,703.845510293 171.87740953,706.965754154 168.70954281,709.249579838 166.426483448,712.139438547 163.488864391,708.717193969 165.768931514,696.499606926 174.773850554,688.518570761 177.053753202,679.186388239 174.019429329,674.629328187 169.46584492,671.546720803 160.261873527,672.683785227 155.711183774,678.760958087 152.488261904,682.171738926 150.215332938,685.168008028 147.172444998,682.897616757 147.171859878,673.765684003 150.217086148,669.226518282 152.484854778,665.998849862 155.443543675,663.731653778 153.179306631,660.59204855 144.115162571,658.327343307 141.850608741,655.096075809 144.637489526,650.572915621 142.377974768,641.316510263 133.205990192,636.797461892 128.689549178,633.649555624 125.408428568,633.648478886 122.025977949,636.579031087 115.897867938,635.453089363 114.770505817,629.322135944 117.707027847,625.945679507 117.707532673,622.832811613 114.63701346,622.831614295 112.39061446,625.688876629 109.230244866,622.323302932 106.986891544,610.018876338 103.908586506,604.413205648 103.907795425,601.120016571 106.989261884,598.881005957 109.226147501,595.712779576 112.3120442,593.477228028 112.313088817,590.305727987 109.34889023,588.073415873 110.462971369,584.857054629 116.649709873,581.513775981 119.990628283,574.951583936 123.21199382,563.827522101 125.435700091,538.743125521 128.619247205,524.300335872 130.839309659,508.372622093 134.026467154,500.607244709 136.24294976,494.147854507 139.473814414,490.825203279 142.792314958,487.512600053 149.10182679,483.091943641 152.415580962,473.621600539 155.653690249,468.103896437 157.858779205,461.70276965 161.061126489,458.397622434 163.262201707,455.154158889 166.468533504,452.954956087 168.665586796,449.708212546 171.875977933,446.416014834 174.068934472,439.915478201 177.283459775,432.249275037 179.472244734,416.430690689 182.69097903,409.868678628 184.875517583,406.460097451 188.098535698,403.186871156 190.278931557,396.810546497 193.616171752,393.543014037 199.054060824,390.276605148 211.871438328,388.103066408 220.556490467,384.941011363 233.394396127,384.939760044 238.813128035,388.035206273 242.161398168,388.03624757 244.323753061,384.864180817 247.569312672,382.704447807 249.726692978,379.45653116 252.908004871,377.301310797 252.909207877,373.980088619 249.723088379,369.680742724 247.575322179,360.010499822 244.315339752,354.646484487 242.172386049,348.121123843 238.907446364,344.909848904 236.769487333,341.67483435 233.499515563,341.673416762 231.36662603,344.81529088 228.091547348,344.816478768 225.96389677,341.603668408 222.747047185,339.47852702 222.745731836,336.132723405 225.967837985,331.894271274 228.084976642,322.09267556 231.375825018,315.749052424 233.487601039,305.837954289 236.723415973,298.456736517 236.724787493,285.381163788 233.483491515,280.119794773 231.382758488,276.607577005 228.133856838,270.315988308 228.13244787,253.94118454 231.386980217,245.570075997 233.476539138,235.621726647 236.795166867,231.446616868 238.879063721,228.040417062 242.203471801,224.919608488 244.281729826,218.320165764 247.747304621,215.206752427 254.996110034,211.846198597 274.771910462,209.777018126 283.039583408,206.490300014 289.804072594,206.488885078 292.89523343,209.858665462 296.269465764,214.999060672 298.323557872,228.277211823 301.677990102,234.431585842 303.725857976,241.196872264 307.086519515,245.286392372 309.128120667,251.990051233 312.495086342,255.04850425 314.530345944,258.442599701 317.903690582,260.474687796 319.932533808,263.851249976 323.312332236,265.876880574 325.334684259,269.282097792 328.721011302,272.309871719 330.736797297,279.045391944 334.129727782,282.064871173 336.138872921,285.440808629 339.538481675,285.442510437 341.540929382,282.08141206 344.967293114,280.082408117 347.959913938,276.672641659 354.785660252,274.680426026 359.756698095,271.263794233 369.978878482,269.278467063 374.934305746,265.836489242 381.789092969,262.869876625 384.752217309,256.044863989 388.204421293,253.087055028 390.172142185,249.614524891 393.579858477,246.669185304 393.581660646,239.813034213 390.166742298,236.876708221 388.21343653,233.408193645 384.757707869,231.458478184 382.811707992,227.923660874 379.378113217,221.130163011 379.376254877,200.462477216 382.817276187,192.719176331 384.748431682,185.726789665 388.279875977,182.834735973 394.046939607,179.326232679 411.358142022,176.448171084 416.151134891,169.847052892 423.05467219,167.580583833" stroke="#000000" stroke-width="2" /></svg>