<?xml version="1.0" encoding="utf-8" ?>
<svg baseProfile="full" height="939.459459459" version="1.1" width="880" xmlns="http://www.w3.org/2000/svg" xmlns:ev="http://www.w3.org/2001/xml-events" xmlns:xlink="http://www.w3.org/1999/xlink"><defs /><polyline fill="#FFFFFF" id="month201609" points="466.704711412,207.635259296 482.058175569,208.770846695 500.36269405,211.711003552 530.975272329,211.710272329 549.379249242,208.833068977 567.933011451,208.83446997 575.998517534,211.820584077 579.444379544,214.126758069 582.908522437,217.223675718 588.980677939,219.533988945 592.44842153,222.62727497 595.659655061,224.941463942 599.13359178,228.09189948 605.188155562,231.568177739 608.666465047,237.6184631 611.874045346,241.099032897 615.358278693,244.243407596 621.396015613,246.568252778 624.884099954,249.710882043 628.024709517,253.202885618 630.354149257,259.356220533 633.428842524,265.182729994 635.76112901,274.273627836 638.832692899,280.109285567 641.167344413,286.64056867 644.104495197,297.15701083 644.10374019,317.969331676 641.169564247,328.49544207 638.829744369,335.020474087 635.901216784,340.878841658 635.90193257,349.861004849 638.827639851,354.551086546 641.17382664,357.744300984 644.230902665,360.093421659 646.580574587,363.149155143 649.634984846,365.500571244 651.9872839,368.622963913 655.039105661,372.153232391 657.393954579,378.115176725 660.44326511,381.648579472 662.800586624,384.766545685 665.847463193,387.12550978 668.207180034,390.171198345 671.251699911,392.532083873 673.61373481,395.575454379 676.655975263,397.938619331 679.020721127,400.979749049 682.133096823,403.347012995 685.681590769,406.676328235 691.466582577,413.777934952 692.650563324,428.379692697 689.979813832,435.486358328 689.981760077,438.960603953 692.869036837,443.70754826 695.240523769,452.881254747 698.272526133,463.559776318 700.646846739,481.301051274 703.677033291,491.987868881 706.053131075,501.373888832 709.081579083,509.696527804 711.458336811,521.957808959 714.334286989,535.037700693 714.333884972,555.615892368 711.459518801,566.324263948 709.079599075,572.751163122 706.055903086,577.517745865 703.674543131,583.639989876 700.805203763,589.598553082 700.80446297,598.663616288 703.518899475,607.009509263 703.518590425,619.090880626 700.806639198,629.824246482 700.808031981,644.533642312 703.672336207,651.695611719 706.057660858,655.332215864 708.919781052,662.497549937 708.920634911,677.038436334 706.215235779,685.398338622 706.216595698,691.741027324 709.076230106,697.719184705 711.464522459,706.84213296 714.322424704,716.403441433 714.31994198,731.003740286 711.14907449,738.176453398 703.975044152,741.346050197 689.460256362,741.348150516 681.088335372,738.492668096 674.906820503,736.100052688 671.314949718,733.009308129 668.224551735,729.42032677 665.829952196,723.71321126 662.818812356,722.518568756 660.424324643,725.529789036 657.41360978,731.514347073 655.018735725,743.240220202 652.008368571,751.618167339 649.612603401,760.332013399 646.523292325,761.530684159 642.930728109,755.985883939 637.069386423,752.394395116 633.477795464,749.146799192 630.547295539,744.356127631 630.545556143,735.643919977 633.238227641,730.847942638 633.238237006,726.887015638 630.545490196,712.518067821 630.544879694,680.99484748 633.158638077,666.627469404 631.960420348,662.825129014 626.257029348,660.425158425 622.665966456,657.573186071 619.576439956,657.573687468 617.180984814,660.505011334 614.170269951,664.095837121 611.775782239,670.038630071 608.764642399,674.824276233 606.370618298,680.531749346 603.358976212,680.532598232 600.965492991,674.902728193 597.95327139,671.316319633 595.559265125,668.382152379 592.389498458,668.380264312 587.608184132,671.079732668 579.115538885,671.078787579 577.919899448,668.221488623 583.479384151,665.831079552 587.060241915,662.738269868 589.842257418,659.153807241 587.454805573,653.277909363 578.872527974,649.694652224 574.09560976,646.600140057 570.691055816,644.21260105 564.722635737,641.349146343 553.035037822,641.348852185 545.877264026,644.213465921 539.683847755,646.598133878 534.912477819,649.618401072 528.870649182,652.002892158 524.104602752,655.024472919 518.288470158,657.407611805 517.095651489,660.4305834 519.739376936,662.812818742 519.738164624,665.912862396 516.864531995,669.480890378 514.486163509,675.156344505 511.459376777,675.159213897 509.081579083,669.77907921 506.053131075,670.96601084 503.675521756,679.307659436 500.422711409,680.495345062 494.488594918,675.027251538 482.730744872,673.842856542 475.614856738,676.72736617 469.472839579,680.282409478 465.914837196,686.205537299 462.659996982,689.75961204 457.923454076,692.869565217 449.027716317,695.238009445 443.112771059,698.349058591 437.032180982,701.895449045 433.485017824,707.690944627 430.370953453,708.872914095 428.009354473,706.044224491 425.10631848,703.684711858 425.106160238,700.639023293 428.08172637,698.280494457 431.616510918,695.232410566 437.644958533,692.875889895 442.354221111,689.75604709 448.457864632,686.226411236 453.162051689,680.258156829 459.202514278,676.731751684 462.727360443,673.607346224 465.852794397,671.258605793 468.199387176,668.200167908 471.125094457,665.854196552 471.12543066,662.726258079 468.130525712,659.212471814 464.619304557,653.151033747 458.488927547,648.472039253 452.644059504,642.403335041 443.569169958,638.897612195 437.731047905,635.762258832 431.587186585,633.428739242 428.087674884,630.483336527 424.885269997,630.482532494 421.391980941,633.431103222 415.362370631,635.756996586 411.872236656,638.649575813 408.480658813,637.489636929 401.515581519,631.695440194 386.584997587,630.534931226 379.62700914,633.497329872 376.294568897,636.972133885 373.977737732,643.090893355 370.886238544,647.717110485 368.574630392,653.608598935 365.596705156,652.455995209 365.594807239,643.518471499 368.345589854,637.753374962 366.042443224,631.665744891 357.02253084,630.512614191 351.270501679,633.445258242 345.001027527,635.743852282 340.406739272,638.907535802 334.240755618,642.348658432 330.799853099,648.458754385 327.748866494,651.9037628 327.74918713,655.065985263 330.626390483,657.367190666 330.62498949,660.469700631 327.638875382,662.775225431 325.33321262,666.049738283 322.35432841,671.821567396 322.355519438,683.847849545 325.390641487,689.626841556 328.86057857,693.077543772 334.79806084,698.867138384 335.95487613,710.671520215 332.989213218,712.988414125 329.507741825,707.433693623 323.278916908,707.437175057 316.306675067,713.351858354 304.302472692,718.000732706 298.485574493,723.839133189 295.219996406,722.672199824 292.888301983,713.701287618 289.815183064,705.54060941 287.481341547,693.513481485 284.411313372,687.677634383 282.074419746,684.611268217 279.007405046,685.780524671 276.668295744,691.714557054 273.737655089,696.396490371 273.737599948,702.588824991 276.530605111,708.448856217 276.529129109,717.425825352 273.605467777,722.118673853 271.257929692,725.311182035 268.202196209,727.661655668 265.851201062,730.716065927 262.798094711,733.068364981 260.445372194,736.120186742 257.534580351,738.47503566 257.533448369,741.524346191 260.15992767,743.880778849 257.800210266,746.786171534 249.087023146,746.785573411 244.366702855,743.882537419 241.038173119,741.522324098 236.310833969,738.62373148 227.402648369,738.624290381 221.490903132,741.520680844 215.413475049,743.886187918 211.862031626,746.92410133 208.752564421,749.290197426 206.384505095,751.95951651 203.6437976,748.40295795 206.014300585,736.707690689 214.52299421,728.407748223 216.892475128,719.38638919 214.008508739,714.639233606 209.260642616,711.684520348 200.47122946,712.87170966 195.718760535,718.629683351 192.541485353,722.192557587 190.162885165,724.992704378 187.288108005,722.614048761 187.288500217,713.991683789 190.161732005,709.232226743 192.540252426,706.056960657 195.258020737,703.673469276 192.87633385,700.651202757 184.423281837,698.266294134 182.039427581,695.091829152 184.445510462,690.322322669 182.058047011,681.571092669 173.463068811,676.800838898 168.691069275,673.782947331 165.441305758,673.780467384 161.859612085,676.410299358 156.136672541,675.215047177 154.941924489,669.493131442 157.56864134,665.911622292 157.566728112,662.974589041 154.707772304,662.971422449 152.317916444,665.438424365 149.303908007,661.851392582 146.913256232,650.42357904 144.057078395,644.446273037 144.05725489,641.198062229 146.912737309,638.803485366 149.303626402,635.791263766 152.157903839,633.397780545 152.159498822,630.386138459 149.54258699,627.991536059 150.740470092,624.90140192 156.446438317,621.306137384 160.036690206,614.88918601 163.126263993,602.916873357 165.521882084,579.545930106 168.53210436,563.982571838 170.927413051,548.932253314 173.937403521,540.547212479 176.333488304,534.369013349 179.422586737,530.772760492 183.01544005,527.52518306 188.876423209,522.733879992 192.469324742,513.942441106 195.558355075,507.955068552 197.954555981,501.935474934 200.964391914,498.34152295 203.359893776,495.252368369 206.369884246,492.855789132 208.765192937,489.766533073 211.775415213,486.172051197 214.170453464,479.993218261 217.180984814,471.61418895 219.575675357,457.113849801 222.58659305,449.931333048 224.980858615,446.525331748 227.99223992,442.932621572 230.387726253,437.066977564 233.635702943,433.477255659 239.618427128,430.386278161 251.432533958,427.993979945 260.99921494,425.137989844 272.817093723,425.136668071 278.796870306,427.836870713 282.045942965,427.835938217 284.438627824,424.978035972 287.453486216,422.588621351 289.842460675,419.573309006 292.70280217,417.182574429 292.703057107,414.011095092 289.84171112,409.234682597 287.45474183,400.415263572 284.436869963,394.447947407 282.049906281,388.410788882 279.030875384,384.831612724 276.645109366,381.888455252 273.624842172,381.886505931 271.240351085,384.600942435 268.218770324,384.600201642 265.836694584,381.730862274 262.965646103,379.348444749 262.965273503,376.173178663 265.837790086,371.411629656 268.216935195,362.487591574 271.242920266,355.349865518 273.620511443,346.194472152 276.498451684,337.873922598 276.498883117,326.059052891 273.619242967,320.116644942 271.246045947,316.565737506 268.362941471,309.443169478 268.362470817,294.727525001 271.24742974,285.240160718 273.617945949,276.137557457 276.652816909,271.394519875 279.022356521,268.139202858 282.059236465,264.58617697 284.429079335,258.655520084 287.828460282,255.106069796 296.104024873,251.9936941 313.704147221,249.6298635 323.155160801,246.730207245 329.457123706,246.730975441 333.000576683,249.845136946 336.117284561,255.741745496 338.476262299,267.576679055 341.524346191,274.647928045 343.880441066,280.886896 346.930997553,285.5970434 349.284581198,291.631705481 352.337687549,295.160482539 354.688682695,298.283874238 357.744416179,300.6339622 360.092745559,303.691038225 363.151183443,306.038396112 365.496769788,309.165271063 368.557989342,312.680812364 370.900755383,318.67265784 373.964833875,322.183893884 376.304702343,325.18444719 379.371717043,325.185576278 381.708962011,322.248425494 384.843591,319.91377398 388.344300595,316.842210091 394.489795722,314.509923605 400.31550115,311.435230338 409.417406793,309.105790598 415.235933795,305.965181035 421.395777611,302.477096694 424.882852868,296.439359774 428.028025294,292.955126427 430.348615693,289.747546128 433.313462538,286.269236643 433.314345014,280.214672861 430.346021081,276.741005473 428.032680375,273.589217326 424.93939435,271.275543795 422.629578415,267.887534259 419.648952041,259.811122283 419.648010734,241.742277895 422.632346001,232.522730747 424.935638384,226.143702567 428.265444922,222.690577498 435.159669332,219.471550406 450.198544367,216.050670363 455.877757576,211.063253615 466.704711412,207.635259296" stroke="#000000" stroke-width="2" /><g id="month199609"><circle cx="550.876534847" cy="40.7198410285" r="3" /><circle cx="571.09834886" cy="107.709078412" r="3" /><circle cx="607.129811059" cy="102.819910192" r="3" /><circle cx="665.4778624" cy="138.665916428" r="3" /><circle cx="644.242851202" cy="201.87062872" r="3" /><circle cx="666.637429242" cy="217.018158552" r="3" /><circle cx="672.137898439" cy="242.909985431" r="3" /><circle cx="701.050244308" cy="231.680596851" r="3" /><circle cx="738.094937734" cy="248.33949416" r="3" /><circle cx="806.31927019" cy="248.617280584" r="3" /><circle cx="835.782648779" cy="298.232740384" r="3" /><circle cx="829.466984005" cy="330.17863398" r="3" /><circle cx="758.159777682" cy="347.872899692" r="3" /><circle cx="751.143915003" cy="364.680438302" r="3" /><circle cx="773.766516005" cy="389.241046524" r="3" /><circle cx="781.535120733" cy="415.10968963" r="3" /><circle cx="741.286429227" cy="426.694880466" r="3" /><circle cx="714.325310802" cy="422.614231182" r="3" /><circle cx="712.75397803" cy="450.36002106" r="3" /><circle cx="723.978849399" cy="480.728995241" r="3" /><circle cx="695.371602131" cy="533.333444408" r="3" /><circle cx="691.142957372" cy="584.496077823" r="3" /><circle cx="702.383143672" cy="676.477402667" r="3" /><circle cx="700.072017424" cy="721.28824294" r="3" /><circle cx="669.608893239" cy="753.211896628" r="3" /><circle cx="683.924903541" cy="775.247375642" r="3" /><circle cx="678.654675835" cy="804.63819419" r="3" /><circle cx="653.69818767" cy="782.740809838" r="3" /><circle cx="658.506847432" cy="771.156409169" r="3" /><circle cx="631.6606666" cy="743.069992185" r="3" /><circle cx="631.903219464" cy="670.863339481" r="3" /><circle cx="619.836868357" cy="658.790524451" r="3" /><circle cx="606.198948437" cy="678.455957527" r="3" /><circle cx="580.55849187" cy="668.208103978" r="3" /><circle cx="569.751255045" cy="644.223432405" r="3" /><circle cx="540.180107811" cy="646.769098644" r="3" /><circle cx="514.307876189" cy="672.961445463" r="3" /><circle cx="476.334613116" cy="677.299142428" r="3" /><circle cx="443.436758282" cy="698.655101833" r="3" /><circle cx="432.477368027" cy="726.834361921" r="3" /><circle cx="398.605361924" cy="736.443008527" r="3" /><circle cx="379.227709859" cy="763.469250559" r="3" /><circle cx="400.665549208" cy="796.512696408" r="3" /><circle cx="435.365213045" cy="816.875475177" r="3" /><circle cx="442.92202663" cy="839.647036631" r="3" /><circle cx="400.382421798" cy="892.515750665" r="3" /><circle cx="400.77979065" cy="841.639839275" r="3" /><circle cx="383.702077553" cy="823.967289161" r="3" /><circle cx="367.912560259" cy="783.067320017" r="3" /><circle cx="324.693579935" cy="765.225787393" r="3" /><circle cx="321.888435952" cy="745.131322351" r="3" /><circle cx="346.765819218" cy="752.210396072" r="3" /><circle cx="468.206992727" cy="668.370103848" r="3" /><circle cx="451.636061791" cy="643.251729381" r="3" /><circle cx="428.334481675" cy="631.672567965" r="3" /><circle cx="388.807719053" cy="632.119742168" r="3" /><circle cx="368.593029738" cy="651.011766123" r="3" /><circle cx="351.257490678" cy="633.502904067" r="3" /><circle cx="329.047360342" cy="651.673177365" r="3" /><circle cx="323.6572573" cy="681.843663546" r="3" /><circle cx="332.970355371" cy="700.505812574" r="3" /><circle cx="300.763462482" cy="735.721218348" r="3" /><circle cx="284.611862374" cy="689.095044543" r="3" /><circle cx="261.000669899" cy="745.970573648" r="3" /><circle cx="284.252640498" cy="774.255809214" r="3" /><circle cx="245.998567277" cy="771.074541673" r="3" /><circle cx="243.871312993" cy="745.987267427" r="3" /><circle cx="206.568117214" cy="749.362299986" r="3" /><circle cx="214.849981577" cy="720.732297431" r="3" /><circle cx="178.313470755" cy="715.679986888" r="3" /><circle cx="168.254119624" cy="741.977599147" r="3" /><circle cx="143.513189549" cy="759.648377533" r="3" /><circle cx="138.667284301" cy="722.794338992" r="3" /><circle cx="177.156764257" cy="689.013036974" r="3" /><circle cx="157.586895973" cy="673.765098418" r="3" /><circle cx="145.186410462" cy="641.638874716" r="3" /><circle cx="159.547534657" cy="612.19887752" r="3" /><circle cx="160.054815112" cy="570.457671315" r="3" /><circle cx="112.479450694" cy="568.728382315" r="3" /><circle cx="63.6693335367" cy="582.886329481" r="3" /><circle cx="44.3891746981" cy="568.386970911" r="3" /><circle cx="49.4779840655" cy="544.978976469" r="3" /><circle cx="42.47027338" cy="507.468848361" r="3" /><circle cx="42.3811242828" cy="450.731768963" r="3" /><circle cx="65.7227024853" cy="391.093960649" r="3" /><circle cx="89.3015284338" cy="359.068896757" r="3" /><circle cx="129.39577794" cy="348.962557638" r="3" /><circle cx="168.378624022" cy="287.855173584" r="3" /><circle cx="217.026954668" cy="229.233969046" r="3" /><circle cx="228.410055406" cy="190.421155307" r="3" /><circle cx="268.378132735" cy="154.306988579" r="3" /><circle cx="280.758899478" cy="121.916956636" r="3" /><circle cx="264.112682576" cy="87.7862820945" r="3" /><circle cx="299.429052561" cy="65.9279833047" r="3" /><circle cx="340.13296647" cy="80.7585814756" r="3" /><circle cx="389.250443567" cy="65.791557612" r="3" /><circle cx="417.000985988" cy="83.873753113" r="3" /><circle cx="483.360930915" cy="79.8757161275" r="3" /><circle cx="488.592263835" cy="59.641968064" r="3" /><circle cx="534.040762992" cy="58.7587084744" r="3" /></g><g id="month199609_labels"><text alignment-baseline="middle" font-size="12" text-anchor="middle" x="550.876534847" y="25.7198410285">1</text><text alignment-baseline="middle" font-size="12" text-anchor="middle" x="571.09834886" y="92.7090784118">2</text><text alignment-baseline="middle" font-size="12" text-anchor="middle" x="617.736412777" y="92.2133084737">3</text><text alignment-baseline="middle" font-size="12" text-anchor="middle" x="676.084464118" y="128.05931471">4</text><text alignment-baseline="middle" font-size="12" text-anchor="middle" x="654.84945292" y="191.264027002">5</text><text alignment-baseline="middle" font-size="12" text-anchor="middle" x="677.24403096" y="206.411556834">6</text><text alignment-baseline="middle" font-size="12" text-anchor="middle" x="682.744500157" y="232.303383714">7</text><text alignment-baseline="middle" font-size="12" text-anchor="middle" x="711.656846026" y="221.073995134">8</text><text alignment-baseline="middle" font-size="12" text-anchor="middle" x="748.701539451" y="237.732892442">9</text><text alignment-baseline="middle" font-size="12" text-anchor="middle" x="816.925871907" y="238.010678866">10</text><text alignment-baseline="middle" font-size="12" text-anchor="middle" x="846.389250497" y="287.626138666">11</text><text alignment-baseline="middle" font-size="12" text-anchor="middle" x="844.466984005" y="330.17863398">12</text><text alignment-baseline="middle" font-size="12" text-anchor="middle" x="773.159777682" y="347.872899692">13</text><text alignment-baseline="middle" font-size="12" text-anchor="middle" x="766.143915003" y="364.680438302">14</text><text alignment-baseline="middle" font-size="12" text-anchor="middle" x="788.766516005" y="389.241046524">15</text><text alignment-baseline="middle" font-size="12" text-anchor="middle" x="796.535120733" y="415.10968963">16</text><text alignment-baseline="middle" font-size="12" text-anchor="middle" x="756.286429227" y="426.694880466">17</text><text alignment-baseline="middle" font-size="12" text-anchor="middle" x="729.325310802" y="422.614231182">18</text><text alignment-baseline="middle" font-size="12" text-anchor="middle" x="727.75397803" y="450.36002106">19</text><text alignment-baseline="middle" font-size="12" text-anchor="middle" x="738.978849399" y="480.728995241">20</text><text alignment-baseline="middle" font-size="12" text-anchor="middle" x="710.371602131" y="533.333444408">21</text><text alignment-baseline="middle" font-size="12" text-anchor="middle" x="701.749559089" y="595.102679541">22</text><text alignment-baseline="middle" font-size="12" text-anchor="middle" x="712.98974539" y="687.084004385">23</text><text alignment-baseline="middle" font-size="12" text-anchor="middle" x="710.678619142" y="731.894844658">24</text><text alignment-baseline="middle" font-size="12" text-anchor="middle" x="680.215494957" y="763.818498346">25</text><text alignment-baseline="middle" font-size="12" text-anchor="middle" x="694.531505259" y="785.85397736">26</text><text alignment-baseline="middle" font-size="12" text-anchor="middle" x="689.261277553" y="815.244795908">27</text><text alignment-baseline="middle" font-size="12" text-anchor="middle" x="664.304789388" y="793.347411556">28</text><text alignment-baseline="middle" font-size="12" text-anchor="middle" x="669.11344915" y="781.763010887">29</text><text alignment-baseline="middle" font-size="12" text-anchor="middle" x="642.267268318" y="753.676593903">30</text><text alignment-baseline="middle" font-size="12" text-anchor="middle" x="642.509821181" y="681.469941198">31</text><text alignment-baseline="middle" font-size="12" text-anchor="middle" x="630.443470075" y="669.397126169">32</text><text alignment-baseline="middle" font-size="12" text-anchor="middle" x="616.805550155" y="689.062559244">33</text><text alignment-baseline="middle" font-size="12" text-anchor="middle" x="591.165093588" y="678.814705695">34</text><text alignment-baseline="middle" font-size="12" text-anchor="middle" x="580.357856763" y="654.830034123">35</text><text alignment-baseline="middle" font-size="12" text-anchor="middle" x="550.786709529" y="657.375700361">36</text><text alignment-baseline="middle" font-size="12" text-anchor="middle" x="514.307876189" y="687.961445463">37</text><text alignment-baseline="middle" font-size="12" text-anchor="middle" x="476.334613116" y="692.299142428">38</text><text alignment-baseline="middle" font-size="12" text-anchor="middle" x="443.436758282" y="713.655101833">39</text><text alignment-baseline="middle" font-size="12" text-anchor="middle" x="432.477368027" y="741.834361921">40</text><text alignment-baseline="middle" font-size="12" text-anchor="middle" x="398.605361924" y="751.443008527">41</text><text alignment-baseline="middle" font-size="12" text-anchor="middle" x="379.227709859" y="778.469250559">42</text><text alignment-baseline="middle" font-size="12" text-anchor="middle" x="400.665549208" y="811.512696408">43</text><text alignment-baseline="middle" font-size="12" text-anchor="middle" x="435.365213045" y="831.875475177">44</text><text alignment-baseline="middle" font-size="12" text-anchor="middle" x="442.92202663" y="854.647036631">45</text><text alignment-baseline="middle" font-size="12" text-anchor="middle" x="400.382421798" y="907.515750665">46</text><text alignment-baseline="middle" font-size="12" text-anchor="middle" x="400.77979065" y="856.639839275">47</text><text alignment-baseline="middle" font-size="12" text-anchor="middle" x="383.702077553" y="838.967289161">48</text><text alignment-baseline="middle" font-size="12" text-anchor="middle" x="367.912560259" y="798.067320017">49</text><text alignment-baseline="middle" font-size="12" text-anchor="middle" x="324.693579935" y="780.225787393">50</text><text alignment-baseline="middle" font-size="12" text-anchor="middle" x="311.281834235" y="755.737924069">51</text><text alignment-baseline="middle" font-size="12" text-anchor="middle" x="346.765819218" y="767.210396072">52</text><text alignment-baseline="middle" font-size="12" text-anchor="middle" x="468.206992727" y="683.370103848">53</text><text alignment-baseline="middle" font-size="12" text-anchor="middle" x="451.636061791" y="658.251729381">54</text><text alignment-baseline="middle" font-size="12" text-anchor="middle" x="428.334481675" y="646.672567965">55</text><text alignment-baseline="middle" font-size="12" text-anchor="middle" x="388.807719053" y="647.119742168">56</text><text alignment-baseline="middle" font-size="12" text-anchor="middle" x="368.593029738" y="666.011766123">57</text><text alignment-baseline="middle" font-size="12" text-anchor="middle" x="340.65088896" y="644.109505785">58</text><text alignment-baseline="middle" font-size="12" text-anchor="middle" x="318.440758624" y="662.279779083">59</text><text alignment-baseline="middle" font-size="12" text-anchor="middle" x="313.050655582" y="692.450265264">60</text><text alignment-baseline="middle" font-size="12" text-anchor="middle" x="322.363753653" y="711.112414292">61</text><text alignment-baseline="middle" font-size="12" text-anchor="middle" x="290.156860764" y="746.327820066">62</text><text alignment-baseline="middle" font-size="12" text-anchor="middle" x="274.005260656" y="699.70164626">63</text><text alignment-baseline="middle" font-size="12" text-anchor="middle" x="250.394068182" y="756.577175366">64</text><text alignment-baseline="middle" font-size="12" text-anchor="middle" x="273.64603878" y="784.862410932">65</text><text alignment-baseline="middle" font-size="12" text-anchor="middle" x="235.391965559" y="781.68114339">66</text><text alignment-baseline="middle" font-size="12" text-anchor="middle" x="233.264711275" y="756.593869145">67</text><text alignment-baseline="middle" font-size="12" text-anchor="middle" x="195.961515497" y="759.968901704">68</text><text alignment-baseline="middle" font-size="12" text-anchor="middle" x="204.243379859" y="731.338899149">69</text><text alignment-baseline="middle" font-size="12" text-anchor="middle" x="167.706869037" y="726.286588606">70</text><text alignment-baseline="middle" font-size="12" text-anchor="middle" x="157.647517906" y="752.584200865">71</text><text alignment-baseline="middle" font-size="12" text-anchor="middle" x="132.906587831" y="770.254979251">72</text><text alignment-baseline="middle" font-size="12" text-anchor="middle" x="128.060682583" y="733.40094071">73</text><text alignment-baseline="middle" font-size="12" text-anchor="middle" x="166.55016254" y="699.619638692">74</text><text alignment-baseline="middle" font-size="12" text-anchor="middle" x="146.980294255" y="684.371700136">75</text><text alignment-baseline="middle" font-size="12" text-anchor="middle" x="134.579808744" y="652.245476434">76</text><text alignment-baseline="middle" font-size="12" text-anchor="middle" x="148.940932939" y="622.805479238">77</text><text alignment-baseline="middle" font-size="12" text-anchor="middle" x="145.054815112" y="570.457671315">78</text><text alignment-baseline="middle" font-size="12" text-anchor="middle" x="97.4794506941" y="568.728382315">79</text><text alignment-baseline="middle" font-size="12" text-anchor="middle" x="48.6693335367" y="582.886329481">80</text><text alignment-baseline="middle" font-size="12" text-anchor="middle" x="29.3891746981" y="568.386970911">81</text><text alignment-baseline="middle" font-size="12" text-anchor="middle" x="34.4779840655" y="544.978976469">82</text><text alignment-baseline="middle" font-size="12" text-anchor="middle" x="27.47027338" y="507.468848361">83</text><text alignment-baseline="middle" font-size="12" text-anchor="middle" x="27.3811242828" y="450.731768963">84</text><text alignment-baseline="middle" font-size="12" text-anchor="middle" x="50.7227024853" y="391.093960649">85</text><text alignment-baseline="middle" font-size="12" text-anchor="middle" x="74.3015284338" y="359.068896757">86</text><text alignment-baseline="middle" font-size="12" text-anchor="middle" x="114.39577794" y="348.962557638">87</text><text alignment-baseline="middle" font-size="12" text-anchor="middle" x="157.772022304" y="277.248571866">88</text><text alignment-baseline="middle" font-size="12" text-anchor="middle" x="206.42035295" y="218.627367329">89</text><text alignment-baseline="middle" font-size="12" text-anchor="middle" x="217.803453688" y="179.814553589">90</text><text alignment-baseline="middle" font-size="12" text-anchor="middle" x="257.771531017" y="143.700386861">91</text><text alignment-baseline="middle" font-size="12" text-anchor="middle" x="270.152297761" y="111.310354918">92</text><text alignment-baseline="middle" font-size="12" text-anchor="middle" x="253.506080859" y="77.1796803767">93</text><text alignment-baseline="middle" font-size="12" text-anchor="middle" x="299.429052561" y="50.9279833047">94</text><text alignment-baseline="middle" font-size="12" text-anchor="middle" x="340.13296647" y="65.7585814756">95</text><text alignment-baseline="middle" font-size="12" text-anchor="middle" x="389.250443567" y="50.791557612">96</text><text alignment-baseline="middle" font-size="12" text-anchor="middle" x="417.000985988" y="68.873753113">97</text><text alignment-baseline="middle" font-size="12" text-anchor="middle" x="483.360930915" y="64.8757161275">98</text><text alignment-baseline="middle" font-size="12" text-anchor="middle" x="488.592263835" y="44.641968064">99</text><text alignment-baseline="middle" font-size="12" text-anchor="middle" x="534.040762992" y="43.7587084744">100</text></g></svg>