<?xml version="1.0" encoding="utf-8" ?>
<svg baseProfile="full" height="792.0" version="1.1" width="612.0" xmlns="http://www.w3.org/2000/svg" xmlns:ev="http://www.w3.org/2001/xml-events" xmlns:xlink="http://www.w3.org/1999/xlink"><defs><pattern height="18" id="diagonal" patternUnits="userSpaceOnUse" width="18"><rect fill="#ffffff" height="18" width="18" x="0" y="0" /><path d="M0,18 l18,-18 M-4.5,4.5 l9.0,-9.0 M13.5,22.5 l9.0,-9.0" stroke="#000000" stroke-width="1" /></pattern></defs><polygon fill="url(#diagonal)" points="216.69491745,143.660236779 218.181644787,144.278483175 218.928499166,147.014915964 220.699450532,151.500239463 224.035423368,156.907445037 229.288126501,160.373362494 234.010935238,163.31055681 234.910969185,166.212308822 232.926599458,169.625235135 232.60798554,174.420657254 233.521582323,178.707726578 237.029608499,182.621201679 241.765247112,185.961614447 243.60598487,189.545265956 245.061608545,192.961567429 244.642220824,195.483240538 241.896920956,197.594359205 239.261699449,198.817433155 237.511594611,199.990109829 235.10035256,200.097690863 232.725033998,198.427027043 230.242741481,196.728594186 226.994428637,198.356405448 227.561823018,202.863253526 230.425030467,207.55779878 231.403461246,211.302928532 232.195951757,214.202369418 231.77685427,216.576495326 232.693270197,218.795952699 235.589912741,219.237594524 237.984471108,218.674624669 240.194300334,220.159944764 242.916193814,223.321032784 247.239881017,225.958483079 251.908318938,227.236685237 255.954384286,229.233955333 258.448057295,231.201832999 259.339319188,233.225119084 262.289468546,234.693334404 267.920002991,237.063062143 271.64165087,239.833977627 269.800833207,242.647988255 265.09718567,246.562475374 262.516982527,249.074804153 261.485508811,251.655020028 260.049159919,254.631723172 259.407132035,257.35714458 257.854149005,260.972786432 257.617773281,265.381757657 260.9989691,268.536437638 265.338791704,269.876793429 270.960764069,272.271721227 275.932666742,275.005328139 281.036978959,278.942937475 288.227642357,282.518900874 293.739994264,284.048221324 299.068122256,286.090023877 303.502160181,287.589650296 307.172425208,289.839573462 312.115267991,291.603277424 315.727563354,292.450233308 319.050959781,291.725687396 325.042562872,291.232234692 330.319915673,291.121121909 334.69034974,292.36175424 338.763923589,293.901803334 340.77992211,296.093598186 342.183982467,298.663554711 345.351260181,300.566812455 348.044693014,301.996495916 350.501890918,302.843535394 353.664081654,303.568515797 358.228327926,304.002773321 362.56171198,306.010339291 366.635697689,306.538896727 371.97925017,307.452568285 378.700599658,308.909284037 383.971372313,308.719258737 386.959054399,309.843722888 391.844392687,310.764195864 398.640719885,310.429225472 402.375888863,310.504279702 404.275512807,308.756050489 405.232890719,304.540902033 404.323330598,300.351577262 403.182753314,296.505606246 403.786150594,290.961360591 405.198496574,285.882243775 406.472616651,282.767896972 409.904847441,281.167969479 414.089500026,280.265591485 417.250258569,281.536381988 418.091042697,284.712660897 417.765608399,289.257021595 418.229911959,293.524530302 418.794410435,297.490600835 422.882563837,301.353536573 428.748685832,303.055924752 435.684997672,304.328859272 441.606166266,303.938690842 446.71414542,302.779679622 452.542238545,303.136541431 460.303014904,303.079838046 465.505045793,302.61874146 469.916238434,302.409338034 475.601965215,300.379241433 477.411410113,297.029998283 477.561503017,293.990168985 475.869794375,291.885964182 472.626347063,291.116652028 470.411649545,289.167953438 471.511570043,286.688242207 475.412218053,285.827626409 478.791067153,285.243172577 482.890963669,284.469951949 487.267610492,282.371530463 490.728452755,278.887417385 495.531643382,274.958987772 499.180346104,271.864508923 503.261665612,269.479533146 508.36247934,267.757611338 514.992736889,264.971650796 518.979366168,262.453697105 520.752185185,260.291768776 524.649951334,258.421659991 528.344174354,259.005022416 532.12116188,260.000874755 536.235829457,260.825683778 538.728405061,260.473954087 541.279678553,259.73213841 543.433452167,258.673936346 545.258323642,257.9910222 547.704235683,256.812348807 552.018341312,256.498136792 554.77138187,257.412647598 555.885035476,258.655088128 555.759380784,260.845925444 557.663925297,262.396455327 560.50481767,265.424840785 561.026888631,268.005234109 559.85009984,270.181717177 560.07016012,271.797598116 561.530649451,271.063545393 564.310706933,271.449166344 568.17917026,273.802052428 571.624160844,275.202617146 574.349047948,277.900914832 574.791203374,281.710586492 572.376470963,284.222578337 568.687125431,287.963953192 568.466078083,292.325977759 570.26654946,296.128094454 569.382799748,297.246706231 566.696881744,295.917525152 562.512090961,294.43926339 555.029304037,295.561317953 549.45316192,298.328703014 545.545053112,300.849156773 540.444658172,304.158573399 536.336137511,306.48666615 533.910815402,309.526103748 533.634043609,313.386582689 534.027717287,316.875966633 532.909663817,319.841201281 530.754267467,323.662758439 526.625795591,328.474371671 524.96227854,332.46393648 524.419083527,338.326842148 520.141559783,348.126281991 516.096055782,355.396766228 512.602852238,356.421571358 507.68049404,355.519450881 503.963320151,355.38083182 502.23118124,356.495562727 502.582477886,362.181050188 502.153336394,369.306655232 500.561545227,372.695231122 498.78536973,373.939247274 498.112070644,375.778029358 497.621916958,378.975177985 497.96370734,384.05678936 497.564046885,387.608510138 496.07300369,389.170190285 493.917505701,390.597583027 490.355028345,390.53234318 488.065921325,390.775408511 487.200250632,387.363854663 485.795266334,380.276476123 484.040579846,374.068021471 483.037411813,368.288601724 481.541966836,363.251762801 479.501300268,361.042659415 477.303446038,361.97193125 475.277190465,364.734652711 473.193302651,368.351298631 471.996490228,371.609106549 469.216715466,372.606054884 466.200945822,370.758852423 464.36434991,369.200085961 462.36358532,363.233043325 462.823368138,357.353633207 465.360431683,354.130891865 468.64789403,352.825536889 471.747994124,351.672481721 474.080999732,351.129346351 476.0049861,349.136237956 478.729094376,345.78060034 481.465397547,340.773249967 483.646460509,338.924949617 484.276936961,337.399936225 481.740287704,335.313850045 475.939865255,333.896687442 468.349764504,333.663579987 462.034553524,333.391905523 454.892486596,333.662624404 446.748324553,333.202315097 439.805294603,331.277346782 436.857457067,327.621024093 435.967299053,320.636338017 433.851031955,316.567267968 431.220711126,317.595907422 427.873428085,317.6154902 424.661418957,315.371941403 422.598808976,312.690239729 420.893037391,312.001936663 420.60562473,313.061054323 418.154254339,312.921950787 414.718952715,310.622105442 411.675984019,308.923261906 410.617758294,310.370747859 408.678780176,313.571043408 406.36264273,316.249385121 406.709700984,320.532066812 411.917385834,325.628981721 416.489074056,327.974883281 418.810026407,329.950938102 420.142574125,331.424654969 418.166244767,332.968444919 412.4935114,334.643099046 408.861682014,337.506409264 406.475274229,339.138502699 404.700716397,342.578019272 406.539640982,346.004802971 411.46592829,348.868347761 415.341263269,350.864449217 415.873367173,352.880519108 415.529825431,355.784028466 414.257594133,358.181860561 414.126515315,361.437278889 416.047598864,365.070595853 417.276037274,368.414011835 419.205844589,370.940881932 419.922032246,376.70922051 421.706508239,387.113512099 422.206495869,394.100514281 421.890520319,397.287656788 419.587916806,398.506434106 417.287218298,399.112718456 416.146351813,396.805964219 415.858959007,393.210603299 414.729845177,394.192098777 413.459891561,397.550060133 412.236054671,397.354398577 410.702342611,398.531307104 408.162639785,399.265599339 406.522762868,396.4767778 405.195064199,392.515924243 402.007714457,394.601683872 396.492547089,398.062699516 389.16590091,400.820252937 383.962896146,404.255185116 382.496674096,408.750388077 382.81621254,415.173225562 380.925178425,419.73127678 378.596235257,423.198570854 375.528381598,426.066039046 372.083293816,429.253736808 366.106216257,432.030922296 359.043461631,433.50231707 357.198741365,432.064834189 355.471475782,431.709220306 352.200177441,434.025118161 350.670296074,436.26906253 351.922933941,436.270212253 351.324986733,438.178010996 345.137144902,444.451647134 337.311892831,453.245943269 329.999273733,460.327909341 322.19272908,466.093027847 313.399353618,473.197619257 303.446459986,479.672386995 298.435485326,483.752064239 297.615524014,486.452450082 298.056734257,488.698923158 295.588205681,492.291957291 288.503223997,495.572707102 282.122102135,496.39809485 278.544377074,498.220001696 276.220786201,502.331321072 273.7919653,504.920686841 271.71578221,505.759845303 270.23577887,506.697439603 268.598362589,505.80680906 265.032995216,506.130510751 260.540850426,509.713394026 257.4705263,515.460663148 256.592489672,521.169760034 257.290927335,526.167291008 258.1018372,530.635603612 258.166466533,536.70205109 258.32845713,542.437068913 258.106101471,547.233458943 259.798377142,553.653201119 259.401958086,562.384323409 257.055567004,569.109558498 253.404659753,576.42173791 251.442860653,583.918700101 251.728220478,592.439745062 251.08750488,603.703734165 247.770392768,607.578349135 244.196232641,608.462934121 241.866620142,610.708249146 240.351629827,614.18947441 237.308759739,619.212169584 236.030199747,623.287972765 238.055138804,625.719767746 241.105666678,626.625475099 240.510535908,627.290510093 235.055559245,628.028703787 227.817836433,630.196681809 223.080429385,633.644584599 220.508217155,638.556223962 217.134049147,643.838031388 210.598875156,647.717375532 204.997798299,647.36552104 198.997675233,642.403204063 192.216059009,633.426720984 187.716051546,623.454233326 185.184267576,613.987645439 182.423150591,605.553418738 179.907158495,599.296310457 177.12871454,592.35846083 172.38183504,583.714064382 167.488037902,577.045307926 164.074888383,570.78143724 159.689763615,559.256634544 155.754847,545.794384558 153.434938897,538.40996752 151.357594043,532.273744344 148.935783803,527.631405978 146.464297937,524.789090644 144.623062773,521.963952917 143.030748161,519.169908653 141.699872471,515.393661075 139.504379058,510.991934756 136.715832818,505.608679453 134.05703123,500.18689602 131.915409112,492.380714663 130.534101665,483.832297277 129.078871858,476.960193501 127.591303186,470.776638332 125.512125412,463.048922266 124.168685857,453.847498869 124.147420452,448.702311465 122.838076694,446.751576296 121.6423695,442.03983482 120.480819606,432.906769409 121.287259985,424.798098957 122.791464669,418.884173049 122.159804547,412.490472623 119.752645291,406.294017407 119.972345717,401.708066765 121.360376368,398.590494572 119.112750578,396.401588392 117.981188658,393.677996064 117.31236899,391.780699645 118.403073399,389.558371223 120.239149738,387.842296928 117.621092697,387.29848602 114.051567308,388.2615299 112.249597821,390.37647417 110.626849374,392.752404117 110.740305842,395.697856035 111.326992558,399.283028402 109.829915534,403.748510407 106.325302431,407.601828851 98.0073471375,411.980440601 90.0348789253,415.032048754 85.1564571815,415.389406034 79.4340826163,412.914141528 71.5851962425,407.144635408 63.5174277631,399.59253655 56.3979104481,392.722809181 52.2247019108,387.584895639 52.309103207,385.184058389 54.8011747817,385.178870756 58.2216345223,385.750829925 64.7067774295,384.338809453 69.6966728489,382.466379033 73.5181969841,380.282944487 76.9769716067,376.293807757 79.0597419731,373.32828091 78.8225385352,372.444244281 77.1663659632,373.5926391 73.5863352351,374.390589458 68.3747035337,376.031477877 63.5025981023,377.251105312 56.6652804848,376.042066971 50.0423180833,373.206361406 45.8983933335,370.196693644 43.8996185811,367.606214237 42.009159381,365.143890656 42.628951597,362.041765443 44.3361850205,359.460092217 40.372410992,359.601423811 38.4399186005,358.149873721 41.5465579653,356.191176539 45.4728660743,354.347893386 47.8661755078,351.270348845 52.7450488537,350.208143062 60.1185568853,350.426444212 64.9431455191,351.278209562 69.1643990603,351.263021546 73.4556729627,349.556810435 78.3455443708,348.389465107 81.3178802856,349.398727632 84.8012642957,349.699480895 88.3328757582,347.461450315 88.844468494,344.52630637 88.5995119725,340.881994743 86.1316518968,334.686680775 83.0785813002,328.835812306 80.477761232,324.818354487 75.9462593524,322.489060175 72.7582809477,318.745739517 72.5383546432,314.194127264 71.5515075761,309.618367203 67.0208352958,307.009289004 62.4342420242,304.798510263 61.2587680408,301.797161834 63.9190374807,295.985340496 69.081617506,289.515721847 72.6685416598,284.956740729 76.0692167323,281.829092419 78.9697485161,281.103337727 81.5889287397,282.785452957 83.7038912219,285.224412859 87.258428754,285.764953416 93.6065217358,284.334068237 99.2646682202,283.264687155 103.553445201,281.732945084 106.195843869,278.837827079 109.421023092,274.465699783 112.159443762,269.879002109 116.06953864,266.182481132 123.13841665,261.019789569 129.198457627,253.306374504 133.55597064,246.768662139 138.669825977,243.268616701 141.869385363,240.590908681 142.685939138,237.554637708 145.642357984,233.559133445 150.487704834,228.364235397 154.333395269,224.576165302 154.583941294,221.713725397 154.633340292,217.538012956 154.158897054,213.182106739 155.586317283,209.987297974 159.924162763,207.268570406 165.124191204,205.139642961 167.015196218,202.280684567 163.247043948,199.505633007 158.57782558,198.144025685 156.538296571,195.888948979 155.951371694,193.262167292 153.645192495,192.838868753 150.833219103,191.786190445 148.858944863,189.013534182 146.164573017,184.779635545 145.661291942,179.740057594 144.759038742,176.474421383 145.593958286,173.638536046 146.911660203,171.321846443 144.72010778,169.493834704 143.153549892,166.634604778 141.674694508,163.015975759 143.86758086,159.059006132 151.050491347,157.211968064 160.769919573,158.029324102 166.342267144,158.755103597 170.380211914,159.792540263 176.402100947,159.986796383 182.758139698,158.236669029 189.979633643,156.677603392 194.23985975,155.059997987 196.055347377,153.545330336 198.288500442,152.385448844 203.072057831,148.982340501 211.561166037,144.501479364 215.005921504,143.453369843" stroke="#000000" stroke-width="1" /></svg>