<?xml version="1.0" encoding="utf-8" ?>
<svg baseProfile="full" height="1650.0" version="1.1" width="1275.0" xmlns="http://www.w3.org/2000/svg" xmlns:ev="http://www.w3.org/2001/xml-events" xmlns:xlink="http://www.w3.org/1999/xlink"><defs><pattern height="36" id="diagonal" patternUnits="userSpaceOnUse" width="36"><rect fill="#ffffff" height="36" width="36" x="0" y="0" /><path d="M0,36 l36,-36 M-9.0,9.0 l18.0,-18.0 M27.0,45.0 l18.0,-18.0" stroke="#000000" stroke-width="1" /></pattern></defs><polygon fill="url(#diagonal)" points="451.447744687,299.292159956 454.545093305,300.580173282 456.10103993,306.281074926 459.790521942,315.625498881 466.740465349,326.890510494 477.683596878,334.111171864 487.522781745,340.230326688 489.397852468,346.275643379 485.263748871,353.385906531 484.599969875,363.376369279 486.503296506,372.307763705 493.811684373,380.46083683 503.677598149,387.420030099 507.51246848,394.885970741 510.545017802,402.003265477 509.671293384,407.256751121 503.951918657,411.65491501 498.461873853,414.202985739 494.815822107,416.646062144 489.792401167,416.870189297 484.843820829,413.389639673 479.672378086,409.851237887 472.905059661,413.24251135 474.087131287,422.631778179 480.052146805,432.412080792 482.090544263,440.214434441 483.74156616,446.254936288 482.868446396,451.201031929 484.777646244,455.824901457 490.812318209,456.744988592 495.800981476,455.572134727 500.404792362,458.666551591 506.075403778,465.252151633 515.083085452,470.746839748 524.808997788,473.40976091 533.238300595,477.570740277 538.433452699,481.670485415 540.290248309,485.885664758 546.436392803,488.944446675 558.166672898,493.881379464 565.92010598,499.654120057 562.085069182,505.516642197 552.285803478,513.671823696 546.910380265,518.905841986 544.76147669,524.281291724 541.769083165,530.482756608 540.431525072,536.160717875 537.196143761,543.693305066 536.703694335,552.878661785 543.747852291,559.450911746 552.789149382,562.243319643 564.501591811,567.232752557 574.859722378,572.927766955 585.493706164,581.131119739 600.47425491,588.581043488 611.958321383,591.767127758 623.058588033,596.020883077 632.296167043,599.145104783 639.942552517,603.832444712 650.240141648,607.506827967 657.765756988,609.271319392 664.689499544,607.761848742 677.172005983,606.733822276 688.166490986,606.50233731 697.271561959,609.086987999 705.758174144,612.295423613 709.958171062,616.861662887 712.883296806,622.215738981 719.481792044,626.180859281 725.093110447,629.159366492 730.212272745,630.924032071 736.800170114,632.43440791 746.309016513,633.339111086 755.336899959,637.521540191 763.824370185,638.622701515 774.956771189,640.526183927 788.95958262,643.561008411 799.940358985,643.165122369 806.164696666,645.507756016 816.342484764,647.425408051 830.50149976,646.727553068 838.283101797,646.883916046 842.24065168,643.241771853 844.235188997,634.460212569 842.340272078,625.73245263 839.964069404,617.720013013 841.221147071,606.16950123 844.163534528,595.588007864 846.817951356,589.099785358 853.968432169,585.766603081 862.686458387,583.886648927 869.271372018,586.534129141 871.023005619,593.151376869 870.345017498,602.618794989 871.312316582,611.509438129 872.488355073,619.772085073 881.005341327,627.819867861 893.226428816,631.3665099 907.677078483,634.018456817 920.012846387,633.20560592 930.654469624,630.790999212 942.796330303,631.534461315 958.964614384,631.416329263 969.802178736,630.455711375 978.992163404,630.019454238 990.837427531,625.790086319 994.607104403,618.812496423 994.919797953,612.479518719 991.395404948,608.095758712 984.638223047,606.493025058 980.024269886,602.433236329 982.315770923,597.267171265 990.442120944,595.474221686 997.481389902,594.256609535 1006.02284098,592.645733226 1015.14085519,588.274021797 1022.35094324,581.015452886 1032.35759038,572.831224524 1039.95905438,566.38439359 1048.46180336,561.415694055 1059.08849862,557.828356954 1072.90153519,552.024272492 1081.20701285,546.778535635 1084.9003858,542.274518282 1093.02073195,538.378458314 1100.7170299,539.593796699 1108.58575392,541.668489072 1117.15797804,543.386841203 1122.35084388,542.654071015 1127.66599698,541.108621687 1132.15302535,538.904034054 1135.95484092,537.481296251 1141.05049101,535.025726681 1150.03821107,534.371118316 1155.77371223,536.276349162 1158.09382391,538.864766934 1157.8320433,543.429011341 1161.79984437,546.65928193 1167.71837015,552.968418301 1168.80601798,558.344237728 1166.35437467,562.878577453 1166.81283358,566.244996076 1169.85551969,564.715719568 1175.64730611,565.51909655 1183.70660471,570.420942558 1190.88366842,573.33878572 1196.56051656,578.960239234 1197.48167369,586.897055192 1192.45098117,592.130371535 1184.76484465,599.924902483 1184.30432934,609.012453665 1188.05531138,616.933530112 1186.21416614,619.263971315 1180.61850363,616.494844066 1171.9001895,613.415132062 1156.31105008,615.752745736 1144.69408733,621.51813128 1136.55219398,626.769076609 1125.92637119,633.663694581 1117.36695315,638.513887812 1112.31419875,644.846049476 1111.73759085,652.888713935 1112.55774435,660.158263818 1110.22846628,666.335836002 1105.73805722,674.297413415 1097.13707415,684.321607648 1093.67141363,692.633200999 1092.53975735,704.847587809 1083.62824955,725.263087481 1075.20011621,740.409929641 1067.92260883,742.544940329 1057.66769592,740.665522668 1049.92358365,740.376732958 1046.31496092,742.699089015 1047.04682893,754.543854558 1046.15278415,769.388865067 1042.83655256,776.448398171 1039.13618694,779.040098488 1037.73348051,782.870894496 1036.712327,789.531620802 1037.42439029,800.118311166 1036.59176434,807.517729454 1033.48542435,810.77122976 1028.99480354,813.744964641 1021.57297572,813.609048293 1016.80400276,814.115434399 1015.00052215,807.008030548 1012.07347153,792.24265859 1008.41787468,779.308378065 1006.32794128,767.267920258 1003.21243091,756.774505835 998.961042225,752.172207114 994.382179245,754.108190104 990.160813469,759.863859814 985.819380522,767.398538815 983.326021309,774.185638645 977.534823887,776.262614341 971.251970462,772.414275882 967.425728979,769.166845751 963.257469417,756.735506927 964.215350288,744.486735848 969.500899341,737.772691385 976.34977923,735.053201852 982.808321093,732.651003586 987.668749441,731.519471565 991.677054375,727.367162409 997.35227995,720.376250708 1003.05291156,709.944270765 1007.59679273,706.093645034 1008.91028533,702.916533802 1003.62559938,698.570520927 991.541385948,695.618098838 975.728676049,695.132458307 962.571986508,694.56646984 947.692680408,695.130467508 930.725676153,694.171489785 916.261030423,690.161139129 910.119702224,682.543800193 908.265206361,667.992370868 903.856316572,659.5151416 898.376481513,661.658140462 891.402975177,661.698937916 884.711289493,657.024877922 880.414185367,651.437999436 876.860494565,650.004034715 876.261718188,652.21052984 871.15469654,651.920730806 863.997818157,647.129386337 857.65830004,643.590128971 855.453663112,646.605724706 851.414125367,653.2730071 846.58883902,658.852885668 847.31187705,667.775139192 858.161220487,678.39371192 867.685570949,683.281006835 872.520888348,687.397787713 875.297029427,690.468031186 871.179676598,693.684260248 859.361482082,697.173123013 851.795170862,703.138352632 846.823487977,706.538547289 843.126492494,713.704206816 846.957585379,720.843339522 857.220683938,726.809057835 865.294298476,730.967602535 866.402848276,735.167748142 865.687136315,741.21672597 863.036654444,746.212209503 862.763573574,752.994331019 866.765830967,760.563741361 869.325077654,767.529191323 873.345509561,772.793504025 874.837567179,784.810876063 878.555225498,806.48648354 879.596866393,821.042738085 878.938583999,827.682618307 874.141493347,830.221737721 869.348371454,831.484830116 866.971566277,826.679092122 866.372831264,819.188756874 864.020510785,821.233539119 861.374774084,828.229291944 858.825113897,827.821663703 855.62988044,830.273556467 850.338832886,831.803331956 846.922422643,825.993287084 844.156383749,817.741508839 837.516071786,822.0868414 826.02613977,829.297290659 810.762293563,835.042193619 799.922700304,842.198302325 796.868071034,851.563308494 797.533776124,864.944219922 793.594121718,874.440159958 788.742156786,881.663689279 782.350794996,887.637581345 775.173528784,894.278618351 762.721283868,900.06442145 748.007211731,903.12982723 744.16404451,900.135071226 740.565574545,899.39420897 733.750369669,904.21899617 730.563116821,908.893880271 733.172779044,908.896275527 731.927055694,912.870856243 719.035718545,925.940931529 702.733110064,944.26238181 687.498486943,959.016477793 671.23485225,971.027141349 652.915320038,985.828373452 632.18012497,999.317472906 621.740594429,1007.8168005 620.032341696,1013.44260434 620.951529701,1018.12275658 615.808761836,1025.60824436 601.048383327,1032.4431398 587.754379447,1034.1626976 580.300785572,1037.95833687 575.459971253,1046.52358557 570.399927709,1051.91809758 566.07454627,1053.66634438 562.991205979,1055.61966584 559.57992206,1053.76418554 552.152073367,1054.43856407 542.793438387,1061.90290422 536.396929791,1073.87638156 534.567686816,1085.7703334 536.022765282,1096.18185627 537.712160833,1105.49084086 537.846805276,1118.1292731 538.184285688,1130.0772269 537.72104473,1140.06970613 541.246619046,1153.444169 540.420746013,1171.6340071 535.532431259,1185.64491354 527.926374486,1200.87862065 523.839293027,1216.49729188 524.433792662,1234.24946888 523.0989685,1257.71611284 516.188318267,1265.78822737 508.742151335,1267.63111275 503.888791962,1272.30885239 500.73256214,1279.56140502 494.393249456,1290.0253533 491.729582806,1298.51660993 495.948205842,1303.58284947 502.303472246,1305.46973979 501.063616474,1306.85522936 489.699081761,1308.39313289 474.620492568,1312.90975377 464.750894553,1320.09288458 459.392119073,1330.32546659 452.362602389,1341.32923206 438.747656575,1349.41119902 427.078746457,1348.67816883 414.578490069,1338.34000847 400.450122936,1319.63900205 391.075107387,1298.8629861 385.80055745,1279.140928 380.048230399,1261.56962237 374.806580199,1248.53398012 369.018155293,1234.08012673 359.128822999,1216.07096746 348.933412297,1202.17772485 341.822684131,1189.12799425 332.687007531,1165.11798863 324.489264583,1137.0716345 319.656122703,1121.68743233 315.328320924,1108.90363405 310.282882922,1099.23209579 305.133954036,1093.31060551 301.298047444,1087.42490191 297.980725335,1081.60397636 295.208067647,1073.73679391 290.634123037,1064.56653074 284.824651703,1053.35141553 279.28548173,1042.05603338 274.823768983,1025.79315555 271.946045135,1007.98395266 268.914316371,993.667069794 265.815214971,980.784663192 261.483594608,964.68525472 258.684762202,945.515622643 258.640459274,934.796482219 255.912659778,930.732450616 253.421603125,920.916322543 251.001707512,901.889102935 252.681791635,884.996039495 255.815551394,872.675360519 254.499592805,859.355151298 249.48467769,846.445869599 249.942386911,836.891805761 252.834117434,830.396863692 248.151563704,825.836642483 245.794143039,820.1624918 244.400768728,816.209790927 246.673069581,811.579940047 250.498228621,808.004785266 245.043943118,806.871845874 237.607431892,808.878187293 233.853328794,813.284321187 230.472602862,818.234175245 230.708970505,824.370533407 231.931234496,831.839642505 228.812324028,841.142730014 221.511046732,849.170476773 204.181973203,858.292584586 187.572664428,864.650101571 177.409285795,865.394595904 165.487672117,860.23779485 149.135825505,848.217990433 132.327974506,832.484451147 117.495646767,818.172519127 108.801462314,807.468532582 108.977298348,802.466788309 114.169114128,802.455980742 121.295071921,803.647562343 134.805786312,800.705853027 145.201401769,796.804956318 153.162910384,792.256134347 160.368690847,783.945432826 164.707795777,777.767251895 164.213621948,775.92550892 160.763262423,778.317998126 153.304865073,779.980394705 142.447299029,783.398912244 132.29707938,785.939802733 118.052667677,783.420972856 104.25482934,777.513252929 95.6216527781,771.243111759 91.4575387107,765.846279661 87.5190820438,760.716438866 88.810315827,754.253678006 92.3670521261,748.875192119 84.1091895667,749.16963294 80.083163751,746.145570253 86.5553290944,742.064951122 94.7351376548,738.224777887 99.7211989746,731.813226761 109.885518445,729.600298045 125.246993511,730.055092109 135.298219831,731.829603254 144.092498042,731.797961553 153.032652006,728.243355074 163.219884106,725.81138564 169.412250595,727.914015899 176.669300616,728.540585199 184.026824496,723.87802149 185.092642696,717.763138271 184.582316609,710.170822381 179.440941452,697.26391828 173.080377709,685.07460897 167.662002567,676.704905182 158.221373651,671.852208699 151.579751974,664.053623993 151.121572173,654.571098466 149.065640784,645.038265006 139.6267402,639.602685426 130.07133755,634.996896382 127.622433418,628.744087153 133.164661418,616.636126033 143.920036471,603.157753849 151.392795125,593.659876518 158.477534859,587.14394254 164.520309409,585.631953598 169.976934874,589.136360328 174.383106712,594.21752679 181.788393238,595.343652951 195.01358695,592.36264216 206.801392125,590.134764907 215.736344168,586.943635591 221.241341394,580.912139747 227.960464776,571.803541215 233.665507838,562.24792106 241.811538833,554.546835691 256.538368021,543.791228268 269.163453389,527.72161355 278.241605501,514.101379456 288.895470786,506.809618127 295.561219505,501.231059753 297.262373204,494.905495225 303.421579134,486.581528011 313.516051737,475.758823744 321.52790681,467.867011045 322.049877695,461.903594576 322.152792276,453.204193659 321.164368863,444.12938904 324.138161007,437.473537446 333.17533909,431.809521679 344.008731674,427.374256168 347.948325454,421.418092848 340.098008225,415.636735432 330.370469959,412.800053511 326.121451189,408.101977039 324.898691029,402.629515191 320.094151031,401.747643234 314.235873131,399.554563426 310.122801798,393.778196212 304.509527119,384.957574053 303.461024879,374.45845332 301.581330713,367.655044547 303.320746429,361.746950095 306.065958757,356.920513423 301.500224542,353.112155634 298.236562276,347.155426621 295.155613557,339.616616164 299.724126791,331.372929441 314.688523639,327.524933467 334.937332443,329.227758545 346.546389883,330.739799161 354.958774822,332.901125548 367.504376972,333.305825798 380.746124371,329.659727144 395.790903422,326.411673733 404.66637448,323.041662473 408.448640369,319.886104867 413.101042587,317.469685091 423.066787147,310.379876045 440.752429244,301.044748674 447.929003134,298.861187174" stroke="#000000" stroke-width="2" /></svg>