<?xml version="1.0" encoding="utf-8" ?>
<svg baseProfile="full" height="792.0" version="1.1" width="612.0" xmlns="http://www.w3.org/2000/svg" xmlns:ev="http://www.w3.org/2001/xml-events" xmlns:xlink="http://www.w3.org/1999/xlink"><defs><pattern height="18" id="diagonal" patternUnits="userSpaceOnUse" width="18"><rect fill="#ffffff" height="18" width="18" x="0" y="0" /><path d="M0,18 l18,-18 M-4.5,4.5 l9.0,-9.0 M13.5,22.5 l9.0,-9.0" stroke="#000000" stroke-width="1" /></pattern></defs><g id="labels" /><path d="M380.15359899,105.978234407 C380.664012935,106.208269032 381.43299992,106.377086957 381.854978807,106.745016492 S382.854388011,108.256255233 383.396652322,108.805899825 S385.047725054,109.688190449 385.418237991,110.35677205 S385.713873515,111.898436277 385.418164997,112.453670376 S383.831406102,113.350436535 383.474799887,114.00584889 S383.047342209,115.596003275 383.47546511,116.024190052 S384.951766389,116.295146477 385.493424631,116.024774814 S386.382340578,113.99368513 387.04745965,114.241209515 S388.895542741,116.253466343 389.062610933,117.353049226 S389.419910278,124.479772038 389.062583204,127.50402955 S387.42584552,131.796780099 387.127642809,133.729759309 S386.762062318,138.184126989 387.128328413,140.042058728 S388.608094749,142.734637047 389.139975779,143.937576375 S390.045102274,146.949028179 390.698548924,148.116719076 S392.185904334,149.732477943 392.787591817,150.455764269 S393.674412897,152.125478333 394.347887007,152.503575058 S395.88161699,152.796017108 396.435555147,152.503776171 S397.339415848,150.92537318 397.997216857,150.578299538 S399.53497788,150.277617022 400.08352671,150.579007497 S401.095724674,152.056498223 401.646924239,152.583566857 S403.144250165,153.705747588 403.813922246,154.146090282 S405.842190419,156.023346001 406.942553538,156.06570646 S411.565168773,155.689109668 413.028796383,154.500833448 S414.987377298,150.213477187 416.159804074,148.582491776 S417.58803193,146.964171634 418.408065593,147.017628704 S420.511094925,148.545162749 421.542512932,148.933384501 S425.879729415,149.85314087 427.660423316,150.500180395 S430.36884514,152.027773536 431.579831432,152.580581694 S434.606993082,153.363072865 435.654577402,154.14946497 S436.628987065,155.589383544 436.439500311,156.228598532 S434.905974457,157.147214784 434.572798124,157.798741312 S434.270242054,159.332264729 434.573980552,159.876623603 S436.015598411,160.955234866 436.608997526,161.448009423 S438.144697433,163.06375926 438.966942208,163.524656906 S441.905128621,164.549411653 443.119303872,165.097269301 S445.79828141,166.716485433 447.051819291,167.172698441 S451.389883803,168.053258291 453.146363806,168.746520948 S455.362594847,170.180035768 456.294674651,170.820748208 S457.881208309,171.835439963 458.455119919,172.395764362 S459.478827098,173.916332628 460.031193793,174.468806207 S461.551224507,175.49275128 462.103649105,176.044999544 S463.128199489,177.564471988 463.680424859,178.116872438 S465.199418291,179.141948423 465.751719452,179.694226494 S466.790602363,181.19907002 467.328651845,181.764946902 S469.155241041,182.606518774 469.220768962,183.342691902 S468.382395319,185.166034514 467.641385466,185.278351339 S463.299491022,185.251836146 461.657125062,184.489133434 S459.194795521,181.380303992 457.708840678,180.665750354 S454.566630706,179.827915344 453.708387499,180.666810454 S453.10383497,183.57111193 453.707641604,184.576747036 S456.619495,185.925325252 457.479956181,186.948327846 S457.941067712,188.627162175 457.478370742,189.059768202 S454.66121145,190.054918937 453.528069685,190.643208138 S451.333038318,192.153285505 450.362506419,192.754086304 S447.27416301,194.121416265 446.278952154,195.130722268 S444.539088028,198.012244676 443.90288595,199.305194217 S442.127191165,202.529019093 441.885545527,204.059415336 S441.495133495,209.706773245 441.885535029,212.081531854 S443.192271778,214.895413859 443.856048662,216.045713748 S444.867406247,217.670741406 445.442896974,218.246303703 S446.943249192,219.419646368 447.644059724,219.834195901 S450.330305172,221.49869401 451.611627591,221.89528481 S457.201238472,222.617778259 459.433871364,223.48334053 S461.412240132,224.867914393 461.021689819,225.543441593 S458.256337415,226.365546402 457.323986111,227.132767575 S456.379796733,228.580888476 456.53073022,229.239000638 S458.107541855,230.757618082 458.353979235,231.623825285 S458.691289464,234.487427809 458.353459106,235.645743366 S456.834085334,237.192262743 456.485065929,238.031749572 S456.179273612,239.584729229 456.486489646,240.136313945 S457.897781292,241.290096263 458.543700544,241.727882794 S460.630498272,243.455060634 461.727702488,243.688665704 S465.97848261,244.035857812 467.752092792,243.688435884 S470.515038458,242.263856786 471.734169577,241.7285585 S474.690693136,240.782503296 475.843882982,240.135478078 S477.500999632,238.677136379 478.235269294,238.080958345 S479.766524536,237.035138003 480.337434349,236.487013819 S481.260293427,234.877290743 481.933682932,234.530152405 S483.504892558,234.327356631 484.132381847,234.530684297 S486.864674543,236.072861081 488.12171635,236.535283676 S493.857833678,237.809688249 496.088324384,238.928865759 S499.353975837,241.844948494 500.876942145,242.935382901 S503.834803986,244.528535035 505.028515366,245.329986915 S506.569509311,246.950754054 507.425328289,247.331936773 S508.961795395,247.614872482 509.524939616,247.332699247 S510.467262137,245.807745351 511.123913208,245.478696284 S512.645370387,245.228907914 513.223105055,245.479541701 S514.803539521,246.996157264 515.623522572,247.430724085 S518.604226244,248.628241061 519.919795751,249.028590165 S524.887703138,250.812320546 527.118140518,250.928722454 S536.925367418,250.987309674 541.010995721,250.129296217 S546.484266497,247.152336218 549.010873274,246.331079711 S553.316772844,245.248185442 555.153052269,245.53251603 S556.77035663,246.762019486 556.756411436,247.530403402 S555.164668318,249.65031984 555.058680675,250.732416137 S555.039753872,255.072524496 555.861012764,256.672106734 S558.600813554,258.89678397 559.753286668,259.876193375 S561.413990115,261.403263138 562.156416092,262.022146709 S563.692212945,263.066474106 564.252041822,263.626339167 S565.35740139,265.106865718 565.855896188,265.721865916 S567.433970619,267.303464644 567.900691812,268.127731114 S568.918767975,271.001805286 569.504880293,272.166259896 S571.04689913,274.350736403 571.54900912,275.376000402 S572.692795252,278.33609486 573.153156614,279.615716073 S574.873207687,283.463565802 575.095075385,285.232652135 S575.502251064,292.163116774 575.094210176,295.092918817 S573.98793815,298.649813443 573.051068577,299.908963982 S570.923822411,301.700067544 569.839738776,302.154916225 S565.609191093,303.125868516 563.865986724,303.762746318 S561.083607848,305.252469923 559.849959781,305.804671015 S556.914145598,306.832938901 555.715634286,307.410977634 S553.58982982,309.06601796 552.499568431,309.349744691 S549.512839112,309.582743954 548.263433734,309.350318531 S544.399958835,307.723377595 542.636675656,307.514962269 S535.688094146,307.148041595 532.74280739,307.515822272 S528.794160809,308.846198099 527.114876293,309.453183687 S524.100852853,310.39731592 522.932194311,311.061916275 S521.140808317,312.463486042 520.517681751,313.204919268 S518.859135975,315.355865466 518.426682421,316.42284357 S517.474438079,320.616918139 516.817896839,322.33327411 S515.155243105,324.455191617 514.934603299,325.551974371 S515.204140453,327.264340311 515.739442038,327.6941863 S518.521315549,328.673779977 519.608624254,329.305202868 S521.286659287,330.746644183 522.02324903,331.343324358 S523.549371265,332.398403113 524.113105293,332.954092304 S525.17344045,334.440626129 525.724479881,334.991736335 S527.2147493,336.048382441 527.761891356,336.603347011 S528.875293711,338.077506653 529.373356969,338.692781576 S530.942724445,340.285258471 531.410315682,341.11037289 S532.43767675,343.970793409 533.022225825,345.131598371 S534.54720667,347.33224707 535.058748239,348.355476495 S536.103083888,351.242745644 536.669953751,352.428097372 S538.384637566,354.545271584 538.548547104,355.652811179 S538.469216009,358.680282588 537.742018636,359.672058397 S535.003048963,361.366308025 533.828129445,362.090672781 S531.698949147,363.775432965 530.602974539,364.073442371 S527.717113481,364.370518324 526.532349934,364.074487825 S524.38405477,362.521573511 523.30568461,362.250107762 S520.442958815,361.904924504 519.288573583,362.250960761 S517.606659885,363.61875818 516.866639983,364.180263175 S515.343247297,365.385427758 514.620715153,365.792792296 S511.910020964,367.505988237 510.585778673,367.721420732 S505.081597481,368.097986318 502.766140162,367.721337162 S499.897292604,366.456244714 498.731011914,365.793038007 S497.136401894,364.735909524 496.53828389,364.179860325 S495.589538717,362.604606001 494.922254816,362.252170959 S493.428077369,361.96728427 492.888630084,362.252246173 S491.814751498,363.654159222 491.273460048,364.179639185 S489.790919418,365.243422517 489.240123438,365.794177492 S488.167989267,367.268494882 487.625451433,367.827376215 S486.059209094,368.779710445 485.698799336,369.442181022 S485.290275899,370.959903125 485.698864103,371.368643875 S487.111178784,371.633388383 487.625261007,371.36936193 S488.587215504,369.875434763 489.24044243,369.549731802 S490.733825698,369.265793602 491.273013459,369.550570129 S492.355219826,370.943184542 492.888421003,371.476442205 S494.462014563,372.425106792 494.814028681,373.09196048 S495.098466975,374.584976615 494.813976449,375.124204286 S493.40598388,376.192551139 492.888574572,376.741495488 S491.715997641,378.209054028 491.273542412,378.880420551 S489.581754194,381.008707246 489.348509618,382.113069699 S488.98396446,386.268375462 489.348553493,387.994825383 S490.656424413,390.282789212 491.273413414,391.228127225 S492.383152934,392.779117182 492.889574711,393.420306163 S494.45305628,395.020719351 494.921199055,395.846648909 S495.968010634,398.691029313 496.537505716,399.856235973 S498.177959337,401.998077377 498.461858278,403.090960294 S498.735978222,406.040548184 498.461036358,407.260961663 S497.033441233,410.654121533 496.429620734,412.111667622 S494.746183105,417.945179188 493.196488486,419.968912416 S489.083816616,422.802954133 487.317146757,424.011571096 S485.038887939,425.525213423 484.083076563,426.20359411 S482.497690379,427.239640782 481.944679781,427.824643354 S480.653815101,429.385945586 480.326363673,430.177634946 S478.65397705,434.645317438 478.295274412,436.64792264 S477.262045176,446.38744939 476.678477111,450.543464029 S475.016245553,458.427981872 474.754772688,461.862422682 S474.377146038,471.643603364 474.754783134,475.811145656 S476.027909809,480.928323713 476.678446397,483.091776537 S477.823199625,486.230917086 478.294532469,487.583090282 S479.998509587,491.465691459 480.21814759,493.246572972 S480.531628406,500.221082695 480.218938926,503.186673593 S478.666116718,508.22980096 478.402682695,510.464696758 S478.066538666,516.174787969 478.403474031,518.588537135 S479.811972897,522.53233299 480.327089153,524.250825978 S481.359117618,528.582435676 481.943175225,530.397428052 S483.595645218,533.708247288 483.866838487,535.250799235 S484.166750823,539.540556475 483.867641703,541.34382623 S482.305718271,544.663153856 482.051241048,546.196677267 S481.751944403,550.486566435 482.051227079,552.289852438 S483.610985687,555.60885768 483.867740064,557.141738583 S484.243346361,561.371991298 483.866570464,563.127857377 S482.609934501,565.482986554 481.889062906,566.362848868 S480.299932376,568.009177282 479.464098788,568.501309383 S476.621708372,569.483022068 475.508800972,570.119495836 S473.824217643,571.558076054 473.082773057,572.150801188 S471.568979393,573.261698069 470.944252948,573.768483756 S469.302075725,575.299605232 468.518425843,575.853455134 S465.546806585,577.294383535 464.562557622,578.278790472 S462.928493721,581.089055178 462.138078278,582.234826759 S460.52967829,583.797566799 460.159918257,584.660774918 S459.934596136,586.235089312 460.15987767,586.852953856 S461.64358065,589.062281851 462.138119857,590.086255698 S463.467630573,594.404516995 464.562092951,595.968011382 S467.360833695,598.197456479 468.519122353,599.201837727 S470.371248054,600.677728713 470.942872848,601.50094622 S472.700272895,604.210522195 472.921692158,605.542137471 S473.275400798,611.072212959 472.922136789,613.404237998 S471.5773114,616.798097326 470.996529111,618.250843486 S470.170934212,621.233490537 469.380731201,622.262571786 S467.948119637,623.225597234 467.29489513,623.071480798 S465.677705331,621.639248716 464.871374401,621.198671106 S462.025901954,620.220483588 460.912226351,619.584003317 S459.226710686,618.147921445 458.489013855,617.551068019 S456.966537227,616.491157773 456.402742475,615.935484323 S455.337848748,614.453188807 454.786903589,613.9022856 S453.300367062,612.841613122 452.753566979,612.286586696 S451.623845905,610.82595462 451.139555853,610.200065282 S449.416630118,608.684188315 449.264952555,607.777952739 S449.366516411,604.803567221 450.071118048,603.816416117 S452.86928394,602.33671368 453.821156545,601.394683728 S454.821751369,599.949925389 454.627018128,599.307625431 S453.273276398,598.181659167 452.698711714,597.692458765 S451.063875775,596.155236718 450.278560736,595.605227486 S447.317597744,594.114809641 446.262239723,593.184562138 S444.185605436,590.234507563 443.035232547,589.220580923 S440.161652582,587.619385016 439.018035555,586.799596303 S437.216172623,585.366859062 436.598462742,584.606456519 S434.857093881,582.490345928 434.615657422,581.380256858 S434.267664085,577.218647257 434.614422027,575.484131235 S436.110707176,573.318096213 436.439921373,572.255116044 S436.557110979,570.380614074 436.440019152,569.589569099 S434.787305544,562.865512285 434.613733499,559.917818211 S434.247480109,544.96144417 434.613256555,538.566501373 S436.155192571,531.837079896 436.388056816,528.896968597 S436.182279866,526.87331708 435.581889369,526.336679307 S432.811188327,525.339954597 431.717081611,524.72198291 S430.154030979,523.154999214 429.300948775,522.78908802 S427.763739077,522.492969868 427.21133901,522.789341897 S426.089620686,524.18423787 425.59996175,524.774730491 S424.029421063,526.365208021 423.562081048,527.190078287 S422.536605997,530.052978964 421.951553889,531.214288558 S420.436230608,533.416752712 419.913187496,534.433014474 S419.165726462,537.388057647 418.303154259,538.303052267 S416.686817131,538.745938769 416.264285711,538.303676539 S415.283082937,535.557259444 414.654762862,534.484293143 S413.220250958,532.801868136 412.615375695,532.072525186 S411.683713006,530.443767794 411.005655388,530.084293719 S409.471020879,529.874972153 408.862766708,530.083069409 S406.735761599,531.695094594 405.647801547,531.91733447 S401.543863348,532.406206466 399.88609838,531.916752231 S398.677938629,530.461299699 399.082155872,529.978831036 S401.800306806,529.003553573 402.856274098,528.371587524 S404.603443979,526.971481361 405.264105877,526.279111785 S407.111996211,524.786676879 407.152654054,523.869007949 S406.523487794,520.727456364 405.547298577,519.887303431 S401.418097851,518.321108936 399.726765304,517.477949629 S397.469673756,516.02559055 396.514744094,515.384414635 S394.950597215,514.190923562 394.217703182,513.778956827 S391.524408881,512.052032641 390.204214411,511.837205632 S384.632825799,511.478775571 382.283894953,511.837042669 S378.919128061,513.20873952 377.470238094,513.779435964 S374.487757941,514.788064284 373.280725499,515.383258671 S371.09269714,516.917339661 370.071653894,517.427718839 S367.160710131,518.442055786 365.982062646,519.031571864 S363.792144485,520.557994332 362.776058481,521.07670706 S359.847059333,521.901650759 358.83554125,522.679876824 S357.859992786,524.089598418 358.033187406,524.725703512 S359.513734651,525.678840052 359.828967832,526.328510434 S360.078067932,527.847805472 359.828130844,528.424938424 S358.339167113,530.019709979 357.881193692,530.826140816 S357.140356347,533.765083219 356.280477871,534.671887754 S354.667251252,535.107918964 354.232850422,534.673584745 S353.574378629,531.760057835 352.632201722,531.02417104 S350.9086087,531.249366067 350.583825157,531.82351541 S349.876950971,535.95664884 348.982953032,537.475279105 S347.421003779,538.572692067 346.78600792,538.274850417 S344.319105862,535.146526506 342.789159675,534.570111137 S337.223749217,533.556183649 334.835426066,533.7724051 S331.438121647,535.045417632 330.041538834,535.724188246 S326.919022241,537.114785404 325.890821871,538.119683633 S324.309852589,540.986786043 323.493157263,542.124163613 S322.044322802,543.894952121 321.295344462,544.519613649 S319.166181818,546.192909599 318.102156112,546.62035641 S313.840998035,547.570036756 312.090929252,548.217266728 S309.281702152,549.655946743 308.102744062,550.318450591 S304.925889957,551.585497712 304.092688404,552.711799137 S303.137826796,555.573420604 303.293929439,556.818888264 S304.873070297,559.511744399 305.106971126,560.804271536 S305.532882834,565.069423417 305.104437196,566.823685689 S303.852744147,569.394855188 302.858406309,570.010976142 S298.471719165,571.794440156 296.488550637,572.162342265 S286.7752583,573.004205795 282.670716744,573.7560404 S278.092618144,574.941756172 276.30220396,575.859903558 S274.515123068,577.433012191 273.912045203,578.247599647 S272.460822706,581.254552732 271.523541657,582.314523428 S268.521152851,584.343097527 267.502789851,585.495823502 S265.908837391,588.391672344 265.118126872,589.565069646 S263.384874239,591.052741364 263.153229223,591.95047737 S263.450472832,593.626762783 263.947042605,594.103585225 S266.921294681,595.494691143 267.878541474,596.487875836 S269.608753163,599.370756135 270.260903947,600.65448776 S271.890067377,603.939513408 272.414780489,605.417273193 S273.59367563,611.229090147 274.796837693,613.429126565 S277.545586479,616.415095288 278.96606357,617.396591531 S282.216163104,619.152278826 283.724640371,619.597902423 S289.420755783,620.501957271 291.790386201,621.185061472 S295.151785847,622.593314042 296.546424633,623.294096824 S299.701064149,624.653013397 300.719975873,625.672031685 S302.449995698,628.558374594 303.09740192,629.845759254 S304.774995907,633.098139981 305.207875729,634.596341077 S306.09223243,640.274738307 306.791061869,642.629550754 S308.361028734,645.323272319 308.766212398,646.586699544 S309.072296999,648.203503144 308.766486093,648.789238238 S307.327070472,649.834130799 306.790257166,650.371346531 S305.877154737,651.98684042 305.209493399,652.348897449 S303.695263489,652.629758858 303.141582179,652.349937099 S302.261424441,650.707603788 301.561398356,650.505208033 S299.897023944,650.767926033 299.492375809,651.294856588 S298.5523558,654.147576398 297.913311544,655.255726426 S296.438676187,656.891181839 295.843161207,657.622864741 S294.821599807,659.174781274 294.265232965,659.737959133 S292.729922866,660.748272345 292.193938372,661.316761197 S290.977030586,662.855152191 290.616686576,663.607768755 S288.974636842,667.422523596 288.456855809,669.12205324 S287.14911613,677.830923301 285.30687511,681.03633683 S281.418431262,684.424595744 279.346978626,684.972815026 S277.735683828,683.779603952 277.772422921,683.030363581 S279.326712017,679.797693993 279.673623517,678.311367566 S280.62117634,671.171010528 281.245469198,668.150255918 S282.951290665,663.261476855 283.235841487,661.074927624 S283.635041278,655.287402261 283.236152788,652.853418459 S281.90808356,650.067131494 281.244553924,648.924259448 S280.238660426,647.302534804 279.674231661,646.718319339 S278.148265,645.700314786 277.595725792,645.147517451 S276.581865407,643.617773808 276.026000537,643.068383889 S274.512148855,642.006335461 273.904294095,641.499085121 S272.292250189,639.944847266 271.552290296,639.335105493 S268.351556465,637.469497367 267.473784969,636.200216802 S265.877009884,631.86794224 265.123383981,630.038738638 S263.491828417,626.806488127 262.999413925,625.340006724 S262.009623228,620.907220956 261.433548585,619.049876461 S259.80642219,615.270988053 259.349905917,613.573487077 S258.640939911,607.801235271 257.784608811,605.481731813 S256.476696289,603.209194457 255.49614838,603.134996719 S251.748078757,604.799228795 250.027199529,604.894731201 S241.405907595,605.048538592 237.874345078,604.112941357 S233.413271677,601.373902281 231.62812785,600.020367372 S228.291167558,597.57165212 227.331333052,596.119000136 S225.847339206,591.750697119 224.989985175,589.97393638 S223.508892873,587.783970055 222.860888541,586.854553935 S221.85027385,585.269938139 221.302477002,584.685037264 S219.447691727,583.867527484 219.369616378,583.126806782 S220.188258267,581.309633456 220.926086266,581.114122564 S225.197899599,580.717366311 226.965923498,581.113924675 S229.209961545,582.461823042 230.078287438,583.166912642 S231.679293683,584.799423067 232.365820139,585.498696557 S234.643349963,589.029937875 236.251796027,589.455047432 S242.261312215,589.886372803 244.399349551,588.679137899 S247.088958574,584.44835249 248.28247529,582.661968714 S249.829878692,580.488412625 250.493759438,579.557393055 S251.485174774,577.956325811 252.045961239,577.384094499 S253.584588801,576.380813907 254.143598392,575.833066123 S255.025141502,574.180584549 255.693869791,573.809676707 S257.237608089,573.512220159 257.79317238,573.808842483 S258.682290737,575.408729853 259.342660539,575.757809106 S260.895187745,576.021741733 261.478888182,575.75715525 S262.996704864,574.183380722 263.805445749,573.734866229 S266.77721437,572.838563876 267.923191894,572.183249613 S269.581694401,570.718960927 270.251588585,570.048712487 S271.914330058,568.541365622 272.385221722,567.718860156 S273.274411998,564.745300618 273.939790557,563.606537952 S275.372584262,561.844146661 276.150438249,561.274877321 S278.767049176,559.533023712 280.038947827,559.142894015 S285.79679464,558.307961058 288.174814021,557.586638424 S290.928511355,556.175211221 292.065807741,555.494796635 S293.692104465,554.501285258 294.274621143,553.937283878 S295.277391302,552.397063839 295.833511084,551.846849768 S297.349760171,550.78860169 297.963137641,550.287937563 S299.482961939,548.660838047 300.302721774,548.19889467 S303.257049959,547.239309209 304.439538576,546.63841682 S306.594892668,545.102556627 307.561322138,544.510370615 S310.658173059,543.117440362 311.735296015,542.167893486 S313.704422091,539.101252132 314.859783258,538.076350328 S317.81762532,536.541544982 318.990199799,535.732188192 S320.60322607,534.211022642 321.335551499,533.606521683 S322.897727116,532.598596372 323.460712012,532.041985975 S324.479264427,530.517566021 325.025510107,529.958343307 S326.662476039,529.06245748 327.025531418,528.392477967 S327.289434582,526.848236 327.024996005,526.268507911 S325.508892269,524.690564708 324.984486193,523.917899177 S323.583726848,520.856678315 322.633107806,519.797452781 S319.635421563,517.705375797 318.472002377,516.661375963 S315.985350962,513.466022176 314.550056025,512.544087166 S310.203437485,510.992037375 308.397138256,510.189974366 S305.689692147,508.625333401 304.472372369,508.06922655 S301.486148395,507.138197766 300.316902805,506.498689319 S298.806766216,504.880363578 297.959539052,504.507090455 S296.390925301,504.246007409 295.797228581,504.507401757 S294.247935692,506.048689553 293.438162322,506.497774046 S290.520442487,507.442192426 289.373545342,508.069850995 S287.902793447,509.792894298 287.012256647,510.014457977 S285.325592475,509.630431326 284.720574953,509.227500225 S281.745159233,505.896067582 279.995645598,505.341517577 S272.983978166,504.310801677 269.979934283,504.555103171 S266.557959227,505.726464835 265.252890771,506.540460461 S263.504174442,508.0628959 263.005710145,508.905057323 S262.019570103,511.826646707 261.427395127,513.003681348 S259.875697522,515.152054118 259.35667472,516.158050576 S258.73036466,519.239271958 257.778678616,520.075809725 S255.978999008,519.899400947 255.79837753,519.285815247 S255.478708702,515.099215059 255.797640314,513.346063147 S257.56171148,510.69900567 257.597200217,509.397772434 S257.113325946,506.054547086 256.015655918,505.352283435 S251.835333167,504.355294905 250.038357605,504.561801447 S247.296687076,505.96990015 246.084944504,506.493510347 S243.104498394,507.473250446 241.907229048,508.075371013 S239.712181775,509.585988972 238.741413764,510.186656675 S235.662657293,511.563023291 234.656677129,512.561687334 S233.075580109,515.440150078 232.28139522,516.599693895 S230.647206855,518.123140562 230.263413475,518.976039681 S229.976095226,520.521340143 230.262855892,521.08546802 S231.804194526,522.015459552 232.141796008,522.671274332 S232.434952659,524.189380616 232.140989686,524.73387588 S230.690599227,525.767890217 230.171227625,526.321275352 S228.991528859,527.817173523 228.585289496,528.522438103 S226.833677992,531.179709924 226.617485178,532.490861312 S226.22045456,538.097942532 226.618022865,540.453382182 S227.868339522,543.328306564 228.631714129,544.424394951 S230.305559238,546.056660756 231.013948227,546.765254089 S234.320141075,549.182348154 234.944022652,550.738524335 S236.02899726,556.211717443 235.738075284,558.548858997 S234.459554504,560.462384488 233.773882602,560.138924301 S232.529408688,557.131252788 231.387627528,556.496570369 S228.368594436,555.996556413 227.225385296,556.498808092 S224.068074147,559.515389326 222.451327619,560.422598848 S216.646367011,562.134864788 214.559996541,563.605773271 S212.296699941,566.261068545 212.17198648,567.669619596 S213.447953094,569.339362861 213.988566749,570.059671914 S215.085797732,571.578136194 215.580121988,572.210590472 S217.263363193,573.715889996 217.538266288,574.601271141 S217.988647945,577.431787708 217.538044825,578.516477884 S216.185824297,579.502667811 215.580773123,579.313341505 S214.524004035,577.921889573 213.985960948,577.404996825 S212.47387782,576.371355323 211.933169946,575.80912469 S210.750709155,574.312865091 210.336890407,573.610675827 S208.675149058,570.907402379 208.284939074,569.618616014 S207.291318133,563.948565035 206.687828098,561.558545075 S205.129722327,557.121881743 204.63669997,555.170383608 S203.752692889,549.472812476 203.038774021,547.114733092 S201.684662067,544.273324017 200.988452633,543.120195248 S200.127358837,541.323664177 199.389728176,541.070833738 S197.742211174,541.346386622 197.340197065,541.869718411 S196.309754654,544.674969766 195.741350258,545.820199738 S194.080074757,547.93303755 193.791676299,549.01933295 S193.515905339,551.952648165 193.791203096,553.165717136 S195.400177135,555.866471839 195.640680784,557.166765716 S196.012580287,561.401372364 195.639830179,563.160403226 S194.3136806,565.425706685 193.692010036,566.362663741 S192.651124756,567.933357022 192.090924413,568.509172321 S190.595822897,569.560530413 190.044389769,570.111957336 S188.993195916,571.606753404 188.441919729,572.158135945 S186.947410319,573.20964192 186.39609304,573.760957905 S185.336917882,575.247427825 184.793610323,575.806436789 S183.20099536,576.740937918 182.849258234,577.410295047 S182.595122952,578.930875053 182.849775626,579.50556184 S184.315304794,581.13761803 184.844002495,581.911929177 S186.317072918,584.892255057 187.249827629,585.949715664 S190.220347224,588.007597655 191.236176875,589.158713906 S192.836180641,592.039051387 193.6435033,593.194891035 S195.129492698,594.8634492 195.737366959,595.603044315 S196.78771365,597.132977509 197.343520755,597.696668806 S198.838723314,598.748266699 199.386054624,599.303489062 S200.510413967,600.768140612 200.9910535,601.396789212 S202.795069737,602.897558001 202.828403198,603.805881111 S202.287081874,607.012595564 201.221795723,607.684419966 S197.153988675,608.697488988 195.404939687,608.487500151 S193.134781241,607.198853215 192.190219173,606.600099131 S190.621084151,605.413806325 189.892646668,604.993279844 S187.165215836,603.350165424 185.872364967,602.952806047 S180.318866787,602.050709985 178.020477461,601.344353364 S175.159389122,600.002126233 174.001044233,599.304431114 S172.208786685,598.434234672 171.961772564,597.695069913 S172.285876,596.075679635 172.764415754,595.603945543 S175.755181662,594.284345145 176.532247065,593.189595457 S177.517366452,590.381770885 177.335847206,589.163595564 S175.938618881,586.952116843 175.452626567,585.944264327 S174.497386099,583.043135222 173.842705841,581.919507102 S172.44921333,580.118814695 171.700518934,579.50451975 S169.588793341,577.758926812 168.47923363,577.518841245 S164.27694629,577.178905374 162.522511029,577.518590363 S159.723332495,578.914734451 158.495591849,579.45182408 S155.567181677,580.418735515 154.421333234,581.062546159 S152.740777017,582.502877144 152.003482098,583.099504871 S150.498311208,584.175491912 149.914492063,584.709535078 S149.010214653,586.616410743 148.30349862,586.484030553 S146.496099014,584.974622601 146.477007062,584.065634422 S146.945830562,578.34434654 148.088248731,576.235754119 S152.503641012,572.632839583 153.775924543,570.593823048 S155.451197628,566.417781174 155.386403515,564.539416058 S154.249161665,562.115457582 153.455817073,561.313987627 S151.357537723,559.476862251 150.23132708,559.331541798 S145.92577237,559.324608941 144.336696971,560.137303077 S142.090783414,562.849358534 141.110136393,563.996353918 S139.607669082,565.685235966 138.969913181,566.414461013 S138.095473484,568.237614936 137.354704664,568.290402583 S135.68568901,567.349903118 135.267393282,566.678304886 S134.140575339,562.356015483 132.846139207,561.051637298 S129.985332895,559.737639375 128.883828464,560.24571043 S127.240587355,562.905720391 126.462946291,563.995897412 S124.859941115,565.557363562 124.482286414,566.416243628 S124.205067161,567.94108097 124.481201077,568.502875505 S125.98378024,569.461844224 126.302371725,570.119207732 S126.518445362,571.654708154 126.301526958,572.258832158 S124.78735124,574.438289512 124.374550599,575.488245113 S123.565088923,579.658224463 122.759353347,581.268326445 S121.464904613,582.883035194 120.673181826,582.884692996 S119.122109482,581.276411359 118.24978252,581.277769109 S115.129160428,581.923451554 114.290934951,582.894626769 S112.708720472,586.991782087 111.867237686,588.672640205 S110.449774635,590.96220479 109.781486966,591.902229047 S108.895434594,593.650072193 108.164404253,593.881105673 S106.534544667,593.564986412 106.07876597,593.072430161 S104.425060813,590.200757563 103.655160646,589.008003564 S100.397595483,585.317618871 99.804780889,583.352571522 S98.7833639203,576.504837706 98.9968947226,573.566897356 S100.180596683,570.117218816 100.868441615,568.717812829 S101.914448185,567.07572721 102.484130204,566.472190412 S103.964908163,565.404805685 104.515830694,564.853668532 S105.582046548,563.372874387 106.132854999,562.822044188 S107.613580174,561.755754485 108.164407312,561.204947853 S109.230766607,559.724287671 109.781571562,559.173463454 S111.262170726,558.107038823 111.812992163,557.556235406 S112.879477874,556.075693284 113.430279893,555.524874487 S114.910679336,554.458242321 115.461585245,553.907531191 S116.517431187,552.415211314 117.080167551,551.876277289 S118.572170189,550.679984922 119.27225504,550.258043189 S122.068115986,548.69485677 123.313226577,548.119607332 S129.224542949,546.705214166 130.901330741,544.885332275 S132.539602918,540.581539386 131.709656676,539.006640769 S127.768548792,536.766802849 126.099309875,535.773060135 S123.938992644,534.14398584 122.866465755,533.742051943 S121.288927616,533.505814569 120.674472287,533.740079764 S119.137808122,535.367555692 118.24837789,535.502728762 S115.235102842,535.527472281 114.401115345,534.693486655 S113.414638341,532.01227884 113.591883371,530.846244689 S115.020385503,529.256591473 115.35446975,528.421695593 S115.766789685,526.869710486 115.353279659,526.444413374 S113.952577982,526.197913228 113.429671688,526.442031243 S112.491959248,528.240807721 111.812782245,528.097289256 S110.103659825,526.564155454 109.781806175,525.671192333 S108.846183549,520.234858432 108.164940959,517.976578356 S106.637229465,515.217703047 106.241248429,513.934446656 S105.944888632,512.329471831 106.241235893,511.742424199 S107.639867274,510.665095963 108.164977816,510.123644506 S109.238753649,508.651414147 109.780952416,508.092555246 S111.352952303,507.141946733 111.704822716,506.475030844 S111.970986267,504.992597723 111.706030652,504.443867495 S110.1220201,503.521197737 109.942894479,502.82602992 S110.270161553,501.20806991 110.751950661,500.741182747 S113.671589107,499.313442697 114.600164835,498.312810953 S116.526559558,495.385509967 117.0241349,493.982286874 S118.794297158,488.386871106 119.00203403,485.899003465 S119.381513367,474.957146785 119.00246253,470.289731737 S117.76716784,464.602923031 117.078011771,462.207694652 S116.257830787,459.082445394 115.46177664,457.983736485 S114.06026524,456.989685199 113.43007615,457.172836933 S112.349639511,458.531598159 111.813208254,459.044119213 S110.340370585,460.116959862 109.781343122,460.658935984 S108.84266656,462.25826442 108.161901308,462.584054743 S106.466138156,462.714696646 105.756093734,462.585278868 S100.726988907,460.91379257 98.483951813,460.820082401 S87.4735492155,460.742785214 82.8664908684,461.628991273 S76.6144324302,464.292605346 73.9802314778,465.533577172 S69.4159164617,467.49992873 67.7227155592,468.763222424 S65.7147661662,471.735964562 64.4885456887,472.615304322 S62.8069778027,473.066471153 62.3492715894,472.616593834 S61.4945075982,469.862903398 60.732651966,468.923653761 S59.3294516843,467.933105895 58.699716668,468.117259589 S57.6240860387,469.481847455 57.0837450278,469.990705258 S55.6233005659,471.119854221 54.9974351222,471.603826064 S53.4809776707,473.32883865 52.5741157166,473.477930235 S49.5853545803,473.291186777 48.5072268715,472.670841207 S45.8845544594,469.714106265 44.4716349995,468.815831327 S40.2570810711,467.375932677 38.6352349456,466.394642751 S36.9763980891,465.098024833 37.0207431334,464.307706288 S38.3422509462,463.22461057 38.8429488717,462.692759699 S39.9015511727,461.205355563 40.456189884,460.658509331 S41.9281792225,459.542356435 42.5434211622,459.04427775 S44.1432643261,457.486236541 44.9633226572,457.009689868 S47.8335458484,456.168863369 48.8218434732,455.395804032 S49.8212816138,453.988444198 49.6280716249,453.360862172 S48.2730681495,452.236224666 47.69849492,451.74695873 S46.0592970757,450.217958589 45.2808194172,449.659049572 S42.2224065803,448.346045029 41.420105665,447.239381243 S40.4505028669,444.439489808 40.6131052021,443.220579681 S42.1258524434,441.068419606 42.3864432358,439.995459138 S42.698118474,437.104216356 42.3854127039,435.92325398 S40.9380224422,433.716266703 40.4540117055,432.697452036 S39.3021075288,429.745530911 38.8433877319,428.467495831 S37.131623901,424.60184554 36.9111522856,422.82672343 S36.5799802804,415.861902013 36.9102941799,412.903237824 S38.4548382426,408.447205169 38.7386860112,406.457268199 S38.9932580085,401.979230493 38.7387977588,400.084370557 S37.1236969234,395.068534248 36.9095072913,392.836132973 S36.5196100596,384.546749375 36.9101296479,381.024993205 S38.1152124651,377.021158288 38.84418572,375.388952609 S39.8795868193,373.706250139 40.4537280361,373.090708409 S41.952753815,372.040786719 42.4923434486,371.477731373 S43.6889022696,369.987733844 44.1021235492,369.283651216 S45.7468555803,366.554802115 46.1412493488,365.260405732 S47.1190314463,359.659908736 47.7505108303,357.309680835 S49.2553315604,353.394829566 49.7901634811,351.679946858 S50.7100665179,347.364460254 51.3988898793,345.611534374 S52.7960486281,343.338992863 53.4390858454,342.394125841 S54.4868770099,340.827071541 55.0472606963,340.250685614 S56.5482779057,339.203760309 57.0880164417,338.640996879 S58.2782519525,337.147527031 58.6959800436,336.446314281 S60.3065410168,333.699779172 60.7884557822,332.42931205 S61.9820605224,326.713867973 63.2010410905,324.569666479 S65.954801677,321.349717085 67.5397534866,320.55369811 S73.1030236645,318.753763691 75.5685759821,318.358252108 S86.5792695441,317.505016462 91.2468580195,316.75072286 S96.4274472798,315.613225272 98.4714118217,314.657098369 S100.33209442,313.114981637 100.870553482,312.248945089 S101.891615519,309.37668749 102.47818049,308.21276796 S104.01155924,306.02440354 104.521982093,305.003423646 S105.53718797,302.093579832 106.126501914,300.915165991 S107.660622624,298.727655645 108.170962082,297.706789029 S109.185343097,294.795867306 109.774815107,293.617197781 S111.306917699,291.429670619 111.819950303,290.41051179 S112.780608244,287.504613249 113.423120067,286.369700867 S114.876519199,284.70404784 115.468946756,283.965040891 S116.568639917,282.44557257 117.071416796,281.818736615 S118.648838658,280.238217786 119.11795144,279.415652413 S120.079967918,276.542954695 120.719705292,275.421648534 S122.170653052,273.755214406 122.766964357,273.019808066 S123.812017979,271.485867315 124.367985557,270.922373725 S125.864628433,269.872912313 126.415985506,269.321390912 S127.464790697,267.82436616 128.016257589,267.273014346 S129.513649762,266.224604446 130.065014887,265.673122995 S131.113049685,264.175383943 131.664521389,263.623980849 S133.166338944,262.579787995 133.7140525,262.024539372 S134.813981338,260.540156456 135.312776958,259.925535086 S136.897134558,258.351853151 137.363098345,257.528145524 S138.367314749,254.6398139 138.961343638,253.475780219 S140.45685714,251.256028354 141.061263194,250.281379383 S142.461287304,247.229645425 143.456508991,246.226997288 S146.317130349,244.63678467 147.463026133,243.831845807 S149.119211194,242.337845722 149.857234213,241.730783446 S151.402484941,240.697561729 151.958619313,240.133986851 S153.101188253,238.647327732 153.554365559,237.984188286 S155.194345803,235.854227201 155.608012695,234.793788484 S156.668935851,230.46531485 157.202579967,228.631958551 S158.821006692,224.218601752 159.2570997,222.257200047 S160.148593188,215.188371999 160.851089154,212.222174397 S162.208260061,208.27109368 162.954263653,206.646407407 S164.328235954,203.476359287 165.343332467,202.438728149 S168.205975389,200.794609151 169.408195402,200.049201669 S171.571461143,198.464701107 172.591348855,197.944770652 S175.517961192,196.998004727 176.65849341,196.353058757 S178.311208119,194.89132359 179.045030254,194.295355278 S180.587234369,193.261066615 181.150533081,192.704881393 S182.188899367,191.197968142 182.740825823,190.646231229 S184.248216772,189.60859728 184.799955505,189.056712261 S185.837108073,187.548877018 186.388990839,186.997098947 S187.900809043,185.963733592 188.449091902,185.408268123 S189.537780944,183.915317354 190.037147623,183.301150613 S191.631009393,181.741327544 192.098236532,180.920216845 S193.042463091,178.019186284 193.685296174,176.889849638 S195.162492538,175.251373245 195.747389393,174.509342611 S196.922861081,172.978240939 197.332889241,172.262322967 S199.088668168,169.609451446 199.304160516,168.299143863 S199.671634672,162.653617033 199.304423764,160.274349086 S197.903285188,156.955825316 197.332115251,155.521680048 S196.400502031,152.516683884 195.748685941,151.346280133 S194.275645685,149.705925055 193.683481007,148.970176836 S192.604031965,147.438582296 192.100570318,146.813597458 S190.500833627,145.260887889 190.034295218,144.440167841 S189.084817911,141.535800985 188.452977794,140.39686466 S186.849210962,138.872725264 186.475426875,138.025056922 S186.170855378,136.468042931 186.475400142,135.912109883 S187.906280878,134.823889457 188.498695804,134.331668626 S190.044628417,132.724044298 190.86773117,132.262646079 S193.795352258,131.230350404 195.006632274,130.683581815 S197.695927702,129.070514027 198.951993522,128.613431477 S203.279126334,127.727981814 205.031575936,127.035503236 S207.246141694,125.594245119 208.187050462,124.964208643 S209.752008698,123.798294502 210.478608979,123.388146952 S213.106858034,121.573231054 214.418424836,121.446754823 S220.199284108,121.3392966 222.448468784,122.23387654 S225.213550987,125.006150046 226.385977656,126.206671961 S227.932694325,127.886129176 228.634111804,128.567748157 S230.168843679,130.214339263 230.995393653,130.685980686 S233.918662198,131.677112524 235.102987682,132.258982711 S237.170497319,133.957117162 238.248205532,134.249355 S241.221584592,134.549345718 242.444186438,134.249666302 S245.126998871,132.700043224 246.372059606,132.258067437 S250.71880857,131.382025945 252.478238696,130.687745174 S254.685549646,129.246025535 255.618834698,128.609239305 S257.190720643,127.547243815 257.824842101,127.039724219 S259.357558988,125.422555195 260.178436076,124.959958847 S263.107947156,123.970009495 264.297146675,123.392327419 S266.337628165,121.611162127 267.432353977,121.436194929 S270.533980066,121.563946129 271.637207398,122.219184481 S274.178993524,125.278106666 275.55243374,126.258943174 S280.053458846,128.116341233 281.677566244,129.389464189 S283.777827177,132.353705725 284.809833803,133.515734536 S286.428908679,135.519405284 287.425910105,135.862040061 S294.482711666,137.721762019 297.586485376,137.906626117 S314.519733639,138.328656204 321.759310893,137.906974312 S329.485047758,136.776466557 332.694753849,135.861683356 S336.206490241,134.696905844 337.153466162,133.519558694 S338.109420186,130.607137776 337.936683939,129.344546737 S336.290575869,126.721965279 336.048759883,125.444865191 S335.568317569,121.132456296 336.049293455,119.376692294 S337.357465299,117.772954322 338.138369528,117.816912308 S340.187616507,119.455678583 341.253760058,119.669657634 S345.573883982,120.046122661 347.3695962,119.669654489 S349.450534062,118.112897461 350.483230212,117.734714093 S352.076345145,117.433972652 352.65423369,117.734368873 S353.548795768,119.328130272 354.210256763,119.672085412 S355.769999115,119.897140072 356.381332803,119.672434624 S358.412931558,117.9569592 359.48869881,117.731909846 S363.840774623,117.386722698 365.6597059,117.731408933 S368.256133066,119.457041002 369.540652995,119.636748301 S372.708586935,119.625468052 373.73479937,118.861133123 S375.320883517,115.978996846 376.061513088,114.779936044 S377.708039808,112.719988602 378.160246814,111.6964441 S378.58271601,109.28180181 378.927170999,108.293684467 S379.785670593,106.672869425 380.15359899,105.978234407" fill="#FFFFFF" id="month199609" stroke="#000000" stroke-width="1" /></svg>