<?xml version="1.0" encoding="utf-8" ?>
<svg baseProfile="full" height="1828" version="1.1" width="1425" xmlns="http://www.w3.org/2000/svg" xmlns:ev="http://www.w3.org/2001/xml-events" xmlns:xlink="http://www.w3.org/1999/xlink"><defs /><g id="land_0d"><polyline fill="none" id="land_0d0" points="278.891625206,1822.47646232 275.108076874,1821.97845962 266.12090211,1820.77423392 255.438357953,1815.51861636 245.017043254,1805.01938934 238.772850176,1795.02902733 235.658657825,1785.47735323 233.527949495,1773.89094762 230.435383747,1760.86000037 227.884227451,1751.77182735 226.514706417,1745.56173474 223.953053845,1738.95568264 220.650366859,1731.53858356 218.01956945,1723.25920746 215.876831608,1715.91359337 214.748343448,1710.11971072 212.974142323,1703.46347613 210.867015465,1697.63224073 209.532197418,1691.96250305 207.403420294,1683.35971635 205.187977209,1676.65627636 202.722494088,1670.47950064 199.200066564,1660.30467346 195.666560691,1651.1061503 192.97242546,1643.61158214 189.972488149,1636.01029031 186.680163028,1626.50836809 184.452263924,1620.67618463 182.947319103,1616.32311847 180.730847547,1610.51076922 177.669604924,1601.49119342 175.428603418,1595.6034001 173.488234469,1590.04741388 170.212453695,1582.71248921 167.105024171,1576.70074428 165.10243239,1571.90255705 162.285638411,1566.30260911 160.088598139,1561.42886995 156.903296799,1554.93359292 154.915469961,1549.98362528 154.201163045,1547.16716514 150.969610334,1541.14265424 144.826975529,1529.68958331 138.559587842,1518.24441879 132.16364111,1505.69632909 127.727895259,1496.73606495 124.995639719,1491.93578318 122.458046657,1487.01221159 120.676476118,1481.47904279 119.76323493,1472.81397244 118.636772782,1466.0655497 117.69546867,1460.21087325 115.450236197,1452.04506746 111.458786801,1442.22789536 108.115665954,1434.90224135 105.805410897,1428.4433734 101.665446431,1418.62839557 98.157644778,1410.9851877 96.2519626797,1405.42237477 92.8274770661,1398.50512507 87.6545444543,1392.57667208 82.3773418247,1386.06721426 79.4720667376,1380.29631626 77.4862859132,1373.42287344 74.419919278,1364.35434591 71.4893471457,1355.0615664 69.6957615616,1348.04972981 68.9944826823,1340.48956384 68.4481983213,1335.27576276 68.4482669858,1328.86061255 68.9945173914,1310.22568823 69.7108668659,1270.24267308 71.6685779366,1249.79517217 74.2481209982,1239.73337914 75.3772540638,1231.2360408 75.922269783,1215.92110033 75.4813637056,1184.17573134 73.8470376532,1168.18189349 72.3034850315,1162.98033988 70.125665634,1156.08745778 69.0223029937,1148.13453805 68.4210867659,1140.20324802 67.9793743795,1127.23269207 67.4497518168,1110.77698623 67.4497975408,1083.32836834 67.9792399438,1068.41275767 68.420800357,1059.12671879 68.9499135166,1052.37443832 68.949873508,1044.37705094 68.4209179883,1033.87138249 67.9788373013,1016.2038101 67.4211978861,1006.80137023 66.9787683339,1001.55113906 66.4212640386,997.451257359 65.9787049965,992.563488663 65.421642763,988.657601807 65.0227410828,983.885542753 65.1434357769,979.586141454 66.4477577364,975.412475118 66.1825057702,970.923871995 63.6570993093,963.375984585 61.4948223272,953.93678157 60.4512503495,946.648287365 59.979026079,937.247686114 59.4657592559,928.348333525 59.6868873451,914.067879511 60.6981785689,898.84120243 60.6979381168,882.999253033 59.65749906,867.375151514 58.9931779594,846.316619838 58.4217068971,806.862310252 57.9786100078,729.506037179 57.4511758105,690.372088188 57.4511800972,674.361341024 57.9785974044,666.212620518 58.421728234,659.980660728 58.9931646608,654.680628997 59.6579141758,646.842657848 60.7420941693,638.910779399 61.4068296308,632.640298393 61.9782859051,628.447570834 62.4215990232,623.300053108 62.9784094218,615.430363762 63.4215807257,601.271813205 63.9784305343,588.975486673 64.4212342669,573.276305261 64.934117516,564.685461986 64.6981917106,558.632508913 63.4359076634,552.160043027 62.4508401956,536.905695792 61.9787419029,509.258488053 61.4214512359,495.345379195 60.9783583584,488.275391293 60.3916291804,483.494877257 59.4478606549,475.464914595 56.9202081313,461.94286539 53.4795482008,449.561828301 50.9369419804,441.117690996 49.7580146195,434.41440108 48.4214262512,427.673177556 47.2290575063,420.328208886 46.4358404659,415.731734877 45.9789785206,411.327175119 45.4210881012,407.673471393 44.9788478603,403.325878354 44.4065280375,399.616342795 43.7435891866,394.427390651 42.6417409051,389.263885927 41.7579397425,384.778818803 40.5979734489,380.134167477 38.9810610009,374.325158308 35.1274449396,365.853056233 30.1424115553,357.280892195 24.2896882273,347.559615979 17.6800725145,337.743234117 13.9902848841,331.54118117 12.5542091857,327.048301217 11.1667808292,321.234411545 11.4916730935,315.730967589 13.0225884838,311.47497825 15.1229992311,305.786456699 18.2773408484,297.936112823 20.363766747,291.276395611 21.7316068345,285.560099443 22.4056759591,279.63217511 22.9521346964,273.675141402 22.9523016677,266.213319431 22.4195648543,248.432962955 21.9803193972,210.621398476 21.4196060054,188.258679274 20.9804699996,173.259763885 20.419452588,164.751305208 19.9806262319,157.400528342 19.4192935407,151.354974994 18.9807880942,143.65694705 18.4185976445,137.727231997 17.8996443861,129.302015028 15.9974629235,118.989177541 11.8831395252,106.111605183 8.51254507923,92.6606331286 6.67791516401,84.3658307185 5.76330888066,78.4179133693 4.67680216163,70.1984412425 4.45836359543,60.149234733 5.00843695474,53.0971401311 5.90788181651,43.5402457889 8.11067147501,35.0549917625 12.2858043232,27.3930430512 20.2271160538,19.578375813 28.6176048924,14.3287624897 36.8827043664,11.378130471 44.0027921005,13.9184442543 50.9783822325,22.9132715063 54.9713170929,28.9768162986 58.369103241,33.8821364563 63.4791431841,36.7320821211 70.2108985064,36.0458214265 76.3686413185,31.450905588 80.6670050111,25.8450665873 87.6999145063,16.5160280022 94.8521157968,10.1109296833 104.279946601,6.37904345346 112.171689423,5.03320721402 117.511234494,4.45322837526 126.361700815,4.71485140132 134.946073326,6.67169997742 140.557023568,10.4176551674 144.77799898,17.0876477735 148.536765074,27.503059751 151.309820197,37.2100005712 152.764521781,46.2748606513 153.572955725,51.2209865029 154.014892887,55.8019812753 154.562017473,61.1013604738 154.562157503,69.9132608271 154.014324067,75.4449848177 153.540405824,80.9162343921 152.156774257,85.4734557212 150.377790422,91.1050081364 150.944088934,98.0291423235 150.980649436,102.980189682 150.564166336,110.145250273 149.575365835,116.742463817 148.248606119,122.394599675 147.597536598,127.74124953 147.013227362,132.622475887 146.58693099,140.433331745 146.002302298,146.330736782 145.353672334,153.597633406 144.022813131,158.062317215 143.033027425,163.274326224 142.567367066,169.767557207 141.577621965,175.787877982 140.298112634,181.690013269 140.713397013,189.115360373 142.895743902,198.713097288 143.533952383,209.730694491 143.012967989,217.197026248 142.586757069,226.702533237 142.035285286,232.183957278 142.035438176,236.827465066 142.586307549,242.530768783 143.013935194,252.67754622 143.585918426,262.451656998 144.014226546,277.554765699 144.585629889,287.553767868 145.014677824,298.251068636 145.619890318,304.764273913 146.727893264,313.348924814 149.573335105,327.358035703 152.085288709,343.355455183 152.991653052,353.056594816 153.584545637,357.721618888 154.01546796,363.288105537 154.584401143,367.952113221 155.015728347,374.034558998 155.584143571,378.4871101 156.015983104,383.500085937 156.583958807,387.740964241 157.028516134,393.270344603 157.824560265,397.755317471 159.041291699,403.713643685 160.837253163,409.119986923 163.270797086,415.770761885 166.608261348,422.10823204 170.246481566,427.55578737 174.36838625,434.483157924 178.265162326,440.538433142 182.256392705,447.152819351 185.751084452,452.498102699 190.367587277,460.249854642 194.787158945,466.8447392 198.991577634,473.525224172 202.877527417,479.256754226 205.51845876,483.295693166 209.492841153,488.617051353 214.439568607,496.229469839 217.904324932,502.514841303 222.210948804,509.550983166 227.150128649,516.918339069 233.46344124,527.108629831 238.78069743,535.220391899 246.151218575,548.233368821 254.782290953,565.44263548 259.250511185,575.244796446 263.212679098,583.714586031 265.403132131,589.330174492 267.155862649,593.588150943 268.690632496,597.890774269 270.950644067,602.94497881 273.198031883,608.055712355 277.347573305,615.381775749 281.103703334,620.701025383 284.027894979,624.746164881 288.90120638,629.728529012 296.253320747,634.720598966 308.851746475,641.215942603 324.705337774,650.250999315 339.96257662,660.678850262 351.570163875,671.159161344 358.41676069,679.58178142 364.784646835,689.296608824 370.778420861,697.964773216 374.302479135,704.014083229 376.69454259,710.242381797 379.626713937,718.971726152 380.906440472,727.329145232 380.624851677,733.061266497 378.538584636,738.963869316 374.747075466,748.48433422 366.915050901,768.52996031 361.955235936,786.790550765 361.328998338,797.913212941 362.344534016,805.339679939 363.00646127,811.396015847 363.578975529,815.781817261 364.020344958,821.30632691 364.491683579,827.162268412 363.563992608,838.558272066 360.169233969,851.881158308 355.931029874,862.531797176 351.566577116,873.570263491 351.0963173,882.368617773 354.006954551,888.32362813 357.9230426,893.621415682 364.106978283,900.042032502 368.965665314,904.430620786 374.639411291,910.326383964 380.962698802,917.764496235 386.575313897,924.957657141 389.932217104,931.763473288 392.017570931,941.307301832 392.047223367,957.151999044 390.478454743,969.082712586 389.356970947,975.204896271 388.007005694,980.974643563 386.593208639,988.453372794 385.272622433,997.245900242 384.593295839,1007.70676646 384.021688439,1016.97628708 383.578409422,1029.94848731 383.021599023,1038.03860691 382.578393939,1044.76786446 382.021611691,1049.97961743 381.578275999,1055.99110542 381.006833942,1060.83219807 380.341974932,1067.42352442 379.242483647,1074.87385789 378.268275975,1082.86258291 375.854830095,1092.87331375 372.217704752,1108.05282901 370.4162306,1117.01424077 369.258402957,1123.1355111 368.593182302,1129.96200944 368.0216886,1135.23003651 367.578430534,1141.76965545 367.021556798,1146.97925359 366.578457277,1153.00600787 366.021527241,1157.99374517 365.578489649,1164.00640684 365.021492053,1168.99342848 364.578527652,1175.00674887 364.021451236,1179.99306112 363.578571284,1186.00714156 363.021404788,1190.99274937 362.578620547,1197.02224763 362.021352711,1202.22808376 361.57856981,1208.77285866 361.006568628,1214.06442939 360.328455759,1221.38064048 359.03570034,1229.04372522 358.050271761,1237.32717933 357.579047084,1246.28835139 357.021126104,1253.12435289 356.578911899,1261.91949447 356.021048691,1269.33128375 355.57971402,1278.83215595 355.122488009,1288.99933784 356.269749673,1308.58711245 360.138153785,1328.30069604 363.756756086,1338.89947398 366.756787743,1346.79437438 369.123383144,1352.5008843 370.931799784,1357.1315193 373.69694846,1362.6764939 375.888117973,1367.55883308 378.391882669,1373.54239472 379.020824304,1380.02169324 379.837446525,1390.18074142 383.343397465,1398.65520295 388.655847453,1405.25175397 394.464206861,1411.64206455 401.490312881,1416.68329199 409.386940623,1420.33093125 415.166909374,1423.38767676 418.205136351,1426.29846502 423.061483887,1432.76230245 428.590087153,1443.31371122 431.949806483,1453.21582077 434.333027919,1460.91745251 436.074567656,1467.46523304 438.733061016,1475.49848191 442.662179906,1488.25829126 445.457863744,1498.10950021 448.593975509,1506.43707225 451.745904066,1514.76850024 454.128840713,1520.53406732 455.921904749,1525.60006219 458.678597072,1532.40085196 460.456443813,1537.45071257 462.594351373,1542.91504899 464.759990218,1549.41605092 466.322703261,1554.28477525 467.00503144,1559.47031331 467.581501682,1563.76032156 468.018318144,1569.2271993 468.581778973,1573.28323295 469.01796095,1577.7303243 469.555685217,1582.00158474 469.517176668,1588.06506349 468.338123262,1593.44741736 466.452644545,1601.002355 464.865697407,1606.83155685 461.786883855,1612.53930071 458.479637969,1617.53687355 455.901171112,1621.79724321 451.698630908,1625.99556727 446.660806576,1627.49088485 442.094281947,1629.99770211 436.321450595,1635.00799917 428.963007341,1640.81216761 419.071920982,1648.75219011 412.290495225,1653.89326442 406.83350453,1657.12603623 399.456596274,1659.48483377 392.756968185,1662.80043853 388.204516953,1666.16410654 383.644944775,1669.35894138 377.294048459,1674.29015887 371.706652354,1678.3089465 365.339580463,1683.24507232 360.543791492,1686.49510809 355.024022747,1691.03828793 347.76324987,1698.34497481 342.086955911,1705.89171313 337.857439282,1714.50233383 334.658825987,1721.72337899 332.016231156,1728.38695703 327.130887065,1739.98152594 323.867415116,1748.77163605 321.80036141,1754.06953142 319.811043874,1759.89719241 318.024782681,1764.39458899 316.575510417,1768.60527769 314.789146341,1773.09999902 312.810530982,1778.90146497 310.981218181,1783.45809637 308.69219572,1788.89483654 304.863990088,1795.70193782 301.686066671,1801.305424 296.740692697,1808.33849251 289.92820448,1815.17910696 283.630147502,1820.13989511 278.891625206,1822.47646232" stroke="#000000" stroke-width="2" /></g><g id="land_2d"><polyline fill="none" id="land_2d0" points="789.757578115,1671.15472961 787.771506477,1669.2914949 785.49708722,1666.24001306 782.249652667,1664.07427172 778.286347008,1658.67180139 773.345333482,1651.65668582 770.699151414,1645.38282761 769.7745364,1639.08540712 768.615157083,1633.94609187 767.528958222,1628.29899689 765.36799706,1623.86867924 762.443080395,1617.54222478 757.673917078,1611.13958754 752.917292324,1608.47539353 750.256170868,1605.0758288 745.918468034,1602.61594607 742.941061299,1600.55330208 739.601723682,1597.30608196 739.32022858,1589.93160264 740.641879695,1583.95452294 737.462541907,1578.45271631 733.672989749,1575.29356105 731.656798153,1571.331832 730.482112048,1566.48815435 728.326304105,1563.11080028 726.788114459,1557.62237061 725.403337329,1552.96473448 721.440497782,1550.83104728 718.198422569,1550.17650647 714.564309596,1551.25879186 710.013397705,1550.77162677 703.997277144,1552.14125874 702.606181787,1556.11689624 702.13430196,1559.22628438 703.335817108,1562.67871882 703.657308721,1567.15238133 702.181375788,1571.31232017 703.0282296,1576.66125541 704.166050605,1580.30337313 701.442700168,1582.72291939 696.892804451,1583.65122699 693.342844016,1584.93860007 689.241247834,1585.59288612 685.724294503,1585.59532863 683.227197983,1582.65795475 679.889072761,1580.99051454 679.670078585,1578.19206454 683.322325077,1573.02356031 684.21724206,1568.19237689 688.264128351,1565.15041521 694.544066772,1559.86864135 695.451787299,1552.37198376 694.265601327,1546.93824023 696.892207691,1543.2924381 700.495431883,1541.25182513 702.022758967,1538.04802771 701.931351645,1534.92198879 703.465260616,1532.5201129 702.313465575,1527.92695039 698.250223291,1524.9672968 694.792451166,1526.11212373 693.281947442,1529.08098491 692.24110575,1527.89990011 692.654543801,1522.38966317 694.446797408,1517.06880441 699.524911918,1516.67164696 703.005056154,1513.1970178 704.019825229,1504.32537033 703.426598808,1498.4726931 704.079682029,1495.04847436 701.433598755,1492.53900933 693.818845937,1491.09456559 687.709071557,1487.78837092 681.768726363,1483.27544849 675.617178888,1483.55803824 671.921071398,1486.77629614 672.19055127,1489.23173344 675.453516189,1490.30155586 677.439530234,1492.85420001 677.094337205,1495.77293192 677.315814813,1498.49889859 677.2468855,1502.45809244 679.38843403,1507.02399307 679.273124235,1510.03956705 680.084200608,1511.48088451 682.083594374,1510.35094197 682.763561106,1511.39717758 679.814942239,1514.572445 677.124439366,1515.22575607 676.313741832,1517.12638915 677.012687987,1519.83293666 675.306331127,1522.47903634 670.951495052,1523.34146189 662.448348981,1518.79819801 658.621666259,1515.09118061 660.311643544,1510.96817526 659.689209554,1507.16924129 657.479115489,1507.02528351 655.214873531,1510.36184736 650.659389791,1513.53276119 647.1628868,1513.663003 646.003105561,1515.83003656 645.115624363,1519.15604193 647.644059926,1521.06602809 653.410938948,1519.99715535 657.504396096,1520.57495671 660.172892601,1521.88923306 659.138284278,1524.01401007 655.201732907,1526.33342295 650.989344092,1529.37032818 646.636783665,1527.44143213 642.683419015,1520.26871927 642.616563613,1512.11473546 644.787364772,1507.2267585 643.146455425,1504.09461797 639.924770762,1503.11124369 638.028935805,1499.2276225 638.801033093,1495.36643829 637.734494518,1491.45232694 636.049562089,1487.99998136 636.676425053,1484.55171697 636.757861587,1480.89652261 638.66564987,1480.4813588 641.293555845,1483.10865523 644.503268842,1481.37554825 647.056434982,1477.69390279 645.307606839,1474.46026158 642.016257439,1471.99227192 640.956027226,1466.55969504 637.86576313,1465.06920279 633.090447184,1466.0150607 630.946710911,1463.54621254 629.02198578,1461.75051936 629.236548142,1459.46759426 633.491091793,1457.83380508 640.329246371,1456.63564653 643.857356578,1451.76579002 643.771882563,1443.74595516 642.590800081,1437.23980978 639.674342631,1433.34040647 639.688079564,1429.16427475 642.768215976,1424.33989223 643.68950039,1419.18442662 643.355874839,1415.75136548 644.2493562,1411.75876746 643.745657078,1405.2340193 642.821422333,1398.97682583 643.580335687,1394.54404962 640.046632202,1390.3201233 632.578212515,1386.23607598 630.401522202,1381.02105067 627.422662512,1376.6952507 621.770757832,1374.58801088 615.837430083,1371.31431435 612.303158294,1369.94310276 613.070395059,1367.11294196 616.819873554,1364.454098 616.176931957,1362.01093836 610.820408878,1360.46110605 607.477736786,1357.46979405 610.542305155,1355.10063161 616.773900382,1353.95864438 617.898463344,1350.9739887 611.651857656,1347.58710514 603.133925369,1345.02966725 600.473982559,1341.36666149 600.878720201,1336.85268336 598.754995055,1331.13005891 597.273333209,1326.34879565 592.211802913,1322.08103798 581.295859286,1320.25919061 574.644764621,1318.93251721 571.193639107,1315.39209348 568.651173324,1313.198375 569.870984645,1310.89506786 571.037889077,1307.71743982 572.037004541,1303.47080311 571.667885999,1297.74742549 571.844150739,1291.5107437 572.578905885,1287.01333778 570.785926435,1283.98043306 568.448633624,1278.85240647 569.414379835,1274.38109836 575.570971045,1272.25190862 585.664775078,1272.13400421 591.816107704,1270.27790339 594.050405378,1266.57810537 595.962384008,1261.90680062 595.463236298,1254.79793034 593.599334939,1248.82112194 593.250989227,1241.3390174 591.619671586,1233.90308719 589.090812276,1234.32805752 588.395444281,1242.53753258 587.378538809,1248.87300054 584.27437702,1248.57441363 579.976043545,1243.79324644 577.338667043,1239.77908532 575.811021032,1233.85034677 573.059930681,1229.11546649 568.65205255,1227.20447168 566.823079434,1225.43966276 569.951690339,1223.8194096 572.135199596,1221.06738007 569.612041911,1217.25491426 563.010065408,1215.18935033 559.950832355,1213.02937685 561.675616975,1211.2652467 564.316461244,1209.94977362 565.445134674,1205.26914472 563.101356369,1199.30808767 561.541473101,1192.54587647 559.394721053,1185.87048585 559.762292659,1179.82998726 564.579045512,1175.81222063 570.320288918,1172.66859864 571.831876374,1168.96220897 568.276908038,1167.9191228 561.507079359,1166.46682975 557.273339964,1162.86220574 557.318744484,1158.27353676 560.327083843,1156.24888648 562.41186914,1153.53394995 563.168772822,1149.80288062 566.009510438,1147.59319439 570.244452043,1145.52189989 570.33572288,1141.59816886 566.627434845,1138.99572525 566.338815398,1135.86478494 569.460372042,1131.56550565 567.883284055,1127.7418378 562.227195317,1126.50586865 559.020714992,1124.57073276 561.745067018,1122.30135166 560.878495873,1119.69128302 556.242763951,1116.26616215 555.588642455,1108.24527258 555.388116442,1100.64225961 553.567006624,1097.194228 552.422109718,1088.11872368 552.019825988,1069.5033712 552.083196696,1056.75724349 552.467919688,1050.61500698 550.227676822,1045.88452115 547.611567759,1040.77686373 546.877402714,1031.82856712 547.280990782,1024.95747056 546.835314095,1019.45896652 546.298372498,1011.46660818 545.101395941,1004.90083405 544.535682807,995.852818684 543.732191158,984.881835315 544.378524181,975.215014137 546.44197358,969.690500299 545.562708251,966.446311675 543.396311223,964.118248802 543.492697502,957.986335438 544.683359941,950.654102707 544.712035626,942.285302802 543.864608289,933.94647919 543.311347568,923.835513761 542.381489075,915.528016737 543.549128792,909.052916887 545.162194108,905.778400487 543.520003855,902.391480176 541.982270719,896.161337382 542.920680491,889.661122647 544.945240336,883.361257009 544.461583073,875.166550397 542.632054039,868.310194296 542.830482871,862.808822453 543.805962951,857.722616624 544.340309629,853.660780725 542.882788372,847.873982923 543.996207595,839.272996978 547.167785819,832.479668155 547.97505058,825.401023776 546.615979024,819.823028501 547.007669368,811.72168118 547.65472044,797.790686948 546.713067979,788.82600807 544.937379409,782.447851879 544.480003807,773.331942589 544.934962606,763.912765901 544.713581759,751.115388286 543.70069966,741.993719883 543.642545401,731.734998479 543.784676601,720.798354264 542.099333534,710.948632937 540.993345621,697.372097373 539.979000489,685.148161739 538.893229081,677.031887435 538.580363143,671.500065679 538.58603452,665.057772485 540.117767446,657.502733668 541.482824719,653.132826529 544.145231666,652.711059491 547.257922109,653.397636923 552.102136575,652.00471623 557.740775111,650.457018792 562.021165475,647.988649141 562.279251843,644.72074142 559.376498687,640.51095194 557.532758195,636.04192239 553.49235532,633.421514844 551.916214595,630.75037744 553.99217143,625.185013647 554.200581657,615.828131405 552.347150378,607.201657118 551.552190847,596.164097641 550.685346637,589.81858666 550.699445037,584.76869054 551.758784804,578.618239189 552.65619285,568.82442853 554.007888265,558.498960058 555.641189347,546.859240382 557.451136591,531.233613111 557.628690342,514.657218038 555.643414184,503.662628762 551.730295649,490.781102292 547.22542855,479.22918893 545.182943462,470.966190828 545.06903039,466.616350421 544.053539112,462.900556955 543.065411843,457.823241639 540.980985734,451.12806545 538.52230421,445.780261632 535.019068337,438.948249269 533.841572626,428.635226082 533.612805786,421.419603131 533.261736153,410.686445872 531.623205416,396.474294657 529.906604819,385.0633825 527.537392356,377.318925749 523.405360284,369.89863813 518.147498486,360.957622781 513.466724902,354.037025619 507.555457637,344.365385709 503.429704119,337.9932193 500.18588252,333.008807714 496.298341271,329.033587683 493.580311222,323.940592182 491.245840783,317.919001135 491.891457926,310.73838192 496.17292739,303.11797785 499.632558072,298.967017729 501.621993423,292.298981684 503.456979798,281.666144637 503.70476211,269.994240305 502.900533536,261.595095248 503.008046187,249.06266328 503.40603173,233.062529288 503.746723111,221.507530077 503.625246792,212.096225306 503.513698588,203.008351862 502.63899471,186.428850513 501.993993025,162.681178726 501.392072636,149.027001468 500.514901099,137.647416428 498.96567393,126.867152302 499.466530783,119.648839262 503.743161258,117.672118391 509.705299327,120.091340251 513.996837095,122.718492008 518.861266267,122.823806613 526.142326849,122.646787329 530.03108298,121.072535207 526.375973197,117.639728616 514.2329216,114.846750166 505.464937531,112.14603231 500.50981636,109.169789439 497.12502324,107.700713035 495.052527191,104.889933223 494.407386552,100.44746475 493.142774979,95.3956608151 491.647981148,91.5686997627 490.531115599,85.0232419033 488.922424351,73.2299295261 488.677035257,57.8026873597 489.259971177,48.8690294628 488.432149848,43.6112060361 488.00149111,36.6813650708 490.230205024,30.4661548016 495.412244749,24.9684183383 501.338993385,19.2374753742 506.207273856,16.430847648 510.970787347,14.8962029604 515.233593843,16.9139289582 518.037484865,20.9573976223 520.521585102,24.7275416297 521.906493621,32.4685960393 521.847168769,42.6838094753 523.212244606,47.817292289 526.496625723,49.4753202553 531.730843071,51.8485139378 538.494471889,52.6902243729 543.268410252,51.9211616747 544.854628365,47.4449898768 549.969021838,42.6759753434 558.909221357,39.3720331663 564.060386032,36.2065938621 565.689880046,32.4148846337 566.826947069,29.2274706747 566.844494938,23.7981704031 569.842829734,17.7550269402 577.103423631,11.2489262009 587.295400456,8.09501069128 594.443503996,6.7232496442 601.162150005,7.13164578401 605.163468999,9.10043845045 608.337319777,10.3018179208 610.780689395,13.1209901308 610.282578847,17.2072851614 610.040513949,21.3246730828 608.343957214,24.6598377662 607.892284424,28.4837019097 605.565459421,31.3902907213 601.011719112,33.7642037631 599.270256981,37.6076625397 598.415586461,42.5740914871 597.492027849,49.3775586704 595.683416791,53.5372295891 596.631702581,56.2994121543 596.34245189,61.3090637439 592.575372007,67.4149261857 589.801171125,74.2335771995 582.887202439,83.5120683092 578.837974644,89.4449026984 575.348296512,93.0002612302 571.52258876,93.6007136925 567.346562795,96.4263481347 563.956862721,102.931617395 560.530588892,106.024906787 556.212775252,108.772173983 551.90749861,111.759765581 546.794721734,119.152374748 541.682879258,129.104995956 542.547112192,134.321345715 545.801673486,133.654929082 547.983241385,132.7104956 552.054941569,137.067988952 553.160023558,142.597963564 551.186731041,144.613053768 548.788531483,143.991211544 547.078444397,145.236126217 548.19573386,147.033384769 550.548535151,148.079298013 551.513736105,152.21241786 551.669744352,157.073533069 554.908682258,162.689705695 554.626319916,167.051313999 554.409646851,171.588797616 556.90302568,172.315480391 561.56045881,169.641459732 565.786023463,169.757644376 569.153179333,166.952881995 572.523004817,160.207641175 578.788532741,158.988241926 589.866120608,164.195573773 596.709992745,167.73070276 598.566563074,172.597999527 602.372631505,180.268664863 605.868771479,186.506933947 607.418616207,194.041220514 608.924122111,202.895588476 609.440275345,215.855349879 610.384030108,227.291070446 611.226744677,239.840682516 612.394993379,253.256277844 613.6737739,267.660645233 615.873262727,282.828275724 616.107975869,295.307472361 614.970289223,306.298262155 616.533560151,318.436164897 620.311638291,328.117980377 622.631477585,336.12785203 622.172643595,343.062922595 620.918732599,350.683202795 618.509854396,356.626863501 617.955086995,362.797810748 619.951119478,368.969607965 621.406177638,374.689203941 622.716936164,382.321197332 622.875255592,394.689152835 624.023264396,402.555208865 625.176336426,408.482587552 626.877321926,413.8851883 626.366290633,419.74647781 627.5268845,424.388061284 629.025672821,429.751691091 630.100729025,433.990542272 628.80200935,438.280259458 625.094166603,440.338053861 623.336148833,443.993077157 623.19741336,451.069214519 623.469167452,456.73102537 627.2313765,463.28577081 632.19228773,469.432653526 634.4753986,478.933820385 634.330911734,484.474177732 635.74185856,491.168256419 636.622343923,502.840292145 637.471970105,509.642791926 636.667690981,513.819464669 636.719672294,521.477191838 638.999023991,532.854256071 643.619260238,539.668024076 642.335423421,544.344554223 638.074779602,547.245098086 637.31755304,550.888539693 640.806524386,552.30929242 644.669031987,550.361916057 647.889321052,546.529366544 650.726793628,542.602075698 650.829152421,538.226542152 653.308828154,534.238600835 652.368644587,531.506479889 647.65745474,529.61501474 646.475523815,527.324549463 649.261706712,527.360365011 650.106354429,525.672061963 646.962477845,523.299355964 645.350830424,519.433069612 647.267425681,518.83531791 653.149781188,521.941164895 663.130397862,521.330229758 666.489251201,515.034368147 662.549319218,511.423166995 652.142030321,510.480099739 645.634190684,507.062677593 646.504634101,499.825206062 649.107550637,498.952240658 649.974137813,502.194850289 653.128021509,503.332524552 654.871354412,501.08703841 653.213073044,497.411200045 650.90513607,495.514387702 649.813989359,492.301443426 651.969366521,487.867358644 653.839271848,481.941287581 654.032581658,477.768866629 657.574243679,475.336787712 662.980085572,473.359912517 666.109647779,476.759306916 667.500749613,484.362957603 669.916896045,489.238478824 670.796521506,491.928319438 667.092291984,495.987832718 666.587596999,499.917090497 668.653555413,503.419561958 669.196365153,512.221952742 669.393473368,523.773195982 669.752686676,529.890469091 671.401252862,531.627165247 674.188436003,535.858082453 679.081983364,539.333225618 679.341854192,541.471624655 676.474453416,541.870902322 675.022458442,545.306190968 675.715466315,552.73413477 675.852220449,557.577941798 676.144478634,561.558883199 676.151458922,564.434364354 680.119544149,565.830132509 681.551765754,567.906080491 679.27913779,571.171359839 677.870395591,576.325565166 679.434186533,580.171654835 682.534827486,582.416148337 684.162385897,586.450791994 683.193388437,591.807200215 683.622403016,599.742754299 685.387221604,605.496801733 689.108255743,605.589591942 691.441516907,600.828231334 692.468578344,596.009684931 694.75281906,596.272541097 695.234141687,600.664704354 694.958444259,605.074238931 697.410892035,608.291290176 699.499525175,613.241608603 703.801232674,617.332572 708.887775855,616.968519573 713.015070059,618.455314701 716.647074022,622.366101927 720.791591146,626.903201031 719.452991254,629.927946972 713.612088291,629.558937611 706.646878703,630.402709663 707.044900623,633.82877403 714.435856807,634.962252099 718.966996493,634.023670618 720.440098818,635.692419529 719.820337966,638.459955897 721.198017917,641.127503919 725.326659782,640.980448137 728.915054501,638.524421487 731.159347372,640.042828434 730.931748858,646.789527801 729.767683719,651.597310274 732.093120826,655.148855498 736.455766649,656.108172621 740.762931031,653.964650329 743.214615192,650.715542314 746.234517561,649.567576113 748.986806286,654.27509439 751.418331429,658.648753092 753.800519797,662.774578589 756.612241691,668.029062625 756.236377316,675.091871478 752.437696692,679.114100978 751.667825967,683.023048975 755.336231025,684.938347119 759.295108402,684.590766699 761.952694048,686.467447746 761.033515929,688.982683589 758.112319324,689.224870761 755.171970666,691.064938405 755.266737884,694.453805959 754.786202667,698.257101428 755.744245091,699.808975988 758.267804351,697.700710334 760.264138456,693.758909379 762.816322724,691.894503175 762.951919295,696.236084514 760.898058626,700.757403555 761.123309112,704.050689074 763.48302136,705.121929444 764.630801133,708.529272522 764.768967504,711.870053151 760.921608799,713.53894767 756.506188586,716.026786586 754.652718621,719.496200258 754.065898031,723.371183289 755.959323291,725.76794827 753.55683346,727.852878011 752.782933025,730.850035699 756.186828865,731.046452377 760.190940845,730.013250079 763.618748304,733.181601151 763.582851025,736.202843878 766.152988355,736.474117754 769.335670967,736.130430845 772.035599767,739.603439332 775.31502249,745.034917054 780.808574787,748.996370404 780.087075842,752.806378041 773.420139728,756.470066319 768.213228611,756.805195908 762.552246865,758.685780923 760.054043786,763.861475828 760.189386527,768.05972803 758.191858934,770.513424267 755.869607454,768.457182034 754.44407876,761.185862577 751.328144846,755.600757253 745.5864836,755.203866849 739.955002343,758.587617296 737.022413582,762.93635281 733.012187294,768.452148217 727.273053969,772.803215782 714.686861952,774.569661416 700.811735601,776.027652084 694.261435822,779.057735147 697.227147024,780.908362427 704.223615432,782.251787413 702.193119937,784.50896757 696.719759505,785.440642364 692.087161219,786.422590121 686.781992472,788.190539102 683.620783879,793.283714077 685.312103041,799.645106298 690.540483978,800.163539471 695.39627992,796.115357093 698.418861083,795.403459385 700.808227028,798.224220842 703.711095994,800.66788351 705.721039588,802.972555053 708.079231306,805.229155452 710.133814607,809.427233662 713.776012223,810.412796582 718.88547295,808.973505622 725.018842359,810.939383923 729.23234808,813.242863727 729.190098026,815.851702225 724.284535178,817.372761254 720.614710089,819.725198622 721.185959996,823.117041585 726.137887303,823.998646854 731.030272446,823.088941707 734.031245546,825.136571172 735.067498103,827.989773888 739.290077025,830.158039538 746.148353186,834.250695018 752.771252056,835.650533524 757.191681773,835.351697215 761.261939772,836.149100108 765.878763027,837.294955435 769.400092105,841.427177844 770.777131934,845.959541671 773.730337218,850.043892208 777.672975409,854.679859969 778.87737276,859.877670578 780.061486244,864.403820519 779.942866752,870.616023849 779.769766751,877.443237258 782.195838244,884.482327204 782.24326796,890.231427246 785.572870085,894.221146177 789.568724985,898.250815384 792.438944058,902.736659712 792.307001514,906.512305362 794.608140441,908.886157861 799.632055833,910.992693834 803.246291621,913.76652351 808.929400271,915.065754018 814.499584568,916.487896655 818.747990543,917.550496597 820.578931798,919.789165431 823.307338952,924.029964947 825.490357192,928.14749125 828.842940176,930.711797829 832.611895481,933.016354293 838.657560825,934.171857607 845.898020884,933.961463075 853.666093071,930.508845527 858.309200159,932.112739156 859.407441873,939.689230396 859.882912293,950.079011016 859.405562109,957.615192015 858.411293591,962.76228009 856.011562849,967.428775589 855.53809595,972.143003613 856.293279596,976.832397929 854.048460267,983.208795953 850.191463239,988.430052181 847.191356716,993.30849219 843.405160581,995.634856331 840.923470332,999.065832783 836.114011599,1002.53029261 835.252330453,1006.09903049 840.465610964,1009.06272414 845.428531619,1013.3075712 845.559264932,1018.29092795 840.56961859,1022.9282095 835.112194227,1027.75343613 831.798188434,1030.37018365 832.039167357,1034.73803507 833.752878541,1040.3933932 838.302911034,1043.94998252 842.669207535,1046.599373 845.393633991,1047.81754362 846.094024634,1051.22444557 844.66070734,1054.77511571 842.7031716,1055.8186912 843.192425435,1058.3501502 845.975378142,1061.6408333 846.94733513,1067.78543625 844.35662427,1075.3797639 839.511143572,1081.28441508 837.613440351,1087.22545537 838.037173932,1092.21085271 836.28272925,1098.84297562 832.029275354,1104.38508325 829.75575957,1110.59479363 827.290220971,1115.60260285 825.788384201,1120.0999541 826.224856218,1123.94370681 827.687267832,1129.0315546 831.634676005,1134.83583558 834.155693493,1144.37733976 833.634210744,1160.31073333 830.952819754,1169.01508912 827.79575758,1173.52544879 822.968794627,1177.66070507 821.638876769,1182.08592089 823.137353012,1185.63441964 824.419712168,1189.11527128 825.415059758,1192.13494465 824.934101155,1196.14474101 825.344996974,1200.13138883 825.201642912,1205.01046698 822.037128582,1208.55667783 815.939362431,1211.1167908 813.832855122,1214.45693367 818.174433968,1218.27802935 824.730366213,1221.77111394 826.994977425,1227.2321143 826.170939936,1236.35802775 824.375964671,1251.86354581 820.463326081,1261.06586022 816.272521757,1265.81673169 812.078097273,1270.27876759 810.318838077,1277.37656331 809.80589324,1282.57428452 806.690163226,1285.40447619 800.58649237,1287.93511165 793.615978268,1291.45061471 785.186352829,1294.02203502 779.226932077,1298.23326786 778.03148628,1303.26543805 781.828276027,1306.3870965 788.645195034,1308.24657778 791.486262031,1312.06006832 790.798472658,1316.73958677 792.163086208,1320.74130601 797.199997069,1323.51684916 802.762804024,1326.2066381 806.450141177,1331.01402573 809.558782401,1337.31202695 810.067889784,1349.58743276 809.205888708,1356.56709855 810.099620835,1360.38688686 810.089849599,1365.46489476 808.40641071,1367.40303967 806.438431067,1366.37553154 804.530378189,1367.38663162 804.883193288,1370.93768837 804.289132543,1375.87120576 802.406142608,1379.80697282 799.986073629,1383.09751086 795.33818763,1384.03563388 792.838574158,1386.28452511 792.460367941,1390.11448688 790.528903571,1393.14018449 787.621640834,1393.03620346 783.096484327,1393.24726333 779.118734306,1396.02128582 775.294336744,1399.29739179 773.709743994,1404.19173789 775.477893973,1408.12165888 783.41914802,1408.46067135 790.611178745,1405.67478693 795.144023809,1405.82640767 796.277644289,1409.37671757 794.384681278,1412.06709261 793.214335281,1415.47322476 789.910210023,1417.97691155 786.645624424,1419.5659693 787.505420322,1422.40952734 790.32648695,1424.43187233 792.685745455,1428.23996032 795.889897138,1431.17272729 800.60278567,1435.09099627 807.176126851,1435.92397842 811.778188237,1435.85213648 816.002702409,1438.87465232 819.60993178,1441.99081041 823.406819742,1443.48888014 825.19755448,1445.91846594 823.766413514,1447.91894949 821.703030086,1450.16863634 818.461795282,1449.40871952 815.885773058,1446.80103438 813.870632203,1446.70600587 815.565102309,1450.1526758 815.363072675,1453.62957951 814.210700587,1457.11280584 813.694835228,1460.00741325 816.336069755,1465.41714736 818.263826888,1473.09367942 816.081423707,1477.48568957 812.63940249,1480.39569967 814.140430906,1484.59665333 820.007926748,1487.50016887 821.889113931,1491.60953706 819.560415211,1495.48779539 818.302514083,1498.01522457 816.748731889,1500.7134716 818.767493892,1504.00822992 823.553513492,1505.71671714 827.372414184,1506.34627642 829.354814638,1506.1248763 830.258557832,1510.22478501 829.353824273,1514.75928322 829.869498064,1518.88572659 832.341363481,1523.60867699 840.319696577,1525.64636297 846.231869308,1526.87134832 846.603635181,1530.41094215 843.895227089,1532.75132827 843.361353783,1535.47785007 846.442854118,1536.49992158 851.443663582,1534.55696943 859.252980861,1534.83764939 862.553409564,1537.77583025 862.607121396,1540.56846548 863.858676929,1542.47352893 861.659172852,1544.04152186 858.096630576,1544.81717096 857.851935203,1545.95626238 860.412582285,1546.48480004 861.689202554,1548.86359887 861.254426681,1551.66406388 862.663707716,1552.47655393 864.150146043,1551.66532019 864.752341138,1554.91360404 864.56214634,1559.48142531 865.863052599,1562.56001664 865.576421134,1565.87576341 867.176482775,1570.93496504 869.067070477,1570.83769102 869.509580175,1567.98682853 870.876230824,1564.76271524 871.077331206,1561.20191773 872.724030936,1560.43999026 876.090332811,1566.49003886 880.188486741,1573.16767049 886.667740776,1577.26402863 888.951597014,1580.26445764 888.336221685,1582.54896092 890.377483037,1584.23347109 894.050453862,1583.45795364 897.900105099,1583.56687763 900.801287326,1584.16904393 902.978844035,1585.62501821 907.693635382,1585.75292767 911.404621586,1587.62251652 914.91908862,1590.31350206 917.686941436,1595.08057454 918.379305846,1600.51115835 918.188052579,1604.6345208 914.441107182,1606.6912665 908.962141497,1606.79974637 906.4329102,1609.11893152 906.358196182,1613.51418176 902.765421503,1614.43274822 898.806030258,1612.49879861 895.715537297,1614.17679951 893.503448958,1619.12879017 890.303335471,1623.42647317 888.016386492,1627.92039164 882.630163502,1631.6171565 875.154931964,1631.82114258 869.657658474,1628.52582788 868.293476727,1624.7890582 866.180042305,1623.46621695 866.254412987,1620.60840292 864.840339603,1618.39706338 860.428386285,1618.79170372 856.936209083,1621.58289759 854.62395422,1625.11233172 850.370089671,1630.09217102 850.95986643,1632.8170665 854.713922288,1633.68371349 854.516690104,1639.26799535 848.626738625,1646.00230867 843.545002174,1649.27086216 841.11990221,1652.81649671 836.575205152,1657.6595489 832.019196326,1659.65103877 827.808232838,1659.30130693 823.862194087,1660.08607325 820.657790472,1659.51553239 815.40161668,1660.3868833 810.739390233,1660.91971067 807.529456798,1663.61521213 802.803393982,1664.13643518 798.551391713,1663.04124887 794.37193221,1665.26089509 791.971533118,1669.24835857 789.757578115,1671.15472961" stroke="#000000" stroke-width="2" /><polyline fill="none" id="land_2d603" points="732.001248413,1772.74067402 730.028709191,1771.58500429 727.634983495,1765.79175571 726.410989747,1754.01235599 725.342426261,1742.38640418 723.802198977,1736.17679639 724.766412162,1729.61670267 725.488666095,1718.79590359 724.810152066,1711.92521263 723.720287616,1705.41801309 719.86251914,1701.37682322 715.803752485,1696.81637087 714.220026119,1692.58028444 711.37596675,1689.01760929 708.118775481,1687.11959343 707.858255156,1683.3531828 706.603361478,1676.88520092 705.858258188,1673.44606416 709.471084217,1671.79714518 712.720139126,1670.62401294 717.19161519,1671.47617038 723.330812727,1670.96892753 726.501903685,1665.69878175 729.44140746,1657.37761987 736.537069749,1653.91227874 740.622229978,1650.62701674 740.656230214,1643.96157602 738.363748436,1639.61665976 738.195351235,1636.45687335 740.866054071,1633.30141091 744.108656903,1630.17118029 746.471327043,1632.10276493 747.244576312,1639.77925197 750.167978874,1646.75543703 753.791398244,1649.63167919 756.770511649,1653.79525004 762.031966467,1658.81146226 765.769469989,1664.32195296 769.003771435,1668.04145458 776.904573795,1668.6591125 781.883246466,1668.39262485 784.264280202,1670.38798698 787.219313083,1672.48573281 787.640548405,1676.20010633 791.313087864,1683.27781243 794.084158862,1691.73700001 794.511028333,1699.07712937 790.406939697,1701.7742257 786.031042265,1697.50089813 782.858038979,1692.44066669 777.540880324,1690.31532909 771.58655298,1692.34359803 768.044834973,1695.66896022 764.584125117,1696.11041963 761.118219452,1695.11217584 757.844398458,1697.1804554 758.508321592,1701.11674592 761.261446594,1703.30216541 765.742296923,1708.12301084 774.478906807,1712.34013511 779.342217842,1711.50236536 782.767944289,1711.05488436 783.549084104,1713.92286967 780.452499473,1716.75094328 776.041769635,1720.47658828 771.822930164,1724.99508064 765.541329673,1729.73153927 760.58509233,1731.58504343 755.764548254,1732.48191695 750.834595218,1732.71631518 749.580472032,1735.62725951 754.518158058,1739.93178809 761.006880645,1744.93383315 765.719918114,1748.00328754 766.777342494,1750.46146053 766.558294634,1753.5319183 763.167243132,1756.48340618 758.967903681,1759.57853212 752.064271754,1759.68473438 745.616613034,1758.5027703 739.727535476,1761.14648113 735.907330951,1763.81445432 734.489530363,1768.80416147 733.581238681,1771.79944418 732.001248413,1772.74067402" stroke="#000000" stroke-width="2" /></g><g id="land_4d"><polyline fill="none" id="land_4d0" points="1012.03971768,117.124046737 1008.57309899,115.637656475 1003.09417137,114.040921039 994.37554877,114.165140865 987.30915993,113.326611115 982.036687384,111.435087294 977.473167118,109.681259833 973.879835224,106.573902911 971.077510584,101.668694356 969.54192356,91.309259117 967.665733735,81.4356201218 966.487421128,71.6847072738 966.405669095,59.1452786944 966.250215161,50.1031435757 964.669944058,44.7520284373 963.853779094,39.0053324819 966.352676303,31.2381759613 972.289898116,23.8936764559 976.004360787,19.605198191 979.203591688,17.8758866617 984.322806475,15.6465508301 988.910848414,16.066307518 992.790866018,20.6292529555 995.802285792,29.963815962 996.582709476,41.0362868819 997.303088298,47.9977361937 1001.05872505,51.7166333156 1006.4680269,54.1490998847 1012.67919797,53.9624792459 1017.70490206,55.8984443393 1020.36264408,58.0893021886 1022.02521308,56.8135064673 1021.92962671,51.9910885983 1024.03192581,46.9539033043 1030.67690132,43.6901286922 1037.40707058,39.9910102952 1041.41787167,35.3085387132 1042.31151403,29.2265849184 1042.02349517,23.4910130044 1044.56587815,19.1671299389 1047.70895158,17.0346822206 1051.59338012,18.1857934289 1055.71972026,16.5841489785 1061.31088499,10.3008641542 1068.42005229,7.13737374118 1075.36147459,8.64958307961 1077.33050518,13.8019986696 1073.40660153,21.7408233838 1068.88757145,32.5288288024 1065.66499352,39.1852392764 1065.19495209,43.8585284732 1067.21789194,45.9572660498 1067.86495023,49.413506729 1066.66962299,52.960994134 1065.62833449,56.0420811183 1063.01915889,59.7303630098 1060.45900592,64.8086578302 1058.10351035,70.2711217457 1052.59905819,76.6374970722 1046.62853969,83.6093852298 1043.58656654,87.8792998845 1040.73852333,90.9007569201 1037.79577216,96.5479782338 1036.06936982,100.231228153 1033.37933669,100.668784328 1030.08766367,99.4647981417 1025.9253829,101.530458964 1022.03619439,107.347546812 1017.21953541,113.889938371 1012.03971768,117.124046737" stroke="#000000" stroke-width="2" /><polyline fill="none" id="land_4d46" points="1107.42181972,670.178707112 1104.70638771,668.705196416 1101.19181847,666.926416891 1097.06664917,666.290448339 1093.66680143,664.325225725 1088.44932579,663.978066006 1083.88741035,663.611010113 1080.43477171,663.020567594 1074.82355332,660.074875653 1069.1212433,657.740595209 1062.5565028,654.954204332 1057.79977977,653.51220136 1056.36945316,651.494463163 1055.01940065,647.969320544 1054.20101495,644.668216128 1052.48543743,644.065935391 1050.01769141,645.286445193 1047.15753177,644.146417623 1046.91237019,639.892450912 1045.3485187,631.806271572 1042.77124746,627.630435636 1042.39694628,624.965184898 1039.9127206,622.526251037 1033.70170472,620.900363002 1030.37285294,617.697016501 1029.64565258,613.663360523 1027.78087589,609.955121541 1027.59735138,603.094239113 1027.84282203,592.882295984 1028.29815708,585.610626273 1027.88398092,581.070455276 1028.2407033,574.483814964 1029.22744319,562.711993007 1030.63861407,553.410247997 1032.28063401,544.822773907 1032.84489334,536.825279947 1033.5124671,530.650079432 1033.37807156,521.220759734 1032.74567858,511.955927966 1031.64016897,506.410396773 1030.74476607,501.632250631 1029.33529017,496.75622657 1026.82063301,489.253849233 1022.82960319,480.231182803 1020.85882927,473.599044891 1020.0977725,469.49940904 1020.06777674,466.530074037 1019.15518363,463.000069471 1019.62730461,459.470591969 1020.12446705,456.543962539 1018.46489876,453.261464772 1018.53161034,450.616115856 1016.6839916,448.228256997 1012.88700356,444.059948975 1009.8623272,438.916137047 1009.76967962,430.120241349 1009.71400366,424.045197116 1008.90762331,420.496460159 1008.97844208,413.924148137 1008.91999169,404.308478418 1007.94882579,395.888729084 1006.40601959,389.963094978 1004.66892154,382.447782945 1001.47385749,374.339971437 997.070227039,364.895894803 993.415383127,359.709558411 989.333217339,353.945946785 984.740113226,347.152740116 979.745430495,338.416177394 976.438591992,331.602982513 975.563018222,327.1758781 974.799253557,322.380353887 974.085641329,316.734283873 972.461168052,318.03308946 970.542303018,323.391466214 967.820952732,319.04704167 968.12886853,310.333630107 970.750078065,307.279616998 972.474689747,309.356003401 974.074110131,308.787233129 974.619836024,304.512133213 975.680947633,300.649977016 977.510130813,296.886315562 978.584002817,290.052197988 979.056161359,279.871089459 978.328626469,263.017417668 978.554004283,248.869571039 978.640028272,234.526472841 978.993834261,220.957444545 979.39206631,207.7425306 979.499946354,198.070543915 978.625088537,185.404807645 977.788576164,161.641760509 977.103464757,147.748538476 977.283896978,141.852103148 976.378587061,136.459962925 975.005858792,127.844566387 973.965124299,121.680041437 975.634270349,118.908474549 979.863140457,118.832187786 982.861720782,121.345016907 987.865366991,125.346414156 992.148524282,129.056106658 995.508963293,131.306136168 998.373592186,135.102656403 1002.33230833,139.230961844 1006.21484916,142.696452762 1007.46634646,149.270422741 1009.40012326,156.708899289 1013.64867004,159.352767687 1018.95783227,156.884560882 1021.49141404,158.223963456 1022.21988796,162.646593927 1025.11341333,167.501604544 1023.81350993,168.65748291 1019.97482539,167.236976453 1016.36628993,168.521247163 1014.83749788,172.471769664 1016.44712218,176.793322646 1019.48510903,178.844857186 1021.44115919,182.145780161 1022.83295824,187.52959094 1025.27313243,189.776644514 1028.785473,186.724556608 1036.30944187,181.081535847 1041.17480923,177.715790317 1042.87568729,172.485603853 1045.62324189,165.353902019 1049.39486632,160.257165569 1052.71942864,159.880260869 1057.94046334,161.421737278 1065.24773142,166.518705702 1070.91815377,173.843467523 1074.10346782,178.139599116 1076.83113238,182.20644305 1079.34881803,186.124569945 1081.20687678,191.580858283 1082.89008825,196.988791942 1083.21975259,202.287579327 1083.59590659,208.864257646 1084.02850512,216.066544308 1084.7875932,222.357389423 1085.35436988,232.262595968 1085.4757255,238.517297146 1086.36556202,243.71805651 1086.99207036,252.149538242 1087.36480101,258.610294084 1087.45295758,266.526939573 1087.88962916,271.820134481 1087.27576348,276.794848248 1087.52011857,281.861591065 1089.09175091,288.098396751 1089.52847734,297.470037338 1089.07222897,306.080763931 1089.49741036,315.110410534 1090.9375211,323.424337759 1092.14233376,331.71226163 1094.41473598,338.848401062 1094.92309553,344.563586725 1094.09979988,351.421357588 1092.35102564,356.934939481 1092.46470091,363.714662491 1095.21813128,371.567809722 1096.6242587,377.122089229 1097.65602354,381.410920546 1097.46138588,386.501116932 1097.63595871,396.980597456 1098.45022175,409.300741743 1099.44862905,416.577541307 1098.76006594,421.393053203 1097.9610775,427.393197323 1096.75852666,436.628119333 1097.05026474,449.837629754 1097.93439413,459.593404783 1098.75748758,464.513519365 1102.44866379,467.799451847 1105.57851849,471.865448284 1105.99439097,479.570105813 1106.06479115,494.377537327 1106.81463662,505.568702239 1107.77130054,512.743809991 1108.40092215,524.155220767 1109.37850947,533.614605046 1111.45381009,538.674527425 1110.60007693,542.010380404 1108.93148167,545.321692419 1106.39300218,547.697090928 1104.00897454,547.133583404 1102.39310353,549.682147896 1102.52618727,557.463122098 1103.88524156,564.812070569 1104.42034264,571.553445455 1104.69649079,575.856072911 1104.51000666,578.100119999 1106.68456662,579.06370342 1108.6369163,581.353089256 1108.77418305,585.003551626 1110.50716505,588.779547509 1113.17976213,592.543805005 1114.05317451,597.970965181 1114.49275561,605.046742611 1112.52309685,610.682662351 1113.27271866,614.326301273 1117.54485192,618.177005542 1121.46292476,624.792299074 1123.21299277,625.864499508 1123.5481157,622.207317741 1124.88971712,618.265821371 1125.79386139,615.104114482 1128.89385332,612.937940932 1132.84445183,612.937190352 1135.1948689,615.089098952 1135.06787064,617.972652796 1134.77074013,620.502851658 1132.10021751,622.579152875 1131.31286805,625.50088806 1133.36870003,627.89901437 1132.44540991,629.437940721 1128.47565967,630.539561241 1126.08147834,631.476666571 1123.20252694,630.802552237 1120.21614172,629.333735613 1117.33843531,625.649758008 1114.69587859,626.382166173 1114.74275288,630.514102972 1114.82044609,636.16112508 1117.1829192,640.350562915 1122.34590372,639.859325137 1127.13905841,639.038645781 1130.80864362,637.146534878 1132.70847093,639.629969853 1134.35466865,642.957707024 1133.58497391,645.581288534 1132.10946721,650.013838695 1129.72096123,652.444816789 1129.65844785,654.534838931 1132.14314908,656.41446972 1130.4555998,658.311439375 1128.11779406,659.759162942 1127.07385439,662.030661334 1123.35394308,663.217199887 1119.3675383,663.676735156 1117.45859841,661.705656475 1116.71548775,658.928352408 1112.81433865,658.831574479 1112.0841426,661.188580109 1114.5570234,663.817786856 1113.84536595,668.326443071 1110.95040995,670.382137593 1107.42181972,670.178707112" stroke="#000000" stroke-width="2" /><polyline fill="none" id="land_4d154" points="1268.03586417,1656.76853373 1263.91984497,1653.33852606 1258.73705411,1646.04958696 1255.4995505,1639.107314 1251.19898087,1630.70368022 1249.87776427,1620.64019643 1250.26303676,1611.55713813 1252.24589571,1607.38854394 1254.73061709,1604.28322249 1258.74758975,1602.25677847 1258.29701885,1598.78731871 1254.04241007,1595.28016162 1249.7085519,1595.45380171 1247.02188731,1596.35076971 1244.74210469,1594.00472746 1241.55008844,1594.24637967 1237.68883485,1595.6027418 1235.05395095,1596.58924334 1232.66146363,1594.17457467 1229.5733434,1591.93962748 1227.86586313,1587.57805724 1227.64334068,1580.81716052 1225.61104842,1577.60529967 1220.29703346,1576.85008469 1215.81764713,1573.19464649 1214.92587759,1564.09274151 1213.66218907,1554.29240967 1210.08938739,1550.40183975 1207.32152621,1547.57178339 1203.65064053,1546.7211295 1200.44821694,1544.43915044 1200.82339186,1540.46519796 1199.77334953,1537.81800389 1197.77568438,1534.04060198 1197.49459591,1523.02908045 1196.56974107,1515.29699181 1191.99236946,1510.98452304 1190.33206111,1507.2954821 1194.35575486,1504.31916848 1202.17154826,1500.55249548 1203.97349937,1494.38338119 1200.96353855,1489.70140405 1206.19385833,1486.28422054 1220.48687935,1484.27058984 1225.97562409,1481.46101661 1223.02410456,1479.36501302 1216.881438,1478.27915785 1214.10425539,1476.47364603 1211.2159849,1476.23840297 1207.87899107,1478.21234429 1205.22201111,1477.59156612 1203.5175502,1475.0426306 1200.23081498,1471.61404434 1197.35020579,1466.7985502 1194.23154976,1463.90712212 1191.54068798,1460.96553469 1187.68494223,1458.64318245 1185.2607954,1456.13730382 1180.5053793,1456.64053405 1173.2279676,1455.45239095 1176.15543216,1451.59984406 1187.43640786,1448.52539591 1190.72681424,1444.80676168 1184.74317891,1443.69600099 1173.12392039,1443.53774038 1166.78087014,1441.85534527 1165.98065395,1436.15751367 1165.31338754,1428.03915879 1164.04148912,1424.43713519 1165.12029763,1421.86689861 1165.82952054,1417.3345558 1166.51611294,1409.80781678 1166.32469619,1401.71427386 1164.83244979,1393.35111686 1161.75422778,1388.68490278 1159.82195729,1385.81790429 1157.39125582,1385.85438808 1154.7037803,1388.89193052 1147.64699887,1388.02860036 1142.5086946,1382.1307823 1141.70541873,1375.51770167 1142.29572335,1370.27398812 1142.10494148,1365.93139997 1142.74313121,1360.59858295 1142.71199109,1353.4223361 1139.09646266,1349.0992798 1129.51286547,1347.69412048 1120.46953539,1345.12705703 1114.83453483,1342.64794863 1108.17372526,1342.67859085 1105.44501757,1345.07353442 1105.847604,1347.47272572 1103.89975609,1347.74364801 1101.558262,1345.69832517 1098.24727003,1343.69113105 1093.2643248,1340.97242833 1088.43997559,1339.20956311 1085.34579137,1336.51207971 1086.14518602,1334.01085155 1094.39048282,1334.1520607 1109.7042624,1331.4989901 1113.99057331,1324.91717628 1108.5381197,1322.11054774 1103.96200715,1321.05551474 1100.47165742,1321.29789911 1096.82959978,1322.26070949 1094.42897355,1324.21342993 1090.5768965,1324.07426771 1084.73527419,1321.65956996 1081.80982752,1315.33688994 1082.13481366,1308.33075227 1083.66741291,1303.09931724 1082.22261527,1302.15642615 1078.83583076,1306.4210143 1077.27981069,1312.24847726 1075.85045513,1318.15744719 1071.20722859,1318.61527793 1066.8799676,1315.66908513 1063.12272674,1314.32856052 1058.13401685,1313.30625623 1051.00507357,1314.47684548 1047.54651659,1312.3975876 1048.66976738,1308.46826233 1051.23973079,1306.38395985 1054.0266958,1303.0284832 1059.03053393,1297.43361599 1062.69680211,1291.92858185 1066.00629383,1287.86341204 1072.79293283,1286.89898154 1079.62755282,1287.83425859 1082.89122419,1291.39960096 1084.7370768,1294.78604244 1089.05530573,1294.56474018 1092.6727714,1288.81730494 1094.0574774,1284.31700722 1092.50199878,1280.18493095 1089.41838998,1278.93487584 1088.55476909,1276.93249792 1091.23253373,1272.66392702 1091.11772611,1269.26611682 1090.08638429,1267.57536728 1093.06969659,1266.39413171 1093.11058431,1264.15099785 1090.13487235,1261.97286732 1090.39365189,1259.34928623 1090.98353413,1254.99721461 1093.09987676,1250.03013953 1092.27069665,1246.14715213 1085.66615155,1245.52688073 1079.21444368,1246.10428711 1074.78987747,1243.95290809 1070.9268113,1240.28463729 1070.41980945,1235.55757836 1068.25100301,1231.63657402 1064.78713949,1229.26558076 1065.24105432,1227.23741368 1068.05353525,1225.97938155 1067.73411278,1223.78697299 1066.12400673,1221.64593115 1066.51683424,1218.44426516 1067.51026313,1215.32969821 1065.6188198,1211.21728859 1061.43854977,1209.7776377 1057.76434034,1208.3936899 1058.11743368,1206.62935209 1057.6180612,1204.61815555 1055.27905753,1203.23427109 1055.53289018,1200.67206614 1055.50641808,1196.54166518 1054.85049087,1191.94231103 1056.19616311,1188.52757527 1056.14964297,1185.11625189 1055.04284493,1181.9588565 1056.31095408,1178.84920326 1057.7151289,1176.00604757 1058.98835813,1173.62671278 1058.78427177,1169.39904147 1057.70875138,1164.80685927 1054.31628312,1160.97255083 1051.20334573,1157.40190077 1050.72858204,1151.00463259 1051.69889184,1145.71418821 1051.71288517,1140.2110978 1050.87453261,1133.73695016 1050.32906712,1123.61157408 1047.04230068,1117.79230135 1039.15561495,1117.60352688 1031.8753893,1116.21153546 1030.83115085,1110.38892032 1034.04773883,1106.0321056 1039.53386401,1104.8145106 1044.44000985,1103.27685073 1046.75037536,1097.38569117 1044.76011141,1092.98580572 1039.72027973,1092.66051827 1036.29297317,1094.97928267 1035.20446415,1097.62763524 1032.20662723,1098.35123668 1029.1357016,1092.27676156 1027.81354649,1077.36517546 1027.11355169,1065.55750986 1027.34485451,1059.7200864 1027.51076673,1054.16301493 1028.08238038,1050.05747119 1025.8767425,1046.72185541 1024.18370172,1042.5129104 1024.28857383,1037.1679431 1023.61300086,1028.12008384 1022.78700171,1013.34861328 1022.11133369,1004.91865066 1022.27506475,999.125137802 1021.46332625,991.372882975 1021.35962981,978.289411482 1022.57103714,968.574576615 1021.81855309,957.662334291 1020.77337256,947.230188776 1019.71185181,939.176573119 1019.90368648,931.684197902 1021.04197992,927.000541917 1020.83270188,922.373844717 1020.58166588,915.831628315 1020.60515051,911.106065035 1022.4553466,905.835746596 1022.75347105,901.228736592 1020.61775474,898.105156114 1020.50387457,890.831429859 1021.6907356,884.579595095 1021.70189501,876.91306101 1020.67892363,869.447248785 1021.03962454,861.190238787 1022.98592717,856.680797194 1023.9414102,848.833547065 1025.00227895,838.832870562 1024.59497725,823.376718212 1023.77436826,802.256730519 1022.87228119,789.040808736 1022.54167072,778.333428981 1021.84455055,771.164817047 1021.32293602,766.494023175 1020.35047147,762.985880083 1020.74824175,759.192315761 1020.72129741,752.726775915 1019.897223,742.8639859 1019.95417396,730.890951538 1019.50279823,718.051508726 1018.10226279,707.53622428 1017.57065491,697.348313772 1017.11560548,690.687423401 1017.82715325,682.416900521 1019.32677648,667.981151608 1022.610763,657.381045772 1025.93023652,654.266255938 1031.46076698,653.24592079 1041.55136439,654.682877039 1047.17917324,655.516158302 1049.70482828,657.883167668 1050.82330187,661.020856858 1054.11790661,663.944088709 1059.73596682,667.436671354 1063.98206001,672.34860425 1068.58663348,675.273040023 1074.96343892,678.507841898 1079.10081135,680.713546767 1084.0253175,681.942138684 1089.2706071,684.891460222 1092.92052416,688.88042545 1095.26310084,691.943625268 1096.45946336,696.74272265 1097.4397375,700.898938949 1096.91629542,706.032532959 1100.28393426,710.864983577 1109.97697172,711.6519663 1116.85839523,708.405403434 1120.23682513,706.945937943 1123.08266333,710.661474587 1121.07173994,713.139092081 1117.53497869,714.415735868 1116.6010219,717.556531699 1119.96339998,721.030829872 1124.2156145,727.804338947 1127.75076544,731.2745721 1130.55513628,730.420931467 1130.13436186,727.641281399 1132.12031229,727.248878185 1136.10735402,731.164247424 1140.4319308,733.722008324 1143.53427711,733.895435837 1144.85759248,737.186598263 1143.51893357,740.749696155 1140.96798859,739.864037286 1138.74003308,738.047643232 1135.55289569,739.102067404 1134.19910669,741.892240307 1134.07586271,745.657504253 1136.83394767,750.805871999 1137.70421106,756.166782024 1136.29717586,760.840100304 1130.83963746,763.963050011 1131.81146336,767.227181731 1136.19846759,769.959397749 1138.10461098,776.865324355 1140.53015715,776.576531955 1142.70565452,769.806451173 1144.38376732,771.515349178 1145.07512795,778.857210227 1148.89568419,786.200087523 1152.10116078,788.477099063 1154.17161563,792.210030716 1155.21774865,798.498318367 1156.31986407,803.737879471 1156.11753043,810.668109133 1154.64125631,815.754878678 1153.48263604,820.119087601 1150.758886,826.119642248 1149.93398679,830.09300308 1152.08451578,829.295961119 1155.12469883,824.106048834 1157.56111721,819.577156253 1159.55633031,814.684914073 1164.03742502,807.759448921 1169.40764746,800.714451468 1175.61629779,801.267822248 1181.73150133,804.809507252 1182.8448773,808.034054256 1181.35458418,811.915861429 1181.99271843,817.586473657 1182.98647013,823.203771779 1186.2030977,827.923879211 1190.19564723,828.764115994 1193.79492704,826.65991687 1198.58615862,827.785661209 1199.03136537,832.022435223 1196.74663322,836.777205571 1196.70953551,841.213970321 1201.19861747,844.947946241 1208.92981046,845.433682613 1212.77918714,843.958341279 1216.7446383,843.28805078 1219.64625747,841.83002252 1223.05689352,840.556049308 1227.44117954,838.855972823 1232.36679953,837.828378797 1237.02543431,837.614801096 1241.42693388,840.450959004 1241.4789584,844.795482924 1241.70936171,848.525151651 1243.23429134,851.227069686 1242.86559682,854.250907593 1243.00907153,858.036023106 1243.82380409,862.514382433 1247.27811336,868.646968551 1249.61781459,875.192330285 1251.73932585,879.326157104 1252.76070588,884.00439505 1253.98150925,887.441917139 1254.77079489,890.674073956 1257.08788717,894.695452716 1258.77714229,900.698556872 1257.48350277,905.176297327 1259.11649791,908.448972566 1263.32145803,911.014853222 1265.95959435,915.137692955 1268.58913794,919.555922964 1270.63460905,922.186886927 1276.11096044,922.635551575 1283.29554451,924.001924624 1286.58543525,927.354115053 1289.06544743,930.480448885 1292.44606563,933.936444644 1298.87517319,937.1591889 1304.86108967,939.724008553 1312.84580681,941.343219072 1314.57211157,942.567637514 1309.61760271,943.614723338 1305.77303227,946.243700976 1308.50365163,949.441348951 1315.72405834,951.934834989 1319.76236303,954.537480973 1325.64259137,954.897036977 1332.14595167,956.94778827 1332.74600515,962.423501532 1330.00871948,966.397815661 1329.52293244,970.115783957 1330.37616343,975.548001773 1327.99279008,982.708630856 1320.47462928,986.371117904 1309.84142185,989.890862897 1306.31408913,997.370851772 1307.41664347,1002.35054439 1306.16926792,1007.92817616 1301.05198464,1012.92474212 1292.63176897,1014.64113755 1287.15814069,1018.85120614 1285.67010675,1028.42622834 1285.73571571,1036.62360991 1289.79809018,1041.70020257 1298.38929082,1044.01289037 1303.39474345,1049.5674328 1304.84199276,1060.31618589 1304.45821431,1066.76766244 1304.41895731,1072.00060395 1305.01631429,1076.9724904 1307.38018892,1078.59871075 1310.00679883,1076.58224618 1313.22703283,1075.60761777 1314.40613448,1077.8945536 1313.14889002,1081.25112527 1312.9621613,1085.27529439 1312.8885193,1090.18903626 1313.26205844,1094.75814219 1312.18964214,1097.26169772 1311.10410661,1098.83374639 1308.16253783,1096.33395977 1305.59788758,1089.78702895 1302.72245456,1088.97844831 1299.60843016,1094.60995383 1298.24771603,1101.52633924 1296.60948168,1107.47901544 1291.90202815,1109.94159452 1290.09205491,1112.2924022 1291.79004862,1114.99630133 1294.20530098,1119.67905267 1295.73708311,1123.19637831 1294.58273165,1127.07156158 1295.36121866,1132.00938629 1298.31859861,1134.28170368 1302.8493933,1136.96982446 1307.88216874,1143.04004312 1309.14863521,1154.44384448 1306.48278945,1161.41013009 1300.83394985,1165.21711267 1294.8816417,1168.71707691 1288.9331342,1171.39453245 1287.86445967,1175.68984966 1290.31722835,1179.988892 1290.46938143,1183.49201634 1292.50762903,1185.23681733 1296.24640393,1186.00808604 1299.01003805,1188.78086673 1300.45011279,1191.38901782 1299.17186351,1196.93981045 1296.39088179,1204.98155262 1291.0717346,1207.2424058 1284.33700119,1204.9392636 1277.35799033,1203.41887729 1273.85748545,1201.89201867 1272.99722411,1199.52548801 1265.94662175,1197.1622293 1253.15740763,1197.75193241 1248.79023523,1200.54080533 1249.40511551,1203.01752022 1248.89452047,1205.72571762 1251.16193535,1208.98451341 1257.25552165,1210.84034386 1260.44601614,1213.25363576 1258.46488173,1216.20671271 1254.13466158,1218.65244736 1254.28456563,1221.23401874 1258.09764371,1222.81718704 1261.41498411,1224.0478196 1264.73416585,1224.07129966 1270.32234499,1224.31335359 1280.43077965,1224.05670472 1287.60150657,1223.82626932 1292.23442973,1222.32455735 1296.92222129,1221.82840899 1300.41631076,1225.14571313 1300.32971005,1235.35570939 1298.9983355,1242.09133544 1299.29804974,1247.10618551 1298.61774839,1252.41473762 1296.33886074,1254.53320952 1294.56925661,1257.11322956 1290.96208351,1259.80687916 1289.04921993,1263.31700087 1287.36741589,1264.45422831 1285.56863512,1262.21706832 1284.3094761,1263.20493225 1284.92115204,1267.12002888 1283.60600054,1273.21792589 1279.38274773,1279.28354931 1274.96407804,1281.49097665 1269.99567166,1280.40498149 1263.60354375,1281.0771136 1258.24903293,1285.0168662 1254.06894383,1287.54478262 1251.54868039,1290.93872672 1251.8731302,1295.97848587 1250.7094623,1299.39283839 1247.72184809,1301.97100663 1246.91969131,1306.64420756 1245.16719406,1311.97548499 1241.36330711,1315.23836894 1237.25663693,1320.07055109 1233.94425551,1326.45504229 1233.74180651,1333.24930871 1233.9412455,1338.42687607 1237.77095494,1340.89722433 1247.97137109,1340.57712931 1257.85727748,1339.4331648 1262.10942662,1337.19744224 1265.30419871,1336.54641981 1269.95298095,1339.47978719 1276.89978347,1342.36249581 1277.31038159,1346.72899296 1273.98351354,1347.76325663 1271.66361649,1345.72113357 1269.71700991,1345.29422526 1269.91300616,1347.47210644 1272.07925098,1349.73725824 1272.6239066,1352.78210297 1271.64168214,1355.8080603 1272.47246139,1359.14920571 1272.55368066,1363.61559435 1271.25127281,1366.67739472 1267.05951896,1370.21999539 1264.59392409,1373.71782636 1261.92888641,1374.17383078 1259.40392893,1372.59912169 1256.8279357,1372.59699681 1254.49394671,1374.24703768 1250.61638208,1375.62289495 1247.48165995,1378.3636495 1243.72431605,1381.26267624 1236.53830173,1379.83618505 1233.44144953,1374.11283678 1229.89738017,1370.26771398 1223.88985739,1370.99800213 1221.8005373,1374.64268443 1220.69813418,1379.38034072 1220.45823046,1385.54851994 1221.3436503,1389.23913608 1223.0136793,1391.24373004 1221.53087689,1395.7210776 1223.59367643,1401.38828102 1231.43186007,1404.72151756 1236.34556513,1407.5735929 1235.30591214,1410.40773908 1233.63483954,1414.66132739 1234.25350494,1419.81828697 1237.82368522,1422.85056866 1243.802035,1427.59751982 1246.29760994,1438.12764245 1247.08861933,1444.22318914 1250.49113428,1446.73471119 1255.51221167,1446.89560128 1259.51330935,1447.90753751 1260.07470077,1450.60251183 1256.61682248,1453.73132517 1254.78495301,1457.4924977 1252.21449211,1460.0561807 1252.88784121,1462.53109445 1255.58707707,1462.877359 1257.58571201,1463.82010676 1255.13780696,1465.80230343 1251.71207276,1467.48795482 1252.58958135,1470.91523174 1259.72447792,1472.22022277 1264.52987756,1471.61699164 1266.04129466,1473.78272138 1264.83752812,1477.56168778 1261.20003699,1479.50832373 1258.12612126,1481.90668058 1259.31709321,1484.66383281 1264.32005073,1487.69279757 1266.33814135,1493.32018336 1266.91480831,1498.25324346 1266.85397818,1501.44297597 1269.42055355,1504.23694983 1274.89456585,1505.80314251 1276.95240441,1507.51317523 1272.78283841,1508.21407148 1268.99485247,1508.34723379 1269.96822687,1510.45248242 1274.70438841,1513.23940198 1277.90072235,1517.0985222 1282.97332148,1518.77692862 1286.38373709,1519.31560827 1286.76806797,1524.93210542 1288.39428578,1529.64694707 1290.84719806,1531.1154867 1290.8631719,1532.87348946 1288.70853234,1534.00024033 1288.49360039,1535.58878976 1292.11270584,1536.22459692 1297.64371428,1539.11901932 1304.08284196,1542.19231833 1308.31673702,1546.94694149 1308.19370847,1551.55302756 1306.4614355,1555.08342522 1307.20575422,1562.50836481 1308.6704062,1571.3304973 1313.52055693,1576.1855271 1322.64238976,1578.76770217 1328.2786827,1583.59713851 1334.3124976,1587.2543373 1346.63165676,1587.11057999 1355.00935386,1588.11373317 1360.15885676,1590.43502933 1365.04956069,1591.190154 1372.69418457,1593.89513129 1376.52562931,1596.37415437 1373.53648464,1600.27382865 1370.85229509,1603.12744096 1366.98330776,1604.53428698 1362.85373419,1607.8227548 1359.72293732,1613.59033986 1354.60676791,1617.28556077 1349.8977795,1615.51966583 1349.46369345,1612.55362734 1347.74107198,1609.03604452 1345.25058742,1606.96356186 1339.72794921,1609.35061731 1330.6993698,1611.19692138 1325.45956751,1610.42655112 1322.4151441,1612.04596116 1321.7304776,1615.25755128 1320.386692,1619.43993484 1318.47042902,1624.10981663 1314.95904617,1627.6308924 1313.73362575,1631.34712603 1314.46195176,1634.44970571 1313.37529106,1638.24670994 1311.50699073,1642.77534601 1308.54265148,1646.93256172 1307.28633199,1649.82275341 1303.91186424,1650.65462168 1299.6714322,1651.24783776 1296.3823239,1649.74773243 1292.33403552,1649.80500781 1288.49990217,1651.06644232 1285.56409073,1649.93040645 1282.13878095,1650.77672862 1278.23095844,1653.81750263 1273.66333027,1655.45204327 1271.04339892,1656.8318089 1268.03586417,1656.76853373" stroke="#000000" stroke-width="2" /><polyline fill="none" id="land_4d542" points="1212.70087933,1751.42310527 1210.51491796,1749.93309728 1209.32009429,1746.58576988 1210.49270689,1743.37589983 1210.29922104,1740.0774837 1208.95312084,1737.35810671 1209.41479292,1732.52814494 1207.53036408,1728.53996697 1204.92206408,1726.13439304 1205.09335742,1722.67643787 1205.21157426,1718.21409508 1205.30381971,1714.30877392 1204.24043375,1710.43618255 1206.39054454,1705.48106093 1210.52926748,1703.50812328 1213.21682702,1701.33355839 1211.11962854,1698.06498525 1204.40760037,1695.62176147 1204.67673605,1692.40392202 1211.13862898,1689.80275254 1211.15675221,1685.97074492 1204.52460829,1683.22511501 1202.42900121,1680.45718692 1206.41700005,1678.75291535 1212.73970162,1677.49555512 1216.38656034,1674.42111419 1222.68333756,1673.64494353 1230.01570478,1674.1720813 1237.53348248,1675.07128 1243.37200307,1679.51377741 1241.98671642,1683.30234204 1237.11589506,1689.7610795 1232.22900857,1695.87344621 1231.32618219,1700.79404825 1232.2539142,1705.25820315 1234.18525782,1711.81429192 1233.43924847,1721.60406161 1229.69767643,1725.53923638 1222.8077651,1725.69536817 1216.93475226,1728.35482201 1217.14353076,1731.53616285 1220.36544576,1736.79147654 1224.83930894,1744.270904 1220.72559744,1747.82126006 1216.03332912,1750.20485593 1212.70087933,1751.42310527" stroke="#000000" stroke-width="2" /></g></svg>