<?xml version="1.0" encoding="utf-8" ?>
<svg baseProfile="full" height="1400" version="1.1" width="1200" xmlns="http://www.w3.org/2000/svg" xmlns:ev="http://www.w3.org/2001/xml-events" xmlns:xlink="http://www.w3.org/1999/xlink"><defs /><g id="years" /><g id="slr"><polyline fill="none" points="560.0,200 532.584417131,205.201815058 529.917446064,215.815362286 530.468027303,231.25055625 545.416964327,246.875 535.765750103,262.5 521.605143044,278.125 527.212177437,293.75 519.506994023,309.375 517.981169002,325.0 501.317457452,340.625 490.337938632,356.25 498.203755437,371.875 531.97520997,387.5 530.623622171,403.125 512.155676848,418.75 502.029588155,434.375 490.268293155,450.0 486.71148404,465.625 468.456594988,481.25 449.681079968,496.875 435.19447224,512.5 418.760058951,528.125 428.081078019,543.75129058 443.112461464,559.579855333 453.953828747,578.6096618 468.25776338,602.660484364 436.338184275,621.680113765 454.386245917,637.498943071 490.905657083,653.125 486.890737197,668.75 438.908760796,684.375 384.004396852,700.0 386.772701813,715.625 413.87375971,731.25 415.905667434,746.875 413.069888695,762.5 437.392947622,778.125 445.137305315,793.75 431.686751245,809.375 405.984142154,825.0 381.902814243,840.625 375.402421537,856.25 398.780442881,871.875 379.831423454,887.5 326.578621438,903.125 315.443398067,918.75 323.898485167,934.375 374.921944586,950.0 407.297856669,965.625 392.321096177,981.25 376.541093961,996.875 346.86002735,1012.5 318.113983304,1028.125 294.291892508,1043.75 320.407837316,1059.375 360.998296878,1075.0 338.724863633,1090.625 299.74160036,1106.25 269.847207169,1121.875 237.575422642,1137.5 241.855872057,1153.125 258.863459315,1168.74944375 260.181586755,1184.18463771 269.648297125,1194.79818494 269.648297125,1200" stroke="#000000" stroke-width="3" /><polyline fill="none" points="560.0,200 542.377927983,205.20266628 522.549785728,215.815470309 528.713348173,231.25055693 527.455682738,246.875 498.104660923,262.5 495.820389472,278.125 479.68020394,293.75 482.328678416,309.375 460.895801901,325.0 430.229775929,340.625 472.058814213,356.25 501.444681973,371.875 515.054531052,387.5 508.342480992,403.125 511.461095826,418.75 506.696643578,434.375 511.462650341,450.0 520.993694351,465.625 485.316182044,481.25 457.762899331,496.875 431.293778584,512.5 394.204431952,528.125 371.078735322,543.75 376.357588546,559.375 395.110408054,575.0 455.829655309,590.625 458.212673389,606.25 438.213054739,621.875 454.349000784,637.5 484.347905452,653.125 492.424491225,668.75 449.762806745,684.375 392.879621561,700.0 386.116657891,715.625 414.183508498,731.25 429.198402207,746.875 438.217806994,762.5 455.552702797,778.125 437.359504274,793.75 416.717001692,809.375 389.908819795,825.0 380.791927698,840.625 384.334062943,856.25 383.689543717,871.875 352.430224078,887.5 361.642456525,903.125 368.24574818,918.75 343.766972747,934.375 330.978705914,950.0 369.667660927,965.625 405.439276817,981.25 397.627176796,996.875 382.15312141,1012.5 396.051616748,1028.125 380.902476597,1043.75 382.481334679,1059.375 398.544115539,1075.0 386.199485002,1090.625 356.243149883,1106.25 359.630337293,1121.875 369.367776144,1137.5 343.900653809,1153.125 311.444090902,1168.74944307 259.197172471,1184.18452969 237.44392649,1194.79733372 237.44392649,1200" stroke="#000000" stroke-dasharray="5 2" stroke-width="3" /><polyline fill="none" points="560.0,200 521.787779935,205.20266628 522.10090919,215.815470309 529.285603148,231.25055693 523.984258132,246.875 513.950335306,262.5 522.968793485,278.125 498.566895663,293.75 508.453143968,309.375 503.360301602,325.0 485.309435215,340.625 489.805093287,356.25 483.805062758,371.875 518.585922844,387.5 539.278413942,403.125 532.151050563,418.75 513.314880194,434.375 505.734671166,450.0 502.912573903,465.625 482.129166789,481.25 465.989206833,496.875 446.186432983,512.5 409.241326526,528.125 391.897342286,543.75 403.697080237,559.375 420.694697698,575.0 466.089973599,590.625 474.872191077,606.25 463.410000547,621.875 466.924608479,637.5 468.270269666,653.125 473.679089474,668.75 438.009058637,684.375 389.785897507,700.0 392.793373118,715.625 398.015260769,731.25 395.524034471,746.875 415.566504822,762.5 443.165701587,778.125 442.207410561,793.75 409.261104289,809.375 364.388334881,825.0 356.124035461,840.625 364.268506333,856.25 360.812942283,871.875 351.096003025,887.5 377.61758026,903.125 367.129657169,918.75 352.100121592,934.375 321.535902716,950.0 333.005098699,965.625 359.515507432,981.25 364.368727797,996.875 377.110958972,1012.5 374.711578158,1028.125 343.93290611,1043.75 347.311222907,1059.375 343.659668519,1075.0 341.937701119,1090.625 328.674605906,1106.25 334.496227581,1121.875 328.912182727,1137.5 298.275904056,1153.125 271.030429383,1168.74944307 227.046795882,1184.18452969 205.296832029,1194.79733372 205.296832029,1200" stroke="#000000" stroke-dasharray="2" stroke-width="3" /></g><g id="inundation"><polyline fill="none" points="640.0,200 653.961526902,205.20266628 654.123688324,215.815470309 650.466060257,231.25055693 651.281838543,246.875 655.459952497,262.5 652.135058578,278.125 650.971539087,293.75 650.260721042,309.375 650.046905609,325.0 650.073499921,340.625 657.113984183,356.25 656.995083463,371.875 648.314365843,387.5 646.455915575,403.125 650.78129002,418.75 653.579440428,434.375 655.947318471,450.0 657.00143842,465.625 658.988685601,481.25 664.716526632,496.875 673.429911489,512.5 684.432137957,528.125 680.54916584,543.75 666.429592261,559.375 660.243564233,575.0 646.662732113,590.625 640.58199464,606.25 644.021297335,621.875 655.841688518,637.5 663.955553148,653.125 664.9755574,668.75 685.431769898,684.375 712.194017747,700.0 698.295370813,715.625 679.126007445,731.25 675.831847071,746.875 676.539035114,762.5 668.316216723,778.125 663.922438188,793.75 660.925884421,809.375 646.750227146,825.0 640.391299309,840.625 640.015195064,856.25 641.93009451,871.875 671.838394738,887.5 733.199482829,903.125 732.615423765,918.75 711.445305213,934.375 680.011202563,950.0 668.478289139,965.625 680.866149665,981.25 693.928595637,996.875 727.590900167,1012.5 757.992549941,1028.125 769.451379565,1043.75 756.347825894,1059.375 729.846803326,1075.0 731.506969308,1090.625 749.939122997,1106.25 788.190121456,1121.875 821.408991353,1137.5 798.649530785,1153.125 766.412412371,1168.74944307 774.682027286,1184.18452969 785.108235146,1194.79733372 785.108235146,1200" stroke="#000000" stroke-width="3" /><polyline fill="none" points="640.0,200 641.307273207,205.20266628 642.403623851,215.815470309 641.900340931,231.25055693 644.183190657,246.875 645.640290255,262.5 643.81465681,278.125 646.577023592,293.75 647.389780187,309.375 645.271280806,325.0 645.386049445,340.625 649.224010598,356.25 651.013169565,371.875 644.775066873,387.5 642.487908459,403.125 640.935011785,418.75 640.060831459,434.375 640.180025342,450.0 642.862349705,465.625 647.921199259,481.25 649.137578678,496.875 656.59543411,512.5 671.807863933,528.125 688.228548367,543.75 676.502134651,559.375 653.694470472,575.0 642.336635443,590.625 640.368552503,606.25 644.736463044,621.875 654.547946985,637.5 656.241416175,653.125 659.133835602,668.75 672.641489269,684.375 703.807747156,700.0 695.939924161,715.625 672.931693394,731.25 672.95574654,746.875 672.854559724,762.5 660.93260772,778.125 664.828720073,793.75 662.558520492,809.375 646.85793154,825.0 640.394953102,840.625 640.473102857,856.25 649.008992283,871.875 683.592577042,887.5 716.81546018,903.125 715.946683872,918.75 769.770170898,934.375 799.015338939,950.0 746.362578574,965.625 701.599340336,981.25 715.925746803,996.875 756.316334494,1012.5 740.875364477,1028.125 749.550976003,1043.75 756.358748351,1059.375 752.224061752,1075.0 789.786091615,1090.625 822.536255507,1106.25 788.214404562,1121.875 765.517232686,1137.5 812.44605363,1153.125 865.440224516,1168.74944307 941.431910312,1184.18452969 985.023649866,1194.79733372 985.023649866,1200" stroke="#000000" stroke-dasharray="5 2" stroke-width="3" /><polyline fill="none" points="640.0,200 640.0,205.20266628 640.0,215.815470309 640.0,231.25055693 640.000982642,246.875 640.200784371,262.5 643.759198511,278.125 651.273085044,293.75 653.132681866,309.375 658.235197663,325.0 659.38426064,340.625 660.18233474,356.25 665.270977785,371.875 653.190900057,387.5 644.261941721,403.125 644.859348378,418.75 645.602704743,434.375 649.229658189,450.0 645.66434085,465.625 646.087226069,481.25 650.884387242,496.875 660.911706679,512.5 661.529803955,528.125 663.553906575,543.75 664.035594475,559.375 657.254820235,575.0 644.928747536,590.625 640.269763627,606.25 640.405096555,621.875 647.840375083,637.5 668.698966755,653.125 675.572654119,668.75 672.392038063,684.375 694.853738158,700.0 687.490195342,715.625 690.789145745,731.25 693.061390165,746.875 667.924917611,762.5 652.621234888,778.125 659.066426233,793.75 660.658509446,809.375 646.748630568,825.0 640.393158941,840.625 640.292441138,856.25 645.002427566,871.875 657.922746083,887.5 675.731786088,903.125 700.428975582,918.75 717.699217866,934.375 748.391625547,950.0 738.817341003,965.625 714.595589403,981.25 714.47256177,996.875 706.565192065,1012.5 689.470729448,1028.125 700.159910515,1043.75 717.682579603,1059.375 737.213675531,1075.0 739.068586363,1090.625 742.489496079,1106.25 718.023552236,1121.875 706.56784673,1137.5 736.057143768,1153.125 762.962746242,1168.74944307 790.409652886,1184.18452969 809.318478824,1194.79733372 809.318478824,1200" stroke="#000000" stroke-dasharray="2" stroke-width="3" /></g><g id="axis"><line stroke="#000000" stroke-width="2" x1="560.0" x2="575.0" y1="200" y2="200" /><line stroke="#000000" stroke-width="2" x1="625.0" x2="640.0" y1="200" y2="200" /><line stroke="#000000" stroke-width="2" x1="560.0" x2="575.0" y1="276.923076923" y2="276.923076923" /><line stroke="#000000" stroke-width="2" x1="625.0" x2="640.0" y1="276.923076923" y2="276.923076923" /><line stroke="#000000" stroke-width="2" x1="560.0" x2="575.0" y1="353.846153846" y2="353.846153846" /><line stroke="#000000" stroke-width="2" x1="625.0" x2="640.0" y1="353.846153846" y2="353.846153846" /><line stroke="#000000" stroke-width="2" x1="560.0" x2="575.0" y1="430.769230769" y2="430.769230769" /><line stroke="#000000" stroke-width="2" x1="625.0" x2="640.0" y1="430.769230769" y2="430.769230769" /><line stroke="#000000" stroke-width="2" x1="560.0" x2="575.0" y1="507.692307692" y2="507.692307692" /><line stroke="#000000" stroke-width="2" x1="625.0" x2="640.0" y1="507.692307692" y2="507.692307692" /><line stroke="#000000" stroke-width="2" x1="560.0" x2="575.0" y1="584.615384615" y2="584.615384615" /><line stroke="#000000" stroke-width="2" x1="625.0" x2="640.0" y1="584.615384615" y2="584.615384615" /><line stroke="#000000" stroke-width="2" x1="560.0" x2="575.0" y1="661.538461538" y2="661.538461538" /><line stroke="#000000" stroke-width="2" x1="625.0" x2="640.0" y1="661.538461538" y2="661.538461538" /><line stroke="#000000" stroke-width="2" x1="560.0" x2="575.0" y1="738.461538462" y2="738.461538462" /><line stroke="#000000" stroke-width="2" x1="625.0" x2="640.0" y1="738.461538462" y2="738.461538462" /><line stroke="#000000" stroke-width="2" x1="560.0" x2="575.0" y1="815.384615385" y2="815.384615385" /><line stroke="#000000" stroke-width="2" x1="625.0" x2="640.0" y1="815.384615385" y2="815.384615385" /><line stroke="#000000" stroke-width="2" x1="560.0" x2="575.0" y1="892.307692308" y2="892.307692308" /><line stroke="#000000" stroke-width="2" x1="625.0" x2="640.0" y1="892.307692308" y2="892.307692308" /><line stroke="#000000" stroke-width="2" x1="560.0" x2="575.0" y1="969.230769231" y2="969.230769231" /><line stroke="#000000" stroke-width="2" x1="625.0" x2="640.0" y1="969.230769231" y2="969.230769231" /><line stroke="#000000" stroke-width="2" x1="560.0" x2="575.0" y1="1046.15384615" y2="1046.15384615" /><line stroke="#000000" stroke-width="2" x1="625.0" x2="640.0" y1="1046.15384615" y2="1046.15384615" /><line stroke="#000000" stroke-width="2" x1="560.0" x2="575.0" y1="1123.07692308" y2="1123.07692308" /><line stroke="#000000" stroke-width="2" x1="625.0" x2="640.0" y1="1123.07692308" y2="1123.07692308" /><line stroke="#000000" stroke-width="2" x1="560.0" x2="575.0" y1="1200.0" y2="1200.0" /><line stroke="#000000" stroke-width="2" x1="625.0" x2="640.0" y1="1200.0" y2="1200.0" /><line id="slr-x-axis" stroke="#000000" stroke-width="2" x1="560.0" x2="560.0" y1="200" y2="1200" /><line id="slr-y-axis" stroke="#000000" stroke-width="2" x1="200" x2="560.0" y1="1200" y2="1200" /><line stroke="#000000" stroke-width="2" x1="399.108504399" x2="419.108504399" y1="1200" y2="1220" /><line stroke="#000000" stroke-width="2" x1="238.217008798" x2="258.217008798" y1="1200" y2="1220" /><line id="inundation-x-axis" stroke="#000000" stroke-width="2" x1="640.0" x2="640.0" y1="200" y2="1200" /><line id="inundation-y-axis" stroke="#000000" stroke-width="2" x1="640.0" x2="1000" y1="1200" y2="1200" /><line stroke="#000000" stroke-width="2" x1="724.705882353" x2="704.705882353" y1="1200" y2="1220" /><line stroke="#000000" stroke-width="2" x1="809.411764706" x2="789.411764706" y1="1200" y2="1220" /><line stroke="#000000" stroke-width="2" x1="894.117647059" x2="874.117647059" y1="1200" y2="1220" /><line stroke="#000000" stroke-width="2" x1="978.823529412" x2="958.823529412" y1="1200" y2="1220" /></g><g id="labels"><text alignment-baseline="middle" font-size="20" text-anchor="middle" x="600.0" y="200">1950</text><text alignment-baseline="middle" font-size="20" text-anchor="middle" x="600.0" y="276.923076923">1955</text><text alignment-baseline="middle" font-size="20" text-anchor="middle" x="600.0" y="353.846153846">1960</text><text alignment-baseline="middle" font-size="20" text-anchor="middle" x="600.0" y="430.769230769">1965</text><text alignment-baseline="middle" font-size="20" text-anchor="middle" x="600.0" y="507.692307692">1970</text><text alignment-baseline="middle" font-size="20" text-anchor="middle" x="600.0" y="584.615384615">1975</text><text alignment-baseline="middle" font-size="20" text-anchor="middle" x="600.0" y="661.538461538">1980</text><text alignment-baseline="middle" font-size="20" text-anchor="middle" x="600.0" y="738.461538462">1985</text><text alignment-baseline="middle" font-size="20" text-anchor="middle" x="600.0" y="815.384615385">1990</text><text alignment-baseline="middle" font-size="20" text-anchor="middle" x="600.0" y="892.307692308">1995</text><text alignment-baseline="middle" font-size="20" text-anchor="middle" x="600.0" y="969.230769231">2000</text><text alignment-baseline="middle" font-size="20" text-anchor="middle" x="600.0" y="1046.15384615">2005</text><text alignment-baseline="middle" font-size="20" text-anchor="middle" x="600.0" y="1123.07692308">2010</text><text alignment-baseline="middle" font-size="20" text-anchor="middle" x="600.0" y="1200.0">2015</text><text alignment-baseline="before-edge" font-size="20" x="419.108504399" y="1220">5''</text><text alignment-baseline="before-edge" font-size="20" x="258.217008798" y="1220">10''</text><text alignment-baseline="before-edge" font-size="20" text-anchor="end" x="704.705882353" y="1220">20</text><text alignment-baseline="before-edge" font-size="20" text-anchor="end" x="789.411764706" y="1220">40</text><text alignment-baseline="before-edge" font-size="20" text-anchor="end" x="874.117647059" y="1220">60</text><text alignment-baseline="before-edge" font-size="20" text-anchor="end" x="958.823529412" y="1220">80</text></g></svg>