<?xml version="1.0" encoding="utf-8" ?>
<svg baseProfile="full" height="792.0" version="1.1" width="612.0" xmlns="http://www.w3.org/2000/svg" xmlns:ev="http://www.w3.org/2001/xml-events" xmlns:xlink="http://www.w3.org/1999/xlink"><defs /><g id="labels"><text alignment-baseline="middle" font-size="12" text-anchor="end" x="63.6" y="230.4144">1980</text><text alignment-baseline="middle" font-size="12" text-anchor="start" x="534.0" y="230.4144">2015</text><text alignment-baseline="before-edge" dominant-baseline="central" font-size="12" text-anchor="middle" transform="rotate(90,576.0,140.808)" x="576.0" y="140.808">Mean sea level rise</text><text alignment-baseline="before-edge" font-size="16" x="66.6" y="75.1776">Wilmington, NC</text><text font-size="12" text-anchor="middle" x="73.2342857143" y="244.8144">W</text><text font-size="12" text-anchor="middle" x="86.5028571429" y="244.8144">W</text><text font-size="12" text-anchor="middle" x="99.7714285714" y="244.8144">O</text><text font-size="12" text-anchor="middle" x="113.04" y="244.8144">O</text><text font-size="12" text-anchor="middle" x="126.308571429" y="244.8144">W</text><text font-size="12" text-anchor="middle" x="139.577142857" y="244.8144">Y</text><text font-size="12" text-anchor="middle" x="152.845714286" y="244.8144">Y</text><text font-size="12" text-anchor="middle" x="166.114285714" y="244.8144">W</text><text font-size="12" text-anchor="middle" x="179.382857143" y="244.8144">Y</text><text font-size="12" text-anchor="middle" x="192.651428571" y="244.8144">Y</text><text font-size="12" text-anchor="middle" x="205.92" y="244.8144">W</text><text font-size="12" text-anchor="middle" x="219.188571429" y="244.8144">W</text><text font-size="12" text-anchor="middle" x="232.457142857" y="244.8144">W</text><text font-size="12" text-anchor="middle" x="245.725714286" y="244.8144">W</text><text font-size="12" text-anchor="middle" x="258.994285714" y="244.8144">Y</text><text font-size="12" text-anchor="middle" x="272.262857143" y="244.8144">R</text><text font-size="12" text-anchor="middle" x="285.531428571" y="244.8144">Y</text><text font-size="12" text-anchor="middle" x="298.8" y="244.8144">R</text><text font-size="12" text-anchor="middle" x="312.068571429" y="244.8144">B</text><text font-size="12" text-anchor="middle" x="325.337142857" y="244.8144">R</text><text font-size="12" text-anchor="middle" x="338.605714286" y="244.8144">O</text><text font-size="12" text-anchor="middle" x="351.874285714" y="244.8144">O</text><text font-size="12" text-anchor="middle" x="365.142857143" y="244.8144">R</text><text font-size="12" text-anchor="middle" x="378.411428571" y="244.8144">O</text><text font-size="12" text-anchor="middle" x="391.68" y="244.8144">R</text><text font-size="12" text-anchor="middle" x="404.948571429" y="244.8144">R</text><text font-size="12" text-anchor="middle" x="418.217142857" y="244.8144">R</text><text font-size="12" text-anchor="middle" x="431.485714286" y="244.8144">R</text><text font-size="12" text-anchor="middle" x="444.754285714" y="244.8144">B</text><text font-size="12" text-anchor="middle" x="458.022857143" y="244.8144">R</text><text font-size="12" text-anchor="middle" x="471.291428571" y="244.8144">R</text><text font-size="12" text-anchor="middle" x="484.56" y="244.8144">B</text><text font-size="12" text-anchor="middle" x="497.828571429" y="244.8144">B</text><text font-size="12" text-anchor="middle" x="511.097142857" y="244.8144">K</text><text font-size="12" text-anchor="middle" x="524.365714286" y="244.8144">K</text><text alignment-baseline="middle" font-size="12" x="540.2" y="165.892927044">5''</text><text alignment-baseline="middle" font-size="12" x="540.2" y="73.2155238548">10''</text><text alignment-baseline="before-edge" font-size="16" x="66.6" y="323.1696">Annapolis, MD</text><text font-size="12" text-anchor="middle" x="73.2342857143" y="492.8064">W</text><text font-size="12" text-anchor="middle" x="86.5028571429" y="492.8064">Y</text><text font-size="12" text-anchor="middle" x="99.7714285714" y="492.8064">R</text><text font-size="12" text-anchor="middle" x="113.04" y="492.8064">O</text><text font-size="12" text-anchor="middle" x="126.308571429" y="492.8064">Y</text><text font-size="12" text-anchor="middle" x="139.577142857" y="492.8064">Y</text><text font-size="12" text-anchor="middle" x="152.845714286" y="492.8064">Y</text><text font-size="12" text-anchor="middle" x="166.114285714" y="492.8064">Y</text><text font-size="12" text-anchor="middle" x="179.382857143" y="492.8064">W</text><text font-size="12" text-anchor="middle" x="192.651428571" y="492.8064">Y</text><text font-size="12" text-anchor="middle" x="205.92" y="492.8064">W</text><text font-size="12" text-anchor="middle" x="219.188571429" y="492.8064">W</text><text font-size="12" text-anchor="middle" x="232.457142857" y="492.8064">W</text><text font-size="12" text-anchor="middle" x="245.725714286" y="492.8064">W</text><text font-size="12" text-anchor="middle" x="258.994285714" y="492.8064">W</text><text font-size="12" text-anchor="middle" x="272.262857143" y="492.8064">R</text><text font-size="12" text-anchor="middle" x="285.531428571" y="492.8064">O</text><text font-size="12" text-anchor="middle" x="298.8" y="492.8064">O</text><text font-size="12" text-anchor="middle" x="312.068571429" y="492.8064">Y</text><text font-size="12" text-anchor="middle" x="325.337142857" y="492.8064">W</text><text font-size="12" text-anchor="middle" x="338.605714286" y="492.8064">O</text><text font-size="12" text-anchor="middle" x="351.874285714" y="492.8064">Y</text><text font-size="12" text-anchor="middle" x="365.142857143" y="492.8064">R</text><text font-size="12" text-anchor="middle" x="378.411428571" y="492.8064">R</text><text font-size="12" text-anchor="middle" x="391.68" y="492.8064">R</text><text font-size="12" text-anchor="middle" x="404.948571429" y="492.8064">R</text><text font-size="12" text-anchor="middle" x="418.217142857" y="492.8064">O</text><text font-size="12" text-anchor="middle" x="431.485714286" y="492.8064">R</text><text font-size="12" text-anchor="middle" x="444.754285714" y="492.8064">R</text><text font-size="12" text-anchor="middle" x="458.022857143" y="492.8064">R</text><text font-size="12" text-anchor="middle" x="471.291428571" y="492.8064">B</text><text font-size="12" text-anchor="middle" x="484.56" y="492.8064">R</text><text font-size="12" text-anchor="middle" x="497.828571429" y="492.8064">R</text><text font-size="12" text-anchor="middle" x="511.097142857" y="492.8064">R</text><text font-size="12" text-anchor="middle" x="524.365714286" y="492.8064">R</text><text alignment-baseline="middle" font-size="12" x="540.2" y="413.884927044">5''</text><text alignment-baseline="middle" font-size="12" x="540.2" y="321.207523855">10''</text><text alignment-baseline="before-edge" font-size="16" x="66.6" y="571.1616">Charleston, SC</text><text font-size="12" text-anchor="middle" x="73.2342857143" y="740.7984">O</text><text font-size="12" text-anchor="middle" x="86.5028571429" y="740.7984">W</text><text font-size="12" text-anchor="middle" x="99.7714285714" y="740.7984">O</text><text font-size="12" text-anchor="middle" x="113.04" y="740.7984">Y</text><text font-size="12" text-anchor="middle" x="126.308571429" y="740.7984">O</text><text font-size="12" text-anchor="middle" x="139.577142857" y="740.7984">O</text><text font-size="12" text-anchor="middle" x="152.845714286" y="740.7984">W</text><text font-size="12" text-anchor="middle" x="166.114285714" y="740.7984">W</text><text font-size="12" text-anchor="middle" x="179.382857143" y="740.7984">W</text><text font-size="12" text-anchor="middle" x="192.651428571" y="740.7984">Y</text><text font-size="12" text-anchor="middle" x="205.92" y="740.7984">W</text><text font-size="12" text-anchor="middle" x="219.188571429" y="740.7984">W</text><text font-size="12" text-anchor="middle" x="232.457142857" y="740.7984">W</text><text font-size="12" text-anchor="middle" x="245.725714286" y="740.7984">W</text><text font-size="12" text-anchor="middle" x="258.994285714" y="740.7984">W</text><text font-size="12" text-anchor="middle" x="272.262857143" y="740.7984">Y</text><text font-size="12" text-anchor="middle" x="285.531428571" y="740.7984">O</text><text font-size="12" text-anchor="middle" x="298.8" y="740.7984">O</text><text font-size="12" text-anchor="middle" x="312.068571429" y="740.7984">R</text><text font-size="12" text-anchor="middle" x="325.337142857" y="740.7984">R</text><text font-size="12" text-anchor="middle" x="338.605714286" y="740.7984">O</text><text font-size="12" text-anchor="middle" x="351.874285714" y="740.7984">O</text><text font-size="12" text-anchor="middle" x="365.142857143" y="740.7984">O</text><text font-size="12" text-anchor="middle" x="378.411428571" y="740.7984">Y</text><text font-size="12" text-anchor="middle" x="391.68" y="740.7984">O</text><text font-size="12" text-anchor="middle" x="404.948571429" y="740.7984">O</text><text font-size="12" text-anchor="middle" x="418.217142857" y="740.7984">R</text><text font-size="12" text-anchor="middle" x="431.485714286" y="740.7984">O</text><text font-size="12" text-anchor="middle" x="444.754285714" y="740.7984">R</text><text font-size="12" text-anchor="middle" x="458.022857143" y="740.7984">O</text><text font-size="12" text-anchor="middle" x="471.291428571" y="740.7984">O</text><text font-size="12" text-anchor="middle" x="484.56" y="740.7984">R</text><text font-size="12" text-anchor="middle" x="497.828571429" y="740.7984">R</text><text font-size="12" text-anchor="middle" x="511.097142857" y="740.7984">R</text><text font-size="12" text-anchor="middle" x="524.365714286" y="740.7984">B</text><text alignment-baseline="middle" font-size="12" x="540.2" y="661.876927044">5''</text><text alignment-baseline="middle" font-size="12" x="540.2" y="569.199523855">10''</text></g><g id="axis"><line stroke="#000000" stroke-width="1" x1="66.6" x2="531.0" y1="230.4144" y2="230.4144" /><line stroke="#000000" stroke-dasharray="3,1" stroke-width="1" x1="531.0" x2="538.2" y1="165.892927044" y2="165.892927044" /><line stroke="#000000" stroke-dasharray="3,1" stroke-width="1" x1="531.0" x2="538.2" y1="73.2155238548" y2="73.2155238548" /><line stroke="#000000" stroke-width="1" x1="66.6" x2="531.0" y1="478.4064" y2="478.4064" /><line stroke="#000000" stroke-dasharray="3,1" stroke-width="1" x1="531.0" x2="538.2" y1="413.884927044" y2="413.884927044" /><line stroke="#000000" stroke-dasharray="3,1" stroke-width="1" x1="477.925714286" x2="538.2" y1="321.207523855" y2="321.207523855" /><line stroke="#000000" stroke-width="1" x1="66.6" x2="531.0" y1="726.3984" y2="726.3984" /><line stroke="#000000" stroke-dasharray="3,1" stroke-width="1" x1="531.0" x2="538.2" y1="661.876927044" y2="661.876927044" /><line stroke="#000000" stroke-dasharray="3,1" stroke-width="1" x1="531.0" x2="538.2" y1="569.199523855" y2="569.199523855" /></g><g id="data"><line stroke="#000000" stroke-width="1" x1="79.8685714286" x2="79.8685714286" y1="230.4144" y2="226.830144" /><line stroke="#000000" stroke-width="1" x1="93.1371428571" x2="93.1371428571" y1="230.4144" y2="198.913812827" /><line stroke="#000000" stroke-width="1" x1="106.405714286" x2="106.405714286" y1="230.4144" y2="150.811564846" /><line stroke="#000000" stroke-width="1" x1="119.674285714" x2="119.674285714" y1="230.4144" y2="152.149427621" /><line stroke="#000000" stroke-width="1" x1="132.942857143" x2="132.942857143" y1="230.4144" y2="179.149930913" /><line stroke="#000000" stroke-width="1" x1="146.211428571" x2="146.211428571" y1="230.4144" y2="186.143304513" /><line stroke="#000000" stroke-width="1" x1="159.48" x2="159.48" y1="230.4144" y2="179.818862301" /><line stroke="#000000" stroke-width="1" x1="172.748571429" x2="172.748571429" y1="230.4144" y2="213.508679471" /><line stroke="#000000" stroke-width="1" x1="186.017142857" x2="186.017142857" y1="230.4144" y2="180.548605633" /><line stroke="#000000" stroke-width="1" x1="199.285714286" x2="199.285714286" y1="230.4144" y2="183.224331184" /><line stroke="#000000" stroke-width="1" x1="212.554285714" x2="212.554285714" y1="230.4144" y2="152.635923176" /><line stroke="#000000" stroke-width="1" x1="225.822857143" x2="225.822857143" y1="230.4144" y2="156.892759281" /><line stroke="#000000" stroke-width="1" x1="239.091428571" x2="239.091428571" y1="230.4144" y2="151.358872345" /><line stroke="#000000" stroke-width="1" x1="252.36" x2="252.36" y1="230.4144" y2="175.257966474" /><line stroke="#000000" stroke-width="1" x1="265.628571429" x2="265.628571429" y1="230.4144" y2="118.763670173" /><line stroke="#000000" stroke-width="1" x1="278.897142857" x2="278.897142857" y1="230.4144" y2="149.960197625" /><line stroke="#000000" stroke-width="1" x1="292.165714286" x2="292.165714286" y1="230.4144" y2="154.946777061" /><line stroke="#000000" stroke-width="1" x1="305.434285714" x2="305.434285714" y1="230.4144" y2="134.027468205" /><line stroke="#000000" stroke-width="1" x1="318.702857143" x2="318.702857143" y1="230.4144" y2="110.858117408" /><line stroke="#000000" stroke-width="1" x1="331.971428571" x2="331.971428571" y1="230.4144" y2="152.088615677" /><line stroke="#000000" stroke-width="1" x1="345.24" x2="345.24" y1="230.4144" y2="179.028307024" /><line stroke="#000000" stroke-width="1" x1="358.508571429" x2="358.508571429" y1="230.4144" y2="169.784891483" /><line stroke="#000000" stroke-width="1" x1="371.777142857" x2="371.777142857" y1="230.4144" y2="139.378919308" /><line stroke="#000000" stroke-width="1" x1="385.045714286" x2="385.045714286" y1="230.4144" y2="182.251340075" /><line stroke="#000000" stroke-width="1" x1="398.314285714" x2="398.314285714" y1="230.4144" y2="145.156054021" /><line stroke="#000000" stroke-width="1" x1="411.582857143" x2="411.582857143" y1="230.4144" y2="153.548102341" /><line stroke="#000000" stroke-width="1" x1="424.851428571" x2="424.851428571" y1="230.4144" y2="172.156557313" /><line stroke="#000000" stroke-width="1" x1="438.12" x2="438.12" y1="230.4144" y2="164.615876213" /><line stroke="#000000" stroke-width="1" x1="451.388571429" x2="451.388571429" y1="230.4144" y2="130.865247099" /><line stroke="#000000" stroke-width="1" x1="464.657142857" x2="464.657142857" y1="230.4144" y2="140.716782083" /><line stroke="#000000" stroke-width="1" x1="477.925714286" x2="477.925714286" y1="230.4144" y2="161.149595385" /><line stroke="#000000" stroke-width="1" x1="491.194285714" x2="491.194285714" y1="230.4144" y2="127.581402104" /><line stroke="#000000" stroke-width="1" x1="504.462857143" x2="504.462857143" y1="230.4144" y2="126.486787106" /><line stroke="#000000" stroke-width="1" x1="517.731428571" x2="517.731428571" y1="230.4144" y2="74.4925746861" /><line stroke="#000000" stroke-width="1" x1="531.0" x2="531.0" y1="230.4144" y2="71.0262938582" /><polyline fill="none" points="66.6,230.4144 66.6,226.830144 79.8685714286,226.830144 79.8685714286,198.913812827 93.1371428571,198.913812827 93.1371428571,150.811564846 106.405714286,150.811564846 106.405714286,152.149427621 119.674285714,152.149427621 119.674285714,179.149930913 132.942857143,179.149930913 132.942857143,186.143304513 146.211428571,186.143304513 146.211428571,179.818862301 159.48,179.818862301 159.48,213.508679471 172.748571429,213.508679471 172.748571429,180.548605633 186.017142857,180.548605633 186.017142857,183.224331184 199.285714286,183.224331184 199.285714286,152.635923176 212.554285714,152.635923176 212.554285714,156.892759281 225.822857143,156.892759281 225.822857143,151.358872345 239.091428571,151.358872345 239.091428571,175.257966474 252.36,175.257966474 252.36,118.763670173 265.628571429,118.763670173 265.628571429,149.960197625 278.897142857,149.960197625 278.897142857,154.946777061 292.165714286,154.946777061 292.165714286,134.027468205 305.434285714,134.027468205 305.434285714,110.858117408 318.702857143,110.858117408 318.702857143,152.088615677 331.971428571,152.088615677 331.971428571,179.028307024 345.24,179.028307024 345.24,169.784891483 358.508571429,169.784891483 358.508571429,139.378919308 371.777142857,139.378919308 371.777142857,182.251340075 385.045714286,182.251340075 385.045714286,145.156054021 398.314285714,145.156054021 398.314285714,153.548102341 411.582857143,153.548102341 411.582857143,172.156557313 424.851428571,172.156557313 424.851428571,164.615876213 438.12,164.615876213 438.12,130.865247099 451.388571429,130.865247099 451.388571429,140.716782083 464.657142857,140.716782083 464.657142857,161.149595385 477.925714286,161.149595385 477.925714286,127.581402104 491.194285714,127.581402104 491.194285714,126.486787106 504.462857143,126.486787106 504.462857143,74.4925746861 517.731428571,74.4925746861 517.731428571,71.0262938582 531.0,71.0262938582 531.0,230.4144" stroke="#000000" stroke-width="1.5" /><line stroke="#000000" stroke-width="1" x1="79.8685714286" x2="79.8685714286" y1="478.4064" y2="471.230590567" /><line stroke="#000000" stroke-width="1" x1="93.1371428571" x2="93.1371428571" y1="478.4064" y2="441.371925891" /><line stroke="#000000" stroke-width="1" x1="106.405714286" x2="106.405714286" y1="478.4064" y2="390.411516525" /><line stroke="#000000" stroke-width="1" x1="119.674285714" x2="119.674285714" y1="478.4064" y2="403.607708449" /><line stroke="#000000" stroke-width="1" x1="132.942857143" x2="132.942857143" y1="478.4064" y2="428.966289243" /><line stroke="#000000" stroke-width="1" x1="146.211428571" x2="146.211428571" y1="478.4064" y2="426.229751748" /><line stroke="#000000" stroke-width="1" x1="159.48" x2="159.48" y1="478.4064" y2="411.209201493" /><line stroke="#000000" stroke-width="1" x1="172.748571429" x2="172.748571429" y1="478.4064" y2="443.500343943" /><line stroke="#000000" stroke-width="1" x1="186.017142857" x2="186.017142857" y1="478.4064" y2="442.162481167" /><line stroke="#000000" stroke-width="1" x1="199.285714286" x2="199.285714286" y1="478.4064" y2="435.898850899" /><line stroke="#000000" stroke-width="1" x1="212.554285714" x2="212.554285714" y1="478.4064" y2="416.074157041" /><line stroke="#000000" stroke-width="1" x1="225.822857143" x2="225.822857143" y1="478.4064" y2="404.519887615" /><line stroke="#000000" stroke-width="1" x1="239.091428571" x2="239.091428571" y1="478.4064" y2="387.249295419" /><line stroke="#000000" stroke-width="1" x1="252.36" x2="252.36" y1="478.4064" y2="425.804068137" /><line stroke="#000000" stroke-width="1" x1="265.628571429" x2="265.628571429" y1="478.4064" y2="415.101165931" /><line stroke="#000000" stroke-width="1" x1="278.897142857" x2="278.897142857" y1="478.4064" y2="352.647299084" /><line stroke="#000000" stroke-width="1" x1="292.165714286" x2="292.165714286" y1="478.4064" y2="373.931479606" /><line stroke="#000000" stroke-width="1" x1="305.434285714" x2="305.434285714" y1="478.4064" y2="353.072982694" /><line stroke="#000000" stroke-width="1" x1="318.702857143" x2="318.702857143" y1="478.4064" y2="406.465869834" /><line stroke="#000000" stroke-width="1" x1="331.971428571" x2="331.971428571" y1="478.4064" y2="432.736629793" /><line stroke="#000000" stroke-width="1" x1="345.24" x2="345.24" y1="478.4064" y2="401.479290397" /><line stroke="#000000" stroke-width="1" x1="358.508571429" x2="358.508571429" y1="478.4064" y2="409.992962606" /><line stroke="#000000" stroke-width="1" x1="371.777142857" x2="371.777142857" y1="478.4064" y2="378.066691822" /><line stroke="#000000" stroke-width="1" x1="385.045714286" x2="385.045714286" y1="478.4064" y2="373.080112385" /><line stroke="#000000" stroke-width="1" x1="398.314285714" x2="398.314285714" y1="478.4064" y2="339.815978826" /><line stroke="#000000" stroke-width="1" x1="411.582857143" x2="411.582857143" y1="478.4064" y2="362.194774347" /><line stroke="#000000" stroke-width="1" x1="424.851428571" x2="424.851428571" y1="478.4064" y2="411.938944825" /><line stroke="#000000" stroke-width="1" x1="438.12" x2="438.12" y1="478.4064" y2="377.884255989" /><line stroke="#000000" stroke-width="1" x1="451.388571429" x2="451.388571429" y1="478.4064" y2="352.343239362" /><line stroke="#000000" stroke-width="1" x1="464.657142857" x2="464.657142857" y1="478.4064" y2="345.653925484" /><line stroke="#000000" stroke-width="1" x1="477.925714286" x2="477.925714286" y1="478.4064" y2="309.714066373" /><line stroke="#000000" stroke-width="1" x1="491.194285714" x2="491.194285714" y1="478.4064" y2="321.511583577" /><line stroke="#000000" stroke-width="1" x1="504.462857143" x2="504.462857143" y1="478.4064" y2="339.998414659" /><line stroke="#000000" stroke-width="1" x1="517.731428571" x2="517.731428571" y1="478.4064" y2="327.471154123" /><line stroke="#000000" stroke-width="1" x1="531.0" x2="531.0" y1="478.4064" y2="344.680934374" /><polyline fill="none" points="66.6,478.4064 66.6,471.230590567 79.8685714286,471.230590567 79.8685714286,441.371925891 93.1371428571,441.371925891 93.1371428571,390.411516525 106.405714286,390.411516525 106.405714286,403.607708449 119.674285714,403.607708449 119.674285714,428.966289243 132.942857143,428.966289243 132.942857143,426.229751748 146.211428571,426.229751748 146.211428571,411.209201493 159.48,411.209201493 159.48,443.500343943 172.748571429,443.500343943 172.748571429,442.162481167 186.017142857,442.162481167 186.017142857,435.898850899 199.285714286,435.898850899 199.285714286,416.074157041 212.554285714,416.074157041 212.554285714,404.519887615 225.822857143,404.519887615 225.822857143,387.249295419 239.091428571,387.249295419 239.091428571,425.804068137 252.36,425.804068137 252.36,415.101165931 265.628571429,415.101165931 265.628571429,352.647299084 278.897142857,352.647299084 278.897142857,373.931479606 292.165714286,373.931479606 292.165714286,353.072982694 305.434285714,353.072982694 305.434285714,406.465869834 318.702857143,406.465869834 318.702857143,432.736629793 331.971428571,432.736629793 331.971428571,401.479290397 345.24,401.479290397 345.24,409.992962606 358.508571429,409.992962606 358.508571429,378.066691822 371.777142857,378.066691822 371.777142857,373.080112385 385.045714286,373.080112385 385.045714286,339.815978826 398.314285714,339.815978826 398.314285714,362.194774347 411.582857143,362.194774347 411.582857143,411.938944825 424.851428571,411.938944825 424.851428571,377.884255989 438.12,377.884255989 438.12,352.343239362 451.388571429,352.343239362 451.388571429,345.653925484 464.657142857,345.653925484 464.657142857,309.714066373 477.925714286,309.714066373 477.925714286,321.511583577 491.194285714,321.511583577 491.194285714,339.998414659 504.462857143,339.998414659 504.462857143,327.471154123 517.731428571,327.471154123 517.731428571,344.680934374 531.0,344.680934374 531.0,478.4064" stroke="#000000" stroke-width="1.5" /><line stroke="#000000" stroke-width="1" x1="79.8685714286" x2="79.8685714286" y1="726.3984" y2="716.06036946" /><line stroke="#000000" stroke-width="1" x1="93.1371428571" x2="93.1371428571" y1="726.3984" y2="688.999054225" /><line stroke="#000000" stroke-width="1" x1="106.405714286" x2="106.405714286" y1="726.3984" y2="640.896806244" /><line stroke="#000000" stroke-width="1" x1="119.674285714" x2="119.674285714" y1="726.3984" y2="662.241798711" /><line stroke="#000000" stroke-width="1" x1="132.942857143" x2="132.942857143" y1="726.3984" y2="663.944533152" /><line stroke="#000000" stroke-width="1" x1="146.211428571" x2="146.211428571" y1="726.3984" y2="653.84975039" /><line stroke="#000000" stroke-width="1" x1="159.48" x2="159.48" y1="726.3984" y2="668.991924533" /><line stroke="#000000" stroke-width="1" x1="172.748571429" x2="172.748571429" y1="726.3984" y2="694.289693383" /><line stroke="#000000" stroke-width="1" x1="186.017142857" x2="186.017142857" y1="726.3984" y2="690.458540889" /><line stroke="#000000" stroke-width="1" x1="199.285714286" x2="199.285714286" y1="726.3984" y2="674.039315914" /><line stroke="#000000" stroke-width="1" x1="212.554285714" x2="212.554285714" y1="726.3984" y2="629.52497265" /><line stroke="#000000" stroke-width="1" x1="225.822857143" x2="225.822857143" y1="726.3984" y2="637.248089583" /><line stroke="#000000" stroke-width="1" x1="239.091428571" x2="239.091428571" y1="726.3984" y2="641.383301798" /><line stroke="#000000" stroke-width="1" x1="252.36" x2="252.36" y1="726.3984" y2="650.018597896" /><line stroke="#000000" stroke-width="1" x1="265.628571429" x2="265.628571429" y1="726.3984" y2="611.524637122" /><line stroke="#000000" stroke-width="1" x1="278.897142857" x2="278.897142857" y1="726.3984" y2="673.187948694" /><line stroke="#000000" stroke-width="1" x1="292.165714286" x2="292.165714286" y1="726.3984" y2="630.193904038" /><line stroke="#000000" stroke-width="1" x1="305.434285714" x2="305.434285714" y1="726.3984" y2="650.505093451" /><line stroke="#000000" stroke-width="1" x1="318.702857143" x2="318.702857143" y1="726.3984" y2="599.909555752" /><line stroke="#000000" stroke-width="1" x1="331.971428571" x2="331.971428571" y1="726.3984" y2="622.653222939" /><line stroke="#000000" stroke-width="1" x1="345.24" x2="345.24" y1="726.3984" y2="647.950991788" /><line stroke="#000000" stroke-width="1" x1="358.508571429" x2="358.508571429" y1="726.3984" y2="635.849414863" /><line stroke="#000000" stroke-width="1" x1="371.777142857" x2="371.777142857" y1="726.3984" y2="650.261845674" /><line stroke="#000000" stroke-width="1" x1="385.045714286" x2="385.045714286" y1="726.3984" y2="662.485046488" /><line stroke="#000000" stroke-width="1" x1="398.314285714" x2="398.314285714" y1="726.3984" y2="610.79489379" /><line stroke="#000000" stroke-width="1" x1="411.582857143" x2="411.582857143" y1="726.3984" y2="644.05902735" /><line stroke="#000000" stroke-width="1" x1="424.851428571" x2="424.851428571" y1="726.3984" y2="621.55860794" /><line stroke="#000000" stroke-width="1" x1="438.12" x2="438.12" y1="726.3984" y2="638.707576247" /><line stroke="#000000" stroke-width="1" x1="451.388571429" x2="451.388571429" y1="726.3984" y2="611.281389345" /><line stroke="#000000" stroke-width="1" x1="464.657142857" x2="464.657142857" y1="726.3984" y2="628.491169596" /><line stroke="#000000" stroke-width="1" x1="477.925714286" x2="477.925714286" y1="726.3984" y2="629.09928904" /><line stroke="#000000" stroke-width="1" x1="491.194285714" x2="491.194285714" y1="726.3984" y2="596.868958534" /><line stroke="#000000" stroke-width="1" x1="504.462857143" x2="504.462857143" y1="726.3984" y2="597.477077978" /><line stroke="#000000" stroke-width="1" x1="517.731428571" x2="517.731428571" y1="726.3984" y2="555.091152766" /><line stroke="#000000" stroke-width="1" x1="531.0" x2="531.0" y1="726.3984" y2="547.1856" /><polyline fill="none" points="66.6,726.3984 66.6,716.06036946 79.8685714286,716.06036946 79.8685714286,688.999054225 93.1371428571,688.999054225 93.1371428571,640.896806244 106.405714286,640.896806244 106.405714286,662.241798711 119.674285714,662.241798711 119.674285714,663.944533152 132.942857143,663.944533152 132.942857143,653.84975039 146.211428571,653.84975039 146.211428571,668.991924533 159.48,668.991924533 159.48,694.289693383 172.748571429,694.289693383 172.748571429,690.458540889 186.017142857,690.458540889 186.017142857,674.039315914 199.285714286,674.039315914 199.285714286,629.52497265 212.554285714,629.52497265 212.554285714,637.248089583 225.822857143,637.248089583 225.822857143,641.383301798 239.091428571,641.383301798 239.091428571,650.018597896 252.36,650.018597896 252.36,611.524637122 265.628571429,611.524637122 265.628571429,673.187948694 278.897142857,673.187948694 278.897142857,630.193904038 292.165714286,630.193904038 292.165714286,650.505093451 305.434285714,650.505093451 305.434285714,599.909555752 318.702857143,599.909555752 318.702857143,622.653222939 331.971428571,622.653222939 331.971428571,647.950991788 345.24,647.950991788 345.24,635.849414863 358.508571429,635.849414863 358.508571429,650.261845674 371.777142857,650.261845674 371.777142857,662.485046488 385.045714286,662.485046488 385.045714286,610.79489379 398.314285714,610.79489379 398.314285714,644.05902735 411.582857143,644.05902735 411.582857143,621.55860794 424.851428571,621.55860794 424.851428571,638.707576247 438.12,638.707576247 438.12,611.281389345 451.388571429,611.281389345 451.388571429,628.491169596 464.657142857,628.491169596 464.657142857,629.09928904 477.925714286,629.09928904 477.925714286,596.868958534 491.194285714,596.868958534 491.194285714,597.477077978 504.462857143,597.477077978 504.462857143,555.091152766 517.731428571,555.091152766 517.731428571,547.1856 531.0,547.1856 531.0,726.3984" stroke="#000000" stroke-width="1.5" /></g><rect fill="none" height="720.0" stroke="#000000" stroke-width="1" width="540.0" x="36.0" y="36.0" /></svg>