<?xml version="1.0" encoding="utf-8" ?>
<svg baseProfile="full" height="1047" version="1.1" width="1400" xmlns="http://www.w3.org/2000/svg" xmlns:ev="http://www.w3.org/2001/xml-events" xmlns:xlink="http://www.w3.org/1999/xlink"><defs /><g id="data"><polyline fill="#FFFFFF" points="950.0,131.056236559 900.0,87.9229032258 910.769230769,83.9413647643 960.769230769,127.074698098" stroke="#000000" stroke-width="1" /><polyline fill="#FFFFFF" points="900.0,87.9229032258 900.0,264.7 950.0,307.833333333 950.0,131.056236559" stroke="#000000" stroke-width="1" /><polyline fill="#FFFFFF" points="950.0,131.056236559 960.769230769,127.074698098 960.769230769,303.851794872 950.0,307.833333333" stroke="#000000" stroke-width="1" /><polyline fill="#FFFFFF" points="939.0625,116.306628788 889.0625,73.1732954545 899.831730769,69.191756993 949.831730769,112.325090326" stroke="#000000" stroke-width="1" /><polyline fill="#FFFFFF" points="889.0625,73.1732954545 889.0625,268.74375 939.0625,311.877083333 939.0625,116.306628788" stroke="#000000" stroke-width="1" /><polyline fill="#FFFFFF" points="939.0625,116.306628788 949.831730769,112.325090326 949.831730769,307.895544872 939.0625,311.877083333" stroke="#000000" stroke-width="1" /><polyline fill="#FFFFFF" points="928.125,134.030349462 878.125,90.897016129 888.894230769,86.9154776675 938.894230769,130.048811001" stroke="#000000" stroke-width="1" /><polyline fill="#FFFFFF" points="878.125,90.897016129 878.125,272.7875 928.125,315.920833333 928.125,134.030349462" stroke="#000000" stroke-width="1" /><polyline fill="#FFFFFF" points="928.125,134.030349462 938.894230769,130.048811001 938.894230769,311.939294872 928.125,315.920833333" stroke="#000000" stroke-width="1" /><polyline fill="#FFFFFF" points="917.1875,117.886181574 867.1875,74.7528482405 877.956730769,70.7713097789 927.956730769,113.904643112" stroke="#000000" stroke-width="1" /><polyline fill="#FFFFFF" points="867.1875,74.7528482405 867.1875,276.83125 917.1875,319.964583333 917.1875,117.886181574" stroke="#000000" stroke-width="1" /><polyline fill="#FFFFFF" points="917.1875,117.886181574 927.956730769,113.904643112 927.956730769,315.983044872 917.1875,319.964583333" stroke="#000000" stroke-width="1" /><polyline fill="#FFFFFF" points="906.25,109.046852395 856.25,65.9135190616 867.019230769,61.9319806 917.019230769,105.065313933" stroke="#000000" stroke-width="1" /><polyline fill="#FFFFFF" points="856.25,65.9135190616 856.25,280.875 906.25,324.008333333 906.25,109.046852395" stroke="#000000" stroke-width="1" /><polyline fill="#FFFFFF" points="906.25,109.046852395 917.019230769,105.065313933 917.019230769,320.026794872 906.25,324.008333333" stroke="#000000" stroke-width="1" /><polyline fill="#FFFFFF" points="895.3125,152.337508553 845.3125,109.20417522 856.081730769,105.222636758 906.081730769,148.355970092" stroke="#000000" stroke-width="1" /><polyline fill="#FFFFFF" points="845.3125,109.20417522 845.3125,284.91875 895.3125,328.052083333 895.3125,152.337508553" stroke="#000000" stroke-width="1" /><polyline fill="#FFFFFF" points="895.3125,152.337508553 906.081730769,148.355970092 906.081730769,324.070544872 895.3125,328.052083333" stroke="#000000" stroke-width="1" /><polyline fill="#FFFFFF" points="884.375,163.686097263 834.375,120.55276393 845.144230769,116.571225468 895.144230769,159.704558801" stroke="#000000" stroke-width="1" /><polyline fill="#FFFFFF" points="834.375,120.55276393 834.375,288.9625 884.375,332.095833333 884.375,163.686097263" stroke="#000000" stroke-width="1" /><polyline fill="#FFFFFF" points="884.375,163.686097263 895.144230769,159.704558801 895.144230769,328.114294872 884.375,332.095833333" stroke="#000000" stroke-width="1" /><polyline fill="#FFFFFF" points="873.4375,195.621049609 823.4375,152.487716276 834.206730769,148.506177814 884.206730769,191.639511147" stroke="#000000" stroke-width="1" /><polyline fill="#FFFFFF" points="823.4375,152.487716276 823.4375,293.00625 873.4375,336.139583333 873.4375,195.621049609" stroke="#000000" stroke-width="1" /><polyline fill="#FFFFFF" points="873.4375,195.621049609 884.206730769,191.639511147 884.206730769,332.158044872 873.4375,336.139583333" stroke="#000000" stroke-width="1" /><polyline fill="#FFFFFF" points="862.5,236.853069404 812.5,193.71973607 823.269230769,189.738197609 873.269230769,232.871530942" stroke="#000000" stroke-width="1" /><polyline fill="#FFFFFF" points="812.5,193.71973607 812.5,297.05 862.5,340.183333333 862.5,236.853069404" stroke="#000000" stroke-width="1" /><polyline fill="#FFFFFF" points="862.5,236.853069404 873.269230769,232.871530942 873.269230769,336.201794872 862.5,340.183333333" stroke="#000000" stroke-width="1" /><polyline fill="#FFFFFF" points="851.5625,186.575382454 801.5625,143.44204912 812.331730769,139.460510659 862.331730769,182.593843992" stroke="#000000" stroke-width="1" /><polyline fill="#FFFFFF" points="801.5625,143.44204912 801.5625,301.09375 851.5625,344.227083333 851.5625,186.575382454" stroke="#000000" stroke-width="1" /><polyline fill="#FFFFFF" points="851.5625,186.575382454 862.331730769,182.593843992 862.331730769,340.245544872 851.5625,344.227083333" stroke="#000000" stroke-width="1" /><polyline fill="#FFFFFF" points="840.625,166.181126588 790.625,123.047793255 801.394230769,119.066254794 851.394230769,162.199588127" stroke="#000000" stroke-width="1" /><polyline fill="#FFFFFF" points="790.625,123.047793255 790.625,305.1375 840.625,348.270833333 840.625,166.181126588" stroke="#000000" stroke-width="1" /><polyline fill="#FFFFFF" points="840.625,166.181126588 851.394230769,162.199588127 851.394230769,344.289294872 840.625,348.270833333" stroke="#000000" stroke-width="1" /><polyline fill="#FFFFFF" points="829.6875,206.549847263 779.6875,163.41651393 790.456730769,159.434975468 840.456730769,202.568308801" stroke="#000000" stroke-width="1" /><polyline fill="#FFFFFF" points="779.6875,163.41651393 779.6875,309.18125 829.6875,352.314583333 829.6875,206.549847263" stroke="#000000" stroke-width="1" /><polyline fill="#FFFFFF" points="829.6875,206.549847263 840.456730769,202.568308801 840.456730769,348.333044872 829.6875,352.314583333" stroke="#000000" stroke-width="1" /><polyline fill="#FFFFFF" points="818.75,216.039022483 768.75,172.90568915 779.519230769,168.924150688 829.519230769,212.057484021" stroke="#000000" stroke-width="1" /><polyline fill="#FFFFFF" points="768.75,172.90568915 768.75,313.225 818.75,356.358333333 818.75,216.039022483" stroke="#000000" stroke-width="1" /><polyline fill="#FFFFFF" points="818.75,216.039022483 829.519230769,212.057484021 829.519230769,352.376794872 818.75,356.358333333" stroke="#000000" stroke-width="1" /><polyline fill="#FFFFFF" points="807.8125,254.946775415 757.8125,211.813442082 768.581730769,207.831903621 818.581730769,250.965236954" stroke="#000000" stroke-width="1" /><polyline fill="#FFFFFF" points="757.8125,211.813442082 757.8125,317.26875 807.8125,360.402083333 807.8125,254.946775415" stroke="#000000" stroke-width="1" /><polyline fill="#FFFFFF" points="807.8125,254.946775415 818.581730769,250.965236954 818.581730769,356.420544872 807.8125,360.402083333" stroke="#000000" stroke-width="1" /><polyline fill="#FFFFFF" points="796.875,249.693457967 746.875,206.560124633 757.644230769,202.578586172 807.644230769,245.711919505" stroke="#000000" stroke-width="1" /><polyline fill="#FFFFFF" points="746.875,206.560124633 746.875,321.3125 796.875,364.445833333 796.875,249.693457967" stroke="#000000" stroke-width="1" /><polyline fill="#FFFFFF" points="796.875,249.693457967 807.644230769,245.711919505 807.644230769,360.464294872 796.875,364.445833333" stroke="#000000" stroke-width="1" /><polyline fill="#FFFFFF" points="785.9375,287.870727028 735.9375,244.737393695 746.706730769,240.755855233 796.706730769,283.889188567" stroke="#000000" stroke-width="1" /><polyline fill="#FFFFFF" points="735.9375,244.737393695 735.9375,325.35625 785.9375,368.489583333 785.9375,287.870727028" stroke="#000000" stroke-width="1" /><polyline fill="#FFFFFF" points="785.9375,287.870727028 796.706730769,283.889188567 796.706730769,364.508044872 785.9375,368.489583333" stroke="#000000" stroke-width="1" /><polyline fill="#FFFFFF" points="775.0,263.226383187 725.0,220.093049853 735.769230769,216.111511392 785.769230769,259.244844725" stroke="#000000" stroke-width="1" /><polyline fill="#FFFFFF" points="725.0,220.093049853 725.0,329.4 775.0,372.533333333 775.0,263.226383187" stroke="#000000" stroke-width="1" /><polyline fill="#FFFFFF" points="775.0,263.226383187 785.769230769,259.244844725 785.769230769,368.551794872 775.0,372.533333333" stroke="#000000" stroke-width="1" /><polyline fill="#FFFFFF" points="764.0625,208.964238759 714.0625,165.830905425 724.831730769,161.849366964 774.831730769,204.982700297" stroke="#000000" stroke-width="1" /><polyline fill="#FFFFFF" points="714.0625,165.830905425 714.0625,333.44375 764.0625,376.577083333 764.0625,208.964238759" stroke="#000000" stroke-width="1" /><polyline fill="#FFFFFF" points="764.0625,208.964238759 774.831730769,204.982700297 774.831730769,372.595544872 764.0625,376.577083333" stroke="#000000" stroke-width="1" /><polyline fill="#FFFFFF" points="753.125,235.785804008 703.125,192.652470674 713.894230769,188.670932213 763.894230769,231.804265546" stroke="#000000" stroke-width="1" /><polyline fill="#FFFFFF" points="703.125,192.652470674 703.125,337.4875 753.125,380.620833333 753.125,235.785804008" stroke="#000000" stroke-width="1" /><polyline fill="#FFFFFF" points="753.125,235.785804008 763.894230769,231.804265546 763.894230769,376.639294872 753.125,380.620833333" stroke="#000000" stroke-width="1" /><polyline fill="#FFFFFF" points="742.1875,216.586885386 692.1875,173.453552053 702.956730769,169.472013591 752.956730769,212.605346925" stroke="#000000" stroke-width="1" /><polyline fill="#FFFFFF" points="692.1875,173.453552053 692.1875,341.53125 742.1875,384.664583333 742.1875,216.586885386" stroke="#000000" stroke-width="1" /><polyline fill="#FFFFFF" points="742.1875,216.586885386 752.956730769,212.605346925 752.956730769,380.683044872 742.1875,384.664583333" stroke="#000000" stroke-width="1" /><polyline fill="#FFFFFF" points="731.25,288.831265885 681.25,245.697932551 692.019230769,241.71639409 742.019230769,284.849727423" stroke="#000000" stroke-width="1" /><polyline fill="#FFFFFF" points="681.25,245.697932551 681.25,345.575 731.25,388.708333333 731.25,288.831265885" stroke="#000000" stroke-width="1" /><polyline fill="#FFFFFF" points="731.25,288.831265885 742.019230769,284.849727423 742.019230769,384.726794872 731.25,388.708333333" stroke="#000000" stroke-width="1" /><polyline fill="#FFFFFF" points="720.3125,304.56275782 670.3125,261.429424487 681.081730769,257.447886025 731.081730769,300.581219359" stroke="#000000" stroke-width="1" /><polyline fill="#FFFFFF" points="670.3125,261.429424487 670.3125,349.61875 720.3125,392.752083333 720.3125,304.56275782" stroke="#000000" stroke-width="1" /><polyline fill="#FFFFFF" points="720.3125,304.56275782 731.081730769,300.581219359 731.081730769,388.770544872 720.3125,392.752083333" stroke="#000000" stroke-width="1" /><polyline fill="#FFFFFF" points="709.375,266.504073803 659.375,223.370740469 670.144230769,219.389202008 720.144230769,262.522535341" stroke="#000000" stroke-width="1" /><polyline fill="#FFFFFF" points="659.375,223.370740469 659.375,353.6625 709.375,396.795833333 709.375,266.504073803" stroke="#000000" stroke-width="1" /><polyline fill="#FFFFFF" points="709.375,266.504073803 720.144230769,262.522535341 720.144230769,392.814294872 709.375,396.795833333" stroke="#000000" stroke-width="1" /><polyline fill="#FFFFFF" points="698.4375,289.407589198 648.4375,246.274255865 659.206730769,242.292717404 709.206730769,285.426050737" stroke="#000000" stroke-width="1" /><polyline fill="#FFFFFF" points="648.4375,246.274255865 648.4375,357.70625 698.4375,400.839583333 698.4375,289.407589198" stroke="#000000" stroke-width="1" /><polyline fill="#FFFFFF" points="698.4375,289.407589198 709.206730769,285.426050737 709.206730769,396.858044872 698.4375,400.839583333" stroke="#000000" stroke-width="1" /><polyline fill="#FFFFFF" points="687.5,306.068787879 637.5,262.935454545 648.269230769,258.953916084 698.269230769,302.087249417" stroke="#000000" stroke-width="1" /><polyline fill="#FFFFFF" points="637.5,262.935454545 637.5,361.75 687.5,404.883333333 687.5,306.068787879" stroke="#000000" stroke-width="1" /><polyline fill="#FFFFFF" points="687.5,306.068787879 698.269230769,302.087249417 698.269230769,400.901794872 687.5,404.883333333" stroke="#000000" stroke-width="1" /><polyline fill="#FFFFFF" points="676.5625,331.761423509 626.5625,288.628090176 637.331730769,284.646551714 687.331730769,327.779885048" stroke="#000000" stroke-width="1" /><polyline fill="#FFFFFF" points="626.5625,288.628090176 626.5625,365.79375 676.5625,408.927083333 676.5625,331.761423509" stroke="#000000" stroke-width="1" /><polyline fill="#FFFFFF" points="676.5625,331.761423509 687.331730769,327.779885048 687.331730769,404.945544872 676.5625,408.927083333" stroke="#000000" stroke-width="1" /><polyline fill="#FFFFFF" points="665.625,342.645158847 615.625,299.511825513 626.394230769,295.530287052 676.394230769,338.663620385" stroke="#000000" stroke-width="1" /><polyline fill="#FFFFFF" points="615.625,299.511825513 615.625,369.8375 665.625,412.970833333 665.625,342.645158847" stroke="#000000" stroke-width="1" /><polyline fill="#FFFFFF" points="665.625,342.645158847 676.394230769,338.663620385 676.394230769,408.989294872 665.625,412.970833333" stroke="#000000" stroke-width="1" /><polyline fill="#FFFFFF" points="654.6875,348.149876588 604.6875,305.016543255 615.456730769,301.035004794 665.456730769,344.168338127" stroke="#000000" stroke-width="1" /><polyline fill="#FFFFFF" points="604.6875,305.016543255 604.6875,373.88125 654.6875,417.014583333 654.6875,348.149876588" stroke="#000000" stroke-width="1" /><polyline fill="#FFFFFF" points="654.6875,348.149876588 665.456730769,344.168338127 665.456730769,413.033044872 654.6875,417.014583333" stroke="#000000" stroke-width="1" /><polyline fill="#FFFFFF" points="643.75,316.931177908 593.75,273.797844575 604.519230769,269.816306113 654.519230769,312.949639447" stroke="#000000" stroke-width="1" /><polyline fill="#FFFFFF" points="593.75,273.797844575 593.75,377.925 643.75,421.058333333 643.75,316.931177908" stroke="#000000" stroke-width="1" /><polyline fill="#FFFFFF" points="643.75,316.931177908 654.519230769,312.949639447 654.519230769,417.076794872 643.75,421.058333333" stroke="#000000" stroke-width="1" /><polyline fill="#FFFFFF" points="632.8125,337.377611193 582.8125,294.244277859 593.581730769,290.262739398 643.581730769,333.396072731" stroke="#000000" stroke-width="1" /><polyline fill="#FFFFFF" points="582.8125,294.244277859 582.8125,381.96875 632.8125,425.102083333 632.8125,337.377611193" stroke="#000000" stroke-width="1" /><polyline fill="#FFFFFF" points="632.8125,337.377611193 643.581730769,333.396072731 643.581730769,421.120544872 632.8125,425.102083333" stroke="#000000" stroke-width="1" /><polyline fill="#FFFFFF" points="621.875,344.409704301 571.875,301.276370968 582.644230769,297.294832506 632.644230769,340.42816584" stroke="#000000" stroke-width="1" /><polyline fill="#FFFFFF" points="571.875,301.276370968 571.875,386.0125 621.875,429.145833333 621.875,344.409704301" stroke="#000000" stroke-width="1" /><polyline fill="#FFFFFF" points="621.875,344.409704301 632.644230769,340.42816584 632.644230769,425.164294872 621.875,429.145833333" stroke="#000000" stroke-width="1" /><polyline fill="#FFFFFF" points="610.9375,320.761474829 560.9375,277.628141496 571.706730769,273.646603034 621.706730769,316.779936367" stroke="#000000" stroke-width="1" /><polyline fill="#FFFFFF" points="560.9375,277.628141496 560.9375,390.05625 610.9375,433.189583333 610.9375,320.761474829" stroke="#000000" stroke-width="1" /><polyline fill="#FFFFFF" points="610.9375,320.761474829 621.706730769,316.779936367 621.706730769,429.208044872 610.9375,433.189583333" stroke="#000000" stroke-width="1" /><polyline fill="#FFFFFF" points="600.0,310.394770283 550.0,267.26143695 560.769230769,263.279898489 610.769230769,306.413231822" stroke="#000000" stroke-width="1" /><polyline fill="#FFFFFF" points="550.0,267.26143695 550.0,394.1 600.0,437.233333333 600.0,310.394770283" stroke="#000000" stroke-width="1" /><polyline fill="#FFFFFF" points="600.0,310.394770283 610.769230769,306.413231822 610.769230769,433.251794872 600.0,437.233333333" stroke="#000000" stroke-width="1" /><polyline fill="#FFFFFF" points="589.0625,370.088109726 539.0625,326.954776393 549.831730769,322.973237931 599.831730769,366.106571265" stroke="#000000" stroke-width="1" /><polyline fill="#FFFFFF" points="539.0625,326.954776393 539.0625,398.14375 589.0625,441.277083333 589.0625,370.088109726" stroke="#000000" stroke-width="1" /><polyline fill="#FFFFFF" points="589.0625,370.088109726 599.831730769,366.106571265 599.831730769,437.295544872 589.0625,441.277083333" stroke="#000000" stroke-width="1" /><polyline fill="#FFFFFF" points="578.125,406.738003421 528.125,363.604670088 538.894230769,359.623131626 588.894230769,402.75646496" stroke="#000000" stroke-width="1" /><polyline fill="#FFFFFF" points="528.125,363.604670088 528.125,402.1875 578.125,445.320833333 578.125,406.738003421" stroke="#000000" stroke-width="1" /><polyline fill="#FFFFFF" points="578.125,406.738003421 588.894230769,402.75646496 588.894230769,441.339294872 578.125,445.320833333" stroke="#000000" stroke-width="1" /><polyline fill="#FFFFFF" points="567.1875,414.766210899 517.1875,371.632877566 527.956730769,367.651339104 577.956730769,410.784672438" stroke="#000000" stroke-width="1" /><polyline fill="#FFFFFF" points="517.1875,371.632877566 517.1875,406.23125 567.1875,449.364583333 567.1875,414.766210899" stroke="#000000" stroke-width="1" /><polyline fill="#FFFFFF" points="567.1875,414.766210899 577.956730769,410.784672438 577.956730769,445.383044872 567.1875,449.364583333" stroke="#000000" stroke-width="1" /><polyline fill="#FFFFFF" points="556.25,387.067116325 506.25,343.933782991 517.019230769,339.95224453 567.019230769,383.085577863" stroke="#000000" stroke-width="1" /><polyline fill="#FFFFFF" points="506.25,343.933782991 506.25,410.275 556.25,453.408333333 556.25,387.067116325" stroke="#000000" stroke-width="1" /><polyline fill="#FFFFFF" points="556.25,387.067116325 567.019230769,383.085577863 567.019230769,449.426794872 556.25,453.408333333" stroke="#000000" stroke-width="1" /><polyline fill="#FFFFFF" points="545.3125,355.317156647 495.3125,312.183823314 506.081730769,308.202284852 556.081730769,351.335618186" stroke="#000000" stroke-width="1" /><polyline fill="#FFFFFF" points="495.3125,312.183823314 495.3125,414.31875 545.3125,457.452083333 545.3125,355.317156647" stroke="#000000" stroke-width="1" /><polyline fill="#FFFFFF" points="545.3125,355.317156647 556.081730769,351.335618186 556.081730769,453.470544872 545.3125,457.452083333" stroke="#000000" stroke-width="1" /><polyline fill="#FFFFFF" points="534.375,431.014733627 484.375,387.881400293 495.144230769,383.899861832 545.144230769,427.033195165" stroke="#000000" stroke-width="1" /><polyline fill="#FFFFFF" points="484.375,387.881400293 484.375,418.3625 534.375,461.495833333 534.375,431.014733627" stroke="#000000" stroke-width="1" /><polyline fill="#FFFFFF" points="534.375,431.014733627 545.144230769,427.033195165 545.144230769,457.514294872 534.375,461.495833333" stroke="#000000" stroke-width="1" /><polyline fill="#FFFFFF" points="512.5,389.694960899 462.5,346.561627566 473.269230769,342.580089104 523.269230769,385.713422438" stroke="#000000" stroke-width="1" /><polyline fill="#FFFFFF" points="462.5,346.561627566 462.5,426.45 512.5,469.583333333 512.5,389.694960899" stroke="#000000" stroke-width="1" /><polyline fill="#FFFFFF" points="512.5,389.694960899 523.269230769,385.713422438 523.269230769,465.601794872 512.5,469.583333333" stroke="#000000" stroke-width="1" /><polyline fill="#FFFFFF" points="501.5625,406.289751955 451.5625,363.156418622 462.331730769,359.17488016 512.331730769,402.308213493" stroke="#000000" stroke-width="1" /><polyline fill="#FFFFFF" points="451.5625,363.156418622 451.5625,430.49375 501.5625,473.627083333 501.5625,406.289751955" stroke="#000000" stroke-width="1" /><polyline fill="#FFFFFF" points="501.5625,406.289751955 512.331730769,402.308213493 512.331730769,469.645544872 501.5625,473.627083333" stroke="#000000" stroke-width="1" /><polyline fill="#FFFFFF" points="490.625,394.262856794 440.625,351.12952346 451.394230769,347.147984999 501.394230769,390.281318332" stroke="#000000" stroke-width="1" /><polyline fill="#FFFFFF" points="440.625,351.12952346 440.625,434.5375 490.625,477.670833333 490.625,394.262856794" stroke="#000000" stroke-width="1" /><polyline fill="#FFFFFF" points="490.625,394.262856794 501.394230769,390.281318332 501.394230769,473.689294872 490.625,477.670833333" stroke="#000000" stroke-width="1" /><polyline fill="#FFFFFF" points="479.6875,383.298483627 429.6875,340.165150293 440.456730769,336.183611832 490.456730769,379.316945165" stroke="#000000" stroke-width="1" /><polyline fill="#FFFFFF" points="429.6875,340.165150293 429.6875,438.58125 479.6875,481.714583333 479.6875,383.298483627" stroke="#000000" stroke-width="1" /><polyline fill="#FFFFFF" points="479.6875,383.298483627 490.456730769,379.316945165 490.456730769,477.733044872 479.6875,481.714583333" stroke="#000000" stroke-width="1" /><polyline fill="#FFFFFF" points="468.75,412.377908113 418.75,369.24457478 429.519230769,365.263036319 479.519230769,408.396369652" stroke="#000000" stroke-width="1" /><polyline fill="#FFFFFF" points="418.75,369.24457478 418.75,442.625 468.75,485.758333333 468.75,412.377908113" stroke="#000000" stroke-width="1" /><polyline fill="#FFFFFF" points="468.75,412.377908113 479.519230769,408.396369652 479.519230769,481.776794872 468.75,485.758333333" stroke="#000000" stroke-width="1" /><polyline fill="#FFFFFF" points="457.8125,417.882625855 407.8125,374.749292522 418.581730769,370.76775406 468.581730769,413.901087394" stroke="#000000" stroke-width="1" /><polyline fill="#FFFFFF" points="407.8125,374.749292522 407.8125,446.66875 457.8125,489.802083333 457.8125,417.882625855" stroke="#000000" stroke-width="1" /><polyline fill="#FFFFFF" points="457.8125,417.882625855 468.581730769,413.901087394 468.581730769,485.820544872 457.8125,489.802083333" stroke="#000000" stroke-width="1" /><polyline fill="#FFFFFF" points="446.875,434.392035679 396.875,391.258702346 407.644230769,387.277163885 457.644230769,430.410497218" stroke="#000000" stroke-width="1" /><polyline fill="#FFFFFF" points="396.875,391.258702346 396.875,450.7125 446.875,493.845833333 446.875,434.392035679" stroke="#000000" stroke-width="1" /><polyline fill="#FFFFFF" points="446.875,434.392035679 457.644230769,430.410497218 457.644230769,489.864294872 446.875,493.845833333" stroke="#000000" stroke-width="1" /><polyline fill="#FFFFFF" points="435.9375,459.771606794 385.9375,416.63827346 396.706730769,412.656734999 446.706730769,455.790068332" stroke="#000000" stroke-width="1" /><polyline fill="#FFFFFF" points="385.9375,416.63827346 385.9375,454.75625 435.9375,497.889583333 435.9375,459.771606794" stroke="#000000" stroke-width="1" /><polyline fill="#FFFFFF" points="435.9375,459.771606794 446.706730769,455.790068332 446.706730769,493.908044872 435.9375,497.889583333" stroke="#000000" stroke-width="1" /><polyline fill="#FFFFFF" points="425.0,450.666647116 375.0,407.533313783 385.769230769,403.551775321 435.769230769,446.685108655" stroke="#000000" stroke-width="1" /><polyline fill="#FFFFFF" points="375.0,407.533313783 375.0,458.8 425.0,501.933333333 425.0,450.666647116" stroke="#000000" stroke-width="1" /><polyline fill="#FFFFFF" points="425.0,450.666647116 435.769230769,446.685108655 435.769230769,497.951794872 425.0,501.933333333" stroke="#000000" stroke-width="1" /><polyline fill="#FFFFFF" points="414.0625,474.632684506 364.0625,431.499351173 374.831730769,427.517812711 424.831730769,470.651146045" stroke="#000000" stroke-width="1" /><polyline fill="#FFFFFF" points="364.0625,431.499351173 364.0625,462.84375 414.0625,505.977083333 414.0625,474.632684506" stroke="#000000" stroke-width="1" /><polyline fill="#FFFFFF" points="414.0625,474.632684506 424.831730769,470.651146045 424.831730769,501.995544872 414.0625,505.977083333" stroke="#000000" stroke-width="1" /><polyline fill="#FFFFFF" points="403.125,474.891199902 353.125,431.757866569 363.894230769,427.776328107 413.894230769,470.909661441" stroke="#000000" stroke-width="1" /><polyline fill="#FFFFFF" points="353.125,431.757866569 353.125,466.8875 403.125,510.020833333 403.125,474.891199902" stroke="#000000" stroke-width="1" /><polyline fill="#FFFFFF" points="403.125,474.891199902 413.894230769,470.909661441 413.894230769,506.039294872 403.125,510.020833333" stroke="#000000" stroke-width="1" /><polyline fill="#FFFFFF" points="392.1875,496.931416178 342.1875,453.798082845 352.956730769,449.816544383 402.956730769,492.949877716" stroke="#000000" stroke-width="1" /><polyline fill="#FFFFFF" points="342.1875,453.798082845 342.1875,470.93125 392.1875,514.064583333 392.1875,496.931416178" stroke="#000000" stroke-width="1" /><polyline fill="#FFFFFF" points="392.1875,496.931416178 402.956730769,492.949877716 402.956730769,510.083044872 392.1875,514.064583333" stroke="#000000" stroke-width="1" /><polyline fill="#FFFFFF" points="381.25,516.04969697 331.25,472.916363636 342.019230769,468.934825175 392.019230769,512.068158508" stroke="#000000" stroke-width="1" /><polyline fill="#FFFFFF" points="331.25,472.916363636 331.25,474.975 381.25,518.108333333 381.25,516.04969697" stroke="#000000" stroke-width="1" /><polyline fill="#FFFFFF" points="381.25,516.04969697 392.019230769,512.068158508 392.019230769,514.126794872 381.25,518.108333333" stroke="#000000" stroke-width="1" /><polyline fill="#FFFFFF" points="370.3125,469.025983627 320.3125,425.892650293 331.081730769,421.911111832 381.081730769,465.044445165" stroke="#000000" stroke-width="1" /><polyline fill="#FFFFFF" points="320.3125,425.892650293 320.3125,479.01875 370.3125,522.152083333 370.3125,469.025983627" stroke="#000000" stroke-width="1" /><polyline fill="#FFFFFF" points="370.3125,469.025983627 381.081730769,465.044445165 381.081730769,518.170544872 370.3125,522.152083333" stroke="#000000" stroke-width="1" /><polyline fill="#FFFFFF" points="359.375,484.026991691 309.375,440.893658358 320.144230769,436.912119896 370.144230769,480.04545323" stroke="#000000" stroke-width="1" /><polyline fill="#FFFFFF" points="309.375,440.893658358 309.375,483.0625 359.375,526.195833333 359.375,484.026991691" stroke="#000000" stroke-width="1" /><polyline fill="#FFFFFF" points="359.375,484.026991691 370.144230769,480.04545323 370.144230769,522.214294872 359.375,526.195833333" stroke="#000000" stroke-width="1" /><polyline fill="#FFFFFF" points="348.4375,487.406665445 298.4375,444.273332111 309.206730769,440.29179365 359.206730769,483.425126983" stroke="#000000" stroke-width="1" /><polyline fill="#FFFFFF" points="298.4375,444.273332111 298.4375,487.10625 348.4375,530.239583333 348.4375,487.406665445" stroke="#000000" stroke-width="1" /><polyline fill="#FFFFFF" points="348.4375,487.406665445 359.206730769,483.425126983 359.206730769,526.258044872 348.4375,530.239583333" stroke="#000000" stroke-width="1" /><polyline fill="#FFFFFF" points="337.5,517.947057674 287.5,474.81372434 298.269230769,470.832185879 348.269230769,513.965519212" stroke="#000000" stroke-width="1" /><polyline fill="#FFFFFF" points="287.5,474.81372434 287.5,491.15 337.5,534.283333333 337.5,517.947057674" stroke="#000000" stroke-width="1" /><polyline fill="#FFFFFF" points="337.5,517.947057674 348.269230769,513.965519212 348.269230769,530.301794872 337.5,534.283333333" stroke="#000000" stroke-width="1" /><polyline fill="#FFFFFF" points="326.5625,503.396672776 276.5625,460.263339443 287.331730769,456.281800981 337.331730769,499.415134315" stroke="#000000" stroke-width="1" /><polyline fill="#FFFFFF" points="276.5625,460.263339443 276.5625,495.19375 326.5625,538.327083333 326.5625,503.396672776" stroke="#000000" stroke-width="1" /><polyline fill="#FFFFFF" points="326.5625,503.396672776 337.331730769,499.415134315 337.331730769,534.345544872 326.5625,538.327083333" stroke="#000000" stroke-width="1" /><polyline fill="#FFFFFF" points="315.625,532.741727761 265.625,489.608394428 276.394230769,485.626855967 326.394230769,528.7601893" stroke="#000000" stroke-width="1" /><polyline fill="#FFFFFF" points="265.625,489.608394428 265.625,499.2375 315.625,542.370833333 315.625,532.741727761" stroke="#000000" stroke-width="1" /><polyline fill="#FFFFFF" points="315.625,532.741727761 326.394230769,528.7601893 326.394230769,538.389294872 315.625,542.370833333" stroke="#000000" stroke-width="1" /><polyline fill="#FFFFFF" points="304.6875,512.015433773 254.6875,468.88210044 265.456730769,464.900561978 315.456730769,508.033895312" stroke="#000000" stroke-width="1" /><polyline fill="#FFFFFF" points="254.6875,468.88210044 254.6875,503.28125 304.6875,546.414583333 304.6875,512.015433773" stroke="#000000" stroke-width="1" /><polyline fill="#FFFFFF" points="304.6875,512.015433773 315.456730769,508.033895312 315.456730769,542.433044872 304.6875,546.414583333" stroke="#000000" stroke-width="1" /><polyline fill="#FFFFFF" points="293.75,536.844770283 243.75,493.71143695 254.519230769,489.729898489 304.519230769,532.863231822" stroke="#000000" stroke-width="1" /><polyline fill="#FFFFFF" points="243.75,493.71143695 243.75,507.325 293.75,550.458333333 293.75,536.844770283" stroke="#000000" stroke-width="1" /><polyline fill="#FFFFFF" points="293.75,536.844770283 304.519230769,532.863231822 304.519230769,546.476794872 293.75,550.458333333" stroke="#000000" stroke-width="1" /><polyline fill="#FFFFFF" points="282.8125,554.502083333 232.8125,511.36875 243.581730769,507.387211538 293.581730769,550.520544872" stroke="#000000" stroke-width="1" /><polyline fill="#FFFFFF" points="232.8125,511.36875 232.8125,511.36875 282.8125,554.502083333 282.8125,554.502083333" stroke="#000000" stroke-width="1" /><polyline fill="#FFFFFF" points="282.8125,554.502083333 293.581730769,550.520544872 293.581730769,550.520544872 282.8125,554.502083333" stroke="#000000" stroke-width="1" /><polyline fill="#FFFFFF" points="271.875,532.115598729 221.875,488.982265396 232.644230769,485.000726934 282.644230769,528.134060268" stroke="#000000" stroke-width="1" /><polyline fill="#FFFFFF" points="221.875,488.982265396 221.875,515.4125 271.875,558.545833333 271.875,532.115598729" stroke="#000000" stroke-width="1" /><polyline fill="#FFFFFF" points="271.875,532.115598729 282.644230769,528.134060268 282.644230769,554.564294872 271.875,558.545833333" stroke="#000000" stroke-width="1" /><polyline fill="#FFFFFF" points="260.9375,545.456416178 210.9375,502.323082845 221.706730769,498.341544383 271.706730769,541.474877716" stroke="#000000" stroke-width="1" /><polyline fill="#FFFFFF" points="210.9375,502.323082845 210.9375,519.45625 260.9375,562.589583333 260.9375,545.456416178" stroke="#000000" stroke-width="1" /><polyline fill="#FFFFFF" points="260.9375,545.456416178 271.706730769,541.474877716 271.706730769,558.608044872 260.9375,562.589583333" stroke="#000000" stroke-width="1" /><polyline fill="#FFFFFF" points="250.0,549.500166178 200.0,506.366832845 210.769230769,502.385294383 260.769230769,545.518627716" stroke="#000000" stroke-width="1" /><polyline fill="#FFFFFF" points="200.0,506.366832845 200.0,523.5 250.0,566.633333333 250.0,549.500166178" stroke="#000000" stroke-width="1" /><polyline fill="#FFFFFF" points="250.0,549.500166178 260.769230769,545.518627716 260.769230769,562.651794872 250.0,566.633333333" stroke="#000000" stroke-width="1" /><polyline fill="#FFFFFF" points="1075.0,189.216666667 1025.0,146.083333333 1035.76923077,142.101794872 1085.76923077,185.235128205" stroke="#000000" stroke-width="1" /><polyline fill="#FFFFFF" points="1025.0,146.083333333 1025.0,372.533333333 1075.0,415.666666667 1075.0,189.216666667" stroke="#000000" stroke-width="1" /><polyline fill="#FFFFFF" points="1075.0,189.216666667 1085.76923077,185.235128205 1085.76923077,411.685128205 1075.0,415.666666667" stroke="#000000" stroke-width="1" /><polyline fill="#FFFFFF" points="1064.0625,201.893407869 1014.0625,158.760074536 1024.83173077,154.778536074 1074.83173077,197.911869407" stroke="#000000" stroke-width="1" /><polyline fill="#FFFFFF" points="1014.0625,158.760074536 1014.0625,376.577083333 1064.0625,419.710416667 1064.0625,201.893407869" stroke="#000000" stroke-width="1" /><polyline fill="#FFFFFF" points="1064.0625,201.893407869 1074.83173077,197.911869407 1074.83173077,415.728878205 1064.0625,419.710416667" stroke="#000000" stroke-width="1" /><polyline fill="#FFFFFF" points="1053.125,252.223272239 1003.125,209.089938905 1013.89423077,205.108400444 1063.89423077,248.241733777" stroke="#000000" stroke-width="1" /><polyline fill="#FFFFFF" points="1003.125,209.089938905 1003.125,380.620833333 1053.125,423.754166667 1053.125,252.223272239" stroke="#000000" stroke-width="1" /><polyline fill="#FFFFFF" points="1053.125,252.223272239 1063.89423077,248.241733777 1063.89423077,419.772628205 1053.125,423.754166667" stroke="#000000" stroke-width="1" /><polyline fill="#FFFFFF" points="1042.1875,255.602945992 992.1875,212.469612659 1002.95673077,208.488074197 1052.95673077,251.621407531" stroke="#000000" stroke-width="1" /><polyline fill="#FFFFFF" points="992.1875,212.469612659 992.1875,384.664583333 1042.1875,427.797916667 1042.1875,255.602945992" stroke="#000000" stroke-width="1" /><polyline fill="#FFFFFF" points="1042.1875,255.602945992 1052.95673077,251.621407531 1052.95673077,423.816378205 1042.1875,427.797916667" stroke="#000000" stroke-width="1" /><polyline fill="#FFFFFF" points="1031.25,294.842737048 981.25,251.709403715 992.019230769,247.727865253 1042.01923077,290.861198586" stroke="#000000" stroke-width="1" /><polyline fill="#FFFFFF" points="981.25,251.709403715 981.25,388.708333333 1031.25,431.841666667 1031.25,294.842737048" stroke="#000000" stroke-width="1" /><polyline fill="#FFFFFF" points="1031.25,294.842737048 1042.01923077,290.861198586 1042.01923077,427.860128205 1031.25,431.841666667" stroke="#000000" stroke-width="1" /><polyline fill="#FFFFFF" points="1020.3125,298.222410802 970.3125,255.089077468 981.081730769,251.107539007 1031.08173077,294.24087234" stroke="#000000" stroke-width="1" /><polyline fill="#FFFFFF" points="970.3125,255.089077468 970.3125,392.752083333 1020.3125,435.885416667 1020.3125,298.222410802" stroke="#000000" stroke-width="1" /><polyline fill="#FFFFFF" points="1020.3125,298.222410802 1031.08173077,294.24087234 1031.08173077,431.903878205 1020.3125,435.885416667" stroke="#000000" stroke-width="1" /><polyline fill="#FFFFFF" points="1009.375,283.47280303 959.375,240.339469697 970.144230769,236.357931235 1020.14423077,279.491264569" stroke="#000000" stroke-width="1" /><polyline fill="#FFFFFF" points="959.375,240.339469697 959.375,396.795833333 1009.375,439.929166667 1009.375,283.47280303" stroke="#000000" stroke-width="1" /><polyline fill="#FFFFFF" points="1009.375,283.47280303 1020.14423077,279.491264569 1020.14423077,435.947628205 1009.375,439.929166667" stroke="#000000" stroke-width="1" /><polyline fill="#FFFFFF" points="998.4375,317.46639174 948.4375,274.333058407 959.206730769,270.351519945 1009.20673077,313.484853278" stroke="#000000" stroke-width="1" /><polyline fill="#FFFFFF" points="948.4375,274.333058407 948.4375,400.839583333 998.4375,443.972916667 998.4375,317.46639174" stroke="#000000" stroke-width="1" /><polyline fill="#FFFFFF" points="998.4375,317.46639174 1009.20673077,313.484853278 1009.20673077,439.991378205 998.4375,443.972916667" stroke="#000000" stroke-width="1" /><polyline fill="#FFFFFF" points="987.5,302.783191593 937.5,259.64985826 948.269230769,255.668319798 998.269230769,298.801653132" stroke="#000000" stroke-width="1" /><polyline fill="#FFFFFF" points="937.5,259.64985826 937.5,404.883333333 987.5,448.016666667 987.5,302.783191593" stroke="#000000" stroke-width="1" /><polyline fill="#FFFFFF" points="987.5,302.783191593 998.269230769,298.801653132 998.269230769,444.035128205 987.5,448.016666667" stroke="#000000" stroke-width="1" /><polyline fill="#FFFFFF" points="976.5625,331.397762708 926.5625,288.264429374 937.331730769,284.282890913 987.331730769,327.416224246" stroke="#000000" stroke-width="1" /><polyline fill="#FFFFFF" points="926.5625,288.264429374 926.5625,408.927083333 976.5625,452.060416667 976.5625,331.397762708" stroke="#000000" stroke-width="1" /><polyline fill="#FFFFFF" points="976.5625,331.397762708 987.331730769,327.416224246 987.331730769,448.078878205 976.5625,452.060416667" stroke="#000000" stroke-width="1" /><polyline fill="#FFFFFF" points="965.625,299.116542033 915.625,255.9832087 926.394230769,252.001670238 976.394230769,295.135003572" stroke="#000000" stroke-width="1" /><polyline fill="#FFFFFF" points="915.625,255.9832087 915.625,412.970833333 965.625,456.104166667 965.625,299.116542033" stroke="#000000" stroke-width="1" /><polyline fill="#FFFFFF" points="965.625,299.116542033 976.394230769,295.135003572 976.394230769,452.122628205 965.625,456.104166667" stroke="#000000" stroke-width="1" /><polyline fill="#FFFFFF" points="954.6875,359.606772972 904.6875,316.473439638 915.456730769,312.491901177 965.456730769,355.62523451" stroke="#000000" stroke-width="1" /><polyline fill="#FFFFFF" points="904.6875,316.473439638 904.6875,417.014583333 954.6875,460.147916667 954.6875,359.606772972" stroke="#000000" stroke-width="1" /><polyline fill="#FFFFFF" points="954.6875,359.606772972 965.456730769,355.62523451 965.456730769,456.166378205 954.6875,460.147916667" stroke="#000000" stroke-width="1" /><polyline fill="#FFFFFF" points="943.75,350.30259042 893.75,307.169257087 904.519230769,303.187718625 954.519230769,346.321051959" stroke="#000000" stroke-width="1" /><polyline fill="#FFFFFF" points="893.75,307.169257087 893.75,421.058333333 943.75,464.191666667 943.75,350.30259042" stroke="#000000" stroke-width="1" /><polyline fill="#FFFFFF" points="943.75,350.30259042 954.519230769,346.321051959 954.519230769,460.210128205 943.75,464.191666667" stroke="#000000" stroke-width="1" /><polyline fill="#FFFFFF" points="932.8125,338.607733382 882.8125,295.474400049 893.581730769,291.492861587 943.581730769,334.626194921" stroke="#000000" stroke-width="1" /><polyline fill="#FFFFFF" points="882.8125,295.474400049 882.8125,425.102083333 932.8125,468.235416667 932.8125,338.607733382" stroke="#000000" stroke-width="1" /><polyline fill="#FFFFFF" points="932.8125,338.607733382 943.581730769,334.626194921 943.581730769,464.253878205 932.8125,468.235416667" stroke="#000000" stroke-width="1" /><polyline fill="#FFFFFF" points="921.875,355.866600684 871.875,312.733267351 882.644230769,308.751728889 932.644230769,351.885062223" stroke="#000000" stroke-width="1" /><polyline fill="#FFFFFF" points="871.875,312.733267351 871.875,429.145833333 921.875,472.279166667 921.875,355.866600684" stroke="#000000" stroke-width="1" /><polyline fill="#FFFFFF" points="921.875,355.866600684 932.644230769,351.885062223 932.644230769,468.297628205 921.875,472.279166667" stroke="#000000" stroke-width="1" /><polyline fill="#FFFFFF" points="910.9375,332.284778837 860.9375,289.151445503 871.706730769,285.169907042 921.706730769,328.303240375" stroke="#000000" stroke-width="1" /><polyline fill="#FFFFFF" points="860.9375,289.151445503 860.9375,433.189583333 910.9375,476.322916667 910.9375,332.284778837" stroke="#000000" stroke-width="1" /><polyline fill="#FFFFFF" points="910.9375,332.284778837 921.706730769,328.303240375 921.706730769,472.341378205 910.9375,476.322916667" stroke="#000000" stroke-width="1" /><polyline fill="#FFFFFF" points="900.0,311.492077224 850.0,268.358743891 860.769230769,264.377205429 910.769230769,307.510538762" stroke="#000000" stroke-width="1" /><polyline fill="#FFFFFF" points="850.0,268.358743891 850.0,437.233333333 900.0,480.366666667 900.0,311.492077224" stroke="#000000" stroke-width="1" /><polyline fill="#FFFFFF" points="900.0,311.492077224 910.769230769,307.510538762 910.769230769,476.385128205 900.0,480.366666667" stroke="#000000" stroke-width="1" /><polyline fill="#FFFFFF" points="889.0625,370.786970919 839.0625,327.653637586 849.831730769,323.672099124 899.831730769,366.805432457" stroke="#000000" stroke-width="1" /><polyline fill="#FFFFFF" points="839.0625,327.653637586 839.0625,441.277083333 889.0625,484.410416667 889.0625,370.786970919" stroke="#000000" stroke-width="1" /><polyline fill="#FFFFFF" points="889.0625,370.786970919 899.831730769,366.805432457 899.831730769,480.428878205 889.0625,484.410416667" stroke="#000000" stroke-width="1" /><polyline fill="#FFFFFF" points="878.125,352.650574291 828.125,309.517240958 838.894230769,305.535702496 888.894230769,348.66903583" stroke="#000000" stroke-width="1" /><polyline fill="#FFFFFF" points="828.125,309.517240958 828.125,445.320833333 878.125,488.454166667 878.125,352.650574291" stroke="#000000" stroke-width="1" /><polyline fill="#FFFFFF" points="878.125,352.650574291 888.894230769,348.66903583 888.894230769,484.472628205 878.125,488.454166667" stroke="#000000" stroke-width="1" /><polyline fill="#FFFFFF" points="867.1875,403.644514907 817.1875,360.511181574 827.956730769,356.529643112 877.956730769,399.662976446" stroke="#000000" stroke-width="1" /><polyline fill="#FFFFFF" points="817.1875,360.511181574 817.1875,449.364583333 867.1875,492.497916667 867.1875,403.644514907" stroke="#000000" stroke-width="1" /><polyline fill="#FFFFFF" points="867.1875,403.644514907 877.956730769,399.662976446 877.956730769,488.516378205 867.1875,492.497916667" stroke="#000000" stroke-width="1" /><polyline fill="#FFFFFF" points="856.25,340.350933529 806.25,297.217600196 817.019230769,293.236061734 867.019230769,336.369395067" stroke="#000000" stroke-width="1" /><polyline fill="#FFFFFF" points="806.25,297.217600196 806.25,453.408333333 856.25,496.541666667 856.25,340.350933529" stroke="#000000" stroke-width="1" /><polyline fill="#FFFFFF" points="856.25,340.350933529 867.019230769,336.369395067 867.019230769,492.560128205 856.25,496.541666667" stroke="#000000" stroke-width="1" /><polyline fill="#FFFFFF" points="845.3125,386.430709922 795.3125,343.297376588 806.081730769,339.315838127 856.081730769,382.44917146" stroke="#000000" stroke-width="1" /><polyline fill="#FFFFFF" points="795.3125,343.297376588 795.3125,457.452083333 845.3125,500.585416667 845.3125,386.430709922" stroke="#000000" stroke-width="1" /><polyline fill="#FFFFFF" points="845.3125,386.430709922 856.081730769,382.44917146 856.081730769,496.603878205 845.3125,500.585416667" stroke="#000000" stroke-width="1" /><polyline fill="#FFFFFF" points="834.375,381.044577224 784.375,337.911243891 795.144230769,333.929705429 845.144230769,377.063038762" stroke="#000000" stroke-width="1" /><polyline fill="#FFFFFF" points="784.375,337.911243891 784.375,461.495833333 834.375,504.629166667 834.375,381.044577224" stroke="#000000" stroke-width="1" /><polyline fill="#FFFFFF" points="834.375,381.044577224 845.144230769,377.063038762 845.144230769,500.647628205 834.375,504.629166667" stroke="#000000" stroke-width="1" /><polyline fill="#FFFFFF" points="823.4375,380.572608749 773.4375,337.439275415 784.206730769,333.457736954 834.206730769,376.591070287" stroke="#000000" stroke-width="1" /><polyline fill="#FFFFFF" points="773.4375,337.439275415 773.4375,465.539583333 823.4375,508.672916667 823.4375,380.572608749" stroke="#000000" stroke-width="1" /><polyline fill="#FFFFFF" points="823.4375,380.572608749 834.206730769,376.591070287 834.206730769,504.691378205 823.4375,508.672916667" stroke="#000000" stroke-width="1" /><polyline fill="#FFFFFF" points="812.5,376.18259042 762.5,333.049257087 773.269230769,329.067718625 823.269230769,372.201051959" stroke="#000000" stroke-width="1" /><polyline fill="#FFFFFF" points="762.5,333.049257087 762.5,469.583333333 812.5,512.716666667 812.5,376.18259042" stroke="#000000" stroke-width="1" /><polyline fill="#FFFFFF" points="812.5,376.18259042 823.269230769,372.201051959 823.269230769,508.735128205 812.5,512.716666667" stroke="#000000" stroke-width="1" /><polyline fill="#FFFFFF" points="801.5625,428.836721652 751.5625,385.703388319 762.331730769,381.721849857 812.331730769,424.85518319" stroke="#000000" stroke-width="1" /><polyline fill="#FFFFFF" points="751.5625,385.703388319 751.5625,473.627083333 801.5625,516.760416667 801.5625,428.836721652" stroke="#000000" stroke-width="1" /><polyline fill="#FFFFFF" points="801.5625,428.836721652 812.331730769,424.85518319 812.331730769,512.778878205 801.5625,516.760416667" stroke="#000000" stroke-width="1" /><polyline fill="#FFFFFF" points="790.625,450.810530303 740.625,407.67719697 751.394230769,403.695658508 801.394230769,446.828991841" stroke="#000000" stroke-width="1" /><polyline fill="#FFFFFF" points="740.625,407.67719697 740.625,477.670833333 790.625,520.804166667 790.625,450.810530303" stroke="#000000" stroke-width="1" /><polyline fill="#FFFFFF" points="790.625,450.810530303 801.394230769,446.828991841 801.394230769,516.822628205 790.625,520.804166667" stroke="#000000" stroke-width="1" /><polyline fill="#FFFFFF" points="779.6875,459.037960655 729.6875,415.904627322 740.456730769,411.92308886 790.456730769,455.056422193" stroke="#000000" stroke-width="1" /><polyline fill="#FFFFFF" points="729.6875,415.904627322 729.6875,481.714583333 779.6875,524.847916667 779.6875,459.037960655" stroke="#000000" stroke-width="1" /><polyline fill="#FFFFFF" points="779.6875,459.037960655 790.456730769,455.056422193 790.456730769,520.866378205 779.6875,524.847916667" stroke="#000000" stroke-width="1" /><polyline fill="#FFFFFF" points="768.75,435.456138807 718.75,392.322805474 729.519230769,388.341267013 779.519230769,431.474600346" stroke="#000000" stroke-width="1" /><polyline fill="#FFFFFF" points="718.75,392.322805474 718.75,485.758333333 768.75,528.891666667 768.75,435.456138807" stroke="#000000" stroke-width="1" /><polyline fill="#FFFFFF" points="768.75,435.456138807 779.519230769,431.474600346 779.519230769,524.910128205 768.75,528.891666667" stroke="#000000" stroke-width="1" /><polyline fill="#FFFFFF" points="757.8125,422.964390274 707.8125,379.83105694 718.581730769,375.849518479 768.581730769,418.982851812" stroke="#000000" stroke-width="1" /><polyline fill="#FFFFFF" points="707.8125,379.83105694 707.8125,489.802083333 757.8125,532.935416667 757.8125,422.964390274" stroke="#000000" stroke-width="1" /><polyline fill="#FFFFFF" points="757.8125,422.964390274 768.581730769,418.982851812 768.581730769,528.953878205 757.8125,532.935416667" stroke="#000000" stroke-width="1" /><polyline fill="#FFFFFF" points="746.875,438.031805963 696.875,394.89847263 707.644230769,390.916934168 757.644230769,434.050267501" stroke="#000000" stroke-width="1" /><polyline fill="#FFFFFF" points="696.875,394.89847263 696.875,493.845833333 746.875,536.979166667 746.875,438.031805963" stroke="#000000" stroke-width="1" /><polyline fill="#FFFFFF" points="746.875,438.031805963 757.644230769,434.050267501 757.644230769,532.997628205 746.875,536.979166667" stroke="#000000" stroke-width="1" /><polyline fill="#FFFFFF" points="735.9375,440.216142473 685.9375,397.08280914 696.706730769,393.101270678 746.706730769,436.234604012" stroke="#000000" stroke-width="1" /><polyline fill="#FFFFFF" points="685.9375,397.08280914 685.9375,497.889583333 735.9375,541.022916667 735.9375,440.216142473" stroke="#000000" stroke-width="1" /><polyline fill="#FFFFFF" points="735.9375,440.216142473 746.706730769,436.234604012 746.706730769,537.041378205 735.9375,541.022916667" stroke="#000000" stroke-width="1" /><polyline fill="#FFFFFF" points="725.0,420.950816227 675.0,377.817482893 685.769230769,373.835944432 735.769230769,416.969277765" stroke="#000000" stroke-width="1" /><polyline fill="#FFFFFF" points="675.0,377.817482893 675.0,501.933333333 725.0,545.066666667 725.0,420.950816227" stroke="#000000" stroke-width="1" /><polyline fill="#FFFFFF" points="725.0,420.950816227 735.769230769,416.969277765 735.769230769,541.085128205 725.0,545.066666667" stroke="#000000" stroke-width="1" /><polyline fill="#FFFFFF" points="714.0625,477.522997312 664.0625,434.389663978 674.831730769,430.408125517 724.831730769,473.54145885" stroke="#000000" stroke-width="1" /><polyline fill="#FFFFFF" points="664.0625,434.389663978 664.0625,505.977083333 714.0625,549.110416667 714.0625,477.522997312" stroke="#000000" stroke-width="1" /><polyline fill="#FFFFFF" points="714.0625,477.522997312 724.831730769,473.54145885 724.831730769,545.128878205 714.0625,549.110416667" stroke="#000000" stroke-width="1" /><polyline fill="#FFFFFF" points="703.125,511.118140274 653.125,467.98480694 663.894230769,464.003268479 713.894230769,507.136601812" stroke="#000000" stroke-width="1" /><polyline fill="#FFFFFF" points="653.125,467.98480694 653.125,510.020833333 703.125,553.154166667 703.125,511.118140274" stroke="#000000" stroke-width="1" /><polyline fill="#FFFFFF" points="703.125,511.118140274 713.894230769,507.136601812 713.894230769,549.172628205 703.125,553.154166667" stroke="#000000" stroke-width="1" /><polyline fill="#FFFFFF" points="692.1875,491.852814027 642.1875,448.719480694 652.956730769,444.737942232 702.956730769,487.871275566" stroke="#000000" stroke-width="1" /><polyline fill="#FFFFFF" points="642.1875,448.719480694 642.1875,514.064583333 692.1875,557.197916667 692.1875,491.852814027" stroke="#000000" stroke-width="1" /><polyline fill="#FFFFFF" points="692.1875,491.852814027 702.956730769,487.871275566 702.956730769,553.216378205 692.1875,557.197916667" stroke="#000000" stroke-width="1" /><polyline fill="#FFFFFF" points="681.25,508.713235582 631.25,465.579902248 642.019230769,461.598363787 692.019230769,504.73169712" stroke="#000000" stroke-width="1" /><polyline fill="#FFFFFF" points="631.25,465.579902248 631.25,518.108333333 681.25,561.241666667 681.25,508.713235582" stroke="#000000" stroke-width="1" /><polyline fill="#FFFFFF" points="681.25,508.713235582 692.019230769,504.73169712 692.019230769,557.260128205 681.25,561.241666667" stroke="#000000" stroke-width="1" /><polyline fill="#FFFFFF" points="670.3125,496.951970919 620.3125,453.818637586 631.081730769,449.837099124 681.081730769,492.970432457" stroke="#000000" stroke-width="1" /><polyline fill="#FFFFFF" points="620.3125,453.818637586 620.3125,522.152083333 670.3125,565.285416667 670.3125,496.951970919" stroke="#000000" stroke-width="1" /><polyline fill="#FFFFFF" points="670.3125,496.951970919 681.081730769,492.970432457 681.081730769,561.303878205 670.3125,565.285416667" stroke="#000000" stroke-width="1" /><polyline fill="#FFFFFF" points="659.375,518.660149071 609.375,475.526815738 620.144230769,471.545277276 670.144230769,514.67861061" stroke="#000000" stroke-width="1" /><polyline fill="#FFFFFF" points="609.375,475.526815738 609.375,526.195833333 659.375,569.329166667 659.375,518.660149071" stroke="#000000" stroke-width="1" /><polyline fill="#FFFFFF" points="659.375,518.660149071 670.144230769,514.67861061 670.144230769,565.347628205 659.375,569.329166667" stroke="#000000" stroke-width="1" /><polyline fill="#FFFFFF" points="648.4375,530.407183529 598.4375,487.273850196 609.206730769,483.292311734 659.206730769,526.425645067" stroke="#000000" stroke-width="1" /><polyline fill="#FFFFFF" points="598.4375,487.273850196 598.4375,530.239583333 648.4375,573.372916667 648.4375,530.407183529" stroke="#000000" stroke-width="1" /><polyline fill="#FFFFFF" points="648.4375,530.407183529 659.206730769,526.425645067 659.206730769,569.391378205 648.4375,573.372916667" stroke="#000000" stroke-width="1" /><polyline fill="#FFFFFF" points="637.5,472.293396872 587.5,429.160063539 598.269230769,425.178525077 648.269230769,468.31185841" stroke="#000000" stroke-width="1" /><polyline fill="#FFFFFF" points="587.5,429.160063539 587.5,534.283333333 637.5,577.416666667 637.5,472.293396872" stroke="#000000" stroke-width="1" /><polyline fill="#FFFFFF" points="637.5,472.293396872 648.269230769,468.31185841 648.269230769,573.435128205 637.5,577.416666667" stroke="#000000" stroke-width="1" /><polyline fill="#FFFFFF" points="626.5625,491.743715787 576.5625,448.610382454 587.331730769,444.628843992 637.331730769,487.762177325" stroke="#000000" stroke-width="1" /><polyline fill="#FFFFFF" points="576.5625,448.610382454 576.5625,538.327083333 626.5625,581.460416667 626.5625,491.743715787" stroke="#000000" stroke-width="1" /><polyline fill="#FFFFFF" points="626.5625,491.743715787 637.331730769,487.762177325 637.331730769,577.478878205 626.5625,581.460416667" stroke="#000000" stroke-width="1" /><polyline fill="#FFFFFF" points="615.625,469.622861681 565.625,426.489528348 576.394230769,422.507989886 626.394230769,465.64132322" stroke="#000000" stroke-width="1" /><polyline fill="#FFFFFF" points="565.625,426.489528348 565.625,542.370833333 615.625,585.504166667 615.625,469.622861681" stroke="#000000" stroke-width="1" /><polyline fill="#FFFFFF" points="615.625,469.622861681 626.394230769,465.64132322 626.394230769,581.522628205 615.625,585.504166667" stroke="#000000" stroke-width="1" /><polyline fill="#FFFFFF" points="604.6875,489.870072092 554.6875,446.736738759 565.456730769,442.755200297 615.456730769,485.88853363" stroke="#000000" stroke-width="1" /><polyline fill="#FFFFFF" points="554.6875,446.736738759 554.6875,546.414583333 604.6875,589.547916667 604.6875,489.870072092" stroke="#000000" stroke-width="1" /><polyline fill="#FFFFFF" points="604.6875,489.870072092 615.456730769,485.88853363 615.456730769,585.566378205 604.6875,589.547916667" stroke="#000000" stroke-width="1" /><polyline fill="#FFFFFF" points="593.75,529.043455523 543.75,485.91012219 554.519230769,481.928583728 604.519230769,525.061917061" stroke="#000000" stroke-width="1" /><polyline fill="#FFFFFF" points="543.75,485.91012219 543.75,550.458333333 593.75,593.591666667 593.75,529.043455523" stroke="#000000" stroke-width="1" /><polyline fill="#FFFFFF" points="593.75,529.043455523 604.519230769,525.061917061 604.519230769,589.610128205 593.75,593.591666667" stroke="#000000" stroke-width="1" /><polyline fill="#FFFFFF" points="582.8125,538.731853617 532.8125,495.598520283 543.581730769,491.616981822 593.581730769,534.750315155" stroke="#000000" stroke-width="1" /><polyline fill="#FFFFFF" points="532.8125,495.598520283 532.8125,554.502083333 582.8125,597.635416667 582.8125,538.731853617" stroke="#000000" stroke-width="1" /><polyline fill="#FFFFFF" points="582.8125,538.731853617 593.581730769,534.750315155 593.581730769,593.653878205 582.8125,597.635416667" stroke="#000000" stroke-width="1" /><polyline fill="#FFFFFF" points="571.875,547.955398338 521.875,504.822065005 532.644230769,500.840526543 582.644230769,543.973859877" stroke="#000000" stroke-width="1" /><polyline fill="#FFFFFF" points="521.875,504.822065005 521.875,558.545833333 571.875,601.679166667 571.875,547.955398338" stroke="#000000" stroke-width="1" /><polyline fill="#FFFFFF" points="571.875,547.955398338 582.644230769,543.973859877 582.644230769,597.697628205 571.875,601.679166667" stroke="#000000" stroke-width="1" /><polyline fill="#FFFFFF" points="560.9375,578.362975318 510.9375,535.229641984 521.706730769,531.248103523 571.706730769,574.381436856" stroke="#000000" stroke-width="1" /><polyline fill="#FFFFFF" points="510.9375,535.229641984 510.9375,562.589583333 560.9375,605.722916667 560.9375,578.362975318" stroke="#000000" stroke-width="1" /><polyline fill="#FFFFFF" points="560.9375,578.362975318 571.706730769,574.381436856 571.706730769,601.741378205 560.9375,605.722916667" stroke="#000000" stroke-width="1" /><polyline fill="#FFFFFF" points="550.0,572.379173998 500.0,529.245840665 510.769230769,525.264302203 560.769230769,568.397635537" stroke="#000000" stroke-width="1" /><polyline fill="#FFFFFF" points="500.0,529.245840665 500.0,566.633333333 550.0,609.766666667 550.0,572.379173998" stroke="#000000" stroke-width="1" /><polyline fill="#FFFFFF" points="550.0,572.379173998 560.769230769,568.397635537 560.769230769,605.785128205 550.0,609.766666667" stroke="#000000" stroke-width="1" /><polyline fill="#FFFFFF" points="539.0625,580.673011975 489.0625,537.539678641 499.831730769,533.55814018 549.831730769,576.691473513" stroke="#000000" stroke-width="1" /><polyline fill="#FFFFFF" points="489.0625,537.539678641 489.0625,570.677083333 539.0625,613.810416667 539.0625,580.673011975" stroke="#000000" stroke-width="1" /><polyline fill="#FFFFFF" points="539.0625,580.673011975 549.831730769,576.691473513 549.831730769,609.828878205 539.0625,613.810416667" stroke="#000000" stroke-width="1" /><polyline fill="#FFFFFF" points="528.125,604.240603617 478.125,561.107270283 488.894230769,557.125731822 538.894230769,600.259065155" stroke="#000000" stroke-width="1" /><polyline fill="#FFFFFF" points="478.125,561.107270283 478.125,574.720833333 528.125,617.854166667 528.125,604.240603617" stroke="#000000" stroke-width="1" /><polyline fill="#FFFFFF" points="528.125,604.240603617 538.894230769,600.259065155 538.894230769,613.872628205 528.125,617.854166667" stroke="#000000" stroke-width="1" /><polyline fill="#FFFFFF" points="517.1875,611.671142473 467.1875,568.53780914 477.956730769,564.556270678 527.956730769,607.689604012" stroke="#000000" stroke-width="1" /><polyline fill="#FFFFFF" points="467.1875,568.53780914 467.1875,578.764583333 517.1875,621.897916667 517.1875,611.671142473" stroke="#000000" stroke-width="1" /><polyline fill="#FFFFFF" points="517.1875,611.671142473 527.956730769,607.689604012 527.956730769,617.916378205 517.1875,621.897916667" stroke="#000000" stroke-width="1" /><polyline fill="#FFFFFF" points="506.25,611.66402737 456.25,568.530694037 467.019230769,564.549155576 517.019230769,607.682488909" stroke="#000000" stroke-width="1" /><polyline fill="#FFFFFF" points="456.25,568.530694037 456.25,582.808333333 506.25,625.941666667 506.25,611.66402737" stroke="#000000" stroke-width="1" /><polyline fill="#FFFFFF" points="506.25,611.66402737 517.019230769,607.682488909 517.019230769,621.960128205 506.25,625.941666667" stroke="#000000" stroke-width="1" /><polyline fill="#FFFFFF" points="495.3125,558.929258309 445.3125,515.795924976 456.081730769,511.814386514 506.081730769,554.947719847" stroke="#000000" stroke-width="1" /><polyline fill="#FFFFFF" points="445.3125,515.795924976 445.3125,586.852083333 495.3125,629.985416667 495.3125,558.929258309" stroke="#000000" stroke-width="1" /><polyline fill="#FFFFFF" points="495.3125,558.929258309 506.081730769,554.947719847 506.081730769,626.003878205 495.3125,629.985416667" stroke="#000000" stroke-width="1" /><polyline fill="#FFFFFF" points="484.375,607.13407869 434.375,564.000745357 445.144230769,560.019206895 495.144230769,603.152540229" stroke="#000000" stroke-width="1" /><polyline fill="#FFFFFF" points="434.375,564.000745357 434.375,590.895833333 484.375,634.029166667 484.375,607.13407869" stroke="#000000" stroke-width="1" /><polyline fill="#FFFFFF" points="484.375,607.13407869 495.144230769,603.152540229 495.144230769,630.047628205 484.375,634.029166667" stroke="#000000" stroke-width="1" /><polyline fill="#FFFFFF" points="473.4375,575.981787634 423.4375,532.848454301 434.206730769,528.86691584 484.206730769,572.000249173" stroke="#000000" stroke-width="1" /><polyline fill="#FFFFFF" points="423.4375,532.848454301 423.4375,594.939583333 473.4375,638.072916667 473.4375,575.981787634" stroke="#000000" stroke-width="1" /><polyline fill="#FFFFFF" points="473.4375,575.981787634 484.206730769,572.000249173 484.206730769,634.091378205 473.4375,638.072916667" stroke="#000000" stroke-width="1" /><polyline fill="#FFFFFF" points="462.5,612.034012708 412.5,568.900679374 423.269230769,564.919140913 473.269230769,608.052474246" stroke="#000000" stroke-width="1" /><polyline fill="#FFFFFF" points="412.5,568.900679374 412.5,598.983333333 462.5,642.116666667 462.5,612.034012708" stroke="#000000" stroke-width="1" /><polyline fill="#FFFFFF" points="462.5,612.034012708 473.269230769,608.052474246 473.269230769,638.135128205 462.5,642.116666667" stroke="#000000" stroke-width="1" /><polyline fill="#FFFFFF" points="451.5625,624.245900538 401.5625,581.112567204 412.331730769,577.131028743 462.331730769,620.264362076" stroke="#000000" stroke-width="1" /><polyline fill="#FFFFFF" points="401.5625,581.112567204 401.5625,603.027083333 451.5625,646.160416667 451.5625,624.245900538" stroke="#000000" stroke-width="1" /><polyline fill="#FFFFFF" points="451.5625,624.245900538 462.331730769,620.264362076 462.331730769,642.178878205 451.5625,646.160416667" stroke="#000000" stroke-width="1" /><polyline fill="#FFFFFF" points="440.625,589.308374878 390.625,546.175041544 401.394230769,542.193503083 451.394230769,585.326836416" stroke="#000000" stroke-width="1" /><polyline fill="#FFFFFF" points="390.625,546.175041544 390.625,607.070833333 440.625,650.204166667 440.625,589.308374878" stroke="#000000" stroke-width="1" /><polyline fill="#FFFFFF" points="440.625,589.308374878 451.394230769,585.326836416 451.394230769,646.222628205 440.625,650.204166667" stroke="#000000" stroke-width="1" /><polyline fill="#FFFFFF" points="429.6875,654.247916667 379.6875,611.114583333 390.456730769,607.133044872 440.456730769,650.266378205" stroke="#000000" stroke-width="1" /><polyline fill="#FFFFFF" points="379.6875,611.114583333 379.6875,611.114583333 429.6875,654.247916667 429.6875,654.247916667" stroke="#000000" stroke-width="1" /><polyline fill="#FFFFFF" points="429.6875,654.247916667 440.456730769,650.266378205 440.456730769,650.266378205 429.6875,654.247916667" stroke="#000000" stroke-width="1" /><polyline fill="#FFFFFF" points="418.75,613.532927664 368.75,570.39959433 379.519230769,566.418055869 429.519230769,609.551389202" stroke="#000000" stroke-width="1" /><polyline fill="#FFFFFF" points="368.75,570.39959433 368.75,615.158333333 418.75,658.291666667 418.75,613.532927664" stroke="#000000" stroke-width="1" /><polyline fill="#FFFFFF" points="418.75,613.532927664 429.519230769,609.551389202 429.519230769,654.310128205 418.75,658.291666667" stroke="#000000" stroke-width="1" /><polyline fill="#FFFFFF" points="407.8125,645.600695259 357.8125,602.467361926 368.581730769,598.485823464 418.581730769,641.619156798" stroke="#000000" stroke-width="1" /><polyline fill="#FFFFFF" points="357.8125,602.467361926 357.8125,619.202083333 407.8125,662.335416667 407.8125,645.600695259" stroke="#000000" stroke-width="1" /><polyline fill="#FFFFFF" points="407.8125,645.600695259 418.581730769,641.619156798 418.581730769,658.353878205 407.8125,662.335416667" stroke="#000000" stroke-width="1" /><polyline fill="#FFFFFF" points="396.875,649.644445259 346.875,606.511111926 357.644230769,602.529573464 407.644230769,645.662906798" stroke="#000000" stroke-width="1" /><polyline fill="#FFFFFF" points="346.875,606.511111926 346.875,623.245833333 396.875,666.379166667 396.875,649.644445259" stroke="#000000" stroke-width="1" /><polyline fill="#FFFFFF" points="396.875,649.644445259 407.644230769,645.662906798 407.644230769,662.397628205 396.875,666.379166667" stroke="#000000" stroke-width="1" /><polyline fill="#FFFFFF" points="385.9375,643.328605816 335.9375,600.195272483 346.706730769,596.213734021 396.706730769,639.347067355" stroke="#000000" stroke-width="1" /><polyline fill="#FFFFFF" points="335.9375,600.195272483 335.9375,627.289583333 385.9375,670.422916667 385.9375,643.328605816" stroke="#000000" stroke-width="1" /><polyline fill="#FFFFFF" points="385.9375,643.328605816 396.706730769,639.347067355 396.706730769,666.441378205 385.9375,670.422916667" stroke="#000000" stroke-width="1" /><polyline fill="#FFFFFF" points="375.0,651.688851417 325.0,608.555518084 335.769230769,604.573979623 385.769230769,647.707312956" stroke="#000000" stroke-width="1" /><polyline fill="#FFFFFF" points="325.0,608.555518084 325.0,631.333333333 375.0,674.466666667 375.0,651.688851417" stroke="#000000" stroke-width="1" /><polyline fill="#FFFFFF" points="375.0,651.688851417 385.769230769,647.707312956 385.769230769,670.485128205 375.0,674.466666667" stroke="#000000" stroke-width="1" /><polyline fill="#FFFFFF" points="1200.0,318.69888563 1150.0,275.565552297 1160.76923077,271.584013836 1210.76923077,314.717347169" stroke="#000000" stroke-width="1" /><polyline fill="#FFFFFF" points="1150.0,275.565552297 1150.0,480.366666667 1200.0,523.5 1200.0,318.69888563" stroke="#000000" stroke-width="1" /><polyline fill="#FFFFFF" points="1200.0,318.69888563 1210.76923077,314.717347169 1210.76923077,519.518461538 1200.0,523.5" stroke="#000000" stroke-width="1" /><polyline fill="#FFFFFF" points="1189.0625,326.527870235 1139.0625,283.394536901 1149.83173077,279.41299844 1199.83173077,322.546331773" stroke="#000000" stroke-width="1" /><polyline fill="#FFFFFF" points="1139.0625,283.394536901 1139.0625,484.410416667 1189.0625,527.54375 1189.0625,326.527870235" stroke="#000000" stroke-width="1" /><polyline fill="#FFFFFF" points="1189.0625,326.527870235 1199.83173077,322.546331773 1199.83173077,523.562211538 1189.0625,527.54375" stroke="#000000" stroke-width="1" /><polyline fill="#FFFFFF" points="1178.125,387.350139296 1128.125,344.216805963 1138.89423077,340.235267501 1188.89423077,383.368600835" stroke="#000000" stroke-width="1" /><polyline fill="#FFFFFF" points="1128.125,344.216805963 1128.125,488.454166667 1178.125,531.5875 1178.125,387.350139296" stroke="#000000" stroke-width="1" /><polyline fill="#FFFFFF" points="1178.125,387.350139296 1188.89423077,383.368600835 1188.89423077,527.605961538 1178.125,531.5875" stroke="#000000" stroke-width="1" /><polyline fill="#FFFFFF" points="1167.1875,392.58922654 1117.1875,349.455893206 1127.95673077,345.474354745 1177.95673077,388.607688078" stroke="#000000" stroke-width="1" /><polyline fill="#FFFFFF" points="1117.1875,349.455893206 1117.1875,492.497916667 1167.1875,535.63125 1167.1875,392.58922654" stroke="#000000" stroke-width="1" /><polyline fill="#FFFFFF" points="1167.1875,392.58922654 1177.95673077,388.607688078 1177.95673077,531.649711538 1167.1875,535.63125" stroke="#000000" stroke-width="1" /><polyline fill="#FFFFFF" points="1156.25,433.289985337 1106.25,390.156652004 1117.01923077,386.175113542 1167.01923077,429.308446876" stroke="#000000" stroke-width="1" /><polyline fill="#FFFFFF" points="1106.25,390.156652004 1106.25,496.541666667 1156.25,539.675 1156.25,433.289985337" stroke="#000000" stroke-width="1" /><polyline fill="#FFFFFF" points="1156.25,433.289985337 1167.01923077,429.308446876 1167.01923077,535.693461538 1156.25,539.675" stroke="#000000" stroke-width="1" /><polyline fill="#FFFFFF" points="1145.3125,415.02077346 1095.3125,371.887440127 1106.08173077,367.905901666 1156.08173077,411.039234999" stroke="#000000" stroke-width="1" /><polyline fill="#FFFFFF" points="1095.3125,371.887440127 1095.3125,500.585416667 1145.3125,543.71875 1145.3125,415.02077346" stroke="#000000" stroke-width="1" /><polyline fill="#FFFFFF" points="1145.3125,415.02077346 1156.08173077,411.039234999 1156.08173077,539.737211538 1145.3125,543.71875" stroke="#000000" stroke-width="1" /><polyline fill="#FFFFFF" points="1134.375,408.30648827 1084.375,365.173154936 1095.14423077,361.191616475 1145.14423077,404.324949808" stroke="#000000" stroke-width="1" /><polyline fill="#FFFFFF" points="1084.375,365.173154936 1084.375,504.629166667 1134.375,547.7625 1134.375,408.30648827" stroke="#000000" stroke-width="1" /><polyline fill="#FFFFFF" points="1134.375,408.30648827 1145.14423077,404.324949808 1145.14423077,543.780961538 1134.375,547.7625" stroke="#000000" stroke-width="1" /><polyline fill="#FFFFFF" points="1123.4375,449.206469941 1073.4375,406.073136608 1084.20673077,402.091598146 1134.20673077,445.22493148" stroke="#000000" stroke-width="1" /><polyline fill="#FFFFFF" points="1073.4375,406.073136608 1073.4375,508.672916667 1123.4375,551.80625 1123.4375,449.206469941" stroke="#000000" stroke-width="1" /><polyline fill="#FFFFFF" points="1123.4375,449.206469941 1134.20673077,445.22493148 1134.20673077,547.824711538 1123.4375,551.80625" stroke="#000000" stroke-width="1" /><polyline fill="#FFFFFF" points="1112.5,461.484765396 1062.5,418.351432063 1073.26923077,414.369893601 1123.26923077,457.503226934" stroke="#000000" stroke-width="1" /><polyline fill="#FFFFFF" points="1062.5,418.351432063 1062.5,512.716666667 1112.5,555.85 1112.5,461.484765396" stroke="#000000" stroke-width="1" /><polyline fill="#FFFFFF" points="1112.5,461.484765396 1123.26923077,457.503226934 1123.26923077,551.868461538 1112.5,555.85" stroke="#000000" stroke-width="1" /><polyline fill="#FFFFFF" points="1101.5625,445.207782258 1051.5625,402.074448925 1062.33173077,398.092910463 1112.33173077,441.226243797" stroke="#000000" stroke-width="1" /><polyline fill="#FFFFFF" points="1051.5625,402.074448925 1051.5625,516.760416667 1101.5625,559.89375 1101.5625,445.207782258" stroke="#000000" stroke-width="1" /><polyline fill="#FFFFFF" points="1101.5625,445.207782258 1112.33173077,441.226243797 1112.33173077,555.912211538 1101.5625,559.89375" stroke="#000000" stroke-width="1" /><polyline fill="#FFFFFF" points="1090.625,440.087280059 1040.625,396.953946725 1051.39423077,392.972408264 1101.39423077,436.105741597" stroke="#000000" stroke-width="1" /><polyline fill="#FFFFFF" points="1040.625,396.953946725 1040.625,520.804166667 1090.625,563.9375 1090.625,440.087280059" stroke="#000000" stroke-width="1" /><polyline fill="#FFFFFF" points="1090.625,440.087280059 1101.39423077,436.105741597 1101.39423077,559.955961538 1090.625,563.9375" stroke="#000000" stroke-width="1" /><polyline fill="#FFFFFF" points="1079.6875,484.639681085 1029.6875,441.506347752 1040.45673077,437.52480929 1090.45673077,480.658142624" stroke="#000000" stroke-width="1" /><polyline fill="#FFFFFF" points="1029.6875,441.506347752 1029.6875,524.847916667 1079.6875,567.98125 1079.6875,484.639681085" stroke="#000000" stroke-width="1" /><polyline fill="#FFFFFF" points="1079.6875,484.639681085 1090.45673077,480.658142624 1090.45673077,563.999711538 1079.6875,567.98125" stroke="#000000" stroke-width="1" /><polyline fill="#FFFFFF" points="1068.75,441.866055718 1018.75,398.732722385 1029.51923077,394.751183924 1079.51923077,437.884517257" stroke="#000000" stroke-width="1" /><polyline fill="#FFFFFF" points="1018.75,398.732722385 1018.75,528.891666667 1068.75,572.025 1068.75,441.866055718" stroke="#000000" stroke-width="1" /><polyline fill="#FFFFFF" points="1068.75,441.866055718 1079.51923077,437.884517257 1079.51923077,568.043461538 1068.75,572.025" stroke="#000000" stroke-width="1" /><polyline fill="#FFFFFF" points="1057.8125,479.113618035 1007.8125,435.980284702 1018.58173077,431.99874624 1068.58173077,475.132079574" stroke="#000000" stroke-width="1" /><polyline fill="#FFFFFF" points="1007.8125,435.980284702 1007.8125,532.935416667 1057.8125,576.06875 1057.8125,479.113618035" stroke="#000000" stroke-width="1" /><polyline fill="#FFFFFF" points="1057.8125,479.113618035 1068.58173077,475.132079574 1068.58173077,572.087211538 1057.8125,576.06875" stroke="#000000" stroke-width="1" /><polyline fill="#FFFFFF" points="1046.875,493.251326979 996.875,450.117993646 1007.64423077,446.136455185 1057.64423077,489.269788518" stroke="#000000" stroke-width="1" /><polyline fill="#FFFFFF" points="996.875,450.117993646 996.875,536.979166667 1046.875,580.1125 1046.875,493.251326979" stroke="#000000" stroke-width="1" /><polyline fill="#FFFFFF" points="1046.875,493.251326979 1057.64423077,489.269788518 1057.64423077,576.130961538 1046.875,580.1125" stroke="#000000" stroke-width="1" /><polyline fill="#FFFFFF" points="1035.9375,467.876499267 985.9375,424.743165934 996.706730769,420.761627472 1046.70673077,463.894960805" stroke="#000000" stroke-width="1" /><polyline fill="#FFFFFF" points="985.9375,424.743165934 985.9375,541.022916667 1035.9375,584.15625 1035.9375,467.876499267" stroke="#000000" stroke-width="1" /><polyline fill="#FFFFFF" points="1035.9375,467.876499267 1046.70673077,463.894960805 1046.70673077,580.174711538 1035.9375,584.15625" stroke="#000000" stroke-width="1" /><polyline fill="#FFFFFF" points="1025.0,426.895879765 975.0,383.762546432 985.769230769,379.781007971 1035.76923077,422.914341304" stroke="#000000" stroke-width="1" /><polyline fill="#FFFFFF" points="975.0,383.762546432 975.0,545.066666667 1025.0,588.2 1025.0,426.895879765" stroke="#000000" stroke-width="1" /><polyline fill="#FFFFFF" points="1025.0,426.895879765 1035.76923077,422.914341304 1035.76923077,584.218461538 1025.0,588.2" stroke="#000000" stroke-width="1" /><polyline fill="#FFFFFF" points="1014.0625,456.240934751 964.0625,413.107601417 974.831730769,409.126062956 1024.83173077,452.259396289" stroke="#000000" stroke-width="1" /><polyline fill="#FFFFFF" points="964.0625,413.107601417 964.0625,549.110416667 1014.0625,592.24375 1014.0625,456.240934751" stroke="#000000" stroke-width="1" /><polyline fill="#FFFFFF" points="1014.0625,456.240934751 1024.83173077,452.259396289 1024.83173077,588.262211538 1014.0625,592.24375" stroke="#000000" stroke-width="1" /><polyline fill="#FFFFFF" points="1003.125,483.128907625 953.125,439.995574291 963.894230769,436.01403583 1013.89423077,479.147369163" stroke="#000000" stroke-width="1" /><polyline fill="#FFFFFF" points="953.125,439.995574291 953.125,553.154166667 1003.125,596.2875 1003.125,483.128907625" stroke="#000000" stroke-width="1" /><polyline fill="#FFFFFF" points="1003.125,483.128907625 1013.89423077,479.147369163 1013.89423077,592.305961538 1003.125,596.2875" stroke="#000000" stroke-width="1" /><polyline fill="#FFFFFF" points="992.1875,481.727232405 942.1875,438.593899071 952.956730769,434.61236061 1002.95673077,477.745693943" stroke="#000000" stroke-width="1" /><polyline fill="#FFFFFF" points="942.1875,438.593899071 942.1875,557.197916667 992.1875,600.33125 992.1875,481.727232405" stroke="#000000" stroke-width="1" /><polyline fill="#FFFFFF" points="992.1875,481.727232405 1002.95673077,477.745693943 1002.95673077,596.349711538 992.1875,600.33125" stroke="#000000" stroke-width="1" /><polyline fill="#FFFFFF" points="981.25,451.703870968 931.25,408.570537634 942.019230769,404.588999173 992.019230769,447.722332506" stroke="#000000" stroke-width="1" /><polyline fill="#FFFFFF" points="931.25,408.570537634 931.25,561.241666667 981.25,604.375 981.25,451.703870968" stroke="#000000" stroke-width="1" /><polyline fill="#FFFFFF" points="981.25,451.703870968 992.019230769,447.722332506 992.019230769,600.393461538 981.25,604.375" stroke="#000000" stroke-width="1" /><polyline fill="#FFFFFF" points="970.3125,517.440304252 920.3125,474.306970919 931.081730769,470.325432457 981.081730769,513.458765791" stroke="#000000" stroke-width="1" /><polyline fill="#FFFFFF" points="920.3125,474.306970919 920.3125,565.285416667 970.3125,608.41875 970.3125,517.440304252" stroke="#000000" stroke-width="1" /><polyline fill="#FFFFFF" points="970.3125,517.440304252 981.081730769,513.458765791 981.081730769,604.437211538 970.3125,608.41875" stroke="#000000" stroke-width="1" /><polyline fill="#FFFFFF" points="959.375,495.385857771 909.375,452.252524438 920.144230769,448.270985976 970.144230769,491.40431931" stroke="#000000" stroke-width="1" /><polyline fill="#FFFFFF" points="909.375,452.252524438 909.375,569.329166667 959.375,612.4625 959.375,495.385857771" stroke="#000000" stroke-width="1" /><polyline fill="#FFFFFF" points="959.375,495.385857771 970.144230769,491.40431931 970.144230769,608.480961538 959.375,612.4625" stroke="#000000" stroke-width="1" /><polyline fill="#FFFFFF" points="948.4375,505.472701613 898.4375,462.33936828 909.206730769,458.357829818 959.206730769,501.491163151" stroke="#000000" stroke-width="1" /><polyline fill="#FFFFFF" points="898.4375,462.33936828 898.4375,573.372916667 948.4375,616.50625 948.4375,505.472701613" stroke="#000000" stroke-width="1" /><polyline fill="#FFFFFF" points="948.4375,505.472701613 959.206730769,501.491163151 959.206730769,612.524711538 948.4375,616.50625" stroke="#000000" stroke-width="1" /><polyline fill="#FFFFFF" points="937.5,504.867917889 887.5,461.734584555 898.269230769,457.753046094 948.269230769,500.886379427" stroke="#000000" stroke-width="1" /><polyline fill="#FFFFFF" points="887.5,461.734584555 887.5,577.416666667 937.5,620.55 937.5,504.867917889" stroke="#000000" stroke-width="1" /><polyline fill="#FFFFFF" points="937.5,504.867917889 948.269230769,500.886379427 948.269230769,616.568461538 937.5,620.55" stroke="#000000" stroke-width="1" /><polyline fill="#FFFFFF" points="926.5625,542.314703079 876.5625,499.181369746 887.331730769,495.199831284 937.331730769,538.333164618" stroke="#000000" stroke-width="1" /><polyline fill="#FFFFFF" points="876.5625,499.181369746 876.5625,581.460416667 926.5625,624.59375 926.5625,542.314703079" stroke="#000000" stroke-width="1" /><polyline fill="#FFFFFF" points="926.5625,542.314703079 937.331730769,538.333164618 937.331730769,620.612211538 926.5625,624.59375" stroke="#000000" stroke-width="1" /><polyline fill="#FFFFFF" points="915.625,543.436517595 865.625,500.303184262 876.394230769,496.3216458 926.394230769,539.454979134" stroke="#000000" stroke-width="1" /><polyline fill="#FFFFFF" points="865.625,500.303184262 865.625,585.504166667 915.625,628.6375 915.625,543.436517595" stroke="#000000" stroke-width="1" /><polyline fill="#FFFFFF" points="915.625,543.436517595 926.394230769,539.454979134 926.394230769,624.655961538 915.625,628.6375" stroke="#000000" stroke-width="1" /><polyline fill="#FFFFFF" points="904.6875,583.473200147 854.6875,540.339866813 865.456730769,536.358328352 915.456730769,579.491661685" stroke="#000000" stroke-width="1" /><polyline fill="#FFFFFF" points="854.6875,540.339866813 854.6875,589.547916667 904.6875,632.68125 904.6875,583.473200147" stroke="#000000" stroke-width="1" /><polyline fill="#FFFFFF" points="904.6875,583.473200147 915.456730769,579.491661685 915.456730769,628.699711538 904.6875,632.68125" stroke="#000000" stroke-width="1" /><polyline fill="#FFFFFF" points="893.75,550.7271261 843.75,507.593792766 854.519230769,503.612254305 904.519230769,546.745587638" stroke="#000000" stroke-width="1" /><polyline fill="#FFFFFF" points="843.75,507.593792766 843.75,593.591666667 893.75,636.725 893.75,550.7271261" stroke="#000000" stroke-width="1" /><polyline fill="#FFFFFF" points="893.75,550.7271261 904.519230769,546.745587638 904.519230769,632.743461538 893.75,636.725" stroke="#000000" stroke-width="1" /><polyline fill="#FFFFFF" points="882.8125,561.677269062 832.8125,518.543935728 843.581730769,514.562397267 893.581730769,557.6957306" stroke="#000000" stroke-width="1" /><polyline fill="#FFFFFF" points="832.8125,518.543935728 832.8125,597.635416667 882.8125,640.76875 882.8125,561.677269062" stroke="#000000" stroke-width="1" /><polyline fill="#FFFFFF" points="882.8125,561.677269062 893.581730769,557.6957306 893.581730769,636.787211538 882.8125,640.76875" stroke="#000000" stroke-width="1" /><polyline fill="#FFFFFF" points="871.875,558.084142229 821.875,514.950808895 832.644230769,510.969270434 882.644230769,554.102603767" stroke="#000000" stroke-width="1" /><polyline fill="#FFFFFF" points="821.875,514.950808895 821.875,601.679166667 871.875,644.8125 871.875,558.084142229" stroke="#000000" stroke-width="1" /><polyline fill="#FFFFFF" points="871.875,558.084142229 882.644230769,554.102603767 882.644230769,640.830961538 871.875,644.8125" stroke="#000000" stroke-width="1" /><polyline fill="#FFFFFF" points="860.9375,532.642906891 810.9375,489.509573558 821.706730769,485.528035097 871.706730769,528.66136843" stroke="#000000" stroke-width="1" /><polyline fill="#FFFFFF" points="810.9375,489.509573558 810.9375,605.722916667 860.9375,648.85625 860.9375,532.642906891" stroke="#000000" stroke-width="1" /><polyline fill="#FFFFFF" points="860.9375,532.642906891 871.706730769,528.66136843 871.706730769,644.874711538 860.9375,648.85625" stroke="#000000" stroke-width="1" /><polyline fill="#FFFFFF" points="850.0,535.22568915 800.0,492.092355816 810.769230769,488.110817355 860.769230769,531.244150688" stroke="#000000" stroke-width="1" /><polyline fill="#FFFFFF" points="800.0,492.092355816 800.0,609.766666667 850.0,652.9 850.0,535.22568915" stroke="#000000" stroke-width="1" /><polyline fill="#FFFFFF" points="850.0,535.22568915 860.769230769,531.244150688 860.769230769,648.918461538 850.0,652.9" stroke="#000000" stroke-width="1" /><polyline fill="#FFFFFF" points="839.0625,591.797870235 789.0625,548.664536901 799.831730769,544.68299844 849.831730769,587.816331773" stroke="#000000" stroke-width="1" /><polyline fill="#FFFFFF" points="789.0625,548.664536901 789.0625,613.810416667 839.0625,656.94375 839.0625,591.797870235" stroke="#000000" stroke-width="1" /><polyline fill="#FFFFFF" points="839.0625,591.797870235 849.831730769,587.816331773 849.831730769,652.962211538 839.0625,656.94375" stroke="#000000" stroke-width="1" /><polyline fill="#FFFFFF" points="828.125,630.240769795 778.125,587.107436461 788.894230769,583.125898 838.894230769,626.259231333" stroke="#000000" stroke-width="1" /><polyline fill="#FFFFFF" points="778.125,587.107436461 778.125,617.854166667 828.125,660.9875 828.125,630.240769795" stroke="#000000" stroke-width="1" /><polyline fill="#FFFFFF" points="828.125,630.240769795 838.894230769,626.259231333 838.894230769,657.005961538 828.125,660.9875" stroke="#000000" stroke-width="1" /><polyline fill="#FFFFFF" points="817.1875,619.807657625 767.1875,576.674324291 777.956730769,572.69278583 827.956730769,615.826119163" stroke="#000000" stroke-width="1" /><polyline fill="#FFFFFF" points="767.1875,576.674324291 767.1875,621.897916667 817.1875,665.03125 817.1875,619.807657625" stroke="#000000" stroke-width="1" /><polyline fill="#FFFFFF" points="817.1875,619.807657625 827.956730769,615.826119163 827.956730769,661.049711538 817.1875,665.03125" stroke="#000000" stroke-width="1" /><polyline fill="#FFFFFF" points="806.25,601.538445748 756.25,558.405112414 767.019230769,554.423573953 817.019230769,597.556907286" stroke="#000000" stroke-width="1" /><polyline fill="#FFFFFF" points="756.25,558.405112414 756.25,625.941666667 806.25,669.075 806.25,601.538445748" stroke="#000000" stroke-width="1" /><polyline fill="#FFFFFF" points="806.25,601.538445748 817.019230769,597.556907286 817.019230769,665.093461538 806.25,669.075" stroke="#000000" stroke-width="1" /><polyline fill="#FFFFFF" points="795.3125,585.991946481 745.3125,542.858613148 756.081730769,538.877074686 806.081730769,582.010408019" stroke="#000000" stroke-width="1" /><polyline fill="#FFFFFF" points="745.3125,542.858613148 745.3125,629.985416667 795.3125,673.11875 795.3125,585.991946481" stroke="#000000" stroke-width="1" /><polyline fill="#FFFFFF" points="795.3125,585.991946481 806.081730769,582.010408019 806.081730769,669.137211538 795.3125,673.11875" stroke="#000000" stroke-width="1" /><polyline fill="#FFFFFF" points="784.375,614.141664223 734.375,571.00833089 745.144230769,567.026792428 795.144230769,610.160125761" stroke="#000000" stroke-width="1" /><polyline fill="#FFFFFF" points="734.375,571.00833089 734.375,634.029166667 784.375,677.1625 784.375,614.141664223" stroke="#000000" stroke-width="1" /><polyline fill="#FFFFFF" points="784.375,614.141664223 795.144230769,610.160125761 795.144230769,673.180961538 784.375,677.1625" stroke="#000000" stroke-width="1" /><polyline fill="#FFFFFF" points="773.4375,641.826528592 723.4375,598.693195259 734.206730769,594.711656798 784.206730769,637.844990131" stroke="#000000" stroke-width="1" /><polyline fill="#FFFFFF" points="723.4375,598.693195259 723.4375,638.072916667 773.4375,681.20625 773.4375,641.826528592" stroke="#000000" stroke-width="1" /><polyline fill="#FFFFFF" points="773.4375,641.826528592 784.206730769,637.844990131 784.206730769,677.224711538 773.4375,681.20625" stroke="#000000" stroke-width="1" /><polyline fill="#FFFFFF" points="762.5,555.954354839 712.5,512.821021505 723.269230769,508.839483044 773.269230769,551.972816377" stroke="#000000" stroke-width="1" /><polyline fill="#FFFFFF" points="712.5,512.821021505 712.5,642.116666667 762.5,685.25 762.5,555.954354839" stroke="#000000" stroke-width="1" /><polyline fill="#FFFFFF" points="762.5,555.954354839 773.269230769,551.972816377 773.269230769,681.268461538 762.5,685.25" stroke="#000000" stroke-width="1" /><polyline fill="#FFFFFF" points="751.5625,583.37358871 701.5625,540.240255376 712.331730769,536.258716915 762.331730769,579.392050248" stroke="#000000" stroke-width="1" /><polyline fill="#FFFFFF" points="701.5625,540.240255376 701.5625,646.160416667 751.5625,689.29375 751.5625,583.37358871" stroke="#000000" stroke-width="1" /><polyline fill="#FFFFFF" points="751.5625,583.37358871 762.331730769,579.392050248 762.331730769,685.312211538 751.5625,689.29375" stroke="#000000" stroke-width="1" /><polyline fill="#FFFFFF" points="740.625,562.846517595 690.625,519.713184262 701.394230769,515.7316458 751.394230769,558.864979134" stroke="#000000" stroke-width="1" /><polyline fill="#FFFFFF" points="690.625,519.713184262 690.625,650.204166667 740.625,693.3375 740.625,562.846517595" stroke="#000000" stroke-width="1" /><polyline fill="#FFFFFF" points="740.625,562.846517595 751.394230769,558.864979134 751.394230769,689.355961538 740.625,693.3375" stroke="#000000" stroke-width="1" /><polyline fill="#FFFFFF" points="729.6875,592.125164956 679.6875,548.991831623 690.456730769,545.010293161 740.456730769,588.143626494" stroke="#000000" stroke-width="1" /><polyline fill="#FFFFFF" points="679.6875,548.991831623 679.6875,654.247916667 729.6875,697.38125 729.6875,592.125164956" stroke="#000000" stroke-width="1" /><polyline fill="#FFFFFF" points="729.6875,592.125164956 740.456730769,588.143626494 740.456730769,693.399711538 729.6875,697.38125" stroke="#000000" stroke-width="1" /><polyline fill="#FFFFFF" points="718.75,623.130410557 668.75,579.997077224 679.519230769,576.015538762 729.519230769,619.148872096" stroke="#000000" stroke-width="1" /><polyline fill="#FFFFFF" points="668.75,579.997077224 668.75,658.291666667 718.75,701.425 718.75,623.130410557" stroke="#000000" stroke-width="1" /><polyline fill="#FFFFFF" points="718.75,623.130410557 729.519230769,619.148872096 729.519230769,697.443461538 718.75,701.425" stroke="#000000" stroke-width="1" /><polyline fill="#FFFFFF" points="707.8125,644.041697214 657.8125,600.908363881 668.581730769,596.926825419 718.581730769,640.060158753" stroke="#000000" stroke-width="1" /><polyline fill="#FFFFFF" points="657.8125,600.908363881 657.8125,662.335416667 707.8125,705.46875 707.8125,644.041697214" stroke="#000000" stroke-width="1" /><polyline fill="#FFFFFF" points="707.8125,644.041697214 718.581730769,640.060158753 718.581730769,701.487211538 707.8125,705.46875" stroke="#000000" stroke-width="1" /><polyline fill="#FFFFFF" points="696.875,650.940975073 646.875,607.80764174 657.644230769,603.826103278 707.644230769,646.959436612" stroke="#000000" stroke-width="1" /><polyline fill="#FFFFFF" points="646.875,607.80764174 646.875,666.379166667 696.875,709.5125 696.875,650.940975073" stroke="#000000" stroke-width="1" /><polyline fill="#FFFFFF" points="696.875,650.940975073 707.644230769,646.959436612 707.644230769,705.530961538 696.875,709.5125" stroke="#000000" stroke-width="1" /><polyline fill="#FFFFFF" points="685.9375,710.501499267 635.9375,667.368165934 646.706730769,663.386627472 696.706730769,706.519960805" stroke="#000000" stroke-width="1" /><polyline fill="#FFFFFF" points="635.9375,667.368165934 635.9375,670.422916667 685.9375,713.55625 685.9375,710.501499267" stroke="#000000" stroke-width="1" /><polyline fill="#FFFFFF" points="685.9375,710.501499267 696.706730769,706.519960805 696.706730769,709.574711538 685.9375,713.55625" stroke="#000000" stroke-width="1" /><polyline fill="#FFFFFF" points="675.0,678.485909091 625.0,635.352575758 635.769230769,631.371037296 685.769230769,674.504370629" stroke="#000000" stroke-width="1" /><polyline fill="#FFFFFF" points="625.0,635.352575758 625.0,674.466666667 675.0,717.6 675.0,678.485909091" stroke="#000000" stroke-width="1" /><polyline fill="#FFFFFF" points="675.0,678.485909091 685.769230769,674.504370629 685.769230769,713.618461538 675.0,717.6" stroke="#000000" stroke-width="1" /><polyline fill="#FFFFFF" points="664.0625,685.650817449 614.0625,642.517484115 624.831730769,638.535945654 674.831730769,681.669278987" stroke="#000000" stroke-width="1" /><polyline fill="#FFFFFF" points="614.0625,642.517484115 614.0625,678.510416667 664.0625,721.64375 664.0625,685.650817449" stroke="#000000" stroke-width="1" /><polyline fill="#FFFFFF" points="664.0625,685.650817449 674.831730769,681.669278987 674.831730769,717.662211538 664.0625,721.64375" stroke="#000000" stroke-width="1" /><polyline fill="#FFFFFF" points="653.125,702.312016129 603.125,659.178682796 613.894230769,655.197144334 663.894230769,698.330477667" stroke="#000000" stroke-width="1" /><polyline fill="#FFFFFF" points="603.125,659.178682796 603.125,682.554166667 653.125,725.6875 653.125,702.312016129" stroke="#000000" stroke-width="1" /><polyline fill="#FFFFFF" points="653.125,702.312016129 663.894230769,698.330477667 663.894230769,721.705961538 653.125,725.6875" stroke="#000000" stroke-width="1" /><polyline fill="#FFFFFF" points="642.1875,687.031147361 592.1875,643.897814027 602.956730769,639.916275566 652.956730769,683.049608899" stroke="#000000" stroke-width="1" /><polyline fill="#FFFFFF" points="592.1875,643.897814027 592.1875,686.597916667 642.1875,729.73125 642.1875,687.031147361" stroke="#000000" stroke-width="1" /><polyline fill="#FFFFFF" points="642.1875,687.031147361 652.956730769,683.049608899 652.956730769,725.749711538 642.1875,729.73125" stroke="#000000" stroke-width="1" /><polyline fill="#FFFFFF" points="631.25,717.704354839 581.25,674.571021505 592.019230769,670.589483044 642.019230769,713.722816377" stroke="#000000" stroke-width="1" /><polyline fill="#FFFFFF" points="581.25,674.571021505 581.25,690.641666667 631.25,733.775 631.25,717.704354839" stroke="#000000" stroke-width="1" /><polyline fill="#FFFFFF" points="631.25,717.704354839 642.019230769,713.722816377 642.019230769,729.793461538 631.25,733.775" stroke="#000000" stroke-width="1" /><polyline fill="#FFFFFF" points="620.3125,694.720201613 570.3125,651.58686828 581.081730769,647.605329818 631.081730769,690.738663151" stroke="#000000" stroke-width="1" /><polyline fill="#FFFFFF" points="570.3125,651.58686828 570.3125,694.685416667 620.3125,737.81875 620.3125,694.720201613" stroke="#000000" stroke-width="1" /><polyline fill="#FFFFFF" points="620.3125,694.720201613 631.081730769,690.738663151 631.081730769,733.837211538 620.3125,737.81875" stroke="#000000" stroke-width="1" /><polyline fill="#FFFFFF" points="609.375,704.674230205 559.375,661.540896872 570.144230769,657.55935841 620.144230769,700.692691744" stroke="#000000" stroke-width="1" /><polyline fill="#FFFFFF" points="559.375,661.540896872 559.375,698.729166667 609.375,741.8625 609.375,704.674230205" stroke="#000000" stroke-width="1" /><polyline fill="#FFFFFF" points="609.375,704.674230205 620.144230769,700.692691744 620.144230769,737.880961538 609.375,741.8625" stroke="#000000" stroke-width="1" /><polyline fill="#FFFFFF" points="598.4375,631.485912757 548.4375,588.352579423 559.206730769,584.371040962 609.206730769,627.504374295" stroke="#000000" stroke-width="1" /><polyline fill="#FFFFFF" points="548.4375,588.352579423 548.4375,702.772916667 598.4375,745.90625 598.4375,631.485912757" stroke="#000000" stroke-width="1" /><polyline fill="#FFFFFF" points="598.4375,631.485912757 609.206730769,627.504374295 609.206730769,741.924711538 598.4375,745.90625" stroke="#000000" stroke-width="1" /><polyline fill="#FFFFFF" points="587.5,699.413797654 537.5,656.280464321 548.269230769,652.298925859 598.269230769,695.432259192" stroke="#000000" stroke-width="1" /><polyline fill="#FFFFFF" points="537.5,656.280464321 537.5,706.816666667 587.5,749.95 587.5,699.413797654" stroke="#000000" stroke-width="1" /><polyline fill="#FFFFFF" points="587.5,699.413797654 598.269230769,695.432259192 598.269230769,745.968461538 587.5,749.95" stroke="#000000" stroke-width="1" /><polyline fill="#FFFFFF" points="576.5625,713.15306085 526.5625,670.019727517 537.331730769,666.038189056 587.331730769,709.171522389" stroke="#000000" stroke-width="1" /><polyline fill="#FFFFFF" points="526.5625,670.019727517 526.5625,710.860416667 576.5625,753.99375 576.5625,713.15306085" stroke="#000000" stroke-width="1" /><polyline fill="#FFFFFF" points="576.5625,713.15306085 587.331730769,709.171522389 587.331730769,750.012211538 576.5625,753.99375" stroke="#000000" stroke-width="1" /><polyline fill="#FFFFFF" points="565.625,693.489288856 515.625,650.355955523 526.394230769,646.374417061 576.394230769,689.507750395" stroke="#000000" stroke-width="1" /><polyline fill="#FFFFFF" points="515.625,650.355955523 515.625,714.904166667 565.625,758.0375 565.625,693.489288856" stroke="#000000" stroke-width="1" /><polyline fill="#FFFFFF" points="565.625,693.489288856 576.394230769,689.507750395 576.394230769,754.055961538 565.625,758.0375" stroke="#000000" stroke-width="1" /><polyline fill="#FFFFFF" points="554.6875,737.244798387 504.6875,694.111465054 515.456730769,690.129926592 565.456730769,733.263259926" stroke="#000000" stroke-width="1" /><polyline fill="#FFFFFF" points="504.6875,694.111465054 504.6875,718.947916667 554.6875,762.08125 554.6875,737.244798387" stroke="#000000" stroke-width="1" /><polyline fill="#FFFFFF" points="554.6875,737.244798387 565.456730769,733.263259926 565.456730769,758.099711538 554.6875,762.08125" stroke="#000000" stroke-width="1" /><polyline fill="#FFFFFF" points="543.75,709.014442815 493.75,665.881109482 504.519230769,661.89957102 554.519230769,705.032904354" stroke="#000000" stroke-width="1" /><polyline fill="#FFFFFF" points="493.75,665.881109482 493.75,722.991666667 543.75,766.125 543.75,709.014442815" stroke="#000000" stroke-width="1" /><polyline fill="#FFFFFF" points="543.75,709.014442815 554.519230769,705.032904354 554.519230769,762.143461538 543.75,766.125" stroke="#000000" stroke-width="1" /><polyline fill="#FFFFFF" points="532.8125,763.527987537 482.8125,720.394654203 493.581730769,716.413115742 543.581730769,759.546449075" stroke="#000000" stroke-width="1" /><polyline fill="#FFFFFF" points="482.8125,720.394654203 482.8125,727.035416667 532.8125,770.16875 532.8125,763.527987537" stroke="#000000" stroke-width="1" /><polyline fill="#FFFFFF" points="532.8125,763.527987537 543.581730769,759.546449075 543.581730769,766.187211538 532.8125,770.16875" stroke="#000000" stroke-width="1" /><polyline fill="#FFFFFF" points="521.875,755.883995601 471.875,712.750662268 482.644230769,708.769123806 532.644230769,751.90245714" stroke="#000000" stroke-width="1" /><polyline fill="#FFFFFF" points="471.875,712.750662268 471.875,731.079166667 521.875,774.2125 521.875,755.883995601" stroke="#000000" stroke-width="1" /><polyline fill="#FFFFFF" points="521.875,755.883995601 532.644230769,751.90245714 532.644230769,770.230961538 521.875,774.2125" stroke="#000000" stroke-width="1" /><polyline fill="#FFFFFF" points="510.9375,743.060208944 460.9375,699.926875611 471.706730769,695.945337149 521.706730769,739.078670483" stroke="#000000" stroke-width="1" /><polyline fill="#FFFFFF" points="460.9375,699.926875611 460.9375,735.122916667 510.9375,778.25625 510.9375,743.060208944" stroke="#000000" stroke-width="1" /><polyline fill="#FFFFFF" points="510.9375,743.060208944 521.706730769,739.078670483 521.706730769,774.274711538 510.9375,778.25625" stroke="#000000" stroke-width="1" /><polyline fill="#FFFFFF" points="500.0,782.3 450.0,739.166666667 460.769230769,735.185128205 510.769230769,778.318461538" stroke="#000000" stroke-width="1" /><polyline fill="#FFFFFF" points="450.0,739.166666667 450.0,739.166666667 500.0,782.3 500.0,782.3" stroke="#000000" stroke-width="1" /><polyline fill="#FFFFFF" points="500.0,782.3 510.769230769,778.318461538 510.769230769,778.318461538 500.0,782.3" stroke="#000000" stroke-width="1" /></g><g id="ticks"><line stroke="#000000" stroke-width="1" x1="500.0" x2="512.5" y1="782.3" y2="793.083333333" /><line stroke="#000000" stroke-width="1" x1="1210.76923077" x2="1223.26923077" y1="519.518461538" y2="530.301794872" /><line stroke="#000000" stroke-width="1" x1="1210.76923077" x2="1223.26923077" y1="418.313241597" y2="418.313241597" /><line stroke="#000000" stroke-width="1" x1="1210.76923077" x2="1223.26923077" y1="317.108021656" y2="317.108021656" /></g><g id="labels"><text alignment-baseline="middle" font-size="16" text-anchor="end" x="200.0" y="552.269933333">Annapolis, MD</text><text alignment-baseline="middle" font-size="16" text-anchor="end" x="325.0" y="660.103266667">Charleston, SC</text><text alignment-baseline="middle" font-size="16" text-anchor="end" x="450.0" y="767.9366">Wilmington, NC</text><text alignment-baseline="before-edge" font-size="16" x="517.5" y="793.083333333">1950</text><text alignment-baseline="before-edge" font-size="16" x="1228.26923077" y="530.301794872">2015</text><text alignment-baseline="middle" font-size="16" x="1228.26923077" y="418.313241597">5'' rise</text><text alignment-baseline="middle" font-size="16" x="1228.26923077" y="317.108021656">10'' rise</text></g></svg>