<?xml version="1.0" encoding="utf-8" ?>
<svg baseProfile="full" height="792.0" version="1.1" width="612.0" xmlns="http://www.w3.org/2000/svg" xmlns:ev="http://www.w3.org/2001/xml-events" xmlns:xlink="http://www.w3.org/1999/xlink"><defs /><g id="labels"><text alignment-baseline="middle" font-size="12" text-anchor="end" x="63.6" y="148.008">1950</text><text alignment-baseline="middle" font-size="12" text-anchor="start" x="534.0" y="148.008">2015</text><text alignment-baseline="before-edge" dominant-baseline="central" font-size="12" text-anchor="middle" transform="rotate(90,576.0,92.004)" x="576.0" y="92.004">Mean sea level rise</text><text alignment-baseline="before-edge" dominant-baseline="central" font-size="12" text-anchor="middle" transform="rotate(90,576.0,204.012)" x="576.0" y="204.012">Days of flooding</text><text alignment-baseline="before-edge" font-size="16" x="66.6" y="36.0">Wilmington, NC</text><text alignment-baseline="middle" font-size="12" x="540.2" y="97.9492926686">5''</text><text alignment-baseline="middle" font-size="12" x="540.2" y="47.8905853372">10''</text><text alignment-baseline="middle" font-size="12" x="540.2" y="200.717647059">40</text><text alignment-baseline="middle" font-size="12" x="540.2" y="253.427294118">80</text><text alignment-baseline="middle" font-size="12" text-anchor="end" x="63.6" y="396.0">1950</text><text alignment-baseline="middle" font-size="12" text-anchor="start" x="534.0" y="396.0">2015</text><text alignment-baseline="before-edge" font-size="16" x="66.6" y="283.992">Annapolis, MD</text><text alignment-baseline="middle" font-size="12" x="540.2" y="345.941292669">5''</text><text alignment-baseline="middle" font-size="12" x="540.2" y="295.882585337">10''</text><text alignment-baseline="middle" font-size="12" x="540.2" y="448.709647059">40</text><text alignment-baseline="middle" font-size="12" text-anchor="end" x="63.6" y="643.992">1950</text><text alignment-baseline="middle" font-size="12" text-anchor="start" x="534.0" y="643.992">2015</text><text alignment-baseline="before-edge" font-size="16" x="66.6" y="531.984">Charleston, SC</text><text alignment-baseline="middle" font-size="12" x="540.2" y="593.933292669">5''</text><text alignment-baseline="middle" font-size="12" x="540.2" y="543.874585337">10''</text><text alignment-baseline="middle" font-size="12" x="540.2" y="696.701647059">40</text></g><g id="axis"><line stroke="#000000" stroke-dasharray="3,1" stroke-width="1" x1="66.6" x2="531.0" y1="148.008" y2="148.008" /><line stroke="#000000" stroke-dasharray="3,1" stroke-width="1" x1="531.0" x2="538.2" y1="97.9492926686" y2="97.9492926686" /><line stroke="#000000" stroke-dasharray="3,1" stroke-width="1" x1="531.0" x2="538.2" y1="47.8905853372" y2="47.8905853372" /><line stroke="#000000" stroke-dasharray="3,1" stroke-width="1" x1="531.0" x2="538.2" y1="200.717647059" y2="200.717647059" /><line stroke="#000000" stroke-dasharray="3,1" stroke-width="1" x1="531.0" x2="538.2" y1="253.427294118" y2="253.427294118" /><line stroke="#000000" stroke-dasharray="3,1" stroke-width="1" x1="66.6" x2="531.0" y1="396.0" y2="396.0" /><line stroke="#000000" stroke-dasharray="3,1" stroke-width="1" x1="531.0" x2="538.2" y1="345.941292669" y2="345.941292669" /><line stroke="#000000" stroke-dasharray="3,1" stroke-width="1" x1="502.421538462" x2="538.2" y1="295.882585337" y2="295.882585337" /><line stroke="#000000" stroke-dasharray="3,1" stroke-width="1" x1="502.421538462" x2="538.2" y1="448.709647059" y2="448.709647059" /><line stroke="#000000" stroke-dasharray="3,1" stroke-width="1" x1="66.6" x2="531.0" y1="643.992" y2="643.992" /><line stroke="#000000" stroke-dasharray="3,1" stroke-width="1" x1="531.0" x2="538.2" y1="593.933292669" y2="593.933292669" /><line stroke="#000000" stroke-dasharray="3,1" stroke-width="1" x1="531.0" x2="538.2" y1="543.874585337" y2="543.874585337" /><line stroke="#000000" stroke-dasharray="3,1" stroke-width="1" x1="531.0" x2="538.2" y1="696.701647059" y2="696.701647059" /></g><g id="data"><line stroke="#000000" stroke-width="1" x1="73.7446153846" x2="73.7446153846" y1="148.008" y2="148.008" /><line stroke="#000000" stroke-width="1" x1="80.8892307692" x2="80.8892307692" y1="148.008" y2="130.599131965" /><line stroke="#000000" stroke-width="1" x1="88.0338461538" x2="88.0338461538" y1="148.008" y2="138.942249853" /><line stroke="#000000" stroke-width="1" x1="95.1784615385" x2="95.1784615385" y1="148.008" y2="144.723307918" /><line stroke="#000000" stroke-width="1" x1="102.323076923" x2="102.323076923" y1="148.008" y2="119.759648094" /><line stroke="#000000" stroke-width="1" x1="109.467692308" x2="109.467692308" y1="148.008" y2="135.723251613" /><line stroke="#000000" stroke-width="1" x1="116.612307692" x2="116.612307692" y1="148.008" y2="116.080792962" /><line stroke="#000000" stroke-width="1" x1="123.756923077" x2="123.756923077" y1="148.008" y2="127.807143695" /><line stroke="#000000" stroke-width="1" x1="130.901538462" x2="130.901538462" y1="148.008" y2="123.011493255" /><line stroke="#000000" stroke-width="1" x1="138.046153846" x2="138.046153846" y1="148.008" y2="91.4127554252" /><line stroke="#000000" stroke-width="1" x1="145.190769231" x2="145.190769231" y1="148.008" y2="129.61372434" /><line stroke="#000000" stroke-width="1" x1="152.335384615" x2="152.335384615" y1="148.008" y2="126.690348387" /><line stroke="#000000" stroke-width="1" x1="159.48" x2="159.48" y1="148.008" y2="140.059045161" /><line stroke="#000000" stroke-width="1" x1="166.624615385" x2="166.624615385" y1="148.008" y2="126.887429912" /><line stroke="#000000" stroke-width="1" x1="173.769230769" x2="173.769230769" y1="148.008" y2="136.445883871" /><line stroke="#000000" stroke-width="1" x1="180.913846154" x2="180.913846154" y1="148.008" y2="130.204968915" /><line stroke="#000000" stroke-width="1" x1="188.058461538" x2="188.058461538" y1="148.008" y2="128.661163636" /><line stroke="#000000" stroke-width="1" x1="195.203076923" x2="195.203076923" y1="148.008" y2="146.497041642" /><line stroke="#000000" stroke-width="1" x1="202.347692308" x2="202.347692308" y1="148.008" y2="119.037015836" /><line stroke="#000000" stroke-width="1" x1="209.492307692" x2="209.492307692" y1="148.008" y2="117.62459824" /><line stroke="#000000" stroke-width="1" x1="216.636923077" x2="216.636923077" y1="148.008" y2="109.281480352" /><line stroke="#000000" stroke-width="1" x1="223.781538462" x2="223.781538462" y1="148.008" y2="95.9456304985" /><line stroke="#000000" stroke-width="1" x1="230.926153846" x2="230.926153846" y1="148.008" y2="83.4638005865" /><line stroke="#000000" stroke-width="1" x1="238.070769231" x2="238.070769231" y1="148.008" y2="95.6171612903" /><line stroke="#000000" stroke-width="1" x1="245.215384615" x2="245.215384615" y1="148.008" y2="84.0550451613" /><line stroke="#000000" stroke-width="1" x1="252.36" x2="252.36" y1="148.008" y2="128.529775953" /><line stroke="#000000" stroke-width="1" x1="259.504615385" x2="259.504615385" y1="148.008" y2="116.836272141" /><line stroke="#000000" stroke-width="1" x1="266.649230769" x2="266.649230769" y1="148.008" y2="104.912839883" /><line stroke="#000000" stroke-width="1" x1="273.793846154" x2="273.793846154" y1="148.008" y2="114.602681525" /><line stroke="#000000" stroke-width="1" x1="280.938461538" x2="280.938461538" y1="148.008" y2="125.639246921" /><line stroke="#000000" stroke-width="1" x1="288.083076923" x2="288.083076923" y1="148.008" y2="132.79987566" /><line stroke="#000000" stroke-width="1" x1="295.227692308" x2="295.227692308" y1="148.008" y2="115.785170674" /><line stroke="#000000" stroke-width="1" x1="302.372307692" x2="302.372307692" y1="148.008" y2="89.803256305" /><line stroke="#000000" stroke-width="1" x1="309.516923077" x2="309.516923077" y1="148.008" y2="90.525888563" /><line stroke="#000000" stroke-width="1" x1="316.661538462" x2="316.661538462" y1="148.008" y2="105.109921408" /><line stroke="#000000" stroke-width="1" x1="323.806153846" x2="323.806153846" y1="148.008" y2="108.887317302" /><line stroke="#000000" stroke-width="1" x1="330.950769231" x2="330.950769231" y1="148.008" y2="105.471237537" /><line stroke="#000000" stroke-width="1" x1="338.095384615" x2="338.095384615" y1="148.008" y2="123.668431672" /><line stroke="#000000" stroke-width="1" x1="345.24" x2="345.24" y1="148.008" y2="105.865400587" /><line stroke="#000000" stroke-width="1" x1="352.384615385" x2="352.384615385" y1="148.008" y2="107.310665103" /><line stroke="#000000" stroke-width="1" x1="359.529230769" x2="359.529230769" y1="148.008" y2="90.7886639296" /><line stroke="#000000" stroke-width="1" x1="366.673846154" x2="366.673846154" y1="148.008" y2="93.0879483871" /><line stroke="#000000" stroke-width="1" x1="373.818461538" x2="373.818461538" y1="148.008" y2="90.0988785924" /><line stroke="#000000" stroke-width="1" x1="380.963076923" x2="380.963076923" y1="148.008" y2="103.007718475" /><line stroke="#000000" stroke-width="1" x1="388.107692308" x2="388.107692308" y1="148.008" y2="72.4929290323" /><line stroke="#000000" stroke-width="1" x1="395.252307692" x2="395.252307692" y1="148.008" y2="89.3433994135" /><line stroke="#000000" stroke-width="1" x1="402.396923077" x2="402.396923077" y1="148.008" y2="92.0368469208" /><line stroke="#000000" stroke-width="1" x1="409.541538462" x2="409.541538462" y1="148.008" y2="80.7375061584" /><line stroke="#000000" stroke-width="1" x1="416.686153846" x2="416.686153846" y1="148.008" y2="68.2228293255" /><line stroke="#000000" stroke-width="1" x1="423.830769231" x2="423.830769231" y1="148.008" y2="90.4930416422" /><line stroke="#000000" stroke-width="1" x1="430.975384615" x2="430.975384615" y1="148.008" y2="105.044227566" /><line stroke="#000000" stroke-width="1" x1="438.12" x2="438.12" y1="148.008" y2="100.051495601" /><line stroke="#000000" stroke-width="1" x1="445.264615385" x2="445.264615385" y1="148.008" y2="83.6280351906" /><line stroke="#000000" stroke-width="1" x1="452.409230769" x2="452.409230769" y1="148.008" y2="106.78511437" /><line stroke="#000000" stroke-width="1" x1="459.553846154" x2="459.553846154" y1="148.008" y2="86.7484926686" /><line stroke="#000000" stroke-width="1" x1="466.698461538" x2="466.698461538" y1="148.008" y2="91.2813677419" /><line stroke="#000000" stroke-width="1" x1="473.843076923" x2="473.843076923" y1="148.008" y2="101.332525513" /><line stroke="#000000" stroke-width="1" x1="480.987692308" x2="480.987692308" y1="148.008" y2="97.2595073314" /><line stroke="#000000" stroke-width="1" x1="488.132307692" x2="488.132307692" y1="148.008" y2="79.0294662757" /><line stroke="#000000" stroke-width="1" x1="495.276923077" x2="495.276923077" y1="148.008" y2="84.3506674487" /><line stroke="#000000" stroke-width="1" x1="502.421538462" x2="502.421538462" y1="148.008" y2="95.3872328446" /><line stroke="#000000" stroke-width="1" x1="509.566153846" x2="509.566153846" y1="148.008" y2="77.2557325513" /><line stroke="#000000" stroke-width="1" x1="516.710769231" x2="516.710769231" y1="148.008" y2="76.6644879765" /><line stroke="#000000" stroke-width="1" x1="523.855384615" x2="523.855384615" y1="148.008" y2="48.5803706745" /><line stroke="#000000" stroke-width="1" x1="531.0" x2="531.0" y1="148.008" y2="46.7080961877" /><polyline fill="none" points="66.6,148.008 66.6,148.008 73.7446153846,148.008 73.7446153846,130.599131965 80.8892307692,130.599131965 80.8892307692,138.942249853 88.0338461538,138.942249853 88.0338461538,144.723307918 95.1784615385,144.723307918 95.1784615385,119.759648094 102.323076923,119.759648094 102.323076923,135.723251613 109.467692308,135.723251613 109.467692308,116.080792962 116.612307692,116.080792962 116.612307692,127.807143695 123.756923077,127.807143695 123.756923077,123.011493255 130.901538462,123.011493255 130.901538462,91.4127554252 138.046153846,91.4127554252 138.046153846,129.61372434 145.190769231,129.61372434 145.190769231,126.690348387 152.335384615,126.690348387 152.335384615,140.059045161 159.48,140.059045161 159.48,126.887429912 166.624615385,126.887429912 166.624615385,136.445883871 173.769230769,136.445883871 173.769230769,130.204968915 180.913846154,130.204968915 180.913846154,128.661163636 188.058461538,128.661163636 188.058461538,146.497041642 195.203076923,146.497041642 195.203076923,119.037015836 202.347692308,119.037015836 202.347692308,117.62459824 209.492307692,117.62459824 209.492307692,109.281480352 216.636923077,109.281480352 216.636923077,95.9456304985 223.781538462,95.9456304985 223.781538462,83.4638005865 230.926153846,83.4638005865 230.926153846,95.6171612903 238.070769231,95.6171612903 238.070769231,84.0550451613 245.215384615,84.0550451613 245.215384615,128.529775953 252.36,128.529775953 252.36,116.836272141 259.504615385,116.836272141 259.504615385,104.912839883 266.649230769,104.912839883 266.649230769,114.602681525 273.793846154,114.602681525 273.793846154,125.639246921 280.938461538,125.639246921 280.938461538,132.79987566 288.083076923,132.79987566 288.083076923,115.785170674 295.227692308,115.785170674 295.227692308,89.803256305 302.372307692,89.803256305 302.372307692,90.525888563 309.516923077,90.525888563 309.516923077,105.109921408 316.661538462,105.109921408 316.661538462,108.887317302 323.806153846,108.887317302 323.806153846,105.471237537 330.950769231,105.471237537 330.950769231,123.668431672 338.095384615,123.668431672 338.095384615,105.865400587 345.24,105.865400587 345.24,107.310665103 352.384615385,107.310665103 352.384615385,90.7886639296 359.529230769,90.7886639296 359.529230769,93.0879483871 366.673846154,93.0879483871 366.673846154,90.0988785924 373.818461538,90.0988785924 373.818461538,103.007718475 380.963076923,103.007718475 380.963076923,72.4929290323 388.107692308,72.4929290323 388.107692308,89.3433994135 395.252307692,89.3433994135 395.252307692,92.0368469208 402.396923077,92.0368469208 402.396923077,80.7375061584 409.541538462,80.7375061584 409.541538462,68.2228293255 416.686153846,68.2228293255 416.686153846,90.4930416422 423.830769231,90.4930416422 423.830769231,105.044227566 430.975384615,105.044227566 430.975384615,100.051495601 438.12,100.051495601 438.12,83.6280351906 445.264615385,83.6280351906 445.264615385,106.78511437 452.409230769,106.78511437 452.409230769,86.7484926686 459.553846154,86.7484926686 459.553846154,91.2813677419 466.698461538,91.2813677419 466.698461538,101.332525513 473.843076923,101.332525513 473.843076923,97.2595073314 480.987692308,97.2595073314 480.987692308,79.0294662757 488.132307692,79.0294662757 488.132307692,84.3506674487 495.276923077,84.3506674487 495.276923077,95.3872328446 502.421538462,95.3872328446 502.421538462,77.2557325513 509.566153846,77.2557325513 509.566153846,76.6644879765 516.710769231,76.6644879765 516.710769231,48.5803706745 523.855384615,48.5803706745 523.855384615,46.7080961877 531.0,46.7080961877 531.0,148.008" stroke="#000000" stroke-width="1.5" /><line stroke="#000000" stroke-width="1" x1="73.7446153846" x2="73.7446153846" y1="148.008" y2="148.008" /><line stroke="#000000" stroke-width="1" x1="80.8892307692" x2="80.8892307692" y1="148.008" y2="149.325741176" /><line stroke="#000000" stroke-width="1" x1="88.0338461538" x2="88.0338461538" y1="148.008" y2="148.008" /><line stroke="#000000" stroke-width="1" x1="95.1784615385" x2="95.1784615385" y1="148.008" y2="149.325741176" /><line stroke="#000000" stroke-width="1" x1="102.323076923" x2="102.323076923" y1="148.008" y2="150.643482353" /><line stroke="#000000" stroke-width="1" x1="109.467692308" x2="109.467692308" y1="148.008" y2="148.008" /><line stroke="#000000" stroke-width="1" x1="116.612307692" x2="116.612307692" y1="148.008" y2="150.643482353" /><line stroke="#000000" stroke-width="1" x1="123.756923077" x2="123.756923077" y1="148.008" y2="150.643482353" /><line stroke="#000000" stroke-width="1" x1="130.901538462" x2="130.901538462" y1="148.008" y2="149.325741176" /><line stroke="#000000" stroke-width="1" x1="138.046153846" x2="138.046153846" y1="148.008" y2="149.325741176" /><line stroke="#000000" stroke-width="1" x1="145.190769231" x2="145.190769231" y1="148.008" y2="150.643482353" /><line stroke="#000000" stroke-width="1" x1="152.335384615" x2="152.335384615" y1="148.008" y2="153.278964706" /><line stroke="#000000" stroke-width="1" x1="159.48" x2="159.48" y1="148.008" y2="148.008" /><line stroke="#000000" stroke-width="1" x1="166.624615385" x2="166.624615385" y1="148.008" y2="149.325741176" /><line stroke="#000000" stroke-width="1" x1="173.769230769" x2="173.769230769" y1="148.008" y2="148.008" /><line stroke="#000000" stroke-width="1" x1="180.913846154" x2="180.913846154" y1="148.008" y2="148.008" /><line stroke="#000000" stroke-width="1" x1="188.058461538" x2="188.058461538" y1="148.008" y2="148.008" /><line stroke="#000000" stroke-width="1" x1="195.203076923" x2="195.203076923" y1="148.008" y2="148.008" /><line stroke="#000000" stroke-width="1" x1="202.347692308" x2="202.347692308" y1="148.008" y2="151.961223529" /><line stroke="#000000" stroke-width="1" x1="209.492307692" x2="209.492307692" y1="148.008" y2="149.325741176" /><line stroke="#000000" stroke-width="1" x1="216.636923077" x2="216.636923077" y1="148.008" y2="153.278964706" /><line stroke="#000000" stroke-width="1" x1="223.781538462" x2="223.781538462" y1="148.008" y2="155.914447059" /><line stroke="#000000" stroke-width="1" x1="230.926153846" x2="230.926153846" y1="148.008" y2="167.774117647" /><line stroke="#000000" stroke-width="1" x1="238.070769231" x2="238.070769231" y1="148.008" y2="159.867670588" /><line stroke="#000000" stroke-width="1" x1="245.215384615" x2="245.215384615" y1="148.008" y2="150.643482353" /><line stroke="#000000" stroke-width="1" x1="252.36" x2="252.36" y1="148.008" y2="148.008" /><line stroke="#000000" stroke-width="1" x1="259.504615385" x2="259.504615385" y1="148.008" y2="148.008" /><line stroke="#000000" stroke-width="1" x1="266.649230769" x2="266.649230769" y1="148.008" y2="148.008" /><line stroke="#000000" stroke-width="1" x1="273.793846154" x2="273.793846154" y1="148.008" y2="154.596705882" /><line stroke="#000000" stroke-width="1" x1="280.938461538" x2="280.938461538" y1="148.008" y2="151.961223529" /><line stroke="#000000" stroke-width="1" x1="288.083076923" x2="288.083076923" y1="148.008" y2="154.596705882" /><line stroke="#000000" stroke-width="1" x1="295.227692308" x2="295.227692308" y1="148.008" y2="153.278964706" /><line stroke="#000000" stroke-width="1" x1="302.372307692" x2="302.372307692" y1="148.008" y2="174.362823529" /><line stroke="#000000" stroke-width="1" x1="309.516923077" x2="309.516923077" y1="148.008" y2="166.456376471" /><line stroke="#000000" stroke-width="1" x1="316.661538462" x2="316.661538462" y1="148.008" y2="154.596705882" /><line stroke="#000000" stroke-width="1" x1="323.806153846" x2="323.806153846" y1="148.008" y2="158.549929412" /><line stroke="#000000" stroke-width="1" x1="330.950769231" x2="330.950769231" y1="148.008" y2="161.185411765" /><line stroke="#000000" stroke-width="1" x1="338.095384615" x2="338.095384615" y1="148.008" y2="150.643482353" /><line stroke="#000000" stroke-width="1" x1="345.24" x2="345.24" y1="148.008" y2="157.232188235" /><line stroke="#000000" stroke-width="1" x1="352.384615385" x2="352.384615385" y1="148.008" y2="157.232188235" /><line stroke="#000000" stroke-width="1" x1="359.529230769" x2="359.529230769" y1="148.008" y2="148.008" /><line stroke="#000000" stroke-width="1" x1="366.673846154" x2="366.673846154" y1="148.008" y2="148.008" /><line stroke="#000000" stroke-width="1" x1="373.818461538" x2="373.818461538" y1="148.008" y2="148.008" /><line stroke="#000000" stroke-width="1" x1="380.963076923" x2="380.963076923" y1="148.008" y2="148.008" /><line stroke="#000000" stroke-width="1" x1="388.107692308" x2="388.107692308" y1="148.008" y2="158.549929412" /><line stroke="#000000" stroke-width="1" x1="395.252307692" x2="395.252307692" y1="148.008" y2="183.587011765" /><line stroke="#000000" stroke-width="1" x1="402.396923077" x2="402.396923077" y1="148.008" y2="157.232188235" /><line stroke="#000000" stroke-width="1" x1="409.541538462" x2="409.541538462" y1="148.008" y2="192.8112" /><line stroke="#000000" stroke-width="1" x1="416.686153846" x2="416.686153846" y1="148.008" y2="209.941835294" /><line stroke="#000000" stroke-width="1" x1="423.830769231" x2="423.830769231" y1="148.008" y2="176.998305882" /><line stroke="#000000" stroke-width="1" x1="430.975384615" x2="430.975384615" y1="148.008" y2="162.503152941" /><line stroke="#000000" stroke-width="1" x1="438.12" x2="438.12" y1="148.008" y2="163.820894118" /><line stroke="#000000" stroke-width="1" x1="445.264615385" x2="445.264615385" y1="148.008" y2="199.399905882" /><line stroke="#000000" stroke-width="1" x1="452.409230769" x2="452.409230769" y1="148.008" y2="169.091858824" /><line stroke="#000000" stroke-width="1" x1="459.553846154" x2="459.553846154" y1="148.008" y2="184.904752941" /><line stroke="#000000" stroke-width="1" x1="466.698461538" x2="466.698461538" y1="148.008" y2="187.540235294" /><line stroke="#000000" stroke-width="1" x1="473.843076923" x2="473.843076923" y1="148.008" y2="175.680564706" /><line stroke="#000000" stroke-width="1" x1="480.987692308" x2="480.987692308" y1="148.008" y2="194.128941176" /><line stroke="#000000" stroke-width="1" x1="488.132307692" x2="488.132307692" y1="148.008" y2="215.2128" /><line stroke="#000000" stroke-width="1" x1="495.276923077" x2="495.276923077" y1="148.008" y2="192.8112" /><line stroke="#000000" stroke-width="1" x1="502.421538462" x2="502.421538462" y1="148.008" y2="175.680564706" /><line stroke="#000000" stroke-width="1" x1="509.566153846" x2="509.566153846" y1="148.008" y2="207.306352941" /><line stroke="#000000" stroke-width="1" x1="516.710769231" x2="516.710769231" y1="148.008" y2="211.259576471" /><line stroke="#000000" stroke-width="1" x1="523.855384615" x2="523.855384615" y1="148.008" y2="246.838588235" /><line stroke="#000000" stroke-width="1" x1="531.0" x2="531.0" y1="148.008" y2="260.016" /><polyline fill="none" points="66.6,148.008 66.6,148.008 73.7446153846,148.008 73.7446153846,149.325741176 80.8892307692,149.325741176 80.8892307692,148.008 88.0338461538,148.008 88.0338461538,149.325741176 95.1784615385,149.325741176 95.1784615385,150.643482353 102.323076923,150.643482353 102.323076923,148.008 109.467692308,148.008 109.467692308,150.643482353 116.612307692,150.643482353 116.612307692,150.643482353 123.756923077,150.643482353 123.756923077,149.325741176 130.901538462,149.325741176 130.901538462,149.325741176 138.046153846,149.325741176 138.046153846,150.643482353 145.190769231,150.643482353 145.190769231,153.278964706 152.335384615,153.278964706 152.335384615,148.008 159.48,148.008 159.48,149.325741176 166.624615385,149.325741176 166.624615385,148.008 173.769230769,148.008 173.769230769,148.008 180.913846154,148.008 180.913846154,148.008 188.058461538,148.008 188.058461538,148.008 195.203076923,148.008 195.203076923,151.961223529 202.347692308,151.961223529 202.347692308,149.325741176 209.492307692,149.325741176 209.492307692,153.278964706 216.636923077,153.278964706 216.636923077,155.914447059 223.781538462,155.914447059 223.781538462,167.774117647 230.926153846,167.774117647 230.926153846,159.867670588 238.070769231,159.867670588 238.070769231,150.643482353 245.215384615,150.643482353 245.215384615,148.008 252.36,148.008 252.36,148.008 259.504615385,148.008 259.504615385,148.008 266.649230769,148.008 266.649230769,154.596705882 273.793846154,154.596705882 273.793846154,151.961223529 280.938461538,151.961223529 280.938461538,154.596705882 288.083076923,154.596705882 288.083076923,153.278964706 295.227692308,153.278964706 295.227692308,174.362823529 302.372307692,174.362823529 302.372307692,166.456376471 309.516923077,166.456376471 309.516923077,154.596705882 316.661538462,154.596705882 316.661538462,158.549929412 323.806153846,158.549929412 323.806153846,161.185411765 330.950769231,161.185411765 330.950769231,150.643482353 338.095384615,150.643482353 338.095384615,157.232188235 345.24,157.232188235 345.24,157.232188235 352.384615385,157.232188235 352.384615385,148.008 359.529230769,148.008 359.529230769,148.008 366.673846154,148.008 366.673846154,148.008 373.818461538,148.008 373.818461538,148.008 380.963076923,148.008 380.963076923,158.549929412 388.107692308,158.549929412 388.107692308,183.587011765 395.252307692,183.587011765 395.252307692,157.232188235 402.396923077,157.232188235 402.396923077,192.8112 409.541538462,192.8112 409.541538462,209.941835294 416.686153846,209.941835294 416.686153846,176.998305882 423.830769231,176.998305882 423.830769231,162.503152941 430.975384615,162.503152941 430.975384615,163.820894118 438.12,163.820894118 438.12,199.399905882 445.264615385,199.399905882 445.264615385,169.091858824 452.409230769,169.091858824 452.409230769,184.904752941 459.553846154,184.904752941 459.553846154,187.540235294 466.698461538,187.540235294 466.698461538,175.680564706 473.843076923,175.680564706 473.843076923,194.128941176 480.987692308,194.128941176 480.987692308,215.2128 488.132307692,215.2128 488.132307692,192.8112 495.276923077,192.8112 495.276923077,175.680564706 502.421538462,175.680564706 502.421538462,207.306352941 509.566153846,207.306352941 509.566153846,211.259576471 516.710769231,211.259576471 516.710769231,246.838588235 523.855384615,246.838588235 523.855384615,260.016 531.0,260.016 531.0,148.008" stroke="#000000" stroke-width="1.5" /><line stroke="#000000" stroke-width="1" x1="73.7446153846" x2="73.7446153846" y1="396.0" y2="387.525494428" /><line stroke="#000000" stroke-width="1" x1="80.8892307692" x2="80.8892307692" y1="396.0" y2="387.525494428" /><line stroke="#000000" stroke-width="1" x1="88.0338461538" x2="88.0338461538" y1="396.0" y2="382.926925513" /><line stroke="#000000" stroke-width="1" x1="95.1784615385" x2="95.1784615385" y1="396.0" y2="396.0" /><line stroke="#000000" stroke-width="1" x1="102.323076923" x2="102.323076923" y1="396.0" y2="389.266381232" /><line stroke="#000000" stroke-width="1" x1="109.467692308" x2="109.467692308" y1="396.0" y2="378.985295015" /><line stroke="#000000" stroke-width="1" x1="116.612307692" x2="116.612307692" y1="396.0" y2="391.237196481" /><line stroke="#000000" stroke-width="1" x1="123.756923077" x2="123.756923077" y1="396.0" y2="378.722519648" /><line stroke="#000000" stroke-width="1" x1="130.901538462" x2="130.901538462" y1="396.0" y2="387.919657478" /><line stroke="#000000" stroke-width="1" x1="138.046153846" x2="138.046153846" y1="396.0" y2="374.81373607" /><line stroke="#000000" stroke-width="1" x1="145.190769231" x2="145.190769231" y1="396.0" y2="375.142205279" /><line stroke="#000000" stroke-width="1" x1="152.335384615" x2="152.335384615" y1="396.0" y2="369.722463343" /><line stroke="#000000" stroke-width="1" x1="159.48" x2="159.48" y1="396.0" y2="394.981745455" /><line stroke="#000000" stroke-width="1" x1="166.624615385" x2="166.624615385" y1="396.0" y2="387.525494428" /><line stroke="#000000" stroke-width="1" x1="173.769230769" x2="173.769230769" y1="396.0" y2="378.623978886" /><line stroke="#000000" stroke-width="1" x1="180.913846154" x2="180.913846154" y1="396.0" y2="380.496253372" /><line stroke="#000000" stroke-width="1" x1="188.058461538" x2="188.058461538" y1="396.0" y2="370.642177126" /><line stroke="#000000" stroke-width="1" x1="195.203076923" x2="195.203076923" y1="396.0" y2="377.145867449" /><line stroke="#000000" stroke-width="1" x1="202.347692308" x2="202.347692308" y1="396.0" y2="366.592621031" /><line stroke="#000000" stroke-width="1" x1="209.492307692" x2="209.492307692" y1="396.0" y2="360.426784751" /><line stroke="#000000" stroke-width="1" x1="216.636923077" x2="216.636923077" y1="396.0" y2="359.704152493" /><line stroke="#000000" stroke-width="1" x1="223.781538462" x2="223.781538462" y1="396.0" y2="347.320863343" /><line stroke="#000000" stroke-width="1" x1="230.926153846" x2="230.926153846" y1="396.0" y2="354.744267449" /><line stroke="#000000" stroke-width="1" x1="238.070769231" x2="238.070769231" y1="396.0" y2="362.693222287" /><line stroke="#000000" stroke-width="1" x1="245.215384615" x2="245.215384615" y1="396.0" y2="356.485154252" /><line stroke="#000000" stroke-width="1" x1="252.36" x2="252.36" y1="396.0" y2="396.0" /><line stroke="#000000" stroke-width="1" x1="259.504615385" x2="259.504615385" y1="396.0" y2="380.923263343" /><line stroke="#000000" stroke-width="1" x1="266.649230769" x2="266.649230769" y1="396.0" y2="345.481435777" /><line stroke="#000000" stroke-width="1" x1="273.793846154" x2="273.793846154" y1="396.0" y2="363.1859261" /><line stroke="#000000" stroke-width="1" x1="280.938461538" x2="280.938461538" y1="396.0" y2="378.886754252" /><line stroke="#000000" stroke-width="1" x1="288.083076923" x2="288.083076923" y1="396.0" y2="376.915939003" /><line stroke="#000000" stroke-width="1" x1="295.227692308" x2="295.227692308" y1="396.0" y2="360.78810088" /><line stroke="#000000" stroke-width="1" x1="302.372307692" x2="302.372307692" y1="396.0" y2="333.262381232" /><line stroke="#000000" stroke-width="1" x1="309.516923077" x2="309.516923077" y1="396.0" y2="340.39016305" /><line stroke="#000000" stroke-width="1" x1="316.661538462" x2="316.661538462" y1="396.0" y2="354.087329032" /><line stroke="#000000" stroke-width="1" x1="323.806153846" x2="323.806153846" y1="396.0" y2="352.609217595" /><line stroke="#000000" stroke-width="1" x1="330.950769231" x2="330.950769231" y1="396.0" y2="344.496028152" /><line stroke="#000000" stroke-width="1" x1="338.095384615" x2="338.095384615" y1="396.0" y2="361.937743109" /><line stroke="#000000" stroke-width="1" x1="345.24" x2="345.24" y1="396.0" y2="361.21511085" /><line stroke="#000000" stroke-width="1" x1="352.384615385" x2="352.384615385" y1="396.0" y2="357.831878006" /><line stroke="#000000" stroke-width="1" x1="359.529230769" x2="359.529230769" y1="396.0" y2="347.123781818" /><line stroke="#000000" stroke-width="1" x1="366.673846154" x2="366.673846154" y1="396.0" y2="340.882866862" /><line stroke="#000000" stroke-width="1" x1="373.818461538" x2="373.818461538" y1="396.0" y2="331.554341349" /><line stroke="#000000" stroke-width="1" x1="380.963076923" x2="380.963076923" y1="396.0" y2="352.37928915" /><line stroke="#000000" stroke-width="1" x1="388.107692308" x2="388.107692308" y1="396.0" y2="346.598231085" /><line stroke="#000000" stroke-width="1" x1="395.252307692" x2="395.252307692" y1="396.0" y2="312.864443402" /><line stroke="#000000" stroke-width="1" x1="402.396923077" x2="402.396923077" y1="396.0" y2="324.360865689" /><line stroke="#000000" stroke-width="1" x1="409.541538462" x2="409.541538462" y1="396.0" y2="313.094371848" /><line stroke="#000000" stroke-width="1" x1="416.686153846" x2="416.686153846" y1="396.0" y2="341.933968328" /><line stroke="#000000" stroke-width="1" x1="423.830769231" x2="423.830769231" y1="396.0" y2="356.123838123" /><line stroke="#000000" stroke-width="1" x1="430.975384615" x2="430.975384615" y1="396.0" y2="339.240520821" /><line stroke="#000000" stroke-width="1" x1="438.12" x2="438.12" y1="396.0" y2="343.839089736" /><line stroke="#000000" stroke-width="1" x1="445.264615385" x2="445.264615385" y1="396.0" y2="326.594456305" /><line stroke="#000000" stroke-width="1" x1="452.409230769" x2="452.409230769" y1="396.0" y2="323.901008798" /><line stroke="#000000" stroke-width="1" x1="459.553846154" x2="459.553846154" y1="396.0" y2="305.933743109" /><line stroke="#000000" stroke-width="1" x1="466.698461538" x2="466.698461538" y1="396.0" y2="318.021409971" /><line stroke="#000000" stroke-width="1" x1="473.843076923" x2="473.843076923" y1="396.0" y2="344.890191202" /><line stroke="#000000" stroke-width="1" x1="480.987692308" x2="480.987692308" y1="396.0" y2="326.495915543" /><line stroke="#000000" stroke-width="1" x1="488.132307692" x2="488.132307692" y1="396.0" y2="312.700208798" /><line stroke="#000000" stroke-width="1" x1="495.276923077" x2="495.276923077" y1="396.0" y2="309.087047507" /><line stroke="#000000" stroke-width="1" x1="502.421538462" x2="502.421538462" y1="396.0" y2="289.674517302" /><line stroke="#000000" stroke-width="1" x1="509.566153846" x2="509.566153846" y1="396.0" y2="296.046819941" /><line stroke="#000000" stroke-width="1" x1="516.710769231" x2="516.710769231" y1="396.0" y2="306.032283871" /><line stroke="#000000" stroke-width="1" x1="523.855384615" x2="523.855384615" y1="396.0" y2="299.265818182" /><line stroke="#000000" stroke-width="1" x1="531.0" x2="531.0" y1="396.0" y2="308.561496774" /><polyline fill="none" points="66.6,396.0 66.6,387.525494428 73.7446153846,387.525494428 73.7446153846,387.525494428 80.8892307692,387.525494428 80.8892307692,382.926925513 88.0338461538,382.926925513 88.0338461538,396.0 95.1784615385,396.0 95.1784615385,389.266381232 102.323076923,389.266381232 102.323076923,378.985295015 109.467692308,378.985295015 109.467692308,391.237196481 116.612307692,391.237196481 116.612307692,378.722519648 123.756923077,378.722519648 123.756923077,387.919657478 130.901538462,387.919657478 130.901538462,374.81373607 138.046153846,374.81373607 138.046153846,375.142205279 145.190769231,375.142205279 145.190769231,369.722463343 152.335384615,369.722463343 152.335384615,394.981745455 159.48,394.981745455 159.48,387.525494428 166.624615385,387.525494428 166.624615385,378.623978886 173.769230769,378.623978886 173.769230769,380.496253372 180.913846154,380.496253372 180.913846154,370.642177126 188.058461538,370.642177126 188.058461538,377.145867449 195.203076923,377.145867449 195.203076923,366.592621031 202.347692308,366.592621031 202.347692308,360.426784751 209.492307692,360.426784751 209.492307692,359.704152493 216.636923077,359.704152493 216.636923077,347.320863343 223.781538462,347.320863343 223.781538462,354.744267449 230.926153846,354.744267449 230.926153846,362.693222287 238.070769231,362.693222287 238.070769231,356.485154252 245.215384615,356.485154252 245.215384615,396.0 252.36,396.0 252.36,380.923263343 259.504615385,380.923263343 259.504615385,345.481435777 266.649230769,345.481435777 266.649230769,363.1859261 273.793846154,363.1859261 273.793846154,378.886754252 280.938461538,378.886754252 280.938461538,376.915939003 288.083076923,376.915939003 288.083076923,360.78810088 295.227692308,360.78810088 295.227692308,333.262381232 302.372307692,333.262381232 302.372307692,340.39016305 309.516923077,340.39016305 309.516923077,354.087329032 316.661538462,354.087329032 316.661538462,352.609217595 323.806153846,352.609217595 323.806153846,344.496028152 330.950769231,344.496028152 330.950769231,361.937743109 338.095384615,361.937743109 338.095384615,361.21511085 345.24,361.21511085 345.24,357.831878006 352.384615385,357.831878006 352.384615385,347.123781818 359.529230769,347.123781818 359.529230769,340.882866862 366.673846154,340.882866862 366.673846154,331.554341349 373.818461538,331.554341349 373.818461538,352.37928915 380.963076923,352.37928915 380.963076923,346.598231085 388.107692308,346.598231085 388.107692308,312.864443402 395.252307692,312.864443402 395.252307692,324.360865689 402.396923077,324.360865689 402.396923077,313.094371848 409.541538462,313.094371848 409.541538462,341.933968328 416.686153846,341.933968328 416.686153846,356.123838123 423.830769231,356.123838123 423.830769231,339.240520821 430.975384615,339.240520821 430.975384615,343.839089736 438.12,343.839089736 438.12,326.594456305 445.264615385,326.594456305 445.264615385,323.901008798 452.409230769,323.901008798 452.409230769,305.933743109 459.553846154,305.933743109 459.553846154,318.021409971 466.698461538,318.021409971 466.698461538,344.890191202 473.843076923,344.890191202 473.843076923,326.495915543 480.987692308,326.495915543 480.987692308,312.700208798 488.132307692,312.700208798 488.132307692,309.087047507 495.276923077,309.087047507 495.276923077,289.674517302 502.421538462,289.674517302 502.421538462,296.046819941 509.566153846,296.046819941 509.566153846,306.032283871 516.710769231,306.032283871 516.710769231,299.265818182 523.855384615,299.265818182 523.855384615,308.561496774 531.0,308.561496774 531.0,396.0" stroke="#000000" stroke-width="1.5" /><line stroke="#000000" stroke-width="1" x1="73.7446153846" x2="73.7446153846" y1="396.0" y2="399.953223529" /><line stroke="#000000" stroke-width="1" x1="80.8892307692" x2="80.8892307692" y1="396.0" y2="401.270964706" /><line stroke="#000000" stroke-width="1" x1="88.0338461538" x2="88.0338461538" y1="396.0" y2="398.635482353" /><line stroke="#000000" stroke-width="1" x1="95.1784615385" x2="95.1784615385" y1="396.0" y2="398.635482353" /><line stroke="#000000" stroke-width="1" x1="102.323076923" x2="102.323076923" y1="396.0" y2="402.588705882" /><line stroke="#000000" stroke-width="1" x1="109.467692308" x2="109.467692308" y1="396.0" y2="398.635482353" /><line stroke="#000000" stroke-width="1" x1="116.612307692" x2="116.612307692" y1="396.0" y2="399.953223529" /><line stroke="#000000" stroke-width="1" x1="123.756923077" x2="123.756923077" y1="396.0" y2="398.635482353" /><line stroke="#000000" stroke-width="1" x1="130.901538462" x2="130.901538462" y1="396.0" y2="399.953223529" /><line stroke="#000000" stroke-width="1" x1="138.046153846" x2="138.046153846" y1="396.0" y2="397.317741176" /><line stroke="#000000" stroke-width="1" x1="145.190769231" x2="145.190769231" y1="396.0" y2="402.588705882" /><line stroke="#000000" stroke-width="1" x1="152.335384615" x2="152.335384615" y1="396.0" y2="402.588705882" /><line stroke="#000000" stroke-width="1" x1="159.48" x2="159.48" y1="396.0" y2="397.317741176" /><line stroke="#000000" stroke-width="1" x1="166.624615385" x2="166.624615385" y1="396.0" y2="397.317741176" /><line stroke="#000000" stroke-width="1" x1="173.769230769" x2="173.769230769" y1="396.0" y2="399.953223529" /><line stroke="#000000" stroke-width="1" x1="180.913846154" x2="180.913846154" y1="396.0" y2="399.953223529" /><line stroke="#000000" stroke-width="1" x1="188.058461538" x2="188.058461538" y1="396.0" y2="401.270964706" /><line stroke="#000000" stroke-width="1" x1="195.203076923" x2="195.203076923" y1="396.0" y2="401.270964706" /><line stroke="#000000" stroke-width="1" x1="202.347692308" x2="202.347692308" y1="396.0" y2="401.270964706" /><line stroke="#000000" stroke-width="1" x1="209.492307692" x2="209.492307692" y1="396.0" y2="403.906447059" /><line stroke="#000000" stroke-width="1" x1="216.636923077" x2="216.636923077" y1="396.0" y2="405.224188235" /><line stroke="#000000" stroke-width="1" x1="223.781538462" x2="223.781538462" y1="396.0" y2="411.812894118" /><line stroke="#000000" stroke-width="1" x1="230.926153846" x2="230.926153846" y1="396.0" y2="410.495152941" /><line stroke="#000000" stroke-width="1" x1="238.070769231" x2="238.070769231" y1="396.0" y2="401.270964706" /><line stroke="#000000" stroke-width="1" x1="245.215384615" x2="245.215384615" y1="396.0" y2="405.224188235" /><line stroke="#000000" stroke-width="1" x1="252.36" x2="252.36" y1="396.0" y2="396.0" /><line stroke="#000000" stroke-width="1" x1="259.504615385" x2="259.504615385" y1="396.0" y2="396.0" /><line stroke="#000000" stroke-width="1" x1="266.649230769" x2="266.649230769" y1="396.0" y2="396.0" /><line stroke="#000000" stroke-width="1" x1="273.793846154" x2="273.793846154" y1="396.0" y2="401.270964706" /><line stroke="#000000" stroke-width="1" x1="280.938461538" x2="280.938461538" y1="396.0" y2="405.224188235" /><line stroke="#000000" stroke-width="1" x1="288.083076923" x2="288.083076923" y1="396.0" y2="401.270964706" /><line stroke="#000000" stroke-width="1" x1="295.227692308" x2="295.227692308" y1="396.0" y2="407.859670588" /><line stroke="#000000" stroke-width="1" x1="302.372307692" x2="302.372307692" y1="396.0" y2="424.990305882" /><line stroke="#000000" stroke-width="1" x1="309.516923077" x2="309.516923077" y1="396.0" y2="413.130635294" /><line stroke="#000000" stroke-width="1" x1="316.661538462" x2="316.661538462" y1="396.0" y2="406.541929412" /><line stroke="#000000" stroke-width="1" x1="323.806153846" x2="323.806153846" y1="396.0" y2="406.541929412" /><line stroke="#000000" stroke-width="1" x1="330.950769231" x2="330.950769231" y1="396.0" y2="409.177411765" /><line stroke="#000000" stroke-width="1" x1="338.095384615" x2="338.095384615" y1="396.0" y2="403.906447059" /><line stroke="#000000" stroke-width="1" x1="345.24" x2="345.24" y1="396.0" y2="402.588705882" /><line stroke="#000000" stroke-width="1" x1="352.384615385" x2="352.384615385" y1="396.0" y2="405.224188235" /><line stroke="#000000" stroke-width="1" x1="359.529230769" x2="359.529230769" y1="396.0" y2="396.0" /><line stroke="#000000" stroke-width="1" x1="366.673846154" x2="366.673846154" y1="396.0" y2="396.0" /><line stroke="#000000" stroke-width="1" x1="373.818461538" x2="373.818461538" y1="396.0" y2="396.0" /><line stroke="#000000" stroke-width="1" x1="380.963076923" x2="380.963076923" y1="396.0" y2="396.0" /><line stroke="#000000" stroke-width="1" x1="388.107692308" x2="388.107692308" y1="396.0" y2="396.0" /><line stroke="#000000" stroke-width="1" x1="395.252307692" x2="395.252307692" y1="396.0" y2="439.485458824" /><line stroke="#000000" stroke-width="1" x1="402.396923077" x2="402.396923077" y1="396.0" y2="421.037082353" /><line stroke="#000000" stroke-width="1" x1="409.541538462" x2="409.541538462" y1="396.0" y2="422.354823529" /><line stroke="#000000" stroke-width="1" x1="416.686153846" x2="416.686153846" y1="396.0" y2="405.224188235" /><line stroke="#000000" stroke-width="1" x1="423.830769231" x2="423.830769231" y1="396.0" y2="401.270964706" /><line stroke="#000000" stroke-width="1" x1="430.975384615" x2="430.975384615" y1="396.0" y2="411.812894118" /><line stroke="#000000" stroke-width="1" x1="438.12" x2="438.12" y1="396.0" y2="407.859670588" /><line stroke="#000000" stroke-width="1" x1="445.264615385" x2="445.264615385" y1="396.0" y2="424.990305882" /><line stroke="#000000" stroke-width="1" x1="452.409230769" x2="452.409230769" y1="396.0" y2="434.214494118" /><line stroke="#000000" stroke-width="1" x1="459.553846154" x2="459.553846154" y1="396.0" y2="438.167717647" /><line stroke="#000000" stroke-width="1" x1="466.698461538" x2="466.698461538" y1="396.0" y2="435.532235294" /><line stroke="#000000" stroke-width="1" x1="473.843076923" x2="473.843076923" y1="396.0" y2="418.4016" /><line stroke="#000000" stroke-width="1" x1="480.987692308" x2="480.987692308" y1="396.0" y2="424.990305882" /><line stroke="#000000" stroke-width="1" x1="488.132307692" x2="488.132307692" y1="396.0" y2="427.625788235" /><line stroke="#000000" stroke-width="1" x1="495.276923077" x2="495.276923077" y1="396.0" y2="440.8032" /><line stroke="#000000" stroke-width="1" x1="502.421538462" x2="502.421538462" y1="396.0" y2="460.569317647" /><line stroke="#000000" stroke-width="1" x1="509.566153846" x2="509.566153846" y1="396.0" y2="446.074164706" /><line stroke="#000000" stroke-width="1" x1="516.710769231" x2="516.710769231" y1="396.0" y2="428.943529412" /><line stroke="#000000" stroke-width="1" x1="523.855384615" x2="523.855384615" y1="396.0" y2="439.485458824" /><line stroke="#000000" stroke-width="1" x1="531.0" x2="531.0" y1="396.0" y2="442.120941176" /><polyline fill="none" points="66.6,396.0 66.6,399.953223529 73.7446153846,399.953223529 73.7446153846,401.270964706 80.8892307692,401.270964706 80.8892307692,398.635482353 88.0338461538,398.635482353 88.0338461538,398.635482353 95.1784615385,398.635482353 95.1784615385,402.588705882 102.323076923,402.588705882 102.323076923,398.635482353 109.467692308,398.635482353 109.467692308,399.953223529 116.612307692,399.953223529 116.612307692,398.635482353 123.756923077,398.635482353 123.756923077,399.953223529 130.901538462,399.953223529 130.901538462,397.317741176 138.046153846,397.317741176 138.046153846,402.588705882 145.190769231,402.588705882 145.190769231,402.588705882 152.335384615,402.588705882 152.335384615,397.317741176 159.48,397.317741176 159.48,397.317741176 166.624615385,397.317741176 166.624615385,399.953223529 173.769230769,399.953223529 173.769230769,399.953223529 180.913846154,399.953223529 180.913846154,401.270964706 188.058461538,401.270964706 188.058461538,401.270964706 195.203076923,401.270964706 195.203076923,401.270964706 202.347692308,401.270964706 202.347692308,403.906447059 209.492307692,403.906447059 209.492307692,405.224188235 216.636923077,405.224188235 216.636923077,411.812894118 223.781538462,411.812894118 223.781538462,410.495152941 230.926153846,410.495152941 230.926153846,401.270964706 238.070769231,401.270964706 238.070769231,405.224188235 245.215384615,405.224188235 245.215384615,396.0 252.36,396.0 252.36,396.0 259.504615385,396.0 259.504615385,396.0 266.649230769,396.0 266.649230769,401.270964706 273.793846154,401.270964706 273.793846154,405.224188235 280.938461538,405.224188235 280.938461538,401.270964706 288.083076923,401.270964706 288.083076923,407.859670588 295.227692308,407.859670588 295.227692308,424.990305882 302.372307692,424.990305882 302.372307692,413.130635294 309.516923077,413.130635294 309.516923077,406.541929412 316.661538462,406.541929412 316.661538462,406.541929412 323.806153846,406.541929412 323.806153846,409.177411765 330.950769231,409.177411765 330.950769231,403.906447059 338.095384615,403.906447059 338.095384615,402.588705882 345.24,402.588705882 345.24,405.224188235 352.384615385,405.224188235 352.384615385,396.0 359.529230769,396.0 359.529230769,396.0 366.673846154,396.0 366.673846154,396.0 373.818461538,396.0 373.818461538,396.0 380.963076923,396.0 380.963076923,396.0 388.107692308,396.0 388.107692308,439.485458824 395.252307692,439.485458824 395.252307692,421.037082353 402.396923077,421.037082353 402.396923077,422.354823529 409.541538462,422.354823529 409.541538462,405.224188235 416.686153846,405.224188235 416.686153846,401.270964706 423.830769231,401.270964706 423.830769231,411.812894118 430.975384615,411.812894118 430.975384615,407.859670588 438.12,407.859670588 438.12,424.990305882 445.264615385,424.990305882 445.264615385,434.214494118 452.409230769,434.214494118 452.409230769,438.167717647 459.553846154,438.167717647 459.553846154,435.532235294 466.698461538,435.532235294 466.698461538,418.4016 473.843076923,418.4016 473.843076923,424.990305882 480.987692308,424.990305882 480.987692308,427.625788235 488.132307692,427.625788235 488.132307692,440.8032 495.276923077,440.8032 495.276923077,460.569317647 502.421538462,460.569317647 502.421538462,446.074164706 509.566153846,446.074164706 509.566153846,428.943529412 516.710769231,428.943529412 516.710769231,439.485458824 523.855384615,439.485458824 523.855384615,442.120941176 531.0,442.120941176 531.0,396.0" stroke="#000000" stroke-width="1.5" /><line stroke="#000000" stroke-width="1" x1="73.7446153846" x2="73.7446153846" y1="643.992" y2="632.725506158" /><line stroke="#000000" stroke-width="1" x1="80.8892307692" x2="80.8892307692" y1="643.992" y2="630.590456305" /><line stroke="#000000" stroke-width="1" x1="88.0338461538" x2="88.0338461538" y1="643.992" y2="635.714575953" /><line stroke="#000000" stroke-width="1" x1="95.1784615385" x2="95.1784615385" y1="643.992" y2="635.714575953" /><line stroke="#000000" stroke-width="1" x1="102.323076923" x2="102.323076923" y1="643.992" y2="621.853175367" /><line stroke="#000000" stroke-width="1" x1="109.467692308" x2="109.467692308" y1="643.992" y2="643.992" /><line stroke="#000000" stroke-width="1" x1="116.612307692" x2="116.612307692" y1="643.992" y2="613.871373607" /><line stroke="#000000" stroke-width="1" x1="123.756923077" x2="123.756923077" y1="643.992" y2="633.152516129" /><line stroke="#000000" stroke-width="1" x1="130.901538462" x2="130.901538462" y1="643.992" y2="629.112344868" /><line stroke="#000000" stroke-width="1" x1="138.046153846" x2="138.046153846" y1="643.992" y2="613.280129032" /><line stroke="#000000" stroke-width="1" x1="145.190769231" x2="145.190769231" y1="643.992" y2="630.688997067" /><line stroke="#000000" stroke-width="1" x1="152.335384615" x2="152.335384615" y1="643.992" y2="608.845794721" /><line stroke="#000000" stroke-width="1" x1="159.48" x2="159.48" y1="643.992" y2="636.929912023" /><line stroke="#000000" stroke-width="1" x1="166.624615385" x2="166.624615385" y1="643.992" y2="638.933574194" /><line stroke="#000000" stroke-width="1" x1="173.769230769" x2="173.769230769" y1="643.992" y2="637.258381232" /><line stroke="#000000" stroke-width="1" x1="180.913846154" x2="180.913846154" y1="643.992" y2="627.60138651" /><line stroke="#000000" stroke-width="1" x1="188.058461538" x2="188.058461538" y1="643.992" y2="625.499183578" /><line stroke="#000000" stroke-width="1" x1="195.203076923" x2="195.203076923" y1="643.992" y2="630.459068622" /><line stroke="#000000" stroke-width="1" x1="202.347692308" x2="202.347692308" y1="643.992" y2="617.418841056" /><line stroke="#000000" stroke-width="1" x1="209.492307692" x2="209.492307692" y1="643.992" y2="614.856781232" /><line stroke="#000000" stroke-width="1" x1="216.636923077" x2="216.636923077" y1="643.992" y2="612.064792962" /><line stroke="#000000" stroke-width="1" x1="223.781538462" x2="223.781538462" y1="643.992" y2="594.688771848" /><line stroke="#000000" stroke-width="1" x1="230.926153846" x2="230.926153846" y1="643.992" y2="586.674123167" /><line stroke="#000000" stroke-width="1" x1="238.070769231" x2="238.070769231" y1="643.992" y2="599.615809971" /><line stroke="#000000" stroke-width="1" x1="245.215384615" x2="245.215384615" y1="643.992" y2="591.99532434" /><line stroke="#000000" stroke-width="1" x1="252.36" x2="252.36" y1="643.992" y2="622.740042229" /><line stroke="#000000" stroke-width="1" x1="259.504615385" x2="259.504615385" y1="643.992" y2="618.929799413" /><line stroke="#000000" stroke-width="1" x1="266.649230769" x2="266.649230769" y1="643.992" y2="610.192518475" /><line stroke="#000000" stroke-width="1" x1="273.793846154" x2="273.793846154" y1="643.992" y2="618.01008563" /><line stroke="#000000" stroke-width="1" x1="280.938461538" x2="280.938461538" y1="643.992" y2="611.670629912" /><line stroke="#000000" stroke-width="1" x1="288.083076923" x2="288.083076923" y1="643.992" y2="623.19989912" /><line stroke="#000000" stroke-width="1" x1="295.227692308" x2="295.227692308" y1="643.992" y2="608.583019355" /><line stroke="#000000" stroke-width="1" x1="302.372307692" x2="302.372307692" y1="643.992" y2="582.601104985" /><line stroke="#000000" stroke-width="1" x1="309.516923077" x2="309.516923077" y1="643.992" y2="594.130374194" /><line stroke="#000000" stroke-width="1" x1="316.661538462" x2="316.661538462" y1="643.992" y2="595.050087977" /><line stroke="#000000" stroke-width="1" x1="323.806153846" x2="323.806153846" y1="643.992" y2="589.59749912" /><line stroke="#000000" stroke-width="1" x1="330.950769231" x2="330.950769231" y1="643.992" y2="597.776382405" /><line stroke="#000000" stroke-width="1" x1="338.095384615" x2="338.095384615" y1="643.992" y2="611.440701466" /><line stroke="#000000" stroke-width="1" x1="345.24" x2="345.24" y1="643.992" y2="609.371345455" /><line stroke="#000000" stroke-width="1" x1="352.384615385" x2="352.384615385" y1="643.992" y2="600.502676833" /><line stroke="#000000" stroke-width="1" x1="359.529230769" x2="359.529230769" y1="643.992" y2="576.458730792" /><line stroke="#000000" stroke-width="1" x1="366.673846154" x2="366.673846154" y1="643.992" y2="580.630289736" /><line stroke="#000000" stroke-width="1" x1="373.818461538" x2="373.818461538" y1="643.992" y2="582.863880352" /><line stroke="#000000" stroke-width="1" x1="380.963076923" x2="380.963076923" y1="643.992" y2="587.528143109" /><line stroke="#000000" stroke-width="1" x1="388.107692308" x2="388.107692308" y1="643.992" y2="566.736042229" /><line stroke="#000000" stroke-width="1" x1="395.252307692" x2="395.252307692" y1="643.992" y2="600.042819941" /><line stroke="#000000" stroke-width="1" x1="402.396923077" x2="402.396923077" y1="643.992" y2="576.820046921" /><line stroke="#000000" stroke-width="1" x1="409.541538462" x2="409.541538462" y1="643.992" y2="587.790918475" /><line stroke="#000000" stroke-width="1" x1="416.686153846" x2="416.686153846" y1="643.992" y2="560.462280352" /><line stroke="#000000" stroke-width="1" x1="423.830769231" x2="423.830769231" y1="643.992" y2="572.747028739" /><line stroke="#000000" stroke-width="1" x1="430.975384615" x2="430.975384615" y1="643.992" y2="586.411347801" /><line stroke="#000000" stroke-width="1" x1="438.12" x2="438.12" y1="643.992" y2="579.874810557" /><line stroke="#000000" stroke-width="1" x1="445.264615385" x2="445.264615385" y1="643.992" y2="587.659530792" /><line stroke="#000000" stroke-width="1" x1="452.409230769" x2="452.409230769" y1="643.992" y2="594.261761877" /><line stroke="#000000" stroke-width="1" x1="459.553846154" x2="459.553846154" y1="643.992" y2="566.341879179" /><line stroke="#000000" stroke-width="1" x1="466.698461538" x2="466.698461538" y1="643.992" y2="584.309144868" /><line stroke="#000000" stroke-width="1" x1="473.843076923" x2="473.843076923" y1="643.992" y2="572.155784164" /><line stroke="#000000" stroke-width="1" x1="480.987692308" x2="480.987692308" y1="643.992" y2="581.418615836" /><line stroke="#000000" stroke-width="1" x1="488.132307692" x2="488.132307692" y1="643.992" y2="566.604654545" /><line stroke="#000000" stroke-width="1" x1="495.276923077" x2="495.276923077" y1="643.992" y2="575.900333138" /><line stroke="#000000" stroke-width="1" x1="502.421538462" x2="502.421538462" y1="643.992" y2="576.228802346" /><line stroke="#000000" stroke-width="1" x1="509.566153846" x2="509.566153846" y1="643.992" y2="558.819934311" /><line stroke="#000000" stroke-width="1" x1="516.710769231" x2="516.710769231" y1="643.992" y2="559.148403519" /><line stroke="#000000" stroke-width="1" x1="523.855384615" x2="523.855384615" y1="643.992" y2="536.254099707" /><line stroke="#000000" stroke-width="1" x1="531.0" x2="531.0" y1="643.992" y2="531.984" /><polyline fill="none" points="66.6,643.992 66.6,632.725506158 73.7446153846,632.725506158 73.7446153846,630.590456305 80.8892307692,630.590456305 80.8892307692,635.714575953 88.0338461538,635.714575953 88.0338461538,635.714575953 95.1784615385,635.714575953 95.1784615385,621.853175367 102.323076923,621.853175367 102.323076923,643.992 109.467692308,643.992 109.467692308,613.871373607 116.612307692,613.871373607 116.612307692,633.152516129 123.756923077,633.152516129 123.756923077,629.112344868 130.901538462,629.112344868 130.901538462,613.280129032 138.046153846,613.280129032 138.046153846,630.688997067 145.190769231,630.688997067 145.190769231,608.845794721 152.335384615,608.845794721 152.335384615,636.929912023 159.48,636.929912023 159.48,638.933574194 166.624615385,638.933574194 166.624615385,637.258381232 173.769230769,637.258381232 173.769230769,627.60138651 180.913846154,627.60138651 180.913846154,625.499183578 188.058461538,625.499183578 188.058461538,630.459068622 195.203076923,630.459068622 195.203076923,617.418841056 202.347692308,617.418841056 202.347692308,614.856781232 209.492307692,614.856781232 209.492307692,612.064792962 216.636923077,612.064792962 216.636923077,594.688771848 223.781538462,594.688771848 223.781538462,586.674123167 230.926153846,586.674123167 230.926153846,599.615809971 238.070769231,599.615809971 238.070769231,591.99532434 245.215384615,591.99532434 245.215384615,622.740042229 252.36,622.740042229 252.36,618.929799413 259.504615385,618.929799413 259.504615385,610.192518475 266.649230769,610.192518475 266.649230769,618.01008563 273.793846154,618.01008563 273.793846154,611.670629912 280.938461538,611.670629912 280.938461538,623.19989912 288.083076923,623.19989912 288.083076923,608.583019355 295.227692308,608.583019355 295.227692308,582.601104985 302.372307692,582.601104985 302.372307692,594.130374194 309.516923077,594.130374194 309.516923077,595.050087977 316.661538462,595.050087977 316.661538462,589.59749912 323.806153846,589.59749912 323.806153846,597.776382405 330.950769231,597.776382405 330.950769231,611.440701466 338.095384615,611.440701466 338.095384615,609.371345455 345.24,609.371345455 345.24,600.502676833 352.384615385,600.502676833 352.384615385,576.458730792 359.529230769,576.458730792 359.529230769,580.630289736 366.673846154,580.630289736 366.673846154,582.863880352 373.818461538,582.863880352 373.818461538,587.528143109 380.963076923,587.528143109 380.963076923,566.736042229 388.107692308,566.736042229 388.107692308,600.042819941 395.252307692,600.042819941 395.252307692,576.820046921 402.396923077,576.820046921 402.396923077,587.790918475 409.541538462,587.790918475 409.541538462,560.462280352 416.686153846,560.462280352 416.686153846,572.747028739 423.830769231,572.747028739 423.830769231,586.411347801 430.975384615,586.411347801 430.975384615,579.874810557 438.12,579.874810557 438.12,587.659530792 445.264615385,587.659530792 445.264615385,594.261761877 452.409230769,594.261761877 452.409230769,566.341879179 459.553846154,566.341879179 459.553846154,584.309144868 466.698461538,584.309144868 466.698461538,572.155784164 473.843076923,572.155784164 473.843076923,581.418615836 480.987692308,581.418615836 480.987692308,566.604654545 488.132307692,566.604654545 488.132307692,575.900333138 495.276923077,575.900333138 495.276923077,576.228802346 502.421538462,576.228802346 502.421538462,558.819934311 509.566153846,558.819934311 509.566153846,559.148403519 516.710769231,559.148403519 516.710769231,536.254099707 523.855384615,536.254099707 523.855384615,531.984 531.0,531.984 531.0,643.992" stroke="#000000" stroke-width="1.5" /><line stroke="#000000" stroke-width="1" x1="73.7446153846" x2="73.7446153846" y1="643.992" y2="643.992" /><line stroke="#000000" stroke-width="1" x1="80.8892307692" x2="80.8892307692" y1="643.992" y2="643.992" /><line stroke="#000000" stroke-width="1" x1="88.0338461538" x2="88.0338461538" y1="643.992" y2="643.992" /><line stroke="#000000" stroke-width="1" x1="95.1784615385" x2="95.1784615385" y1="643.992" y2="643.992" /><line stroke="#000000" stroke-width="1" x1="102.323076923" x2="102.323076923" y1="643.992" y2="643.992" /><line stroke="#000000" stroke-width="1" x1="109.467692308" x2="109.467692308" y1="643.992" y2="643.992" /><line stroke="#000000" stroke-width="1" x1="116.612307692" x2="116.612307692" y1="643.992" y2="649.262964706" /><line stroke="#000000" stroke-width="1" x1="123.756923077" x2="123.756923077" y1="643.992" y2="646.627482353" /><line stroke="#000000" stroke-width="1" x1="130.901538462" x2="130.901538462" y1="643.992" y2="650.580705882" /><line stroke="#000000" stroke-width="1" x1="138.046153846" x2="138.046153846" y1="643.992" y2="650.580705882" /><line stroke="#000000" stroke-width="1" x1="145.190769231" x2="145.190769231" y1="643.992" y2="647.945223529" /><line stroke="#000000" stroke-width="1" x1="152.335384615" x2="152.335384615" y1="643.992" y2="655.851670588" /><line stroke="#000000" stroke-width="1" x1="159.48" x2="159.48" y1="643.992" y2="646.627482353" /><line stroke="#000000" stroke-width="1" x1="166.624615385" x2="166.624615385" y1="643.992" y2="643.992" /><line stroke="#000000" stroke-width="1" x1="173.769230769" x2="173.769230769" y1="643.992" y2="646.627482353" /><line stroke="#000000" stroke-width="1" x1="180.913846154" x2="180.913846154" y1="643.992" y2="643.992" /><line stroke="#000000" stroke-width="1" x1="188.058461538" x2="188.058461538" y1="643.992" y2="649.262964706" /><line stroke="#000000" stroke-width="1" x1="195.203076923" x2="195.203076923" y1="643.992" y2="643.992" /><line stroke="#000000" stroke-width="1" x1="202.347692308" x2="202.347692308" y1="643.992" y2="646.627482353" /><line stroke="#000000" stroke-width="1" x1="209.492307692" x2="209.492307692" y1="643.992" y2="645.309741176" /><line stroke="#000000" stroke-width="1" x1="216.636923077" x2="216.636923077" y1="643.992" y2="653.216188235" /><line stroke="#000000" stroke-width="1" x1="223.781538462" x2="223.781538462" y1="643.992" y2="649.262964706" /><line stroke="#000000" stroke-width="1" x1="230.926153846" x2="230.926153846" y1="643.992" y2="651.898447059" /><line stroke="#000000" stroke-width="1" x1="238.070769231" x2="238.070769231" y1="643.992" y2="651.898447059" /><line stroke="#000000" stroke-width="1" x1="245.215384615" x2="245.215384615" y1="643.992" y2="650.580705882" /><line stroke="#000000" stroke-width="1" x1="252.36" x2="252.36" y1="643.992" y2="643.992" /><line stroke="#000000" stroke-width="1" x1="259.504615385" x2="259.504615385" y1="643.992" y2="643.992" /><line stroke="#000000" stroke-width="1" x1="266.649230769" x2="266.649230769" y1="643.992" y2="643.992" /><line stroke="#000000" stroke-width="1" x1="273.793846154" x2="273.793846154" y1="643.992" y2="643.992" /><line stroke="#000000" stroke-width="1" x1="280.938461538" x2="280.938461538" y1="643.992" y2="654.533929412" /><line stroke="#000000" stroke-width="1" x1="288.083076923" x2="288.083076923" y1="643.992" y2="658.487152941" /><line stroke="#000000" stroke-width="1" x1="295.227692308" x2="295.227692308" y1="643.992" y2="646.627482353" /><line stroke="#000000" stroke-width="1" x1="302.372307692" x2="302.372307692" y1="643.992" y2="669.029082353" /><line stroke="#000000" stroke-width="1" x1="309.516923077" x2="309.516923077" y1="643.992" y2="654.533929412" /><line stroke="#000000" stroke-width="1" x1="316.661538462" x2="316.661538462" y1="643.992" y2="659.804894118" /><line stroke="#000000" stroke-width="1" x1="323.806153846" x2="323.806153846" y1="643.992" y2="665.075858824" /><line stroke="#000000" stroke-width="1" x1="330.950769231" x2="330.950769231" y1="643.992" y2="650.580705882" /><line stroke="#000000" stroke-width="1" x1="338.095384615" x2="338.095384615" y1="643.992" y2="645.309741176" /><line stroke="#000000" stroke-width="1" x1="345.24" x2="345.24" y1="643.992" y2="650.580705882" /><line stroke="#000000" stroke-width="1" x1="352.384615385" x2="352.384615385" y1="643.992" y2="653.216188235" /><line stroke="#000000" stroke-width="1" x1="359.529230769" x2="359.529230769" y1="643.992" y2="643.992" /><line stroke="#000000" stroke-width="1" x1="366.673846154" x2="366.673846154" y1="643.992" y2="643.992" /><line stroke="#000000" stroke-width="1" x1="373.818461538" x2="373.818461538" y1="643.992" y2="643.992" /><line stroke="#000000" stroke-width="1" x1="380.963076923" x2="380.963076923" y1="643.992" y2="643.992" /><line stroke="#000000" stroke-width="1" x1="388.107692308" x2="388.107692308" y1="643.992" y2="650.580705882" /><line stroke="#000000" stroke-width="1" x1="395.252307692" x2="395.252307692" y1="643.992" y2="651.898447059" /><line stroke="#000000" stroke-width="1" x1="402.396923077" x2="402.396923077" y1="643.992" y2="667.711341176" /><line stroke="#000000" stroke-width="1" x1="409.541538462" x2="409.541538462" y1="643.992" y2="661.122635294" /><line stroke="#000000" stroke-width="1" x1="416.686153846" x2="416.686153846" y1="643.992" y2="686.159717647" /><line stroke="#000000" stroke-width="1" x1="423.830769231" x2="423.830769231" y1="643.992" y2="675.617788235" /><line stroke="#000000" stroke-width="1" x1="430.975384615" x2="430.975384615" y1="643.992" y2="662.440376471" /><line stroke="#000000" stroke-width="1" x1="438.12" x2="438.12" y1="643.992" y2="669.029082353" /><line stroke="#000000" stroke-width="1" x1="445.264615385" x2="445.264615385" y1="643.992" y2="667.711341176" /><line stroke="#000000" stroke-width="1" x1="452.409230769" x2="452.409230769" y1="643.992" y2="653.216188235" /><line stroke="#000000" stroke-width="1" x1="459.553846154" x2="459.553846154" y1="643.992" y2="665.075858824" /><line stroke="#000000" stroke-width="1" x1="466.698461538" x2="466.698461538" y1="643.992" y2="665.075858824" /><line stroke="#000000" stroke-width="1" x1="473.843076923" x2="473.843076923" y1="643.992" y2="679.571011765" /><line stroke="#000000" stroke-width="1" x1="480.987692308" x2="480.987692308" y1="643.992" y2="670.346823529" /><line stroke="#000000" stroke-width="1" x1="488.132307692" x2="488.132307692" y1="643.992" y2="682.206494118" /><line stroke="#000000" stroke-width="1" x1="495.276923077" x2="495.276923077" y1="643.992" y2="666.3936" /><line stroke="#000000" stroke-width="1" x1="502.421538462" x2="502.421538462" y1="643.992" y2="658.487152941" /><line stroke="#000000" stroke-width="1" x1="509.566153846" x2="509.566153846" y1="643.992" y2="676.935529412" /><line stroke="#000000" stroke-width="1" x1="516.710769231" x2="516.710769231" y1="643.992" y2="680.888752941" /><line stroke="#000000" stroke-width="1" x1="523.855384615" x2="523.855384615" y1="643.992" y2="691.430682353" /><line stroke="#000000" stroke-width="1" x1="531.0" x2="531.0" y1="643.992" y2="699.337129412" /><polyline fill="none" points="66.6,643.992 66.6,643.992 73.7446153846,643.992 73.7446153846,643.992 80.8892307692,643.992 80.8892307692,643.992 88.0338461538,643.992 88.0338461538,643.992 95.1784615385,643.992 95.1784615385,643.992 102.323076923,643.992 102.323076923,643.992 109.467692308,643.992 109.467692308,649.262964706 116.612307692,649.262964706 116.612307692,646.627482353 123.756923077,646.627482353 123.756923077,650.580705882 130.901538462,650.580705882 130.901538462,650.580705882 138.046153846,650.580705882 138.046153846,647.945223529 145.190769231,647.945223529 145.190769231,655.851670588 152.335384615,655.851670588 152.335384615,646.627482353 159.48,646.627482353 159.48,643.992 166.624615385,643.992 166.624615385,646.627482353 173.769230769,646.627482353 173.769230769,643.992 180.913846154,643.992 180.913846154,649.262964706 188.058461538,649.262964706 188.058461538,643.992 195.203076923,643.992 195.203076923,646.627482353 202.347692308,646.627482353 202.347692308,645.309741176 209.492307692,645.309741176 209.492307692,653.216188235 216.636923077,653.216188235 216.636923077,649.262964706 223.781538462,649.262964706 223.781538462,651.898447059 230.926153846,651.898447059 230.926153846,651.898447059 238.070769231,651.898447059 238.070769231,650.580705882 245.215384615,650.580705882 245.215384615,643.992 252.36,643.992 252.36,643.992 259.504615385,643.992 259.504615385,643.992 266.649230769,643.992 266.649230769,643.992 273.793846154,643.992 273.793846154,654.533929412 280.938461538,654.533929412 280.938461538,658.487152941 288.083076923,658.487152941 288.083076923,646.627482353 295.227692308,646.627482353 295.227692308,669.029082353 302.372307692,669.029082353 302.372307692,654.533929412 309.516923077,654.533929412 309.516923077,659.804894118 316.661538462,659.804894118 316.661538462,665.075858824 323.806153846,665.075858824 323.806153846,650.580705882 330.950769231,650.580705882 330.950769231,645.309741176 338.095384615,645.309741176 338.095384615,650.580705882 345.24,650.580705882 345.24,653.216188235 352.384615385,653.216188235 352.384615385,643.992 359.529230769,643.992 359.529230769,643.992 366.673846154,643.992 366.673846154,643.992 373.818461538,643.992 373.818461538,643.992 380.963076923,643.992 380.963076923,650.580705882 388.107692308,650.580705882 388.107692308,651.898447059 395.252307692,651.898447059 395.252307692,667.711341176 402.396923077,667.711341176 402.396923077,661.122635294 409.541538462,661.122635294 409.541538462,686.159717647 416.686153846,686.159717647 416.686153846,675.617788235 423.830769231,675.617788235 423.830769231,662.440376471 430.975384615,662.440376471 430.975384615,669.029082353 438.12,669.029082353 438.12,667.711341176 445.264615385,667.711341176 445.264615385,653.216188235 452.409230769,653.216188235 452.409230769,665.075858824 459.553846154,665.075858824 459.553846154,665.075858824 466.698461538,665.075858824 466.698461538,679.571011765 473.843076923,679.571011765 473.843076923,670.346823529 480.987692308,670.346823529 480.987692308,682.206494118 488.132307692,682.206494118 488.132307692,666.3936 495.276923077,666.3936 495.276923077,658.487152941 502.421538462,658.487152941 502.421538462,676.935529412 509.566153846,676.935529412 509.566153846,680.888752941 516.710769231,680.888752941 516.710769231,691.430682353 523.855384615,691.430682353 523.855384615,699.337129412 531.0,699.337129412 531.0,643.992" stroke="#000000" stroke-width="1.5" /></g><rect fill="none" height="720.0" stroke="#000000" stroke-width="1" width="540.0" x="36.0" y="36.0" /></svg>