<?xml version="1.0" encoding="utf-8"?>
<!-- Generator: Adobe Illustrator 20.0.0, SVG Export Plug-In . SVG Version: 6.00 Build 0)  -->
<svg version="1.1" id="Layer_1" xmlns:ev="http://www.w3.org/2001/xml-events"
	 xmlns="http://www.w3.org/2000/svg" xmlns:xlink="http://www.w3.org/1999/xlink" x="0px" y="0px" viewBox="0 0 612 792"
	 style="enable-background:new 0 0 612 792;" xml:space="preserve">
<style type="text/css">
	.st0{font-family:'Raleway-Medium';}
	.st1{font-size:12px;}
	.st2{font-size:16px;}
	.st3{fill:none;stroke:#000000;}
	.st4{fill:none;stroke:#000000;stroke-dasharray:3,1;}
	.st5{fill:none;stroke:#000000;stroke-width:1.5;}
</style>
<g id="labels">
	<text transform="matrix(1 0 0 1 36.9047 233.4144)" class="st0 st1">1980</text>
	<text transform="matrix(1 0 0 1 534 233.4144)" class="st0 st1">2015</text>
	<text transform="matrix(6.123234e-17 1 -1 6.123234e-17 565 89.1166)" class="st0 st1">Mean sea level rise</text>
	<text transform="matrix(1 0 0 1 66.6 98.1776)" class="st0 st2">Wilmington, NC</text>
	<text transform="matrix(1 0 0 1 67.5712 244.8144)" class="st0 st1">W</text>
	<text transform="matrix(1 0 0 1 80.8398 244.8144)" class="st0 st1">W</text>
	<text transform="matrix(1 0 0 1 95.1044 244.8144)" class="st0 st1">O</text>
	<text transform="matrix(1 0 0 1 108.373 244.8144)" class="st0 st1">O</text>
	<text transform="matrix(1 0 0 1 120.6455 244.8144)" class="st0 st1">W</text>
	<text transform="matrix(1 0 0 1 135.5752 244.8144)" class="st0 st1">Y</text>
	<text transform="matrix(1 0 0 1 148.8438 244.8144)" class="st0 st1">Y</text>
	<text transform="matrix(1 0 0 1 160.4512 244.8144)" class="st0 st1">W</text>
	<text transform="matrix(1 0 0 1 175.3809 244.8144)" class="st0 st1">Y</text>
	<text transform="matrix(1 0 0 1 188.6495 244.8144)" class="st0 st1">Y</text>
	<text transform="matrix(1 0 0 1 200.2569 244.8144)" class="st0 st1">W</text>
	<text transform="matrix(1 0 0 1 213.5255 244.8144)" class="st0 st1">W</text>
	<text transform="matrix(1 0 0 1 226.7941 244.8144)" class="st0 st1">W</text>
	<text transform="matrix(1 0 0 1 240.0626 244.8144)" class="st0 st1">W</text>
	<text transform="matrix(1 0 0 1 254.9923 244.8144)" class="st0 st1">Y</text>
	<text transform="matrix(1 0 0 1 267.9298 244.8144)" class="st0 st1">R</text>
	<text transform="matrix(1 0 0 1 281.5295 244.8144)" class="st0 st1">Y</text>
	<text transform="matrix(1 0 0 1 294.467 244.8144)" class="st0 st1">R</text>
	<text transform="matrix(1 0 0 1 307.0705 244.8144)" class="st0 st1">M</text>
	<text transform="matrix(1 0 0 1 321.0041 244.8144)" class="st0 st1">R</text>
	<text transform="matrix(1 0 0 1 333.9387 244.8144)" class="st0 st1">O</text>
	<text transform="matrix(1 0 0 1 347.2073 244.8144)" class="st0 st1">O</text>
	<text transform="matrix(1 0 0 1 360.8098 244.8144)" class="st0 st1">R</text>
	<text transform="matrix(1 0 0 1 373.7444 244.8144)" class="st0 st1">O</text>
	<text transform="matrix(1 0 0 1 387.347 244.8144)" class="st0 st1">R</text>
	<text transform="matrix(1 0 0 1 400.6156 244.8144)" class="st0 st1">R</text>
	<text transform="matrix(1 0 0 1 413.8841 244.8144)" class="st0 st1">R</text>
	<text transform="matrix(1 0 0 1 427.1527 244.8144)" class="st0 st1">R</text>
	<text transform="matrix(1 0 0 1 439.7562 244.8144)" class="st0 st1">M</text>
	<text transform="matrix(1 0 0 1 453.6898 244.8144)" class="st0 st1">R</text>
	<text transform="matrix(1 0 0 1 466.9584 244.8144)" class="st0 st1">R</text>
	<text transform="matrix(1 0 0 1 479.562 244.8144)" class="st0 st1">M</text>
	<text transform="matrix(1 0 0 1 492.8305 244.8144)" class="st0 st1">M</text>
	<text transform="matrix(1 0 0 1 507.0952 244.8144)" class="st0 st1">B</text>
	<text transform="matrix(1 0 0 1 520.3638 244.8144)" class="st0 st1">B</text>
	<text transform="matrix(1 0 0 1 540.2 168.8929)" class="st0 st1">5&apos;&apos;</text>
	<text transform="matrix(1 0 0 1 540.2 76.2155)" class="st0 st1">10&apos;&apos;</text>
	<text transform="matrix(1 0 0 1 36.9047 481.4064)" class="st0 st1">1980</text>
	<text transform="matrix(1 0 0 1 534 481.4064)" class="st0 st1">2015</text>
	<text transform="matrix(1 0 0 1 66.6 346.1696)" class="st0 st2">Annapolis, MD</text>
	<text transform="matrix(1 0 0 1 67.5712 492.8064)" class="st0 st1">W</text>
	<text transform="matrix(1 0 0 1 82.5009 492.8064)" class="st0 st1">Y</text>
	<text transform="matrix(1 0 0 1 95.4384 492.8064)" class="st0 st1">R</text>
	<text transform="matrix(1 0 0 1 108.373 492.8064)" class="st0 st1">O</text>
	<text transform="matrix(1 0 0 1 122.3066 492.8064)" class="st0 st1">Y</text>
	<text transform="matrix(1 0 0 1 135.5752 492.8064)" class="st0 st1">Y</text>
	<text transform="matrix(1 0 0 1 148.8438 492.8064)" class="st0 st1">Y</text>
	<text transform="matrix(1 0 0 1 162.1123 492.8064)" class="st0 st1">Y</text>
	<text transform="matrix(1 0 0 1 173.7198 492.8064)" class="st0 st1">W</text>
	<text transform="matrix(1 0 0 1 188.6495 492.8064)" class="st0 st1">Y</text>
	<text transform="matrix(1 0 0 1 200.2569 492.8064)" class="st0 st1">W</text>
	<text transform="matrix(1 0 0 1 213.5255 492.8064)" class="st0 st1">W</text>
	<text transform="matrix(1 0 0 1 226.7941 492.8064)" class="st0 st1">W</text>
	<text transform="matrix(1 0 0 1 240.0626 492.8064)" class="st0 st1">W</text>
	<text transform="matrix(1 0 0 1 253.3312 492.8064)" class="st0 st1">W</text>
	<text transform="matrix(1 0 0 1 267.9298 492.8064)" class="st0 st1">R</text>
	<text transform="matrix(1 0 0 1 280.8644 492.8064)" class="st0 st1">O</text>
	<text transform="matrix(1 0 0 1 294.133 492.8064)" class="st0 st1">O</text>
	<text transform="matrix(1 0 0 1 308.0666 492.8064)" class="st0 st1">Y</text>
	<text transform="matrix(1 0 0 1 319.674 492.8064)" class="st0 st1">W</text>
	<text transform="matrix(1 0 0 1 333.9387 492.8064)" class="st0 st1">O</text>
	<text transform="matrix(1 0 0 1 347.8723 492.8064)" class="st0 st1">Y</text>
	<text transform="matrix(1 0 0 1 360.8098 492.8064)" class="st0 st1">R</text>
	<text transform="matrix(1 0 0 1 374.0784 492.8064)" class="st0 st1">R</text>
	<text transform="matrix(1 0 0 1 387.347 492.8064)" class="st0 st1">R</text>
	<text transform="matrix(1 0 0 1 400.6156 492.8064)" class="st0 st1">R</text>
	<text transform="matrix(1 0 0 1 413.5501 492.8064)" class="st0 st1">O</text>
	<text transform="matrix(1 0 0 1 427.1527 492.8064)" class="st0 st1">R</text>
	<text transform="matrix(1 0 0 1 440.4213 492.8064)" class="st0 st1">R</text>
	<text transform="matrix(1 0 0 1 453.6898 492.8064)" class="st0 st1">R</text>
	<text transform="matrix(1 0 0 1 466.2934 492.8064)" class="st0 st1">M</text>
	<text transform="matrix(1 0 0 1 480.227 492.8064)" class="st0 st1">R</text>
	<text transform="matrix(1 0 0 1 493.4956 492.8064)" class="st0 st1">R</text>
	<text transform="matrix(1 0 0 1 506.7641 492.8064)" class="st0 st1">R</text>
	<text transform="matrix(1 0 0 1 520.0327 492.8064)" class="st0 st1">R</text>
	<text transform="matrix(1 0 0 1 540.2 416.8849)" class="st0 st1">5&apos;&apos;</text>
	<text transform="matrix(1 0 0 1 540.2 324.2075)" class="st0 st1">10&apos;&apos;</text>
	<text transform="matrix(1 0 0 1 36.9047 729.3984)" class="st0 st1">1980</text>
	<text transform="matrix(1 0 0 1 534 729.3984)" class="st0 st1">2015</text>
	<text transform="matrix(1 0 0 1 66.6 594.1616)" class="st0 st2">Charleston, SC</text>
	<text transform="matrix(1 0 0 1 68.5673 740.7984)" class="st0 st1">O</text>
	<text transform="matrix(1 0 0 1 80.8398 740.7984)" class="st0 st1">W</text>
	<text transform="matrix(1 0 0 1 95.1044 740.7984)" class="st0 st1">O</text>
	<text transform="matrix(1 0 0 1 109.038 740.7984)" class="st0 st1">Y</text>
	<text transform="matrix(1 0 0 1 121.6416 740.7984)" class="st0 st1">O</text>
	<text transform="matrix(1 0 0 1 134.9102 740.7984)" class="st0 st1">O</text>
	<text transform="matrix(1 0 0 1 147.1826 740.7984)" class="st0 st1">W</text>
	<text transform="matrix(1 0 0 1 160.4512 740.7984)" class="st0 st1">W</text>
	<text transform="matrix(1 0 0 1 173.7198 740.7984)" class="st0 st1">W</text>
	<text transform="matrix(1 0 0 1 188.6495 740.7984)" class="st0 st1">Y</text>
	<text transform="matrix(1 0 0 1 200.2569 740.7984)" class="st0 st1">W</text>
	<text transform="matrix(1 0 0 1 213.5255 740.7984)" class="st0 st1">W</text>
	<text transform="matrix(1 0 0 1 226.7941 740.7984)" class="st0 st1">W</text>
	<text transform="matrix(1 0 0 1 240.0626 740.7984)" class="st0 st1">W</text>
	<text transform="matrix(1 0 0 1 253.3312 740.7984)" class="st0 st1">W</text>
	<text transform="matrix(1 0 0 1 268.2609 740.7984)" class="st0 st1">Y</text>
	<text transform="matrix(1 0 0 1 280.8644 740.7984)" class="st0 st1">O</text>
	<text transform="matrix(1 0 0 1 294.133 740.7984)" class="st0 st1">O</text>
	<text transform="matrix(1 0 0 1 307.7356 740.7984)" class="st0 st1">R</text>
	<text transform="matrix(1 0 0 1 321.0041 740.7984)" class="st0 st1">R</text>
	<text transform="matrix(1 0 0 1 333.9387 740.7984)" class="st0 st1">O</text>
	<text transform="matrix(1 0 0 1 347.2073 740.7984)" class="st0 st1">O</text>
	<text transform="matrix(1 0 0 1 360.4759 740.7984)" class="st0 st1">O</text>
	<text transform="matrix(1 0 0 1 374.4095 740.7984)" class="st0 st1">Y</text>
	<text transform="matrix(1 0 0 1 387.013 740.7984)" class="st0 st1">O</text>
	<text transform="matrix(1 0 0 1 400.2816 740.7984)" class="st0 st1">O</text>
	<text transform="matrix(1 0 0 1 413.8841 740.7984)" class="st0 st1">R</text>
	<text transform="matrix(1 0 0 1 426.8187 740.7984)" class="st0 st1">O</text>
	<text transform="matrix(1 0 0 1 440.4213 740.7984)" class="st0 st1">R</text>
	<text transform="matrix(1 0 0 1 453.3559 740.7984)" class="st0 st1">O</text>
	<text transform="matrix(1 0 0 1 466.6245 740.7984)" class="st0 st1">O</text>
	<text transform="matrix(1 0 0 1 480.227 740.7984)" class="st0 st1">R</text>
	<text transform="matrix(1 0 0 1 493.4956 740.7984)" class="st0 st1">R</text>
	<text transform="matrix(1 0 0 1 506.7641 740.7984)" class="st0 st1">R</text>
	<text transform="matrix(1 0 0 1 519.3677 740.7984)" class="st0 st1">M</text>
	<text transform="matrix(1 0 0 1 540.2 664.877)" class="st0 st1">5&apos;&apos;</text>
	<text transform="matrix(1 0 0 1 540.2 572.1995)" class="st0 st1">10&apos;&apos;</text>
</g>
<g id="axis">
	<line class="st3" x1="66.6" y1="230.4" x2="531" y2="230.4"/>
	<line class="st4" x1="531" y1="165.9" x2="538.2" y2="165.9"/>
	<line class="st4" x1="531" y1="73.2" x2="538.2" y2="73.2"/>
	<line class="st3" x1="66.6" y1="478.4" x2="531" y2="478.4"/>
	<line class="st4" x1="531" y1="413.9" x2="538.2" y2="413.9"/>
	<line class="st4" x1="477.9" y1="321.2" x2="538.2" y2="321.2"/>
	<line class="st3" x1="66.6" y1="726.4" x2="531" y2="726.4"/>
	<line class="st4" x1="531" y1="661.9" x2="538.2" y2="661.9"/>
	<line class="st4" x1="531" y1="569.2" x2="538.2" y2="569.2"/>
</g>
<g id="data">
	<line class="st3" x1="79.9" y1="230.4" x2="79.9" y2="226.8"/>
	<line class="st3" x1="93.1" y1="230.4" x2="93.1" y2="198.9"/>
	<line class="st3" x1="106.4" y1="230.4" x2="106.4" y2="150.8"/>
	<line class="st3" x1="119.7" y1="230.4" x2="119.7" y2="152.1"/>
	<line class="st3" x1="132.9" y1="230.4" x2="132.9" y2="179.1"/>
	<line class="st3" x1="146.2" y1="230.4" x2="146.2" y2="186.1"/>
	<line class="st3" x1="159.5" y1="230.4" x2="159.5" y2="179.8"/>
	<line class="st3" x1="172.7" y1="230.4" x2="172.7" y2="213.5"/>
	<line class="st3" x1="186" y1="230.4" x2="186" y2="180.5"/>
	<line class="st3" x1="199.3" y1="230.4" x2="199.3" y2="183.2"/>
	<line class="st3" x1="212.6" y1="230.4" x2="212.6" y2="152.6"/>
	<line class="st3" x1="225.8" y1="230.4" x2="225.8" y2="156.9"/>
	<line class="st3" x1="239.1" y1="230.4" x2="239.1" y2="151.4"/>
	<line class="st3" x1="252.4" y1="230.4" x2="252.4" y2="175.3"/>
	<line class="st3" x1="265.6" y1="230.4" x2="265.6" y2="118.8"/>
	<line class="st3" x1="278.9" y1="230.4" x2="278.9" y2="150"/>
	<line class="st3" x1="292.2" y1="230.4" x2="292.2" y2="154.9"/>
	<line class="st3" x1="305.4" y1="230.4" x2="305.4" y2="134"/>
	<line class="st3" x1="318.7" y1="230.4" x2="318.7" y2="110.9"/>
	<line class="st3" x1="332" y1="230.4" x2="332" y2="152.1"/>
	<line class="st3" x1="345.2" y1="230.4" x2="345.2" y2="179"/>
	<line class="st3" x1="358.5" y1="230.4" x2="358.5" y2="169.8"/>
	<line class="st3" x1="371.8" y1="230.4" x2="371.8" y2="139.4"/>
	<line class="st3" x1="385" y1="230.4" x2="385" y2="182.3"/>
	<line class="st3" x1="398.3" y1="230.4" x2="398.3" y2="145.2"/>
	<line class="st3" x1="411.6" y1="230.4" x2="411.6" y2="153.5"/>
	<line class="st3" x1="424.9" y1="230.4" x2="424.9" y2="172.2"/>
	<line class="st3" x1="438.1" y1="230.4" x2="438.1" y2="164.6"/>
	<line class="st3" x1="451.4" y1="230.4" x2="451.4" y2="130.9"/>
	<line class="st3" x1="464.7" y1="230.4" x2="464.7" y2="140.7"/>
	<line class="st3" x1="477.9" y1="230.4" x2="477.9" y2="161.1"/>
	<line class="st3" x1="491.2" y1="230.4" x2="491.2" y2="127.6"/>
	<line class="st3" x1="504.5" y1="230.4" x2="504.5" y2="126.5"/>
	<line class="st3" x1="517.7" y1="230.4" x2="517.7" y2="74.5"/>
	<line class="st3" x1="531" y1="230.4" x2="531" y2="71"/>
	<polyline class="st5" points="66.6,230.4 66.6,226.8 79.9,226.8 79.9,198.9 93.1,198.9 93.1,150.8 106.4,150.8 106.4,152.1 
		119.7,152.1 119.7,179.1 132.9,179.1 132.9,186.1 146.2,186.1 146.2,179.8 159.5,179.8 159.5,213.5 172.7,213.5 172.7,180.5 
		186,180.5 186,183.2 199.3,183.2 199.3,152.6 212.6,152.6 212.6,156.9 225.8,156.9 225.8,151.4 239.1,151.4 239.1,175.3 
		252.4,175.3 252.4,118.8 265.6,118.8 265.6,150 278.9,150 278.9,154.9 292.2,154.9 292.2,134 305.4,134 305.4,110.9 318.7,110.9 
		318.7,152.1 332,152.1 332,179 345.2,179 345.2,169.8 358.5,169.8 358.5,139.4 371.8,139.4 371.8,182.3 385,182.3 385,145.2 
		398.3,145.2 398.3,153.5 411.6,153.5 411.6,172.2 424.9,172.2 424.9,164.6 438.1,164.6 438.1,130.9 451.4,130.9 451.4,140.7 
		464.7,140.7 464.7,161.1 477.9,161.1 477.9,127.6 491.2,127.6 491.2,126.5 504.5,126.5 504.5,74.5 517.7,74.5 517.7,71 531,71 
		531,230.4 	"/>
	<line class="st3" x1="79.9" y1="478.4" x2="79.9" y2="471.2"/>
	<line class="st3" x1="93.1" y1="478.4" x2="93.1" y2="441.4"/>
	<line class="st3" x1="106.4" y1="478.4" x2="106.4" y2="390.4"/>
	<line class="st3" x1="119.7" y1="478.4" x2="119.7" y2="403.6"/>
	<line class="st3" x1="132.9" y1="478.4" x2="132.9" y2="429"/>
	<line class="st3" x1="146.2" y1="478.4" x2="146.2" y2="426.2"/>
	<line class="st3" x1="159.5" y1="478.4" x2="159.5" y2="411.2"/>
	<line class="st3" x1="172.7" y1="478.4" x2="172.7" y2="443.5"/>
	<line class="st3" x1="186" y1="478.4" x2="186" y2="442.2"/>
	<line class="st3" x1="199.3" y1="478.4" x2="199.3" y2="435.9"/>
	<line class="st3" x1="212.6" y1="478.4" x2="212.6" y2="416.1"/>
	<line class="st3" x1="225.8" y1="478.4" x2="225.8" y2="404.5"/>
	<line class="st3" x1="239.1" y1="478.4" x2="239.1" y2="387.2"/>
	<line class="st3" x1="252.4" y1="478.4" x2="252.4" y2="425.8"/>
	<line class="st3" x1="265.6" y1="478.4" x2="265.6" y2="415.1"/>
	<line class="st3" x1="278.9" y1="478.4" x2="278.9" y2="352.6"/>
	<line class="st3" x1="292.2" y1="478.4" x2="292.2" y2="373.9"/>
	<line class="st3" x1="305.4" y1="478.4" x2="305.4" y2="353.1"/>
	<line class="st3" x1="318.7" y1="478.4" x2="318.7" y2="406.5"/>
	<line class="st3" x1="332" y1="478.4" x2="332" y2="432.7"/>
	<line class="st3" x1="345.2" y1="478.4" x2="345.2" y2="401.5"/>
	<line class="st3" x1="358.5" y1="478.4" x2="358.5" y2="410"/>
	<line class="st3" x1="371.8" y1="478.4" x2="371.8" y2="378.1"/>
	<line class="st3" x1="385" y1="478.4" x2="385" y2="373.1"/>
	<line class="st3" x1="398.3" y1="478.4" x2="398.3" y2="339.8"/>
	<line class="st3" x1="411.6" y1="478.4" x2="411.6" y2="362.2"/>
	<line class="st3" x1="424.9" y1="478.4" x2="424.9" y2="411.9"/>
	<line class="st3" x1="438.1" y1="478.4" x2="438.1" y2="377.9"/>
	<line class="st3" x1="451.4" y1="478.4" x2="451.4" y2="352.3"/>
	<line class="st3" x1="464.7" y1="478.4" x2="464.7" y2="345.7"/>
	<line class="st3" x1="477.9" y1="478.4" x2="477.9" y2="309.7"/>
	<line class="st3" x1="491.2" y1="478.4" x2="491.2" y2="321.5"/>
	<line class="st3" x1="504.5" y1="478.4" x2="504.5" y2="340"/>
	<line class="st3" x1="517.7" y1="478.4" x2="517.7" y2="327.5"/>
	<line class="st3" x1="531" y1="478.4" x2="531" y2="344.7"/>
	<polyline class="st5" points="66.6,478.4 66.6,471.2 79.9,471.2 79.9,441.4 93.1,441.4 93.1,390.4 106.4,390.4 106.4,403.6 
		119.7,403.6 119.7,429 132.9,429 132.9,426.2 146.2,426.2 146.2,411.2 159.5,411.2 159.5,443.5 172.7,443.5 172.7,442.2 186,442.2 
		186,435.9 199.3,435.9 199.3,416.1 212.6,416.1 212.6,404.5 225.8,404.5 225.8,387.2 239.1,387.2 239.1,425.8 252.4,425.8 
		252.4,415.1 265.6,415.1 265.6,352.6 278.9,352.6 278.9,373.9 292.2,373.9 292.2,353.1 305.4,353.1 305.4,406.5 318.7,406.5 
		318.7,432.7 332,432.7 332,401.5 345.2,401.5 345.2,410 358.5,410 358.5,378.1 371.8,378.1 371.8,373.1 385,373.1 385,339.8 
		398.3,339.8 398.3,362.2 411.6,362.2 411.6,411.9 424.9,411.9 424.9,377.9 438.1,377.9 438.1,352.3 451.4,352.3 451.4,345.7 
		464.7,345.7 464.7,309.7 477.9,309.7 477.9,321.5 491.2,321.5 491.2,340 504.5,340 504.5,327.5 517.7,327.5 517.7,344.7 531,344.7 
		531,478.4 	"/>
	<line class="st3" x1="79.9" y1="726.4" x2="79.9" y2="716.1"/>
	<line class="st3" x1="93.1" y1="726.4" x2="93.1" y2="689"/>
	<line class="st3" x1="106.4" y1="726.4" x2="106.4" y2="640.9"/>
	<line class="st3" x1="119.7" y1="726.4" x2="119.7" y2="662.2"/>
	<line class="st3" x1="132.9" y1="726.4" x2="132.9" y2="663.9"/>
	<line class="st3" x1="146.2" y1="726.4" x2="146.2" y2="653.8"/>
	<line class="st3" x1="159.5" y1="726.4" x2="159.5" y2="669"/>
	<line class="st3" x1="172.7" y1="726.4" x2="172.7" y2="694.3"/>
	<line class="st3" x1="186" y1="726.4" x2="186" y2="690.5"/>
	<line class="st3" x1="199.3" y1="726.4" x2="199.3" y2="674"/>
	<line class="st3" x1="212.6" y1="726.4" x2="212.6" y2="629.5"/>
	<line class="st3" x1="225.8" y1="726.4" x2="225.8" y2="637.2"/>
	<line class="st3" x1="239.1" y1="726.4" x2="239.1" y2="641.4"/>
	<line class="st3" x1="252.4" y1="726.4" x2="252.4" y2="650"/>
	<line class="st3" x1="265.6" y1="726.4" x2="265.6" y2="611.5"/>
	<line class="st3" x1="278.9" y1="726.4" x2="278.9" y2="673.2"/>
	<line class="st3" x1="292.2" y1="726.4" x2="292.2" y2="630.2"/>
	<line class="st3" x1="305.4" y1="726.4" x2="305.4" y2="650.5"/>
	<line class="st3" x1="318.7" y1="726.4" x2="318.7" y2="599.9"/>
	<line class="st3" x1="332" y1="726.4" x2="332" y2="622.7"/>
	<line class="st3" x1="345.2" y1="726.4" x2="345.2" y2="648"/>
	<line class="st3" x1="358.5" y1="726.4" x2="358.5" y2="635.8"/>
	<line class="st3" x1="371.8" y1="726.4" x2="371.8" y2="650.3"/>
	<line class="st3" x1="385" y1="726.4" x2="385" y2="662.5"/>
	<line class="st3" x1="398.3" y1="726.4" x2="398.3" y2="610.8"/>
	<line class="st3" x1="411.6" y1="726.4" x2="411.6" y2="644.1"/>
	<line class="st3" x1="424.9" y1="726.4" x2="424.9" y2="621.6"/>
	<line class="st3" x1="438.1" y1="726.4" x2="438.1" y2="638.7"/>
	<line class="st3" x1="451.4" y1="726.4" x2="451.4" y2="611.3"/>
	<line class="st3" x1="464.7" y1="726.4" x2="464.7" y2="628.5"/>
	<line class="st3" x1="477.9" y1="726.4" x2="477.9" y2="629.1"/>
	<line class="st3" x1="491.2" y1="726.4" x2="491.2" y2="596.9"/>
	<line class="st3" x1="504.5" y1="726.4" x2="504.5" y2="597.5"/>
	<line class="st3" x1="517.7" y1="726.4" x2="517.7" y2="555.1"/>
	<line class="st3" x1="531" y1="726.4" x2="531" y2="547.2"/>
	<polyline class="st5" points="66.6,726.4 66.6,716.1 79.9,716.1 79.9,689 93.1,689 93.1,640.9 106.4,640.9 106.4,662.2 
		119.7,662.2 119.7,663.9 132.9,663.9 132.9,653.8 146.2,653.8 146.2,669 159.5,669 159.5,694.3 172.7,694.3 172.7,690.5 186,690.5 
		186,674 199.3,674 199.3,629.5 212.6,629.5 212.6,637.2 225.8,637.2 225.8,641.4 239.1,641.4 239.1,650 252.4,650 252.4,611.5 
		265.6,611.5 265.6,673.2 278.9,673.2 278.9,630.2 292.2,630.2 292.2,650.5 305.4,650.5 305.4,599.9 318.7,599.9 318.7,622.7 
		332,622.7 332,648 345.2,648 345.2,635.8 358.5,635.8 358.5,650.3 371.8,650.3 371.8,662.5 385,662.5 385,610.8 398.3,610.8 
		398.3,644.1 411.6,644.1 411.6,621.6 424.9,621.6 424.9,638.7 438.1,638.7 438.1,611.3 451.4,611.3 451.4,628.5 464.7,628.5 
		464.7,629.1 477.9,629.1 477.9,596.9 491.2,596.9 491.2,597.5 504.5,597.5 504.5,555.1 517.7,555.1 517.7,547.2 531,547.2 
		531,726.4 	"/>
</g>
</svg>
