<?xml version="1.0" encoding="utf-8" ?>
<svg baseProfile="full" height="1047" version="1.1" width="1400" xmlns="http://www.w3.org/2000/svg" xmlns:ev="http://www.w3.org/2001/xml-events" xmlns:xlink="http://www.w3.org/1999/xlink"><defs /><g id="data"><polyline fill="#FFFFFF" points="950.0,214.589215686 900.0,171.455882353 910.769230769,167.474343891 960.769230769,210.607677225" stroke="#000000" stroke-width="1" /><polyline fill="#FFFFFF" points="900.0,171.455882353 900.0,264.7 950.0,307.833333333 950.0,214.589215686" stroke="#000000" stroke-width="1" /><polyline fill="#FFFFFF" points="950.0,214.589215686 960.769230769,210.607677225 960.769230769,303.851794872 950.0,307.833333333" stroke="#000000" stroke-width="1" /><polyline fill="#FFFFFF" points="939.0625,223.96120098 889.0625,180.827867647 899.831730769,176.846329186 949.831730769,219.979662519" stroke="#000000" stroke-width="1" /><polyline fill="#FFFFFF" points="889.0625,180.827867647 889.0625,268.74375 939.0625,311.877083333 939.0625,223.96120098" stroke="#000000" stroke-width="1" /><polyline fill="#FFFFFF" points="939.0625,223.96120098 949.831730769,219.979662519 949.831730769,307.895544872 939.0625,311.877083333" stroke="#000000" stroke-width="1" /><polyline fill="#FFFFFF" points="928.125,249.317892157 878.125,206.184558824 888.894230769,202.203020362 938.894230769,245.336353695" stroke="#000000" stroke-width="1" /><polyline fill="#FFFFFF" points="878.125,206.184558824 878.125,272.7875 928.125,315.920833333 928.125,249.317892157" stroke="#000000" stroke-width="1" /><polyline fill="#FFFFFF" points="928.125,249.317892157 938.894230769,245.336353695 938.894230769,311.939294872 928.125,315.920833333" stroke="#000000" stroke-width="1" /><polyline fill="#FFFFFF" points="917.1875,218.728112745 867.1875,175.594779412 877.956730769,171.61324095 927.956730769,214.746574284" stroke="#000000" stroke-width="1" /><polyline fill="#FFFFFF" points="867.1875,175.594779412 867.1875,276.83125 917.1875,319.964583333 917.1875,218.728112745" stroke="#000000" stroke-width="1" /><polyline fill="#FFFFFF" points="917.1875,218.728112745 927.956730769,214.746574284 927.956730769,315.983044872 917.1875,319.964583333" stroke="#000000" stroke-width="1" /><polyline fill="#FFFFFF" points="906.25,193.466568627 856.25,150.333235294 867.019230769,146.351696833 917.019230769,189.485030166" stroke="#000000" stroke-width="1" /><polyline fill="#FFFFFF" points="856.25,150.333235294 856.25,280.875 906.25,324.008333333 906.25,193.466568627" stroke="#000000" stroke-width="1" /><polyline fill="#FFFFFF" points="906.25,193.466568627 917.019230769,189.485030166 917.019230769,320.026794872 906.25,324.008333333" stroke="#000000" stroke-width="1" /><polyline fill="#FFFFFF" points="895.3125,237.472083333 845.3125,194.33875 856.081730769,190.357211538 906.081730769,233.490544872" stroke="#000000" stroke-width="1" /><polyline fill="#FFFFFF" points="845.3125,194.33875 845.3125,284.91875 895.3125,328.052083333 895.3125,237.472083333" stroke="#000000" stroke-width="1" /><polyline fill="#FFFFFF" points="895.3125,237.472083333 906.081730769,233.490544872 906.081730769,324.070544872 895.3125,328.052083333" stroke="#000000" stroke-width="1" /><polyline fill="#FFFFFF" points="884.375,268.157009804 834.375,225.023676471 845.144230769,221.042138009 895.144230769,264.175471342" stroke="#000000" stroke-width="1" /><polyline fill="#FFFFFF" points="834.375,225.023676471 834.375,288.9625 884.375,332.095833333 884.375,268.157009804" stroke="#000000" stroke-width="1" /><polyline fill="#FFFFFF" points="884.375,268.157009804 895.144230769,264.175471342 895.144230769,328.114294872 884.375,332.095833333" stroke="#000000" stroke-width="1" /><polyline fill="#FFFFFF" points="873.4375,277.528995098 823.4375,234.395661765 834.206730769,230.414123303 884.206730769,273.547456637" stroke="#000000" stroke-width="1" /><polyline fill="#FFFFFF" points="823.4375,234.395661765 823.4375,293.00625 873.4375,336.139583333 873.4375,277.528995098" stroke="#000000" stroke-width="1" /><polyline fill="#FFFFFF" points="873.4375,277.528995098 884.206730769,273.547456637 884.206730769,332.158044872 873.4375,336.139583333" stroke="#000000" stroke-width="1" /><polyline fill="#FFFFFF" points="862.5,294.893333333 812.5,251.76 823.269230769,247.778461538 873.269230769,290.911794872" stroke="#000000" stroke-width="1" /><polyline fill="#FFFFFF" points="812.5,251.76 812.5,297.05 862.5,340.183333333 862.5,294.893333333" stroke="#000000" stroke-width="1" /><polyline fill="#FFFFFF" points="862.5,294.893333333 873.269230769,290.911794872 873.269230769,336.201794872 862.5,340.183333333" stroke="#000000" stroke-width="1" /><polyline fill="#FFFFFF" points="851.5625,264.303553922 801.5625,221.170220588 812.331730769,217.188682127 862.331730769,260.32201546" stroke="#000000" stroke-width="1" /><polyline fill="#FFFFFF" points="801.5625,221.170220588 801.5625,301.09375 851.5625,344.227083333 851.5625,264.303553922" stroke="#000000" stroke-width="1" /><polyline fill="#FFFFFF" points="851.5625,264.303553922 862.331730769,260.32201546 862.331730769,340.245544872 851.5625,344.227083333" stroke="#000000" stroke-width="1" /><polyline fill="#FFFFFF" points="840.625,263.019068627 790.625,219.885735294 801.394230769,215.904196833 851.394230769,259.037530166" stroke="#000000" stroke-width="1" /><polyline fill="#FFFFFF" points="790.625,219.885735294 790.625,305.1375 840.625,348.270833333 840.625,263.019068627" stroke="#000000" stroke-width="1" /><polyline fill="#FFFFFF" points="840.625,263.019068627 851.394230769,259.037530166 851.394230769,344.289294872 840.625,348.270833333" stroke="#000000" stroke-width="1" /><polyline fill="#FFFFFF" points="829.6875,275.055171569 779.6875,231.921838235 790.456730769,227.940299774 840.456730769,271.073633107" stroke="#000000" stroke-width="1" /><polyline fill="#FFFFFF" points="779.6875,231.921838235 779.6875,309.18125 829.6875,352.314583333 829.6875,275.055171569" stroke="#000000" stroke-width="1" /><polyline fill="#FFFFFF" points="829.6875,275.055171569 840.456730769,271.073633107 840.456730769,348.333044872 829.6875,352.314583333" stroke="#000000" stroke-width="1" /><polyline fill="#FFFFFF" points="818.75,297.747745098 768.75,254.614411765 779.519230769,250.632873303 829.519230769,293.766206637" stroke="#000000" stroke-width="1" /><polyline fill="#FFFFFF" points="768.75,254.614411765 768.75,313.225 818.75,356.358333333 818.75,297.747745098" stroke="#000000" stroke-width="1" /><polyline fill="#FFFFFF" points="818.75,297.747745098 829.519230769,293.766206637 829.519230769,352.376794872 818.75,356.358333333" stroke="#000000" stroke-width="1" /><polyline fill="#FFFFFF" points="807.8125,336.42502451 757.8125,293.291691176 768.581730769,289.310152715 818.581730769,332.443486048" stroke="#000000" stroke-width="1" /><polyline fill="#FFFFFF" points="757.8125,293.291691176 757.8125,317.26875 807.8125,360.402083333 807.8125,336.42502451" stroke="#000000" stroke-width="1" /><polyline fill="#FFFFFF" points="807.8125,336.42502451 818.581730769,332.443486048 818.581730769,356.420544872 807.8125,360.402083333" stroke="#000000" stroke-width="1" /><polyline fill="#FFFFFF" points="796.875,332.476421569 746.875,289.343088235 757.644230769,285.361549774 807.644230769,328.494883107" stroke="#000000" stroke-width="1" /><polyline fill="#FFFFFF" points="746.875,289.343088235 746.875,321.3125 796.875,364.445833333 796.875,332.476421569" stroke="#000000" stroke-width="1" /><polyline fill="#FFFFFF" points="796.875,332.476421569 807.644230769,328.494883107 807.644230769,360.464294872 796.875,364.445833333" stroke="#000000" stroke-width="1" /><polyline fill="#FFFFFF" points="785.9375,357.833112745 735.9375,314.699779412 746.706730769,310.71824095 796.706730769,353.851574284" stroke="#000000" stroke-width="1" /><polyline fill="#FFFFFF" points="735.9375,314.699779412 735.9375,325.35625 785.9375,368.489583333 785.9375,357.833112745" stroke="#000000" stroke-width="1" /><polyline fill="#FFFFFF" points="785.9375,357.833112745 796.706730769,353.851574284 796.706730769,364.508044872 785.9375,368.489583333" stroke="#000000" stroke-width="1" /><polyline fill="#FFFFFF" points="775.0,353.884509804 725.0,310.751176471 735.769230769,306.769638009 785.769230769,349.902971342" stroke="#000000" stroke-width="1" /><polyline fill="#FFFFFF" points="725.0,310.751176471 725.0,329.4 775.0,372.533333333 775.0,353.884509804" stroke="#000000" stroke-width="1" /><polyline fill="#FFFFFF" points="775.0,353.884509804 785.769230769,349.902971342 785.769230769,368.551794872 775.0,372.533333333" stroke="#000000" stroke-width="1" /><polyline fill="#FFFFFF" points="764.0625,323.294730392 714.0625,280.161397059 724.831730769,276.179858597 774.831730769,319.313191931" stroke="#000000" stroke-width="1" /><polyline fill="#FFFFFF" points="714.0625,280.161397059 714.0625,333.44375 764.0625,376.577083333 764.0625,323.294730392" stroke="#000000" stroke-width="1" /><polyline fill="#FFFFFF" points="764.0625,323.294730392 774.831730769,319.313191931 774.831730769,372.595544872 764.0625,376.577083333" stroke="#000000" stroke-width="1" /><polyline fill="#FFFFFF" points="753.125,330.002598039 703.125,286.869264706 713.894230769,282.887726244 763.894230769,326.021059578" stroke="#000000" stroke-width="1" /><polyline fill="#FFFFFF" points="703.125,286.869264706 703.125,337.4875 753.125,380.620833333 753.125,330.002598039" stroke="#000000" stroke-width="1" /><polyline fill="#FFFFFF" points="753.125,330.002598039 763.894230769,326.021059578 763.894230769,376.639294872 753.125,380.620833333" stroke="#000000" stroke-width="1" /><polyline fill="#FFFFFF" points="742.1875,296.74870098 692.1875,253.615367647 702.956730769,249.633829186 752.956730769,292.767162519" stroke="#000000" stroke-width="1" /><polyline fill="#FFFFFF" points="692.1875,253.615367647 692.1875,341.53125 742.1875,384.664583333 742.1875,296.74870098" stroke="#000000" stroke-width="1" /><polyline fill="#FFFFFF" points="742.1875,296.74870098 752.956730769,292.767162519 752.956730769,380.683044872 742.1875,384.664583333" stroke="#000000" stroke-width="1" /><polyline fill="#FFFFFF" points="731.25,388.708333333 681.25,345.575 692.019230769,341.593461538 742.019230769,384.726794872" stroke="#000000" stroke-width="1" /><polyline fill="#FFFFFF" points="681.25,345.575 681.25,345.575 731.25,388.708333333 731.25,388.708333333" stroke="#000000" stroke-width="1" /><polyline fill="#FFFFFF" points="731.25,388.708333333 742.019230769,384.726794872 742.019230769,384.726794872 731.25,388.708333333" stroke="#000000" stroke-width="1" /><polyline fill="#FFFFFF" points="720.3125,392.752083333 670.3125,349.61875 681.081730769,345.637211538 731.081730769,388.770544872" stroke="#000000" stroke-width="1" /><polyline fill="#FFFFFF" points="670.3125,349.61875 670.3125,349.61875 720.3125,392.752083333 720.3125,392.752083333" stroke="#000000" stroke-width="1" /><polyline fill="#FFFFFF" points="720.3125,392.752083333 731.081730769,388.770544872 731.081730769,388.770544872 720.3125,392.752083333" stroke="#000000" stroke-width="1" /><polyline fill="#FFFFFF" points="709.375,396.795833333 659.375,353.6625 670.144230769,349.680961538 720.144230769,392.814294872" stroke="#000000" stroke-width="1" /><polyline fill="#FFFFFF" points="659.375,353.6625 659.375,353.6625 709.375,396.795833333 709.375,396.795833333" stroke="#000000" stroke-width="1" /><polyline fill="#FFFFFF" points="709.375,396.795833333 720.144230769,392.814294872 720.144230769,392.814294872 709.375,396.795833333" stroke="#000000" stroke-width="1" /><polyline fill="#FFFFFF" points="698.4375,400.839583333 648.4375,357.70625 659.206730769,353.724711538 709.206730769,396.858044872" stroke="#000000" stroke-width="1" /><polyline fill="#FFFFFF" points="648.4375,357.70625 648.4375,357.70625 698.4375,400.839583333 698.4375,400.839583333" stroke="#000000" stroke-width="1" /><polyline fill="#FFFFFF" points="698.4375,400.839583333 709.206730769,396.858044872 709.206730769,396.858044872 698.4375,400.839583333" stroke="#000000" stroke-width="1" /><polyline fill="#FFFFFF" points="687.5,404.883333333 637.5,361.75 648.269230769,357.768461538 698.269230769,400.901794872" stroke="#000000" stroke-width="1" /><polyline fill="#FFFFFF" points="637.5,361.75 637.5,361.75 687.5,404.883333333 687.5,404.883333333" stroke="#000000" stroke-width="1" /><polyline fill="#FFFFFF" points="687.5,404.883333333 698.269230769,400.901794872 698.269230769,400.901794872 687.5,404.883333333" stroke="#000000" stroke-width="1" /><polyline fill="#FFFFFF" points="676.5625,390.278259804 626.5625,347.144926471 637.331730769,343.163388009 687.331730769,386.296721342" stroke="#000000" stroke-width="1" /><polyline fill="#FFFFFF" points="626.5625,347.144926471 626.5625,365.79375 676.5625,408.927083333 676.5625,390.278259804" stroke="#000000" stroke-width="1" /><polyline fill="#FFFFFF" points="676.5625,390.278259804 687.331730769,386.296721342 687.331730769,404.945544872 676.5625,408.927083333" stroke="#000000" stroke-width="1" /><polyline fill="#FFFFFF" points="665.625,399.650245098 615.625,356.516911765 626.394230769,352.535373303 676.394230769,395.668706637" stroke="#000000" stroke-width="1" /><polyline fill="#FFFFFF" points="615.625,356.516911765 615.625,369.8375 665.625,412.970833333 665.625,399.650245098" stroke="#000000" stroke-width="1" /><polyline fill="#FFFFFF" points="665.625,399.650245098 676.394230769,395.668706637 676.394230769,408.989294872 665.625,412.970833333" stroke="#000000" stroke-width="1" /><polyline fill="#FFFFFF" points="654.6875,401.029877451 604.6875,357.896544118 615.456730769,353.915005656 665.456730769,397.048338989" stroke="#000000" stroke-width="1" /><polyline fill="#FFFFFF" points="604.6875,357.896544118 604.6875,373.88125 654.6875,417.014583333 654.6875,401.029877451" stroke="#000000" stroke-width="1" /><polyline fill="#FFFFFF" points="654.6875,401.029877451 665.456730769,397.048338989 665.456730769,413.033044872 654.6875,417.014583333" stroke="#000000" stroke-width="1" /><polyline fill="#FFFFFF" points="643.75,394.417156863 593.75,351.283823529 604.519230769,347.302285068 654.519230769,390.435618401" stroke="#000000" stroke-width="1" /><polyline fill="#FFFFFF" points="593.75,351.283823529 593.75,377.925 643.75,421.058333333 643.75,394.417156863" stroke="#000000" stroke-width="1" /><polyline fill="#FFFFFF" points="643.75,394.417156863 654.519230769,390.435618401 654.519230769,417.076794872 643.75,421.058333333" stroke="#000000" stroke-width="1" /><polyline fill="#FFFFFF" points="632.8125,403.789142157 582.8125,360.655808824 593.581730769,356.674270362 643.581730769,399.807603695" stroke="#000000" stroke-width="1" /><polyline fill="#FFFFFF" points="582.8125,360.655808824 582.8125,381.96875 632.8125,425.102083333 632.8125,403.789142157" stroke="#000000" stroke-width="1" /><polyline fill="#FFFFFF" points="632.8125,403.789142157 643.581730769,399.807603695 643.581730769,421.120544872 632.8125,425.102083333" stroke="#000000" stroke-width="1" /><polyline fill="#FFFFFF" points="621.875,407.832892157 571.875,364.699558824 582.644230769,360.718020362 632.644230769,403.851353695" stroke="#000000" stroke-width="1" /><polyline fill="#FFFFFF" points="571.875,364.699558824 571.875,386.0125 621.875,429.145833333 621.875,407.832892157" stroke="#000000" stroke-width="1" /><polyline fill="#FFFFFF" points="621.875,407.832892157 632.644230769,403.851353695 632.644230769,425.164294872 621.875,429.145833333" stroke="#000000" stroke-width="1" /><polyline fill="#FFFFFF" points="610.9375,398.556053922 560.9375,355.422720588 571.706730769,351.441182127 621.706730769,394.57451546" stroke="#000000" stroke-width="1" /><polyline fill="#FFFFFF" points="560.9375,355.422720588 560.9375,390.05625 610.9375,433.189583333 610.9375,398.556053922" stroke="#000000" stroke-width="1" /><polyline fill="#FFFFFF" points="610.9375,398.556053922 621.706730769,394.57451546 621.706730769,429.208044872 610.9375,433.189583333" stroke="#000000" stroke-width="1" /><polyline fill="#FFFFFF" points="600.0,378.622745098 550.0,335.489411765 560.769230769,331.507873303 610.769230769,374.641206637" stroke="#000000" stroke-width="1" /><polyline fill="#FFFFFF" points="550.0,335.489411765 550.0,394.1 600.0,437.233333333 600.0,378.622745098" stroke="#000000" stroke-width="1" /><polyline fill="#FFFFFF" points="600.0,378.622745098 610.769230769,374.641206637 610.769230769,433.251794872 600.0,437.233333333" stroke="#000000" stroke-width="1" /><polyline fill="#FFFFFF" points="589.0625,417.30002451 539.0625,374.166691176 549.831730769,370.185152715 599.831730769,413.318486048" stroke="#000000" stroke-width="1" /><polyline fill="#FFFFFF" points="539.0625,374.166691176 539.0625,398.14375 589.0625,441.277083333 589.0625,417.30002451" stroke="#000000" stroke-width="1" /><polyline fill="#FFFFFF" points="589.0625,417.30002451 599.831730769,413.318486048 599.831730769,437.295544872 589.0625,441.277083333" stroke="#000000" stroke-width="1" /><polyline fill="#FFFFFF" points="578.125,434.664362745 528.125,391.531029412 538.894230769,387.54949095 588.894230769,430.682824284" stroke="#000000" stroke-width="1" /><polyline fill="#FFFFFF" points="528.125,391.531029412 528.125,402.1875 578.125,445.320833333 578.125,434.664362745" stroke="#000000" stroke-width="1" /><polyline fill="#FFFFFF" points="578.125,434.664362745 588.894230769,430.682824284 588.894230769,441.339294872 578.125,445.320833333" stroke="#000000" stroke-width="1" /><polyline fill="#FFFFFF" points="567.1875,430.715759804 517.1875,387.582426471 527.956730769,383.600888009 577.956730769,426.734221342" stroke="#000000" stroke-width="1" /><polyline fill="#FFFFFF" points="517.1875,387.582426471 517.1875,406.23125 567.1875,449.364583333 567.1875,430.715759804" stroke="#000000" stroke-width="1" /><polyline fill="#FFFFFF" points="567.1875,430.715759804 577.956730769,426.734221342 577.956730769,445.383044872 567.1875,449.364583333" stroke="#000000" stroke-width="1" /><polyline fill="#FFFFFF" points="556.25,442.751862745 506.25,399.618529412 517.019230769,395.63699095 567.019230769,438.770324284" stroke="#000000" stroke-width="1" /><polyline fill="#FFFFFF" points="506.25,399.618529412 506.25,410.275 556.25,453.408333333 556.25,442.751862745" stroke="#000000" stroke-width="1" /><polyline fill="#FFFFFF" points="556.25,442.751862745 567.019230769,438.770324284 567.019230769,449.426794872 556.25,453.408333333" stroke="#000000" stroke-width="1" /><polyline fill="#FFFFFF" points="545.3125,457.452083333 495.3125,414.31875 506.081730769,410.337211538 556.081730769,453.470544872" stroke="#000000" stroke-width="1" /><polyline fill="#FFFFFF" points="495.3125,414.31875 495.3125,414.31875 545.3125,457.452083333 545.3125,457.452083333" stroke="#000000" stroke-width="1" /><polyline fill="#FFFFFF" points="545.3125,457.452083333 556.081730769,453.470544872 556.081730769,453.470544872 545.3125,457.452083333" stroke="#000000" stroke-width="1" /><polyline fill="#FFFFFF" points="534.375,461.495833333 484.375,418.3625 495.144230769,414.380961538 545.144230769,457.514294872" stroke="#000000" stroke-width="1" /><polyline fill="#FFFFFF" points="484.375,418.3625 484.375,418.3625 534.375,461.495833333 534.375,461.495833333" stroke="#000000" stroke-width="1" /><polyline fill="#FFFFFF" points="534.375,461.495833333 545.144230769,457.514294872 545.144230769,457.514294872 534.375,461.495833333" stroke="#000000" stroke-width="1" /><polyline fill="#FFFFFF" points="523.4375,465.539583333 473.4375,422.40625 484.206730769,418.424711538 534.206730769,461.558044872" stroke="#000000" stroke-width="1" /><polyline fill="#FFFFFF" points="473.4375,422.40625 473.4375,422.40625 523.4375,465.539583333 523.4375,465.539583333" stroke="#000000" stroke-width="1" /><polyline fill="#FFFFFF" points="523.4375,465.539583333 534.206730769,461.558044872 534.206730769,461.558044872 523.4375,465.539583333" stroke="#000000" stroke-width="1" /><polyline fill="#FFFFFF" points="512.5,450.934509804 462.5,407.801176471 473.269230769,403.819638009 523.269230769,446.952971342" stroke="#000000" stroke-width="1" /><polyline fill="#FFFFFF" points="462.5,407.801176471 462.5,426.45 512.5,469.583333333 512.5,450.934509804" stroke="#000000" stroke-width="1" /><polyline fill="#FFFFFF" points="512.5,450.934509804 523.269230769,446.952971342 523.269230769,465.601794872 512.5,469.583333333" stroke="#000000" stroke-width="1" /><polyline fill="#FFFFFF" points="501.5625,462.970612745 451.5625,419.837279412 462.331730769,415.85574095 512.331730769,458.989074284" stroke="#000000" stroke-width="1" /><polyline fill="#FFFFFF" points="451.5625,419.837279412 451.5625,430.49375 501.5625,473.627083333 501.5625,462.970612745" stroke="#000000" stroke-width="1" /><polyline fill="#FFFFFF" points="501.5625,462.970612745 512.331730769,458.989074284 512.331730769,469.645544872 501.5625,473.627083333" stroke="#000000" stroke-width="1" /><polyline fill="#FFFFFF" points="490.625,448.365539216 440.625,405.232205882 451.394230769,401.250667421 501.394230769,444.384000754" stroke="#000000" stroke-width="1" /><polyline fill="#FFFFFF" points="440.625,405.232205882 440.625,434.5375 490.625,477.670833333 490.625,448.365539216" stroke="#000000" stroke-width="1" /><polyline fill="#FFFFFF" points="490.625,448.365539216 501.394230769,444.384000754 501.394230769,473.689294872 490.625,477.670833333" stroke="#000000" stroke-width="1" /><polyline fill="#FFFFFF" points="479.6875,449.745171569 429.6875,406.611838235 440.456730769,402.630299774 490.456730769,445.763633107" stroke="#000000" stroke-width="1" /><polyline fill="#FFFFFF" points="429.6875,406.611838235 429.6875,438.58125 479.6875,481.714583333 479.6875,449.745171569" stroke="#000000" stroke-width="1" /><polyline fill="#FFFFFF" points="479.6875,449.745171569 490.456730769,445.763633107 490.456730769,477.733044872 479.6875,481.714583333" stroke="#000000" stroke-width="1" /><polyline fill="#FFFFFF" points="468.75,467.109509804 418.75,423.976176471 429.519230769,419.994638009 479.519230769,463.127971342" stroke="#000000" stroke-width="1" /><polyline fill="#FFFFFF" points="418.75,423.976176471 418.75,442.625 468.75,485.758333333 468.75,467.109509804" stroke="#000000" stroke-width="1" /><polyline fill="#FFFFFF" points="468.75,467.109509804 479.519230769,463.127971342 479.519230769,481.776794872 468.75,485.758333333" stroke="#000000" stroke-width="1" /><polyline fill="#FFFFFF" points="457.8125,473.817377451 407.8125,430.684044118 418.581730769,426.702505656 468.581730769,469.835838989" stroke="#000000" stroke-width="1" /><polyline fill="#FFFFFF" points="407.8125,430.684044118 407.8125,446.66875 457.8125,489.802083333 457.8125,473.817377451" stroke="#000000" stroke-width="1" /><polyline fill="#FFFFFF" points="457.8125,473.817377451 468.581730769,469.835838989 468.581730769,485.820544872 457.8125,489.802083333" stroke="#000000" stroke-width="1" /><polyline fill="#FFFFFF" points="446.875,483.189362745 396.875,440.056029412 407.644230769,436.07449095 457.644230769,479.207824284" stroke="#000000" stroke-width="1" /><polyline fill="#FFFFFF" points="396.875,440.056029412 396.875,450.7125 446.875,493.845833333 446.875,483.189362745" stroke="#000000" stroke-width="1" /><polyline fill="#FFFFFF" points="446.875,483.189362745 457.644230769,479.207824284 457.644230769,489.864294872 446.875,493.845833333" stroke="#000000" stroke-width="1" /><polyline fill="#FFFFFF" points="435.9375,487.233112745 385.9375,444.099779412 396.706730769,440.11824095 446.706730769,483.251574284" stroke="#000000" stroke-width="1" /><polyline fill="#FFFFFF" points="385.9375,444.099779412 385.9375,454.75625 435.9375,497.889583333 435.9375,487.233112745" stroke="#000000" stroke-width="1" /><polyline fill="#FFFFFF" points="435.9375,487.233112745 446.706730769,483.251574284 446.706730769,493.908044872 435.9375,497.889583333" stroke="#000000" stroke-width="1" /><polyline fill="#FFFFFF" points="425.0,491.276862745 375.0,448.143529412 385.769230769,444.16199095 435.769230769,487.295324284" stroke="#000000" stroke-width="1" /><polyline fill="#FFFFFF" points="375.0,448.143529412 375.0,458.8 425.0,501.933333333 425.0,491.276862745" stroke="#000000" stroke-width="1" /><polyline fill="#FFFFFF" points="425.0,491.276862745 435.769230769,487.295324284 435.769230769,497.951794872 425.0,501.933333333" stroke="#000000" stroke-width="1" /><polyline fill="#FFFFFF" points="414.0625,497.984730392 364.0625,454.851397059 374.831730769,450.869858597 424.831730769,494.003191931" stroke="#000000" stroke-width="1" /><polyline fill="#FFFFFF" points="364.0625,454.851397059 364.0625,462.84375 414.0625,505.977083333 414.0625,497.984730392" stroke="#000000" stroke-width="1" /><polyline fill="#FFFFFF" points="414.0625,497.984730392 424.831730769,494.003191931 424.831730769,501.995544872 414.0625,505.977083333" stroke="#000000" stroke-width="1" /><polyline fill="#FFFFFF" points="403.125,502.028480392 353.125,458.895147059 363.894230769,454.913608597 413.894230769,498.046941931" stroke="#000000" stroke-width="1" /><polyline fill="#FFFFFF" points="353.125,458.895147059 353.125,466.8875 403.125,510.020833333 403.125,502.028480392" stroke="#000000" stroke-width="1" /><polyline fill="#FFFFFF" points="403.125,502.028480392 413.894230769,498.046941931 413.894230769,506.039294872 403.125,510.020833333" stroke="#000000" stroke-width="1" /><polyline fill="#FFFFFF" points="392.1875,511.400465686 342.1875,468.267132353 352.956730769,464.285593891 402.956730769,507.418927225" stroke="#000000" stroke-width="1" /><polyline fill="#FFFFFF" points="342.1875,468.267132353 342.1875,470.93125 392.1875,514.064583333 392.1875,511.400465686" stroke="#000000" stroke-width="1" /><polyline fill="#FFFFFF" points="392.1875,511.400465686 402.956730769,507.418927225 402.956730769,510.083044872 392.1875,514.064583333" stroke="#000000" stroke-width="1" /><polyline fill="#FFFFFF" points="381.25,515.444215686 331.25,472.310882353 342.019230769,468.329343891 392.019230769,511.462677225" stroke="#000000" stroke-width="1" /><polyline fill="#FFFFFF" points="331.25,472.310882353 331.25,474.975 381.25,518.108333333 381.25,515.444215686" stroke="#000000" stroke-width="1" /><polyline fill="#FFFFFF" points="381.25,515.444215686 392.019230769,511.462677225 392.019230769,514.126794872 381.25,518.108333333" stroke="#000000" stroke-width="1" /><polyline fill="#FFFFFF" points="370.3125,508.831495098 320.3125,465.698161765 331.081730769,461.716623303 381.081730769,504.849956637" stroke="#000000" stroke-width="1" /><polyline fill="#FFFFFF" points="320.3125,465.698161765 320.3125,479.01875 370.3125,522.152083333 370.3125,508.831495098" stroke="#000000" stroke-width="1" /><polyline fill="#FFFFFF" points="370.3125,508.831495098 381.081730769,504.849956637 381.081730769,518.170544872 370.3125,522.152083333" stroke="#000000" stroke-width="1" /><polyline fill="#FFFFFF" points="359.375,512.875245098 309.375,469.741911765 320.144230769,465.760373303 370.144230769,508.893706637" stroke="#000000" stroke-width="1" /><polyline fill="#FFFFFF" points="309.375,469.741911765 309.375,483.0625 359.375,526.195833333 359.375,512.875245098" stroke="#000000" stroke-width="1" /><polyline fill="#FFFFFF" points="359.375,512.875245098 370.144230769,508.893706637 370.144230769,522.214294872 359.375,526.195833333" stroke="#000000" stroke-width="1" /><polyline fill="#FFFFFF" points="348.4375,527.575465686 298.4375,484.442132353 309.206730769,480.460593891 359.206730769,523.593927225" stroke="#000000" stroke-width="1" /><polyline fill="#FFFFFF" points="298.4375,484.442132353 298.4375,487.10625 348.4375,530.239583333 348.4375,527.575465686" stroke="#000000" stroke-width="1" /><polyline fill="#FFFFFF" points="348.4375,527.575465686 359.206730769,523.593927225 359.206730769,526.258044872 348.4375,530.239583333" stroke="#000000" stroke-width="1" /><polyline fill="#FFFFFF" points="337.5,526.290980392 287.5,483.157647059 298.269230769,479.176108597 348.269230769,522.309441931" stroke="#000000" stroke-width="1" /><polyline fill="#FFFFFF" points="287.5,483.157647059 287.5,491.15 337.5,534.283333333 337.5,526.290980392" stroke="#000000" stroke-width="1" /><polyline fill="#FFFFFF" points="337.5,526.290980392 348.269230769,522.309441931 348.269230769,530.301794872 337.5,534.283333333" stroke="#000000" stroke-width="1" /><polyline fill="#FFFFFF" points="326.5625,532.998848039 276.5625,489.865514706 287.331730769,485.883976244 337.331730769,529.017309578" stroke="#000000" stroke-width="1" /><polyline fill="#FFFFFF" points="276.5625,489.865514706 276.5625,495.19375 326.5625,538.327083333 326.5625,532.998848039" stroke="#000000" stroke-width="1" /><polyline fill="#FFFFFF" points="326.5625,532.998848039 337.331730769,529.017309578 337.331730769,534.345544872 326.5625,538.327083333" stroke="#000000" stroke-width="1" /><polyline fill="#FFFFFF" points="315.625,534.378480392 265.625,491.245147059 276.394230769,487.263608597 326.394230769,530.396941931" stroke="#000000" stroke-width="1" /><polyline fill="#FFFFFF" points="265.625,491.245147059 265.625,499.2375 315.625,542.370833333 315.625,534.378480392" stroke="#000000" stroke-width="1" /><polyline fill="#FFFFFF" points="315.625,534.378480392 326.394230769,530.396941931 326.394230769,538.389294872 315.625,542.370833333" stroke="#000000" stroke-width="1" /><polyline fill="#FFFFFF" points="304.6875,541.086348039 254.6875,497.953014706 265.456730769,493.971476244 315.456730769,537.104809578" stroke="#000000" stroke-width="1" /><polyline fill="#FFFFFF" points="254.6875,497.953014706 254.6875,503.28125 304.6875,546.414583333 304.6875,541.086348039" stroke="#000000" stroke-width="1" /><polyline fill="#FFFFFF" points="304.6875,541.086348039 315.456730769,537.104809578 315.456730769,542.433044872 304.6875,546.414583333" stroke="#000000" stroke-width="1" /><polyline fill="#FFFFFF" points="293.75,537.137745098 243.75,494.004411765 254.519230769,490.022873303 304.519230769,533.156206637" stroke="#000000" stroke-width="1" /><polyline fill="#FFFFFF" points="243.75,494.004411765 243.75,507.325 293.75,550.458333333 293.75,537.137745098" stroke="#000000" stroke-width="1" /><polyline fill="#FFFFFF" points="293.75,537.137745098 304.519230769,533.156206637 304.519230769,546.476794872 293.75,550.458333333" stroke="#000000" stroke-width="1" /><polyline fill="#FFFFFF" points="282.8125,549.173848039 232.8125,506.040514706 243.581730769,502.058976244 293.581730769,545.192309578" stroke="#000000" stroke-width="1" /><polyline fill="#FFFFFF" points="232.8125,506.040514706 232.8125,511.36875 282.8125,554.502083333 282.8125,549.173848039" stroke="#000000" stroke-width="1" /><polyline fill="#FFFFFF" points="282.8125,549.173848039 293.581730769,545.192309578 293.581730769,550.520544872 282.8125,554.502083333" stroke="#000000" stroke-width="1" /><polyline fill="#FFFFFF" points="271.875,553.217598039 221.875,510.084264706 232.644230769,506.102726244 282.644230769,549.236059578" stroke="#000000" stroke-width="1" /><polyline fill="#FFFFFF" points="221.875,510.084264706 221.875,515.4125 271.875,558.545833333 271.875,553.217598039" stroke="#000000" stroke-width="1" /><polyline fill="#FFFFFF" points="271.875,553.217598039 282.644230769,549.236059578 282.644230769,554.564294872 271.875,558.545833333" stroke="#000000" stroke-width="1" /><polyline fill="#FFFFFF" points="260.9375,551.933112745 210.9375,508.799779412 221.706730769,504.81824095 271.706730769,547.951574284" stroke="#000000" stroke-width="1" /><polyline fill="#FFFFFF" points="210.9375,508.799779412 210.9375,519.45625 260.9375,562.589583333 260.9375,551.933112745" stroke="#000000" stroke-width="1" /><polyline fill="#FFFFFF" points="260.9375,551.933112745 271.706730769,547.951574284 271.706730769,558.608044872 260.9375,562.589583333" stroke="#000000" stroke-width="1" /><polyline fill="#FFFFFF" points="250.0,558.640980392 200.0,515.507647059 210.769230769,511.526108597 260.769230769,554.659441931" stroke="#000000" stroke-width="1" /><polyline fill="#FFFFFF" points="200.0,515.507647059 200.0,523.5 250.0,566.633333333 250.0,558.640980392" stroke="#000000" stroke-width="1" /><polyline fill="#FFFFFF" points="250.0,558.640980392 260.769230769,554.659441931 260.769230769,562.651794872 250.0,566.633333333" stroke="#000000" stroke-width="1" /><polyline fill="#FFFFFF" points="1075.0,303.77372549 1025.0,260.640392157 1035.76923077,256.658853695 1085.76923077,299.792187029" stroke="#000000" stroke-width="1" /><polyline fill="#FFFFFF" points="1025.0,260.640392157 1025.0,372.533333333 1075.0,415.666666667 1075.0,303.77372549" stroke="#000000" stroke-width="1" /><polyline fill="#FFFFFF" points="1075.0,303.77372549 1085.76923077,299.792187029 1085.76923077,411.685128205 1075.0,415.666666667" stroke="#000000" stroke-width="1" /><polyline fill="#FFFFFF" points="1064.0625,323.802181373 1014.0625,280.668848039 1024.83173077,276.687309578 1074.83173077,319.820642911" stroke="#000000" stroke-width="1" /><polyline fill="#FFFFFF" points="1014.0625,280.668848039 1014.0625,376.577083333 1064.0625,419.710416667 1064.0625,323.802181373" stroke="#000000" stroke-width="1" /><polyline fill="#FFFFFF" points="1064.0625,323.802181373 1074.83173077,319.820642911 1074.83173077,415.728878205 1064.0625,419.710416667" stroke="#000000" stroke-width="1" /><polyline fill="#FFFFFF" points="1053.125,349.158872549 1003.125,306.025539216 1013.89423077,302.044000754 1063.89423077,345.177334087" stroke="#000000" stroke-width="1" /><polyline fill="#FFFFFF" points="1003.125,306.025539216 1003.125,380.620833333 1053.125,423.754166667 1053.125,349.158872549" stroke="#000000" stroke-width="1" /><polyline fill="#FFFFFF" points="1053.125,349.158872549 1063.89423077,345.177334087 1063.89423077,419.772628205 1053.125,423.754166667" stroke="#000000" stroke-width="1" /><polyline fill="#FFFFFF" points="1042.1875,361.19497549 992.1875,318.061642157 1002.95673077,314.080103695 1052.95673077,357.213437029" stroke="#000000" stroke-width="1" /><polyline fill="#FFFFFF" points="992.1875,318.061642157 992.1875,384.664583333 1042.1875,427.797916667 1042.1875,361.19497549" stroke="#000000" stroke-width="1" /><polyline fill="#FFFFFF" points="1042.1875,361.19497549 1052.95673077,357.213437029 1052.95673077,423.816378205 1042.1875,427.797916667" stroke="#000000" stroke-width="1" /><polyline fill="#FFFFFF" points="1031.25,402.536372549 981.25,359.403039216 992.019230769,355.421500754 1042.01923077,398.554834087" stroke="#000000" stroke-width="1" /><polyline fill="#FFFFFF" points="981.25,359.403039216 981.25,388.708333333 1031.25,431.841666667 1031.25,402.536372549" stroke="#000000" stroke-width="1" /><polyline fill="#FFFFFF" points="1031.25,402.536372549 1042.01923077,398.554834087 1042.01923077,427.860128205 1031.25,431.841666667" stroke="#000000" stroke-width="1" /><polyline fill="#FFFFFF" points="1020.3125,390.595416667 970.3125,347.462083333 981.081730769,343.480544872 1031.08173077,386.613878205" stroke="#000000" stroke-width="1" /><polyline fill="#FFFFFF" points="970.3125,347.462083333 970.3125,392.752083333 1020.3125,435.885416667 1020.3125,390.595416667" stroke="#000000" stroke-width="1" /><polyline fill="#FFFFFF" points="1020.3125,390.595416667 1031.08173077,386.613878205 1031.08173077,431.903878205 1020.3125,435.885416667" stroke="#000000" stroke-width="1" /><polyline fill="#FFFFFF" points="1009.375,362.669754902 959.375,319.536421569 970.144230769,315.554883107 1020.14423077,358.68821644" stroke="#000000" stroke-width="1" /><polyline fill="#FFFFFF" points="959.375,319.536421569 959.375,396.795833333 1009.375,439.929166667 1009.375,362.669754902" stroke="#000000" stroke-width="1" /><polyline fill="#FFFFFF" points="1009.375,362.669754902 1020.14423077,358.68821644 1020.14423077,435.947628205 1009.375,439.929166667" stroke="#000000" stroke-width="1" /><polyline fill="#FFFFFF" points="998.4375,390.690563725 948.4375,347.557230392 959.206730769,343.575691931 1009.20673077,386.709025264" stroke="#000000" stroke-width="1" /><polyline fill="#FFFFFF" points="948.4375,347.557230392 948.4375,400.839583333 998.4375,443.972916667 998.4375,390.690563725" stroke="#000000" stroke-width="1" /><polyline fill="#FFFFFF" points="998.4375,390.690563725 1009.20673077,386.709025264 1009.20673077,439.991378205 998.4375,443.972916667" stroke="#000000" stroke-width="1" /><polyline fill="#FFFFFF" points="987.5,376.085490196 937.5,332.952156863 948.269230769,328.970618401 998.269230769,372.103951735" stroke="#000000" stroke-width="1" /><polyline fill="#FFFFFF" points="937.5,332.952156863 937.5,404.883333333 987.5,448.016666667 987.5,376.085490196" stroke="#000000" stroke-width="1" /><polyline fill="#FFFFFF" points="987.5,376.085490196 998.269230769,372.103951735 998.269230769,444.035128205 987.5,448.016666667" stroke="#000000" stroke-width="1" /><polyline fill="#FFFFFF" points="976.5625,409.434534314 926.5625,366.30120098 937.331730769,362.319662519 987.331730769,405.452995852" stroke="#000000" stroke-width="1" /><polyline fill="#FFFFFF" points="926.5625,366.30120098 926.5625,408.927083333 976.5625,452.060416667 976.5625,409.434534314" stroke="#000000" stroke-width="1" /><polyline fill="#FFFFFF" points="976.5625,409.434534314 987.331730769,405.452995852 987.331730769,448.078878205 976.5625,452.060416667" stroke="#000000" stroke-width="1" /><polyline fill="#FFFFFF" points="965.625,413.478284314 915.625,370.34495098 926.394230769,366.363412519 976.394230769,409.496745852" stroke="#000000" stroke-width="1" /><polyline fill="#FFFFFF" points="915.625,370.34495098 915.625,412.970833333 965.625,456.104166667 965.625,413.478284314" stroke="#000000" stroke-width="1" /><polyline fill="#FFFFFF" points="965.625,413.478284314 976.394230769,409.496745852 976.394230769,452.122628205 965.625,456.104166667" stroke="#000000" stroke-width="1" /><polyline fill="#FFFFFF" points="954.6875,441.499093137 904.6875,398.365759804 915.456730769,394.384221342 965.456730769,437.517554676" stroke="#000000" stroke-width="1" /><polyline fill="#FFFFFF" points="904.6875,398.365759804 904.6875,417.014583333 954.6875,460.147916667 954.6875,441.499093137" stroke="#000000" stroke-width="1" /><polyline fill="#FFFFFF" points="954.6875,441.499093137 965.456730769,437.517554676 965.456730769,456.166378205 954.6875,460.147916667" stroke="#000000" stroke-width="1" /><polyline fill="#FFFFFF" points="943.75,416.23754902 893.75,373.104215686 904.519230769,369.122677225 954.519230769,412.256010558" stroke="#000000" stroke-width="1" /><polyline fill="#FFFFFF" points="893.75,373.104215686 893.75,421.058333333 943.75,464.191666667 943.75,416.23754902" stroke="#000000" stroke-width="1" /><polyline fill="#FFFFFF" points="943.75,416.23754902 954.519230769,412.256010558 954.519230769,460.210128205 943.75,464.191666667" stroke="#000000" stroke-width="1" /><polyline fill="#FFFFFF" points="932.8125,417.617181373 882.8125,374.483848039 893.581730769,370.502309578 943.581730769,413.635642911" stroke="#000000" stroke-width="1" /><polyline fill="#FFFFFF" points="882.8125,374.483848039 882.8125,425.102083333 932.8125,468.235416667 932.8125,417.617181373" stroke="#000000" stroke-width="1" /><polyline fill="#FFFFFF" points="932.8125,417.617181373 943.581730769,413.635642911 943.581730769,464.253878205 932.8125,468.235416667" stroke="#000000" stroke-width="1" /><polyline fill="#FFFFFF" points="921.875,434.981519608 871.875,391.848186275 882.644230769,387.866647813 932.644230769,430.999981146" stroke="#000000" stroke-width="1" /><polyline fill="#FFFFFF" points="871.875,391.848186275 871.875,429.145833333 921.875,472.279166667 921.875,434.981519608" stroke="#000000" stroke-width="1" /><polyline fill="#FFFFFF" points="921.875,434.981519608 932.644230769,430.999981146 932.644230769,468.297628205 921.875,472.279166667" stroke="#000000" stroke-width="1" /><polyline fill="#FFFFFF" points="910.9375,412.384093137 860.9375,369.250759804 871.706730769,365.269221342 921.706730769,408.402554676" stroke="#000000" stroke-width="1" /><polyline fill="#FFFFFF" points="860.9375,369.250759804 860.9375,433.189583333 910.9375,476.322916667 910.9375,412.384093137" stroke="#000000" stroke-width="1" /><polyline fill="#FFFFFF" points="910.9375,412.384093137 921.706730769,408.402554676 921.706730769,472.341378205 910.9375,476.322916667" stroke="#000000" stroke-width="1" /><polyline fill="#FFFFFF" points="900.0,395.114901961 850.0,351.981568627 860.769230769,348.000030166 910.769230769,391.133363499" stroke="#000000" stroke-width="1" /><polyline fill="#FFFFFF" points="850.0,351.981568627 850.0,437.233333333 900.0,480.366666667 900.0,395.114901961" stroke="#000000" stroke-width="1" /><polyline fill="#FFFFFF" points="900.0,395.114901961 910.769230769,391.133363499 910.769230769,476.385128205 900.0,480.366666667" stroke="#000000" stroke-width="1" /><polyline fill="#FFFFFF" points="889.0625,449.776887255 839.0625,406.643553922 849.831730769,402.66201546 899.831730769,445.795348793" stroke="#000000" stroke-width="1" /><polyline fill="#FFFFFF" points="839.0625,406.643553922 839.0625,441.277083333 889.0625,484.410416667 889.0625,449.776887255" stroke="#000000" stroke-width="1" /><polyline fill="#FFFFFF" points="889.0625,449.776887255 899.831730769,445.795348793 899.831730769,480.428878205 889.0625,484.410416667" stroke="#000000" stroke-width="1" /><polyline fill="#FFFFFF" points="878.125,440.50004902 828.125,397.366715686 838.894230769,393.385177225 888.894230769,436.518510558" stroke="#000000" stroke-width="1" /><polyline fill="#FFFFFF" points="828.125,397.366715686 828.125,445.320833333 878.125,488.454166667 878.125,440.50004902" stroke="#000000" stroke-width="1" /><polyline fill="#FFFFFF" points="878.125,440.50004902 888.894230769,436.518510558 888.894230769,484.472628205 878.125,488.454166667" stroke="#000000" stroke-width="1" /><polyline fill="#FFFFFF" points="867.1875,476.513210784 817.1875,433.379877451 827.956730769,429.398338989 877.956730769,472.531672323" stroke="#000000" stroke-width="1" /><polyline fill="#FFFFFF" points="817.1875,433.379877451 817.1875,449.364583333 867.1875,492.497916667 867.1875,476.513210784" stroke="#000000" stroke-width="1" /><polyline fill="#FFFFFF" points="867.1875,476.513210784 877.956730769,472.531672323 877.956730769,488.516378205 867.1875,492.497916667" stroke="#000000" stroke-width="1" /><polyline fill="#FFFFFF" points="856.25,483.221078431 806.25,440.087745098 817.019230769,436.106206637 867.019230769,479.23953997" stroke="#000000" stroke-width="1" /><polyline fill="#FFFFFF" points="806.25,440.087745098 806.25,453.408333333 856.25,496.541666667 856.25,483.221078431" stroke="#000000" stroke-width="1" /><polyline fill="#FFFFFF" points="856.25,483.221078431 867.019230769,479.23953997 867.019230769,492.560128205 856.25,496.541666667" stroke="#000000" stroke-width="1" /><polyline fill="#FFFFFF" points="845.3125,500.585416667 795.3125,457.452083333 806.081730769,453.470544872 856.081730769,496.603878205" stroke="#000000" stroke-width="1" /><polyline fill="#FFFFFF" points="795.3125,457.452083333 795.3125,457.452083333 845.3125,500.585416667 845.3125,500.585416667" stroke="#000000" stroke-width="1" /><polyline fill="#FFFFFF" points="845.3125,500.585416667 856.081730769,496.603878205 856.081730769,496.603878205 845.3125,500.585416667" stroke="#000000" stroke-width="1" /><polyline fill="#FFFFFF" points="834.375,504.629166667 784.375,461.495833333 795.144230769,457.514294872 845.144230769,500.647628205" stroke="#000000" stroke-width="1" /><polyline fill="#FFFFFF" points="784.375,461.495833333 784.375,461.495833333 834.375,504.629166667 834.375,504.629166667" stroke="#000000" stroke-width="1" /><polyline fill="#FFFFFF" points="834.375,504.629166667 845.144230769,500.647628205 845.144230769,500.647628205 834.375,504.629166667" stroke="#000000" stroke-width="1" /><polyline fill="#FFFFFF" points="823.4375,508.672916667 773.4375,465.539583333 784.206730769,461.558044872 834.206730769,504.691378205" stroke="#000000" stroke-width="1" /><polyline fill="#FFFFFF" points="773.4375,465.539583333 773.4375,465.539583333 823.4375,508.672916667 823.4375,508.672916667" stroke="#000000" stroke-width="1" /><polyline fill="#FFFFFF" points="823.4375,508.672916667 834.206730769,504.691378205 834.206730769,504.691378205 823.4375,508.672916667" stroke="#000000" stroke-width="1" /><polyline fill="#FFFFFF" points="812.5,512.716666667 762.5,469.583333333 773.269230769,465.601794872 823.269230769,508.735128205" stroke="#000000" stroke-width="1" /><polyline fill="#FFFFFF" points="762.5,469.583333333 762.5,469.583333333 812.5,512.716666667 812.5,512.716666667" stroke="#000000" stroke-width="1" /><polyline fill="#FFFFFF" points="812.5,512.716666667 823.269230769,508.735128205 823.269230769,508.735128205 812.5,512.716666667" stroke="#000000" stroke-width="1" /><polyline fill="#FFFFFF" points="801.5625,498.111593137 751.5625,454.978259804 762.331730769,450.996721342 812.331730769,494.130054676" stroke="#000000" stroke-width="1" /><polyline fill="#FFFFFF" points="751.5625,454.978259804 751.5625,473.627083333 801.5625,516.760416667 801.5625,498.111593137" stroke="#000000" stroke-width="1" /><polyline fill="#FFFFFF" points="801.5625,498.111593137 812.331730769,494.130054676 812.331730769,512.778878205 801.5625,516.760416667" stroke="#000000" stroke-width="1" /><polyline fill="#FFFFFF" points="790.625,507.483578431 740.625,464.350245098 751.394230769,460.368706637 801.394230769,503.50203997" stroke="#000000" stroke-width="1" /><polyline fill="#FFFFFF" points="740.625,464.350245098 740.625,477.670833333 790.625,520.804166667 790.625,507.483578431" stroke="#000000" stroke-width="1" /><polyline fill="#FFFFFF" points="790.625,507.483578431 801.394230769,503.50203997 801.394230769,516.822628205 790.625,520.804166667" stroke="#000000" stroke-width="1" /><polyline fill="#FFFFFF" points="779.6875,522.18379902 729.6875,479.050465686 740.456730769,475.068927225 790.456730769,518.202260558" stroke="#000000" stroke-width="1" /><polyline fill="#FFFFFF" points="729.6875,479.050465686 729.6875,481.714583333 779.6875,524.847916667 779.6875,522.18379902" stroke="#000000" stroke-width="1" /><polyline fill="#FFFFFF" points="779.6875,522.18379902 790.456730769,518.202260558 790.456730769,520.866378205 779.6875,524.847916667" stroke="#000000" stroke-width="1" /><polyline fill="#FFFFFF" points="768.75,515.571078431 718.75,472.437745098 729.519230769,468.456206637 779.519230769,511.58953997" stroke="#000000" stroke-width="1" /><polyline fill="#FFFFFF" points="718.75,472.437745098 718.75,485.758333333 768.75,528.891666667 768.75,515.571078431" stroke="#000000" stroke-width="1" /><polyline fill="#FFFFFF" points="768.75,515.571078431 779.519230769,511.58953997 779.519230769,524.910128205 768.75,528.891666667" stroke="#000000" stroke-width="1" /><polyline fill="#FFFFFF" points="757.8125,490.309534314 707.8125,447.17620098 718.581730769,443.194662519 768.581730769,486.327995852" stroke="#000000" stroke-width="1" /><polyline fill="#FFFFFF" points="707.8125,447.17620098 707.8125,489.802083333 757.8125,532.935416667 757.8125,490.309534314" stroke="#000000" stroke-width="1" /><polyline fill="#FFFFFF" points="757.8125,490.309534314 768.581730769,486.327995852 768.581730769,528.953878205 757.8125,532.935416667" stroke="#000000" stroke-width="1" /><polyline fill="#FFFFFF" points="746.875,505.009754902 696.875,461.876421569 707.644230769,457.894883107 757.644230769,501.02821644" stroke="#000000" stroke-width="1" /><polyline fill="#FFFFFF" points="696.875,461.876421569 696.875,493.845833333 746.875,536.979166667 746.875,505.009754902" stroke="#000000" stroke-width="1" /><polyline fill="#FFFFFF" points="746.875,505.009754902 757.644230769,501.02821644 757.644230769,532.997628205 746.875,536.979166667" stroke="#000000" stroke-width="1" /><polyline fill="#FFFFFF" points="735.9375,519.70997549 685.9375,476.576642157 696.706730769,472.595103695 746.706730769,515.728437029" stroke="#000000" stroke-width="1" /><polyline fill="#FFFFFF" points="685.9375,476.576642157 685.9375,497.889583333 735.9375,541.022916667 735.9375,519.70997549" stroke="#000000" stroke-width="1" /><polyline fill="#FFFFFF" points="735.9375,519.70997549 746.706730769,515.728437029 746.706730769,537.041378205 735.9375,541.022916667" stroke="#000000" stroke-width="1" /><polyline fill="#FFFFFF" points="725.0,494.448431373 675.0,451.315098039 685.769230769,447.333559578 735.769230769,490.466892911" stroke="#000000" stroke-width="1" /><polyline fill="#FFFFFF" points="675.0,451.315098039 675.0,501.933333333 725.0,545.066666667 725.0,494.448431373" stroke="#000000" stroke-width="1" /><polyline fill="#FFFFFF" points="725.0,494.448431373 735.769230769,490.466892911 735.769230769,541.085128205 725.0,545.066666667" stroke="#000000" stroke-width="1" /><polyline fill="#FFFFFF" points="714.0625,543.782181373 664.0625,500.648848039 674.831730769,496.667309578 724.831730769,539.800642911" stroke="#000000" stroke-width="1" /><polyline fill="#FFFFFF" points="664.0625,500.648848039 664.0625,505.977083333 714.0625,549.110416667 714.0625,543.782181373" stroke="#000000" stroke-width="1" /><polyline fill="#FFFFFF" points="714.0625,543.782181373 724.831730769,539.800642911 724.831730769,545.128878205 714.0625,549.110416667" stroke="#000000" stroke-width="1" /><polyline fill="#FFFFFF" points="703.125,523.848872549 653.125,480.715539216 663.894230769,476.734000754 713.894230769,519.867334087" stroke="#000000" stroke-width="1" /><polyline fill="#FFFFFF" points="653.125,480.715539216 653.125,510.020833333 703.125,553.154166667 703.125,523.848872549" stroke="#000000" stroke-width="1" /><polyline fill="#FFFFFF" points="703.125,523.848872549 713.894230769,519.867334087 713.894230769,549.172628205 703.125,553.154166667" stroke="#000000" stroke-width="1" /><polyline fill="#FFFFFF" points="692.1875,535.88497549 642.1875,492.751642157 652.956730769,488.770103695 702.956730769,531.903437029" stroke="#000000" stroke-width="1" /><polyline fill="#FFFFFF" points="642.1875,492.751642157 642.1875,514.064583333 692.1875,557.197916667 692.1875,535.88497549" stroke="#000000" stroke-width="1" /><polyline fill="#FFFFFF" points="692.1875,535.88497549 702.956730769,531.903437029 702.956730769,553.216378205 692.1875,557.197916667" stroke="#000000" stroke-width="1" /><polyline fill="#FFFFFF" points="681.25,561.241666667 631.25,518.108333333 642.019230769,514.126794872 692.019230769,557.260128205" stroke="#000000" stroke-width="1" /><polyline fill="#FFFFFF" points="631.25,518.108333333 631.25,518.108333333 681.25,561.241666667 681.25,561.241666667" stroke="#000000" stroke-width="1" /><polyline fill="#FFFFFF" points="681.25,561.241666667 692.019230769,557.260128205 692.019230769,557.260128205 681.25,561.241666667" stroke="#000000" stroke-width="1" /><polyline fill="#FFFFFF" points="670.3125,565.285416667 620.3125,522.152083333 631.081730769,518.170544872 681.081730769,561.303878205" stroke="#000000" stroke-width="1" /><polyline fill="#FFFFFF" points="620.3125,522.152083333 620.3125,522.152083333 670.3125,565.285416667 670.3125,565.285416667" stroke="#000000" stroke-width="1" /><polyline fill="#FFFFFF" points="670.3125,565.285416667 681.081730769,561.303878205 681.081730769,561.303878205 670.3125,565.285416667" stroke="#000000" stroke-width="1" /><polyline fill="#FFFFFF" points="659.375,569.329166667 609.375,526.195833333 620.144230769,522.214294872 670.144230769,565.347628205" stroke="#000000" stroke-width="1" /><polyline fill="#FFFFFF" points="609.375,526.195833333 609.375,526.195833333 659.375,569.329166667 659.375,569.329166667" stroke="#000000" stroke-width="1" /><polyline fill="#FFFFFF" points="659.375,569.329166667 670.144230769,565.347628205 670.144230769,565.347628205 659.375,569.329166667" stroke="#000000" stroke-width="1" /><polyline fill="#FFFFFF" points="648.4375,573.372916667 598.4375,530.239583333 609.206730769,526.258044872 659.206730769,569.391378205" stroke="#000000" stroke-width="1" /><polyline fill="#FFFFFF" points="598.4375,530.239583333 598.4375,530.239583333 648.4375,573.372916667 648.4375,573.372916667" stroke="#000000" stroke-width="1" /><polyline fill="#FFFFFF" points="648.4375,573.372916667 659.206730769,569.391378205 659.206730769,569.391378205 648.4375,573.372916667" stroke="#000000" stroke-width="1" /><polyline fill="#FFFFFF" points="637.5,564.096078431 587.5,520.962745098 598.269230769,516.981206637 648.269230769,560.11453997" stroke="#000000" stroke-width="1" /><polyline fill="#FFFFFF" points="587.5,520.962745098 587.5,534.283333333 637.5,577.416666667 637.5,564.096078431" stroke="#000000" stroke-width="1" /><polyline fill="#FFFFFF" points="637.5,564.096078431 648.269230769,560.11453997 648.269230769,573.435128205 637.5,577.416666667" stroke="#000000" stroke-width="1" /><polyline fill="#FFFFFF" points="626.5625,565.475710784 576.5625,522.342377451 587.331730769,518.360838989 637.331730769,561.494172323" stroke="#000000" stroke-width="1" /><polyline fill="#FFFFFF" points="576.5625,522.342377451 576.5625,538.327083333 626.5625,581.460416667 626.5625,565.475710784" stroke="#000000" stroke-width="1" /><polyline fill="#FFFFFF" points="626.5625,565.475710784 637.331730769,561.494172323 637.331730769,577.478878205 626.5625,581.460416667" stroke="#000000" stroke-width="1" /><polyline fill="#FFFFFF" points="615.625,569.519460784 565.625,526.386127451 576.394230769,522.404588989 626.394230769,565.537922323" stroke="#000000" stroke-width="1" /><polyline fill="#FFFFFF" points="565.625,526.386127451 565.625,542.370833333 615.625,585.504166667 615.625,569.519460784" stroke="#000000" stroke-width="1" /><polyline fill="#FFFFFF" points="615.625,569.519460784 626.394230769,565.537922323 626.394230769,581.522628205 615.625,585.504166667" stroke="#000000" stroke-width="1" /><polyline fill="#FFFFFF" points="604.6875,578.891446078 554.6875,535.758112745 565.456730769,531.776574284 615.456730769,574.909907617" stroke="#000000" stroke-width="1" /><polyline fill="#FFFFFF" points="554.6875,535.758112745 554.6875,546.414583333 604.6875,589.547916667 604.6875,578.891446078" stroke="#000000" stroke-width="1" /><polyline fill="#FFFFFF" points="604.6875,578.891446078 615.456730769,574.909907617 615.456730769,585.566378205 604.6875,589.547916667" stroke="#000000" stroke-width="1" /><polyline fill="#FFFFFF" points="593.75,574.942843137 543.75,531.809509804 554.519230769,527.827971342 604.519230769,570.961304676" stroke="#000000" stroke-width="1" /><polyline fill="#FFFFFF" points="543.75,531.809509804 543.75,550.458333333 593.75,593.591666667 593.75,574.942843137" stroke="#000000" stroke-width="1" /><polyline fill="#FFFFFF" points="593.75,574.942843137 604.519230769,570.961304676 604.519230769,589.610128205 593.75,593.591666667" stroke="#000000" stroke-width="1" /><polyline fill="#FFFFFF" points="582.8125,594.97129902 532.8125,551.837965686 543.581730769,547.856427225 593.581730769,590.989760558" stroke="#000000" stroke-width="1" /><polyline fill="#FFFFFF" points="532.8125,551.837965686 532.8125,554.502083333 582.8125,597.635416667 582.8125,594.97129902" stroke="#000000" stroke-width="1" /><polyline fill="#FFFFFF" points="582.8125,594.97129902 593.581730769,590.989760558 593.581730769,593.653878205 582.8125,597.635416667" stroke="#000000" stroke-width="1" /><polyline fill="#FFFFFF" points="571.875,596.350931373 521.875,553.217598039 532.644230769,549.236059578 582.644230769,592.369392911" stroke="#000000" stroke-width="1" /><polyline fill="#FFFFFF" points="521.875,553.217598039 521.875,558.545833333 571.875,601.679166667 571.875,596.350931373" stroke="#000000" stroke-width="1" /><polyline fill="#FFFFFF" points="571.875,596.350931373 582.644230769,592.369392911 582.644230769,597.697628205 571.875,601.679166667" stroke="#000000" stroke-width="1" /><polyline fill="#FFFFFF" points="560.9375,605.722916667 510.9375,562.589583333 521.706730769,558.608044872 571.706730769,601.741378205" stroke="#000000" stroke-width="1" /><polyline fill="#FFFFFF" points="510.9375,562.589583333 510.9375,562.589583333 560.9375,605.722916667 560.9375,605.722916667" stroke="#000000" stroke-width="1" /><polyline fill="#FFFFFF" points="560.9375,605.722916667 571.706730769,601.741378205 571.706730769,601.741378205 560.9375,605.722916667" stroke="#000000" stroke-width="1" /><polyline fill="#FFFFFF" points="550.0,599.110196078 500.0,555.976862745 510.769230769,551.995324284 560.769230769,595.128657617" stroke="#000000" stroke-width="1" /><polyline fill="#FFFFFF" points="500.0,555.976862745 500.0,566.633333333 550.0,609.766666667 550.0,599.110196078" stroke="#000000" stroke-width="1" /><polyline fill="#FFFFFF" points="550.0,599.110196078 560.769230769,595.128657617 560.769230769,605.785128205 550.0,609.766666667" stroke="#000000" stroke-width="1" /><polyline fill="#FFFFFF" points="539.0625,613.810416667 489.0625,570.677083333 499.831730769,566.695544872 549.831730769,609.828878205" stroke="#000000" stroke-width="1" /><polyline fill="#FFFFFF" points="489.0625,570.677083333 489.0625,570.677083333 539.0625,613.810416667 539.0625,613.810416667" stroke="#000000" stroke-width="1" /><polyline fill="#FFFFFF" points="539.0625,613.810416667 549.831730769,609.828878205 549.831730769,609.828878205 539.0625,613.810416667" stroke="#000000" stroke-width="1" /><polyline fill="#FFFFFF" points="528.125,612.525931373 478.125,569.392598039 488.894230769,565.411059578 538.894230769,608.544392911" stroke="#000000" stroke-width="1" /><polyline fill="#FFFFFF" points="478.125,569.392598039 478.125,574.720833333 528.125,617.854166667 528.125,612.525931373" stroke="#000000" stroke-width="1" /><polyline fill="#FFFFFF" points="528.125,612.525931373 538.894230769,608.544392911 538.894230769,613.872628205 528.125,617.854166667" stroke="#000000" stroke-width="1" /><polyline fill="#FFFFFF" points="517.1875,621.897916667 467.1875,578.764583333 477.956730769,574.783044872 527.956730769,617.916378205" stroke="#000000" stroke-width="1" /><polyline fill="#FFFFFF" points="467.1875,578.764583333 467.1875,578.764583333 517.1875,621.897916667 517.1875,621.897916667" stroke="#000000" stroke-width="1" /><polyline fill="#FFFFFF" points="517.1875,621.897916667 527.956730769,617.916378205 527.956730769,617.916378205 517.1875,621.897916667" stroke="#000000" stroke-width="1" /><polyline fill="#FFFFFF" points="506.25,620.613431373 456.25,577.480098039 467.019230769,573.498559578 517.019230769,616.631892911" stroke="#000000" stroke-width="1" /><polyline fill="#FFFFFF" points="456.25,577.480098039 456.25,582.808333333 506.25,625.941666667 506.25,620.613431373" stroke="#000000" stroke-width="1" /><polyline fill="#FFFFFF" points="506.25,620.613431373 517.019230769,616.631892911 517.019230769,621.960128205 506.25,625.941666667" stroke="#000000" stroke-width="1" /><polyline fill="#FFFFFF" points="495.3125,606.008357843 445.3125,562.87502451 456.081730769,558.893486048 506.081730769,602.026819382" stroke="#000000" stroke-width="1" /><polyline fill="#FFFFFF" points="445.3125,562.87502451 445.3125,586.852083333 495.3125,629.985416667 495.3125,606.008357843" stroke="#000000" stroke-width="1" /><polyline fill="#FFFFFF" points="495.3125,606.008357843 506.081730769,602.026819382 506.081730769,626.003878205 495.3125,629.985416667" stroke="#000000" stroke-width="1" /><polyline fill="#FFFFFF" points="484.375,626.036813725 434.375,582.903480392 445.144230769,578.921941931 495.144230769,622.055275264" stroke="#000000" stroke-width="1" /><polyline fill="#FFFFFF" points="434.375,582.903480392 434.375,590.895833333 484.375,634.029166667 484.375,626.036813725" stroke="#000000" stroke-width="1" /><polyline fill="#FFFFFF" points="484.375,626.036813725 495.144230769,622.055275264 495.144230769,630.047628205 484.375,634.029166667" stroke="#000000" stroke-width="1" /><polyline fill="#FFFFFF" points="473.4375,624.752328431 423.4375,581.618995098 434.206730769,577.637456637 484.206730769,620.77078997" stroke="#000000" stroke-width="1" /><polyline fill="#FFFFFF" points="423.4375,581.618995098 423.4375,594.939583333 473.4375,638.072916667 473.4375,624.752328431" stroke="#000000" stroke-width="1" /><polyline fill="#FFFFFF" points="473.4375,624.752328431 484.206730769,620.77078997 484.206730769,634.091378205 473.4375,638.072916667" stroke="#000000" stroke-width="1" /><polyline fill="#FFFFFF" points="462.5,628.796078431 412.5,585.662745098 423.269230769,581.681206637 473.269230769,624.81453997" stroke="#000000" stroke-width="1" /><polyline fill="#FFFFFF" points="412.5,585.662745098 412.5,598.983333333 462.5,642.116666667 462.5,628.796078431" stroke="#000000" stroke-width="1" /><polyline fill="#FFFFFF" points="462.5,628.796078431 473.269230769,624.81453997 473.269230769,638.135128205 462.5,642.116666667" stroke="#000000" stroke-width="1" /><polyline fill="#FFFFFF" points="451.5625,640.832181373 401.5625,597.698848039 412.331730769,593.717309578 462.331730769,636.850642911" stroke="#000000" stroke-width="1" /><polyline fill="#FFFFFF" points="401.5625,597.698848039 401.5625,603.027083333 451.5625,646.160416667 451.5625,640.832181373" stroke="#000000" stroke-width="1" /><polyline fill="#FFFFFF" points="451.5625,640.832181373 462.331730769,636.850642911 462.331730769,642.178878205 451.5625,646.160416667" stroke="#000000" stroke-width="1" /><polyline fill="#FFFFFF" points="440.625,639.547696078 390.625,596.414362745 401.394230769,592.432824284 451.394230769,635.566157617" stroke="#000000" stroke-width="1" /><polyline fill="#FFFFFF" points="390.625,596.414362745 390.625,607.070833333 440.625,650.204166667 440.625,639.547696078" stroke="#000000" stroke-width="1" /><polyline fill="#FFFFFF" points="440.625,639.547696078 451.394230769,635.566157617 451.394230769,646.222628205 440.625,650.204166667" stroke="#000000" stroke-width="1" /><polyline fill="#FFFFFF" points="429.6875,654.247916667 379.6875,611.114583333 390.456730769,607.133044872 440.456730769,650.266378205" stroke="#000000" stroke-width="1" /><polyline fill="#FFFFFF" points="379.6875,611.114583333 379.6875,611.114583333 429.6875,654.247916667 429.6875,654.247916667" stroke="#000000" stroke-width="1" /><polyline fill="#FFFFFF" points="429.6875,654.247916667 440.456730769,650.266378205 440.456730769,650.266378205 429.6875,654.247916667" stroke="#000000" stroke-width="1" /><polyline fill="#FFFFFF" points="418.75,658.291666667 368.75,615.158333333 379.519230769,611.176794872 429.519230769,654.310128205" stroke="#000000" stroke-width="1" /><polyline fill="#FFFFFF" points="368.75,615.158333333 368.75,615.158333333 418.75,658.291666667 418.75,658.291666667" stroke="#000000" stroke-width="1" /><polyline fill="#FFFFFF" points="418.75,658.291666667 429.519230769,654.310128205 429.519230769,654.310128205 418.75,658.291666667" stroke="#000000" stroke-width="1" /><polyline fill="#FFFFFF" points="407.8125,662.335416667 357.8125,619.202083333 368.581730769,615.220544872 418.581730769,658.353878205" stroke="#000000" stroke-width="1" /><polyline fill="#FFFFFF" points="357.8125,619.202083333 357.8125,619.202083333 407.8125,662.335416667 407.8125,662.335416667" stroke="#000000" stroke-width="1" /><polyline fill="#FFFFFF" points="407.8125,662.335416667 418.581730769,658.353878205 418.581730769,658.353878205 407.8125,662.335416667" stroke="#000000" stroke-width="1" /><polyline fill="#FFFFFF" points="396.875,666.379166667 346.875,623.245833333 357.644230769,619.264294872 407.644230769,662.397628205" stroke="#000000" stroke-width="1" /><polyline fill="#FFFFFF" points="346.875,623.245833333 346.875,623.245833333 396.875,666.379166667 396.875,666.379166667" stroke="#000000" stroke-width="1" /><polyline fill="#FFFFFF" points="396.875,666.379166667 407.644230769,662.397628205 407.644230769,662.397628205 396.875,666.379166667" stroke="#000000" stroke-width="1" /><polyline fill="#FFFFFF" points="385.9375,670.422916667 335.9375,627.289583333 346.706730769,623.308044872 396.706730769,666.441378205" stroke="#000000" stroke-width="1" /><polyline fill="#FFFFFF" points="335.9375,627.289583333 335.9375,627.289583333 385.9375,670.422916667 385.9375,670.422916667" stroke="#000000" stroke-width="1" /><polyline fill="#FFFFFF" points="385.9375,670.422916667 396.706730769,666.441378205 396.706730769,666.441378205 385.9375,670.422916667" stroke="#000000" stroke-width="1" /><polyline fill="#FFFFFF" points="375.0,674.466666667 325.0,631.333333333 335.769230769,627.351794872 385.769230769,670.485128205" stroke="#000000" stroke-width="1" /><polyline fill="#FFFFFF" points="325.0,631.333333333 325.0,631.333333333 375.0,674.466666667 375.0,674.466666667" stroke="#000000" stroke-width="1" /><polyline fill="#FFFFFF" points="375.0,674.466666667 385.769230769,670.485128205 385.769230769,670.485128205 375.0,674.466666667" stroke="#000000" stroke-width="1" /><polyline fill="#FFFFFF" points="1200.0,297.05 1150.0,253.916666667 1160.76923077,249.935128205 1210.76923077,293.068461538" stroke="#000000" stroke-width="1" /><polyline fill="#FFFFFF" points="1150.0,253.916666667 1150.0,480.366666667 1200.0,523.5 1200.0,297.05" stroke="#000000" stroke-width="1" /><polyline fill="#FFFFFF" points="1200.0,297.05 1210.76923077,293.068461538 1210.76923077,519.518461538 1200.0,523.5" stroke="#000000" stroke-width="1" /><polyline fill="#FFFFFF" points="1189.0625,327.734926471 1139.0625,284.601593137 1149.83173077,280.620054676 1199.83173077,323.753388009" stroke="#000000" stroke-width="1" /><polyline fill="#FFFFFF" points="1139.0625,284.601593137 1139.0625,484.410416667 1189.0625,527.54375 1189.0625,327.734926471" stroke="#000000" stroke-width="1" /><polyline fill="#FFFFFF" points="1189.0625,327.734926471 1199.83173077,323.753388009 1199.83173077,523.562211538 1189.0625,527.54375" stroke="#000000" stroke-width="1" /><polyline fill="#FFFFFF" points="1178.125,403.709852941 1128.125,360.576519608 1138.89423077,356.594981146 1188.89423077,399.72831448" stroke="#000000" stroke-width="1" /><polyline fill="#FFFFFF" points="1128.125,360.576519608 1128.125,488.454166667 1178.125,531.5875 1178.125,403.709852941" stroke="#000000" stroke-width="1" /><polyline fill="#FFFFFF" points="1178.125,403.709852941 1188.89423077,399.72831448 1188.89423077,527.605961538 1178.125,531.5875" stroke="#000000" stroke-width="1" /><polyline fill="#FFFFFF" points="1167.1875,415.745955882 1117.1875,372.612622549 1127.95673077,368.631084087 1177.95673077,411.764417421" stroke="#000000" stroke-width="1" /><polyline fill="#FFFFFF" points="1117.1875,372.612622549 1117.1875,492.497916667 1167.1875,535.63125 1167.1875,415.745955882" stroke="#000000" stroke-width="1" /><polyline fill="#FFFFFF" points="1167.1875,415.745955882 1177.95673077,411.764417421 1177.95673077,531.649711538 1167.1875,535.63125" stroke="#000000" stroke-width="1" /><polyline fill="#FFFFFF" points="1156.25,483.728529412 1106.25,440.595196078 1117.01923077,436.613657617 1167.01923077,479.74699095" stroke="#000000" stroke-width="1" /><polyline fill="#FFFFFF" points="1106.25,440.595196078 1106.25,496.541666667 1156.25,539.675 1156.25,483.728529412" stroke="#000000" stroke-width="1" /><polyline fill="#FFFFFF" points="1156.25,483.728529412 1167.01923077,479.74699095 1167.01923077,535.693461538 1156.25,539.675" stroke="#000000" stroke-width="1" /><polyline fill="#FFFFFF" points="1145.3125,453.13875 1095.3125,410.005416667 1106.08173077,406.023878205 1156.08173077,449.157211538" stroke="#000000" stroke-width="1" /><polyline fill="#FFFFFF" points="1095.3125,410.005416667 1095.3125,500.585416667 1145.3125,543.71875 1145.3125,453.13875" stroke="#000000" stroke-width="1" /><polyline fill="#FFFFFF" points="1145.3125,453.13875 1156.08173077,449.157211538 1156.08173077,539.737211538 1145.3125,543.71875" stroke="#000000" stroke-width="1" /><polyline fill="#FFFFFF" points="1134.375,411.8925 1084.375,368.759166667 1095.14423077,364.777628205 1145.14423077,407.910961538" stroke="#000000" stroke-width="1" /><polyline fill="#FFFFFF" points="1084.375,368.759166667 1084.375,504.629166667 1134.375,547.7625 1134.375,411.8925" stroke="#000000" stroke-width="1" /><polyline fill="#FFFFFF" points="1134.375,411.8925 1145.14423077,407.910961538 1145.14423077,543.780961538 1134.375,547.7625" stroke="#000000" stroke-width="1" /><polyline fill="#FFFFFF" points="1123.4375,458.562132353 1073.4375,415.42879902 1084.20673077,411.447260558 1134.20673077,454.580593891" stroke="#000000" stroke-width="1" /><polyline fill="#FFFFFF" points="1073.4375,415.42879902 1073.4375,508.672916667 1123.4375,551.80625 1123.4375,458.562132353" stroke="#000000" stroke-width="1" /><polyline fill="#FFFFFF" points="1123.4375,458.562132353 1134.20673077,454.580593891 1134.20673077,547.824711538 1123.4375,551.80625" stroke="#000000" stroke-width="1" /><polyline fill="#FFFFFF" points="1112.5,499.903529412 1062.5,456.770196078 1073.26923077,452.788657617 1123.26923077,495.92199095" stroke="#000000" stroke-width="1" /><polyline fill="#FFFFFF" points="1062.5,456.770196078 1062.5,512.716666667 1112.5,555.85 1112.5,499.903529412" stroke="#000000" stroke-width="1" /><polyline fill="#FFFFFF" points="1112.5,499.903529412 1123.26923077,495.92199095 1123.26923077,551.868461538 1112.5,555.85" stroke="#000000" stroke-width="1" /><polyline fill="#FFFFFF" points="1101.5625,479.970220588 1051.5625,436.836887255 1062.33173077,432.855348793 1112.33173077,475.988682127" stroke="#000000" stroke-width="1" /><polyline fill="#FFFFFF" points="1051.5625,436.836887255 1051.5625,516.760416667 1101.5625,559.89375 1101.5625,479.970220588" stroke="#000000" stroke-width="1" /><polyline fill="#FFFFFF" points="1101.5625,479.970220588 1112.33173077,475.988682127 1112.33173077,555.912211538 1101.5625,559.89375" stroke="#000000" stroke-width="1" /><polyline fill="#FFFFFF" points="1090.625,489.342205882 1040.625,446.208872549 1051.39423077,442.227334087 1101.39423077,485.360667421" stroke="#000000" stroke-width="1" /><polyline fill="#FFFFFF" points="1040.625,446.208872549 1040.625,520.804166667 1090.625,563.9375 1090.625,489.342205882" stroke="#000000" stroke-width="1" /><polyline fill="#FFFFFF" points="1090.625,489.342205882 1101.39423077,485.360667421 1101.39423077,559.955961538 1090.625,563.9375" stroke="#000000" stroke-width="1" /><polyline fill="#FFFFFF" points="1079.6875,525.355367647 1029.6875,482.222034314 1040.45673077,478.240495852 1090.45673077,521.373829186" stroke="#000000" stroke-width="1" /><polyline fill="#FFFFFF" points="1029.6875,482.222034314 1029.6875,524.847916667 1079.6875,567.98125 1079.6875,525.355367647" stroke="#000000" stroke-width="1" /><polyline fill="#FFFFFF" points="1079.6875,525.355367647 1090.45673077,521.373829186 1090.45673077,563.999711538 1079.6875,567.98125" stroke="#000000" stroke-width="1" /><polyline fill="#FFFFFF" points="1068.75,468.124411765 1018.75,424.991078431 1029.51923077,421.00953997 1079.51923077,464.142873303" stroke="#000000" stroke-width="1" /><polyline fill="#FFFFFF" points="1018.75,424.991078431 1018.75,528.891666667 1068.75,572.025 1068.75,468.124411765" stroke="#000000" stroke-width="1" /><polyline fill="#FFFFFF" points="1068.75,468.124411765 1079.51923077,464.142873303 1079.51923077,568.043461538 1068.75,572.025" stroke="#000000" stroke-width="1" /><polyline fill="#FFFFFF" points="1057.8125,544.099338235 1007.8125,500.966004902 1018.58173077,496.98446644 1068.58173077,540.117799774" stroke="#000000" stroke-width="1" /><polyline fill="#FFFFFF" points="1007.8125,500.966004902 1007.8125,532.935416667 1057.8125,576.06875 1057.8125,544.099338235" stroke="#000000" stroke-width="1" /><polyline fill="#FFFFFF" points="1057.8125,544.099338235 1068.58173077,540.117799774 1068.58173077,572.087211538 1057.8125,576.06875" stroke="#000000" stroke-width="1" /><polyline fill="#FFFFFF" points="1046.875,550.807205882 996.875,507.673872549 1007.64423077,503.692334087 1057.64423077,546.825667421" stroke="#000000" stroke-width="1" /><polyline fill="#FFFFFF" points="996.875,507.673872549 996.875,536.979166667 1046.875,580.1125 1046.875,550.807205882" stroke="#000000" stroke-width="1" /><polyline fill="#FFFFFF" points="1046.875,550.807205882 1057.64423077,546.825667421 1057.64423077,576.130961538 1046.875,580.1125" stroke="#000000" stroke-width="1" /><polyline fill="#FFFFFF" points="1035.9375,525.545661765 985.9375,482.412328431 996.706730769,478.43078997 1046.70673077,521.564123303" stroke="#000000" stroke-width="1" /><polyline fill="#FFFFFF" points="985.9375,482.412328431 985.9375,541.022916667 1035.9375,584.15625 1035.9375,525.545661765" stroke="#000000" stroke-width="1" /><polyline fill="#FFFFFF" points="1035.9375,525.545661765 1046.70673077,521.564123303 1046.70673077,580.174711538 1035.9375,584.15625" stroke="#000000" stroke-width="1" /><polyline fill="#FFFFFF" points="1025.0,462.986470588 975.0,419.853137255 985.769230769,415.871598793 1035.76923077,459.004932127" stroke="#000000" stroke-width="1" /><polyline fill="#FFFFFF" points="975.0,419.853137255 975.0,545.066666667 1025.0,588.2 1025.0,462.986470588" stroke="#000000" stroke-width="1" /><polyline fill="#FFFFFF" points="1025.0,462.986470588 1035.76923077,459.004932127 1035.76923077,584.218461538 1025.0,588.2" stroke="#000000" stroke-width="1" /><polyline fill="#FFFFFF" points="1014.0625,501.66375 964.0625,458.530416667 974.831730769,454.548878205 1024.83173077,497.682211538" stroke="#000000" stroke-width="1" /><polyline fill="#FFFFFF" points="964.0625,458.530416667 964.0625,549.110416667 1014.0625,592.24375 1014.0625,501.66375" stroke="#000000" stroke-width="1" /><polyline fill="#FFFFFF" points="1014.0625,501.66375 1024.83173077,497.682211538 1024.83173077,588.262211538 1014.0625,592.24375" stroke="#000000" stroke-width="1" /><polyline fill="#FFFFFF" points="1003.125,577.638676471 953.125,534.505343137 963.894230769,530.523804676 1013.89423077,573.657138009" stroke="#000000" stroke-width="1" /><polyline fill="#FFFFFF" points="953.125,534.505343137 953.125,553.154166667 1003.125,596.2875 1003.125,577.638676471" stroke="#000000" stroke-width="1" /><polyline fill="#FFFFFF" points="1003.125,577.638676471 1013.89423077,573.657138009 1013.89423077,592.305961538 1003.125,596.2875" stroke="#000000" stroke-width="1" /><polyline fill="#FFFFFF" points="992.1875,528.400073529 942.1875,485.266740196 952.956730769,481.285201735 1002.95673077,524.418535068" stroke="#000000" stroke-width="1" /><polyline fill="#FFFFFF" points="942.1875,485.266740196 942.1875,557.197916667 992.1875,600.33125 992.1875,528.400073529" stroke="#000000" stroke-width="1" /><polyline fill="#FFFFFF" points="992.1875,528.400073529 1002.95673077,524.418535068 1002.95673077,596.349711538 992.1875,600.33125" stroke="#000000" stroke-width="1" /><polyline fill="#FFFFFF" points="981.25,583.062058824 931.25,539.92872549 942.019230769,535.947187029 992.019230769,579.080520362" stroke="#000000" stroke-width="1" /><polyline fill="#FFFFFF" points="931.25,539.92872549 931.25,561.241666667 981.25,604.375 981.25,583.062058824" stroke="#000000" stroke-width="1" /><polyline fill="#FFFFFF" points="981.25,583.062058824 992.019230769,579.080520362 992.019230769,600.393461538 981.25,604.375" stroke="#000000" stroke-width="1" /><polyline fill="#FFFFFF" points="970.3125,608.41875 920.3125,565.285416667 931.081730769,561.303878205 981.081730769,604.437211538" stroke="#000000" stroke-width="1" /><polyline fill="#FFFFFF" points="920.3125,565.285416667 920.3125,565.285416667 970.3125,608.41875 970.3125,608.41875" stroke="#000000" stroke-width="1" /><polyline fill="#FFFFFF" points="970.3125,608.41875 981.081730769,604.437211538 981.081730769,604.437211538 970.3125,608.41875" stroke="#000000" stroke-width="1" /><polyline fill="#FFFFFF" points="959.375,612.4625 909.375,569.329166667 920.144230769,565.347628205 970.144230769,608.480961538" stroke="#000000" stroke-width="1" /><polyline fill="#FFFFFF" points="909.375,569.329166667 909.375,569.329166667 959.375,612.4625 959.375,612.4625" stroke="#000000" stroke-width="1" /><polyline fill="#FFFFFF" points="959.375,612.4625 970.144230769,608.480961538 970.144230769,608.480961538 959.375,612.4625" stroke="#000000" stroke-width="1" /><polyline fill="#FFFFFF" points="948.4375,616.50625 898.4375,573.372916667 909.206730769,569.391378205 959.206730769,612.524711538" stroke="#000000" stroke-width="1" /><polyline fill="#FFFFFF" points="898.4375,573.372916667 898.4375,573.372916667 948.4375,616.50625 948.4375,616.50625" stroke="#000000" stroke-width="1" /><polyline fill="#FFFFFF" points="948.4375,616.50625 959.206730769,612.524711538 959.206730769,612.524711538 948.4375,616.50625" stroke="#000000" stroke-width="1" /><polyline fill="#FFFFFF" points="937.5,620.55 887.5,577.416666667 898.269230769,573.435128205 948.269230769,616.568461538" stroke="#000000" stroke-width="1" /><polyline fill="#FFFFFF" points="887.5,577.416666667 887.5,577.416666667 937.5,620.55 937.5,620.55" stroke="#000000" stroke-width="1" /><polyline fill="#FFFFFF" points="937.5,620.55 948.269230769,616.568461538 948.269230769,616.568461538 937.5,620.55" stroke="#000000" stroke-width="1" /><polyline fill="#FFFFFF" points="926.5625,605.944926471 876.5625,562.811593137 887.331730769,558.830054676 937.331730769,601.963388009" stroke="#000000" stroke-width="1" /><polyline fill="#FFFFFF" points="876.5625,562.811593137 876.5625,581.460416667 926.5625,624.59375 926.5625,605.944926471" stroke="#000000" stroke-width="1" /><polyline fill="#FFFFFF" points="926.5625,605.944926471 937.331730769,601.963388009 937.331730769,620.612211538 926.5625,624.59375" stroke="#000000" stroke-width="1" /><polyline fill="#FFFFFF" points="915.625,609.988676471 865.625,566.855343137 876.394230769,562.873804676 926.394230769,606.007138009" stroke="#000000" stroke-width="1" /><polyline fill="#FFFFFF" points="865.625,566.855343137 865.625,585.504166667 915.625,628.6375 915.625,609.988676471" stroke="#000000" stroke-width="1" /><polyline fill="#FFFFFF" points="915.625,609.988676471 926.394230769,606.007138009 926.394230769,624.655961538 915.625,628.6375" stroke="#000000" stroke-width="1" /><polyline fill="#FFFFFF" points="904.6875,627.353014706 854.6875,584.219681373 865.456730769,580.238142911 915.456730769,623.371476244" stroke="#000000" stroke-width="1" /><polyline fill="#FFFFFF" points="854.6875,584.219681373 854.6875,589.547916667 904.6875,632.68125 904.6875,627.353014706" stroke="#000000" stroke-width="1" /><polyline fill="#FFFFFF" points="904.6875,627.353014706 915.456730769,623.371476244 915.456730769,628.699711538 904.6875,632.68125" stroke="#000000" stroke-width="1" /><polyline fill="#FFFFFF" points="893.75,610.083823529 843.75,566.950490196 854.519230769,562.968951735 904.519230769,606.102285068" stroke="#000000" stroke-width="1" /><polyline fill="#FFFFFF" points="843.75,566.950490196 843.75,593.591666667 893.75,636.725 893.75,610.083823529" stroke="#000000" stroke-width="1" /><polyline fill="#FFFFFF" points="893.75,610.083823529 904.519230769,606.102285068 904.519230769,632.743461538 893.75,636.725" stroke="#000000" stroke-width="1" /><polyline fill="#FFFFFF" points="882.8125,619.455808824 832.8125,576.32247549 843.581730769,572.340937029 893.581730769,615.474270362" stroke="#000000" stroke-width="1" /><polyline fill="#FFFFFF" points="832.8125,576.32247549 832.8125,597.635416667 882.8125,640.76875 882.8125,619.455808824" stroke="#000000" stroke-width="1" /><polyline fill="#FFFFFF" points="882.8125,619.455808824 893.581730769,615.474270362 893.581730769,636.787211538 882.8125,640.76875" stroke="#000000" stroke-width="1" /><polyline fill="#FFFFFF" points="871.875,631.491911765 821.875,588.358578431 832.644230769,584.37703997 882.644230769,627.510373303" stroke="#000000" stroke-width="1" /><polyline fill="#FFFFFF" points="821.875,588.358578431 821.875,601.679166667 871.875,644.8125 871.875,631.491911765" stroke="#000000" stroke-width="1" /><polyline fill="#FFFFFF" points="871.875,631.491911765 882.644230769,627.510373303 882.644230769,640.830961538 871.875,644.8125" stroke="#000000" stroke-width="1" /><polyline fill="#FFFFFF" points="860.9375,611.558602941 810.9375,568.425269608 821.706730769,564.443731146 871.706730769,607.57706448" stroke="#000000" stroke-width="1" /><polyline fill="#FFFFFF" points="810.9375,568.425269608 810.9375,605.722916667 860.9375,648.85625 860.9375,611.558602941" stroke="#000000" stroke-width="1" /><polyline fill="#FFFFFF" points="860.9375,611.558602941 871.706730769,607.57706448 871.706730769,644.874711538 860.9375,648.85625" stroke="#000000" stroke-width="1" /><polyline fill="#FFFFFF" points="850.0,599.617647059 800.0,556.484313725 810.769230769,552.502775264 860.769230769,595.636108597" stroke="#000000" stroke-width="1" /><polyline fill="#FFFFFF" points="800.0,556.484313725 800.0,609.766666667 850.0,652.9 850.0,599.617647059" stroke="#000000" stroke-width="1" /><polyline fill="#FFFFFF" points="850.0,599.617647059 860.769230769,595.636108597 860.769230769,648.918461538 850.0,652.9" stroke="#000000" stroke-width="1" /><polyline fill="#FFFFFF" points="839.0625,646.287279412 789.0625,603.153946078 799.831730769,599.172407617 849.831730769,642.30574095" stroke="#000000" stroke-width="1" /><polyline fill="#FFFFFF" points="789.0625,603.153946078 789.0625,613.810416667 839.0625,656.94375 839.0625,646.287279412" stroke="#000000" stroke-width="1" /><polyline fill="#FFFFFF" points="839.0625,646.287279412 849.831730769,642.30574095 849.831730769,652.962211538 839.0625,656.94375" stroke="#000000" stroke-width="1" /><polyline fill="#FFFFFF" points="828.125,647.666911765 778.125,604.533578431 788.894230769,600.55203997 838.894230769,643.685373303" stroke="#000000" stroke-width="1" /><polyline fill="#FFFFFF" points="778.125,604.533578431 778.125,617.854166667 828.125,660.9875 828.125,647.666911765" stroke="#000000" stroke-width="1" /><polyline fill="#FFFFFF" points="828.125,647.666911765 838.894230769,643.685373303 838.894230769,657.005961538 828.125,660.9875" stroke="#000000" stroke-width="1" /><polyline fill="#FFFFFF" points="817.1875,657.038897059 767.1875,613.905563725 777.956730769,609.924025264 827.956730769,653.057358597" stroke="#000000" stroke-width="1" /><polyline fill="#FFFFFF" points="767.1875,613.905563725 767.1875,621.897916667 817.1875,665.03125 817.1875,657.038897059" stroke="#000000" stroke-width="1" /><polyline fill="#FFFFFF" points="817.1875,657.038897059 827.956730769,653.057358597 827.956730769,661.049711538 817.1875,665.03125" stroke="#000000" stroke-width="1" /><polyline fill="#FFFFFF" points="806.25,655.754411765 756.25,612.621078431 767.019230769,608.63953997 817.019230769,651.772873303" stroke="#000000" stroke-width="1" /><polyline fill="#FFFFFF" points="756.25,612.621078431 756.25,625.941666667 806.25,669.075 806.25,655.754411765" stroke="#000000" stroke-width="1" /><polyline fill="#FFFFFF" points="806.25,655.754411765 817.019230769,651.772873303 817.019230769,665.093461538 806.25,669.075" stroke="#000000" stroke-width="1" /><polyline fill="#FFFFFF" points="795.3125,673.11875 745.3125,629.985416667 756.081730769,626.003878205 806.081730769,669.137211538" stroke="#000000" stroke-width="1" /><polyline fill="#FFFFFF" points="745.3125,629.985416667 745.3125,629.985416667 795.3125,673.11875 795.3125,673.11875" stroke="#000000" stroke-width="1" /><polyline fill="#FFFFFF" points="795.3125,673.11875 806.081730769,669.137211538 806.081730769,669.137211538 795.3125,673.11875" stroke="#000000" stroke-width="1" /><polyline fill="#FFFFFF" points="784.375,677.1625 734.375,634.029166667 745.144230769,630.047628205 795.144230769,673.180961538" stroke="#000000" stroke-width="1" /><polyline fill="#FFFFFF" points="734.375,634.029166667 734.375,634.029166667 784.375,677.1625 784.375,677.1625" stroke="#000000" stroke-width="1" /><polyline fill="#FFFFFF" points="784.375,677.1625 795.144230769,673.180961538 795.144230769,673.180961538 784.375,677.1625" stroke="#000000" stroke-width="1" /><polyline fill="#FFFFFF" points="773.4375,681.20625 723.4375,638.072916667 734.206730769,634.091378205 784.206730769,677.224711538" stroke="#000000" stroke-width="1" /><polyline fill="#FFFFFF" points="723.4375,638.072916667 723.4375,638.072916667 773.4375,681.20625 773.4375,681.20625" stroke="#000000" stroke-width="1" /><polyline fill="#FFFFFF" points="773.4375,681.20625 784.206730769,677.224711538 784.206730769,677.224711538 773.4375,681.20625" stroke="#000000" stroke-width="1" /><polyline fill="#FFFFFF" points="762.5,679.921764706 712.5,636.788431373 723.269230769,632.806892911 773.269230769,675.940226244" stroke="#000000" stroke-width="1" /><polyline fill="#FFFFFF" points="712.5,636.788431373 712.5,642.116666667 762.5,685.25 762.5,679.921764706" stroke="#000000" stroke-width="1" /><polyline fill="#FFFFFF" points="762.5,679.921764706 773.269230769,675.940226244 773.269230769,681.268461538 762.5,685.25" stroke="#000000" stroke-width="1" /><polyline fill="#FFFFFF" points="751.5625,665.316691176 701.5625,622.183357843 712.331730769,618.201819382 762.331730769,661.335152715" stroke="#000000" stroke-width="1" /><polyline fill="#FFFFFF" points="701.5625,622.183357843 701.5625,646.160416667 751.5625,689.29375 751.5625,665.316691176" stroke="#000000" stroke-width="1" /><polyline fill="#FFFFFF" points="751.5625,665.316691176 762.331730769,661.335152715 762.331730769,685.312211538 751.5625,689.29375" stroke="#000000" stroke-width="1" /><polyline fill="#FFFFFF" points="740.625,653.375735294 690.625,610.242401961 701.394230769,606.260863499 751.394230769,649.394196833" stroke="#000000" stroke-width="1" /><polyline fill="#FFFFFF" points="690.625,610.242401961 690.625,650.204166667 740.625,693.3375 740.625,653.375735294" stroke="#000000" stroke-width="1" /><polyline fill="#FFFFFF" points="740.625,653.375735294 751.394230769,649.394196833 751.394230769,689.355961538 740.625,693.3375" stroke="#000000" stroke-width="1" /><polyline fill="#FFFFFF" points="729.6875,681.396544118 679.6875,638.263210784 690.456730769,634.281672323 740.456730769,677.415005656" stroke="#000000" stroke-width="1" /><polyline fill="#FFFFFF" points="679.6875,638.263210784 679.6875,654.247916667 729.6875,697.38125 729.6875,681.396544118" stroke="#000000" stroke-width="1" /><polyline fill="#FFFFFF" points="729.6875,681.396544118 740.456730769,677.415005656 740.456730769,693.399711538 729.6875,697.38125" stroke="#000000" stroke-width="1" /><polyline fill="#FFFFFF" points="718.75,690.768529412 668.75,647.635196078 679.519230769,643.653657617 729.519230769,686.78699095" stroke="#000000" stroke-width="1" /><polyline fill="#FFFFFF" points="668.75,647.635196078 668.75,658.291666667 718.75,701.425 718.75,690.768529412" stroke="#000000" stroke-width="1" /><polyline fill="#FFFFFF" points="718.75,690.768529412 729.519230769,686.78699095 729.519230769,697.443461538 718.75,701.425" stroke="#000000" stroke-width="1" /><polyline fill="#FFFFFF" points="707.8125,702.804632353 657.8125,659.67129902 668.581730769,655.689760558 718.581730769,698.823093891" stroke="#000000" stroke-width="1" /><polyline fill="#FFFFFF" points="657.8125,659.67129902 657.8125,662.335416667 707.8125,705.46875 707.8125,702.804632353" stroke="#000000" stroke-width="1" /><polyline fill="#FFFFFF" points="707.8125,702.804632353 718.581730769,698.823093891 718.581730769,701.487211538 707.8125,705.46875" stroke="#000000" stroke-width="1" /><polyline fill="#FFFFFF" points="696.875,701.520147059 646.875,658.386813725 657.644230769,654.405275264 707.644230769,697.538608597" stroke="#000000" stroke-width="1" /><polyline fill="#FFFFFF" points="646.875,658.386813725 646.875,666.379166667 696.875,709.5125 696.875,701.520147059" stroke="#000000" stroke-width="1" /><polyline fill="#FFFFFF" points="696.875,701.520147059 707.644230769,697.538608597 707.644230769,705.530961538 696.875,709.5125" stroke="#000000" stroke-width="1" /><polyline fill="#FFFFFF" points="685.9375,713.55625 635.9375,670.422916667 646.706730769,666.441378205 696.706730769,709.574711538" stroke="#000000" stroke-width="1" /><polyline fill="#FFFFFF" points="635.9375,670.422916667 635.9375,670.422916667 685.9375,713.55625 685.9375,713.55625" stroke="#000000" stroke-width="1" /><polyline fill="#FFFFFF" points="685.9375,713.55625 696.706730769,709.574711538 696.706730769,709.574711538 685.9375,713.55625" stroke="#000000" stroke-width="1" /><polyline fill="#FFFFFF" points="675.0,717.6 625.0,674.466666667 635.769230769,670.485128205 685.769230769,713.618461538" stroke="#000000" stroke-width="1" /><polyline fill="#FFFFFF" points="625.0,674.466666667 625.0,674.466666667 675.0,717.6 675.0,717.6" stroke="#000000" stroke-width="1" /><polyline fill="#FFFFFF" points="675.0,717.6 685.769230769,713.618461538 685.769230769,713.618461538 675.0,717.6" stroke="#000000" stroke-width="1" /><polyline fill="#FFFFFF" points="664.0625,721.64375 614.0625,678.510416667 624.831730769,674.528878205 674.831730769,717.662211538" stroke="#000000" stroke-width="1" /><polyline fill="#FFFFFF" points="614.0625,678.510416667 614.0625,678.510416667 664.0625,721.64375 664.0625,721.64375" stroke="#000000" stroke-width="1" /><polyline fill="#FFFFFF" points="664.0625,721.64375 674.831730769,717.662211538 674.831730769,717.662211538 664.0625,721.64375" stroke="#000000" stroke-width="1" /><polyline fill="#FFFFFF" points="653.125,725.6875 603.125,682.554166667 613.894230769,678.572628205 663.894230769,721.705961538" stroke="#000000" stroke-width="1" /><polyline fill="#FFFFFF" points="603.125,682.554166667 603.125,682.554166667 653.125,725.6875 653.125,725.6875" stroke="#000000" stroke-width="1" /><polyline fill="#FFFFFF" points="653.125,725.6875 663.894230769,721.705961538 663.894230769,721.705961538 653.125,725.6875" stroke="#000000" stroke-width="1" /><polyline fill="#FFFFFF" points="642.1875,727.067132353 592.1875,683.93379902 602.956730769,679.952260558 652.956730769,723.085593891" stroke="#000000" stroke-width="1" /><polyline fill="#FFFFFF" points="592.1875,683.93379902 592.1875,686.597916667 642.1875,729.73125 642.1875,727.067132353" stroke="#000000" stroke-width="1" /><polyline fill="#FFFFFF" points="642.1875,727.067132353 652.956730769,723.085593891 652.956730769,725.749711538 642.1875,729.73125" stroke="#000000" stroke-width="1" /><polyline fill="#FFFFFF" points="631.25,733.775 581.25,690.641666667 592.019230769,686.660128205 642.019230769,729.793461538" stroke="#000000" stroke-width="1" /><polyline fill="#FFFFFF" points="581.25,690.641666667 581.25,690.641666667 631.25,733.775 631.25,733.775" stroke="#000000" stroke-width="1" /><polyline fill="#FFFFFF" points="631.25,733.775 642.019230769,729.793461538 642.019230769,729.793461538 631.25,733.775" stroke="#000000" stroke-width="1" /><polyline fill="#FFFFFF" points="620.3125,727.162279412 570.3125,684.028946078 581.081730769,680.047407617 631.081730769,723.18074095" stroke="#000000" stroke-width="1" /><polyline fill="#FFFFFF" points="570.3125,684.028946078 570.3125,694.685416667 620.3125,737.81875 620.3125,727.162279412" stroke="#000000" stroke-width="1" /><polyline fill="#FFFFFF" points="620.3125,727.162279412 631.081730769,723.18074095 631.081730769,733.837211538 620.3125,737.81875" stroke="#000000" stroke-width="1" /><polyline fill="#FFFFFF" points="609.375,736.534264706 559.375,693.400931373 570.144230769,689.419392911 620.144230769,732.552726244" stroke="#000000" stroke-width="1" /><polyline fill="#FFFFFF" points="559.375,693.400931373 559.375,698.729166667 609.375,741.8625 609.375,736.534264706" stroke="#000000" stroke-width="1" /><polyline fill="#FFFFFF" points="609.375,736.534264706 620.144230769,732.552726244 620.144230769,737.880961538 609.375,741.8625" stroke="#000000" stroke-width="1" /><polyline fill="#FFFFFF" points="598.4375,743.242132353 548.4375,700.10879902 559.206730769,696.127260558 609.206730769,739.260593891" stroke="#000000" stroke-width="1" /><polyline fill="#FFFFFF" points="548.4375,700.10879902 548.4375,702.772916667 598.4375,745.90625 598.4375,743.242132353" stroke="#000000" stroke-width="1" /><polyline fill="#FFFFFF" points="598.4375,743.242132353 609.206730769,739.260593891 609.206730769,741.924711538 598.4375,745.90625" stroke="#000000" stroke-width="1" /><polyline fill="#FFFFFF" points="587.5,747.285882353 537.5,704.15254902 548.269230769,700.171010558 598.269230769,743.304343891" stroke="#000000" stroke-width="1" /><polyline fill="#FFFFFF" points="537.5,704.15254902 537.5,706.816666667 587.5,749.95 587.5,747.285882353" stroke="#000000" stroke-width="1" /><polyline fill="#FFFFFF" points="587.5,747.285882353 598.269230769,743.304343891 598.269230769,745.968461538 587.5,749.95" stroke="#000000" stroke-width="1" /><polyline fill="#FFFFFF" points="576.5625,748.665514706 526.5625,705.532181373 537.331730769,701.550642911 587.331730769,744.683976244" stroke="#000000" stroke-width="1" /><polyline fill="#FFFFFF" points="526.5625,705.532181373 526.5625,710.860416667 576.5625,753.99375 576.5625,748.665514706" stroke="#000000" stroke-width="1" /><polyline fill="#FFFFFF" points="576.5625,748.665514706 587.331730769,744.683976244 587.331730769,750.012211538 576.5625,753.99375" stroke="#000000" stroke-width="1" /><polyline fill="#FFFFFF" points="565.625,752.709264706 515.625,709.575931373 526.394230769,705.594392911 576.394230769,748.727726244" stroke="#000000" stroke-width="1" /><polyline fill="#FFFFFF" points="515.625,709.575931373 515.625,714.904166667 565.625,758.0375 565.625,752.709264706" stroke="#000000" stroke-width="1" /><polyline fill="#FFFFFF" points="565.625,752.709264706 576.394230769,748.727726244 576.394230769,754.055961538 565.625,758.0375" stroke="#000000" stroke-width="1" /><polyline fill="#FFFFFF" points="554.6875,762.08125 504.6875,718.947916667 515.456730769,714.966378205 565.456730769,758.099711538" stroke="#000000" stroke-width="1" /><polyline fill="#FFFFFF" points="504.6875,718.947916667 504.6875,718.947916667 554.6875,762.08125 554.6875,762.08125" stroke="#000000" stroke-width="1" /><polyline fill="#FFFFFF" points="554.6875,762.08125 565.456730769,758.099711538 565.456730769,758.099711538 554.6875,762.08125" stroke="#000000" stroke-width="1" /><polyline fill="#FFFFFF" points="543.75,760.796764706 493.75,717.663431373 504.519230769,713.681892911 554.519230769,756.815226244" stroke="#000000" stroke-width="1" /><polyline fill="#FFFFFF" points="493.75,717.663431373 493.75,722.991666667 543.75,766.125 543.75,760.796764706" stroke="#000000" stroke-width="1" /><polyline fill="#FFFFFF" points="543.75,760.796764706 554.519230769,756.815226244 554.519230769,762.143461538 543.75,766.125" stroke="#000000" stroke-width="1" /><polyline fill="#FFFFFF" points="532.8125,767.504632353 482.8125,724.37129902 493.581730769,720.389760558 543.581730769,763.523093891" stroke="#000000" stroke-width="1" /><polyline fill="#FFFFFF" points="482.8125,724.37129902 482.8125,727.035416667 532.8125,770.16875 532.8125,767.504632353" stroke="#000000" stroke-width="1" /><polyline fill="#FFFFFF" points="532.8125,767.504632353 543.581730769,763.523093891 543.581730769,766.187211538 532.8125,770.16875" stroke="#000000" stroke-width="1" /><polyline fill="#FFFFFF" points="521.875,774.2125 471.875,731.079166667 482.644230769,727.097628205 532.644230769,770.230961538" stroke="#000000" stroke-width="1" /><polyline fill="#FFFFFF" points="471.875,731.079166667 471.875,731.079166667 521.875,774.2125 521.875,774.2125" stroke="#000000" stroke-width="1" /><polyline fill="#FFFFFF" points="521.875,774.2125 532.644230769,770.230961538 532.644230769,770.230961538 521.875,774.2125" stroke="#000000" stroke-width="1" /><polyline fill="#FFFFFF" points="510.9375,775.592132353 460.9375,732.45879902 471.706730769,728.477260558 521.706730769,771.610593891" stroke="#000000" stroke-width="1" /><polyline fill="#FFFFFF" points="460.9375,732.45879902 460.9375,735.122916667 510.9375,778.25625 510.9375,775.592132353" stroke="#000000" stroke-width="1" /><polyline fill="#FFFFFF" points="510.9375,775.592132353 521.706730769,771.610593891 521.706730769,774.274711538 510.9375,778.25625" stroke="#000000" stroke-width="1" /><polyline fill="#FFFFFF" points="500.0,782.3 450.0,739.166666667 460.769230769,735.185128205 510.769230769,778.318461538" stroke="#000000" stroke-width="1" /><polyline fill="#FFFFFF" points="450.0,739.166666667 450.0,739.166666667 500.0,782.3 500.0,782.3" stroke="#000000" stroke-width="1" /><polyline fill="#FFFFFF" points="500.0,782.3 510.769230769,778.318461538 510.769230769,778.318461538 500.0,782.3" stroke="#000000" stroke-width="1" /></g><g id="ticks"><line stroke="#000000" stroke-width="1" x1="500.0" x2="512.5" y1="782.3" y2="793.083333333" /><line stroke="#000000" stroke-width="1" x1="1210.76923077" x2="1223.26923077" y1="519.518461538" y2="530.301794872" /><line stroke="#000000" stroke-width="1" x1="1210.76923077" x2="1223.26923077" y1="412.953755656" y2="412.953755656" /><line stroke="#000000" stroke-width="1" x1="1210.76923077" x2="1223.26923077" y1="306.389049774" y2="306.389049774" /></g><g id="labels"><text alignment-baseline="middle" font-size="16" text-anchor="end" x="200.0" y="552.269933333">Annapolis, MD</text><text alignment-baseline="middle" font-size="16" text-anchor="end" x="325.0" y="660.103266667">Charleston, SC</text><text alignment-baseline="middle" font-size="16" text-anchor="end" x="450.0" y="767.9366">Wilmington, NC</text><text alignment-baseline="before-edge" font-size="16" x="517.5" y="793.083333333">1950</text><text alignment-baseline="before-edge" font-size="16" x="1228.26923077" y="530.301794872">2015</text><text alignment-baseline="middle" font-size="16" x="1228.26923077" y="412.953755656">40 days</text><text alignment-baseline="middle" font-size="16" x="1228.26923077" y="306.389049774">80 days</text></g></svg>