<?xml version="1.0" encoding="utf-8" ?>
<svg baseProfile="full" height="1383.40841986" version="1.1" width="880" xmlns="http://www.w3.org/2000/svg" xmlns:ev="http://www.w3.org/2001/xml-events" xmlns:xlink="http://www.w3.org/1999/xlink"><defs><g id="dollar"><path d="M 68.1,0 2.9,0 C 1.3,0 0,1.3 0,2.9 l 0,29 c 0,1.6 1.3,2.9 2.9,2.9 l 65.2,0 c 1.6,0 2.9,-1.3 2.9,-2.9 l 0,-29 C 71,1.3 69.7,0 68.1,0 Z M 7.9,20.6 c -1.7,0 -3.2,-1.4 -3.2,-3.2 0,-1.7 1.4,-3.2 3.2,-3.2 1.7,0 3.2,1.4 3.2,3.2 0,1.7 -1.4,3.2 -3.2,3.2 z m 27.6,9.2 c -6.1,0 -11,-5.6 -11,-12.4 0,-6.9 4.9,-12.4 11,-12.4 6.1,0 11,5.6 11,12.4 0,6.9 -4.9,12.4 -11,12.4 z m 27.6,-9.2 c -1.7,0 -3.2,-1.4 -3.2,-3.2 0,-1.7 1.4,-3.2 3.2,-3.2 1.7,0 3.2,1.4 3.2,3.2 -0.1,1.7 -1.5,3.2 -3.2,3.2 z" fill="none" stroke="#000000" stroke-width="1" /><path d="M 36.1,16.3 C 35.3,16 34.7,15.7 34.4,15.3 34.1,15 33.9,14.5 33.9,14 c 0,-0.6 0.1,-1 0.4,-1.3 0.3,-0.3 0.7,-0.5 1.3,-0.5 0.6,0 1,0.2 1.3,0.7 0.3,0.4 0.5,0.9 0.5,1.6 0,0.1 0.1,0.2 0.2,0.2 l 2.5,0 c 0.1,0 0.3,-0.1 0.3,-0.3 0,0 0,0 0,0 0,-1.2 -0.4,-2.2 -1,-2.9 C 38.7,10.7 37.9,10.2 36.7,10 36.6,10 36.6,9.9 36.6,9.8 l 0,-1.9 c 0,-0.1 -0.1,-0.2 -0.2,-0.2 l -1.3,0 c -0.1,0 -0.2,0.1 -0.2,0.2 l 0,1.9 c 0,0.1 -0.1,0.2 -0.2,0.2 -1.2,0.1 -2.1,0.6 -2.8,1.3 -0.7,0.7 -1.1,1.7 -1.1,2.8 0,1.2 0.4,2.2 1.1,2.9 0.7,0.7 1.8,1.3 3.3,1.8 0.8,0.3 1.3,0.6 1.6,1 0.3,0.3 0.5,0.8 0.5,1.3 0,0.6 -0.2,1 -0.5,1.3 -0.3,0.3 -0.8,0.5 -1.4,0.5 -0.6,0 -1.2,-0.2 -1.6,-0.6 -0.4,-0.4 -0.6,-1 -0.6,-1.8 0,-0.1 -0.1,-0.1 -0.1,-0.1 l -2.6,0 c -0.1,0 -0.1,0.1 -0.1,0.1 0,0.1 0,0.3 0,0.4 0.1,1.2 0.5,2.2 1.2,2.9 0.8,0.7 1.8,1.2 3,1.3 0.1,0 0.1,0.1 0.1,0.2 l 0,1.7 c 0,0.1 0.1,0.2 0.2,0.2 l 1.3,0 c 0.1,0 0.2,-0.1 0.2,-0.2 l 0,-1.7 c 0,-0.1 0.1,-0.1 0.1,-0.2 1.2,-0.1 2.1,-0.6 2.8,-1.2 0.7,-0.7 1.1,-1.6 1.1,-2.8 0,-1.2 -0.4,-2.1 -1.1,-2.8 -0.6,-0.8 -1.7,-1.4 -3.2,-2 z" fill="none" stroke="#000000" stroke-width="1" /></g></defs><g transform="translate(40.0, 40.0) scale(1.28521126761)"><use xlink:href="#dollar" /></g><g transform="translate(141.25, 40.0) scale(1.28521126761)"><use xlink:href="#dollar" /></g><g transform="translate(242.5, 40.0) scale(1.28521126761)"><use xlink:href="#dollar" /></g><g transform="translate(343.75, 40.0) scale(1.28521126761)"><use xlink:href="#dollar" /></g><g transform="translate(445.0, 40.0) scale(1.28521126761)"><use xlink:href="#dollar" /></g><g transform="translate(546.25, 40.0) scale(1.28521126761)"><use xlink:href="#dollar" /></g><g transform="translate(647.5, 40.0) scale(1.28521126761)"><use xlink:href="#dollar" /></g><g transform="translate(748.75, 40.0) scale(1.28521126761)"><use xlink:href="#dollar" /></g><g transform="translate(40.0, 94.7253508275) scale(1.28521126761)"><use xlink:href="#dollar" /></g><g transform="translate(141.25, 94.7253508275) scale(1.28521126761)"><use xlink:href="#dollar" /></g><g transform="translate(242.5, 94.7253508275) scale(1.28521126761)"><use xlink:href="#dollar" /></g><g transform="translate(343.75, 94.7253508275) scale(1.28521126761)"><use xlink:href="#dollar" /></g><g transform="translate(445.0, 94.7253508275) scale(1.28521126761)"><use xlink:href="#dollar" /></g><g transform="translate(546.25, 94.7253508275) scale(1.28521126761)"><use xlink:href="#dollar" /></g><g transform="translate(647.5, 94.7253508275) scale(1.28521126761)"><use xlink:href="#dollar" /></g><g transform="translate(748.75, 94.7253508275) scale(1.28521126761)"><use xlink:href="#dollar" /></g><g transform="translate(40.0, 149.450701655) scale(1.28521126761)"><use xlink:href="#dollar" /></g><g transform="translate(141.25, 149.450701655) scale(1.28521126761)"><use xlink:href="#dollar" /></g><g transform="translate(242.5, 149.450701655) scale(1.28521126761)"><use xlink:href="#dollar" /></g><g transform="translate(343.75, 149.450701655) scale(1.28521126761)"><use xlink:href="#dollar" /></g><g transform="translate(445.0, 149.450701655) scale(1.28521126761)"><use xlink:href="#dollar" /></g><g transform="translate(546.25, 149.450701655) scale(1.28521126761)"><use xlink:href="#dollar" /></g><g transform="translate(647.5, 149.450701655) scale(1.28521126761)"><use xlink:href="#dollar" /></g><g transform="translate(748.75, 149.450701655) scale(1.28521126761)"><use xlink:href="#dollar" /></g><g transform="translate(40.0, 204.176052482) scale(1.28521126761)"><use xlink:href="#dollar" /></g><g transform="translate(141.25, 204.176052482) scale(1.28521126761)"><use xlink:href="#dollar" /></g><g transform="translate(242.5, 204.176052482) scale(1.28521126761)"><use xlink:href="#dollar" /></g><g transform="translate(343.75, 204.176052482) scale(1.28521126761)"><use xlink:href="#dollar" /></g><g transform="translate(445.0, 204.176052482) scale(1.28521126761)"><use xlink:href="#dollar" /></g><g transform="translate(546.25, 204.176052482) scale(1.28521126761)"><use xlink:href="#dollar" /></g><g transform="translate(647.5, 204.176052482) scale(1.28521126761)"><use xlink:href="#dollar" /></g><g transform="translate(748.75, 204.176052482) scale(1.28521126761)"><use xlink:href="#dollar" /></g><g transform="translate(40.0, 258.90140331) scale(1.28521126761)"><use xlink:href="#dollar" /></g><g transform="translate(141.25, 258.90140331) scale(1.28521126761)"><use xlink:href="#dollar" /></g><g transform="translate(242.5, 258.90140331) scale(1.28521126761)"><use xlink:href="#dollar" /></g><g transform="translate(343.75, 258.90140331) scale(1.28521126761)"><use xlink:href="#dollar" /></g><g transform="translate(445.0, 258.90140331) scale(1.28521126761)"><use xlink:href="#dollar" /></g><g transform="translate(546.25, 258.90140331) scale(1.28521126761)"><use xlink:href="#dollar" /></g><g transform="translate(647.5, 258.90140331) scale(1.28521126761)"><use xlink:href="#dollar" /></g><g transform="translate(748.75, 258.90140331) scale(1.28521126761)"><use xlink:href="#dollar" /></g><g transform="translate(40.0, 313.626754137) scale(1.28521126761)"><use xlink:href="#dollar" /></g><g transform="translate(141.25, 313.626754137) scale(1.28521126761)"><use xlink:href="#dollar" /></g><g transform="translate(242.5, 313.626754137) scale(1.28521126761)"><use xlink:href="#dollar" /></g><g transform="translate(343.75, 313.626754137) scale(1.28521126761)"><use xlink:href="#dollar" /></g><g transform="translate(445.0, 313.626754137) scale(1.28521126761)"><use xlink:href="#dollar" /></g><g transform="translate(546.25, 313.626754137) scale(1.28521126761)"><use xlink:href="#dollar" /></g><g transform="translate(647.5, 313.626754137) scale(1.28521126761)"><use xlink:href="#dollar" /></g><g transform="translate(748.75, 313.626754137) scale(1.28521126761)"><use xlink:href="#dollar" /></g><g transform="translate(40.0, 368.352104965) scale(1.28521126761)"><use xlink:href="#dollar" /></g><g transform="translate(141.25, 368.352104965) scale(1.28521126761)"><use xlink:href="#dollar" /></g><g transform="translate(242.5, 368.352104965) scale(1.28521126761)"><use xlink:href="#dollar" /></g><g transform="translate(343.75, 368.352104965) scale(1.28521126761)"><use xlink:href="#dollar" /></g><g transform="translate(445.0, 368.352104965) scale(1.28521126761)"><use xlink:href="#dollar" /></g><g transform="translate(546.25, 368.352104965) scale(1.28521126761)"><use xlink:href="#dollar" /></g><g transform="translate(647.5, 368.352104965) scale(1.28521126761)"><use xlink:href="#dollar" /></g><g transform="translate(748.75, 368.352104965) scale(1.28521126761)"><use xlink:href="#dollar" /></g><g transform="translate(40.0, 423.077455792) scale(1.28521126761)"><use xlink:href="#dollar" /></g><g transform="translate(141.25, 423.077455792) scale(1.28521126761)"><use xlink:href="#dollar" /></g><g transform="translate(242.5, 423.077455792) scale(1.28521126761)"><use xlink:href="#dollar" /></g><g transform="translate(343.75, 423.077455792) scale(1.28521126761)"><use xlink:href="#dollar" /></g><g transform="translate(445.0, 423.077455792) scale(1.28521126761)"><use xlink:href="#dollar" /></g><g transform="translate(546.25, 423.077455792) scale(1.28521126761)"><use xlink:href="#dollar" /></g><g transform="translate(647.5, 423.077455792) scale(1.28521126761)"><use xlink:href="#dollar" /></g><g transform="translate(748.75, 423.077455792) scale(1.28521126761)"><use xlink:href="#dollar" /></g><g transform="translate(40.0, 477.80280662) scale(1.28521126761)"><use xlink:href="#dollar" /></g><g transform="translate(141.25, 477.80280662) scale(1.28521126761)"><use xlink:href="#dollar" /></g><g transform="translate(242.5, 477.80280662) scale(1.28521126761)"><use xlink:href="#dollar" /></g><g transform="translate(343.75, 477.80280662) scale(1.28521126761)"><use xlink:href="#dollar" /></g><g transform="translate(445.0, 477.80280662) scale(1.28521126761)"><use xlink:href="#dollar" /></g><g transform="translate(546.25, 477.80280662) scale(1.28521126761)"><use xlink:href="#dollar" /></g><g transform="translate(647.5, 477.80280662) scale(1.28521126761)"><use xlink:href="#dollar" /></g><g transform="translate(748.75, 477.80280662) scale(1.28521126761)"><use xlink:href="#dollar" /></g><g transform="translate(40.0, 532.528157447) scale(1.28521126761)"><use xlink:href="#dollar" /></g><g transform="translate(141.25, 532.528157447) scale(1.28521126761)"><use xlink:href="#dollar" /></g><g transform="translate(242.5, 532.528157447) scale(1.28521126761)"><use xlink:href="#dollar" /></g><g transform="translate(343.75, 532.528157447) scale(1.28521126761)"><use xlink:href="#dollar" /></g><g transform="translate(445.0, 532.528157447) scale(1.28521126761)"><use xlink:href="#dollar" /></g><g transform="translate(546.25, 532.528157447) scale(1.28521126761)"><use xlink:href="#dollar" /></g><g transform="translate(647.5, 532.528157447) scale(1.28521126761)"><use xlink:href="#dollar" /></g><g transform="translate(748.75, 532.528157447) scale(1.28521126761)"><use xlink:href="#dollar" /></g><g transform="translate(40.0, 587.253508275) scale(1.28521126761)"><use xlink:href="#dollar" /></g><g transform="translate(141.25, 587.253508275) scale(1.28521126761)"><use xlink:href="#dollar" /></g><g transform="translate(242.5, 587.253508275) scale(1.28521126761)"><use xlink:href="#dollar" /></g><g transform="translate(343.75, 587.253508275) scale(1.28521126761)"><use xlink:href="#dollar" /></g><g transform="translate(445.0, 587.253508275) scale(1.28521126761)"><use xlink:href="#dollar" /></g><g transform="translate(546.25, 587.253508275) scale(1.28521126761)"><use xlink:href="#dollar" /></g><g transform="translate(647.5, 587.253508275) scale(1.28521126761)"><use xlink:href="#dollar" /></g><g transform="translate(748.75, 587.253508275) scale(1.28521126761)"><use xlink:href="#dollar" /></g><g transform="translate(40.0, 641.978859102) scale(1.28521126761)"><use xlink:href="#dollar" /></g><g transform="translate(141.25, 641.978859102) scale(1.28521126761)"><use xlink:href="#dollar" /></g><g transform="translate(242.5, 641.978859102) scale(1.28521126761)"><use xlink:href="#dollar" /></g><g transform="translate(343.75, 641.978859102) scale(1.28521126761)"><use xlink:href="#dollar" /></g><g transform="translate(445.0, 641.978859102) scale(1.28521126761)"><use xlink:href="#dollar" /></g><g transform="translate(546.25, 641.978859102) scale(1.28521126761)"><use xlink:href="#dollar" /></g><g transform="translate(647.5, 641.978859102) scale(1.28521126761)"><use xlink:href="#dollar" /></g><g transform="translate(748.75, 641.978859102) scale(1.28521126761)"><use xlink:href="#dollar" /></g><g transform="translate(40.0, 696.70420993) scale(1.28521126761)"><use xlink:href="#dollar" /></g><g transform="translate(141.25, 696.70420993) scale(1.28521126761)"><use xlink:href="#dollar" /></g><g transform="translate(242.5, 696.70420993) scale(1.28521126761)"><use xlink:href="#dollar" /></g><g transform="translate(343.75, 696.70420993) scale(1.28521126761)"><use xlink:href="#dollar" /></g><g transform="translate(445.0, 696.70420993) scale(1.28521126761)"><use xlink:href="#dollar" /></g><g transform="translate(546.25, 696.70420993) scale(1.28521126761)"><use xlink:href="#dollar" /></g><g transform="translate(647.5, 696.70420993) scale(1.28521126761)"><use xlink:href="#dollar" /></g><g transform="translate(748.75, 696.70420993) scale(1.28521126761)"><use xlink:href="#dollar" /></g><g transform="translate(40.0, 751.429560757) scale(1.28521126761)"><use xlink:href="#dollar" /></g><g transform="translate(141.25, 751.429560757) scale(1.28521126761)"><use xlink:href="#dollar" /></g><g transform="translate(242.5, 751.429560757) scale(1.28521126761)"><use xlink:href="#dollar" /></g><g transform="translate(343.75, 751.429560757) scale(1.28521126761)"><use xlink:href="#dollar" /></g><g transform="translate(445.0, 751.429560757) scale(1.28521126761)"><use xlink:href="#dollar" /></g><g transform="translate(546.25, 751.429560757) scale(1.28521126761)"><use xlink:href="#dollar" /></g><g transform="translate(647.5, 751.429560757) scale(1.28521126761)"><use xlink:href="#dollar" /></g><g transform="translate(748.75, 751.429560757) scale(1.28521126761)"><use xlink:href="#dollar" /></g><g transform="translate(40.0, 806.154911585) scale(1.28521126761)"><use xlink:href="#dollar" /></g><g transform="translate(141.25, 806.154911585) scale(1.28521126761)"><use xlink:href="#dollar" /></g><g transform="translate(242.5, 806.154911585) scale(1.28521126761)"><use xlink:href="#dollar" /></g><g transform="translate(343.75, 806.154911585) scale(1.28521126761)"><use xlink:href="#dollar" /></g><g transform="translate(445.0, 806.154911585) scale(1.28521126761)"><use xlink:href="#dollar" /></g><g transform="translate(546.25, 806.154911585) scale(1.28521126761)"><use xlink:href="#dollar" /></g><g transform="translate(647.5, 806.154911585) scale(1.28521126761)"><use xlink:href="#dollar" /></g><g transform="translate(748.75, 806.154911585) scale(1.28521126761)"><use xlink:href="#dollar" /></g><g transform="translate(40.0, 860.880262412) scale(1.28521126761)"><use xlink:href="#dollar" /></g><g transform="translate(141.25, 860.880262412) scale(1.28521126761)"><use xlink:href="#dollar" /></g><g transform="translate(242.5, 860.880262412) scale(1.28521126761)"><use xlink:href="#dollar" /></g><g transform="translate(343.75, 860.880262412) scale(1.28521126761)"><use xlink:href="#dollar" /></g><g transform="translate(445.0, 860.880262412) scale(1.28521126761)"><use xlink:href="#dollar" /></g><g transform="translate(546.25, 860.880262412) scale(1.28521126761)"><use xlink:href="#dollar" /></g><g transform="translate(647.5, 860.880262412) scale(1.28521126761)"><use xlink:href="#dollar" /></g><g transform="translate(748.75, 860.880262412) scale(1.28521126761)"><use xlink:href="#dollar" /></g><g transform="translate(40.0, 915.605613239) scale(1.28521126761)"><use xlink:href="#dollar" /></g><g transform="translate(141.25, 915.605613239) scale(1.28521126761)"><use xlink:href="#dollar" /></g><g transform="translate(242.5, 915.605613239) scale(1.28521126761)"><use xlink:href="#dollar" /></g><g transform="translate(343.75, 915.605613239) scale(1.28521126761)"><use xlink:href="#dollar" /></g><g transform="translate(445.0, 915.605613239) scale(1.28521126761)"><use xlink:href="#dollar" /></g><g transform="translate(546.25, 915.605613239) scale(1.28521126761)"><use xlink:href="#dollar" /></g><g transform="translate(647.5, 915.605613239) scale(1.28521126761)"><use xlink:href="#dollar" /></g><g transform="translate(748.75, 915.605613239) scale(1.28521126761)"><use xlink:href="#dollar" /></g><g transform="translate(40.0, 970.330964067) scale(1.28521126761)"><use xlink:href="#dollar" /></g><g transform="translate(141.25, 970.330964067) scale(1.28521126761)"><use xlink:href="#dollar" /></g><g transform="translate(242.5, 970.330964067) scale(1.28521126761)"><use xlink:href="#dollar" /></g><g transform="translate(343.75, 970.330964067) scale(1.28521126761)"><use xlink:href="#dollar" /></g><g transform="translate(445.0, 970.330964067) scale(1.28521126761)"><use xlink:href="#dollar" /></g><g transform="translate(546.25, 970.330964067) scale(1.28521126761)"><use xlink:href="#dollar" /></g><g transform="translate(647.5, 970.330964067) scale(1.28521126761)"><use xlink:href="#dollar" /></g><g transform="translate(748.75, 970.330964067) scale(1.28521126761)"><use xlink:href="#dollar" /></g><g transform="translate(40.0, 1025.05631489) scale(1.28521126761)"><use xlink:href="#dollar" /></g><g transform="translate(141.25, 1025.05631489) scale(1.28521126761)"><use xlink:href="#dollar" /></g><g transform="translate(242.5, 1025.05631489) scale(1.28521126761)"><use xlink:href="#dollar" /></g><g transform="translate(343.75, 1025.05631489) scale(1.28521126761)"><use xlink:href="#dollar" /></g><g transform="translate(445.0, 1025.05631489) scale(1.28521126761)"><use xlink:href="#dollar" /></g><g transform="translate(546.25, 1025.05631489) scale(1.28521126761)"><use xlink:href="#dollar" /></g><g transform="translate(647.5, 1025.05631489) scale(1.28521126761)"><use xlink:href="#dollar" /></g><g transform="translate(748.75, 1025.05631489) scale(1.28521126761)"><use xlink:href="#dollar" /></g><g transform="translate(40.0, 1079.78166572) scale(1.28521126761)"><use xlink:href="#dollar" /></g><g transform="translate(141.25, 1079.78166572) scale(1.28521126761)"><use xlink:href="#dollar" /></g><g transform="translate(242.5, 1079.78166572) scale(1.28521126761)"><use xlink:href="#dollar" /></g><g transform="translate(343.75, 1079.78166572) scale(1.28521126761)"><use xlink:href="#dollar" /></g><g transform="translate(445.0, 1079.78166572) scale(1.28521126761)"><use xlink:href="#dollar" /></g><g transform="translate(546.25, 1079.78166572) scale(1.28521126761)"><use xlink:href="#dollar" /></g><g transform="translate(647.5, 1079.78166572) scale(1.28521126761)"><use xlink:href="#dollar" /></g><g transform="translate(748.75, 1079.78166572) scale(1.28521126761)"><use xlink:href="#dollar" /></g><g transform="translate(40.0, 1134.50701655) scale(1.28521126761)"><use xlink:href="#dollar" /></g><g transform="translate(141.25, 1134.50701655) scale(1.28521126761)"><use xlink:href="#dollar" /></g><g transform="translate(242.5, 1134.50701655) scale(1.28521126761)"><use xlink:href="#dollar" /></g><g transform="translate(343.75, 1134.50701655) scale(1.28521126761)"><use xlink:href="#dollar" /></g><g transform="translate(445.0, 1134.50701655) scale(1.28521126761)"><use xlink:href="#dollar" /></g><g transform="translate(546.25, 1134.50701655) scale(1.28521126761)"><use xlink:href="#dollar" /></g><g transform="translate(647.5, 1134.50701655) scale(1.28521126761)"><use xlink:href="#dollar" /></g><g transform="translate(748.75, 1134.50701655) scale(1.28521126761)"><use xlink:href="#dollar" /></g><g transform="translate(40.0, 1189.23236738) scale(1.28521126761)"><use xlink:href="#dollar" /></g><g transform="translate(141.25, 1189.23236738) scale(1.28521126761)"><use xlink:href="#dollar" /></g><g transform="translate(242.5, 1189.23236738) scale(1.28521126761)"><use xlink:href="#dollar" /></g><g transform="translate(343.75, 1189.23236738) scale(1.28521126761)"><use xlink:href="#dollar" /></g><g transform="translate(445.0, 1189.23236738) scale(1.28521126761)"><use xlink:href="#dollar" /></g><g transform="translate(546.25, 1189.23236738) scale(1.28521126761)"><use xlink:href="#dollar" /></g><g transform="translate(647.5, 1189.23236738) scale(1.28521126761)"><use xlink:href="#dollar" /></g><g transform="translate(748.75, 1189.23236738) scale(1.28521126761)"><use xlink:href="#dollar" /></g><g transform="translate(40.0, 1243.9577182) scale(1.28521126761)"><use xlink:href="#dollar" /></g><g transform="translate(141.25, 1243.9577182) scale(1.28521126761)"><use xlink:href="#dollar" /></g><g transform="translate(242.5, 1243.9577182) scale(1.28521126761)"><use xlink:href="#dollar" /></g><g transform="translate(343.75, 1243.9577182) scale(1.28521126761)"><use xlink:href="#dollar" /></g><g transform="translate(445.0, 1243.9577182) scale(1.28521126761)"><use xlink:href="#dollar" /></g><g transform="translate(546.25, 1243.9577182) scale(1.28521126761)"><use xlink:href="#dollar" /></g><g transform="translate(647.5, 1243.9577182) scale(1.28521126761)"><use xlink:href="#dollar" /></g><g transform="translate(748.75, 1243.9577182) scale(1.28521126761)"><use xlink:href="#dollar" /></g><g transform="translate(40.0, 1298.68306903) scale(1.28521126761)"><use xlink:href="#dollar" /></g><g transform="translate(141.25, 1298.68306903) scale(1.28521126761)"><use xlink:href="#dollar" /></g><g transform="translate(242.5, 1298.68306903) scale(1.28521126761)"><use xlink:href="#dollar" /></g><g transform="translate(343.75, 1298.68306903) scale(1.28521126761)"><use xlink:href="#dollar" /></g><g transform="translate(445.0, 1298.68306903) scale(1.28521126761)"><use xlink:href="#dollar" /></g><g transform="translate(546.25, 1298.68306903) scale(1.28521126761)"><use xlink:href="#dollar" /></g><g transform="translate(647.5, 1298.68306903) scale(1.28521126761)"><use xlink:href="#dollar" /></g><g transform="translate(748.75, 1298.68306903) scale(1.28521126761)"><use xlink:href="#dollar" /></g></svg>