<?xml version="1.0" encoding="utf-8" ?>
<svg baseProfile="full" height="1080" version="1.1" width="880" xmlns="http://www.w3.org/2000/svg" xmlns:ev="http://www.w3.org/2001/xml-events" xmlns:xlink="http://www.w3.org/1999/xlink"><defs><g id="incandescent"><path d="m 13.018,54.003 14,0 0,-10 -14,0 0,10 z m 15,2 -16,0 c -0.552,0 -1,-0.447 -1,-1 l 0,-12 c 0,-0.552 0.448,-1 1,-1 l 16,0 c 0.552,0 1,0.448 1,1 l 0,12 c 0,0.553 -0.448,1 -1,1 l 0,0 z" fill="#000000" /><path d="m 16.0178,56.0035 0.9,1.2 c 0.376,0.501 0.974,0.8 1.6,0.8 l 3,0 c 0.626,0 1.224,-0.299 1.6,-0.8 l 0.9,-1.2 -8,0 z m 5.5,4 -3,0 c -1.253,0 -2.449,-0.599 -3.2,-1.601 l -2.1,-2.799 c -0.227,-0.303 -0.264,-0.708 -0.095,-1.047 0.17,-0.339 0.516,-0.553 0.895,-0.553 l 12,0 c 0.379,0 0.725,0.214 0.895,0.553 0.169,0.339 0.132,0.744 -0.095,1.047 l -2.1,2.799 c -0.751,1.002 -1.947,1.601 -3.2,1.601 l 0,0 z" fill="#000000" /><path d="m 19.0178,48.0035 -7,0 c -0.552,0 -1,-0.447 -1,-1 0,-0.553 0.448,-1 1,-1 l 7,0 c 0.552,0 1,0.447 1,1 0,0.553 -0.448,1 -1,1" fill="#000000" /><path d="m 28.0178,52.0035 -7,0 c -0.552,0 -1,-0.447 -1,-1 0,-0.553 0.448,-1 1,-1 l 7,0 c 0.552,0 1,0.447 1,1 0,0.553 -0.448,1 -1,1" fill="#000000" /><path d="m 28.0178,48.0035 -4,0 c -0.552,0 -1,-0.447 -1,-1 0,-0.553 0.448,-1 1,-1 l 4,0 c 0.552,0 1,0.447 1,1 0,0.553 -0.448,1 -1,1" fill="#000000" /><path d="m 16.0178,52.0035 -4,0 c -0.552,0 -1,-0.447 -1,-1 0,-0.553 0.448,-1 1,-1 l 4,0 c 0.552,0 1,0.447 1,1 0,0.553 -0.448,1 -1,1" fill="#000000" /><path d="m 12.8088,42.0035 14.418,0 c 0.77,-2.863 2.56,-5.74 5.103,-8.179 4.173,-4.003 6.205,-9.616 5.574,-15.401 -0.928,-8.504 -7.769,-15.359 -16.267,-16.302 -0.505,-0.056 -1.043,-0.091 -1.643,-0.104 -0.552,0.013 -1.09,0.048 -1.596,0.104 -8.497,0.943 -15.339,7.798 -16.266,16.302 -0.631,5.785 1.401,11.398 5.574,15.401 2.543,2.439 4.333,5.316 5.103,8.179 m 15.209,2 -16,0 c -0.476,0 -0.886,-0.335 -0.98,-0.802 -0.552,-2.728 -2.227,-5.546 -4.716,-7.933 -4.625,-4.436 -6.877,-10.655 -6.179,-17.062 1.029,-9.428 8.614,-17.028 18.035,-18.073 0.564,-0.063 1.158,-0.101 1.816,-0.116 0.706,0.015 1.3,0.053 1.863,0.116 9.422,1.045 17.007,8.645 18.035,18.073 0.699,6.407 -1.553,12.626 -6.178,17.062 -2.489,2.387 -4.164,5.205 -4.716,7.933 -0.094,0.467 -0.504,0.802 -0.98,0.802" fill="#000000" /><path d="m 14.0178,21.0035 c -1.103,0 -2,0.897 -2,2 0,1.103 0.897,2 2,2 l 2,0 0,-2 c 0,-1.103 -0.897,-2 -2,-2 l 0,0 z m 10,4 2,0 c 1.103,0 2,-0.897 2,-2 0,-1.103 -0.897,-2 -2,-2 -1.103,0 -2,0.897 -2,2 l 0,2 z m -1,19 c -0.552,0 -1,-0.447 -1,-1 l 0,-16 -4,0 0,16 c 0,0.553 -0.448,1 -1,1 -0.552,0 -1,-0.447 -1,-1 l 0,-16 -2,0 c -2.206,0 -4,-1.794 -4,-4 0,-2.206 1.794,-4 4,-4 2.206,0 4,1.794 4,4 l 0,2 4,0 0,-2 c 0,-2.206 1.794,-4 4,-4 2.206,0 4,1.794 4,4 0,2.206 -1.794,4 -4,4 l -2,0 0,16 c 0,0.553 -0.448,1 -1,1 l 0,0 z" fill="#000000" /></g><g id="cfl"><path d="m 31.424817,23.38 c 0.41,-0.36 0.78,-0.77 1.06,-1.26 0.67,-1.16 0.85,-2.51 0.5,-3.79 -0.3,-1.11 -0.96,-2.04 -1.83,-2.7 0.89,-0.43 1.63,-1.12 2.14,-2 0.67,-1.16 0.85,-2.5 0.5,-3.79 -0.58,-2.18 -2.57,-3.71 -4.84,-3.71 -0.43,0 -0.87,0.06 -1.29,0.17 l -2.13,0.57 c 0.4,-0.98 0.51,-2.08 0.22,-3.17 -0.57,-2.18 -2.56,-3.7 -4.82,-3.7 -0.43,0 -0.87,0.06 -1.28,0.17 L 8.6848166,3.03 c -1.29,0.35 -2.37,1.18 -3.03,2.34 -0.67,1.16 -0.85,2.51 -0.5,3.79 0.3,1.11 0.96,2.04 1.83,2.7 l -2.47,0.66 c -1.29,0.34 -2.36,1.17 -3.03,2.33 -0.66999999,1.16 -0.84999999,2.51 -0.49999999,3.79 0.29999999,1.11 0.95999999,2.04 1.82999999,2.7 -0.89,0.43 -1.63,1.12 -2.13999999,2 -0.67,1.16 -0.85,2.51 -0.5,3.79 0.58,2.18 2.56999999,3.71 4.83999999,3.71 0.43,0 0.87,-0.06 1.29,-0.17 l 6.5400004,-1.75 c -0.53,0.93 -0.83,2 -0.83,3.12 l 0,2.96 -7.5700004,0 c -1.36,0 -2.47,1.11 -2.47,2.47 l 0,5.42 c 0,3.54 2.61,6.48 6,7.01 l 0,1.1 0,2 0,3 2.5000004,0 3,4 7,0 3,-4 2.5,0 0,-3 0,-2 0,-1.1 c 3.39,-0.54 6,-3.47 6,-7.01 l 0,-5.42 c 0,-1.36 -1.1,-2.47 -2.46,-2.47 l -7.9,0 c 0.13,-0.09 0.27,-0.15 0.43,-0.2 l 8.23,-2.25 c 1.29,-0.34 2.36,-1.17 3.03,-2.33 0.67,-1.16 0.85,-2.51 0.5,-3.79 -0.35,-1.33 -1.24,-2.41 -2.38,-3.05 z M 7.3848166,6.37 c 0.4,-0.7 1.05,-1.19 1.81,-1.4 L 20.164817,2.1 c 0.25,-0.07 0.51,-0.1 0.77,-0.1 1.36,0 2.55,0.91 2.9,2.22 0.43,1.6 -0.52,3.25 -2.12,3.67 l -10.97,2.87 C 9.1748166,11.18 7.4948166,10.2 7.0748166,8.64 c -0.2,-0.77 -0.1,-1.58 0.31,-2.27 z m -4.18,9.48 c 0.4,-0.7 1.05,-1.19 1.82,-1.4 L 28.204817,8.24 c 0.25,-0.07 0.51,-0.1 0.77,-0.1 1.36,0 2.55,0.91 2.91,2.22 0.21,0.77 0.1,1.58 -0.3,2.27 -0.4,0.7 -1.05,1.19 -1.82,1.4 l -2.65,0.71 c -0.08,0.02 -0.16,0.03 -0.24,0.05 L 6.4248166,20.27 c -1.53,0.32 -3.12,-0.64 -3.53,-2.14 -0.2,-0.78 -0.1,-1.58 0.31,-2.28 z m 2.55,12.88 c -1.58,0.42 -3.26,-0.56 -3.67,-2.12 -0.21,-0.77 -0.1,-1.58 0.3,-2.27 0.4,-0.69 1.05,-1.19 1.82,-1.4 l 2.65,-0.71 c 0.08,-0.02 0.16,-0.03 0.24,-0.05 L 27.504817,16.71 c 0.21,-0.05 0.43,-0.09 0.65,-0.09 1.36,0 2.55,0.91 2.91,2.22 0.21,0.77 0.1,1.58 -0.3,2.27 -0.4,0.7 -1.05,1.19 -1.82,1.4 L 5.7548166,28.73 Z M 19.474817,58 l -5,0 -1.5,-2 8,0 -1.5,2 z m 4.5,-4 -14.0000004,0 0,-1 14.0000004,0 0,1 z m -14.0000004,-3 0,-1 14.0000004,0 0,1 -14.0000004,0 z m 20.0000004,-13.53 0,5.42 c 0,2.82 -2.29,5.11 -5.11,5.11 L 9.0848166,48 c -2.82,0 -5.11,-2.29 -5.11,-5.11 l 0,-5.42 c 0,-0.26 0.21,-0.47 0.47,-0.47 l 7.5300004,0 8,0 9.53,0 c 0.26,0 0.47,0.21 0.47,0.47 z m 1.6,-8.25 c -0.4,0.7 -1.05,1.19 -1.82,1.4 l -8.24,2.25 c -1.09,0.3 -1.94,1.11 -2.32,2.13 l -5.22,0 0,-2.97 c 0,-1.96 1.32,-3.69 3.23,-4.2 l 11,-3 c 0.25,-0.07 0.51,-0.1 0.77,-0.1 1.36,0 2.55,0.91 2.91,2.22 0.2,0.77 0.09,1.58 -0.31,2.27 z" fill="#000000" /></g><g id="led"><path d="M 40,18.88 C 40,7.06 32.52,0 20,0 7.48,0 0,7.06 0,18.88 l 0,1 0.03,0 c 0.3,9.76 4.96,16.37 8.08,20.79 1.55,2.18 2.89,4.07 2.89,5.27 l 0,1.93 0,2 0,2 0,4 2.5,0 3,4 7,0 3,-4 2.5,0 0,-4 0,-2 0,-2 0,-1.93 c 0,-1.2 1.34,-3.09 2.89,-5.28 3.12,-4.42 7.78,-11.03 8.08,-20.79 l 0.03,0 0,-0.99 z M 20.52,2.01 c 0.06,0 0.12,0 0.18,0.01 0.13,0 0.25,0.01 0.38,0.01 0.08,0 0.16,0.01 0.23,0.01 0.12,0.01 0.24,0.01 0.36,0.02 0.09,0.01 0.18,0.01 0.27,0.02 0.12,0.01 0.23,0.02 0.35,0.03 0.1,0.01 0.2,0.02 0.3,0.03 0.12,0.01 0.23,0.02 0.35,0.04 0.1,0.01 0.2,0.02 0.3,0.04 0.12,0.02 0.25,0.03 0.37,0.05 0.11,0.01 0.22,0.03 0.32,0.05 0.12,0.02 0.24,0.04 0.37,0.06 0.11,0.02 0.23,0.04 0.35,0.06 0.12,0.02 0.24,0.04 0.37,0.07 0.12,0.02 0.23,0.05 0.35,0.07 0.12,0.03 0.25,0.05 0.37,0.08 0.12,0.03 0.24,0.06 0.35,0.09 0.13,0.03 0.25,0.06 0.38,0.1 0.12,0.03 0.24,0.07 0.36,0.1 0.14,0.01 0.27,0.05 0.4,0.09 0.12,0.04 0.24,0.08 0.37,0.12 0.13,0.04 0.25,0.08 0.38,0.13 0.12,0.04 0.25,0.09 0.37,0.14 0.12,0.05 0.25,0.09 0.37,0.14 0.12,0.05 0.24,0.1 0.37,0.16 0.12,0.05 0.25,0.11 0.37,0.16 0.12,0.06 0.24,0.11 0.36,0.17 0.12,0.06 0.25,0.12 0.37,0.19 0.12,0.06 0.24,0.13 0.36,0.19 0.12,0.07 0.24,0.13 0.36,0.21 0.12,0.07 0.23,0.14 0.35,0.22 0.12,0.07 0.24,0.15 0.35,0.23 0.12,0.08 0.23,0.16 0.34,0.24 0.11,0.08 0.23,0.16 0.34,0.25 0.11,0.08 0.22,0.17 0.33,0.26 0.11,0.09 0.22,0.18 0.33,0.28 0.11,0.09 0.21,0.19 0.32,0.28 0.11,0.1 0.22,0.2 0.32,0.3 0.1,0.1 0.2,0.2 0.3,0.31 0.1,0.11 0.21,0.22 0.31,0.33 0.1,0.11 0.19,0.22 0.29,0.33 0.1,0.12 0.19,0.24 0.29,0.36 0.09,0.12 0.18,0.24 0.27,0.36 0.09,0.13 0.18,0.26 0.27,0.39 0.09,0.13 0.17,0.26 0.25,0.39 0.09,0.14 0.17,0.28 0.25,0.42 0.08,0.14 0.16,0.27 0.23,0.42 0.08,0.15 0.15,0.3 0.23,0.45 0.07,0.15 0.14,0.29 0.21,0.44 0.07,0.16 0.14,0.32 0.2,0.48 0.06,0.16 0.13,0.31 0.19,0.48 0.06,0.17 0.12,0.34 0.18,0.52 0.05,0.17 0.11,0.33 0.16,0.51 0.05,0.18 0.1,0.37 0.15,0.56 0.05,0.18 0.09,0.35 0.13,0.54 0.04,0.19 0.08,0.39 0.12,0.59 0.04,0.19 0.07,0.37 0.1,0.57 0.03,0.21 0.06,0.42 0.09,0.64 0.03,0.2 0.05,0.39 0.07,0.6 0.02,0.22 0.04,0.45 0.05,0.68 0.02,0.21 0.03,0.42 0.04,0.63 0,0.06 0,0.13 0.01,0.2 l -3.98,0 -5.89,0 -16.22,0 -5.89,0 -3.97,0 c 0,-0.06 0,-0.13 0.01,-0.2 C 2.05,17.49 2.07,17.29 2.08,17.08 2.1,16.85 2.11,16.63 2.13,16.4 2.15,16.2 2.18,16 2.2,15.8 2.23,15.59 2.26,15.37 2.29,15.16 2.32,14.97 2.36,14.78 2.39,14.59 2.43,14.39 2.47,14.19 2.51,14 2.55,13.82 2.6,13.64 2.64,13.46 2.69,13.27 2.74,13.09 2.79,12.9 2.84,12.73 2.89,12.56 2.95,12.39 3.01,12.22 3.07,12.04 3.13,11.87 3.19,11.71 3.25,11.55 3.32,11.39 3.39,11.23 3.45,11.06 3.52,10.91 3.59,10.76 3.66,10.61 3.73,10.47 3.8,10.3 3.88,10.15 3.95,10 4.02,9.86 4.1,9.72 4.18,9.59 4.26,9.45 4.34,9.31 4.43,9.17 4.52,9.04 4.6,8.91 4.69,8.78 4.78,8.65 4.86,8.52 4.96,8.4 5.05,8.28 5.14,8.16 5.23,8.04 5.32,7.92 5.42,7.8 5.52,7.68 5.61,7.56 5.71,7.45 5.8,7.34 5.9,7.23 6,7.12 6.11,7.01 6.21,6.91 6.31,6.8 6.41,6.7 6.52,6.6 6.62,6.5 6.73,6.4 6.84,6.3 6.94,6.21 7.05,6.12 7.16,6.03 7.27,5.93 7.38,5.84 7.49,5.75 7.6,5.67 7.72,5.58 7.83,5.5 7.94,5.41 8.06,5.33 8.17,5.25 8.29,5.17 8.4,5.09 8.52,5.01 8.63,4.94 8.75,4.86 8.87,4.79 8.99,4.72 9.1,4.65 9.22,4.58 9.34,4.51 9.46,4.44 9.58,4.38 9.7,4.31 9.82,4.25 9.94,4.19 10.07,4.13 10.19,4.06 10.31,4 10.43,3.94 10.55,3.89 10.67,3.83 10.8,3.78 10.92,3.73 11.04,3.68 11.16,3.62 11.29,3.57 11.41,3.52 11.54,3.47 11.66,3.43 11.78,3.38 11.91,3.34 12.03,3.29 12.16,3.25 12.28,3.2 12.41,3.16 12.53,3.12 12.65,3.08 12.78,3.04 12.9,3 13.03,2.96 13.15,2.93 13.27,2.9 13.39,2.86 13.51,2.83 13.64,2.8 13.76,2.76 13.89,2.73 14.01,2.7 14.13,2.67 14.24,2.64 14.37,2.61 14.49,2.58 14.62,2.56 14.74,2.53 14.85,2.51 14.97,2.49 15.09,2.47 15.21,2.44 15.34,2.42 15.45,2.4 15.57,2.38 15.68,2.36 15.8,2.34 15.93,2.32 16.05,2.3 16.16,2.28 16.27,2.27 16.37,2.25 16.49,2.23 16.62,2.22 16.74,2.2 c 0.1,-0.01 0.2,-0.03 0.3,-0.04 0.12,-0.01 0.24,-0.02 0.35,-0.04 0.1,-0.01 0.2,-0.02 0.3,-0.03 0.12,-0.01 0.23,-0.02 0.35,-0.03 0.09,-0.01 0.18,-0.01 0.27,-0.02 0.12,-0.01 0.24,-0.01 0.36,-0.02 0.08,0 0.16,-0.01 0.23,-0.01 C 19.03,2 19.16,2 19.28,2 19.34,2 19.4,2 19.46,1.99 19.66,2 19.83,2 20,2 c 0.17,0 0.34,0 0.52,0.01 z m -8.41,17.87 c 0.98,8.76 2.3,12.08 3.9,15.44 0.88,1.84 1.18,3.12 1.9,10.56 l -1.01,0 C 16.13,39.83 15.03,38.27 13.86,36.62 11.08,32.69 8.25,27.65 8.02,19.88 l 4.09,0 z m 5.7,14.58 c -1.56,-3.27 -2.75,-6.28 -3.7,-14.58 l 11.77,0 c -0.9,8.04 -1.93,11.16 -3.68,14.55 -1.12,2.17 -1.42,4.06 -2.12,11.45 l -0.18,0 C 19.2,38.37 18.87,36.69 17.81,34.46 Z m 6.17,0.88 c 1.84,-3.56 2.97,-7.01 3.91,-15.47 l 4.09,0 c -0.23,7.77 -3.06,12.82 -5.84,16.74 -1.17,1.65 -2.27,3.21 -3.04,9.26 l -1,0 c 0.69,-7.29 0.97,-8.77 1.88,-10.53 z M 9.75,39.51 C 6.6,35.05 2.33,28.99 2.03,19.88 l 3.99,0 c 0.23,8.33 3.24,13.72 6.2,17.9 1.05,1.48 1.96,2.76 2.65,8.1 l -1.87,0 C 12.97,44.06 11.61,42.14 9.75,39.51 Z m 12.75,18.37 -5,0 -1.5,-2 8,0 -1.5,2 z m 4.5,-4 -14,0 0,-2 14,0 0,2 z m 0,-4 -14,0 0,-2 2.11,0 2.98,0 3.82,0 2.98,0 2.11,0 0,2 z m 3.25,-10.37 c -1.87,2.64 -3.22,4.55 -3.25,6.37 l -1.87,0 c 0.7,-5.34 1.61,-6.63 2.65,-8.1 2.96,-4.18 5.97,-9.57 6.2,-17.9 l 3.99,0 c -0.3,9.11 -4.56,15.17 -7.72,19.63 z" fill="#000000" /></g></defs><g><use transform="translate(40, 40) scale(1.2666985558)" xlink:href="#incandescent" /><use transform="translate(90.6666666667, 40) scale(1.2666985558)" xlink:href="#incandescent" /><use transform="translate(141.333333333, 40) scale(1.2666985558)" xlink:href="#incandescent" /><use transform="translate(192.0, 40) scale(1.2666985558)" xlink:href="#incandescent" /><use transform="translate(242.666666667, 40) scale(1.2666985558)" xlink:href="#incandescent" /><use transform="translate(40, 130.0) scale(1.2666985558)" xlink:href="#incandescent" /><use transform="translate(90.6666666667, 130.0) scale(1.2666985558)" xlink:href="#incandescent" /><use transform="translate(141.333333333, 130.0) scale(1.2666985558)" xlink:href="#incandescent" /><use transform="translate(192.0, 130.0) scale(1.2666985558)" xlink:href="#incandescent" /><use transform="translate(242.666666667, 130.0) scale(1.2666985558)" xlink:href="#incandescent" /><use transform="translate(40, 220.0) scale(1.2666985558)" xlink:href="#incandescent" /><use transform="translate(90.6666666667, 220.0) scale(1.2666985558)" xlink:href="#incandescent" /><use transform="translate(141.333333333, 220.0) scale(1.2666985558)" xlink:href="#incandescent" /><use transform="translate(192.0, 220.0) scale(1.2666985558)" xlink:href="#incandescent" /><use transform="translate(242.666666667, 220.0) scale(1.2666985558)" xlink:href="#incandescent" /><use transform="translate(40, 310.0) scale(1.2666985558)" xlink:href="#incandescent" /><use transform="translate(90.6666666667, 310.0) scale(1.2666985558)" xlink:href="#incandescent" /><use transform="translate(141.333333333, 310.0) scale(1.2666985558)" xlink:href="#incandescent" /><use transform="translate(192.0, 310.0) scale(1.2666985558)" xlink:href="#incandescent" /><use transform="translate(242.666666667, 310.0) scale(1.2666985558)" xlink:href="#incandescent" /><use transform="translate(40, 400.0) scale(1.2666985558)" xlink:href="#incandescent" /><use transform="translate(90.6666666667, 400.0) scale(1.2666985558)" xlink:href="#incandescent" /><use transform="translate(141.333333333, 400.0) scale(1.2666985558)" xlink:href="#incandescent" /><use transform="translate(192.0, 400.0) scale(1.2666985558)" xlink:href="#incandescent" /><use transform="translate(242.666666667, 400.0) scale(1.2666985558)" xlink:href="#incandescent" /><use transform="translate(40, 490.0) scale(1.2666985558)" xlink:href="#incandescent" /><use transform="translate(90.6666666667, 490.0) scale(1.2666985558)" xlink:href="#incandescent" /><use transform="translate(141.333333333, 490.0) scale(1.2666985558)" xlink:href="#incandescent" /><use transform="translate(192.0, 490.0) scale(1.2666985558)" xlink:href="#incandescent" /><use transform="translate(242.666666667, 490.0) scale(1.2666985558)" xlink:href="#incandescent" /><use transform="translate(40, 580.0) scale(1.2666985558)" xlink:href="#incandescent" /><use transform="translate(90.6666666667, 580.0) scale(1.2666985558)" xlink:href="#incandescent" /><use transform="translate(141.333333333, 580.0) scale(1.2666985558)" xlink:href="#incandescent" /><use transform="translate(192.0, 580.0) scale(1.2666985558)" xlink:href="#incandescent" /><use transform="translate(242.666666667, 580.0) scale(1.2666985558)" xlink:href="#incandescent" /><use transform="translate(40, 670.0) scale(1.2666985558)" xlink:href="#incandescent" /><use transform="translate(90.6666666667, 670.0) scale(1.2666985558)" xlink:href="#incandescent" /><use transform="translate(141.333333333, 670.0) scale(1.2666985558)" xlink:href="#incandescent" /><use transform="translate(192.0, 670.0) scale(1.2666985558)" xlink:href="#incandescent" /><use transform="translate(242.666666667, 670.0) scale(1.2666985558)" xlink:href="#incandescent" /><use transform="translate(40, 760.0) scale(1.2666985558)" xlink:href="#incandescent" /><use transform="translate(90.6666666667, 760.0) scale(1.2666985558)" xlink:href="#incandescent" /><use transform="translate(141.333333333, 760.0) scale(1.2666985558)" xlink:href="#incandescent" /><use transform="translate(192.0, 760.0) scale(1.2666985558)" xlink:href="#incandescent" /><use transform="translate(242.666666667, 760.0) scale(1.2666985558)" xlink:href="#incandescent" /><use transform="translate(40, 850.0) scale(1.2666985558)" xlink:href="#incandescent" /><use transform="translate(90.6666666667, 850.0) scale(1.2666985558)" xlink:href="#incandescent" /><use transform="translate(141.333333333, 850.0) scale(1.2666985558)" xlink:href="#incandescent" /><use transform="translate(192.0, 850.0) scale(1.2666985558)" xlink:href="#incandescent" /><use transform="translate(242.666666667, 850.0) scale(1.2666985558)" xlink:href="#incandescent" /></g><g><use transform="translate(313.333333333, 40) scale(1.49108928477)" xlink:href="#cfl" /><use transform="translate(364.0, 40) scale(1.49108928477)" xlink:href="#cfl" /><use transform="translate(414.666666667, 40) scale(1.49108928477)" xlink:href="#cfl" /><use transform="translate(465.333333333, 40) scale(1.49108928477)" xlink:href="#cfl" /><use transform="translate(516.0, 40) scale(1.49108928477)" xlink:href="#cfl" /><use transform="translate(313.333333333, 130.0) scale(1.49108928477)" xlink:href="#cfl" /><use transform="translate(364.0, 130.0) scale(1.49108928477)" xlink:href="#cfl" /><use transform="translate(414.666666667, 130.0) scale(1.49108928477)" xlink:href="#cfl" /><use transform="translate(465.333333333, 130.0) scale(1.49108928477)" xlink:href="#cfl" /><use transform="translate(516.0, 130.0) scale(1.49108928477)" xlink:href="#cfl" /><use transform="translate(313.333333333, 220.0) scale(1.49108928477)" xlink:href="#cfl" /><use transform="translate(364.0, 220.0) scale(1.49108928477)" xlink:href="#cfl" /><use transform="translate(414.666666667, 220.0) scale(1.49108928477)" xlink:href="#cfl" /><use transform="translate(465.333333333, 220.0) scale(1.49108928477)" xlink:href="#cfl" /><use transform="translate(516.0, 220.0) scale(1.49108928477)" xlink:href="#cfl" /><use transform="translate(313.333333333, 310.0) scale(1.49108928477)" xlink:href="#cfl" /><use transform="translate(364.0, 310.0) scale(1.49108928477)" xlink:href="#cfl" /><use transform="translate(414.666666667, 310.0) scale(1.49108928477)" xlink:href="#cfl" /><use transform="translate(465.333333333, 310.0) scale(1.49108928477)" xlink:href="#cfl" /><use transform="translate(516.0, 310.0) scale(1.49108928477)" xlink:href="#cfl" /><use transform="translate(313.333333333, 400.0) scale(1.49108928477)" xlink:href="#cfl" /><use transform="translate(364.0, 400.0) scale(1.49108928477)" xlink:href="#cfl" /><use transform="translate(414.666666667, 400.0) scale(1.49108928477)" xlink:href="#cfl" /><use transform="translate(465.333333333, 400.0) scale(1.49108928477)" xlink:href="#cfl" /><use transform="translate(516.0, 400.0) scale(1.49108928477)" xlink:href="#cfl" /><use transform="translate(313.333333333, 490.0) scale(1.49108928477)" xlink:href="#cfl" /><use transform="translate(364.0, 490.0) scale(1.49108928477)" xlink:href="#cfl" /><use transform="translate(414.666666667, 490.0) scale(1.49108928477)" xlink:href="#cfl" /><use transform="translate(465.333333333, 490.0) scale(1.49108928477)" xlink:href="#cfl" /><use transform="translate(516.0, 490.0) scale(1.49108928477)" xlink:href="#cfl" /><use transform="translate(313.333333333, 580.0) scale(1.49108928477)" xlink:href="#cfl" /><use transform="translate(364.0, 580.0) scale(1.49108928477)" xlink:href="#cfl" /><use transform="translate(414.666666667, 580.0) scale(1.49108928477)" xlink:href="#cfl" /><use transform="translate(465.333333333, 580.0) scale(1.49108928477)" xlink:href="#cfl" /><use transform="translate(516.0, 580.0) scale(1.49108928477)" xlink:href="#cfl" /><use transform="translate(313.333333333, 670.0) scale(1.49108928477)" xlink:href="#cfl" /><use transform="translate(364.0, 670.0) scale(1.49108928477)" xlink:href="#cfl" /><use transform="translate(414.666666667, 670.0) scale(1.49108928477)" xlink:href="#cfl" /><use transform="translate(465.333333333, 670.0) scale(1.49108928477)" xlink:href="#cfl" /><use transform="translate(516.0, 670.0) scale(1.49108928477)" xlink:href="#cfl" /><use transform="translate(313.333333333, 760.0) scale(1.49108928477)" xlink:href="#cfl" /><use transform="translate(364.0, 760.0) scale(1.49108928477)" xlink:href="#cfl" /><use transform="translate(414.666666667, 760.0) scale(1.49108928477)" xlink:href="#cfl" /><use transform="translate(465.333333333, 760.0) scale(1.49108928477)" xlink:href="#cfl" /><use transform="translate(516.0, 760.0) scale(1.49108928477)" xlink:href="#cfl" /><use transform="translate(313.333333333, 850.0) scale(1.49108928477)" xlink:href="#cfl" /><use transform="translate(364.0, 850.0) scale(1.49108928477)" xlink:href="#cfl" /><use transform="translate(414.666666667, 850.0) scale(1.49108928477)" xlink:href="#cfl" /><use transform="translate(465.333333333, 850.0) scale(1.49108928477)" xlink:href="#cfl" /><use transform="translate(516.0, 850.0) scale(1.49108928477)" xlink:href="#cfl" /></g><g><use transform="translate(586.666666667, 40) scale(1.26666666667)" xlink:href="#led" /><use transform="translate(637.333333333, 40) scale(1.26666666667)" xlink:href="#led" /><use transform="translate(688.0, 40) scale(1.26666666667)" xlink:href="#led" /><use transform="translate(738.666666667, 40) scale(1.26666666667)" xlink:href="#led" /><use transform="translate(789.333333333, 40) scale(1.26666666667)" xlink:href="#led" /><use transform="translate(586.666666667, 130.0) scale(1.26666666667)" xlink:href="#led" /><use transform="translate(637.333333333, 130.0) scale(1.26666666667)" xlink:href="#led" /><use transform="translate(688.0, 130.0) scale(1.26666666667)" xlink:href="#led" /><use transform="translate(738.666666667, 130.0) scale(1.26666666667)" xlink:href="#led" /><use transform="translate(789.333333333, 130.0) scale(1.26666666667)" xlink:href="#led" /><use transform="translate(586.666666667, 220.0) scale(1.26666666667)" xlink:href="#led" /><use transform="translate(637.333333333, 220.0) scale(1.26666666667)" xlink:href="#led" /><use transform="translate(688.0, 220.0) scale(1.26666666667)" xlink:href="#led" /><use transform="translate(738.666666667, 220.0) scale(1.26666666667)" xlink:href="#led" /><use transform="translate(789.333333333, 220.0) scale(1.26666666667)" xlink:href="#led" /><use transform="translate(586.666666667, 310.0) scale(1.26666666667)" xlink:href="#led" /><use transform="translate(637.333333333, 310.0) scale(1.26666666667)" xlink:href="#led" /><use transform="translate(688.0, 310.0) scale(1.26666666667)" xlink:href="#led" /><use transform="translate(738.666666667, 310.0) scale(1.26666666667)" xlink:href="#led" /><use transform="translate(789.333333333, 310.0) scale(1.26666666667)" xlink:href="#led" /><use transform="translate(586.666666667, 400.0) scale(1.26666666667)" xlink:href="#led" /><use transform="translate(637.333333333, 400.0) scale(1.26666666667)" xlink:href="#led" /><use transform="translate(688.0, 400.0) scale(1.26666666667)" xlink:href="#led" /><use transform="translate(738.666666667, 400.0) scale(1.26666666667)" xlink:href="#led" /><use transform="translate(789.333333333, 400.0) scale(1.26666666667)" xlink:href="#led" /><use transform="translate(586.666666667, 490.0) scale(1.26666666667)" xlink:href="#led" /><use transform="translate(637.333333333, 490.0) scale(1.26666666667)" xlink:href="#led" /><use transform="translate(688.0, 490.0) scale(1.26666666667)" xlink:href="#led" /><use transform="translate(738.666666667, 490.0) scale(1.26666666667)" xlink:href="#led" /><use transform="translate(789.333333333, 490.0) scale(1.26666666667)" xlink:href="#led" /><use transform="translate(586.666666667, 580.0) scale(1.26666666667)" xlink:href="#led" /><use transform="translate(637.333333333, 580.0) scale(1.26666666667)" xlink:href="#led" /><use transform="translate(688.0, 580.0) scale(1.26666666667)" xlink:href="#led" /><use transform="translate(738.666666667, 580.0) scale(1.26666666667)" xlink:href="#led" /><use transform="translate(789.333333333, 580.0) scale(1.26666666667)" xlink:href="#led" /><use transform="translate(586.666666667, 670.0) scale(1.26666666667)" xlink:href="#led" /><use transform="translate(637.333333333, 670.0) scale(1.26666666667)" xlink:href="#led" /><use transform="translate(688.0, 670.0) scale(1.26666666667)" xlink:href="#led" /><use transform="translate(738.666666667, 670.0) scale(1.26666666667)" xlink:href="#led" /><use transform="translate(789.333333333, 670.0) scale(1.26666666667)" xlink:href="#led" /><use transform="translate(586.666666667, 760.0) scale(1.26666666667)" xlink:href="#led" /><use transform="translate(637.333333333, 760.0) scale(1.26666666667)" xlink:href="#led" /><use transform="translate(688.0, 760.0) scale(1.26666666667)" xlink:href="#led" /><use transform="translate(738.666666667, 760.0) scale(1.26666666667)" xlink:href="#led" /><use transform="translate(789.333333333, 760.0) scale(1.26666666667)" xlink:href="#led" /><use transform="translate(586.666666667, 850.0) scale(1.26666666667)" xlink:href="#led" /><use transform="translate(637.333333333, 850.0) scale(1.26666666667)" xlink:href="#led" /><use transform="translate(688.0, 850.0) scale(1.26666666667)" xlink:href="#led" /><use transform="translate(738.666666667, 850.0) scale(1.26666666667)" xlink:href="#led" /><use transform="translate(789.333333333, 850.0) scale(1.26666666667)" xlink:href="#led" /></g></svg>