<?xml version="1.0" encoding="utf-8" ?>
<svg baseProfile="full" height="612.0" version="1.1" width="792.0" xmlns="http://www.w3.org/2000/svg" xmlns:ev="http://www.w3.org/2001/xml-events" xmlns:xlink="http://www.w3.org/1999/xlink"><defs /><g id="lines"><line stroke="#000000" stroke-width="1" x1="85.5338616566" x2="621.0" y1="450.0" y2="450.0" /><line stroke="#000000" stroke-width="1" x1="621.0" x2="621.0" y1="410.4" y2="450.0" /><polyline fill="none" points="621.0,450.0 621.0,474.0 627.0,474.0" stroke="#000000" stroke-dasharray="5,2" stroke-width="1" /><line stroke="#000000" stroke-dasharray="5,2" stroke-width="1" x1="621.0" x2="621.0" y1="112.8" y2="140.4" /><line stroke="#000000" stroke-width="1" x1="612.363449382" x2="612.363449382" y1="345.416106207" y2="450.0" /><polyline fill="none" points="612.363449382,450.0 612.363449382,498.0 618.363449382,498.0" stroke="#000000" stroke-dasharray="5,2" stroke-width="1" /><line stroke="#000000" stroke-width="1" x1="603.726898763" x2="603.726898763" y1="335.296238904" y2="450.0" /><polyline fill="none" points="603.726898763,450.0 603.726898763,522.0 609.726898763,522.0" stroke="#000000" stroke-dasharray="5,2" stroke-width="1" /><line stroke="#000000" stroke-width="1" x1="577.817246908" x2="577.817246908" y1="335.913106247" y2="450.0" /><polyline fill="none" points="577.817246908,450.0 577.817246908,546.0 583.817246908,546.0" stroke="#000000" stroke-dasharray="5,2" stroke-width="1" /><line stroke="#000000" stroke-width="1" x1="560.544145671" x2="560.544145671" y1="335.974447476" y2="450.0" /><polyline fill="none" points="560.544145671,450.0 560.544145671,570.0 566.544145671,570.0" stroke="#000000" stroke-dasharray="5,2" stroke-width="1" /><line stroke="#000000" stroke-width="1" x1="430.995886394" x2="430.995886394" y1="402.755926415" y2="450.0" /><polyline fill="none" points="430.995886394,450.0 430.995886394,474.0 436.995886394,474.0" stroke="#000000" stroke-dasharray="5,2" stroke-width="1" /><line stroke="#000000" stroke-width="1" x1="396.449683921" x2="396.449683921" y1="324.63304595" y2="450.0" /><polyline fill="none" points="396.449683921,450.0 396.449683921,498.0 402.449683921,498.0" stroke="#000000" stroke-dasharray="5,2" stroke-width="1" /><line stroke="#000000" stroke-width="1" x1="370.540032065" x2="370.540032065" y1="348.900912831" y2="450.0" /><polyline fill="none" points="370.540032065,450.0 370.540032065,522.0 376.540032065,522.0" stroke="#000000" stroke-dasharray="5,2" stroke-width="1" /><line stroke="#000000" stroke-width="1" x1="94.1704122751" x2="94.1704122751" y1="325.033728415" y2="450.0" /><polyline fill="none" points="94.1704122751,450.0 94.1704122751,474.0 100.170412275,474.0" stroke="#000000" stroke-dasharray="5,2" stroke-width="1" /><line stroke="#000000" stroke-width="1" x1="85.5338616566" x2="85.5338616566" y1="324.933861657" y2="450.0" /><polyline fill="none" points="85.5338616566,450.0 85.5338616566,498.0 91.5338616566,498.0" stroke="#000000" stroke-dasharray="5,2" stroke-width="1" /><line stroke="#000000" stroke-dasharray="5,2" stroke-width="1" x1="85.5338616566" x2="85.5338616566" y1="112.8" y2="225.866138343" /></g><g id="circles"><circle cx="621.0" cy="275.4" fill="none" r="135.0" stroke="#000000" stroke-width="2" /><circle cx="621.0" cy="450.0" fill="#000000" r="3" /><circle cx="612.363449382" cy="275.4" fill="none" r="70.0161062069" stroke="#000000" stroke-width="2" /><circle cx="612.363449382" cy="450.0" fill="#000000" r="3" /><circle cx="603.726898763" cy="275.4" fill="none" r="59.8962389041" stroke="#000000" stroke-width="2" /><circle cx="603.726898763" cy="450.0" fill="#000000" r="3" /><circle cx="577.817246908" cy="275.4" fill="none" r="60.5131062474" stroke="#000000" stroke-width="2" /><circle cx="577.817246908" cy="450.0" fill="#000000" r="3" /><circle cx="560.544145671" cy="275.4" fill="none" r="60.5744474758" stroke="#000000" stroke-width="2" /><circle cx="560.544145671" cy="450.0" fill="#000000" r="3" /><circle cx="430.995886394" cy="275.4" fill="none" r="127.355926415" stroke="#000000" stroke-width="2" /><circle cx="430.995886394" cy="450.0" fill="#000000" r="3" /><circle cx="396.449683921" cy="275.4" fill="none" r="49.2330459496" stroke="#000000" stroke-width="2" /><circle cx="396.449683921" cy="450.0" fill="#000000" r="3" /><circle cx="370.540032065" cy="275.4" fill="none" r="73.5009128306" stroke="#000000" stroke-width="2" /><circle cx="370.540032065" cy="450.0" fill="#000000" r="3" /><circle cx="94.1704122751" cy="275.4" fill="none" r="49.6337284146" stroke="#000000" stroke-width="2" /><circle cx="94.1704122751" cy="450.0" fill="#000000" r="3" /><circle cx="85.5338616566" cy="275.4" fill="none" r="49.5338616566" stroke="#000000" stroke-width="2" /><circle cx="85.5338616566" cy="450.0" fill="#000000" r="3" /></g><g id="labels"><text alignment-baseline="middle" font-size="12" text-anchor="start" x="633.0" y="474.0">Haiyan (Yolanda) 2013</text><text alignment-baseline="after-edge" font-size="12" text-anchor="start" x="621.0" y="94.8">7,361</text><text alignment-baseline="after-edge" font-size="12" text-anchor="start" x="621.0" y="106.8">dead or missing</text><text alignment-baseline="middle" font-size="12" text-anchor="start" x="624.363449382" y="498.0">Bopha (Pablo) 2012</text><text alignment-baseline="middle" font-size="12" text-anchor="start" x="615.726898763" y="522.0">Washi (Sendong) 2011</text><text alignment-baseline="middle" font-size="12" text-anchor="start" x="589.817246908" y="546.0">Fengshen (Frank) 2008</text><text alignment-baseline="middle" font-size="12" text-anchor="start" x="572.544145671" y="570.0">Durian (Reming) 2006</text><text alignment-baseline="middle" font-size="12" text-anchor="start" x="442.995886394" y="474.0">Thelma (Uring) 1991</text><text alignment-baseline="middle" font-size="12" text-anchor="start" x="408.449683921" y="498.0">Nina (Sisang) 1987</text><text alignment-baseline="middle" font-size="12" text-anchor="start" x="382.540032065" y="522.0">Ike (Nitang) 1984</text><text alignment-baseline="middle" font-size="12" text-anchor="start" x="106.170412275" y="474.0">Trix 1952</text><text alignment-baseline="middle" font-size="12" text-anchor="start" x="97.5338616566" y="498.0">Typhoon Amy 1951</text><text alignment-baseline="after-edge" font-size="12" text-anchor="start" x="85.5338616566" y="94.8">991</text><text alignment-baseline="after-edge" font-size="12" text-anchor="start" x="85.5338616566" y="106.8">dead or missing</text></g><rect fill="none" height="540.0" stroke="#000000" stroke-width="1" width="720.0" x="36.0" y="36.0" /></svg>