<?xml version="1.0" encoding="utf-8" ?>
<svg baseProfile="full" height="612.0" version="1.1" width="792.0" xmlns="http://www.w3.org/2000/svg" xmlns:ev="http://www.w3.org/2001/xml-events" xmlns:xlink="http://www.w3.org/1999/xlink"><defs /><g id="lines"><line stroke="#000000" stroke-width="1" x1="85.5338616566" x2="621.0" y1="450.0" y2="450.0" /><line stroke="#000000" stroke-dasharray="5,2" stroke-width="1" x1="85.5338616566" x2="85.5338616566" y1="483.6" y2="450.0" /><line stroke="#000000" stroke-width="1" x1="85.5338616566" x2="85.5338616566" y1="450.0" y2="324.933861657" /><line stroke="#000000" stroke-dasharray="5,2" stroke-width="1" x1="85.5338616566" x2="85.5338616566" y1="112.8" y2="225.866138343" /><line stroke="#000000" stroke-dasharray="5,2" stroke-width="1" x1="117.933861657" x2="94.1704122751" y1="483.6" y2="450.0" /><line stroke="#000000" stroke-width="1" x1="94.1704122751" x2="94.1704122751" y1="450.0" y2="325.033728415" /><line stroke="#000000" stroke-dasharray="5,2" stroke-width="1" x1="370.540032065" x2="370.540032065" y1="483.6" y2="450.0" /><line stroke="#000000" stroke-width="1" x1="370.540032065" x2="370.540032065" y1="450.0" y2="348.900912831" /><line stroke="#000000" stroke-dasharray="5,2" stroke-width="1" x1="402.940032065" x2="396.449683921" y1="483.6" y2="450.0" /><line stroke="#000000" stroke-width="1" x1="396.449683921" x2="396.449683921" y1="450.0" y2="324.63304595" /><line stroke="#000000" stroke-dasharray="5,2" stroke-width="1" x1="435.340032065" x2="430.995886394" y1="483.6" y2="450.0" /><line stroke="#000000" stroke-width="1" x1="430.995886394" x2="430.995886394" y1="450.0" y2="402.755926415" /><line stroke="#000000" stroke-dasharray="5,2" stroke-width="1" x1="560.544145671" x2="560.544145671" y1="483.6" y2="450.0" /><line stroke="#000000" stroke-width="1" x1="560.544145671" x2="560.544145671" y1="450.0" y2="335.974447476" /><line stroke="#000000" stroke-dasharray="5,2" stroke-width="1" x1="592.944145671" x2="577.817246908" y1="483.6" y2="450.0" /><line stroke="#000000" stroke-width="1" x1="577.817246908" x2="577.817246908" y1="450.0" y2="335.913106247" /><line stroke="#000000" stroke-dasharray="5,2" stroke-width="1" x1="625.344145671" x2="603.726898763" y1="483.6" y2="450.0" /><line stroke="#000000" stroke-width="1" x1="603.726898763" x2="603.726898763" y1="450.0" y2="335.296238904" /><line stroke="#000000" stroke-dasharray="5,2" stroke-width="1" x1="657.744145671" x2="612.363449382" y1="483.6" y2="450.0" /><line stroke="#000000" stroke-width="1" x1="612.363449382" x2="612.363449382" y1="450.0" y2="345.416106207" /><line stroke="#000000" stroke-dasharray="5,2" stroke-width="1" x1="690.144145671" x2="621.0" y1="483.6" y2="450.0" /><line stroke="#000000" stroke-width="1" x1="621.0" x2="621.0" y1="450.0" y2="410.4" /><line stroke="#000000" stroke-dasharray="5,2" stroke-width="1" x1="621.0" x2="621.0" y1="112.8" y2="140.4" /></g><g id="circles"><circle cx="85.5338616566" cy="275.4" fill="none" r="49.5338616566" stroke="#000000" stroke-width="2" /><circle cx="85.5338616566" cy="450.0" fill="#000000" r="3" /><circle cx="94.1704122751" cy="275.4" fill="none" r="49.6337284146" stroke="#000000" stroke-width="2" /><circle cx="94.1704122751" cy="450.0" fill="#000000" r="3" /><circle cx="370.540032065" cy="275.4" fill="none" r="73.5009128306" stroke="#000000" stroke-width="2" /><circle cx="370.540032065" cy="450.0" fill="#000000" r="3" /><circle cx="396.449683921" cy="275.4" fill="none" r="49.2330459496" stroke="#000000" stroke-width="2" /><circle cx="396.449683921" cy="450.0" fill="#000000" r="3" /><circle cx="430.995886394" cy="275.4" fill="none" r="127.355926415" stroke="#000000" stroke-width="2" /><circle cx="430.995886394" cy="450.0" fill="#000000" r="3" /><circle cx="560.544145671" cy="275.4" fill="none" r="60.5744474758" stroke="#000000" stroke-width="2" /><circle cx="560.544145671" cy="450.0" fill="#000000" r="3" /><circle cx="577.817246908" cy="275.4" fill="none" r="60.5131062474" stroke="#000000" stroke-width="2" /><circle cx="577.817246908" cy="450.0" fill="#000000" r="3" /><circle cx="603.726898763" cy="275.4" fill="none" r="59.8962389041" stroke="#000000" stroke-width="2" /><circle cx="603.726898763" cy="450.0" fill="#000000" r="3" /><circle cx="612.363449382" cy="275.4" fill="none" r="70.0161062069" stroke="#000000" stroke-width="2" /><circle cx="612.363449382" cy="450.0" fill="#000000" r="3" /><circle cx="621.0" cy="275.4" fill="none" r="135.0" stroke="#000000" stroke-width="2" /><circle cx="621.0" cy="450.0" fill="#000000" r="3" /></g><g id="labels"><text dominant-baseline="central" font-size="12" text-anchor="start" transform="rotate(60,85.5338616566,489.6)" x="85.5338616566" y="483.6">Typhoon Amy</text><text dominant-baseline="central" font-size="12" text-anchor="start" transform="rotate(60,85.5338616566,489.6)" x="85.5338616566" y="495.6">1951</text><text alignment-baseline="after-edge" font-size="12" text-anchor="start" x="85.5338616566" y="94.8">991</text><text alignment-baseline="after-edge" font-size="12" text-anchor="start" x="85.5338616566" y="106.8">dead or missing</text><text dominant-baseline="central" font-size="12" text-anchor="start" transform="rotate(60,117.933861657,489.6)" x="117.933861657" y="483.6">Trix</text><text dominant-baseline="central" font-size="12" text-anchor="start" transform="rotate(60,117.933861657,489.6)" x="117.933861657" y="495.6">1952</text><text dominant-baseline="central" font-size="12" text-anchor="start" transform="rotate(60,370.540032065,489.6)" x="370.540032065" y="483.6">Ike (Nitang)</text><text dominant-baseline="central" font-size="12" text-anchor="start" transform="rotate(60,370.540032065,489.6)" x="370.540032065" y="495.6">1984</text><text dominant-baseline="central" font-size="12" text-anchor="start" transform="rotate(60,402.940032065,489.6)" x="402.940032065" y="483.6">Nina (Sisang)</text><text dominant-baseline="central" font-size="12" text-anchor="start" transform="rotate(60,402.940032065,489.6)" x="402.940032065" y="495.6">1987</text><text dominant-baseline="central" font-size="12" text-anchor="start" transform="rotate(60,435.340032065,489.6)" x="435.340032065" y="483.6">Thelma (Uring)</text><text dominant-baseline="central" font-size="12" text-anchor="start" transform="rotate(60,435.340032065,489.6)" x="435.340032065" y="495.6">1991</text><text dominant-baseline="central" font-size="12" text-anchor="start" transform="rotate(60,560.544145671,489.6)" x="560.544145671" y="483.6">Durian (Reming)</text><text dominant-baseline="central" font-size="12" text-anchor="start" transform="rotate(60,560.544145671,489.6)" x="560.544145671" y="495.6">2006</text><text dominant-baseline="central" font-size="12" text-anchor="start" transform="rotate(60,592.944145671,489.6)" x="592.944145671" y="483.6">Fengshen (Frank)</text><text dominant-baseline="central" font-size="12" text-anchor="start" transform="rotate(60,592.944145671,489.6)" x="592.944145671" y="495.6">2008</text><text dominant-baseline="central" font-size="12" text-anchor="start" transform="rotate(60,625.344145671,489.6)" x="625.344145671" y="483.6">Washi (Sendong)</text><text dominant-baseline="central" font-size="12" text-anchor="start" transform="rotate(60,625.344145671,489.6)" x="625.344145671" y="495.6">2011</text><text dominant-baseline="central" font-size="12" text-anchor="start" transform="rotate(60,657.744145671,489.6)" x="657.744145671" y="483.6">Bopha (Pablo)</text><text dominant-baseline="central" font-size="12" text-anchor="start" transform="rotate(60,657.744145671,489.6)" x="657.744145671" y="495.6">2012</text><text dominant-baseline="central" font-size="12" text-anchor="start" transform="rotate(60,690.144145671,489.6)" x="690.144145671" y="483.6">Haiyan (Yolanda)</text><text dominant-baseline="central" font-size="12" text-anchor="start" transform="rotate(60,690.144145671,489.6)" x="690.144145671" y="495.6">2013</text><text alignment-baseline="after-edge" font-size="12" text-anchor="start" x="621.0" y="94.8">7,361</text><text alignment-baseline="after-edge" font-size="12" text-anchor="start" x="621.0" y="106.8">dead or missing</text></g><rect fill="none" height="540.0" stroke="#000000" stroke-width="1" width="720.0" x="36.0" y="36.0" /></svg>