<?xml version="1.0" encoding="utf-8" ?>
<svg baseProfile="full" height="792.0" version="1.1" width="612.0" xmlns="http://www.w3.org/2000/svg" xmlns:ev="http://www.w3.org/2001/xml-events" xmlns:xlink="http://www.w3.org/1999/xlink"><defs /><g id="lines"><line stroke="#000000" stroke-width="1" x1="323.82" x2="323.82" y1="90.4872478223" y2="607.5" /><line stroke="#000000" stroke-dasharray="5,2" stroke-width="1" x1="157.344" x2="323.82" y1="90.4872478223" y2="90.4872478223" /><line stroke="#000000" stroke-dasharray="5,2" stroke-width="1" x1="484.32" x2="378.307247822" y1="90.4872478223" y2="90.4872478223" /><line stroke="#000000" stroke-dasharray="5,2" stroke-width="1" x1="157.344" x2="323.82" y1="122.887247822" y2="98.82616318" /><line stroke="#000000" stroke-dasharray="5,2" stroke-width="1" x1="157.344" x2="323.82" y1="365.671454627" y2="365.671454627" /><line stroke="#000000" stroke-dasharray="5,2" stroke-width="1" x1="157.344" x2="323.82" y1="398.071454627" y2="390.6882007" /><line stroke="#000000" stroke-dasharray="5,2" stroke-width="1" x1="157.344" x2="323.82" y1="430.471454627" y2="424.04386213" /><line stroke="#000000" stroke-dasharray="5,2" stroke-width="1" x1="157.344" x2="323.82" y1="549.127592496" y2="549.127592496" /><line stroke="#000000" stroke-dasharray="5,2" stroke-width="1" x1="157.344" x2="323.82" y1="581.527592496" y2="565.805423211" /><line stroke="#000000" stroke-dasharray="5,2" stroke-width="1" x1="157.344" x2="323.82" y1="613.927592496" y2="590.822169285" /><line stroke="#000000" stroke-dasharray="5,2" stroke-width="1" x1="157.344" x2="323.82" y1="646.327592496" y2="599.161084642" /><line stroke="#000000" stroke-dasharray="5,2" stroke-width="1" x1="157.344" x2="323.82" y1="678.727592496" y2="607.5" /><line stroke="#000000" stroke-dasharray="5,2" stroke-width="1" x1="484.32" x2="472.32" y1="607.5" y2="607.5" /></g><g id="circles"><circle cx="323.82" cy="90.4872478223" fill="#000000" r="3" /><circle cx="323.82" cy="90.4872478223" fill="none" r="54.4872478223" stroke="#000000" stroke-width="2" /><circle cx="323.82" cy="98.82616318" fill="#000000" r="3" /><circle cx="323.82" cy="98.82616318" fill="none" r="54.597101256" stroke="#000000" stroke-width="2" /><circle cx="323.82" cy="365.671454627" fill="#000000" r="3" /><circle cx="323.82" cy="365.671454627" fill="none" r="80.8510041137" stroke="#000000" stroke-width="2" /><circle cx="323.82" cy="390.6882007" fill="#000000" r="3" /><circle cx="323.82" cy="390.6882007" fill="none" r="54.1563505446" stroke="#000000" stroke-width="2" /><circle cx="323.82" cy="424.04386213" fill="#000000" r="3" /><circle cx="323.82" cy="424.04386213" fill="none" r="140.091519056" stroke="#000000" stroke-width="2" /><circle cx="323.82" cy="549.127592496" fill="#000000" r="3" /><circle cx="323.82" cy="549.127592496" fill="none" r="66.6318922234" stroke="#000000" stroke-width="2" /><circle cx="323.82" cy="565.805423211" fill="#000000" r="3" /><circle cx="323.82" cy="565.805423211" fill="none" r="66.5644168722" stroke="#000000" stroke-width="2" /><circle cx="323.82" cy="590.822169285" fill="#000000" r="3" /><circle cx="323.82" cy="590.822169285" fill="none" r="65.8858627945" stroke="#000000" stroke-width="2" /><circle cx="323.82" cy="599.161084642" fill="#000000" r="3" /><circle cx="323.82" cy="599.161084642" fill="none" r="77.0177168276" stroke="#000000" stroke-width="2" /><circle cx="323.82" cy="607.5" fill="#000000" r="3" /><circle cx="323.82" cy="607.5" fill="none" r="148.5" stroke="#000000" stroke-width="2" /></g><g id="labels"><text alignment-baseline="middle" font-size="12" text-anchor="end" x="151.344" y="84.4872478223">Typhoon Amy</text><text alignment-baseline="middle" font-size="12" text-anchor="end" x="151.344" y="96.4872478223">1951</text><text alignment-baseline="middle" font-size="12" text-anchor="start" x="490.32" y="84.4872478223">991</text><text alignment-baseline="middle" font-size="12" text-anchor="start" x="490.32" y="96.4872478223">dead or missing</text><text alignment-baseline="middle" font-size="12" text-anchor="end" x="151.344" y="116.887247822">Trix</text><text alignment-baseline="middle" font-size="12" text-anchor="end" x="151.344" y="128.887247822">1952</text><text alignment-baseline="middle" font-size="12" text-anchor="end" x="151.344" y="359.671454627">Ike (Nitang)</text><text alignment-baseline="middle" font-size="12" text-anchor="end" x="151.344" y="371.671454627">1984</text><text alignment-baseline="middle" font-size="12" text-anchor="end" x="151.344" y="392.071454627">Nina (Sisang)</text><text alignment-baseline="middle" font-size="12" text-anchor="end" x="151.344" y="404.071454627">1987</text><text alignment-baseline="middle" font-size="12" text-anchor="end" x="151.344" y="424.471454627">Thelma (Uring)</text><text alignment-baseline="middle" font-size="12" text-anchor="end" x="151.344" y="436.471454627">1991</text><text alignment-baseline="middle" font-size="12" text-anchor="end" x="151.344" y="543.127592496">Durian (Reming)</text><text alignment-baseline="middle" font-size="12" text-anchor="end" x="151.344" y="555.127592496">2006</text><text alignment-baseline="middle" font-size="12" text-anchor="end" x="151.344" y="575.527592496">Fengshen (Frank)</text><text alignment-baseline="middle" font-size="12" text-anchor="end" x="151.344" y="587.527592496">2008</text><text alignment-baseline="middle" font-size="12" text-anchor="end" x="151.344" y="607.927592496">Washi (Sendong)</text><text alignment-baseline="middle" font-size="12" text-anchor="end" x="151.344" y="619.927592496">2011</text><text alignment-baseline="middle" font-size="12" text-anchor="end" x="151.344" y="640.327592496">Bopha (Pablo)</text><text alignment-baseline="middle" font-size="12" text-anchor="end" x="151.344" y="652.327592496">2012</text><text alignment-baseline="middle" font-size="12" text-anchor="end" x="151.344" y="672.727592496">Haiyan (Yolanda)</text><text alignment-baseline="middle" font-size="12" text-anchor="end" x="151.344" y="684.727592496">2013</text><text alignment-baseline="middle" font-size="12" text-anchor="start" x="490.32" y="601.5">7,361</text><text alignment-baseline="middle" font-size="12" text-anchor="start" x="490.32" y="613.5">dead or missing</text></g><rect fill="none" height="720.0" stroke="#000000" stroke-width="1" width="540.0" x="36.0" y="36.0" /></svg>