<?xml version="1.0" encoding="utf-8" ?>
<svg baseProfile="full" height="792.0" version="1.1" width="612.0" xmlns="http://www.w3.org/2000/svg" xmlns:ev="http://www.w3.org/2001/xml-events" xmlns:xlink="http://www.w3.org/1999/xlink"><defs /><g id="lines"><line stroke="#000000" stroke-width="1" x1="162.0" x2="162.0" y1="85.5338616566" y2="621.0" /><line stroke="#000000" stroke-dasharray="5,2" stroke-width="1" x1="139.2" x2="162.0" y1="85.5338616566" y2="85.5338616566" /><line stroke="#000000" stroke-width="1" x1="162.0" x2="276.266138343" y1="85.5338616566" y2="85.5338616566" /><line stroke="#000000" stroke-dasharray="5,2" stroke-width="1" x1="483.6" x2="375.333861657" y1="85.5338616566" y2="85.5338616566" /><line stroke="#000000" stroke-dasharray="5,2" stroke-width="1" x1="139.2" x2="162.0" y1="117.933861657" y2="94.1704122751" /><line stroke="#000000" stroke-width="1" x1="162.0" x2="276.166271585" y1="94.1704122751" y2="94.1704122751" /><line stroke="#000000" stroke-dasharray="5,2" stroke-width="1" x1="139.2" x2="162.0" y1="370.540032065" y2="370.540032065" /><line stroke="#000000" stroke-width="1" x1="162.0" x2="252.299087169" y1="370.540032065" y2="370.540032065" /><line stroke="#000000" stroke-dasharray="5,2" stroke-width="1" x1="139.2" x2="162.0" y1="402.940032065" y2="396.449683921" /><line stroke="#000000" stroke-width="1" x1="162.0" x2="276.56695405" y1="396.449683921" y2="396.449683921" /><line stroke="#000000" stroke-dasharray="5,2" stroke-width="1" x1="139.2" x2="162.0" y1="435.340032065" y2="430.995886394" /><line stroke="#000000" stroke-width="1" x1="162.0" x2="198.444073585" y1="430.995886394" y2="430.995886394" /><line stroke="#000000" stroke-dasharray="5,2" stroke-width="1" x1="139.2" x2="162.0" y1="560.544145671" y2="560.544145671" /><line stroke="#000000" stroke-width="1" x1="162.0" x2="265.225552524" y1="560.544145671" y2="560.544145671" /><line stroke="#000000" stroke-dasharray="5,2" stroke-width="1" x1="139.2" x2="162.0" y1="592.944145671" y2="577.817246908" /><line stroke="#000000" stroke-width="1" x1="162.0" x2="265.286893753" y1="577.817246908" y2="577.817246908" /><line stroke="#000000" stroke-dasharray="5,2" stroke-width="1" x1="139.2" x2="162.0" y1="625.344145671" y2="603.726898763" /><line stroke="#000000" stroke-width="1" x1="162.0" x2="265.903761096" y1="603.726898763" y2="603.726898763" /><line stroke="#000000" stroke-dasharray="5,2" stroke-width="1" x1="139.2" x2="162.0" y1="657.744145671" y2="612.363449382" /><line stroke="#000000" stroke-width="1" x1="162.0" x2="255.783893793" y1="612.363449382" y2="612.363449382" /><line stroke="#000000" stroke-dasharray="5,2" stroke-width="1" x1="139.2" x2="162.0" y1="690.144145671" y2="621.0" /><line stroke="#000000" stroke-width="1" x1="162.0" x2="190.8" y1="621.0" y2="621.0" /><line stroke="#000000" stroke-dasharray="5,2" stroke-width="1" x1="483.6" x2="460.8" y1="621.0" y2="621.0" /></g><g id="circles"><circle cx="325.8" cy="85.5338616566" fill="none" r="49.5338616566" stroke="#000000" stroke-width="2" /><circle cx="162.0" cy="85.5338616566" fill="#000000" r="3" /><circle cx="325.8" cy="94.1704122751" fill="none" r="49.6337284146" stroke="#000000" stroke-width="2" /><circle cx="162.0" cy="94.1704122751" fill="#000000" r="3" /><circle cx="325.8" cy="370.540032065" fill="none" r="73.5009128306" stroke="#000000" stroke-width="2" /><circle cx="162.0" cy="370.540032065" fill="#000000" r="3" /><circle cx="325.8" cy="396.449683921" fill="none" r="49.2330459496" stroke="#000000" stroke-width="2" /><circle cx="162.0" cy="396.449683921" fill="#000000" r="3" /><circle cx="325.8" cy="430.995886394" fill="none" r="127.355926415" stroke="#000000" stroke-width="2" /><circle cx="162.0" cy="430.995886394" fill="#000000" r="3" /><circle cx="325.8" cy="560.544145671" fill="none" r="60.5744474758" stroke="#000000" stroke-width="2" /><circle cx="162.0" cy="560.544145671" fill="#000000" r="3" /><circle cx="325.8" cy="577.817246908" fill="none" r="60.5131062474" stroke="#000000" stroke-width="2" /><circle cx="162.0" cy="577.817246908" fill="#000000" r="3" /><circle cx="325.8" cy="603.726898763" fill="none" r="59.8962389041" stroke="#000000" stroke-width="2" /><circle cx="162.0" cy="603.726898763" fill="#000000" r="3" /><circle cx="325.8" cy="612.363449382" fill="none" r="70.0161062069" stroke="#000000" stroke-width="2" /><circle cx="162.0" cy="612.363449382" fill="#000000" r="3" /><circle cx="325.8" cy="621.0" fill="none" r="135.0" stroke="#000000" stroke-width="2" /><circle cx="162.0" cy="621.0" fill="#000000" r="3" /></g><g id="labels"><text alignment-baseline="middle" font-size="12" text-anchor="end" x="133.2" y="79.5338616566">Typhoon Amy</text><text alignment-baseline="middle" font-size="12" text-anchor="end" x="133.2" y="91.5338616566">1951</text><text alignment-baseline="middle" font-size="12" text-anchor="start" x="489.6" y="79.5338616566">991</text><text alignment-baseline="middle" font-size="12" text-anchor="start" x="489.6" y="91.5338616566">dead or missing</text><text alignment-baseline="middle" font-size="12" text-anchor="end" x="133.2" y="111.933861657">Trix</text><text alignment-baseline="middle" font-size="12" text-anchor="end" x="133.2" y="123.933861657">1952</text><text alignment-baseline="middle" font-size="12" text-anchor="end" x="133.2" y="364.540032065">Ike (Nitang)</text><text alignment-baseline="middle" font-size="12" text-anchor="end" x="133.2" y="376.540032065">1984</text><text alignment-baseline="middle" font-size="12" text-anchor="end" x="133.2" y="396.940032065">Nina (Sisang)</text><text alignment-baseline="middle" font-size="12" text-anchor="end" x="133.2" y="408.940032065">1987</text><text alignment-baseline="middle" font-size="12" text-anchor="end" x="133.2" y="429.340032065">Thelma (Uring)</text><text alignment-baseline="middle" font-size="12" text-anchor="end" x="133.2" y="441.340032065">1991</text><text alignment-baseline="middle" font-size="12" text-anchor="end" x="133.2" y="554.544145671">Durian (Reming)</text><text alignment-baseline="middle" font-size="12" text-anchor="end" x="133.2" y="566.544145671">2006</text><text alignment-baseline="middle" font-size="12" text-anchor="end" x="133.2" y="586.944145671">Fengshen (Frank)</text><text alignment-baseline="middle" font-size="12" text-anchor="end" x="133.2" y="598.944145671">2008</text><text alignment-baseline="middle" font-size="12" text-anchor="end" x="133.2" y="619.344145671">Washi (Sendong)</text><text alignment-baseline="middle" font-size="12" text-anchor="end" x="133.2" y="631.344145671">2011</text><text alignment-baseline="middle" font-size="12" text-anchor="end" x="133.2" y="651.744145671">Bopha (Pablo)</text><text alignment-baseline="middle" font-size="12" text-anchor="end" x="133.2" y="663.744145671">2012</text><text alignment-baseline="middle" font-size="12" text-anchor="end" x="133.2" y="684.144145671">Haiyan (Yolanda)</text><text alignment-baseline="middle" font-size="12" text-anchor="end" x="133.2" y="696.144145671">2013</text><text alignment-baseline="middle" font-size="12" text-anchor="start" x="489.6" y="615.0">7,361</text><text alignment-baseline="middle" font-size="12" text-anchor="start" x="489.6" y="627.0">dead or missing</text></g><rect fill="none" height="720.0" stroke="#000000" stroke-width="1" width="540.0" x="36.0" y="36.0" /></svg>