<svg xmlns="http://www.w3.org/2000/svg" xmlns:xlink="http://www.w3.org/1999/xlink" version="1.1" x="0px" y="0px" viewBox="0 0 34 75" enable-background="new 0 0 34 60" xml:space="preserve"><path d="M31.45,23.38c0.41-0.36,0.78-0.77,1.06-1.26c0.67-1.16,0.85-2.51,0.5-3.79c-0.3-1.11-0.96-2.04-1.83-2.7  c0.89-0.43,1.63-1.12,2.14-2c0.67-1.16,0.85-2.5,0.5-3.79c-0.58-2.18-2.57-3.71-4.84-3.71c-0.43,0-0.87,0.06-1.29,0.17l-2.13,0.57  c0.4-0.98,0.51-2.08,0.22-3.17C25.21,1.52,23.22,0,20.96,0c-0.43,0-0.87,0.06-1.28,0.17L8.71,3.03C7.42,3.38,6.34,4.21,5.68,5.37  c-0.67,1.16-0.85,2.51-0.5,3.79c0.3,1.11,0.96,2.04,1.83,2.7l-2.47,0.66c-1.29,0.34-2.36,1.17-3.03,2.33s-0.85,2.51-0.5,3.79  c0.3,1.11,0.96,2.04,1.83,2.7c-0.89,0.43-1.63,1.12-2.14,2c-0.67,1.16-0.85,2.51-0.5,3.79c0.58,2.18,2.57,3.71,4.84,3.71  c0.43,0,0.87-0.06,1.29-0.17l6.54-1.75c-0.53,0.93-0.83,2-0.83,3.12V35H4.47C3.11,35,2,36.11,2,37.47v5.42c0,3.54,2.61,6.48,6,7.01  V51v2v3h2.5l3,4h7l3-4H26v-3v-2v-1.1c3.39-0.54,6-3.47,6-7.01v-5.42C32,36.11,30.9,35,29.54,35h-7.9c0.13-0.09,0.27-0.15,0.43-0.2  l8.23-2.25c1.29-0.34,2.36-1.17,3.03-2.33c0.67-1.16,0.85-2.51,0.5-3.79C33.48,25.1,32.59,24.02,31.45,23.38z M7.41,6.37  c0.4-0.7,1.05-1.19,1.81-1.4L20.19,2.1C20.44,2.03,20.7,2,20.96,2c1.36,0,2.55,0.91,2.9,2.22c0.43,1.6-0.52,3.25-2.12,3.67  l-10.97,2.87C9.2,11.18,7.52,10.2,7.1,8.64C6.9,7.87,7,7.06,7.41,6.37z M3.23,15.85c0.4-0.7,1.05-1.19,1.82-1.4l23.18-6.21  c0.25-0.07,0.51-0.1,0.77-0.1c1.36,0,2.55,0.91,2.91,2.22c0.21,0.77,0.1,1.58-0.3,2.27c-0.4,0.7-1.05,1.19-1.82,1.4l-2.65,0.71  c-0.08,0.02-0.16,0.03-0.24,0.05L6.45,20.27c-1.53,0.32-3.12-0.64-3.53-2.14C2.72,17.35,2.82,16.55,3.23,15.85z M5.78,28.73  c-1.58,0.42-3.26-0.56-3.67-2.12c-0.21-0.77-0.1-1.58,0.3-2.27s1.05-1.19,1.82-1.4l2.65-0.71c0.08-0.02,0.16-0.03,0.24-0.05  l20.41-5.47c0.21-0.05,0.43-0.09,0.65-0.09c1.36,0,2.55,0.91,2.91,2.22c0.21,0.77,0.1,1.58-0.3,2.27c-0.4,0.7-1.05,1.19-1.82,1.4  L5.78,28.73z M19.5,58h-5L13,56h8L19.5,58z M24,54H10v-1h14V54z M10,51v-1h14v1H10z M30,37.47v5.42c0,2.82-2.29,5.11-5.11,5.11H9.11  C6.29,48,4,45.71,4,42.89v-5.42C4,37.21,4.21,37,4.47,37H12h8h9.53C29.79,37,30,37.21,30,37.47z M31.6,29.22  c-0.4,0.7-1.05,1.19-1.82,1.4l-8.24,2.25c-1.09,0.3-1.94,1.11-2.32,2.13H14v-2.97c0-1.96,1.32-3.69,3.23-4.2l11-3  c0.25-0.07,0.51-0.1,0.77-0.1c1.36,0,2.55,0.91,2.91,2.22C32.11,27.72,32,28.53,31.6,29.22z"/><text x="0" y="75" fill="#000000" font-size="5px" font-weight="bold" font-family="'Helvetica Neue', Helvetica, Arial-Unicode, Arial, Sans-serif">Created by Oliviu Stoian</text><text x="0" y="80" fill="#000000" font-size="5px" font-weight="bold" font-family="'Helvetica Neue', Helvetica, Arial-Unicode, Arial, Sans-serif">from the Noun Project</text></svg>