<svg xmlns="http://www.w3.org/2000/svg" xmlns:xlink="http://www.w3.org/1999/xlink" version="1.1" x="0px" y="0px" viewBox="0 0 512 640" enable-background="new 0 0 512 512" xml:space="preserve"><path d="M416,160c0,87-52.438,97.125-62.281,192c0,8.844-7.156,16-16,16H174.281c-8.844,0-16-7.156-16-16h-0.031  C148.438,257.125,96,247,96,160C96,71.625,167.625,0,256,0S416,71.625,416,160z M336,384H176c-8.844,0-16,7.156-16,16  s7.156,16,16,16h160c8.844,0,16-7.156,16-16S344.844,384,336,384z M336,432H176c-8.844,0-16,7.156-16,16s7.156,16,16,16h160  c8.844,0,16-7.156,16-16S344.844,432,336,432z M224,512h64c17.688,0,32-14.313,32-32H192C192,497.688,206.313,512,224,512z"/><text x="0" y="527" fill="#000000" font-size="5px" font-weight="bold" font-family="'Helvetica Neue', Helvetica, Arial-Unicode, Arial, Sans-serif">Created by Simple Icons</text><text x="0" y="532" fill="#000000" font-size="5px" font-weight="bold" font-family="'Helvetica Neue', Helvetica, Arial-Unicode, Arial, Sans-serif">from the Noun Project</text></svg>