<svg xmlns="http://www.w3.org/2000/svg" xmlns:xlink="http://www.w3.org/1999/xlink" version="1.1" x="0px" y="0px" viewBox="0 0 40 74.85000000000001" enable-background="new 0 0 40 59.88" xml:space="preserve"><path d="M40,18.88C40,7.06,32.52,0,20,0S0,7.06,0,18.88v1h0.03c0.3,9.76,4.96,16.37,8.08,20.79C9.66,42.85,11,44.74,11,45.94v1.93v2  v2v4h2.5l3,4h7l3-4H29v-4v-2v-2v-1.93c0-1.2,1.34-3.09,2.89-5.28c3.12-4.42,7.78-11.03,8.08-20.79H40V18.88z M20.52,2.01  c0.06,0,0.12,0,0.18,0.01c0.13,0,0.25,0.01,0.38,0.01c0.08,0,0.16,0.01,0.23,0.01c0.12,0.01,0.24,0.01,0.36,0.02  c0.09,0.01,0.18,0.01,0.27,0.02c0.12,0.01,0.23,0.02,0.35,0.03c0.1,0.01,0.2,0.02,0.3,0.03c0.12,0.01,0.23,0.02,0.35,0.04  c0.1,0.01,0.2,0.02,0.3,0.04c0.12,0.02,0.25,0.03,0.37,0.05c0.11,0.01,0.22,0.03,0.32,0.05c0.12,0.02,0.24,0.04,0.37,0.06  c0.11,0.02,0.23,0.04,0.35,0.06c0.12,0.02,0.24,0.04,0.37,0.07c0.12,0.02,0.23,0.05,0.35,0.07c0.12,0.03,0.25,0.05,0.37,0.08  c0.12,0.03,0.24,0.06,0.35,0.09c0.13,0.03,0.25,0.06,0.38,0.1c0.12,0.03,0.24,0.07,0.36,0.1C26.97,2.96,27.1,3,27.23,3.04  c0.12,0.04,0.24,0.08,0.37,0.12c0.13,0.04,0.25,0.08,0.38,0.13c0.12,0.04,0.25,0.09,0.37,0.14c0.12,0.05,0.25,0.09,0.37,0.14  c0.12,0.05,0.24,0.1,0.37,0.16c0.12,0.05,0.25,0.11,0.37,0.16c0.12,0.06,0.24,0.11,0.36,0.17c0.12,0.06,0.25,0.12,0.37,0.19  c0.12,0.06,0.24,0.13,0.36,0.19c0.12,0.07,0.24,0.13,0.36,0.21c0.12,0.07,0.23,0.14,0.35,0.22c0.12,0.07,0.24,0.15,0.35,0.23  c0.12,0.08,0.23,0.16,0.34,0.24c0.11,0.08,0.23,0.16,0.34,0.25c0.11,0.08,0.22,0.17,0.33,0.26c0.11,0.09,0.22,0.18,0.33,0.28  c0.11,0.09,0.21,0.19,0.32,0.28c0.11,0.1,0.22,0.2,0.32,0.3c0.1,0.1,0.2,0.2,0.3,0.31c0.1,0.11,0.21,0.22,0.31,0.33  c0.1,0.11,0.19,0.22,0.29,0.33c0.1,0.12,0.19,0.24,0.29,0.36c0.09,0.12,0.18,0.24,0.27,0.36c0.09,0.13,0.18,0.26,0.27,0.39  c0.09,0.13,0.17,0.26,0.25,0.39c0.09,0.14,0.17,0.28,0.25,0.42c0.08,0.14,0.16,0.27,0.23,0.42c0.08,0.15,0.15,0.3,0.23,0.45  c0.07,0.15,0.14,0.29,0.21,0.44c0.07,0.16,0.14,0.32,0.2,0.48c0.06,0.16,0.13,0.31,0.19,0.48c0.06,0.17,0.12,0.34,0.18,0.52  c0.05,0.17,0.11,0.33,0.16,0.51c0.05,0.18,0.1,0.37,0.15,0.56c0.05,0.18,0.09,0.35,0.13,0.54c0.04,0.19,0.08,0.39,0.12,0.59  c0.04,0.19,0.07,0.37,0.1,0.57c0.03,0.21,0.06,0.42,0.09,0.64c0.03,0.2,0.05,0.39,0.07,0.6c0.02,0.22,0.04,0.45,0.05,0.68  c0.02,0.21,0.03,0.42,0.04,0.63c0,0.06,0,0.13,0.01,0.2H34h-5.89H11.89H6H2.03c0-0.06,0-0.13,0.01-0.2  c0.01-0.22,0.03-0.42,0.04-0.63c0.02-0.23,0.03-0.45,0.05-0.68c0.02-0.2,0.05-0.4,0.07-0.6c0.03-0.21,0.06-0.43,0.09-0.64  c0.03-0.19,0.07-0.38,0.1-0.57c0.04-0.2,0.08-0.4,0.12-0.59c0.04-0.18,0.09-0.36,0.13-0.54c0.05-0.19,0.1-0.37,0.15-0.56  c0.05-0.17,0.1-0.34,0.16-0.51c0.06-0.17,0.12-0.35,0.18-0.52c0.06-0.16,0.12-0.32,0.19-0.48c0.07-0.16,0.13-0.33,0.2-0.48  c0.07-0.15,0.14-0.3,0.21-0.44C3.8,10.3,3.88,10.15,3.95,10c0.07-0.14,0.15-0.28,0.23-0.41c0.08-0.14,0.16-0.28,0.25-0.42  C4.52,9.04,4.6,8.91,4.69,8.78C4.78,8.65,4.86,8.52,4.96,8.4c0.09-0.12,0.18-0.24,0.27-0.36c0.09-0.12,0.19-0.24,0.29-0.36  C5.61,7.56,5.71,7.45,5.8,7.34c0.1-0.11,0.2-0.22,0.31-0.33c0.1-0.1,0.2-0.21,0.3-0.31c0.11-0.1,0.21-0.2,0.32-0.3  c0.11-0.1,0.21-0.19,0.32-0.28c0.11-0.09,0.22-0.19,0.33-0.28C7.49,5.75,7.6,5.67,7.72,5.58C7.83,5.5,7.94,5.41,8.06,5.33  C8.17,5.25,8.29,5.17,8.4,5.09c0.12-0.08,0.23-0.15,0.35-0.23C8.87,4.79,8.99,4.72,9.1,4.65c0.12-0.07,0.24-0.14,0.36-0.21  C9.58,4.38,9.7,4.31,9.82,4.25c0.12-0.06,0.25-0.12,0.37-0.19c0.12-0.06,0.24-0.12,0.36-0.17c0.12-0.06,0.25-0.11,0.37-0.16  c0.12-0.05,0.24-0.11,0.37-0.16c0.12-0.05,0.25-0.1,0.37-0.14c0.12-0.05,0.25-0.09,0.37-0.14c0.13-0.04,0.25-0.09,0.38-0.13  c0.12-0.04,0.24-0.08,0.37-0.12C12.9,3,13.03,2.96,13.15,2.93c0.12-0.03,0.24-0.07,0.36-0.1c0.13-0.03,0.25-0.07,0.38-0.1  c0.12-0.03,0.24-0.06,0.35-0.09c0.13-0.03,0.25-0.06,0.38-0.08c0.12-0.03,0.23-0.05,0.35-0.07c0.12-0.02,0.24-0.05,0.37-0.07  c0.11-0.02,0.23-0.04,0.34-0.06c0.12-0.02,0.25-0.04,0.37-0.06c0.11-0.02,0.22-0.03,0.32-0.05c0.12-0.02,0.25-0.03,0.37-0.05  c0.1-0.01,0.2-0.03,0.3-0.04c0.12-0.01,0.24-0.02,0.35-0.04c0.1-0.01,0.2-0.02,0.3-0.03c0.12-0.01,0.23-0.02,0.35-0.03  c0.09-0.01,0.18-0.01,0.27-0.02c0.12-0.01,0.24-0.01,0.36-0.02c0.08,0,0.16-0.01,0.23-0.01c0.13-0.01,0.26-0.01,0.38-0.01  c0.06,0,0.12,0,0.18-0.01C19.66,2,19.83,2,20,2S20.34,2,20.52,2.01z M12.11,19.88c0.98,8.76,2.3,12.08,3.9,15.44  c0.88,1.84,1.18,3.12,1.9,10.56h-1.01c-0.77-6.05-1.87-7.61-3.04-9.26c-2.78-3.93-5.61-8.97-5.84-16.74H12.11z M17.81,34.46  c-1.56-3.27-2.75-6.28-3.7-14.58h11.77c-0.9,8.04-1.93,11.16-3.68,14.55c-1.12,2.17-1.42,4.06-2.12,11.45h-0.18  C19.2,38.37,18.87,36.69,17.81,34.46z M23.98,35.34c1.84-3.56,2.97-7.01,3.91-15.47h4.09c-0.23,7.77-3.06,12.82-5.84,16.74  c-1.17,1.65-2.27,3.21-3.04,9.26H22.1C22.79,38.58,23.07,37.1,23.98,35.34z M9.75,39.51c-3.15-4.46-7.42-10.52-7.72-19.63h3.99  c0.23,8.33,3.24,13.72,6.2,17.9c1.05,1.48,1.96,2.76,2.65,8.1H13C12.97,44.06,11.61,42.14,9.75,39.51z M22.5,57.88h-5l-1.5-2h8  L22.5,57.88z M27,53.88H13v-2h14V53.88z M27,49.88H13v-2h2.11h2.98h3.82h2.98H27V49.88z M30.25,39.51  c-1.87,2.64-3.22,4.55-3.25,6.37h-1.87c0.7-5.34,1.61-6.63,2.65-8.1c2.96-4.18,5.97-9.57,6.2-17.9h3.99  C37.67,28.99,33.41,35.05,30.25,39.51z"/><text x="0" y="74.88" fill="#000000" font-size="5px" font-weight="bold" font-family="'Helvetica Neue', Helvetica, Arial-Unicode, Arial, Sans-serif">Created by Oliviu Stoian</text><text x="0" y="79.88" fill="#000000" font-size="5px" font-weight="bold" font-family="'Helvetica Neue', Helvetica, Arial-Unicode, Arial, Sans-serif">from the Noun Project</text></svg>