<?xml version="1.0" encoding="UTF-8" standalone="no"?>
<svg
   xmlns:dc="http://purl.org/dc/elements/1.1/"
   xmlns:cc="http://creativecommons.org/ns#"
   xmlns:rdf="http://www.w3.org/1999/02/22-rdf-syntax-ns#"
   xmlns:svg="http://www.w3.org/2000/svg"
   xmlns="http://www.w3.org/2000/svg"
   height="59.986"
   width="39.998993"
   id="svg2"
   y="0px"
   x="0px"
   version="1.1"
   viewBox="0 0 39.998993 59.986">
  <metadata
     id="metadata38">
    <rdf:RDF>
      <cc:Work
         rdf:about="">
        <dc:format>image/svg+xml</dc:format>
        <dc:type
           rdf:resource="http://purl.org/dc/dcmitype/StillImage" />
        <dc:title>Group 223</dc:title>
      </cc:Work>
    </rdf:RDF>
  </metadata>
  <defs
     id="defs36" />
  <title
     id="title4">Group 223</title>
  <desc
     id="desc6">Created with Sketch.</desc>
  <g
     style="fill:none;fill-rule:evenodd;stroke:none;stroke-width:1"
     transform="translate(-0.0179622,-0.0175)"
     id="g8">
    <g
       style="fill:#000000"
       id="g10"
       transform="translate(-250,-3047)">
      <g
         id="g12"
         transform="translate(250,3047)">
        <path
           id="path14"
           d="m 13.018,54.003 14,0 0,-10 -14,0 0,10 z m 15,2 -16,0 c -0.552,0 -1,-0.447 -1,-1 l 0,-12 c 0,-0.552 0.448,-1 1,-1 l 16,0 c 0.552,0 1,0.448 1,1 l 0,12 c 0,0.553 -0.448,1 -1,1 l 0,0 z" />
        <path
           id="path16"
           d="m 16.0178,56.0035 0.9,1.2 c 0.376,0.501 0.974,0.8 1.6,0.8 l 3,0 c 0.626,0 1.224,-0.299 1.6,-0.8 l 0.9,-1.2 -8,0 z m 5.5,4 -3,0 c -1.253,0 -2.449,-0.599 -3.2,-1.601 l -2.1,-2.799 c -0.227,-0.303 -0.264,-0.708 -0.095,-1.047 0.17,-0.339 0.516,-0.553 0.895,-0.553 l 12,0 c 0.379,0 0.725,0.214 0.895,0.553 0.169,0.339 0.132,0.744 -0.095,1.047 l -2.1,2.799 c -0.751,1.002 -1.947,1.601 -3.2,1.601 l 0,0 z" />
        <path
           id="path18"
           d="m 19.0178,48.0035 -7,0 c -0.552,0 -1,-0.447 -1,-1 0,-0.553 0.448,-1 1,-1 l 7,0 c 0.552,0 1,0.447 1,1 0,0.553 -0.448,1 -1,1" />
        <path
           id="path20"
           d="m 28.0178,52.0035 -7,0 c -0.552,0 -1,-0.447 -1,-1 0,-0.553 0.448,-1 1,-1 l 7,0 c 0.552,0 1,0.447 1,1 0,0.553 -0.448,1 -1,1" />
        <path
           id="path22"
           d="m 28.0178,48.0035 -4,0 c -0.552,0 -1,-0.447 -1,-1 0,-0.553 0.448,-1 1,-1 l 4,0 c 0.552,0 1,0.447 1,1 0,0.553 -0.448,1 -1,1" />
        <path
           id="path24"
           d="m 16.0178,52.0035 -4,0 c -0.552,0 -1,-0.447 -1,-1 0,-0.553 0.448,-1 1,-1 l 4,0 c 0.552,0 1,0.447 1,1 0,0.553 -0.448,1 -1,1" />
        <path
           id="path26"
           d="m 12.8088,42.0035 14.418,0 c 0.77,-2.863 2.56,-5.74 5.103,-8.179 4.173,-4.003 6.205,-9.616 5.574,-15.401 -0.928,-8.504 -7.769,-15.359 -16.267,-16.302 -0.505,-0.056 -1.043,-0.091 -1.643,-0.104 -0.552,0.013 -1.09,0.048 -1.596,0.104 -8.497,0.943 -15.339,7.798 -16.266,16.302 -0.631,5.785 1.401,11.398 5.574,15.401 2.543,2.439 4.333,5.316 5.103,8.179 m 15.209,2 -16,0 c -0.476,0 -0.886,-0.335 -0.98,-0.802 -0.552,-2.728 -2.227,-5.546 -4.716,-7.933 -4.625,-4.436 -6.877,-10.655 -6.179,-17.062 1.029,-9.428 8.614,-17.028 18.035,-18.073 0.564,-0.063 1.158,-0.101 1.816,-0.116 0.706,0.015 1.3,0.053 1.863,0.116 9.422,1.045 17.007,8.645 18.035,18.073 0.699,6.407 -1.553,12.626 -6.178,17.062 -2.489,2.387 -4.164,5.205 -4.716,7.933 -0.094,0.467 -0.504,0.802 -0.98,0.802" />
        <path
           id="path28"
           d="m 14.0178,21.0035 c -1.103,0 -2,0.897 -2,2 0,1.103 0.897,2 2,2 l 2,0 0,-2 c 0,-1.103 -0.897,-2 -2,-2 l 0,0 z m 10,4 2,0 c 1.103,0 2,-0.897 2,-2 0,-1.103 -0.897,-2 -2,-2 -1.103,0 -2,0.897 -2,2 l 0,2 z m -1,19 c -0.552,0 -1,-0.447 -1,-1 l 0,-16 -4,0 0,16 c 0,0.553 -0.448,1 -1,1 -0.552,0 -1,-0.447 -1,-1 l 0,-16 -2,0 c -2.206,0 -4,-1.794 -4,-4 0,-2.206 1.794,-4 4,-4 2.206,0 4,1.794 4,4 l 0,2 4,0 0,-2 c 0,-2.206 1.794,-4 4,-4 2.206,0 4,1.794 4,4 0,2.206 -1.794,4 -4,4 l -2,0 0,16 c 0,0.553 -0.448,1 -1,1 l 0,0 z" />
      </g>
    </g>
  </g>
  <text
     style="font-weight:bold;font-size:5px;font-family:'Helvetica Neue', Helvetica, Arial-Unicode, Arial, Sans-serif;fill:#000000"
     id="text30"
     font-weight="bold"
     font-size="5px"
     y="75"
     x="6.2157557e-10">Created by Oliviu Stoian</text>
  <text
     style="font-weight:bold;font-size:5px;font-family:'Helvetica Neue', Helvetica, Arial-Unicode, Arial, Sans-serif;fill:#000000"
     id="text32"
     font-weight="bold"
     font-size="5px"
     y="80"
     x="6.2157557e-10">from the Noun Project</text>
</svg>
