<?xml version="1.0" encoding="UTF-8" standalone="no"?>
<svg
   xmlns:dc="http://purl.org/dc/elements/1.1/"
   xmlns:cc="http://creativecommons.org/ns#"
   xmlns:rdf="http://www.w3.org/1999/02/22-rdf-syntax-ns#"
   xmlns:svg="http://www.w3.org/2000/svg"
   xmlns="http://www.w3.org/2000/svg"
   height="59.869999"
   width="40"
   id="svg2"
   xml:space="preserve"
   enable-background="new 0 0 40 59.88"
   viewBox="0 0 40 59.87"
   y="0px"
   x="0px"
   version="1.1"><metadata
     id="metadata14"><rdf:RDF><cc:Work
         rdf:about=""><dc:format>image/svg+xml</dc:format><dc:type
           rdf:resource="http://purl.org/dc/dcmitype/StillImage" /><dc:title></dc:title></cc:Work></rdf:RDF></metadata><defs
     id="defs12" /><path
     id="path4"
     d="M 40,18.88 C 40,7.06 32.52,0 20,0 7.48,0 0,7.06 0,18.88 l 0,1 0.03,0 c 0.3,9.76 4.96,16.37 8.08,20.79 1.55,2.18 2.89,4.07 2.89,5.27 l 0,1.93 0,2 0,2 0,4 2.5,0 3,4 7,0 3,-4 2.5,0 0,-4 0,-2 0,-2 0,-1.93 c 0,-1.2 1.34,-3.09 2.89,-5.28 3.12,-4.42 7.78,-11.03 8.08,-20.79 l 0.03,0 0,-0.99 z M 20.52,2.01 c 0.06,0 0.12,0 0.18,0.01 0.13,0 0.25,0.01 0.38,0.01 0.08,0 0.16,0.01 0.23,0.01 0.12,0.01 0.24,0.01 0.36,0.02 0.09,0.01 0.18,0.01 0.27,0.02 0.12,0.01 0.23,0.02 0.35,0.03 0.1,0.01 0.2,0.02 0.3,0.03 0.12,0.01 0.23,0.02 0.35,0.04 0.1,0.01 0.2,0.02 0.3,0.04 0.12,0.02 0.25,0.03 0.37,0.05 0.11,0.01 0.22,0.03 0.32,0.05 0.12,0.02 0.24,0.04 0.37,0.06 0.11,0.02 0.23,0.04 0.35,0.06 0.12,0.02 0.24,0.04 0.37,0.07 0.12,0.02 0.23,0.05 0.35,0.07 0.12,0.03 0.25,0.05 0.37,0.08 0.12,0.03 0.24,0.06 0.35,0.09 0.13,0.03 0.25,0.06 0.38,0.1 0.12,0.03 0.24,0.07 0.36,0.1 0.14,0.01 0.27,0.05 0.4,0.09 0.12,0.04 0.24,0.08 0.37,0.12 0.13,0.04 0.25,0.08 0.38,0.13 0.12,0.04 0.25,0.09 0.37,0.14 0.12,0.05 0.25,0.09 0.37,0.14 0.12,0.05 0.24,0.1 0.37,0.16 0.12,0.05 0.25,0.11 0.37,0.16 0.12,0.06 0.24,0.11 0.36,0.17 0.12,0.06 0.25,0.12 0.37,0.19 0.12,0.06 0.24,0.13 0.36,0.19 0.12,0.07 0.24,0.13 0.36,0.21 0.12,0.07 0.23,0.14 0.35,0.22 0.12,0.07 0.24,0.15 0.35,0.23 0.12,0.08 0.23,0.16 0.34,0.24 0.11,0.08 0.23,0.16 0.34,0.25 0.11,0.08 0.22,0.17 0.33,0.26 0.11,0.09 0.22,0.18 0.33,0.28 0.11,0.09 0.21,0.19 0.32,0.28 0.11,0.1 0.22,0.2 0.32,0.3 0.1,0.1 0.2,0.2 0.3,0.31 0.1,0.11 0.21,0.22 0.31,0.33 0.1,0.11 0.19,0.22 0.29,0.33 0.1,0.12 0.19,0.24 0.29,0.36 0.09,0.12 0.18,0.24 0.27,0.36 0.09,0.13 0.18,0.26 0.27,0.39 0.09,0.13 0.17,0.26 0.25,0.39 0.09,0.14 0.17,0.28 0.25,0.42 0.08,0.14 0.16,0.27 0.23,0.42 0.08,0.15 0.15,0.3 0.23,0.45 0.07,0.15 0.14,0.29 0.21,0.44 0.07,0.16 0.14,0.32 0.2,0.48 0.06,0.16 0.13,0.31 0.19,0.48 0.06,0.17 0.12,0.34 0.18,0.52 0.05,0.17 0.11,0.33 0.16,0.51 0.05,0.18 0.1,0.37 0.15,0.56 0.05,0.18 0.09,0.35 0.13,0.54 0.04,0.19 0.08,0.39 0.12,0.59 0.04,0.19 0.07,0.37 0.1,0.57 0.03,0.21 0.06,0.42 0.09,0.64 0.03,0.2 0.05,0.39 0.07,0.6 0.02,0.22 0.04,0.45 0.05,0.68 0.02,0.21 0.03,0.42 0.04,0.63 0,0.06 0,0.13 0.01,0.2 l -3.98,0 -5.89,0 -16.22,0 -5.89,0 -3.97,0 c 0,-0.06 0,-0.13 0.01,-0.2 C 2.05,17.49 2.07,17.29 2.08,17.08 2.1,16.85 2.11,16.63 2.13,16.4 2.15,16.2 2.18,16 2.2,15.8 2.23,15.59 2.26,15.37 2.29,15.16 2.32,14.97 2.36,14.78 2.39,14.59 2.43,14.39 2.47,14.19 2.51,14 2.55,13.82 2.6,13.64 2.64,13.46 2.69,13.27 2.74,13.09 2.79,12.9 2.84,12.73 2.89,12.56 2.95,12.39 3.01,12.22 3.07,12.04 3.13,11.87 3.19,11.71 3.25,11.55 3.32,11.39 3.39,11.23 3.45,11.06 3.52,10.91 3.59,10.76 3.66,10.61 3.73,10.47 3.8,10.3 3.88,10.15 3.95,10 4.02,9.86 4.1,9.72 4.18,9.59 4.26,9.45 4.34,9.31 4.43,9.17 4.52,9.04 4.6,8.91 4.69,8.78 4.78,8.65 4.86,8.52 4.96,8.4 5.05,8.28 5.14,8.16 5.23,8.04 5.32,7.92 5.42,7.8 5.52,7.68 5.61,7.56 5.71,7.45 5.8,7.34 5.9,7.23 6,7.12 6.11,7.01 6.21,6.91 6.31,6.8 6.41,6.7 6.52,6.6 6.62,6.5 6.73,6.4 6.84,6.3 6.94,6.21 7.05,6.12 7.16,6.03 7.27,5.93 7.38,5.84 7.49,5.75 7.6,5.67 7.72,5.58 7.83,5.5 7.94,5.41 8.06,5.33 8.17,5.25 8.29,5.17 8.4,5.09 8.52,5.01 8.63,4.94 8.75,4.86 8.87,4.79 8.99,4.72 9.1,4.65 9.22,4.58 9.34,4.51 9.46,4.44 9.58,4.38 9.7,4.31 9.82,4.25 9.94,4.19 10.07,4.13 10.19,4.06 10.31,4 10.43,3.94 10.55,3.89 10.67,3.83 10.8,3.78 10.92,3.73 11.04,3.68 11.16,3.62 11.29,3.57 11.41,3.52 11.54,3.47 11.66,3.43 11.78,3.38 11.91,3.34 12.03,3.29 12.16,3.25 12.28,3.2 12.41,3.16 12.53,3.12 12.65,3.08 12.78,3.04 12.9,3 13.03,2.96 13.15,2.93 13.27,2.9 13.39,2.86 13.51,2.83 13.64,2.8 13.76,2.76 13.89,2.73 14.01,2.7 14.13,2.67 14.24,2.64 14.37,2.61 14.49,2.58 14.62,2.56 14.74,2.53 14.85,2.51 14.97,2.49 15.09,2.47 15.21,2.44 15.34,2.42 15.45,2.4 15.57,2.38 15.68,2.36 15.8,2.34 15.93,2.32 16.05,2.3 16.16,2.28 16.27,2.27 16.37,2.25 16.49,2.23 16.62,2.22 16.74,2.2 c 0.1,-0.01 0.2,-0.03 0.3,-0.04 0.12,-0.01 0.24,-0.02 0.35,-0.04 0.1,-0.01 0.2,-0.02 0.3,-0.03 0.12,-0.01 0.23,-0.02 0.35,-0.03 0.09,-0.01 0.18,-0.01 0.27,-0.02 0.12,-0.01 0.24,-0.01 0.36,-0.02 0.08,0 0.16,-0.01 0.23,-0.01 C 19.03,2 19.16,2 19.28,2 19.34,2 19.4,2 19.46,1.99 19.66,2 19.83,2 20,2 c 0.17,0 0.34,0 0.52,0.01 z m -8.41,17.87 c 0.98,8.76 2.3,12.08 3.9,15.44 0.88,1.84 1.18,3.12 1.9,10.56 l -1.01,0 C 16.13,39.83 15.03,38.27 13.86,36.62 11.08,32.69 8.25,27.65 8.02,19.88 l 4.09,0 z m 5.7,14.58 c -1.56,-3.27 -2.75,-6.28 -3.7,-14.58 l 11.77,0 c -0.9,8.04 -1.93,11.16 -3.68,14.55 -1.12,2.17 -1.42,4.06 -2.12,11.45 l -0.18,0 C 19.2,38.37 18.87,36.69 17.81,34.46 Z m 6.17,0.88 c 1.84,-3.56 2.97,-7.01 3.91,-15.47 l 4.09,0 c -0.23,7.77 -3.06,12.82 -5.84,16.74 -1.17,1.65 -2.27,3.21 -3.04,9.26 l -1,0 c 0.69,-7.29 0.97,-8.77 1.88,-10.53 z M 9.75,39.51 C 6.6,35.05 2.33,28.99 2.03,19.88 l 3.99,0 c 0.23,8.33 3.24,13.72 6.2,17.9 1.05,1.48 1.96,2.76 2.65,8.1 l -1.87,0 C 12.97,44.06 11.61,42.14 9.75,39.51 Z m 12.75,18.37 -5,0 -1.5,-2 8,0 -1.5,2 z m 4.5,-4 -14,0 0,-2 14,0 0,2 z m 0,-4 -14,0 0,-2 2.11,0 2.98,0 3.82,0 2.98,0 2.11,0 0,2 z m 3.25,-10.37 c -1.87,2.64 -3.22,4.55 -3.25,6.37 l -1.87,0 c 0.7,-5.34 1.61,-6.63 2.65,-8.1 2.96,-4.18 5.97,-9.57 6.2,-17.9 l 3.99,0 c -0.3,9.11 -4.56,15.17 -7.72,19.63 z" /><text
     style="font-weight:bold;font-size:5px;font-family:'Helvetica Neue', Helvetica, Arial-Unicode, Arial, Sans-serif;fill:#000000"
     id="text6"
     font-weight="bold"
     font-size="5px"
     y="74.879997"
     x="0">Created by Oliviu Stoian</text>
<text
     style="font-weight:bold;font-size:5px;font-family:'Helvetica Neue', Helvetica, Arial-Unicode, Arial, Sans-serif;fill:#000000"
     id="text8"
     font-weight="bold"
     font-size="5px"
     y="79.879997"
     x="0">from the Noun Project</text>
</svg>