<?xml version="1.0" encoding="UTF-8" standalone="no"?>
<svg
   xmlns:dc="http://purl.org/dc/elements/1.1/"
   xmlns:cc="http://creativecommons.org/ns#"
   xmlns:rdf="http://www.w3.org/1999/02/22-rdf-syntax-ns#"
   xmlns:svg="http://www.w3.org/2000/svg"
   xmlns="http://www.w3.org/2000/svg"
   height="60"
   width="33.979633"
   id="svg2"
   xml:space="preserve"
   enable-background="new 0 0 34 60"
   viewBox="0 0 33.979633 60"
   y="0px"
   x="0px"
   version="1.1"><metadata
     id="metadata14"><rdf:RDF><cc:Work
         rdf:about=""><dc:format>image/svg+xml</dc:format><dc:type
           rdf:resource="http://purl.org/dc/dcmitype/StillImage" /><dc:title></dc:title></cc:Work></rdf:RDF></metadata><defs
     id="defs12" /><path
     id="path4"
     d="m 31.424817,23.38 c 0.41,-0.36 0.78,-0.77 1.06,-1.26 0.67,-1.16 0.85,-2.51 0.5,-3.79 -0.3,-1.11 -0.96,-2.04 -1.83,-2.7 0.89,-0.43 1.63,-1.12 2.14,-2 0.67,-1.16 0.85,-2.5 0.5,-3.79 -0.58,-2.18 -2.57,-3.71 -4.84,-3.71 -0.43,0 -0.87,0.06 -1.29,0.17 l -2.13,0.57 c 0.4,-0.98 0.51,-2.08 0.22,-3.17 -0.57,-2.18 -2.56,-3.7 -4.82,-3.7 -0.43,0 -0.87,0.06 -1.28,0.17 L 8.6848166,3.03 c -1.29,0.35 -2.37,1.18 -3.03,2.34 -0.67,1.16 -0.85,2.51 -0.5,3.79 0.3,1.11 0.96,2.04 1.83,2.7 l -2.47,0.66 c -1.29,0.34 -2.36,1.17 -3.03,2.33 -0.66999999,1.16 -0.84999999,2.51 -0.49999999,3.79 0.29999999,1.11 0.95999999,2.04 1.82999999,2.7 -0.89,0.43 -1.63,1.12 -2.13999999,2 -0.67,1.16 -0.85,2.51 -0.5,3.79 0.58,2.18 2.56999999,3.71 4.83999999,3.71 0.43,0 0.87,-0.06 1.29,-0.17 l 6.5400004,-1.75 c -0.53,0.93 -0.83,2 -0.83,3.12 l 0,2.96 -7.5700004,0 c -1.36,0 -2.47,1.11 -2.47,2.47 l 0,5.42 c 0,3.54 2.61,6.48 6,7.01 l 0,1.1 0,2 0,3 2.5000004,0 3,4 7,0 3,-4 2.5,0 0,-3 0,-2 0,-1.1 c 3.39,-0.54 6,-3.47 6,-7.01 l 0,-5.42 c 0,-1.36 -1.1,-2.47 -2.46,-2.47 l -7.9,0 c 0.13,-0.09 0.27,-0.15 0.43,-0.2 l 8.23,-2.25 c 1.29,-0.34 2.36,-1.17 3.03,-2.33 0.67,-1.16 0.85,-2.51 0.5,-3.79 -0.35,-1.33 -1.24,-2.41 -2.38,-3.05 z M 7.3848166,6.37 c 0.4,-0.7 1.05,-1.19 1.81,-1.4 L 20.164817,2.1 c 0.25,-0.07 0.51,-0.1 0.77,-0.1 1.36,0 2.55,0.91 2.9,2.22 0.43,1.6 -0.52,3.25 -2.12,3.67 l -10.97,2.87 C 9.1748166,11.18 7.4948166,10.2 7.0748166,8.64 c -0.2,-0.77 -0.1,-1.58 0.31,-2.27 z m -4.18,9.48 c 0.4,-0.7 1.05,-1.19 1.82,-1.4 L 28.204817,8.24 c 0.25,-0.07 0.51,-0.1 0.77,-0.1 1.36,0 2.55,0.91 2.91,2.22 0.21,0.77 0.1,1.58 -0.3,2.27 -0.4,0.7 -1.05,1.19 -1.82,1.4 l -2.65,0.71 c -0.08,0.02 -0.16,0.03 -0.24,0.05 L 6.4248166,20.27 c -1.53,0.32 -3.12,-0.64 -3.53,-2.14 -0.2,-0.78 -0.1,-1.58 0.31,-2.28 z m 2.55,12.88 c -1.58,0.42 -3.26,-0.56 -3.67,-2.12 -0.21,-0.77 -0.1,-1.58 0.3,-2.27 0.4,-0.69 1.05,-1.19 1.82,-1.4 l 2.65,-0.71 c 0.08,-0.02 0.16,-0.03 0.24,-0.05 L 27.504817,16.71 c 0.21,-0.05 0.43,-0.09 0.65,-0.09 1.36,0 2.55,0.91 2.91,2.22 0.21,0.77 0.1,1.58 -0.3,2.27 -0.4,0.7 -1.05,1.19 -1.82,1.4 L 5.7548166,28.73 Z M 19.474817,58 l -5,0 -1.5,-2 8,0 -1.5,2 z m 4.5,-4 -14.0000004,0 0,-1 14.0000004,0 0,1 z m -14.0000004,-3 0,-1 14.0000004,0 0,1 -14.0000004,0 z m 20.0000004,-13.53 0,5.42 c 0,2.82 -2.29,5.11 -5.11,5.11 L 9.0848166,48 c -2.82,0 -5.11,-2.29 -5.11,-5.11 l 0,-5.42 c 0,-0.26 0.21,-0.47 0.47,-0.47 l 7.5300004,0 8,0 9.53,0 c 0.26,0 0.47,0.21 0.47,0.47 z m 1.6,-8.25 c -0.4,0.7 -1.05,1.19 -1.82,1.4 l -8.24,2.25 c -1.09,0.3 -1.94,1.11 -2.32,2.13 l -5.22,0 0,-2.97 c 0,-1.96 1.32,-3.69 3.23,-4.2 l 11,-3 c 0.25,-0.07 0.51,-0.1 0.77,-0.1 1.36,0 2.55,0.91 2.91,2.22 0.2,0.77 0.09,1.58 -0.31,2.27 z" /><text
     style="font-weight:bold;font-size:5px;font-family:'Helvetica Neue', Helvetica, Arial-Unicode, Arial, Sans-serif;fill:#000000"
     id="text6"
     font-weight="bold"
     font-size="5px"
     y="75"
     x="-3.0207568e-09">Created by Oliviu Stoian</text>
<text
     style="font-weight:bold;font-size:5px;font-family:'Helvetica Neue', Helvetica, Arial-Unicode, Arial, Sans-serif;fill:#000000"
     id="text8"
     font-weight="bold"
     font-size="5px"
     y="80"
     x="-3.0207568e-09">from the Noun Project</text>
</svg>