<svg xmlns="http://www.w3.org/2000/svg" xmlns:xlink="http://www.w3.org/1999/xlink" version="1.1" x="0px" y="0px" viewBox="0 0 100 56.63125" enable-background="new 0 0 100 45.305" xml:space="preserve"><path d="M97.159,0H2.841C1.272,0,0,1.272,0,2.841V43.04c0,1.568,1.272,2.265,2.841,2.265h94.318c1.569,0,2.841-0.696,2.841-2.265  V2.841C100,1.272,98.729,0,97.159,0z M18.463,26.11c-1.91,0-3.458-1.548-3.458-3.458c0-1.91,1.548-3.458,3.458-3.458  c1.91,0,3.458,1.548,3.458,3.458C21.921,24.563,20.373,26.11,18.463,26.11z M50,39.329c-7.621,0-13.799-7.467-13.799-16.677  S42.379,5.976,50,5.976c7.621,0,13.799,7.467,13.799,16.677S57.621,39.329,50,39.329z M81.537,26.11  c-1.91,0-3.458-1.548-3.458-3.458c0-1.91,1.548-3.458,3.458-3.458s3.458,1.548,3.458,3.458C84.995,24.563,83.447,26.11,81.537,26.11  z"/><path d="M51.084,21.609c-1.636-0.589-2.302-1.008-2.302-1.617c0-0.533,0.399-1.084,1.636-1.084c1.37,0,2.263,0.438,2.739,0.666  l0.571-2.149c-0.666-0.304-1.522-0.589-2.777-0.627v-1.674h-1.864v1.807c-2.036,0.38-3.215,1.693-3.215,3.386  c0,1.845,1.388,2.796,3.424,3.481c1.426,0.475,2.036,0.932,2.036,1.655c0,0.742-0.742,1.179-1.846,1.179  c-1.236,0-2.358-0.399-3.157-0.836l-0.571,2.225c0.723,0.399,1.959,0.762,3.234,0.818v1.807h1.883v-1.959  c2.188-0.361,3.366-1.807,3.366-3.5C54.241,23.454,53.348,22.408,51.084,21.609z"/><text x="0" y="60.305" fill="#000000" font-size="5px" font-weight="bold" font-family="'Helvetica Neue', Helvetica, Arial-Unicode, Arial, Sans-serif">Created by Wilson Joseph</text><text x="0" y="65.305" fill="#000000" font-size="5px" font-weight="bold" font-family="'Helvetica Neue', Helvetica, Arial-Unicode, Arial, Sans-serif">from the Noun Project</text></svg>