<svg xmlns="http://www.w3.org/2000/svg" xmlns:xlink="http://www.w3.org/1999/xlink" version="1.1" x="0px" y="0px" viewBox="0 0 100 125" enable-background="new 0 0 100 100" xml:space="preserve"><path d="M96.6,19.7H3.4c-1.3,0-2.3,1-2.3,2.3v55.9c0,1.3,1,2.3,2.3,2.3h93.1c1.3,0,2.3-1,2.3-2.3V22.1  C98.9,20.8,97.8,19.7,96.6,19.7z M91.7,63.7c-0.7-0.2-1.4-0.3-2.1-0.3c-4.7,0-8.6,3.8-8.6,8.6c0,0.4,0,0.7,0.1,1.1H18.3  c0.1-0.5,0.1-1,0.1-1.6c0-4.7-3.8-8.6-8.6-8.6c-0.5,0-1,0-1.5,0.1V37c0.5,0.1,1,0.1,1.5,0.1c4.7,0,8.6-3.8,8.6-8.6  c0-0.5-0.1-1.1-0.1-1.6h62.9C81,27.6,81,28.3,81,29.1c0,4.7,3.8,8.6,8.6,8.6c0.7,0,1.4-0.1,2.1-0.3V63.7z M83.6,47.9v4.1  c0,0.6-0.5,1.1-1.1,1.1h-7.2c-0.6,0-1.1-0.5-1.1-1.1v-4.1c0-0.6,0.5-1.1,1.1-1.1h7.2C83.1,46.8,83.6,47.3,83.6,47.9z M25.9,47.9v4.1  c0,0.6-0.5,1.1-1.1,1.1h-7.2c-0.6,0-1.1-0.5-1.1-1.1v-4.1c0-0.6,0.5-1.1,1.1-1.1h7.2C25.3,46.8,25.9,47.3,25.9,47.9z M50,31.4  c-10.3,0-18.6,8.3-18.6,18.6c0,10.3,8.3,18.6,18.6,18.6c10.3,0,18.6-8.3,18.6-18.6C68.6,39.7,60.3,31.4,50,31.4z M48.8,46.8  c0.4,0.4,1,0.8,2,1.3c2.2,1,3.9,1.9,4.9,2.9c1.1,1,1.6,2.3,1.6,4.1c0,1.7-0.5,3-1.6,4.1c-0.9,0.9-2.1,1.4-3.5,1.7v2.4  c0,0.3-0.3,0.6-0.6,0.6h-2.1c-0.3,0-0.6-0.3-0.6-0.6v-2.4c-1.8-0.2-3.3-0.9-4.5-1.9c-1.1-1-1.7-2.4-1.8-4.3c0-0.4,0.3-0.7,0.7-0.7  l3.5-0.1c0.3,0,0.7,0.3,0.7,0.6c0.1,0.9,0.3,1.5,0.8,2c0.5,0.5,1.2,0.8,2,0.8c0.7,0,1.2-0.2,1.6-0.6c0.4-0.4,0.5-0.9,0.5-1.6  c0-0.8-0.2-1.4-0.6-1.8c-0.4-0.4-1-0.8-2-1.2c-2.3-0.9-3.9-1.8-5-2.8c-1-0.9-1.6-2.3-1.6-4.1c0-1.6,0.6-3,1.7-4c1-1,2.3-1.6,3.9-1.8  v-2.5c0-0.3,0.3-0.6,0.6-0.6h2.1c0.3,0,0.6,0.3,0.6,0.6v2.6c1.5,0.3,2.7,1,3.6,2.1c0.9,1,1.4,2.3,1.5,3.8c0,0.4-0.3,0.7-0.7,0.7  L53.2,46c-0.3,0-0.7-0.2-0.7-0.6c-0.1-0.8-0.3-1.3-0.6-1.8c-0.4-0.5-0.9-0.8-1.6-0.8c-0.7,0-1.2,0.2-1.5,0.6c-0.3,0.4-0.5,1-0.5,1.6  C48.3,45.8,48.4,46.4,48.8,46.8z"/><text x="0" y="115" fill="#000000" font-size="5px" font-weight="bold" font-family="'Helvetica Neue', Helvetica, Arial-Unicode, Arial, Sans-serif">Created by Gregor Črešnar</text><text x="0" y="120" fill="#000000" font-size="5px" font-weight="bold" font-family="'Helvetica Neue', Helvetica, Arial-Unicode, Arial, Sans-serif">from the Noun Project</text></svg>