<svg xmlns="http://www.w3.org/2000/svg" xmlns:xlink="http://www.w3.org/1999/xlink" version="1.1" x="0px" y="0px" viewBox="0 0 72 90" enable-background="new 0 0 72 72" xml:space="preserve"><g><path fill="#000000" d="M70.8,16.1H1.2c-0.4,0-0.7,0.3-0.7,0.7v38.4c0,0.4,0.3,0.7,0.7,0.7h69.6c0.4,0,0.7-0.3,0.7-0.7V16.8   C71.5,16.4,71.2,16.1,70.8,16.1z M68.2,47c0,0.4-0.3,0.8-0.8,0.8c-2.3,0-4.3,1.9-4.3,4.3c0,0.4-0.3,0.8-0.8,0.8H9.6   c-0.4,0-0.8-0.3-0.8-0.8c0-2.3-1.9-4.3-4.3-4.3c-0.4,0-0.8-0.3-0.8-0.8V25c0-0.4,0.3-0.8,0.8-0.8c2.3,0,4.3-1.9,4.3-4.3   c0-0.4,0.3-0.8,0.8-0.8h52.8c0.4,0,0.8,0.3,0.8,0.8c0,2.3,1.9,4.3,4.3,4.3c0.4,0,0.8,0.3,0.8,0.8V47z"/><path fill="#000000" d="M64.6,26.9c-1.9-0.6-3.5-2.2-4.1-4.1c-0.1-0.3-0.4-0.5-0.7-0.5H12.2c-0.3,0-0.6,0.2-0.7,0.5   c-0.6,1.9-2.2,3.5-4.1,4.1c-0.3,0.1-0.5,0.4-0.5,0.7v16.7c0,0.3,0.2,0.6,0.5,0.7c1.9,0.6,3.5,2.2,4.1,4.1c0.1,0.3,0.4,0.5,0.7,0.5   h47.6c0.3,0,0.6-0.2,0.7-0.5c0.6-1.9,2.2-3.5,4.1-4.1c0.3-0.1,0.5-0.4,0.5-0.7V27.6C65.2,27.3,64.9,27,64.6,26.9z M15.9,38.6   c-0.1,0.1-0.2,0.2-0.3,0.3c-3.3,2.2-6.8-1.3-4.6-4.6c0.1-0.1,0.2-0.2,0.3-0.3C14.6,31.8,18.1,35.4,15.9,38.6z M39.9,42.4   c-0.7,0.7-1.7,1.1-3,1.3v2h-1.6v-2c-1.3-0.1-2.3-0.6-3.1-1.3c-0.7-0.7-1.1-1.6-1.2-2.9c0-0.1,0-0.3,0-0.4c0-0.1,0.1-0.1,0.1-0.1   h2.8c0,0.9,0.2,1.6,0.6,2c0.4,0.4,0.9,0.6,1.6,0.6c0.6,0,1.1-0.2,1.4-0.5c0.3-0.3,0.5-0.8,0.5-1.3c0-0.5-0.2-1-0.5-1.3   s-0.9-0.7-1.6-1c-1.5-0.5-2.6-1.2-3.3-1.8s-1.1-1.6-1.1-2.9c0-1.1,0.4-2.1,1.1-2.8c0.7-0.7,1.7-1.2,2.9-1.3v-2.2h1.6v2.2   c1.2,0.2,2.1,0.7,2.8,1.5c0.6,0.8,1,1.7,1,2.9c0,0,0,0,0,0c0,0.1-0.1,0.3-0.3,0.3H38c0-0.8-0.2-1.4-0.5-1.9   c-0.3-0.4-0.8-0.7-1.3-0.7c-0.6,0-1,0.2-1.3,0.5c-0.3,0.3-0.4,0.8-0.4,1.3c0,0.5,0.2,1,0.5,1.3c0.3,0.3,0.9,0.7,1.7,1   c1.5,0.6,2.6,1.2,3.3,1.9c0.7,0.7,1.1,1.6,1.1,2.8C41,40.8,40.6,41.7,39.9,42.4z M60,38.6c-0.1,0.1-0.2,0.2-0.3,0.3   c-3.3,2.2-6.8-1.3-4.6-4.6c0.1-0.1,0.2-0.2,0.3-0.3C58.7,31.8,62.3,35.4,60,38.6z"/></g><text x="0" y="87" fill="#000000" font-size="5px" font-weight="bold" font-family="'Helvetica Neue', Helvetica, Arial-Unicode, Arial, Sans-serif">Created by Creative Stall</text><text x="0" y="92" fill="#000000" font-size="5px" font-weight="bold" font-family="'Helvetica Neue', Helvetica, Arial-Unicode, Arial, Sans-serif">from the Noun Project</text></svg>