<svg xmlns="http://www.w3.org/2000/svg" xmlns:xlink="http://www.w3.org/1999/xlink" version="1.1" x="0px" y="0px" viewBox="0 0 100 125" style="enable-background:new 0 0 100 100;" xml:space="preserve"><style type="text/css">
	.st0{fill-rule:evenodd;clip-rule:evenodd;}
	.st1{fill:#D8D5CA;}
</style><g><path d="M20.8,30.7c-0.8,3.9-5.9,9.1-9.8,9.8v17.8c4,0.8,9.1,5.9,9.8,9.8h58.5c0.8-3.9,5.9-9.1,9.8-9.8V40.6   c-3.9-0.8-9-5.9-9.8-9.8H20.8z M50,64.7c-8.4,0-15.3-6.8-15.3-15.3c0-8.4,6.8-15.3,15.3-15.3c8.4,0,15.3,6.8,15.3,15.3   C65.3,57.9,58.4,64.7,50,64.7z"/><path d="M50.8,25.1H5v49.7H95V25.1H50.8z M91.7,71h-70h-1.9h-11V27.9h82.9V71z"/><path d="M56.5,52.5c-0.1-0.5-0.2-1-0.5-1.5c-0.3-0.5-0.8-1-1.4-1.4s-1.5-0.8-2.7-1.2c-0.2-0.1-0.4-0.1-0.6-0.2   c-0.2,0-0.4-0.1-0.6-0.1v-4.2c0.5,0,1,0.2,1.4,0.7c0.4,0.4,0.6,1,0.6,1.6H56c0-0.8-0.2-1.5-0.5-2.1c-0.3-0.6-0.7-1.1-1.2-1.5   c-0.5-0.4-1-0.7-1.6-0.9c-0.6-0.2-1.3-0.4-2-0.5v-1.8h-1.4v1.8c-0.7,0-1.4,0.2-2,0.4c-0.7,0.2-1.2,0.5-1.7,1   c-0.5,0.4-0.9,0.9-1.2,1.5c-0.3,0.6-0.5,1.3-0.5,2.1c0,0.8,0.1,1.4,0.4,2c0.3,0.5,0.6,1,1.1,1.3c0.4,0.4,1,0.6,1.5,0.8   c0.6,0.2,1.1,0.4,1.7,0.6c0.2,0,0.3,0.1,0.4,0.1c0.1,0,0.2,0.1,0.3,0.1V56c-0.7-0.1-1.3-0.5-1.8-1c-0.5-0.5-0.7-1.2-0.7-2.1h-3.3   c0.2,1.8,0.7,3.2,1.7,4.2c1,1,2.4,1.5,4.1,1.6v2h1.4v-2c1.2-0.1,2.1-0.3,2.9-0.7c0.8-0.4,1.4-0.8,1.8-1.3c0.4-0.5,0.8-1,0.9-1.5   c0.2-0.5,0.3-1,0.3-1.3C56.5,53.4,56.5,53,56.5,52.5z M49.3,47.7c-0.8-0.2-1.3-0.4-1.6-0.7c-0.3-0.3-0.5-0.7-0.5-1.2   c0-0.3,0.1-0.6,0.2-0.9c0.1-0.2,0.3-0.4,0.5-0.6c0.2-0.2,0.4-0.3,0.7-0.4c0.3-0.1,0.5-0.1,0.8-0.1V47.7z M53,54.6   c-0.2,0.3-0.4,0.5-0.6,0.7c-0.2,0.2-0.5,0.3-0.8,0.4c-0.3,0.1-0.6,0.2-0.9,0.2v-4.5c0.9,0.3,1.6,0.5,2,0.8c0.4,0.3,0.6,0.8,0.6,1.4   C53.2,54,53.1,54.4,53,54.6z"/></g><text x="0" y="115" fill="#000000" font-size="5px" font-weight="bold" font-family="'Helvetica Neue', Helvetica, Arial-Unicode, Arial, Sans-serif">Created by Mike Ashley</text><text x="0" y="120" fill="#000000" font-size="5px" font-weight="bold" font-family="'Helvetica Neue', Helvetica, Arial-Unicode, Arial, Sans-serif">from the Noun Project</text></svg>