<svg xmlns="http://www.w3.org/2000/svg" xmlns:xlink="http://www.w3.org/1999/xlink" version="1.1" x="0px" y="0px" viewBox="0 0 72 90" enable-background="new 0 0 72 72" xml:space="preserve"><g><path fill="#000000" d="M68.6,18.6H3.4c-1.6,0-2.9,1.3-2.9,2.9v29c0,1.6,1.3,2.9,2.9,2.9h65.2c1.6,0,2.9-1.3,2.9-2.9v-29   C71.5,19.9,70.2,18.6,68.6,18.6z M8.4,39.2c-1.7,0-3.2-1.4-3.2-3.2c0-1.7,1.4-3.2,3.2-3.2c1.7,0,3.2,1.4,3.2,3.2   C11.6,37.7,10.2,39.2,8.4,39.2z M36,48.4c-6.1,0-11-5.6-11-12.4c0-6.9,4.9-12.4,11-12.4c6.1,0,11,5.6,11,12.4   C47,42.9,42.1,48.4,36,48.4z M63.6,39.2c-1.7,0-3.2-1.4-3.2-3.2c0-1.7,1.4-3.2,3.2-3.2c1.7,0,3.2,1.4,3.2,3.2   C66.7,37.7,65.3,39.2,63.6,39.2z"/><path fill="#000000" d="M36.6,34.9c-0.8-0.3-1.4-0.6-1.7-1c-0.3-0.3-0.5-0.8-0.5-1.3c0-0.6,0.1-1,0.4-1.3c0.3-0.3,0.7-0.5,1.3-0.5   c0.6,0,1,0.2,1.3,0.7c0.3,0.4,0.5,0.9,0.5,1.6c0,0.1,0.1,0.2,0.2,0.2h2.5c0.1,0,0.3-0.1,0.3-0.3c0,0,0,0,0,0c0-1.2-0.4-2.2-1-2.9   c-0.7-0.8-1.5-1.3-2.7-1.5c-0.1,0-0.1-0.1-0.1-0.2v-1.9c0-0.1-0.1-0.2-0.2-0.2h-1.3c-0.1,0-0.2,0.1-0.2,0.2v1.9   c0,0.1-0.1,0.2-0.2,0.2c-1.2,0.1-2.1,0.6-2.8,1.3c-0.7,0.7-1.1,1.7-1.1,2.8c0,1.2,0.4,2.2,1.1,2.9c0.7,0.7,1.8,1.3,3.3,1.8   c0.8,0.3,1.3,0.6,1.6,1c0.3,0.3,0.5,0.8,0.5,1.3c0,0.6-0.2,1-0.5,1.3c-0.3,0.3-0.8,0.5-1.4,0.5c-0.6,0-1.2-0.2-1.6-0.6   c-0.4-0.4-0.6-1-0.6-1.8c0-0.1-0.1-0.1-0.1-0.1h-2.6c-0.1,0-0.1,0.1-0.1,0.1c0,0.1,0,0.3,0,0.4c0.1,1.2,0.5,2.2,1.2,2.9   c0.8,0.7,1.8,1.2,3,1.3c0.1,0,0.1,0.1,0.1,0.2v1.7c0,0.1,0.1,0.2,0.2,0.2h1.3c0.1,0,0.2-0.1,0.2-0.2v-1.7c0-0.1,0.1-0.1,0.1-0.2   c1.2-0.1,2.1-0.6,2.8-1.2c0.7-0.7,1.1-1.6,1.1-2.8c0-1.2-0.4-2.1-1.1-2.8C39.2,36.1,38.1,35.5,36.6,34.9z"/></g><text x="0" y="87" fill="#000000" font-size="5px" font-weight="bold" font-family="'Helvetica Neue', Helvetica, Arial-Unicode, Arial, Sans-serif">Created by Creative Stall</text><text x="0" y="92" fill="#000000" font-size="5px" font-weight="bold" font-family="'Helvetica Neue', Helvetica, Arial-Unicode, Arial, Sans-serif">from the Noun Project</text></svg>