<?xml version="1.0" encoding="UTF-8" standalone="no"?>
<svg
   xmlns:dc="http://purl.org/dc/elements/1.1/"
   xmlns:cc="http://creativecommons.org/ns#"
   xmlns:rdf="http://www.w3.org/1999/02/22-rdf-syntax-ns#"
   xmlns:svg="http://www.w3.org/2000/svg"
   xmlns="http://www.w3.org/2000/svg"
   version="1.1"
   x="0px"
   y="0px"
   viewBox="0 0 71 34.799999"
   enable-background="new 0 0 72 72"
   xml:space="preserve"
   id="svg2"
   width="71"
   height="34.799999"><metadata
     id="metadata18"><rdf:RDF><cc:Work
         rdf:about=""><dc:format>image/svg+xml</dc:format><dc:type
           rdf:resource="http://purl.org/dc/dcmitype/StillImage" /><dc:title></dc:title></cc:Work></rdf:RDF></metadata><defs
     id="defs16" /><path
     style="fill:#000000"
     id="path6"
     d="M 68.1,0 2.9,0 C 1.3,0 0,1.3 0,2.9 l 0,29 c 0,1.6 1.3,2.9 2.9,2.9 l 65.2,0 c 1.6,0 2.9,-1.3 2.9,-2.9 l 0,-29 C 71,1.3 69.7,0 68.1,0 Z M 7.9,20.6 c -1.7,0 -3.2,-1.4 -3.2,-3.2 0,-1.7 1.4,-3.2 3.2,-3.2 1.7,0 3.2,1.4 3.2,3.2 0,1.7 -1.4,3.2 -3.2,3.2 z m 27.6,9.2 c -6.1,0 -11,-5.6 -11,-12.4 0,-6.9 4.9,-12.4 11,-12.4 6.1,0 11,5.6 11,12.4 0,6.9 -4.9,12.4 -11,12.4 z m 27.6,-9.2 c -1.7,0 -3.2,-1.4 -3.2,-3.2 0,-1.7 1.4,-3.2 3.2,-3.2 1.7,0 3.2,1.4 3.2,3.2 -0.1,1.7 -1.5,3.2 -3.2,3.2 z" /><path
     style="fill:#000000"
     id="path8"
     d="M 36.1,16.3 C 35.3,16 34.7,15.7 34.4,15.3 34.1,15 33.9,14.5 33.9,14 c 0,-0.6 0.1,-1 0.4,-1.3 0.3,-0.3 0.7,-0.5 1.3,-0.5 0.6,0 1,0.2 1.3,0.7 0.3,0.4 0.5,0.9 0.5,1.6 0,0.1 0.1,0.2 0.2,0.2 l 2.5,0 c 0.1,0 0.3,-0.1 0.3,-0.3 0,0 0,0 0,0 0,-1.2 -0.4,-2.2 -1,-2.9 C 38.7,10.7 37.9,10.2 36.7,10 36.6,10 36.6,9.9 36.6,9.8 l 0,-1.9 c 0,-0.1 -0.1,-0.2 -0.2,-0.2 l -1.3,0 c -0.1,0 -0.2,0.1 -0.2,0.2 l 0,1.9 c 0,0.1 -0.1,0.2 -0.2,0.2 -1.2,0.1 -2.1,0.6 -2.8,1.3 -0.7,0.7 -1.1,1.7 -1.1,2.8 0,1.2 0.4,2.2 1.1,2.9 0.7,0.7 1.8,1.3 3.3,1.8 0.8,0.3 1.3,0.6 1.6,1 0.3,0.3 0.5,0.8 0.5,1.3 0,0.6 -0.2,1 -0.5,1.3 -0.3,0.3 -0.8,0.5 -1.4,0.5 -0.6,0 -1.2,-0.2 -1.6,-0.6 -0.4,-0.4 -0.6,-1 -0.6,-1.8 0,-0.1 -0.1,-0.1 -0.1,-0.1 l -2.6,0 c -0.1,0 -0.1,0.1 -0.1,0.1 0,0.1 0,0.3 0,0.4 0.1,1.2 0.5,2.2 1.2,2.9 0.8,0.7 1.8,1.2 3,1.3 0.1,0 0.1,0.1 0.1,0.2 l 0,1.7 c 0,0.1 0.1,0.2 0.2,0.2 l 1.3,0 c 0.1,0 0.2,-0.1 0.2,-0.2 l 0,-1.7 c 0,-0.1 0.1,-0.1 0.1,-0.2 1.2,-0.1 2.1,-0.6 2.8,-1.2 0.7,-0.7 1.1,-1.6 1.1,-2.8 0,-1.2 -0.4,-2.1 -1.1,-2.8 -0.6,-0.8 -1.7,-1.4 -3.2,-2 z" /><text
     x="8.437695e-15"
     y="87"
     font-size="5px"
     font-weight="bold"
     id="text10"
     style="font-weight:bold;font-size:5px;font-family:'Helvetica Neue', Helvetica, Arial-Unicode, Arial, Sans-serif;fill:#000000">Created by Creative Stall</text>
<text
     x="8.437695e-15"
     y="92"
     font-size="5px"
     font-weight="bold"
     id="text12"
     style="font-weight:bold;font-size:5px;font-family:'Helvetica Neue', Helvetica, Arial-Unicode, Arial, Sans-serif;fill:#000000">from the Noun Project</text>
</svg>