<svg xmlns="http://www.w3.org/2000/svg" xmlns:xlink="http://www.w3.org/1999/xlink" xmlns:sketch="http://www.bohemiancoding.com/sketch/ns" viewBox="0 0 41 75" version="1.1" x="0px" y="0px"><title>59 - Light Bulb (Solid)</title><desc>Created with Sketch.</desc><g stroke="none" stroke-width="1" fill="none" fill-rule="evenodd" sketch:type="MSPage"><g sketch:type="MSLayerGroup" fill="#000000"><path d="M20.501,0 C19.726,0 18.939,0.044 18.16,0.13 C8.739,1.175 1.154,8.775 0.126,18.203 C-0.573,24.61 1.679,30.829 6.304,35.265 C9.272,38.11 10.977,42.019 10.996,46 L17,46 L17,38 C17,30.617 15.43,28 11,28 C10.448,28 10,27.553 10,27 C10,26.447 10.448,26 11,26 C18.37,26 18.949,32.871 18.995,37 L21.005,37 C21.051,32.871 21.63,26 29,26 C29.552,26 30,26.447 30,27 C30,27.553 29.552,28 29,28 C24.57,28 23,30.617 23,38 L23,46 L29.055,46 C29.324,42.144 31.12,38.481 34.108,35.828 C38.488,31.938 41,26.352 41,20.5 C41,9.196 31.804,0 20.501,0 L20.501,0 Z M32.849,22.528 C31.858,24.122 30.491,25 29,25 C27.898,25 26.865,24.518 26,23.624 C25.135,24.518 24.102,25 23,25 C21.898,25 20.865,24.518 20,23.624 C19.135,24.518 18.102,25 17,25 C15.898,25 14.865,24.518 14,23.624 C13.135,24.518 12.102,25 11,25 C9.509,25 8.142,24.122 7.151,22.528 C6.859,22.058 7.003,21.442 7.472,21.15 C7.94,20.859 8.557,21.003 8.849,21.472 C9.462,22.457 10.226,23 11,23 C11.774,23 12.538,22.457 13.151,21.472 C13.156,21.463 13.165,21.459 13.171,21.451 C13.206,21.396 13.258,21.355 13.305,21.308 C13.353,21.26 13.396,21.206 13.452,21.17 C13.46,21.164 13.464,21.155 13.472,21.15 C13.515,21.124 13.564,21.119 13.609,21.1 C13.675,21.071 13.738,21.038 13.809,21.025 C13.874,21.012 13.937,21.018 14.002,21.018 C14.065,21.018 14.127,21.012 14.19,21.025 C14.26,21.038 14.322,21.07 14.388,21.098 C14.434,21.118 14.484,21.123 14.528,21.15 C14.537,21.156 14.541,21.165 14.549,21.171 C14.603,21.206 14.644,21.257 14.69,21.303 C14.739,21.352 14.793,21.395 14.83,21.451 C14.835,21.459 14.844,21.463 14.849,21.472 C15.462,22.457 16.226,23 17,23 C17.774,23 18.538,22.457 19.151,21.472 C19.156,21.463 19.165,21.459 19.171,21.451 C19.206,21.396 19.258,21.355 19.305,21.308 C19.353,21.26 19.396,21.206 19.452,21.17 C19.46,21.164 19.464,21.155 19.472,21.15 C19.515,21.124 19.564,21.119 19.609,21.1 C19.675,21.071 19.738,21.038 19.809,21.025 C19.874,21.012 19.937,21.018 20.002,21.018 C20.065,21.018 20.127,21.012 20.19,21.025 C20.26,21.038 20.322,21.07 20.388,21.098 C20.434,21.118 20.484,21.123 20.528,21.15 C20.537,21.156 20.541,21.165 20.549,21.171 C20.603,21.206 20.644,21.257 20.69,21.303 C20.739,21.352 20.793,21.395 20.83,21.451 C20.835,21.459 20.844,21.463 20.849,21.472 C21.462,22.457 22.226,23 23,23 C23.774,23 24.538,22.457 25.151,21.472 C25.156,21.463 25.165,21.459 25.171,21.451 C25.206,21.396 25.258,21.355 25.305,21.308 C25.353,21.26 25.396,21.206 25.452,21.17 C25.46,21.164 25.464,21.155 25.472,21.15 C25.515,21.124 25.564,21.119 25.609,21.1 C25.675,21.071 25.738,21.038 25.809,21.025 C25.874,21.012 25.937,21.018 26.002,21.018 C26.065,21.018 26.127,21.012 26.19,21.025 C26.26,21.038 26.322,21.07 26.388,21.098 C26.434,21.118 26.484,21.123 26.528,21.15 C26.537,21.156 26.541,21.165 26.549,21.171 C26.603,21.206 26.644,21.257 26.69,21.303 C26.739,21.352 26.793,21.395 26.83,21.451 C26.835,21.459 26.844,21.463 26.849,21.472 C27.462,22.457 28.226,23 29,23 C29.774,23 30.538,22.457 31.151,21.472 C31.442,21.002 32.06,20.86 32.528,21.15 C32.997,21.442 33.141,22.058 32.849,22.528 L32.849,22.528 Z" sketch:type="MSShapeGroup"/><path d="M17,48 L11,48 L11,50 L29,50 L29,48 L17,48" sketch:type="MSShapeGroup"/><path d="M19,39 L21,39 L21,46 L19,46 L19,39 Z" sketch:type="MSShapeGroup"/><path d="M11,56 L13.5,56 L16.5,60 L23.5,60 L26.5,56 L29,56 L29,52 L11,52 L11,56 L11,56 Z M22.5,58 L17.5,58 L16,56 L24,56 L22.5,58 L22.5,58 Z" sketch:type="MSShapeGroup"/></g></g><text x="0" y="75" fill="#000000" font-size="5px" font-weight="bold" font-family="'Helvetica Neue', Helvetica, Arial-Unicode, Arial, Sans-serif">Created by Oliviu Stoian</text><text x="0" y="80" fill="#000000" font-size="5px" font-weight="bold" font-family="'Helvetica Neue', Helvetica, Arial-Unicode, Arial, Sans-serif">from the Noun Project</text></svg>