<svg xmlns="http://www.w3.org/2000/svg" xmlns:xlink="http://www.w3.org/1999/xlink" xmlns:sketch="http://www.bohemiancoding.com/sketch/ns" viewBox="0 0 40 75" version="1.1" x="0px" y="0px"><title>57 - Led Bulb (Solid)</title><desc>Created with Sketch.</desc><g stroke="none" stroke-width="1" fill="none" fill-rule="evenodd" sketch:type="MSPage"><g sketch:type="MSLayerGroup" fill="#000000"><path d="M12.106,20 L8.022,20 C8.249,27.768 11.076,32.819 13.852,36.743 C15.016,38.388 16.118,39.958 16.885,46 L17.901,46 C17.19,38.565 16.881,37.277 16.005,35.44 C14.402,32.077 13.091,28.759 12.106,20" sketch:type="MSShapeGroup"/><path d="M12.219,37.898 C9.261,33.716 6.249,28.326 6.022,20 L0.029,20 C0.334,29.757 4.989,36.367 8.114,40.785 C9.636,42.935 10.946,44.794 10.992,46 L14.871,46 C14.175,40.663 13.264,39.374 12.219,37.898" sketch:type="MSShapeGroup"/><path d="M20.09,46 C20.787,38.628 21.083,36.717 22.205,34.55 C23.957,31.16 24.981,28.028 25.883,20 L14.118,20 C15.062,28.292 16.252,31.31 17.811,34.579 C18.873,36.807 19.198,38.509 19.91,46 L20.09,46" sketch:type="MSShapeGroup"/><path d="M26.148,36.742 C28.924,32.819 31.751,27.768 31.978,20 L27.895,20 C26.954,28.459 25.824,31.904 23.981,35.468 C23.072,37.228 22.792,38.707 22.099,46 L23.115,46 C23.882,39.958 24.984,38.388 26.148,36.742" sketch:type="MSShapeGroup"/><path d="M20,0.124 C7.839,0.124 0.459,6.792 0.04,18 L39.96,18 C39.542,6.792 32.161,0.124 20,0.124" sketch:type="MSShapeGroup"/><path d="M11,48 L29,48 L29,50 L11,50 L11,48 Z" sketch:type="MSShapeGroup"/><path d="M11,56 L13.5,56 L16.5,60 L23.5,60 L26.5,56 L29,56 L29,52 L11,52 L11,56 L11,56 Z M22.5,58 L17.5,58 L16,56 L24,56 L22.5,58 L22.5,58 Z" sketch:type="MSShapeGroup"/><path d="M33.978,20 C33.751,28.326 30.739,33.716 27.781,37.897 C26.736,39.374 25.825,40.663 25.129,46 L29.008,46 C29.054,44.794 30.364,42.935 31.886,40.785 C35.011,36.367 39.666,29.757 39.971,20 L33.978,20" sketch:type="MSShapeGroup"/></g></g><text x="0" y="75" fill="#000000" font-size="5px" font-weight="bold" font-family="'Helvetica Neue', Helvetica, Arial-Unicode, Arial, Sans-serif">Created by Oliviu Stoian</text><text x="0" y="80" fill="#000000" font-size="5px" font-weight="bold" font-family="'Helvetica Neue', Helvetica, Arial-Unicode, Arial, Sans-serif">from the Noun Project</text></svg>