<svg xmlns="http://www.w3.org/2000/svg" xmlns:xlink="http://www.w3.org/1999/xlink" version="1.1" x="0px" y="0px" viewBox="0 0 100 125" enable-background="new 0 0 100 100" xml:space="preserve"><path fill="#000000" d="M64.314,15.091"/><path d="M74.415,28.461c0,0,5.06-6.981-3.797-9.016c0,0-0.79-8.292-9.646-6.401c0,0-2.372-6.981-10.912-4.363  c0,0-0.025-0.015-0.06-0.039c-0.035,0.024-0.059,0.039-0.059,0.039c-8.538-2.618-10.913,4.363-10.913,4.363  c-8.855-1.891-9.646,6.401-9.646,6.401c-8.857,2.036-3.798,9.016-3.798,9.016c-6.641,5.382-0.788,10.181-0.788,10.181  c-6.009,7.708,3.163,11.782,3.163,11.782c-0.318,5.38,7.275,5.965,7.275,5.965c1.424,5.378,7.75,3.923,7.75,3.923  c0.966,1.296,2.057,2.015,3.145,2.37l-1.021,29.225H50h4.893l-1.02-29.225c1.088-0.354,2.178-1.074,3.144-2.369  c0,0,6.327,1.454,7.751-3.923c0,0,7.591-0.586,7.275-5.965c0,0,9.172-4.073,3.162-11.782C75.205,38.642,81.058,33.843,74.415,28.461  z"/><text x="0" y="115" fill="#000000" font-size="5px" font-weight="bold" font-family="'Helvetica Neue', Helvetica, Arial-Unicode, Arial, Sans-serif">Created by Daniela Baptista</text><text x="0" y="120" fill="#000000" font-size="5px" font-weight="bold" font-family="'Helvetica Neue', Helvetica, Arial-Unicode, Arial, Sans-serif">from the Noun Project</text></svg>