<svg xmlns="http://www.w3.org/2000/svg" xmlns:xlink="http://www.w3.org/1999/xlink" version="1.1" x="0px" y="0px" viewBox="0 0 100 125" enable-background="new 0 0 100 100" xml:space="preserve"><path d="M67.018,46.492c6.046-6.656-6.217-17.933-6.217-17.933c6.908-1.664-2.246-15.53-6.392-19.23  C52.688,7.793,51.18,7.381,50,7.416c-1.18-0.035-2.688,0.377-4.41,1.913c-4.146,3.7-13.299,17.566-6.392,19.23  c0,0-12.263,11.277-6.217,17.933c0,0-12.058,11.28-7.74,21.449c3.282,7.731,16.201,8.73,22.499,8.764v13.621  c0,1.248,1.012,2.259,2.259,2.259c1.248,0,2.259-1.012,2.259-2.259V76.706c6.297-0.035,19.217-1.034,22.499-8.764  C79.076,57.772,67.018,46.492,67.018,46.492z"/><text x="0" y="115" fill="#000000" font-size="5px" font-weight="bold" font-family="'Helvetica Neue', Helvetica, Arial-Unicode, Arial, Sans-serif">Created by Daniela Baptista</text><text x="0" y="120" fill="#000000" font-size="5px" font-weight="bold" font-family="'Helvetica Neue', Helvetica, Arial-Unicode, Arial, Sans-serif">from the Noun Project</text></svg>