<?xml version="1.0" encoding="utf-8" ?>
<svg baseProfile="full" height="540.0" version="1.1" width="540.0" xmlns="http://www.w3.org/2000/svg" xmlns:ev="http://www.w3.org/2001/xml-events" xmlns:xlink="http://www.w3.org/1999/xlink"><defs><g id="backer"><path d="M27.713,16.3c0,1.156-2.134,1.96-2.473,3.003c-0.351,1.081,0.891,2.983,0.236,3.883c-0.661,0.909-2.859,0.312-3.767,0.973  c-0.9,0.655-1.008,2.932-2.088,3.283c-1.043,0.339-2.465-1.43-3.62-1.43c-1.156,0-2.578,1.768-3.62,1.429  c-1.081-0.351-1.189-2.629-2.088-3.283c-0.909-0.661-3.106-0.065-3.767-0.973c-0.655-0.9,0.587-2.802,0.236-3.883  C6.421,18.26,4.287,17.456,4.287,16.3c0-1.156,2.134-1.96,2.473-3.003c0.351-1.081-0.891-2.983-0.236-3.883  c0.661-0.909,2.859-0.312,3.767-0.973c0.9-0.655,1.008-2.932,2.088-3.283c1.043-0.339,2.465,1.43,3.62,1.43  c1.156,0,2.578-1.768,3.62-1.429c1.081,0.351,1.189,2.629,2.088,3.283c0.909,0.661,3.106,0.065,3.767,0.973  c0.655,0.9-0.587,2.802-0.236,3.883C25.579,14.34,27.713,15.145,27.713,16.3z" fill="#FFFFFF" stroke="#000000" stroke-width="1.5" /></g></defs><use transform="translate(0, 0) scale(0.67)" x="0" xlink:href="#backer" y="0" /><use transform="translate(16.875, 0) scale(0.67)" x="0" xlink:href="#backer" y="0" /><use transform="translate(33.75, 0) scale(0.67)" x="0" xlink:href="#backer" y="0" /><use transform="translate(50.625, 0) scale(0.67)" x="0" xlink:href="#backer" y="0" /><use transform="translate(67.5, 0) scale(0.67)" x="0" xlink:href="#backer" y="0" /><use transform="translate(84.375, 0) scale(0.67)" x="0" xlink:href="#backer" y="0" /><use transform="translate(101.25, 0) scale(0.67)" x="0" xlink:href="#backer" y="0" /><use transform="translate(118.125, 0) scale(0.67)" x="0" xlink:href="#backer" y="0" /><use transform="translate(135.0, 0) scale(0.67)" x="0" xlink:href="#backer" y="0" /><use transform="translate(151.875, 0) scale(0.67)" x="0" xlink:href="#backer" y="0" /><use transform="translate(168.75, 0) scale(0.67)" x="0" xlink:href="#backer" y="0" /><use transform="translate(185.625, 0) scale(0.67)" x="0" xlink:href="#backer" y="0" /><use transform="translate(202.5, 0) scale(0.67)" x="0" xlink:href="#backer" y="0" /><use transform="translate(219.375, 0) scale(0.67)" x="0" xlink:href="#backer" y="0" /><use transform="translate(236.25, 0) scale(0.67)" x="0" xlink:href="#backer" y="0" /><use transform="translate(253.125, 0) scale(0.67)" x="0" xlink:href="#backer" y="0" /><use transform="translate(270.0, 0) scale(0.67)" x="0" xlink:href="#backer" y="0" /><use transform="translate(286.875, 0) scale(0.67)" x="0" xlink:href="#backer" y="0" /><use transform="translate(303.75, 0) scale(0.67)" x="0" xlink:href="#backer" y="0" /><use transform="translate(320.625, 0) scale(0.67)" x="0" xlink:href="#backer" y="0" /><use transform="translate(337.5, 0) scale(0.67)" x="0" xlink:href="#backer" y="0" /><use transform="translate(354.375, 0) scale(0.67)" x="0" xlink:href="#backer" y="0" /><use transform="translate(371.25, 0) scale(0.67)" x="0" xlink:href="#backer" y="0" /><use transform="translate(388.125, 0) scale(0.67)" x="0" xlink:href="#backer" y="0" /><use transform="translate(405.0, 0) scale(0.67)" x="0" xlink:href="#backer" y="0" /><use transform="translate(421.875, 0) scale(0.67)" x="0" xlink:href="#backer" y="0" /><use transform="translate(0, 16.875) scale(0.67)" x="0" xlink:href="#backer" y="0" /><use transform="translate(16.875, 16.875) scale(0.67)" x="0" xlink:href="#backer" y="0" /><use transform="translate(33.75, 16.875) scale(0.67)" x="0" xlink:href="#backer" y="0" /><use transform="translate(50.625, 16.875) scale(0.67)" x="0" xlink:href="#backer" y="0" /><use transform="translate(67.5, 16.875) scale(0.67)" x="0" xlink:href="#backer" y="0" /><use transform="translate(84.375, 16.875) scale(0.67)" x="0" xlink:href="#backer" y="0" /><use transform="translate(101.25, 16.875) scale(0.67)" x="0" xlink:href="#backer" y="0" /><use transform="translate(118.125, 16.875) scale(0.67)" x="0" xlink:href="#backer" y="0" /><use transform="translate(135.0, 16.875) scale(0.67)" x="0" xlink:href="#backer" y="0" /><use transform="translate(151.875, 16.875) scale(0.67)" x="0" xlink:href="#backer" y="0" /><use transform="translate(168.75, 16.875) scale(0.67)" x="0" xlink:href="#backer" y="0" /><use transform="translate(185.625, 16.875) scale(0.67)" x="0" xlink:href="#backer" y="0" /><use transform="translate(202.5, 16.875) scale(0.67)" x="0" xlink:href="#backer" y="0" /><use transform="translate(219.375, 16.875) scale(0.67)" x="0" xlink:href="#backer" y="0" /><use transform="translate(236.25, 16.875) scale(0.67)" x="0" xlink:href="#backer" y="0" /><use transform="translate(253.125, 16.875) scale(0.67)" x="0" xlink:href="#backer" y="0" /><use transform="translate(270.0, 16.875) scale(0.67)" x="0" xlink:href="#backer" y="0" /><use transform="translate(286.875, 16.875) scale(0.67)" x="0" xlink:href="#backer" y="0" /><use transform="translate(303.75, 16.875) scale(0.67)" x="0" xlink:href="#backer" y="0" /><use transform="translate(320.625, 16.875) scale(0.67)" x="0" xlink:href="#backer" y="0" /><use transform="translate(337.5, 16.875) scale(0.67)" x="0" xlink:href="#backer" y="0" /><use transform="translate(354.375, 16.875) scale(0.67)" x="0" xlink:href="#backer" y="0" /><use transform="translate(371.25, 16.875) scale(0.67)" x="0" xlink:href="#backer" y="0" /><use transform="translate(388.125, 16.875) scale(0.67)" x="0" xlink:href="#backer" y="0" /><use transform="translate(405.0, 16.875) scale(0.67)" x="0" xlink:href="#backer" y="0" /><use transform="translate(421.875, 16.875) scale(0.67)" x="0" xlink:href="#backer" y="0" /><use transform="translate(0, 33.75) scale(0.67)" x="0" xlink:href="#backer" y="0" /><use transform="translate(16.875, 33.75) scale(0.67)" x="0" xlink:href="#backer" y="0" /><use transform="translate(33.75, 33.75) scale(0.67)" x="0" xlink:href="#backer" y="0" /><use transform="translate(50.625, 33.75) scale(0.67)" x="0" xlink:href="#backer" y="0" /><use transform="translate(67.5, 33.75) scale(0.67)" x="0" xlink:href="#backer" y="0" /><use transform="translate(84.375, 33.75) scale(0.67)" x="0" xlink:href="#backer" y="0" /><use transform="translate(101.25, 33.75) scale(0.67)" x="0" xlink:href="#backer" y="0" /><use transform="translate(118.125, 33.75) scale(0.67)" x="0" xlink:href="#backer" y="0" /><use transform="translate(135.0, 33.75) scale(0.67)" x="0" xlink:href="#backer" y="0" /><use transform="translate(151.875, 33.75) scale(0.67)" x="0" xlink:href="#backer" y="0" /><use transform="translate(168.75, 33.75) scale(0.67)" x="0" xlink:href="#backer" y="0" /><use transform="translate(185.625, 33.75) scale(0.67)" x="0" xlink:href="#backer" y="0" /><use transform="translate(202.5, 33.75) scale(0.67)" x="0" xlink:href="#backer" y="0" /><use transform="translate(219.375, 33.75) scale(0.67)" x="0" xlink:href="#backer" y="0" /><use transform="translate(236.25, 33.75) scale(0.67)" x="0" xlink:href="#backer" y="0" /><use transform="translate(253.125, 33.75) scale(0.67)" x="0" xlink:href="#backer" y="0" /><use transform="translate(270.0, 33.75) scale(0.67)" x="0" xlink:href="#backer" y="0" /><use transform="translate(286.875, 33.75) scale(0.67)" x="0" xlink:href="#backer" y="0" /><use transform="translate(303.75, 33.75) scale(0.67)" x="0" xlink:href="#backer" y="0" /><use transform="translate(320.625, 33.75) scale(0.67)" x="0" xlink:href="#backer" y="0" /><use transform="translate(337.5, 33.75) scale(0.67)" x="0" xlink:href="#backer" y="0" /><use transform="translate(354.375, 33.75) scale(0.67)" x="0" xlink:href="#backer" y="0" /><use transform="translate(371.25, 33.75) scale(0.67)" x="0" xlink:href="#backer" y="0" /><use transform="translate(388.125, 33.75) scale(0.67)" x="0" xlink:href="#backer" y="0" /><use transform="translate(405.0, 33.75) scale(0.67)" x="0" xlink:href="#backer" y="0" /><use transform="translate(421.875, 33.75) scale(0.67)" x="0" xlink:href="#backer" y="0" /><use transform="translate(0, 50.625) scale(0.67)" x="0" xlink:href="#backer" y="0" /><use transform="translate(16.875, 50.625) scale(0.67)" x="0" xlink:href="#backer" y="0" /><use transform="translate(33.75, 50.625) scale(0.67)" x="0" xlink:href="#backer" y="0" /><use transform="translate(50.625, 50.625) scale(0.67)" x="0" xlink:href="#backer" y="0" /><use transform="translate(67.5, 50.625) scale(0.67)" x="0" xlink:href="#backer" y="0" /><use transform="translate(84.375, 50.625) scale(0.67)" x="0" xlink:href="#backer" y="0" /><use transform="translate(101.25, 50.625) scale(0.67)" x="0" xlink:href="#backer" y="0" /><use transform="translate(118.125, 50.625) scale(0.67)" x="0" xlink:href="#backer" y="0" /><use transform="translate(135.0, 50.625) scale(0.67)" x="0" xlink:href="#backer" y="0" /><use transform="translate(151.875, 50.625) scale(0.67)" x="0" xlink:href="#backer" y="0" /><use transform="translate(168.75, 50.625) scale(0.67)" x="0" xlink:href="#backer" y="0" /><use transform="translate(185.625, 50.625) scale(0.67)" x="0" xlink:href="#backer" y="0" /><use transform="translate(202.5, 50.625) scale(0.67)" x="0" xlink:href="#backer" y="0" /><use transform="translate(219.375, 50.625) scale(0.67)" x="0" xlink:href="#backer" y="0" /><use transform="translate(236.25, 50.625) scale(0.67)" x="0" xlink:href="#backer" y="0" /><use transform="translate(253.125, 50.625) scale(0.67)" x="0" xlink:href="#backer" y="0" /><use transform="translate(270.0, 50.625) scale(0.67)" x="0" xlink:href="#backer" y="0" /><use transform="translate(286.875, 50.625) scale(0.67)" x="0" xlink:href="#backer" y="0" /><use transform="translate(303.75, 50.625) scale(0.67)" x="0" xlink:href="#backer" y="0" /><use transform="translate(320.625, 50.625) scale(0.67)" x="0" xlink:href="#backer" y="0" /><use transform="translate(337.5, 50.625) scale(0.67)" x="0" xlink:href="#backer" y="0" /><use transform="translate(354.375, 50.625) scale(0.67)" x="0" xlink:href="#backer" y="0" /><use transform="translate(371.25, 50.625) scale(0.67)" x="0" xlink:href="#backer" y="0" /><use transform="translate(388.125, 50.625) scale(0.67)" x="0" xlink:href="#backer" y="0" /><use transform="translate(405.0, 50.625) scale(0.67)" x="0" xlink:href="#backer" y="0" /><use transform="translate(421.875, 50.625) scale(0.67)" x="0" xlink:href="#backer" y="0" /><use transform="translate(0, 67.5) scale(0.67)" x="0" xlink:href="#backer" y="0" /><use transform="translate(16.875, 67.5) scale(0.67)" x="0" xlink:href="#backer" y="0" /><use transform="translate(33.75, 67.5) scale(0.67)" x="0" xlink:href="#backer" y="0" /><use transform="translate(50.625, 67.5) scale(0.67)" x="0" xlink:href="#backer" y="0" /><use transform="translate(67.5, 67.5) scale(0.67)" x="0" xlink:href="#backer" y="0" /><use transform="translate(84.375, 67.5) scale(0.67)" x="0" xlink:href="#backer" y="0" /><use transform="translate(101.25, 67.5) scale(0.67)" x="0" xlink:href="#backer" y="0" /><use transform="translate(118.125, 67.5) scale(0.67)" x="0" xlink:href="#backer" y="0" /><use transform="translate(135.0, 67.5) scale(0.67)" x="0" xlink:href="#backer" y="0" /><use transform="translate(151.875, 67.5) scale(0.67)" x="0" xlink:href="#backer" y="0" /><use transform="translate(168.75, 67.5) scale(0.67)" x="0" xlink:href="#backer" y="0" /><use transform="translate(185.625, 67.5) scale(0.67)" x="0" xlink:href="#backer" y="0" /><use transform="translate(202.5, 67.5) scale(0.67)" x="0" xlink:href="#backer" y="0" /><use transform="translate(219.375, 67.5) scale(0.67)" x="0" xlink:href="#backer" y="0" /><use transform="translate(236.25, 67.5) scale(0.67)" x="0" xlink:href="#backer" y="0" /><use transform="translate(253.125, 67.5) scale(0.67)" x="0" xlink:href="#backer" y="0" /><use transform="translate(270.0, 67.5) scale(0.67)" x="0" xlink:href="#backer" y="0" /><use transform="translate(286.875, 67.5) scale(0.67)" x="0" xlink:href="#backer" y="0" /><use transform="translate(303.75, 67.5) scale(0.67)" x="0" xlink:href="#backer" y="0" /><use transform="translate(320.625, 67.5) scale(0.67)" x="0" xlink:href="#backer" y="0" /><use transform="translate(337.5, 67.5) scale(0.67)" x="0" xlink:href="#backer" y="0" /><use transform="translate(354.375, 67.5) scale(0.67)" x="0" xlink:href="#backer" y="0" /><use transform="translate(371.25, 67.5) scale(0.67)" x="0" xlink:href="#backer" y="0" /><use transform="translate(388.125, 67.5) scale(0.67)" x="0" xlink:href="#backer" y="0" /><use transform="translate(405.0, 67.5) scale(0.67)" x="0" xlink:href="#backer" y="0" /><use transform="translate(421.875, 67.5) scale(0.67)" x="0" xlink:href="#backer" y="0" /><use transform="translate(0, 84.375) scale(0.67)" x="0" xlink:href="#backer" y="0" /><use transform="translate(16.875, 84.375) scale(0.67)" x="0" xlink:href="#backer" y="0" /><use transform="translate(33.75, 84.375) scale(0.67)" x="0" xlink:href="#backer" y="0" /><use transform="translate(50.625, 84.375) scale(0.67)" x="0" xlink:href="#backer" y="0" /><use transform="translate(67.5, 84.375) scale(0.67)" x="0" xlink:href="#backer" y="0" /><use transform="translate(84.375, 84.375) scale(0.67)" x="0" xlink:href="#backer" y="0" /><use transform="translate(101.25, 84.375) scale(0.67)" x="0" xlink:href="#backer" y="0" /><use transform="translate(118.125, 84.375) scale(0.67)" x="0" xlink:href="#backer" y="0" /><use transform="translate(135.0, 84.375) scale(0.67)" x="0" xlink:href="#backer" y="0" /><use transform="translate(151.875, 84.375) scale(0.67)" x="0" xlink:href="#backer" y="0" /><use transform="translate(168.75, 84.375) scale(0.67)" x="0" xlink:href="#backer" y="0" /><use transform="translate(185.625, 84.375) scale(0.67)" x="0" xlink:href="#backer" y="0" /><use transform="translate(202.5, 84.375) scale(0.67)" x="0" xlink:href="#backer" y="0" /><use transform="translate(219.375, 84.375) scale(0.67)" x="0" xlink:href="#backer" y="0" /><use transform="translate(236.25, 84.375) scale(0.67)" x="0" xlink:href="#backer" y="0" /><use transform="translate(253.125, 84.375) scale(0.67)" x="0" xlink:href="#backer" y="0" /><use transform="translate(270.0, 84.375) scale(0.67)" x="0" xlink:href="#backer" y="0" /><use transform="translate(286.875, 84.375) scale(0.67)" x="0" xlink:href="#backer" y="0" /><use transform="translate(303.75, 84.375) scale(0.67)" x="0" xlink:href="#backer" y="0" /><use transform="translate(320.625, 84.375) scale(0.67)" x="0" xlink:href="#backer" y="0" /><use transform="translate(337.5, 84.375) scale(0.67)" x="0" xlink:href="#backer" y="0" /><use transform="translate(354.375, 84.375) scale(0.67)" x="0" xlink:href="#backer" y="0" /><use transform="translate(371.25, 84.375) scale(0.67)" x="0" xlink:href="#backer" y="0" /><use transform="translate(388.125, 84.375) scale(0.67)" x="0" xlink:href="#backer" y="0" /><use transform="translate(405.0, 84.375) scale(0.67)" x="0" xlink:href="#backer" y="0" /><use transform="translate(421.875, 84.375) scale(0.67)" x="0" xlink:href="#backer" y="0" /><use transform="translate(0, 101.25) scale(0.67)" x="0" xlink:href="#backer" y="0" /><use transform="translate(16.875, 101.25) scale(0.67)" x="0" xlink:href="#backer" y="0" /><use transform="translate(33.75, 101.25) scale(0.67)" x="0" xlink:href="#backer" y="0" /><use transform="translate(50.625, 101.25) scale(0.67)" x="0" xlink:href="#backer" y="0" /><use transform="translate(67.5, 101.25) scale(0.67)" x="0" xlink:href="#backer" y="0" /><use transform="translate(84.375, 101.25) scale(0.67)" x="0" xlink:href="#backer" y="0" /><use transform="translate(101.25, 101.25) scale(0.67)" x="0" xlink:href="#backer" y="0" /><use transform="translate(118.125, 101.25) scale(0.67)" x="0" xlink:href="#backer" y="0" /><use transform="translate(135.0, 101.25) scale(0.67)" x="0" xlink:href="#backer" y="0" /><use transform="translate(151.875, 101.25) scale(0.67)" x="0" xlink:href="#backer" y="0" /><use transform="translate(168.75, 101.25) scale(0.67)" x="0" xlink:href="#backer" y="0" /><use transform="translate(185.625, 101.25) scale(0.67)" x="0" xlink:href="#backer" y="0" /><use transform="translate(202.5, 101.25) scale(0.67)" x="0" xlink:href="#backer" y="0" /><use transform="translate(219.375, 101.25) scale(0.67)" x="0" xlink:href="#backer" y="0" /><use transform="translate(236.25, 101.25) scale(0.67)" x="0" xlink:href="#backer" y="0" /><use transform="translate(253.125, 101.25) scale(0.67)" x="0" xlink:href="#backer" y="0" /><use transform="translate(270.0, 101.25) scale(0.67)" x="0" xlink:href="#backer" y="0" /><use transform="translate(286.875, 101.25) scale(0.67)" x="0" xlink:href="#backer" y="0" /><use transform="translate(303.75, 101.25) scale(0.67)" x="0" xlink:href="#backer" y="0" /><use transform="translate(320.625, 101.25) scale(0.67)" x="0" xlink:href="#backer" y="0" /><use transform="translate(337.5, 101.25) scale(0.67)" x="0" xlink:href="#backer" y="0" /><use transform="translate(354.375, 101.25) scale(0.67)" x="0" xlink:href="#backer" y="0" /><use transform="translate(371.25, 101.25) scale(0.67)" x="0" xlink:href="#backer" y="0" /><use transform="translate(388.125, 101.25) scale(0.67)" x="0" xlink:href="#backer" y="0" /><use transform="translate(405.0, 101.25) scale(0.67)" x="0" xlink:href="#backer" y="0" /><use transform="translate(421.875, 101.25) scale(0.67)" x="0" xlink:href="#backer" y="0" /><use transform="translate(0, 118.125) scale(0.67)" x="0" xlink:href="#backer" y="0" /><use transform="translate(16.875, 118.125) scale(0.67)" x="0" xlink:href="#backer" y="0" /><use transform="translate(33.75, 118.125) scale(0.67)" x="0" xlink:href="#backer" y="0" /><use transform="translate(50.625, 118.125) scale(0.67)" x="0" xlink:href="#backer" y="0" /><use transform="translate(67.5, 118.125) scale(0.67)" x="0" xlink:href="#backer" y="0" /><use transform="translate(84.375, 118.125) scale(0.67)" x="0" xlink:href="#backer" y="0" /><use transform="translate(101.25, 118.125) scale(0.67)" x="0" xlink:href="#backer" y="0" /><use transform="translate(118.125, 118.125) scale(0.67)" x="0" xlink:href="#backer" y="0" /><use transform="translate(135.0, 118.125) scale(0.67)" x="0" xlink:href="#backer" y="0" /><use transform="translate(151.875, 118.125) scale(0.67)" x="0" xlink:href="#backer" y="0" /><use transform="translate(168.75, 118.125) scale(0.67)" x="0" xlink:href="#backer" y="0" /><use transform="translate(185.625, 118.125) scale(0.67)" x="0" xlink:href="#backer" y="0" /><use transform="translate(202.5, 118.125) scale(0.67)" x="0" xlink:href="#backer" y="0" /><use transform="translate(219.375, 118.125) scale(0.67)" x="0" xlink:href="#backer" y="0" /><use transform="translate(236.25, 118.125) scale(0.67)" x="0" xlink:href="#backer" y="0" /><use transform="translate(253.125, 118.125) scale(0.67)" x="0" xlink:href="#backer" y="0" /><use transform="translate(270.0, 118.125) scale(0.67)" x="0" xlink:href="#backer" y="0" /><use transform="translate(286.875, 118.125) scale(0.67)" x="0" xlink:href="#backer" y="0" /><use transform="translate(303.75, 118.125) scale(0.67)" x="0" xlink:href="#backer" y="0" /><use transform="translate(320.625, 118.125) scale(0.67)" x="0" xlink:href="#backer" y="0" /><use transform="translate(337.5, 118.125) scale(0.67)" x="0" xlink:href="#backer" y="0" /><use transform="translate(354.375, 118.125) scale(0.67)" x="0" xlink:href="#backer" y="0" /><use transform="translate(371.25, 118.125) scale(0.67)" x="0" xlink:href="#backer" y="0" /><use transform="translate(388.125, 118.125) scale(0.67)" x="0" xlink:href="#backer" y="0" /><use transform="translate(405.0, 118.125) scale(0.67)" x="0" xlink:href="#backer" y="0" /><use transform="translate(421.875, 118.125) scale(0.67)" x="0" xlink:href="#backer" y="0" /><use transform="translate(0, 135.0) scale(0.67)" x="0" xlink:href="#backer" y="0" /><use transform="translate(16.875, 135.0) scale(0.67)" x="0" xlink:href="#backer" y="0" /><use transform="translate(33.75, 135.0) scale(0.67)" x="0" xlink:href="#backer" y="0" /><use transform="translate(50.625, 135.0) scale(0.67)" x="0" xlink:href="#backer" y="0" /><use transform="translate(67.5, 135.0) scale(0.67)" x="0" xlink:href="#backer" y="0" /><use transform="translate(84.375, 135.0) scale(0.67)" x="0" xlink:href="#backer" y="0" /><use transform="translate(101.25, 135.0) scale(0.67)" x="0" xlink:href="#backer" y="0" /><use transform="translate(118.125, 135.0) scale(0.67)" x="0" xlink:href="#backer" y="0" /><use transform="translate(135.0, 135.0) scale(0.67)" x="0" xlink:href="#backer" y="0" /><use transform="translate(151.875, 135.0) scale(0.67)" x="0" xlink:href="#backer" y="0" /><use transform="translate(168.75, 135.0) scale(0.67)" x="0" xlink:href="#backer" y="0" /><use transform="translate(185.625, 135.0) scale(0.67)" x="0" xlink:href="#backer" y="0" /><use transform="translate(202.5, 135.0) scale(0.67)" x="0" xlink:href="#backer" y="0" /><use transform="translate(219.375, 135.0) scale(0.67)" x="0" xlink:href="#backer" y="0" /><use transform="translate(236.25, 135.0) scale(0.67)" x="0" xlink:href="#backer" y="0" /><use transform="translate(253.125, 135.0) scale(0.67)" x="0" xlink:href="#backer" y="0" /><use transform="translate(270.0, 135.0) scale(0.67)" x="0" xlink:href="#backer" y="0" /><use transform="translate(286.875, 135.0) scale(0.67)" x="0" xlink:href="#backer" y="0" /><use transform="translate(303.75, 135.0) scale(0.67)" x="0" xlink:href="#backer" y="0" /><use transform="translate(320.625, 135.0) scale(0.67)" x="0" xlink:href="#backer" y="0" /><use transform="translate(337.5, 135.0) scale(0.67)" x="0" xlink:href="#backer" y="0" /><use transform="translate(354.375, 135.0) scale(0.67)" x="0" xlink:href="#backer" y="0" /><use transform="translate(371.25, 135.0) scale(0.67)" x="0" xlink:href="#backer" y="0" /><use transform="translate(388.125, 135.0) scale(0.67)" x="0" xlink:href="#backer" y="0" /><use transform="translate(405.0, 135.0) scale(0.67)" x="0" xlink:href="#backer" y="0" /><use transform="translate(421.875, 135.0) scale(0.67)" x="0" xlink:href="#backer" y="0" /><use transform="translate(0, 151.875) scale(0.67)" x="0" xlink:href="#backer" y="0" /><use transform="translate(16.875, 151.875) scale(0.67)" x="0" xlink:href="#backer" y="0" /><use transform="translate(33.75, 151.875) scale(0.67)" x="0" xlink:href="#backer" y="0" /><use transform="translate(50.625, 151.875) scale(0.67)" x="0" xlink:href="#backer" y="0" /><use transform="translate(67.5, 151.875) scale(0.67)" x="0" xlink:href="#backer" y="0" /><use transform="translate(84.375, 151.875) scale(0.67)" x="0" xlink:href="#backer" y="0" /><use transform="translate(101.25, 151.875) scale(0.67)" x="0" xlink:href="#backer" y="0" /><use transform="translate(118.125, 151.875) scale(0.67)" x="0" xlink:href="#backer" y="0" /><use transform="translate(135.0, 151.875) scale(0.67)" x="0" xlink:href="#backer" y="0" /><use transform="translate(151.875, 151.875) scale(0.67)" x="0" xlink:href="#backer" y="0" /><use transform="translate(168.75, 151.875) scale(0.67)" x="0" xlink:href="#backer" y="0" /><use transform="translate(185.625, 151.875) scale(0.67)" x="0" xlink:href="#backer" y="0" /><use transform="translate(202.5, 151.875) scale(0.67)" x="0" xlink:href="#backer" y="0" /><use transform="translate(219.375, 151.875) scale(0.67)" x="0" xlink:href="#backer" y="0" /><use transform="translate(236.25, 151.875) scale(0.67)" x="0" xlink:href="#backer" y="0" /><use transform="translate(253.125, 151.875) scale(0.67)" x="0" xlink:href="#backer" y="0" /><use transform="translate(270.0, 151.875) scale(0.67)" x="0" xlink:href="#backer" y="0" /><use transform="translate(286.875, 151.875) scale(0.67)" x="0" xlink:href="#backer" y="0" /><use transform="translate(303.75, 151.875) scale(0.67)" x="0" xlink:href="#backer" y="0" /><use transform="translate(320.625, 151.875) scale(0.67)" x="0" xlink:href="#backer" y="0" /><use transform="translate(337.5, 151.875) scale(0.67)" x="0" xlink:href="#backer" y="0" /><use transform="translate(354.375, 151.875) scale(0.67)" x="0" xlink:href="#backer" y="0" /><use transform="translate(371.25, 151.875) scale(0.67)" x="0" xlink:href="#backer" y="0" /><use transform="translate(388.125, 151.875) scale(0.67)" x="0" xlink:href="#backer" y="0" /><use transform="translate(405.0, 151.875) scale(0.67)" x="0" xlink:href="#backer" y="0" /><use transform="translate(421.875, 151.875) scale(0.67)" x="0" xlink:href="#backer" y="0" /><use transform="translate(0, 168.75) scale(0.67)" x="0" xlink:href="#backer" y="0" /><use transform="translate(16.875, 168.75) scale(0.67)" x="0" xlink:href="#backer" y="0" /><use transform="translate(33.75, 168.75) scale(0.67)" x="0" xlink:href="#backer" y="0" /><use transform="translate(50.625, 168.75) scale(0.67)" x="0" xlink:href="#backer" y="0" /><use transform="translate(67.5, 168.75) scale(0.67)" x="0" xlink:href="#backer" y="0" /><use transform="translate(84.375, 168.75) scale(0.67)" x="0" xlink:href="#backer" y="0" /><use transform="translate(101.25, 168.75) scale(0.67)" x="0" xlink:href="#backer" y="0" /><use transform="translate(118.125, 168.75) scale(0.67)" x="0" xlink:href="#backer" y="0" /><use transform="translate(135.0, 168.75) scale(0.67)" x="0" xlink:href="#backer" y="0" /><use transform="translate(151.875, 168.75) scale(0.67)" x="0" xlink:href="#backer" y="0" /><use transform="translate(168.75, 168.75) scale(0.67)" x="0" xlink:href="#backer" y="0" /><use transform="translate(185.625, 168.75) scale(0.67)" x="0" xlink:href="#backer" y="0" /><use transform="translate(202.5, 168.75) scale(0.67)" x="0" xlink:href="#backer" y="0" /><use transform="translate(219.375, 168.75) scale(0.67)" x="0" xlink:href="#backer" y="0" /><use transform="translate(236.25, 168.75) scale(0.67)" x="0" xlink:href="#backer" y="0" /><use transform="translate(253.125, 168.75) scale(0.67)" x="0" xlink:href="#backer" y="0" /><use transform="translate(270.0, 168.75) scale(0.67)" x="0" xlink:href="#backer" y="0" /><use transform="translate(286.875, 168.75) scale(0.67)" x="0" xlink:href="#backer" y="0" /><use transform="translate(303.75, 168.75) scale(0.67)" x="0" xlink:href="#backer" y="0" /><use transform="translate(320.625, 168.75) scale(0.67)" x="0" xlink:href="#backer" y="0" /><use transform="translate(337.5, 168.75) scale(0.67)" x="0" xlink:href="#backer" y="0" /><use transform="translate(354.375, 168.75) scale(0.67)" x="0" xlink:href="#backer" y="0" /><use transform="translate(371.25, 168.75) scale(0.67)" x="0" xlink:href="#backer" y="0" /><use transform="translate(388.125, 168.75) scale(0.67)" x="0" xlink:href="#backer" y="0" /><use transform="translate(405.0, 168.75) scale(0.67)" x="0" xlink:href="#backer" y="0" /><use transform="translate(421.875, 168.75) scale(0.67)" x="0" xlink:href="#backer" y="0" /><use transform="translate(0, 185.625) scale(0.67)" x="0" xlink:href="#backer" y="0" /><use transform="translate(16.875, 185.625) scale(0.67)" x="0" xlink:href="#backer" y="0" /><use transform="translate(33.75, 185.625) scale(0.67)" x="0" xlink:href="#backer" y="0" /><use transform="translate(50.625, 185.625) scale(0.67)" x="0" xlink:href="#backer" y="0" /><use transform="translate(67.5, 185.625) scale(0.67)" x="0" xlink:href="#backer" y="0" /><use transform="translate(84.375, 185.625) scale(0.67)" x="0" xlink:href="#backer" y="0" /><use transform="translate(101.25, 185.625) scale(0.67)" x="0" xlink:href="#backer" y="0" /><use transform="translate(118.125, 185.625) scale(0.67)" x="0" xlink:href="#backer" y="0" /><use transform="translate(135.0, 185.625) scale(0.67)" x="0" xlink:href="#backer" y="0" /><use transform="translate(151.875, 185.625) scale(0.67)" x="0" xlink:href="#backer" y="0" /><use transform="translate(168.75, 185.625) scale(0.67)" x="0" xlink:href="#backer" y="0" /><use transform="translate(185.625, 185.625) scale(0.67)" x="0" xlink:href="#backer" y="0" /><use transform="translate(202.5, 185.625) scale(0.67)" x="0" xlink:href="#backer" y="0" /><use transform="translate(219.375, 185.625) scale(0.67)" x="0" xlink:href="#backer" y="0" /><use transform="translate(236.25, 185.625) scale(0.67)" x="0" xlink:href="#backer" y="0" /><use transform="translate(253.125, 185.625) scale(0.67)" x="0" xlink:href="#backer" y="0" /><use transform="translate(270.0, 185.625) scale(0.67)" x="0" xlink:href="#backer" y="0" /><use transform="translate(286.875, 185.625) scale(0.67)" x="0" xlink:href="#backer" y="0" /><use transform="translate(303.75, 185.625) scale(0.67)" x="0" xlink:href="#backer" y="0" /><use transform="translate(320.625, 185.625) scale(0.67)" x="0" xlink:href="#backer" y="0" /><use transform="translate(337.5, 185.625) scale(0.67)" x="0" xlink:href="#backer" y="0" /><use transform="translate(354.375, 185.625) scale(0.67)" x="0" xlink:href="#backer" y="0" /><use transform="translate(371.25, 185.625) scale(0.67)" x="0" xlink:href="#backer" y="0" /><use transform="translate(388.125, 185.625) scale(0.67)" x="0" xlink:href="#backer" y="0" /><use transform="translate(405.0, 185.625) scale(0.67)" x="0" xlink:href="#backer" y="0" /><use transform="translate(421.875, 185.625) scale(0.67)" x="0" xlink:href="#backer" y="0" /><use transform="translate(0, 202.5) scale(0.67)" x="0" xlink:href="#backer" y="0" /><use transform="translate(16.875, 202.5) scale(0.67)" x="0" xlink:href="#backer" y="0" /><use transform="translate(33.75, 202.5) scale(0.67)" x="0" xlink:href="#backer" y="0" /><use transform="translate(50.625, 202.5) scale(0.67)" x="0" xlink:href="#backer" y="0" /><use transform="translate(67.5, 202.5) scale(0.67)" x="0" xlink:href="#backer" y="0" /><use transform="translate(84.375, 202.5) scale(0.67)" x="0" xlink:href="#backer" y="0" /><use transform="translate(101.25, 202.5) scale(0.67)" x="0" xlink:href="#backer" y="0" /><use transform="translate(118.125, 202.5) scale(0.67)" x="0" xlink:href="#backer" y="0" /><use transform="translate(135.0, 202.5) scale(0.67)" x="0" xlink:href="#backer" y="0" /><use transform="translate(151.875, 202.5) scale(0.67)" x="0" xlink:href="#backer" y="0" /><use transform="translate(168.75, 202.5) scale(0.67)" x="0" xlink:href="#backer" y="0" /><use transform="translate(185.625, 202.5) scale(0.67)" x="0" xlink:href="#backer" y="0" /><use transform="translate(202.5, 202.5) scale(0.67)" x="0" xlink:href="#backer" y="0" /><use transform="translate(219.375, 202.5) scale(0.67)" x="0" xlink:href="#backer" y="0" /><use transform="translate(236.25, 202.5) scale(0.67)" x="0" xlink:href="#backer" y="0" /><use transform="translate(253.125, 202.5) scale(0.67)" x="0" xlink:href="#backer" y="0" /><use transform="translate(270.0, 202.5) scale(0.67)" x="0" xlink:href="#backer" y="0" /><use transform="translate(286.875, 202.5) scale(0.67)" x="0" xlink:href="#backer" y="0" /><use transform="translate(303.75, 202.5) scale(0.67)" x="0" xlink:href="#backer" y="0" /><use transform="translate(320.625, 202.5) scale(0.67)" x="0" xlink:href="#backer" y="0" /><use transform="translate(337.5, 202.5) scale(0.67)" x="0" xlink:href="#backer" y="0" /><use transform="translate(354.375, 202.5) scale(0.67)" x="0" xlink:href="#backer" y="0" /><use transform="translate(371.25, 202.5) scale(0.67)" x="0" xlink:href="#backer" y="0" /><use transform="translate(388.125, 202.5) scale(0.67)" x="0" xlink:href="#backer" y="0" /><use transform="translate(405.0, 202.5) scale(0.67)" x="0" xlink:href="#backer" y="0" /><use transform="translate(421.875, 202.5) scale(0.67)" x="0" xlink:href="#backer" y="0" /><use transform="translate(0, 219.375) scale(0.67)" x="0" xlink:href="#backer" y="0" /><use transform="translate(16.875, 219.375) scale(0.67)" x="0" xlink:href="#backer" y="0" /><use transform="translate(33.75, 219.375) scale(0.67)" x="0" xlink:href="#backer" y="0" /><use transform="translate(50.625, 219.375) scale(0.67)" x="0" xlink:href="#backer" y="0" /><use transform="translate(67.5, 219.375) scale(0.67)" x="0" xlink:href="#backer" y="0" /><use transform="translate(84.375, 219.375) scale(0.67)" x="0" xlink:href="#backer" y="0" /><use transform="translate(101.25, 219.375) scale(0.67)" x="0" xlink:href="#backer" y="0" /><use transform="translate(118.125, 219.375) scale(0.67)" x="0" xlink:href="#backer" y="0" /><use transform="translate(135.0, 219.375) scale(0.67)" x="0" xlink:href="#backer" y="0" /><use transform="translate(151.875, 219.375) scale(0.67)" x="0" xlink:href="#backer" y="0" /><use transform="translate(168.75, 219.375) scale(0.67)" x="0" xlink:href="#backer" y="0" /><use transform="translate(185.625, 219.375) scale(0.67)" x="0" xlink:href="#backer" y="0" /><use transform="translate(202.5, 219.375) scale(0.67)" x="0" xlink:href="#backer" y="0" /><use transform="translate(219.375, 219.375) scale(0.67)" x="0" xlink:href="#backer" y="0" /><use transform="translate(236.25, 219.375) scale(0.67)" x="0" xlink:href="#backer" y="0" /><use transform="translate(253.125, 219.375) scale(0.67)" x="0" xlink:href="#backer" y="0" /><use transform="translate(270.0, 219.375) scale(0.67)" x="0" xlink:href="#backer" y="0" /><use transform="translate(286.875, 219.375) scale(0.67)" x="0" xlink:href="#backer" y="0" /><use transform="translate(303.75, 219.375) scale(0.67)" x="0" xlink:href="#backer" y="0" /><use transform="translate(320.625, 219.375) scale(0.67)" x="0" xlink:href="#backer" y="0" /><use transform="translate(337.5, 219.375) scale(0.67)" x="0" xlink:href="#backer" y="0" /><use transform="translate(354.375, 219.375) scale(0.67)" x="0" xlink:href="#backer" y="0" /><use transform="translate(371.25, 219.375) scale(0.67)" x="0" xlink:href="#backer" y="0" /><use transform="translate(388.125, 219.375) scale(0.67)" x="0" xlink:href="#backer" y="0" /><use transform="translate(405.0, 219.375) scale(0.67)" x="0" xlink:href="#backer" y="0" /><use transform="translate(421.875, 219.375) scale(0.67)" x="0" xlink:href="#backer" y="0" /><use transform="translate(0, 236.25) scale(0.67)" x="0" xlink:href="#backer" y="0" /><use transform="translate(16.875, 236.25) scale(0.67)" x="0" xlink:href="#backer" y="0" /><use transform="translate(33.75, 236.25) scale(0.67)" x="0" xlink:href="#backer" y="0" /><use transform="translate(50.625, 236.25) scale(0.67)" x="0" xlink:href="#backer" y="0" /><use transform="translate(67.5, 236.25) scale(0.67)" x="0" xlink:href="#backer" y="0" /><use transform="translate(84.375, 236.25) scale(0.67)" x="0" xlink:href="#backer" y="0" /><use transform="translate(101.25, 236.25) scale(0.67)" x="0" xlink:href="#backer" y="0" /><use transform="translate(118.125, 236.25) scale(0.67)" x="0" xlink:href="#backer" y="0" /><use transform="translate(135.0, 236.25) scale(0.67)" x="0" xlink:href="#backer" y="0" /><use transform="translate(151.875, 236.25) scale(0.67)" x="0" xlink:href="#backer" y="0" /><use transform="translate(168.75, 236.25) scale(0.67)" x="0" xlink:href="#backer" y="0" /><use transform="translate(185.625, 236.25) scale(0.67)" x="0" xlink:href="#backer" y="0" /><use transform="translate(202.5, 236.25) scale(0.67)" x="0" xlink:href="#backer" y="0" /><use transform="translate(219.375, 236.25) scale(0.67)" x="0" xlink:href="#backer" y="0" /><use transform="translate(236.25, 236.25) scale(0.67)" x="0" xlink:href="#backer" y="0" /><use transform="translate(253.125, 236.25) scale(0.67)" x="0" xlink:href="#backer" y="0" /><use transform="translate(270.0, 236.25) scale(0.67)" x="0" xlink:href="#backer" y="0" /><use transform="translate(286.875, 236.25) scale(0.67)" x="0" xlink:href="#backer" y="0" /><use transform="translate(303.75, 236.25) scale(0.67)" x="0" xlink:href="#backer" y="0" /><use transform="translate(320.625, 236.25) scale(0.67)" x="0" xlink:href="#backer" y="0" /><use transform="translate(337.5, 236.25) scale(0.67)" x="0" xlink:href="#backer" y="0" /><use transform="translate(354.375, 236.25) scale(0.67)" x="0" xlink:href="#backer" y="0" /><use transform="translate(371.25, 236.25) scale(0.67)" x="0" xlink:href="#backer" y="0" /><use transform="translate(388.125, 236.25) scale(0.67)" x="0" xlink:href="#backer" y="0" /><use transform="translate(405.0, 236.25) scale(0.67)" x="0" xlink:href="#backer" y="0" /><use transform="translate(421.875, 236.25) scale(0.67)" x="0" xlink:href="#backer" y="0" /><use transform="translate(0, 253.125) scale(0.67)" x="0" xlink:href="#backer" y="0" /><use transform="translate(16.875, 253.125) scale(0.67)" x="0" xlink:href="#backer" y="0" /><use transform="translate(33.75, 253.125) scale(0.67)" x="0" xlink:href="#backer" y="0" /><use transform="translate(50.625, 253.125) scale(0.67)" x="0" xlink:href="#backer" y="0" /><use transform="translate(67.5, 253.125) scale(0.67)" x="0" xlink:href="#backer" y="0" /><use transform="translate(84.375, 253.125) scale(0.67)" x="0" xlink:href="#backer" y="0" /><use transform="translate(101.25, 253.125) scale(0.67)" x="0" xlink:href="#backer" y="0" /><use transform="translate(118.125, 253.125) scale(0.67)" x="0" xlink:href="#backer" y="0" /><use transform="translate(135.0, 253.125) scale(0.67)" x="0" xlink:href="#backer" y="0" /><use transform="translate(151.875, 253.125) scale(0.67)" x="0" xlink:href="#backer" y="0" /><use transform="translate(168.75, 253.125) scale(0.67)" x="0" xlink:href="#backer" y="0" /><use transform="translate(185.625, 253.125) scale(0.67)" x="0" xlink:href="#backer" y="0" /><use transform="translate(202.5, 253.125) scale(0.67)" x="0" xlink:href="#backer" y="0" /><use transform="translate(219.375, 253.125) scale(0.67)" x="0" xlink:href="#backer" y="0" /><use transform="translate(236.25, 253.125) scale(0.67)" x="0" xlink:href="#backer" y="0" /><use transform="translate(253.125, 253.125) scale(0.67)" x="0" xlink:href="#backer" y="0" /><use transform="translate(270.0, 253.125) scale(0.67)" x="0" xlink:href="#backer" y="0" /><use transform="translate(286.875, 253.125) scale(0.67)" x="0" xlink:href="#backer" y="0" /><use transform="translate(303.75, 253.125) scale(0.67)" x="0" xlink:href="#backer" y="0" /><use transform="translate(320.625, 253.125) scale(0.67)" x="0" xlink:href="#backer" y="0" /><use transform="translate(337.5, 253.125) scale(0.67)" x="0" xlink:href="#backer" y="0" /><use transform="translate(354.375, 253.125) scale(0.67)" x="0" xlink:href="#backer" y="0" /><use transform="translate(371.25, 253.125) scale(0.67)" x="0" xlink:href="#backer" y="0" /><use transform="translate(388.125, 253.125) scale(0.67)" x="0" xlink:href="#backer" y="0" /><use transform="translate(405.0, 253.125) scale(0.67)" x="0" xlink:href="#backer" y="0" /><use transform="translate(421.875, 253.125) scale(0.67)" x="0" xlink:href="#backer" y="0" /><use transform="translate(0, 270.0) scale(0.67)" x="0" xlink:href="#backer" y="0" /><use transform="translate(16.875, 270.0) scale(0.67)" x="0" xlink:href="#backer" y="0" /><use transform="translate(33.75, 270.0) scale(0.67)" x="0" xlink:href="#backer" y="0" /><use transform="translate(50.625, 270.0) scale(0.67)" x="0" xlink:href="#backer" y="0" /><use transform="translate(67.5, 270.0) scale(0.67)" x="0" xlink:href="#backer" y="0" /><use transform="translate(84.375, 270.0) scale(0.67)" x="0" xlink:href="#backer" y="0" /><use transform="translate(101.25, 270.0) scale(0.67)" x="0" xlink:href="#backer" y="0" /><use transform="translate(118.125, 270.0) scale(0.67)" x="0" xlink:href="#backer" y="0" /><use transform="translate(135.0, 270.0) scale(0.67)" x="0" xlink:href="#backer" y="0" /><use transform="translate(151.875, 270.0) scale(0.67)" x="0" xlink:href="#backer" y="0" /><use transform="translate(168.75, 270.0) scale(0.67)" x="0" xlink:href="#backer" y="0" /><use transform="translate(185.625, 270.0) scale(0.67)" x="0" xlink:href="#backer" y="0" /><use transform="translate(202.5, 270.0) scale(0.67)" x="0" xlink:href="#backer" y="0" /><use transform="translate(219.375, 270.0) scale(0.67)" x="0" xlink:href="#backer" y="0" /><use transform="translate(236.25, 270.0) scale(0.67)" x="0" xlink:href="#backer" y="0" /><use transform="translate(253.125, 270.0) scale(0.67)" x="0" xlink:href="#backer" y="0" /><use transform="translate(270.0, 270.0) scale(0.67)" x="0" xlink:href="#backer" y="0" /><use transform="translate(286.875, 270.0) scale(0.67)" x="0" xlink:href="#backer" y="0" /><use transform="translate(303.75, 270.0) scale(0.67)" x="0" xlink:href="#backer" y="0" /><use transform="translate(320.625, 270.0) scale(0.67)" x="0" xlink:href="#backer" y="0" /><use transform="translate(337.5, 270.0) scale(0.67)" x="0" xlink:href="#backer" y="0" /><use transform="translate(354.375, 270.0) scale(0.67)" x="0" xlink:href="#backer" y="0" /><use transform="translate(371.25, 270.0) scale(0.67)" x="0" xlink:href="#backer" y="0" /><use transform="translate(388.125, 270.0) scale(0.67)" x="0" xlink:href="#backer" y="0" /><use transform="translate(405.0, 270.0) scale(0.67)" x="0" xlink:href="#backer" y="0" /><use transform="translate(421.875, 270.0) scale(0.67)" x="0" xlink:href="#backer" y="0" /><use transform="translate(0, 286.875) scale(0.67)" x="0" xlink:href="#backer" y="0" /><use transform="translate(16.875, 286.875) scale(0.67)" x="0" xlink:href="#backer" y="0" /><use transform="translate(33.75, 286.875) scale(0.67)" x="0" xlink:href="#backer" y="0" /><use transform="translate(50.625, 286.875) scale(0.67)" x="0" xlink:href="#backer" y="0" /><use transform="translate(67.5, 286.875) scale(0.67)" x="0" xlink:href="#backer" y="0" /><use transform="translate(84.375, 286.875) scale(0.67)" x="0" xlink:href="#backer" y="0" /><use transform="translate(101.25, 286.875) scale(0.67)" x="0" xlink:href="#backer" y="0" /><use transform="translate(118.125, 286.875) scale(0.67)" x="0" xlink:href="#backer" y="0" /><use transform="translate(135.0, 286.875) scale(0.67)" x="0" xlink:href="#backer" y="0" /><use transform="translate(151.875, 286.875) scale(0.67)" x="0" xlink:href="#backer" y="0" /><use transform="translate(168.75, 286.875) scale(0.67)" x="0" xlink:href="#backer" y="0" /><use transform="translate(185.625, 286.875) scale(0.67)" x="0" xlink:href="#backer" y="0" /><use transform="translate(202.5, 286.875) scale(0.67)" x="0" xlink:href="#backer" y="0" /><use transform="translate(219.375, 286.875) scale(0.67)" x="0" xlink:href="#backer" y="0" /><use transform="translate(236.25, 286.875) scale(0.67)" x="0" xlink:href="#backer" y="0" /><use transform="translate(253.125, 286.875) scale(0.67)" x="0" xlink:href="#backer" y="0" /><use transform="translate(270.0, 286.875) scale(0.67)" x="0" xlink:href="#backer" y="0" /><use transform="translate(286.875, 286.875) scale(0.67)" x="0" xlink:href="#backer" y="0" /><use transform="translate(303.75, 286.875) scale(0.67)" x="0" xlink:href="#backer" y="0" /><use transform="translate(320.625, 286.875) scale(0.67)" x="0" xlink:href="#backer" y="0" /><use transform="translate(337.5, 286.875) scale(0.67)" x="0" xlink:href="#backer" y="0" /><use transform="translate(354.375, 286.875) scale(0.67)" x="0" xlink:href="#backer" y="0" /><use transform="translate(371.25, 286.875) scale(0.67)" x="0" xlink:href="#backer" y="0" /><use transform="translate(388.125, 286.875) scale(0.67)" x="0" xlink:href="#backer" y="0" /><use transform="translate(405.0, 286.875) scale(0.67)" x="0" xlink:href="#backer" y="0" /><use transform="translate(421.875, 286.875) scale(0.67)" x="0" xlink:href="#backer" y="0" /><use transform="translate(0, 303.75) scale(0.67)" x="0" xlink:href="#backer" y="0" /><use transform="translate(16.875, 303.75) scale(0.67)" x="0" xlink:href="#backer" y="0" /><use transform="translate(33.75, 303.75) scale(0.67)" x="0" xlink:href="#backer" y="0" /><use transform="translate(50.625, 303.75) scale(0.67)" x="0" xlink:href="#backer" y="0" /><use transform="translate(67.5, 303.75) scale(0.67)" x="0" xlink:href="#backer" y="0" /><use transform="translate(84.375, 303.75) scale(0.67)" x="0" xlink:href="#backer" y="0" /><use transform="translate(101.25, 303.75) scale(0.67)" x="0" xlink:href="#backer" y="0" /><use transform="translate(118.125, 303.75) scale(0.67)" x="0" xlink:href="#backer" y="0" /><use transform="translate(135.0, 303.75) scale(0.67)" x="0" xlink:href="#backer" y="0" /><use transform="translate(151.875, 303.75) scale(0.67)" x="0" xlink:href="#backer" y="0" /><use transform="translate(168.75, 303.75) scale(0.67)" x="0" xlink:href="#backer" y="0" /><use transform="translate(185.625, 303.75) scale(0.67)" x="0" xlink:href="#backer" y="0" /><use transform="translate(202.5, 303.75) scale(0.67)" x="0" xlink:href="#backer" y="0" /><use transform="translate(219.375, 303.75) scale(0.67)" x="0" xlink:href="#backer" y="0" /><use transform="translate(236.25, 303.75) scale(0.67)" x="0" xlink:href="#backer" y="0" /><use transform="translate(253.125, 303.75) scale(0.67)" x="0" xlink:href="#backer" y="0" /><use transform="translate(270.0, 303.75) scale(0.67)" x="0" xlink:href="#backer" y="0" /><use transform="translate(286.875, 303.75) scale(0.67)" x="0" xlink:href="#backer" y="0" /><use transform="translate(303.75, 303.75) scale(0.67)" x="0" xlink:href="#backer" y="0" /><use transform="translate(320.625, 303.75) scale(0.67)" x="0" xlink:href="#backer" y="0" /><use transform="translate(337.5, 303.75) scale(0.67)" x="0" xlink:href="#backer" y="0" /><use transform="translate(354.375, 303.75) scale(0.67)" x="0" xlink:href="#backer" y="0" /><use transform="translate(371.25, 303.75) scale(0.67)" x="0" xlink:href="#backer" y="0" /><use transform="translate(388.125, 303.75) scale(0.67)" x="0" xlink:href="#backer" y="0" /><use transform="translate(405.0, 303.75) scale(0.67)" x="0" xlink:href="#backer" y="0" /><use transform="translate(421.875, 303.75) scale(0.67)" x="0" xlink:href="#backer" y="0" /><use transform="translate(0, 320.625) scale(0.67)" x="0" xlink:href="#backer" y="0" /><use transform="translate(16.875, 320.625) scale(0.67)" x="0" xlink:href="#backer" y="0" /><use transform="translate(33.75, 320.625) scale(0.67)" x="0" xlink:href="#backer" y="0" /><use transform="translate(50.625, 320.625) scale(0.67)" x="0" xlink:href="#backer" y="0" /><use transform="translate(67.5, 320.625) scale(0.67)" x="0" xlink:href="#backer" y="0" /><use transform="translate(84.375, 320.625) scale(0.67)" x="0" xlink:href="#backer" y="0" /><use transform="translate(101.25, 320.625) scale(0.67)" x="0" xlink:href="#backer" y="0" /><use transform="translate(118.125, 320.625) scale(0.67)" x="0" xlink:href="#backer" y="0" /><use transform="translate(135.0, 320.625) scale(0.67)" x="0" xlink:href="#backer" y="0" /><use transform="translate(151.875, 320.625) scale(0.67)" x="0" xlink:href="#backer" y="0" /><use transform="translate(168.75, 320.625) scale(0.67)" x="0" xlink:href="#backer" y="0" /><use transform="translate(185.625, 320.625) scale(0.67)" x="0" xlink:href="#backer" y="0" /><use transform="translate(202.5, 320.625) scale(0.67)" x="0" xlink:href="#backer" y="0" /><use transform="translate(219.375, 320.625) scale(0.67)" x="0" xlink:href="#backer" y="0" /><use transform="translate(236.25, 320.625) scale(0.67)" x="0" xlink:href="#backer" y="0" /><use transform="translate(253.125, 320.625) scale(0.67)" x="0" xlink:href="#backer" y="0" /><use transform="translate(270.0, 320.625) scale(0.67)" x="0" xlink:href="#backer" y="0" /><use transform="translate(286.875, 320.625) scale(0.67)" x="0" xlink:href="#backer" y="0" /><use transform="translate(303.75, 320.625) scale(0.67)" x="0" xlink:href="#backer" y="0" /><use transform="translate(320.625, 320.625) scale(0.67)" x="0" xlink:href="#backer" y="0" /><use transform="translate(337.5, 320.625) scale(0.67)" x="0" xlink:href="#backer" y="0" /><use transform="translate(354.375, 320.625) scale(0.67)" x="0" xlink:href="#backer" y="0" /><use transform="translate(371.25, 320.625) scale(0.67)" x="0" xlink:href="#backer" y="0" /><use transform="translate(388.125, 320.625) scale(0.67)" x="0" xlink:href="#backer" y="0" /><use transform="translate(405.0, 320.625) scale(0.67)" x="0" xlink:href="#backer" y="0" /><use transform="translate(421.875, 320.625) scale(0.67)" x="0" xlink:href="#backer" y="0" /><use transform="translate(0, 337.5) scale(0.67)" x="0" xlink:href="#backer" y="0" /><use transform="translate(16.875, 337.5) scale(0.67)" x="0" xlink:href="#backer" y="0" /><use transform="translate(33.75, 337.5) scale(0.67)" x="0" xlink:href="#backer" y="0" /><use transform="translate(50.625, 337.5) scale(0.67)" x="0" xlink:href="#backer" y="0" /><use transform="translate(67.5, 337.5) scale(0.67)" x="0" xlink:href="#backer" y="0" /><use transform="translate(84.375, 337.5) scale(0.67)" x="0" xlink:href="#backer" y="0" /><use transform="translate(101.25, 337.5) scale(0.67)" x="0" xlink:href="#backer" y="0" /><use transform="translate(118.125, 337.5) scale(0.67)" x="0" xlink:href="#backer" y="0" /><use transform="translate(135.0, 337.5) scale(0.67)" x="0" xlink:href="#backer" y="0" /><use transform="translate(151.875, 337.5) scale(0.67)" x="0" xlink:href="#backer" y="0" /><use transform="translate(168.75, 337.5) scale(0.67)" x="0" xlink:href="#backer" y="0" /><use transform="translate(185.625, 337.5) scale(0.67)" x="0" xlink:href="#backer" y="0" /><use transform="translate(202.5, 337.5) scale(0.67)" x="0" xlink:href="#backer" y="0" /><use transform="translate(219.375, 337.5) scale(0.67)" x="0" xlink:href="#backer" y="0" /><use transform="translate(236.25, 337.5) scale(0.67)" x="0" xlink:href="#backer" y="0" /><use transform="translate(253.125, 337.5) scale(0.67)" x="0" xlink:href="#backer" y="0" /><use transform="translate(270.0, 337.5) scale(0.67)" x="0" xlink:href="#backer" y="0" /><use transform="translate(286.875, 337.5) scale(0.67)" x="0" xlink:href="#backer" y="0" /><use transform="translate(303.75, 337.5) scale(0.67)" x="0" xlink:href="#backer" y="0" /><use transform="translate(320.625, 337.5) scale(0.67)" x="0" xlink:href="#backer" y="0" /><use transform="translate(337.5, 337.5) scale(0.67)" x="0" xlink:href="#backer" y="0" /><use transform="translate(354.375, 337.5) scale(0.67)" x="0" xlink:href="#backer" y="0" /><use transform="translate(371.25, 337.5) scale(0.67)" x="0" xlink:href="#backer" y="0" /><use transform="translate(388.125, 337.5) scale(0.67)" x="0" xlink:href="#backer" y="0" /><use transform="translate(405.0, 337.5) scale(0.67)" x="0" xlink:href="#backer" y="0" /><use transform="translate(421.875, 337.5) scale(0.67)" x="0" xlink:href="#backer" y="0" /><use transform="translate(0, 354.375) scale(0.67)" x="0" xlink:href="#backer" y="0" /><use transform="translate(16.875, 354.375) scale(0.67)" x="0" xlink:href="#backer" y="0" /><use transform="translate(33.75, 354.375) scale(0.67)" x="0" xlink:href="#backer" y="0" /><use transform="translate(50.625, 354.375) scale(0.67)" x="0" xlink:href="#backer" y="0" /><use transform="translate(67.5, 354.375) scale(0.67)" x="0" xlink:href="#backer" y="0" /><use transform="translate(84.375, 354.375) scale(0.67)" x="0" xlink:href="#backer" y="0" /><use transform="translate(101.25, 354.375) scale(0.67)" x="0" xlink:href="#backer" y="0" /><use transform="translate(118.125, 354.375) scale(0.67)" x="0" xlink:href="#backer" y="0" /><use transform="translate(135.0, 354.375) scale(0.67)" x="0" xlink:href="#backer" y="0" /><use transform="translate(151.875, 354.375) scale(0.67)" x="0" xlink:href="#backer" y="0" /><use transform="translate(168.75, 354.375) scale(0.67)" x="0" xlink:href="#backer" y="0" /><use transform="translate(185.625, 354.375) scale(0.67)" x="0" xlink:href="#backer" y="0" /><use transform="translate(202.5, 354.375) scale(0.67)" x="0" xlink:href="#backer" y="0" /><use transform="translate(219.375, 354.375) scale(0.67)" x="0" xlink:href="#backer" y="0" /><use transform="translate(236.25, 354.375) scale(0.67)" x="0" xlink:href="#backer" y="0" /><use transform="translate(253.125, 354.375) scale(0.67)" x="0" xlink:href="#backer" y="0" /><use transform="translate(270.0, 354.375) scale(0.67)" x="0" xlink:href="#backer" y="0" /><use transform="translate(286.875, 354.375) scale(0.67)" x="0" xlink:href="#backer" y="0" /><use transform="translate(303.75, 354.375) scale(0.67)" x="0" xlink:href="#backer" y="0" /><use transform="translate(320.625, 354.375) scale(0.67)" x="0" xlink:href="#backer" y="0" /><use transform="translate(337.5, 354.375) scale(0.67)" x="0" xlink:href="#backer" y="0" /><use transform="translate(354.375, 354.375) scale(0.67)" x="0" xlink:href="#backer" y="0" /><use transform="translate(371.25, 354.375) scale(0.67)" x="0" xlink:href="#backer" y="0" /><use transform="translate(388.125, 354.375) scale(0.67)" x="0" xlink:href="#backer" y="0" /><use transform="translate(405.0, 354.375) scale(0.67)" x="0" xlink:href="#backer" y="0" /><use transform="translate(421.875, 354.375) scale(0.67)" x="0" xlink:href="#backer" y="0" /><use transform="translate(0, 371.25) scale(0.67)" x="0" xlink:href="#backer" y="0" /><use transform="translate(16.875, 371.25) scale(0.67)" x="0" xlink:href="#backer" y="0" /><use transform="translate(33.75, 371.25) scale(0.67)" x="0" xlink:href="#backer" y="0" /><use transform="translate(50.625, 371.25) scale(0.67)" x="0" xlink:href="#backer" y="0" /><use transform="translate(67.5, 371.25) scale(0.67)" x="0" xlink:href="#backer" y="0" /><use transform="translate(84.375, 371.25) scale(0.67)" x="0" xlink:href="#backer" y="0" /><use transform="translate(101.25, 371.25) scale(0.67)" x="0" xlink:href="#backer" y="0" /><use transform="translate(118.125, 371.25) scale(0.67)" x="0" xlink:href="#backer" y="0" /><use transform="translate(135.0, 371.25) scale(0.67)" x="0" xlink:href="#backer" y="0" /><use transform="translate(151.875, 371.25) scale(0.67)" x="0" xlink:href="#backer" y="0" /><use transform="translate(168.75, 371.25) scale(0.67)" x="0" xlink:href="#backer" y="0" /><use transform="translate(185.625, 371.25) scale(0.67)" x="0" xlink:href="#backer" y="0" /><use transform="translate(202.5, 371.25) scale(0.67)" x="0" xlink:href="#backer" y="0" /><use transform="translate(219.375, 371.25) scale(0.67)" x="0" xlink:href="#backer" y="0" /><use transform="translate(236.25, 371.25) scale(0.67)" x="0" xlink:href="#backer" y="0" /><use transform="translate(253.125, 371.25) scale(0.67)" x="0" xlink:href="#backer" y="0" /><use transform="translate(270.0, 371.25) scale(0.67)" x="0" xlink:href="#backer" y="0" /><use transform="translate(286.875, 371.25) scale(0.67)" x="0" xlink:href="#backer" y="0" /><use transform="translate(303.75, 371.25) scale(0.67)" x="0" xlink:href="#backer" y="0" /><use transform="translate(320.625, 371.25) scale(0.67)" x="0" xlink:href="#backer" y="0" /><use transform="translate(337.5, 371.25) scale(0.67)" x="0" xlink:href="#backer" y="0" /><use transform="translate(354.375, 371.25) scale(0.67)" x="0" xlink:href="#backer" y="0" /><use transform="translate(371.25, 371.25) scale(0.67)" x="0" xlink:href="#backer" y="0" /><use transform="translate(388.125, 371.25) scale(0.67)" x="0" xlink:href="#backer" y="0" /><use transform="translate(405.0, 371.25) scale(0.67)" x="0" xlink:href="#backer" y="0" /><use transform="translate(421.875, 371.25) scale(0.67)" x="0" xlink:href="#backer" y="0" /><use transform="translate(0, 388.125) scale(0.67)" x="0" xlink:href="#backer" y="0" /><use transform="translate(16.875, 388.125) scale(0.67)" x="0" xlink:href="#backer" y="0" /><use transform="translate(33.75, 388.125) scale(0.67)" x="0" xlink:href="#backer" y="0" /><use transform="translate(50.625, 388.125) scale(0.67)" x="0" xlink:href="#backer" y="0" /><use transform="translate(67.5, 388.125) scale(0.67)" x="0" xlink:href="#backer" y="0" /><use transform="translate(84.375, 388.125) scale(0.67)" x="0" xlink:href="#backer" y="0" /><use transform="translate(101.25, 388.125) scale(0.67)" x="0" xlink:href="#backer" y="0" /><use transform="translate(118.125, 388.125) scale(0.67)" x="0" xlink:href="#backer" y="0" /><use transform="translate(135.0, 388.125) scale(0.67)" x="0" xlink:href="#backer" y="0" /><use transform="translate(151.875, 388.125) scale(0.67)" x="0" xlink:href="#backer" y="0" /><use transform="translate(168.75, 388.125) scale(0.67)" x="0" xlink:href="#backer" y="0" /><use transform="translate(185.625, 388.125) scale(0.67)" x="0" xlink:href="#backer" y="0" /><use transform="translate(202.5, 388.125) scale(0.67)" x="0" xlink:href="#backer" y="0" /><use transform="translate(219.375, 388.125) scale(0.67)" x="0" xlink:href="#backer" y="0" /><use transform="translate(236.25, 388.125) scale(0.67)" x="0" xlink:href="#backer" y="0" /><use transform="translate(253.125, 388.125) scale(0.67)" x="0" xlink:href="#backer" y="0" /><use transform="translate(270.0, 388.125) scale(0.67)" x="0" xlink:href="#backer" y="0" /><use transform="translate(286.875, 388.125) scale(0.67)" x="0" xlink:href="#backer" y="0" /><use transform="translate(303.75, 388.125) scale(0.67)" x="0" xlink:href="#backer" y="0" /><use transform="translate(320.625, 388.125) scale(0.67)" x="0" xlink:href="#backer" y="0" /><use transform="translate(337.5, 388.125) scale(0.67)" x="0" xlink:href="#backer" y="0" /><use transform="translate(354.375, 388.125) scale(0.67)" x="0" xlink:href="#backer" y="0" /><use transform="translate(371.25, 388.125) scale(0.67)" x="0" xlink:href="#backer" y="0" /><use transform="translate(388.125, 388.125) scale(0.67)" x="0" xlink:href="#backer" y="0" /><use transform="translate(405.0, 388.125) scale(0.67)" x="0" xlink:href="#backer" y="0" /><use transform="translate(421.875, 388.125) scale(0.67)" x="0" xlink:href="#backer" y="0" /><use transform="translate(0, 405.0) scale(0.67)" x="0" xlink:href="#backer" y="0" /><use transform="translate(16.875, 405.0) scale(0.67)" x="0" xlink:href="#backer" y="0" /><use transform="translate(33.75, 405.0) scale(0.67)" x="0" xlink:href="#backer" y="0" /><use transform="translate(50.625, 405.0) scale(0.67)" x="0" xlink:href="#backer" y="0" /><use transform="translate(67.5, 405.0) scale(0.67)" x="0" xlink:href="#backer" y="0" /><use transform="translate(84.375, 405.0) scale(0.67)" x="0" xlink:href="#backer" y="0" /><use transform="translate(101.25, 405.0) scale(0.67)" x="0" xlink:href="#backer" y="0" /><use transform="translate(118.125, 405.0) scale(0.67)" x="0" xlink:href="#backer" y="0" /><use transform="translate(135.0, 405.0) scale(0.67)" x="0" xlink:href="#backer" y="0" /><use transform="translate(151.875, 405.0) scale(0.67)" x="0" xlink:href="#backer" y="0" /><use transform="translate(168.75, 405.0) scale(0.67)" x="0" xlink:href="#backer" y="0" /><use transform="translate(185.625, 405.0) scale(0.67)" x="0" xlink:href="#backer" y="0" /><use transform="translate(202.5, 405.0) scale(0.67)" x="0" xlink:href="#backer" y="0" /><use transform="translate(219.375, 405.0) scale(0.67)" x="0" xlink:href="#backer" y="0" /><use transform="translate(236.25, 405.0) scale(0.67)" x="0" xlink:href="#backer" y="0" /><use transform="translate(253.125, 405.0) scale(0.67)" x="0" xlink:href="#backer" y="0" /><use transform="translate(270.0, 405.0) scale(0.67)" x="0" xlink:href="#backer" y="0" /><use transform="translate(286.875, 405.0) scale(0.67)" x="0" xlink:href="#backer" y="0" /><use transform="translate(303.75, 405.0) scale(0.67)" x="0" xlink:href="#backer" y="0" /><use transform="translate(320.625, 405.0) scale(0.67)" x="0" xlink:href="#backer" y="0" /><use transform="translate(337.5, 405.0) scale(0.67)" x="0" xlink:href="#backer" y="0" /><use transform="translate(354.375, 405.0) scale(0.67)" x="0" xlink:href="#backer" y="0" /><use transform="translate(371.25, 405.0) scale(0.67)" x="0" xlink:href="#backer" y="0" /><use transform="translate(388.125, 405.0) scale(0.67)" x="0" xlink:href="#backer" y="0" /><use transform="translate(405.0, 405.0) scale(0.67)" x="0" xlink:href="#backer" y="0" /><use transform="translate(421.875, 405.0) scale(0.67)" x="0" xlink:href="#backer" y="0" /><use transform="translate(0, 421.875) scale(0.67)" x="0" xlink:href="#backer" y="0" /><use transform="translate(16.875, 421.875) scale(0.67)" x="0" xlink:href="#backer" y="0" /><use transform="translate(33.75, 421.875) scale(0.67)" x="0" xlink:href="#backer" y="0" /><use transform="translate(50.625, 421.875) scale(0.67)" x="0" xlink:href="#backer" y="0" /><use transform="translate(67.5, 421.875) scale(0.67)" x="0" xlink:href="#backer" y="0" /><use transform="translate(84.375, 421.875) scale(0.67)" x="0" xlink:href="#backer" y="0" /><use transform="translate(101.25, 421.875) scale(0.67)" x="0" xlink:href="#backer" y="0" /><use transform="translate(118.125, 421.875) scale(0.67)" x="0" xlink:href="#backer" y="0" /><use transform="translate(135.0, 421.875) scale(0.67)" x="0" xlink:href="#backer" y="0" /><use transform="translate(151.875, 421.875) scale(0.67)" x="0" xlink:href="#backer" y="0" /><use transform="translate(168.75, 421.875) scale(0.67)" x="0" xlink:href="#backer" y="0" /><use transform="translate(185.625, 421.875) scale(0.67)" x="0" xlink:href="#backer" y="0" /><use transform="translate(202.5, 421.875) scale(0.67)" x="0" xlink:href="#backer" y="0" /><use transform="translate(219.375, 421.875) scale(0.67)" x="0" xlink:href="#backer" y="0" /><use transform="translate(236.25, 421.875) scale(0.67)" x="0" xlink:href="#backer" y="0" /><use transform="translate(253.125, 421.875) scale(0.67)" x="0" xlink:href="#backer" y="0" /><use transform="translate(270.0, 421.875) scale(0.67)" x="0" xlink:href="#backer" y="0" /><use transform="translate(286.875, 421.875) scale(0.67)" x="0" xlink:href="#backer" y="0" /><use transform="translate(303.75, 421.875) scale(0.67)" x="0" xlink:href="#backer" y="0" /><use transform="translate(320.625, 421.875) scale(0.67)" x="0" xlink:href="#backer" y="0" /><use transform="translate(337.5, 421.875) scale(0.67)" x="0" xlink:href="#backer" y="0" /><use transform="translate(354.375, 421.875) scale(0.67)" x="0" xlink:href="#backer" y="0" /><use transform="translate(371.25, 421.875) scale(0.67)" x="0" xlink:href="#backer" y="0" /><use transform="translate(388.125, 421.875) scale(0.67)" x="0" xlink:href="#backer" y="0" /><use transform="translate(405.0, 421.875) scale(0.67)" x="0" xlink:href="#backer" y="0" /><use transform="translate(421.875, 421.875) scale(0.67)" x="0" xlink:href="#backer" y="0" /><use transform="translate(0, 438.75) scale(0.67)" x="0" xlink:href="#backer" y="0" /><use transform="translate(16.875, 438.75) scale(0.67)" x="0" xlink:href="#backer" y="0" /><use transform="translate(33.75, 438.75) scale(0.67)" x="0" xlink:href="#backer" y="0" /><use transform="translate(50.625, 438.75) scale(0.67)" x="0" xlink:href="#backer" y="0" /><use transform="translate(67.5, 438.75) scale(0.67)" x="0" xlink:href="#backer" y="0" /><use transform="translate(84.375, 438.75) scale(0.67)" x="0" xlink:href="#backer" y="0" /><use transform="translate(101.25, 438.75) scale(0.67)" x="0" xlink:href="#backer" y="0" /><use transform="translate(118.125, 438.75) scale(0.67)" x="0" xlink:href="#backer" y="0" /><use transform="translate(135.0, 438.75) scale(0.67)" x="0" xlink:href="#backer" y="0" /><use transform="translate(151.875, 438.75) scale(0.67)" x="0" xlink:href="#backer" y="0" /><use transform="translate(168.75, 438.75) scale(0.67)" x="0" xlink:href="#backer" y="0" /><use transform="translate(185.625, 438.75) scale(0.67)" x="0" xlink:href="#backer" y="0" /><use transform="translate(202.5, 438.75) scale(0.67)" x="0" xlink:href="#backer" y="0" /><use transform="translate(219.375, 438.75) scale(0.67)" x="0" xlink:href="#backer" y="0" /><use transform="translate(236.25, 438.75) scale(0.67)" x="0" xlink:href="#backer" y="0" /><use transform="translate(253.125, 438.75) scale(0.67)" x="0" xlink:href="#backer" y="0" /><use transform="translate(270.0, 438.75) scale(0.67)" x="0" xlink:href="#backer" y="0" /><use transform="translate(286.875, 438.75) scale(0.67)" x="0" xlink:href="#backer" y="0" /><use transform="translate(303.75, 438.75) scale(0.67)" x="0" xlink:href="#backer" y="0" /><use transform="translate(320.625, 438.75) scale(0.67)" x="0" xlink:href="#backer" y="0" /><use transform="translate(337.5, 438.75) scale(0.67)" x="0" xlink:href="#backer" y="0" /><use transform="translate(354.375, 438.75) scale(0.67)" x="0" xlink:href="#backer" y="0" /><use transform="translate(371.25, 438.75) scale(0.67)" x="0" xlink:href="#backer" y="0" /><use transform="translate(388.125, 438.75) scale(0.67)" x="0" xlink:href="#backer" y="0" /><use transform="translate(405.0, 438.75) scale(0.67)" x="0" xlink:href="#backer" y="0" /><use transform="translate(421.875, 438.75) scale(0.67)" x="0" xlink:href="#backer" y="0" /><use transform="translate(0, 455.625) scale(0.67)" x="0" xlink:href="#backer" y="0" /><use transform="translate(16.875, 455.625) scale(0.67)" x="0" xlink:href="#backer" y="0" /><use transform="translate(33.75, 455.625) scale(0.67)" x="0" xlink:href="#backer" y="0" /><use transform="translate(50.625, 455.625) scale(0.67)" x="0" xlink:href="#backer" y="0" /><use transform="translate(67.5, 455.625) scale(0.67)" x="0" xlink:href="#backer" y="0" /><use transform="translate(84.375, 455.625) scale(0.67)" x="0" xlink:href="#backer" y="0" /><use transform="translate(101.25, 455.625) scale(0.67)" x="0" xlink:href="#backer" y="0" /><use transform="translate(118.125, 455.625) scale(0.67)" x="0" xlink:href="#backer" y="0" /><use transform="translate(135.0, 455.625) scale(0.67)" x="0" xlink:href="#backer" y="0" /><use transform="translate(151.875, 455.625) scale(0.67)" x="0" xlink:href="#backer" y="0" /><use transform="translate(168.75, 455.625) scale(0.67)" x="0" xlink:href="#backer" y="0" /><use transform="translate(185.625, 455.625) scale(0.67)" x="0" xlink:href="#backer" y="0" /><use transform="translate(202.5, 455.625) scale(0.67)" x="0" xlink:href="#backer" y="0" /><use transform="translate(219.375, 455.625) scale(0.67)" x="0" xlink:href="#backer" y="0" /><use transform="translate(236.25, 455.625) scale(0.67)" x="0" xlink:href="#backer" y="0" /><use transform="translate(253.125, 455.625) scale(0.67)" x="0" xlink:href="#backer" y="0" /><use transform="translate(270.0, 455.625) scale(0.67)" x="0" xlink:href="#backer" y="0" /><use transform="translate(286.875, 455.625) scale(0.67)" x="0" xlink:href="#backer" y="0" /><use transform="translate(303.75, 455.625) scale(0.67)" x="0" xlink:href="#backer" y="0" /><use transform="translate(320.625, 455.625) scale(0.67)" x="0" xlink:href="#backer" y="0" /><use transform="translate(337.5, 455.625) scale(0.67)" x="0" xlink:href="#backer" y="0" /><use transform="translate(354.375, 455.625) scale(0.67)" x="0" xlink:href="#backer" y="0" /><use transform="translate(371.25, 455.625) scale(0.67)" x="0" xlink:href="#backer" y="0" /><use transform="translate(388.125, 455.625) scale(0.67)" x="0" xlink:href="#backer" y="0" /><use transform="translate(405.0, 455.625) scale(0.67)" x="0" xlink:href="#backer" y="0" /><use transform="translate(421.875, 455.625) scale(0.67)" x="0" xlink:href="#backer" y="0" /><use transform="translate(0, 472.5) scale(0.67)" x="0" xlink:href="#backer" y="0" /><use transform="translate(16.875, 472.5) scale(0.67)" x="0" xlink:href="#backer" y="0" /><use transform="translate(33.75, 472.5) scale(0.67)" x="0" xlink:href="#backer" y="0" /><use transform="translate(50.625, 472.5) scale(0.67)" x="0" xlink:href="#backer" y="0" /><use transform="translate(67.5, 472.5) scale(0.67)" x="0" xlink:href="#backer" y="0" /><use transform="translate(84.375, 472.5) scale(0.67)" x="0" xlink:href="#backer" y="0" /><use transform="translate(101.25, 472.5) scale(0.67)" x="0" xlink:href="#backer" y="0" /><use transform="translate(118.125, 472.5) scale(0.67)" x="0" xlink:href="#backer" y="0" /><use transform="translate(135.0, 472.5) scale(0.67)" x="0" xlink:href="#backer" y="0" /><use transform="translate(151.875, 472.5) scale(0.67)" x="0" xlink:href="#backer" y="0" /><use transform="translate(168.75, 472.5) scale(0.67)" x="0" xlink:href="#backer" y="0" /><use transform="translate(185.625, 472.5) scale(0.67)" x="0" xlink:href="#backer" y="0" /><use transform="translate(202.5, 472.5) scale(0.67)" x="0" xlink:href="#backer" y="0" /><use transform="translate(219.375, 472.5) scale(0.67)" x="0" xlink:href="#backer" y="0" /><use transform="translate(236.25, 472.5) scale(0.67)" x="0" xlink:href="#backer" y="0" /><use transform="translate(253.125, 472.5) scale(0.67)" x="0" xlink:href="#backer" y="0" /><use transform="translate(270.0, 472.5) scale(0.67)" x="0" xlink:href="#backer" y="0" /><use transform="translate(286.875, 472.5) scale(0.67)" x="0" xlink:href="#backer" y="0" /><use transform="translate(303.75, 472.5) scale(0.67)" x="0" xlink:href="#backer" y="0" /><use transform="translate(320.625, 472.5) scale(0.67)" x="0" xlink:href="#backer" y="0" /><use transform="translate(337.5, 472.5) scale(0.67)" x="0" xlink:href="#backer" y="0" /><use transform="translate(354.375, 472.5) scale(0.67)" x="0" xlink:href="#backer" y="0" /><use transform="translate(371.25, 472.5) scale(0.67)" x="0" xlink:href="#backer" y="0" /><use transform="translate(388.125, 472.5) scale(0.67)" x="0" xlink:href="#backer" y="0" /><use transform="translate(405.0, 472.5) scale(0.67)" x="0" xlink:href="#backer" y="0" /><use transform="translate(421.875, 472.5) scale(0.67)" x="0" xlink:href="#backer" y="0" /><use transform="translate(0, 489.375) scale(0.67)" x="0" xlink:href="#backer" y="0" /><use transform="translate(16.875, 489.375) scale(0.67)" x="0" xlink:href="#backer" y="0" /><use transform="translate(33.75, 489.375) scale(0.67)" x="0" xlink:href="#backer" y="0" /><use transform="translate(50.625, 489.375) scale(0.67)" x="0" xlink:href="#backer" y="0" /><use transform="translate(67.5, 489.375) scale(0.67)" x="0" xlink:href="#backer" y="0" /><use transform="translate(84.375, 489.375) scale(0.67)" x="0" xlink:href="#backer" y="0" /><use transform="translate(101.25, 489.375) scale(0.67)" x="0" xlink:href="#backer" y="0" /><use transform="translate(118.125, 489.375) scale(0.67)" x="0" xlink:href="#backer" y="0" /><use transform="translate(135.0, 489.375) scale(0.67)" x="0" xlink:href="#backer" y="0" /><use transform="translate(151.875, 489.375) scale(0.67)" x="0" xlink:href="#backer" y="0" /><use transform="translate(168.75, 489.375) scale(0.67)" x="0" xlink:href="#backer" y="0" /><use transform="translate(185.625, 489.375) scale(0.67)" x="0" xlink:href="#backer" y="0" /><use transform="translate(202.5, 489.375) scale(0.67)" x="0" xlink:href="#backer" y="0" /><use transform="translate(219.375, 489.375) scale(0.67)" x="0" xlink:href="#backer" y="0" /><use transform="translate(236.25, 489.375) scale(0.67)" x="0" xlink:href="#backer" y="0" /><use transform="translate(253.125, 489.375) scale(0.67)" x="0" xlink:href="#backer" y="0" /><use transform="translate(270.0, 489.375) scale(0.67)" x="0" xlink:href="#backer" y="0" /><use transform="translate(286.875, 489.375) scale(0.67)" x="0" xlink:href="#backer" y="0" /><use transform="translate(303.75, 489.375) scale(0.67)" x="0" xlink:href="#backer" y="0" /><use transform="translate(320.625, 489.375) scale(0.67)" x="0" xlink:href="#backer" y="0" /><use transform="translate(337.5, 489.375) scale(0.67)" x="0" xlink:href="#backer" y="0" /><use transform="translate(354.375, 489.375) scale(0.67)" x="0" xlink:href="#backer" y="0" /><use transform="translate(371.25, 489.375) scale(0.67)" x="0" xlink:href="#backer" y="0" /><use transform="translate(388.125, 489.375) scale(0.67)" x="0" xlink:href="#backer" y="0" /><use transform="translate(405.0, 489.375) scale(0.67)" x="0" xlink:href="#backer" y="0" /><use transform="translate(421.875, 489.375) scale(0.67)" x="0" xlink:href="#backer" y="0" /><use transform="translate(0, 506.25) scale(0.67)" x="0" xlink:href="#backer" y="0" /><use transform="translate(16.875, 506.25) scale(0.67)" x="0" xlink:href="#backer" y="0" /><use transform="translate(33.75, 506.25) scale(0.67)" x="0" xlink:href="#backer" y="0" /><use transform="translate(50.625, 506.25) scale(0.67)" x="0" xlink:href="#backer" y="0" /><use transform="translate(67.5, 506.25) scale(0.67)" x="0" xlink:href="#backer" y="0" /><use transform="translate(84.375, 506.25) scale(0.67)" x="0" xlink:href="#backer" y="0" /><use transform="translate(101.25, 506.25) scale(0.67)" x="0" xlink:href="#backer" y="0" /><use transform="translate(118.125, 506.25) scale(0.67)" x="0" xlink:href="#backer" y="0" /><use transform="translate(135.0, 506.25) scale(0.67)" x="0" xlink:href="#backer" y="0" /><use transform="translate(151.875, 506.25) scale(0.67)" x="0" xlink:href="#backer" y="0" /><use transform="translate(168.75, 506.25) scale(0.67)" x="0" xlink:href="#backer" y="0" /><use transform="translate(185.625, 506.25) scale(0.67)" x="0" xlink:href="#backer" y="0" /><use transform="translate(202.5, 506.25) scale(0.67)" x="0" xlink:href="#backer" y="0" /><use transform="translate(219.375, 506.25) scale(0.67)" x="0" xlink:href="#backer" y="0" /><use transform="translate(236.25, 506.25) scale(0.67)" x="0" xlink:href="#backer" y="0" /><use transform="translate(253.125, 506.25) scale(0.67)" x="0" xlink:href="#backer" y="0" /><use transform="translate(270.0, 506.25) scale(0.67)" x="0" xlink:href="#backer" y="0" /><use transform="translate(286.875, 506.25) scale(0.67)" x="0" xlink:href="#backer" y="0" /><use transform="translate(303.75, 506.25) scale(0.67)" x="0" xlink:href="#backer" y="0" /><use transform="translate(320.625, 506.25) scale(0.67)" x="0" xlink:href="#backer" y="0" /><use transform="translate(337.5, 506.25) scale(0.67)" x="0" xlink:href="#backer" y="0" /><use transform="translate(354.375, 506.25) scale(0.67)" x="0" xlink:href="#backer" y="0" /><use transform="translate(371.25, 506.25) scale(0.67)" x="0" xlink:href="#backer" y="0" /><use transform="translate(388.125, 506.25) scale(0.67)" x="0" xlink:href="#backer" y="0" /><use transform="translate(405.0, 506.25) scale(0.67)" x="0" xlink:href="#backer" y="0" /><use transform="translate(421.875, 506.25) scale(0.67)" x="0" xlink:href="#backer" y="0" /><use transform="translate(0, 523.125) scale(0.67)" x="0" xlink:href="#backer" y="0" /><use transform="translate(16.875, 523.125) scale(0.67)" x="0" xlink:href="#backer" y="0" /><use transform="translate(33.75, 523.125) scale(0.67)" x="0" xlink:href="#backer" y="0" /><use transform="translate(50.625, 523.125) scale(0.67)" x="0" xlink:href="#backer" y="0" /><use transform="translate(67.5, 523.125) scale(0.67)" x="0" xlink:href="#backer" y="0" /><use transform="translate(84.375, 523.125) scale(0.67)" x="0" xlink:href="#backer" y="0" /><use transform="translate(101.25, 523.125) scale(0.67)" x="0" xlink:href="#backer" y="0" /><use transform="translate(118.125, 523.125) scale(0.67)" x="0" xlink:href="#backer" y="0" /><use transform="translate(135.0, 523.125) scale(0.67)" x="0" xlink:href="#backer" y="0" /><use transform="translate(151.875, 523.125) scale(0.67)" x="0" xlink:href="#backer" y="0" /><use transform="translate(168.75, 523.125) scale(0.67)" x="0" xlink:href="#backer" y="0" /><use transform="translate(185.625, 523.125) scale(0.67)" x="0" xlink:href="#backer" y="0" /><use transform="translate(202.5, 523.125) scale(0.67)" x="0" xlink:href="#backer" y="0" /><use transform="translate(219.375, 523.125) scale(0.67)" x="0" xlink:href="#backer" y="0" /><use transform="translate(236.25, 523.125) scale(0.67)" x="0" xlink:href="#backer" y="0" /><use transform="translate(253.125, 523.125) scale(0.67)" x="0" xlink:href="#backer" y="0" /><use transform="translate(270.0, 523.125) scale(0.67)" x="0" xlink:href="#backer" y="0" /><use transform="translate(286.875, 523.125) scale(0.67)" x="0" xlink:href="#backer" y="0" /><use transform="translate(303.75, 523.125) scale(0.67)" x="0" xlink:href="#backer" y="0" /><use transform="translate(320.625, 523.125) scale(0.67)" x="0" xlink:href="#backer" y="0" /><use transform="translate(337.5, 523.125) scale(0.67)" x="0" xlink:href="#backer" y="0" /><use transform="translate(354.375, 523.125) scale(0.67)" x="0" xlink:href="#backer" y="0" /><use transform="translate(371.25, 523.125) scale(0.67)" x="0" xlink:href="#backer" y="0" /></svg>