<?xml version="1.0" encoding="utf-8" ?>
<svg baseProfile="full" height="792.0" version="1.1" width="612.0" xmlns="http://www.w3.org/2000/svg" xmlns:ev="http://www.w3.org/2001/xml-events" xmlns:xlink="http://www.w3.org/1999/xlink"><defs><pattern height="20" id="diagonal" patternUnits="userSpaceOnUse" width="20"><rect fill="#FFFFFF" height="20" width="20" x="0" y="0" /><path d="M 0,20 l 20,-20 M -5,5 l 10,-10 M 15,25 l 10,-10" stroke="#000000" stroke-width="1" /></pattern><pattern height="6" id="circles" patternUnits="userSpaceOnUse" width="6"><rect fill="#FFFFFF" height="6" width="6" x="0" y="0" /><circle cx="3" cy="3" fill="#000000" r="1" /><circle cx="0" cy="0" fill="#000000" r="1" /><circle cx="0" cy="6" fill="#000000" r="1" /><circle cx="6" cy="0" fill="#000000" r="1" /><circle cx="6" cy="6" fill="#000000" r="1" /></pattern><pattern height="20" id="waves" patternUnits="userSpaceOnUse" width="20"><rect fill="#FFFFFF" height="20" width="20" x="0" y="0" /><path d="M0 10 c 2.5 -5 , 7.5 -5 , 10 0 c 2.5 5 , 7.5 5 , 10 0 M -10 10 c 2.5 5 , 7.5 5 , 10 0 M 20 10 c 2.5 -5 , 7.5 -5 , 10 0" fill="none" stroke="#000000" stroke-linecap="square" stroke-width="1" /></pattern></defs><g id="shapes"><circle cx="306.0" cy="396.0" fill="url(#waves)" r="270.0" stroke="#000000" stroke-width="3" /><circle cx="306.0" cy="257.041789673" fill="url(#diagonal)" r="121.041789673" stroke="#000000" stroke-width="3" /><circle cx="306.0" cy="152.422800325" fill="url(#circles)" r="6.42280032475" stroke="#000000" stroke-width="3" /></g></svg>