<?xml version="1.0" encoding="utf-8" ?>
<svg baseProfile="full" height="792.0" version="1.1" width="612.0" xmlns="http://www.w3.org/2000/svg" xmlns:ev="http://www.w3.org/2001/xml-events" xmlns:xlink="http://www.w3.org/1999/xlink"><defs><pattern height="100" id="honeycomb" patternTransform="scale(0.667)" patternUnits="userSpaceOnUse" width="56"><rect fill="#FFFFFF" height="100" width="56" x="0" y="0" /><path d="M28 66L0 50L0 16L28 0L56 16L56 50L28 66L28 100" fill="none" stroke="#000000" stroke-width="2.0" /><path d="M28 0L28 34L0 50L0 84L28 100L56 84L56 50L28 34" fill="none" stroke="#000000" stroke-width="2.0" /></pattern><pattern height="12" id="circles" patternUnits="userSpaceOnUse" width="12"><rect fill="#FFFFFF" height="12" width="12" x="0" y="0" /><circle cx="6" cy="6" fill="#000000" r="1" /><circle cx="0" cy="0" fill="#000000" r="1" /><circle cx="0" cy="12" fill="#000000" r="1" /><circle cx="12" cy="0" fill="#000000" r="1" /><circle cx="12" cy="12" fill="#000000" r="1" /></pattern><pattern height="32" id="waves" patternTransform="scale(0.75) rotate(45)" patternUnits="userSpaceOnUse" width="48"><rect fill="#FFFFFF" height="32" width="48" x="0" y="0" /><path d="M27 32c0-3.314 2.686-6 6-6 5.523 0 10-4.477 10-10S38.523 6 33 6c-3.314 0-6-2.686-6-6h2c0 2.21 1.79 4 4 4 6.627 0 12 5.373 12 12s-5.373 12-12 12c-2.21 0-4 1.79-4 4h-2zm-6 0c0-3.314-2.686-6-6-6-5.523 0-10-4.477-10-10S9.477 6 15 6c3.314 0 6-2.686 6-6h-2c0 2.21-1.79 4-4 4C8.373 4 3 9.373 3 16s5.373 12 12 12c2.21 0 4 1.79 4 4h2z" fill="#000000" /></pattern></defs><g id="shapes"><circle cx="306.0" cy="396.0" fill="url(#honeycomb)" r="270.0" stroke="#000000" stroke-width="3" /><circle cx="306.0" cy="209.805020904" fill="url(#waves)" r="73.8050209037" stroke="#000000" stroke-width="3" /><circle cx="306.0" cy="169.01520212" fill="url(#circles)" r="23.0152021198" stroke="#000000" stroke-width="3" /></g><rect fill="none" height="720.0" stroke="#000000" stroke-width="1" width="540.0" x="36.0" y="36.0" /></svg>