<?xml version="1.0" encoding="utf-8" ?>
<svg baseProfile="full" height="920" version="1.1" width="920" xmlns="http://www.w3.org/2000/svg" xmlns:ev="http://www.w3.org/2001/xml-events" xmlns:xlink="http://www.w3.org/1999/xlink"><defs><pattern height="20" id="diagonal" patternUnits="userSpaceOnUse" width="20"><rect fill="#FFFFFF" height="20" width="20" x="0" y="0" /><path d="M 0,20 l 20,-20 M -5,5 l 10,-10 M 15,25 l 10,-10" stroke="#000000" stroke-width="1" /></pattern><pattern height="20" id="circles" patternUnits="userSpaceOnUse" width="20"><rect fill="#FFFFFF" height="20" width="20" x="0" y="0" /><circle cx="10" cy="10" fill="none" r="5" stroke="#000000" stroke-width="1" /></pattern><pattern height="10" id="waves" patternUnits="userSpaceOnUse" width="10"><rect fill="#FFFFFF" height="10" width="10" x="0" y="0" /><path d="M 0 5 c 1.25 -2.5 , 3.75 -2.5 , 5 0 c 1.25 2.5 , 3.75 2.5 , 5 0 M -5 5 c 1.25 2.5 , 3.75 2.5 , 5 0 M 10 5 c 1.25 -2.5 , 3.75 -2.5 , 5 0" fill="none" stroke="#000000" stroke-linecap="square" stroke-width="1" /></pattern></defs><g id="shapes"><circle cx="460.0" cy="460.0" fill="url(#diagonal)" r="400.0" stroke="#000000" stroke-width="2" /><circle cx="460.0" cy="460.0" fill="url(#circles)" r="193.619744358" stroke="#000000" stroke-width="2" /><circle cx="460.0" cy="460.0" fill="url(#waves)" r="162.890146622" stroke="#000000" stroke-width="2" /></g></svg>