<?xml version="1.0" encoding="utf-8" ?>
<svg baseProfile="full" height="1650.0" version="1.1" width="1275.0" xmlns="http://www.w3.org/2000/svg" xmlns:ev="http://www.w3.org/2001/xml-events" xmlns:xlink="http://www.w3.org/1999/xlink"><defs><pattern height="48" id="diagonal" patternUnits="userSpaceOnUse" width="48"><path d="M0,48 l48,-48 M-12.0,12.0 l24.0,-24.0 M36.0,60.0 l24.0,-24.0" stroke="#A92D2D" stroke-width="12" /></pattern><pattern height="36" id="dot" patternTransform="rotate(45)" patternUnits="userSpaceOnUse" width="36"><rect fill="#000000" height="12" width="12" x="12.0" y="12.0" /></pattern></defs><path d="M53.5737217263,1058.59914986 C53.899346809,1059.1298087 56.5341392492,1063.35791249 56.8299725527,1063.90573834 S62.1141617739,1074.25906518 62.6618702361,1075.42863674 S69.3496764959,1090.57437209 70.1044828283,1092.25200409 S77.4250617474,1108.52399569 78.3427596743,1110.28096999 S85.8670879634,1123.09737954 86.8911328096,1124.39080674 S94.5546541658,1131.39134607 95.5347216956,1131.9954011 S103.349744515,1134.71359074 104.201310194,1135.05976516 S112.124518296,1138.45056544 112.872262774,1139.04337562 S120.803893775,1147.73267804 121.54379562,1148.80884944 S129.352215243,1162.72026977 130.215328467,1164.26849336 S137.847285339,1178.46210437 138.886861314,1179.91825975 S146.393012322,1188.18597026 147.558394161,1188.56128101 S155.5863216,1186.16026175 156.229927007,1185.50358692 S164.159947268,1172.39727599 164.901459854,1170.86603709 S172.694311906,1151.80266288 173.572992701,1149.68979593 S181.266956632,1131.16551912 182.244525547,1129.16307664 S189.884023432,1115.55599664 190.916058394,1114.16443203 S198.529236853,1106.35711537 199.587591241,1105.77821345 S207.466960833,1104.30856202 208.259124088,1104.67806895 S216.31143111,1112.76655263 216.930656934,1113.86793869 S224.863066463,1133.31260746 225.602189781,1135.52531409 S233.396788004,1162.76429372 234.273722628,1165.78771378 S241.949707743,1192.40687021 242.945255474,1195.31924997 S250.586610646,1214.47703737 251.616788321,1216.52319516 S259.382601465,1228.46811925 260.288321168,1229.76636504 S268.15285411,1240.17831877 268.959854015,1241.38249975 S276.765606281,1254.21806561 277.631386861,1255.64516591 S285.269558368,1268.6521635 286.302919708,1269.9697594 S293.835944747,1277.50875925 294.974452555,1277.7585848 S303.043416195,1274.51533893 303.645985401,1273.7753906 S311.628648003,1258.27122192 312.317518248,1256.46149168 S320.175243056,1231.05407494 320.989051095,1228.21344222 S328.712687211,1199.13085247 329.660583942,1195.92475867 S337.218809343,1172.09658486 338.332116788,1169.55357599 S345.794368822,1157.33139889 347.003649635,1156.3098526 S354.797623507,1154.86244151 355.675182482,1154.90293054 S363.453003362,1157.06591008 364.346715328,1157.11003121 S372.203986889,1156.08651757 373.018248175,1155.75912984 S380.834338168,1150.71683413 381.689781022,1150.13695401 S389.437461329,1144.52691503 390.361313869,1144.00276414 S398.139693885,1140.59985731 399.032846715,1140.29730648 S406.864658845,1138.43430244 407.704379562,1138.1278917 S415.594432428,1134.52944138 416.375912409,1133.968891 S424.222734958,1126.55821018 425.047445255,1125.68782632 S432.761700622,1116.58189982 433.718978102,1115.66534302 S441.388279589,1109.50773582 442.390510949,1109.08250022 S450.192210988,1108.26997263 451.062043796,1108.30687349 S458.853411558,1109.82857119 459.733576642,1109.81824398 S467.598018329,1108.46389074 468.405109489,1108.10338252 S476.218633923,1102.68763907 477.076642336,1102.07151341 S484.81696654,1096.19471498 485.748175182,1095.64953278 S493.540517675,1092.26174755 494.419708029,1091.9179019 S502.298277084,1089.33180677 503.091240876,1088.86677218 S511.052064215,1082.61522905 511.762773723,1081.74703971 S519.697464163,1069.15986599 520.434306569,1067.68081013 S528.3222483,1049.0421042 529.105839416,1046.93448996 S536.968563148,1023.64232137 537.777372263,1021.033405 S545.623376557,994.008053376 546.448905109,990.992232072 S554.263595701,961.010028115 555.120437956,957.675709116 S562.878605474,926.908538586 563.791970803,923.503364598 S571.458948617,896.024014596 572.46350365,893.017949134 S579.94154493,873.58337941 581.135036496,871.605370871 S588.687586159,864.081886238 589.806569343,864.274778263 S597.915546253,873.370023766 598.47810219,874.594994932 S606.40986367,899.257986421 607.149635036,902.039476853 S614.950118471,936.028221168 615.821167883,939.803751919 S623.507938403,973.500706147 624.49270073,977.212339511 S632.049702257,1002.46413008 633.164233577,1005.17089637 S640.588127867,1018.2361826 641.835766423,1019.33195055 S649.670062961,1020.65276932 650.50729927,1020.40285236 S658.268245898,1014.71459778 659.178832117,1014.15500556 S666.877963264,1009.77459783 667.850364964,1009.74483398 S675.768892648,1013.04499578 676.52189781,1013.62415866 S684.192417321,1022.28099632 685.193430657,1023.08399872 S692.926469501,1027.80009694 693.864963504,1027.53658414 S701.915248562,1019.32569241 702.53649635,1018.21436741 S710.384968456,998.699588465 711.208029197,996.512276575 S718.899206214,974.520088073 719.879562044,972.124580981 S727.45163432,955.801580402 728.551094891,954.134360701 S736.11077919,946.279579264 737.222627737,945.825592588 S745.166929068,946.564883983 745.894160584,947.052891952 S753.849845382,956.3132684 754.565693431,957.463639198 S762.383731852,973.170590138 763.237226277,974.92327078 S770.879295544,991.349594096 771.908759124,993.07823094 S779.401868131,1003.29277393 780.580291971,1004.04509979 S788.465525128,1004.5161242 789.251824818,1004.1503396 S797.11474362,996.852426333 797.923357664,995.977150145 S805.667545662,986.385236564 806.594890511,985.377511534 S814.306555156,977.845449243 815.266423358,977.130826239 S823.029650207,972.845816003 823.937956204,972.465578739 S831.730157875,970.085267068 832.609489051,969.870629946 S840.405603269,968.343815727 841.281021898,968.232286672 S849.089284997,967.761022044 849.952554745,967.661109083 S857.85188035,966.644887747 858.624087591,966.225038016 S866.670060466,959.231454025 867.295620438,958.231669583 S875.267365875,940.544814755 875.967153285,938.506948569 S883.827925848,910.819921814 884.638686131,907.726549504 S892.403950512,875.865482746 893.310218978,872.33626866 S900.986324598,843.366110882 901.981751825,840.188734796 S909.556145475,819.199343305 910.653284672,816.977684219 S918.166349453,805.979665605 919.324817518,805.069782165 S927.119056032,803.248044004 927.996350365,803.356101755 S935.767801789,806.905918754 936.667883212,807.20595539 S944.489799024,809.396934967 945.339416058,809.137306601 S953.378912614,802.841825799 954.010948905,801.906212546 S961.921235803,785.354484601 962.682481752,783.464093951 S970.454203279,761.289258657 971.354014599,758.838437585 S979.00313379,738.422034197 980.025547445,736.226689928 S987.569980773,722.872395575 988.697080292,721.599107213 S996.382232519,716.793898968 997.368613139,716.634166525 S1005.18422946,718.53396697 1006.04014599,718.790606929 S1013.79276601,721.848415335 1014.71167883,721.834350812 S1022.7181566,719.172589425 1023.38321168,718.5251607 S1031.35845833,706.40343157 1032.05474453,704.95093876 S1039.92392659,684.63078016 1040.72627737,682.346534323 S1048.50028121,658.243241678 1049.39781022,655.576243099 S1057.08827809,633.245353283 1058.06934307,630.811786007 S1065.74506918,614.314834783 1066.74087591,612.556139194 S1074.53172196,601.409975796 1075.41240876,600.18217469 S1083.29949866,589.61444753 1084.08394161,588.377469466 S1091.94326184,574.41785331 1092.75547445,572.834116 S1100.52663854,556.371404101 1101.4270073,554.560141452 S1109.11543105,539.540865997 1110.09854015,537.94524752 S1117.74826805,527.430635954 1118.77007299,526.411774048 S1126.48340444,521.058999251 1127.44160584,520.65213387 S1135.23818561,519.157921249 1136.11313869,519.04767188 S1143.92940505,518.621231388 1144.78467153,518.466802911 S1152.63667989,516.297478498 1153.45620438,515.916176274 S1161.32132084,511.035790308 1162.12715696,510.397821045 S1170.02623485,503.104430963 1170.79374546,502.190285801 S1178.74071233,491.122831744 1179.43733434,489.780496973 S1187.3039874,471.197760162 1187.98570748,469.062753484 S1195.51997183,440.422235019 1196.22398432,437.208171831 S1202.98255862,401.45823623 1203.66659692,397.474010845 S1208.93430413,363.651234478 1209.4984946,359.88992714 S1212.42912034,339.186167587 1212.75474543,336.885749859 Q1225.12737271,316.885749859 1237.5,336.885749859 L1237.5,37.5 L37.5,37.5 L37.5,1058.59914986 Q45.5368608632,1038.59914986 53.5737217263,1058.59914986" fill="url(#dot)" /><path d="M53.5737217263,1118.59914986 C53.899346809,1119.1298087 56.5341392492,1123.35791249 56.8299725527,1123.90573834 S62.1141617739,1134.25906518 62.6618702361,1135.42863674 S69.3496764959,1150.57437209 70.1044828283,1152.25200409 S77.4250617474,1168.52399569 78.3427596743,1170.28096999 S85.8670879634,1183.09737954 86.8911328096,1184.39080674 S94.5546541658,1191.39134607 95.5347216956,1191.9954011 S103.349744515,1194.71359074 104.201310194,1195.05976516 S112.124518296,1198.45056544 112.872262774,1199.04337562 S120.803893775,1207.73267804 121.54379562,1208.80884944 S129.352215243,1222.72026977 130.215328467,1224.26849336 S137.847285339,1238.46210437 138.886861314,1239.91825975 S146.393012322,1248.18597026 147.558394161,1248.56128101 S155.5863216,1246.16026175 156.229927007,1245.50358692 S164.159947268,1232.39727599 164.901459854,1230.86603709 S172.694311906,1211.80266288 173.572992701,1209.68979593 S181.266956632,1191.16551912 182.244525547,1189.16307664 S189.884023432,1175.55599664 190.916058394,1174.16443203 S198.529236853,1166.35711537 199.587591241,1165.77821345 S207.466960833,1164.30856202 208.259124088,1164.67806895 S216.31143111,1172.76655263 216.930656934,1173.86793869 S224.863066463,1193.31260746 225.602189781,1195.52531409 S233.396788004,1222.76429372 234.273722628,1225.78771378 S241.949707743,1252.40687021 242.945255474,1255.31924997 S250.586610646,1274.47703737 251.616788321,1276.52319516 S259.382601465,1288.46811925 260.288321168,1289.76636504 S268.15285411,1300.17831877 268.959854015,1301.38249975 S276.765606281,1314.21806561 277.631386861,1315.64516591 S285.269558368,1328.6521635 286.302919708,1329.9697594 S293.835944747,1337.50875925 294.974452555,1337.7585848 S303.043416195,1334.51533893 303.645985401,1333.7753906 S311.628648003,1318.27122192 312.317518248,1316.46149168 S320.175243056,1291.05407494 320.989051095,1288.21344222 S328.712687211,1259.13085247 329.660583942,1255.92475867 S337.218809343,1232.09658486 338.332116788,1229.55357599 S345.794368822,1217.33139889 347.003649635,1216.3098526 S354.797623507,1214.86244151 355.675182482,1214.90293054 S363.453003362,1217.06591008 364.346715328,1217.11003121 S372.203986889,1216.08651757 373.018248175,1215.75912984 S380.834338168,1210.71683413 381.689781022,1210.13695401 S389.437461329,1204.52691503 390.361313869,1204.00276414 S398.139693885,1200.59985731 399.032846715,1200.29730648 S406.864658845,1198.43430244 407.704379562,1198.1278917 S415.594432428,1194.52944138 416.375912409,1193.968891 S424.222734958,1186.55821018 425.047445255,1185.68782632 S432.761700622,1176.58189982 433.718978102,1175.66534302 S441.388279589,1169.50773582 442.390510949,1169.08250022 S450.192210988,1168.26997263 451.062043796,1168.30687349 S458.853411558,1169.82857119 459.733576642,1169.81824398 S467.598018329,1168.46389074 468.405109489,1168.10338252 S476.218633923,1162.68763907 477.076642336,1162.07151341 S484.81696654,1156.19471498 485.748175182,1155.64953278 S493.540517675,1152.26174755 494.419708029,1151.9179019 S502.298277084,1149.33180677 503.091240876,1148.86677218 S511.052064215,1142.61522905 511.762773723,1141.74703971 S519.697464163,1129.15986599 520.434306569,1127.68081013 S528.3222483,1109.0421042 529.105839416,1106.93448996 S536.968563148,1083.64232137 537.777372263,1081.033405 S545.623376557,1054.00805338 546.448905109,1050.99223207 S554.263595701,1021.01002812 555.120437956,1017.67570912 S562.878605474,986.908538586 563.791970803,983.503364598 S571.458948617,956.024014596 572.46350365,953.017949134 S579.94154493,933.58337941 581.135036496,931.605370871 S588.687586159,924.081886238 589.806569343,924.274778263 S597.915546253,933.370023766 598.47810219,934.594994932 S606.40986367,959.257986421 607.149635036,962.039476853 S614.950118471,996.028221168 615.821167883,999.803751919 S623.507938403,1033.50070615 624.49270073,1037.21233951 S632.049702257,1062.46413008 633.164233577,1065.17089637 S640.588127867,1078.2361826 641.835766423,1079.33195055 S649.670062961,1080.65276932 650.50729927,1080.40285236 S658.268245898,1074.71459778 659.178832117,1074.15500556 S666.877963264,1069.77459783 667.850364964,1069.74483398 S675.768892648,1073.04499578 676.52189781,1073.62415866 S684.192417321,1082.28099632 685.193430657,1083.08399872 S692.926469501,1087.80009694 693.864963504,1087.53658414 S701.915248562,1079.32569241 702.53649635,1078.21436741 S710.384968456,1058.69958846 711.208029197,1056.51227658 S718.899206214,1034.52008807 719.879562044,1032.12458098 S727.45163432,1015.8015804 728.551094891,1014.1343607 S736.11077919,1006.27957926 737.222627737,1005.82559259 S745.166929068,1006.56488398 745.894160584,1007.05289195 S753.849845382,1016.3132684 754.565693431,1017.4636392 S762.383731852,1033.17059014 763.237226277,1034.92327078 S770.879295544,1051.3495941 771.908759124,1053.07823094 S779.401868131,1063.29277393 780.580291971,1064.04509979 S788.465525128,1064.5161242 789.251824818,1064.1503396 S797.11474362,1056.85242633 797.923357664,1055.97715015 S805.667545662,1046.38523656 806.594890511,1045.37751153 S814.306555156,1037.84544924 815.266423358,1037.13082624 S823.029650207,1032.845816 823.937956204,1032.46557874 S831.730157875,1030.08526707 832.609489051,1029.87062995 S840.405603269,1028.34381573 841.281021898,1028.23228667 S849.089284997,1027.76102204 849.952554745,1027.66110908 S857.85188035,1026.64488775 858.624087591,1026.22503802 S866.670060466,1019.23145402 867.295620438,1018.23166958 S875.267365875,1000.54481476 875.967153285,998.506948569 S883.827925848,970.819921814 884.638686131,967.726549504 S892.403950512,935.865482746 893.310218978,932.33626866 S900.986324598,903.366110882 901.981751825,900.188734796 S909.556145475,879.199343305 910.653284672,876.977684219 S918.166349453,865.979665605 919.324817518,865.069782165 S927.119056032,863.248044004 927.996350365,863.356101755 S935.767801789,866.905918754 936.667883212,867.20595539 S944.489799024,869.396934967 945.339416058,869.137306601 S953.378912614,862.841825799 954.010948905,861.906212546 S961.921235803,845.354484601 962.682481752,843.464093951 S970.454203279,821.289258657 971.354014599,818.838437585 S979.00313379,798.422034197 980.025547445,796.226689928 S987.569980773,782.872395575 988.697080292,781.599107213 S996.382232519,776.793898968 997.368613139,776.634166525 S1005.18422946,778.53396697 1006.04014599,778.790606929 S1013.79276601,781.848415335 1014.71167883,781.834350812 S1022.7181566,779.172589425 1023.38321168,778.5251607 S1031.35845833,766.40343157 1032.05474453,764.95093876 S1039.92392659,744.63078016 1040.72627737,742.346534323 S1048.50028121,718.243241678 1049.39781022,715.576243099 S1057.08827809,693.245353283 1058.06934307,690.811786007 S1065.74506918,674.314834783 1066.74087591,672.556139194 S1074.53172196,661.409975796 1075.41240876,660.18217469 S1083.29949866,649.61444753 1084.08394161,648.377469466 S1091.94326184,634.41785331 1092.75547445,632.834116 S1100.52663854,616.371404101 1101.4270073,614.560141452 S1109.11543105,599.540865997 1110.09854015,597.94524752 S1117.74826805,587.430635954 1118.77007299,586.411774048 S1126.48340444,581.058999251 1127.44160584,580.65213387 S1135.23818561,579.157921249 1136.11313869,579.04767188 S1143.92940505,578.621231388 1144.78467153,578.466802911 S1152.63667989,576.297478498 1153.45620438,575.916176274 S1161.32132084,571.035790308 1162.12715696,570.397821045 S1170.02623485,563.104430963 1170.79374546,562.190285801 S1178.74071233,551.122831744 1179.43733434,549.780496973 S1187.3039874,531.197760162 1187.98570748,529.062753484 S1195.51997183,500.422235019 1196.22398432,497.208171831 S1202.98255862,461.45823623 1203.66659692,457.474010845 S1208.93430413,423.651234478 1209.4984946,419.88992714 S1212.42912034,399.186167587 1212.75474543,396.885749859 Q1225.12737271,376.885749859 1237.5,396.885749859 L1237.5,1612.5 L37.5,1612.5 L37.5,1118.59914986 Q45.5368608632,1098.59914986 53.5737217263,1118.59914986" fill="url(#diagonal)" /></svg>