<?xml version="1.0" encoding="utf-8" ?>
<svg baseProfile="full" height="1650.0" version="1.1" width="1275.0" xmlns="http://www.w3.org/2000/svg" xmlns:ev="http://www.w3.org/2001/xml-events" xmlns:xlink="http://www.w3.org/1999/xlink"><defs /><path d="M37.5,840.034215786 C38.3759124088,836.06391998 44.5634268634,804.026536096 46.2591240876,800.331257722 S54.7719907969,801.003953733 55.0182481752,801.858294571 S62.781729114,855.201361843 63.7773722628,861.107324297 S71.1206255776,901.447311824 72.5364963504,905.773152119 S80.0503920778,914.662529192 81.295620438,914.629965841 S89.3729277867,904.233363331 90.0547445255,905.315041064 S97.3039733304,945.922997764 98.8138686131,942.422036485 S106.395686447,872.428567808 107.572992701,864.695860891 S115.833302748,823.557414105 116.332116788,827.359809943 S122.585811449,981.309686072 125.091240876,998.235233302 S129.464217552,948.725598368 133.850364964,945.70516571 S141.285795624,982.248580198 142.609489051,986.171642198 S150.40212169,998.694361408 151.368613139,997.624418562 S159.353394648,969.889939744 160.127737226,966.778274221 S168.384001934,931.247544839 168.886861314,927.228019842 S175.523719975,836.609195806 177.645985401,826.748995203 S186.101792782,843.75880184 186.405109489,845.836955811 S185.273970186,948.97249234 195.164233577,946.774091504 S202.640221843,852.384100757 203.923357664,841.943011847 S210.029909145,801.404312971 212.682481752,804.225201686 S220.714203702,854.91700636 221.441605839,860.5728614 S229.262823766,932.457528773 230.200729927,940.436888582 S238.043646488,1002.69940253 238.959854015,1009.61165782 S244.767936636,1078.23542745 247.718978102,1072.60192783 S255.385295722,985.790623019 256.47810219,976.169550839 S263.577748458,912.765865591 265.237226277,918.37120612 S272.791545884,1023.6744153 273.996350365,1035.34222872 S280.715113717,1083.08952692 282.755474453,1088.025 S291.03633345,1078.98278004 291.51459854,1077.71750127 S296.73075298,1040.583068 300.273722628,1041.67943164 S307.268473544,1086.99110956 309.032846715,1083.13848208 S316.248787714,1011.29638723 317.791970803,1003.42715859 S326.394546858,995.098423579 326.551094891,993.806826441 S334.059233317,872.354894039 335.310218978,858.893120866 S343.266474772,799.922801203 344.069343066,805.29412748 S351.235752627,959.065171768 352.828467153,976.093198997 S361.098803712,994.387464775 361.587591241,992.585196962 S368.668251108,919.480694201 370.346715328,911.499540301 S378.206134755,909.202989808 379.105839416,909.28533687 S387.508172144,913.98930508 387.864963504,913.102928992 S392.987258342,862.610473332 396.624087591,865.764786685 S403.3402515,922.32231215 405.383211679,928.296945636 S413.022212705,916.108355482 414.142335766,916.996872956 S422.042975645,944.718583063 422.901459854,942.192980958 S430.694071258,873.121854894 431.660583942,865.459379315 S434.380901246,801.598202834 440.419708029,803.308979577 S447.805213742,863.794858596 449.178832117,870.422249073 S457.631111729,885.906013308 457.937956204,887.830469147 S464.048004147,989.19434693 466.697080292,980.292550331 S473.950881995,844.046532281 475.45620438,828.963198634 S482.12560867,803.256865754 484.215328467,804.759664583 S492.483507768,837.810284147 492.974452555,841.561252635 S493.626911575,944.010275904 501.733576642,938.604444364 S508.15777338,840.534309031 510.49270073,829.879420743 S516.580908711,857.278790152 519.251824818,858.664065339 S527.617170375,841.084860354 528.010948905,838.965289992 S534.804104254,771.618501844 536.770072993,764.369539937 S544.203743114,774.475615172 545.52919708,774.371631296 S554.02606694,764.4068284 554.288321168,762.995206774 S562.141423673,688.365680077 563.047445255,680.077105894 S568.989514611,609.988929078 571.806569343,602.732689512 S578.872600695,632.07527695 580.565693431,634.953167018 S589.176719198,633.407117388 589.324817518,632.50990806 S589.20142339,534.244027451 598.083941606,528.82410604 S606.123122665,612.507622863 606.843065693,621.82065012 S614.205068329,742.119209064 615.602189781,755.436374373 S622.786046423,785.733173474 624.361313869,788.802129515 S632.303139608,789.241494331 633.120437956,789.56564794 S641.666020688,794.699384146 641.879562044,795.750147176 S646.89009071,882.890221858 650.638686131,875.766878043 S658.009434221,773.740036188 659.397810219,762.460743877 S667.529354765,736.412058832 668.156934307,733.447043753 S676.043165701,674.319685767 676.916058394,679.695346682 S684.07249135,825.224332015 685.675182482,841.332197107 S693.982000051,854.136339231 694.434306569,855.762695327 S702.583518107,909.218970312 703.193430657,904.322467112 S710.547789,734.010686358 711.952554745,715.12260157 S716.444207386,670.785770895 720.711678832,668.777033215 S728.495912752,703.090762711 729.47080292,706.876602587 S735.771146398,738.724759142 738.229927007,736.80652482 S745.574854736,697.425565139 746.989051095,693.209622792 S754.990160527,685.549861728 755.748175182,684.581864598 S764.351107352,669.216306627 764.50729927,670.83853296 S770.852907366,847.088988446 773.266423358,866.528305109 S781.041080848,817.37736644 782.025547445,811.936737772 S789.347370717,773.77973678 790.784671533,769.714168908 S798.450046225,762.055467882 799.54379562,762.384392034 S807.97831377,776.482100388 808.302919708,774.982446035 S814.010424083,690.335994891 817.062043796,681.451439058 S825.244404215,719.675829131 825.821167883,723.979415292 S826.562133927,808.391573274 834.580291971,812.165793299 S842.581607699,740.23151139 843.339416058,732.225414274 S849.700513764,616.815003895 852.098540146,627.088927248 S858.307798711,789.420075402 860.857664234,807.279275383 S864.074892832,748.023103681 869.616788321,749.786338033 S877.629602391,819.176268494 878.375912409,812.852959881 S884.616902676,622.375632524 887.135036496,601.358356349 S891.850426475,671.838344876 895.894160584,666.639181627 S903.331130098,587.558990644 904.653284672,578.834562832 S912.534302213,553.821006781 913.412408759,551.042492187 S921.392030785,520.610466075 922.171532847,523.403125227 S926.511732487,621.738628247 930.930656934,613.803706665 S932.643730052,481.9655354 939.689781022,491.946166146 S946.829421745,624.014257068 948.448905109,638.618055455 S956.816583558,651.293231507 957.208029197,649.918128134 S965.255453247,584.380310149 965.967153285,577.078470456 S973.062362056,480.781118454 974.726277372,470.185891053 S983.186456513,464.582503707 983.48540146,465.528428665 S989.980441337,531.251856523 992.244525547,525.617328658 S998.850841545,432.111904591 1001.00364964,421.931526637 S1009.47000702,440.533648387 1009.76277372,442.775579621 S1016.39109806,544.918841605 1018.52189781,556.081713787 S1026.66718371,536.79244859 1027.2810219,534.550494222 S1035.46831332,496.395570202 1036.04014599,492.098869831 S1037.76403367,397.370005615 1044.79927007,402.919917872 S1049.91920892,515.593817769 1053.55839416,505.918553311 S1061.21725424,371.287791796 1062.31751825,356.345293989 S1068.47654173,259.518301309 1071.07664234,268.006212297 S1078.23879618,399.041555715 1079.83576642,413.53282397 S1088.24772753,428.536787349 1088.59489051,426.970748238 S1096.15407266,343.718429617 1097.3540146,334.508667054 S1104.7064559,296.567685975 1106.11313869,292.515153718 S1114.03003449,283.159111377 1114.87226277,284.040099208 S1122.35294917,313.352552299 1123.63138686,310.839595901 S1128.94430546,254.742259264 1132.39051095,249.605418272 S1139.60169508,281.455179886 1141.14963504,284.72726579 S1149.63168264,285.783485639 1149.90875912,286.63606185 S1155.23133709,342.630766741 1158.66788321,338.631666546 S1166.38888703,273.466795872 1167.4270073,266.250119922 S1174.33785992,212.186320767 1176.18613139,216.850477869 S1182.27320946,301.443915849 1184.94525547,310.457836689 S1192.81647667,279.394841734 1193.70437956,275.94680391 S1201.79572108,245.827780302 1202.46350365,242.428345083 S1210.66785625,192.375022013 1211.22262774,186.767851951 S1218.56302744,77.4569566582 1219.98175182,65.3684224871 S1227.8649635,40.2868422487 1228.74087591,37.5 L1237.5,1612.5 L37.5,1612.5 L37.5,840.034215786" /></svg>