<?xml version="1.0" encoding="utf-8" ?>
<svg baseProfile="full" height="792.0" version="1.1" width="612.0" xmlns="http://www.w3.org/2000/svg" xmlns:ev="http://www.w3.org/2001/xml-events" xmlns:xlink="http://www.w3.org/1999/xlink"><defs><pattern height="48" id="diagonal" patternUnits="userSpaceOnUse" width="48"><path d="M0,0 l48,48 M-12.0,36.0 l24.0,24.0 M36.0,-12.0 l24.0,24.0" stroke="#A92D2D" stroke-width="12" /></pattern><pattern height="24" id="dot" patternUnits="userSpaceOnUse" width="24"><path d="M0,0 L0,4 L4,0 Z M24,0 L24,4 L20,0 Z M0,24 L4,24 L0,20 Z M24,24 L20,24 L24,20 Z M12,8 L8,12 L12,16 L16,12 Z" fill="#000000" /></pattern></defs><path d="M25.7153864286,507.527591931 C25.8716864683,507.782308178 27.1363868396,509.811797993 27.2783868253,510.074754402 S29.8147976515,515.044351287 30.0776977133,515.605745633 S33.287844718,522.875698603 33.6501517576,523.680961961 S37.1640296387,531.491517932 37.6045246437,532.334865595 S41.2162022224,538.486742181 41.7077437486,539.107587236 S45.3862339996,542.467846114 45.8566664139,542.757792528 S49.6078773674,544.062523554 50.016628893,544.228687274 S53.819768782,545.856271411 54.1786861314,546.140820295 S57.985869012,550.31168546 58.3410218978,550.828247729 S62.0890633167,557.505729491 62.5033576642,558.248876814 S66.1666969625,565.061810096 66.6656934307,565.760764678 S70.2686459144,569.729265726 70.8280291971,569.909414883 S74.6814343678,568.756925641 74.9903649635,568.441721723 S78.7967746888,562.150692473 79.1527007299,561.415697803 S82.8932697148,552.265278184 83.3150364964,551.251102044 S87.0081391834,542.359449179 87.4773722628,541.398276789 S91.1443312471,534.866878386 91.6397080292,534.198927374 S95.2940336897,530.451415378 95.8020437956,530.173542457 S99.5841411998,529.468109767 99.964379562,529.645473097 S103.829486933,533.527945262 104.126715328,534.056610572 S107.934271902,543.390051582 108.289051095,544.452150764 S112.030458242,557.526860988 112.451386861,558.978102615 S116.135859717,571.755297703 116.613722628,573.153239985 S120.28157311,582.348977938 120.776058394,583.331133676 S124.503648703,589.06469724 124.938394161,589.687855218 S128.713369973,594.68559301 129.100729927,595.26359988 S132.847491015,601.424671492 133.263065693,602.109679636 S136.929388016,608.353038481 137.42540146,608.985484511 S141.041253479,612.604204442 141.587737226,612.724120703 S145.460839774,611.167362685 145.750072993,610.812187487 S149.581751042,603.370186523 149.912408759,602.501516005 S153.684116667,590.305955972 154.074744526,588.942452264 S157.782089861,574.982809188 158.237080292,573.443884163 S161.865028484,562.006360732 162.399416058,560.785716475 S165.981297034,554.919071467 166.561751825,554.428729248 S170.302859283,553.733971927 170.724087591,553.753406662 S174.457441614,554.791636839 174.886423358,554.812814979 S178.657913707,554.321528433 179.048759124,554.164382325 S182.800482321,551.744080381 183.211094891,551.465737923 S186.929981438,548.772919215 187.373430657,548.521326787 S191.107053065,546.88793151 191.535766423,546.742707111 S195.295036246,545.848465172 195.69810219,545.701388017 S199.485327566,543.974131863 199.860437956,543.705067681 S203.62691278,540.147940887 204.022773723,539.730156634 S207.725616299,535.359311912 208.185109489,534.91936465 S211.866374203,531.963713193 212.347445255,531.759600106 S216.092261274,531.369586863 216.509781022,531.387299276 S220.249637548,532.117714174 220.672116788,532.112757108 S224.447048798,531.462667557 224.834452555,531.289623611 S228.584944283,528.690066756 228.996788321,528.394326438 S232.712143939,525.573463191 233.159124088,525.311775733 S236.899448484,523.685638822 237.321459854,523.52059291 S241.103173,522.279267248 241.48379562,522.056050645 S245.304990823,519.055309943 245.646131387,518.638579063 S249.454782798,512.596735675 249.808467153,511.886788862 S253.594679184,502.940210015 253.97080292,501.928555179 S257.744910311,490.748314259 258.133138686,489.496034399 S261.899220747,476.52386562 262.295474453,475.076271395 S266.046525936,460.684813495 266.457810219,459.084340376 S270.181730628,444.316098521 270.620145985,442.681615007 S274.300295336,429.491527006 274.782481752,428.048615584 S278.371941566,418.720022117 278.944817518,417.770578018 S282.570041356,414.159305394 283.107153285,414.251893566 S286.999462201,418.617611407 287.269489051,419.205597567 S291.076734561,431.043833482 291.431824818,432.378948889 S295.176056866,448.693546161 295.594160584,450.505800921 S299.283810433,466.68033895 299.75649635,468.461922966 S303.383857083,480.582782438 303.918832117,481.882030259 S307.482301376,488.153367647 308.081167883,488.679336264 S311.841630221,489.313329274 312.24350365,489.193369132 S315.968758031,486.463006934 316.405839416,486.194402668 S320.101422367,484.091806959 320.568175182,484.077520311 S324.369068471,485.661597973 324.730510949,485.939596156 S328.412360314,490.094878233 328.892846715,490.480319387 S332.60470536,492.744046531 333.055182482,492.617560388 S336.91931931,488.676332357 337.217518248,488.142896358 S340.984784859,478.775802463 341.379854015,477.725892756 S345.071618983,467.169642275 345.542189781,466.019798871 S349.176784473,458.184758593 349.704525547,457.384493137 S353.333174011,453.614198047 353.866861314,453.396284442 S357.680125953,453.751144312 358.02919708,453.985388137 S361.847925783,458.430368832 362.191532847,458.982546815 S365.944191289,466.521883266 366.353868613,467.363169974 S370.022061861,475.247805166 370.51620438,476.077550851 S374.112896703,480.980531489 374.678540146,481.341647901 S378.463452061,481.567739616 378.840875912,481.392163009 S382.615076938,477.88916464 383.003211679,477.46903207 S386.720421918,472.864913551 387.165547445,472.381205536 S390.867146475,468.765815637 391.327883212,468.422796595 S395.054232099,466.365991681 395.490218978,466.183477795 S399.23047578,465.040928192 399.652554745,464.937902374 S403.394689569,464.205031549 403.814890511,464.151497603 S407.562856798,463.925290581 407.977226277,463.87733236 S411.768902568,463.389546118 412.139562044,463.188018248 S416.001629024,459.831097932 416.30189781,459.3512014 S420.12833562,450.861511082 420.464233577,449.883335313 S424.237404407,436.593562471 424.626569343,435.108743762 S428.353896246,419.815431718 428.788905109,418.121408957 S432.473435807,404.215733223 432.951240876,402.690592702 S436.586949828,392.615684786 437.113576642,391.549288425 S440.719847738,386.270239491 441.275912409,385.833495439 S445.017146895,384.959061122 445.438248175,385.010928842 S449.168544859,386.714841002 449.600583942,386.858858587 S453.355103531,387.910528784 453.762919708,387.785907169 S457.621878055,384.764076383 457.925255474,384.314982022 S461.722193185,376.370152608 462.087591241,375.462765097 S465.818017574,364.818844155 466.249927007,363.642450041 S469.921504219,353.842576414 470.412262774,352.788811165 S474.033590771,346.378749876 474.57459854,345.767571462 S478.263471609,343.461071505 478.736934307,343.384399932 S482.48843014,344.296304145 482.899270073,344.419491326 S486.620527684,345.887239361 487.061605839,345.88048839 S490.904715168,344.602842924 491.223941606,344.292077136 S495.052059997,338.473647154 495.386277372,337.776450605 S499.163484764,328.022774477 499.548613139,326.926336475 S503.280134981,315.356756006 503.710948905,314.076596688 S507.402373484,303.357769576 507.873284672,302.189657284 S511.557633207,294.271120696 512.035620438,293.426946813 S515.775226541,288.076788382 516.197956204,287.487443851 S519.983759355,282.414934815 520.360291971,281.821185344 S524.132765685,275.120569589 524.522627737,274.36037568 S528.252786501,266.458273968 528.684963504,265.588867897 S532.375406903,258.379615679 532.84729927,257.61371881 S536.519168665,252.566705258 537.009635036,252.077651543 S540.712034129,249.508319641 541.171970803,249.313024258 S544.914329095,248.595802199 545.334306569,248.542882503 S549.086114425,248.338191066 549.496642336,248.264065397 S553.265606345,247.222789679 553.658978102,247.039764611 S557.434234004,244.697179348 557.821035341,244.390954102 S561.612592728,240.890126862 561.98099782,240.451337185 S565.795541916,235.138959237 566.129920485,234.494638547 S569.905913951,225.574924878 570.23313959,224.550121672 S573.849586477,210.802672809 574.187512476,209.259922479 S577.431628135,192.09995339 577.75996652,190.187525206 S580.288465981,173.95259255 580.559277408,172.147165027 S581.965977765,162.209360442 582.122277805,161.105159932 Q588.061138902,149.105159932 594.0,161.105159932 L594.0,18.0 L18.0,18.0 L18.0,507.527591931 Q21.8576932143,495.527591931 25.7153864286,507.527591931" fill="url(#dot)" /><path d="M25.7153864286,537.527591931 C25.8716864683,537.782308178 27.1363868396,539.811797993 27.2783868253,540.074754402 S29.8147976515,545.044351287 30.0776977133,545.605745633 S33.287844718,552.875698603 33.6501517576,553.680961961 S37.1640296387,561.491517932 37.6045246437,562.334865595 S41.2162022224,568.486742181 41.7077437486,569.107587236 S45.3862339996,572.467846114 45.8566664139,572.757792528 S49.6078773674,574.062523554 50.016628893,574.228687274 S53.819768782,575.856271411 54.1786861314,576.140820295 S57.985869012,580.31168546 58.3410218978,580.828247729 S62.0890633167,587.505729491 62.5033576642,588.248876814 S66.1666969625,595.061810096 66.6656934307,595.760764678 S70.2686459144,599.729265726 70.8280291971,599.909414883 S74.6814343678,598.756925641 74.9903649635,598.441721723 S78.7967746888,592.150692473 79.1527007299,591.415697803 S82.8932697148,582.265278184 83.3150364964,581.251102044 S87.0081391834,572.359449179 87.4773722628,571.398276789 S91.1443312471,564.866878386 91.6397080292,564.198927374 S95.2940336897,560.451415378 95.8020437956,560.173542457 S99.5841411998,559.468109767 99.964379562,559.645473097 S103.829486933,563.527945262 104.126715328,564.056610572 S107.934271902,573.390051582 108.289051095,574.452150764 S112.030458242,587.526860988 112.451386861,588.978102615 S116.135859717,601.755297703 116.613722628,603.153239985 S120.28157311,612.348977938 120.776058394,613.331133676 S124.503648703,619.06469724 124.938394161,619.687855218 S128.713369973,624.68559301 129.100729927,625.26359988 S132.847491015,631.424671492 133.263065693,632.109679636 S136.929388016,638.353038481 137.42540146,638.985484511 S141.041253479,642.604204442 141.587737226,642.724120703 S145.460839774,641.167362685 145.750072993,640.812187487 S149.581751042,633.370186523 149.912408759,632.501516005 S153.684116667,620.305955972 154.074744526,618.942452264 S157.782089861,604.982809188 158.237080292,603.443884163 S161.865028484,592.006360732 162.399416058,590.785716475 S165.981297034,584.919071467 166.561751825,584.428729248 S170.302859283,583.733971927 170.724087591,583.753406662 S174.457441614,584.791636839 174.886423358,584.812814979 S178.657913707,584.321528433 179.048759124,584.164382325 S182.800482321,581.744080381 183.211094891,581.465737923 S186.929981438,578.772919215 187.373430657,578.521326787 S191.107053065,576.88793151 191.535766423,576.742707111 S195.295036246,575.848465172 195.69810219,575.701388017 S199.485327566,573.974131863 199.860437956,573.705067681 S203.62691278,570.147940887 204.022773723,569.730156634 S207.725616299,565.359311912 208.185109489,564.91936465 S211.866374203,561.963713193 212.347445255,561.759600106 S216.092261274,561.369586863 216.509781022,561.387299276 S220.249637548,562.117714174 220.672116788,562.112757108 S224.447048798,561.462667557 224.834452555,561.289623611 S228.584944283,558.690066756 228.996788321,558.394326438 S232.712143939,555.573463191 233.159124088,555.311775733 S236.899448484,553.685638822 237.321459854,553.52059291 S241.103173,552.279267248 241.48379562,552.056050645 S245.304990823,549.055309943 245.646131387,548.638579063 S249.454782798,542.596735675 249.808467153,541.886788862 S253.594679184,532.940210015 253.97080292,531.928555179 S257.744910311,520.748314259 258.133138686,519.496034399 S261.899220747,506.52386562 262.295474453,505.076271395 S266.046525936,490.684813495 266.457810219,489.084340376 S270.181730628,474.316098521 270.620145985,472.681615007 S274.300295336,459.491527006 274.782481752,458.048615584 S278.371941566,448.720022117 278.944817518,447.770578018 S282.570041356,444.159305394 283.107153285,444.251893566 S286.999462201,448.617611407 287.269489051,449.205597567 S291.076734561,461.043833482 291.431824818,462.378948889 S295.176056866,478.693546161 295.594160584,480.505800921 S299.283810433,496.68033895 299.75649635,498.461922966 S303.383857083,510.582782438 303.918832117,511.882030259 S307.482301376,518.153367647 308.081167883,518.679336264 S311.841630221,519.313329274 312.24350365,519.193369132 S315.968758031,516.463006934 316.405839416,516.194402668 S320.101422367,514.091806959 320.568175182,514.077520311 S324.369068471,515.661597973 324.730510949,515.939596156 S328.412360314,520.094878233 328.892846715,520.480319387 S332.60470536,522.744046531 333.055182482,522.617560388 S336.91931931,518.676332357 337.217518248,518.142896358 S340.984784859,508.775802463 341.379854015,507.725892756 S345.071618983,497.169642275 345.542189781,496.019798871 S349.176784473,488.184758593 349.704525547,487.384493137 S353.333174011,483.614198047 353.866861314,483.396284442 S357.680125953,483.751144312 358.02919708,483.985388137 S361.847925783,488.430368832 362.191532847,488.982546815 S365.944191289,496.521883266 366.353868613,497.363169974 S370.022061861,505.247805166 370.51620438,506.077550851 S374.112896703,510.980531489 374.678540146,511.341647901 S378.463452061,511.567739616 378.840875912,511.392163009 S382.615076938,507.88916464 383.003211679,507.46903207 S386.720421918,502.864913551 387.165547445,502.381205536 S390.867146475,498.765815637 391.327883212,498.422796595 S395.054232099,496.365991681 395.490218978,496.183477795 S399.23047578,495.040928192 399.652554745,494.937902374 S403.394689569,494.205031549 403.814890511,494.151497603 S407.562856798,493.925290581 407.977226277,493.87733236 S411.768902568,493.389546118 412.139562044,493.188018248 S416.001629024,489.831097932 416.30189781,489.3512014 S420.12833562,480.861511082 420.464233577,479.883335313 S424.237404407,466.593562471 424.626569343,465.108743762 S428.353896246,449.815431718 428.788905109,448.121408957 S432.473435807,434.215733223 432.951240876,432.690592702 S436.586949828,422.615684786 437.113576642,421.549288425 S440.719847738,416.270239491 441.275912409,415.833495439 S445.017146895,414.959061122 445.438248175,415.010928842 S449.168544859,416.714841002 449.600583942,416.858858587 S453.355103531,417.910528784 453.762919708,417.785907169 S457.621878055,414.764076383 457.925255474,414.314982022 S461.722193185,406.370152608 462.087591241,405.462765097 S465.818017574,394.818844155 466.249927007,393.642450041 S469.921504219,383.842576414 470.412262774,382.788811165 S474.033590771,376.378749876 474.57459854,375.767571462 S478.263471609,373.461071505 478.736934307,373.384399932 S482.48843014,374.296304145 482.899270073,374.419491326 S486.620527684,375.887239361 487.061605839,375.88048839 S490.904715168,374.602842924 491.223941606,374.292077136 S495.052059997,368.473647154 495.386277372,367.776450605 S499.163484764,358.022774477 499.548613139,356.926336475 S503.280134981,345.356756006 503.710948905,344.076596688 S507.402373484,333.357769576 507.873284672,332.189657284 S511.557633207,324.271120696 512.035620438,323.426946813 S515.775226541,318.076788382 516.197956204,317.487443851 S519.983759355,312.414934815 520.360291971,311.821185344 S524.132765685,305.120569589 524.522627737,304.36037568 S528.252786501,296.458273968 528.684963504,295.588867897 S532.375406903,288.379615679 532.84729927,287.61371881 S536.519168665,282.566705258 537.009635036,282.077651543 S540.712034129,279.508319641 541.171970803,279.313024258 S544.914329095,278.595802199 545.334306569,278.542882503 S549.086114425,278.338191066 549.496642336,278.264065397 S553.265606345,277.222789679 553.658978102,277.039764611 S557.434234004,274.697179348 557.821035341,274.390954102 S561.612592728,270.890126862 561.98099782,270.451337185 S565.795541916,265.138959237 566.129920485,264.494638547 S569.905913951,255.574924878 570.23313959,254.550121672 S573.849586477,240.802672809 574.187512476,239.259922479 S577.431628135,222.09995339 577.75996652,220.187525206 S580.288465981,203.95259255 580.559277408,202.147165027 S581.965977765,192.209360442 582.122277805,191.105159932 Q588.061138902,179.105159932 594.0,191.105159932 L594.0,774.0 L18.0,774.0 L18.0,537.527591931 Q21.8576932143,525.527591931 25.7153864286,537.527591931" fill="url(#diagonal)" /></svg>