<?xml version="1.0" encoding="utf-8" ?>
<svg baseProfile="full" height="792.0" version="1.1" width="612.0" xmlns="http://www.w3.org/2000/svg" xmlns:ev="http://www.w3.org/2001/xml-events" xmlns:xlink="http://www.w3.org/1999/xlink"><defs /><g id="labels"><text alignment-baseline="before-edge" font-size="11" text-anchor="start" x="107.0" y="115.0">1880</text><text alignment-baseline="before-edge" font-size="11" text-anchor="end" x="576.0" y="115.0">2005</text><text alignment-baseline="middle" font-size="11" text-anchor="end" x="96.0" y="148.0">-1°F</text><text alignment-baseline="middle" font-size="11" text-anchor="end" x="96.0" y="109.0">1880-1910</text><text alignment-baseline="middle" font-size="11" text-anchor="end" x="96.0" y="119.0">average</text><text alignment-baseline="middle" font-size="11" text-anchor="end" x="96.0" y="80.0">+1°F</text><text alignment-baseline="middle" font-size="11" text-anchor="end" x="96.0" y="46.0">+2°F</text><text alignment-baseline="before-edge" font-size="16" text-anchor="start" x="116.0" y="46.0">Observed land and ocean temperature (1880 - 2005)</text><text alignment-baseline="before-edge" font-size="16" text-anchor="start" x="116.0" y="198.0">Earth's orbital changes</text><text alignment-baseline="before-edge" font-size="16" text-anchor="start" x="116.0" y="350.0">Solar temperature</text><text alignment-baseline="before-edge" font-size="16" text-anchor="start" x="116.0" y="502.0">Volcanic activity</text><text alignment-baseline="before-edge" font-size="16" text-anchor="start" x="116.0" y="654.0">Greenhouse gases</text></g><g id="data"><polyline fill="none" points="106.0,110.446451613 109.76,105.550451613 113.52,107.386451613 117.28,109.222451613 121.04,114.118451613 124.8,112.894451613 128.56,112.282451613 132.32,116.566451613 136.08,109.222451613 139.84,103.102451613 143.6,117.178451613 147.36,112.894451613 151.12,115.954451613 154.88,118.402451613 158.64,116.566451613 162.4,112.282451613 166.16,107.998451613 169.92,107.998451613 173.68,115.954451613 177.44,109.222451613 181.2,106.162451613 184.96,109.222451613 188.72,115.342451613 192.48,119.014451613 196.24,123.910451613 200.0,115.342451613 203.76,112.894451613 207.52,122.686451613 211.28,123.298451613 215.04,125.746451613 218.8,125.134451613 222.56,123.910451613 226.32,122.074451613 230.08,120.850451613 233.84,111.058451613 237.6,106.774451613 241.36,119.014451613 245.12,123.910451613 248.88,115.954451613 252.64,114.730451613 256.4,113.506451613 260.16,109.222451613 263.92,114.730451613 267.68,112.894451613 271.44,111.670451613 275.2,110.446451613 278.96,103.102451613 282.72,108.610451613 286.48,106.774451613 290.24,115.954451613 294.0,104.326451613 297.76,101.266451613 301.52,103.102451613 305.28,112.282451613 309.04,102.490451613 312.8,106.162451613 316.56,103.102451613 320.32,94.5344516129 324.08,93.3104516129 327.84,96.3704516129 331.6,92.6984516129 335.36,92.0864516129 339.12,93.3104516129 342.88,93.3104516129 346.64,88.4144516129 350.4,96.3704516129 354.16,101.266451613 357.92,99.4304516129 361.68,103.102451613 365.44,103.714451613 369.2,107.998451613 372.96,100.042451613 376.72,95.7584516129 380.48,91.4744516129 384.24,103.714451613 388.0,104.326451613 391.76,107.386451613 395.52,94.5344516129 399.28,93.3104516129 403.04,94.5344516129 406.8,98.8184516129 410.56,92.6984516129 414.32,93.9224516129 418.08,91.4744516129 421.84,108.610451613 425.6,102.490451613 429.36,98.8184516129 433.12,96.9824516129 436.88,99.4304516129 440.64,92.6984516129 444.4,93.9224516129 448.16,100.042451613 451.92,95.1464516129 455.68,86.5784516129 459.44,100.654451613 463.2,96.9824516129 466.96,103.714451613 470.72,87.1904516129 474.48,93.3104516129 478.24,89.0264516129 482.0,82.2944516129 485.76,79.2344516129 489.52,90.8624516129 493.28,79.8464516129 497.04,89.0264516129 500.8,91.4744516129 504.56,87.8024516129 508.32,79.2344516129 512.08,74.9504516129 515.84,81.6824516129 519.6,72.5024516129 523.36,73.1144516129 527.12,84.7424516129 530.88,83.5184516129 534.64,79.2344516129 538.4,70.0544516129 542.16,76.7864516129 545.92,68.8304516129 549.68,59.0384516129 553.44,71.8904516129 557.2,71.8904516129 560.96,64.5464516129 564.72,59.0384516129 568.48,59.6504516129 572.24,65.1584516129 576.0,56.5904516129" stroke="#000000" stroke-width="2" /><line stroke="#000000" stroke-width="1" x1="106.0" x2="576.0" y1="114.0" y2="114.0" /><line stroke="#000000" stroke-width="1" x1="106.0" x2="106.0" y1="148.0" y2="46.0" /><line stroke="#000000" stroke-width="1" x1="101.0" x2="106.0" y1="148.0" y2="148.0" /><line stroke="#000000" stroke-width="1" x1="101.0" x2="106.0" y1="114.0" y2="114.0" /><line stroke="#000000" stroke-width="1" x1="101.0" x2="106.0" y1="80.0" y2="80.0" /><line stroke="#000000" stroke-width="1" x1="101.0" x2="106.0" y1="46.0" y2="46.0" /><line stroke="#000000" stroke-dasharray="5,2" stroke-width="1" x1="576.0" x2="576.0" y1="114.0" y2="56.5904516129" /><polyline fill="none" points="106.0,267.57430472 109.76,269.173421755 113.52,268.089814289 117.28,268.178114797 121.04,266.912761283 124.8,268.531325446 128.56,269.555649849 132.32,266.804986003 136.08,266.453173048 139.84,270.123488084 143.6,268.743540076 147.36,265.969747428 151.12,268.304551106 154.88,265.93594516 158.64,266.731226316 162.4,266.057509626 166.16,265.651200788 169.92,266.793262143 173.68,265.591830826 177.44,263.708762891 181.2,267.183094352 184.96,263.650750323 188.72,263.882220259 192.48,263.757113181 196.24,266.87489776 200.0,263.723018765 203.76,266.879654137 207.52,266.014932627 211.28,266.761095411 215.04,267.210443726 218.8,265.632831251 222.56,266.109047377 226.32,268.786424755 230.08,265.877077589 233.84,267.009780647 237.6,267.650382199 241.36,268.565870761 245.12,268.186227175 248.88,268.328423495 252.64,266.493279995 256.4,269.12666392 260.16,269.583542524 263.92,269.523569682 267.68,271.480256585 271.44,269.072334026 275.2,269.904244526 278.96,268.846076857 282.72,266.424862889 286.48,267.996344167 290.24,268.173198783 294.0,268.638260701 297.76,266.945970853 301.52,269.393802352 305.28,267.699377039 309.04,267.033797879 312.8,269.723303578 316.56,267.742225177 320.32,265.673932035 324.08,267.84500063 327.84,268.117271665 331.6,266.638346939 335.36,266.137932957 339.12,266.118145375 342.88,267.153426286 346.64,268.90264357 350.4,268.267174949 354.16,269.582119665 357.92,271.392996468 361.68,268.752696912 365.44,266.051916838 369.2,268.718244891 372.96,270.280613311 376.72,266.614980939 380.48,266.881015022 384.24,268.727244015 388.0,269.127830856 391.76,268.856114837 395.52,267.957045102 399.28,268.172741359 403.04,270.644907808 406.8,267.701295245 410.56,268.324649948 414.32,268.775874822 418.08,266.316365119 421.84,264.727018079 425.6,265.797460275 429.36,265.114080728 433.12,264.609529771 436.88,267.255744608 440.64,268.726198294 444.4,268.393914987 448.16,266.48782253 451.92,265.513934545 455.68,267.185604926 459.44,266.267175885 463.2,264.458955959 466.96,265.549362932 470.72,266.743059659 474.48,266.2722975 478.24,265.297146025 482.0,267.306752808 485.76,264.893315653 489.52,261.549297069 493.28,262.457162498 497.04,263.88498354 500.8,262.64000656 504.56,263.960960831 508.32,265.719183555 512.08,268.874676187 515.84,267.971952501 519.6,265.977425937 523.36,269.76706411 527.12,265.265811249 530.88,265.387796444 534.64,268.915055587 538.4,267.721593653 542.16,263.654154809 545.92,270.669699728 549.68,271.255288168 553.44,267.76322521 557.2,267.304181099 560.96,270.250609013 564.72,269.622844106 568.48,265.897957803 572.24,268.410757212 576.0,270.6304934" stroke="#000000" stroke-width="2" /><line stroke="#000000" stroke-width="1" x1="106.0" x2="576.0" y1="266.0" y2="266.0" /><line stroke="#000000" stroke-width="1" x1="106.0" x2="106.0" y1="300.0" y2="198.0" /><line stroke="#000000" stroke-width="1" x1="101.0" x2="106.0" y1="300.0" y2="300.0" /><line stroke="#000000" stroke-width="1" x1="101.0" x2="106.0" y1="266.0" y2="266.0" /><line stroke="#000000" stroke-width="1" x1="101.0" x2="106.0" y1="232.0" y2="232.0" /><line stroke="#000000" stroke-width="1" x1="101.0" x2="106.0" y1="198.0" y2="198.0" /><line stroke="#000000" stroke-dasharray="5,2" stroke-width="1" x1="576.0" x2="576.0" y1="266.0" y2="270.6304934" /><polyline fill="none" points="106.0,421.661553076 109.76,420.561128733 113.52,418.683013084 117.28,419.449753252 121.04,417.068832853 124.8,413.526792797 128.56,416.013063647 132.32,418.599040432 136.08,419.10196785 139.84,418.595832753 143.6,420.155954018 147.36,419.272519224 151.12,419.048514022 154.88,418.574149142 158.64,417.103601883 162.4,416.115492427 166.16,417.540403372 169.92,418.472194954 173.68,418.769760004 177.44,417.126548049 181.2,419.878582877 184.96,419.187506986 188.72,418.810235044 192.48,419.242276896 196.24,419.575194116 200.0,419.106445206 203.76,422.22362058 207.52,420.399905264 211.28,419.811966043 215.04,419.521846131 218.8,417.9515849 222.56,418.156892168 226.32,420.896819546 230.08,420.706361137 233.84,419.693973738 237.6,419.758572854 241.36,421.674991162 245.12,419.750411039 248.88,418.34834956 252.64,417.276617895 256.4,418.113984546 260.16,420.423228377 263.92,419.588461171 267.68,416.014277473 271.44,418.404945836 275.2,418.629542123 278.96,416.704915569 282.72,421.178859095 286.48,418.301680679 290.24,419.789662678 294.0,418.452046468 297.76,418.346789773 301.52,420.034599814 305.28,419.162189325 309.04,420.702421203 312.8,418.333714834 316.56,416.752240678 320.32,416.992224227 324.08,418.721494557 327.84,419.284848207 331.6,417.95022833 335.36,418.906632184 339.12,419.921955388 342.88,417.819817414 346.64,419.77377179 350.4,421.819186069 354.16,420.385895074 357.92,417.855427663 361.68,419.244833016 365.44,417.432507564 369.2,415.253935716 372.96,418.640588647 376.72,415.667303352 380.48,416.331387117 384.24,419.347636715 388.0,417.60020261 391.76,411.950846184 395.52,412.869452406 399.28,415.940249833 403.04,416.939844198 406.8,418.140157003 410.56,415.189060898 414.32,415.16016488 418.08,414.70360952 421.84,417.327953375 425.6,417.296023752 429.36,416.984522492 433.12,418.513164188 436.88,415.524684897 440.64,416.6550159 444.4,417.17014497 448.16,417.324189076 451.92,416.545921155 455.68,417.25339987 459.44,418.735524329 463.2,418.169161869 466.96,419.103967051 470.72,415.771465807 474.48,419.027166808 478.24,418.635214085 482.0,417.923665908 485.76,417.894555326 489.52,418.489400438 493.28,416.842301639 497.04,415.506865503 500.8,415.774081096 504.56,417.957821293 508.32,416.247965133 512.08,415.334672453 515.84,417.192056519 519.6,417.549871803 523.36,419.034084692 527.12,416.257463639 530.88,416.346661559 534.64,417.689378314 538.4,417.497968703 542.16,415.031796341 545.92,418.629228586 549.68,415.966216145 553.44,415.316944822 557.2,417.25841684 560.96,417.174411139 564.72,416.891617662 568.48,416.721623177 572.24,416.020156986 576.0,418.359474294" stroke="#000000" stroke-width="2" /><line stroke="#000000" stroke-width="1" x1="106.0" x2="576.0" y1="418.0" y2="418.0" /><line stroke="#000000" stroke-width="1" x1="106.0" x2="106.0" y1="452.0" y2="350.0" /><line stroke="#000000" stroke-width="1" x1="101.0" x2="106.0" y1="452.0" y2="452.0" /><line stroke="#000000" stroke-width="1" x1="101.0" x2="106.0" y1="418.0" y2="418.0" /><line stroke="#000000" stroke-width="1" x1="101.0" x2="106.0" y1="384.0" y2="384.0" /><line stroke="#000000" stroke-width="1" x1="101.0" x2="106.0" y1="350.0" y2="350.0" /><line stroke="#000000" stroke-dasharray="5,2" stroke-width="1" x1="576.0" x2="576.0" y1="418.0" y2="418.359474294" /><polyline fill="none" points="106.0,571.116682144 109.76,569.276367598 113.52,569.450063734 117.28,573.450172993 121.04,593.785018402 124.8,593.820552505 128.56,586.167603563 132.32,580.285882913 136.08,577.70012649 139.84,577.148141581 143.6,575.219389893 147.36,578.189320147 151.12,577.863531363 154.88,574.796995567 158.64,572.934976001 162.4,568.733581515 166.16,569.393481249 169.92,568.950414089 173.68,568.811055657 177.44,571.399629812 181.2,565.675753423 184.96,567.765943106 188.72,570.498615877 192.48,581.436442235 196.24,578.016380372 200.0,574.220438905 203.76,572.265335857 207.52,573.181519141 211.28,572.897991955 215.04,568.797139266 218.8,569.886457434 222.56,567.854586265 226.32,567.327617292 230.08,572.997165983 233.84,572.326859865 237.6,569.432530349 241.36,567.260081984 245.12,570.574170072 248.88,569.272730759 252.64,570.502007402 256.4,571.377517683 260.16,567.55543807 263.92,566.894174984 267.68,565.301544548 271.44,569.774000477 275.2,567.539972627 278.96,568.146817019 282.72,568.821344522 286.48,566.183612266 290.24,568.67446086 294.0,567.717120767 297.76,570.779699332 301.52,571.968528798 305.28,571.514498688 309.04,567.959705824 312.8,570.388559969 316.56,571.084659899 320.32,569.82192707 324.08,570.676498878 327.84,570.940328379 331.6,565.411402966 335.36,569.796338642 339.12,570.966018047 342.88,567.763592908 346.64,569.919009 350.4,570.518103841 354.16,571.052976574 357.92,570.086738599 361.68,569.012080881 365.44,567.565422855 369.2,565.989756016 372.96,568.654449828 376.72,570.640868947 380.48,567.040214255 384.24,566.087688894 388.0,567.996405902 391.76,566.824364974 395.52,566.393726989 399.28,564.145851156 403.04,564.544269861 406.8,567.779980522 410.56,572.183728354 414.32,571.84159527 418.08,576.201469998 421.84,582.185121792 425.6,581.539859936 429.36,581.682037292 433.12,577.705488588 436.88,576.367375612 440.64,575.961070083 444.4,576.769767433 448.16,570.152232962 451.92,569.28525459 455.68,568.075000997 459.44,570.013185715 463.2,572.427925822 466.96,574.117289583 470.72,568.884228207 474.48,570.171440875 478.24,568.756795119 482.0,569.024055886 485.76,570.96131745 489.52,575.099748448 493.28,587.856599822 497.04,583.607168496 500.8,577.167608739 504.56,573.383880544 508.32,572.798831009 512.08,571.532291931 515.84,570.471388673 519.6,567.331104001 523.36,573.324978875 527.12,592.44509286 530.88,588.033480835 534.64,581.164668951 538.4,574.078867975 542.16,569.231533737 545.92,567.899280013 549.68,565.775676191 553.44,566.071571208 557.2,567.637821349 560.96,567.543175482 564.72,567.221342951 568.48,566.56118613 572.24,565.411537672 576.0,565.182732456" stroke="#000000" stroke-width="2" /><line stroke="#000000" stroke-width="1" x1="106.0" x2="576.0" y1="570.0" y2="570.0" /><line stroke="#000000" stroke-width="1" x1="106.0" x2="106.0" y1="604.0" y2="502.0" /><line stroke="#000000" stroke-width="1" x1="101.0" x2="106.0" y1="604.0" y2="604.0" /><line stroke="#000000" stroke-width="1" x1="101.0" x2="106.0" y1="570.0" y2="570.0" /><line stroke="#000000" stroke-width="1" x1="101.0" x2="106.0" y1="536.0" y2="536.0" /><line stroke="#000000" stroke-width="1" x1="101.0" x2="106.0" y1="502.0" y2="502.0" /><line stroke="#000000" stroke-dasharray="5,2" stroke-width="1" x1="576.0" x2="576.0" y1="570.0" y2="565.182732456" /><polyline fill="none" points="106.0,719.126525883 109.76,719.962440369 113.52,722.375346914 117.28,719.480969514 121.04,720.228599759 124.8,720.998149286 128.56,719.137798623 132.32,716.583094886 136.08,718.786802487 139.84,721.511933055 143.6,722.464031131 147.36,719.51292142 151.12,718.020647387 154.88,719.503244927 158.64,717.318930965 162.4,716.304455247 166.16,717.123861965 169.92,718.309084376 173.68,719.809259617 177.44,717.207623737 181.2,717.249983885 184.96,719.087007149 188.72,713.712141893 192.48,718.270721982 196.24,715.197136186 200.0,712.771998392 203.76,715.597789304 207.52,713.155813396 211.28,716.222515278 215.04,717.231625531 218.8,715.50988 222.56,715.105314325 226.32,713.5213227 230.08,710.84084171 233.84,714.156968756 237.6,713.012790437 241.36,715.144709815 245.12,715.173328592 248.88,713.064171533 252.64,711.170335595 256.4,714.179544144 260.16,712.601294011 263.92,711.99346525 267.68,710.814712761 271.44,711.955700977 275.2,710.335646421 278.96,708.377012968 282.72,709.856120446 286.48,710.504432199 290.24,704.103532442 294.0,708.950710624 297.76,709.070960604 301.52,705.513885248 305.28,703.704362627 309.04,706.096949089 312.8,707.082713737 316.56,704.453784668 320.32,705.175623174 324.08,703.687166407 327.84,705.55498006 331.6,706.013459644 335.36,703.251956297 339.12,702.918870824 342.88,701.615285634 346.64,702.447808393 350.4,703.909482234 354.16,700.925611862 357.92,697.299674728 361.68,701.34547237 365.44,700.430238782 369.2,702.807584848 372.96,704.055642091 376.72,700.350819494 380.48,702.090706039 384.24,699.139085116 388.0,702.53324837 391.76,702.157708438 395.52,697.490076046 399.28,698.599489567 403.04,699.855072171 406.8,695.30310462 410.56,696.517778194 414.32,694.307628103 418.08,694.312531275 421.84,692.898111841 425.6,696.190206216 429.36,695.576487737 433.12,693.293830277 436.88,690.423887992 440.64,687.493776579 444.4,687.252493111 448.16,683.423932293 451.92,681.90832469 455.68,683.372322632 459.44,682.718567025 463.2,683.515482057 466.96,680.832373593 470.72,680.621529393 474.48,680.495855266 478.24,676.835941687 482.0,679.17076494 485.76,676.690235853 489.52,675.337674186 493.28,674.95184812 497.04,674.963602643 500.8,672.104876547 504.56,671.36243263 508.32,671.69498613 512.08,666.602919687 515.84,668.541562536 519.6,666.382961432 523.36,667.416490014 527.12,664.238365395 530.88,662.502378698 534.64,660.554409701 538.4,660.88651591 542.16,662.109806365 545.92,660.059425434 549.68,659.576276949 553.44,660.2105771 557.2,657.693321985 560.96,655.089358253 564.72,652.493437877 568.48,652.477100039 572.24,651.227402593 576.0,648.988571871" stroke="#000000" stroke-width="2" /><line stroke="#000000" stroke-width="1" x1="106.0" x2="576.0" y1="722.0" y2="722.0" /><line stroke="#000000" stroke-width="1" x1="106.0" x2="106.0" y1="756.0" y2="654.0" /><line stroke="#000000" stroke-width="1" x1="101.0" x2="106.0" y1="756.0" y2="756.0" /><line stroke="#000000" stroke-width="1" x1="101.0" x2="106.0" y1="722.0" y2="722.0" /><line stroke="#000000" stroke-width="1" x1="101.0" x2="106.0" y1="688.0" y2="688.0" /><line stroke="#000000" stroke-width="1" x1="101.0" x2="106.0" y1="654.0" y2="654.0" /><line stroke="#000000" stroke-dasharray="5,2" stroke-width="1" x1="576.0" x2="576.0" y1="722.0" y2="648.988571871" /></g><rect fill="none" height="720.0" stroke="#000000" stroke-width="1" width="540.0" x="36.0" y="36.0" /></svg>