<?xml version="1.0" encoding="utf-8" ?>
<svg baseProfile="full" height="792.0" version="1.1" width="612.0" xmlns="http://www.w3.org/2000/svg" xmlns:ev="http://www.w3.org/2001/xml-events" xmlns:xlink="http://www.w3.org/1999/xlink"><defs /><g id="labels"><text alignment-baseline="middle" font-size="11" text-anchor="end" x="96.0" y="146.0">-1°F</text><text alignment-baseline="middle" font-size="11" text-anchor="end" x="96.0" y="107.666666667">1880-1910</text><text alignment-baseline="middle" font-size="11" text-anchor="end" x="96.0" y="117.666666667">average</text><text alignment-baseline="middle" font-size="11" text-anchor="end" x="96.0" y="79.3333333333">+1°F</text><text alignment-baseline="middle" font-size="11" text-anchor="end" x="96.0" y="46.0">+2°F</text><text alignment-baseline="before-edge" font-size="14" text-anchor="start" x="116.0" y="46.0">Observed global land and ocean temperature (1880 - 2005)</text><text alignment-baseline="middle" font-size="11" text-anchor="end" x="96.0" y="296.0">-1°F</text><text alignment-baseline="middle" font-size="11" text-anchor="end" x="96.0" y="229.333333333">+1°F</text><text alignment-baseline="middle" font-size="11" text-anchor="end" x="96.0" y="196.0">+2°F</text><text alignment-baseline="before-edge" font-size="14" text-anchor="start" x="116.0" y="196.0">Effect of Earth's orbital changes on global temperature</text><text alignment-baseline="middle" font-size="11" text-anchor="end" x="96.0" y="446.0">-1°F</text><text alignment-baseline="middle" font-size="11" text-anchor="end" x="96.0" y="379.333333333">+1°F</text><text alignment-baseline="middle" font-size="11" text-anchor="end" x="96.0" y="346.0">+2°F</text><text alignment-baseline="before-edge" font-size="14" text-anchor="start" x="116.0" y="346.0">Effect of solar temperature variation on global temperature</text><text alignment-baseline="middle" font-size="11" text-anchor="end" x="96.0" y="596.0">-1°F</text><text alignment-baseline="middle" font-size="11" text-anchor="end" x="96.0" y="529.333333333">+1°F</text><text alignment-baseline="middle" font-size="11" text-anchor="end" x="96.0" y="496.0">+2°F</text><text alignment-baseline="before-edge" font-size="14" text-anchor="start" x="116.0" y="496.0">Effect of volcanic activity on global temperature</text><text alignment-baseline="middle" font-size="11" text-anchor="end" x="96.0" y="746.0">-1°F</text><text alignment-baseline="middle" font-size="11" text-anchor="end" x="96.0" y="679.333333333">+1°F</text><text alignment-baseline="middle" font-size="11" text-anchor="end" x="96.0" y="646.0">+2°F</text><text alignment-baseline="before-edge" font-size="14" text-anchor="start" x="116.0" y="646.0">Effect of greenhouse gases on global temperature</text></g><g id="data"><polyline fill="none" points="106.0,109.182795699 109.76,104.382795699 113.52,106.182795699 117.28,107.982795699 121.04,112.782795699 124.8,111.582795699 128.56,110.982795699 132.32,115.182795699 136.08,107.982795699 139.84,101.982795699 143.6,115.782795699 147.36,111.582795699 151.12,114.582795699 154.88,116.982795699 158.64,115.182795699 162.4,110.982795699 166.16,106.782795699 169.92,106.782795699 173.68,114.582795699 177.44,107.982795699 181.2,104.982795699 184.96,107.982795699 188.72,113.982795699 192.48,117.582795699 196.24,122.382795699 200.0,113.982795699 203.76,111.582795699 207.52,121.182795699 211.28,121.782795699 215.04,124.182795699 218.8,123.582795699 222.56,122.382795699 226.32,120.582795699 230.08,119.382795699 233.84,109.782795699 237.6,105.582795699 241.36,117.582795699 245.12,122.382795699 248.88,114.582795699 252.64,113.382795699 256.4,112.182795699 260.16,107.982795699 263.92,113.382795699 267.68,111.582795699 271.44,110.382795699 275.2,109.182795699 278.96,101.982795699 282.72,107.382795699 286.48,105.582795699 290.24,114.582795699 294.0,103.182795699 297.76,100.182795699 301.52,101.982795699 305.28,110.982795699 309.04,101.382795699 312.8,104.982795699 316.56,101.982795699 320.32,93.5827956989 324.08,92.3827956989 327.84,95.3827956989 331.6,91.7827956989 335.36,91.1827956989 339.12,92.3827956989 342.88,92.3827956989 346.64,87.5827956989 350.4,95.3827956989 354.16,100.182795699 357.92,98.3827956989 361.68,101.982795699 365.44,102.582795699 369.2,106.782795699 372.96,98.9827956989 376.72,94.7827956989 380.48,90.5827956989 384.24,102.582795699 388.0,103.182795699 391.76,106.182795699 395.52,93.5827956989 399.28,92.3827956989 403.04,93.5827956989 406.8,97.7827956989 410.56,91.7827956989 414.32,92.9827956989 418.08,90.5827956989 421.84,107.382795699 425.6,101.382795699 429.36,97.7827956989 433.12,95.9827956989 436.88,98.3827956989 440.64,91.7827956989 444.4,92.9827956989 448.16,98.9827956989 451.92,94.1827956989 455.68,85.7827956989 459.44,99.5827956989 463.2,95.9827956989 466.96,102.582795699 470.72,86.3827956989 474.48,92.3827956989 478.24,88.1827956989 482.0,81.5827956989 485.76,78.5827956989 489.52,89.9827956989 493.28,79.1827956989 497.04,88.1827956989 500.8,90.5827956989 504.56,86.9827956989 508.32,78.5827956989 512.08,74.3827956989 515.84,80.9827956989 519.6,71.9827956989 523.36,72.5827956989 527.12,83.9827956989 530.88,82.7827956989 534.64,78.5827956989 538.4,69.5827956989 542.16,76.1827956989 545.92,68.3827956989 549.68,58.7827956989 553.44,71.3827956989 557.2,71.3827956989 560.96,64.1827956989 564.72,58.7827956989 568.48,59.3827956989 572.24,64.7827956989 576.0,56.3827956989" stroke="#000000" stroke-width="2" /><line stroke="#000000" stroke-width="1" x1="106.0" x2="576.0" y1="112.666666667" y2="112.666666667" /><line stroke="#000000" stroke-width="1" x1="106.0" x2="106.0" y1="146.0" y2="46.0" /><line stroke="#000000" stroke-width="1" x1="101.0" x2="106.0" y1="146.0" y2="146.0" /><line stroke="#000000" stroke-width="1" x1="101.0" x2="106.0" y1="112.666666667" y2="112.666666667" /><line stroke="#000000" stroke-width="1" x1="101.0" x2="106.0" y1="79.3333333333" y2="79.3333333333" /><line stroke="#000000" stroke-width="1" x1="101.0" x2="106.0" y1="46.0" y2="46.0" /><line stroke="#000000" stroke-dasharray="5,2" stroke-width="1" x1="576.0" x2="576.0" y1="112.666666667" y2="56.3827956989" /><polyline fill="none" points="106.0,264.210102667 109.76,265.777864466 113.52,264.715504205 117.28,264.80207333 121.04,263.56153067 124.8,265.148358281 128.56,266.152597891 132.32,263.455868631 136.08,263.110953969 139.84,266.709302043 143.6,265.356411839 147.36,262.637007283 151.12,264.926030496 154.88,262.603867804 158.64,263.383555211 162.4,262.723048652 166.16,262.324706654 169.92,263.44437465 173.68,262.26650081 177.44,260.420355775 181.2,263.82656309 184.96,260.363480709 188.72,260.590412018 192.48,260.46775802 196.24,263.524409569 200.0,260.434332123 203.76,263.529072683 207.52,262.681306497 211.28,263.412838639 215.04,263.853376202 218.8,262.306697305 222.56,262.773575859 226.32,265.398455643 230.08,262.546154499 233.84,263.656647693 237.6,264.284688431 241.36,265.182226236 245.12,264.810026642 248.88,264.949434799 252.64,263.150274505 256.4,265.732023451 260.16,266.179943651 263.92,266.121146747 267.68,268.03946724 271.44,265.678758849 275.2,266.494357379 278.96,265.456938095 282.72,263.083198911 286.48,264.62386683 290.24,264.797253709 294.0,265.253196765 297.76,263.594089072 301.52,265.993923874 305.28,264.332722587 309.04,263.680193999 312.8,266.316964292 316.56,264.374730566 320.32,262.346992191 324.08,264.475490814 327.84,264.742423201 331.6,263.292496999 335.36,262.801895056 339.12,262.782495466 342.88,263.797476751 346.64,265.512395657 350.4,264.889387205 354.16,266.178548691 357.92,267.953918106 361.68,265.365389129 365.44,262.717565528 369.2,265.331612638 372.96,266.863346383 376.72,263.269589155 380.48,263.530406884 384.24,265.340435309 388.0,265.733167506 391.76,265.466779252 395.52,264.585338335 399.28,264.796805254 403.04,267.220497851 406.8,264.334603181 410.56,264.945735243 414.32,265.388112571 418.08,262.976828548 421.84,261.418645176 425.6,262.468098309 429.36,261.798118361 433.12,261.30346056 436.88,263.897788831 440.64,265.339410092 444.4,265.013642144 448.16,263.144924049 451.92,262.190131907 455.68,263.829024437 459.44,262.928603809 463.2,261.155839176 466.96,262.22486562 470.72,263.395156528 474.48,262.933625 478.24,261.977594142 482.0,263.947796871 485.76,261.581682012 489.52,258.30323242 493.28,259.193296567 497.04,260.593121117 500.8,259.372555451 504.56,260.667608658 508.32,262.391356426 512.08,265.484976654 515.84,264.599953432 519.6,262.644535233 523.36,266.359866774 527.12,261.946873773 530.88,262.066467102 534.64,265.524564301 538.4,264.354503582 542.16,260.36681844 545.92,267.244803655 549.68,267.818909969 553.44,264.395318833 557.2,263.945275587 560.96,266.833930405 564.72,266.218474614 568.48,262.566625297 572.24,265.030154129 576.0,267.206366078" stroke="#000000" stroke-width="2" /><line stroke="#000000" stroke-width="1" x1="106.0" x2="576.0" y1="262.666666667" y2="262.666666667" /><line stroke="#000000" stroke-width="1" x1="106.0" x2="106.0" y1="296.0" y2="196.0" /><line stroke="#000000" stroke-width="1" x1="101.0" x2="106.0" y1="296.0" y2="296.0" /><line stroke="#000000" stroke-width="1" x1="101.0" x2="106.0" y1="262.666666667" y2="262.666666667" /><line stroke="#000000" stroke-width="1" x1="101.0" x2="106.0" y1="229.333333333" y2="229.333333333" /><line stroke="#000000" stroke-width="1" x1="101.0" x2="106.0" y1="196.0" y2="196.0" /><line stroke="#000000" stroke-dasharray="5,2" stroke-width="1" x1="576.0" x2="576.0" y1="262.666666667" y2="267.206366078" /><polyline fill="none" points="106.0,416.256424584 109.76,415.177577189 113.52,413.336287338 117.28,414.087993385 121.04,411.753757699 124.8,408.281169409 128.56,410.71868985 132.32,413.253961208 136.08,413.747027304 139.84,413.250816424 143.6,414.780347076 147.36,413.914234533 151.12,413.69462159 154.88,413.229557982 158.64,411.787844983 162.4,410.819110223 166.16,412.216081737 169.92,413.129602896 173.68,413.421333337 177.44,411.810341224 181.2,414.508414585 184.96,413.830889202 188.72,413.461014749 192.48,413.884585192 196.24,414.210974624 200.0,413.751416869 203.76,416.807471157 207.52,415.019514965 211.28,414.443103964 215.04,414.158672678 218.8,412.619200883 222.56,412.820482517 226.32,415.506685829 230.08,415.319961899 233.84,414.327425233 237.6,414.3907577 241.36,416.269599178 245.12,414.38275592 248.88,413.008185843 252.64,411.957468525 256.4,412.778416222 260.16,415.042380761 263.92,414.223981541 267.68,410.719879876 271.44,413.063672389 275.2,413.283864827 278.96,411.396976048 282.72,415.783195191 286.48,412.962432039 290.24,414.42123792 294.0,413.109849479 297.76,413.00665664 301.52,414.661372367 305.28,413.806067965 309.04,415.316099219 312.8,412.993838072 316.56,411.443373213 320.32,411.678651203 324.08,413.374014272 327.84,413.926321772 331.6,412.617870912 335.36,413.555521749 339.12,414.550936655 342.88,412.490017073 346.64,414.405658618 350.4,416.410966734 354.16,415.005779485 357.92,412.524929081 361.68,413.887091192 365.44,412.110301533 369.2,409.97444678 372.96,413.294694752 376.72,410.379709169 380.48,411.030771683 384.24,413.987879132 388.0,412.274708441 391.76,406.73612371 395.52,407.636718045 399.28,410.647303758 403.04,411.627298234 406.8,412.804075493 410.56,409.910844018 414.32,409.882514588 418.08,409.434911294 421.84,412.007797426 425.6,411.976493875 429.36,411.671100482 433.12,413.169768812 436.88,410.239887154 440.64,411.348054804 444.4,411.853083304 448.16,412.004106937 451.92,411.241099171 455.68,411.934705755 459.44,413.38776895 463.2,412.832511637 466.96,413.748987305 470.72,410.481829223 474.48,413.673692949 478.24,413.289425574 482.0,412.591829322 485.76,412.563289535 489.52,413.146471018 493.28,411.531668274 497.04,410.22241716 500.8,410.484393231 504.56,412.625314993 508.32,410.948985425 512.08,410.053600444 515.84,411.874565215 519.6,412.225364513 523.36,413.680475188 527.12,410.958297685 530.88,411.045746626 534.64,412.362135602 538.4,412.17447912 542.16,409.75666308 545.92,413.283557437 549.68,410.672760926 553.44,410.036220414 557.2,411.939624352 560.96,411.857265823 564.72,411.580017315 568.48,411.413356056 572.24,410.725644104 576.0,413.019092445" stroke="#000000" stroke-width="2" /><line stroke="#000000" stroke-width="1" x1="106.0" x2="576.0" y1="412.666666667" y2="412.666666667" /><line stroke="#000000" stroke-width="1" x1="106.0" x2="106.0" y1="446.0" y2="346.0" /><line stroke="#000000" stroke-width="1" x1="101.0" x2="106.0" y1="446.0" y2="446.0" /><line stroke="#000000" stroke-width="1" x1="101.0" x2="106.0" y1="412.666666667" y2="412.666666667" /><line stroke="#000000" stroke-width="1" x1="101.0" x2="106.0" y1="379.333333333" y2="379.333333333" /><line stroke="#000000" stroke-width="1" x1="101.0" x2="106.0" y1="346.0" y2="346.0" /><line stroke="#000000" stroke-dasharray="5,2" stroke-width="1" x1="576.0" x2="576.0" y1="412.666666667" y2="413.019092445" /><polyline fill="none" points="106.0,563.761453082 109.76,561.957223136 113.52,562.127513465 117.28,566.049189208 121.04,585.985312159 124.8,586.020149514 128.56,578.517258395 132.32,572.750865601 136.08,570.215810284 139.84,569.674648609 143.6,567.783715581 147.36,570.695411909 151.12,570.37601114 154.88,567.369603497 158.64,565.544094119 162.4,561.425079917 166.16,562.072040441 169.92,561.637660872 173.68,561.501034958 177.44,564.038852757 181.2,558.427209238 184.96,560.47641481 188.72,563.155505761 192.48,573.878864936 196.24,570.52586311 200.0,566.804351868 203.76,564.887584174 207.52,565.78580308 211.28,565.50783525 215.04,561.487391438 218.8,562.555350425 222.56,560.563319868 226.32,560.04668362 230.08,565.605064689 233.84,564.947901829 237.6,562.110323872 241.36,559.980472533 245.12,563.229578502 248.88,561.953657607 252.64,563.158830786 256.4,564.017174199 260.16,560.270037323 263.92,559.62174018 267.68,558.060337792 271.44,562.445098507 275.2,560.254875125 278.96,560.849820607 282.72,561.511122081 286.48,558.925110065 290.24,561.367118491 294.0,560.428549772 297.76,563.431077777 301.52,564.596596861 305.28,564.151469302 309.04,560.666378259 312.8,563.047607813 316.56,563.730058725 320.32,562.492085363 324.08,563.329900861 327.84,563.588557234 331.6,558.168042123 335.36,562.466998668 339.12,563.613743183 342.88,560.474110694 346.64,562.587263726 350.4,563.174611609 354.16,563.698996641 357.92,562.751704509 361.68,561.69811851 365.44,560.279826329 369.2,558.735054918 372.96,561.347499831 376.72,563.294969556 380.48,559.764915936 384.24,558.831067543 388.0,560.702358728 391.76,559.553298994 395.52,559.131104891 399.28,556.927305055 403.04,557.317911628 406.8,560.490176982 410.56,564.807576817 414.32,564.472152225 418.08,568.746539214 421.84,574.612864502 425.6,573.980254839 429.36,574.119644404 433.12,570.221067244 436.88,568.909191776 440.64,568.510853023 444.4,569.303693562 448.16,562.815914668 451.92,561.965935872 455.68,560.779412743 459.44,562.679593838 463.2,565.0469861 466.96,566.703225081 470.72,561.572772752 474.48,562.834745956 478.24,561.447838352 482.0,561.709858712 485.76,563.609134754 489.52,567.666420047 493.28,580.17313708 497.04,576.007027937 500.8,569.693734058 504.56,565.984196611 508.32,565.410618636 512.08,564.168913658 515.84,563.128812425 519.6,560.050101962 523.36,565.926449877 527.12,584.671659667 530.88,580.346549838 534.64,573.61242054 538.4,566.665556838 542.16,561.91326837 545.92,560.607137268 549.68,558.525172736 553.44,558.81526589 557.2,560.350805244 560.96,560.258015178 564.72,559.942493089 568.48,559.29528052 572.24,558.168174189 576.0,557.943855349" stroke="#000000" stroke-width="2" /><line stroke="#000000" stroke-width="1" x1="106.0" x2="576.0" y1="562.666666667" y2="562.666666667" /><line stroke="#000000" stroke-width="1" x1="106.0" x2="106.0" y1="596.0" y2="496.0" /><line stroke="#000000" stroke-width="1" x1="101.0" x2="106.0" y1="596.0" y2="596.0" /><line stroke="#000000" stroke-width="1" x1="101.0" x2="106.0" y1="562.666666667" y2="562.666666667" /><line stroke="#000000" stroke-width="1" x1="101.0" x2="106.0" y1="529.333333333" y2="529.333333333" /><line stroke="#000000" stroke-width="1" x1="101.0" x2="106.0" y1="496.0" y2="496.0" /><line stroke="#000000" stroke-dasharray="5,2" stroke-width="1" x1="576.0" x2="576.0" y1="562.666666667" y2="557.943855349" /><polyline fill="none" points="106.0,709.84953518 109.76,710.669059185 113.52,713.034653838 117.28,710.197028935 121.04,710.929999764 124.8,711.684460085 128.56,709.860586886 132.32,707.355975379 136.08,709.516473027 139.84,712.188169662 143.6,713.121599148 147.36,710.228354333 151.12,708.765340576 154.88,710.218867576 158.64,708.077383299 162.4,707.082799262 166.16,707.886139181 169.92,709.048121938 173.68,710.518881977 177.44,707.968258566 181.2,708.009788123 184.96,709.810791322 188.72,704.541315581 192.48,709.010511747 196.24,705.997192339 200.0,703.619606267 203.76,706.389989514 207.52,703.995895486 211.28,707.002465959 215.04,707.991789736 218.8,706.303803922 222.56,705.907170907 226.32,704.354237941 230.08,701.726315402 233.84,704.977420349 237.6,703.855676899 241.36,705.945793937 245.12,705.973851561 248.88,703.906050522 252.64,702.049348623 256.4,704.999553083 260.16,703.452249031 263.92,702.85633848 267.68,701.700698785 271.44,702.819314683 275.2,701.231025903 278.96,699.310797028 282.72,700.760902398 286.48,701.396502155 290.24,695.121110238 294.0,699.87324571 297.76,699.991137847 301.52,696.503809066 305.28,694.729767281 309.04,697.075440283 312.8,698.041876213 316.56,695.464494773 320.32,696.172179582 324.08,694.712908242 327.84,696.544098098 331.6,696.993587887 335.36,694.286231664 339.12,693.959677278 342.88,692.681652582 346.64,693.497851365 350.4,694.930864935 354.16,692.005501825 357.92,688.450661498 361.68,692.417129774 365.44,691.519841943 369.2,693.850573381 372.96,695.074158912 376.72,691.441979896 380.48,693.147751019 384.24,690.254005016 388.0,693.581616049 391.76,693.213439645 395.52,688.637329457 399.28,689.724989771 403.04,690.955953108 406.8,686.493239824 410.56,687.684096269 414.32,685.517282454 418.08,685.522089486 421.84,684.135403765 425.6,687.36294727 429.36,686.761262487 433.12,684.523363017 436.88,681.70969411 440.64,678.837035862 444.4,678.600483443 448.16,674.846992444 451.92,673.361102637 455.68,674.796394737 459.44,674.155457868 463.2,674.936747115 466.96,672.30624862 470.72,672.09953862 474.48,671.976328692 478.24,668.388178125 482.0,670.67722053 485.76,668.245329268 489.52,666.919288418 493.28,666.541027568 497.04,666.552551611 500.8,663.749878967 504.56,663.021992775 508.32,663.348025617 512.08,658.355803615 515.84,660.256433859 519.6,658.140158266 523.36,659.153421582 527.12,656.037613133 530.88,654.33566539 534.64,652.425891863 538.4,652.751486186 542.16,653.950790554 545.92,651.94061317 549.68,651.466938186 553.44,652.088801079 557.2,649.620903907 560.96,647.067998287 564.72,644.522978311 568.48,644.506960823 572.24,643.281767248 576.0,641.086835168" stroke="#000000" stroke-width="2" /><line stroke="#000000" stroke-width="1" x1="106.0" x2="576.0" y1="712.666666667" y2="712.666666667" /><line stroke="#000000" stroke-width="1" x1="106.0" x2="106.0" y1="746.0" y2="646.0" /><line stroke="#000000" stroke-width="1" x1="101.0" x2="106.0" y1="746.0" y2="746.0" /><line stroke="#000000" stroke-width="1" x1="101.0" x2="106.0" y1="712.666666667" y2="712.666666667" /><line stroke="#000000" stroke-width="1" x1="101.0" x2="106.0" y1="679.333333333" y2="679.333333333" /><line stroke="#000000" stroke-width="1" x1="101.0" x2="106.0" y1="646.0" y2="646.0" /><line stroke="#000000" stroke-dasharray="5,2" stroke-width="1" x1="576.0" x2="576.0" y1="712.666666667" y2="641.086835168" /></g><rect fill="none" height="720.0" stroke="#000000" stroke-width="1" width="540.0" x="36.0" y="36.0" /></svg>