<?xml version="1.0" encoding="utf-8" ?>
<svg baseProfile="full" height="1040" version="1.1" width="940" xmlns="http://www.w3.org/2000/svg" xmlns:ev="http://www.w3.org/2001/xml-events" xmlns:xlink="http://www.w3.org/1999/xlink"><defs><path d="M37.6,0.1c-2.7-0.1-5.3,2-6,4.8l-0.2,1.4c-0.7-1-1.4-1.9-2.6-2.2L27.9,4c-3.2-0.7-6.3,1.6-7.1,4.8l-6,24.5c-0.8,3-1.7,5.3-2.6,7.1v-1c0.1-2.6-0.8-5.3-2.8-7.3c-1.8-2-4.5-3.1-7.7-2.5l0,0c-0.1,0-0.1,0-0.2,0c-0.1,0.1-0.1,0-0.2,0v0.1c0,0.1-0.1,0-0.1,0l-0.1,0.1c-0.1,0.1-0.4,0.1-0.4,0.1C0.6,30,0.6,30,0.5,30.2l-0.1,0.1C0.1,30.5,0,31,0,31.4v18.8c0,0.1,0,0.1,0,0.1c0.2,6,4.1,11.8,7.7,17.7c3.7,6,6.9,11.7,6.9,15.9v14.5c0,0.8,0.8,1.7,1.8,1.7c0.8,0,1.7-0.8,1.7-1.7V83.9c0-5.9-3.8-11.7-7.4-17.7c-1-1.4-1.8-2.9-2.6-4.4c-0.8-1.3-1.7-2.8-2.4-4.1c0,0,0.1-0.1,0-0.1c-0.6-1.3-1.1-2.6-1.6-3.8c-0.2-0.7-0.4-1.3-0.5-1.9c-0.1-0.6-0.2-1.1-0.2-1.7l0,0V32.9c1.4-0.1,2.6,0.4,3.6,1.3c1.2,1.3,1.9,3.3,1.9,5c0,0,0,0,0,0.1V50c0,0.8,0.8,1.7,1.7,1.7c1,0,1.7-0.8,1.7-1.7v-3.7c2.5-2.9,4.4-6.5,6-12.2V34l5.9-24.5c0.4-1.7,1.8-2.5,3.1-2.3l0.7,0.2c1.2,0.4,2.2,1.8,1.8,3.3l-6.3,26.8l-0.1,0.2v0.1l1.6,0.5l1.6,0.5l0.1-0.2l0.1-0.4l0.6-1.6v-0.1l7.8-30.9c0.4-1.7,1.8-2.5,3-2.2l0.8,0.1c1.3,0.4,2.2,1.8,1.8,3.5L37.9,17c0,0.2-0.1,0.2-0.1,0.4l-2.4,9.6l-2.7,11l-1.1,5.6l1.7,0.4l1.6,0.4l3.5-14.7l3.1-11.8c0.5-1.3,1.7-2,3.1-1.7c1.6,0.4,2.5,1.9,2.2,3.5L44.4,29l-4,16.7l-1.7,6.6v0.1l1.7,0.4l1.7,0.4l1.6-6.6l4-16.7c0.5-1.6,1.9-2.5,3.5-2c1.6,0.4,2.5,1.9,2,3.5l-4.7,18.5l-0.1,0.1L47.6,53v0.2v0.2c0.1,8.4-2.8,13.4-6.2,19.4l-0.1,0.5v0.4v24.6h3.3V74.2c3.3-5.9,6.2-11.6,6.3-20.5l0.1-0.2l0.6-2.9v-0.1l4.8-18.4c0.8-3.3-1.2-6.8-4.5-7.7c-1.1-0.2-2,0.2-3.1,0.6l1.1-4.7c0.8-3.3-1.3-6.8-4.7-7.7c-1-0.2-1.8,0.2-2.7,0.5L43.8,8c0.8-3.3-1.1-6.7-4.2-7.5l-0.8-0.2C38.3,0.1,38,0.1,37.6,0L37.6,0.1L37.6,0.1z" id="hand" /><path d="M37.6,0.1c-2.7-0.1-5.3,2-6,4.8l-0.2,1.4c-0.7-1-1.4-1.9-2.6-2.2L27.9,4c-3.2-0.7-6.3,1.6-7.1,4.8l-6,24.5c-0.8,3-1.7,5.3-2.6,7.1v-1c0.1-2.6-0.8-5.3-2.8-7.3c-1.8-2-4.5-3.1-7.7-2.5l0,0c-0.1,0-0.1,0-0.2,0c-0.1,0.1-0.1,0-0.2,0v0.1c0,0.1-0.1,0-0.1,0l-0.1,0.1c-0.1,0.1-0.4,0.1-0.4,0.1C0.6,30,0.6,30,0.5,30.2l-0.1,0.1C0.1,30.5,0,31,0,31.4v18.8c0,0.1,0,0.1,0,0.1c0.2,6,4.1,11.8,7.7,17.7c3.7,6,6.9,11.7,6.9,15.9v14.5c0,0.8,0.8,1.7,1.8,1.7c0.8,0,1.7-0.8,1.7-1.7l23.2,0h3.3V74.2c3.3-5.9,6.2-11.6,6.3-20.5l0.1-0.2l0.6-2.9v-0.1l4.8-18.4c0.8-3.3-1.2-6.8-4.5-7.7c-1.1-0.2-2,0.2-3.1,0.6l1.1-4.7c0.8-3.3-1.3-6.8-4.7-7.7c-1-0.2-1.8,0.2-2.7,0.5L43.8,8c0.8-3.3-1.1-6.7-4.2-7.5l-0.8-0.2C38.3,0.1,38,0.1,37.6,0L37.6,0.1L37.6,0.1z" fill="#FFFFFF" id="bg" /></defs><g id="hand48" transform="translate(120,470.2325) scale(1.85185185185, 1.85185185185) rotate(-6.04938271605)"><use xlink:href="#bg" /><use xlink:href="#hand" /></g><g id="hand47" transform="translate(186.5,470.2325) scale(1.85185185185, 1.85185185185) rotate(5.06172839506)"><use xlink:href="#bg" /><use xlink:href="#hand" /></g><g id="hand46" transform="translate(253.0,470.2325) scale(1.85185185185, 1.85185185185) rotate(-1.6049382716)"><use xlink:href="#bg" /><use xlink:href="#hand" /></g><g id="hand45" transform="translate(319.5,470.2325) scale(1.85185185185, 1.85185185185) rotate(-8.27160493827)"><use xlink:href="#bg" /><use xlink:href="#hand" /></g><g id="hand44" transform="translate(386.0,470.2325) scale(1.85185185185, 1.85185185185) rotate(8.76543209877)"><use xlink:href="#bg" /><use xlink:href="#hand" /></g><g id="hand43" transform="translate(452.5,470.2325) scale(1.85185185185, 1.85185185185) rotate(2.0987654321)"><use xlink:href="#bg" /><use xlink:href="#hand" /></g><g id="hand42" transform="translate(519.0,470.2325) scale(1.85185185185, 1.85185185185) rotate(-4.56790123457)"><use xlink:href="#bg" /><use xlink:href="#hand" /></g><g id="hand41" transform="translate(585.5,470.2325) scale(1.85185185185, 1.85185185185) rotate(6.54320987654)"><use xlink:href="#bg" /><use xlink:href="#hand" /></g><g id="hand40" transform="translate(186.5,552.279) scale(-1.85185185185, 1.85185185185) rotate(-0.123456790123)"><use xlink:href="#bg" /><use xlink:href="#hand" /></g><g id="hand39" transform="translate(253.0,552.279) scale(-1.85185185185, 1.85185185185) rotate(-6.79012345679)"><use xlink:href="#bg" /><use xlink:href="#hand" /></g><g id="hand38" transform="translate(319.5,552.279) scale(-1.85185185185, 1.85185185185) rotate(4.32098765432)"><use xlink:href="#bg" /><use xlink:href="#hand" /></g><g id="hand37" transform="translate(386.0,552.279) scale(-1.85185185185, 1.85185185185) rotate(-2.34567901235)"><use xlink:href="#bg" /><use xlink:href="#hand" /></g><g id="hand36" transform="translate(452.5,552.279) scale(-1.85185185185, 1.85185185185) rotate(-9.01234567901)"><use xlink:href="#bg" /><use xlink:href="#hand" /></g><g id="hand35" transform="translate(519.0,552.279) scale(-1.85185185185, 1.85185185185) rotate(8.02469135802)"><use xlink:href="#bg" /><use xlink:href="#hand" /></g><g id="hand34" transform="translate(585.5,552.279) scale(-1.85185185185, 1.85185185185) rotate(1.35802469136)"><use xlink:href="#bg" /><use xlink:href="#hand" /></g><g id="hand33" transform="translate(652.0,552.279) scale(-1.85185185185, 1.85185185185) rotate(-5.30864197531)"><use xlink:href="#bg" /><use xlink:href="#hand" /></g><g id="hand32" transform="translate(718.5,552.279) scale(-1.85185185185, 1.85185185185) rotate(5.8024691358)"><use xlink:href="#bg" /><use xlink:href="#hand" /></g><g id="hand31" transform="translate(785.0,552.279) scale(-1.85185185185, 1.85185185185) rotate(-0.864197530864)"><use xlink:href="#bg" /><use xlink:href="#hand" /></g><g id="hand30" transform="translate(120,634.3255) scale(1.85185185185, 1.85185185185) rotate(-7.53086419753)"><use xlink:href="#bg" /><use xlink:href="#hand" /></g><g id="hand29" transform="translate(186.5,634.3255) scale(1.85185185185, 1.85185185185) rotate(3.58024691358)"><use xlink:href="#bg" /><use xlink:href="#hand" /></g><g id="hand28" transform="translate(253.0,634.3255) scale(1.85185185185, 1.85185185185) rotate(-3.08641975309)"><use xlink:href="#bg" /><use xlink:href="#hand" /></g><g id="hand27" transform="translate(319.5,634.3255) scale(1.85185185185, 1.85185185185) rotate(-9.75308641975)"><use xlink:href="#bg" /><use xlink:href="#hand" /></g><g id="hand26" transform="translate(386.0,634.3255) scale(1.85185185185, 1.85185185185) rotate(9.25925925926)"><use xlink:href="#bg" /><use xlink:href="#hand" /></g><g id="hand25" transform="translate(452.5,634.3255) scale(1.85185185185, 1.85185185185) rotate(2.59259259259)"><use xlink:href="#bg" /><use xlink:href="#hand" /></g><g id="hand24" transform="translate(519.0,634.3255) scale(1.85185185185, 1.85185185185) rotate(-4.07407407407)"><use xlink:href="#bg" /><use xlink:href="#hand" /></g><g id="hand23" transform="translate(585.5,634.3255) scale(1.85185185185, 1.85185185185) rotate(7.03703703704)"><use xlink:href="#bg" /><use xlink:href="#hand" /></g><g id="hand22" transform="translate(652.0,634.3255) scale(1.85185185185, 1.85185185185) rotate(0.37037037037)"><use xlink:href="#bg" /><use xlink:href="#hand" /></g><g id="hand21" transform="translate(718.5,634.3255) scale(1.85185185185, 1.85185185185) rotate(-6.2962962963)"><use xlink:href="#bg" /><use xlink:href="#hand" /></g><g id="hand20" transform="translate(186.5,716.372) scale(-1.85185185185, 1.85185185185) rotate(4.81481481481)"><use xlink:href="#bg" /><use xlink:href="#hand" /></g><g id="hand19" transform="translate(253.0,716.372) scale(-1.85185185185, 1.85185185185) rotate(-1.85185185185)"><use xlink:href="#bg" /><use xlink:href="#hand" /></g><g id="hand18" transform="translate(319.5,716.372) scale(-1.85185185185, 1.85185185185) rotate(-8.51851851852)"><use xlink:href="#bg" /><use xlink:href="#hand" /></g><g id="hand17" transform="translate(386.0,716.372) scale(-1.85185185185, 1.85185185185) rotate(8.51851851852)"><use xlink:href="#bg" /><use xlink:href="#hand" /></g><g id="hand16" transform="translate(452.5,716.372) scale(-1.85185185185, 1.85185185185) rotate(1.85185185185)"><use xlink:href="#bg" /><use xlink:href="#hand" /></g><g id="hand15" transform="translate(519.0,716.372) scale(-1.85185185185, 1.85185185185) rotate(-4.81481481481)"><use xlink:href="#bg" /><use xlink:href="#hand" /></g><g id="hand14" transform="translate(585.5,716.372) scale(-1.85185185185, 1.85185185185) rotate(6.2962962963)"><use xlink:href="#bg" /><use xlink:href="#hand" /></g><g id="hand13" transform="translate(652.0,716.372) scale(-1.85185185185, 1.85185185185) rotate(-0.37037037037)"><use xlink:href="#bg" /><use xlink:href="#hand" /></g><g id="hand12" transform="translate(718.5,716.372) scale(-1.85185185185, 1.85185185185) rotate(-7.03703703704)"><use xlink:href="#bg" /><use xlink:href="#hand" /></g><g id="hand11" transform="translate(785.0,716.372) scale(-1.85185185185, 1.85185185185) rotate(4.07407407407)"><use xlink:href="#bg" /><use xlink:href="#hand" /></g><g id="hand10" transform="translate(120,798.4185) scale(1.85185185185, 1.85185185185) rotate(-2.59259259259)"><use xlink:href="#bg" /><use xlink:href="#hand" /></g><g id="hand9" transform="translate(186.5,798.4185) scale(1.85185185185, 1.85185185185) rotate(-9.25925925926)"><use xlink:href="#bg" /><use xlink:href="#hand" /></g><g id="hand8" transform="translate(253.0,798.4185) scale(1.85185185185, 1.85185185185) rotate(7.77777777778)"><use xlink:href="#bg" /><use xlink:href="#hand" /></g><g id="hand7" transform="translate(319.5,798.4185) scale(1.85185185185, 1.85185185185) rotate(1.11111111111)"><use xlink:href="#bg" /><use xlink:href="#hand" /></g><g id="hand6" transform="translate(386.0,798.4185) scale(1.85185185185, 1.85185185185) rotate(-5.55555555556)"><use xlink:href="#bg" /><use xlink:href="#hand" /></g><g id="hand5" transform="translate(452.5,798.4185) scale(1.85185185185, 1.85185185185) rotate(5.55555555556)"><use xlink:href="#bg" /><use xlink:href="#hand" /></g><g id="hand4" transform="translate(519.0,798.4185) scale(1.85185185185, 1.85185185185) rotate(-1.11111111111)"><use xlink:href="#bg" /><use xlink:href="#hand" /></g><g id="hand3" transform="translate(585.5,798.4185) scale(1.85185185185, 1.85185185185) rotate(-7.77777777778)"><use xlink:href="#bg" /><use xlink:href="#hand" /></g><g id="hand2" transform="translate(652.0,798.4185) scale(1.85185185185, 1.85185185185) rotate(3.33333333333)"><use xlink:href="#bg" /><use xlink:href="#hand" /></g><g id="hand1" transform="translate(718.5,798.4185) scale(1.85185185185, 1.85185185185) rotate(-3.33333333333)"><use xlink:href="#bg" /><use xlink:href="#hand" /></g></svg>