<?xml version="1.0" encoding="utf-8"?>
<svg version="1.1" xmlns="http://www.w3.org/2000/svg" xmlns:xlink="http://www.w3.org/1999/xlink" x="0px" y="0px"
 viewBox="0 0 56.7 100" style="enable-background:new 0 0 56.7 100;" xml:space="preserve">
<path d="M37.6,0.1c-2.7-0.1-5.3,2-6,4.8l-0.2,1.4c-0.7-1-1.4-1.9-2.6-2.2L27.9,4c-3.2-0.7-6.3,1.6-7.1,4.8l-6,24.5
c-0.8,3-1.7,5.3-2.6,7.1v-1c0.1-2.6-0.8-5.3-2.8-7.3c-1.8-2-4.5-3.1-7.7-2.5l0,0c-0.1,0-0.1,0-0.2,0c-0.1,0.1-0.1,0-0.2,0v0.1
c0,0.1-0.1,0-0.1,0l-0.1,0.1c-0.1,0.1-0.4,0.1-0.4,0.1C0.6,30,0.6,30,0.5,30.2l-0.1,0.1C0.1,30.5,0,31,0,31.4v18.8
c0,0.1,0,0.1,0,0.1c0.2,6,4.1,11.8,7.7,17.7c3.7,6,6.9,11.7,6.9,15.9v14.5c0,0.8,0.8,1.7,1.8,1.7c0.8,0,1.7-0.8,1.7-1.7l23.2,0h3.3
V74.2c3.3-5.9,6.2-11.6,6.3-20.5l0.1-0.2l0.6-2.9v-0.1l4.8-18.4c0.8-3.3-1.2-6.8-4.5-7.7c-1.1-0.2-2,0.2-3.1,0.6l1.1-4.7
c0.8-3.3-1.3-6.8-4.7-7.7c-1-0.2-1.8,0.2-2.7,0.5L43.8,8c0.8-3.3-1.1-6.7-4.2-7.5l-0.8-0.2C38.3,0.1,38,0.1,37.6,0L37.6,0.1
L37.6,0.1z"/>
</svg>
