<?xml version="1.0" encoding="utf-8" ?>
<svg baseProfile="full" height="792.0" version="1.1" width="612.0" xmlns="http://www.w3.org/2000/svg" xmlns:ev="http://www.w3.org/2001/xml-events" xmlns:xlink="http://www.w3.org/1999/xlink"><defs><pattern height="43" id="people" patternTransform="rotate(45)" patternUnits="userSpaceOnUse" width="42.6664"><path d="M 26.277,8.1590004 A 8.1590004,8.1590004 0 0 1 18.118,16.318001 8.1590004,8.1590004 0 0 1 9.9589996,8.1590004 8.1590004,8.1590004 0 0 1 18.118,0 8.1590004,8.1590004 0 0 1 26.277,8.1590004 Z" fill="none" stroke="#000000" stroke-width="1.0" transform="scale(0.4) rotate(180,18.6035,50.0)" /><path d="M8.472,95.426c0,2.524,2.05,4.574,4.574,4.574c2.529,0,4.576-2.05,4.576-4.574l0.004-38.374h2.037L19.65,95.426  c0,2.524,2.048,4.574,4.574,4.574s4.573-2.05,4.573-4.574l0.02-66.158h2.006v24.38c0,4.905,6.398,4.905,6.384,0v-24.9  c0-5.418-3.184-10.728-9.523-10.728L9.396,18.012C3.619,18.012,0,22.722,0,28.599v25.05c0,4.869,6.433,4.869,6.433,0v-24.38h2.048  L8.472,95.426z" fill="none" stroke="#000000" stroke-width="1.0" transform="scale(0.4) rotate(180,18.6035,50.0)" /><path d="M29.775,18.047c5.697,0,8.008,4.695,8.871,7.283l6.999,23.008c1.396,4.949-4.899,6.998-6.4,2.175l-6.298-21.125h-1.833  L42.03,66.966H31.973v29.296c0,4.996-7.514,4.971-7.514,0V66.774h-3.063l0.005,29.447c0,5.037-7.545,5.037-7.545,0l-0.002-29.255  H3.765l10.831-37.578h-1.694l-6.299,21.2c-1.5,4.621-7.85,2.724-6.396-2.228L7.2,25.33c0.749-2.625,3.045-7.283,8.795-7.283H29.775z  " fill="none" stroke="#000000" stroke-width="1.0" transform="translate(21.3332, 21.5) scale(0.4)" /><path d="M29.775,18.047c5.697,0,8.008,4.695,8.871,7.283l6.999,23.008c1.396,4.949-4.899,6.998-6.4,2.175l-6.298-21.125h-1.833  L42.03,66.966H31.973v29.296c0,4.996-7.514,4.971-7.514,0V66.774h-3.063l0.005,29.447c0,5.037-7.545,5.037-7.545,0l-0.002-29.255  H3.765l10.831-37.578h-1.694l-6.299,21.2c-1.5,4.621-7.85,2.724-6.396-2.228L7.2,25.33c0.749-2.625,3.045-7.283,8.795-7.283H29.775z  " fill="none" stroke="#000000" stroke-width="1.0" transform="translate(21.3332, -21.5) scale(0.4)" /><path d="m 31.088999,8.1639996 a 8.1639996,8.1639996 0 0 1 -8.164,8.1639994 A 8.1639996,8.1639996 0 0 1 14.761,8.1639996 8.1639996,8.1639996 0 0 1 22.924999,0 a 8.1639996,8.1639996 0 0 1 8.164,8.1639996 z" fill="none" stroke="#000000" stroke-width="1.0" transform="translate(21.3332, 21.5) scale(0.4)" /><path d="m 31.088999,8.1639996 a 8.1639996,8.1639996 0 0 1 -8.164,8.1639994 A 8.1639996,8.1639996 0 0 1 14.761,8.1639996 8.1639996,8.1639996 0 0 1 22.924999,0 a 8.1639996,8.1639996 0 0 1 8.164,8.1639996 z" fill="none" stroke="#000000" stroke-width="1.0" transform="translate(21.3332, -21.5) scale(0.4)" /></pattern><pattern height="43" id="corn" patternTransform="rotate(135)" patternUnits="userSpaceOnUse" width="45.6687257406"><path d="M 31.379343,0.01715347 26.035999,6.1260571e-6 C 19.902583,-0.0201047 14.923785,17.49458 14.866053,39.268169 l -0.05014,17.989182 C 13.826671,55.561824 12.749026,53.912639 11.677936,52.273644 10.02859,49.749786 8.4194683,47.138145 6.2653022,45.028712 4.4311025,43.232597 -1.9253242e-6,40.550038 -1.9253242e-6,40.550038 c 0,0 3.1522226253242,5.097352 4.4109264253242,7.812984 1.3732452,2.962719 2.498373,6.050803 3.4015747,9.188886 0.9004213,3.128447 1.5706927,6.331777 1.9996074,9.558774 0.5678104,4.272095 0.4157474,8.615095 0.7470664,12.912073 0.398956,5.175308 0.515664,10.404469 1.490907,15.502708 0.377208,1.971659 0.9474,3.908443 1.674555,5.779337 0.728576,1.87414 1.492055,3.78763 2.680277,5.40973 1.426752,1.94771 6.076942,5.07753 6.146359,5.12436 -0.02127,0.50408 -0.04326,1.07875 -0.05529,1.71403 -0.03543,1.87772 -0.0066,3.38446 0.06563,3.38589 l 11.079795,0.20931 c 0.07218,0.001 0.157964,-1.50331 0.193396,-3.38103 0.0101,-0.53492 0.01238,-1.00064 0.01215,-1.44815 0.273017,-0.20513 3.895576,-2.94154 5.350023,-4.77755 1.248559,-1.57595 2.083951,-3.45927 2.882569,-5.30469 0.797422,-1.8421 1.440308,-3.755941 1.891738,-5.711811 1.167121,-5.057764 1.481171,-10.278852 2.075309,-15.435384 0.493323,-4.281436 0.505302,-8.619352 1.234059,-12.866956 0.550478,-3.208633 1.341252,-6.384337 2.359204,-9.476517 1.021018,-3.10175 2.261985,-6.145132 3.746152,-9.053836 1.36033,-2.666215 4.702956,-7.648481 4.702956,-7.648481 0,0 -4.52925,2.513289 -6.429937,4.238896 -2.232253,2.026627 -3.938906,4.575586 -5.68238,7.035359 -1.262074,1.780666 -2.536406,3.57359 -3.685457,5.434132 L 42.34496,39.360359 C 42.402672,17.586762 37.512738,0.03719994 31.379329,0.0170969 Z" fill="none" stroke="#000000" stroke-width="1.2" transform="scale(0.341448045308) rotate(180,29.0444815,58.574065)" /><path d="M 31.379343,0.01715347 26.035999,6.1260571e-6 C 19.902583,-0.0201047 14.923785,17.49458 14.866053,39.268169 l -0.05014,17.989182 C 13.826671,55.561824 12.749026,53.912639 11.677936,52.273644 10.02859,49.749786 8.4194683,47.138145 6.2653022,45.028712 4.4311025,43.232597 -1.9253242e-6,40.550038 -1.9253242e-6,40.550038 c 0,0 3.1522226253242,5.097352 4.4109264253242,7.812984 1.3732452,2.962719 2.498373,6.050803 3.4015747,9.188886 0.9004213,3.128447 1.5706927,6.331777 1.9996074,9.558774 0.5678104,4.272095 0.4157474,8.615095 0.7470664,12.912073 0.398956,5.175308 0.515664,10.404469 1.490907,15.502708 0.377208,1.971659 0.9474,3.908443 1.674555,5.779337 0.728576,1.87414 1.492055,3.78763 2.680277,5.40973 1.426752,1.94771 6.076942,5.07753 6.146359,5.12436 -0.02127,0.50408 -0.04326,1.07875 -0.05529,1.71403 -0.03543,1.87772 -0.0066,3.38446 0.06563,3.38589 l 11.079795,0.20931 c 0.07218,0.001 0.157964,-1.50331 0.193396,-3.38103 0.0101,-0.53492 0.01238,-1.00064 0.01215,-1.44815 0.273017,-0.20513 3.895576,-2.94154 5.350023,-4.77755 1.248559,-1.57595 2.083951,-3.45927 2.882569,-5.30469 0.797422,-1.8421 1.440308,-3.755941 1.891738,-5.711811 1.167121,-5.057764 1.481171,-10.278852 2.075309,-15.435384 0.493323,-4.281436 0.505302,-8.619352 1.234059,-12.866956 0.550478,-3.208633 1.341252,-6.384337 2.359204,-9.476517 1.021018,-3.10175 2.261985,-6.145132 3.746152,-9.053836 1.36033,-2.666215 4.702956,-7.648481 4.702956,-7.648481 0,0 -4.52925,2.513289 -6.429937,4.238896 -2.232253,2.026627 -3.938906,4.575586 -5.68238,7.035359 -1.262074,1.780666 -2.536406,3.57359 -3.685457,5.434132 L 42.34496,39.360359 C 42.402672,17.586762 37.512738,0.03719994 31.379329,0.0170969 Z" fill="none" stroke="#000000" stroke-width="1.2" transform="translate(22.8343628703, 21.5) scale(0.341448045308)" /><path d="M 31.379343,0.01715347 26.035999,6.1260571e-6 C 19.902583,-0.0201047 14.923785,17.49458 14.866053,39.268169 l -0.05014,17.989182 C 13.826671,55.561824 12.749026,53.912639 11.677936,52.273644 10.02859,49.749786 8.4194683,47.138145 6.2653022,45.028712 4.4311025,43.232597 -1.9253242e-6,40.550038 -1.9253242e-6,40.550038 c 0,0 3.1522226253242,5.097352 4.4109264253242,7.812984 1.3732452,2.962719 2.498373,6.050803 3.4015747,9.188886 0.9004213,3.128447 1.5706927,6.331777 1.9996074,9.558774 0.5678104,4.272095 0.4157474,8.615095 0.7470664,12.912073 0.398956,5.175308 0.515664,10.404469 1.490907,15.502708 0.377208,1.971659 0.9474,3.908443 1.674555,5.779337 0.728576,1.87414 1.492055,3.78763 2.680277,5.40973 1.426752,1.94771 6.076942,5.07753 6.146359,5.12436 -0.02127,0.50408 -0.04326,1.07875 -0.05529,1.71403 -0.03543,1.87772 -0.0066,3.38446 0.06563,3.38589 l 11.079795,0.20931 c 0.07218,0.001 0.157964,-1.50331 0.193396,-3.38103 0.0101,-0.53492 0.01238,-1.00064 0.01215,-1.44815 0.273017,-0.20513 3.895576,-2.94154 5.350023,-4.77755 1.248559,-1.57595 2.083951,-3.45927 2.882569,-5.30469 0.797422,-1.8421 1.440308,-3.755941 1.891738,-5.711811 1.167121,-5.057764 1.481171,-10.278852 2.075309,-15.435384 0.493323,-4.281436 0.505302,-8.619352 1.234059,-12.866956 0.550478,-3.208633 1.341252,-6.384337 2.359204,-9.476517 1.021018,-3.10175 2.261985,-6.145132 3.746152,-9.053836 1.36033,-2.666215 4.702956,-7.648481 4.702956,-7.648481 0,0 -4.52925,2.513289 -6.429937,4.238896 -2.232253,2.026627 -3.938906,4.575586 -5.68238,7.035359 -1.262074,1.780666 -2.536406,3.57359 -3.685457,5.434132 L 42.34496,39.360359 C 42.402672,17.586762 37.512738,0.03719994 31.379329,0.0170969 Z" fill="none" stroke="#000000" stroke-width="1.2" transform="translate(22.8343628703, -21.5) scale(0.341448045308)" /></pattern></defs><g id="axis" /><g id="data"><polygon fill="url(#people)" points="126.0,340.871994226 51.03,369.671994226 51.03,378.0 200.97,378.0 200.97,369.671994226" stroke="#000000" stroke-width="2" /><polygon fill="url(#people)" points="306.0,162.175802278 231.03,190.975802278 231.03,378.0 380.97,378.0 380.97,190.975802278" stroke="#000000" stroke-width="2" /><polygon fill="url(#people)" points="486.0,61.2 411.03,90.0 411.03,378.0 560.97,378.0 560.97,90.0" stroke="#000000" stroke-width="2" /><polygon fill="url(#corn)" points="126.0,539.918595944 51.03,511.118595944 51.03,414.0 200.97,414.0 200.97,511.118595944" stroke="#000000" stroke-width="2" /><polygon fill="url(#corn)" points="306.0,671.479219245 231.03,642.679219245 231.03,414.0 380.97,414.0 380.97,642.679219245" stroke="#000000" stroke-width="2" /><polygon fill="url(#corn)" points="486.0,730.8 411.03,702.0 411.03,414.0 560.97,414.0 560.97,702.0" stroke="#000000" stroke-width="2" /></g><g id="labels"><text alignment-baseline="middle" font-size="20" text-anchor="middle" x="126.0" y="396.0">2020</text><text alignment-baseline="middle" font-size="20" text-anchor="middle" x="306.0" y="396.0">2050</text><text alignment-baseline="middle" font-size="20" text-anchor="middle" x="486.0" y="396.0">2080</text><text alignment-baseline="after-edge" font-size="20" text-anchor="middle" x="126.0" y="333.671994226">+ 409M people</text><text alignment-baseline="after-edge" font-size="20" text-anchor="middle" x="306.0" y="154.975802278">+ 2.4B people</text><text alignment-baseline="after-edge" font-size="20" text-anchor="middle" x="486.0" y="54.0">+ 3.5B people</text><text alignment-baseline="before-edge" font-size="20" text-anchor="middle" x="126.0" y="547.118595944">- 28M tons of corn</text><text alignment-baseline="before-edge" font-size="20" text-anchor="middle" x="306.0" y="678.679219245">- 57M tons of corn</text><text alignment-baseline="before-edge" font-size="20" text-anchor="middle" x="486.0" y="738.0">- 70M tons of corn</text></g><rect fill="none" height="720.0" stroke="#000000" stroke-width="1" width="540.0" x="36.0" y="36.0" /></svg>