<?xml version="1.0" encoding="utf-8" ?>
<svg baseProfile="full" height="1300" version="1.1" width="1000" xmlns="http://www.w3.org/2000/svg" xmlns:ev="http://www.w3.org/2001/xml-events" xmlns:xlink="http://www.w3.org/1999/xlink"><defs><pattern height="92" id="people" patternTransform="rotate(45)" patternUnits="userSpaceOnUse" width="97.3328"><path d="M 26.277,8.1590004 A 8.1590004,8.1590004 0 0 1 18.118,16.318001 8.1590004,8.1590004 0 0 1 9.9589996,8.1590004 8.1590004,8.1590004 0 0 1 18.118,0 8.1590004,8.1590004 0 0 1 26.277,8.1590004 Z" fill="none" stroke="#000000" stroke-width="1.25" transform="scale(0.8) rotate(180,18.6035,50.0)" /><path d="M8.472,95.426c0,2.524,2.05,4.574,4.574,4.574c2.529,0,4.576-2.05,4.576-4.574l0.004-38.374h2.037L19.65,95.426  c0,2.524,2.048,4.574,4.574,4.574s4.573-2.05,4.573-4.574l0.02-66.158h2.006v24.38c0,4.905,6.398,4.905,6.384,0v-24.9  c0-5.418-3.184-10.728-9.523-10.728L9.396,18.012C3.619,18.012,0,22.722,0,28.599v25.05c0,4.869,6.433,4.869,6.433,0v-24.38h2.048  L8.472,95.426z" fill="none" stroke="#000000" stroke-width="1.25" transform="scale(0.8) rotate(180,18.6035,50.0)" /><path d="M29.775,18.047c5.697,0,8.008,4.695,8.871,7.283l6.999,23.008c1.396,4.949-4.899,6.998-6.4,2.175l-6.298-21.125h-1.833  L42.03,66.966H31.973v29.296c0,4.996-7.514,4.971-7.514,0V66.774h-3.063l0.005,29.447c0,5.037-7.545,5.037-7.545,0l-0.002-29.255  H3.765l10.831-37.578h-1.694l-6.299,21.2c-1.5,4.621-7.85,2.724-6.396-2.228L7.2,25.33c0.749-2.625,3.045-7.283,8.795-7.283H29.775z  " fill="none" stroke="#000000" stroke-width="1.25" transform="translate(48.6664, 46.0) scale(0.8)" /><path d="M29.775,18.047c5.697,0,8.008,4.695,8.871,7.283l6.999,23.008c1.396,4.949-4.899,6.998-6.4,2.175l-6.298-21.125h-1.833  L42.03,66.966H31.973v29.296c0,4.996-7.514,4.971-7.514,0V66.774h-3.063l0.005,29.447c0,5.037-7.545,5.037-7.545,0l-0.002-29.255  H3.765l10.831-37.578h-1.694l-6.299,21.2c-1.5,4.621-7.85,2.724-6.396-2.228L7.2,25.33c0.749-2.625,3.045-7.283,8.795-7.283H29.775z  " fill="none" stroke="#000000" stroke-width="1.25" transform="translate(48.6664, -46.0) scale(0.8)" /><path d="m 31.088999,8.1639996 a 8.1639996,8.1639996 0 0 1 -8.164,8.1639994 A 8.1639996,8.1639996 0 0 1 14.761,8.1639996 8.1639996,8.1639996 0 0 1 22.924999,0 a 8.1639996,8.1639996 0 0 1 8.164,8.1639996 z" fill="none" stroke="#000000" stroke-width="1.25" transform="translate(48.6664, 46.0) scale(0.8)" /><path d="m 31.088999,8.1639996 a 8.1639996,8.1639996 0 0 1 -8.164,8.1639994 A 8.1639996,8.1639996 0 0 1 14.761,8.1639996 8.1639996,8.1639996 0 0 1 22.924999,0 a 8.1639996,8.1639996 0 0 1 8.164,8.1639996 z" fill="none" stroke="#000000" stroke-width="1.25" transform="translate(48.6664, -46.0) scale(0.8)" /></pattern><pattern height="88" id="corn" patternTransform="rotate(135)" patternUnits="userSpaceOnUse" width="114.427581793"><path d="m 44.6,30.6 c -10.9,0.6 -12.1,12.7 -13.1,23.3 -0.9,9.6 -1.8,18.6 -9.2,18.6 -7.1,0 -8.1,-9 -9.1,-18.6 C 12,43.3 10.7,31.2 0,30.6 c 1.1,-1.2 4.3,-3.8 7.9,-3.8 2.2,0 4.3,0.9 6.1,2.8 3.4,3.5 6,10.1 7.6,19.7 l 0.6,3.3 0.6,-3.3 c 1.6,-9.6 4.2,-16.2 7.6,-19.7 1.8,-1.9 3.9,-2.8 6.1,-2.8 3.8,0 6.9,2.5 8.1,3.8 z" fill="none" stroke="#000000" stroke-width="0.90625" transform="scale(1.10344827586) rotate(180,22.299999,36.25)" /><path d="m 44.6,30.6 c -10.9,0.6 -12.1,12.7 -13.1,23.3 -0.9,9.6 -1.8,18.6 -9.2,18.6 -7.1,0 -8.1,-9 -9.1,-18.6 C 12,43.3 10.7,31.2 0,30.6 c 1.1,-1.2 4.3,-3.8 7.9,-3.8 2.2,0 4.3,0.9 6.1,2.8 3.4,3.5 6,10.1 7.6,19.7 l 0.6,3.3 0.6,-3.3 c 1.6,-9.6 4.2,-16.2 7.6,-19.7 1.8,-1.9 3.9,-2.8 6.1,-2.8 3.8,0 6.9,2.5 8.1,3.8 z" fill="none" stroke="#000000" stroke-width="0.90625" transform="translate(57.2137908966, 44.0) scale(1.10344827586)" /><path d="m 44.6,30.6 c -10.9,0.6 -12.1,12.7 -13.1,23.3 -0.9,9.6 -1.8,18.6 -9.2,18.6 -7.1,0 -8.1,-9 -9.1,-18.6 C 12,43.3 10.7,31.2 0,30.6 c 1.1,-1.2 4.3,-3.8 7.9,-3.8 2.2,0 4.3,0.9 6.1,2.8 3.4,3.5 6,10.1 7.6,19.7 l 0.6,3.3 0.6,-3.3 c 1.6,-9.6 4.2,-16.2 7.6,-19.7 1.8,-1.9 3.9,-2.8 6.1,-2.8 3.8,0 6.9,2.5 8.1,3.8 z" fill="none" stroke="#000000" stroke-width="0.90625" transform="translate(57.2137908966, -44.0) scale(1.10344827586)" /><path d="m 29.5,29 c 0,0 -0.1,0.1 0,0 -0.3,0.3 -0.5,0.6 -0.7,0.8 -0.1,0.1 -0.2,0.2 -0.2,0.3 -0.1,0.1 -0.2,0.2 -0.3,0.4 l 0,0 c -0.1,0.1 -0.2,0.3 -0.3,0.4 -0.2,0.2 -0.3,0.4 -0.5,0.7 -0.1,0.1 -0.1,0.2 -0.2,0.3 -0.1,0.2 -0.3,0.5 -0.4,0.7 -0.1,0.1 -0.2,0.3 -0.2,0.4 l 0,0 c -0.1,0.2 -0.2,0.3 -0.3,0.5 -0.1,0.2 -0.2,0.3 -0.2,0.5 -0.1,0.1 -0.1,0.3 -0.2,0.4 -0.2,0.4 -0.3,0.8 -0.5,1.1 -0.1,0.2 -0.2,0.4 -0.2,0.5 0,0.1 -0.1,0.2 -0.1,0.3 -0.1,0.1 -0.1,0.3 -0.2,0.4 -0.1,0.3 -0.3,0.7 -0.4,1 -0.1,0.2 -0.1,0.4 -0.2,0.6 -0.1,0.2 -0.1,0.4 -0.2,0.6 -0.3,0.9 -0.6,1.8 -0.8,2.7 -0.1,0.2 -0.1,0.4 -0.2,0.6 l 0,0 c -0.1,0.2 -0.1,0.4 -0.2,0.7 0,0.1 0,0.2 -0.1,0.3 0,0.2 -0.1,0.3 -0.1,0.5 0,0.1 0,0.2 -0.1,0.3 -0.1,0.6 -0.3,1.3 -0.4,1.9 -0.1,-0.7 -0.3,-1.3 -0.4,-1.9 0,-0.1 0,-0.2 -0.1,-0.3 0,-0.2 -0.1,-0.3 -0.1,-0.5 0,-0.1 0,-0.2 -0.1,-0.3 C 21.5,42.5 21.4,42 21.3,41.6 21,40.6 20.8,39.7 20.5,38.9 20.4,38.7 20.4,38.5 20.3,38.3 20.1,37.7 19.9,37.2 19.7,36.7 19.6,36.5 19.6,36.3 19.5,36.1 19.4,35.9 19.4,35.7 19.3,35.6 19.2,35.4 19.1,35.2 19.1,35.1 19,34.9 18.9,34.8 18.9,34.6 18.8,34.4 18.8,34.3 18.7,34.1 18.6,33.8 18.4,33.6 18.3,33.3 18.2,33.2 18.2,33.1 18.1,32.9 l 0,0 C 18,32.8 17.9,32.6 17.9,32.5 17.7,32.2 17.5,31.8 17.3,31.5 17.2,31.4 17.2,31.3 17.1,31.2 17,31 16.9,30.9 16.8,30.8 16.7,30.7 16.6,30.5 16.5,30.4 16.4,30.3 16.3,30.1 16.2,30 16.1,29.9 16,29.8 15.9,29.7 15.8,29.6 15.7,29.5 15.6,29.4 15.5,29.3 15.4,29.2 15.3,29.1 15.3,29.1 15.2,29 15.2,29 17.3,9.3 20.7,0 22.3,0 c 1.6,0 5,9.3 7.2,29 z" fill="none" stroke="#000000" stroke-width="0.90625" transform="scale(1.10344827586) rotate(180,22.299999,36.25)" /><path d="m 29.5,29 c 0,0 -0.1,0.1 0,0 -0.3,0.3 -0.5,0.6 -0.7,0.8 -0.1,0.1 -0.2,0.2 -0.2,0.3 -0.1,0.1 -0.2,0.2 -0.3,0.4 l 0,0 c -0.1,0.1 -0.2,0.3 -0.3,0.4 -0.2,0.2 -0.3,0.4 -0.5,0.7 -0.1,0.1 -0.1,0.2 -0.2,0.3 -0.1,0.2 -0.3,0.5 -0.4,0.7 -0.1,0.1 -0.2,0.3 -0.2,0.4 l 0,0 c -0.1,0.2 -0.2,0.3 -0.3,0.5 -0.1,0.2 -0.2,0.3 -0.2,0.5 -0.1,0.1 -0.1,0.3 -0.2,0.4 -0.2,0.4 -0.3,0.8 -0.5,1.1 -0.1,0.2 -0.2,0.4 -0.2,0.5 0,0.1 -0.1,0.2 -0.1,0.3 -0.1,0.1 -0.1,0.3 -0.2,0.4 -0.1,0.3 -0.3,0.7 -0.4,1 -0.1,0.2 -0.1,0.4 -0.2,0.6 -0.1,0.2 -0.1,0.4 -0.2,0.6 -0.3,0.9 -0.6,1.8 -0.8,2.7 -0.1,0.2 -0.1,0.4 -0.2,0.6 l 0,0 c -0.1,0.2 -0.1,0.4 -0.2,0.7 0,0.1 0,0.2 -0.1,0.3 0,0.2 -0.1,0.3 -0.1,0.5 0,0.1 0,0.2 -0.1,0.3 -0.1,0.6 -0.3,1.3 -0.4,1.9 -0.1,-0.7 -0.3,-1.3 -0.4,-1.9 0,-0.1 0,-0.2 -0.1,-0.3 0,-0.2 -0.1,-0.3 -0.1,-0.5 0,-0.1 0,-0.2 -0.1,-0.3 C 21.5,42.5 21.4,42 21.3,41.6 21,40.6 20.8,39.7 20.5,38.9 20.4,38.7 20.4,38.5 20.3,38.3 20.1,37.7 19.9,37.2 19.7,36.7 19.6,36.5 19.6,36.3 19.5,36.1 19.4,35.9 19.4,35.7 19.3,35.6 19.2,35.4 19.1,35.2 19.1,35.1 19,34.9 18.9,34.8 18.9,34.6 18.8,34.4 18.8,34.3 18.7,34.1 18.6,33.8 18.4,33.6 18.3,33.3 18.2,33.2 18.2,33.1 18.1,32.9 l 0,0 C 18,32.8 17.9,32.6 17.9,32.5 17.7,32.2 17.5,31.8 17.3,31.5 17.2,31.4 17.2,31.3 17.1,31.2 17,31 16.9,30.9 16.8,30.8 16.7,30.7 16.6,30.5 16.5,30.4 16.4,30.3 16.3,30.1 16.2,30 16.1,29.9 16,29.8 15.9,29.7 15.8,29.6 15.7,29.5 15.6,29.4 15.5,29.3 15.4,29.2 15.3,29.1 15.3,29.1 15.2,29 15.2,29 17.3,9.3 20.7,0 22.3,0 c 1.6,0 5,9.3 7.2,29 z" fill="none" stroke="#000000" stroke-width="0.90625" transform="translate(57.2137908966, 44.0) scale(1.10344827586)" /><path d="m 29.5,29 c 0,0 -0.1,0.1 0,0 -0.3,0.3 -0.5,0.6 -0.7,0.8 -0.1,0.1 -0.2,0.2 -0.2,0.3 -0.1,0.1 -0.2,0.2 -0.3,0.4 l 0,0 c -0.1,0.1 -0.2,0.3 -0.3,0.4 -0.2,0.2 -0.3,0.4 -0.5,0.7 -0.1,0.1 -0.1,0.2 -0.2,0.3 -0.1,0.2 -0.3,0.5 -0.4,0.7 -0.1,0.1 -0.2,0.3 -0.2,0.4 l 0,0 c -0.1,0.2 -0.2,0.3 -0.3,0.5 -0.1,0.2 -0.2,0.3 -0.2,0.5 -0.1,0.1 -0.1,0.3 -0.2,0.4 -0.2,0.4 -0.3,0.8 -0.5,1.1 -0.1,0.2 -0.2,0.4 -0.2,0.5 0,0.1 -0.1,0.2 -0.1,0.3 -0.1,0.1 -0.1,0.3 -0.2,0.4 -0.1,0.3 -0.3,0.7 -0.4,1 -0.1,0.2 -0.1,0.4 -0.2,0.6 -0.1,0.2 -0.1,0.4 -0.2,0.6 -0.3,0.9 -0.6,1.8 -0.8,2.7 -0.1,0.2 -0.1,0.4 -0.2,0.6 l 0,0 c -0.1,0.2 -0.1,0.4 -0.2,0.7 0,0.1 0,0.2 -0.1,0.3 0,0.2 -0.1,0.3 -0.1,0.5 0,0.1 0,0.2 -0.1,0.3 -0.1,0.6 -0.3,1.3 -0.4,1.9 -0.1,-0.7 -0.3,-1.3 -0.4,-1.9 0,-0.1 0,-0.2 -0.1,-0.3 0,-0.2 -0.1,-0.3 -0.1,-0.5 0,-0.1 0,-0.2 -0.1,-0.3 C 21.5,42.5 21.4,42 21.3,41.6 21,40.6 20.8,39.7 20.5,38.9 20.4,38.7 20.4,38.5 20.3,38.3 20.1,37.7 19.9,37.2 19.7,36.7 19.6,36.5 19.6,36.3 19.5,36.1 19.4,35.9 19.4,35.7 19.3,35.6 19.2,35.4 19.1,35.2 19.1,35.1 19,34.9 18.9,34.8 18.9,34.6 18.8,34.4 18.8,34.3 18.7,34.1 18.6,33.8 18.4,33.6 18.3,33.3 18.2,33.2 18.2,33.1 18.1,32.9 l 0,0 C 18,32.8 17.9,32.6 17.9,32.5 17.7,32.2 17.5,31.8 17.3,31.5 17.2,31.4 17.2,31.3 17.1,31.2 17,31 16.9,30.9 16.8,30.8 16.7,30.7 16.6,30.5 16.5,30.4 16.4,30.3 16.3,30.1 16.2,30 16.1,29.9 16,29.8 15.9,29.7 15.8,29.6 15.7,29.5 15.6,29.4 15.5,29.3 15.4,29.2 15.3,29.1 15.3,29.1 15.2,29 15.2,29 17.3,9.3 20.7,0 22.3,0 c 1.6,0 5,9.3 7.2,29 z" fill="none" stroke="#000000" stroke-width="0.90625" transform="translate(57.2137908966, -44.0) scale(1.10344827586)" /></pattern></defs><g id="axis" /><g id="data"><polygon fill="url(#people)" points="233.333333333,567.8855964 105.333333333,617.8855964 105.333333333,630.0 361.333333333,630.0 361.333333333,617.8855964" stroke="#000000" stroke-width="2" /><polygon fill="url(#people)" points="500.0,268.930477296 372.0,318.930477296 372.0,630.0 628.0,630.0 628.0,318.930477296" stroke="#000000" stroke-width="2" /><polygon fill="url(#people)" points="766.666666667,100.0 638.666666667,150.0 638.666666667,630.0 894.666666667,630.0 894.666666667,150.0" stroke="#000000" stroke-width="2" /><polygon fill="url(#corn)" points="233.333333333,880.659267205 105.333333333,830.659267205 105.333333333,670.0 361.333333333,670.0 361.333333333,830.659267205" stroke="#000000" stroke-width="2" /><polygon fill="url(#corn)" points="500.0,1100.7575322 372.0,1050.7575322 372.0,670.0 628.0,670.0 628.0,1050.7575322" stroke="#000000" stroke-width="2" /><polygon fill="url(#corn)" points="766.666666667,1200.0 638.666666667,1150.0 638.666666667,670.0 894.666666667,670.0 894.666666667,1150.0" stroke="#000000" stroke-width="2" /></g><g id="labels"><text alignment-baseline="middle" font-size="20" text-anchor="middle" x="233.333333333" y="650.0">2020</text><text alignment-baseline="middle" font-size="20" text-anchor="middle" x="500.0" y="650.0">2050</text><text alignment-baseline="middle" font-size="20" text-anchor="middle" x="766.666666667" y="650.0">2080</text><text alignment-baseline="after-edge" font-size="20" text-anchor="middle" x="233.333333333" y="557.8855964">+ 409M people</text><text alignment-baseline="after-edge" font-size="20" text-anchor="middle" x="500.0" y="258.930477296">+ 2.4B people</text><text alignment-baseline="after-edge" font-size="20" text-anchor="middle" x="766.666666667" y="90.0">+ 3.5B people</text><text alignment-baseline="before-edge" font-size="20" text-anchor="middle" x="233.333333333" y="890.659267205">- 28M tons of corn</text><text alignment-baseline="before-edge" font-size="20" text-anchor="middle" x="500.0" y="1110.7575322">- 57M tons of corn</text><text alignment-baseline="before-edge" font-size="20" text-anchor="middle" x="766.666666667" y="1210.0">- 70M tons of corn</text></g></svg>