<?xml version="1.0" encoding="utf-8"?>
<svg version="1.1" id="country" xmlns="http://www.w3.org/2000/svg" xmlns:xlink="http://www.w3.org/1999/xlink" x="0px" y="0px"
	 viewBox="0 0 338 500" style="enable-background:new 0 0 338 500;" xml:space="preserve">
<path id="country_path" d="M115.8,493.5l-1,3.7h-1l-0.5-0.3l-0.3-0.3l-2.1-1l-2.1-0.3h-0.5l-1,0.8l-0.3,0.5
	l-0.3,0.8v0.3l-0.3,0.5l-0.3,0.3l-0.5,0.5l-0.5-0.5h-0.3l-1,0.8l-2.1,0.8l-0.5-0.3h-0.3l-0.5-2.6l0.3-0.5l0.5-0.3h0.8h0.5l5.5-2.9
	l0.8-0.8l0.8-0.5l1.8-1.3l1.6-1l1.3-0.3l0.3,0.8v0.8l0.5,0.3l0.8,0.5v0.8C115.8,492.7,115.8,493.5,115.8,493.5z M157,468.4l-1.3,1.3
	h-0.8h-0.5l-1.3,1l-0.5,0.5l-0.3,0.5l-0.3-0.5l-1.6-2.1l-0.3-0.3l-1.3-0.3l-0.5,0.3l-3.4,1.8h-5.5h-0.3l-1.6-1l-0.3-0.8v-0.5
	l0.8-1.6l1-0.8l3.4-1.8l3.4-0.5l0.5,0.3l1,0.3l1,1.3l2.3,0.8l4.7,0.3l0.8,0.3l0.5,0.8L157,468.4L157,468.4z M126.7,458.5h-0.8h-0.3
	l-2.1-0.5l2.6-3.9l0.5-0.5l1.3-0.3v0.5l-0.8,4.4L126.7,458.5z M185.2,443.6l0.3,2.3l-1.3,2.9l-1.3,1.8l-3.1,1.3l-0.8,0.3h-0.5
	l-1.6,0.3l-0.8-0.3l-0.5-0.3l-1.3-1l-0.3-0.3l-4.2-4.7v-1l0.3-1l0.8-0.5l0.5-0.3h0.5l0.3,0.3l0.3,0.3l0.5,0.3l1.8-0.5l1.3-1l0.5-0.8
	l0.5-0.5l0.8-0.5h1.8l1,1.3l1.3,1l1.8,0.5L185.2,443.6z M310.3,431.6l-1,1.6l-0.3-0.3l-3.1-6l-0.3-0.8l1-3.4h0.8l2.1,1.3l0.5,0.5
	l0.3,0.5L310.3,431.6L310.3,431.6z M206.9,420.9l-0.8,1l-0.5-0.3l-0.3-0.3l-0.8-1.6v-0.5l0.3-1.3l0.3-0.5l0.3-0.5l0.8-0.5h2.3l1,0.3
	l0.3,0.3l1.3,1.8l-2.6,1.8L206.9,420.9z M2.4,403.4H2.2l-0.5-0.3L0.9,401l-0.5-1.3l-0.3-1v-3.1V395l0.3-0.3L4,394l0.5,0.8l0.5,5.2
	l-0.8,1.3L4,402.1l-0.3,0.3L2.4,403.4z M12.4,390.6h-0.3h-0.3l-0.5-0.8l-0.3-0.5v-2.6l0.3-0.5l0.3-0.5l1.3-0.3l1,1l0.3,0.5l-0.3,2.9
	l-0.5,0.3L12.4,390.6z M273.4,358l-0.3,0.3l-2.3-1l-0.8-0.5l-0.8-0.5l-0.3-0.3l-0.3-0.5l-0.3-0.5l-0.3-1.3l0.3-0.3l0.3-0.8l0.8-0.5
	l1.6-0.3l0.8,0.5l1.3,1.3l0.5,0.5l0.5,1.6l0.3,1v0.3L273.4,358z M234.8,353.8l1.3,2.6v0.3l-0.3,0.5l-0.8,0.5l-2.3,0.8h-0.8h-0.8
	l-0.3-0.3l-2.9-2.1l-0.5-0.8l-0.3-0.3l0.3-0.8l0.5-0.3l0.8,0.3l1.6-0.5l0.5-0.3l0.8-0.5l0.3-0.5v-0.5l0.3-0.8h1l0.8,0.8L234.8,353.8
	z M313.9,340.2h-0.3l-0.5-0.5l-1-1.3l0.3-3.4v-1.6l1-0.3l0.5,0.8l1,2.1l0.3,0.5v0.5l-0.5,2.3l-0.3,0.5L313.9,340.2z M316.5,350.1
	l1,1.3l2.1-0.8l0.5-0.3l2.1,0.5l-0.3,1.3l-0.3,3.6l0.5,0.8l1.8,1.6l0.3,0.3l-0.5,0.3v0.5l0.5,0.3h0.8l0.5,0.3l0.5,0.3l0.3,0.5
	l0.3,0.3l0.8,1l0.3,2.9l-0.3,0.5l-0.8,1.3l-0.3,0.5L323,370l-1.6,0.8l-1.6,0.8l-0.3,0.8l-0.5,0.8l1.6,2.1l0.3,0.3l0.5,0.3l1.8,0.3
	h0.8l0.3-0.3l-0.5-0.3l0.5-0.5l4.7,0.3l1,1l0.3,1.6l-0.8,2.3l-0.5,1l-0.5,0.3l-0.5,4.2l2.3,1.3l0.8-0.8l1-0.8l0.5,0.3l0.3,0.3
	l-0.8,3.7l-0.3,0.5v0.3l-2.3,7v0.5l0.5,1.3l0.3,0.5l0.8,0.3h0.5l1,0.5l2.6,2.6l1,1.3l1.6,6v0.5v0.8v1l-0.5,0.3l-0.8,1.6v1.6v1.8
	l0.3,0.3l0.8,0.3l-0.8,3.1l-3.7,5.2l-3.7,1.8h-0.5l-0.5,0.5l-1.3,2.3l0.5,0.8l0.3,0.3l0.5,0.3l0.5,0.5l0.5,0.3l0.3,2.1h-1h-0.3
	l-0.5-0.3l-0.3-0.3l-0.3-0.8l-0.3-1.6l-0.3-0.8l-0.3-0.8l-1.8-0.5h-0.5l-0.3,0.5l-0.8,1.6l0.3,0.8l0.5,1l0.8,0.5l0.3,0.3l0.5,0.5
	l0.5,0.8l0.5,0.8l-0.5,1.6l-0.3,0.5l-0.3,0.5l-0.3,1.3v7.3l-0.3,3.7l-0.5,1.6v-1.6l-0.3-0.5l-0.3-0.3l-1.3-1.6l-1.6-3.1l-0.3-1.3
	l-0.3-0.3l-0.8-3.9l0.3-0.8l0.5-1.3l0.3-1.3l-0.8-3.6l-0.5-0.5l-0.5-0.3h-0.8l-0.8-0.5l-0.5-0.8l-0.3-0.5l-0.3-1v-0.5l0.3-0.8
	l0.3-0.5l-0.3-0.5l-0.8-1.6l-0.5-0.3l-1-0.5l-0.5-0.3l-0.5-0.8l-1.8-4.4v-0.8l0.3-1.6l0.3-0.5v-0.5l-0.3-0.3l-0.5-0.3h-0.8l-2.1,1.3
	l-0.8,0.8l-1.3,1l-1.3,1.6v0.8l0.3,0.8l0.3,1l-0.3,1v0.3v0.5l-0.5,0.5l-1.3,1.6l-1,0.3l-1-0.3l-0.5,0.5l-1.3,1.8v1.3l0.3,0.5l-0.8,1
	l-1.3,1.8l-1.3,1.6v0.3l-0.8,2.6l0.5,3.6l0.3,0.5l1.8,0.5l0.3-0.3l1.3,0.8l3.6,3.1l3.4,7.6l1,2.9v2.3l-0.3,2.6l-0.5,1.8l-0.3,0.5
	l-0.5,1.6l-1.3,1.6l-0.8,0.5l-2.3,2.6l-0.8,1.3l-0.3,0.5l-0.5,1.3l-1,1.6l-1.3,2.1l-0.5,0.8v0.3h-0.5l-0.5,0.3l-2.1-0.3l-1-0.5v-1
	l0.5-0.5V477l-0.8-1.6l-0.3-0.5l-0.3-0.3l-1.6-1l-1.3-1l-0.5-2.3l1.3-1.3l1.6-1.6l1-2.1v-0.8l-0.5-2.1l-0.3-0.8l-0.3-0.3l-2.9-0.5
	l-0.8,0.3v0.5l-2.3,7.6l-0.3,0.3l-0.5,0.3l-0.8,0.3h-2.9l-3.9-1h-0.5l-4.2-1.6l-6.8-2.9l-4.7-2.3l-0.5-0.5l-0.3-0.5l-1.6,0.3
	l-2.1-1.3l-2.9-2.1l-4.2-5.5l-1-1.8l-0.3-2.3V447l0.8-0.3l-0.3-3.1l-0.5-3.7l-1.6-1.3l-0.5,0.3h-0.3l-0.3-0.5l-0.5-1.3l0.8-3.7
	l0.3-1.6l0.5-1.8l0.3-0.5l1.3-2.3l0.5-0.8l0.5-0.5h0.3l0.8-0.3h0.5l1.3-0.8l0.3-0.3l3.7-6.5v-0.3l-0.5-1.3l-0.5-0.3l-1,0.3l-1.3,0.3
	l-0.3-0.3l-0.8-0.8l-0.3-0.8l-0.3-1l-0.5-1.3l-3.1-3.7l-0.5-0.5l-3.1-1.3l-1.3-0.3h-2.1h-1.8l-1.3-1v-0.5v-0.8l-0.8-0.8l-0.8-0.5
	l-0.5-0.3l-2.3-0.5l-0.3-0.3l-1.3-0.5h-1l-2.6,1.6l-0.3,1.8l0.8,0.8l0.3,0.3v1.6l-0.3,1l-0.3,0.3l-0.3,0.5l-0.3,0.3l-0.8,0.3
	l-0.8,0.3h-0.5l-1.8,1.3l-0.3,0.5l0.3,0.3l2.6,2.6l0.8,0.8l0.5,0.3l0.3,2.3l-1.6,0.5h-0.3l-0.8-0.5l-1.8-1.3l-1.6-1.6v-0.5l0.3-0.5
	l0.5-1l-0.3-0.3l-2.6-0.3l-0.3,0.3l-1,0.8l-0.3,0.3l0.5,0.5l-0.8,0.5l-1.8-1.3l-0.5-0.5l-0.3-1l1-0.8l1.3-0.3l0.5,0.3l0.5-0.5
	l-0.3-0.8l-2.1-3.4l-0.5-0.8l-1.8,1.8l-0.8,1l-0.3,1v0.8v0.5l-0.3,1l-0.8,2.6l-0.3,0.8l-1.6-0.8l-2.6,0.5l-1,1h-1l-1.3-1.3v-7.3
	l0.3-0.5l0.3-0.5h0.8V406l-0.3-0.3l-0.8-0.8l-2.3-0.5h-2.3l-1,0.3l-2.6,1.6l-1.3,1.6l-0.3,0.3l-2.1,2.9l-0.5,0.5l-2.3,3.9L189,416
	v0.5v1.3l0.5,0.3l1,0.3l-1,1.8l-1,1l-0.5-1h-0.5l-0.3,0.5l-0.3,0.5l-0.5,2.6l-0.5,2.6l-0.3,1.8l-2.1,5.5l-1.3,1.6l-0.8,0.5h-0.3
	h-0.5l-2.1-0.8l-3.1-1.3l-0.3-0.3l-0.3-0.3l-0.8-1l-0.8-2.9v-2.3l0.8-1l0.3-0.5l0.3-0.5l3.4-4.2l-0.3-1l1-2.9l0.8-2.3l0.8-1.3
	l0.8-0.8l0.3-2.6l-0.3-1v-0.5l-0.5-1.3l-0.3-0.3l0.3-1.6l1.3-2.3l2.6-4.2l1.3-1.3l1.3-0.5l1-0.5l0.8-0.5l3.1-0.8l0.8-0.3h0.5
	l0.3,0.3h0.5l9.7-1.8h0.5l1-0.3l2.9-0.8l0.5-0.3l2.3-1.8l0.3-0.8l-0.5-3.9v-2.9l1.6-2.6l1.3-1l3.9-0.5h0.5l0.8,0.3l1.6,0.5h0.5
	l0.5-0.3l0.5-0.3l0.5-0.8l1.6-3.4l0.5-2.1v-0.8l0.5-0.3l1.3,0.5l3.4,2.9l0.5,0.5l2.6-1.6l2.6,1l1.3,1l1.6,1.8l1.6,2.3l0.5,1.6
	l1.3,7.1v0.8v0.8v0.8l-0.5,0.8l-2.9,2.6l-0.3,0.3l-1,0.3h-0.5h-0.5l-0.5,0.3l-0.5,0.5l-0.8,0.5l0.3,0.3l-0.3,1.3l0.5,0.5l0.5-0.3
	l0.3-0.3l2.3-1.3l0.8-0.8l0.3-0.8l2.1-2.1l4.2-2.3l1.6-0.5l0.5-0.3h1.8l0.8,0.3h0.5h1h1l1.8-1l1-2.1v-0.5l-0.5-1.3l0.3-0.5l1-1.8
	v-0.5v-0.3v-0.8v-0.8l1.6-3.1l3.6-2.3l1.6,0.3l0.3,0.8l2.1,1.6l1,0.5l3.6,1.3l0.8,0.3h0.3l0.3-0.3l0.3-0.3l0.8-0.8l0.8-2.9l-0.3-1.6
	l-0.5-0.3l-0.3-0.5l-0.3-0.5v-0.8l1-3.1l0.5-3.9l-0.5-1.8v-0.8l0.5-0.5l0.5-0.5l0.5-0.3l2.3-0.3l3.1,2.1l1.8,1.6l0.3,0.8l1.6,1.8
	l0.5,0.3l0.8-0.3l1-0.5l0.5-0.3l4.2-5l5.2,0.3h0.5l0.5-0.3l0.5-0.3l1.3-0.5l0.3-0.3l0.5-1.3v-0.5v-0.8l-0.3-3.6l-0.8-2.9l-0.3-1
	l-1.8-5.5l-1.6-4.4l-0.8-1.8l0.3-2.3v-1l0.3-0.8l1-1.6h0.8l1.3,0.5l2.1,1l0.8,1.3l1,3.1l1,0.8l0.3,0.3l3.7,1.3h0.5l0.5,0.3l2.1,0.3
	l2.9,1.8l0.8,1.6l-1.3,0.8v0.5L316.5,350.1z M319.4,333.4l-2.9,0.3l-3.1-3.1l0.8-1.8l2.3-5l0.5-0.8l0.3-0.3h0.5l0.5,1.8l1,3.4l0.3,1
	l0.8,1l1,1.3l-0.3,0.8l-0.3,0.3L319.4,333.4z M290.7,328.5l-0.3,0.3l-1-0.5l-4.2-4.7l-0.5-0.8v-0.8v-1.3l0.3-0.5l3.1,1l2.3,4.4
	l0.5,2.1v0.5L290.7,328.5z M262,324l0.8,0.3h1.3l0.8,0.5l0.5,0.5l0.3,1l0.3,2.6v1l-0.8,0.5l-0.8,0.8l1,0.8l1,0.5l0.3,1.6l-0.5,1
	l-1.8,0.3l-1-0.8l-3.1,3.4l-1.8,1.3l-1.3,0.5l-0.8,0.3l-0.8,0.3l-6,0.5h-1.3l-3.7-0.5l-3.4-1l-2.3-3.4l-0.3-1.3v-2.6l3.4-2.6
	l2.6-1.3l0.5-0.3l2.3-1.3l3.1-4.2v-0.5l0.5-0.8l2.1-0.3h1h2.6l2.1,0.3l1.6,1.8L262,324z M303.7,331.1l-0.5,0.3h-2.3l0.5-1.3l0.8-1.3
	l-0.3-1.8L298,323l-0.8-1.3l-0.3-0.8v-0.3l1.3-6.5l3.7-5l0.3-0.3h0.5l1,1.6l0.3,1l-0.8,4.7v3.1l0.3,1.6l0.3,0.5l1,1l0.5,6.3v1
	l-0.8,0.5l-0.3,0.5L303.7,331.1z M100.9,312.5h-0.5l-1-0.3l-1.3-2.3v-0.5l0.3-0.5l0.3-0.3l2.6-1.8h2.1l3.4,0.5l0.5,1.3l-0.5,1
	l-2.3,1.8l-1.6,0.5L100.9,312.5z M198.3,311.7l-0.8,0.5h-0.8l-0.8,0.3l-0.8,0.8h-0.8l-1.6-2.6v-0.3l1.3-3.4l0.3-0.3l0.5-1l2.6-3.1
	l1.3-1.3h0.5l1.6,1l0.3,0.8l0.3,1.8v0.8l-1.6,3.9l-0.5,1L198.3,311.7z M307.9,300.8l-1.3,0.3l-0.5-0.3l-2.9-1.6l-0.3-0.5v-1l0.5-1
	l0.5-0.3l0.8,0.3l3.4,2.9l0.3,0.3l-0.3,1L307.9,300.8L307.9,300.8z M218.4,327.7l-0.8,1l-1,1.3v0.5l-0.5,2.3l0.3,0.5l0.3,2.1
	l0.3,1.6v0.5l-0.3,1.3l-0.3,0.3h-0.5h-0.5l-0.3,0.8l1.6,2.9l1.3,2.3l1.8,1.8l2.1,2.6l0.5,0.5v0.5v0.8l-0.5,2.3l-0.3,0.3l-0.5,1
	l-1,1.6l-1.8,1.8l-1,1l-1,0.8l-4.2,0.5l-0.8-0.5l-1.8-1l-1-2.1l-0.5-1.8l-0.5-1.6l-0.3-0.8v-0.8v-1l-0.3-0.5l-2.1-1H204l-2.1-0.5
	h-0.8h-0.5l-0.5-0.3l-1.3-0.5l-1.3-0.8l-0.3-0.5l-0.8-0.3l-1-1.3l-2.1-2.6l-2.6-3.4l-0.5-2.6l0.3-2.3l1.6-6.3l1.8-0.3h1l1.3,0.3h1.3
	l0.3,0.3l1.6-0.3l0.8-0.3l3.9-1.8l0.5-0.8h0.3l1.3-1.3v-1v-1l-0.3-5.7l-0.8-3.9v-3.9l0.5-0.3h0.5l0.5-0.8l1.3-1.3l1.3-2.9l0.3-1.6
	v-2.3l-0.3-0.5l-0.3-0.5v-0.5v-0.3v-1.3l1.8-1l6.3-2.9h0.5h0.8l9.9,2.1l1.8,3.1l0.3,0.5v1.3l-3.4,9.7l-0.5,0.5l-1,0.8l-0.5,0.3
	l-0.3,0.3l-0.8,0.5l-0.5,0.5v0.3l-0.3,0.5v0.8l-0.5,3.9l-0.3,1.3l-1.3,3.9l-0.8,1.6l-0.8,2.1l-0.5,0.8L218.4,327.7z M223.6,347.3
	l-0.8,0.3l-0.8-0.3l-0.5-2.3l0.5-2.6l1.3-7.6l0.8-3.4h0.8l0.3-1.8l-0.8-0.5l-0.3-1.8l1.3-2.1l0.5-0.5l1-1l1.6-1.6l1.6-3.1l1.8-4.4
	l0.8-0.5l1.3-1.6l1.3-3.1v-1l0.3-1l1.6-2.9l1-1.6l1.3-2.1l1-2.3l0.5-0.8l0.8-2.9l2.1-6l-0.3-1l-0.3-1v-1l2.1-3.1l1.3-0.3l0.8,1
	l-0.8,1.3l-1,3.1l0.5,2.3l0.5,1.6l0.5,4.4l-0.8,2.9v6.3l-0.3,5.7l-0.5,1.6l0.5,0.8l-0.5,1l-1.3,1l-5.7,3.4l-1,0.3l-1.8,2.1l-2.6,3.4
	l-0.5,1.6v1.8l0.3,1l-0.8,2.3l-1,1l-1.3,1.6l-0.8,2.9v1.6l-1.3,3.7l-1.3,1.8l-2.3,3.1L223.6,347.3z M89.9,281.5l0.5,0.5l0.5-0.5
	l0.8,0.5v1v1l-0.5,1.3l-1.8,8.1l-0.3,0.8l-0.3,3.1l1,1.6l0.8,0.5l1-0.8l1,0.5l0.3,3.4l0.8,1.8l2.3,4.7l0.8,1l-1.3,0.8l-3.4,2.9
	l-3.1,1h-1.3l-2.1,1l-2.3,1.3l-0.8,1l-1.6,1.8l-0.3,0.5l-0.8,1.8l0.3,1l-0.8,1.8l-0.5,0.8l-1.6,0.8l-6.5,1.8h-0.8h-1l-1.3-0.3
	l-4.2,2.1l-2.3,5.5v1.8l0.8,1l1.3,1h-0.5l-3.7,4.7l-6,7.3l-3.9,3.9l-0.5,0.5l-5.2,0.8l-1.3,0.3l-1.8,3.4l-1.8,3.4l-1.6,2.3l-1,0.3
	l-2.1,1l-0.8,0.5l-2.9,2.3l-0.8,1.3l-1,1l-4.2,1l-3.4,2.9l-3.1,2.3l-2.6,0.5l-1.8,1.3l-2.6,2.6L9,385.3l-0.8-0.3l1.6-6.3l0.5-1.6
	h0.3l0.5-1.6l2.9-4.2l1-0.5l2.6-2.1l1-1.8l1.6-2.1l5-5.5l4.4-3.4l4.2-2.9l1.6-0.3l1,0.3h1.6l3.4-3.1l7.3-7.8l0.3-1.3l3.1-3.1
	l0.8-0.5l1-0.3l1.3-1.3l3.1-3.7l1.3-1.8l0.5-1.6l0.3-1l3.1-4.2l0.3,1.8H63l0.8,1.8l0.5,0.3v-0.3l0.8-0.5l0.8-2.3l-0.5-0.3l-0.3-2.1
	v-0.8l2.1-0.5l0.5,0.3l1.8-0.3l2.3-3.7l0.3-1.8l-1,0.8l-0.5-0.8l1.8-2.6l2.9,0.8l1.3,1.3l1.3-1l5-6l0.5-0.8l0.5-3.9l-1-1.8h-1
	l-1.8-3.4l-0.3-3.1l1.6,0.3l5.2,6.8l0.5,0.8v0.5l0.8-0.3l-0.5-3.4l-0.8-1.6h-1l-0.8-0.3l-0.8-0.5l-1-1.8l-0.3-1v-1l1-3.4l0.8,0.8
	l0.5,1.3l1,0.5l0.8-0.3l0.3-3.7v-3.1l-0.3-1.3v-1.3l0.3-1.3l1.6-2.9l1,0.3v0.8v0.8L89.9,281.5z M101.1,279.9h-0.3h-0.5l-1.6-0.8
	l-0.8-0.5l-0.5-0.5l-0.5-1.3l3.4-1.8l1.3,0.3l0.8,0.3v0.5v1.3l-0.3,0.5l-0.3,1L101.1,279.9z M265.1,280.4l2.1,0.5l2.3-0.5l1-0.8
	l0.8-0.3l1.6-1.6l1.6-1.6h3.4l0.8,1l0.3,0.8v3.9l1.8,2.1l0.5,6.3v1.3v1l-0.3,0.8l-0.8,1.8v2.1l0.3,2.3l1.6,1l0.8,0.3l2.3,3.1
	l1.3,2.3L286,307l0.8,3.1l1.8,1.6l0.5,0.5l0.5,1.6v1.3l-0.3,1l-4.7,3.1l-1.3-1.3l-0.5-1l-1-2.3l-0.3-0.8l-0.5-1l-0.5-0.3h-1l0.5,4.7
	l0.8,2.9l0.8,2.6v1.3l-0.5,0.5l-1.3-0.3l-4.7-3.1l-2.9-2.1l0.8-3.7v-1l-0.8-0.8l-0.8-0.8l-0.5-1v-2.1l0.8-1.6l0.5-0.8v-1.6l1.3-2.9
	l-0.3-2.3l-0.5-1l-0.3-1l-0.8-1l-2.3-3.9l-0.5-0.5l-1.8-1.6l-1-0.5l-0.8-0.3l-0.8,1v0.8l0.3,1.3l-0.5,0.8l-0.3,0.8l-0.5,0.5l-1,0.3
	l-2.3-1.8l-0.8-2.1v-4.7V283l-1.3-1.8l-0.5-0.8l-1.8-5.5l-0.5-2.1l1-1.3l7.6,5.7l0.5,2.1L265.1,280.4z M265.1,274.7l-3.1,0.5
	l-1.3-0.5l-0.3-0.3l-1.3-2.1l-2.6-4.4l2.9-1.3h1.6l0.5,0.3l1.8,0.8l2.6,4.4l0.3,0.5l0.3,0.3l-0.3,0.5v0.5l-0.3,0.3L265.1,274.7z
	 M273.7,272.6h-0.3h-0.3l-0.5-0.3l-1-1l-1.8-4.7v-0.8l4.2,4.4v1.8L273.7,272.6z M183.6,264.7l6.3,3.7l3.9,3.7l2.3,2.3l3.9-1.8l1.6-1
	l2.9-0.3l2.1,2.3l0.3,1.8l-1,1l0.5,0.8h0.8l3.4-2.1l2.3-1.3l1.3-0.8l0.8-1l0.5-0.8l0.8,1.3l-0.5,5.7l-0.3,1l-1.6,4.7l0.8,1l0.3,1.3
	l-6.3,4.4l-2.3,0.5l-3.1,1.6l-1.8,1.3l1.6,1.3v1.6l-0.8,1.6l-0.8,0.8l-3.7-0.3l-1.3,2.9l-3.4,1.6l-3.4,0.5l-4.4,0.5l-1.8,0.8
	l-3.7,2.1l-0.5,0.8l-0.5,1l-0.5,1l-1,1.3l-0.5,0.5l-1.3,1l-1-0.3l-0.8-0.3L173,312l0.5-1.8l0.8-0.8l0.5-1l0.3-2.1l0.3-1.3v-1
	l-0.8-1.8l-0.8-1.8l0.8-2.3l1-2.6l0.5-0.8l1-1.6l0.8-1.3l-0.3-1.8l-0.3-1.3l-0.3-1.8l0.5-2.1l-0.3-3.1l0.3-2.6l0.5-2.6l1-4.4
	l0.3-1.6l-0.3-2.1l-0.8-0.8l-3.1-0.8l-1.3-0.3h-1.3l-1,0.3l-1-0.3l1.3-5l2.3-1l0.5,0.3l1,0.5l1,1l1,1l1.6,0.5l1.3,0.3l2.1,0.5
	L183.6,264.7z M105.6,270.2H105l-0.3-0.8l-0.3-2.9l-2.1-4.7l-0.3-1.3l0.3-1l0.3-0.5h0.8l3.7,1.6l0.5,0.5l1.6,1.8l-0.8,0.5l-0.3,0.5
	v0.8l0.5,0.5l0.5,0.3l-0.5,1.8l-0.5,0.5l-1.3,1.6l-0.3,0.5L105.6,270.2z M112.6,254l0.8,0.3l1-0.8l0.8-1.6l3.1,3.4l0.3,0.8v1.6v0.8
	l-1.3,0.3h-2.9l-0.8-0.5l-1-1l-1.3,0.3l0.3,0.5l-0.8,1l-0.5,0.5l-0.5-0.5v-0.5l-0.3-0.5H109l-0.5,0.3l-0.3,0.3l-0.8,0.3l-1.6-1.3
	l-1-1.6l-2.9-6l0.5-2.6l0.5-0.5h0.5l0.5,0.3h0.5l5.5,4.2l1,1.6L112.6,254z M199,246.7l-1.3,1.6l-3.1-3.1l-0.5-0.3l-1.3-0.5l-0.8-0.3
	h-0.5l-0.3-0.3l-0.3-0.3l-0.5-0.3l-0.3-0.8l0.3-0.8l1-1l0.8-0.3l1.6-0.3h1h1.8l1.3,0.3l0.5,0.3l1,1.8l0.3,0.5l0.3,0.5l-0.3,1.3
	l-0.3,1v0.5L199,246.7z M284.9,236.3l1.6,1l2.6,2.3l0.8,1.6l-0.5,0.5l-0.5,1.8l0.3,1.8l1.3,0.8l1-0.5l0.8-0.3l2.3,1l1.8,1.8l0.3,1.3
	l-1,0.3l-1.3,1.6l0.3,0.5l2.3,1.6l-0.8,1l-0.8,0.5l-0.5,0.8l-0.8,1.3v1.8l0.5,2.6l0.5,6l-0.3,1.3v0.8l2.9,5l1.6,1.6l0.8,0.3l1.6,1.6
	v0.8l-0.8,1l-1.3,0.5l-1,1l-0.3,1l0.3,1.3l2.1-0.3l-0.3-1l2.3,0.8l0.8,1l2.1,3.4l0.5,1.6l-0.3,0.5l-0.5-0.3l-0.8-0.5l-0.8-1
	l-0.5-0.8l0.3-0.8l-0.8-1l-3.1-0.3l-1.8,0.5l-1.8,1.3l-6.8-0.8l-2.6-1.8l-1-2.6l-0.5-0.5l-0.8-0.3h-1.8l-2.6-2.3l-0.5-2.3l-0.5-1
	l-2.6-0.5h-1.8l-0.5-1l0.3-0.8l1.8-1.8h1.3l0.8-0.3l1.3-1.3l1.6-4.2l-0.3-0.8l-1-0.8l-5-1l-3.1-2.9l-2.9-3.9l-1-0.8l-0.5-0.3
	l-1.8-0.5l-3.4-1l-0.8-0.5l-0.3-0.8l-0.8-0.8l-1.8-1.3l-1.8-3.4l-2.1-6l-1-3.1l1-0.8l2.3,1.3l3.9,0.3l6.5,0.5l2.6-0.3l0.8-0.3
	l3.9-0.8l0.8-0.5l5.2,0.5l1.3-0.5l0.5-1h1.8L284.9,236.3z M240.3,249.3l1.3,0.8l4.7,7.3l1,4.4l0.3,4.4l-0.5,0.3L245,264l-1-1
	l-1.8-1.3l-2.1-1l-0.8-0.5l-1.3-0.3l-6.5-6l-0.5-0.8l-0.5-1l-1.8-2.1h-2.1l-1,0.3l-3.1,3.9l-3.4,4.2l-0.5,0.8l-2.1,1.6H216h-0.3
	l-0.5-1l2.1-4.4l1.3-2.6l1.8-3.7l-1-3.4l-1.3-8.6l0.3-0.8l2.9,1l4.7,2.1l2.9,2.1l4.2,3.7l5,3.7L240.3,249.3z M237.4,244.9h-0.3
	l-1.8-1.8l-0.3-0.3l-1.3-1.6l-2.1-3.4l-1.8-2.6v-0.8l0.3-0.3l1.6-0.8l2.3,1.8l0.8,0.5l0.3,0.3v0.5l1,2.6l1.3,5V244.9z M177.4,251.7
	l-1,2.9l-1.8-1.8l-0.3-0.8l-1.3-4.2v-0.5V247l0.5-1.8l1.6-1.3l0.3-0.3l0.5-1.3v-1v-0.5l-0.3-2.6l-0.3-0.3l0.3-1l1.3-1l2.9-1.6
	l0.8,1.6l-0.3,2.1l-0.8,5.5L177.4,251.7z M223.1,232.9l-0.5,0.3l-1.8-1.8l-3.4-3.1l-6.5-5.5l-1.6-0.3l-1.3-1l-0.5-2.6l2.1-1.6
	l0.3,0.3l1.6,0.3l0.5,0.8l2.9,4.4l2.9,2.6l1.8,2.3l3.4,4.2L223.1,232.9z M131.4,206.8l0.8,0.3l6-1.6l1.8-0.5l0.8,0.3v1.8l1.3,1.6
	l0.8,0.3l0.5,0.3l2.9-0.3l1-0.3l1.3,0.5l2.9,2.1l6.8,6.8l0.3,3.4l-0.5,0.5l-0.3,0.8v8.9l0.3,0.5l0.8,0.8l0.8,0.5l0.5,1.6l0.3,2.1
	l-1.6,1.6l-0.8,0.8l-0.8,0.5l-0.8,0.5l-1,2.3v1.6l0.8,1.3h-1.8l-1.3,1.3l-4.2,3.1l-3.4-0.5l-0.8-1.3l0.3-1l0.3-0.5l-1-0.5l-0.3,0.3
	l-3.4-3.1l-1.6-2.6l-0.5-1l0.5-1l-0.3-1.6l-0.8-1.6l-1.8-2.3l-0.8-0.3h-1l-0.5-1.8v-1.6v-3.1l-1-3.7l-0.3-0.8l-0.5-0.5l-1.6-2.9
	l-1.3-1.8l-2.1-1l-0.8-0.3h-0.8l-5.5-5l-1-0.3l-0.5-0.5l-0.8-1l-0.5-0.8l0.8-1l0.5-0.5l1-0.8l1-0.3l0.8-0.3l8.4,1.3l1.3,0.3
	L131.4,206.8z M179.5,208.9l0.3,0.5h0.5l0.3,0.5l-3.1,4.7l-1,1.3h-1l-0.5-0.3l-3.9-2.6l-1-1.6l-0.5-1.6l-0.3-2.1v-0.5l1.8-3.1
	l4.7-0.3l1,0.5l2.3,1.8l0.8,0.8v0.5l-0.3,0.5C179.5,208.1,179.5,208.9,179.5,208.9z M116.5,197.1v2.3l-0.3,0.5l-0.8-1l-2.1-1.3h-0.5
	l-1.6-0.8l-0.8-0.8l-0.3-0.3l-0.3-0.3l-0.5-1.8l0.5-0.5h0.5l1.3,0.5l2.6,1l0.5,0.5l0.8,0.5L116.5,197.1z M253.3,188.5l0.8,0.8
	l1.3-0.3l1.6,1.3l0.5,0.5l0.3,0.8v2.3l-2.6,8.6l-0.5-0.3l-0.3-1.3h-0.5h-0.5h-0.8H252l-1,1l-0.3,0.8l0.3,0.8h-0.3l-0.8-0.5l-4.4-2.6
	l-0.8-1.3v-0.5l1-0.8l0.5-0.3l0.5-0.3l1-2.1l0.3-1l0.5-4.7l-0.3-0.3l-0.3-0.5l-0.3-1.3v-0.5v-1.6v-0.5l2.6-1.6l1.6,1.8l1,1.8
	L253.3,188.5z M181,188h-0.3l-1.3-0.8l-4.4-2.9l-0.5-0.3l-2.3-2.3l1-1.3l6.3,4.7l1.3,1l0.3,0.5l0.5,0.8v0.3l-0.3,0.3H181z
	 M183.6,162.7l-0.3,0.3l-1.6-1.3l-1-0.5l-1.8-0.8l-0.3-0.3l-0.5-1.3h3.1h0.8l1.6,1.8C183.6,160.6,183.6,162.7,183.6,162.7z
	 M176.6,153.3l0.3,1.3l-0.3,0.3l-0.3-0.8l-0.5-0.5l-0.5,0.3l-0.8,1l-0.8,1.8v0.5v0.5l0.3,0.5l0.5,0.8l1,0.8l0.5,3.4l-0.5,1l-0.5,0.5
	l-0.8,0.8l-1,0.5l-0.3,0.3l-0.3-0.3h-0.5l-0.3-0.5V165l-0.3-0.8l0.3-1.3l0.3,0.5h0.5v-0.3v-0.5l-0.3-0.8l-0.5-1.3l-1.6-3.1l-1.3-1.6
	h-0.8v-0.8l0.3-1.3l0.3-0.3l0.5-1.3l0.3-0.3l3.1-0.8l1,0.3l0.8,0.3l0.8,0.3l1,1L176.6,153.3z M148.6,28.7l4.2,2.6l6.8,3.7l1.8,0.8
	l5.5,2.1l1.6,0.5l1.6,0.3l1.3,0.3h0.5h0.5l1.6-0.5l0.5-0.5l3.1-2.9l0.3-1.8l0.3-0.5l0.5-2.1l0.5-0.5h1.8l0.5,0.3l2.9,4.7l0.3,0.5
	l0.3,1.8v1.3l-0.5,0.8l-1,1.3l-1,1.3l-0.3,0.3l-0.8,0.5l-0.3,0.3l-1,1l-0.5,1.6l0.3,1.3l0.5,0.3V48l-0.3,2.6l-0.5,1.6l-0.5,1.8
	l-0.3,1v0.8l0.8,6l0.3,0.5l1.3,4.4l1,2.6l0.5,1l1.3,0.8l0.8,0.3l0.8-0.3l2.9,2.3l-0.3,3.9l0.5,0.8l0.8,0.5h1h0.3l0.3-0.3l0.5-0.3
	l0.5,1.3l-0.5,1.8l-1.6,5.7l-1.3,3.4l-3.9,7.8l-0.5,0.8l-0.5,0.5l-0.8,0.5l-1.6,2.9v0.3l0.3,0.5l0.3,0.3h0.3v1.6l-0.5,3.1l-0.3,1
	l-0.3,0.3l-1.6,1.8l-0.3,0.3l-0.5,0.5l-0.8,0.5l-0.5,0.5l0.3,0.5l-1.6,1.6l-0.3,0.5l-1.3,0.8v-0.5v-0.5l0.5-1l0.3-0.3l0.3-0.3l1-1.3
	l0.5-0.5l0.5-0.5l0.5-1.3l1-1.6l-1.6-0.3l-0.8,0.8v0.5v0.5l-1.8,1.3l-1.3,0.8l-0.8,0.5l-5.7,2.6l-0.8-0.5l-0.8,0.3l-2.3,2.1
	l-3.1,3.1l-0.5,0.5l-0.3,0.5v0.3v0.8l-0.3,0.8l0.3,0.8l0.3,1.3l0.3,0.5l0.3,0.3l0.5,0.3l0.5-0.3l1,0.3l0.3,0.5v0.8l-1.6,2.6
	l-3.4,4.2l-3.1,5h-0.3l-0.3,1l-0.3,0.5v0.5v0.5l0.8,1.6l0.5,1l0.5,0.8l0.8,0.3l1,0.8l2.1,5.2l1,3.7l0.3,1.3l0.3,0.5l0.5,1.6l0.8,1
	l0.3,0.5l2.1,2.9l-2.9,1l-0.3,0.3l0.3,1.3v0.5l1,4.2l1.3,3.7l1.3,1.3l0.3,0.5l1.3,3.1v0.3l-0.3,1l-0.3,0.3l-0.5,0.5l0.3,0.3l0.8,1.3
	l0.3,0.3l5,3.9l1.3,0.8l0.3,0.3l1.8,0.8l0.8,0.3l2.3,1l1.3,0.3l0.5-0.3l1,0.3l1.6,0.5l0.5-1l1.8-1.3l0.3-1.3v-0.5l-1.6-1l-1.3-1
	l-0.8-0.3l-0.8-1l-0.5-0.8v-0.5l3.1-3.1l0.5-0.3v0.5v0.8l-0.3,0.3v0.5v2.1l1.3,0.8h0.3h0.5l0.8-0.5l0.3-0.5l-0.5-0.8l-0.3-0.3v-0.8
	V181l1-1.6l0.5-0.5l2.3-2.1l0.8-0.8h1.3l1,0.3l2.1,0.8l2.6-1h0.5h0.5l2.1,0.5l2.6,1.6l0.5,0.3l2.3,2.3l3.7,4.4l2.1,3.7v2.6l-0.3,0.5
	l-0.5,0.5l-0.3,0.5l-0.3,1l-0.3,0.8v0.5l0.3,0.3l1.3,1l0.8,0.3l0.3,0.8v0.5l-0.8,1l1-1.3l4.7-1.3l1.6-1.8l0.3-0.8v-0.8l-1-3.1
	l-0.8-0.5l-1-0.8l-0.3-0.3l-0.3-1l1.8-1.6l2.1-1.6l0.5,0.3l1.3,1.8l0.8,1.6l1.3,0.8l4.2,1.6l3.7,1l8.4,3.1l1.6,1v0.5l0.3,0.8
	l-0.3,0.3l-5.5,0.8h-0.8h-0.5l-1.8-0.5l-3.4-0.5h-0.8l-0.5,0.3l-0.5,0.5l-0.5,1l-0.5,1.8v1.8l0.3,0.3l3.1,2.6l1.3,0.3h0.3l1,1.3
	l1,2.3l0.5,1.6l1.3,0.8l0.8,0.3l0.3,0.5v0.8l0.5,0.5v-0.5l0.5-0.3l0.8,1l-0.5,0.3h-0.5h-0.5l-0.5-0.3h-0.5l-0.3,0.3l-0.3,0.3l-0.5,1
	l-0.3,0.5v0.5l0.3,2.6v0.8l0.5,0.3l0.5,0.3h0.5l1-1.3l0.8-1.3l0.3-0.5l0.3-0.3h0.8l2.6,1.3l0.8,0.3l0.5,0.8l0.3,0.5l0.5,0.5l1.6,1
	h0.5l0.3-0.8v-0.5l0.3-0.5l0.5-0.3h1.8l0.3,0.3l0.3,0.3v0.5v0.8l-1.3,1.8l-1,2.1l1,1.8l0.3,1.6l-0.5,3.7l-0.3,1.3l-1.3,3.9l-0.3,0.5
	l-1.6,0.3h-1l-0.5-0.3l-0.8-0.5l-3.4-3.1l-0.5-1.6l-0.5-1l-0.3-3.7l0.8-1.3l0.8,0.3l0.5,0.3l1,0.3l2.9-1l0.3-0.3l0.3-0.3l0.5-1.3
	v-0.3l-0.3-0.5l-0.5-0.5l-4.4-0.3l-0.3,0.3L240,224l-0.8,1.6l-1,0.8l-0.8,0.5l-2.6,0.3l-3.1-1l-1.6-0.8l-2.9-2.1l-0.5-0.3l-1.3-1.6
	l-1.3-0.5h-0.3l-1.3,0.5l-0.5,0.3l-0.5,0.3H221l-0.5-0.8l-0.5-0.5l-0.3-2.3l0.3-1l0.5-1l-2.3-3.9l-1.3-3.1v-0.8l-0.3-0.5l-0.5-0.8
	l-0.8-0.3l-1-0.8l-2.3-0.8l-0.5-0.3l-1.3-0.5h-0.5H209l-3.1-1.8l-1.8-1.8l-0.3-0.5V200l1-1.3l-0.3-0.8l-0.5-0.8l-2.3-1.8l-5.5-3.7
	l-1.8-1.6l-1.3,0.5l-0.8,2.9l-0.5,4.7v0.5l0.8,1.6l2.6,3.9l1,1l0.8,0.8l0.5,1l0.5,0.8l0.3,0.8l0.3,1l0.8,4.2l0.3,0.8v0.3l-2.9,1.8
	l-0.5,0.3h-0.3h-0.5l-0.8-0.8l-1.3-1.6v-1.6v-1v-0.5l-0.3-0.8l-0.8-2.1l-3.1-3.9l-2.6-2.1l-0.5-0.5l-1.6-0.3l-0.8,0.3l-1.3-0.3
	l-1-2.3l-2.3-3.1l-1.6-0.5l-5.2-2.6l-2.9-1.6l-0.3-0.3l-0.3-0.3l0.3-0.8l-2.3-0.8l-1-0.3l-0.8,0.3l-7.6,4.4l-0.3,0.5l-0.8,1
	l-0.3,0.5v0.8l-1.6,3.1l-1,0.3l-0.8,0.8l-2.1,1.6l-1.6-1.3l-1.6-0.5h-0.8l-1,0.3l-2.6-0.8l0.3-1.8l-0.5-1.6l-0.3-0.3l-0.8-0.3
	l-0.8-0.3l-0.8,0.3h-1.6l-0.3-2.9l-0.3-0.8l-0.5-0.5l-0.3-0.3h-0.3l-3.9-1h-0.5H132l-0.8,0.3l-0.3,0.3l-1.6,1.8v1.3l0.3,0.5l0.3,0.8
	v0.3l-0.5,0.5l-1-1.6l-0.3-2.3l-0.3-2.3l0.3-0.8l-0.5-5.2l-1-0.8l0.5-2.6v-0.5l1.3-1.3l0.3-0.3l0.5-0.3h0.5h0.3l1-0.3l1.6-1l0.5-0.3
	l2.3-2.3l2.1-2.1l2.6-0.8l0.3-0.5l0.3-0.8v-0.8v-0.5l-1-2.6l-0.3-0.5l-0.3-0.5l-0.5-0.5l-0.3-0.5l-0.5-0.5l-0.8-0.5l-1.6-1.6h-1.6
	l-0.8,0.3h-0.5l-2.6-0.5l-2.1-1.3l-1.8-0.8l-0.5,0.3v3.4v0.5l0.3,0.5l0.8,1.3l1,4.7l0.3,0.8l-0.3,0.5l-0.3,0.8l-0.5,0.8l-0.8,0.5
	h-0.8l-1.6-0.3l-1.3-0.3l-2.1-0.5l-0.3-0.5l-0.3-1.3V170l-2.1-3.4l-0.5-0.3l-1.6-1.8l-0.3-0.5l0.3-1v-1.3l0.8-0.3l0.5-1l-1.6-1.3
	l-1,0.5l-0.3,0.5l-0.3,1.6l-0.3,0.5l-0.5,0.3l-0.8,0.3l-0.8-0.5h-0.3l-1.3-1l-1-3.7v-1.6v-0.5l0.3-1.3v-1.3V152l-0.3-1.8l-0.5-2.3
	l-1-3.4l-0.3-0.5l-1.3-2.3l-0.8-1.3l-1-0.8l-0.3-0.8l-0.3-0.3l0.3-1.6v-0.5l1.8-1l-1.6-3.4l0.3-2.9l-0.8-3.4l0.5-1.3v-0.5l-1.8-3.9
	l-1.3,0.5l-0.3,0.8l-1.3,0.3l-0.5-1.3v-7.6l1-5l0.3-0.5l0.3-0.5l0.8-0.5l2.1-1.3l1.3,0.5l0.3,0.8v1l-0.5,1.6l0.5,1.6l2.6,2.1
	l2.9,2.3v0.5l0.3,1l0.8,0.5l1,0.8h0.8h0.5h0.3h1l0.8-0.3l0.8-0.3l1.8-1l1-0.5l1-1l0.3-0.3l0.5-1l0.3-0.3l-0.3-1.3l-0.5-1.3l-0.5-0.8
	l-0.8-0.8l-0.8-5l-0.8-5.2v-1.8l1.6-7.8l0.8-0.3l0.3-0.5l1.8-3.1v-0.5v-0.5v-0.5v-0.8v-0.8l-0.8-4.2v-0.5l0.8-6l0.3-1v-0.8l-1.3-3.4
	l-1-1l-0.5,0.3h-0.3l-0.8-0.8l-0.3-0.5l0.8-2.3l0.3-1.6l0.8-0.3l1-0.5l0.5-1l0.5-3.1l-0.3-3.7l1-5.2l1.3-3.9l0.3-0.5l0.3-0.3
	l0.8-1.3l1.3-2.3v-0.5l0.3-1.3V35l-0.3-1l-0.5-1l-0.3-0.5l-0.3-0.5l0.3-0.5l0.3-0.5l1.6-1.3l1.3,0.3l0.3,0.3l0.8,0.3h0.5h0.8
	l0.5-0.3l0.5-0.3l0.5-0.5l2.9-1.8l1,1l0.5,0.5h0.5h0.8l0.5-0.5l0.3-0.5h0.3l1.3-0.5l2.6-0.5l0.5-0.3h1l0.8,0.3l0.8,0.8l1,0.5
	L148.6,28.7z M169.5,19.3l-1,0.5l-0.3-0.3l-0.5-1.6v-0.5l1.3-3.4l0.5-0.3l0.8-0.8h0.8l0.5,0.3l1.6,1.3l-0.3,0.8L169.5,19.3z
	 M157.8,4.2L157,4.7l-3.1-1l-0.8-1l-0.8-1.3V0.8l0.8-0.8h4.4l0.3,1l0.3,2.3v0.5L157.8,4.2z"/>
</svg>
