<?xml version="1.0" encoding="utf-8" ?>
<svg baseProfile="full" height="1650.0" version="1.1" width="1275.0" xmlns="http://www.w3.org/2000/svg" xmlns:ev="http://www.w3.org/2001/xml-events" xmlns:xlink="http://www.w3.org/1999/xlink"><defs><g id="field"><rect fill="none" height="123.192141219" stroke="#000000" stroke-width="4" width="164.256188292" x="0" y="0" /><line stroke="#000000" stroke-width="2" x1="82.1280941461" x2="82.1280941461" y1="0" y2="123.192141219" /><circle cx="82.1280941461" cy="61.5960706096" fill="none" r="18.4788211829" stroke="#000000" stroke-width="2" /><rect fill="none" height="61.5960706096" stroke="#000000" stroke-width="2" width="32.8512376584" x="0" y="30.7980353048" /><rect fill="none" height="61.5960706096" stroke="#000000" stroke-width="2" width="32.8512376584" x="131.404950634" y="30.7980353048" /></g></defs><g id="fields"><use transform="translate(575.90392939,436.097715891) rotate(-90.0)" xlink:href="#field" /><use transform="translate(699.09607061,436.097715891) rotate(-72.0)" xlink:href="#field" /><use transform="translate(816.258759272,474.166181101) rotate(-54.0)" xlink:href="#field" /><use transform="translate(915.923295092,546.576704908) rotate(-36.0)" xlink:href="#field" /><use transform="translate(988.333818899,646.241240728) rotate(-18.0)" xlink:href="#field" /><use transform="translate(1026.40228411,763.40392939) rotate(0.0)" xlink:href="#field" /><use transform="translate(1026.40228411,886.59607061) rotate(18.0)" xlink:href="#field" /><use transform="translate(988.333818899,1003.75875927) rotate(36.0)" xlink:href="#field" /><use transform="translate(915.923295092,1103.42329509) rotate(54.0)" xlink:href="#field" /><use transform="translate(816.258759272,1175.8338189) rotate(72.0)" xlink:href="#field" /><use transform="translate(699.09607061,1213.90228411) rotate(90.0)" xlink:href="#field" /><use transform="translate(575.90392939,1213.90228411) rotate(108.0)" xlink:href="#field" /><use transform="translate(458.741240728,1175.8338189) rotate(126.0)" xlink:href="#field" /><use transform="translate(359.076704908,1103.42329509) rotate(144.0)" xlink:href="#field" /><use transform="translate(286.666181101,1003.75875927) rotate(162.0)" xlink:href="#field" /><use transform="translate(248.597715891,886.59607061) rotate(180.0)" xlink:href="#field" /><use transform="translate(248.597715891,763.40392939) rotate(198.0)" xlink:href="#field" /><use transform="translate(286.666181101,646.241240728) rotate(216.0)" xlink:href="#field" /><use transform="translate(359.076704908,546.576704908) rotate(234.0)" xlink:href="#field" /><use transform="translate(458.741240728,474.166181101) rotate(252.0)" xlink:href="#field" /></g><g id="labels"><text alignment-baseline="middle" font-size="40" text-anchor="middle" x="637.5" y="486.375">60</text><text alignment-baseline="middle" font-size="40" text-anchor="middle" x="976.125" y="825.0">15</text><text alignment-baseline="middle" font-size="40" text-anchor="middle" x="637.5" y="1163.625">30</text><text alignment-baseline="middle" font-size="40" text-anchor="middle" x="298.875" y="825.0">45</text></g><g id="clock"><path d="M637.5,562.36875 L647.5,825.0 Q637.5,840.0 627.5,825.0 Z" fill="none" stroke="#000000" stroke-width="4" /></g></svg>