<?xml version="1.0" encoding="utf-8" ?>
<svg baseProfile="full" height="792.0" version="1.1" width="612.0" xmlns="http://www.w3.org/2000/svg" xmlns:ev="http://www.w3.org/2001/xml-events" xmlns:xlink="http://www.w3.org/1999/xlink"><defs><g id="field"><rect fill="none" height="59.1322277852" stroke="#000000" stroke-width="3.0" width="78.8429703803" x="0" y="0" /><line stroke="#000000" stroke-width="1.5" x1="39.4214851901" x2="39.4214851901" y1="0" y2="59.1322277852" /><circle cx="39.4214851901" cy="29.5661138926" fill="none" r="8.86983416778" stroke="#000000" stroke-width="1.5" /><rect fill="none" height="29.5661138926" stroke="#000000" stroke-width="1.5" width="15.7685940761" x="0" y="14.7830569463" /><rect fill="none" height="29.5661138926" stroke="#000000" stroke-width="1.5" width="15.7685940761" x="63.0743763042" y="14.7830569463" /></g></defs><g id="fields"><use transform="translate(276.433886107,209.326903628) rotate(-90.0)" xlink:href="#field" /><use transform="translate(335.566113893,209.326903628) rotate(-72.0)" xlink:href="#field" /><use transform="translate(391.804204451,227.599766928) rotate(-54.0)" xlink:href="#field" /><use transform="translate(439.643181644,262.356818356) rotate(-36.0)" xlink:href="#field" /><use transform="translate(474.400233072,310.195795549) rotate(-18.0)" xlink:href="#field" /><use transform="translate(492.673096372,366.433886107) rotate(0.0)" xlink:href="#field" /><use transform="translate(492.673096372,425.566113893) rotate(18.0)" xlink:href="#field" /><use transform="translate(474.400233072,481.804204451) rotate(36.0)" xlink:href="#field" /><use transform="translate(439.643181644,529.643181644) rotate(54.0)" xlink:href="#field" /><use transform="translate(391.804204451,564.400233072) rotate(72.0)" xlink:href="#field" /><use transform="translate(335.566113893,582.673096372) rotate(90.0)" xlink:href="#field" /><use transform="translate(276.433886107,582.673096372) rotate(108.0)" xlink:href="#field" /><use transform="translate(220.195795549,564.400233072) rotate(126.0)" xlink:href="#field" /><use transform="translate(172.356818356,529.643181644) rotate(144.0)" xlink:href="#field" /><use transform="translate(137.599766928,481.804204451) rotate(162.0)" xlink:href="#field" /><use transform="translate(119.326903628,425.566113893) rotate(180.0)" xlink:href="#field" /><use transform="translate(119.326903628,366.433886107) rotate(198.0)" xlink:href="#field" /><use transform="translate(137.599766928,310.195795549) rotate(216.0)" xlink:href="#field" /><use transform="translate(172.356818356,262.356818356) rotate(234.0)" xlink:href="#field" /><use transform="translate(220.195795549,227.599766928) rotate(252.0)" xlink:href="#field" /></g><g id="labels"><text alignment-baseline="middle" font-size="24" text-anchor="middle" x="306.0" y="233.46">60</text><text alignment-baseline="middle" font-size="24" text-anchor="middle" x="468.54" y="396.0">15</text><text alignment-baseline="middle" font-size="24" text-anchor="middle" x="306.0" y="558.54">30</text><text alignment-baseline="middle" font-size="24" text-anchor="middle" x="143.46" y="396.0">45</text></g><g id="clock"><path d="M306.0,269.937 L311.0,396.0 Q306.0,403.5 301.0,396.0 Z" fill="none" stroke="#000000" stroke-width="2" /></g></svg>