<?xml version="1.0" encoding="utf-8" ?>
<svg baseProfile="full" height="1170.0" version="1.1" width="820.0" xmlns="http://www.w3.org/2000/svg" xmlns:ev="http://www.w3.org/2001/xml-events" xmlns:xlink="http://www.w3.org/1999/xlink"><defs><g id="field"><rect fill="none" height="150.0" stroke="#000000" stroke-width="4" width="200.0" x="0" y="0" /><line stroke="#000000" stroke-width="2" x1="100.0" x2="100.0" y1="0" y2="150.0" /><circle cx="100.0" cy="75.0" fill="none" r="22.5" stroke="#000000" stroke-width="2" /><rect fill="none" height="75.0" stroke="#000000" stroke-width="2" width="40.0" x="0" y="37.5" /><rect fill="none" height="75.0" stroke="#000000" stroke-width="2" width="40.0" x="160.0" y="37.5" /></g></defs><g id="field0" transform="translate(60.0,60) scale(0.85) rotate(45 100.0 75.0)"><use xlink:href="#field" /></g><g id="field1" transform="translate(260.0,60) scale(0.85) rotate(45 100.0 75.0)"><use xlink:href="#field" /></g><g id="field2" transform="translate(460.0,60) scale(0.85) rotate(45 100.0 75.0)"><use xlink:href="#field" /></g><g id="field3" transform="translate(160.0,187.5) scale(0.85) rotate(-45 100.0 75.0)"><use xlink:href="#field" /></g><g id="field4" transform="translate(360.0,187.5) scale(0.85) rotate(-45 100.0 75.0)"><use xlink:href="#field" /></g><g id="field5" transform="translate(560.0,187.5) scale(0.85) rotate(-45 100.0 75.0)"><use xlink:href="#field" /></g><g id="field6" transform="translate(60.0,315.0) scale(0.85) rotate(45 100.0 75.0)"><use xlink:href="#field" /></g><g id="field7" transform="translate(260.0,315.0) scale(0.85) rotate(45 100.0 75.0)"><use xlink:href="#field" /></g><g id="field8" transform="translate(460.0,315.0) scale(0.85) rotate(45 100.0 75.0)"><use xlink:href="#field" /></g><g id="field9" transform="translate(160.0,442.5) scale(0.85) rotate(-45 100.0 75.0)"><use xlink:href="#field" /></g><g id="field10" transform="translate(360.0,442.5) scale(0.85) rotate(-45 100.0 75.0)"><use xlink:href="#field" /></g><g id="field11" transform="translate(560.0,442.5) scale(0.85) rotate(-45 100.0 75.0)"><use xlink:href="#field" /></g><g id="field12" transform="translate(60.0,570.0) scale(0.85) rotate(45 100.0 75.0)"><use xlink:href="#field" /></g><g id="field13" transform="translate(260.0,570.0) scale(0.85) rotate(45 100.0 75.0)"><use xlink:href="#field" /></g><g id="field14" transform="translate(460.0,570.0) scale(0.85) rotate(45 100.0 75.0)"><use xlink:href="#field" /></g><g id="field15" transform="translate(160.0,697.5) scale(0.85) rotate(-45 100.0 75.0)"><use xlink:href="#field" /></g><g id="field16" transform="translate(360.0,697.5) scale(0.85) rotate(-45 100.0 75.0)"><use xlink:href="#field" /></g><g id="field17" transform="translate(560.0,697.5) scale(0.85) rotate(-45 100.0 75.0)"><use xlink:href="#field" /></g><g id="field18" transform="translate(260.0,825.0) scale(0.85) rotate(45 100.0 75.0)"><use xlink:href="#field" /></g><g id="field19" transform="translate(460.0,825.0) scale(0.85) rotate(45 100.0 75.0)"><use xlink:href="#field" /></g></svg>