<?xml version="1.0" encoding="UTF-8" standalone="no"?>
<svg
   xmlns:dc="http://purl.org/dc/elements/1.1/"
   xmlns:cc="http://creativecommons.org/ns#"
   xmlns:rdf="http://www.w3.org/1999/02/22-rdf-syntax-ns#"
   xmlns:svg="http://www.w3.org/2000/svg"
   xmlns="http://www.w3.org/2000/svg"
   version="1.2"
   x="0px"
   y="0px"
   viewBox="0 0 90 60"
   xml:space="preserve"
   id="svg8"
   width="90"
   height="60"><metadata
     id="metadata14"><rdf:RDF><cc:Work
         rdf:about=""><dc:format>image/svg+xml</dc:format><dc:type
           rdf:resource="http://purl.org/dc/dcmitype/StillImage" /><dc:title></dc:title></cc:Work></rdf:RDF></metadata><defs
     id="defs12" /><path
     id="path2"
     d="M 57.5 0 C 55.548 0 53.770141 0.99039063 52.744141 2.6503906 C 51.718141 4.3103906 51.627 6.3438438 52.5 8.0898438 L 56.417969 15.923828 L 35.058594 22.025391 L 31.544922 15 L 37.5 15 L 37.5 10 L 22.5 10 L 22.5 15 L 25.955078 15 L 30.738281 24.568359 L 27.443359 28.117188 C 24.616359 26.157188 21.193 25 17.5 25 C 7.851 25 0 32.851 0 42.5 C 0 52.149 7.851 60 17.5 60 C 26.298 60 33.581781 53.466 34.800781 45 L 35.4375 45 C 36.4705 47.908 39.241 50 42.5 50 C 46.636 50 50 46.636 50 42.5 C 50 40.877 49.477656 39.376438 48.597656 38.148438 L 59.640625 22.371094 L 62.525391 28.140625 C 57.984391 31.305625 55 36.557 55 42.5 C 55 52.149 62.851 60 72.5 60 C 82.149 60 90 52.149 90 42.5 C 90 32.851 82.149 25 72.5 25 C 70.576 25 68.727141 25.323391 66.994141 25.900391 L 56.972656 5.8535156 C 56.850656 5.6105156 56.919047 5.4072969 56.998047 5.2792969 C 57.077047 5.1512969 57.228 5 57.5 5 C 60.257 5 62.5 7.243 62.5 10 L 67.5 10 C 67.5 4.486 63.014 0 57.5 0 z M 53.910156 21.839844 L 44.503906 35.279297 C 43.864906 35.101297 43.194 35 42.5 35 C 42.187 35 41.880172 35.0255 41.576172 35.0625 L 37.332031 26.576172 L 53.910156 21.839844 z M 33.126953 29.345703 L 37.105469 37.302734 C 36.371469 38.064734 35.7985 38.982 35.4375 40 L 34.800781 40 C 34.342781 36.819 33.040422 33.909531 31.107422 31.519531 L 33.126953 29.345703 z " /><text
     x="-5"
     y="95"
     font-size="5px"
     font-weight="bold"
     id="text4"
     style="font-weight:bold;font-size:5px;font-family:'Helvetica Neue', Helvetica, Arial-Unicode, Arial, Sans-serif;fill:#000000">Created by Arthur Shlain</text>
<text
     x="-5"
     y="100"
     font-size="5px"
     font-weight="bold"
     id="text6"
     style="font-weight:bold;font-size:5px;font-family:'Helvetica Neue', Helvetica, Arial-Unicode, Arial, Sans-serif;fill:#000000">from the Noun Project</text>
</svg>