<?xml version="1.0" encoding="UTF-8" standalone="no"?>
<svg
   xmlns:dc="http://purl.org/dc/elements/1.1/"
   xmlns:cc="http://creativecommons.org/ns#"
   xmlns:rdf="http://www.w3.org/1999/02/22-rdf-syntax-ns#"
   xmlns:svg="http://www.w3.org/2000/svg"
   xmlns="http://www.w3.org/2000/svg"
   height="60"
   width="90"
   id="svg8"
   xml:space="preserve"
   viewBox="0 0 90 60"
   y="0px"
   x="0px"
   version="1.2"><metadata
     id="metadata14"><rdf:RDF><cc:Work
         rdf:about=""><dc:format>image/svg+xml</dc:format><dc:type
           rdf:resource="http://purl.org/dc/dcmitype/StillImage" /><dc:title></dc:title></cc:Work></rdf:RDF></metadata><defs
     id="defs12" /><path
     id="path2"
     d="m 72.5,25 c -1.924,0 -3.772,0.324 -5.505,0.901 L 56.972,5.854 C 56.85,5.611 56.919,5.408 56.998,5.28 57.077,5.152 57.228,5 57.5,5 c 2.757,0 5,2.243 5,5 h 5 C 67.5,4.486 63.014,0 57.5,0 55.548,0 53.771,0.991 52.745,2.651 51.719,4.311 51.627,6.344 52.5,8.09 L 56.417,15.923 35.058,22.025 31.545,15 H 37.5 v -5 h -15 v 5 h 3.455 l 4.784,9.568 -3.295,3.549 C 24.617,26.157 21.193,25 17.5,25 7.851,25 0,32.851 0,42.5 0,52.149 7.851,60 17.5,60 26.298,60 33.581,53.466 34.8,45 h 0.637 c 1.033,2.908 3.804,5 7.063,5 4.136,0 7.5,-3.364 7.5,-7.5 0,-1.623 -0.523,-3.123 -1.403,-4.351 L 59.641,22.372 62.525,28.14 C 57.984,31.305 55,36.557 55,42.5 55,52.149 62.851,60 72.5,60 82.149,60 90,52.149 90,42.5 90,32.851 82.149,25 72.5,25 Z m -55,27.5 c -5.514,0 -10,-4.486 -10,-10 0,-5.514 4.486,-10 10,-10 1.72,0 3.34,0.437 4.755,1.205 L 15.668,40.799 17.5,45 h 9.671 c -1.115,4.306 -5.021,7.5 -9.671,7.5 z m 5.733,-12.5 2.68,-2.886 c 0.564,0.878 0.99,1.849 1.258,2.886 z m 12.205,0 H 34.8 c -0.458,-3.181 -1.76,-6.09 -3.693,-8.48 l 2.02,-2.175 3.978,7.957 C 36.371,38.064 35.799,38.982 35.438,40 Z M 42.5,45 C 41.122,45 40,43.878 40,42.5 40,41.122 41.122,40 42.5,40 c 1.378,0 2.5,1.122 2.5,2.5 0,1.378 -1.122,2.5 -2.5,2.5 z m 2.003,-9.72 C 43.864,35.102 43.194,35 42.5,35 c -0.313,0 -0.62,0.026 -0.924,0.063 L 37.333,26.576 53.911,21.84 Z M 72.5,52.5 c -5.514,0 -10,-4.486 -10,-10 0,-3.003 1.337,-5.695 3.44,-7.53 l 4.324,8.648 4.472,-2.236 -4.329,-8.658 C 71.083,32.58 71.782,32.5 72.5,32.5 c 5.514,0 10,4.486 10,10 0,5.514 -4.486,10 -10,10 z" /><text
     style="font-weight:bold;font-size:5px;font-family:'Helvetica Neue', Helvetica, Arial-Unicode, Arial, Sans-serif;fill:#000000"
     id="text4"
     font-weight="bold"
     font-size="5px"
     y="95"
     x="-5">Created by Arthur Shlain</text>
<text
     style="font-weight:bold;font-size:5px;font-family:'Helvetica Neue', Helvetica, Arial-Unicode, Arial, Sans-serif;fill:#000000"
     id="text6"
     font-weight="bold"
     font-size="5px"
     y="100"
     x="-5">from the Noun Project</text>
</svg>