<?xml version="1.0" encoding="utf-8"?>
<!-- Generated by IcoMoon.io -->
<!DOCTYPE svg PUBLIC "-//W3C//DTD SVG 1.1//EN" "http://www.w3.org/Graphics/SVG/1.1/DTD/svg11.dtd">
<svg version="1.1" xmlns="http://www.w3.org/2000/svg" xmlns:xlink="http://www.w3.org/1999/xlink" width="36" height="28" viewBox="0 0 36 28">
<path d="M11.906 18h-4.906c-0.828 0-1.297-0.938-0.797-1.594l2.938-3.922c-0.656-0.313-1.375-0.484-2.141-0.484-2.75 0-5 2.25-5 5s2.25 5 5 5c2.422 0 4.438-1.719 4.906-4zM9 16h2.906c-0.187-0.875-0.594-1.672-1.172-2.312zM16.5 16l4.5-6h-7.5l-1.547 2.063c1.047 1.031 1.75 2.406 1.969 3.938h2.578zM34 17c0-2.75-2.25-5-5-5-0.672 0-1.297 0.141-1.891 0.375l2.719 4.062c0.313 0.469 0.187 1.094-0.266 1.391-0.172 0.125-0.375 0.172-0.562 0.172-0.328 0-0.641-0.156-0.828-0.453l-2.719-4.062c-0.891 0.906-1.453 2.141-1.453 3.516 0 2.75 2.25 5 5 5s5-2.25 5-5zM36 17c0 3.859-3.141 7-7 7s-7-3.141-7-7c0-2.063 0.906-3.922 2.328-5.203l-1.016-1.531-5.516 7.328c-0.187 0.266-0.484 0.406-0.797 0.406h-3.078c-0.484 3.391-3.391 6-6.922 6-3.859 0-7-3.141-7-7s3.141-7 7-7c1.219 0 2.359 0.313 3.359 0.859l2.141-2.859h-3.5c-0.547 0-1-0.453-1-1s0.453-1 1-1h6v2h6.797l-1.328-2h-3.469c-0.547 0-1-0.453-1-1s0.453-1 1-1h4c0.328 0 0.641 0.172 0.828 0.438l4.172 6.25c0.906-0.438 1.922-0.688 3-0.688 3.859 0 7 3.141 7 7z"></path>
</svg>
