<?xml version="1.0" encoding="UTF-8" standalone="no"?>
<svg
   xmlns:dc="http://purl.org/dc/elements/1.1/"
   xmlns:cc="http://creativecommons.org/ns#"
   xmlns:rdf="http://www.w3.org/1999/02/22-rdf-syntax-ns#"
   xmlns:svg="http://www.w3.org/2000/svg"
   xmlns="http://www.w3.org/2000/svg"
   id="svg4"
   viewBox="0 0 36.000999 20"
   height="20"
   width="36.000999"
   version="1.1">
  <metadata
     id="metadata10">
    <rdf:RDF>
      <cc:Work
         rdf:about="">
        <dc:format>image/svg+xml</dc:format>
        <dc:type
           rdf:resource="http://purl.org/dc/dcmitype/StillImage" />
        <dc:title></dc:title>
      </cc:Work>
    </rdf:RDF>
  </metadata>
  <defs
     id="defs8" />
  <path
     id="path2"
     d="M 11.907,14 H 7.001 C 6.173,14 5.704,13.062 6.204,12.406 L 9.142,8.484 C 8.486,8.171 7.767,8 7.001,8 c -2.75,0 -5,2.25 -5,5 0,2.75 2.25,5 5,5 2.422,0 4.438,-1.719 4.906,-4 z M 9.001,12 h 2.906 C 11.72,11.125 11.313,10.328 10.735,9.688 Z m 7.5,0 4.5,-6 h -7.5 l -1.547,2.063 c 1.047,1.031 1.75,2.406 1.969,3.938 h 2.578 z m 17.5,1 c 0,-2.75 -2.25,-5 -5,-5 -0.672,0 -1.297,0.141 -1.891,0.375 l 2.719,4.062 c 0.313,0.469 0.187,1.094 -0.266,1.391 C 29.391,13.953 29.188,14 29.001,14 28.673,14 28.36,13.844 28.173,13.547 L 25.454,9.485 c -0.891,0.906 -1.453,2.141 -1.453,3.516 0,2.75 2.25,5 5,5 2.75,0 5,-2.25 5,-5 z m 2,0 c 0,3.859 -3.141,7 -7,7 -3.859,0 -7,-3.141 -7,-7 0,-2.063 0.906,-3.922 2.328,-5.203 L 23.313,6.266 17.797,13.594 C 17.61,13.86 17.313,14 17,14 H 13.922 C 13.438,17.391 10.531,20 7,20 3.141,20 0,16.859 0,13 0,9.141 3.141,6 7,6 8.219,6 9.359,6.313 10.359,6.859 L 12.5,4 H 9 C 8.453,4 8,3.547 8,3 8,2.453 8.453,2 9,2 h 6 v 2 h 6.797 L 20.469,2 H 17 C 16.453,2 16,1.547 16,1 16,0.453 16.453,0 17,0 h 4 c 0.328,0 0.641,0.172 0.828,0.438 L 26,6.688 C 26.906,6.25 27.922,6 29,6 c 3.859,0 7,3.141 7,7 z" />
</svg>
