<?xml version="1.0" encoding="UTF-8" standalone="no"?>
<svg
   xmlns:dc="http://purl.org/dc/elements/1.1/"
   xmlns:cc="http://creativecommons.org/ns#"
   xmlns:rdf="http://www.w3.org/1999/02/22-rdf-syntax-ns#"
   xmlns:svg="http://www.w3.org/2000/svg"
   xmlns="http://www.w3.org/2000/svg"
   id="svg4"
   xml:space="preserve"
   enable-background="new 0 0 100 73.684"
   viewBox="0 0 100 73.684"
   y="0px"
   x="0px"
   version="1.1"><metadata
     id="metadata10"><rdf:RDF><cc:Work
         rdf:about=""><dc:format>image/svg+xml</dc:format><dc:type
           rdf:resource="http://purl.org/dc/dcmitype/StillImage" /><dc:title></dc:title></cc:Work></rdf:RDF></metadata><defs
     id="defs8" /><path
     id="path2"
     d="M 65.789062 0 L 63.15625 5.2636719 L 73.683594 9.2109375 L 73.683594 21.052734 L 36.841797 21.052734 L 36.841797 15.789062 L 42.105469 15.789062 L 42.105469 13.158203 C 42.105469 11.863203 40.767656 10.527344 39.472656 10.527344 L 26.314453 10.527344 C 23.682453 10.527344 23.683594 13.158203 23.683594 13.158203 L 23.683594 15.789062 L 31.578125 15.789062 L 31.578125 21.052734 L 25.986328 32.236328 C 24.408328 31.858328 22.744734 31.578125 21.052734 31.578125 C 9.4257344 31.578125 0 41.003859 0 52.630859 C 0 64.258859 9.4247344 73.683594 21.052734 73.683594 C 32.678734 73.683594 42.105469 64.258859 42.105469 52.630859 L 50 52.630859 C 52.632 52.630859 52.630859 50 52.630859 50 C 53.171859 42.261 57.157984 36.189328 62.333984 32.236328 C 65.912984 29.504328 69.771594 27.819609 73.683594 26.974609 L 73.683594 30.263672 L 73.683594 32.400391 C 64.608594 34.740391 57.894531 42.823859 57.894531 52.630859 C 57.894531 64.258859 67.319312 73.683594 78.945312 73.683594 C 90.572312 73.683594 100 64.258859 100 52.630859 C 100 43.009859 93.519125 35.078406 84.703125 32.566406 L 78.945312 21.052734 L 78.945312 7.8964844 C 78.945312 6.3704844 77.722406 4.6732813 76.316406 4.1132812 L 65.789062 0 z M 36.841797 26.316406 L 60.527344 26.316406 C 55.262344 28.948406 47.367188 42.104141 47.367188 47.369141 L 41.283203 47.367188 C 39.952203 42.208188 36.914406 37.864203 32.566406 35.033203 L 36.841797 26.316406 z " /></svg>