<svg xmlns="http://www.w3.org/2000/svg" xmlns:xlink="http://www.w3.org/1999/xlink" version="1.1" x="0px" y="0px" viewBox="0 0 100 125" enable-background="new 0 0 100 100" xml:space="preserve"><g><path d="M98.5,39c-0.275,0-0.95,0-1.5,0h-1c-0.55,0-1,0.45-1,1v15c0,0.55,0.45,1,1,1h1c0.55,0,1.225,0,1.5,0s0.5-0.225,0.5-0.5   s0-15.725,0-16S98.775,39,98.5,39z"/><path d="M20.208,62.5c-3.729,0-6.75,3.019-6.75,6.749c0,3.732,3.021,6.751,6.75,6.751c3.723,0,6.75-3.019,6.75-6.751   C26.958,65.519,23.931,62.5,20.208,62.5z M20.208,72.931c-2.037,0-3.683-1.643-3.683-3.682c0-2.036,1.646-3.68,3.683-3.68   c2.029,0,3.681,1.644,3.681,3.68C23.889,71.288,22.237,72.931,20.208,72.931z"/><path d="M79.676,62.5c-3.726,0-6.75,3.019-6.75,6.749c0,3.732,3.024,6.751,6.75,6.751c3.725,0,6.751-3.019,6.751-6.751   C86.427,65.519,83.4,62.5,79.676,62.5z M79.676,72.931c-2.034,0-3.68-1.643-3.68-3.682c0-2.036,1.646-3.68,3.68-3.68   c2.032,0,3.677,1.644,3.677,3.68C83.353,71.288,81.708,72.931,79.676,72.931z"/><path d="M3,58v-6c0-0.55-0.45-1-1-1s-1,0.45-1,1v6c0,0.55,0.45,1,1,1S3,58.55,3,58z"/></g><path d="M95.129,58C94,58,93,57,93,55.832C93,55,93,40.219,93,39s0.698-2,2.218-2c1.521,0,3.653,0,3.653,0s0-6-5.748-6  c-0.566,0-13.51,0-29.123,0v-1c0-0.55-0.45-1-1-1H36c-0.55,0-1,0.45-1,1v1c-13.193,0-24.031,0-26.296,0C5.071,31,2,32.833,2,36.666  C2,38.887,2,43.603,2,50h1.107C3.612,50,4,50.517,4,51.021v8.176C4,59.7,3.612,60,3.107,60H2c0,0.611,0,2.962,0,3.5  C2,69.249,8.7,69,8.7,69h1.922c0-5.178,4.291-9.37,9.586-9.37c5.293,0,9.58,4.192,9.58,9.37H70.04c0-5.178,4.291-9.37,9.582-9.37  C84.916,59.63,89,63.822,89,69h4.131c0,0,5.869,0.249,5.869-5.5c0-2.233,0-0.623,0-5.5C99,58,97.479,58,95.129,58z M21,50H8V37h13  V50z M37,50H24V37h13V50z M53,50H40V37h13V50z M69,50H56V37h13V50z M85,50H72V37h13V50z"/><text x="0" y="115" fill="#000000" font-size="5px" font-weight="bold" font-family="'Helvetica Neue', Helvetica, Arial-Unicode, Arial, Sans-serif">Created by Ilsur Aptukov</text><text x="0" y="120" fill="#000000" font-size="5px" font-weight="bold" font-family="'Helvetica Neue', Helvetica, Arial-Unicode, Arial, Sans-serif">from the Noun Project</text></svg>