<?xml version="1.0" encoding="UTF-8" standalone="no"?>
<svg
   xmlns:dc="http://purl.org/dc/elements/1.1/"
   xmlns:cc="http://creativecommons.org/ns#"
   xmlns:rdf="http://www.w3.org/1999/02/22-rdf-syntax-ns#"
   xmlns:svg="http://www.w3.org/2000/svg"
   xmlns="http://www.w3.org/2000/svg"
   height="47"
   width="98"
   id="svg18"
   xml:space="preserve"
   enable-background="new 0 0 100 100"
   viewBox="0 0 98 47"
   y="0px"
   x="0px"
   version="1.1"><metadata
     id="metadata24"><rdf:RDF><cc:Work
         rdf:about=""><dc:format>image/svg+xml</dc:format><dc:type
           rdf:resource="http://purl.org/dc/dcmitype/StillImage" /><dc:title></dc:title></cc:Work></rdf:RDF></metadata><defs
     id="defs22" /><path
     id="path2"
     d="M 35 0 C 34.45 0 34 0.45 34 1 L 34 2 L 7.703125 2 C 4.070125 2 1 3.8330156 1 7.6660156 L 1 19.201172 L 1 21 L 1 22 C 0.45 22 0 22.45 0 23 L 0 29 C 0 29.55 0.45 30 1 30 L 1 31 L 1 31.162109 L 1 34.5 C 1 40.249 7.6992188 40 7.6992188 40 L 9.6210938 40 L 9.6210938 39.998047 L 12.470703 39.998047 C 12.467626 40.081838 12.457031 40.163498 12.457031 40.248047 C 12.457031 43.980047 15.478031 47 19.207031 47 C 22.930031 47 25.957031 43.980047 25.957031 40.248047 C 25.957031 40.16352 25.948395 40.081817 25.945312 39.998047 L 28.787109 39.998047 L 28.787109 40 L 69.039062 40 L 69.039062 39.998047 L 71.939453 39.998047 C 71.936373 40.081838 71.925781 40.163498 71.925781 40.248047 C 71.925781 43.980047 74.949781 47 78.675781 47 C 82.400781 47 85.427734 43.980047 85.427734 40.248047 C 85.427734 40.163498 85.417147 40.081838 85.414062 39.998047 L 88 39.998047 L 88 40 L 92.130859 40 C 92.130859 40 98 40.249 98 34.5 L 98 29.701172 L 98.001953 29.701172 L 98.001953 11.34375 L 98 11.34375 L 98 10.5 C 98 10.373508 97.949271 10.260179 97.871094 10.171875 L 97.871094 8 C 97.871094 8 97.871047 2 92.123047 2 L 63 2 L 63 1 C 63 0.45 62.55 0 62 0 L 35 0 z M 7 8 L 20 8 L 20 21 L 7 21 L 7 8 z M 23 8 L 36 8 L 36 21 L 23 21 L 23 8 z M 39 8 L 52 8 L 52 21 L 39 21 L 39 8 z M 55 8 L 68 8 L 68 21 L 55 21 L 55 8 z M 71 8 L 84 8 L 84 21 L 71 21 L 71 8 z " /><text
     style="font-weight:bold;font-size:5px;font-family:'Helvetica Neue', Helvetica, Arial-Unicode, Arial, Sans-serif;fill:#000000"
     id="text14"
     font-weight="bold"
     font-size="5px"
     y="86"
     x="-1">Created by Ilsur Aptukov</text>
<text
     style="font-weight:bold;font-size:5px;font-family:'Helvetica Neue', Helvetica, Arial-Unicode, Arial, Sans-serif;fill:#000000"
     id="text16"
     font-weight="bold"
     font-size="5px"
     y="91"
     x="-1">from the Noun Project</text>
</svg>