<svg xmlns="http://www.w3.org/2000/svg" xmlns:xlink="http://www.w3.org/1999/xlink" version="1.1" x="0px" y="0px" viewBox="0 0 100 125" enable-background="new 0 0 100 100" xml:space="preserve"><path fill="#000000" d="M1.544,57.845c-0.827,0-1.487-0.666-1.487-1.485v-3.914c0-0.818,0.661-1.473,1.487-1.473l2.613-0.018v-7.656  c0-2.187,1.777-3.958,3.96-3.958l12.834,0l7.596-10.702c1.336-1.779,2.621-2.474,4.667-2.474l32.867,0.032  c2.047,0,3.329,0.694,4.664,2.473l7.577,10.671h13.524c2.183,0,3.957,1.771,3.957,3.958v7.662h2.452  c0.821,0,1.484,0.666,1.484,1.484v3.914c0,0.819-0.663,1.485-1.484,1.485H80.349c-0.924-5.497-5.697-9.686-11.447-9.686  c-5.749,0-10.522,4.181-11.446,9.686H28.688c-0.929-5.476-5.698-9.654-11.441-9.654c-5.741,0-10.503,4.177-11.448,9.654H1.544  L1.544,57.845z M49.752,39.369l19.751-0.03c0.821,0,1.017-0.665,0.434-1.486l-5.091-7.161c-0.75-0.992-1.05-1.066-1.876-1.066  l-13.218,0.032c-0.823,0-1.482,0.664-1.482,1.483v6.743C48.268,38.705,48.932,39.369,49.752,39.369L49.752,39.369z M67.445,42.073  h-3.57c-1.318,0-1.318,1.979,0,1.979h3.577c0.245,0.294,0.625,0.494,1.14,0.494c1.979,0,1.979-2.969-0.014-2.969  C68.071,41.578,67.692,41.777,67.445,42.073L67.445,42.073z M41.522,42.073h-3.569c-1.321,0-1.321,1.979,0,1.979h3.569  c0.254,0.294,0.626,0.494,1.143,0.494c1.98,0,1.98-2.969-0.008-2.969C42.148,41.578,41.768,41.777,41.522,42.073L41.522,42.073z   M31.679,30.693l-5.09,7.161c-0.582,0.819-0.389,1.485,0.433,1.485h16.374c0.823,0,1.484-0.665,1.484-1.485v-6.742  c0-0.82-0.661-1.484-1.484-1.484l-9.841-0.001C32.731,29.626,32.428,29.701,31.679,30.693L31.679,30.693z M64.676,59.775  c0,2.336,1.895,4.229,4.227,4.229c2.337,0,4.231-1.893,4.231-4.229c0-2.335-1.895-4.228-4.231-4.228  C66.57,55.548,64.676,57.44,64.676,59.775L64.676,59.775z M60.258,59.775c0-4.775,3.873-8.641,8.642-8.641  c4.778,0,8.643,3.869,8.643,8.641c0,4.775-3.872,8.646-8.643,8.646C64.127,68.421,60.258,64.551,60.258,59.775L60.258,59.775z   M13.022,59.806c0,2.335,1.895,4.231,4.228,4.231c2.335,0,4.227-1.896,4.227-4.231s-1.892-4.227-4.227-4.227  C14.917,55.579,13.022,57.471,13.022,59.806L13.022,59.806z M8.708,59.775c0-4.775,3.873-8.641,8.642-8.641  c4.781,0,8.641,3.869,8.641,8.641c0,4.775-3.87,8.646-8.641,8.646S8.708,64.551,8.708,59.775L8.708,59.775z"/><text x="0" y="115" fill="#000000" font-size="5px" font-weight="bold" font-family="'Helvetica Neue', Helvetica, Arial-Unicode, Arial, Sans-serif">Created by Simon Child</text><text x="0" y="120" fill="#000000" font-size="5px" font-weight="bold" font-family="'Helvetica Neue', Helvetica, Arial-Unicode, Arial, Sans-serif">from the Noun Project</text></svg>