<?xml version="1.0" encoding="UTF-8" standalone="no"?>
<svg
   xmlns:dc="http://purl.org/dc/elements/1.1/"
   xmlns:cc="http://creativecommons.org/ns#"
   xmlns:rdf="http://www.w3.org/1999/02/22-rdf-syntax-ns#"
   xmlns:svg="http://www.w3.org/2000/svg"
   xmlns="http://www.w3.org/2000/svg"
   height="42.256001"
   width="99.681999"
   id="svg8"
   xml:space="preserve"
   enable-background="new 0 0 100 100"
   viewBox="0 0 99.681999 42.256001"
   y="0px"
   x="0px"
   version="1.1"><metadata
     id="metadata14"><rdf:RDF><cc:Work
         rdf:about=""><dc:format>image/svg+xml</dc:format><dc:type
           rdf:resource="http://purl.org/dc/dcmitype/StillImage" /><dc:title></dc:title></cc:Work></rdf:RDF></metadata><defs
     id="defs12" /><path
     style="fill:#000000"
     id="path2"
     d="m 98.195,31.68 c 0.827,0 1.487,-0.666 1.487,-1.485 v -3.914 c 0,-0.818 -0.661,-1.473 -1.487,-1.473 L 95.582,24.79 v -7.656 c 0,-2.187 -1.777,-3.958 -3.96,-3.958 H 78.788 L 71.192,2.474 C 69.856,0.695 68.571,0 66.525,0 L 33.658,0.032 c -2.047,0 -3.329,0.694 -4.664,2.473 L 21.417,13.176 H 7.893 c -2.183,0 -3.957,1.771 -3.957,3.958 v 7.662 H 1.484 C 0.663,24.796 0,25.462 0,26.28 v 3.914 c 0,0.819 0.663,1.485 1.484,1.485 H 19.39 c 0.924,-5.497 5.697,-9.686 11.447,-9.686 5.749,0 10.522,4.181 11.446,9.686 h 28.768 c 0.929,-5.476 5.698,-9.654 11.441,-9.654 5.741,0 10.503,4.177 11.448,9.654 h 4.255 z M 49.987,13.204 30.236,13.174 c -0.821,0 -1.017,-0.665 -0.434,-1.486 l 5.091,-7.161 c 0.75,-0.992 1.05,-1.066 1.876,-1.066 l 13.218,0.032 c 0.823,0 1.482,0.664 1.482,1.483 v 6.743 c 0.002,0.821 -0.662,1.485 -1.482,1.485 z m -17.693,2.704 h 3.57 c 1.318,0 1.318,1.979 0,1.979 h -3.577 c -0.245,0.294 -0.625,0.494 -1.14,0.494 -1.979,0 -1.979,-2.969 0.014,-2.969 0.507,10e-4 0.886,0.2 1.133,0.496 z m 25.923,0 h 3.569 c 1.321,0 1.321,1.979 0,1.979 h -3.569 c -0.254,0.294 -0.626,0.494 -1.143,0.494 -1.98,0 -1.98,-2.969 0.008,-2.969 0.509,10e-4 0.889,0.2 1.135,0.496 z m 9.843,-11.38 5.09,7.161 c 0.582,0.819 0.389,1.485 -0.433,1.485 H 56.343 c -0.823,0 -1.484,-0.665 -1.484,-1.485 V 4.947 c 0,-0.82 0.661,-1.484 1.484,-1.484 l 9.841,-10e-4 c 0.824,-0.001 1.127,0.074 1.876,1.066 z M 35.063,33.61 c 0,2.336 -1.895,4.229 -4.227,4.229 -2.337,0 -4.231,-1.893 -4.231,-4.229 0,-2.335 1.895,-4.228 4.231,-4.228 2.333,10e-4 4.227,1.893 4.227,4.228 z m 4.418,0 c 0,-4.775 -3.873,-8.641 -8.642,-8.641 -4.778,0 -8.643,3.869 -8.643,8.641 0,4.775 3.872,8.646 8.643,8.646 4.773,0 8.642,-3.87 8.642,-8.646 z m 47.236,0.031 c 0,2.335 -1.895,4.231 -4.228,4.231 -2.335,0 -4.227,-1.896 -4.227,-4.231 0,-2.335 1.892,-4.227 4.227,-4.227 2.333,0 4.228,1.892 4.228,4.227 z m 4.314,-0.031 c 0,-4.775 -3.873,-8.641 -8.642,-8.641 -4.781,0 -8.641,3.869 -8.641,8.641 0,4.775 3.87,8.646 8.641,8.646 4.771,0 8.642,-3.87 8.642,-8.646 z" /><text
     style="font-weight:bold;font-size:5px;font-family:'Helvetica Neue', Helvetica, Arial-Unicode, Arial, Sans-serif;fill:#000000"
     id="text4"
     font-weight="bold"
     font-size="5px"
     y="88.834999"
     x="-0.057">Created by Simon Child</text>
<text
     style="font-weight:bold;font-size:5px;font-family:'Helvetica Neue', Helvetica, Arial-Unicode, Arial, Sans-serif;fill:#000000"
     id="text6"
     font-weight="bold"
     font-size="5px"
     y="93.834999"
     x="-0.057">from the Noun Project</text>
<path
     id="path4491"
     d="M 67.399364,9.4832249 A 4.8331566,4.8331566 0 0 1 62.566208,14.316381 4.8331566,4.8331566 0 0 1 57.733051,9.4832249 4.8331566,4.8331566 0 0 1 62.566208,4.6500683 4.8331566,4.8331566 0 0 1 67.399364,9.4832249 Z"
     style="fill:#000000;fill-opacity:1;stroke:none;stroke-width:1;stroke-miterlimit:4;stroke-dasharray:none;stroke-opacity:1" /><path
     id="path4491-5"
     d="m 41.247351,9.9466791 a 4.8331566,4.8331566 0 0 1 -4.833156,4.8331559 4.8331566,4.8331566 0 0 1 -4.833157,-4.8331559 4.8331566,4.8331566 0 0 1 4.833157,-4.833157 4.8331566,4.8331566 0 0 1 4.833156,4.833157 z"
     style="fill:#000000;fill-opacity:1;stroke:none;stroke-width:1;stroke-miterlimit:4;stroke-dasharray:none;stroke-opacity:1" /><path
     id="path4491-7"
     d="M 51.178496,9.8142633 A 4.8331566,4.8331566 0 0 1 46.34534,14.647419 4.8331566,4.8331566 0 0 1 41.512183,9.8142633 4.8331566,4.8331566 0 0 1 46.34534,4.9811073 4.8331566,4.8331566 0 0 1 51.178496,9.8142633 Z"
     style="fill:#000000;fill-opacity:1;stroke:none;stroke-width:1;stroke-miterlimit:4;stroke-dasharray:none;stroke-opacity:1" /></svg>