<?xml version="1.0" encoding="UTF-8" standalone="no"?>
<svg
   xmlns:dc="http://purl.org/dc/elements/1.1/"
   xmlns:cc="http://creativecommons.org/ns#"
   xmlns:rdf="http://www.w3.org/1999/02/22-rdf-syntax-ns#"
   xmlns:svg="http://www.w3.org/2000/svg"
   xmlns="http://www.w3.org/2000/svg"
   version="1.1"
   x="0px"
   y="0px"
   viewBox="0 0 113.67416 42.256001"
   enable-background="new 0 0 100 100"
   xml:space="preserve"
   id="svg8"
   width="113.67416"
   height="42.256001"><metadata
     id="metadata14"><rdf:RDF><cc:Work
         rdf:about=""><dc:format>image/svg+xml</dc:format><dc:type
           rdf:resource="http://purl.org/dc/dcmitype/StillImage" /><dc:title></dc:title></cc:Work></rdf:RDF></metadata><defs
     id="defs12" /><path
     id="path2"
     d="M 80.517578 0 L 47.650391 0.03125 C 45.603391 0.03125 44.321328 0.72685934 42.986328 2.5058594 L 35.408203 13.175781 L 21.884766 13.175781 C 19.701766 13.175781 17.927734 14.947766 17.927734 17.134766 L 17.927734 24.796875 L 15.476562 24.796875 C 15.003478 24.796875 14.588049 25.021743 14.316406 25.365234 L 8.8378906 25.365234 L 8.8378906 21.960938 C 11.259466 21.960938 13.181641 20.11298 13.181641 17.691406 L 13.181641 8.8789062 L 10.984375 8.8789062 L 10.984375 4.4863281 L 8.7871094 4.4863281 L 8.7871094 8.8789062 L 4.3945312 8.8789062 L 4.3945312 4.4863281 L 2.1972656 4.4863281 L 2.1972656 8.8789062 L 0 8.8789062 L 0 17.667969 C 0 20.114508 1.9221752 21.960938 4.34375 21.960938 L 4.34375 26.953125 L 4.34375 29.808594 L 13.992188 29.808594 L 13.992188 30.193359 C 13.992188 31.012359 14.655565 31.679686 15.476562 31.679688 L 32.365234 31.679688 L 33.382812 31.679688 L 36.412109 31.679688 C 36.270314 32.300789 36.1875 32.945292 36.1875 33.609375 C 36.1875 38.384375 40.061031 42.255859 44.832031 42.255859 C 49.605031 42.255859 53.472656 38.385375 53.472656 33.609375 C 53.472656 32.944875 53.389988 32.300998 53.248047 31.679688 L 56.275391 31.679688 L 85.042969 31.679688 L 87.964844 31.679688 C 87.82327 32.300789 87.740234 32.945292 87.740234 33.609375 C 87.740234 38.384375 91.609859 42.255859 96.380859 42.255859 C 101.15186 42.255859 105.02344 38.385375 105.02344 33.609375 C 105.02344 32.944875 104.94083 32.300998 104.79883 31.679688 L 107.93164 31.679688 L 112.1875 31.679688 C 113.0145 31.679688 113.67383 31.014312 113.67383 30.195312 L 113.67383 26.28125 C 113.67383 25.46325 113.0135 24.808594 112.1875 24.808594 L 109.57422 24.789062 L 109.57422 17.134766 C 109.57422 14.947766 107.79628 13.175781 105.61328 13.175781 L 92.779297 13.175781 L 85.183594 2.4746094 C 83.847594 0.69560933 82.563578 -1.1842379e-015 80.517578 0 z M 70.335938 3.4628906 L 80.175781 3.4628906 C 80.999781 3.4618906 81.303734 3.5353437 82.052734 4.5273438 L 87.142578 11.689453 C 87.724578 12.508453 87.530984 13.173828 86.708984 13.173828 L 80.802734 13.173828 A 4.8331566 4.8331566 0 0 0 81.509766 10.667969 A 4.8331566 4.8331566 0 0 0 76.677734 5.8359375 A 4.8331566 4.8331566 0 0 0 71.84375 10.667969 A 4.8331566 4.8331566 0 0 0 72.548828 13.173828 L 70.335938 13.173828 C 69.512938 13.173828 68.851562 12.509453 68.851562 11.689453 L 68.851562 4.9472656 C 68.851562 4.1272656 69.512938 3.4628906 70.335938 3.4628906 z "
     style="fill:#000000" /><text
     x="13.935163"
     y="88.834999"
     font-size="5px"
     font-weight="bold"
     id="text4"
     style="font-weight:bold;font-size:5px;font-family:'Helvetica Neue', Helvetica, Arial-Unicode, Arial, Sans-serif;fill:#000000">Created by Simon Child</text>
<text
     x="13.935163"
     y="93.834999"
     font-size="5px"
     font-weight="bold"
     id="text6"
     style="font-weight:bold;font-size:5px;font-family:'Helvetica Neue', Helvetica, Arial-Unicode, Arial, Sans-serif;fill:#000000">from the Noun Project</text>
</svg>