<?xml version="1.0" encoding="UTF-8" standalone="no"?>
<svg
   xmlns:dc="http://purl.org/dc/elements/1.1/"
   xmlns:cc="http://creativecommons.org/ns#"
   xmlns:rdf="http://www.w3.org/1999/02/22-rdf-syntax-ns#"
   xmlns:svg="http://www.w3.org/2000/svg"
   xmlns="http://www.w3.org/2000/svg"
   id="svg4"
   viewBox="0 0 32.001953 25"
   height="25"
   width="32.001953"
   version="1.1">
  <metadata
     id="metadata10">
    <rdf:RDF>
      <cc:Work
         rdf:about="">
        <dc:format>image/svg+xml</dc:format>
        <dc:type
           rdf:resource="http://purl.org/dc/dcmitype/StillImage" />
        <dc:title></dc:title>
      </cc:Work>
    </rdf:RDF>
  </metadata>
  <defs
     id="defs8" />
  <path
     id="path2"
     d="M 10.001953,0 C 7.9709531,0 6.062125,1.484125 5.578125,3.453125 L 3.9375,10 H 3.5 C 1.563,10 0,11.563 0,13.5 v 6 C 0,19.781 0.219,20 0.5,20 H 2 v 2 c 0,1.656 1.344,3 3,3 1.656,0 3,-1.344 3,-3 v -2 h 16 v 2 c 0,1.656 1.344,3 3,3 1.656,0 3,-1.344 3,-3 v -2 h 1.5 c 0.281,0 0.5,-0.219 0.5,-0.5 v -6 h 0.002 c 0,-1.937 -1.563,-3.5 -3.5,-3.5 H 28.0645 L 26.423828,3.453125 C 25.939828,1.484125 24.032953,0 22.001953,0 Z m -0.00391,4 h 12.000004 c 0.188,0 0.501828,0.249875 0.548828,0.421875 L 23.9375,10 H 21.402344 A 2.6101694,2.6101694 0 0 0 22.542969,7.8476562 2.6101694,2.6101694 0 0 0 19.931641,5.2363281 2.6101694,2.6101694 0 0 0 17.322266,7.8476562 2.6101694,2.6101694 0 0 0 18.457031,10 H 8.0625 L 9.4511719,4.421875 C 9.4981719,4.249875 9.8110469,4 9.9980469,4 Z M 5,12.5 c 1.375,0 2.5,1.125 2.5,2.5 0,1.375 -1.125,2.5 -2.5,2.5 -1.375,0 -2.5,-1.125 -2.5,-2.5 0,-1.375 1.125,-2.5 2.5,-2.5 z m 22,0 c 1.375,0 2.5,1.125 2.5,2.5 0,1.375 -1.125,2.5 -2.5,2.5 -1.375,0 -2.5,-1.125 -2.5,-2.5 0,-1.375 1.125,-2.5 2.5,-2.5 z" />
</svg>
