<?xml version="1.0" encoding="UTF-8" standalone="no"?>
<svg
   xmlns:dc="http://purl.org/dc/elements/1.1/"
   xmlns:cc="http://creativecommons.org/ns#"
   xmlns:rdf="http://www.w3.org/1999/02/22-rdf-syntax-ns#"
   xmlns:svg="http://www.w3.org/2000/svg"
   xmlns="http://www.w3.org/2000/svg"
   height="42.256001"
   width="113.67416"
   id="svg8"
   xml:space="preserve"
   enable-background="new 0 0 100 100"
   viewBox="0 0 113.67416 42.256001"
   y="0px"
   x="0px"
   version="1.1"><metadata
     id="metadata14"><rdf:RDF><cc:Work
         rdf:about=""><dc:format>image/svg+xml</dc:format><dc:type
           rdf:resource="http://purl.org/dc/dcmitype/StillImage" /><dc:title></dc:title></cc:Work></rdf:RDF></metadata><defs
     id="defs12" /><path
     id="path2"
     d="M 80.517578 0 L 47.650391 0.03125 C 45.603391 0.03125 44.321328 0.72685938 42.986328 2.5058594 L 35.408203 13.175781 L 21.884766 13.175781 C 19.701766 13.175781 17.927734 14.947766 17.927734 17.134766 L 17.927734 24.796875 L 15.476562 24.796875 C 14.655563 24.796875 13.992188 25.461297 13.992188 26.279297 L 13.992188 30.193359 C 13.992188 31.012359 14.655563 31.679687 15.476562 31.679688 L 33.382812 31.679688 C 34.306812 26.182688 39.080078 21.992187 44.830078 21.992188 C 50.579078 21.992188 55.351391 26.174688 56.275391 31.679688 L 85.042969 31.679688 C 85.971969 26.203688 90.741375 22.025391 96.484375 22.025391 C 102.22537 22.025391 106.98664 26.202687 107.93164 31.679688 L 112.1875 31.679688 C 113.0145 31.679688 113.67383 31.014312 113.67383 30.195312 L 113.67383 26.28125 C 113.67383 25.46325 113.0135 24.808594 112.1875 24.808594 L 109.57422 24.789062 L 109.57422 17.134766 C 109.57422 14.947766 107.79628 13.175781 105.61328 13.175781 L 92.779297 13.175781 L 85.183594 2.4746094 C 83.847594 0.69560937 82.563578 0 80.517578 0 z M 50.761719 3.4609375 L 63.978516 3.4921875 C 64.801516 3.4921875 65.460937 4.1575625 65.460938 4.9765625 L 65.460938 11.71875 C 65.462937 12.53975 64.798516 13.203125 63.978516 13.203125 L 44.228516 13.173828 C 43.407516 13.173828 43.211922 12.5085 43.794922 11.6875 L 48.884766 4.5273438 C 49.634766 3.5353438 49.935719 3.4609375 50.761719 3.4609375 z M 70.335938 3.4628906 L 80.175781 3.4628906 C 80.999781 3.4618906 81.303734 3.5353437 82.052734 4.5273438 L 87.142578 11.689453 C 87.724578 12.508453 87.530984 13.173828 86.708984 13.173828 L 70.335938 13.173828 C 69.512938 13.173828 68.851562 12.509453 68.851562 11.689453 L 68.851562 4.9472656 C 68.851562 4.1272656 69.512938 3.4628906 70.335938 3.4628906 z M 44.832031 24.96875 C 40.054031 24.96875 36.1875 28.837375 36.1875 33.609375 C 36.1875 38.384375 40.061031 42.255859 44.832031 42.255859 C 49.605031 42.255859 53.472656 38.385375 53.472656 33.609375 C 53.472656 28.834375 49.601031 24.96875 44.832031 24.96875 z M 96.380859 24.96875 C 91.599859 24.96875 87.740234 28.837375 87.740234 33.609375 C 87.740234 38.384375 91.609859 42.255859 96.380859 42.255859 C 101.15186 42.255859 105.02344 38.385375 105.02344 33.609375 C 105.02344 28.834375 101.14986 24.96875 96.380859 24.96875 z M 44.828125 29.382812 C 47.161125 29.383813 49.054687 31.274375 49.054688 33.609375 C 49.054688 35.945375 47.160125 37.839844 44.828125 37.839844 C 42.491125 37.839844 40.597656 35.945375 40.597656 33.609375 C 40.597656 31.274375 42.492125 29.382813 44.828125 29.382812 z M 96.480469 29.414062 C 98.813469 29.414062 100.70898 31.305625 100.70898 33.640625 C 100.70898 35.975625 98.813469 37.871094 96.480469 37.871094 C 94.145469 37.871094 92.253906 35.975625 92.253906 33.640625 C 92.253906 31.305625 94.145469 29.414063 96.480469 29.414062 z "
     style="fill:#000000" /><text
     style="font-weight:bold;font-size:5px;font-family:'Helvetica Neue', Helvetica, Arial-Unicode, Arial, Sans-serif;fill:#000000"
     id="text4"
     font-weight="bold"
     font-size="5px"
     y="88.834999"
     x="13.935163">Created by Simon Child</text>
<text
     style="font-weight:bold;font-size:5px;font-family:'Helvetica Neue', Helvetica, Arial-Unicode, Arial, Sans-serif;fill:#000000"
     id="text6"
     font-weight="bold"
     font-size="5px"
     y="93.834999"
     x="13.935163">from the Noun Project</text>
<path
     id="path4491"
     d="M 81.391527,9.4832249 A 4.8331566,4.8331566 0 0 1 76.558371,14.316381 4.8331566,4.8331566 0 0 1 71.725214,9.4832249 4.8331566,4.8331566 0 0 1 76.558371,4.6500683 4.8331566,4.8331566 0 0 1 81.391527,9.4832249 Z"
     style="fill:#000000;fill-opacity:1;stroke:none;stroke-width:1;stroke-miterlimit:4;stroke-dasharray:none;stroke-opacity:1" /><path
     d="M 10.984463,8.8796593 V 4.485874 H 8.7875705 V 8.8796593 H 4.3937853 V 4.485874 H 2.1968926 V 8.8796593 H 0 V 17.66723 c 0,2.446539 1.9222811,4.293926 4.3438559,4.293926 v 4.992938 h 4.493644 v -4.992938 c 2.4215751,0 4.3438561,-1.847387 4.3438561,-4.268961 V 8.8796593 Z"
     id="path2-2"
     style="stroke-width:0.24964689" /><path
     id="rect4523"
     d="M 4.3438554,25.36511 H 16.91907 v 4.443856 H 4.3438554 Z"
     style="fill:#000000;fill-opacity:1;stroke:none;stroke-width:1;stroke-miterlimit:4;stroke-dasharray:none;stroke-opacity:1" /></svg>