<?xml version="1.0" encoding="UTF-8" standalone="no"?>
<svg
   xmlns:dc="http://purl.org/dc/elements/1.1/"
   xmlns:cc="http://creativecommons.org/ns#"
   xmlns:rdf="http://www.w3.org/1999/02/22-rdf-syntax-ns#"
   xmlns:svg="http://www.w3.org/2000/svg"
   xmlns="http://www.w3.org/2000/svg"
   xml:space="preserve"
   style="enable-background:new 0 0 448 448;"
   viewBox="0 0 448 448"
   y="0px"
   x="0px"
   id="Capa_1"
   version="1.1"><metadata
     id="metadata47"><rdf:RDF><cc:Work
         rdf:about=""><dc:format>image/svg+xml</dc:format><dc:type
           rdf:resource="http://purl.org/dc/dcmitype/StillImage" /><dc:title></dc:title></cc:Work></rdf:RDF></metadata><defs
     id="defs45" /><path
     d="m 412.372,195.323 c -0.179,-0.076 -0.361,-0.143 -0.545,-0.206 -2.249,-0.828 -4.616,-1.61 -7.138,-2.328 -29.402,-8.367 -90.439,-8.463 -93.023,-8.463 l -12.882,0 -25.392,-42.56 c -11.582,-19.32 -22.441,-29.789 -46.636,-29.789 -0.003,0 -0.01,0 -0.013,0 l -98.019,0.015 c -19.403,0.003 -38.674,13.06 -50.293,34.075 -0.031,0.055 -0.061,0.11 -0.089,0.166 l -11.598,22.196 -43.696,5.265 c -0.158,0.019 -0.316,0.043 -0.473,0.071 C 8.65,176.296 0,186.64 0,200.761 l 0,53.223 c 0,21.674 18.169,32.064 32.056,35.774 0.932,25.667 22.091,46.264 47.982,46.264 23.749,0 43.514,-17.339 47.336,-40.023 l 193.687,0 c 3.823,22.684 23.592,40.023 47.347,40.023 23.749,0 43.514,-17.339 47.336,-40.023 l 24.256,0 c 4.418,0 8,-3.582 8,-8 l 0,-46.583 c 0,-15.298 -6.432,-35.127 -35.628,-46.093 z m 14.594,29.08 -18.632,0.004 0,-7.84 c 0,-0.916 0.614,-2.92 2.196,-4.739 7.41,3.294 12.876,7.47 16.436,12.575 z m -146.813,-40.077 -160.1,0 c -1.434,0 -2.458,-0.566 -2.836,-1.127 -0.542,-0.804 -0.11,-2.278 0.18,-3.053 l 8.626,-17.905 c 3.567,-7.307 8.856,-10.424 17.686,-10.424 l 117.049,0 19.395,32.509 z M 16,207.817 l 8.011,0 c 4.411,0 8,3.589 8,8 l 0,8.167 -16.011,0 0,-16.167 z m 64.038,112.206 c -17.659,0 -32.026,-14.367 -32.026,-32.026 0,-17.656 14.367,-32.021 32.026,-32.021 17.653,0 32.015,14.365 32.015,32.021 0,17.659 -14.362,32.026 -32.015,32.026 z m 288.37,0 c -17.659,0 -32.026,-14.367 -32.026,-32.026 0,-17.656 14.367,-32.021 32.026,-32.021 17.653,0 32.015,14.365 32.015,32.021 0,17.659 -14.362,32.026 -32.015,32.026 z M 432,279.999 l -16.256,0 c -3.82,-22.684 -23.586,-40.024 -47.337,-40.024 -23.756,0 -43.527,17.34 -47.348,40.024 l -193.685,0 c -3.82,-22.684 -23.586,-40.024 -47.337,-40.024 -21.495,0 -39.736,14.194 -45.844,33.7 C 26.729,271.332 16,265.892 16,253.984 l 0,-14 24.011,0 c 4.418,0 8,-3.582 8,-8 l 0,-16.167 c 0,-13.233 -10.766,-24 -24,-24 l -4.253,0 c 1.415,-1.081 3.228,-1.838 5.461,-2.269 l 47.087,-5.673 c 2.782,-0.15 5.333,-1.749 6.658,-4.284 l 13.514,-25.864 c 8.806,-15.875 22.688,-25.734 36.248,-25.736 l 98.02,-0.015 c 0.004,0 0.007,0 0.011,0 10.417,0 16.844,2.237 22.559,7.84 l -105.608,0 c -14.99,0 -25.778,6.528 -32.082,19.441 l -8.776,18.216 c -0.076,0.158 -0.146,0.317 -0.212,0.479 -2.646,6.557 -2.178,13.019 1.315,18.196 3.456,5.12 9.474,8.176 16.099,8.176 l 191.614,0 c 0.572,0 53.947,0.079 83.11,6.475 -1.654,3.342 -2.443,6.781 -2.443,9.767 l 0,15.846 c 0,2.123 0.844,4.158 2.345,5.659 1.5,1.499 3.534,2.341 5.655,2.341 0.002,0 0.004,0 0.006,0 l 31.64,-0.011 c 0.009,0.337 0.02,0.673 0.02,1.015 l 0,38.583 z"
     id="path5" /><path
     d="m 95.721,279.998 c -4.418,0 -8,3.582 -8,8 0,4.241 -3.448,7.691 -7.687,7.691 -4.241,0 -7.691,-3.45 -7.691,-7.691 0,-4.239 3.45,-7.688 7.691,-7.688 4.418,0 8,-3.582 8,-8 0,-4.418 -3.582,-8 -8,-8 -13.063,0 -23.691,10.626 -23.691,23.688 0,13.063 10.628,23.691 23.691,23.691 13.061,0 23.687,-10.628 23.687,-23.691 0,-4.418 -3.581,-8 -8,-8 z"
     id="path9" /><path
     d="m 384.091,279.998 c -4.418,0 -8,3.582 -8,8 0,4.241 -3.448,7.691 -7.687,7.691 -4.241,0 -7.691,-3.45 -7.691,-7.691 0,-4.239 3.45,-7.688 7.691,-7.688 4.418,0 8,-3.582 8,-8 0,-4.418 -3.582,-8 -8,-8 -13.063,0 -23.691,10.626 -23.691,23.688 0,13.063 10.628,23.691 23.691,23.691 13.061,0 23.687,-10.628 23.687,-23.691 0,-4.418 -3.581,-8 -8,-8 z"
     id="path11" /><g
     id="g13" /><g
     id="g15" /><g
     id="g17" /><g
     id="g19" /><g
     id="g21" /><g
     id="g23" /><g
     id="g25" /><g
     id="g27" /><g
     id="g29" /><g
     id="g31" /><g
     id="g33" /><g
     id="g35" /><g
     id="g37" /><g
     id="g39" /><g
     id="g41" /><path
     id="path3381"
     d="m 240.78758,197.86205 a 27.525423,27.525423 0 0 1 -27.52539,-27.52539 27.525423,27.525423 0 0 1 27.52539,-27.52539 27.525423,27.525423 0 0 1 27.52539,27.52539 27.525423,27.525423 0 0 1 -27.52539,27.52539 z m 0,-14.23633 a 13.288136,13.288136 0 0 0 13.28711,-13.28906 13.288136,13.288136 0 0 0 -13.28711,-13.28711 13.288136,13.288136 0 0 0 -13.28906,13.28711 13.288136,13.288136 0 0 0 13.28906,13.28906 z"
     style="stroke:none;stroke-width:0" /><path
     style="stroke:none;stroke-width:0"
     d="m 144.14166,197.86205 a 27.525423,27.525423 0 0 1 -27.52539,-27.52539 27.525423,27.525423 0 0 1 27.52539,-27.52539 27.525423,27.525423 0 0 1 27.52539,27.52539 27.525423,27.525423 0 0 1 -27.52539,27.52539 z m 0,-14.23633 a 13.288136,13.288136 0 0 0 13.28711,-13.28906 13.288136,13.288136 0 0 0 -13.28711,-13.28711 13.288136,13.288136 0 0 0 -13.28906,13.28711 13.288136,13.288136 0 0 0 13.28906,13.28906 z"
     id="path3406" /><path
     style="stroke:none;stroke-width:0"
     d="m 192.46464,197.86205 a 27.525423,27.525423 0 0 1 -27.52539,-27.52539 27.525423,27.525423 0 0 1 27.52539,-27.52539 27.525423,27.525423 0 0 1 27.52539,27.52539 27.525423,27.525423 0 0 1 -27.52539,27.52539 z m 0,-14.23633 a 13.288136,13.288136 0 0 0 13.28711,-13.28906 13.288136,13.288136 0 0 0 -13.28711,-13.28711 13.288136,13.288136 0 0 0 -13.28906,13.28711 13.288136,13.288136 0 0 0 13.28906,13.28906 z"
     id="path3408" /></svg>