<?xml version="1.0" encoding="iso-8859-1"?>
<!-- Generator: Adobe Illustrator 17.1.0, SVG Export Plug-In . SVG Version: 6.00 Build 0)  -->
<!DOCTYPE svg PUBLIC "-//W3C//DTD SVG 1.1//EN" "http://www.w3.org/Graphics/SVG/1.1/DTD/svg11.dtd">
<svg version="1.1" id="Capa_1" xmlns="http://www.w3.org/2000/svg" xmlns:xlink="http://www.w3.org/1999/xlink" x="0px" y="0px"
	 viewBox="0 0 432.138 432.138" style="enable-background:new 0 0 432.138 432.138;" xml:space="preserve">
<path d="M344.191,168.108c-7.943,0-15.641,1.065-22.966,3.048l-12.992-35.019h4.499c13.233,0,24-10.766,24-24
	c0-13.233-10.767-24-24-24H288c-4.418,0-8,3.582-8,8s3.582,8,8,8h24.732c4.411,0,8,3.589,8,8s-3.589,8-8,8h-16H147.258l-4.717-8.25
	h16.293c4.418,0,8-3.582,8-8s-3.582-8-8-8h-39.257c-2.253,0-4.129-1.023-5.577-3.041c-2.578-3.589-7.573-4.41-11.165-1.833
	c-3.589,2.577-4.409,7.575-1.833,11.164c4.431,6.17,11.201,9.709,18.575,9.709h4.532l8.574,14.994L112.834,171.7
	c-7.895-2.333-16.247-3.592-24.888-3.592C39.452,168.108,0,207.561,0,256.054S39.452,344,87.946,344
	c45.939,0,83.758-35.407,87.616-80.363h8.127c0.642,0,1.262-0.084,1.86-0.226c2.715,11.196,11.441,20.066,22.559,22.979v9.413
	c0,4.418,3.582,8,8,8H240c4.418,0,8-3.582,8-8s-3.582-8-8-8h-15.892v-1.439c13.428-3.563,23.355-15.818,23.355-30.352
	c0-7.426-2.596-14.253-6.922-19.635l54.453-89.926l11.235,30.281c-29.542,14.195-49.984,44.416-49.984,79.323
	c0,48.494,39.452,87.946,87.946,87.946s87.946-39.453,87.946-87.946S392.686,168.108,344.191,168.108z M87.946,328
	C48.275,328,16,295.726,16,256.054s32.275-71.946,71.946-71.946c6.337,0,12.482,0.832,18.34,2.377l-29.19,65.913
	c-1.096,2.474-0.867,5.335,0.609,7.603s3.999,3.636,6.705,3.636h75.079C155.689,299.757,125.056,328,87.946,328z M121.213,192.292
	c20.601,10.792,35.35,31.266,38.171,55.345H96.703L121.213,192.292z M175.488,247.637c-2.919-30.602-21.583-56.678-47.779-70.013
	l14.834-33.496l51.3,89.718c-3.833,3.842-6.674,8.67-8.116,14.064c-0.652-0.172-1.332-0.272-2.037-0.272H175.488z M208.108,225.634
	c-0.153,0.04-0.303,0.087-0.455,0.129l-5.742-10.043h6.197V225.634z M224.108,269.12v-13.334c0-4.418-3.582-8-8-8s-8,3.582-8,8
	v13.39c-4.455-2.702-7.447-7.584-7.447-13.163c0-8.492,6.909-15.401,15.401-15.401s15.401,6.909,15.401,15.401
	C231.464,261.553,228.512,266.406,224.108,269.12z M227.622,226.825c-1.141-0.454-2.312-0.846-3.514-1.165v-17.939
	c0-4.418-3.664-8-8.082-8h-23.264l-36.357-63.583h126.13L227.622,226.825z M344.191,328c-39.671,0-71.946-32.275-71.946-71.946
	c0-28.035,16.129-52.359,39.585-64.227l24.861,67.009c1.196,3.225,4.251,5.22,7.501,5.219c0.924,0,1.864-0.161,2.782-0.501
	c4.142-1.537,6.254-6.141,4.717-10.283l-24.869-67.031c5.566-1.385,11.381-2.133,17.369-2.133c39.671,0,71.946,32.275,71.946,71.946
	S383.862,328,344.191,328z"/>
<g>
</g>
<g>
</g>
<g>
</g>
<g>
</g>
<g>
</g>
<g>
</g>
<g>
</g>
<g>
</g>
<g>
</g>
<g>
</g>
<g>
</g>
<g>
</g>
<g>
</g>
<g>
</g>
<g>
</g>
</svg>
