<?xml version="1.0" encoding="iso-8859-1"?>
<!-- Generator: Adobe Illustrator 17.1.0, SVG Export Plug-In . SVG Version: 6.00 Build 0)  -->
<!DOCTYPE svg PUBLIC "-//W3C//DTD SVG 1.1//EN" "http://www.w3.org/Graphics/SVG/1.1/DTD/svg11.dtd">
<svg version="1.1" id="Capa_1" xmlns="http://www.w3.org/2000/svg" xmlns:xlink="http://www.w3.org/1999/xlink" x="0px" y="0px"
	 viewBox="0 0 428.583 428.583" style="enable-background:new 0 0 428.583 428.583;" xml:space="preserve">
<path d="M380.416,253.749v-10.44c0-20.145-14.004-33.786-26.358-45.822c-1.544-1.503-3.081-3-4.582-4.502
	c-8.306-8.305-15.127-15.144-20.102-20.131c-1.621-1.625-3.047-3.054-4.264-4.273v-9.861c4.167,3.486,9.53,5.589,15.375,5.589
	h15.674c4.418,0,8-3.582,8-8v-32c0-4.418-3.582-8-8-8h-15.674c-5.845,0-11.208,2.103-15.375,5.589v-3.714
	c0-7.211-2.544-23.187-24.458-25.761v-1.114c0-6.875-3.799-14.737-10.424-21.569c-5.356-5.524-10.858-10.866-11.09-11.09
	c-3.172-3.077-8.234-3-11.313,0.172c-3.076,3.171-2.999,8.236,0.172,11.312c0.055,0.054,5.563,5.401,10.744,10.744
	c4.675,4.822,5.91,8.932,5.91,10.431v160.917c0,13.28-10.804,24.083-24.084,24.083c-0.589,0-1.162,0.063-1.714,0.184h-78.521
	v-40.768c0-8.326-3.199-15.917-8.429-21.616c5.15-4.358,8.429-10.862,8.429-18.121v-8.36c0-13.088-10.648-23.737-23.737-23.737
	H23.737C10.648,163.892,0,174.541,0,187.629v8.36c0,13.088,10.648,23.737,23.737,23.737h12.025c-3.792,2.327-7.45,4.888-10.94,7.685
	c-3.151,2.524-12.739,10.208-12.739,26.565v37.75c0,13.982,8.876,25.909,21.246,30.371c4.662,28.523,29.52,50.094,58.996,50.094
	c28.778,0,53.22-20.649,58.655-48.215h159.16c5.408,27.447,29.644,48.215,58.647,48.215c32.972,0,59.796-26.825,59.796-59.796
	C428.583,283.405,407.839,259.177,380.416,253.749z M340.485,132.309h7.674v16h-7.674c-4.411,0-8-3.589-8-8
	S336.074,132.309,340.485,132.309z M23.737,203.726c-4.266,0-7.737-3.471-7.737-7.737v-8.36c0-4.266,3.471-7.737,7.737-7.737
	h132.859c4.266,0,7.737,3.471,7.737,7.737v8.36c0,4.266-3.471,7.737-7.737,7.737H23.737z M28.083,253.976
	c0-7.624,3.242-11.272,6.745-14.08c16.466-13.196,36.346-20.17,57.491-20.17h56.015c8.822,0,16,7.178,16,16v48.583
	c0,4.251,3.325,7.76,7.57,7.988l3.417,0.184c0.143,0.008,0.287,0.012,0.43,0.012h84.819c0.657,0,1.297-0.079,1.908-0.229
	c21.22-0.999,38.176-18.576,38.176-40.039V108.57c8.449,1.577,8.458,6.472,8.458,9.614v53.708c0,2.122,0.843,4.156,2.343,5.657
	c1.565,1.566,3.785,3.791,6.593,6.605c4.979,4.991,11.805,11.833,20.115,20.145c1.551,1.551,3.138,3.097,4.731,4.649
	c11.068,10.782,21.523,20.967,21.523,34.361v9.473c-29.468,2.142-53.066,25.729-55.23,55.194H44.083c-8.673,0-16-7.441-16-16.25
	V253.976z M108.498,323.976c-3.639,5.06-9.569,8.327-16.17,8.327c-6.597,0-12.525-3.267-16.163-8.327H108.498z M92.325,356.191
	c-20.019,0-37.123-13.585-42.226-32.215h8.249c4.861,14.261,18.405,24.327,33.98,24.327c15.579,0,29.126-10.065,33.988-24.327h8.25
	C129.454,342.595,112.315,356.191,92.325,356.191z M368.787,356.191c-24.142,0-43.782-19.647-43.782-43.796
	c0-9.251,2.891-17.836,7.806-24.914l30.303,30.552c1.563,1.577,3.621,2.366,5.68,2.366c2.036,0,4.073-0.773,5.634-2.32
	c3.137-3.111,3.157-8.176,0.046-11.313l-12.83-12.935c2.253-0.867,4.663-1.336,7.146-1.336c10.977,0,19.906,8.928,19.906,19.903
	c0,10.977-8.93,19.906-19.906,19.906c-10.972,0-19.898-8.93-19.898-19.906c0-4.418-3.582-8-8-8s-8,3.582-8,8
	c0,19.799,16.104,35.906,35.898,35.906c19.799,0,35.906-16.107,35.906-35.906c0-19.797-16.107-35.903-35.906-35.903
	c-6.808,0-13.327,1.895-18.967,5.418l-5.658-5.704c7.021-4.793,15.499-7.602,24.622-7.602c24.149,0,43.796,19.644,43.796,43.789
	C412.583,336.544,392.937,356.191,368.787,356.191z"/>
<g>
</g>
<g>
</g>
<g>
</g>
<g>
</g>
<g>
</g>
<g>
</g>
<g>
</g>
<g>
</g>
<g>
</g>
<g>
</g>
<g>
</g>
<g>
</g>
<g>
</g>
<g>
</g>
<g>
</g>
</svg>
