<?xml version="1.0" encoding="UTF-8" standalone="no"?>
<svg
   xmlns:dc="http://purl.org/dc/elements/1.1/"
   xmlns:cc="http://creativecommons.org/ns#"
   xmlns:rdf="http://www.w3.org/1999/02/22-rdf-syntax-ns#"
   xmlns:svg="http://www.w3.org/2000/svg"
   xmlns="http://www.w3.org/2000/svg"
   xml:space="preserve"
   style="enable-background:new 0 0 448 448;"
   viewBox="0 0 448 448"
   y="0px"
   x="0px"
   id="Capa_1"
   version="1.1"><metadata
     id="metadata47"><rdf:RDF><cc:Work
         rdf:about=""><dc:format>image/svg+xml</dc:format><dc:type
           rdf:resource="http://purl.org/dc/dcmitype/StillImage" /><dc:title></dc:title></cc:Work></rdf:RDF></metadata><defs
     id="defs45" /><path
     d="m 447.939,190.699 c 0.195,-1.673 -0.126,-3.421 -1.049,-4.984 l -30.671,-51.967 c -10.519,-17.551 -20.446,-27.8 -40.312,-29.533 -0.651,-0.171 -1.336,-0.263 -2.042,-0.263 l -349.865,0 c -13.233,0 -24,10.766 -24,24 l 0,134.056 c 0,21.674 18.169,32.064 32.056,35.774 0.932,25.667 22.09,46.264 47.981,46.264 23.749,0 43.514,-17.339 47.336,-40.023 l 193.688,0 c 3.823,22.684 23.592,40.023 47.346,40.023 23.749,0 43.514,-17.339 47.336,-40.023 l 24.257,0 c 4.418,0 8,-3.582 8,-8 l 0,-104.375 c 0,-0.322 -0.024,-0.637 -0.061,-0.949 z m -31.516,25.67 c 0,-4.411 3.589,-8 8,-8 l 7.577,0 0,15.75 -15.577,0 0,-7.75 z m 10.894,-32.337 -68.147,0 -19.897,-39.829 64.538,0 23.506,39.829 z m -411.317,16 8.583,0 0,24.086 -8.583,0 0,-24.086 z m 0,-16 0,-39.966 263.375,0 c 8.83,0 14.119,3.118 17.669,10.389 l 14.266,29.577 -295.31,0 z m 64.037,144.015 c -17.659,0 -32.025,-14.367 -32.025,-32.026 0,-17.656 14.366,-32.021 32.025,-32.021 17.653,0 32.016,14.365 32.016,32.021 0,17.659 -14.363,32.026 -32.016,32.026 z m 288.37,0 c -17.659,0 -32.025,-14.367 -32.025,-32.026 0,-17.656 14.366,-32.021 32.025,-32.021 17.653,0 32.016,14.365 32.016,32.021 0,17.659 -14.362,32.026 -32.016,32.026 z m 47.337,-40.023 C 411.925,265.34 392.158,248 368.407,248 c -23.756,0 -43.526,17.34 -47.347,40.024 l -193.686,0 C 123.554,265.34 103.788,248 80.037,248 58.535,248 40.289,262.203 34.187,281.719 26.708,279.394 16,273.979 16,262.009 l 0,-21.89 8.583,0 c 8.822,0 16,-7.177 16,-16 l 0,-24.086 283.282,0 c 4.418,0 8,-3.582 8,-8 l 0,-0.384 c 0,-1.203 -0.271,-2.392 -0.794,-3.476 L 311.438,147.47 c -6.286,-12.875 -17.073,-19.404 -32.063,-19.404 l -263.375,0 0,-0.113 c 0,-4.411 3.589,-8 8,-8 l 345.574,0 c 10.675,0 17.16,2.351 22.975,8.25 l -66.216,0 c -2.772,0 -5.347,1.435 -6.805,3.793 -1.458,2.357 -1.591,5.302 -0.352,7.782 l 27.111,54.271 c 0.895,3.442 4.022,5.983 7.744,5.983 l 52.832,0 c -3.992,4.288 -6.441,10.03 -6.441,16.337 l 0,15.75 c 0,4.418 3.582,8 8,8 l 23.578,0 0,47.905 -16.256,0 z"
     id="path5" /><path
     d="m 95.721,288.022 c -4.418,0 -8,3.582 -8,8 0,4.241 -3.448,7.691 -7.687,7.691 -4.241,0 -7.691,-3.45 -7.691,-7.691 0,-4.239 3.45,-7.688 7.691,-7.688 4.418,0 8,-3.582 8,-8 0,-4.418 -3.582,-8 -8,-8 -13.063,0 -23.691,10.626 -23.691,23.688 0,13.063 10.628,23.691 23.691,23.691 13.061,0 23.687,-10.628 23.687,-23.691 0,-4.418 -3.582,-8 -8,-8 z"
     id="path9" /><path
     d="m 384.091,288.022 c -4.418,0 -8,3.582 -8,8 0,4.241 -3.448,7.691 -7.687,7.691 -4.241,0 -7.691,-3.45 -7.691,-7.691 0,-4.239 3.45,-7.688 7.691,-7.688 4.418,0 8,-3.582 8,-8 0,-4.418 -3.582,-8 -8,-8 -13.063,0 -23.691,10.626 -23.691,23.688 0,13.063 10.628,23.691 23.691,23.691 13.061,0 23.687,-10.628 23.687,-23.691 0,-4.418 -3.582,-8 -8,-8 z"
     id="path11" /><g
     id="g13" /><g
     id="g15" /><g
     id="g17" /><g
     id="g19" /><g
     id="g21" /><g
     id="g23" /><g
     id="g25" /><g
     id="g27" /><g
     id="g29" /><g
     id="g31" /><g
     id="g33" /><g
     id="g35" /><g
     id="g37" /><g
     id="g39" /><g
     id="g41" /></svg>