<?xml version="1.0" encoding="UTF-8" standalone="no"?>
<svg
   xmlns:dc="http://purl.org/dc/elements/1.1/"
   xmlns:cc="http://creativecommons.org/ns#"
   xmlns:rdf="http://www.w3.org/1999/02/22-rdf-syntax-ns#"
   xmlns:svg="http://www.w3.org/2000/svg"
   xmlns="http://www.w3.org/2000/svg"
   xml:space="preserve"
   style="enable-background:new 0 0 288.22 288.22;"
   viewBox="0 0 288.22 288.22"
   y="0px"
   x="0px"
   id="Capa_1"
   version="1.1"><metadata
     id="metadata47"><rdf:RDF><cc:Work
         rdf:about=""><dc:format>image/svg+xml</dc:format><dc:type
           rdf:resource="http://purl.org/dc/dcmitype/StillImage" /><dc:title></dc:title></cc:Work></rdf:RDF></metadata><defs
     id="defs45" /><path
     d="m 76.007,184.335 c -2.792,0 -5.056,2.264 -5.056,5.056 0,2.68 -2.179,4.861 -4.858,4.861 -2.68,0 -4.861,-2.18 -4.861,-4.861 0,-2.679 2.18,-4.859 4.861,-4.859 2.792,0 5.056,-2.264 5.056,-5.056 0,-2.792 -2.264,-5.056 -5.056,-5.056 -8.256,0 -14.973,6.716 -14.973,14.971 0,8.256 6.717,14.973 14.973,14.973 8.255,0 14.97,-6.717 14.97,-14.973 0,-2.792 -2.264,-5.056 -5.056,-5.056 z"
     id="path7" /><path
     d="m 247.829,184.335 c -2.792,0 -5.056,2.264 -5.056,5.056 0,2.68 -2.179,4.861 -4.858,4.861 -2.68,0 -4.861,-2.18 -4.861,-4.861 0,-2.679 2.18,-4.859 4.861,-4.859 2.792,0 5.056,-2.264 5.056,-5.056 0,-2.792 -2.264,-5.056 -5.056,-5.056 -8.256,0 -14.973,6.716 -14.973,14.971 0,8.256 6.717,14.973 14.973,14.973 8.255,0 14.97,-6.717 14.97,-14.973 0,-2.792 -2.263,-5.056 -5.056,-5.056 z"
     id="path9" /><path
     d="m 286.736,145.373 c -0.938,-0.937 -2.206,-1.465 -3.53,-1.476 l 0,-0.004 c 0,-13.94 -11.341,-25.28 -25.28,-25.28 l -52.053,0 -15.976,-31.021 C 189.848,87.496 189.795,87.4 189.739,87.308 182.42,75.095 175.554,68.477 160.259,68.477 l -101.246,0 c -6.959,0 -15.917,3.71 -20.838,8.631 l -9.084,9.084 c -4.105,4.105 -7.36,11.018 -8.328,17.239 l -10.651,0 C 4.537,103.43 0,107.966 0,113.542 l 0,40.478 c 0,5.576 4.537,10.112 10.112,10.112 l 10.525,0 c 1.269,11.347 9.316,17.094 15.688,19.339 -0.38,1.916 -0.584,3.894 -0.584,5.919 0,16.737 13.616,30.353 30.353,30.353 16.659,0 30.221,-13.497 30.34,-30.133 l 111.136,0 c 0.119,16.636 13.684,30.133 30.347,30.133 16.659,0 30.221,-13.497 30.341,-30.133 l 2.161,0 c 9.816,0 17.802,-7.985 17.802,-17.801 l 0,-22.858 c -10e-4,-1.342 -0.535,-2.63 -1.485,-3.578 z m -28.837,-1.435 0,-4.889 c 0,-2.788 2.268,-5.056 5.056,-5.056 l 6.347,0 c 0.033,0 0.065,-0.004 0.098,-0.005 2.299,2.659 3.694,6.121 3.694,9.904 l 0,0.02 -15.195,0.026 z m -63.401,-25.326 -103.113,0 9.593,-18.568 c 0.018,-0.034 0.035,-0.068 0.052,-0.102 2.254,-4.617 5.597,-6.588 11.178,-6.588 l 69.284,0 13.006,25.258 z M 30.573,107.028 c 0,-4.087 2.564,-10.372 5.439,-13.439 l 38.246,0 -13.169,25.016 -29.998,0 c -0.175,0 -0.348,0.009 -0.518,0.027 l 0,-11.604 0,0 z m -20.461,6.514 10.349,0 0,40.478 -10.349,0 0,-40.478 z m 55.982,96.089 c -11.161,0 -20.241,-9.08 -20.241,-20.241 0,-11.159 9.08,-20.237 20.241,-20.237 11.157,0 20.234,9.079 20.234,20.237 10e-4,11.161 -9.076,20.241 -20.234,20.241 z m 171.823,0 c -11.161,0 -20.24,-9.08 -20.24,-20.241 0,-11.159 9.079,-20.237 20.24,-20.237 11.157,0 20.234,9.079 20.234,20.237 0,11.161 -9.077,20.241 -20.234,20.241 z m 40.191,-37.822 c 0,4.239 -3.449,7.689 -7.69,7.689 l -3.819,0 c -4.112,-11.891 -15.412,-20.457 -28.682,-20.457 -13.273,0 -24.575,8.567 -28.688,20.457 l -114.453,0 c -4.112,-11.891 -15.412,-20.457 -28.682,-20.457 -11.126,0 -20.868,6.021 -26.152,14.972 -3.236,-1.059 -9.369,-4.227 -9.369,-13.027 l 0,-32.294 c 0.17,0.017 0.343,0.027 0.518,0.027 l 33.051,0 c 1.877,0 3.599,-1.04 4.474,-2.701 L 87.108,90.89 c 0.825,-1.567 0.77,-3.452 -0.145,-4.968 -0.915,-1.516 -2.557,-2.443 -4.329,-2.443 l -36.43,0 C 49.44,80.835 55.189,78.59 59.013,78.59 l 101.247,0 c 6.393,0 10.408,1.335 13.943,4.653 l -61.996,0 c -9.452,0 -16.261,4.108 -20.237,12.208 l -13.254,25.655 c -0.37,0.717 -0.564,1.514 -0.564,2.321 l 0,0.243 c 0,2.792 2.264,5.056 5.056,5.056 l 168.651,0 c -2.523,2.71 -4.071,6.339 -4.071,10.325 l 0,9.954 c 0,1.342 0.534,2.63 1.484,3.578 0.948,0.947 2.233,1.478 3.572,1.478 0.003,0 0.006,0 0.009,0 l 25.256,-0.044 -10e-4,17.792 0,0 z"
     id="path11" /><g
     id="g13" /><g
     id="g15" /><g
     id="g17" /><g
     id="g19" /><g
     id="g21" /><g
     id="g23" /><g
     id="g25" /><g
     id="g27" /><g
     id="g29" /><g
     id="g31" /><g
     id="g33" /><g
     id="g35" /><g
     id="g37" /><g
     id="g39" /><g
     id="g41" /></svg>