<?xml version="1.0" encoding="UTF-8" standalone="no"?>
<svg
   xmlns:dc="http://purl.org/dc/elements/1.1/"
   xmlns:cc="http://creativecommons.org/ns#"
   xmlns:rdf="http://www.w3.org/1999/02/22-rdf-syntax-ns#"
   xmlns:svg="http://www.w3.org/2000/svg"
   xmlns="http://www.w3.org/2000/svg"
   version="1.1"
   id="Capa_1"
   x="0px"
   y="0px"
   width="448px"
   height="448px"
   viewBox="0 0 448 448"
   style="enable-background:new 0 0 448 448;"
   xml:space="preserve"><metadata
     id="metadata15"><rdf:RDF><cc:Work
         rdf:about=""><dc:format>image/svg+xml</dc:format><dc:type
           rdf:resource="http://purl.org/dc/dcmitype/StillImage" /><dc:title></dc:title></cc:Work></rdf:RDF></metadata><defs
     id="defs13" /><path
     d="m 412.4,195.3 c -0.2,-0.1 -0.4,-0.1 -0.5,-0.2 -2.2,-0.8 -4.6,-1.6 -7.1,-2.3 -29.4,-8.4 -90.4,-8.5 -93,-8.5 l -12.9,0 -25.4,-42.6 C 261.8,122.4 251,112 226.8,112 c 0,0 0,0 0,0 l -98,0 c -19.4,0 -38.7,13.1 -50.3,34.1 0,0.1 -0.1,0.1 -0.1,0.2 l -11.6,22.2 -43.7,5.3 c -0.2,0 -0.3,0 -0.5,0.1 C 8.7,176.4 0,186.8 0,200.9 L 0,254 c 0,21.7 18.2,32.1 32.1,35.8 0.9,25.6 22,46.2 47.9,46.2 23.7,0 43.5,-17.3 47.3,-40 l 193.7,0 c 3.8,22.7 23.6,40 47.3,40 23.7,0 43.5,-17.3 47.3,-40 l 24.4,0 c 4.4,0 8,-3.6 8,-8 l 0,-46.6 c 0,-15.3 -6.4,-35.1 -35.6,-46.1 z m 14.6,29.1 -18.6,0 0,-7.8 c 0,-0.9 0.6,-2.9 2.2,-4.7 7.3,3.2 12.8,7.4 16.4,12.5 z m -146.8,-40.1 -160.1,0 c -1.4,0 -2.5,-0.6 -2.8,-1.1 -0.5,-0.8 -0.1,-2.3 0.2,-3.1 l 8.6,-17.9 c 3.6,-7.3 8.9,-10.4 17.7,-10.4 l 117,0 19.4,32.5 z M 16,207.8 l 8,0 c 4.4,0 8,3.6 8,8 l 0,8.2 -16,0 0,-16.2 z M 80,320 c -17.7,0 -32,-14.4 -32,-32 0,-17.7 14.4,-32 32,-32 17.7,0 32,14.4 32,32 0.1,17.7 -14.3,32 -32,32 z m 288.4,0 c -17.7,0 -32,-14.4 -32,-32 0,-17.7 14.4,-32 32,-32 17.7,0 32,14.4 32,32 0,17.7 -14.3,32 -32,32 z m 63.6,-40 -16.3,0 c -3.8,-22.7 -23.6,-40 -47.3,-40 -23.8,0 -43.5,17.3 -47.3,40 l -193.7,0 C 123.6,257.3 103.8,240 80.1,240 58.6,240 40.4,254.2 34.3,273.7 26.8,271.4 16.1,265.9 16.1,254 l 0,-14 24,0 c 4.4,0 8,-3.6 8,-8 l 0,-16.2 c 0,-13.2 -10.8,-24 -24,-24 l -4.3,0 c 1.4,-1.1 3.2,-1.8 5.5,-2.3 l 47.1,-5.7 c 2.8,-0.2 5.3,-1.7 6.7,-4.3 l 13.5,-25.9 c 8.8,-15.9 22.7,-25.7 36.2,-25.7 l 98,0 c 0,0 0,0 0,0 10.4,0 16.8,2.2 22.6,7.8 l -105.7,0 c -15,0 -25.8,6.5 -32.1,19.4 l -8.8,18.2 c -0.1,0.2 -0.1,0.3 -0.2,0.5 -2.6,6.6 -2.2,13 1.3,18.2 3.5,5.1 9.5,8.2 16.1,8.2 l 191.6,0 c 0.6,0 53.9,0.1 83.1,6.5 -1.7,3.3 -2.4,6.8 -2.4,9.8 l 0,15.8 c 0,2.1 0.8,4.2 2.3,5.7 1.5,1.5 3.5,2.3 5.7,2.3 0,0 0,0 0,0 l 31.6,0 c 0,0.3 0,0.7 0,1 l 0.1,38.7 0,0 z"
     id="path3" /><path
     d="m 95.7,280 c -4.4,0 -8,3.6 -8,8 0,4.2 -3.4,7.7 -7.7,7.7 -4.2,0 -7.7,-3.5 -7.7,-7.7 0,-4.2 3.4,-7.7 7.7,-7.7 4.4,0 8,-3.6 8,-8 0,-4.4 -3.6,-8 -8,-8 -13.1,0 -23.7,10.6 -23.7,23.7 0,13.1 10.6,23.7 23.7,23.7 13.1,0 23.7,-10.6 23.7,-23.7 0,-4.4 -3.6,-8 -8,-8 z"
     id="path5" /><path
     d="m 384.1,280 c -4.4,0 -8,3.6 -8,8 0,4.2 -3.4,7.7 -7.7,7.7 -4.2,0 -7.7,-3.5 -7.7,-7.7 0,-4.2 3.5,-7.7 7.7,-7.7 4.4,0 8,-3.6 8,-8 0,-4.4 -3.6,-8 -8,-8 -13.1,0 -23.7,10.6 -23.7,23.7 0,13.1 10.6,23.7 23.7,23.7 13.1,0 23.7,-10.6 23.7,-23.7 0,-4.4 -3.6,-8 -8,-8 z"
     id="path7" /><path
     d="m 155.4,253.5 c 0,3.6 2.9,6.5 6.5,6.5 l 26.1,0 0,6.5 c 0.1,3.5 3.6,6.5 6.5,6.5 l 26.1,0 c 15.7,0 28.9,-11.3 31.9,-26.1 l 33.5,0 c 3.6,0 6.5,-2.9 6.5,-6.5 0,-3.6 -2.9,-6.5 -6.5,-6.5 l -33.4,0 C 249.5,219 236.4,207.8 220.7,207.8 l -26.1,0 c -3.4,0 -6.5,3.1 -6.5,6.5 l 0,6.5 -26.1,0 c -3.6,0 -6.5,2.9 -6.5,6.5 0,3.6 2.9,6.5 6.5,6.5 l 26.1,0 0,13.2 -26.1,0 c -3.6,0 -6.6,2.9 -6.6,6.5 z m 45.7,6.6 0,-39.2 19.6,0 c 11,0 19.6,8.6 19.6,19.6 0,11 -8.6,19.6 -19.6,19.6 l -19.6,0 z"
     id="path9" /></svg>