<?xml version="1.0" encoding="iso-8859-1"?>
<!-- Generator: Adobe Illustrator 17.1.0, SVG Export Plug-In . SVG Version: 6.00 Build 0)  -->
<!DOCTYPE svg PUBLIC "-//W3C//DTD SVG 1.1//EN" "http://www.w3.org/Graphics/SVG/1.1/DTD/svg11.dtd">
<svg version="1.1" id="Capa_1" xmlns="http://www.w3.org/2000/svg" xmlns:xlink="http://www.w3.org/1999/xlink" x="0px" y="0px"
	 viewBox="0 0 478.885 478.885" style="enable-background:new 0 0 478.885 478.885;" xml:space="preserve">
<g>
	<path d="M478.607,313.111c-1.223-8.017-4.617-19.613-13.84-29.332c-10.367-10.923-25.144-16.462-43.922-16.462h-96.534
		l-4.571-5.462v-9.205c0-9.055-7.43-16.071-16.65-15.293l-3.594,0.306l-11.421-13.648l-69.407-81.63
		c-1.52-1.788-3.748-2.818-6.095-2.818h-37.353h-6.897h-11.75c-4.418,0-8,3.582-8,8s3.582,8,8,8h5.495l27.774,111.75h-74.441
		l-62.075-54.034c-1.456-1.268-3.322-1.966-5.252-1.966H8c-4.418,0-8,3.582-8,8s3.582,8,8,8h3.271l39.051,88.685
		c5.965,14.819,19.215,23.315,36.376,23.315h368.875c9.484,0,15.019-4.125,17.992-7.586
		C477.756,326.852,479.641,319.891,478.607,313.111z M303.74,253.36v14.497l-79.322-6.373c-0.23-0.019-0.616-0.436-0.616-0.667
		c0-0.244,0.407-0.687,0.65-0.708L303.74,253.36z M461.428,321.305c-1.147,1.335-3.117,2.012-5.855,2.012H86.698
		c-7.408,0-17.164-2.32-21.567-13.375c-0.036-0.088-0.072-0.176-0.11-0.263l-36.267-82.361h16.325l62.075,54.034
		c1.456,1.268,3.322,1.966,5.252,1.966h87.667c2.461,0,4.786-1.133,6.302-3.072c1.516-1.939,2.055-4.468,1.461-6.857l-29.282-117.82
		h30.32l66.97,78.764l4.176,4.99l-56.926,4.846c-8.575,0.731-15.292,8.044-15.292,16.65c0,8.625,6.735,15.924,15.334,16.615
		l79.988,6.427c0.431,0.035,0.857,0.052,1.279,0.052c3.823,0,7.273-1.341,9.931-3.583l0.103,0.123
		c1.52,1.817,3.767,2.866,6.135,2.866h100.271c12.793,0,21.74,3.187,28.006,7.775H431.74c-4.418,0-8,3.582-8,8s3.582,8,8,8h28.905
		c1.096,2.995,1.758,5.895,2.145,8.431C463.12,317.688,462.585,319.958,461.428,321.305z"/>
	<path d="M400.318,291.097c-2.1,0-4.16,0.85-5.65,2.34c-1.49,1.49-2.34,3.55-2.34,5.66c0,2.1,0.85,4.16,2.34,5.65
		c1.49,1.49,3.55,2.35,5.65,2.35c2.11,0,4.17-0.86,5.66-2.35c1.49-1.49,2.35-3.55,2.35-5.65c0-2.11-0.86-4.17-2.35-5.66
		C404.488,291.947,402.428,291.097,400.318,291.097z"/>
	<path d="M376.078,291.097c-2.11,0-4.17,0.85-5.66,2.34c-1.49,1.49-2.34,3.55-2.34,5.65c0,2.11,0.85,4.17,2.34,5.66
		c1.49,1.49,3.55,2.35,5.66,2.35c2.1,0,4.16-0.86,5.65-2.35c1.49-1.49,2.34-3.55,2.34-5.66c0-2.1-0.85-4.16-2.34-5.65
		C380.238,291.947,378.178,291.097,376.078,291.097z"/>
	<path d="M351.818,291.097c-2.1,0-4.16,0.85-5.65,2.34c-1.49,1.49-2.35,3.55-2.35,5.66c0,2.1,0.86,4.16,2.35,5.65
		c1.49,1.49,3.55,2.35,5.65,2.35c2.11,0,4.17-0.86,5.66-2.35c1.49-1.49,2.34-3.55,2.34-5.65c0-2.11-0.85-4.17-2.34-5.66
		C355.988,291.947,353.928,291.097,351.818,291.097z"/>
	<path d="M328.318,291.097c-2.1,0-4.16,0.85-5.65,2.34c-1.49,1.49-2.35,3.55-2.35,5.66c0,2.1,0.86,4.16,2.35,5.65
		c1.49,1.49,3.55,2.35,5.65,2.35c2.11,0,4.17-0.86,5.66-2.35c1.49-1.49,2.34-3.55,2.34-5.65c0-2.11-0.85-4.17-2.34-5.66
		C332.488,291.947,330.428,291.097,328.318,291.097z"/>
	<path d="M304.568,291.097c-2.1,0-4.16,0.85-5.65,2.34c-1.49,1.49-2.34,3.55-2.34,5.66c0,2.1,0.85,4.16,2.34,5.65
		c1.49,1.49,3.55,2.34,5.65,2.34c2.11,0,4.17-0.85,5.66-2.34c1.49-1.49,2.34-3.55,2.34-5.65c0-2.11-0.85-4.17-2.34-5.66
		C308.738,291.947,306.678,291.097,304.568,291.097z"/>
	<path d="M280.328,291.097c-2.11,0-4.17,0.85-5.66,2.34c-1.49,1.49-2.34,3.55-2.34,5.65c0,2.11,0.85,4.17,2.34,5.66
		c1.49,1.49,3.55,2.35,5.66,2.35c2.1,0,4.16-0.86,5.65-2.35c1.49-1.49,2.35-3.55,2.35-5.66c0-2.1-0.86-4.16-2.35-5.65
		C284.488,291.947,282.428,291.097,280.328,291.097z"/>
	<path d="M256.568,291.097c-2.1,0-4.16,0.85-5.65,2.34c-1.49,1.49-2.34,3.55-2.34,5.66c0,2.1,0.85,4.16,2.34,5.65
		c1.49,1.49,3.55,2.35,5.65,2.35c2.11,0,4.17-0.86,5.66-2.35c1.49-1.49,2.34-3.55,2.34-5.65c0-2.11-0.85-4.17-2.34-5.66
		C260.738,291.947,258.678,291.097,256.568,291.097z"/>
	<path d="M232.068,291.097c-2.1,0-4.16,0.85-5.65,2.34c-1.49,1.49-2.35,3.55-2.35,5.66c0,2.1,0.86,4.16,2.35,5.65
		c1.49,1.49,3.55,2.35,5.65,2.35c2.11,0,4.17-0.86,5.66-2.35c1.49-1.49,2.34-3.55,2.34-5.65c0-2.11-0.85-4.17-2.34-5.66
		C236.238,291.947,234.178,291.097,232.068,291.097z"/>
</g>
<g>
</g>
<g>
</g>
<g>
</g>
<g>
</g>
<g>
</g>
<g>
</g>
<g>
</g>
<g>
</g>
<g>
</g>
<g>
</g>
<g>
</g>
<g>
</g>
<g>
</g>
<g>
</g>
<g>
</g>
</svg>
