<?xml version="1.0" encoding="iso-8859-1"?>
<!-- Generator: Adobe Illustrator 17.1.0, SVG Export Plug-In . SVG Version: 6.00 Build 0)  -->
<!DOCTYPE svg PUBLIC "-//W3C//DTD SVG 1.1//EN" "http://www.w3.org/Graphics/SVG/1.1/DTD/svg11.dtd">
<svg version="1.1" id="Capa_1" xmlns="http://www.w3.org/2000/svg" xmlns:xlink="http://www.w3.org/1999/xlink" x="0px" y="0px"
	 viewBox="0 0 464.638 464.638" style="enable-background:new 0 0 464.638 464.638;" xml:space="preserve">
<g>
	<path d="M438.252,204.023l-45.113-36.719c-14.918-13.038-37.71-26.93-57.079-26.93H32.033c-17.645,0-32,14.355-32,32V257.8
		l-0.03,1.294C0.001,259.157,0,259.22,0,259.283c0,19.553,13.887,35.921,32.315,39.768c3.262,14.415,16.166,25.214,31.553,25.214
		c9.704,0,18.417-4.302,24.352-11.091c5.936,6.79,14.651,11.091,24.357,11.091c15.078,0,27.778-10.371,31.348-24.356h154.087
		c3.571,13.984,16.274,24.356,31.354,24.356c9.704,0,18.417-4.302,24.351-11.091c5.936,6.79,14.651,11.091,24.357,11.091
		c15.078,0,27.778-10.371,31.348-24.356h15.367c0.245,0,0.488-0.011,0.728-0.033c21.384-0.834,38.558-18.348,38.846-39.865
		C464.962,254.981,466.992,226.083,438.252,204.023z M393.767,188.445l28.687,23.349H354.42c-0.527-0.109-1.073-0.167-1.633-0.167
		c-4.501,0-8.162-3.661-8.162-8.162v-15.021H393.767z M63.868,308.265c-6.113,0-11.445-3.376-14.252-8.356h28.498
		C75.307,304.889,69.978,308.265,63.868,308.265z M112.576,308.265c-6.113,0-11.445-3.376-14.252-8.356h28.498
		C124.016,304.889,118.686,308.265,112.576,308.265z M329.366,308.265c-6.113,0-11.445-3.376-14.252-8.356h28.498
		C340.805,304.889,335.476,308.265,329.366,308.265z M378.074,308.265c-6.113,0-11.445-3.376-14.252-8.356h28.498
		C389.513,304.889,384.184,308.265,378.074,308.265z M448.467,258.189c-0.067,0.42-0.102,0.844-0.102,1.27
		c0,13.481-10.968,24.448-24.448,24.448c-0.052,0-0.104,0-0.154,0.001h-21.31c-0.01,0-0.019-0.001-0.029-0.001
		s-0.019,0.001-0.029,0.001h-48.65c-0.01,0-0.019-0.001-0.029-0.001s-0.019,0.001-0.029,0.001h-48.65
		c-0.01,0-0.019-0.001-0.029-0.001s-0.019,0.001-0.029,0.001H136.956c-0.01,0-0.019-0.001-0.029-0.001s-0.019,0.001-0.029,0.001
		H88.247c-0.01,0-0.019-0.001-0.029-0.001s-0.019,0.001-0.029,0.001H40.626c-13.55,0-24.579-11-24.626-24.539l0.031-1.288
		c0.001-0.063,0.002-0.126,0.002-0.188v-85.52c0-8.823,7.178-16,16-16H336.06c11.151,0,25.749,7.311,37.852,16.071h-37.286
		c-4.418,0-8,3.582-8,8v23.021c0,12.656,9.781,23.071,22.182,24.082c0.633,0.161,1.297,0.247,1.98,0.247h86.702
		C450.515,242.738,448.573,257.464,448.467,258.189z"/>
	<path d="M304.542,172.445H40.208c-4.418,0-8,3.582-8,8v23.448c0,13.323,10.839,24.162,24.162,24.162h232.01
		c13.322,0,24.161-10.839,24.161-24.162v-23.448C312.542,176.026,308.959,172.445,304.542,172.445z M296.542,203.893
		c0,4.5-3.661,8.162-8.161,8.162H56.371c-4.5,0-8.162-3.661-8.162-8.162v-15.448h248.333V203.893z"/>
</g>
<g>
</g>
<g>
</g>
<g>
</g>
<g>
</g>
<g>
</g>
<g>
</g>
<g>
</g>
<g>
</g>
<g>
</g>
<g>
</g>
<g>
</g>
<g>
</g>
<g>
</g>
<g>
</g>
<g>
</g>
</svg>
