<svg xmlns="http://www.w3.org/2000/svg" xmlns:xlink="http://www.w3.org/1999/xlink" version="1.1" x="0px" y="0px" viewBox="0 0 100 125" enable-background="new 0 0 100 100" xml:space="preserve"><g><path d="M88.8,43.4C88.8,43.4,88.8,43.4,88.8,43.4l-22.3,0.1l-32.6-37h-7.3l15.8,36.8l-24.3,0L10.4,33l-5.5,1.3L11,50L4.9,65.6   l5.5,1.3l7.8-10.3l24.3,0L26.7,93.5h7.3l32.6-37l22.3,0.1c0,0,0,0,0,0c3.5,0,6.3-2.9,6.3-6.6S92.3,43.4,88.8,43.4z M30.6,52.5   c-1.4,0-2.5-1.1-2.5-2.5c0-1.4,1.1-2.5,2.5-2.5c1.4,0,2.5,1.1,2.5,2.5C33.1,51.4,32,52.5,30.6,52.5z M40.6,52.5   c-1.4,0-2.5-1.1-2.5-2.5c0-1.4,1.1-2.5,2.5-2.5c1.4,0,2.5,1.1,2.5,2.5C43.1,51.4,42,52.5,40.6,52.5z M50.6,52.5   c-1.4,0-2.5-1.1-2.5-2.5c0-1.4,1.1-2.5,2.5-2.5c1.4,0,2.5,1.1,2.5,2.5C53.1,51.4,52,52.5,50.6,52.5z M60.6,52.5   c-1.4,0-2.5-1.1-2.5-2.5c0-1.4,1.1-2.5,2.5-2.5c1.4,0,2.5,1.1,2.5,2.5C63.1,51.4,62,52.5,60.6,52.5z M70.6,52.5   c-1.4,0-2.5-1.1-2.5-2.5c0-1.4,1.1-2.5,2.5-2.5c1.4,0,2.5,1.1,2.5,2.5C73.1,51.4,72,52.5,70.6,52.5z M80.6,52.5   c-1.4,0-2.5-1.1-2.5-2.5c0-1.4,1.1-2.5,2.5-2.5c1.4,0,2.5,1.1,2.5,2.5C83.1,51.4,82,52.5,80.6,52.5z"/></g><text x="0" y="115" fill="#000000" font-size="5px" font-weight="bold" font-family="'Helvetica Neue', Helvetica, Arial-Unicode, Arial, Sans-serif">Created by Björn Andersson</text><text x="0" y="120" fill="#000000" font-size="5px" font-weight="bold" font-family="'Helvetica Neue', Helvetica, Arial-Unicode, Arial, Sans-serif">from the Noun Project</text></svg>