<svg xmlns:dc="http://purl.org/dc/elements/1.1/" xmlns:cc="http://creativecommons.org/ns#" xmlns:rdf="http://www.w3.org/1999/02/22-rdf-syntax-ns#" xmlns:svg="http://www.w3.org/2000/svg" xmlns="http://www.w3.org/2000/svg" xmlns:sodipodi="http://sodipodi.sourceforge.net/DTD/sodipodi-0.dtd" xmlns:inkscape="http://www.inkscape.org/namespaces/inkscape" version="1.1" x="0px" y="0px" viewBox="0 0 80 100"><g transform="translate(0,-972.36218)"><path style="text-indent:0;text-transform:none;direction:ltr;block-progression:tb;baseline-shift:baseline;color:#000000;enable-background:accumulate;" d="m 18.99999,1016.3622 c 0,1.1046 0.8954,2 2,2 l 8.00002,0 0,2 c 0.016,1.0737 1.0991,1.9754 2,2 l 8,0 c 4.8172,0 8.8457,-3.4515 9.7812,-8 l 10.2188,0 c 1.1045,0 2,-0.8954 2,-2 0,-1.1046 -0.8955,-2 -2,-2 l -10.2188,0 c -0.9355,-4.5485 -4.964,-8 -9.7812,-8 l -8,0 c -1.0472,10e-5 -1.9999,0.9528 -2,2 l 0,2 -8.00002,0 c -1.1046,0 -2,0.8954 -2,2 0,1.1046 0.8954,2 2,2 l 8.00002,0 0,4 -8.00002,0 c -1.1046,0 -2,0.8954 -2,2 z m 14.00002,2 0,-12 6,0 c 3.3586,0 6,2.6414 6,6 0,3.3586 -2.6414,6 -6,6 l -6,0 z" fill="#000000" fill-opacity="1" stroke="none" marker="none" visibility="visible" display="inline" overflow="visible"/></g><text x="0" y="95" fill="#000000" font-size="5px" font-weight="bold" font-family="'Helvetica Neue', Helvetica, Arial-Unicode, Arial, Sans-serif">Created by Aybige</text><text x="0" y="100" fill="#000000" font-size="5px" font-weight="bold" font-family="'Helvetica Neue', Helvetica, Arial-Unicode, Arial, Sans-serif">from the Noun Project</text></svg>