<svg xmlns="http://www.w3.org/2000/svg" xmlns:xlink="http://www.w3.org/1999/xlink" version="1.1" x="0px" y="0px" viewBox="0 0 91.852 100" enable-background="new 0 0 91.852 100" xml:space="preserve"><path d="M87.291,57.829h-4.243V38.293v-0.276h7.809V22.019h-7.809v-9.686c0-5.204-4.227-9.429-9.429-9.429H18.052  c-5.199,0-9.427,4.225-9.427,9.429v9.7H0.565v15.998h8.061v0.262v19.536H4.465C1.998,57.829,0,59.825,0,62.297v33.235  C0,97.999,1.998,100,4.465,100h12.318c2.466,0,4.465-2.001,4.465-4.468V81.221h9.189c0.165,2.944,2.788,5.311,6.063,5.311h18.667  c3.276,0,5.901-2.366,6.065-5.311h9.274v14.312c0,2.467,1.997,4.468,4.462,4.468h12.321c2.462,0,4.458-2.001,4.458-4.468V62.297  C91.749,59.825,89.753,57.829,87.291,57.829z M22.946,59.617c-3.767,0-6.822-3.054-6.822-6.818c0-3.769,3.055-6.822,6.822-6.822  c3.767,0,6.822,3.053,6.822,6.822C29.768,56.563,26.713,59.617,22.946,59.617z M56.272,59.622H35.396V45.977h20.876V59.622z   M18.55,33.816V12.827h54.576v20.989H18.55z M68.822,59.617c-3.77,0-6.821-3.054-6.821-6.818c0-3.769,3.052-6.822,6.821-6.822  c3.765,0,6.821,3.053,6.821,6.822C75.643,56.563,72.587,59.617,68.822,59.617z"></path></svg>