<svg xmlns="http://www.w3.org/2000/svg" xmlns:xlink="http://www.w3.org/1999/xlink" version="1.1" x="0px" y="0px" viewBox="0 0 100 125" enable-background="new 0 0 100 100" xml:space="preserve"><path fill="#000000" d="M66.722,64.225c0-5.884,4.771-10.647,10.649-10.647c5.884,0,10.651,4.767,10.651,10.647  c0,5.883-4.77,10.65-10.651,10.65C71.491,74.875,66.722,70.107,66.722,64.225L66.722,64.225z M72.163,64.225  c0,2.877,2.334,5.209,5.209,5.209c2.877,0,5.209-2.332,5.209-5.209s-2.332-5.209-5.209-5.209  C74.497,59.016,72.163,61.348,72.163,64.225L72.163,64.225z M10.802,64.225c0-5.884,4.77-10.647,10.648-10.647  c5.883,0,10.649,4.767,10.649,10.647c0,5.883-4.769,10.65-10.649,10.65C15.572,74.875,10.802,70.107,10.802,64.225L10.802,64.225z   M16.243,64.225c0,2.877,2.33,5.209,5.207,5.209c2.879,0,5.209-2.332,5.209-5.209s-2.33-5.209-5.209-5.209  C18.574,59.016,16.243,61.348,16.243,64.225L16.243,64.225z M88.997,27.084h-0.693h-8.453c-1.01,0-1.252,0.818-0.539,1.828  l6.269,8.822c0.927,1.223,1.3,1.315,2.313,1.315l1.105-0.001c1.012,0,1.83-0.819,1.83-1.829v-8.307  C90.827,27.903,90.009,27.084,88.997,27.084L88.997,27.084z M39.101,28.396l-6.266,8.822c-0.713,1.01-0.474,1.83,0.539,1.83h17.381  c1.006,0,1.825-0.819,1.825-1.83v-8.306c0-1.01-0.819-1.828-1.825-1.828l-9.338-0.002C40.397,27.082,40.022,27.174,39.101,28.396  L39.101,28.396z M58.597,39.047h21.318c1.008,0,1.25-0.819,0.535-1.83l-6.264-8.822c-0.924-1.222-1.299-1.314-2.316-1.314  l-13.273,0.002c-1.01,0-1.828,0.818-1.828,1.828v8.306C56.769,38.228,57.587,39.047,58.597,39.047L58.597,39.047z M48.562,42.378  h-4.397c-1.629,0-1.629,2.438,0,2.438h4.401c0.306,0.364,0.775,0.609,1.41,0.609c2.439,0,2.439-3.657-0.01-3.657  C49.331,41.769,48.867,42.014,48.562,42.378L48.562,42.378z M60.478,42.378c-0.305-0.365-0.771-0.61-1.4-0.61  c-2.449,0-2.449,3.657-0.012,3.657c0.637,0,1.105-0.246,1.408-0.609h4.406c1.625,0,1.625-2.438,0-2.438H60.478L60.478,42.378z   M35.55,61.83c-1.141-6.756-7.02-11.903-14.1-11.903c-7.084,0-12.963,5.155-14.101,11.914L1.97,61.846  c-1.012,0-1.828-0.82-1.828-1.83v-4.822c0-1.008,0.816-1.828,1.828-1.828l3.224-0.01v-9.431c0-2.694,2.18-4.876,4.873-4.876  l15.812-0.001l9.358-13.184c1.646-2.192,3.226-3.048,5.746-3.048l47.974,0.001c3.365,0,6.097,2.73,6.097,6.097l0.006,24.441  l3.051,0.01c1.008,0,1.824,0.82,1.824,1.828v4.822c0,1.012-0.816,1.83-1.824,1.83l-6.637,0.002  c-1.133-6.766-7.017-11.919-14.103-11.919c-7.078,0-12.961,5.151-14.099,11.909L35.55,61.83z"/><text x="0" y="115" fill="#000000" font-size="5px" font-weight="bold" font-family="'Helvetica Neue', Helvetica, Arial-Unicode, Arial, Sans-serif">Created by Simon Child</text><text x="0" y="120" fill="#000000" font-size="5px" font-weight="bold" font-family="'Helvetica Neue', Helvetica, Arial-Unicode, Arial, Sans-serif">from the Noun Project</text></svg>