<?xml version="1.0" encoding="UTF-8" standalone="no"?>
<svg
   xmlns:dc="http://purl.org/dc/elements/1.1/"
   xmlns:cc="http://creativecommons.org/ns#"
   xmlns:rdf="http://www.w3.org/1999/02/22-rdf-syntax-ns#"
   xmlns:svg="http://www.w3.org/2000/svg"
   xmlns="http://www.w3.org/2000/svg"
   height="97.097656"
   width="91.746094"
   id="svg4"
   xml:space="preserve"
   enable-background="new 0 0 91.852 100"
   viewBox="0 0 91.746096 97.097656"
   y="0px"
   x="0px"
   version="1.1"><metadata
     id="metadata10"><rdf:RDF><cc:Work
         rdf:about=""><dc:format>image/svg+xml</dc:format><dc:type
           rdf:resource="http://purl.org/dc/dcmitype/StillImage" /><dc:title></dc:title></cc:Work></rdf:RDF></metadata><defs
     id="defs8" /><path
     id="path2"
     d="M 18.052734,0 C 12.853734,0 8.625,4.2237343 8.625,9.4277341 V 19.128906 H 0.56445312 V 35.126953 H 8.6269531 v 0.261719 19.535156 H 4.4648438 C 1.9978438,54.923828 0,56.920578 0,59.392578 v 33.234375 c 0,2.467 1.9978438,4.46875 4.4648438,4.46875 H 16.783203 c 2.466,0 4.464844,-2.00175 4.464844,-4.46875 V 78.316406 H 30.4375 c 0.165,2.944 2.7875,5.310547 6.0625,5.310547 h 18.667969 c 3.276,0 5.900453,-2.365547 6.064453,-5.310547 h 9.273437 v 14.3125 c 0,2.467 1.997891,4.468747 4.462891,4.468747 h 12.320312 c 2.462001,0 4.457032,-2.001747 4.457032,-4.468747 V 59.392578 c 0.002,-2.472 -1.993078,-4.46875 -4.455078,-4.46875 H 83.048828 V 35.388672 35.113281 h 7.808594 V 19.115234 H 83.048828 V 9.4277341 C 83.048828,4.2237344 78.821141,0 73.619141,0 Z m 0.498047,9.9218751 H 73.126953 V 30.912109 h -8.623047 a 9.3220339,9.3220339 0 0 0 3.080078,-6.910156 9.3220339,9.3220339 0 0 0 -9.320312,-9.322266 9.3220339,9.3220339 0 0 0 -9.322266,9.322266 9.3220339,9.3220339 0 0 0 3.080078,6.910156 H 18.550781 Z m 4.394531,33.1503899 c 3.767,0 6.822266,3.053266 6.822266,6.822266 0,3.764 -3.055266,6.818359 -6.822266,6.81836 -3.766999,0 -6.822265,-3.05436 -6.822265,-6.81836 0,-3.769 3.055266,-6.822265 6.822265,-6.822266 z m 12.451172,0 h 20.875 v 13.644532 h -20.875 z m 33.425782,0 c 3.765,0 6.820312,3.053266 6.820312,6.822266 0,3.764 -3.055312,6.818359 -6.820312,6.81836 -3.77,0 -6.820313,-3.05436 -6.820313,-6.81836 0,-3.769 3.051313,-6.822265 6.820313,-6.822266 z" /></svg>