<?xml version="1.0" encoding="UTF-8" standalone="no"?>
<svg
   xmlns:dc="http://purl.org/dc/elements/1.1/"
   xmlns:cc="http://creativecommons.org/ns#"
   xmlns:rdf="http://www.w3.org/1999/02/22-rdf-syntax-ns#"
   xmlns:svg="http://www.w3.org/2000/svg"
   xmlns="http://www.w3.org/2000/svg"
   version="1.1"
   x="0px"
   y="0px"
   viewBox="0 0 99.792999 52.058998"
   enable-background="new 0 0 100 100"
   xml:space="preserve"
   id="svg8"
   width="99.792999"
   height="52.058998"><metadata
     id="metadata14"><rdf:RDF><cc:Work
         rdf:about=""><dc:format>image/svg+xml</dc:format><dc:type
           rdf:resource="http://purl.org/dc/dcmitype/StillImage" /><dc:title></dc:title></cc:Work></rdf:RDF></metadata><defs
     id="defs12" /><path
     id="path2"
     d="M 58.951172 0 L 10.978516 0.001953125 C 7.6135152 0.001953125 4.8808594 2.7306562 4.8808594 6.0976562 L 4.875 30.539062 L 1.8242188 30.548828 C 0.8162187 30.548828 0 31.368953 0 32.376953 L 0 37.199219 C 0 38.211219 0.8162187 39.029297 1.8242188 39.029297 L 8.4609375 39.03125 C 9.5939375 32.26525 15.478453 27.111328 22.564453 27.111328 C 29.642453 27.111328 35.524109 32.263484 36.662109 39.021484 L 64.384766 39.013672 C 65.525766 32.257672 71.404375 27.111328 78.484375 27.111328 C 85.568375 27.111328 91.447938 32.266391 92.585938 39.025391 L 97.964844 39.029297 C 98.976844 39.029297 99.792969 38.209219 99.792969 37.199219 L 99.792969 32.378906 C 99.792969 31.370906 98.976844 30.550781 97.964844 30.550781 L 94.740234 30.539062 L 94.740234 21.109375 C 94.740234 18.415375 92.560188 16.232422 89.867188 16.232422 L 74.056641 16.232422 L 64.697266 3.0488281 C 63.051266 0.85682814 61.471172 2.9605947e-016 58.951172 0 z M 28.064453 4.265625 L 41.337891 4.2675781 C 42.347891 4.2675781 43.166016 5.0857031 43.166016 6.0957031 L 43.166016 14.400391 C 43.166016 15.411391 42.347891 16.230469 41.337891 16.230469 L 20.019531 16.230469 C 19.011531 16.230469 18.769375 15.411391 19.484375 14.400391 L 25.748047 5.578125 C 26.672047 4.356125 27.047453 4.265625 28.064453 4.265625 z M 58.517578 4.265625 C 59.537578 4.265625 59.912984 4.3580781 60.833984 5.5800781 L 67.099609 14.402344 C 67.812609 15.412344 67.573547 16.232422 66.560547 16.232422 L 49.179688 16.232422 C 48.173687 16.232422 47.355469 15.413344 47.355469 14.402344 L 47.355469 6.0957031 C 47.355469 5.0857031 48.173687 4.2675781 49.179688 4.2675781 L 58.517578 4.265625 z M 22.564453 30.761719 C 16.680453 30.761719 11.912109 35.528203 11.912109 41.408203 C 11.912109 47.291203 16.683453 52.058594 22.564453 52.058594 C 28.444453 52.058594 33.212891 47.290203 33.212891 41.408203 C 33.212891 35.524203 28.442453 30.761719 22.564453 30.761719 z M 78.484375 30.761719 C 72.601375 30.761719 67.835938 35.528203 67.835938 41.408203 C 67.835938 47.291203 72.604375 52.058594 78.484375 52.058594 C 84.362375 52.058594 89.132812 47.290203 89.132812 41.408203 C 89.132812 35.524203 84.362375 30.761719 78.484375 30.761719 z M 22.5625 36.199219 C 25.4375 36.199219 27.771484 38.531203 27.771484 41.408203 C 27.771484 44.285203 25.4375 46.617188 22.5625 46.617188 C 19.6855 46.617188 17.353516 44.285203 17.353516 41.408203 C 17.353516 38.531203 19.6855 36.199219 22.5625 36.199219 z M 78.484375 36.199219 C 81.360375 36.199219 83.691406 38.531203 83.691406 41.408203 C 83.691406 44.285203 81.361375 46.617188 78.484375 46.617188 C 75.605375 46.617188 73.275391 44.285203 73.275391 41.408203 C 73.275391 38.531203 75.605375 36.199219 78.484375 36.199219 z "
     style="fill:#000000" /><text
     x="-0.142"
     y="92.183998"
     font-size="5px"
     font-weight="bold"
     id="text4"
     style="font-weight:bold;font-size:5px;font-family:'Helvetica Neue', Helvetica, Arial-Unicode, Arial, Sans-serif;fill:#000000">Created by Simon Child</text>
<text
     x="-0.142"
     y="97.183998"
     font-size="5px"
     font-weight="bold"
     id="text6"
     style="font-weight:bold;font-size:5px;font-family:'Helvetica Neue', Helvetica, Arial-Unicode, Arial, Sans-serif;fill:#000000">from the Noun Project</text>
<path
     style="fill:#000000;fill-opacity:1;stroke:none;stroke-width:1;stroke-miterlimit:4;stroke-dasharray:none;stroke-opacity:1"
     d="m 61.043431,11.672346 a 5.6938558,5.6938558 0 0 1 -5.693856,5.693856 5.6938558,5.6938558 0 0 1 -5.693856,-5.693856 5.6938558,5.6938558 0 0 1 5.693856,-5.6938556 5.6938558,5.6938558 0 0 1 5.693856,5.6938556 z"
     id="path4491" /></svg>