<?xml version="1.0" encoding="UTF-8" standalone="no"?>
<svg
   xmlns:dc="http://purl.org/dc/elements/1.1/"
   xmlns:cc="http://creativecommons.org/ns#"
   xmlns:rdf="http://www.w3.org/1999/02/22-rdf-syntax-ns#"
   xmlns:svg="http://www.w3.org/2000/svg"
   xmlns="http://www.w3.org/2000/svg"
   height="52.058998"
   width="99.792999"
   id="svg8"
   xml:space="preserve"
   enable-background="new 0 0 100 100"
   viewBox="0 0 99.792999 52.058998"
   y="0px"
   x="0px"
   version="1.1"><metadata
     id="metadata14"><rdf:RDF><cc:Work
         rdf:about=""><dc:format>image/svg+xml</dc:format><dc:type
           rdf:resource="http://purl.org/dc/dcmitype/StillImage" /><dc:title></dc:title></cc:Work></rdf:RDF></metadata><defs
     id="defs12" /><path
     style="fill:#000000"
     id="path2"
     d="m 33.213,41.409 c 0,-5.884 -4.771,-10.647 -10.649,-10.647 -5.884,0 -10.651,4.767 -10.651,10.647 0,5.883 4.77,10.65 10.651,10.65 5.88,0 10.649,-4.768 10.649,-10.65 z m -5.441,0 c 0,2.877 -2.334,5.209 -5.209,5.209 -2.877,0 -5.209,-2.332 -5.209,-5.209 0,-2.877 2.332,-5.209 5.209,-5.209 2.875,0 5.209,2.332 5.209,5.209 z m 61.361,0 c 0,-5.884 -4.77,-10.647 -10.648,-10.647 -5.883,0 -10.649,4.767 -10.649,10.647 0,5.883 4.769,10.65 10.649,10.65 5.878,0 10.648,-4.768 10.648,-10.65 z m -5.441,0 c 0,2.877 -2.33,5.209 -5.207,5.209 -2.879,0 -5.209,-2.332 -5.209,-5.209 0,-2.877 2.33,-5.209 5.209,-5.209 2.876,0 5.207,2.332 5.207,5.209 z M 10.938,4.268 h 0.693 8.453 c 1.01,0 1.252,0.818 0.539,1.828 l -6.269,8.822 c -0.927,1.223 -1.3,1.315 -2.313,1.315 l -1.105,-0.001 c -1.012,0 -1.83,-0.819 -1.83,-1.829 V 6.096 C 9.108,5.087 9.926,4.268 10.938,4.268 Z M 60.834,5.58 67.1,14.402 c 0.713,1.01 0.474,1.83 -0.539,1.83 H 49.18 c -1.006,0 -1.825,-0.819 -1.825,-1.83 V 6.096 c 0,-1.01 0.819,-1.828 1.825,-1.828 l 9.338,-0.002 c 1.02,0 1.395,0.092 2.316,1.314 z M 41.338,16.231 H 20.02 c -1.008,0 -1.25,-0.819 -0.535,-1.83 l 6.264,-8.822 c 0.924,-1.222 1.299,-1.314 2.316,-1.314 l 13.273,0.002 c 1.01,0 1.828,0.818 1.828,1.828 v 8.306 c 0,1.011 -0.818,1.83 -1.828,1.83 z m 10.035,3.331 h 4.397 c 1.629,0 1.629,2.438 0,2.438 h -4.401 c -0.306,0.364 -0.775,0.609 -1.41,0.609 -2.439,0 -2.439,-3.657 0.01,-3.657 0.635,10e-4 1.099,0.246 1.404,0.61 z m -11.916,0 c 0.305,-0.365 0.771,-0.61 1.4,-0.61 2.449,0 2.449,3.657 0.012,3.657 -0.637,0 -1.105,-0.246 -1.408,-0.609 h -4.406 c -1.625,0 -1.625,-2.438 0,-2.438 z m 24.928,19.452 c 1.141,-6.756 7.02,-11.903 14.1,-11.903 7.084,0 12.963,5.155 14.101,11.914 l 5.379,0.005 c 1.012,0 1.828,-0.82 1.828,-1.83 v -4.822 c 0,-1.008 -0.816,-1.828 -1.828,-1.828 l -3.224,-0.01 v -9.431 c 0,-2.694 -2.18,-4.876 -4.873,-4.876 L 74.056,16.232 64.698,3.048 C 63.052,0.856 61.472,0 58.952,0 L 10.978,10e-4 c -3.365,0 -6.097,2.73 -6.097,6.097 L 4.875,30.539 1.824,30.549 C 0.816,30.549 0,31.369 0,32.377 v 4.822 c 0,1.012 0.816,1.83 1.824,1.83 l 6.637,0.002 c 1.133,-6.766 7.017,-11.919 14.103,-11.919 7.078,0 12.961,5.151 14.099,11.909 z" /><text
     style="font-weight:bold;font-size:5px;font-family:'Helvetica Neue', Helvetica, Arial-Unicode, Arial, Sans-serif;fill:#000000"
     id="text4"
     font-weight="bold"
     font-size="5px"
     y="92.183998"
     x="-0.142">Created by Simon Child</text>
<text
     style="font-weight:bold;font-size:5px;font-family:'Helvetica Neue', Helvetica, Arial-Unicode, Arial, Sans-serif;fill:#000000"
     id="text6"
     font-weight="bold"
     font-size="5px"
     y="97.183998"
     x="-0.142">from the Noun Project</text>
<path
     id="path4491"
     d="m 61.043431,11.672346 a 5.6938558,5.6938558 0 0 1 -5.693856,5.693856 5.6938558,5.6938558 0 0 1 -5.693856,-5.693856 5.6938558,5.6938558 0 0 1 5.693856,-5.6938556 5.6938558,5.6938558 0 0 1 5.693856,5.6938556 z"
     style="fill:#000000;fill-opacity:1;stroke:none;stroke-width:1;stroke-miterlimit:4;stroke-dasharray:none;stroke-opacity:1" /></svg>