<?xml version="1.0" encoding="UTF-8" standalone="no"?>
<svg
   xmlns:dc="http://purl.org/dc/elements/1.1/"
   xmlns:cc="http://creativecommons.org/ns#"
   xmlns:rdf="http://www.w3.org/1999/02/22-rdf-syntax-ns#"
   xmlns:svg="http://www.w3.org/2000/svg"
   xmlns="http://www.w3.org/2000/svg"
   version="1.1"
   x="0px"
   y="0px"
   viewBox="0 0 88.566406 37.460171"
   enable-background="new 0 0 100 100"
   xml:space="preserve"
   id="svg14"
   width="88.566406"
   height="37.460171"><metadata
     id="metadata20"><rdf:RDF><cc:Work
         rdf:about=""><dc:format>image/svg+xml</dc:format><dc:type
           rdf:resource="http://purl.org/dc/dcmitype/StillImage" /><dc:title></dc:title></cc:Work></rdf:RDF></metadata><defs
     id="defs18" /><path
     id="path2"
     d="M 42.089844 0.005859375 C 41.488164 -0.006644535 41.167969 0.0078125 41.167969 0.0078125 L 0 0.0078125 L 0 25.507812 L 0 27.222656 L 0 28.376953 L 0 31.263672 L 0.35546875 31.263672 C 0.30017795 31.56927 0.265625 31.881509 0.265625 32.203125 C 0.265625 35.109082 2.6201979 37.460938 5.5214844 37.460938 C 8.421992 37.460938 10.779297 35.109082 10.779297 32.203125 C 10.779297 31.881509 10.744793 31.56927 10.689453 31.263672 L 12.015625 31.263672 C 11.960335 31.56927 11.925781 31.881509 11.925781 32.203125 C 11.925781 35.109082 14.280354 37.460938 17.181641 37.460938 C 20.082149 37.460938 22.439453 35.109082 22.439453 32.203125 C 22.439453 31.881509 22.404949 31.56927 22.349609 31.263672 L 44.46875 31.263672 C 44.41346 31.56927 44.380859 31.881509 44.380859 32.203125 C 44.380859 35.109082 46.735432 37.460938 49.636719 37.460938 C 52.537227 37.460938 54.892578 35.109082 54.892578 32.203125 C 54.892578 31.881509 54.858074 31.56927 54.802734 31.263672 L 56.03125 31.263672 C 55.97597 31.569249 55.943359 31.881533 55.943359 32.203125 C 55.943359 35.109082 58.297933 37.460938 61.199219 37.460938 C 64.099727 37.460938 66.455078 35.109082 66.455078 32.203125 C 66.455078 31.881509 66.420574 31.56927 66.365234 31.263672 L 67.595703 31.263672 C 67.540413 31.56927 67.505859 31.881509 67.505859 32.203125 C 67.505859 35.109082 69.860432 37.460938 72.761719 37.460938 C 75.662226 37.460938 78.017578 35.109082 78.017578 32.203125 C 78.017578 31.881533 77.985018 31.569249 77.929688 31.263672 L 78.902344 31.263672 C 84.391344 31.263672 88.566406 30.824563 88.566406 27.851562 C 88.566406 24.878563 81.648436 18.304688 81.648438 18.304688 C 64.237674 1.4941866 46.301602 0.093386715 42.089844 0.005859375 z " /><text
     x="-5.717"
     y="85.586151"
     font-size="5px"
     font-weight="bold"
     id="text10"
     style="font-weight:bold;font-size:5px;font-family:'Helvetica Neue', Helvetica, Arial-Unicode, Arial, Sans-serif;fill:#000000">Created by Bakunetsu Kaito</text>
<text
     x="-5.717"
     y="90.586151"
     font-size="5px"
     font-weight="bold"
     id="text12"
     style="font-weight:bold;font-size:5px;font-family:'Helvetica Neue', Helvetica, Arial-Unicode, Arial, Sans-serif;fill:#000000">from the Noun Project</text>
</svg>