<?xml version="1.0" encoding="UTF-8" standalone="no"?>
<svg
   xmlns:dc="http://purl.org/dc/elements/1.1/"
   xmlns:cc="http://creativecommons.org/ns#"
   xmlns:rdf="http://www.w3.org/1999/02/22-rdf-syntax-ns#"
   xmlns:svg="http://www.w3.org/2000/svg"
   xmlns="http://www.w3.org/2000/svg"
   height="42.289223"
   width="88.566002"
   id="svg14"
   xml:space="preserve"
   enable-background="new 0 0 100 100"
   viewBox="0 0 88.566002 42.289223"
   y="0px"
   x="0px"
   version="1.1"><metadata
     id="metadata20"><rdf:RDF><cc:Work
         rdf:about=""><dc:format>image/svg+xml</dc:format><dc:type
           rdf:resource="http://purl.org/dc/dcmitype/StillImage" /><dc:title></dc:title></cc:Work></rdf:RDF></metadata><defs
     id="defs18" /><g
     transform="translate(-5.717,-29.413079)"
     id="g4"><path
       id="path2"
       d="M 87.365,47.717 C 67.467,28.505 46.884,29.42 46.884,29.42 H 5.717 v 25.5 h 74.787 v 1.715 H 5.717 v 4.041 H 84.62 c 5.489,0 9.663,-0.439 9.663,-3.412 0,-2.973 -6.918,-9.547 -6.918,-9.547 z M 18.589,43.597 H 9.167 v -9.423 h 9.422 z m 13.082,0 h -9.422 v -9.423 h 9.422 z m 13.082,0 H 35.33 v -9.423 h 9.423 z m 3.66,0.003 v -9.422 c 0,0 2.136,-0.007 2.282,-0.007 1.606,0 13.714,0.318 27.437,9.43 H 48.413 Z" /></g><text
     style="font-weight:bold;font-size:5px;font-family:'Helvetica Neue', Helvetica, Arial-Unicode, Arial, Sans-serif;fill:#000000"
     id="text10"
     font-weight="bold"
     font-size="5px"
     y="85.586922"
     x="-5.717">Created by Bakunetsu Kaito</text>
<text
     style="font-weight:bold;font-size:5px;font-family:'Helvetica Neue', Helvetica, Arial-Unicode, Arial, Sans-serif;fill:#000000"
     id="text12"
     font-weight="bold"
     font-size="5px"
     y="90.586922"
     x="-5.717">from the Noun Project</text>
<path
     style="stroke-width:0.75033391"
     id="path6-2"
     d="m 70.124322,32.159716 c -2.795745,0 -5.064755,2.265258 -5.064755,5.064004 0,2.800246 2.26901,5.065504 5.064755,5.065504 2.794994,0 5.065504,-2.265258 5.065504,-5.065504 0,-2.798746 -2.271261,-5.064004 -5.065504,-5.064004 z m 0,7.826734 c -1.52618,0 -2.76123,-1.232799 -2.76123,-2.762729 0,-1.52768 1.23505,-2.761229 2.76123,-2.761229 1.524678,0 2.758977,1.233549 2.758977,2.761229 0,1.52993 -1.234299,2.762729 -2.758977,2.762729 z" /><path
     style="stroke-width:0.75033391"
     id="path6-2-9"
     d="m 58.982148,32.159716 c -2.795745,0 -5.064755,2.265258 -5.064755,5.064004 0,2.800246 2.26901,5.065504 5.064755,5.065504 2.794994,0 5.065504,-2.265258 5.065504,-5.065504 0,-2.798746 -2.271261,-5.064004 -5.065504,-5.064004 z m 0,7.826734 c -1.52618,0 -2.76123,-1.232799 -2.76123,-2.762729 0,-1.52768 1.23505,-2.761229 2.76123,-2.761229 1.524678,0 2.758977,1.233549 2.758977,2.761229 0,1.52993 -1.234299,2.762729 -2.758977,2.762729 z" /><path
     style="stroke-width:0.75033391"
     id="path6-2-3"
     d="m 47.839972,32.159716 c -2.795745,0 -5.064755,2.265258 -5.064755,5.064004 0,2.800246 2.26901,5.065504 5.064755,5.065504 2.794994,0 5.065504,-2.265258 5.065504,-5.065504 0,-2.798746 -2.271261,-5.064004 -5.065504,-5.064004 z m 0,7.826734 c -1.52618,0 -2.76123,-1.232799 -2.76123,-2.762729 0,-1.52768 1.23505,-2.761229 2.76123,-2.761229 1.524678,0 2.758977,1.233549 2.758977,2.761229 0,1.52993 -1.234299,2.762729 -2.758977,2.762729 z" /><path
     style="stroke-width:0.75033391"
     id="path6-2-8"
     d="m 5.331168,32.159716 c -2.7957445,0 -5.0647545,2.265258 -5.0647545,5.064004 0,2.800246 2.26901,5.065504 5.0647545,5.065504 2.794994,0 5.065504,-2.265258 5.065504,-5.065504 0,-2.798746 -2.271261,-5.064004 -5.065504,-5.064004 z m 0,7.826734 c -1.5261795,0 -2.7612295,-1.232799 -2.7612295,-2.762729 0,-1.52768 1.23505,-2.761229 2.7612295,-2.761229 1.524678,0 2.758977,1.233549 2.758977,2.761229 0,1.52993 -1.234299,2.762729 -2.758977,2.762729 z" /><path
     style="stroke-width:0.75033391"
     id="path6-2-6"
     d="m 16.566976,32.159716 c -2.795745,0 -5.064755,2.265258 -5.064755,5.064004 0,2.800246 2.26901,5.065504 5.064755,5.065504 2.794994,0 5.065504,-2.265258 5.065504,-5.065504 0,-2.798746 -2.271261,-5.064004 -5.065504,-5.064004 z m 0,7.826734 c -1.52618,0 -2.76123,-1.232799 -2.76123,-2.762729 0,-1.52768 1.23505,-2.761229 2.76123,-2.761229 1.524678,0 2.758977,1.233549 2.758977,2.761229 0,1.52993 -1.234299,2.762729 -2.758977,2.762729 z" /></svg>