<svg xmlns="http://www.w3.org/2000/svg" xmlns:xlink="http://www.w3.org/1999/xlink" version="1.1" x="0px" y="0px" viewBox="0 0 100 125" enable-background="new 0 0 100 100" xml:space="preserve"><g><path d="M87.365,47.717C67.467,28.505,46.884,29.42,46.884,29.42H5.717v25.5h74.787v1.715H5.717v4.041H84.62   c5.489,0,9.663-0.439,9.663-3.412C94.283,54.291,87.365,47.717,87.365,47.717z M18.589,43.597H9.167v-9.423h9.422V43.597z    M31.671,43.597h-9.422v-9.423h9.422V43.597z M44.753,43.597h-9.423v-9.423h9.423V43.597z M48.413,43.6v-9.422   c0,0,2.136-0.007,2.282-0.007c1.606,0,13.714,0.318,27.437,9.43H48.413z"/></g><g><path d="M94.283,70.587H5.717c-1.263,0-2.287-1.024-2.287-2.287c0-1.264,1.024-2.287,2.287-2.287h88.566   c1.264,0,2.287,1.023,2.287,2.287C96.57,69.563,95.547,70.587,94.283,70.587z"/></g><text x="0" y="115" fill="#000000" font-size="5px" font-weight="bold" font-family="'Helvetica Neue', Helvetica, Arial-Unicode, Arial, Sans-serif">Created by Bakunetsu Kaito</text><text x="0" y="120" fill="#000000" font-size="5px" font-weight="bold" font-family="'Helvetica Neue', Helvetica, Arial-Unicode, Arial, Sans-serif">from the Noun Project</text></svg>