<?xml version="1.0" encoding="UTF-8" standalone="no"?>
<svg
   xmlns:dc="http://purl.org/dc/elements/1.1/"
   xmlns:cc="http://creativecommons.org/ns#"
   xmlns:rdf="http://www.w3.org/1999/02/22-rdf-syntax-ns#"
   xmlns:svg="http://www.w3.org/2000/svg"
   xmlns="http://www.w3.org/2000/svg"
   height="42.289223"
   width="88.566002"
   id="svg14"
   xml:space="preserve"
   enable-background="new 0 0 100 100"
   viewBox="0 0 88.566002 42.289223"
   y="0px"
   x="0px"
   version="1.1"><metadata
     id="metadata20"><rdf:RDF><cc:Work
         rdf:about=""><dc:format>image/svg+xml</dc:format><dc:type
           rdf:resource="http://purl.org/dc/dcmitype/StillImage" /><dc:title></dc:title></cc:Work></rdf:RDF></metadata><defs
     id="defs18" /><path
     id="path2"
     d="M 42.089844 0.005859375 C 41.488164 -0.0066445312 41.167969 0.0078125 41.167969 0.0078125 L 0 0.0078125 L 0 25.507812 L 0 27.222656 L 0 28.376953 L 0 31.263672 L 78.902344 31.263672 C 84.391344 31.263672 88.566406 30.824562 88.566406 27.851562 C 88.566406 24.878563 81.648437 18.304688 81.648438 18.304688 C 64.237688 1.4941875 46.301602 0.093386719 42.089844 0.005859375 z M 44.978516 4.7578125 C 46.584516 4.7578125 58.691063 5.0755 72.414062 14.1875 L 42.695312 14.1875 L 42.695312 4.765625 C 42.695312 4.765625 44.832516 4.7578125 44.978516 4.7578125 z M 3.4492188 4.7617188 L 12.871094 4.7617188 L 12.871094 14.183594 L 3.4492188 14.183594 L 3.4492188 4.7617188 z M 16.53125 4.7617188 L 25.953125 4.7617188 L 25.953125 14.183594 L 16.53125 14.183594 L 16.53125 4.7617188 z M 29.613281 4.7617188 L 39.035156 4.7617188 L 39.035156 14.183594 L 29.613281 14.183594 L 29.613281 4.7617188 z " /><text
     style="font-weight:bold;font-size:5px;font-family:'Helvetica Neue', Helvetica, Arial-Unicode, Arial, Sans-serif;fill:#000000"
     id="text10"
     font-weight="bold"
     font-size="5px"
     y="85.586922"
     x="-5.717">Created by Bakunetsu Kaito</text>
<text
     style="font-weight:bold;font-size:5px;font-family:'Helvetica Neue', Helvetica, Arial-Unicode, Arial, Sans-serif;fill:#000000"
     id="text12"
     font-weight="bold"
     font-size="5px"
     y="90.586922"
     x="-5.717">from the Noun Project</text>
<path
     style="stroke-width:0.7786597"
     id="path6-2"
     d="m 72.761522,31.777318 c -2.901287,0 -5.255954,2.350773 -5.255954,5.255175 0,2.905957 2.354667,5.256731 5.255954,5.256731 2.900507,0 5.256731,-2.350774 5.256731,-5.256731 0,-2.904402 -2.357003,-5.255175 -5.256731,-5.255175 z m 0,8.1222 c -1.583795,0 -2.865469,-1.279338 -2.865469,-2.867024 0,-1.585352 1.281674,-2.865468 2.865469,-2.865468 1.582236,0 2.863131,1.280116 2.863131,2.865468 0,1.587686 -1.280895,2.867024 -2.863131,2.867024 z" /><path
     style="stroke-width:0.7786597"
     id="path6-2-9"
     d="m 61.19872,31.777318 c -2.901286,0 -5.255954,2.350773 -5.255954,5.255175 0,2.905957 2.354668,5.256731 5.255954,5.256731 2.900508,0 5.256732,-2.350774 5.256732,-5.256731 0,-2.904402 -2.357003,-5.255175 -5.256732,-5.255175 z m 0,8.1222 c -1.583794,0 -2.865468,-1.279338 -2.865468,-2.867024 0,-1.585352 1.281674,-2.865468 2.865468,-2.865468 1.582236,0 2.863131,1.280116 2.863131,2.865468 0,1.587686 -1.280895,2.867024 -2.863131,2.867024 z" /><path
     style="stroke-width:0.7786597"
     id="path6-2-3"
     d="m 49.635917,31.777318 c -2.901287,0 -5.255954,2.350773 -5.255954,5.255175 0,2.905957 2.354667,5.256731 5.255954,5.256731 2.900508,0 5.256732,-2.350774 5.256732,-5.256731 0,-2.904402 -2.357004,-5.255175 -5.256732,-5.255175 z m 0,8.1222 c -1.583794,0 -2.865469,-1.279338 -2.865469,-2.867024 0,-1.585352 1.281675,-2.865468 2.865469,-2.865468 1.582236,0 2.863131,1.280116 2.863131,2.865468 0,1.587686 -1.280895,2.867024 -2.863131,2.867024 z" /><path
     style="stroke-width:0.7786597"
     id="path6-2-8"
     d="m 5.5223671,31.777318 c -2.9012864,0 -5.2559536,2.350773 -5.2559536,5.255175 0,2.905957 2.3546672,5.256731 5.2559536,5.256731 2.9005076,0 5.2567309,-2.350774 5.2567309,-5.256731 0,-2.904402 -2.3570027,-5.255175 -5.2567309,-5.255175 z m 0,8.1222 c -1.5837942,0 -2.8654684,-1.279338 -2.8654684,-2.867024 0,-1.585352 1.2816742,-2.865468 2.8654684,-2.865468 1.582236,0 2.8631309,1.280116 2.8631309,2.865468 0,1.587686 -1.2808949,2.867024 -2.8631309,2.867024 z" /><path
     style="stroke-width:0.7786597"
     id="path6-2-6"
     d="m 17.182337,31.777318 c -2.901287,0 -5.255954,2.350773 -5.255954,5.255175 0,2.905957 2.354667,5.256731 5.255954,5.256731 2.900508,0 5.256731,-2.350774 5.256731,-5.256731 0,-2.904402 -2.357003,-5.255175 -5.256731,-5.255175 z m 0,8.1222 c -1.583795,0 -2.865469,-1.279338 -2.865469,-2.867024 0,-1.585352 1.281674,-2.865468 2.865469,-2.865468 1.582236,0 2.863131,1.280116 2.863131,2.865468 0,1.587686 -1.280895,2.867024 -2.863131,2.867024 z" /></svg>