<?xml version="1.0" encoding="UTF-8" standalone="no"?>
<svg
   xmlns:dc="http://purl.org/dc/elements/1.1/"
   xmlns:cc="http://creativecommons.org/ns#"
   xmlns:rdf="http://www.w3.org/1999/02/22-rdf-syntax-ns#"
   xmlns:svg="http://www.w3.org/2000/svg"
   xmlns="http://www.w3.org/2000/svg"
   height="37.460171"
   width="88.566406"
   id="svg14"
   xml:space="preserve"
   enable-background="new 0 0 100 100"
   viewBox="0 0 88.566406 37.460171"
   y="0px"
   x="0px"
   version="1.1"><metadata
     id="metadata20"><rdf:RDF><cc:Work
         rdf:about=""><dc:format>image/svg+xml</dc:format><dc:type
           rdf:resource="http://purl.org/dc/dcmitype/StillImage" /><dc:title></dc:title></cc:Work></rdf:RDF></metadata><defs
     id="defs18" /><path
     id="path2"
     d="M 42.089844,0.00509251 C 41.488164,-0.0074114 41.167969,0.00704563 41.167969,0.00704563 H 0 v 25.49999937 1.714844 1.154297 2.886719 h 0.35546875 c -0.0552908,0.305598 -0.0898438,0.617837 -0.0898438,0.939453 0,2.905957 2.35457295,5.257813 5.25585945,5.257813 2.9005076,0 5.2578126,-2.351856 5.2578126,-5.257813 0,-0.321616 -0.0345,-0.633855 -0.08984,-0.939453 h 1.326172 c -0.05529,0.305598 -0.08984,0.617837 -0.08984,0.939453 0,2.905957 2.354573,5.257813 5.25586,5.257813 2.900508,0 5.257812,-2.351856 5.257812,-5.257813 0,-0.321616 -0.0345,-0.633855 -0.08984,-0.939453 H 44.46875 c -0.05529,0.305598 -0.08789,0.617837 -0.08789,0.939453 0,2.905957 2.354573,5.257813 5.25586,5.257813 2.900508,0 5.255859,-2.351856 5.255859,-5.257813 0,-0.321616 -0.0345,-0.633855 -0.08984,-0.939453 h 1.228516 c -0.05528,0.305577 -0.08789,0.617861 -0.08789,0.939453 0,2.905957 2.354574,5.257813 5.25586,5.257813 2.900508,0 5.255859,-2.351856 5.255859,-5.257813 0,-0.321616 -0.0345,-0.633855 -0.08984,-0.939453 h 1.230469 c -0.05529,0.305598 -0.08984,0.617837 -0.08984,0.939453 0,2.905957 2.354573,5.257813 5.25586,5.257813 2.900507,0 5.255859,-2.351856 5.255859,-5.257813 0,-0.321592 -0.03256,-0.633876 -0.08789,-0.939453 h 0.972656 c 5.489,0 9.664062,-0.43911 9.664062,-3.41211 0,-2.972999 -6.91797,-9.546874 -6.917968,-9.546874 C 64.237688,1.4934201 46.301602,0.09261985 42.089844,0.00509251 Z m 2.888672,4.75195309 c 1.606,0 13.712547,0.3176875 27.435546,9.4296874 H 42.695312 V 4.7648581 c 0,0 2.137204,-0.00781 2.283204,-0.00781 z M 3.4492188,4.7609519 H 12.871094 V 14.182827 H 3.4492188 Z m 13.0820312,0 h 9.421875 V 14.182827 H 16.53125 Z m 13.082031,0 h 9.421875 v 9.4218751 h -9.421875 z" /><text
     style="font-weight:bold;font-size:5px;font-family:'Helvetica Neue', Helvetica, Arial-Unicode, Arial, Sans-serif;fill:#000000"
     id="text10"
     font-weight="bold"
     font-size="5px"
     y="85.586151"
     x="-5.717">Created by Bakunetsu Kaito</text>
<text
     style="font-weight:bold;font-size:5px;font-family:'Helvetica Neue', Helvetica, Arial-Unicode, Arial, Sans-serif;fill:#000000"
     id="text12"
     font-weight="bold"
     font-size="5px"
     y="90.586151"
     x="-5.717">from the Noun Project</text>
</svg>