<?xml version="1.0" encoding="utf-8"?>
<!-- Generated by IcoMoon.io -->
<!DOCTYPE svg PUBLIC "-//W3C//DTD SVG 1.1//EN" "http://www.w3.org/Graphics/SVG/1.1/DTD/svg11.dtd">
<svg version="1.1" xmlns="http://www.w3.org/2000/svg" xmlns:xlink="http://www.w3.org/1999/xlink" width="24" height="28" viewBox="0 0 24 28">
<path d="M17 0c3.859 0 7 2.234 7 5v14c0 2.703-2.984 4.891-6.734 4.984l3.328 3.156c0.328 0.313 0.109 0.859-0.344 0.859h-16.5c-0.453 0-0.672-0.547-0.344-0.859l3.328-3.156c-3.75-0.094-6.734-2.281-6.734-4.984v-14c0-2.766 3.141-5 7-5h10zM12 21c1.656 0 3-1.344 3-3s-1.344-3-3-3-3 1.344-3 3 1.344 3 3 3zM21 12v-8h-18v8h18z"></path>
</svg>
