<?xml version="1.0" encoding="UTF-8" standalone="no"?>
<svg
   xmlns:dc="http://purl.org/dc/elements/1.1/"
   xmlns:cc="http://creativecommons.org/ns#"
   xmlns:rdf="http://www.w3.org/1999/02/22-rdf-syntax-ns#"
   xmlns:svg="http://www.w3.org/2000/svg"
   xmlns="http://www.w3.org/2000/svg"
   height="90"
   width="65.382004"
   id="svg14"
   xml:space="preserve"
   enable-background="new 0 0 100 100"
   viewBox="0 0 65.382004 90"
   y="0px"
   x="0px"
   version="1.1"><metadata
     id="metadata20"><rdf:RDF><cc:Work
         rdf:about=""><dc:format>image/svg+xml</dc:format><dc:type
           rdf:resource="http://purl.org/dc/dcmitype/StillImage" /><dc:title></dc:title></cc:Work></rdf:RDF></metadata><defs
     id="defs18" /><g
     transform="translate(-17.309,-5)"
     id="g8"><path
       style="fill:#000000"
       id="path2"
       d="M 50,5 C 31.945,5 17.309,20.186 17.309,38.918 c 0,13.816 17.449,29.246 17.449,29.246 1.071,0.947 2.205,2.746 2.519,4.141 L 38.36,77 h 23.28 l 1.083,-4.695 c 0.314,-1.395 1.448,-3.253 2.519,-4.2 0,0 17.449,-15.4 17.449,-29.216 C 82.691,20.156 68.055,5 50,5 Z" /><path
       style="fill:#000000"
       id="path4"
       d="M 40.593,87.419 C 40.907,88.814 42.334,90 43.764,90 h 0.538 l 0.945,3.897 C 45.409,94.587 46.12,95 46.829,95 h 6.342 c 0.709,0 1.42,-0.413 1.581,-1.103 L 55.698,90 h 0.538 c 1.43,0 2.857,-1.186 3.171,-2.581 L 59.491,87 H 40.509 Z" /><polygon
       style="fill:#000000"
       id="polygon6"
       points="40.079,85 59.921,85 61.21,79 38.79,79 " /></g><text
     style="font-weight:bold;font-size:5px;font-family:'Helvetica Neue', Helvetica, Arial-Unicode, Arial, Sans-serif;fill:#000000"
     id="text10"
     font-weight="bold"
     font-size="5px"
     y="115"
     x="0">Created by Nick Abrams</text>
<text
     style="font-weight:bold;font-size:5px;font-family:'Helvetica Neue', Helvetica, Arial-Unicode, Arial, Sans-serif;fill:#000000"
     id="text12"
     font-weight="bold"
     font-size="5px"
     y="120"
     x="0">from the Noun Project</text>
</svg>