<svg xmlns="http://www.w3.org/2000/svg" xmlns:xlink="http://www.w3.org/1999/xlink" version="1.1" x="0px" y="0px" viewBox="0 0 100 125" enable-background="new 0 0 100 100" xml:space="preserve"><g display="none"><rect x="-674.195" y="-621.895" display="inline" fill="#000000" width="1286.89" height="1225.445"/></g><g><g><path d="M55.358,6.569C36.806,3.415,20.681,17.037,20.681,34.278c0,5.521,1.671,10.642,4.546,14.961    c4.841,7.273,8.558,15.154,10.278,23.469c0.271,1.312,1.434,2.277,2.826,2.277h9.38V52.02l-7.829-6.85    c-0.89-0.778-0.979-2.13-0.201-3.02c0.777-0.89,2.129-0.98,3.02-0.201L50,48.336l7.299-6.387c0.89-0.778,2.242-0.688,3.02,0.201    c0.778,0.89,0.688,2.241-0.201,3.02l-8.127,7.111v22.704h9.26c1.388,0,2.589-0.953,2.818-2.268    c1.41-8.105,5.121-15.716,10.089-22.591c4.106-5.681,6.075-12.878,4.754-20.596C76.918,17.883,67.456,8.626,55.358,6.569z"/><path d="M37.347,86.413c0,1.917,1.554,3.47,3.47,3.47h2.494c-0.005,0.061-0.018,0.12-0.018,0.182v1.721    c0,1.156,0.945,2.101,2.101,2.101h9.212c1.156,0,2.101-0.945,2.101-2.101v-1.721c0-0.062-0.013-0.121-0.018-0.182h2.494    c1.917,0,3.47-1.554,3.47-3.47v-7.14H37.347V86.413z"/></g></g><text x="0" y="115" fill="#000000" font-size="5px" font-weight="bold" font-family="'Helvetica Neue', Helvetica, Arial-Unicode, Arial, Sans-serif">Created by Oksana Latysheva</text><text x="0" y="120" fill="#000000" font-size="5px" font-weight="bold" font-family="'Helvetica Neue', Helvetica, Arial-Unicode, Arial, Sans-serif">from the Noun Project</text></svg>