<svg xmlns="http://www.w3.org/2000/svg" xmlns:xlink="http://www.w3.org/1999/xlink" version="1.1" x="0px" y="0px" viewBox="0 0 168.292 322.99625" enable-background="new 0 0 168.292 258.397" xml:space="preserve"><path d="M118.795,205.816c0,3.729-3.378,6.75-7.544,6.75H59.839c-4.167,0-7.544-3.021-7.544-6.75l0,0c0-3.729,3.377-6.75,7.544-6.75  h51.412C115.417,199.066,118.795,202.088,118.795,205.816L118.795,205.816z"/><path d="M116.295,225.568c0,3.729-3.094,6.75-6.908,6.75H62.305c-3.816,0-6.909-3.021-6.909-6.75l0,0c0-3.729,3.093-6.75,6.909-6.75  h47.082C113.202,218.818,116.295,221.84,116.295,225.568L116.295,225.568z"/><path d="M70.355,239.064c3.233,4.966,8.823,8.256,15.19,8.256s11.957-3.29,15.19-8.256H70.355z"/><path d="M55.887,93.564c18.297,20.818,21.759,45.977,21.759,99h16.503c0-53.023,3.462-78.182,21.76-99H55.887z"/><path d="M139.459,31.397c-14.401-14.4-33.548-22.332-53.915-22.332c-42.041,0-76.244,34.203-76.244,76.246  c0,35.528,35.468,67.946,45.312,107.253h16.033c0-56.017-3.838-79.539-25.406-99.958l0.01-0.01c-0.67-0.638-1.093-1.533-1.093-2.531  c0-1.933,1.567-3.5,3.5-3.5h76.493c1.933,0,3.5,1.567,3.5,3.5c0,1.001-0.426,1.898-1.1,2.536l0.006,0.005  c-21.568,20.42-25.407,43.942-25.407,99.958h15.282c9.756-39.172,45.359-71.651,45.359-107.253  C161.792,64.946,153.861,45.798,139.459,31.397z"/><text x="0" y="273.397" fill="#000000" font-size="5px" font-weight="bold" font-family="'Helvetica Neue', Helvetica, Arial-Unicode, Arial, Sans-serif">Created by corpus delicti</text><text x="0" y="278.397" fill="#000000" font-size="5px" font-weight="bold" font-family="'Helvetica Neue', Helvetica, Arial-Unicode, Arial, Sans-serif">from the Noun Project</text></svg>