<?xml version="1.0" encoding="UTF-8" standalone="no"?>
<svg
   xmlns:dc="http://purl.org/dc/elements/1.1/"
   xmlns:cc="http://creativecommons.org/ns#"
   xmlns:rdf="http://www.w3.org/1999/02/22-rdf-syntax-ns#"
   xmlns:svg="http://www.w3.org/2000/svg"
   xmlns="http://www.w3.org/2000/svg"
   height="87.774315"
   width="58.638664"
   id="svg18"
   xml:space="preserve"
   enable-background="new 0 0 100 100"
   viewBox="0 0 58.638664 87.774315"
   y="0px"
   x="0px"
   version="1.1"><metadata
     id="metadata24"><rdf:RDF><cc:Work
         rdf:about=""><dc:format>image/svg+xml</dc:format><dc:type
           rdf:resource="http://purl.org/dc/dcmitype/StillImage" /><dc:title></dc:title></cc:Work></rdf:RDF></metadata><defs
     id="defs22" /><g
     style="display:none"
     id="g4"
     display="none"><rect
       style="display:inline;fill:#000000"
       id="rect2"
       height="1225.4449"
       width="1286.89"
       display="inline"
       y="-621.89502"
       x="-674.19501" /></g><g
     transform="translate(-20.681,-6.112688)"
     id="g12"><g
       id="g10"><path
         id="path6"
         d="M 55.358,6.569 C 36.806,3.415 20.681,17.037 20.681,34.278 c 0,5.521 1.671,10.642 4.546,14.961 4.841,7.273 8.558,15.154 10.278,23.469 0.271,1.312 1.434,2.277 2.826,2.277 h 9.38 V 52.02 l -7.829,-6.85 c -0.89,-0.778 -0.979,-2.13 -0.201,-3.02 0.777,-0.89 2.129,-0.98 3.02,-0.201 L 50,48.336 57.299,41.949 c 0.89,-0.778 2.242,-0.688 3.02,0.201 0.778,0.89 0.688,2.241 -0.201,3.02 l -8.127,7.111 v 22.704 h 9.26 c 1.388,0 2.589,-0.953 2.818,-2.268 C 65.479,64.612 69.19,57.001 74.158,50.126 78.264,44.445 80.233,37.248 78.912,29.53 76.918,17.883 67.456,8.626 55.358,6.569 Z" /><path
         id="path8"
         d="m 37.347,86.413 c 0,1.917 1.554,3.47 3.47,3.47 h 2.494 c -0.005,0.061 -0.018,0.12 -0.018,0.182 v 1.721 c 0,1.156 0.945,2.101 2.101,2.101 h 9.212 c 1.156,0 2.101,-0.945 2.101,-2.101 v -1.721 c 0,-0.062 -0.013,-0.121 -0.018,-0.182 h 2.494 c 1.917,0 3.47,-1.554 3.47,-3.47 v -7.14 H 37.347 Z" /></g></g><text
     style="font-weight:bold;font-size:5px;font-family:'Helvetica Neue', Helvetica, Arial-Unicode, Arial, Sans-serif;fill:#000000"
     id="text14"
     font-weight="bold"
     font-size="5px"
     y="115"
     x="0">Created by Oksana Latysheva</text>
<text
     style="font-weight:bold;font-size:5px;font-family:'Helvetica Neue', Helvetica, Arial-Unicode, Arial, Sans-serif;fill:#000000"
     id="text16"
     font-weight="bold"
     font-size="5px"
     y="120"
     x="0">from the Noun Project</text>
</svg>