<?xml version="1.0" encoding="utf-8"?><!DOCTYPE svg PUBLIC "-//W3C//DTD SVG 1.1//EN" "http://www.w3.org/Graphics/SVG/1.1/DTD/svg11.dtd"><svg version="1.1" xmlns="http://www.w3.org/2000/svg" xmlns:xlink="http://www.w3.org/1999/xlink" x="0px" y="0px" viewBox="0 0 59.967 125" enable-background="new 0 0 59.967 100" xml:space="preserve"><path fill="#010101" d="M59.967,29.978C59.967,13.418,46.537,0,29.978,0S0,13.418,0,29.978c0,10.582,5.45,18.614,9.589,25.46
	c4.139,6.848,4.178,16.754,4.178,16.754c0,2.342,1.723,4.245,3.973,4.564c-0.049,7.263-0.078,16.329,0.078,17.1
	C18.186,95.679,27.591,100,29.896,100c2.059,0,11.343-3.979,12.078-6.145c0.291-0.855,0.238-9.862,0.146-17.089
	c2.301-0.273,4.079-2.196,4.079-4.575c0,0-0.453-9.17,4.669-17.121C55.991,47.117,59.967,40.56,59.967,29.978z"/><text x="0" y="115" fill="#000000" font-size="5px" font-weight="bold" font-family="'Helvetica Neue', Helvetica, Arial-Unicode, Arial, Sans-serif">Created by Alex Hartmann</text><text x="0" y="120" fill="#000000" font-size="5px" font-weight="bold" font-family="'Helvetica Neue', Helvetica, Arial-Unicode, Arial, Sans-serif">from the Noun Project</text></svg>