<svg xmlns="http://www.w3.org/2000/svg" xmlns:xlink="http://www.w3.org/1999/xlink" version="1.1" x="0px" y="0px" viewBox="0 0 100 125" enable-background="new 0 0 100 100" xml:space="preserve"><g><path fill="#000000" d="M50,5C31.945,5,17.309,20.186,17.309,38.918c0,13.816,17.449,29.246,17.449,29.246   c1.071,0.947,2.205,2.746,2.519,4.141L38.36,77h23.28l1.083-4.695c0.314-1.395,1.448-3.253,2.519-4.2   c0,0,17.449-15.4,17.449-29.216C82.691,20.156,68.055,5,50,5z"/><path fill="#000000" d="M40.593,87.419C40.907,88.814,42.334,90,43.764,90h0.538l0.945,3.897C45.409,94.587,46.12,95,46.829,95   h6.342c0.709,0,1.42-0.413,1.581-1.103L55.698,90h0.538c1.43,0,2.857-1.186,3.171-2.581L59.491,87H40.509L40.593,87.419z"/><polygon fill="#000000" points="40.079,85 59.921,85 61.21,79 38.79,79  "/></g><text x="0" y="115" fill="#000000" font-size="5px" font-weight="bold" font-family="'Helvetica Neue', Helvetica, Arial-Unicode, Arial, Sans-serif">Created by Nick Abrams</text><text x="0" y="120" fill="#000000" font-size="5px" font-weight="bold" font-family="'Helvetica Neue', Helvetica, Arial-Unicode, Arial, Sans-serif">from the Noun Project</text></svg>