<svg xmlns="http://www.w3.org/2000/svg" xmlns:xlink="http://www.w3.org/1999/xlink" version="1.1" x="0px" y="0px" viewBox="0 0 100 125" enable-background="new 0 0 100 100" xml:space="preserve"><path d="M38.975,66.124v5.722H61.03v-5.722c0-6.158,2.551-12.046,7.164-16.572c5.029-4.931,7.802-11.518,7.802-18.559  C75.995,16.653,64.342,5,50.003,5c-0.981,0-1.975,0.049-2.956,0.159c-11.984,1.325-21.614,10.991-22.89,23  c-0.871,8.145,2.024,16.045,7.924,21.663C36.46,53.993,38.975,59.93,38.975,66.124z"/><polygon points="38.975,74.3 38.975,88.585 42.998,88.585 42.998,95 56.896,95 56.896,88.585 61.03,88.585 61.03,74.3 "/><text x="0" y="115" fill="#000000" font-size="5px" font-weight="bold" font-family="'Helvetica Neue', Helvetica, Arial-Unicode, Arial, Sans-serif">Created by Maxim Kulikov</text><text x="0" y="120" fill="#000000" font-size="5px" font-weight="bold" font-family="'Helvetica Neue', Helvetica, Arial-Unicode, Arial, Sans-serif">from the Noun Project</text></svg>