<?xml version="1.0" encoding="UTF-8" standalone="no"?>
<svg
   xmlns:dc="http://purl.org/dc/elements/1.1/"
   xmlns:cc="http://creativecommons.org/ns#"
   xmlns:rdf="http://www.w3.org/1999/02/22-rdf-syntax-ns#"
   xmlns:svg="http://www.w3.org/2000/svg"
   xmlns="http://www.w3.org/2000/svg"
   height="238.255"
   width="152.489"
   id="svg16"
   xml:space="preserve"
   enable-background="new 0 0 168.292 258.397"
   viewBox="0 0 152.48899 238.25501"
   y="0px"
   x="0px"
   version="1.1"><metadata
     id="metadata22"><rdf:RDF><cc:Work
         rdf:about=""><dc:format>image/svg+xml</dc:format><dc:type
           rdf:resource="http://purl.org/dc/dcmitype/StillImage" /><dc:title></dc:title></cc:Work></rdf:RDF></metadata><defs
     id="defs20" /><path
     id="path2"
     d="m 109.495,196.751 c 0,3.729 -3.378,6.75 -7.544,6.75 H 50.539 c -4.167,0 -7.544,-3.021 -7.544,-6.75 v 0 c 0,-3.729 3.377,-6.75 7.544,-6.75 h 51.412 c 4.166,0 7.544,3.022 7.544,6.75 z" /><path
     id="path4"
     d="m 106.995,216.503 c 0,3.729 -3.094,6.75 -6.908,6.75 H 53.005 c -3.816,0 -6.909,-3.021 -6.909,-6.75 v 0 c 0,-3.729 3.093,-6.75 6.909,-6.75 h 47.082 c 3.815,0 6.908,3.022 6.908,6.75 z" /><path
     id="path6"
     d="m 61.055,229.999 c 3.233,4.966 8.823,8.256 15.19,8.256 6.367,0 11.957,-3.29 15.19,-8.256 z" /><path
     id="path8"
     d="m 46.587,84.499 c 18.297,20.818 21.759,45.977 21.759,99 h 16.503 c 0,-53.023 3.462,-78.182 21.76,-99 z" /><path
     id="path10"
     d="M 130.159,22.332 C 115.758,7.932 96.611,0 76.244,0 34.203,0 0,34.203 0,76.246 c 0,35.528 35.468,67.946 45.312,107.253 h 16.033 c 0,-56.017 -3.838,-79.539 -25.406,-99.958 l 0.01,-0.01 C 35.279,82.893 34.856,81.998 34.856,81 c 0,-1.933 1.567,-3.5 3.5,-3.5 h 76.493 c 1.933,0 3.5,1.567 3.5,3.5 0,1.001 -0.426,1.898 -1.1,2.536 l 0.006,0.005 c -21.568,20.42 -25.407,43.942 -25.407,99.958 h 15.282 c 9.756,-39.172 45.359,-71.651 45.359,-107.253 0.003,-20.365 -7.928,-39.513 -22.33,-53.914 z" /><text
     style="font-weight:bold;font-size:5px;font-family:'Helvetica Neue', Helvetica, Arial-Unicode, Arial, Sans-serif;fill:#000000"
     id="text12"
     font-weight="bold"
     font-size="5px"
     y="273.397"
     x="0">Created by corpus delicti</text>
<text
     style="font-weight:bold;font-size:5px;font-family:'Helvetica Neue', Helvetica, Arial-Unicode, Arial, Sans-serif;fill:#000000"
     id="text14"
     font-weight="bold"
     font-size="5px"
     y="278.397"
     x="0">from the Noun Project</text>
</svg>