<?xml version="1.0" encoding="UTF-8" standalone="no"?>
<svg
   xmlns:dc="http://purl.org/dc/elements/1.1/"
   xmlns:cc="http://creativecommons.org/ns#"
   xmlns:rdf="http://www.w3.org/1999/02/22-rdf-syntax-ns#"
   xmlns:svg="http://www.w3.org/2000/svg"
   xmlns="http://www.w3.org/2000/svg"
   version="1.1"
   x="0px"
   y="0px"
   viewBox="0 0 87.957962 39.264839"
   enable-background="new 0 0 90 50"
   xml:space="preserve"
   id="svg14"
   width="87.957962"
   height="39.264839"><metadata
     id="metadata20"><rdf:RDF><cc:Work
         rdf:about=""><dc:format>image/svg+xml</dc:format><dc:type
           rdf:resource="http://purl.org/dc/dcmitype/StillImage" /><dc:title></dc:title></cc:Work></rdf:RDF></metadata><defs
     id="defs18" /><path
     id="path2"
     d="M 30.507812 0.01171875 C 17.041141 -0.19879688 9.2597656 2.5390625 9.2597656 2.5390625 C 7.2497656 3.4140625 3.5859375 11.154297 3.5859375 11.154297 C 2.0489375 12.777297 2.2851562 16.646484 2.2851562 16.646484 C 2.1661563 20.765484 0.0390625 21.265625 0.0390625 21.265625 C -0.4329375 29.129625 3.5859375 31.75 3.5859375 31.75 L 7.625 31.75 C 7.63 26.897 11.565922 22.966797 16.419922 22.966797 C 21.273922 22.966797 25.207891 26.898 25.212891 31.75 L 60.535156 31.75 C 60.541156 26.897 64.475078 22.966797 69.330078 22.966797 C 74.185078 22.966797 78.119 26.898 78.125 31.75 L 83.830078 31.75 C 87.289078 32.001 87.021484 27.287109 87.021484 27.287109 C 88.530484 27.006109 87.761719 23.011719 87.761719 23.011719 C 87.406719 15.396719 65.417969 11.402344 65.417969 11.402344 C 51.111969 1.7893441 45.792969 1.4160156 45.792969 1.4160156 C 40.118219 0.47976563 34.996703 0.081890625 30.507812 0.01171875 z M 28.375 3.2148438 C 32.505332 3.2558887 35.808594 3.5449219 35.808594 3.5449219 C 47.246594 3.7319219 57.445312 10.753906 57.445312 10.753906 C 65.779313 15.715906 58.332031 15.154297 58.332031 15.154297 L 14.792969 12.814453 C 11.158969 11.035453 12.3125 7.5703125 12.3125 7.5703125 C 12.3125 3.7671875 21.491113 3.1464355 28.375 3.2148438 z M 16.439453 24.257812 C 12.294453 24.257812 8.9335938 27.617719 8.9335938 31.761719 C 8.9335938 35.905719 12.294453 39.265625 16.439453 39.265625 C 20.584453 39.265625 23.943359 35.905719 23.943359 31.761719 C 23.943359 27.617719 20.583453 24.257812 16.439453 24.257812 z M 69.439453 24.257812 C 65.294453 24.257812 61.933594 27.617719 61.933594 31.761719 C 61.933594 35.905719 65.294453 39.265625 69.439453 39.265625 C 73.584453 39.265625 76.943359 35.905719 76.943359 31.761719 C 76.943359 27.617719 73.583453 24.257812 69.439453 24.257812 z " /><text
     x="4.7133049e-009"
     y="65"
     font-size="5px"
     font-weight="bold"
     id="text10"
     style="font-weight:bold;font-size:5px;font-family:'Helvetica Neue', Helvetica, Arial-Unicode, Arial, Sans-serif;fill:#000000">Created by Jonathan Li</text>
<text
     x="4.7133049e-009"
     y="70"
     font-size="5px"
     font-weight="bold"
     id="text12"
     style="font-weight:bold;font-size:5px;font-family:'Helvetica Neue', Helvetica, Arial-Unicode, Arial, Sans-serif;fill:#000000">from the Noun Project</text>
</svg>