<svg xmlns="http://www.w3.org/2000/svg" xmlns:xlink="http://www.w3.org/1999/xlink" version="1.1" x="0px" y="0px" viewBox="0 0 90 62.5" enable-background="new 0 0 90 50" xml:space="preserve"><g><path d="M87.145,32.358c0,0,1.019-10.461-18.423-13.702c0,0-17.312-16.109-53.324-8.888c0,0-3.241,0.741-9.165,10.785   c0,0-0.741,1.989-0.417,4.026c0,0-6.851,6.623,1.527,13.61h2.695c0-0.03-0.004-0.06-0.004-0.09c0-4.537,3.678-8.213,8.214-8.213   c4.536,0,8.214,3.676,8.214,8.213c0,0.03-0.004,0.06-0.004,0.09h36.999c0-0.03-0.004-0.06-0.004-0.09   c0-4.537,3.677-8.213,8.213-8.213c4.537,0,8.214,3.676,8.214,8.213c0,0.03-0.004,0.06-0.004,0.09h1.99   C81.867,38.19,87.793,38.284,87.145,32.358z M20.744,19.05c-3.055-0.347-1.736-1.817-1.736-1.817   c1.443-3.105,7.55-4.276,12.084-4.718v7.364L20.744,19.05z M59.766,22.174l-26.868-2.151v-7.656c1.964-0.129,3.33-0.122,3.33-0.122   c18.469,0.833,24.162,7.152,24.162,7.152C63.515,22.799,59.766,22.174,59.766,22.174z"/><path d="M71.626,30.915c-4.019,0-7.275,3.258-7.275,7.275s3.257,7.275,7.275,7.275s7.275-3.258,7.275-7.275   S75.645,30.915,71.626,30.915z M71.626,41.971c-2.087,0-3.779-1.692-3.779-3.78c0-2.087,1.692-3.779,3.779-3.779   c2.088,0,3.78,1.692,3.78,3.779C75.406,40.278,73.714,41.971,71.626,41.971z"/><path d="M18.303,30.915c-4.019,0-7.275,3.258-7.275,7.275s3.257,7.275,7.275,7.275s7.275-3.258,7.275-7.275   S22.321,30.915,18.303,30.915z M18.303,41.971c-2.087,0-3.78-1.692-3.78-3.78c0-2.087,1.692-3.779,3.78-3.779   s3.78,1.692,3.78,3.779C22.083,40.278,20.39,41.971,18.303,41.971z"/></g><text x="0" y="65" fill="#000000" font-size="5px" font-weight="bold" font-family="'Helvetica Neue', Helvetica, Arial-Unicode, Arial, Sans-serif">Created by Jonathan Li</text><text x="0" y="70" fill="#000000" font-size="5px" font-weight="bold" font-family="'Helvetica Neue', Helvetica, Arial-Unicode, Arial, Sans-serif">from the Noun Project</text></svg>