<?xml version="1.0" encoding="UTF-8" standalone="no"?>
<svg
   xmlns:dc="http://purl.org/dc/elements/1.1/"
   xmlns:cc="http://creativecommons.org/ns#"
   xmlns:rdf="http://www.w3.org/1999/02/22-rdf-syntax-ns#"
   xmlns:svg="http://www.w3.org/2000/svg"
   xmlns="http://www.w3.org/2000/svg"
   height="36.68565"
   width="81.237091"
   id="svg12"
   xml:space="preserve"
   enable-background="new 0 0 90 50"
   viewBox="0 0 81.237091 36.68565"
   y="0px"
   x="0px"
   version="1.1"><metadata
     id="metadata18"><rdf:RDF><cc:Work
         rdf:about=""><dc:format>image/svg+xml</dc:format><dc:type
           rdf:resource="http://purl.org/dc/dcmitype/StillImage" /><dc:title></dc:title></cc:Work></rdf:RDF></metadata><defs
     id="defs16" /><path
     id="path2"
     d="m 60.222719,30.170648 c 0,3.598 2.916,6.515 6.512,6.515 3.6,0 6.516,-2.917 6.516,-6.515 0,-3.597 -2.916,-6.509 -6.516,-6.509 -3.596,0 -6.512,2.912 -6.512,6.509 z m 3.117,0.005 c 0,-1.877 1.518,-3.4 3.395,-3.4 1.877,0 3.398,1.521 3.398,3.4 0,1.874 -1.52,3.397 -3.398,3.397 -1.878,10e-4 -3.395,-1.525 -3.395,-3.397 z" /><path
     id="path4"
     d="m 7.1477188,30.170648 c 0,3.598 2.9160002,6.515 6.5130002,6.515 3.599,0 6.515,-2.917 6.515,-6.515 0,-3.597 -2.916,-6.509 -6.515,-6.509 -3.597,0 -6.5130002,2.912 -6.5130002,6.509 z m 3.1170002,0.005 c 0,-1.877 1.519,-3.4 3.396,-3.4 1.876,0 3.397,1.521 3.397,3.4 0,1.874 -1.519,3.397 -3.397,3.397 -1.877,10e-4 -3.396,-1.525 -3.396,-3.397 z" /><path
     id="path6"
     d="M 0.69971877,30.877648 H 5.7847188 c -0.036,-0.302 -0.092,-0.598 -0.092,-0.906 0,-4.333 3.509,-7.843 7.8410002,-7.843 4.331,0 7.839,3.51 7.839,7.843 0,0.309 -0.056,0.604 -0.092,0.906 h 37.763 c -0.035,-0.302 -0.092,-0.598 -0.092,-0.906 0,-4.333 3.51,-7.843 7.84,-7.843 4.332,0 7.842,3.51 7.842,7.843 0,0.309 -0.057,0.604 -0.092,0.906 h 6.577 c 0,0 2.037,-16.439 -10.789,-18.375 h -7.533 c 0,0 -8.346,-10.8820003 -23.412,-12.09000033 0,0 -33.3900002,-3.86899997 -37.6660002,12.08700033 0,0 -3.055,8.949 -1.01900003,18.378 z M 35.713719,4.1406477 h 4.905 c 6.953,0.341 17.395,8.8740003 17.395,8.8740003 h -22.3 z" /><text
     style="font-weight:bold;font-size:5px;font-family:'Helvetica Neue', Helvetica, Arial-Unicode, Arial, Sans-serif;fill:#000000"
     id="text8"
     font-weight="bold"
     font-size="5px"
     y="65"
     x="-7.0333375e-009">Created by Jonathan Li</text>
<text
     style="font-weight:bold;font-size:5px;font-family:'Helvetica Neue', Helvetica, Arial-Unicode, Arial, Sans-serif;fill:#000000"
     id="text10"
     font-weight="bold"
     font-size="5px"
     y="70"
     x="-7.0333375e-009">from the Noun Project</text>
</svg>