<?xml version="1.0" encoding="UTF-8" standalone="no"?>
<svg
   xmlns:dc="http://purl.org/dc/elements/1.1/"
   xmlns:cc="http://creativecommons.org/ns#"
   xmlns:rdf="http://www.w3.org/1999/02/22-rdf-syntax-ns#"
   xmlns:svg="http://www.w3.org/2000/svg"
   xmlns="http://www.w3.org/2000/svg"
   height="31.520437"
   width="82.627274"
   id="svg12"
   xml:space="preserve"
   enable-background="new 0 0 90 60"
   viewBox="0 0 82.627274 31.520437"
   y="0px"
   x="0px"
   version="1.1"><metadata
     id="metadata18"><rdf:RDF><cc:Work
         rdf:about=""><dc:format>image/svg+xml</dc:format><dc:type
           rdf:resource="http://purl.org/dc/dcmitype/StillImage" /><dc:title></dc:title></cc:Work></rdf:RDF></metadata><defs
     id="defs16" /><path
     style="fill:#000000"
     id="path2"
     d="m 16.313311,19.877438 c -3.216,0 -5.823,2.605 -5.823,5.822 0,3.215 2.607,5.821 5.823,5.821 3.216,0 5.824,-2.606 5.824,-5.821 0,-3.217 -2.608,-5.822 -5.824,-5.822 z m 0,8.859 c -1.678,0 -3.039,-1.361 -3.039,-3.038 0,-1.679 1.36,-3.039 3.039,-3.039 1.678,0 3.038,1.358 3.038,3.039 0,1.677 -1.359,3.038 -3.038,3.038 z" /><path
     style="fill:#000000"
     id="path4"
     d="m 66.312311,19.877438 c -3.215,0 -5.822,2.605 -5.822,5.822 0,3.215 2.607,5.821 5.822,5.821 3.217,0 5.824,-2.606 5.824,-5.821 0,-3.217 -2.607,-5.822 -5.824,-5.822 z m 0,8.859 c -1.678,0 -3.039,-1.361 -3.039,-3.038 0,-1.679 1.361,-3.039 3.039,-3.039 1.68,0 3.039,1.358 3.039,3.039 0,1.677 -1.359,3.038 -3.039,3.038 z" /><path
     style="fill:#000000"
     id="path6"
     d="m 81.599311,16.827438 c -1,-4.37 -16.875,-7.8130001 -16.875,-7.8130001 -18.625,-9.00399998 -28.875,-8.87199998 -28.875,-8.87199998 C 22.974311,-1.1815621 2.3493112,7.1604379 2.3493112,7.1604379 L 0.84931123,17.223438 c -3.25000003,7.15 3.87499997,8.475 3.87499997,8.475 h 4.594 c -10e-4,-0.042 -0.006,-0.083 -0.006,-0.125 0,-3.935 3.1899998,-7.125 7.1249998,-7.125 3.935,0 7.125,3.19 7.125,7.125 0,0.042 -0.005,0.083 -0.006,0.125 h 35.756 c 0,-3.935 3.189,-7.125 7.125,-7.125 3.936,0 7.125,3.19 7.125,7.125 h 6.787 c 4.25,-0.397 1.25,-8.871 1.25,-8.871 z m -48.204,-6.629 h -16.5 l 3.25,-6.3140001 c 5.125,-1.665 13.25,-1.387 13.25,-1.387 z m 7.042,4.875 h -2.875 v -0.625 h 2.875 z m -4.5,-4.875 V 2.4794379 c 12.258,0.781 25.031,7.7190001 25.031,7.7190001 z" /><text
     style="font-weight:bold;font-size:5px;font-family:'Helvetica Neue', Helvetica, Arial-Unicode, Arial, Sans-serif;fill:#000000"
     id="text8"
     font-weight="bold"
     font-size="5px"
     y="75"
     x="1.369137e-008">Created by Jonathan Li</text>
<text
     style="font-weight:bold;font-size:5px;font-family:'Helvetica Neue', Helvetica, Arial-Unicode, Arial, Sans-serif;fill:#000000"
     id="text10"
     font-weight="bold"
     font-size="5px"
     y="80"
     x="1.369137e-008">from the Noun Project</text>
</svg>