<?xml version="1.0" encoding="UTF-8" standalone="no"?>
<svg
   xmlns:dc="http://purl.org/dc/elements/1.1/"
   xmlns:cc="http://creativecommons.org/ns#"
   xmlns:rdf="http://www.w3.org/1999/02/22-rdf-syntax-ns#"
   xmlns:svg="http://www.w3.org/2000/svg"
   xmlns="http://www.w3.org/2000/svg"
   version="1.1"
   x="0px"
   y="0px"
   viewBox="0 0 85.701424 36.772999"
   enable-background="new 0 0 90 50"
   xml:space="preserve"
   id="svg18"
   width="85.701424"
   height="36.772999"><metadata
     id="metadata24"><rdf:RDF><cc:Work
         rdf:about=""><dc:format>image/svg+xml</dc:format><dc:type
           rdf:resource="http://purl.org/dc/dcmitype/StillImage" /><dc:title></dc:title></cc:Work></rdf:RDF></metadata><defs
     id="defs22" /><path
     id="path2"
     d="M 12.490234 2.2871094 C 10.535234 2.2871094 6.7480469 10.589844 6.7480469 10.589844 L 5.8925781 10.589844 C 2.4715781 11.116844 2.4726562 20.078125 2.4726562 20.078125 C -1.9253437 21.923125 0.88476563 29.566406 0.88476562 29.566406 C 0.92776563 30.554406 1.8632812 31.197266 1.8632812 31.197266 L 6.9394531 31.197266 C 6.7544531 30.489266 6.6464844 29.750375 6.6464844 28.984375 C 6.6464844 24.152375 10.563531 20.236328 15.394531 20.236328 C 20.225531 20.236328 24.142578 24.152375 24.142578 28.984375 C 24.142578 29.750375 24.034609 30.489266 23.849609 31.197266 L 60.675781 31.197266 C 60.489781 30.489266 60.382812 29.750375 60.382812 28.984375 C 60.382812 24.152375 64.299859 20.236328 69.130859 20.236328 C 73.961859 20.236328 77.876953 24.154328 77.876953 28.986328 C 77.876953 29.752328 77.768031 30.491219 77.582031 31.199219 L 85.410156 31.199219 C 85.474156 31.157219 85.525406 31.108594 85.566406 31.058594 C 86.059406 30.443594 85.044922 29.220703 85.044922 29.220703 C 85.639922 28.183703 85.59375 23.291016 85.59375 23.291016 C 85.50275 21.760016 84.322266 20.869141 84.322266 20.869141 C 82.977266 12.435141 68.439453 11.908203 68.439453 11.908203 C 65.998453 11.908203 61.232422 10.326172 61.232422 10.326172 C 58.544422 7.0311719 51.828125 2.2871094 51.828125 2.2871094 L 12.490234 2.2871094 z M 34.876953 4.6054688 L 51.109375 4.6054688 C 51.109375 4.6054688 56.731953 9.4629531 58.126953 11.626953 L 34.876953 11.626953 L 34.876953 4.6054688 z M 15.414062 21.324219 C 11.147062 21.324219 7.6875 24.779781 7.6875 29.050781 C 7.6875 33.314781 11.145063 36.773438 15.414062 36.773438 C 19.679063 36.773438 23.140625 33.314781 23.140625 29.050781 C 23.138625 24.779781 19.680063 21.324219 15.414062 21.324219 z M 69.121094 21.324219 C 64.854094 21.324219 61.394531 24.779781 61.394531 29.050781 C 61.394531 33.314781 64.853094 36.773438 69.121094 36.773438 C 73.387094 36.773438 76.847656 33.314781 76.847656 29.050781 C 76.845656 24.779781 73.388094 21.324219 69.121094 21.324219 z " /><path
     d="M 147.062,6.75 V 17.375 Z"
     id="path8"
     style="fill:#000000" /><text
     x="-1.9582231e-008"
     y="65"
     font-size="5px"
     font-weight="bold"
     id="text14"
     style="font-weight:bold;font-size:5px;font-family:'Helvetica Neue', Helvetica, Arial-Unicode, Arial, Sans-serif;fill:#000000">Created by Jonathan Li</text>
<text
     x="-1.9582231e-008"
     y="70"
     font-size="5px"
     font-weight="bold"
     id="text16"
     style="font-weight:bold;font-size:5px;font-family:'Helvetica Neue', Helvetica, Arial-Unicode, Arial, Sans-serif;fill:#000000">from the Noun Project</text>
</svg>