<svg xmlns="http://www.w3.org/2000/svg" xmlns:xlink="http://www.w3.org/1999/xlink" version="1.1" x="0px" y="0px" viewBox="0 0 90 75" enable-background="new 0 0 90 60" xml:space="preserve"><path fill="#000000" d="M20.876,35.429c-3.216,0-5.823,2.605-5.823,5.822c0,3.215,2.607,5.821,5.823,5.821s5.824-2.606,5.824-5.821  C26.7,38.034,24.092,35.429,20.876,35.429z M20.876,44.288c-1.678,0-3.039-1.361-3.039-3.038c0-1.679,1.36-3.039,3.039-3.039  c1.678,0,3.038,1.358,3.038,3.039C23.914,42.927,22.555,44.288,20.876,44.288z"/><path fill="#000000" d="M70.875,35.429c-3.215,0-5.822,2.605-5.822,5.822c0,3.215,2.607,5.821,5.822,5.821  c3.217,0,5.824-2.606,5.824-5.821C76.699,38.034,74.092,35.429,70.875,35.429z M70.875,44.288c-1.678,0-3.039-1.361-3.039-3.038  c0-1.679,1.361-3.039,3.039-3.039c1.68,0,3.039,1.358,3.039,3.039C73.914,42.927,72.555,44.288,70.875,44.288z"/><path fill="#000000" d="M86.162,32.379c-1-4.37-16.875-7.813-16.875-7.813c-18.625-9.004-28.875-8.872-28.875-8.872  c-12.875-1.324-33.5,7.018-33.5,7.018l-1.5,10.063c-3.25,7.15,3.875,8.475,3.875,8.475h4.594c-0.001-0.042-0.006-0.083-0.006-0.125  C13.875,37.19,17.065,34,21,34s7.125,3.19,7.125,7.125c0,0.042-0.005,0.083-0.006,0.125h35.756c0-3.935,3.189-7.125,7.125-7.125  s7.125,3.19,7.125,7.125h6.787C89.162,40.853,86.162,32.379,86.162,32.379z M37.958,25.75h-16.5l3.25-6.314  c5.125-1.665,13.25-1.387,13.25-1.387V25.75z M45,30.625h-2.875V30H45V30.625z M40.5,25.75v-7.719  c12.258,0.781,25.031,7.719,25.031,7.719H40.5z"/><text x="0" y="75" fill="#000000" font-size="5px" font-weight="bold" font-family="'Helvetica Neue', Helvetica, Arial-Unicode, Arial, Sans-serif">Created by Jonathan Li</text><text x="0" y="80" fill="#000000" font-size="5px" font-weight="bold" font-family="'Helvetica Neue', Helvetica, Arial-Unicode, Arial, Sans-serif">from the Noun Project</text></svg>