<?xml version="1.0" encoding="UTF-8" standalone="no"?>
<svg
   xmlns:dc="http://purl.org/dc/elements/1.1/"
   xmlns:cc="http://creativecommons.org/ns#"
   xmlns:rdf="http://www.w3.org/1999/02/22-rdf-syntax-ns#"
   xmlns:svg="http://www.w3.org/2000/svg"
   xmlns="http://www.w3.org/2000/svg"
   version="1.1"
   x="0px"
   y="0px"
   viewBox="0 0 84.016815 37.559135"
   enable-background="new 0 0 90 50"
   xml:space="preserve"
   id="svg14"
   width="84.016815"
   height="37.559135"><metadata
     id="metadata20"><rdf:RDF><cc:Work
         rdf:about=""><dc:format>image/svg+xml</dc:format><dc:type
           rdf:resource="http://purl.org/dc/dcmitype/StillImage" /><dc:title></dc:title></cc:Work></rdf:RDF></metadata><defs
     id="defs18" /><path
     id="path2"
     d="M 30.513672 0 C 25.067116 -0.026479265 18.972953 0.50739063 12.220703 1.8613281 C 12.220703 1.8613281 8.9786875 2.6024841 3.0546875 12.646484 C 3.0546875 12.646484 2.3146719 14.636828 2.6386719 16.673828 C 2.6386719 16.673828 -4.2119844 23.296203 4.1660156 30.283203 L 6.859375 30.283203 C 6.859375 30.253203 6.8554688 30.223359 6.8554688 30.193359 C 6.8554688 25.656359 10.534312 21.980469 15.070312 21.980469 C 19.606313 21.980469 23.285156 25.656359 23.285156 30.193359 C 23.285156 30.223359 23.28125 30.253203 23.28125 30.283203 L 60.279297 30.283203 C 60.279297 30.253203 60.275391 30.223359 60.275391 30.193359 C 60.275391 25.656359 63.952281 21.980469 68.488281 21.980469 C 73.025281 21.980469 76.703125 25.656359 76.703125 30.193359 C 76.703125 30.223359 76.699219 30.253203 76.699219 30.283203 L 78.6875 30.283203 C 78.6885 30.284203 84.614797 30.377172 83.966797 24.451172 C 83.966797 24.451172 84.986922 13.991 65.544922 10.75 C 65.544922 10.75 54.115413 0.11474348 30.513672 0 z M 33.050781 4.3398438 C 51.519781 5.1728438 57.212891 11.490234 57.212891 11.490234 C 60.337891 14.892234 56.587891 14.267578 56.587891 14.267578 L 29.720703 12.117188 L 29.720703 4.4609375 C 31.684703 4.3319375 33.050781 4.3398438 33.050781 4.3398438 z M 15.125 23.009766 C 11.106 23.009766 7.8496094 26.266203 7.8496094 30.283203 C 7.8496094 34.300203 11.107 37.558594 15.125 37.558594 C 19.143 37.558594 22.400391 34.300203 22.400391 30.283203 C 22.400391 26.266203 19.143 23.009766 15.125 23.009766 z M 68.449219 23.009766 C 64.430219 23.009766 61.173828 26.266203 61.173828 30.283203 C 61.173828 34.300203 64.431219 37.558594 68.449219 37.558594 C 72.467219 37.558594 75.722656 34.300203 75.722656 30.283203 C 75.722656 26.266203 72.468219 23.009766 68.449219 23.009766 z " /><text
     x="3.8259756e-008"
     y="65"
     font-size="5px"
     font-weight="bold"
     id="text10"
     style="font-weight:bold;font-size:5px;font-family:'Helvetica Neue', Helvetica, Arial-Unicode, Arial, Sans-serif;fill:#000000">Created by Jonathan Li</text>
<text
     x="3.8259756e-008"
     y="70"
     font-size="5px"
     font-weight="bold"
     id="text12"
     style="font-weight:bold;font-size:5px;font-family:'Helvetica Neue', Helvetica, Arial-Unicode, Arial, Sans-serif;fill:#000000">from the Noun Project</text>
</svg>