<svg xmlns="http://www.w3.org/2000/svg" xmlns:xlink="http://www.w3.org/1999/xlink" version="1.1" x="0px" y="0px" viewBox="0 0 90 50" enable-background="new 0 0 90 40" xml:space="preserve"><g><path fill="#000000" d="M70.466,24.752c-3.358,0-6.084,2.72-6.084,6.081c0,3.365,2.726,6.085,6.084,6.085s6.086-2.72,6.086-6.085   C76.552,27.472,73.824,24.752,70.466,24.752z M70.466,34.134c-1.819,0-3.296-1.475-3.296-3.299c0-1.82,1.477-3.296,3.296-3.296   s3.296,1.476,3.296,3.296C73.762,32.659,72.285,34.134,70.466,34.134z"/><path fill="#000000" d="M17.466,24.752c-3.358,0-6.084,2.72-6.084,6.081c0,3.365,2.726,6.085,6.084,6.085s6.086-2.72,6.086-6.085   C23.552,27.472,20.824,24.752,17.466,24.752z M17.466,34.134c-1.819,0-3.295-1.475-3.295-3.299c0-1.82,1.477-3.296,3.295-3.296   s3.295,1.476,3.295,3.296C20.761,32.659,19.285,34.134,17.466,34.134z"/><path fill="#000000" d="M67.483,14.779c0,0-12.937-8.131-27.594-8.383c0,0-9.208-1.174-22.957,5.365c0,0-6.036,3.269-12.407,3.604   c0,0-2.934,2.264-2.766,8.718c0,0-0.084,4.443,2.934,6.455l5.817,0.092c0.108-3.726,3.155-6.714,6.906-6.714   c3.82,0,6.917,3.097,6.917,6.917c0,0.005-0.001,0.011-0.001,0.016l39.199,0.62c-0.02-0.21-0.032-0.421-0.032-0.636   c0-3.82,3.098-6.917,6.917-6.917c3.82,0,6.917,3.097,6.917,6.917c0,0.29-0.023,0.573-0.058,0.854l1.607,0.025   c0,0,9.138,1.258,9.306-3.604v-2.851C88.189,25.258,88.44,17.797,67.483,14.779z M60.776,16.958L22.13,16.372   c-5.197-0.419-2.012-2.431-2.012-2.431s7.88-5.197,19.113-4.862c11.234,0.335,21.544,5.197,21.544,5.197   C65.723,17.042,60.776,16.958,60.776,16.958z"/></g><text x="0" y="55" fill="#000000" font-size="5px" font-weight="bold" font-family="'Helvetica Neue', Helvetica, Arial-Unicode, Arial, Sans-serif">Created by Jonathan Li</text><text x="0" y="60" fill="#000000" font-size="5px" font-weight="bold" font-family="'Helvetica Neue', Helvetica, Arial-Unicode, Arial, Sans-serif">from the Noun Project</text></svg>
