<svg xmlns="http://www.w3.org/2000/svg" xmlns:xlink="http://www.w3.org/1999/xlink" version="1.1" x="0px" y="0px" viewBox="0 0 90 50" enable-background="new 0 0 90 40" xml:space="preserve"><g><path fill="#000000" d="M76.966,23.375c-3.538,0-6.409,2.865-6.409,6.406c0,3.545,2.871,6.41,6.409,6.41s6.411-2.865,6.411-6.41   C83.377,26.24,80.504,23.375,76.966,23.375z M76.966,33.259c-1.916,0-3.472-1.554-3.472-3.476c0-1.918,1.556-3.472,3.472-3.472   s3.472,1.554,3.472,3.472C80.438,31.705,78.882,33.259,76.966,33.259z"/><path fill="#000000" d="M19.966,23.375c-3.538,0-6.409,2.865-6.409,6.406c0,3.545,2.871,6.41,6.409,6.41s6.411-2.865,6.411-6.41   C26.377,26.24,23.504,23.375,19.966,23.375z M19.966,33.259c-1.916,0-3.472-1.554-3.472-3.476c0-1.918,1.556-3.472,3.472-3.472   s3.472,1.554,3.472,3.472C23.438,31.705,21.882,33.259,19.966,33.259z"/><path fill="#000000" d="M67.674,13.956c0,0-12.975-8.423-27.673-8.684c0,0-9.236-1.216-23.023,5.558c0,0-6.053,3.386-12.443,3.734   c0,0-2.942,2.345-2.775,9.03c0,0-0.083,4.603,2.943,6.687l8.163,0.134c-0.031-0.272-0.051-0.548-0.051-0.828   c0-3.957,3.208-7.165,7.165-7.165c3.957,0,7.165,3.208,7.165,7.165c0,0.361-0.035,0.713-0.087,1.06l42.885,0.701   c-0.144-0.564-0.228-1.152-0.228-1.761c0-3.957,3.208-7.165,7.165-7.165s7.164,3.208,7.164,7.165c0,0.667-0.098,1.309-0.269,1.922   c2.291-0.313,4.581-1.25,4.665-3.745V24.81C88.439,24.81,88.691,17.082,67.674,13.956z M60.947,16.213l-38.758-0.608   c-5.212-0.434-2.017-2.518-2.017-2.518s7.903-5.384,19.168-5.036c11.266,0.347,21.607,5.384,21.607,5.384   C65.909,16.3,60.947,16.213,60.947,16.213z"/></g><text x="0" y="55" fill="#000000" font-size="5px" font-weight="bold" font-family="'Helvetica Neue', Helvetica, Arial-Unicode, Arial, Sans-serif">Created by Jonathan Li</text><text x="0" y="60" fill="#000000" font-size="5px" font-weight="bold" font-family="'Helvetica Neue', Helvetica, Arial-Unicode, Arial, Sans-serif">from the Noun Project</text></svg>