<?xml version="1.0" encoding="UTF-8" standalone="no"?>
<svg
   xmlns:dc="http://purl.org/dc/elements/1.1/"
   xmlns:cc="http://creativecommons.org/ns#"
   xmlns:rdf="http://www.w3.org/1999/02/22-rdf-syntax-ns#"
   xmlns:svg="http://www.w3.org/2000/svg"
   xmlns="http://www.w3.org/2000/svg"
   height="37.559135"
   width="84.016815"
   id="svg14"
   xml:space="preserve"
   enable-background="new 0 0 90 50"
   viewBox="0 0 84.016815 37.559135"
   y="0px"
   x="0px"
   version="1.1"><metadata
     id="metadata20"><rdf:RDF><cc:Work
         rdf:about=""><dc:format>image/svg+xml</dc:format><dc:type
           rdf:resource="http://purl.org/dc/dcmitype/StillImage" /><dc:title></dc:title></cc:Work></rdf:RDF></metadata><defs
     id="defs18" /><g
     transform="translate(-3.1777026,-7.9058643)"
     id="g8"><path
       id="path2"
       d="m 87.145,32.358 c 0,0 1.019,-10.461 -18.423,-13.702 0,0 -17.312,-16.109 -53.324,-8.888 0,0 -3.241,0.741 -9.165,10.785 0,0 -0.741,1.989 -0.417,4.026 0,0 -6.851,6.623 1.527,13.61 h 2.695 c 0,-0.03 -0.004,-0.06 -0.004,-0.09 0,-4.537 3.678,-8.213 8.214,-8.213 4.536,0 8.214,3.676 8.214,8.213 0,0.03 -0.004,0.06 -0.004,0.09 h 36.999 c 0,-0.03 -0.004,-0.06 -0.004,-0.09 0,-4.537 3.677,-8.213 8.213,-8.213 4.537,0 8.214,3.676 8.214,8.213 0,0.03 -0.004,0.06 -0.004,0.09 h 1.99 c 0.001,10e-4 5.927,0.095 5.279,-5.831 z M 20.744,19.05 c -3.055,-0.347 -1.736,-1.817 -1.736,-1.817 1.443,-3.105 7.55,-4.276 12.084,-4.718 v 7.364 z m 39.022,3.124 -26.868,-2.151 v -7.656 c 1.964,-0.129 3.33,-0.122 3.33,-0.122 18.469,0.833 24.162,7.152 24.162,7.152 3.125,3.402 -0.624,2.777 -0.624,2.777 z" /><path
       id="path4"
       d="m 71.626,30.915 c -4.019,0 -7.275,3.258 -7.275,7.275 0,4.017 3.257,7.275 7.275,7.275 4.018,0 7.275,-3.258 7.275,-7.275 0,-4.017 -3.256,-7.275 -7.275,-7.275 z m 0,11.056 c -2.087,0 -3.779,-1.692 -3.779,-3.78 0,-2.087 1.692,-3.779 3.779,-3.779 2.088,0 3.78,1.692 3.78,3.779 0,2.087 -1.692,3.78 -3.78,3.78 z" /><path
       id="path6"
       d="m 18.303,30.915 c -4.019,0 -7.275,3.258 -7.275,7.275 0,4.017 3.257,7.275 7.275,7.275 4.018,0 7.275,-3.258 7.275,-7.275 0,-4.017 -3.257,-7.275 -7.275,-7.275 z m 0,11.056 c -2.087,0 -3.78,-1.692 -3.78,-3.78 0,-2.087 1.692,-3.779 3.78,-3.779 2.088,0 3.78,1.692 3.78,3.779 0,2.087 -1.693,3.78 -3.78,3.78 z" /></g><text
     style="font-weight:bold;font-size:5px;font-family:'Helvetica Neue', Helvetica, Arial-Unicode, Arial, Sans-serif;fill:#000000"
     id="text10"
     font-weight="bold"
     font-size="5px"
     y="65"
     x="3.8259756e-008">Created by Jonathan Li</text>
<text
     style="font-weight:bold;font-size:5px;font-family:'Helvetica Neue', Helvetica, Arial-Unicode, Arial, Sans-serif;fill:#000000"
     id="text12"
     font-weight="bold"
     font-size="5px"
     y="70"
     x="3.8259756e-008">from the Noun Project</text>
</svg>