<svg xmlns="http://www.w3.org/2000/svg" xmlns:xlink="http://www.w3.org/1999/xlink" version="1.1" x="0px" y="0px" viewBox="0 0 90 62.5" enable-background="new 0 0 90 50" xml:space="preserve"><g><path d="M88.762,29.441c-0.355-7.615-22.344-11.609-22.344-11.609C52.112,8.219,46.792,7.845,46.792,7.845   C24.093,4.1,10.26,8.969,10.26,8.969c-2.01,0.875-5.675,8.614-5.675,8.614c-1.537,1.623-1.301,5.493-1.301,5.493   c-0.119,4.119-2.246,4.619-2.246,4.619C0.566,35.559,4.585,38.18,4.585,38.18h4.04c0.005-4.853,3.94-8.785,8.794-8.785   s8.789,3.933,8.794,8.785h35.321c0.006-4.853,3.94-8.785,8.795-8.785s8.789,3.933,8.795,8.785h5.705   c3.459,0.251,3.192-4.463,3.192-4.463C89.53,33.436,88.762,29.441,88.762,29.441z M59.331,21.583l-43.538-2.34   C12.159,17.464,13.312,14,13.312,14c0-6.085,23.497-4.026,23.497-4.026c11.438,0.187,21.636,7.209,21.636,7.209   C66.779,22.145,59.331,21.583,59.331,21.583z"/></g><path d="M70.438,30.686c-4.145,0-7.504,3.36-7.504,7.504s3.359,7.504,7.504,7.504s7.504-3.36,7.504-7.504  S74.582,30.686,70.438,30.686z M70.438,41.583c-1.875,0-3.395-1.52-3.395-3.394s1.52-3.394,3.395-3.394s3.395,1.52,3.395,3.394  S72.312,41.583,70.438,41.583z"/><path d="M17.438,30.686c-4.145,0-7.504,3.36-7.504,7.504s3.359,7.504,7.504,7.504s7.504-3.36,7.504-7.504  S21.582,30.686,17.438,30.686z M17.438,41.583c-1.875,0-3.394-1.52-3.394-3.394s1.52-3.394,3.394-3.394s3.394,1.52,3.394,3.394  S19.312,41.583,17.438,41.583z"/><text x="0" y="65" fill="#000000" font-size="5px" font-weight="bold" font-family="'Helvetica Neue', Helvetica, Arial-Unicode, Arial, Sans-serif">Created by Jonathan Li</text><text x="0" y="70" fill="#000000" font-size="5px" font-weight="bold" font-family="'Helvetica Neue', Helvetica, Arial-Unicode, Arial, Sans-serif">from the Noun Project</text></svg>