<?xml version="1.0" encoding="UTF-8" standalone="no"?>
<svg
   xmlns:dc="http://purl.org/dc/elements/1.1/"
   xmlns:cc="http://creativecommons.org/ns#"
   xmlns:rdf="http://www.w3.org/1999/02/22-rdf-syntax-ns#"
   xmlns:svg="http://www.w3.org/2000/svg"
   xmlns="http://www.w3.org/2000/svg"
   height="30.802896"
   width="85.5811"
   id="svg14"
   xml:space="preserve"
   enable-background="new 0 0 90 45"
   viewBox="0 0 85.5811 30.802896"
   y="0px"
   x="0px"
   version="1.1"><metadata
     id="metadata20"><rdf:RDF><cc:Work
         rdf:about=""><dc:format>image/svg+xml</dc:format><dc:type
           rdf:resource="http://purl.org/dc/dcmitype/StillImage" /><dc:title></dc:title></cc:Work></rdf:RDF></metadata><defs
     id="defs18" /><g
     transform="translate(-2.4189952,-9.0311029)"
     id="g8"><path
       id="path2"
       d="m 67.639,18.294 c 0,0 -19.872,-16.795 -52.963,-5.155 0,0 -6.153,1.995 -9.811,1.829 l -0.416,7.899 c 0,0 -7.732,11.307 6.984,11.307 l 1.953,0.026 c -0.002,-0.067 -0.01,-0.133 -0.01,-0.2 0,-3.866 3.134,-7 7,-7 3.866,0 7,3.134 7,7 0,0.132 -0.013,0.26 -0.02,0.39 l 38.085,0.517 c -0.039,-0.297 -0.065,-0.599 -0.065,-0.906 0,-3.866 3.134,-7 7,-7 3.866,0 7,3.134 7,7 0,0.391 -0.04,0.771 -0.102,1.145 1.753,0.207 8.58,0.684 8.652,-4.462 0,-0.001 2.412,-9.231 -20.287,-12.39 z m -8.065,1.579 -38.497,-2.328 c -3.991,-1.081 -0.832,-2.827 -0.832,-2.827 22.283,-9.478 39.329,2.245 39.329,2.245 5.404,2.994 0,2.91 0,2.91 z" /><path
       id="path4"
       d="m 72.416,28.334 c -3.176,0 -5.75,2.574 -5.75,5.75 0,3.176 2.574,5.75 5.75,5.75 3.176,0 5.75,-2.574 5.75,-5.75 0,-3.176 -2.574,-5.75 -5.75,-5.75 z m 0,8.272 c -1.393,0 -2.521,-1.129 -2.521,-2.521 0,-1.394 1.129,-2.522 2.521,-2.522 1.392,0 2.522,1.129 2.522,2.522 0,1.393 -1.129,2.521 -2.522,2.521 z" /><path
       id="path6"
       d="m 20.417,28.334 c -3.176,0 -5.75,2.574 -5.75,5.75 0,3.176 2.574,5.75 5.75,5.75 3.176,0 5.75,-2.574 5.75,-5.75 0,-3.176 -2.575,-5.75 -5.75,-5.75 z m 0,8.272 c -1.393,0 -2.522,-1.129 -2.522,-2.521 0,-1.394 1.129,-2.522 2.522,-2.522 1.393,0 2.522,1.129 2.522,2.522 -0.001,1.393 -1.13,2.521 -2.522,2.521 z" /></g><text
     style="font-weight:bold;font-size:5px;font-family:'Helvetica Neue', Helvetica, Arial-Unicode, Arial, Sans-serif;fill:#000000"
     id="text10"
     font-weight="bold"
     font-size="5px"
     y="60"
     x="-3.8781575e-008">Created by Jonathan Li</text>
<text
     style="font-weight:bold;font-size:5px;font-family:'Helvetica Neue', Helvetica, Arial-Unicode, Arial, Sans-serif;fill:#000000"
     id="text12"
     font-weight="bold"
     font-size="5px"
     y="65"
     x="-3.8781575e-008">from the Noun Project</text>
</svg>