<svg xmlns="http://www.w3.org/2000/svg" xmlns:xlink="http://www.w3.org/1999/xlink" version="1.1" x="0px" y="0px" viewBox="0 0 90 62.5" enable-background="new 0 0 90 50" xml:space="preserve"><path d="M17.538,31.137c-4.267,0-7.727,3.455-7.727,7.726c0,4.264,3.458,7.722,7.727,7.722c4.265,0,7.726-3.458,7.726-7.722  C25.262,34.592,21.804,31.137,17.538,31.137z M17.538,42.894c-2.228,0-4.031-1.805-4.031-4.031c0-2.229,1.803-4.033,4.031-4.033  c2.227,0,4.027,1.805,4.027,4.033C21.565,41.087,19.764,42.894,17.538,42.894z"/><path d="M14.784,11.443c0,0,0.554-1.631,1.293-1.631h36.168c0,0,1.662,0.148,1.662,1.631H14.784z"/><path d="M71.245,31.137c-4.267,0-7.727,3.455-7.727,7.726c0,4.264,3.459,7.722,7.727,7.722c4.266,0,7.727-3.458,7.727-7.722  C78.97,34.592,75.512,31.137,71.245,31.137z M71.245,42.894c-2.228,0-4.03-1.805-4.03-4.031c0-2.229,1.803-4.033,4.03-4.033  s4.027,1.805,4.027,4.033C75.272,41.087,73.472,42.894,71.245,42.894z"/><path fill="#000000" d="M147.062,6.75v10.625V6.75z"/><path fill="#000000" d="M170.438,6.75c0,0,11.812,9.125,11.875,10.625h-35.25V6.75H170.438z"/><path d="M87.168,39.033c0.595-1.037,0.549-5.93,0.549-5.93c-0.091-1.531-1.271-2.421-1.271-2.421  c-1.345-8.434-15.882-8.961-15.882-8.961c-2.441,0-7.207-1.582-7.207-1.582c-2.688-3.295-9.406-8.039-9.406-8.039H14.613  c-1.955,0-5.742,8.302-5.742,8.302H8.016c-3.421,0.527-3.42,9.488-3.42,9.488c-4.398,1.845-1.588,9.488-1.588,9.488  c0.043,0.988,0.979,1.631,0.979,1.631h5.077c-0.185-0.708-0.293-1.447-0.293-2.213c0-4.832,3.917-8.748,8.748-8.748  s8.748,3.916,8.748,8.748c0,0.766-0.108,1.505-0.293,2.213h36.826c-0.186-0.708-0.294-1.447-0.294-2.213  c0-4.832,3.917-8.748,8.748-8.748S80,33.966,80,38.798c0,0.766-0.108,1.505-0.294,2.213h7.827c0.064-0.042,0.116-0.091,0.157-0.141  C88.183,40.255,87.168,39.033,87.168,39.033z M37,21.438v-7.021h16.233c0,0,5.622,4.857,7.017,7.021H37z"/><text x="0" y="65" fill="#000000" font-size="5px" font-weight="bold" font-family="'Helvetica Neue', Helvetica, Arial-Unicode, Arial, Sans-serif">Created by Jonathan Li</text><text x="0" y="70" fill="#000000" font-size="5px" font-weight="bold" font-family="'Helvetica Neue', Helvetica, Arial-Unicode, Arial, Sans-serif">from the Noun Project</text></svg>