<?xml version="1.0" encoding="UTF-8" standalone="no"?>
<svg
   xmlns:dc="http://purl.org/dc/elements/1.1/"
   xmlns:cc="http://creativecommons.org/ns#"
   xmlns:rdf="http://www.w3.org/1999/02/22-rdf-syntax-ns#"
   xmlns:svg="http://www.w3.org/2000/svg"
   xmlns="http://www.w3.org/2000/svg"
   height="31.003862"
   width="86.68692"
   id="svg14"
   xml:space="preserve"
   enable-background="new 0 0 90 40"
   viewBox="0 0 86.68692 31.003862"
   y="0px"
   x="0px"
   version="1.1"><metadata
     id="metadata20"><rdf:RDF><cc:Work
         rdf:about=""><dc:format>image/svg+xml</dc:format><dc:type
           rdf:resource="http://purl.org/dc/dcmitype/StillImage" /><dc:title></dc:title></cc:Work></rdf:RDF></metadata><defs
     id="defs18" /><g
     transform="translate(-1.7531501,-5.1871369)"
     id="g8"><path
       style="fill:#000000"
       id="path2"
       d="m 76.966,23.375 c -3.538,0 -6.409,2.865 -6.409,6.406 0,3.545 2.871,6.41 6.409,6.41 3.538,0 6.411,-2.865 6.411,-6.41 0,-3.541 -2.873,-6.406 -6.411,-6.406 z m 0,9.884 c -1.916,0 -3.472,-1.554 -3.472,-3.476 0,-1.918 1.556,-3.472 3.472,-3.472 1.916,0 3.472,1.554 3.472,3.472 0,1.922 -1.556,3.476 -3.472,3.476 z" /><path
       style="fill:#000000"
       id="path4"
       d="m 19.966,23.375 c -3.538,0 -6.409,2.865 -6.409,6.406 0,3.545 2.871,6.41 6.409,6.41 3.538,0 6.411,-2.865 6.411,-6.41 0,-3.541 -2.873,-6.406 -6.411,-6.406 z m 0,9.884 c -1.916,0 -3.472,-1.554 -3.472,-3.476 0,-1.918 1.556,-3.472 3.472,-3.472 1.916,0 3.472,1.554 3.472,3.472 0,1.922 -1.556,3.476 -3.472,3.476 z" /><path
       style="fill:#000000"
       id="path6"
       d="m 67.674,13.956 c 0,0 -12.975,-8.423 -27.673,-8.684 0,0 -9.236,-1.216 -23.023,5.558 0,0 -6.053,3.386 -12.443,3.734 0,0 -2.942,2.345 -2.775,9.03 0,0 -0.083,4.603 2.943,6.687 l 8.163,0.134 c -0.031,-0.272 -0.051,-0.548 -0.051,-0.828 0,-3.957 3.208,-7.165 7.165,-7.165 3.957,0 7.165,3.208 7.165,7.165 0,0.361 -0.035,0.713 -0.087,1.06 l 42.885,0.701 c -0.144,-0.564 -0.228,-1.152 -0.228,-1.761 0,-3.957 3.208,-7.165 7.165,-7.165 3.957,0 7.164,3.208 7.164,7.165 0,0.667 -0.098,1.309 -0.269,1.922 2.291,-0.313 4.581,-1.25 4.665,-3.745 V 24.81 c -0.001,0 0.251,-7.728 -20.766,-10.854 z m -6.727,2.257 -38.758,-0.608 c -5.212,-0.434 -2.017,-2.518 -2.017,-2.518 0,0 7.903,-5.384 19.168,-5.036 11.266,0.347 21.607,5.384 21.607,5.384 4.962,2.865 0,2.778 0,2.778 z" /></g><text
     style="font-weight:bold;font-size:5px;font-family:'Helvetica Neue', Helvetica, Arial-Unicode, Arial, Sans-serif;fill:#000000"
     id="text10"
     font-weight="bold"
     font-size="5px"
     y="55"
     x="-1.5796706e-008">Created by Jonathan Li</text>
<text
     style="font-weight:bold;font-size:5px;font-family:'Helvetica Neue', Helvetica, Arial-Unicode, Arial, Sans-serif;fill:#000000"
     id="text12"
     font-weight="bold"
     font-size="5px"
     y="60"
     x="-1.5796706e-008">from the Noun Project</text>
</svg>