<svg xmlns="http://www.w3.org/2000/svg" xmlns:xlink="http://www.w3.org/1999/xlink" version="1.1" x="0px" y="0px" viewBox="0 0 90 43.75" enable-background="new 0 0 90 35" xml:space="preserve"><g><path d="M88.396,19.088c-2.943-6.602-24.018-8.589-24.018-8.589L51.334,4.851c-7.317-3.738-25.928-1.75-25.928-1.75   C8.863,4.215,2.978,11.054,2.978,11.054c-1.273,0.955-0.795,5.727-0.795,5.727C-1,21.712,7.511,27.598,7.511,27.598h3.936   c-0.042-0.328-0.072-0.66-0.072-1c0-4.277,3.467-7.744,7.744-7.744s7.744,3.467,7.744,7.744c0,0.34-0.029,0.672-0.072,1h38.543   c-0.042-0.328-0.071-0.66-0.071-1c0-4.277,3.466-7.744,7.743-7.744s7.744,3.467,7.744,7.744c0,0.34-0.029,0.672-0.071,1h5.333   c0.953-0.158,1.512-4.771,1.512-4.771C89.033,21.076,88.396,19.088,88.396,19.088z M15.146,11.691c-2.545-0.159,0-1.671,0-1.671   c2.04-1.371,4.562-2.349,7.252-3.042l1.547,5.404C18.782,11.999,15.146,11.691,15.146,11.691z M25.439,12.493l-1.671-5.838   c9.19-2.012,19.692-1.009,19.692-1.009c7.716,0.478,14.794,7.794,14.794,7.794C55.811,14.503,37.397,13.366,25.439,12.493z"/><path d="M73.141,19.649c-3.812,0-6.904,3.088-6.904,6.9c0,3.82,3.093,6.908,6.904,6.908c3.811,0,6.904-3.088,6.904-6.908   C80.045,22.737,76.951,19.649,73.141,19.649z M73.141,30.298c-2.062,0-3.74-1.676-3.74-3.743s1.678-3.74,3.74-3.74   c2.063,0,3.74,1.673,3.74,3.74S75.204,30.298,73.141,30.298z"/><path d="M19.141,19.649c-3.812,0-6.904,3.088-6.904,6.9c0,3.82,3.092,6.908,6.904,6.908c3.811,0,6.904-3.088,6.904-6.908   C26.045,22.737,22.952,19.649,19.141,19.649z M19.141,30.298c-2.063,0-3.74-1.676-3.74-3.743s1.677-3.74,3.74-3.74   s3.74,1.673,3.74,3.74S21.204,30.298,19.141,30.298z"/></g><text x="0" y="50" fill="#000000" font-size="5px" font-weight="bold" font-family="'Helvetica Neue', Helvetica, Arial-Unicode, Arial, Sans-serif">Created by Jonathan Li</text><text x="0" y="55" fill="#000000" font-size="5px" font-weight="bold" font-family="'Helvetica Neue', Helvetica, Arial-Unicode, Arial, Sans-serif">from the Noun Project</text></svg>