<?xml version="1.0" encoding="UTF-8" standalone="no"?>
<svg
   xmlns:dc="http://purl.org/dc/elements/1.1/"
   xmlns:cc="http://creativecommons.org/ns#"
   xmlns:rdf="http://www.w3.org/1999/02/22-rdf-syntax-ns#"
   xmlns:svg="http://www.w3.org/2000/svg"
   xmlns="http://www.w3.org/2000/svg"
   height="30.603951"
   width="86.436157"
   id="svg14"
   xml:space="preserve"
   enable-background="new 0 0 90 40"
   viewBox="0 0 86.436157 30.603951"
   y="0px"
   x="0px"
   version="1.1"><metadata
     id="metadata20"><rdf:RDF><cc:Work
         rdf:about=""><dc:format>image/svg+xml</dc:format><dc:type
           rdf:resource="http://purl.org/dc/dcmitype/StillImage" /><dc:title></dc:title></cc:Work></rdf:RDF></metadata><defs
     id="defs18" /><g
     transform="translate(-1.7520512,-6.3140491)"
     id="g8"><path
       style="fill:#000000"
       id="path2"
       d="m 70.466,24.752 c -3.358,0 -6.084,2.72 -6.084,6.081 0,3.365 2.726,6.085 6.084,6.085 3.358,0 6.086,-2.72 6.086,-6.085 0,-3.361 -2.728,-6.081 -6.086,-6.081 z m 0,9.382 c -1.819,0 -3.296,-1.475 -3.296,-3.299 0,-1.82 1.477,-3.296 3.296,-3.296 1.819,0 3.296,1.476 3.296,3.296 0,1.824 -1.477,3.299 -3.296,3.299 z" /><path
       style="fill:#000000"
       id="path4"
       d="m 17.466,24.752 c -3.358,0 -6.084,2.72 -6.084,6.081 0,3.365 2.726,6.085 6.084,6.085 3.358,0 6.086,-2.72 6.086,-6.085 0,-3.361 -2.728,-6.081 -6.086,-6.081 z m 0,9.382 c -1.819,0 -3.295,-1.475 -3.295,-3.299 0,-1.82 1.477,-3.296 3.295,-3.296 1.818,0 3.295,1.476 3.295,3.296 0,1.824 -1.476,3.299 -3.295,3.299 z" /><path
       style="fill:#000000"
       id="path6"
       d="m 67.483,14.779 c 0,0 -12.937,-8.131 -27.594,-8.383 0,0 -9.208,-1.174 -22.957,5.365 0,0 -6.036,3.269 -12.407,3.604 0,0 -2.934,2.264 -2.766,8.718 0,0 -0.084,4.443 2.934,6.455 l 5.817,0.092 c 0.108,-3.726 3.155,-6.714 6.906,-6.714 3.82,0 6.917,3.097 6.917,6.917 0,0.005 -10e-4,0.011 -10e-4,0.016 l 39.199,0.62 c -0.02,-0.21 -0.032,-0.421 -0.032,-0.636 0,-3.82 3.098,-6.917 6.917,-6.917 3.82,0 6.917,3.097 6.917,6.917 0,0.29 -0.023,0.573 -0.058,0.854 l 1.607,0.025 c 0,0 9.138,1.258 9.306,-3.604 v -2.851 c 10e-4,10e-4 0.252,-7.46 -20.705,-10.478 z M 60.776,16.958 22.13,16.372 c -5.197,-0.419 -2.012,-2.431 -2.012,-2.431 0,0 7.88,-5.197 19.113,-4.862 11.234,0.335 21.544,5.197 21.544,5.197 4.948,2.766 0.001,2.682 0.001,2.682 z" /></g><text
     style="font-weight:bold;font-size:5px;font-family:'Helvetica Neue', Helvetica, Arial-Unicode, Arial, Sans-serif;fill:#000000"
     id="text10"
     font-weight="bold"
     font-size="5px"
     y="55"
     x="4.3717019e-008">Created by Jonathan Li</text>
<text
     style="font-weight:bold;font-size:5px;font-family:'Helvetica Neue', Helvetica, Arial-Unicode, Arial, Sans-serif;fill:#000000"
     id="text12"
     font-weight="bold"
     font-size="5px"
     y="60"
     x="4.3717019e-008">from the Noun Project</text>
</svg>