<?xml version="1.0" encoding="UTF-8" standalone="no"?>
<svg
   xmlns:dc="http://purl.org/dc/elements/1.1/"
   xmlns:cc="http://creativecommons.org/ns#"
   xmlns:rdf="http://www.w3.org/1999/02/22-rdf-syntax-ns#"
   xmlns:svg="http://www.w3.org/2000/svg"
   xmlns="http://www.w3.org/2000/svg"
   height="36.772999"
   width="85.701424"
   id="svg18"
   xml:space="preserve"
   enable-background="new 0 0 90 50"
   viewBox="0 0 85.701424 36.772999"
   y="0px"
   x="0px"
   version="1.1"><metadata
     id="metadata24"><rdf:RDF><cc:Work
         rdf:about=""><dc:format>image/svg+xml</dc:format><dc:type
           rdf:resource="http://purl.org/dc/dcmitype/StillImage" /><dc:title></dc:title></cc:Work></rdf:RDF></metadata><defs
     id="defs22" /><path
     id="path2"
     d="m 15.414335,21.325 c -4.267,0 -7.7269998,3.455 -7.7269998,7.726 0,4.264 3.4579998,7.722 7.7269998,7.722 4.265,0 7.726,-3.458 7.726,-7.722 -0.002,-4.271 -3.46,-7.726 -7.726,-7.726 z m 0,11.757 c -2.228,0 -4.031,-1.805 -4.031,-4.031 0,-2.229 1.803,-4.033 4.031,-4.033 2.227,0 4.027,1.805 4.027,4.033 0,2.224 -1.801,4.031 -4.027,4.031 z" /><path
     id="path4"
     d="m 12.660335,1.631 c 0,0 0.554,-1.631 1.293,-1.631 h 36.168 c 0,0 1.662,0.148 1.662,1.631 z" /><path
     id="path6"
     d="m 69.121335,21.325 c -4.267,0 -7.727,3.455 -7.727,7.726 0,4.264 3.459,7.722 7.727,7.722 4.266,0 7.727,-3.458 7.727,-7.722 -0.002,-4.271 -3.46,-7.726 -7.727,-7.726 z m 0,11.757 c -2.228,0 -4.03,-1.805 -4.03,-4.031 0,-2.229 1.803,-4.033 4.03,-4.033 2.227,0 4.027,1.805 4.027,4.033 0,2.224 -1.8,4.031 -4.027,4.031 z" /><path
     style="fill:#000000"
     id="path8"
     d="M 147.062,6.75 V 17.375 Z" /><path
     id="path12"
     d="m 85.044335,29.221 c 0.595,-1.037 0.549,-5.93 0.549,-5.93 -0.091,-1.531 -1.271,-2.421 -1.271,-2.421 -1.345,-8.434 -15.882,-8.961 -15.882,-8.961 -2.441,0 -7.207,-1.582 -7.207,-1.582 -2.688,-3.295 -9.406,-8.039 -9.406,-8.039 h -39.338 c -1.955,0 -5.7419998,8.302 -5.7419998,8.302 h -0.855 c -3.421,0.527 -3.42,9.488 -3.42,9.488 -4.398,1.845 -1.58800005,9.488 -1.58800005,9.488 0.043,0.988 0.97900005,1.631 0.97900005,1.631 h 5.077 c -0.185,-0.708 -0.293,-1.447 -0.293,-2.213 0,-4.832 3.9169998,-8.748 8.7479998,-8.748 4.831,0 8.748,3.916 8.748,8.748 0,0.766 -0.108,1.505 -0.293,2.213 h 36.826 c -0.186,-0.708 -0.294,-1.447 -0.294,-2.213 0,-4.832 3.917,-8.748 8.748,-8.748 4.831,0 8.746,3.918 8.746,8.75 0,0.766 -0.108,1.505 -0.294,2.213 h 7.827 c 0.064,-0.042 0.116,-0.091 0.157,-0.141 0.493,-0.615 -0.522,-1.837 -0.522,-1.837 z m -50.168,-17.595 V 4.605 h 16.233 c 0,0 5.622,4.857 7.017,7.021 z" /><text
     style="font-weight:bold;font-size:5px;font-family:'Helvetica Neue', Helvetica, Arial-Unicode, Arial, Sans-serif;fill:#000000"
     id="text14"
     font-weight="bold"
     font-size="5px"
     y="65"
     x="-1.9582231e-008">Created by Jonathan Li</text>
<text
     style="font-weight:bold;font-size:5px;font-family:'Helvetica Neue', Helvetica, Arial-Unicode, Arial, Sans-serif;fill:#000000"
     id="text16"
     font-weight="bold"
     font-size="5px"
     y="70"
     x="-1.9582231e-008">from the Noun Project</text>
</svg>