<?xml version="1.0" encoding="UTF-8" standalone="no"?>
<svg
   xmlns:dc="http://purl.org/dc/elements/1.1/"
   xmlns:cc="http://creativecommons.org/ns#"
   xmlns:rdf="http://www.w3.org/1999/02/22-rdf-syntax-ns#"
   xmlns:svg="http://www.w3.org/2000/svg"
   xmlns="http://www.w3.org/2000/svg"
   version="1.1"
   x="0px"
   y="0px"
   viewBox="0 0 81.237091 36.68565"
   enable-background="new 0 0 90 50"
   xml:space="preserve"
   id="svg12"
   width="81.237091"
   height="36.68565"><metadata
     id="metadata18"><rdf:RDF><cc:Work
         rdf:about=""><dc:format>image/svg+xml</dc:format><dc:type
           rdf:resource="http://purl.org/dc/dcmitype/StillImage" /><dc:title></dc:title></cc:Work></rdf:RDF></metadata><defs
     id="defs16" /><path
     id="path2"
     d="M 31.509766 0.001953125 C 21.358935 -0.069724092 4.6585 1.5302498 1.71875 12.5 C 1.71875 12.5 -1.3367812 21.447953 0.69921875 30.876953 L 5.7851562 30.876953 C 5.7491563 30.574953 5.6933594 30.278703 5.6933594 29.970703 C 5.6933594 25.637703 9.2012029 22.128906 13.533203 22.128906 C 17.864203 22.128906 21.373047 25.637703 21.373047 29.970703 C 21.373047 30.279703 21.31725 30.574953 21.28125 30.876953 L 59.042969 30.876953 C 59.007969 30.574953 58.951172 30.278703 58.951172 29.970703 C 58.951172 25.637703 62.461016 22.128906 66.791016 22.128906 C 71.123016 22.128906 74.632812 25.637703 74.632812 29.970703 C 74.632812 30.279703 74.576016 30.574953 74.541016 30.876953 L 81.119141 30.876953 C 81.119141 30.876953 83.156078 14.437953 70.330078 12.501953 L 62.796875 12.501953 C 62.796875 12.501953 54.450766 1.6201094 39.384766 0.41210938 C 39.384766 0.41210938 36.123779 0.034533678 31.509766 0.001953125 z M 35.712891 4.140625 L 40.619141 4.140625 C 47.572141 4.481625 58.013672 13.013672 58.013672 13.013672 L 35.712891 13.013672 L 35.712891 4.140625 z M 13.660156 23.662109 C 10.063156 23.662109 7.1484375 26.572922 7.1484375 30.169922 C 7.1484375 33.767922 10.063156 36.685547 13.660156 36.685547 C 17.259156 36.685547 20.175781 33.767922 20.175781 30.169922 C 20.175781 26.572922 17.259156 23.662109 13.660156 23.662109 z M 66.734375 23.662109 C 63.138375 23.662109 60.222656 26.572922 60.222656 30.169922 C 60.222656 33.767922 63.138375 36.685547 66.734375 36.685547 C 70.334375 36.685547 73.25 33.767922 73.25 30.169922 C 73.25 26.572922 70.334375 23.662109 66.734375 23.662109 z " /><text
     x="-7.0333375e-009"
     y="65"
     font-size="5px"
     font-weight="bold"
     id="text8"
     style="font-weight:bold;font-size:5px;font-family:'Helvetica Neue', Helvetica, Arial-Unicode, Arial, Sans-serif;fill:#000000">Created by Jonathan Li</text>
<text
     x="-7.0333375e-009"
     y="70"
     font-size="5px"
     font-weight="bold"
     id="text10"
     style="font-weight:bold;font-size:5px;font-family:'Helvetica Neue', Helvetica, Arial-Unicode, Arial, Sans-serif;fill:#000000">from the Noun Project</text>
</svg>