<svg xmlns="http://www.w3.org/2000/svg" xmlns:xlink="http://www.w3.org/1999/xlink" version="1.1" x="0px" y="0px" viewBox="0 0 90 56.25" enable-background="new 0 0 90 45" xml:space="preserve"><g><path d="M67.639,18.294c0,0-19.872-16.795-52.963-5.155c0,0-6.153,1.995-9.811,1.829l-0.416,7.899c0,0-7.732,11.307,6.984,11.307   l1.953,0.026c-0.002-0.067-0.01-0.133-0.01-0.2c0-3.866,3.134-7,7-7s7,3.134,7,7c0,0.132-0.013,0.26-0.02,0.39l38.085,0.517   c-0.039-0.297-0.065-0.599-0.065-0.906c0-3.866,3.134-7,7-7s7,3.134,7,7c0,0.391-0.04,0.771-0.102,1.145   c1.753,0.207,8.58,0.684,8.652-4.462C87.926,30.683,90.338,21.453,67.639,18.294z M59.574,19.873l-38.497-2.328   c-3.991-1.081-0.832-2.827-0.832-2.827c22.283-9.478,39.329,2.245,39.329,2.245C64.978,19.957,59.574,19.873,59.574,19.873z"/><path d="M72.416,28.334c-3.176,0-5.75,2.574-5.75,5.75s2.574,5.75,5.75,5.75s5.75-2.574,5.75-5.75S75.592,28.334,72.416,28.334z    M72.416,36.606c-1.393,0-2.521-1.129-2.521-2.521c0-1.394,1.129-2.522,2.521-2.522s2.522,1.129,2.522,2.522   C74.938,35.478,73.809,36.606,72.416,36.606z"/><path d="M20.417,28.334c-3.176,0-5.75,2.574-5.75,5.75s2.574,5.75,5.75,5.75s5.75-2.574,5.75-5.75S23.592,28.334,20.417,28.334z    M20.417,36.606c-1.393,0-2.522-1.129-2.522-2.521c0-1.394,1.129-2.522,2.522-2.522s2.522,1.129,2.522,2.522   C22.938,35.478,21.809,36.606,20.417,36.606z"/></g><text x="0" y="60" fill="#000000" font-size="5px" font-weight="bold" font-family="'Helvetica Neue', Helvetica, Arial-Unicode, Arial, Sans-serif">Created by Jonathan Li</text><text x="0" y="65" fill="#000000" font-size="5px" font-weight="bold" font-family="'Helvetica Neue', Helvetica, Arial-Unicode, Arial, Sans-serif">from the Noun Project</text></svg>