<svg xmlns="http://www.w3.org/2000/svg" xmlns:xlink="http://www.w3.org/1999/xlink" version="1.1" x="0px" y="0px" viewBox="0 0 90 62.5" enable-background="new 0 0 90 50" xml:space="preserve"><path d="M64.604,39.228c0,3.598,2.916,6.515,6.512,6.515c3.6,0,6.516-2.917,6.516-6.515c0-3.597-2.916-6.509-6.516-6.509  C67.52,32.719,64.604,35.631,64.604,39.228z M67.721,39.233c0-1.877,1.518-3.4,3.395-3.4s3.398,1.521,3.398,3.4  c0,1.874-1.52,3.397-3.398,3.397C69.238,42.631,67.721,41.105,67.721,39.233z"/><path d="M11.529,39.228c0,3.598,2.916,6.515,6.513,6.515c3.599,0,6.515-2.917,6.515-6.515c0-3.597-2.916-6.509-6.515-6.509  C14.445,32.719,11.529,35.631,11.529,39.228z M14.646,39.233c0-1.877,1.519-3.4,3.396-3.4c1.876,0,3.397,1.521,3.397,3.4  c0,1.874-1.519,3.397-3.397,3.397C16.165,42.631,14.646,41.105,14.646,39.233z"/><path d="M5.081,39.935h5.085c-0.036-0.302-0.092-0.598-0.092-0.906c0-4.333,3.509-7.843,7.841-7.843c4.331,0,7.839,3.51,7.839,7.843  c0,0.309-0.056,0.604-0.092,0.906h37.763c-0.035-0.302-0.092-0.598-0.092-0.906c0-4.333,3.51-7.843,7.84-7.843  c4.332,0,7.842,3.51,7.842,7.843c0,0.309-0.057,0.604-0.092,0.906H85.5c0,0,2.037-16.439-10.789-18.375h-7.533  c0,0-8.346-10.882-23.412-12.09c0,0-33.39-3.869-37.666,12.087C6.1,21.557,3.045,30.506,5.081,39.935z M40.095,13.198H45  c6.953,0.341,17.395,8.874,17.395,8.874H40.095V13.198z"/><text x="0" y="65" fill="#000000" font-size="5px" font-weight="bold" font-family="'Helvetica Neue', Helvetica, Arial-Unicode, Arial, Sans-serif">Created by Jonathan Li</text><text x="0" y="70" fill="#000000" font-size="5px" font-weight="bold" font-family="'Helvetica Neue', Helvetica, Arial-Unicode, Arial, Sans-serif">from the Noun Project</text></svg>