<?xml version="1.0" encoding="UTF-8" standalone="no"?>
<svg
   xmlns:dc="http://purl.org/dc/elements/1.1/"
   xmlns:cc="http://creativecommons.org/ns#"
   xmlns:rdf="http://www.w3.org/1999/02/22-rdf-syntax-ns#"
   xmlns:svg="http://www.w3.org/2000/svg"
   xmlns="http://www.w3.org/2000/svg"
   height="39.264839"
   width="87.957962"
   id="svg14"
   xml:space="preserve"
   enable-background="new 0 0 90 50"
   viewBox="0 0 87.957962 39.264839"
   y="0px"
   x="0px"
   version="1.1"><metadata
     id="metadata20"><rdf:RDF><cc:Work
         rdf:about=""><dc:format>image/svg+xml</dc:format><dc:type
           rdf:resource="http://purl.org/dc/dcmitype/StillImage" /><dc:title></dc:title></cc:Work></rdf:RDF></metadata><defs
     id="defs18" /><g
     transform="translate(-0.99945738,-6.4291607)"
     id="g4"><path
       id="path2"
       d="M 88.762,29.441 C 88.407,21.826 66.418,17.832 66.418,17.832 52.112,8.219 46.792,7.845 46.792,7.845 24.093,4.1 10.26,8.969 10.26,8.969 8.25,9.844 4.585,17.583 4.585,17.583 3.048,19.206 3.284,23.076 3.284,23.076 3.165,27.195 1.038,27.695 1.038,27.695 0.566,35.559 4.585,38.18 4.585,38.18 h 4.04 c 0.005,-4.853 3.94,-8.785 8.794,-8.785 4.854,0 8.789,3.933 8.794,8.785 h 35.321 c 0.006,-4.853 3.94,-8.785 8.795,-8.785 4.855,0 8.789,3.933 8.795,8.785 h 5.705 c 3.459,0.251 3.192,-4.463 3.192,-4.463 1.509,-0.281 0.741,-4.276 0.741,-4.276 z M 59.331,21.583 15.793,19.243 C 12.159,17.464 13.312,14 13.312,14 c 0,-6.085 23.497,-4.026 23.497,-4.026 11.438,0.187 21.636,7.209 21.636,7.209 8.334,4.962 0.886,4.4 0.886,4.4 z" /></g><path
     id="path6"
     d="m 69.438543,24.256839 c -4.145,0 -7.504,3.36 -7.504,7.504 0,4.144 3.359,7.504001 7.504,7.504001 4.145,0 7.504,-3.360001 7.504,-7.504001 0,-4.144 -3.36,-7.504 -7.504,-7.504 z m 0,10.897 c -1.875,0 -3.395,-1.52 -3.395,-3.394 0,-1.874 1.52,-3.394 3.395,-3.394 1.875,0 3.395,1.52 3.395,3.394 0,1.874 -1.521,3.394 -3.395,3.394 z" /><path
     id="path8"
     d="m 16.438543,24.256839 c -4.145,0 -7.5040004,3.36 -7.5040004,7.504 0,4.144 3.3590004,7.504001 7.5040004,7.504001 4.145,0 7.504,-3.360001 7.504,-7.504001 0,-4.144 -3.36,-7.504 -7.504,-7.504 z m 0,10.897 c -1.875,0 -3.394,-1.52 -3.394,-3.394 0,-1.874 1.52,-3.394 3.394,-3.394 1.874,0 3.394,1.52 3.394,3.394 0,1.874 -1.52,3.394 -3.394,3.394 z" /><text
     style="font-weight:bold;font-size:5px;font-family:'Helvetica Neue', Helvetica, Arial-Unicode, Arial, Sans-serif;fill:#000000"
     id="text10"
     font-weight="bold"
     font-size="5px"
     y="65"
     x="4.7133049e-009">Created by Jonathan Li</text>
<text
     style="font-weight:bold;font-size:5px;font-family:'Helvetica Neue', Helvetica, Arial-Unicode, Arial, Sans-serif;fill:#000000"
     id="text12"
     font-weight="bold"
     font-size="5px"
     y="70"
     x="4.7133049e-009">from the Noun Project</text>
</svg>