<svg xmlns="http://www.w3.org/2000/svg" xmlns:xlink="http://www.w3.org/1999/xlink" version="1.1" x="0px" y="0px" viewBox="0 0 90 62.5" enable-background="new 0 0 90 50" xml:space="preserve"><path d="M19.629,33.446c-3.507,0-6.35,2.838-6.35,6.348c0,3.504,2.842,6.347,6.35,6.347c3.505,0,6.349-2.843,6.349-6.347  C25.977,36.284,23.135,33.446,19.629,33.446z M19.629,43.107c-1.831,0-3.313-1.483-3.313-3.313c0-1.831,1.482-3.314,3.313-3.314  c1.83,0,3.31,1.483,3.31,3.314C22.939,41.622,21.458,43.107,19.629,43.107z"/><path d="M18.401,8.405h40.077c0,0-0.916-2.572-4.046-2.572H22.523C22.523,5.833,18.401,6.261,18.401,8.405z"/><path d="M70.938,33.446c-3.509,0-6.351,2.838-6.351,6.348c0,3.504,2.842,6.347,6.351,6.347c3.505,0,6.347-2.843,6.347-6.347  C77.285,36.284,74.443,33.446,70.938,33.446z M70.938,43.107c-1.831,0-3.314-1.483-3.314-3.313c0-1.831,1.483-3.314,3.314-3.314  c1.829,0,3.31,1.483,3.31,3.314C74.248,41.622,72.767,43.107,70.938,43.107z"/><path d="M82.296,22.032l-16.464-3.256c-2.544-4.572-7.228-9.6-7.228-9.6H18.298l-7.022,9.257c-5.396,6.971-5.09,13.713-5.09,13.713  c0.562,6.183,4.969,7.238,6.541,7.419c0.021-3.803,3.109-6.88,6.917-6.88c3.821,0,6.919,3.098,6.919,6.918h37.433  c0-3.82,3.099-6.918,6.92-6.918s6.919,3.098,6.919,6.918h2.552c4.276-0.515,4.047-10.972,4.047-10.972  C84.739,22.204,82.296,22.032,82.296,22.032z M37.062,19.566c0,0-0.086,1.151-2.083,1.151H17.457c0,0-2.863-0.329-0.955-3.618  l2.255-3.947c0,0,1.041-1.645,3.557-1.809h12.059c0,0,2.603-0.082,2.689,3.29V19.566z M42.969,25.604h-2.245  c-0.219,0-0.396-0.178-0.396-0.396s0.178-0.396,0.396-0.396h2.245c0.219,0,0.396,0.177,0.396,0.396S43.188,25.604,42.969,25.604z   M38.624,20.718v-7.319c0,0,0-1.974,2.689-2.056h14.228c0,0,0.953-0.247,2.342,1.645l5.379,7.73H38.624z M81.583,29.084  c-0.553,0-1-1.051-1-2.347c0-1.296,0.447-2.347,1-2.347s1,1.051,1,2.347C82.583,28.033,82.136,29.084,81.583,29.084z"/><text x="0" y="65" fill="#000000" font-size="5px" font-weight="bold" font-family="'Helvetica Neue', Helvetica, Arial-Unicode, Arial, Sans-serif">Created by Jonathan Li</text><text x="0" y="70" fill="#000000" font-size="5px" font-weight="bold" font-family="'Helvetica Neue', Helvetica, Arial-Unicode, Arial, Sans-serif">from the Noun Project</text></svg>