<?xml version="1.0" encoding="UTF-8" standalone="no"?>
<svg
   xmlns:dc="http://purl.org/dc/elements/1.1/"
   xmlns:cc="http://creativecommons.org/ns#"
   xmlns:rdf="http://www.w3.org/1999/02/22-rdf-syntax-ns#"
   xmlns:svg="http://www.w3.org/2000/svg"
   xmlns="http://www.w3.org/2000/svg"
   height="35.022957"
   width="82.166756"
   id="svg12"
   xml:space="preserve"
   enable-background="new 0 0 90 50"
   viewBox="0 0 82.166756 35.022957"
   y="0px"
   x="0px"
   version="1.1"><metadata
     id="metadata18"><rdf:RDF><cc:Work
         rdf:about=""><dc:format>image/svg+xml</dc:format><dc:type
           rdf:resource="http://purl.org/dc/dcmitype/StillImage" /><dc:title></dc:title></cc:Work></rdf:RDF></metadata><defs
     id="defs16" /><path
     id="path2"
     d="M 26.136719 0.001953125 C 24.316234 0.03321875 20.316156 0.43920315 17.441406 3.1894531 C 17.441406 3.1894531 11.191422 9.0807499 9.8574219 11.96875 C 9.8574219 11.96875 3.1914064 16.689453 2.1914062 22.689453 C 2.1914062 22.689453 0.1894375 23.271469 0.0234375 24.355469 C 0.0224375 24.355469 -0.3935625 25.773453 2.2734375 25.939453 C 2.2734375 25.939453 3.7714687 28.357437 5.3554688 28.523438 L 8.5566406 28.523438 C 8.5166406 28.192438 8.4882812 27.857625 8.4882812 27.515625 C 8.4882812 22.958625 12.182281 19.265625 16.738281 19.265625 C 21.294281 19.265625 24.988281 22.958625 24.988281 27.515625 C 24.988281 27.857625 24.961875 28.192438 24.921875 28.523438 L 60.863281 28.523438 C 60.823281 28.192438 60.796875 27.857625 60.796875 27.515625 C 60.796875 22.958625 64.490875 19.265625 69.046875 19.265625 C 73.602875 19.265625 77.296875 22.958625 77.296875 27.515625 C 77.296875 27.857625 77.268516 28.192438 77.228516 28.523438 L 77.607422 28.523438 C 77.607422 28.523438 79.775422 28.439453 79.857422 26.189453 C 79.857422 26.189453 82.107422 26.439438 82.107422 25.023438 C 82.107422 25.023438 82.607406 23.356453 80.691406 23.189453 C 80.691406 23.189453 81.273422 17.939437 78.357422 15.023438 C 78.357422 15.023438 75.440422 11.107437 61.607422 10.523438 C 61.607422 10.523438 54.689438 2.0224531 53.523438 1.4394531 C 53.523438 1.4394531 51.857422 0.1904375 50.357422 0.0234375 L 27.107422 0.0234375 C 27.107422 0.0234375 26.743547 -0.00846875 26.136719 0.001953125 z M 47.960938 2.7226562 C 49.648938 2.7226562 51.210938 4.5234375 51.210938 4.5234375 L 54.335938 8.4609375 C 56.773938 11.522938 53.210938 11.273436 53.210938 11.273438 L 36.648438 11.273438 C 34.898438 11.273438 34.273438 9.8339844 34.273438 9.8339844 L 34.273438 4.8339844 C 34.398438 2.2089844 37.210937 2.7734375 37.210938 2.7734375 L 47.960938 2.7226562 z M 69.044922 20.621094 C 65.119922 20.621094 61.9375 23.798516 61.9375 27.728516 C 61.9375 31.652516 65.119922 34.833984 69.044922 34.833984 C 72.972922 34.833984 76.152344 31.651516 76.152344 27.728516 C 76.152344 23.798516 72.971922 20.621094 69.044922 20.621094 z M 16.777344 20.808594 C 12.852344 20.807594 9.6699219 23.986016 9.6699219 27.916016 C 9.6699219 31.840016 12.852344 35.023437 16.777344 35.023438 C 20.705344 35.023438 23.886719 31.839016 23.886719 27.916016 C 23.886719 23.986016 20.704344 20.808594 16.777344 20.808594 z " /><text
     style="font-weight:bold;font-size:5px;font-family:'Helvetica Neue', Helvetica, Arial-Unicode, Arial, Sans-serif;fill:#000000"
     id="text8"
     font-weight="bold"
     font-size="5px"
     y="65"
     x="1.6694377e-009">Created by Jonathan Li</text>
<text
     style="font-weight:bold;font-size:5px;font-family:'Helvetica Neue', Helvetica, Arial-Unicode, Arial, Sans-serif;fill:#000000"
     id="text10"
     font-weight="bold"
     font-size="5px"
     y="70"
     x="1.6694377e-009">from the Noun Project</text>
</svg>