<?xml version="1.0" encoding="UTF-8" standalone="no"?>
<svg
   xmlns:dc="http://purl.org/dc/elements/1.1/"
   xmlns:cc="http://creativecommons.org/ns#"
   xmlns:rdf="http://www.w3.org/1999/02/22-rdf-syntax-ns#"
   xmlns:svg="http://www.w3.org/2000/svg"
   xmlns="http://www.w3.org/2000/svg"
   height="35.022957"
   width="82.166756"
   id="svg12"
   xml:space="preserve"
   enable-background="new 0 0 90 50"
   viewBox="0 0 82.166756 35.022957"
   y="0px"
   x="0px"
   version="1.1"><metadata
     id="metadata18"><rdf:RDF><cc:Work
         rdf:about=""><dc:format>image/svg+xml</dc:format><dc:type
           rdf:resource="http://purl.org/dc/dcmitype/StillImage" /><dc:title></dc:title></cc:Work></rdf:RDF></metadata><defs
     id="defs16" /><path
     id="path2"
     d="m 61.937222,27.728956 c 0,3.924 3.182,7.106 7.107,7.106 3.928,0 7.109,-3.183 7.109,-7.106 0,-3.93 -3.182,-7.108 -7.109,-7.108 -3.925,0 -7.107,3.178 -7.107,7.108 z m 3.4,0 c 0,-2.05 1.657,-3.71 3.707,-3.71 2.049,0 3.709,1.66 3.709,3.71 0,2.049 -1.66,3.71 -3.709,3.71 -2.049,0 -3.707,-1.663 -3.707,-3.71 z" /><path
     id="path4"
     d="m 9.6702223,27.916956 c 0,3.924 3.1819997,7.106 7.1069997,7.106 3.928,0 7.11,-3.183 7.11,-7.106 0,-3.93 -3.183,-7.108 -7.11,-7.108 -3.925,-10e-4 -7.1069997,3.178 -7.1069997,7.108 z m 3.4009997,0 c 0,-2.05 1.657,-3.71 3.707,-3.71 2.049,0 3.71,1.66 3.71,3.71 0,2.049 -1.661,3.71 -3.71,3.71 -2.05,0 -3.707,-1.664 -3.707,-3.71 z" /><path
     id="path6"
     d="m 2.2732223,25.939956 c 0,0 1.499,2.417 3.083,2.583 h 3.2 c -0.04,-0.331 -0.067,-0.666 -0.067,-1.008 0,-4.557 3.6939997,-8.25 8.2499997,-8.25 4.556,0 8.25,3.693 8.25,8.25 0,0.342 -0.027,0.677 -0.067,1.008 h 35.941 c -0.04,-0.331 -0.067,-0.666 -0.067,-1.008 0,-4.557 3.694,-8.25 8.25,-8.25 4.556,0 8.25,3.693 8.25,8.25 0,0.342 -0.027,0.677 -0.067,1.008 h 0.379 c 0,0 2.168,-0.083 2.25,-2.333 0,0 2.25,0.249 2.25,-1.167 0,0 0.499,-1.666 -1.417,-1.833 0,0 0.583,-5.251 -2.333,-8.167 0,0 -2.917,-3.916 -16.75,-4.5 0,0 -6.918,-8.5000001 -8.084,-9.0830001 0,0 -1.666,-1.25 -3.166,-1.417 h -23.25 c 0,0 -5.834,-0.5 -9.667,3.167 0,0 -6.249,5.89 -7.5829997,8.7780001 0,0 -6.667,4.722 -7.667,10.722 0,0 -2.001,0.582 -2.167,1.666 -10e-4,0 -0.418,1.418 2.249,1.584 z m 33.6669997,-9.792 c 0,-0.299 0.242,-0.541 0.542,-0.541 h 2.5 c 0.299,0 0.541,0.242 0.541,0.541 0,0.3 -0.242,0.542 -0.541,0.542 h -2.5 c -0.3,0 -0.542,-0.242 -0.542,-0.542 z m -1.667,-11.3130001 c 0.125,-2.625 2.938,-2.062 2.938,-2.062 l 10.75,-0.051 c 1.688,0 3.25,1.801 3.25,1.801 l 3.125,3.938 c 2.438,3.0620001 -1.125,2.8120001 -1.125,2.8120001 h -16.563 c -1.75,0 -2.375,-1.4380001 -2.375,-1.4380001 z m -16.125,4.126 c 3.688,-7.188 12.375,-6.238 12.375,-6.238 1.188,0.074 1.375,1.113 1.375,1.113 v 5.938 c -0.125,1.7500001 -1.375,1.5050001 -1.375,1.5050001 h -10.313 c -3.187,-0.496 -2.062,-2.3180001 -2.062,-2.3180001 z" /><text
     style="font-weight:bold;font-size:5px;font-family:'Helvetica Neue', Helvetica, Arial-Unicode, Arial, Sans-serif;fill:#000000"
     id="text8"
     font-weight="bold"
     font-size="5px"
     y="65"
     x="1.6694377e-009">Created by Jonathan Li</text>
<text
     style="font-weight:bold;font-size:5px;font-family:'Helvetica Neue', Helvetica, Arial-Unicode, Arial, Sans-serif;fill:#000000"
     id="text10"
     font-weight="bold"
     font-size="5px"
     y="70"
     x="1.6694377e-009">from the Noun Project</text>
</svg>