<svg xmlns="http://www.w3.org/2000/svg" xmlns:xlink="http://www.w3.org/1999/xlink" version="1.1" x="0px" y="0px" viewBox="0 0 90 62.5" enable-background="new 0 0 90 50" xml:space="preserve"><path d="M65.795,37.706c0,3.924,3.182,7.106,7.107,7.106c3.928,0,7.109-3.183,7.109-7.106c0-3.93-3.182-7.108-7.109-7.108  C68.977,30.598,65.795,33.776,65.795,37.706z M69.195,37.706c0-2.05,1.657-3.71,3.707-3.71c2.049,0,3.709,1.66,3.709,3.71  c0,2.049-1.66,3.71-3.709,3.71C70.853,41.416,69.195,39.753,69.195,37.706z"/><path d="M13.528,37.894c0,3.924,3.182,7.106,7.107,7.106c3.928,0,7.11-3.183,7.11-7.106c0-3.93-3.183-7.108-7.11-7.108  C16.71,30.785,13.528,33.964,13.528,37.894z M16.929,37.894c0-2.05,1.657-3.71,3.707-3.71c2.049,0,3.71,1.66,3.71,3.71  c0,2.049-1.661,3.71-3.71,3.71C18.586,41.604,16.929,39.94,16.929,37.894z"/><path d="M6.131,35.917c0,0,1.499,2.417,3.083,2.583h3.2c-0.04-0.331-0.067-0.666-0.067-1.008c0-4.557,3.694-8.25,8.25-8.25  s8.25,3.693,8.25,8.25c0,0.342-0.027,0.677-0.067,1.008h35.941c-0.04-0.331-0.067-0.666-0.067-1.008c0-4.557,3.694-8.25,8.25-8.25  s8.25,3.693,8.25,8.25c0,0.342-0.027,0.677-0.067,1.008h0.379c0,0,2.168-0.083,2.25-2.333c0,0,2.25,0.249,2.25-1.167  c0,0,0.499-1.666-1.417-1.833c0,0,0.583-5.251-2.333-8.167c0,0-2.917-3.916-16.75-4.5c0,0-6.918-8.5-8.084-9.083  c0,0-1.666-1.25-3.166-1.417h-23.25c0,0-5.834-0.5-9.667,3.167c0,0-6.249,5.89-7.583,8.778c0,0-6.667,4.722-7.667,10.722  c0,0-2.001,0.582-2.167,1.666C3.881,34.333,3.464,35.751,6.131,35.917z M39.798,26.125c0-0.299,0.242-0.541,0.542-0.541h2.5  c0.299,0,0.541,0.242,0.541,0.541c0,0.3-0.242,0.542-0.541,0.542h-2.5C40.04,26.667,39.798,26.425,39.798,26.125z M38.131,14.812  c0.125-2.625,2.938-2.062,2.938-2.062l10.75-0.051c1.688,0,3.25,1.801,3.25,1.801l3.125,3.938c2.438,3.062-1.125,2.812-1.125,2.812  H40.506c-1.75,0-2.375-1.438-2.375-1.438V14.812z M22.006,18.938c3.688-7.188,12.375-6.238,12.375-6.238  c1.188,0.074,1.375,1.113,1.375,1.113v5.938c-0.125,1.75-1.375,1.505-1.375,1.505H24.068C20.881,20.76,22.006,18.938,22.006,18.938z  "/><text x="0" y="65" fill="#000000" font-size="5px" font-weight="bold" font-family="'Helvetica Neue', Helvetica, Arial-Unicode, Arial, Sans-serif">Created by Jonathan Li</text><text x="0" y="70" fill="#000000" font-size="5px" font-weight="bold" font-family="'Helvetica Neue', Helvetica, Arial-Unicode, Arial, Sans-serif">from the Noun Project</text></svg>