<svg xmlns="http://www.w3.org/2000/svg" xmlns:xlink="http://www.w3.org/1999/xlink" version="1.1" x="0px" y="0px" viewBox="0 0 100 125" enable-background="new 0 0 100 100" xml:space="preserve"><g><path d="M32.133,36.017H13.397l-6.341,9.951v13.836H5.004v4.453h2.053h0.35h4.054c-0.001-0.031-0.005-0.061-0.005-0.092   c0-3.922,3.19-7.113,7.113-7.113s7.114,3.191,7.114,7.113c0,0.031-0.004,0.061-0.005,0.092h6.455V36.017z M21.492,46.382h-0.024   v0.02H10.359v-0.424h0.048l4.771-7.488v-0.139h5.89v-0.004h0.424V46.382z"/></g><path d="M67.973,70.932c-3.205,0-5.811-2.605-5.811-5.811c0-3.203,2.605-5.809,5.811-5.809c3.204,0,5.81,2.605,5.81,5.809  C73.782,68.326,71.177,70.932,67.973,70.932z M67.973,61.797c-1.834,0-3.325,1.492-3.325,3.324c0,1.834,1.491,3.326,3.325,3.326  c1.833,0,3.324-1.492,3.324-3.326C71.297,63.289,69.806,61.797,67.973,61.797z"/><path d="M18.567,70.066c-3.203,0-5.81-2.605-5.81-5.809s2.606-5.811,5.81-5.811c3.204,0,5.811,2.607,5.811,5.811  S21.771,70.066,18.567,70.066z M18.567,60.932c-1.833,0-3.324,1.492-3.324,3.326s1.491,3.324,3.324,3.324  c1.834,0,3.326-1.49,3.326-3.324S20.401,60.932,18.567,60.932z"/><g><path d="M66.325,29.069H33.834v36.052h26.981c0.229-3.717,3.317-6.674,7.092-6.674s6.863,2.957,7.092,6.674h10.445"/></g><path d="M94.996,57.264c0-1.955-0.717-3.738-1.897-5.113h0.003L75.439,32.25l0,0c-1.432-1.927-3.719-3.181-6.304-3.181  c-0.265,0-0.525,0.015-0.783,0.04l19.099,36.012l-0.008-0.014C91.641,64.943,94.996,61.5,94.996,57.264z"/><text x="0" y="115" fill="#000000" font-size="5px" font-weight="bold" font-family="'Helvetica Neue', Helvetica, Arial-Unicode, Arial, Sans-serif">Created by Rob Armes</text><text x="0" y="120" fill="#000000" font-size="5px" font-weight="bold" font-family="'Helvetica Neue', Helvetica, Arial-Unicode, Arial, Sans-serif">from the Noun Project</text></svg>