<?xml version="1.0" encoding="iso-8859-1"?>
<!-- Generator: Adobe Illustrator 18.0.0, SVG Export Plug-In . SVG Version: 6.00 Build 0)  -->
<!DOCTYPE svg PUBLIC "-//W3C//DTD SVG 1.1//EN" "http://www.w3.org/Graphics/SVG/1.1/DTD/svg11.dtd">
<svg version="1.1" id="Capa_1" xmlns="http://www.w3.org/2000/svg" xmlns:xlink="http://www.w3.org/1999/xlink" x="0px" y="0px"
	 viewBox="0 0 444.111 444.111" style="enable-background:new 0 0 444.111 444.111;" xml:space="preserve">
<g>
	<path d="M237.598,327.53c-5.549-3.204-15.284,0.668-23.14,14.275h0c-7.855,13.606-6.345,23.971-0.792,27.177
		c0.938,0.541,2.37,1.106,4.264,1.106c2.209,0,5.045-0.769,8.454-3.24c3.784-2.742,7.485-7.054,10.422-12.141
		c2.938-5.087,4.82-10.448,5.304-15.096C242.917,331.833,239.629,328.704,237.598,327.53z M234.152,338.784
		c-0.364,3.503-1.922,7.849-4.274,11.923s-5.337,7.597-8.188,9.664c-2.511,1.82-3.874,1.768-4.023,1.683
		c-1.057-0.61-1.42-7.345,3.72-16.249c5.141-8.905,11.158-11.957,12.212-11.346C233.746,334.544,234.472,335.702,234.152,338.784z"
		/>
	<path d="M404.265,230.634c-2.031-1.174-6.387-2.456-12.718,2.133c-3.784,2.742-7.485,7.054-10.422,12.141
		c-2.938,5.086-4.821,10.448-5.304,15.096c-0.809,7.778,2.479,10.908,4.511,12.081c0.938,0.542,2.37,1.106,4.264,1.106
		c2.209,0,5.045-0.769,8.454-3.24c3.784-2.742,7.485-7.054,10.422-12.141c2.938-5.086,4.821-10.448,5.304-15.096
		C409.584,234.936,406.296,231.807,404.265,230.634z M400.819,241.888c-0.363,3.502-1.922,7.848-4.274,11.923
		s-5.337,7.597-8.188,9.664c-2.509,1.818-3.875,1.766-4.023,1.683c-0.147-0.085-0.874-1.244-0.554-4.326
		c0.363-3.502,1.922-7.848,4.274-11.922c0,0,0,0,0,0c2.353-4.075,5.337-7.597,8.188-9.664c2.015-1.459,3.292-1.715,3.794-1.715
		c0.124,0,0.2,0.015,0.229,0.032C400.413,237.647,401.139,238.805,400.819,241.888z"/>
	<polygon points="15.017,289.059 36.017,301.279 36.017,289.709 15.017,277.489 	"/>
	<polygon points="108.017,332.489 108.017,344.059 129.017,356.279 129.017,344.709 	"/>
	<path d="M442.957,162.511l-37.96-38.423c-0.329-0.396-0.732-0.729-1.188-0.974c-0.215-0.116-135.543-78.621-135.543-78.621
		c-1.237-0.719-2.763-0.722-4.004-0.008L114.98,130.388c-0.775,0.446-1.378,1.139-1.713,1.968l-25.192,62.313L1.289,256.668
		C0.467,257.425,0,258.491,0,259.609v58.01c0,1.429,0.763,2.75,2,3.464l136.05,78.54c0.619,0.357,1.31,0.536,2,0.536
		s2.32-0.547,2.32-0.547l47.467-27.772c1.58,8.166,5.65,14.44,11.794,17.987c3.47,2.004,7.361,3.001,11.508,3.001
		c4.979,0,10.328-1.439,15.753-4.303c9.341-4.931,17.926-13.606,24.174-24.429c6.715-11.631,9.702-23.735,9.101-34.049
		l94.441-54.619c1.646,7.928,5.67,14.027,11.69,17.502c3.47,2.004,7.36,3.001,11.508,3.001c4.979,0,10.328-1.439,15.753-4.303
		c9.341-4.931,17.926-13.606,24.174-24.429c6.652-11.523,9.642-23.508,9.112-33.759l13.229-7.449
		c1.259-0.708,2.037-2.041,2.037-3.485v-57.183C444.111,164.27,443.696,163.26,442.957,162.511z M255.848,215.521l61.933-35.724
		v39.354l-82.752,47.862L255.848,215.521z M325.781,175.182l61.53-35.492l9.066,34.003l-70.596,40.831V175.182z M403.551,169.544
		l-9.064-33.993l6.745-3.891l24.661,24.962L403.551,169.544z M266.247,52.572l127.598,74.114l-141.242,81.471L124.448,134.17
		L266.247,52.572z M118.757,140.121l128.866,74.401l-22.499,55.645L96.289,195.695L118.757,140.121z M91.411,202.116l128.435,74.242
		l-80.017,57.046L11.749,258.917L91.411,202.116z M189.11,362.996L144.05,389.36v-12.017l46.822-27.082
		C189.778,354.578,189.179,358.864,189.11,362.996z M119.447,368.094v11.553L24.36,324.754v-11.959L119.447,368.094z M8,294.026
		v-28.034l128.05,74.468v28.034L8,294.026z M8,303.28l8.36,4.862v11.994L8,315.31V303.28z M127.447,384.265v-11.519l8.603,5.003
		v11.482L127.447,384.265z M246.138,360.096c-5.505,9.534-12.956,17.118-20.981,21.354c-7.423,3.918-14.357,4.433-19.526,1.448
		c-5.169-2.984-8.19-9.247-8.508-17.634c-0.344-9.068,2.499-19.313,8.003-28.848h0c5.504-9.535,12.956-17.119,20.98-21.354
		c4.239-2.238,8.318-3.365,12-3.365c2.767,0,5.31,0.637,7.526,1.917C256.748,320.031,256.979,341.317,246.138,360.096z
		 M412.805,263.199c-5.505,9.534-12.956,17.118-20.98,21.354c-7.424,3.918-14.358,4.433-19.526,1.448
		c-5.169-2.984-8.19-9.247-8.509-17.634c-0.344-9.068,2.498-19.313,8.003-28.848s12.956-17.119,20.98-21.355
		c4.239-2.237,8.318-3.365,12.001-3.365c2.766,0,5.309,0.636,7.525,1.917C423.415,223.134,423.646,244.42,412.805,263.199z
		 M436.111,220.167l-8.616,4.852c-1.879-6.641-5.621-12.011-11.196-15.23c-7.636-4.409-17.317-3.946-27.261,1.302
		c-9.341,4.931-17.926,13.607-24.174,24.43c-5.858,10.146-9.055,21.126-9.102,31.155l-95.018,54.953
		c-1.905-6.508-5.619-11.77-11.113-14.941c-7.636-4.41-17.317-3.946-27.261,1.301c-9.34,4.931-17.926,13.607-24.174,24.43
		c-1.181,2.045-2.253,4.124-3.213,6.222L144.05,368.1v-27.881l85.054-60.637l202.599-117.079l4.407,4.461V220.167z"/>
</g>
<g>
</g>
<g>
</g>
<g>
</g>
<g>
</g>
<g>
</g>
<g>
</g>
<g>
</g>
<g>
</g>
<g>
</g>
<g>
</g>
<g>
</g>
<g>
</g>
<g>
</g>
<g>
</g>
<g>
</g>
</svg>
