<?xml version="1.0" encoding="UTF-8" standalone="no"?>
<svg
   xmlns:dc="http://purl.org/dc/elements/1.1/"
   xmlns:cc="http://creativecommons.org/ns#"
   xmlns:rdf="http://www.w3.org/1999/02/22-rdf-syntax-ns#"
   xmlns:svg="http://www.w3.org/2000/svg"
   xmlns="http://www.w3.org/2000/svg"
   height="124.42883"
   width="57.318253"
   version="1.1"
   x="0px"
   y="0px"
   viewBox="0 0 57.318253 124.42883"
   id="svg3711">
  <metadata
     id="metadata3717">
    <rdf:RDF>
      <cc:Work
         rdf:about="">
        <dc:format>image/svg+xml</dc:format>
        <dc:type
           rdf:resource="http://purl.org/dc/dcmitype/StillImage" />
        <dc:title></dc:title>
      </cc:Work>
    </rdf:RDF>
  </metadata>
  <defs
     id="defs3715" />
  <path
     style="stroke-width:1.4074502"
     d="M 28.485614,0 C 28.235182,0 28.066973,0.4033169 28.066973,0.4033169 L 7.5735957,55.631311 c 0,0 -0.44565,0.821173 -0.09967,1.273635 0.34235,0.447715 1.284397,0.30249 1.284397,0.30249 H 10.871454 L 3.7659817,76.35972 c 0,0 -0.525686,0.972359 -0.116765,1.507136 0.404631,0.529163 1.517923,0.355556 1.517923,0.355556 h 2.617206 L 0.31149672,98.361768 c 0,0 -0.600605,1.10633 -0.133851,1.716742 0.461862,0.60401 1.73436098,0.40597 1.73436098,0.40597 H 22.462339 v 23.94434 h 12.012378 v -23.94434 h 21.988516 c 0,0 0.533832,0.0357 0.751842,-0.24942 0.218012,-0.285106 0.02279,-0.732332 0.02279,-0.732332 L 49.323584,78.222412 h 3.633902 c 0,0 0.469712,0.02954 0.660709,-0.220234 0.190997,-0.249778 0.01993,-0.63947 0.01993,-0.63947 L 46.142498,57.207436 h 3.052932 c 0,0 0.396587,0.02559 0.558184,-0.18574 0.1616,-0.211332 0.01424,-0.541293 0.01424,-0.541295 L 28.92134,0.4245447 c 0,0 -0.18478,-0.4245458999975 -0.435726,-0.4245447 z"
     id="path3699" />
  <text
     style="font-weight:bold;font-size:5px;font-family:'Helvetica Neue', Helvetica, Arial-Unicode, Arial, Sans-serif;fill:#000000"
     x="-1.7731595e-009"
     y="114.71442"
     font-size="5px"
     font-weight="bold"
     id="text3707">Created by Bintang Anandhiya</text>
  <text
     style="font-weight:bold;font-size:5px;font-family:'Helvetica Neue', Helvetica, Arial-Unicode, Arial, Sans-serif;fill:#000000"
     x="-1.7731595e-009"
     y="119.71442"
     font-size="5px"
     font-weight="bold"
     id="text3709">from the Noun Project</text>
</svg>
