<?xml version="1.0" encoding="UTF-8" standalone="no"?>
<svg
   xmlns:dc="http://purl.org/dc/elements/1.1/"
   xmlns:cc="http://creativecommons.org/ns#"
   xmlns:rdf="http://www.w3.org/1999/02/22-rdf-syntax-ns#"
   xmlns:svg="http://www.w3.org/2000/svg"
   xmlns="http://www.w3.org/2000/svg"
   height="125.00069"
   width="71.885773"
   version="1.1"
   x="0px"
   y="0px"
   viewBox="0 0 71.885773 125.00069"
   id="svg3738">
  <metadata
     id="metadata3744">
    <rdf:RDF>
      <cc:Work
         rdf:about="">
        <dc:format>image/svg+xml</dc:format>
        <dc:type
           rdf:resource="http://purl.org/dc/dcmitype/StillImage" />
        <dc:title></dc:title>
      </cc:Work>
    </rdf:RDF>
  </metadata>
  <defs
     id="defs3742" />
  <path
     d="M 35.839544,0 C 35.525182,0 35.310829,0.4253405 35.310829,0.4253405 L 9.5896075,58.504761 c 0,0 -0.559337,0.8643 -0.125035,1.340116 0.429743,0.470824 1.6111475,0.31755 1.6111475,0.31755 h 4.494069 L 0.39069648,96.348447 c 0,0 -0.753291,1.231016 -0.167908,1.908207 0.579263,0.670083 2.17201402,0.45156 2.17201402,0.45156 H 28.16961 V 125.0007 H 43.23796 V 98.708214 h 27.575292 c 0,0 0.669684,0.03662 0.943111,-0.279676 0.273429,-0.316297 0.02859,-0.809895 0.02859,-0.809895 L 56.037846,60.162427 h 5.79442 c 0,0 0.500915,0.02413 0.703762,-0.198105 0.202852,-0.222242 0.01793,-0.568092 0.01793,-0.568092 L 36.386119,0.44573374 C 36.386119,0.44573374 36.154547,0 35.839544,0 Z"
     id="path3728"
     style="stroke-width:1.65173984" />
  <text
     style="font-weight:bold;font-size:5px;font-family:'Helvetica Neue', Helvetica, Arial-Unicode, Arial, Sans-serif;fill:#000000"
     x="4.9614607e-010"
     y="115.00034"
     font-size="5px"
     font-weight="bold"
     id="text3734">Created by Bintang Anandhiya</text>
  <text
     style="font-weight:bold;font-size:5px;font-family:'Helvetica Neue', Helvetica, Arial-Unicode, Arial, Sans-serif;fill:#000000"
     x="4.9614607e-010"
     y="120.00034"
     font-size="5px"
     font-weight="bold"
     id="text3736">from the Noun Project</text>
</svg>
