<svg xmlns:dc="http://purl.org/dc/elements/1.1/" xmlns:cc="http://creativecommons.org/ns#" xmlns:rdf="http://www.w3.org/1999/02/22-rdf-syntax-ns#" xmlns:svg="http://www.w3.org/2000/svg" xmlns="http://www.w3.org/2000/svg" xmlns:sodipodi="http://sodipodi.sourceforge.net/DTD/sodipodi-0.dtd" xmlns:inkscape="http://www.inkscape.org/namespaces/inkscape" version="1.1" x="0px" y="0px" viewBox="0 0 100 125"><path style="" d="m 49.973533,17.306637 c -0.231668,0 -0.387765,0.405157 -0.387765,0.405157 l -18.957136,55.41592 c 0,0 -0.411208,0.823842 -0.09116,1.277843 0.316699,0.449236 1.188049,0.302747 1.188049,0.302747 l 37.405248,0 c 0,0 0.366841,0.02474 0.516331,-0.187315 0.149491,-0.212051 0.01502,-0.543084 0.01502,-0.543084 L 50.377241,17.731983 c 0,0 -0.171565,-0.425347 -0.403708,-0.425346 z" fill="#000000" fill-opacity="1" stroke="#000000" stroke-width="1.30664945" stroke-linecap="round" stroke-linejoin="round" stroke-miterlimit="13.80000019" stroke-opacity="1" stroke-dasharray="none"/><rect style="" width="8.2395916" height="32.658745" x="45.815609" y="59.676598" fill="#000000" fill-opacity="1" stroke="none"/><path style="" d="m 50.009226,8.533981 c -0.17187,0 -0.287675,0.284678 -0.287675,0.284678 L 35.657687,47.755776 c 0,0 -0.305066,0.578861 -0.06762,0.897857 0.234952,0.315649 0.881386,0.21272 0.881386,0.21272 l 27.750098,0 c 0,0 0.272151,0.01738 0.383053,-0.131613 0.110905,-0.148995 0.01115,-0.38159 0.01115,-0.38159 L 50.308727,8.832844 c 0,0 -0.12728,-0.298863 -0.299501,-0.298863 z" fill="#000000" fill-opacity="1" stroke="#000000" stroke-width="0.94338661" stroke-linecap="round" stroke-linejoin="round" stroke-miterlimit="13.80000019" stroke-opacity="1" stroke-dasharray="none"/><text x="0" y="115" fill="#000000" font-size="5px" font-weight="bold" font-family="'Helvetica Neue', Helvetica, Arial-Unicode, Arial, Sans-serif">Created by Bintang Anandhiya</text><text x="0" y="120" fill="#000000" font-size="5px" font-weight="bold" font-family="'Helvetica Neue', Helvetica, Arial-Unicode, Arial, Sans-serif">from the Noun Project</text></svg>