<?xml version="1.0" encoding="UTF-8" standalone="no"?>
<svg
   xmlns:dc="http://purl.org/dc/elements/1.1/"
   xmlns:cc="http://creativecommons.org/ns#"
   xmlns:rdf="http://www.w3.org/1999/02/22-rdf-syntax-ns#"
   xmlns:svg="http://www.w3.org/2000/svg"
   xmlns="http://www.w3.org/2000/svg"
   id="svg3711"
   viewBox="0 0 100 125"
   y="0px"
   x="0px"
   version="1.1">
  <metadata
     id="metadata3717">
    <rdf:RDF>
      <cc:Work
         rdf:about="">
        <dc:format>image/svg+xml</dc:format>
        <dc:type
           rdf:resource="http://purl.org/dc/dcmitype/StillImage" />
        <dc:title></dc:title>
      </cc:Work>
    </rdf:RDF>
  </metadata>
  <defs
     id="defs3715" />
  <path
     id="path3699"
     d="m 49.826488,0.28558585 c -0.250432,0 -0.418641,0.4033169 -0.418641,0.4033169 L 28.91447,55.916897 c 0,0 -0.44565,0.821173 -0.09967,1.273635 0.34235,0.447715 1.284397,0.30249 1.284397,0.30249 h 2.113131 l -7.105472,19.152284 c 0,0 -0.525686,0.972359 -0.116765,1.507136 0.404631,0.529163 1.517923,0.355556 1.517923,0.355556 h 2.617206 l -7.472849,20.139356 c 0,0 -0.600605,1.10633 -0.133851,1.716746 0.461862,0.60401 1.734361,0.40597 1.734361,0.40597 h 20.550332 v 23.94434 h 12.012378 v -23.94434 h 21.988516 c 0,0 0.533832,0.0357 0.751842,-0.24942 0.218012,-0.28511 0.02279,-0.732336 0.02279,-0.732336 L 70.664458,78.507998 h 3.633902 c 0,0 0.469712,0.02954 0.660709,-0.220234 0.190997,-0.249778 0.01993,-0.63947 0.01993,-0.63947 L 67.483372,57.493022 h 3.052932 c 0,0 0.396587,0.02559 0.558184,-0.18574 0.1616,-0.211332 0.01424,-0.541293 0.01424,-0.541295 L 50.262214,0.71013055 c 0,0 -0.18478,-0.4245459 -0.435726,-0.4245447 z"
     style="stroke-width:1.4074502" />
  <text
     id="text3707"
     font-family="'Helvetica Neue', Helvetica, Arial-Unicode, Arial, Sans-serif"
     font-weight="bold"
     font-size="5px"
     fill="#000000"
     y="115"
     x="0">Created by Bintang Anandhiya</text>
  <text
     id="text3709"
     font-family="'Helvetica Neue', Helvetica, Arial-Unicode, Arial, Sans-serif"
     font-weight="bold"
     font-size="5px"
     fill="#000000"
     y="120"
     x="0">from the Noun Project</text>
</svg>
