<svg xmlns="http://www.w3.org/2000/svg" xmlns:xlink="http://www.w3.org/1999/xlink" version="1.1" x="0px" y="0px" viewBox="0 0 100 125" enable-background="new 0 0 100 100" xml:space="preserve"><path d="M25.864,86.204l18.472-0.001v-12l-18.471,0.002c-2.817,0-4.999-0.748-5.695-1.953c-0.695-1.205-0.253-3.47,1.156-5.909  l7.042-12.197l5.536,3.196l-4.538-16.924L12.441,44.95l5.535,3.196l-7.042,12.196c-3.653,6.326-4.075,12.855-1.156,17.91  C12.696,83.307,18.56,86.204,25.864,86.204z M50.305,20.057c1.391-0.001,3.131,1.515,4.539,3.955l7.043,12.195l-5.536,3.197  l16.926,4.531l4.536-16.923l-5.534,3.196l-7.042-12.197c-3.652-6.326-9.096-9.956-14.931-9.956c-5.836,0-11.278,3.628-14.932,9.956  l-9.235,15.997l10.392,5.999l9.235-15.995C47.175,21.57,48.914,20.057,50.305,20.057z M48.273,80.205L60.66,92.596v-6.392  l14.084,0.001c7.307-0.001,13.17-2.898,16.088-7.953c2.918-5.056,2.497-11.584-1.156-17.909l-9.234-15.998l-10.393,5.999  l9.234,15.999c1.409,2.438,1.852,4.704,1.157,5.908c-0.696,1.204-2.879,1.953-5.696,1.954l-14.082-0.001v-6.392L48.273,80.205z"/><text x="0" y="115" fill="#000000" font-size="5px" font-weight="bold" font-family="'Helvetica Neue', Helvetica, Arial-Unicode, Arial, Sans-serif">Created by Sergey Demushkin</text><text x="0" y="120" fill="#000000" font-size="5px" font-weight="bold" font-family="'Helvetica Neue', Helvetica, Arial-Unicode, Arial, Sans-serif">from the Noun Project</text></svg>