<?xml version="1.0" encoding="iso-8859-1"?>
<!-- Generator: Adobe Illustrator 18.0.0, SVG Export Plug-In . SVG Version: 6.00 Build 0)  -->
<!DOCTYPE svg PUBLIC "-//W3C//DTD SVG 1.1//EN" "http://www.w3.org/Graphics/SVG/1.1/DTD/svg11.dtd">
<svg version="1.1" id="Capa_1" xmlns="http://www.w3.org/2000/svg" xmlns:xlink="http://www.w3.org/1999/xlink" x="0px" y="0px"
	 viewBox="0 0 460.147 460.147" style="enable-background:new 0 0 460.147 460.147;" xml:space="preserve">
<g>
	<path d="M237.598,332.765c-2.03-1.173-6.385-2.457-12.718,2.133c-3.784,2.743-7.485,7.054-10.422,12.141
		c-2.938,5.087-4.821,10.448-5.304,15.097c-0.809,7.778,2.479,10.908,4.512,12.081c1.207,0.697,2.612,1.06,4.153,1.059
		c5.544,0,12.839-4.688,18.985-15.334c2.938-5.087,4.821-10.448,5.304-15.097C242.917,337.068,239.63,333.938,237.598,332.765z
		 M234.151,344.019c-0.363,3.503-1.922,7.849-4.274,11.923c-5.139,8.901-11.148,11.958-12.212,11.347
		c-0.147-0.085-0.874-1.244-0.554-4.326c0.363-3.503,1.922-7.849,4.274-11.923s5.337-7.597,8.188-9.664
		c2.015-1.46,3.293-1.715,3.795-1.715c0.123,0,0.199,0.016,0.229,0.032C233.745,339.778,234.472,340.937,234.151,344.019z"/>
	<path d="M413.344,229.573c-2.031-1.173-6.387-2.456-12.718,2.133c-3.784,2.742-7.485,7.054-10.422,12.141
		c-7.855,13.606-6.345,23.971-0.792,27.177c0.938,0.542,2.37,1.106,4.264,1.106c2.209,0,5.045-0.769,8.454-3.24
		c3.784-2.742,7.485-7.054,10.422-12.141c2.938-5.087,4.82-10.448,5.304-15.096C418.664,233.875,415.376,230.746,413.344,229.573z
		 M409.898,240.827c-0.364,3.502-1.922,7.848-4.274,11.923s-5.337,7.597-8.188,9.664c-2.509,1.818-3.875,1.766-4.023,1.683
		c-1.057-0.61-1.421-7.345,3.72-16.249c2.353-4.075,5.337-7.597,8.188-9.664c2.015-1.459,3.292-1.715,3.794-1.715
		c0.124,0,0.2,0.015,0.229,0.032C409.491,236.586,410.219,237.745,409.898,240.827z"/>
	<path d="M458.147,152.073l-128.63-74.26c-0.923-0.533-2.021-0.675-3.049-0.396l-20.492,5.569l-47.675-27.692
		c-1.237-0.719-2.766-0.722-4.007-0.006l-139.317,80.336c-0.773,0.446-1.376,1.138-1.71,1.966l-25.192,62.313L1.289,261.903
		C0.468,262.66,0,263.726,0,264.844v58.01c0,1.429,0.763,2.75,2,3.464l136.05,78.54c0.619,0.357,1.31,0.536,2,0.536
		s1.381-0.179,2-0.536c0.082-0.047,47.728-27.749,47.728-27.749c1.561,7.897,5.534,14.305,11.853,17.954
		c3.47,2.003,7.361,3,11.508,3c4.979,0,10.327-1.439,15.753-4.303c9.341-4.931,17.926-13.607,24.174-24.43
		c6.249-10.823,9.47-22.596,9.07-33.15c-0.011-0.288-0.036-0.566-0.052-0.851l103.801-60.038
		c1.761,7.479,5.707,13.238,11.493,16.578c3.551,2.05,7.484,3.025,11.604,3.025c13.723,0,29.479-10.826,39.832-28.756
		c8.027-13.903,10.726-28.482,8.337-39.872l20.456-17.14c0.883-0.74,1.404-1.826,1.43-2.978l1.111-50.523
		C460.179,154.165,459.412,152.803,458.147,152.073z M326.96,85.574l120.146,69.362l-29.885,12.312l-21.861-31.901
		c-0.315-0.51-0.739-0.945-1.242-1.269c-0.294-0.19-78.42-45.443-78.42-45.443L326.96,85.574z M255.848,220.754l49.3-28.501v39.163
		l-69.934,40.375L255.848,220.754z M313.147,187.628l53.669-31.027l7.939,34.627l-61.608,35.568V187.628z M382.003,187.044
		l-7.94-34.632l16.684-9.645l19.262,28.109L382.003,187.044z M256.286,63.375l127.602,74.117L252.6,213.391l-128.158-73.989
		L256.286,63.375z M118.756,145.356l128.866,74.402l-22.155,54.798L96.603,200.152L118.756,145.356z M92.154,206.821l128.502,74.195
		l-80.827,57.622l-128.08-74.486L92.154,206.821z M189.033,368.276l-44.984,26.319v-12.017l46.765-27.05
		C189.692,359.919,189.102,364.208,189.033,368.276z M8,271.227l128.05,74.468v28.034L8,299.261V271.227z M8,320.544v-12.029
		l128.05,74.468v11.482L8,320.544z M246.138,365.33c-5.505,9.535-12.956,17.119-20.98,21.355
		c-7.424,3.917-14.358,4.433-19.526,1.448c-11.115-6.417-11.347-27.703-0.506-46.481c8.668-15.014,22.264-24.699,33.048-24.699
		c2.704,0,5.231,0.609,7.46,1.895c5.169,2.984,8.19,9.247,8.509,17.635C254.485,345.551,251.643,355.796,246.138,365.33z
		 M421.885,262.138c-10.843,18.78-29.396,29.222-40.508,22.803c-5.169-2.984-8.19-9.247-8.509-17.634
		c-0.344-9.068,2.499-19.313,8.004-28.848c5.505-9.534,12.956-17.118,20.98-21.354c4.239-2.238,8.318-3.365,12.001-3.365
		c2.766,0,5.309,0.637,7.525,1.917C432.494,222.074,432.726,243.36,421.885,262.138z M434.316,218.203
		c-2.095-3.993-5.079-7.248-8.937-9.475c-7.635-4.41-17.317-3.947-27.261,1.302c-9.341,4.931-17.926,13.606-24.174,24.429
		c-6.06,10.495-9.261,21.879-9.086,32.184l-104.157,60.245c-1.927-6.695-5.706-11.871-11.068-14.967
		c-15.387-8.879-37.979,2.422-51.436,25.732c-1.192,2.064-2.26,4.144-3.218,6.225l-50.929,29.458v-27.881l85.289-60.804
		c0.25-0.178,0.471-0.39,0.672-0.619l187.511-108.256l34.493-14.211l-0.937,42.593L434.316,218.203z"/>
	<polygon points="15.016,294.294 36.016,306.514 36.016,294.944 15.016,282.724 	"/>
	<polygon points="108.016,337.724 108.016,349.294 129.016,361.514 129.016,349.944 	"/>
</g>
<g>
</g>
<g>
</g>
<g>
</g>
<g>
</g>
<g>
</g>
<g>
</g>
<g>
</g>
<g>
</g>
<g>
</g>
<g>
</g>
<g>
</g>
<g>
</g>
<g>
</g>
<g>
</g>
<g>
</g>
</svg>
