<svg xmlns="http://www.w3.org/2000/svg" xmlns:xlink="http://www.w3.org/1999/xlink" version="1.1" x="0px" y="0px" viewBox="0 0 100 125" enable-background="new 0 0 100 100" xml:space="preserve"><g><path fill="#000000" d="M59.573,32.642c-1.028-0.504-2.115-0.865-3.251-1.074c-0.9-1.495-2.189-2.68-3.751-3.449   c-1.262-0.617-2.609-0.936-4.005-0.936c-3.488,0-6.614,1.945-8.157,5.076c-0.767,1.569-1.067,3.331-0.867,5.053   c-3.711,1.536-6.141,5.126-6.141,9.225c0,5.506,4.479,9.987,9.984,9.987c1.768,0,3.479-0.459,4.993-1.335   c0.027,0.008,0.054,0.021,0.081,0.041c0.14,0.068,0.287,0.118,0.434,0.182v15.182h-6.268v2.223H57.23v-2.223h-6.117v-6.848   l4.388-3.367l-1.347-1.764l-3.041,2.332v-4.763c0.941,0.224,1.905,0.34,2.891,0.34c4.843,0,9.167-2.693,11.303-7.034   C68.371,43.264,65.795,35.704,59.573,32.642z"/></g><text x="0" y="115" fill="#000000" font-size="5px" font-weight="bold" font-family="'Helvetica Neue', Helvetica, Arial-Unicode, Arial, Sans-serif">Created by Iconic</text><text x="0" y="120" fill="#000000" font-size="5px" font-weight="bold" font-family="'Helvetica Neue', Helvetica, Arial-Unicode, Arial, Sans-serif">from the Noun Project</text></svg>