<svg xmlns="http://www.w3.org/2000/svg" xmlns:xlink="http://www.w3.org/1999/xlink" version="1.1" x="0px" y="0px" viewBox="0 0 100 125" enable-background="new 0 0 100 100" xml:space="preserve"><g><path fill="#000000" d="m77.1088,30.61414c-3.35361,0 -6.62692,0.7394 -9.61222,2.17113c-3.41731,-7.84541 -11.16303,-13.05722 -20.00262,-13.05722c-11.75566,0 -21.38726,9.31314 -21.86635,20.97741c-7.33863,1.18248 -12.97137,7.57956 -12.97137,15.26712c0,8.52388 6.93708,15.47482 15.46651,15.47482c2.63913,0 5.13704,-0.7034 7.33309,-1.90527l11.8415,10.96918l0,38.3298l-17.36624,0l0,6.15891l40.47047,0l0,-6.15891l-16.95916,0l0,-30.77517l17.78163,-13.40062c1.88589,0.53448 3.84378,0.85017 5.87644,0.85017c12.37597,0 22.46175,-10.07746 22.46175,-22.45898c0.00831,-12.38705 -10.08023,-22.44236 -22.45344,-22.44236l0.00001,-0.00001zm-36.89531,34.95403c0.66463,-0.86679 1.29326,-1.77511 1.77511,-2.78037c1.73081,0.45139 3.51146,0.60094 5.31427,0.61755l0,8.72327l-7.08939,-6.56046zm13.23723,14.81018l0,-17.76779c0.98033,-0.26585 1.98005,-0.58986 2.90222,-1.00526c1.75574,4.22318 4.74934,7.73464 8.46851,10.19654l-11.37072,8.5765l-0.00001,0z"/></g><text x="0" y="115" fill="#000000" font-size="5px" font-weight="bold" font-family="'Helvetica Neue', Helvetica, Arial-Unicode, Arial, Sans-serif">Created by Iconic</text><text x="0" y="120" fill="#000000" font-size="5px" font-weight="bold" font-family="'Helvetica Neue', Helvetica, Arial-Unicode, Arial, Sans-serif">from the Noun Project</text></svg>
