<svg xmlns="http://www.w3.org/2000/svg" xmlns:xlink="http://www.w3.org/1999/xlink" version="1.1" x="0px" y="0px" viewBox="0 0 100 125" enable-background="new 0 0 100 100" xml:space="preserve"><path fill="#000000" d="M59.057,40.778c0.099-0.637,0.146-1.26,0.146-1.889c0-6.885-5.606-12.498-12.502-12.498  S34.195,32.005,34.195,38.89c0,6.549,5.056,11.922,11.471,12.457v2.449l-2.542-1.57h-0.005l-0.751-0.486  c-0.518-0.338-1.201-0.188-1.534,0.328c-0.335,0.516-0.188,1.203,0.333,1.535l4.499,2.902v14.889h-6.268h-1.092  c-0.614,0-1.108,0.5-1.108,1.111s0.494,1.104,1.108,1.104h1.092h14.604h1.147c0.614,0,1.108-0.492,1.108-1.104  s-0.494-1.111-1.108-1.111h-1.147h-6.117V60.272l6.751-5.088c1.056,0.541,2.25,0.85,3.513,0.85c4.218,0,7.655-3.438,7.655-7.656  C65.805,44.464,62.848,41.229,59.057,40.778z M47.886,57.493v-6.154c1.011-0.102,1.999-0.316,2.96-0.664  c0.381,1.215,1.048,2.279,1.922,3.146L47.886,57.493z"/><text x="0" y="115" fill="#000000" font-size="5px" font-weight="bold" font-family="'Helvetica Neue', Helvetica, Arial-Unicode, Arial, Sans-serif">Created by Iconic</text><text x="0" y="120" fill="#000000" font-size="5px" font-weight="bold" font-family="'Helvetica Neue', Helvetica, Arial-Unicode, Arial, Sans-serif">from the Noun Project</text></svg>