<svg xmlns="http://www.w3.org/2000/svg" xmlns:xlink="http://www.w3.org/1999/xlink" version="1.1" x="0px" y="0px" viewBox="0 0 100 125" enable-background="new 0 0 100 100" xml:space="preserve"><g><path fill="#000000" d="m76.42711,15.43706c-2.8035,-1.37448 -5.76791,-2.35898 -8.86594,-2.92895c-2.45443,-4.07708 -5.96972,-7.30874 -10.22951,-9.40592c-3.44165,-1.68265 -7.11512,-2.55261 -10.92221,-2.55261c-9.51227,0 -18.03732,5.30429 -22.2453,13.84298c-2.09172,4.27889 -2.90986,9.08411 -2.36443,13.78025c-10.12043,4.18889 -16.74738,13.97933 -16.74738,25.15789c0,15.01565 12.21487,27.23597 27.22779,27.23597c4.82159,0 9.48773,-1.25176 13.61662,-3.64074c0.07363,0.02182 0.14727,0.05727 0.2209,0.11181c0.3818,0.18545 0.78269,0.3218 1.18358,0.49634l0,41.40348l-17.09373,0l0,6.06244l39.82992,0l0,-6.06244l-16.68193,0l0,-18.67547l11.9667,-9.18229l-3.67346,-4.81068l-8.29324,6.3597l0,-12.98938c2.56624,0.61088 5.19521,0.92723 7.88417,0.92723c13.20755,0 24.99972,-7.3442 30.82489,-19.18272c8.35597,-16.97919 1.33085,-37.59639 -15.63744,-45.9469l0,0.00001z"/></g><text x="0" y="115" fill="#000000" font-size="5px" font-weight="bold" font-family="'Helvetica Neue', Helvetica, Arial-Unicode, Arial, Sans-serif">Created by Iconic</text><text x="0" y="120" fill="#000000" font-size="5px" font-weight="bold" font-family="'Helvetica Neue', Helvetica, Arial-Unicode, Arial, Sans-serif">from the Noun Project</text></svg>
