<svg xmlns="http://www.w3.org/2000/svg" xmlns:xlink="http://www.w3.org/1999/xlink" version="1.1" x="0px" y="0px" viewBox="0 0 100 125" enable-background="new 0 0 100 100" xml:space="preserve"><path fill="#000000" d="m82.37239,39.22383c0.25866,-1.66427 0.38145,-3.29195 0.38145,-4.93531c0,-17.98815 -14.64656,-32.653 -32.66345,-32.653s-32.67389,14.66746 -32.67389,32.65561c0,17.1103 13.2096,31.1481 29.96979,32.54587l0,6.3984l-6.64138,-4.10187l-0.01307,0l-1.9621,-1.26975c-1.35335,-0.88308 -3.1378,-0.49118 -4.00781,0.85695c-0.87524,1.34814 -0.49118,3.14303 0.87001,4.01043l11.75435,7.58194l0,38.89986l-16.37614,0l-2.85302,0c-1.60417,0 -2.89482,1.30633 -2.89482,2.90266s1.29065,2.88437 2.89482,2.88437l2.85302,0l38.15525,0l2.99672,0c1.60417,0 2.89482,-1.28543 2.89482,-2.88437s-1.29065,-2.90266 -2.89482,-2.90266l-2.99672,0l-15.98163,0l0,-29.05798l17.63805,-13.2932c2.75896,1.41345 5.87848,2.22076 9.17827,2.22076c11.02019,0 19.99989,-8.98232 19.99989,-20.00251c0.00261,-10.22594 -7.72301,-18.67789 -17.6276,-19.8562l0,-0.00001zm-29.186,43.67057l0,-16.0783c2.64139,-0.26649 5.2227,-0.82559 7.73347,-1.73481c0.99542,3.17438 2.73807,5.95425 5.02153,8.21942l-12.75499,9.59368z"/><text x="0" y="115" fill="#000000" font-size="5px" font-weight="bold" font-family="'Helvetica Neue', Helvetica, Arial-Unicode, Arial, Sans-serif">Created by Iconic</text><text x="0" y="120" fill="#000000" font-size="5px" font-weight="bold" font-family="'Helvetica Neue', Helvetica, Arial-Unicode, Arial, Sans-serif">from the Noun Project</text></svg>
