<svg xmlns="http://www.w3.org/2000/svg" xmlns:xlink="http://www.w3.org/1999/xlink" version="1.1" x="0px" y="0px" viewBox="0 0 100 125" enable-background="new 0 0 100 100" xml:space="preserve"><g><path fill="#000000" d="M57.581,34.924c-1.211,0-2.393,0.267-3.471,0.784c-1.234-2.833-4.031-4.715-7.223-4.715   c-4.245,0-7.723,3.363-7.896,7.575c-2.65,0.427-4.684,2.737-4.684,5.513c0,3.078,2.505,5.588,5.585,5.588   c0.953,0,1.855-0.254,2.648-0.688l4.276,3.961v13.841h-6.271v2.224h14.614v-2.224h-6.124V55.67l6.421-4.839   c0.681,0.193,1.388,0.307,2.122,0.307c4.469,0,8.111-3.639,8.111-8.11C65.692,38.555,62.049,34.924,57.581,34.924z M44.258,47.546   c0.24-0.313,0.467-0.641,0.641-1.004c0.625,0.163,1.268,0.217,1.919,0.223v3.15L44.258,47.546z M49.038,52.894v-6.416   c0.354-0.096,0.715-0.213,1.048-0.363c0.634,1.525,1.715,2.793,3.058,3.682L49.038,52.894z"/></g><text x="0" y="115" fill="#000000" font-size="5px" font-weight="bold" font-family="'Helvetica Neue', Helvetica, Arial-Unicode, Arial, Sans-serif">Created by Iconic</text><text x="0" y="120" fill="#000000" font-size="5px" font-weight="bold" font-family="'Helvetica Neue', Helvetica, Arial-Unicode, Arial, Sans-serif">from the Noun Project</text></svg>