<svg xmlns="http://www.w3.org/2000/svg" xmlns:xlink="http://www.w3.org/1999/xlink" version="1.1" x="0px" y="0px" viewBox="0 0 100 125" enable-background="new 0 0 100 100" xml:space="preserve"><circle cx="46.1" cy="34.6" r="2.3"/><g><path d="M49.6,95h-7l1.8-52.2l1.1-0.9c0.6-0.5,0.8-1.2,0.6-1.9l-0.4-1.6l0.1-0.1c0,0,0.1-0.1,0.1-0.1c0.1,0,0.1,0,0.2,0   c0.6,0,1.1-0.1,1.5-0.3L49.6,95z"/></g><g><g><path d="M75.9,42.1l-0.7,1.1c-0.1,0.2-0.3,0.3-0.5,0.3c0,0-0.1,0-0.1,0l-25.5-6.8c0.4-0.6,0.6-1.3,0.6-2c0-0.1,0-0.1,0-0.2    c0,0,0,0,0.1,0c0.1,0,0.3-0.1,0.4-0.2l1.5-1.4c0.1-0.1,0.2-0.2,0.4-0.2c0.1,0,0.1,0,0.2,0l23.3,8.5C76,41.4,76.1,41.8,75.9,42.1z"/></g><g><path d="M44.6,40.9l-0.8,0.7L25.5,56.8c-0.1,0.1-0.2,0.1-0.4,0.1c-0.2,0-0.4-0.1-0.5-0.3l-0.6-1.1c-0.1-0.2-0.1-0.5,0.1-0.7    l18.6-18.6c0.3,0.5,0.6,1,1.1,1.3c0.2,0.1,0.3,0.2,0.5,0.3c-0.1,0.1-0.1,0.3-0.1,0.5l0.5,2C44.8,40.5,44.7,40.8,44.6,40.9z"/></g><g><path d="M46.3,30.9c-0.1,0-0.2,0-0.2,0c-0.7,0-1.4,0.2-2,0.6c-0.1-0.2-0.2-0.3-0.4-0.3l-1.9-0.6c-0.2-0.1-0.4-0.2-0.4-0.4    L37.1,5.7C37,5.3,37.3,5,37.7,5h0L39,5.1c0.3,0,0.5,0.2,0.5,0.4L46.3,30.9z"/></g></g><text x="0" y="115" fill="#000000" font-size="5px" font-weight="bold" font-family="'Helvetica Neue', Helvetica, Arial-Unicode, Arial, Sans-serif">Created by Robert Beerwerth</text><text x="0" y="120" fill="#000000" font-size="5px" font-weight="bold" font-family="'Helvetica Neue', Helvetica, Arial-Unicode, Arial, Sans-serif">from the Noun Project</text></svg>