<?xml version="1.0" encoding="UTF-8" standalone="no"?>
<svg
   xmlns:dc="http://purl.org/dc/elements/1.1/"
   xmlns:cc="http://creativecommons.org/ns#"
   xmlns:rdf="http://www.w3.org/1999/02/22-rdf-syntax-ns#"
   xmlns:svg="http://www.w3.org/2000/svg"
   xmlns="http://www.w3.org/2000/svg"
   id="svg6"
   xml:space="preserve"
   enable-background="new 0 0 100 100"
   viewBox="0 0 100 100"
   y="0px"
   x="0px"
   version="1.1"><metadata
     id="metadata12"><rdf:RDF><cc:Work
         rdf:about=""><dc:format>image/svg+xml</dc:format><dc:type
           rdf:resource="http://purl.org/dc/dcmitype/StillImage" /><dc:title></dc:title></cc:Work></rdf:RDF></metadata><defs
     id="defs10" /><path
     id="path2"
     d="m 50.53233,35.432767 c -0.328,0.035 -0.65,0.09 -0.992,0.041 -0.241,-0.041 -0.435,-0.169 -0.652,-0.249 -0.278,0.243 -0.549,0.486 -0.859,0.739 l -4.075,63.84 h 12.402 l -3.921,-61.434 c -0.748,-1.051 -1.385,-2.033 -1.903,-2.937 z" /><path
     id="path4"
     d="m 62.90933,39.283767 c -3.283,-3.513 -6.472,-6.296 -9.019,-8.018 0.119,-0.962 -0.116,-1.89 -0.638,-2.629 1.184,-2.848 2.307,-6.925 3.083,-11.662 1.479,-8.9489997 1.131,-16.46499974 -0.754,-16.76799972 -1.905,-0.32 -4.639,6.69000002 -6.106,15.64499972 -0.74,4.505 -0.992,8.528 -0.839,11.559 -1.124,0.501 -2.012,1.484 -2.223,2.784 0,0.009 0.002,0.015 0,0.02 -2.92,0.853 -6.67,2.426 -10.726,4.619 -7.978,4.331 -13.703,9.213 -12.775,10.91 0.913,1.677 8.121,-0.456 16.088,-4.797 4.155,-2.248 7.593,-4.619 9.886,-6.643 0.218,0.08 0.411,0.209 0.652,0.248 0.342,0.05 0.664,-0.005 0.992,-0.039 1.525,2.664 4.046,6.027 7.297,9.51 6.167,6.643 12.329,10.969 13.728,9.665 1.41,-1.317 -2.45,-7.761 -8.646,-14.404 z m -13.002,-6.981 c -0.824,-0.133 -1.385,-0.917 -1.25,-1.741 0.128,-0.823 0.917,-1.389 1.745,-1.25 0.824,0.135 1.39,0.913 1.251,1.737 -0.134,0.823 -0.913,1.388 -1.746,1.254 z" /></svg>