<svg xmlns="http://www.w3.org/2000/svg" xmlns:xlink="http://www.w3.org/1999/xlink" version="1.1" x="0px" y="0px" viewBox="0 0 100 100" enable-background="new 0 0 100 100" xml:space="preserve"><path d="M50.389,35.464c-0.328,0.035-0.65,0.09-0.992,0.041c-0.241-0.041-0.435-0.169-0.652-0.249  c-0.278,0.243-0.549,0.486-0.859,0.739l-4.075,63.84h12.402l-3.921-61.434C51.544,37.35,50.907,36.368,50.389,35.464z"></path><path d="M62.766,39.315c-3.283-3.513-6.472-6.296-9.019-8.018c0.119-0.962-0.116-1.89-0.638-2.629  c1.184-2.848,2.307-6.925,3.083-11.662c1.479-8.949,1.131-16.465-0.754-16.768c-1.905-0.32-4.639,6.69-6.106,15.645  c-0.74,4.505-0.992,8.528-0.839,11.559c-1.124,0.501-2.012,1.484-2.223,2.784c0,0.009,0.002,0.015,0,0.02  c-2.92,0.853-6.67,2.426-10.726,4.619c-7.978,4.331-13.703,9.213-12.775,10.91c0.913,1.677,8.121-0.456,16.088-4.797  c4.155-2.248,7.593-4.619,9.886-6.643c0.218,0.08,0.411,0.209,0.652,0.248c0.342,0.05,0.664-0.005,0.992-0.039  c1.525,2.664,4.046,6.027,7.297,9.51c6.167,6.643,12.329,10.969,13.728,9.665C72.822,52.402,68.962,45.958,62.766,39.315z   M49.764,32.334c-0.824-0.133-1.385-0.917-1.25-1.741c0.128-0.823,0.917-1.389,1.745-1.25c0.824,0.135,1.39,0.913,1.251,1.737  C51.376,31.903,50.597,32.468,49.764,32.334z"></path></svg>