<svg xmlns="http://www.w3.org/2000/svg" xmlns:xlink="http://www.w3.org/1999/xlink" version="1.1" x="0px" y="0px" viewBox="0 0 100 125" enable-background="new 0 0 100 100" xml:space="preserve"><path d="M46.126,30.923c4.962,0.837,15.603,1.886,27.09-1.63c0,0-13.079-3.467-27.423,0.277c-0.033-0.055-0.056-0.114-0.094-0.168  c-0.678-0.963-1.929-1.284-2.966-0.825c-2.175-4.865-7.145-14.12-15.949-21.248c0,0,3.984,12.126,14.788,22.345  c-0.408,0.78-0.388,1.75,0.154,2.52c0.005,0.007,0.011,0.012,0.016,0.018c-2.743,4.31-7.977,13.895-8.989,25.622  c0,0,7.645-9.878,10.146-24.29L41.341,92.67h4.855l-1.642-59.603c0.191-0.071,0.378-0.158,0.553-0.281  C45.743,32.339,46.088,31.643,46.126,30.923z"/><text x="0" y="115" fill="#000000" font-size="5px" font-weight="bold" font-family="'Helvetica Neue', Helvetica, Arial-Unicode, Arial, Sans-serif">Created by Jacqueline Fernandes</text><text x="0" y="120" fill="#000000" font-size="5px" font-weight="bold" font-family="'Helvetica Neue', Helvetica, Arial-Unicode, Arial, Sans-serif">from the Noun Project</text></svg>