<?xml version="1.0" encoding="utf-8" ?>
<svg baseProfile="full" height="792.0" version="1.1" width="612.0" xmlns="http://www.w3.org/2000/svg" xmlns:ev="http://www.w3.org/2001/xml-events" xmlns:xlink="http://www.w3.org/1999/xlink"><defs /><g id="axis"><line stroke="#000000" stroke-width="2" x1="523.8" x2="528.8" y1="642.375" y2="642.375" /><line stroke="#000000" stroke-width="2" x1="523.8" x2="528.8" y1="555.75" y2="555.75" /><line stroke="#000000" stroke-width="2" x1="523.8" x2="528.8" y1="469.125" y2="469.125" /><line stroke="#000000" stroke-width="2" x1="523.8" x2="528.8" y1="382.5" y2="382.5" /><line stroke="#000000" stroke-width="2" x1="523.8" x2="528.8" y1="295.875" y2="295.875" /><line stroke="#000000" stroke-width="2" x1="523.8" x2="528.8" y1="209.25" y2="209.25" /><line stroke="#000000" stroke-width="2" x1="523.8" x2="528.8" y1="122.625" y2="122.625" /><polyline fill="none" points="75.6,165.41925 75.6,729.0 523.8,729.0 523.8,92.42325" stroke="#000000" stroke-width="2" /></g><g id="data"><line stroke="#000000" stroke-dasharray="3,1" stroke-width="1" x1="112.95" x2="112.95" y1="723.0" y2="683.3378125" /><line stroke="#000000" stroke-dasharray="3,1" stroke-width="1" x1="150.3" x2="150.3" y1="723.0" y2="685.08475" /><line stroke="#000000" stroke-dasharray="3,1" stroke-width="1" x1="187.65" x2="187.65" y1="723.0" y2="667.4325" /><line stroke="#000000" stroke-dasharray="3,1" stroke-width="1" x1="225.0" x2="225.0" y1="723.0" y2="687.173375" /><line stroke="#000000" stroke-dasharray="3,1" stroke-width="1" x1="262.35" x2="262.35" y1="723.0" y2="684.67809375" /><line stroke="#000000" stroke-dasharray="3,1" stroke-width="1" x1="299.7" x2="299.7" y1="723.0" y2="693.22509375" /><line stroke="#000000" stroke-dasharray="3,1" stroke-width="1" x1="337.05" x2="337.05" y1="723.0" y2="702.945140625" /><line stroke="#000000" stroke-dasharray="3,1" stroke-width="1" x1="374.4" x2="374.4" y1="723.0" y2="689.97425" /><line stroke="#000000" stroke-dasharray="3,1" stroke-width="1" x1="411.75" x2="411.75" y1="723.0" y2="685.634578125" /><line stroke="#000000" stroke-dasharray="3,1" stroke-width="1" x1="449.1" x2="449.1" y1="723.0" y2="673.19546875" /><line stroke="#000000" stroke-dasharray="3,1" stroke-width="1" x1="486.45" x2="486.45" y1="723.0" y2="697.799375" /><path d="M75.6,692.530875 C87.8236363636,687.5586 103.309551796,678.007489238 116.345454545,675.956625 S145.190454,682.721124423 157.090909091,679.710375 S183.809814768,652.864773564 197.836363636,655.339875 S221.902749478,691.566571578 238.581818182,694.090125 S264.932260719,665.427767743 279.327272727,667.6695 S303.427670301,703.613510012 320.072727273,706.7806875 S347.146814931,686.733462046 360.818181818,683.175375 S389.718756082,688.675713921 401.563636364,685.572 S428.236689747,660.356331412 442.309090909,661.8223125 S467.497806231,693.088332284 483.054545455,694.06125 S511.576363636,675.0615 523.8,666.91875" fill="none" stroke="#000000" stroke-width="3" /><line stroke="#000000" stroke-dasharray="3,1" stroke-width="1" x1="112.95" x2="112.95" y1="671.3378125" y2="550.31790625" /><line stroke="#000000" stroke-dasharray="3,1" stroke-width="1" x1="150.3" x2="150.3" y1="673.08475" y2="576.5580625" /><line stroke="#000000" stroke-dasharray="3,1" stroke-width="1" x1="187.65" x2="187.65" y1="655.4325" y2="571.58915625" /><line stroke="#000000" stroke-dasharray="3,1" stroke-width="1" x1="225.0" x2="225.0" y1="675.173375" y2="594.253625" /><line stroke="#000000" stroke-dasharray="3,1" stroke-width="1" x1="262.35" x2="262.35" y1="672.67809375" y2="577.429125" /><line stroke="#000000" stroke-dasharray="3,1" stroke-width="1" x1="299.7" x2="299.7" y1="681.22509375" y2="569.9505" /><line stroke="#000000" stroke-dasharray="3,1" stroke-width="1" x1="337.05" x2="337.05" y1="690.945140625" y2="574.65953125" /><line stroke="#000000" stroke-dasharray="3,1" stroke-width="1" x1="374.4" x2="374.4" y1="677.97425" y2="574.3395" /><line stroke="#000000" stroke-dasharray="3,1" stroke-width="1" x1="411.75" x2="411.75" y1="673.634578125" y2="582.771" /><line stroke="#000000" stroke-dasharray="3,1" stroke-width="1" x1="449.1" x2="449.1" y1="661.19546875" y2="533.9193125" /><line stroke="#000000" stroke-dasharray="3,1" stroke-width="1" x1="486.45" x2="486.45" y1="685.799375" y2="539.6943125" /><path d="M75.6,562.449 C87.8236363636,556.5151875 102.94537213,540.419023306 116.345454545,542.669625 S141.702920224,572.471678273 157.090909091,576.13575 S185.482771597,558.252244095 197.836363636,562.073625 S221.786571508,603.819293824 238.581818182,601.343625 S260.447391719,555.50710902 279.327272727,550.061625 S305.315397107,576.798799251 320.072727273,577.839375 S347.168751728,553.20089957 360.818181818,555.80775 S385.890182558,598.967744898 401.563636364,593.403 S423.49129877,540.790664394 442.309090909,526.875 S470.839485534,531.20616465 483.054545455,533.140875 S511.576363636,537.78975 523.8,539.782125" fill="none" stroke="#000000" stroke-width="3" /><line stroke="#000000" stroke-dasharray="3,1" stroke-width="1" x1="112.95" x2="112.95" y1="538.31790625" y2="424.5042375" /><line stroke="#000000" stroke-dasharray="3,1" stroke-width="1" x1="150.3" x2="150.3" y1="564.5580625" y2="413.8089375" /><line stroke="#000000" stroke-dasharray="3,1" stroke-width="1" x1="187.65" x2="187.65" y1="559.58915625" y2="414.366225" /><line stroke="#000000" stroke-dasharray="3,1" stroke-width="1" x1="225.0" x2="225.0" y1="582.253625" y2="414.004325" /><line stroke="#000000" stroke-dasharray="3,1" stroke-width="1" x1="262.35" x2="262.35" y1="565.429125" y2="415.632875" /><line stroke="#000000" stroke-dasharray="3,1" stroke-width="1" x1="299.7" x2="299.7" y1="557.9505" y2="407.03775" /><line stroke="#000000" stroke-dasharray="3,1" stroke-width="1" x1="337.05" x2="337.05" y1="562.65953125" y2="406.51078125" /><line stroke="#000000" stroke-dasharray="3,1" stroke-width="1" x1="374.4" x2="374.4" y1="562.3395" y2="411.369" /><line stroke="#000000" stroke-dasharray="3,1" stroke-width="1" x1="411.75" x2="411.75" y1="570.771" y2="397.283775" /><line stroke="#000000" stroke-dasharray="3,1" stroke-width="1" x1="449.1" x2="449.1" y1="521.9193125" y2="402.3263125" /><line stroke="#000000" stroke-dasharray="3,1" stroke-width="1" x1="486.45" x2="486.45" y1="527.6943125" y2="380.9684375" /><path d="M75.6,452.45835 C87.8236363636,441.346095 101.972441297,423.560962856 116.345454545,415.4175 S144.602100388,407.261656149 157.090909091,406.287225 S185.58577751,408.880384072 197.836363636,409.059225 S226.353080399,407.159695183 238.581818182,407.476875 S267.299698925,413.619135783 279.327272727,411.172875 S306.427998183,390.435584144 320.072727273,390.902625 S346.780564301,414.43075129 360.818181818,413.9622 S387.28982043,390.525325868 401.563636364,388.1826 S429.694979734,402.624547556 442.309090909,400.5873 S469.316560416,379.438448685 483.054545455,375.021375 S511.576363636,374.5767 523.8,374.386125" fill="none" stroke="#000000" stroke-width="3" /><line stroke="#000000" stroke-dasharray="3,1" stroke-width="1" x1="112.95" x2="112.95" y1="412.5042375" y2="316.052625" /><line stroke="#000000" stroke-dasharray="3,1" stroke-width="1" x1="150.3" x2="150.3" y1="401.8089375" y2="316.50740625" /><line stroke="#000000" stroke-dasharray="3,1" stroke-width="1" x1="187.65" x2="187.65" y1="402.366225" y2="314.670234375" /><line stroke="#000000" stroke-dasharray="3,1" stroke-width="1" x1="225.0" x2="225.0" y1="402.004325" y2="304.1623125" /><line stroke="#000000" stroke-dasharray="3,1" stroke-width="1" x1="262.35" x2="262.35" y1="403.632875" y2="299.835359375" /><line stroke="#000000" stroke-dasharray="3,1" stroke-width="1" x1="299.7" x2="299.7" y1="395.03775" y2="304.0261875" /><line stroke="#000000" stroke-dasharray="3,1" stroke-width="1" x1="337.05" x2="337.05" y1="394.51078125" y2="311.82725" /><line stroke="#000000" stroke-dasharray="3,1" stroke-width="1" x1="374.4" x2="374.4" y1="399.369" y2="321.981625" /><line stroke="#000000" stroke-dasharray="3,1" stroke-width="1" x1="411.75" x2="411.75" y1="385.283775" y2="329.65996875" /><line stroke="#000000" stroke-dasharray="3,1" stroke-width="1" x1="449.1" x2="449.1" y1="390.3263125" y2="326.004875" /><line stroke="#000000" stroke-dasharray="3,1" stroke-width="1" x1="486.45" x2="486.45" y1="368.9684375" y2="329.48946875" /><path d="M75.6,321.3283125 C87.8236363636,317.6380875 103.682118167,310.663092468 116.345454545,309.0275625 S144.856720298,310.963769596 157.090909091,310.803375 S185.857307454,310.537470872 197.836363636,307.9591875 S225.767704216,295.420601239 238.581818182,293.263875 S267.166773752,292.968442307 279.327272727,294.2435625 S307.908472724,299.239927934 320.072727273,301.8088125 S348.738031713,308.009474312 360.818181818,311.4530625 S388.741154464,323.768858147 401.563636364,325.03875 S429.980394744,319.92115634 442.309090909,319.523625 S471.025050877,320.074688565 483.054545455,322.411125 S511.576363636,331.4692125 523.8,335.35125" fill="none" stroke="#000000" stroke-width="3" /><line stroke="#000000" stroke-dasharray="3,1" stroke-width="1" x1="112.95" x2="112.95" y1="304.052625" y2="139.85978125" /><line stroke="#000000" stroke-dasharray="3,1" stroke-width="1" x1="150.3" x2="150.3" y1="304.50740625" y2="138.5628125" /><line stroke="#000000" stroke-dasharray="3,1" stroke-width="1" x1="187.65" x2="187.65" y1="302.670234375" y2="134.0101875" /><line stroke="#000000" stroke-dasharray="3,1" stroke-width="1" x1="225.0" x2="225.0" y1="292.1623125" y2="143.0625" /><line stroke="#000000" stroke-dasharray="3,1" stroke-width="1" x1="262.35" x2="262.35" y1="287.835359375" y2="135.0978125" /><line stroke="#000000" stroke-dasharray="3,1" stroke-width="1" x1="299.7" x2="299.7" y1="292.0261875" y2="122.21475" /><line stroke="#000000" stroke-dasharray="3,1" stroke-width="1" x1="337.05" x2="337.05" y1="299.82725" y2="115.45559375" /><line stroke="#000000" stroke-dasharray="3,1" stroke-width="1" x1="374.4" x2="374.4" y1="309.981625" y2="104.9475" /><line stroke="#000000" stroke-dasharray="3,1" stroke-width="1" x1="411.75" x2="411.75" y1="317.65996875" y2="90.019125" /><line stroke="#000000" stroke-dasharray="3,1" stroke-width="1" x1="449.1" x2="449.1" y1="314.004875" y2="82.4201875" /><line stroke="#000000" stroke-dasharray="3,1" stroke-width="1" x1="486.45" x2="486.45" y1="317.48946875" y2="95.50296875" /><path d="M75.6,166.91925 C87.8236363636,156.0997875 101.280957537,137.14237823 116.345454545,130.854375 S144.87022693,133.5756815 157.090909091,132.9045 S185.540216301,124.945315719 197.836363636,126.37875 S225.49200866,143.494343682 238.581818182,142.404375 S266.158434492,124.371280174 279.327272727,119.593125 S307.883449232,115.060698974 320.072727273,112.836375 S348.920759608,108.436497547 360.818181818,104.7225 S389.140675287,92.098705195 401.563636364,87.3975 S429.433526713,73.6148272383 442.309090909,73.884 S470.383742415,85.9852757276 483.054545455,89.101125 S511.576363636,92.4766125 523.8,93.92325" fill="none" stroke="#000000" stroke-width="3" /></g><g id="labels"><text alignment-baseline="middle" font-size="14" x="533.8" y="642.375">-10</text><text alignment-baseline="middle" font-size="14" x="533.8" y="555.75">0</text><text alignment-baseline="middle" font-size="14" x="533.8" y="469.125">+10</text><text alignment-baseline="middle" font-size="14" x="533.8" y="382.5">+20</text><text alignment-baseline="middle" font-size="14" x="533.8" y="295.875">+30</text><text alignment-baseline="middle" font-size="14" x="533.8" y="209.25">+40</text><text alignment-baseline="middle" font-size="14" x="533.8" y="122.625">+50</text><text alignment-baseline="middle" dominant-baseline="central" font-size="14" transform="rotate(90,569.0,313.2)" x="569.0" y="313.2">Change in mean sea level (mm)</text><text alignment-baseline="middle" font-size="14" text-anchor="middle" x="94.275" y="742.5">Jan</text><text alignment-baseline="middle" font-size="14" text-anchor="middle" x="131.625" y="742.5">Feb</text><text alignment-baseline="middle" font-size="14" text-anchor="middle" x="168.975" y="742.5">Mar</text><text alignment-baseline="middle" font-size="14" text-anchor="middle" x="206.325" y="742.5">Apr</text><text alignment-baseline="middle" font-size="14" text-anchor="middle" x="243.675" y="742.5">May</text><text alignment-baseline="middle" font-size="14" text-anchor="middle" x="281.025" y="742.5">Jun</text><text alignment-baseline="middle" font-size="14" text-anchor="middle" x="318.375" y="742.5">Jul</text><text alignment-baseline="middle" font-size="14" text-anchor="middle" x="355.725" y="742.5">Aug</text><text alignment-baseline="middle" font-size="14" text-anchor="middle" x="393.075" y="742.5">Sep</text><text alignment-baseline="middle" font-size="14" text-anchor="middle" x="430.425" y="742.5">Oct</text><text alignment-baseline="middle" font-size="14" text-anchor="middle" x="467.775" y="742.5">Nov</text><text alignment-baseline="middle" font-size="14" text-anchor="middle" x="505.125" y="742.5">Dec</text><text alignment-baseline="middle" font-size="14" text-anchor="end" x="65.6" y="692.530875">1995</text><text alignment-baseline="middle" font-size="14" text-anchor="middle" x="94.275" y="706.967171875">G</text><text alignment-baseline="middle" font-size="14" text-anchor="middle" x="131.625" y="703.182140625">G</text><text alignment-baseline="middle" font-size="14" text-anchor="middle" x="168.975" y="700.80115625">G</text><text alignment-baseline="middle" font-size="14" text-anchor="middle" x="206.325" y="696.206421875">G</text><text alignment-baseline="middle" font-size="14" text-anchor="middle" x="243.675" y="709.893773437">G</text><text alignment-baseline="middle" font-size="14" text-anchor="middle" x="281.025" y="699.149566406">G</text><text alignment-baseline="middle" font-size="14" text-anchor="middle" x="318.375" y="717.075527344">G</text><text alignment-baseline="middle" font-size="14" text-anchor="middle" x="355.725" y="707.563019531">G</text><text alignment-baseline="middle" font-size="14" text-anchor="middle" x="393.075" y="707.036351562">G</text><text alignment-baseline="middle" font-size="14" text-anchor="middle" x="430.425" y="698.874652344">G</text><text alignment-baseline="middle" font-size="14" text-anchor="middle" x="467.775" y="705.485824219">G</text><text alignment-baseline="middle" font-size="14" text-anchor="middle" x="505.125" y="704.17953125">G</text><text alignment-baseline="middle" font-size="14" text-anchor="end" x="65.6" y="562.449">2000</text><text alignment-baseline="middle" font-size="14" text-anchor="middle" x="94.275" y="619.158898438">G</text><text alignment-baseline="middle" font-size="14" text-anchor="middle" x="131.625" y="616.291851562">G</text><text alignment-baseline="middle" font-size="14" text-anchor="middle" x="168.975" y="622.318304687">G</text><text alignment-baseline="middle" font-size="14" text-anchor="middle" x="206.325" y="616.833859375">G</text><text alignment-baseline="middle" font-size="14" text-anchor="middle" x="243.675" y="642.860460937">G</text><text alignment-baseline="middle" font-size="14" text-anchor="middle" x="281.025" y="610.259082031">G</text><text alignment-baseline="middle" font-size="14" text-anchor="middle" x="318.375" y="640.916511719">G</text><text alignment-baseline="middle" font-size="14" text-anchor="middle" x="355.725" y="622.343871094">G</text><text alignment-baseline="middle" font-size="14" text-anchor="middle" x="393.075" y="635.321679687">Y</text><text alignment-baseline="middle" font-size="14" text-anchor="middle" x="430.425" y="607.514152344">G</text><text alignment-baseline="middle" font-size="14" text-anchor="middle" x="467.775" y="606.381410156">G</text><text alignment-baseline="middle" font-size="14" text-anchor="middle" x="505.125" y="608.048640625">G</text><text alignment-baseline="middle" font-size="14" text-anchor="end" x="65.6" y="452.45835">2005</text><text alignment-baseline="middle" font-size="14" text-anchor="middle" x="94.275" y="494.432373437">Y</text><text alignment-baseline="middle" font-size="14" text-anchor="middle" x="131.625" y="483.606534375">Y</text><text alignment-baseline="middle" font-size="14" text-anchor="middle" x="168.975" y="489.565010937">Y</text><text alignment-baseline="middle" font-size="14" text-anchor="middle" x="206.325" y="489.492221875">Y</text><text alignment-baseline="middle" font-size="14" text-anchor="middle" x="243.675" y="501.436125">O</text><text alignment-baseline="middle" font-size="14" text-anchor="middle" x="281.025" y="480.77365625">O</text><text alignment-baseline="middle" font-size="14" text-anchor="middle" x="318.375" y="484.21459375">O</text><text alignment-baseline="middle" font-size="14" text-anchor="middle" x="355.725" y="484.820728125">O</text><text alignment-baseline="middle" font-size="14" text-anchor="middle" x="393.075" y="489.562003125">O</text><text alignment-baseline="middle" font-size="14" text-anchor="middle" x="430.425" y="471.62413125">O</text><text alignment-baseline="middle" font-size="14" text-anchor="middle" x="467.775" y="457.699884375">Y</text><text alignment-baseline="middle" font-size="14" text-anchor="middle" x="505.125" y="455.70775">Y</text><text alignment-baseline="middle" font-size="14" text-anchor="end" x="65.6" y="321.3283125">2010</text><text alignment-baseline="middle" font-size="14" text-anchor="middle" x="94.275" y="375.58588125">O</text><text alignment-baseline="middle" font-size="14" text-anchor="middle" x="131.625" y="360.843569531">O</text><text alignment-baseline="middle" font-size="14" text-anchor="middle" x="168.975" y="358.534772656">O</text><text alignment-baseline="middle" font-size="14" text-anchor="middle" x="206.325" y="356.813616406">R</text><text alignment-baseline="middle" font-size="14" text-anchor="middle" x="243.675" y="350.662605469">O</text><text alignment-baseline="middle" font-size="14" text-anchor="middle" x="281.025" y="352.44353125">O</text><text alignment-baseline="middle" font-size="14" text-anchor="middle" x="318.375" y="346.62040625">O</text><text alignment-baseline="middle" font-size="14" text-anchor="middle" x="355.725" y="360.663642187">O</text><text alignment-baseline="middle" font-size="14" text-anchor="middle" x="393.075" y="357.880874219">O</text><text alignment-baseline="middle" font-size="14" text-anchor="middle" x="430.425" y="359.050732812">Y</text><text alignment-baseline="middle" font-size="14" text-anchor="middle" x="467.775" y="352.968454688">Y</text><text alignment-baseline="middle" font-size="14" text-anchor="middle" x="505.125" y="352.048820313">Y</text><text alignment-baseline="middle" font-size="14" text-anchor="end" x="65.6" y="166.91925">2015</text><text alignment-baseline="middle" font-size="14" text-anchor="middle" x="94.275" y="233.039992188">O</text><text alignment-baseline="middle" font-size="14" text-anchor="middle" x="131.625" y="220.658332031">O</text><text alignment-baseline="middle" font-size="14" text-anchor="middle" x="168.975" y="220.487488281">R</text><text alignment-baseline="middle" font-size="14" text-anchor="middle" x="206.325" y="217.307542969">R</text><text alignment-baseline="middle" font-size="14" text-anchor="middle" x="243.675" y="216.469652344">R</text><text alignment-baseline="middle" font-size="14" text-anchor="middle" x="281.025" y="206.9351875">R</text><text alignment-baseline="middle" font-size="14" text-anchor="middle" x="318.375" y="207.30575">V</text><text alignment-baseline="middle" font-size="14" text-anchor="middle" x="355.725" y="207.992132813">V</text><text alignment-baseline="middle" font-size="14" text-anchor="middle" x="393.075" y="206.607636719">V</text><text alignment-baseline="middle" font-size="14" text-anchor="middle" x="430.425" y="199.478820312">V</text><text alignment-baseline="middle" font-size="14" text-anchor="middle" x="467.775" y="202.361507812">V</text><text alignment-baseline="middle" font-size="14" text-anchor="middle" x="505.125" y="210.566734375">V</text></g></svg>