<?xml version="1.0" encoding="utf-8" ?>
<svg baseProfile="full" height="792.0" version="1.1" width="612.0" xmlns="http://www.w3.org/2000/svg" xmlns:ev="http://www.w3.org/2001/xml-events" xmlns:xlink="http://www.w3.org/1999/xlink"><defs /><g id="axis"><line stroke="#000000" stroke-width="2" x1="523.8" x2="528.8" y1="642.375" y2="642.375" /><line stroke="#000000" stroke-width="2" x1="523.8" x2="528.8" y1="555.75" y2="555.75" /><line stroke="#000000" stroke-width="2" x1="523.8" x2="528.8" y1="469.125" y2="469.125" /><line stroke="#000000" stroke-width="2" x1="523.8" x2="528.8" y1="382.5" y2="382.5" /><line stroke="#000000" stroke-width="2" x1="523.8" x2="528.8" y1="295.875" y2="295.875" /><line stroke="#000000" stroke-width="2" x1="523.8" x2="528.8" y1="209.25" y2="209.25" /><line stroke="#000000" stroke-width="2" x1="523.8" x2="528.8" y1="122.625" y2="122.625" /><polyline fill="none" points="75.6,127.4919375 75.6,729.0 523.8,729.0 523.8,54.4959375" stroke="#000000" stroke-width="2" /></g><g id="data"><line stroke="#000000" stroke-dasharray="3,1" stroke-width="1" x1="112.95" x2="112.95" y1="723.0" y2="645.4105" /><line stroke="#000000" stroke-dasharray="3,1" stroke-width="1" x1="150.3" x2="150.3" y1="723.0" y2="647.1574375" /><line stroke="#000000" stroke-dasharray="3,1" stroke-width="1" x1="187.65" x2="187.65" y1="723.0" y2="629.5051875" /><line stroke="#000000" stroke-dasharray="3,1" stroke-width="1" x1="225.0" x2="225.0" y1="723.0" y2="649.2460625" /><line stroke="#000000" stroke-dasharray="3,1" stroke-width="1" x1="262.35" x2="262.35" y1="723.0" y2="646.75078125" /><line stroke="#000000" stroke-dasharray="3,1" stroke-width="1" x1="299.7" x2="299.7" y1="723.0" y2="655.29778125" /><line stroke="#000000" stroke-dasharray="3,1" stroke-width="1" x1="337.05" x2="337.05" y1="723.0" y2="665.017828125" /><line stroke="#000000" stroke-dasharray="3,1" stroke-width="1" x1="374.4" x2="374.4" y1="723.0" y2="652.0469375" /><line stroke="#000000" stroke-dasharray="3,1" stroke-width="1" x1="411.75" x2="411.75" y1="723.0" y2="647.707265625" /><line stroke="#000000" stroke-dasharray="3,1" stroke-width="1" x1="449.1" x2="449.1" y1="723.0" y2="635.26815625" /><line stroke="#000000" stroke-dasharray="3,1" stroke-width="1" x1="486.45" x2="486.45" y1="723.0" y2="659.8720625" /><path d="M75.6,654.6035625 C87.8236363636,649.6312875 103.309551796,640.080176738 116.345454545,638.0293125 S145.190454,644.793811923 157.090909091,641.7830625 S183.809814768,614.937461064 197.836363636,617.4125625 S221.902749478,653.639259078 238.581818182,656.1628125 S264.932260719,627.500455243 279.327272727,629.7421875 S303.427670301,665.686197512 320.072727273,668.853375 S347.146814931,648.806149546 360.818181818,645.2480625 S389.718756082,650.748401421 401.563636364,647.6446875 S428.236689747,622.429018912 442.309090909,623.895 S467.497806231,655.161019784 483.054545455,656.1339375 S511.576363636,637.1341875 523.8,628.9914375" fill="none" stroke="#000000" stroke-width="3" /><line stroke="#000000" stroke-dasharray="3,1" stroke-width="1" x1="112.95" x2="112.95" y1="633.4105" y2="512.39059375" /><line stroke="#000000" stroke-dasharray="3,1" stroke-width="1" x1="150.3" x2="150.3" y1="635.1574375" y2="538.63075" /><line stroke="#000000" stroke-dasharray="3,1" stroke-width="1" x1="187.65" x2="187.65" y1="617.5051875" y2="533.66184375" /><line stroke="#000000" stroke-dasharray="3,1" stroke-width="1" x1="225.0" x2="225.0" y1="637.2460625" y2="556.3263125" /><line stroke="#000000" stroke-dasharray="3,1" stroke-width="1" x1="262.35" x2="262.35" y1="634.75078125" y2="539.5018125" /><line stroke="#000000" stroke-dasharray="3,1" stroke-width="1" x1="299.7" x2="299.7" y1="643.29778125" y2="532.0231875" /><line stroke="#000000" stroke-dasharray="3,1" stroke-width="1" x1="337.05" x2="337.05" y1="653.017828125" y2="536.73221875" /><line stroke="#000000" stroke-dasharray="3,1" stroke-width="1" x1="374.4" x2="374.4" y1="640.0469375" y2="536.4121875" /><line stroke="#000000" stroke-dasharray="3,1" stroke-width="1" x1="411.75" x2="411.75" y1="635.707265625" y2="544.8436875" /><line stroke="#000000" stroke-dasharray="3,1" stroke-width="1" x1="449.1" x2="449.1" y1="623.26815625" y2="495.992" /><line stroke="#000000" stroke-dasharray="3,1" stroke-width="1" x1="486.45" x2="486.45" y1="647.8720625" y2="501.767" /><path d="M75.6,524.5216875 C87.8236363636,518.587875 102.94537213,502.491710806 116.345454545,504.7423125 S141.702920224,534.544365773 157.090909091,538.2084375 S185.482771597,520.324931595 197.836363636,524.1463125 S221.786571508,565.891981324 238.581818182,563.4163125 S260.447391719,517.57979652 279.327272727,512.1343125 S305.315397107,538.871486751 320.072727273,539.9120625 S347.168751728,515.27358707 360.818181818,517.8804375 S385.890182558,561.040432398 401.563636364,555.4756875 S423.49129877,502.863351894 442.309090909,488.9476875 S470.839485534,493.27885215 483.054545455,495.2135625 S511.576363636,499.8624375 523.8,501.8548125" fill="none" stroke="#000000" stroke-width="3" /><line stroke="#000000" stroke-dasharray="3,1" stroke-width="1" x1="112.95" x2="112.95" y1="500.39059375" y2="386.576925" /><line stroke="#000000" stroke-dasharray="3,1" stroke-width="1" x1="150.3" x2="150.3" y1="526.63075" y2="375.881625" /><line stroke="#000000" stroke-dasharray="3,1" stroke-width="1" x1="187.65" x2="187.65" y1="521.66184375" y2="376.4389125" /><line stroke="#000000" stroke-dasharray="3,1" stroke-width="1" x1="225.0" x2="225.0" y1="544.3263125" y2="376.0770125" /><line stroke="#000000" stroke-dasharray="3,1" stroke-width="1" x1="262.35" x2="262.35" y1="527.5018125" y2="377.7055625" /><line stroke="#000000" stroke-dasharray="3,1" stroke-width="1" x1="299.7" x2="299.7" y1="520.0231875" y2="369.1104375" /><line stroke="#000000" stroke-dasharray="3,1" stroke-width="1" x1="337.05" x2="337.05" y1="524.73221875" y2="368.58346875" /><line stroke="#000000" stroke-dasharray="3,1" stroke-width="1" x1="374.4" x2="374.4" y1="524.4121875" y2="373.4416875" /><line stroke="#000000" stroke-dasharray="3,1" stroke-width="1" x1="411.75" x2="411.75" y1="532.8436875" y2="359.3564625" /><line stroke="#000000" stroke-dasharray="3,1" stroke-width="1" x1="449.1" x2="449.1" y1="483.992" y2="364.399" /><line stroke="#000000" stroke-dasharray="3,1" stroke-width="1" x1="486.45" x2="486.45" y1="489.767" y2="343.041125" /><path d="M75.6,414.5310375 C87.8236363636,403.4187825 101.972441297,385.633650356 116.345454545,377.4901875 S144.602100388,369.334343649 157.090909091,368.3599125 S185.58577751,370.953071572 197.836363636,371.1319125 S226.353080399,369.232382683 238.581818182,369.5495625 S267.299698925,375.691823283 279.327272727,373.2455625 S306.427998183,352.508271644 320.072727273,352.9753125 S346.780564301,376.50343879 360.818181818,376.0348875 S387.28982043,352.598013368 401.563636364,350.2552875 S429.694979734,364.697235056 442.309090909,362.6599875 S469.316560416,341.511136185 483.054545455,337.0940625 S511.576363636,336.6493875 523.8,336.4588125" fill="none" stroke="#000000" stroke-width="3" /><line stroke="#000000" stroke-dasharray="3,1" stroke-width="1" x1="112.95" x2="112.95" y1="374.576925" y2="278.1253125" /><line stroke="#000000" stroke-dasharray="3,1" stroke-width="1" x1="150.3" x2="150.3" y1="363.881625" y2="278.58009375" /><line stroke="#000000" stroke-dasharray="3,1" stroke-width="1" x1="187.65" x2="187.65" y1="364.4389125" y2="276.742921875" /><line stroke="#000000" stroke-dasharray="3,1" stroke-width="1" x1="225.0" x2="225.0" y1="364.0770125" y2="266.235" /><line stroke="#000000" stroke-dasharray="3,1" stroke-width="1" x1="262.35" x2="262.35" y1="365.7055625" y2="261.908046875" /><line stroke="#000000" stroke-dasharray="3,1" stroke-width="1" x1="299.7" x2="299.7" y1="357.1104375" y2="266.098875" /><line stroke="#000000" stroke-dasharray="3,1" stroke-width="1" x1="337.05" x2="337.05" y1="356.58346875" y2="273.8999375" /><line stroke="#000000" stroke-dasharray="3,1" stroke-width="1" x1="374.4" x2="374.4" y1="361.4416875" y2="284.0543125" /><line stroke="#000000" stroke-dasharray="3,1" stroke-width="1" x1="411.75" x2="411.75" y1="347.3564625" y2="291.73265625" /><line stroke="#000000" stroke-dasharray="3,1" stroke-width="1" x1="449.1" x2="449.1" y1="352.399" y2="288.0775625" /><line stroke="#000000" stroke-dasharray="3,1" stroke-width="1" x1="486.45" x2="486.45" y1="331.041125" y2="291.56215625" /><path d="M75.6,283.401 C87.8236363636,279.710775 103.682118167,272.735779968 116.345454545,271.10025 S144.856720298,273.036457096 157.090909091,272.8760625 S185.857307454,272.610158372 197.836363636,270.031875 S225.767704216,257.493288739 238.581818182,255.3365625 S267.166773752,255.041129807 279.327272727,256.31625 S307.908472724,261.312615434 320.072727273,263.8815 S348.738031713,270.082161812 360.818181818,273.52575 S388.741154464,285.841545647 401.563636364,287.1114375 S429.980394744,281.99384384 442.309090909,281.5963125 S471.025050877,282.147376065 483.054545455,284.4838125 S511.576363636,293.5419 523.8,297.4239375" fill="none" stroke="#000000" stroke-width="3" /><line stroke="#000000" stroke-dasharray="3,1" stroke-width="1" x1="112.95" x2="112.95" y1="266.1253125" y2="101.93246875" /><line stroke="#000000" stroke-dasharray="3,1" stroke-width="1" x1="150.3" x2="150.3" y1="266.58009375" y2="100.6355" /><line stroke="#000000" stroke-dasharray="3,1" stroke-width="1" x1="187.65" x2="187.65" y1="264.742921875" y2="96.082875" /><line stroke="#000000" stroke-dasharray="3,1" stroke-width="1" x1="225.0" x2="225.0" y1="254.235" y2="105.1351875" /><line stroke="#000000" stroke-dasharray="3,1" stroke-width="1" x1="262.35" x2="262.35" y1="249.908046875" y2="97.1705" /><line stroke="#000000" stroke-dasharray="3,1" stroke-width="1" x1="299.7" x2="299.7" y1="254.098875" y2="84.2874375" /><line stroke="#000000" stroke-dasharray="3,1" stroke-width="1" x1="337.05" x2="337.05" y1="261.8999375" y2="77.52828125" /><line stroke="#000000" stroke-dasharray="3,1" stroke-width="1" x1="374.4" x2="374.4" y1="272.0543125" y2="67.0201875" /><line stroke="#000000" stroke-dasharray="3,1" stroke-width="1" x1="411.75" x2="411.75" y1="279.73265625" y2="52.0918125" /><line stroke="#000000" stroke-dasharray="3,1" stroke-width="1" x1="449.1" x2="449.1" y1="276.0775625" y2="44.492875" /><line stroke="#000000" stroke-dasharray="3,1" stroke-width="1" x1="486.45" x2="486.45" y1="279.56215625" y2="57.57565625" /><path d="M75.6,128.9919375 C87.8236363636,118.172475 101.280957537,99.2150657304 116.345454545,92.9270625 S144.87022693,95.6483689999 157.090909091,94.9771875 S185.540216301,87.0180032192 197.836363636,88.4514375 S225.49200866,105.567031182 238.581818182,104.4770625 S266.158434492,86.4439676745 279.327272727,81.6658125 S307.883449232,77.1333864742 320.072727273,74.9090625 S348.920759608,70.5091850466 360.818181818,66.7951875 S389.140675287,54.171392695 401.563636364,49.4701875 S429.433526713,35.6875147383 442.309090909,35.9566875 S470.383742415,48.0579632276 483.054545455,51.1738125 S511.576363636,54.5493 523.8,55.9959375" fill="none" stroke="#000000" stroke-width="3" /></g><g id="labels"><text alignment-baseline="middle" font-size="14" x="533.8" y="642.375">0</text><text alignment-baseline="middle" font-size="14" x="533.8" y="555.75">+10</text><text alignment-baseline="middle" font-size="14" x="533.8" y="469.125">+20</text><text alignment-baseline="middle" font-size="14" x="533.8" y="382.5">+30</text><text alignment-baseline="middle" font-size="14" x="533.8" y="295.875">+40</text><text alignment-baseline="middle" font-size="14" x="533.8" y="209.25">+50</text><text alignment-baseline="middle" font-size="14" x="533.8" y="122.625">+60</text><text alignment-baseline="middle" dominant-baseline="central" font-size="14" transform="rotate(90,569.0,313.2)" x="569.0" y="313.2">Change in mean sea level (mm)</text><text alignment-baseline="middle" font-size="14" text-anchor="middle" x="94.275" y="742.5">Jan</text><text alignment-baseline="middle" font-size="14" text-anchor="middle" x="131.625" y="742.5">Feb</text><text alignment-baseline="middle" font-size="14" text-anchor="middle" x="168.975" y="742.5">Mar</text><text alignment-baseline="middle" font-size="14" text-anchor="middle" x="206.325" y="742.5">Apr</text><text alignment-baseline="middle" font-size="14" text-anchor="middle" x="243.675" y="742.5">May</text><text alignment-baseline="middle" font-size="14" text-anchor="middle" x="281.025" y="742.5">Jun</text><text alignment-baseline="middle" font-size="14" text-anchor="middle" x="318.375" y="742.5">Jul</text><text alignment-baseline="middle" font-size="14" text-anchor="middle" x="355.725" y="742.5">Aug</text><text alignment-baseline="middle" font-size="14" text-anchor="middle" x="393.075" y="742.5">Sep</text><text alignment-baseline="middle" font-size="14" text-anchor="middle" x="430.425" y="742.5">Oct</text><text alignment-baseline="middle" font-size="14" text-anchor="middle" x="467.775" y="742.5">Nov</text><text alignment-baseline="middle" font-size="14" text-anchor="middle" x="505.125" y="742.5">Dec</text><text alignment-baseline="middle" font-size="14" text-anchor="end" x="65.6" y="654.6035625">1995</text><text alignment-baseline="middle" font-size="14" text-anchor="middle" x="94.275" y="688.003515625">Y</text><text alignment-baseline="middle" font-size="14" text-anchor="middle" x="131.625" y="684.218484375">Y</text><text alignment-baseline="middle" font-size="14" text-anchor="middle" x="168.975" y="681.8375">Y</text><text alignment-baseline="middle" font-size="14" text-anchor="middle" x="206.325" y="677.242765625">Y</text><text alignment-baseline="middle" font-size="14" text-anchor="middle" x="243.675" y="690.930117187">Y</text><text alignment-baseline="middle" font-size="14" text-anchor="middle" x="281.025" y="680.185910156">Y</text><text alignment-baseline="middle" font-size="14" text-anchor="middle" x="318.375" y="698.111871094">Y</text><text alignment-baseline="middle" font-size="14" text-anchor="middle" x="355.725" y="688.599363281">Y</text><text alignment-baseline="middle" font-size="14" text-anchor="middle" x="393.075" y="688.072695312">Y</text><text alignment-baseline="middle" font-size="14" text-anchor="middle" x="430.425" y="679.910996094">Y</text><text alignment-baseline="middle" font-size="14" text-anchor="middle" x="467.775" y="686.522167969">Y</text><text alignment-baseline="middle" font-size="14" text-anchor="middle" x="505.125" y="685.215875">G</text><text alignment-baseline="middle" font-size="14" text-anchor="end" x="65.6" y="524.5216875">2000</text><text alignment-baseline="middle" font-size="14" text-anchor="middle" x="94.275" y="581.231585937">G</text><text alignment-baseline="middle" font-size="14" text-anchor="middle" x="131.625" y="578.364539062">Y</text><text alignment-baseline="middle" font-size="14" text-anchor="middle" x="168.975" y="584.390992187">Y</text><text alignment-baseline="middle" font-size="14" text-anchor="middle" x="206.325" y="578.906546875">Y</text><text alignment-baseline="middle" font-size="14" text-anchor="middle" x="243.675" y="604.933148437">Y</text><text alignment-baseline="middle" font-size="14" text-anchor="middle" x="281.025" y="572.331769531">Y</text><text alignment-baseline="middle" font-size="14" text-anchor="middle" x="318.375" y="602.989199219">Y</text><text alignment-baseline="middle" font-size="14" text-anchor="middle" x="355.725" y="584.416558594">Y</text><text alignment-baseline="middle" font-size="14" text-anchor="middle" x="393.075" y="597.394367187">Y</text><text alignment-baseline="middle" font-size="14" text-anchor="middle" x="430.425" y="569.586839844">Y</text><text alignment-baseline="middle" font-size="14" text-anchor="middle" x="467.775" y="568.454097656">Y</text><text alignment-baseline="middle" font-size="14" text-anchor="middle" x="505.125" y="570.121328125">Y</text><text alignment-baseline="middle" font-size="14" text-anchor="end" x="65.6" y="414.5310375">2005</text><text alignment-baseline="middle" font-size="14" text-anchor="middle" x="94.275" y="456.505060938">O</text><text alignment-baseline="middle" font-size="14" text-anchor="middle" x="131.625" y="445.679221875">O</text><text alignment-baseline="middle" font-size="14" text-anchor="middle" x="168.975" y="451.637698438">O</text><text alignment-baseline="middle" font-size="14" text-anchor="middle" x="206.325" y="451.564909375">O</text><text alignment-baseline="middle" font-size="14" text-anchor="middle" x="243.675" y="463.5088125">O</text><text alignment-baseline="middle" font-size="14" text-anchor="middle" x="281.025" y="442.84634375">O</text><text alignment-baseline="middle" font-size="14" text-anchor="middle" x="318.375" y="446.28728125">O</text><text alignment-baseline="middle" font-size="14" text-anchor="middle" x="355.725" y="446.893415625">R</text><text alignment-baseline="middle" font-size="14" text-anchor="middle" x="393.075" y="451.634690625">O</text><text alignment-baseline="middle" font-size="14" text-anchor="middle" x="430.425" y="433.69681875">O</text><text alignment-baseline="middle" font-size="14" text-anchor="middle" x="467.775" y="419.772571875">O</text><text alignment-baseline="middle" font-size="14" text-anchor="middle" x="505.125" y="417.7804375">O</text><text alignment-baseline="middle" font-size="14" text-anchor="end" x="65.6" y="283.401">2010</text><text alignment-baseline="middle" font-size="14" text-anchor="middle" x="94.275" y="337.65856875">R</text><text alignment-baseline="middle" font-size="14" text-anchor="middle" x="131.625" y="322.916257031">R</text><text alignment-baseline="middle" font-size="14" text-anchor="middle" x="168.975" y="320.607460156">R</text><text alignment-baseline="middle" font-size="14" text-anchor="middle" x="206.325" y="318.886303906">R</text><text alignment-baseline="middle" font-size="14" text-anchor="middle" x="243.675" y="312.735292969">R</text><text alignment-baseline="middle" font-size="14" text-anchor="middle" x="281.025" y="314.51621875">R</text><text alignment-baseline="middle" font-size="14" text-anchor="middle" x="318.375" y="308.69309375">R</text><text alignment-baseline="middle" font-size="14" text-anchor="middle" x="355.725" y="322.736329688">O</text><text alignment-baseline="middle" font-size="14" text-anchor="middle" x="393.075" y="319.953561719">O</text><text alignment-baseline="middle" font-size="14" text-anchor="middle" x="430.425" y="321.123420313">O</text><text alignment-baseline="middle" font-size="14" text-anchor="middle" x="467.775" y="315.041142187">O</text><text alignment-baseline="middle" font-size="14" text-anchor="middle" x="505.125" y="314.121507812">O</text><text alignment-baseline="middle" font-size="14" text-anchor="end" x="65.6" y="128.9919375">2015</text><text alignment-baseline="middle" font-size="14" text-anchor="middle" x="94.275" y="195.112679687">R</text><text alignment-baseline="middle" font-size="14" text-anchor="middle" x="131.625" y="182.731019531">R</text><text alignment-baseline="middle" font-size="14" text-anchor="middle" x="168.975" y="182.560175781">R</text><text alignment-baseline="middle" font-size="14" text-anchor="middle" x="206.325" y="179.380230469">R</text><text alignment-baseline="middle" font-size="14" text-anchor="middle" x="243.675" y="178.542339844">R</text><text alignment-baseline="middle" font-size="14" text-anchor="middle" x="281.025" y="169.007875">V</text><text alignment-baseline="middle" font-size="14" text-anchor="middle" x="318.375" y="169.3784375">V</text><text alignment-baseline="middle" font-size="14" text-anchor="middle" x="355.725" y="170.064820312">V</text><text alignment-baseline="middle" font-size="14" text-anchor="middle" x="393.075" y="168.680324219">V</text><text alignment-baseline="middle" font-size="14" text-anchor="middle" x="430.425" y="161.551507813">V</text><text alignment-baseline="middle" font-size="14" text-anchor="middle" x="467.775" y="164.434195313">V</text><text alignment-baseline="middle" font-size="14" text-anchor="middle" x="505.125" y="172.639421875">V</text></g><rect fill="none" height="720.0" stroke="#000000" stroke-width="1" width="540.0" x="36.0" y="36.0" /></svg>