<?xml version="1.0" encoding="utf-8" ?>
<svg baseProfile="full" height="1235" version="1.1" width="1000" xmlns="http://www.w3.org/2000/svg" xmlns:ev="http://www.w3.org/2001/xml-events" xmlns:xlink="http://www.w3.org/1999/xlink"><defs /><g id="axis"><rect fill="none" height="1035" stroke="#000000" stroke-width="2" width="800" x="100" y="100" /><line stroke="#000000" stroke-width="2" x1="900" x2="910" y1="1005.625" y2="1005.625" /><line stroke="#000000" stroke-width="2" x1="900" x2="910" y1="876.25" y2="876.25" /><line stroke="#000000" stroke-width="2" x1="900" x2="910" y1="746.875" y2="746.875" /><line stroke="#000000" stroke-width="2" x1="900" x2="910" y1="617.5" y2="617.5" /><line stroke="#000000" stroke-width="2" x1="900" x2="910" y1="488.125" y2="488.125" /><line stroke="#000000" stroke-width="2" x1="900" x2="910" y1="358.75" y2="358.75" /><line stroke="#000000" stroke-width="2" x1="900" x2="910" y1="229.375" y2="229.375" /></g><g id="data"><polyline fill="none" points="100.0,1080.533125 123.07010876,1072.98930494 173.468401117,1062.08095955 245.456221781,1052.85026862 318.181818182,1045.79668078 390.909090909,1062.09159643 463.636363636,1063.75914212 536.363636364,1081.88470914 609.090909091,1074.31528231 681.818181818,1062.24494497 754.543778219,1053.03417407 826.531598883,1063.69106621 876.92989124,1054.23847795 900.0,1042.28125" stroke="#000000" stroke-width="2" /><polyline fill="none" points="100.0,886.255 123.07010876,877.693039434 173.468401117,873.978549522 245.456221781,891.669847491 318.181818182,902.297886437 390.909090909,914.751128932 463.636363636,892.469118034 536.363636364,894.302117431 609.090909091,894.728134609 681.818181818,897.824038726 754.543778219,857.02773795 826.531598883,843.635272285 876.92989124,849.263727637 900.0,852.401875" stroke="#000000" stroke-width="2" /><polyline fill="none" points="100.0,721.98325 123.07010876,704.859931403 173.468401117,675.876152219 245.456221781,657.57905505 318.181818182,655.912298907 390.909090909,656.233909427 463.636363636,652.870615748 536.363636364,643.647427067 609.090909091,648.691369987 681.818181818,638.06896837 754.543778219,632.163066261 826.531598883,614.321342674 876.92989124,606.060959579 900.0,605.381875" stroke="#000000" stroke-width="2" /><polyline fill="none" points="100.0,526.1396875 123.07010876,520.526150507 173.468401117,512.34667056 245.456221781,508.813112586 318.181818182,502.15797574 390.909090909,489.592818202 463.636363636,488.155715724 536.363636364,497.826189519 609.090909091,512.483200419 681.818181818,525.126137494 754.543778219,526.239224318 826.531598883,531.144257607 876.92989124,541.105793254 900.0,547.083035714" stroke="#000000" stroke-width="2" /><polyline fill="none" points="100.0,295.52875 123.07010876,279.022412778 173.468401117,254.084920681 245.456221781,242.673948359 318.181818182,242.187016129 390.909090909,245.965190855 463.636363636,229.684491493 536.363636364,214.36852052 609.090909091,199.470029844 681.818181818,178.443443592 754.543778219,166.603338933 826.531598883,176.107521245 876.92989124,184.066995745 900.0,186.50875" stroke="#000000" stroke-width="2" /></g><g id="labels"><text alignment-baseline="middle" font-size="16" x="915" y="1005.625">-10 mm</text><text alignment-baseline="middle" font-size="16" x="915" y="876.25">0 mm</text><text alignment-baseline="middle" font-size="16" x="915" y="746.875">+10 mm</text><text alignment-baseline="middle" font-size="16" x="915" y="617.5">+20 mm</text><text alignment-baseline="middle" font-size="16" x="915" y="488.125">+30 mm</text><text alignment-baseline="middle" font-size="16" x="915" y="358.75">+40 mm</text><text alignment-baseline="middle" font-size="16" x="915" y="229.375">+50 mm</text><text alignment-baseline="middle" font-size="16" text-anchor="end" x="90.0" y="1080.533125">1995</text><text alignment-baseline="middle" font-size="16" text-anchor="end" x="90.0" y="886.255">2000</text><text alignment-baseline="middle" font-size="16" text-anchor="end" x="90.0" y="721.98325">2005</text><text alignment-baseline="middle" font-size="16" text-anchor="end" x="90.0" y="526.1396875">2010</text><text alignment-baseline="middle" font-size="16" text-anchor="end" x="90.0" y="295.52875">2015</text></g></svg>