<?xml version="1.0" encoding="utf-8" ?>
<svg baseProfile="full" height="1235" version="1.1" width="1000" xmlns="http://www.w3.org/2000/svg" xmlns:ev="http://www.w3.org/2001/xml-events" xmlns:xlink="http://www.w3.org/1999/xlink"><defs /><g id="axis"><line stroke="#000000" stroke-width="2" x1="900" x2="910" y1="1005.625" y2="1005.625" /><line stroke="#000000" stroke-width="2" x1="900" x2="910" y1="876.25" y2="876.25" /><line stroke="#000000" stroke-width="2" x1="900" x2="910" y1="746.875" y2="746.875" /><line stroke="#000000" stroke-width="2" x1="900" x2="910" y1="617.5" y2="617.5" /><line stroke="#000000" stroke-width="2" x1="900" x2="910" y1="488.125" y2="488.125" /><line stroke="#000000" stroke-width="2" x1="900" x2="910" y1="358.75" y2="358.75" /><line stroke="#000000" stroke-width="2" x1="900" x2="910" y1="229.375" y2="229.375" /><polyline fill="none" points="100.0,295.52875 100,1135 900,1135 900.0,186.50875" stroke="#000000" stroke-width="2" /></g><g id="data"><line stroke="#000000" stroke-dasharray="5,2" stroke-width="2" x1="166.666666667" x2="166.666666667" y1="1129" y2="1069.55314571" /><line stroke="#000000" stroke-dasharray="5,2" stroke-width="2" x1="233.333333333" x2="233.333333333" y1="1129" y2="1060.40473485" /><line stroke="#000000" stroke-dasharray="5,2" stroke-width="2" x1="300.0" x2="300.0" y1="1129" y2="1053.56011839" /><line stroke="#000000" stroke-dasharray="5,2" stroke-width="2" x1="366.666666667" x2="366.666666667" y1="1129" y2="1062.65995788" /><line stroke="#000000" stroke-dasharray="5,2" stroke-width="2" x1="433.333333333" x2="433.333333333" y1="1129" y2="1069.06433142" /><line stroke="#000000" stroke-dasharray="5,2" stroke-width="2" x1="500.0" x2="500.0" y1="1129" y2="1078.82192563" /><line stroke="#000000" stroke-dasharray="5,2" stroke-width="2" x1="566.666666667" x2="566.666666667" y1="1129" y2="1084.7307813" /><line stroke="#000000" stroke-dasharray="5,2" stroke-width="2" x1="633.333333333" x2="633.333333333" y1="1129" y2="1076.29183653" /><line stroke="#000000" stroke-dasharray="5,2" stroke-width="2" x1="700.0" x2="700.0" y1="1129" y2="1065.94219916" /><line stroke="#000000" stroke-dasharray="5,2" stroke-width="2" x1="766.666666667" x2="766.666666667" y1="1129" y2="1060.82881535" /><line stroke="#000000" stroke-dasharray="5,2" stroke-width="2" x1="833.333333333" x2="833.333333333" y1="1129" y2="1068.41534848" /><polyline fill="none" points="100.0,1080.533125 123.07010876,1072.98930494 173.468401117,1062.08095955 245.456221781,1052.85026862 318.181818182,1045.79668078 390.909090909,1062.09159643 463.636363636,1063.75914212 536.363636364,1081.88470914 609.090909091,1074.31528231 681.818181818,1062.24494497 754.543778219,1053.03417407 826.531598883,1063.69106621 876.92989124,1054.23847795 900.0,1042.28125" stroke="#000000" stroke-width="2" /><line stroke="#000000" stroke-dasharray="5,2" stroke-width="2" x1="166.666666667" x2="166.666666667" y1="1057.55314571" y2="880.479855674" /><line stroke="#000000" stroke-dasharray="5,2" stroke-width="2" x1="233.333333333" x2="233.333333333" y1="1048.40473485" y2="894.690598643" /><line stroke="#000000" stroke-dasharray="5,2" stroke-width="2" x1="300.0" x2="300.0" y1="1041.56011839" y2="905.640815457" /><line stroke="#000000" stroke-dasharray="5,2" stroke-width="2" x1="366.666666667" x2="366.666666667" y1="1050.65995788" y2="916.600048101" /><line stroke="#000000" stroke-dasharray="5,2" stroke-width="2" x1="433.333333333" x2="433.333333333" y1="1057.06433142" y2="907.753289241" /><line stroke="#000000" stroke-dasharray="5,2" stroke-width="2" x1="500.0" x2="500.0" y1="1066.82192563" y2="899.385617732" /><line stroke="#000000" stroke-dasharray="5,2" stroke-width="2" x1="566.666666667" x2="566.666666667" y1="1072.7307813" y2="900.479624588" /><line stroke="#000000" stroke-dasharray="5,2" stroke-width="2" x1="633.333333333" x2="633.333333333" y1="1064.29183653" y2="901.760102648" /><line stroke="#000000" stroke-dasharray="5,2" stroke-width="2" x1="700.0" x2="700.0" y1="1053.94219916" y2="893.624728443" /><line stroke="#000000" stroke-dasharray="5,2" stroke-width="2" x1="766.666666667" x2="766.666666667" y1="1048.82881535" y2="860.772420789" /><line stroke="#000000" stroke-dasharray="5,2" stroke-width="2" x1="833.333333333" x2="833.333333333" y1="1056.41534848" y2="850.394886488" /><polyline fill="none" points="100.0,886.255 123.07010876,877.693039434 173.468401117,873.978549522 245.456221781,891.669847491 318.181818182,902.297886437 390.909090909,914.751128932 463.636363636,892.469118034 536.363636364,894.302117431 609.090909091,894.728134609 681.818181818,897.824038726 754.543778219,857.02773795 826.531598883,843.635272285 876.92989124,849.263727637 900.0,852.401875" stroke="#000000" stroke-width="2" /><line stroke="#000000" stroke-dasharray="5,2" stroke-width="2" x1="166.666666667" x2="166.666666667" y1="868.479855674" y2="685.787792081" /><line stroke="#000000" stroke-dasharray="5,2" stroke-width="2" x1="233.333333333" x2="233.333333333" y1="882.690598643" y2="666.660321657" /><line stroke="#000000" stroke-dasharray="5,2" stroke-width="2" x1="300.0" x2="300.0" y1="893.640815457" y2="662.328997548" /><line stroke="#000000" stroke-dasharray="5,2" stroke-width="2" x1="366.666666667" x2="366.666666667" y1="904.600048101" y2="662.126705921" /><line stroke="#000000" stroke-dasharray="5,2" stroke-width="2" x1="433.333333333" x2="433.333333333" y1="895.753289241" y2="660.271988114" /><line stroke="#000000" stroke-dasharray="5,2" stroke-width="2" x1="500.0" x2="500.0" y1="887.385617732" y2="654.259021407" /><line stroke="#000000" stroke-dasharray="5,2" stroke-width="2" x1="566.666666667" x2="566.666666667" y1="888.479624588" y2="651.74906995" /><line stroke="#000000" stroke-dasharray="5,2" stroke-width="2" x1="633.333333333" x2="633.333333333" y1="889.760102648" y2="651.150569448" /><line stroke="#000000" stroke-dasharray="5,2" stroke-width="2" x1="700.0" x2="700.0" y1="881.624728443" y2="642.59245881" /><line stroke="#000000" stroke-dasharray="5,2" stroke-width="2" x1="766.666666667" x2="766.666666667" y1="848.772420789" y2="635.158485447" /><line stroke="#000000" stroke-dasharray="5,2" stroke-width="2" x1="833.333333333" x2="833.333333333" y1="838.394886488" y2="619.2065245" /><polyline fill="none" points="100.0,721.98325 123.07010876,704.859931403 173.468401117,675.876152219 245.456221781,657.57905505 318.181818182,655.912298907 390.909090909,656.233909427 463.636363636,652.870615748 536.363636364,643.647427067 609.090909091,648.691369987 681.818181818,638.06896837 754.543778219,632.163066261 826.531598883,614.321342674 876.92989124,606.060959579 900.0,605.381875" stroke="#000000" stroke-width="2" /><line stroke="#000000" stroke-dasharray="5,2" stroke-width="2" x1="166.666666667" x2="166.666666667" y1="673.787792081" y2="519.450570076" /><line stroke="#000000" stroke-dasharray="5,2" stroke-width="2" x1="233.333333333" x2="233.333333333" y1="654.660321657" y2="515.408170594" /><line stroke="#000000" stroke-dasharray="5,2" stroke-width="2" x1="300.0" x2="300.0" y1="650.328997548" y2="509.821798302" /><line stroke="#000000" stroke-dasharray="5,2" stroke-width="2" x1="366.666666667" x2="366.666666667" y1="650.126705921" y2="499.781204048" /><line stroke="#000000" stroke-dasharray="5,2" stroke-width="2" x1="433.333333333" x2="433.333333333" y1="648.271988114" y2="494.754508423" /><line stroke="#000000" stroke-dasharray="5,2" stroke-width="2" x1="500.0" x2="500.0" y1="642.259021407" y2="498.990952621" /><line stroke="#000000" stroke-dasharray="5,2" stroke-width="2" x1="566.666666667" x2="566.666666667" y1="639.74906995" y2="509.933277394" /><line stroke="#000000" stroke-dasharray="5,2" stroke-width="2" x1="633.333333333" x2="633.333333333" y1="639.150569448" y2="522.697512778" /><line stroke="#000000" stroke-dasharray="5,2" stroke-width="2" x1="700.0" x2="700.0" y1="630.59245881" y2="531.404415614" /><line stroke="#000000" stroke-dasharray="5,2" stroke-width="2" x1="766.666666667" x2="766.666666667" y1="623.158485447" y2="533.065241425" /><line stroke="#000000" stroke-dasharray="5,2" stroke-width="2" x1="833.333333333" x2="833.333333333" y1="607.2065245" y2="538.488662685" /><polyline fill="none" points="100.0,526.1396875 123.07010876,520.526150507 173.468401117,512.34667056 245.456221781,508.813112586 318.181818182,502.15797574 390.909090909,489.592818202 463.636363636,488.155715724 536.363636364,497.826189519 609.090909091,512.483200419 681.818181818,525.126137494 754.543778219,526.239224318 826.531598883,531.144257607 876.92989124,541.105793254 900.0,547.083035714" stroke="#000000" stroke-width="2" /><line stroke="#000000" stroke-dasharray="5,2" stroke-width="2" x1="166.666666667" x2="166.666666667" y1="507.450570076" y2="263.45047517" /><line stroke="#000000" stroke-dasharray="5,2" stroke-width="2" x1="233.333333333" x2="233.333333333" y1="503.408170594" y2="250.595578202" /><line stroke="#000000" stroke-dasharray="5,2" stroke-width="2" x1="300.0" x2="300.0" y1="497.821798302" y2="248.308751993" /><line stroke="#000000" stroke-dasharray="5,2" stroke-width="2" x1="366.666666667" x2="366.666666667" y1="487.781204048" y2="250.70579928" /><line stroke="#000000" stroke-dasharray="5,2" stroke-width="2" x1="433.333333333" x2="433.333333333" y1="482.754508423" y2="242.468116227" /><line stroke="#000000" stroke-dasharray="5,2" stroke-width="2" x1="500.0" x2="500.0" y1="486.990952621" y2="228.026506006" /><line stroke="#000000" stroke-dasharray="5,2" stroke-width="2" x1="566.666666667" x2="566.666666667" y1="497.933277394" y2="214.160816071" /><line stroke="#000000" stroke-dasharray="5,2" stroke-width="2" x1="633.333333333" x2="633.333333333" y1="510.697512778" y2="198.46116776" /><line stroke="#000000" stroke-dasharray="5,2" stroke-width="2" x1="700.0" x2="700.0" y1="519.404415614" y2="181.483349199" /><line stroke="#000000" stroke-dasharray="5,2" stroke-width="2" x1="766.666666667" x2="766.666666667" y1="521.065241425" y2="174.203861645" /><line stroke="#000000" stroke-dasharray="5,2" stroke-width="2" x1="833.333333333" x2="833.333333333" y1="526.488662685" y2="183.18172891" /><polyline fill="none" points="100.0,295.52875 123.07010876,279.022412778 173.468401117,254.084920681 245.456221781,242.673948359 318.181818182,242.187016129 390.909090909,245.965190855 463.636363636,229.684491493 536.363636364,214.36852052 609.090909091,199.470029844 681.818181818,178.443443592 754.543778219,166.603338933 826.531598883,176.107521245 876.92989124,184.066995745 900.0,186.50875" stroke="#000000" stroke-width="2" /></g><g id="labels"><text alignment-baseline="middle" font-size="16" x="915" y="1005.625">-10 mm</text><text alignment-baseline="middle" font-size="16" x="915" y="876.25">0 mm</text><text alignment-baseline="middle" font-size="16" x="915" y="746.875">+10 mm</text><text alignment-baseline="middle" font-size="16" x="915" y="617.5">+20 mm</text><text alignment-baseline="middle" font-size="16" x="915" y="488.125">+30 mm</text><text alignment-baseline="middle" font-size="16" x="915" y="358.75">+40 mm</text><text alignment-baseline="middle" font-size="16" x="915" y="229.375">+50 mm</text><text alignment-baseline="before-edge" font-size="16" text-anchor="middle" x="133.333333333" y="1145">Jan</text><text alignment-baseline="before-edge" font-size="16" text-anchor="middle" x="200.0" y="1145">Feb</text><text alignment-baseline="before-edge" font-size="16" text-anchor="middle" x="266.666666667" y="1145">Mar</text><text alignment-baseline="before-edge" font-size="16" text-anchor="middle" x="333.333333333" y="1145">Apr</text><text alignment-baseline="before-edge" font-size="16" text-anchor="middle" x="400.0" y="1145">May</text><text alignment-baseline="before-edge" font-size="16" text-anchor="middle" x="466.666666667" y="1145">Jun</text><text alignment-baseline="before-edge" font-size="16" text-anchor="middle" x="533.333333333" y="1145">Jul</text><text alignment-baseline="before-edge" font-size="16" text-anchor="middle" x="600.0" y="1145">Aug</text><text alignment-baseline="before-edge" font-size="16" text-anchor="middle" x="666.666666667" y="1145">Sep</text><text alignment-baseline="before-edge" font-size="16" text-anchor="middle" x="733.333333333" y="1145">Oct</text><text alignment-baseline="before-edge" font-size="16" text-anchor="middle" x="800.0" y="1145">Nov</text><text alignment-baseline="before-edge" font-size="16" text-anchor="middle" x="866.666666667" y="1145">Dec</text><text alignment-baseline="middle" font-size="16" text-anchor="end" x="90.0" y="1080.533125">1995</text><text alignment-baseline="middle" font-size="16" text-anchor="middle" x="133.333333333" y="1107.7665625">G</text><text alignment-baseline="middle" font-size="16" text-anchor="middle" x="200.0" y="1099.27657286">G</text><text alignment-baseline="middle" font-size="16" text-anchor="middle" x="266.666666667" y="1094.70236743">G</text><text alignment-baseline="middle" font-size="16" text-anchor="middle" x="333.333333333" y="1091.28005919">G</text><text alignment-baseline="middle" font-size="16" text-anchor="middle" x="400.0" y="1095.82997894">G</text><text alignment-baseline="middle" font-size="16" text-anchor="middle" x="466.666666667" y="1099.03216571">G</text><text alignment-baseline="middle" font-size="16" text-anchor="middle" x="533.333333333" y="1103.91096281">G</text><text alignment-baseline="middle" font-size="16" text-anchor="middle" x="600.0" y="1106.86539065">G</text><text alignment-baseline="middle" font-size="16" text-anchor="middle" x="666.666666667" y="1102.64591827">G</text><text alignment-baseline="middle" font-size="16" text-anchor="middle" x="733.333333333" y="1097.47109958">G</text><text alignment-baseline="middle" font-size="16" text-anchor="middle" x="800.0" y="1094.91440767">G</text><text alignment-baseline="middle" font-size="16" text-anchor="middle" x="866.666666667" y="1098.70767424">G</text><text alignment-baseline="middle" font-size="16" text-anchor="end" x="90.0" y="886.255">2000</text><text alignment-baseline="middle" font-size="16" text-anchor="middle" x="133.333333333" y="983.3940625">G</text><text alignment-baseline="middle" font-size="16" text-anchor="middle" x="200.0" y="969.016500693">G</text><text alignment-baseline="middle" font-size="16" text-anchor="middle" x="266.666666667" y="971.547666748">G</text><text alignment-baseline="middle" font-size="16" text-anchor="middle" x="333.333333333" y="973.600466922">G</text><text alignment-baseline="middle" font-size="16" text-anchor="middle" x="400.0" y="983.630002991">G</text><text alignment-baseline="middle" font-size="16" text-anchor="middle" x="466.666666667" y="982.408810329">G</text><text alignment-baseline="middle" font-size="16" text-anchor="middle" x="533.333333333" y="983.103771681">G</text><text alignment-baseline="middle" font-size="16" text-anchor="middle" x="600.0" y="986.605202942">G</text><text alignment-baseline="middle" font-size="16" text-anchor="middle" x="666.666666667" y="983.025969589">Y</text><text alignment-baseline="middle" font-size="16" text-anchor="middle" x="733.333333333" y="973.783463803">G</text><text alignment-baseline="middle" font-size="16" text-anchor="middle" x="800.0" y="954.800618068">G</text><text alignment-baseline="middle" font-size="16" text-anchor="middle" x="866.666666667" y="953.405117483">G</text><text alignment-baseline="middle" font-size="16" text-anchor="end" x="90.0" y="721.98325">2005</text><text alignment-baseline="middle" font-size="16" text-anchor="middle" x="133.333333333" y="804.119125">Y</text><text alignment-baseline="middle" font-size="16" text-anchor="middle" x="200.0" y="777.133823877">Y</text><text alignment-baseline="middle" font-size="16" text-anchor="middle" x="266.666666667" y="774.67546015">Y</text><text alignment-baseline="middle" font-size="16" text-anchor="middle" x="333.333333333" y="777.984906502">Y</text><text alignment-baseline="middle" font-size="16" text-anchor="middle" x="400.0" y="783.363377011">O</text><text alignment-baseline="middle" font-size="16" text-anchor="middle" x="466.666666667" y="778.012638678">O</text><text alignment-baseline="middle" font-size="16" text-anchor="middle" x="533.333333333" y="770.82231957">O</text><text alignment-baseline="middle" font-size="16" text-anchor="middle" x="600.0" y="770.114347269">O</text><text alignment-baseline="middle" font-size="16" text-anchor="middle" x="666.666666667" y="770.455336048">O</text><text alignment-baseline="middle" font-size="16" text-anchor="middle" x="733.333333333" y="762.108593626">O</text><text alignment-baseline="middle" font-size="16" text-anchor="middle" x="800.0" y="741.965453118">Y</text><text alignment-baseline="middle" font-size="16" text-anchor="middle" x="866.666666667" y="728.800705494">Y</text><text alignment-baseline="middle" font-size="16" text-anchor="end" x="90.0" y="526.1396875">2010</text><text alignment-baseline="middle" font-size="16" text-anchor="middle" x="133.333333333" y="624.06146875">O</text><text alignment-baseline="middle" font-size="16" text-anchor="middle" x="200.0" y="596.619181079">O</text><text alignment-baseline="middle" font-size="16" text-anchor="middle" x="266.666666667" y="585.034246125">O</text><text alignment-baseline="middle" font-size="16" text-anchor="middle" x="333.333333333" y="580.075397925">R</text><text alignment-baseline="middle" font-size="16" text-anchor="middle" x="400.0" y="574.953954985">O</text><text alignment-baseline="middle" font-size="16" text-anchor="middle" x="466.666666667" y="571.513248269">O</text><text alignment-baseline="middle" font-size="16" text-anchor="middle" x="533.333333333" y="570.624987014">O</text><text alignment-baseline="middle" font-size="16" text-anchor="middle" x="600.0" y="574.841173672">O</text><text alignment-baseline="middle" font-size="16" text-anchor="middle" x="666.666666667" y="580.924041113">O</text><text alignment-baseline="middle" font-size="16" text-anchor="middle" x="733.333333333" y="580.998437212">Y</text><text alignment-baseline="middle" font-size="16" text-anchor="middle" x="800.0" y="578.111863436">Y</text><text alignment-baseline="middle" font-size="16" text-anchor="middle" x="866.666666667" y="572.847593592">Y</text><text alignment-baseline="middle" font-size="16" text-anchor="end" x="90.0" y="295.52875">2015</text><text alignment-baseline="middle" font-size="16" text-anchor="middle" x="133.333333333" y="410.83421875">O</text><text alignment-baseline="middle" font-size="16" text-anchor="middle" x="200.0" y="385.450522623">O</text><text alignment-baseline="middle" font-size="16" text-anchor="middle" x="266.666666667" y="377.001874398">R</text><text alignment-baseline="middle" font-size="16" text-anchor="middle" x="333.333333333" y="373.065275147">R</text><text alignment-baseline="middle" font-size="16" text-anchor="middle" x="400.0" y="369.243501664">R</text><text alignment-baseline="middle" font-size="16" text-anchor="middle" x="466.666666667" y="362.611312325">R</text><text alignment-baseline="middle" font-size="16" text-anchor="middle" x="533.333333333" y="357.508729314">V</text><text alignment-baseline="middle" font-size="16" text-anchor="middle" x="600.0" y="356.047046733">V</text><text alignment-baseline="middle" font-size="16" text-anchor="middle" x="666.666666667" y="354.579340269">V</text><text alignment-baseline="middle" font-size="16" text-anchor="middle" x="733.333333333" y="350.443882406">V</text><text alignment-baseline="middle" font-size="16" text-anchor="middle" x="800.0" y="347.634551535">V</text><text alignment-baseline="middle" font-size="16" text-anchor="middle" x="866.666666667" y="354.835195797">V</text></g></svg>