<?xml version="1.0" encoding="utf-8" ?>
<svg baseProfile="full" height="1235" version="1.1" width="1000" xmlns="http://www.w3.org/2000/svg" xmlns:ev="http://www.w3.org/2001/xml-events" xmlns:xlink="http://www.w3.org/1999/xlink"><defs /><g id="axis"><line stroke="#000000" stroke-width="2" x1="900" x2="910" y1="1005.625" y2="1005.625" /><line stroke="#000000" stroke-width="2" x1="900" x2="910" y1="876.25" y2="876.25" /><line stroke="#000000" stroke-width="2" x1="900" x2="910" y1="746.875" y2="746.875" /><line stroke="#000000" stroke-width="2" x1="900" x2="910" y1="617.5" y2="617.5" /><line stroke="#000000" stroke-width="2" x1="900" x2="910" y1="488.125" y2="488.125" /><line stroke="#000000" stroke-width="2" x1="900" x2="910" y1="358.75" y2="358.75" /><line stroke="#000000" stroke-width="2" x1="900" x2="910" y1="229.375" y2="229.375" /><polyline fill="none" points="100.0,295.52875 100,1135 900,1135 900.0,186.50875" stroke="#000000" stroke-width="2" /></g><g id="data"><line stroke="#000000" stroke-dasharray="5,2" stroke-width="2" x1="166.666666667" x2="166.666666667" y1="1129" y2="1063.8421875" /><line stroke="#000000" stroke-dasharray="5,2" stroke-width="2" x1="233.333333333" x2="233.333333333" y1="1129" y2="1066.45125" /><line stroke="#000000" stroke-dasharray="5,2" stroke-width="2" x1="300.0" x2="300.0" y1="1129" y2="1040.0875" /><line stroke="#000000" stroke-dasharray="5,2" stroke-width="2" x1="366.666666667" x2="366.666666667" y1="1129" y2="1069.570625" /><line stroke="#000000" stroke-dasharray="5,2" stroke-width="2" x1="433.333333333" x2="433.333333333" y1="1129" y2="1065.84390625" /><line stroke="#000000" stroke-dasharray="5,2" stroke-width="2" x1="500.0" x2="500.0" y1="1129" y2="1078.60890625" /><line stroke="#000000" stroke-dasharray="5,2" stroke-width="2" x1="566.666666667" x2="566.666666667" y1="1129" y2="1093.12585937" /><line stroke="#000000" stroke-dasharray="5,2" stroke-width="2" x1="633.333333333" x2="633.333333333" y1="1129" y2="1073.75375" /><line stroke="#000000" stroke-dasharray="5,2" stroke-width="2" x1="700.0" x2="700.0" y1="1129" y2="1067.27242187" /><line stroke="#000000" stroke-dasharray="5,2" stroke-width="2" x1="766.666666667" x2="766.666666667" y1="1129" y2="1048.69453125" /><line stroke="#000000" stroke-dasharray="5,2" stroke-width="2" x1="833.333333333" x2="833.333333333" y1="1129" y2="1085.440625" /><path d="M100.0,1080.533125 C121.818181818,1073.107 149.877055236,1058.78735621 172.727272727,1055.779375 S224.046063128,1065.91758328 245.454545455,1061.385625 S294.045475578,1021.42441287 318.181818182,1024.988125 S363.246622017,1079.35983886 390.909090909,1082.861875 S439.021745695,1040.19509509 463.636363636,1043.4025 S508.727463688,1097.41529915 536.363636364,1101.8153125 S585.399641941,1071.7198195 609.090909091,1066.560625 S660.480431586,1074.81830591 681.818181818,1070.14 S730.362351699,1032.56173333 754.545454545,1034.6696875 S801.14203347,1081.45134406 827.272727273,1082.81875 S878.181818182,1054.4425 900.0,1042.28125" fill="none" stroke="#000000" stroke-width="2" /><line stroke="#000000" stroke-dasharray="5,2" stroke-width="2" x1="166.666666667" x2="166.666666667" y1="1051.8421875" y2="865.17609375" /><line stroke="#000000" stroke-dasharray="5,2" stroke-width="2" x1="233.333333333" x2="233.333333333" y1="1054.45125" y2="904.3659375" /><line stroke="#000000" stroke-dasharray="5,2" stroke-width="2" x1="300.0" x2="300.0" y1="1028.0875" y2="896.94484375" /><line stroke="#000000" stroke-dasharray="5,2" stroke-width="2" x1="366.666666667" x2="366.666666667" y1="1057.570625" y2="930.794375" /><line stroke="#000000" stroke-dasharray="5,2" stroke-width="2" x1="433.333333333" x2="433.333333333" y1="1053.84390625" y2="905.666875" /><line stroke="#000000" stroke-dasharray="5,2" stroke-width="2" x1="500.0" x2="500.0" y1="1066.60890625" y2="894.4975" /><line stroke="#000000" stroke-dasharray="5,2" stroke-width="2" x1="566.666666667" x2="566.666666667" y1="1081.12585937" y2="901.53046875" /><line stroke="#000000" stroke-dasharray="5,2" stroke-width="2" x1="633.333333333" x2="633.333333333" y1="1061.75375" y2="901.0525" /><line stroke="#000000" stroke-dasharray="5,2" stroke-width="2" x1="700.0" x2="700.0" y1="1055.27242187" y2="913.645" /><line stroke="#000000" stroke-dasharray="5,2" stroke-width="2" x1="766.666666667" x2="766.666666667" y1="1036.69453125" y2="840.6846875" /><line stroke="#000000" stroke-dasharray="5,2" stroke-width="2" x1="833.333333333" x2="833.333333333" y1="1073.440625" y2="849.3096875" /><path d="M100.0,886.255 C121.818181818,877.3928125 149.407089789,853.437105885 172.727272727,856.714375 S219.490902712,901.523318729 245.454545455,906.69625 S296.196619763,880.0039272 318.181818182,885.694375 S363.091016901,947.775386703 390.909090909,944.344375 S432.835092855,875.187900751 463.636363636,867.754375 S511.288864681,907.761203676 536.363636364,909.240625 S585.443597901,872.557289588 609.090909091,876.33625 S655.395492583,940.334582333 681.818181818,932.485 S723.132815273,852.561975479 754.545454545,833.125 S805.465341315,839.593024509 827.272727273,842.483125 S878.181818182,849.42625 900.0,852.401875" fill="none" stroke="#000000" stroke-width="2" /><line stroke="#000000" stroke-dasharray="5,2" stroke-width="2" x1="166.666666667" x2="166.666666667" y1="853.17609375" y2="677.2725625" /><line stroke="#000000" stroke-dasharray="5,2" stroke-width="2" x1="233.333333333" x2="233.333333333" y1="892.3659375" y2="661.2990625" /><line stroke="#000000" stroke-dasharray="5,2" stroke-width="2" x1="300.0" x2="300.0" y1="884.94484375" y2="662.131375" /><line stroke="#000000" stroke-dasharray="5,2" stroke-width="2" x1="366.666666667" x2="366.666666667" y1="918.794375" y2="661.590875" /><line stroke="#000000" stroke-dasharray="5,2" stroke-width="2" x1="433.333333333" x2="433.333333333" y1="893.666875" y2="664.023125" /><line stroke="#000000" stroke-dasharray="5,2" stroke-width="2" x1="500.0" x2="500.0" y1="882.4975" y2="651.18625" /><line stroke="#000000" stroke-dasharray="5,2" stroke-width="2" x1="566.666666667" x2="566.666666667" y1="889.53046875" y2="650.39921875" /><line stroke="#000000" stroke-dasharray="5,2" stroke-width="2" x1="633.333333333" x2="633.333333333" y1="889.0525" y2="657.655" /><line stroke="#000000" stroke-dasharray="5,2" stroke-width="2" x1="700.0" x2="700.0" y1="901.645" y2="636.618625" /><line stroke="#000000" stroke-dasharray="5,2" stroke-width="2" x1="766.666666667" x2="766.666666667" y1="828.6846875" y2="644.1496875" /><line stroke="#000000" stroke-dasharray="5,2" stroke-width="2" x1="833.333333333" x2="833.333333333" y1="837.3096875" y2="612.2515625" /><path d="M100.0,721.98325 C121.818181818,705.387025 147.956966858,678.405569838 172.727272727,666.6625 S223.303323681,654.47253655 245.454545455,653.026375 S296.329944729,656.899450951 318.181818182,657.166375 S369.084532306,654.329474107 390.909090909,654.803125 S442.065563296,663.994087618 463.636363636,660.323125 S512.740336612,629.372794467 536.363636364,630.049375 S584.95946216,665.162963034 609.090909091,664.489 S657.360708627,629.345783008 681.818181818,625.987 S732.233297116,647.528710918 754.545454545,644.5135 S803.476456639,612.73253383 827.272727273,606.330625 S878.181818182,605.6665 900.0,605.381875" fill="none" stroke="#000000" stroke-width="2" /><line stroke="#000000" stroke-dasharray="5,2" stroke-width="2" x1="166.666666667" x2="166.666666667" y1="665.2725625" y2="515.299375" /><line stroke="#000000" stroke-dasharray="5,2" stroke-width="2" x1="233.333333333" x2="233.333333333" y1="649.2990625" y2="515.97859375" /><line stroke="#000000" stroke-dasharray="5,2" stroke-width="2" x1="300.0" x2="300.0" y1="650.131375" y2="513.234765625" /><line stroke="#000000" stroke-dasharray="5,2" stroke-width="2" x1="366.666666667" x2="366.666666667" y1="649.590875" y2="497.541116071" /><line stroke="#000000" stroke-dasharray="5,2" stroke-width="2" x1="433.333333333" x2="433.333333333" y1="652.023125" y2="491.078783482" /><line stroke="#000000" stroke-dasharray="5,2" stroke-width="2" x1="500.0" x2="500.0" y1="639.18625" y2="497.3378125" /><line stroke="#000000" stroke-dasharray="5,2" stroke-width="2" x1="566.666666667" x2="566.666666667" y1="638.39921875" y2="508.98875" /><line stroke="#000000" stroke-dasharray="5,2" stroke-width="2" x1="633.333333333" x2="633.333333333" y1="645.655" y2="524.154375" /><line stroke="#000000" stroke-dasharray="5,2" stroke-width="2" x1="700.0" x2="700.0" y1="624.618625" y2="535.62203125" /><line stroke="#000000" stroke-dasharray="5,2" stroke-width="2" x1="766.666666667" x2="766.666666667" y1="632.1496875" y2="530.163125" /><line stroke="#000000" stroke-dasharray="5,2" stroke-width="2" x1="833.333333333" x2="833.333333333" y1="600.2515625" y2="535.367388393" /><path d="M100.0,526.1396875 C121.818181818,520.6283125 150.354022214,510.186282347 172.727272727,507.7684375 S223.623174174,510.660113437 245.454545455,510.420625 S296.672480876,510.046495312 318.181818182,506.1728125 S368.341749932,487.40342825 390.909090909,484.225267857 S441.897279956,483.781089482 463.636363636,485.6884375 S514.620571455,493.14508601 536.363636364,496.9871875 S587.45586415,506.23051024 609.090909091,511.3909375 S659.244160543,529.810599937 681.818181818,531.68125 S732.595773408,524.036579112 754.545454545,523.444375 S805.69925737,524.250845444 827.272727273,527.756875 S878.181818182,541.2851875 900.0,547.083035714" fill="none" stroke="#000000" stroke-width="2" /><line stroke="#000000" stroke-dasharray="5,2" stroke-width="2" x1="166.666666667" x2="166.666666667" y1="503.299375" y2="252.15421875" /><line stroke="#000000" stroke-dasharray="5,2" stroke-width="2" x1="233.333333333" x2="233.333333333" y1="503.97859375" y2="250.2171875" /><line stroke="#000000" stroke-dasharray="5,2" stroke-width="2" x1="300.0" x2="300.0" y1="501.234765625" y2="243.4178125" /><line stroke="#000000" stroke-dasharray="5,2" stroke-width="2" x1="366.666666667" x2="366.666666667" y1="485.541116071" y2="256.9375" /><line stroke="#000000" stroke-dasharray="5,2" stroke-width="2" x1="433.333333333" x2="433.333333333" y1="479.078783482" y2="245.0421875" /><line stroke="#000000" stroke-dasharray="5,2" stroke-width="2" x1="500.0" x2="500.0" y1="485.3378125" y2="225.80125" /><line stroke="#000000" stroke-dasharray="5,2" stroke-width="2" x1="566.666666667" x2="566.666666667" y1="496.98875" y2="215.70640625" /><line stroke="#000000" stroke-dasharray="5,2" stroke-width="2" x1="633.333333333" x2="633.333333333" y1="512.154375" y2="200.0125" /><line stroke="#000000" stroke-dasharray="5,2" stroke-width="2" x1="700.0" x2="700.0" y1="523.62203125" y2="177.716875" /><line stroke="#000000" stroke-dasharray="5,2" stroke-width="2" x1="766.666666667" x2="766.666666667" y1="518.163125" y2="166.3678125" /><line stroke="#000000" stroke-dasharray="5,2" stroke-width="2" x1="833.333333333" x2="833.333333333" y1="523.367388393" y2="185.90703125" /><path d="M100.0,295.52875 C121.818181818,279.3698125 147.095219233,250.617839958 172.727272727,241.665625 S223.64005862,245.729986447 245.454545455,244.7275 S296.2725758,232.844148897 318.181818182,234.98125 S367.995314193,260.512115541 390.909090909,258.915625 S440.581994383,231.846181505 463.636363636,224.846875 S514.588792274,218.080414036 536.363636364,214.755625 S587.689940458,208.227491525 609.090909091,202.6375 S659.740618922,183.753256802 681.818181818,176.7625 S731.906191653,156.183980925 754.545454545,156.58 S804.883096579,174.69998109 827.272727273,179.306875 S878.181818182,184.3481875 900.0,186.50875" fill="none" stroke="#000000" stroke-width="2" /></g><g id="labels"><text alignment-baseline="middle" font-size="16" x="915" y="1005.625">-10 mm</text><text alignment-baseline="middle" font-size="16" x="915" y="876.25">0 mm</text><text alignment-baseline="middle" font-size="16" x="915" y="746.875">+10 mm</text><text alignment-baseline="middle" font-size="16" x="915" y="617.5">+20 mm</text><text alignment-baseline="middle" font-size="16" x="915" y="488.125">+30 mm</text><text alignment-baseline="middle" font-size="16" x="915" y="358.75">+40 mm</text><text alignment-baseline="middle" font-size="16" x="915" y="229.375">+50 mm</text><text alignment-baseline="before-edge" font-size="16" text-anchor="middle" x="133.333333333" y="1145">Jan</text><text alignment-baseline="before-edge" font-size="16" text-anchor="middle" x="200.0" y="1145">Feb</text><text alignment-baseline="before-edge" font-size="16" text-anchor="middle" x="266.666666667" y="1145">Mar</text><text alignment-baseline="before-edge" font-size="16" text-anchor="middle" x="333.333333333" y="1145">Apr</text><text alignment-baseline="before-edge" font-size="16" text-anchor="middle" x="400.0" y="1145">May</text><text alignment-baseline="before-edge" font-size="16" text-anchor="middle" x="466.666666667" y="1145">Jun</text><text alignment-baseline="before-edge" font-size="16" text-anchor="middle" x="533.333333333" y="1145">Jul</text><text alignment-baseline="before-edge" font-size="16" text-anchor="middle" x="600.0" y="1145">Aug</text><text alignment-baseline="before-edge" font-size="16" text-anchor="middle" x="666.666666667" y="1145">Sep</text><text alignment-baseline="before-edge" font-size="16" text-anchor="middle" x="733.333333333" y="1145">Oct</text><text alignment-baseline="before-edge" font-size="16" text-anchor="middle" x="800.0" y="1145">Nov</text><text alignment-baseline="before-edge" font-size="16" text-anchor="middle" x="866.666666667" y="1145">Dec</text><text alignment-baseline="middle" font-size="16" text-anchor="end" x="90.0" y="1080.533125">1995</text><text alignment-baseline="middle" font-size="16" text-anchor="middle" x="133.333333333" y="1107.7665625">G</text><text alignment-baseline="middle" font-size="16" text-anchor="middle" x="200.0" y="1096.42109375">G</text><text alignment-baseline="middle" font-size="16" text-anchor="middle" x="266.666666667" y="1097.725625">G</text><text alignment-baseline="middle" font-size="16" text-anchor="middle" x="333.333333333" y="1084.54375">G</text><text alignment-baseline="middle" font-size="16" text-anchor="middle" x="400.0" y="1099.2853125">G</text><text alignment-baseline="middle" font-size="16" text-anchor="middle" x="466.666666667" y="1097.42195313">G</text><text alignment-baseline="middle" font-size="16" text-anchor="middle" x="533.333333333" y="1103.80445313">G</text><text alignment-baseline="middle" font-size="16" text-anchor="middle" x="600.0" y="1111.06292969">G</text><text alignment-baseline="middle" font-size="16" text-anchor="middle" x="666.666666667" y="1101.376875">G</text><text alignment-baseline="middle" font-size="16" text-anchor="middle" x="733.333333333" y="1098.13621094">G</text><text alignment-baseline="middle" font-size="16" text-anchor="middle" x="800.0" y="1088.84726562">G</text><text alignment-baseline="middle" font-size="16" text-anchor="middle" x="866.666666667" y="1107.2203125">G</text><text alignment-baseline="middle" font-size="16" text-anchor="end" x="90.0" y="886.255">2000</text><text alignment-baseline="middle" font-size="16" text-anchor="middle" x="133.333333333" y="983.3940625">G</text><text alignment-baseline="middle" font-size="16" text-anchor="middle" x="200.0" y="958.509140625">G</text><text alignment-baseline="middle" font-size="16" text-anchor="middle" x="266.666666667" y="979.40859375">G</text><text alignment-baseline="middle" font-size="16" text-anchor="middle" x="333.333333333" y="962.516171875">G</text><text alignment-baseline="middle" font-size="16" text-anchor="middle" x="400.0" y="994.1825">G</text><text alignment-baseline="middle" font-size="16" text-anchor="middle" x="466.666666667" y="979.755390625">G</text><text alignment-baseline="middle" font-size="16" text-anchor="middle" x="533.333333333" y="980.553203125">G</text><text alignment-baseline="middle" font-size="16" text-anchor="middle" x="600.0" y="991.328164062">G</text><text alignment-baseline="middle" font-size="16" text-anchor="middle" x="666.666666667" y="981.403125">Y</text><text alignment-baseline="middle" font-size="16" text-anchor="middle" x="733.333333333" y="984.458710937">G</text><text alignment-baseline="middle" font-size="16" text-anchor="middle" x="800.0" y="938.689609375">G</text><text alignment-baseline="middle" font-size="16" text-anchor="middle" x="866.666666667" y="961.37515625">G</text><text alignment-baseline="middle" font-size="16" text-anchor="end" x="90.0" y="721.98325">2005</text><text alignment-baseline="middle" font-size="16" text-anchor="middle" x="133.333333333" y="804.119125">Y</text><text alignment-baseline="middle" font-size="16" text-anchor="middle" x="200.0" y="765.224328125">Y</text><text alignment-baseline="middle" font-size="16" text-anchor="middle" x="266.666666667" y="776.8325">Y</text><text alignment-baseline="middle" font-size="16" text-anchor="middle" x="333.333333333" y="773.538109375">Y</text><text alignment-baseline="middle" font-size="16" text-anchor="middle" x="400.0" y="790.192625">O</text><text alignment-baseline="middle" font-size="16" text-anchor="middle" x="466.666666667" y="778.845">O</text><text alignment-baseline="middle" font-size="16" text-anchor="middle" x="533.333333333" y="766.841875">O</text><text alignment-baseline="middle" font-size="16" text-anchor="middle" x="600.0" y="769.96484375">O</text><text alignment-baseline="middle" font-size="16" text-anchor="middle" x="666.666666667" y="773.35375">O</text><text alignment-baseline="middle" font-size="16" text-anchor="middle" x="733.333333333" y="769.1318125">O</text><text alignment-baseline="middle" font-size="16" text-anchor="middle" x="800.0" y="736.4171875">Y</text><text alignment-baseline="middle" font-size="16" text-anchor="middle" x="866.666666667" y="724.780625">Y</text><text alignment-baseline="middle" font-size="16" text-anchor="end" x="90.0" y="526.1396875">2010</text><text alignment-baseline="middle" font-size="16" text-anchor="middle" x="133.333333333" y="624.06146875">O</text><text alignment-baseline="middle" font-size="16" text-anchor="middle" x="200.0" y="590.28596875">O</text><text alignment-baseline="middle" font-size="16" text-anchor="middle" x="266.666666667" y="582.638828125">O</text><text alignment-baseline="middle" font-size="16" text-anchor="middle" x="333.333333333" y="581.683070312">R</text><text alignment-baseline="middle" font-size="16" text-anchor="middle" x="400.0" y="573.565995536">O</text><text alignment-baseline="middle" font-size="16" text-anchor="middle" x="466.666666667" y="571.550954241">O</text><text alignment-baseline="middle" font-size="16" text-anchor="middle" x="533.333333333" y="568.26203125">O</text><text alignment-baseline="middle" font-size="16" text-anchor="middle" x="600.0" y="573.693984375">O</text><text alignment-baseline="middle" font-size="16" text-anchor="middle" x="666.666666667" y="584.9046875">O</text><text alignment-baseline="middle" font-size="16" text-anchor="middle" x="733.333333333" y="580.120328125">Y</text><text alignment-baseline="middle" font-size="16" text-anchor="middle" x="800.0" y="581.15640625">Y</text><text alignment-baseline="middle" font-size="16" text-anchor="middle" x="866.666666667" y="567.809475446">Y</text><text alignment-baseline="middle" font-size="16" text-anchor="end" x="90.0" y="295.52875">2015</text><text alignment-baseline="middle" font-size="16" text-anchor="middle" x="133.333333333" y="410.83421875">O</text><text alignment-baseline="middle" font-size="16" text-anchor="middle" x="200.0" y="377.726796875">O</text><text alignment-baseline="middle" font-size="16" text-anchor="middle" x="266.666666667" y="377.097890625">R</text><text alignment-baseline="middle" font-size="16" text-anchor="middle" x="333.333333333" y="372.326289062">R</text><text alignment-baseline="middle" font-size="16" text-anchor="middle" x="400.0" y="371.239308036">R</text><text alignment-baseline="middle" font-size="16" text-anchor="middle" x="466.666666667" y="362.060485491">R</text><text alignment-baseline="middle" font-size="16" text-anchor="middle" x="533.333333333" y="355.56953125">V</text><text alignment-baseline="middle" font-size="16" text-anchor="middle" x="600.0" y="356.347578125">V</text><text alignment-baseline="middle" font-size="16" text-anchor="middle" x="666.666666667" y="356.0834375">V</text><text alignment-baseline="middle" font-size="16" text-anchor="middle" x="733.333333333" y="350.669453125">V</text><text alignment-baseline="middle" font-size="16" text-anchor="middle" x="800.0" y="342.26546875">V</text><text alignment-baseline="middle" font-size="16" text-anchor="middle" x="866.666666667" y="354.637209821">V</text></g></svg>