<svg xmlns="http://www.w3.org/2000/svg" xmlns:xlink="http://www.w3.org/1999/xlink" version="1.1" x="0px" y="0px" viewBox="0 0 24 30" style="enable-background:new 0 0 24 24;" xml:space="preserve"><g><g><path d="M16.201,5.405c0.131-0.125,0.185-0.312,0.139-0.488c-0.087-0.334-0.183-0.646-0.283-0.949H13v2h2.671    C15.843,5.773,16.018,5.58,16.201,5.405z M12,0.033c-1.063,0.252-2,1.298-2.7,2.935H12V0.033z M13,0.038v2.93h2.684    C14.975,1.305,14.046,0.285,13,0.038z M14.885,6.968H13v2h0.703C14.053,8.279,14.445,7.599,14.885,6.968z M12,3.968H8.927    c-0.199,0.61-0.37,1.279-0.51,2H12V3.968z M11.928,12.353c0.02,0,0.039-0.001,0.059-0.003c0.005-0.001,0.008-0.005,0.013-0.005    V9.968H9.767c0.606,0.597,1.19,1.308,1.741,2.157C11.602,12.268,11.76,12.353,11.928,12.353z M19.927,5.208    c-0.084-0.138-0.23-0.227-0.392-0.239c-3.479-0.202-6.216,6.641-7.208,10.796c-2.067-4.612-4.383-6.859-7.054-6.859    c-0.31,0-0.594,0.03-0.847,0.067C4.177,9.011,3.994,9.227,4,9.479c0.006,0.252,0.198,0.46,0.449,0.486    c2.389,0.245,2.756,3.794,2.954,5.701c0.036,0.349,0.067,0.649,0.104,0.879c0.021,0.135,0.042,0.291,0.065,0.462    c0.207,1.539,0.66,4.853,3.429,5.735v0.725c0,0.276,0.224,0.5,0.5,0.5h2c0.276,0,0.5-0.224,0.5-0.5v-0.782    c3.331-1.328,3.719-7.114,3.916-10.08c0.028-0.43,0.053-0.801,0.082-1.087c0.192-1.895,0.575-2.746,1.337-4.44    c0.187-0.416,0.395-0.878,0.625-1.413C20.023,5.517,20.011,5.346,19.927,5.208z M8.554,8.968H12v-2H8.25    C8.187,7.41,8.131,7.864,8.09,8.337C8.074,8.525,8.165,8.706,8.326,8.805C8.404,8.852,8.478,8.917,8.554,8.968z"/></g></g><text x="0" y="39" fill="#000000" font-size="5px" font-weight="bold" font-family="'Helvetica Neue', Helvetica, Arial-Unicode, Arial, Sans-serif">Created by icon 54</text><text x="0" y="44" fill="#000000" font-size="5px" font-weight="bold" font-family="'Helvetica Neue', Helvetica, Arial-Unicode, Arial, Sans-serif">from the Noun Project</text></svg>