<svg xmlns="http://www.w3.org/2000/svg" xmlns:xlink="http://www.w3.org/1999/xlink" version="1.1" baseProfile="tiny" x="0px" y="0px" viewBox="0 0 100 125" xml:space="preserve"><g><g><path fill-rule="evenodd" fill="#000000" d="M72.3,44.3c-10.9,0.6-12.1,12.7-13.1,23.3c-0.9,9.6-1.8,18.6-9.2,18.6    c-7.1,0-8.1-9-9.1-18.6C39.7,57,38.4,44.9,27.7,44.3c1.1-1.2,4.3-3.8,7.9-3.8c2.2,0,4.3,0.9,6.1,2.8c3.4,3.5,6,10.1,7.6,19.7    l0.6,3.3l0.6-3.3c1.6-9.6,4.2-16.2,7.6-19.7c1.8-1.9,3.9-2.8,6.1-2.8C68,40.5,71.1,43,72.3,44.3z"/></g><g><path fill-rule="evenodd" fill="#000000" d="M57.2,42.7C57.2,42.7,57.1,42.8,57.2,42.7c-0.3,0.3-0.5,0.6-0.7,0.8    c-0.1,0.1-0.2,0.2-0.2,0.3c-0.1,0.1-0.2,0.2-0.3,0.4l0,0c-0.1,0.1-0.2,0.3-0.3,0.4c-0.2,0.2-0.3,0.4-0.5,0.7    c-0.1,0.1-0.1,0.2-0.2,0.3c-0.1,0.2-0.3,0.5-0.4,0.7c-0.1,0.1-0.2,0.3-0.2,0.4l0,0c-0.1,0.2-0.2,0.3-0.3,0.5    c-0.1,0.2-0.2,0.3-0.2,0.5c-0.1,0.1-0.1,0.3-0.2,0.4c-0.2,0.4-0.3,0.8-0.5,1.1c-0.1,0.2-0.2,0.4-0.2,0.5c0,0.1-0.1,0.2-0.1,0.3    c-0.1,0.1-0.1,0.3-0.2,0.4c-0.1,0.3-0.3,0.7-0.4,1c-0.1,0.2-0.1,0.4-0.2,0.6c-0.1,0.2-0.1,0.4-0.2,0.6c-0.3,0.9-0.6,1.8-0.8,2.7    c-0.1,0.2-0.1,0.4-0.2,0.6v0c-0.1,0.2-0.1,0.4-0.2,0.7c0,0.1,0,0.2-0.1,0.3c0,0.2-0.1,0.3-0.1,0.5c0,0.1,0,0.2-0.1,0.3    c-0.1,0.6-0.3,1.3-0.4,1.9c-0.1-0.7-0.3-1.3-0.4-1.9c0-0.1,0-0.2-0.1-0.3c0-0.2-0.1-0.3-0.1-0.5c0-0.1,0-0.2-0.1-0.3    c-0.1-0.4-0.2-0.9-0.3-1.3c-0.3-1-0.5-1.9-0.8-2.7c-0.1-0.2-0.1-0.4-0.2-0.6c-0.2-0.6-0.4-1.1-0.6-1.6c-0.1-0.2-0.1-0.4-0.2-0.6    c-0.1-0.2-0.1-0.4-0.2-0.5c-0.1-0.2-0.2-0.4-0.2-0.5c-0.1-0.2-0.2-0.3-0.2-0.5c-0.1-0.2-0.1-0.3-0.2-0.5c-0.1-0.3-0.3-0.5-0.4-0.8    c-0.1-0.1-0.1-0.2-0.2-0.4l0,0c-0.1-0.1-0.2-0.3-0.2-0.4c-0.2-0.3-0.4-0.7-0.6-1c-0.1-0.1-0.1-0.2-0.2-0.3    c-0.1-0.2-0.2-0.3-0.3-0.4c-0.1-0.1-0.2-0.3-0.3-0.4c-0.1-0.1-0.2-0.3-0.3-0.4c-0.1-0.1-0.2-0.2-0.3-0.3c-0.1-0.1-0.2-0.2-0.3-0.3    c-0.1-0.1-0.2-0.2-0.3-0.3c0,0-0.1-0.1-0.1-0.1C45,23,48.4,13.7,50,13.7C51.6,13.7,55,23,57.2,42.7z"/></g></g><text x="0" y="115" fill="#000000" font-size="5px" font-weight="bold" font-family="'Helvetica Neue', Helvetica, Arial-Unicode, Arial, Sans-serif">Created by Philip Glenn</text><text x="0" y="120" fill="#000000" font-size="5px" font-weight="bold" font-family="'Helvetica Neue', Helvetica, Arial-Unicode, Arial, Sans-serif">from the Noun Project</text></svg>