<svg xmlns:dc="http://purl.org/dc/elements/1.1/" xmlns:cc="http://creativecommons.org/ns#" xmlns:rdf="http://www.w3.org/1999/02/22-rdf-syntax-ns#" xmlns:svg="http://www.w3.org/2000/svg" xmlns="http://www.w3.org/2000/svg" xmlns:sodipodi="http://sodipodi.sourceforge.net/DTD/sodipodi-0.dtd" xmlns:inkscape="http://www.inkscape.org/namespaces/inkscape" viewBox="0 0 100 125" version="1.1" x="0px" y="0px"><g transform="translate(0,-952.36216)"><path style="" d="m 93.912902,962.59788 -3.76619,-3.79044 c -4.322759,-4.3512 -20.228053,4.51301 -35.665128,19.86844 L 41.725859,991.3607 c 0.499416,-1.89842 0.903556,-3.82658 1.305126,-5.7429 0.618373,-2.9509 1.327261,-5.93543 1.29563,-8.95025 -0.02693,-2.56702 -1.263338,-7.59714 -1.263338,-7.59714 0,0 -1.375414,5.83333 -2.405618,8.64361 -1.123928,3.06599 -2.511947,6.04518 -4.092247,8.9028 -1.575452,2.84884 -3.366595,5.58789 -5.345138,8.17301 -2.619325,3.42233 -5.797814,6.38577 -8.601959,9.65847 -3.37739,3.9416 -6.992441,7.7217 -9.907839,12.0163 -1.127447,1.6609 -2.093774,3.4336 -2.9025216,5.2707 -0.810037,1.8404 -1.623215,3.7333 -1.930016,5.7205 -0.368367,2.3861 0.706694,7.8874 0.722665,7.9696 -0.37148,0.3414 -0.793383,0.7322 -1.251097,1.1729 -1.352808,1.3027 -2.397854,2.3885 -2.34778,2.4406 l 7.6865956,7.9826 c 0.05008,0.052 1.174695,-0.9513 2.527504,-2.254 0.385379,-0.3711 0.716306,-0.6988 1.032582,-1.0154 0.338104,0.048 4.834577,0.6746 7.161275,0.4048 1.997229,-0.2315 3.919652,-0.9725 5.789268,-1.7127 1.866426,-0.7387 3.674304,-1.6374 5.376522,-2.7012 4.401659,-2.7511 8.315592,-6.2209 12.38193,-9.447 3.376265,-2.6786 6.452105,-5.7375 9.970923,-8.2257 2.658093,-1.8796 5.462817,-3.566 8.369119,-5.0327 2.915237,-1.4713 5.94473,-2.7458 9.050958,-3.7531 2.847198,-0.9234 8.733785,-2.0828 8.733785,-2.0828 0,0 -4.979827,-1.4255 -7.544004,-1.5493 -3.011483,-0.1454 -6.020655,0.4502 -8.9928,0.9567 -2.151542,0.3667 -4.320419,0.7334 -6.448523,1.2365 l 13.750056,-13.67401 c 15.437066,-15.35545 24.388775,-31.22257 20.066015,-35.57376 z" fill="#000000" fill-opacity="1" stroke="none"/></g><text x="0" y="115" fill="#000000" font-size="5px" font-weight="bold" font-family="'Helvetica Neue', Helvetica, Arial-Unicode, Arial, Sans-serif">Created by anbileru adaleru</text><text x="0" y="120" fill="#000000" font-size="5px" font-weight="bold" font-family="'Helvetica Neue', Helvetica, Arial-Unicode, Arial, Sans-serif">from the Noun Project</text></svg>