<svg xmlns="http://www.w3.org/2000/svg" xmlns:xlink="http://www.w3.org/1999/xlink" version="1.1" x="0px" y="0px" viewBox="0 0 100 125" enable-background="new 0 0 100 100" xml:space="preserve"><path d="M53.004,26.405c0.135,0.162,0.219,0.349,0.277,0.544l0.017,0.009c1.724,5.989,1.82,12.477,0.793,18.943  c6.47-1.027,12.958-0.926,18.949,0.799l0.009,0.016c0.195,0.059,0.382,0.144,0.543,0.278c0.565,0.479,1.115,0.982,1.631,1.496  c0.5,0.502,0.965,1.01,1.398,1.52c12.121-16.117,17.226-31.801,11.197-37.828C81.79,6.152,66.107,11.257,49.991,23.38  c0.509,0.432,1.015,0.896,1.515,1.395C52.021,25.29,52.525,25.839,53.004,26.405z M34.346,20.671  c-5.861,2.644-9.584,8.961-11.393,12.813c4.977-1.88,14.952-5.31,25.844-7.153C42.676,20.641,35.672,20.619,34.346,20.671z   M51.021,46.473c1.032-5.919,1.071-11.868-0.289-17.417c-6.541,1.01-12.812,2.649-17.908,4.22  c-2.598,5.152-6.468,10.053-9.916,14.393c-0.943,1.19-1.847,2.327-2.666,3.398C13.086,60.458,9.554,68.473,9.646,75.046  c0.428-1.177,0.999-2.38,1.72-3.604C17.246,61.471,33.77,50.158,51.021,46.473z M13.949,72.966  c-1.676,2.843-3.063,6.645-1.593,10.119l-2.184,2.184c-0.557,0.557-0.208,2.2,1.075,3.483c1.282,1.283,2.927,1.632,3.483,1.075  l1.975-1.976c7.637,5.109,18.454,2.4,32.224-8.098c1.077-0.821,2.219-1.727,3.414-2.676c4.335-3.443,9.23-7.304,14.377-9.901  c1.572-5.101,3.211-11.377,4.222-17.916C49.416,43.977,21.758,59.724,13.949,72.966z M79.326,65.656  c0.045-1.322-0.003-8.362-5.658-14.455c-1.846,10.893-5.273,20.866-7.153,25.844C70.364,75.236,76.682,71.516,79.326,65.656z"/><text x="0" y="115" fill="#000000" font-size="5px" font-weight="bold" font-family="'Helvetica Neue', Helvetica, Arial-Unicode, Arial, Sans-serif">Created by Sergey Demushkin</text><text x="0" y="120" fill="#000000" font-size="5px" font-weight="bold" font-family="'Helvetica Neue', Helvetica, Arial-Unicode, Arial, Sans-serif">from the Noun Project</text></svg>