<?xml version="1.0" encoding="UTF-8" standalone="no"?>
<svg
   xmlns:dc="http://purl.org/dc/elements/1.1/"
   xmlns:cc="http://creativecommons.org/ns#"
   xmlns:rdf="http://www.w3.org/1999/02/22-rdf-syntax-ns#"
   xmlns:svg="http://www.w3.org/2000/svg"
   xmlns="http://www.w3.org/2000/svg"
   viewBox="0 0 58.088963 117.14813"
   version="1.1"
   x="0px"
   y="0px"
   id="svg10"
   width="58.088963"
   height="117.14813">
  <metadata
     id="metadata16">
    <rdf:RDF>
      <cc:Work
         rdf:about="">
        <dc:format>image/svg+xml</dc:format>
        <dc:type
           rdf:resource="http://purl.org/dc/dcmitype/StillImage" />
        <dc:title></dc:title>
      </cc:Work>
    </rdf:RDF>
  </metadata>
  <defs
     id="defs14" />
  <path
     id="path2"
     d="M 31.379343,0.01715347 26.035999,6.1260571e-6 C 19.902583,-0.0201047 14.923785,17.49458 14.866053,39.268169 l -0.05014,17.989182 C 13.826671,55.561824 12.749026,53.912639 11.677936,52.273644 10.02859,49.749786 8.4194683,47.138145 6.2653022,45.028712 4.4311025,43.232597 -1.9253242e-6,40.550038 -1.9253242e-6,40.550038 c 0,0 3.1522226253242,5.097352 4.4109264253242,7.812984 1.3732452,2.962719 2.498373,6.050803 3.4015747,9.188886 0.9004213,3.128447 1.5706927,6.331777 1.9996074,9.558774 0.5678104,4.272095 0.4157474,8.615095 0.7470664,12.912073 0.398956,5.175308 0.515664,10.404469 1.490907,15.502708 0.377208,1.971659 0.9474,3.908443 1.674555,5.779337 0.728576,1.87414 1.492055,3.78763 2.680277,5.40973 1.426752,1.94771 6.076942,5.07753 6.146359,5.12436 -0.02127,0.50408 -0.04326,1.07875 -0.05529,1.71403 -0.03543,1.87772 -0.0066,3.38446 0.06563,3.38589 l 11.079795,0.20931 c 0.07218,0.001 0.157964,-1.50331 0.193396,-3.38103 0.0101,-0.53492 0.01238,-1.00064 0.01215,-1.44815 0.273017,-0.20513 3.895576,-2.94154 5.350023,-4.77755 1.248559,-1.57595 2.083951,-3.45927 2.882569,-5.30469 0.797422,-1.8421 1.440308,-3.755941 1.891738,-5.711811 1.167121,-5.057764 1.481171,-10.278852 2.075309,-15.435384 0.493323,-4.281436 0.505302,-8.619352 1.234059,-12.866956 0.550478,-3.208633 1.341252,-6.384337 2.359204,-9.476517 1.021018,-3.10175 2.261985,-6.145132 3.746152,-9.053836 1.36033,-2.666215 4.702956,-7.648481 4.702956,-7.648481 0,0 -4.52925,2.513289 -6.429937,4.238896 -2.232253,2.026627 -3.938906,4.575586 -5.68238,7.035359 -1.262074,1.780666 -2.536406,3.57359 -3.685457,5.434132 L 42.34496,39.360359 C 42.402672,17.586762 37.512738,0.03719994 31.379329,0.0170969 Z"
     style="fill:#000000;fill-opacity:1;stroke:none" />
  <text
     x="-21.554173"
     y="124.18585"
     font-size="5px"
     font-weight="bold"
     id="text6"
     style="font-weight:bold;font-size:5px;font-family:'Helvetica Neue', Helvetica, Arial-Unicode, Arial, Sans-serif;fill:#000000">Created by anbileru adaleru</text>
  <text
     x="-21.554173"
     y="129.18585"
     font-size="5px"
     font-weight="bold"
     id="text8"
     style="font-weight:bold;font-size:5px;font-family:'Helvetica Neue', Helvetica, Arial-Unicode, Arial, Sans-serif;fill:#000000">from the Noun Project</text>
</svg>
