<?xml version="1.0" encoding="UTF-8" standalone="no"?>
<svg
   xmlns:dc="http://purl.org/dc/elements/1.1/"
   xmlns:cc="http://creativecommons.org/ns#"
   xmlns:rdf="http://www.w3.org/1999/02/22-rdf-syntax-ns#"
   xmlns:svg="http://www.w3.org/2000/svg"
   xmlns="http://www.w3.org/2000/svg"
   height="72.5"
   width="44.599998"
   id="svg16"
   xml:space="preserve"
   viewBox="0 0 44.599998 72.5"
   y="0px"
   x="0px"
   version="1.1"><metadata
     id="metadata22"><rdf:RDF><cc:Work
         rdf:about=""><dc:format>image/svg+xml</dc:format><dc:type
           rdf:resource="http://purl.org/dc/dcmitype/StillImage" /><dc:title></dc:title></cc:Work></rdf:RDF></metadata><defs
     id="defs20" /><path
     style="fill:#000000;fill-rule:evenodd"
     id="path2"
     d="m 44.6,30.6 c -10.9,0.6 -12.1,12.7 -13.1,23.3 -0.9,9.6 -1.8,18.6 -9.2,18.6 -7.1,0 -8.1,-9 -9.1,-18.6 C 12,43.3 10.7,31.2 0,30.6 c 1.1,-1.2 4.3,-3.8 7.9,-3.8 2.2,0 4.3,0.9 6.1,2.8 3.4,3.5 6,10.1 7.6,19.7 l 0.6,3.3 0.6,-3.3 c 1.6,-9.6 4.2,-16.2 7.6,-19.7 1.8,-1.9 3.9,-2.8 6.1,-2.8 3.8,0 6.9,2.5 8.1,3.8 z" /><path
     style="fill:#000000;fill-rule:evenodd"
     id="path6"
     d="m 29.5,29 c 0,0 -0.1,0.1 0,0 -0.3,0.3 -0.5,0.6 -0.7,0.8 -0.1,0.1 -0.2,0.2 -0.2,0.3 -0.1,0.1 -0.2,0.2 -0.3,0.4 l 0,0 c -0.1,0.1 -0.2,0.3 -0.3,0.4 -0.2,0.2 -0.3,0.4 -0.5,0.7 -0.1,0.1 -0.1,0.2 -0.2,0.3 -0.1,0.2 -0.3,0.5 -0.4,0.7 -0.1,0.1 -0.2,0.3 -0.2,0.4 l 0,0 c -0.1,0.2 -0.2,0.3 -0.3,0.5 -0.1,0.2 -0.2,0.3 -0.2,0.5 -0.1,0.1 -0.1,0.3 -0.2,0.4 -0.2,0.4 -0.3,0.8 -0.5,1.1 -0.1,0.2 -0.2,0.4 -0.2,0.5 0,0.1 -0.1,0.2 -0.1,0.3 -0.1,0.1 -0.1,0.3 -0.2,0.4 -0.1,0.3 -0.3,0.7 -0.4,1 -0.1,0.2 -0.1,0.4 -0.2,0.6 -0.1,0.2 -0.1,0.4 -0.2,0.6 -0.3,0.9 -0.6,1.8 -0.8,2.7 -0.1,0.2 -0.1,0.4 -0.2,0.6 l 0,0 c -0.1,0.2 -0.1,0.4 -0.2,0.7 0,0.1 0,0.2 -0.1,0.3 0,0.2 -0.1,0.3 -0.1,0.5 0,0.1 0,0.2 -0.1,0.3 -0.1,0.6 -0.3,1.3 -0.4,1.9 -0.1,-0.7 -0.3,-1.3 -0.4,-1.9 0,-0.1 0,-0.2 -0.1,-0.3 0,-0.2 -0.1,-0.3 -0.1,-0.5 0,-0.1 0,-0.2 -0.1,-0.3 C 21.5,42.5 21.4,42 21.3,41.6 21,40.6 20.8,39.7 20.5,38.9 20.4,38.7 20.4,38.5 20.3,38.3 20.1,37.7 19.9,37.2 19.7,36.7 19.6,36.5 19.6,36.3 19.5,36.1 19.4,35.9 19.4,35.7 19.3,35.6 19.2,35.4 19.1,35.2 19.1,35.1 19,34.9 18.9,34.8 18.9,34.6 18.8,34.4 18.8,34.3 18.7,34.1 18.6,33.8 18.4,33.6 18.3,33.3 18.2,33.2 18.2,33.1 18.1,32.9 l 0,0 C 18,32.8 17.9,32.6 17.9,32.5 17.7,32.2 17.5,31.8 17.3,31.5 17.2,31.4 17.2,31.3 17.1,31.2 17,31 16.9,30.9 16.8,30.8 16.7,30.7 16.6,30.5 16.5,30.4 16.4,30.3 16.3,30.1 16.2,30 16.1,29.9 16,29.8 15.9,29.7 15.8,29.6 15.7,29.5 15.6,29.4 15.5,29.3 15.4,29.2 15.3,29.1 15.3,29.1 15.2,29 15.2,29 17.3,9.3 20.7,0 22.3,0 c 1.6,0 5,9.3 7.2,29 z" /><text
     style="font-weight:bold;font-size:5px;font-family:'Helvetica Neue', Helvetica, Arial-Unicode, Arial, Sans-serif;fill:#000000"
     id="text12"
     font-weight="bold"
     font-size="5px"
     y="115"
     x="0">Created by Philip Glenn</text>
<text
     style="font-weight:bold;font-size:5px;font-family:'Helvetica Neue', Helvetica, Arial-Unicode, Arial, Sans-serif;fill:#000000"
     id="text14"
     font-weight="bold"
     font-size="5px"
     y="120"
     x="0">from the Noun Project</text>
</svg>