<svg xmlns="http://www.w3.org/2000/svg" xmlns:xlink="http://www.w3.org/1999/xlink" version="1.1" x="0px" y="0px" viewBox="0 0 100 125" enable-background="new 0 0 100 100" xml:space="preserve"><path fill-rule="evenodd" clip-rule="evenodd" d="M74.019,37.121c-4.134,4.732-18.15,17.268-23.121,33.924  C44.94,54.289,30.809,42.428,30.809,42.428s-6.456,33.935,14.928,50.537c5.541,4.807,11.291,0,11.291,0S75.906,76.5,74.019,37.121z"/><path fill-rule="evenodd" clip-rule="evenodd" fill="#000000" d="M49.65,75.166C41.897,54.15,32.663,48.127,32.663,48.127  s-3.791,26.645,15.556,42.98C48.219,91.107,47.819,81.047,49.65,75.166z"/><path fill-rule="evenodd" clip-rule="evenodd" d="M61.948,46.628C51.377,57.893,50.947,66.754,50.947,66.754  C48.021,55.969,37.87,46.286,37.87,46.286s0.364-17.854,5.406-33.926c5.042-16.072,11.038-0.952,11.4,0S60.873,27.17,61.948,46.628z  "/><path fill-rule="evenodd" clip-rule="evenodd" fill="#000000" d="M46.738,13.071c-0.747,8.633-2.606,30.133-2.606,30.133  l-2.625-1.696C41.507,41.508,42.592,16.633,46.738,13.071z"/><text x="0" y="115" fill="#000000" font-size="5px" font-weight="bold" font-family="'Helvetica Neue', Helvetica, Arial-Unicode, Arial, Sans-serif">Created by Terri Toombs</text><text x="0" y="120" fill="#000000" font-size="5px" font-weight="bold" font-family="'Helvetica Neue', Helvetica, Arial-Unicode, Arial, Sans-serif">from the Noun Project</text></svg>