<?xml version="1.0" encoding="utf-8" ?>
<svg baseProfile="full" height="792.0" version="1.1" width="612.0" xmlns="http://www.w3.org/2000/svg" xmlns:ev="http://www.w3.org/2001/xml-events" xmlns:xlink="http://www.w3.org/1999/xlink"><defs /><g id="footprints"><polygon fill="none" points="279.0,36.0 279.0,54.0 284.458498485,54.0 284.458498485,36.0 279.0,36.0" stroke="#000000" stroke-width="1" /><polygon fill="none" points="286.714285714,36.0 286.714285714,54.0 292.1727842,54.0 292.1727842,36.0 286.714285714,36.0" stroke="#000000" stroke-width="1" /><polygon fill="none" points="294.428571429,36.0 294.428571429,54.0 299.887069914,54.0 299.887069914,36.0 294.428571429,36.0" stroke="#000000" stroke-width="1" /><polygon fill="none" points="302.142857143,36.0 302.142857143,54.0 307.601355628,54.0 307.601355628,36.0 302.142857143,36.0" stroke="#000000" stroke-width="1" /><polygon fill="none" points="309.857142857,36.0 309.857142857,54.0 315.315641343,54.0 315.315641343,36.0 309.857142857,36.0" stroke="#000000" stroke-width="1" /><polygon fill="none" points="317.571428571,36.0 317.571428571,54.0 323.029927057,54.0 323.029927057,36.0 317.571428571,36.0" stroke="#000000" stroke-width="1" /><polygon fill="none" points="279.0,64.8 279.0,82.8 284.458498485,82.8 284.458498485,64.8 279.0,64.8" stroke="#000000" stroke-width="1" /><polygon fill="none" points="286.714285714,64.8 286.714285714,82.8 292.1727842,82.8 292.1727842,64.8 286.714285714,64.8" stroke="#000000" stroke-width="1" /><polygon fill="none" points="294.428571429,64.8 294.428571429,82.8 299.887069914,82.8 299.887069914,64.8 294.428571429,64.8" stroke="#000000" stroke-width="1" /><polygon fill="none" points="302.142857143,64.8 302.142857143,82.8 307.601355628,82.8 307.601355628,64.8 302.142857143,64.8" stroke="#000000" stroke-width="1" /><polygon fill="none" points="309.857142857,64.8 309.857142857,82.8 315.315641343,82.8 315.315641343,64.8 309.857142857,64.8" stroke="#000000" stroke-width="1" /><polygon fill="none" points="317.571428571,64.8 317.571428571,82.8 323.029927057,82.8 323.029927057,64.8 317.571428571,64.8" stroke="#000000" stroke-width="1" /><polygon fill="none" points="325.285714286,64.8 325.285714286,82.8 330.744212771,82.8 330.744212771,64.8 325.285714286,64.8" stroke="#000000" stroke-width="1" /><polygon fill="none" points="333.0,64.8 333.0,82.8 337.970691362,82.8696891677 338.47026028,64.8766229783 333.0,64.8" stroke="#000000" stroke-width="1" /><polygon fill="none" points="279.0,93.6 279.0,111.6 284.458498485,111.6 284.458498485,93.6 279.0,93.6" stroke="#000000" stroke-width="1" /><polygon fill="none" points="286.714285714,93.6 286.714285714,111.6 292.1727842,111.6 292.1727842,93.6 286.714285714,93.6" stroke="#000000" stroke-width="1" /><polygon fill="none" points="294.428571429,93.6 294.428571429,111.6 299.887069914,111.6 299.887069914,93.6 294.428571429,93.6" stroke="#000000" stroke-width="1" /><polygon fill="none" points="302.142857143,93.6 302.142857143,111.6 307.601355628,111.6 307.601355628,93.6 302.142857143,93.6" stroke="#000000" stroke-width="1" /><polygon fill="none" points="309.857142857,93.6 309.857142857,111.6 315.315641343,111.6 315.315641343,93.6 309.857142857,93.6" stroke="#000000" stroke-width="1" /><polygon fill="none" points="317.571428571,93.6 317.571428571,111.6 323.029927057,111.6 323.029927057,93.6 317.571428571,93.6" stroke="#000000" stroke-width="1" /><polygon fill="none" points="325.285714286,93.6 325.285714286,111.6 330.744212771,111.6 330.744212771,93.6 325.285714286,93.6" stroke="#000000" stroke-width="1" /><polygon fill="none" points="333.0,93.6 333.0,111.6 337.886869327,111.680426737 338.472126874,93.689943875 333.0,93.6" stroke="#000000" stroke-width="1" /><polygon fill="none" points="340.341067598,93.7619088584 339.555918626,111.744776847 344.434377332,112.040844298 345.803811684,94.0930129646 340.341067598,93.7619088584" stroke="#000000" stroke-width="1" /><polygon fill="none" points="347.667710886,94.2472974074 346.098907517,112.178801973 350.959338335,112.689885808 353.110342696,94.8188707206 347.667710886,94.2472974074" stroke="#000000" stroke-width="1" /><polygon fill="none" points="354.965540852,95.0551527369 352.616069392,112.901160242 357.448900234,113.626183733 360.377380045,95.866003385 354.965540852,95.0551527369" stroke="#000000" stroke-width="1" /><polygon fill="none" points="362.220238867,96.1837905479 359.094571669,113.910330102 363.890299413,114.847768004 367.590680146,97.2322299072 362.220238867,96.1837905479" stroke="#000000" stroke-width="1" /><polygon fill="none" points="369.417591367,97.6308609372 365.521678316,115.204189065 370.270892163,116.352073067 374.736129934,98.9147094002 369.417591367,97.6308609372" stroke="#000000" stroke-width="1" /><polygon fill="none" points="279.0,122.4 279.0,140.4 284.458498485,140.4 284.458498485,122.4 279.0,122.4" stroke="#000000" stroke-width="1" /><polygon fill="none" points="286.714285714,122.4 286.714285714,140.4 292.1727842,140.4 292.1727842,122.4 286.714285714,122.4" stroke="#000000" stroke-width="1" /><polygon fill="none" points="294.428571429,122.4 294.428571429,140.4 299.887069914,140.4 299.887069914,122.4 294.428571429,122.4" stroke="#000000" stroke-width="1" /><polygon fill="none" points="302.142857143,122.4 302.142857143,140.4 307.601355628,140.4 307.601355628,122.4 302.142857143,122.4" stroke="#000000" stroke-width="1" /><polygon fill="none" points="309.857142857,122.4 309.857142857,140.4 315.315641343,140.4 315.315641343,122.4 309.857142857,122.4" stroke="#000000" stroke-width="1" /><polygon fill="none" points="317.571428571,122.4 317.571428571,140.4 323.029927057,140.4 323.029927057,122.4 317.571428571,122.4" stroke="#000000" stroke-width="1" /><polygon fill="none" points="325.285714286,122.4 325.285714286,140.4 330.744212771,140.4 330.744212771,122.4 325.285714286,122.4" stroke="#000000" stroke-width="1" /><polygon fill="none" points="333.0,122.4 333.0,140.4 337.76826948,140.495002236 338.474687911,122.508869439 333.0,122.4" stroke="#000000" stroke-width="1" /><polygon fill="none" points="340.300735624,122.593665634 339.358688412,140.56899726 344.115013599,140.917115632 345.761785367,122.992603289 340.300735624,122.593665634" stroke="#000000" stroke-width="1" /><polygon fill="none" points="347.580682814,123.174069715 345.699170475,141.075463832 350.429943379,141.675617196 353.012554797,123.861855149 347.580682814,123.174069715" stroke="#000000" stroke-width="1" /><polygon fill="none" points="354.819129672,124.139436987 352.003309301,141.917827117 356.695019168,142.768154658 360.206391479,125.113969191 354.819129672,124.139436987" stroke="#000000" stroke-width="1" /><polygon fill="none" points="361.995516651,125.486819322 358.253106217,143.093476135 362.892390213,144.191347964 367.322898988,126.745127973 361.995516651,125.486819322" stroke="#000000" stroke-width="1" /><polygon fill="none" points="369.089510954,127.212111499 364.430768142,144.598776372 369.004460561,145.940808346 374.341962083,128.750372706 369.089510954,127.212111499" stroke="#000000" stroke-width="1" /><polygon fill="none" points="376.081078827,129.310072929 370.518772929,146.429090223 375.013952477,148.011162736 381.243817027,131.123629237 376.081078827,129.310072929" stroke="#000000" stroke-width="1" /><polygon fill="none" points="382.950555148,131.774355008 376.499932056,148.578802685 380.903966803,150.39608313 388.009118754,133.857739326 382.950555148,131.774355008" stroke="#000000" stroke-width="1" /><polygon fill="none" points="389.678709728,134.597533653 382.357450153,151.04135189 386.658039774,153.08832043 394.619004399,136.944496774 389.678709728,134.597533653" stroke="#000000" stroke-width="1" /><polygon fill="none" points="396.246809849,137.771146551 388.074980853,153.809263987 392.260195877,156.079742244 401.055152725,140.374687833 396.246809849,137.771146551" stroke="#000000" stroke-width="1" /><polygon fill="none" points="402.636678615,141.285734569 393.636678615,156.874191837 397.694996429,159.361374053 407.299839135,144.13813535 402.636678615,141.285734569" stroke="#000000" stroke-width="1" /><polygon fill="none" points="408.830748815,145.13088672 399.027246185,160.226956943 402.947583642,162.92344317 413.335986,148.223746015 408.830748815,145.13088672" stroke="#000000" stroke-width="1" /><polygon fill="none" points="414.812112048,149.295288102 404.231977506,163.857594001 408.003720025,166.755424858 419.147208145,152.619560098 414.812112048,149.295288102" stroke="#000000" stroke-width="1" /><polygon fill="none" points="420.564562984,153.766770158 409.236795945,167.755397465 412.84982308,170.846089994 424.717853437,157.312803052 420.564562984,153.766770158" stroke="#000000" stroke-width="1" /><polygon fill="none" points="279.0,151.2 279.0,169.2 284.458498485,169.2 284.458498485,151.2 279.0,151.2" stroke="#000000" stroke-width="1" /><polygon fill="none" points="286.714285714,151.2 286.714285714,169.2 292.1727842,169.2 292.1727842,151.2 286.714285714,151.2" stroke="#000000" stroke-width="1" /><polygon fill="none" points="294.428571429,151.2 294.428571429,169.2 299.887069914,169.2 299.887069914,151.2 294.428571429,151.2" stroke="#000000" stroke-width="1" /><polygon fill="none" points="302.142857143,151.2 302.142857143,169.2 307.601355628,169.2 307.601355628,151.2 302.142857143,151.2" stroke="#000000" stroke-width="1" /><polygon fill="none" points="309.857142857,151.2 309.857142857,169.2 315.315641343,169.2 315.315641343,151.2 309.857142857,151.2" stroke="#000000" stroke-width="1" /><polygon fill="none" points="317.571428571,151.2 317.571428571,169.2 323.029927057,169.2 323.029927057,151.2 317.571428571,151.2" stroke="#000000" stroke-width="1" /><polygon fill="none" points="325.285714286,151.2 325.285714286,169.2 330.744212771,169.2 330.744212771,151.2 325.285714286,151.2" stroke="#000000" stroke-width="1" /><polygon fill="none" points="333.0,151.2 333.0,169.2 337.587590303,169.315820387 338.47840598,151.337877027 333.0,151.2" stroke="#000000" stroke-width="1" /><polygon fill="none" points="340.393673083,151.451261868 339.191405676,169.411065683 343.7601207,169.838966696 345.849741263,151.960670192 340.393673083,151.451261868" stroke="#000000" stroke-width="1" /><polygon fill="none" points="347.752709051,152.203760117 345.353543854,170.043154904 349.881821475,170.780893708 353.160914172,153.082092871 347.752709051,152.203760117" stroke="#000000" stroke-width="1" /><polygon fill="none" points="355.042691945,153.453645349 351.457344213,171.09295604 355.923893399,172.136678897 360.377813006,154.696420868 355.042691945,153.453645349" stroke="#000000" stroke-width="1" /><polygon fill="none" points="362.22964427,155.194543749 357.474127036,172.5549889 361.858066593,173.899271713 367.466920825,156.795448918 362.22964427,155.194543749" stroke="#000000" stroke-width="1" /><polygon fill="none" points="369.280236766,157.417618588 363.375789325,174.421662237 367.656779077,176.059566523 374.395517427,159.368568787 369.280236766,157.417618588" stroke="#000000" stroke-width="1" /><polygon fill="none" points="376.16198725,160.111653857 369.134980297,176.683351817 373.293342526,178.60649445 381.131868155,162.40286782 376.16198725,160.111653857" stroke="#000000" stroke-width="1" /><polygon fill="none" points="382.843445556,163.263157705 374.72526341,179.32849675 378.742092793,181.527131459 387.645396941,165.883245265 382.843445556,163.263157705" stroke="#000000" stroke-width="1" /><polygon fill="none" points="389.294362152,166.856482871 380.121262586,182.343711298 383.978523276,184.806819659 393.906841626,169.792543295 389.294362152,166.856482871" stroke="#000000" stroke-width="1" /><polygon fill="none" points="395.485838609,170.873960997 385.298790911,185.713909083 388.979399907,188.429298567 399.88839018,174.111689436 395.485838609,170.873960997" stroke="#000000" stroke-width="1" /><polygon fill="none" points="401.390458738,175.296047449 390.234960737,189.422436384 393.722857173,192.376842981 405.56379717,178.819847001 401.390458738,175.296047449" stroke="#000000" stroke-width="1" /><polygon fill="none" points="406.982399902,180.101473285 394.90827476,193.451211186 398.188475226,196.63040417 410.908480433,183.894570176 406.982399902,180.101473285" stroke="#000000" stroke-width="1" /><polygon fill="none" points="412.23752463,185.267401011 399.298698321,197.780864709 402.357338759,201.169751267 415.899598546,189.311960585 412.23752463,185.267401011" stroke="#000000" stroke-width="1" /><polygon fill="none" points="417.133453268,190.769581043 403.38771373,202.390882371 406.212078865,205.973610022 420.516110212,195.046822424 417.133453268,190.769581043" stroke="#000000" stroke-width="1" /><polygon fill="none" points="421.649618926,196.58250605 407.15835797,207.259741455 409.736899541,211.019796495 424.738817172,201.072813666 421.649618926,196.58250605" stroke="#000000" stroke-width="1" /><polygon fill="none" points="425.767306418,202.679560773 410.595245533,212.36504313 412.917590874,216.285343681 428.550392583,207.362591263 425.767306418,202.679560773" stroke="#000000" stroke-width="1" /><polygon fill="none" points="429.469677233,209.0331654 413.684578526,217.683636993 415.741531195,221.746619597 431.935397094,213.887948766 429.469677233,209.0331654" stroke="#000000" stroke-width="1" /><polygon fill="none" points="432.741782801,215.614911029 416.414146353,223.191736752 418.197680628,227.379435853 434.880284982,220.619945343 432.741782801,215.614911029" stroke="#000000" stroke-width="1" /><polygon fill="none" points="435.570568439,222.395686338 418.773317441,228.86502625 420.276568511,233.159146292 437.373402758,227.529025627 435.570568439,222.395686338" stroke="#000000" stroke-width="1" /><polygon fill="none" points="437.944870409,229.345795051 420.753025459,234.678755507 421.970277084,239.060735748 439.404982613,234.585130414 437.944870409,229.345795051" stroke="#000000" stroke-width="1" /><polygon fill="none" points="439.855408382,236.435064296 422.345752434,240.607827001 423.27242373,245.058899485 440.967132914,241.757798621 439.855408382,236.435064296" stroke="#000000" stroke-width="1" /><polygon fill="none" points="441.29477551,243.63294444 423.545510938,246.626872823 424.178143766,251.128114272 442.053827737,249.016261397 441.29477551,243.63294444" stroke="#000000" stroke-width="1" /><polygon fill="none" points="442.257428004,250.908601342 424.347827333,252.710323792 424.684075535,257.242702435 442.660897149,256.329529596 442.257428004,250.908601342" stroke="#000000" stroke-width="1" /><polygon fill="none" points="442.73967584,258.231002354 424.749727692,258.83247194 424.788349168,263.376890512 442.786019577,263.666476161 442.73967584,258.231002354" stroke="#000000" stroke-width="1" /><polygon fill="none" points="442.73967584,265.568997646 424.749727692,264.96752806 424.490579993,269.50486435 442.428717231,270.995915127 442.73967584,265.568997646" stroke="#000000" stroke-width="1" /><polygon fill="none" points="442.257428004,272.891398658 424.347827333,271.089676208 423.791867145,275.600822652 441.590355138,278.286679162 442.257428004,272.891398658" stroke="#000000" stroke-width="1" /><polygon fill="none" points="441.29477551,280.16705556 423.545510938,277.173127177 422.694797506,281.639031016 440.274143884,285.507697572 441.29477551,280.16705556" stroke="#000000" stroke-width="1" /><polygon fill="none" points="439.855408382,287.364935704 422.345752434,283.192172999 421.203454624,287.593878503 438.485145759,292.628076702 439.855408382,287.364935704" stroke="#000000" stroke-width="1" /><polygon fill="none" points="437.944870409,294.454204949 420.753025459,289.121244493 419.323431867,293.439938672 436.230283532,299.617184562 437.944870409,294.454204949" stroke="#000000" stroke-width="1" /><polygon fill="none" points="435.570568439,301.404313662 418.773317441,294.93497375 417.061848638,299.152036824 433.518350728,306.444741324 435.570568439,301.404313662" stroke="#000000" stroke-width="1" /><polygon fill="none" points="432.741782801,308.185088971 416.414146353,300.608263248 414.427368074,304.705324958 430.360021858,313.080917081 432.741782801,308.185088971" stroke="#000000" stroke-width="1" /><polygon fill="none" points="429.469677233,314.7668346 413.684578526,306.116363007 411.43021439,310.075365603 426.767860767,319.496437921 429.469677233,314.7668346" stroke="#000000" stroke-width="1" /><polygon fill="none" points="425.767306418,321.120439227 410.595245533,311.43495687 408.082187678,315.238225292 422.756324996,325.662701009 425.767306418,321.120439227" stroke="#000000" stroke-width="1" /><polygon fill="none" points="421.649618926,327.21749395 407.15835797,316.540258545 404.396673846,320.170578002 418.341763845,331.551898879 421.649618926,327.21749395" stroke="#000000" stroke-width="1" /><polygon fill="none" points="417.133453268,333.030418957 403.38771373,321.409117629 400.388647234,324.849818397 413.542407759,337.137152692 417.133453268,333.030418957" stroke="#000000" stroke-width="1" /><polygon fill="none" points="412.23752463,338.532598989 399.298698321,326.019135291 396.074663452,329.254184175 408.378346613,342.39265367 412.23752463,338.532598989" stroke="#000000" stroke-width="1" /><polygon fill="none" points="406.982399902,343.698526715 394.90827476,330.348788814 391.472840043,333.362886311 402.871494606,347.293811412 406.982399902,343.698526715" stroke="#000000" stroke-width="1" /><polygon fill="none" points="401.390458738,348.503952551 390.234960737,334.377563616 386.602822834,337.156245468 397.045539639,351.817407281 401.390458738,348.503952551" stroke="#000000" stroke-width="1" /><polygon fill="none" points="395.485838609,352.926039003 385.298790911,338.086090917 381.485736058,340.615832347 390.925875398,355.941750566 395.485838609,352.926039003" stroke="#000000" stroke-width="1" /><polygon fill="none" points="389.294362152,356.943517129 380.121262586,341.456288702 376.144114826,343.724609359 384.539514746,359.646834711 389.294362152,356.943517129" stroke="#000000" stroke-width="1" /><polygon fill="none" points="382.843445556,360.536842295 374.72526341,344.47150325 370.601818957,346.467070617 377.914983564,362.91449058 382.843445556,360.536842295" stroke="#000000" stroke-width="1" /><polygon fill="none" points="376.16198725,363.688346143 369.134980297,347.116648183 364.883927799,348.829377053 371.082194724,365.728533455 376.16198725,363.688346143" stroke="#000000" stroke-width="1" /><polygon fill="none" points="369.280236766,366.382381412 363.375789325,349.378337763 359.016616272,350.799483291 364.072302551,368.074900399 369.280236766,366.382381412" stroke="#000000" stroke-width="1" /><polygon fill="none" points="362.22964427,368.605456251 357.474127036,351.2450111 353.027013056,352.367252993 356.917538765,369.9417746 362.22964427,368.605456251" stroke="#000000" stroke-width="1" /><polygon fill="none" points="355.042691945,370.346354651 351.457344213,352.70704396 346.943042452,353.524559475 349.65103156,371.319693501 355.042691945,370.346354651" stroke="#000000" stroke-width="1" /><polygon fill="none" points="347.752709051,371.596239883 345.353543854,353.756845096 340.793252131,354.265368756 342.306610102,372.201637812 347.752709051,371.596239883" stroke="#000000" stroke-width="1" /><polygon fill="none" points="279.0,180.0 279.0,198.0 284.458498485,198.0 284.458498485,180.0 279.0,180.0" stroke="#000000" stroke-width="1" /><polygon fill="none" points="286.714285714,180.0 286.714285714,198.0 292.1727842,198.0 292.1727842,180.0 286.714285714,180.0" stroke="#000000" stroke-width="1" /><polygon fill="none" points="294.428571429,180.0 294.428571429,198.0 299.887069914,198.0 299.887069914,180.0 294.428571429,180.0" stroke="#000000" stroke-width="1" /><polygon fill="none" points="302.142857143,180.0 302.142857143,198.0 307.601355628,198.0 307.601355628,180.0 302.142857143,180.0" stroke="#000000" stroke-width="1" /><polygon fill="none" points="309.857142857,180.0 309.857142857,198.0 315.315641343,198.0 315.315641343,180.0 309.857142857,180.0" stroke="#000000" stroke-width="1" /><polygon fill="none" points="317.571428571,180.0 317.571428571,198.0 323.029927057,198.0 323.029927057,180.0 317.571428571,180.0" stroke="#000000" stroke-width="1" /><polygon fill="none" points="325.285714286,180.0 325.285714286,198.0 330.744212771,198.0 330.744212771,180.0 325.285714286,180.0" stroke="#000000" stroke-width="1" /><polygon fill="none" points="333.0,180.0 333.0,198.0 337.278845767,198.147532539 338.484231835,180.187937765 333.0,180.0" stroke="#000000" stroke-width="1" /><polygon fill="none" points="340.340800401,180.337027396 338.72729284,198.264564688 342.97350667,198.805705737 345.783925872,181.026460986 340.340800401,180.337027396" stroke="#000000" stroke-width="1" /><polygon fill="none" points="347.61860319,181.344856839 344.404579084,199.055589434 348.581239907,199.984897857 352.9740644,182.529151153 347.61860319,181.344856839" stroke="#000000" stroke-width="1" /><polygon fill="none" points="354.771208556,183.013797469 349.982545335,200.365128962 354.053685609,201.673338205 359.993546952,184.681632958 354.771208556,183.013797469" stroke="#000000" stroke-width="1" /><polygon fill="none" points="361.737982889,185.327918427 355.413236055,202.180146098 359.344303575,203.854374183 366.783377499,187.463517611 361.737982889,185.327918427" stroke="#000000" stroke-width="1" /><polygon fill="none" points="368.46057073,188.265366145 360.650663426,204.482805767 364.408927664,206.506835975 373.287319118,190.848797618 368.46057073,188.265366145" stroke="#000000" stroke-width="1" /><polygon fill="none" points="374.883527536,191.798782726 365.651340543,207.250861011 369.206230958,209.605476708 379.452456356,194.806325885 374.883527536,191.798782726" stroke="#000000" stroke-width="1" /><polygon fill="none" points="380.954856513,195.895802497 370.374721971,210.458108396 373.698090831,213.121463163 385.22965359,199.300353933 380.954856513,195.895802497" stroke="#000000" stroke-width="1" /><polygon fill="none" points="386.62643963,200.519601011 374.783542563,214.074887399 377.849850129,217.022891 390.573904886,204.291102809 386.62643963,200.519601011" stroke="#000000" stroke-width="1" /><polygon fill="none" points="391.854360106,205.629470096 378.844052557,218.068597778 381.630477609,221.275299387 395.444577757,209.735341107 391.854360106,205.629470096" stroke="#000000" stroke-width="1" /><polygon fill="none" points="396.599120421,211.181393908 382.526153737,222.404210341 385.012636833,225.842162625 399.80555936,215.586947214 396.599120421,211.181393908" stroke="#000000" stroke-width="1" /><polygon fill="none" points="400.825765772,217.128604006 385.803447205,227.044749672 387.972677628,230.685340549 403.62531862,221.797436973 400.825765772,217.128604006" stroke="#000000" stroke-width="1" /><polygon fill="none" points="404.503927473,223.422095846 388.6532079,231.951731771 390.490567579,235.765474526 406.876901174,228.316442958 404.503927473,223.422095846" stroke="#000000" stroke-width="1" /><polygon fill="none" points="407.607803832,230.011094262 391.056303926,237.085544831 392.549782897,241.042321392 409.537875973,235.092137053 407.607803832,230.011094262" stroke="#000000" stroke-width="1" /><polygon fill="none" points="410.116097559,236.843461007 392.997080265,242.405766905 394.137178292,246.475023198 411.590252711,242.071593475 410.116097559,236.843461007" stroke="#000000" stroke-width="1" /><polygon fill="none" points="412.01192877,243.866042859 394.463226351,247.87141967 395.242854469,252.022315793 413.020388339,249.201094513 412.01192877,243.866042859" stroke="#000000" stroke-width="1" /><polygon fill="none" points="413.282741402,251.024963764 395.44564569,253.441162549 395.860039713,257.642683782 413.818898784,256.426385759 413.282741402,251.024963764" stroke="#000000" stroke-width="1" /><polygon fill="none" points="413.92021847,258.265868798 395.938343273,259.073435744 395.984998935,263.294473131 413.980589033,263.692891282 413.92021847,258.265868798" stroke="#000000" stroke-width="1" /><polygon fill="none" points="413.92021847,265.534131202 395.938343273,264.726564256 395.616979854,268.935975454 413.504411069,270.945901952 413.92021847,265.534131202" stroke="#000000" stroke-width="1" /><polygon fill="none" points="413.282741402,272.775036236 395.44564569,270.358837451 394.758201837,274.525499811 412.393455091,278.130751907 413.282741402,272.775036236" stroke="#000000" stroke-width="1" /><polygon fill="none" points="412.01192877,279.933957141 394.463226351,275.92858033 393.413888517,280.021448607 410.654975119,285.192998932 412.01192877,279.933957141" stroke="#000000" stroke-width="1" /><polygon fill="none" points="410.116097559,286.956538993 392.997080265,281.394233095 391.592340878,285.382413962 408.300445737,292.078624233 410.116097559,286.956538993" stroke="#000000" stroke-width="1" /><polygon fill="none" points="407.607803832,293.788905738 391.056303926,286.714455169 389.305043211,290.567309598 405.345642492,298.734265869 407.607803832,293.788905738" stroke="#000000" stroke-width="1" /><polygon fill="none" points="404.503927473,300.377904154 388.6532079,291.848268229 386.566790361,295.535551054 401.810734589,305.107497794 404.503927473,300.377904154" stroke="#000000" stroke-width="1" /><polygon fill="none" points="400.825765772,306.671395994 385.803447205,296.755250328 383.395821266,300.247293751 397.720375165,311.147163272 400.825765772,306.671395994" stroke="#000000" stroke-width="1" /><polygon fill="none" points="396.599120421,312.618606092 382.526153737,301.395789659 379.813941155,304.663734332 393.10377184,316.803767295 396.599120421,312.618606092" stroke="#000000" stroke-width="1" /><polygon fill="none" points="391.854360106,318.170529904 378.844052557,305.731402222 375.846613111,308.747475819 387.994718681,322.029927817 391.854360106,318.170529904" stroke="#000000" stroke-width="1" /><polygon fill="none" points="386.62643963,323.280398989 374.783542563,309.725112601 371.522999336,312.462951742 382.431570387,326.780880281 386.62643963,323.280398989" stroke="#000000" stroke-width="1" /><polygon fill="none" points="380.954856513,327.904197503 370.374721971,313.341891604 366.875933509,315.776898856 376.457140641,331.015024394 380.954856513,327.904197503" stroke="#000000" stroke-width="1" /><polygon fill="none" points="374.883527536,332.001217274 365.651340543,316.549138989 361.94180823,318.658862675 370.118509196,334.694496785 374.883527536,332.001217274" stroke="#000000" stroke-width="1" /><polygon fill="none" points="368.46057073,335.534633855 360.650663426,319.317194233 356.760365689,321.0817154 363.466726501,337.785748585 368.46057073,335.534633855" stroke="#000000" stroke-width="1" /><polygon fill="none" points="361.737982889,338.472081573 355.413236055,321.619853902 351.37438522,323.022162298 356.556410205,340.260103505 361.737982889,338.472081573" stroke="#000000" stroke-width="1" /><polygon fill="none" points="354.771208556,340.786202531 349.982545335,323.434871038 345.829267948,324.461210714 349.445234487,342.094270176 354.771208556,340.786202531" stroke="#000000" stroke-width="1" /><polygon fill="none" points="347.61860319,342.455143161 344.404579084,324.744410566 340.172525813,325.384575963 342.19332027,343.270782653 347.61860319,342.455143161" stroke="#000000" stroke-width="1" /><polygon fill="none" points="340.340800401,343.462972604 338.72729284,325.535435312 334.453189284,325.783000552 334.862541409,343.778345251 340.340800401,343.462972604" stroke="#000000" stroke-width="1" /><polygon fill="none" points="333.0,343.8 333.0,325.8 327.541501515,325.8 327.541501515,343.8 333.0,343.8" stroke="#000000" stroke-width="1" /><polygon fill="none" points="325.285714286,343.8 325.285714286,325.8 319.8272158,325.8 319.8272158,343.8 325.285714286,343.8" stroke="#000000" stroke-width="1" /><polygon fill="none" points="317.571428571,343.8 317.571428571,325.8 312.112930086,325.8 312.112930086,343.8 317.571428571,343.8" stroke="#000000" stroke-width="1" /><polygon fill="none" points="309.857142857,343.8 309.857142857,325.8 304.398644372,325.8 304.398644372,343.8 309.857142857,343.8" stroke="#000000" stroke-width="1" /><polygon fill="none" points="302.142857143,343.8 302.142857143,325.8 296.684358657,325.8 296.684358657,343.8 302.142857143,343.8" stroke="#000000" stroke-width="1" /><polygon fill="none" points="294.428571429,343.8 294.428571429,325.8 288.970072943,325.8 288.970072943,343.8 294.428571429,343.8" stroke="#000000" stroke-width="1" /><polygon fill="none" points="286.714285714,343.8 286.714285714,325.8 281.255787229,325.8 281.255787229,343.8 286.714285714,343.8" stroke="#000000" stroke-width="1" /><polygon fill="none" points="279.0,343.8 279.0,325.8 272.94261558,325.899461013 273.527873126,343.889943875 279.0,343.8" stroke="#000000" stroke-width="1" /><polygon fill="none" points="271.658932402,343.961908858 270.873783429,325.97904087 264.826753964,326.345181632 266.196188316,344.293012965 271.658932402,343.961908858" stroke="#000000" stroke-width="1" /><polygon fill="none" points="264.332289114,344.447297407 262.763485744,326.515792842 256.738652943,327.147855634 258.889657304,345.018870721 264.332289114,344.447297407" stroke="#000000" stroke-width="1" /><polygon fill="none" points="257.034459148,345.255152737 254.684987688,327.409145232 248.694140143,328.305823037 251.622619955,346.066003385 257.034459148,345.255152737" stroke="#000000" stroke-width="1" /><polygon fill="none" points="249.779761133,346.383790548 246.654093935,328.657250994 240.70893912,329.816691811 244.409319854,347.432229907 249.779761133,346.383790548" stroke="#000000" stroke-width="1" /><polygon fill="none" points="242.582408633,347.830860937 238.686495582,330.257532809 232.798632295,331.677345733 237.263870066,349.1147094 242.582408633,347.830860937" stroke="#000000" stroke-width="1" /><polygon fill="none" points="235.456476086,349.593356414 230.797733275,332.206691541 224.978624679,333.883954543 230.200219653,351.109950768 235.456476086,349.593356414" stroke="#000000" stroke-width="1" /><polygon fill="none" points="228.415865541,351.667622068 223.00316115,334.500716954 217.264108544,336.431986292 223.232121119,353.413824411 228.415865541,351.667622068" stroke="#000000" stroke-width="1" /><polygon fill="none" points="221.474274367,354.049367784 215.317911787,337.13490061 209.670029238,339.31622178 216.373098962,356.021575899 221.474274367,354.049367784" stroke="#000000" stroke-width="1" /><polygon fill="none" points="214.645164113,356.733682397 207.75686233,340.103850812 202.211052282,342.530770936 209.636419482,358.927841465 214.645164113,356.733682397" stroke="#000000" stroke-width="1" /><polygon fill="none" points="207.941730654,359.715049628 200.334601943,343.401509462 194.901531896,346.069091011 203.035061963,362.126665194 207.941730654,359.715049628" stroke="#000000" stroke-width="1" /><polygon fill="none" points="201.37687575,362.987365676 193.065400712,347.021170679 187.755481075,349.924006398 196.581691372,365.61151773 201.37687575,362.987365676" stroke="#000000" stroke-width="1" /><polygon fill="none" points="194.963180136,366.543958289 185.963180136,350.955501021 180.786543303,354.087729935 190.288632637,369.375316346 194.963180136,366.543958289" stroke="#000000" stroke-width="1" /><polygon fill="none" points="188.712878227,370.377607153 179.041485276,355.196561128 174.007966001,358.551885496 184.167846605,373.410446198 188.712878227,370.377607153" stroke="#000000" stroke-width="1" /><polygon fill="none" points="279.0,208.8 279.0,226.8 284.458498485,226.8 284.458498485,208.8 279.0,208.8" stroke="#000000" stroke-width="1" /><polygon fill="none" points="286.714285714,208.8 286.714285714,226.8 292.1727842,226.8 292.1727842,208.8 286.714285714,208.8" stroke="#000000" stroke-width="1" /><polygon fill="none" points="294.428571429,208.8 294.428571429,226.8 299.887069914,226.8 299.887069914,208.8 294.428571429,208.8" stroke="#000000" stroke-width="1" /><polygon fill="none" points="302.142857143,208.8 302.142857143,226.8 307.601355628,226.8 307.601355628,208.8 302.142857143,208.8" stroke="#000000" stroke-width="1" /><polygon fill="none" points="309.857142857,208.8 309.857142857,226.8 315.315641343,226.8 315.315641343,208.8 309.857142857,208.8" stroke="#000000" stroke-width="1" /><polygon fill="none" points="317.571428571,208.8 317.571428571,226.8 323.029927057,226.8 323.029927057,208.8 317.571428571,208.8" stroke="#000000" stroke-width="1" /><polygon fill="none" points="325.285714286,208.8 325.285714286,226.8 330.744212771,226.8 330.744212771,208.8 325.285714286,208.8" stroke="#000000" stroke-width="1" /><polygon fill="none" points="333.0,208.8 333.0,226.8 336.631394253,226.998294758 338.494172408,209.09494151 333.0,208.8" stroke="#000000" stroke-width="1" /><polygon fill="none" points="340.554257704,209.358983589 337.992590615,227.175769542 341.55048372,227.913982694 345.942214301,210.457960739 340.554257704,209.358983589" stroke="#000000" stroke-width="1" /><polygon fill="none" points="347.939392115,211.021102917 342.868206092,228.291976442 346.270709134,229.548583842 353.101989172,212.895247449 347.939392115,211.021102917" stroke="#000000" stroke-width="1" /><polygon fill="none" points="354.992636289,213.742843891 347.515166055,230.116219808 350.687173445,231.855749759 359.818937777,216.344112831 354.992636289,213.742843891" stroke="#000000" stroke-width="1" /><polygon fill="none" points="361.5632086,217.454779868 351.831673886,232.597343459 354.707432051,234.772996413 365.95378429,220.718831147 361.5632086,217.454779868" stroke="#000000" stroke-width="1" /><polygon fill="none" points="367.516647136,222.065665722 355.729153925,235.66915806 358.253730456,238.225888683 371.385727303,225.915297356 367.516647136,222.065665722" stroke="#000000" stroke-width="1" /><polygon fill="none" points="372.737552656,227.467214617 359.134060317,239.254707828 361.263702554,242.13228762 376.014014421,231.815878369 372.737552656,227.467214617" stroke="#000000" stroke-width="1" /><polygon fill="none" points="377.130745245,233.538892138 361.988181654,243.270426852 363.689747732,246.406076908 379.758100807,238.293862077 377.130745245,233.538892138" stroke="#000000" stroke-width="1" /><polygon fill="none" points="380.621097982,240.152173254 364.247722066,247.629643488 365.497496937,250.959966279 382.556785888,245.217087166 380.621097982,240.152173254" stroke="#000000" stroke-width="1" /><polygon fill="none" points="383.152476697,247.173904155 365.881603172,252.245090179 366.663863984,255.707194014 384.366810883,252.450559078 383.152476697,247.173904155" stroke="#000000" stroke-width="1" /><polygon fill="none" points="384.686274756,254.468635593 366.869488803,257.030302681 367.175166703,260.562166874 385.161390601,259.858071811 384.686274756,254.468635593" stroke="#000000" stroke-width="1" /><polygon fill="none" points="385.2,261.9 367.2,261.9 367.025718312,265.44025103 384.929071561,267.303029185 385.2,261.9" stroke="#000000" stroke-width="1" /><polygon fill="none" points="384.686274756,269.331364407 366.869488803,266.769697319 366.217161079,270.257048502 383.673183034,274.648779083 384.686274756,269.331364407" stroke="#000000" stroke-width="1" /><polygon fill="none" points="383.152476697,276.626095845 365.881603172,271.554909821 364.758664161,274.927559366 381.412000554,281.758839403 383.152476697,276.626095845" stroke="#000000" stroke-width="1" /><polygon fill="none" points="380.621097982,283.647826746 364.247722066,276.170356512 362.667949876,279.365643875 378.179586804,288.497408208 380.621097982,283.647826746" stroke="#000000" stroke-width="1" /><polygon fill="none" points="377.130745245,290.261107862 361.988181654,280.529573148 359.97295698,283.484161663 374.027122245,294.730513902 377.130745245,290.261107862" stroke="#000000" stroke-width="1" /><polygon fill="none" points="372.737552656,296.332785383 359.134060317,284.545292172 356.71380705,287.196074827 369.024398377,300.328071673 372.737552656,296.332785383" stroke="#000000" stroke-width="1" /><polygon fill="none" points="367.516647136,301.734334278 355.729153925,288.13084194 352.944628438,290.416655589 363.261037689,305.166967456 367.516647136,301.734334278" stroke="#000000" stroke-width="1" /><polygon fill="none" points="361.5632086,306.345220132 351.831673886,291.202656541 348.734737186,293.06674273 356.846952018,309.135095805 361.5632086,306.345220132" stroke="#000000" stroke-width="1" /><polygon fill="none" points="354.992636289,310.057156109 347.515166055,293.683780192 344.168704393,295.07676582 349.911583506,312.13605477 354.992636289,310.057156109" stroke="#000000" stroke-width="1" /><polygon fill="none" points="347.939392115,312.778897083 342.868206092,295.508023558 339.34497409,296.391044159 342.601609025,314.093991058 347.939392115,312.778897083" stroke="#000000" stroke-width="1" /><polygon fill="none" points="340.554257704,314.441016411 337.992590615,296.624230458 334.372930107,296.971724839 335.07702517,314.957948738 340.554257704,314.441016411" stroke="#000000" stroke-width="1" /><polygon fill="none" points="333.0,315.0 333.0,297.0 327.541501515,297.0 327.541501515,315.0 333.0,315.0" stroke="#000000" stroke-width="1" /><polygon fill="none" points="325.285714286,315.0 325.285714286,297.0 319.8272158,297.0 319.8272158,315.0 325.285714286,315.0" stroke="#000000" stroke-width="1" /><polygon fill="none" points="317.571428571,315.0 317.571428571,297.0 312.112930086,297.0 312.112930086,315.0 317.571428571,315.0" stroke="#000000" stroke-width="1" /><polygon fill="none" points="309.857142857,315.0 309.857142857,297.0 304.398644372,297.0 304.398644372,315.0 309.857142857,315.0" stroke="#000000" stroke-width="1" /><polygon fill="none" points="302.142857143,315.0 302.142857143,297.0 296.684358657,297.0 296.684358657,315.0 302.142857143,315.0" stroke="#000000" stroke-width="1" /><polygon fill="none" points="294.428571429,315.0 294.428571429,297.0 288.970072943,297.0 288.970072943,315.0 294.428571429,315.0" stroke="#000000" stroke-width="1" /><polygon fill="none" points="286.714285714,315.0 286.714285714,297.0 281.255787229,297.0 281.255787229,315.0 286.714285714,315.0" stroke="#000000" stroke-width="1" /><polygon fill="none" points="279.0,315.0 279.0,297.0 273.030170802,297.083556789 273.52973972,315.076622978 279.0,315.0" stroke="#000000" stroke-width="1" /><polygon fill="none" points="271.716905192,315.13584393 271.051778203,297.148136847 265.089267835,297.454079802 266.253366352,315.416397989 271.716905192,315.13584393" stroke="#000000" stroke-width="1" /><polygon fill="none" points="264.444031845,315.543174847 263.11468635,297.592329726 257.167842328,298.120209405 258.994880425,316.027245223 264.444031845,315.543174847" stroke="#000000" stroke-width="1" /><polygon fill="none" points="257.191584048,316.221390604 255.199835774,298.33192614 249.276979431,299.080967447 251.764461594,316.908262039 257.191584048,316.221390604" stroke="#000000" stroke-width="1" /><polygon fill="none" points="249.969731212,317.169489177 247.318300647,299.365840226 241.427713297,300.33494415 244.572241925,318.058147577 249.969731212,317.169489177" stroke="#000000" stroke-width="1" /><polygon fill="none" points="242.788590896,318.386070985 239.481099575,300.692555191 233.631008821,301.880301261 237.428288865,319.475205758 242.788590896,318.386070985" stroke="#000000" stroke-width="1" /><polygon fill="none" points="235.658211838,319.86934212 231.699177397,302.310126696 225.897743629,303.714776141 230.342588462,321.157349185 235.658211838,319.86934212" stroke="#000000" stroke-width="1" /><polygon fill="none" points="228.588557243,321.617118455 223.983387247,304.216187178 218.238690394,305.835686762 223.325028893,323.102103897 228.588557243,321.617118455" stroke="#000000" stroke-width="1" /><polygon fill="none" points="221.589488401,323.62683062 216.344472957,306.407951069 210.66449952,308.239937584 216.385384357,325.306614961 221.589488401,323.62683062" stroke="#000000" stroke-width="1" /><polygon fill="none" points="214.670748677,325.895529787 208.793051846,308.882220881 203.185682261,310.924026275 209.533299396,327.767652864 214.670748677,325.895529787" stroke="#000000" stroke-width="1" /><polygon fill="none" points="207.841947943,328.419894263 201.339597951,311.635394134 195.812594326,313.884051223 202.778273679,330.481620658 207.841947943,328.419894263" stroke="#000000" stroke-width="1" /><polygon fill="none" points="201.11254749,331.196236804 193.994425767,314.663471061 188.555420017,317.115719815 196.129647307,333.444561812 201.11254749,331.196236804" stroke="#000000" stroke-width="1" /><polygon fill="none" points="194.491845472,334.220512651 186.767674514,317.962063063 181.42415694,320.614357408 189.596586683,336.652168733 194.491845472,334.220512651" stroke="#000000" stroke-width="1" /><polygon fill="none" points="187.988962911,337.488328197 179.669293007,321.52640185 174.428601325,324.374916963 183.188070965,340.099791894 187.988962911,337.488328197" stroke="#000000" stroke-width="1" /><polygon fill="none" points="181.612830313,340.994950264 172.709025131,325.35134923 167.578333999,328.391989269 176.912879155,343.78244952 181.612830313,340.994950264" stroke="#000000" stroke-width="1" /><polygon fill="none" points="175.372174907,344.735315915 165.896395975,329.431407471 160.882707021,332.659813717 170.779577827,347.69483777 175.372174907,344.735315915" stroke="#000000" stroke-width="1" /><polygon fill="none" points="169.275508548,348.704042759 159.240698639,333.760730204 154.350831007,337.172289555 164.796509527,351.831341375 169.275508548,348.704042759" stroke="#000000" stroke-width="1" /><polygon fill="none" points="163.331116278,352.895439684 152.750981736,338.333133785 147.991563166,341.922987567 158.971781861,356.186044652 163.331116278,352.895439684" stroke="#000000" stroke-width="1" /><polygon fill="none" points="157.547045585,357.30351796 146.436037601,343.142109076 141.813496042,346.905162125 153.313257253,360.752742856 157.547045585,357.30351796" stroke="#000000" stroke-width="1" /><polygon fill="none" points="151.931096339,361.922002668 140.304391214,348.180833579 135.824946978,352.111763556 147.828543414,365.524953803 151.931096339,361.922002668" stroke="#000000" stroke-width="1" /><polygon fill="none" points="146.490811427,366.744344382 134.364289841,353.442183872 130.03394829,357.535450761 142.524984483,370.495929719 146.490811427,366.744344382" stroke="#000000" stroke-width="1" /><polygon fill="none" points="141.233468065,371.763731061 128.623693388,358.918748281 124.448238158,363.168604039 137.409652854,375.658669253 141.233468065,371.763731061" stroke="#000000" stroke-width="1" /><polygon fill="none" points="136.16606979,376.973100098 123.090265458,364.602839751 119.075252196,369.003338065 132.489341663,381.005929609 136.16606979,376.973100098" stroke="#000000" stroke-width="1" /><polygon fill="none" points="131.295339117,382.365150478 117.771365105,370.486508851 113.922115719,375.031514972 127.770557924,386.530238749 131.295339117,382.365150478" stroke="#000000" stroke-width="1" /><polygon fill="none" points="126.627710827,387.932354987 112.674039257,376.561556874 108.99563666,381.24475749 123.259516297,392.223907626 126.627710827,387.932354987" stroke="#000000" stroke-width="1" /><polygon fill="none" points="122.169325886,393.666972445 107.805015795,382.81954899 104.302299121,387.634462102 118.962133445,398.0790424 122.169325886,393.666972445" stroke="#000000" stroke-width="1" /><polygon fill="none" points="117.926025952,399.561059917 103.17069726,389.251827396 99.8482575357,394.19181219 114.884022977,404.087556609 117.926025952,399.561059917" stroke="#000000" stroke-width="1" /><polygon fill="none" points="113.903348455,405.606484864 98.7771551651,395.849524447 95.6393314117,400.907791112 111.030490923,410.241183255 113.903348455,405.606484864" stroke="#000000" stroke-width="1" /><polygon fill="none" points="110.106522198,411.794937205 94.630124872,402.603575728 91.681000618,407.773195211 107.406531727,416.531486787 110.106522198,411.794937205" stroke="#000000" stroke-width="1" /><polygon fill="none" points="106.540463477,418.117941269 90.7350010119,409.504733025 87.9784011871,414.77864671 104.01682471,422.949874946 106.540463477,418.117941269" stroke="#000000" stroke-width="1" /><polygon fill="none" points="103.209772656,424.566867604 87.0968334112,416.5435772 84.5363215987,421.914606483 100.865730979,429.487610464 103.209772656,424.566867604" stroke="#000000" stroke-width="1" /><polygon fill="none" points="100.118731174,431.132944638 83.720323488,423.710530923 81.3591995077,429.171386685 97.957290735,436.1358226 100.118731174,431.132944638" stroke="#000000" stroke-width="1" /><polygon fill="none" points="97.2712989627,437.807270166 80.6098210867,430.995871265 78.4511188841,436.539163227 95.2952209628,442.885518493 97.2712989627,437.807270166" stroke="#000000" stroke-width="1" /><polygon fill="none" points="94.6711122057,444.580822671 77.7693217146,438.389742136 75.8158075304,444.007988092 92.8829134431,449.727594351 94.6711122057,444.580822671" stroke="#000000" stroke-width="1" /><polygon fill="none" points="92.3214814411,451.444472457 75.2024641477,445.882166558 73.4566349416,451.567801488 90.7234330747,456.652846447 92.3214814411,451.444472457" stroke="#000000" stroke-width="1" /><polygon fill="none" points="90.2253899493,458.388992602 72.9125283722,453.463058781 71.3766104792,459.208443845 88.8195164634,463.651981943 90.2253899493,458.388992602" stroke="#000000" stroke-width="1" /><polygon fill="none" points="88.3854924046,465.405069746 70.9024338302,461.122236235 69.5783818258,466.919667646 87.1735707496,470.715629545 88.3854924046,465.405069746" stroke="#000000" stroke-width="1" /><polygon fill="none" points="86.8041137582,472.483314698 69.1747379414,468.849431333 68.0642336956,474.691149128 85.7876726473,477.83435 86.8041137582,472.483314698" stroke="#000000" stroke-width="1" /><polygon fill="none" points="85.4832483247,479.614272898 67.7316348723,476.634303127 66.8360867736,482.512499829 84.6635676675,484.998646441 85.4832483247,479.614272898" stroke="#000000" stroke-width="1" /><polygon fill="none" points="84.4245590485,486.788434726 66.5749545293,484.466448829 65.895496862,490.373278031 83.8026695038,492.198974605 84.4245590485,486.788434726" stroke="#000000" stroke-width="1" /><polygon fill="none" points="83.6293769269,493.996245697 65.7061617536,492.335415227 65.2436542153,498.263000093 83.2060595609,499.425752947 83.6293769269,493.996245697" stroke="#000000" stroke-width="1" /><polygon fill="none" points="83.0987005708,501.228116542 65.1263556994,500.230709994 64.8813830457,506.1711517 82.8744866102,506.669372653 83.0987005708,501.228116542" stroke="#000000" stroke-width="1" /><polygon fill="none" points="82.8331958903,508.474433207 64.8362693821,508.141812918 64.8091411906,514.087199051 82.8083665587,513.920207594 82.8331958903,508.474433207" stroke="#000000" stroke-width="1" /><polygon fill="none" points="82.8331958903,515.725566793 64.8362693821,516.058187082 65.027019929,522.00060001 83.0077823241,521.168624233 82.8331958903,515.725566793" stroke="#000000" stroke-width="1" /><polygon fill="none" points="83.0987005708,522.971883458 65.1263556994,523.969290006 65.5347439463,529.900815234 83.4724838097,528.404991515 83.0987005708,522.971883458" stroke="#000000" stroke-width="1" /><polygon fill="none" points="83.6293769269,530.203754303 65.7061617536,531.864584773 66.3316714429,537.777319309 84.2018879795,535.619690765 83.6293769269,530.203754303" stroke="#000000" stroke-width="1" /><polygon fill="none" points="84.4245590485,537.411565274 66.5749545293,539.733551171 67.416794392,545.619611918 85.1950790357,542.803125609 84.4245590485,537.411565274" stroke="#000000" stroke-width="1" /><polygon fill="none" points="85.4832483247,544.585727102 67.7316348723,547.565696873 68.7887389522,553.417229054 86.4508087046,549.945731962 85.4832483247,544.585727102" stroke="#000000" stroke-width="1" /><polygon fill="none" points="86.8041137582,551.716685302 69.1747379414,555.350568667 70.4457660458,561.159754314 87.9674966441,557.037988085 86.8041137582,551.716685302" stroke="#000000" stroke-width="1" /><polygon fill="none" points="88.3854924046,558.794930254 70.9024338302,563.077763765 72.3857721161,568.836830278 89.7432309839,564.07042475 88.3854924046,558.794930254" stroke="#000000" stroke-width="1" /><polygon fill="none" points="90.2253899493,565.811007398 72.9125283722,570.736941219 74.6062900825,576.438170008 91.7757690189,571.033635519 90.2253899493,565.811007398" stroke="#000000" stroke-width="1" /><polygon fill="none" points="92.3214814411,572.755527543 75.2024641477,578.317833442 77.1044905136,583.953568671 94.0625380756,577.918287162 92.3214814411,572.755527543" stroke="#000000" stroke-width="1" /><polygon fill="none" points="94.6711122057,579.619177329 77.7693217146,585.810257864 79.8771830409,591.372915296 96.6006365754,584.715130237 94.6711122057,579.619177329" stroke="#000000" stroke-width="1" /><polygon fill="none" points="97.2712989627,586.392729834 80.6098210867,593.204128735 82.9208180422,598.686204697 99.3868353232,591.415009823 97.2712989627,586.392729834" stroke="#000000" stroke-width="1" /><polygon fill="none" points="100.118731174,593.067055362 83.720323488,600.489469077 86.2314886213,605.883549543 102.41757905,598.00887643 100.118731174,593.067055362" stroke="#000000" stroke-width="1" /><polygon fill="none" points="103.209772656,599.633132396 87.0968334112,607.6564228 89.8049329155,612.955192594 105.688988239,604.487797098 103.209772656,599.633132396" stroke="#000000" stroke-width="1" /><polygon fill="none" points="106.540463477,606.082058731 90.7350010119,614.695266975 93.6365367641,619.891519095 109.196861274,610.842966661 106.540463477,606.082058731" stroke="#000000" stroke-width="1" /><polygon fill="none" points="110.106522198,612.405062795 94.630124872,621.596424272 97.7213367704,626.683069335 112.936676934,617.065719197 110.106522198,612.405062795" stroke="#000000" stroke-width="1" /><polygon fill="none" points="113.903348455,618.593515136 98.7771551651,628.350475553 102.054023793,633.320551346 116.903597287,623.147539646 113.903348455,618.593515136" stroke="#000000" stroke-width="1" /><polygon fill="none" points="117.926025952,624.638940083 103.17069726,634.948172604 106.628946899,639.794853738 121.092470992,629.080075587 117.926025952,624.638940083" stroke="#000000" stroke-width="1" /><polygon fill="none" points="122.169325886,630.533027555 107.805015795,641.38045101 111.440117816,646.097058654 125.497837074,634.855149151 122.169325886,630.533027555" stroke="#000000" stroke-width="1" /><polygon fill="none" points="126.627710827,636.267645013 112.674039257,647.638443126 116.481215916,652.218454819 130.113929184,640.464769059 126.627710827,636.267645013" stroke="#000000" stroke-width="1" /><polygon fill="none" points="131.295339117,641.834849522 117.771365105,653.713491149 121.745593757,658.150550655 134.93468039,645.90114276 131.295339117,641.834849522" stroke="#000000" stroke-width="1" /><polygon fill="none" points="136.16606979,647.226899902 123.090265458,659.597160249 127.226283227,663.885087434 139.953728519,651.156688621 136.16606979,647.226899902" stroke="#000000" stroke-width="1" /><polygon fill="none" points="141.233468065,652.436268939 128.623693388,665.281251719 132.916002307,669.41405243 145.164422098,656.224048161 141.233468065,652.436268939" stroke="#000000" stroke-width="1" /><polygon fill="none" points="146.490811427,657.455655618 134.364289841,670.757816128 138.807162477,674.729692041 150.559826899,661.096098275 146.490811427,657.455655618" stroke="#000000" stroke-width="1" /><polygon fill="none" points="151.931096339,662.277997332 140.304391214,676.019166421 144.891876797,679.824524818 156.132733124,665.765963404 151.931096339,662.277997332" stroke="#000000" stroke-width="1" /><polygon fill="none" points="157.547045585,666.89648204 146.436037601,681.057890924 151.161968675,684.691354371 161.875663251,670.227027614 157.547045585,666.89648204" stroke="#000000" stroke-width="1" /><polygon fill="none" points="163.331116278,671.304560316 152.750981736,685.866866215 157.608981339,689.323282107 167.780880544,674.472946536 163.331116278,671.304560316" stroke="#000000" stroke-width="1" /><polygon fill="none" points="169.275508548,675.495957241 159.240698639,690.439269796 164.224188014,693.713719716 173.840398258,678.497659104 169.275508548,675.495957241" stroke="#000000" stroke-width="1" /><polygon fill="none" points="175.372174907,679.464684085 165.896395975,694.768592529 170.99860282,697.856401396 180.045989517,682.295399051 175.372174907,679.464684085" stroke="#000000" stroke-width="1" /><polygon fill="none" points="181.612830313,683.205049736 172.709025131,698.84865077 177.922992392,701.74539572 186.389197899,685.8607061 181.612830313,683.205049736" stroke="#000000" stroke-width="1" /><polygon fill="none" points="187.988962911,686.711671803 179.669293007,702.67359815 184.987888196,705.375117113 192.861348694,689.188436793 187.988962911,686.711671803" stroke="#000000" stroke-width="1" /><polygon fill="none" points="194.491845472,689.979487349 186.767674514,706.237936937 192.183599552,708.740336871 199.453560843,692.273774909 194.491845472,689.979487349" stroke="#000000" stroke-width="1" /><polygon fill="none" points="201.11254749,693.003763196 193.994425767,709.536528939 199.50022734,711.836193665 206.15675953,695.112241404 201.11254749,693.003763196" stroke="#000000" stroke-width="1" /><polygon fill="none" points="207.841947943,695.780105737 201.339597951,712.564605866 206.927678353,714.658203476 212.961689421,697.699703825 207.841947943,695.780105737" stroke="#000000" stroke-width="1" /><polygon fill="none" points="214.670748677,698.304470213 208.793051846,715.317779119 214.455680292,717.202268907 219.858928504,700.032385135 214.670748677,698.304470213" stroke="#000000" stroke-width="1" /><polygon fill="none" points="221.589488401,700.57316938 216.344472957,717.792048931 222.073797342,719.464687807 226.83890251,702.106871909 221.589488401,700.57316938" stroke="#000000" stroke-width="1" /><polygon fill="none" points="228.588557243,702.582881545 223.983387247,719.983812822 229.771446311,721.442161173 233.891899875,703.920121839 228.588557243,702.582881545" stroke="#000000" stroke-width="1" /><polygon fill="none" points="235.658211838,704.33065788 231.699177397,721.889873304 237.537913274,723.131800271 241.00808719,705.469470499 235.658211838,704.33065788" stroke="#000000" stroke-width="1" /><polygon fill="none" points="242.788590896,705.813929015 239.481099575,723.507444809 245.362370679,724.531132939 248.177525108,706.752637346 242.788590896,705.813929015" stroke="#000000" stroke-width="1" /><polygon fill="none" points="249.969731212,707.030510823 247.318300647,724.834159774 253.233894858,725.638109021 255.390184636,707.767730894 249.969731212,707.030510823" stroke="#000000" stroke-width="1" /><polygon fill="none" points="257.191584048,707.978609396 255.199835774,725.86807386 261.141483877,726.451104917 262.635963773,708.513253043 257.191584048,707.978609396" stroke="#000000" stroke-width="1" /><polygon fill="none" points="264.444031845,708.656825153 263.11468635,726.607670274 269.074075687,726.968927203 269.90470442,708.988102531 264.444031845,708.656825153" stroke="#000000" stroke-width="1" /><polygon fill="none" points="271.716905192,709.06415607 271.051778203,727.051863153 277.020566477,727.190815306 277.186209508,709.191577478 271.716905192,709.06415607" stroke="#000000" stroke-width="1" /><polygon fill="none" points="279.0,709.2 279.0,727.2 284.458498485,727.2 284.458498485,709.2 279.0,709.2" stroke="#000000" stroke-width="1" /><polygon fill="none" points="286.714285714,709.2 286.714285714,727.2 292.1727842,727.2 292.1727842,709.2 286.714285714,709.2" stroke="#000000" stroke-width="1" /><polygon fill="none" points="294.428571429,709.2 294.428571429,727.2 299.887069914,727.2 299.887069914,709.2 294.428571429,709.2" stroke="#000000" stroke-width="1" /><polygon fill="none" points="302.142857143,709.2 302.142857143,727.2 307.601355628,727.2 307.601355628,709.2 302.142857143,709.2" stroke="#000000" stroke-width="1" /><polygon fill="none" points="309.857142857,709.2 309.857142857,727.2 315.315641343,727.2 315.315641343,709.2 309.857142857,709.2" stroke="#000000" stroke-width="1" /><polygon fill="none" points="317.571428571,709.2 317.571428571,727.2 323.029927057,727.2 323.029927057,709.2 317.571428571,709.2" stroke="#000000" stroke-width="1" /><polygon fill="none" points="325.285714286,709.2 325.285714286,727.2 330.744212771,727.2 330.744212771,709.2 325.285714286,709.2" stroke="#000000" stroke-width="1" /><polygon fill="none" points="279.0,237.6 279.0,255.6 284.458498485,255.6 284.458498485,237.6 279.0,237.6" stroke="#000000" stroke-width="1" /><polygon fill="none" points="286.714285714,237.6 286.714285714,255.6 292.1727842,255.6 292.1727842,237.6 286.714285714,237.6" stroke="#000000" stroke-width="1" /><polygon fill="none" points="294.428571429,237.6 294.428571429,255.6 299.887069914,255.6 299.887069914,237.6 294.428571429,237.6" stroke="#000000" stroke-width="1" /><polygon fill="none" points="302.142857143,237.6 302.142857143,255.6 307.601355628,255.6 307.601355628,237.6 302.142857143,237.6" stroke="#000000" stroke-width="1" /><polygon fill="none" points="309.857142857,237.6 309.857142857,255.6 315.315641343,255.6 315.315641343,237.6 309.857142857,237.6" stroke="#000000" stroke-width="1" /><polygon fill="none" points="317.571428571,237.6 317.571428571,255.6 323.029927057,255.6 323.029927057,237.6 317.571428571,237.6" stroke="#000000" stroke-width="1" /><polygon fill="none" points="325.285714286,237.6 325.285714286,255.6 330.744212771,255.6 330.744212771,237.6 325.285714286,237.6" stroke="#000000" stroke-width="1" /><polygon fill="none" points="333.0,237.6 333.0,255.6 334.418100195,255.811851726 338.50149407,238.281138836 333.0,237.6" stroke="#000000" stroke-width="1" /><polygon fill="none" points="340.481160359,238.875355924 334.91885446,255.994373218 336.125899841,256.720588635 345.426726401,241.309728006 340.481160359,238.875355924" stroke="#000000" stroke-width="1" /><polygon fill="none" points="347.093578163,242.501853822 336.513443621,257.064159721 337.364494844,258.120955072 350.972324383,246.338469119 347.093578163,242.501853822" stroke="#000000" stroke-width="1" /><polygon fill="none" points="352.173327237,247.969762359 337.611021338,258.5498969 338.094367792,259.749311557 354.677171144,252.748552097 352.173327237,247.969762359" stroke="#000000" stroke-width="1" /><polygon fill="none" points="355.332378261,254.643770439 338.213360968,260.206076338 338.386516898,261.4393486 356.32105373,259.905598746 355.332378261,254.643770439" stroke="#000000" stroke-width="1" /><polygon fill="none" points="356.4,261.9 338.4,261.9 338.301968147,263.134976831 355.832681038,267.218370706 356.4,261.9" stroke="#000000" stroke-width="1" /><polygon fill="none" points="355.332378261,269.156229561 338.213360968,263.593923662 337.820575947,264.809334 353.231436575,274.11016056 355.332378261,269.156229561" stroke="#000000" stroke-width="1" /><polygon fill="none" points="352.173327237,275.830237641 337.611021338,265.2501031 336.863241816,266.361735521 348.64572777,279.96956506 352.173327237,275.830237641" stroke="#000000" stroke-width="1" /><polygon fill="none" points="347.093578163,281.298146178 336.513443621,266.735840279 335.394716166,267.572399901 342.395475626,284.155203252 347.093578163,281.298146178" stroke="#000000" stroke-width="1" /><polygon fill="none" points="340.481160359,284.924644076 334.91885446,267.805626782 333.53622338,268.170199754 335.069973234,286.104736586 340.481160359,284.924644076" stroke="#000000" stroke-width="1" /><polygon fill="none" points="333.0,286.2 333.0,268.2 327.541501515,268.2 327.541501515,286.2 333.0,286.2" stroke="#000000" stroke-width="1" /><polygon fill="none" points="325.285714286,286.2 325.285714286,268.2 319.8272158,268.2 319.8272158,286.2 325.285714286,286.2" stroke="#000000" stroke-width="1" /><polygon fill="none" points="317.571428571,286.2 317.571428571,268.2 312.112930086,268.2 312.112930086,286.2 317.571428571,286.2" stroke="#000000" stroke-width="1" /><polygon fill="none" points="309.857142857,286.2 309.857142857,268.2 304.398644372,268.2 304.398644372,286.2 309.857142857,286.2" stroke="#000000" stroke-width="1" /><polygon fill="none" points="302.142857143,286.2 302.142857143,268.2 296.684358657,268.2 296.684358657,286.2 302.142857143,286.2" stroke="#000000" stroke-width="1" /><polygon fill="none" points="294.428571429,286.2 294.428571429,268.2 288.970072943,268.2 288.970072943,286.2 294.428571429,286.2" stroke="#000000" stroke-width="1" /><polygon fill="none" points="286.714285714,286.2 286.714285714,268.2 281.255787229,268.2 281.255787229,286.2 286.714285714,286.2" stroke="#000000" stroke-width="1" /><polygon fill="none" points="279.0,286.2 279.0,268.2 273.095393694,268.272013959 273.531158945,286.266738426 279.0,286.2" stroke="#000000" stroke-width="1" /><polygon fill="none" points="271.684961509,286.319417847 271.102087466,268.328857604 265.203012802,268.593450071 266.221252735,286.564626645 271.684961509,286.319417847" stroke="#000000" stroke-width="1" /><polygon fill="none" points="264.377779583,286.677537112 263.212642852,268.71528624 257.325423715,269.172161208 258.925070337,287.100940605 264.377779583,286.677537112" stroke="#000000" stroke-width="1" /><polygon fill="none" points="257.086300786,287.273955197 255.340123435,269.358853616 249.471068822,270.007500135 251.650444325,287.875077543 257.086300786,287.273955197" stroke="#000000" stroke-width="1" /><polygon fill="none" points="249.818351711,288.108001863 247.492965237,270.258840041 241.648361357,271.098533062 244.405179876,288.886167859 249.818351711,288.108001863" stroke="#000000" stroke-width="1" /><polygon fill="none" points="242.581729059,289.178740365 239.679572473,271.414239608 233.865674907,272.444041172 237.197044921,290.133076585 242.581729059,289.178740365" stroke="#000000" stroke-width="1" /><polygon fill="none" points="235.384189808,290.484969028 231.908307072,272.823761844 226.131333016,274.04252262 230.033760378,291.614405293 235.384189808,290.484969028" stroke="#000000" stroke-width="1" /><polygon fill="none" points="228.233441485,292.02522327 224.187478318,274.485833826 218.453598931,275.892194979 222.922990533,293.328494435 228.233441485,292.02522327" stroke="#000000" stroke-width="1" /><polygon fill="none" points="221.137132572,293.797778042 216.525332632,276.398602736 210.840665493,277.99099813 215.87233356,295.273426098 221.137132572,293.797778042" stroke="#000000" stroke-width="1" /><polygon fill="none" points="214.102843077,295.800650696 208.930043505,278.559938861 203.300645217,280.336597574 208.889312225,297.447027174 214.102843077,295.800650696" stroke="#000000" stroke-width="1" /><polygon fill="none" points="207.138075282,298.031604248 201.40970163,280.967439009 195.841560574,282.926388161 201.981364782,299.846872914 207.138075282,298.031604248" stroke="#000000" stroke-width="1" /><polygon fill="none" points="200.250244696,300.488151033 193.972305238,283.618430342 188.471334499,285.75749821 195.155836101,302.470290865 200.250244696,300.488151033" stroke="#000000" stroke-width="1" /><polygon fill="none" points="193.446671237,303.167556729 186.625750664,286.509974596 181.197781146,288.826794014 188.419969023,305.31436516 193.446671237,303.167556729" stroke="#000000" stroke-width="1" /><polygon fill="none" points="186.734570655,306.066844742 179.377823171,289.638872668 174.028596909,292.130884696 181.780895983,308.375941146 186.734570655,306.066844742" stroke="#000000" stroke-width="1" /><polygon fill="none" points="180.121046221,309.182800909 172.236188038,293.00166957 166.971351719,295.666127404 175.245630899,311.651630338 180.121046221,309.182800909" stroke="#000000" stroke-width="1" /><polygon fill="none" points="173.613080686,312.511978533 165.208381931,296.5946597 160.033480644,299.428632827 168.821061353,315.13781566 173.613080686,312.511978533" stroke="#000000" stroke-width="1" /><polygon fill="none" points="167.21752854,316.050703695 158.301804581,300.413892438 153.222275793,303.414270999 162.513941073,318.830656968 167.21752854,316.050703695" stroke="#000000" stroke-width="1" /><polygon fill="none" points="160.941108566,319.795080842 151.523710768,304.455178016 146.544878544,307.618677381 156.330882721,322.726096824 160.941108566,319.795080842" stroke="#000000" stroke-width="1" /><polygon fill="none" points="154.790396716,323.740998624 144.881202627,308.71409367 140.008272099,312.037259181 150.278351006,326.819866503 154.790396716,323.740998624" stroke="#000000" stroke-width="1" /><polygon fill="none" points="148.771819295,327.88413595 138.381222292,313.185990015 133.619274371,316.66520191 144.362656113,331.107492197 148.771819295,327.88413595" stroke="#000000" stroke-width="1" /><polygon fill="none" points="142.891646483,332.219968245 132.030544868,317.865997655 127.384531218,321.497476133 138.589947472,335.584301416 142.891646483,332.219968245" stroke="#000000" stroke-width="1" /><polygon fill="none" points="137.15598618,336.743773895 125.835771748,322.749033983 121.310510015,326.528844395 132.966207847,340.24542954 137.15598618,336.743773895" stroke="#000000" stroke-width="1" /><polygon fill="none" points="131.570778184,341.45064083 119.803324277,327.829810145 115.403493576,331.75386831 127.497247767,345.085826514 131.570778184,341.45064083" stroke="#000000" stroke-width="1" /><polygon fill="none" points="126.141788704,346.335473255 113.939437755,333.102838168 109.669574412,337.166915777 122.188700285,350.100263657 126.141788704,346.335473255" stroke="#000000" stroke-width="1" /><polygon fill="none" points="120.874605196,351.392998485 108.250155788,338.562438203 104.114649335,342.762168308 117.046016056,355.283340567 120.874605196,351.392998485" stroke="#000000" stroke-width="1" /><polygon fill="none" points="115.774631535,356.617773872 102.741324971,344.20274588 98.7444144017,348.533628446 112.074458752,360.629492104 115.774631535,356.617773872" stroke="#000000" stroke-width="1" /><polygon fill="none" points="110.847083501,362.004193796 97.4185899208,350.017719746 93.5643601778,354.475127259 107.279100781,366.132995425 110.847083501,362.004193796" stroke="#000000" stroke-width="1" /><polygon fill="none" points="106.096984582,367.546496721 92.28738862,356.001148768 88.5797673375,360.580331873 102.664819326,371.787977053 106.096984582,367.546496721" stroke="#000000" stroke-width="1" /><polygon fill="none" points="101.529162082,373.238772265 87.3529480979,362.146659885 83.795702571,366.842753053 98.2362926695,377.588419975 101.529162082,373.238772265" stroke="#000000" stroke-width="1" /><polygon fill="none" points="97.148243532,379.074968303 82.6202804161,368.447725589 79.2170148003,373.255752795 93.9979968241,383.528170739 97.148243532,379.074968303" stroke="#000000" stroke-width="1" /><polygon fill="none" points="92.9586533796,385.048898059 78.0941789594,374.897671522 74.8483316894,379.81255192 89.9542024294,389.600946537 92.9586533796,385.048898059" stroke="#000000" stroke-width="1" /><polygon fill="none" points="88.9646099625,391.154247192 73.779215019,381.489684066 70.6940564381,386.506237662 86.1089719219,395.800342279 88.9646099625,391.154247192" stroke="#000000" stroke-width="1" /><polygon fill="none" points="85.1701227405,397.38458085 69.679734656,388.216817928 66.7583648473,393.329771231 82.4661569573,402.119837614 85.1701227405,397.38458085" stroke="#000000" stroke-width="1" /><polygon fill="none" points="81.5789897806,403.733350698 65.7998558332,395.072003698 63.045202643,400.275995344 79.0293960744,408.552803928 81.5789897806,403.733350698" stroke="#000000" stroke-width="1" /><polygon fill="none" points="78.19479548,410.193901887 62.1434658021,402.048055364 59.5582830458,407.337641716 75.8021125869,415.092511273 78.19479548,410.193901887" stroke="#000000" stroke-width="1" /><polygon fill="none" points="75.0209085127,416.759479976 58.7142187327,409.1376778 56.3010845728,414.507338504 72.7875126895,421.732135245 75.0209085127,416.759479976" stroke="#000000" stroke-width="1" /><polygon fill="none" points="72.060479988,423.4232378 55.5155335717,416.333474188 53.2768490587,421.77761769 69.9885837646,428.464763801 72.060479988,423.4232378" stroke="#000000" stroke-width="1" /><polygon fill="none" points="69.3164418054,430.17824226 52.5505921169,423.627953395 50.4885798828,429.140922416 67.4080928758,435.283404006 69.3164418054,430.17824226" stroke="#000000" stroke-width="1" /><polygon fill="none" points="66.7915051937,437.017481057 49.8223372939,431.013537288 47.9390403883,436.589614254 65.0485854359,442.180988706 66.7915051937,437.017481057" stroke="#000000" stroke-width="1" /><polygon fill="none" points="64.4881594198,443.933869351 47.3334716227,438.482567985 45.6307524828,444.115980407 62.9123840348,449.150383142 64.4881594198,443.933869351" stroke="#000000" stroke-width="1" /><polygon fill="none" points="62.4086706566,450.920256352 45.0864558608,446.027315052 43.5659954058,451.712240862 61.0015874172,456.184391487 62.4086706566,450.920256352" stroke="#000000" stroke-width="1" /><polygon fill="none" points="60.5550809954,457.969431842 43.0835078122,453.639982628 41.7468046541,459.370555473 59.3180695965,463.27576332 60.5550809954,457.969431842" stroke="#000000" stroke-width="1" /><polygon fill="none" points="58.929207593,465.074132634 41.3266012899,461.312716499 40.1749710519,467.083030988 57.8634790949,470.417200032 58.929207593,465.074132634" stroke="#000000" stroke-width="1" /><polygon fill="none" points="57.5326419416,472.227048962 39.8174652219,469.037611113 38.8520399584,474.841728023 56.6392382996,477.601361182 57.5326419416,472.227048962" stroke="#000000" stroke-width="1" /><polygon fill="none" points="56.3667492535,479.420830819 38.5575828913,476.806716537 37.7793106013,482.638667989 55.646542926,484.820870789 56.3667492535,479.420830819" stroke="#000000" stroke-width="1" /><polygon fill="none" points="55.4326679496,486.648094245 37.548191301,484.612045374 36.9578355314,490.465839974 54.8863615801,492.068323584 55.4326679496,486.648094245" stroke="#000000" stroke-width="1" /></g><g id="icons"><g id="icon0" transform="translate(224.0, 36.0) scale(0.45)"><path d="M 65.789062 0 L 63.15625 5.2636719 L 73.683594 9.2109375 L 73.683594 21.052734 L 36.841797 21.052734 L 36.841797 15.789062 L 42.105469 15.789062 L 42.105469 13.158203 C 42.105469 11.863203 40.767656 10.527344 39.472656 10.527344 L 26.314453 10.527344 C 23.682453 10.527344 23.683594 13.158203 23.683594 13.158203 L 23.683594 15.789062 L 31.578125 15.789062 L 31.578125 21.052734 L 25.986328 32.236328 C 24.408328 31.858328 22.744734 31.578125 21.052734 31.578125 C 9.4257344 31.578125 0 41.003859 0 52.630859 C 0 64.258859 9.4247344 73.683594 21.052734 73.683594 C 32.678734 73.683594 42.105469 64.258859 42.105469 52.630859 L 50 52.630859 C 52.632 52.630859 52.630859 50 52.630859 50 C 53.171859 42.261 57.157984 36.189328 62.333984 32.236328 C 65.912984 29.504328 69.771594 27.819609 73.683594 26.974609 L 73.683594 30.263672 L 73.683594 32.400391 C 64.608594 34.740391 57.894531 42.823859 57.894531 52.630859 C 57.894531 64.258859 67.319312 73.683594 78.945312 73.683594 C 90.572312 73.683594 100 64.258859 100 52.630859 C 100 43.009859 93.519125 35.078406 84.703125 32.566406 L 78.945312 21.052734 L 78.945312 7.8964844 C 78.945312 6.3704844 77.722406 4.6732813 76.316406 4.1132812 L 65.789062 0 z M 36.841797 26.316406 L 60.527344 26.316406 C 55.262344 28.948406 47.367188 42.104141 47.367188 47.369141 L 41.283203 47.367188 C 39.952203 42.208188 36.914406 37.864203 32.566406 35.033203 L 36.841797 26.316406 z " fill="none" stroke="#000000" stroke-width="2.22222222222" /></g><g id="icon1" transform="translate(224.0, 64.8) scale(0.459183673469)"><path d="M 35 0 C 34.45 0 34 0.45 34 1 L 34 2 L 7.703125 2 C 4.070125 2 1 3.8330156 1 7.6660156 L 1 19.201172 L 1 21 L 1 22 C 0.45 22 0 22.45 0 23 L 0 29 C 0 29.55 0.45 30 1 30 L 1 31 L 1 31.162109 L 1 34.5 C 1 40.249 7.6992188 40 7.6992188 40 L 9.6210938 40 L 9.6210938 39.998047 L 12.470703 39.998047 C 12.467626 40.081838 12.457031 40.163498 12.457031 40.248047 C 12.457031 43.980047 15.478031 47 19.207031 47 C 22.930031 47 25.957031 43.980047 25.957031 40.248047 C 25.957031 40.16352 25.948396 40.081817 25.945312 39.998047 L 28.787109 39.998047 L 28.787109 40 L 69.039062 40 L 69.039062 39.998047 L 71.939453 39.998047 C 71.936373 40.081838 71.925781 40.163498 71.925781 40.248047 C 71.925781 43.980047 74.949781 47 78.675781 47 C 82.400781 47 85.427734 43.980047 85.427734 40.248047 C 85.427734 40.163498 85.417148 40.081838 85.414062 39.998047 L 88 39.998047 L 88 40 L 92.130859 40 C 92.130859 40 98 40.249 98 34.5 L 98 29.701172 L 98.001953 29.701172 L 98.001953 11.34375 L 98 11.34375 L 98 10.5 C 98 10.373508 97.949271 10.260179 97.871094 10.171875 L 97.871094 8 C 97.871094 8 97.871047 2 92.123047 2 L 63 2 L 63 1 C 63 0.45 62.55 0 62 0 L 35 0 z " fill="none" stroke="#000000" stroke-width="2.17777777778" /></g><g id="icon2" transform="translate(224.0, 93.6) scale(0.508093328299)"><path d="M 42.089844 0.005859375 C 41.488164 -0.006644535 41.167969 0.0078125 41.167969 0.0078125 L 0 0.0078125 L 0 25.507812 L 0 27.222656 L 0 28.376953 L 0 31.263672 L 0.35546875 31.263672 C 0.30017795 31.56927 0.265625 31.881509 0.265625 32.203125 C 0.265625 35.109082 2.6201979 37.460938 5.5214844 37.460938 C 8.421992 37.460938 10.779297 35.109082 10.779297 32.203125 C 10.779297 31.881509 10.744793 31.56927 10.689453 31.263672 L 12.015625 31.263672 C 11.960335 31.56927 11.925781 31.881509 11.925781 32.203125 C 11.925781 35.109082 14.280354 37.460938 17.181641 37.460938 C 20.082149 37.460938 22.439453 35.109082 22.439453 32.203125 C 22.439453 31.881509 22.404949 31.56927 22.349609 31.263672 L 44.46875 31.263672 C 44.41346 31.56927 44.380859 31.881509 44.380859 32.203125 C 44.380859 35.109082 46.735432 37.460938 49.636719 37.460938 C 52.537227 37.460938 54.892578 35.109082 54.892578 32.203125 C 54.892578 31.881509 54.858074 31.56927 54.802734 31.263672 L 56.03125 31.263672 C 55.97597 31.569249 55.943359 31.881533 55.943359 32.203125 C 55.943359 35.109082 58.297933 37.460938 61.199219 37.460938 C 64.099727 37.460938 66.455078 35.109082 66.455078 32.203125 C 66.455078 31.881509 66.420574 31.56927 66.365234 31.263672 L 67.595703 31.263672 C 67.540413 31.56927 67.505859 31.881509 67.505859 32.203125 C 67.505859 35.109082 69.860432 37.460938 72.761719 37.460938 C 75.662226 37.460938 78.017578 35.109082 78.017578 32.203125 C 78.017578 31.881533 77.985018 31.569249 77.929688 31.263672 L 78.902344 31.263672 C 84.391344 31.263672 88.566406 30.824563 88.566406 27.851562 C 88.566406 24.878563 81.648436 18.304688 81.648438 18.304688 C 64.237674 1.4941866 46.301602 0.093386715 42.089844 0.005859375 z " fill="none" stroke="#000000" stroke-width="1.96814235556" /></g><g id="icon3" transform="translate(224.0, 122.4) scale(0.451435569626)"><path d="M 66.525391 0 L 33.658203 0.03125 C 31.611203 0.03125 30.329141 0.72685928 28.994141 2.5058594 L 21.417969 13.175781 L 7.8925781 13.175781 C 5.7095781 13.175781 3.9355469 14.947766 3.9355469 17.134766 L 3.9355469 24.796875 L 1.484375 24.796875 C 0.663375 24.796875 0 25.461297 0 26.279297 L 0 30.193359 C 0 31.012359 0.663375 31.679686 1.484375 31.679688 L 16.320312 31.679688 L 19.390625 31.679688 L 22.419922 31.679688 C 22.278126 32.300789 22.195312 32.945292 22.195312 33.609375 C 22.195312 38.384375 26.068844 42.255859 30.839844 42.255859 C 35.612844 42.255859 39.480469 38.385375 39.480469 33.609375 C 39.480469 32.944875 39.397801 32.300998 39.255859 31.679688 L 42.283203 31.679688 L 71.050781 31.679688 L 73.972656 31.679688 C 73.831083 32.300789 73.748047 32.945292 73.748047 33.609375 C 73.748047 38.384375 77.617672 42.255859 82.388672 42.255859 C 87.159672 42.255859 91.03125 38.385375 91.03125 33.609375 C 91.03125 32.944875 90.948647 32.300998 90.806641 31.679688 L 93.939453 31.679688 L 98.195312 31.679688 C 99.022312 31.679688 99.681641 31.014312 99.681641 30.195312 L 99.681641 26.28125 C 99.681641 25.46325 99.021312 24.808594 98.195312 24.808594 L 95.582031 24.789062 L 95.582031 17.134766 C 95.582031 14.947766 93.804094 13.175781 91.621094 13.175781 L 78.787109 13.175781 L 71.191406 2.4746094 C 69.855406 0.69560927 68.571391 -1.4802974e-015 66.525391 0 z M 34.673828 9.9238281 A 5.1980691 5.1980691 0 0 1 39.871094 15.123047 A 5.1980691 5.1980691 0 0 1 34.673828 20.320312 A 5.1980691 5.1980691 0 0 1 29.474609 15.123047 A 5.1980691 5.1980691 0 0 1 34.673828 9.9238281 z M 50.005859 9.9238281 A 5.1980691 5.1980691 0 0 1 55.203125 15.123047 A 5.1980691 5.1980691 0 0 1 50.005859 20.320312 A 5.1980691 5.1980691 0 0 1 44.806641 15.123047 A 5.1980691 5.1980691 0 0 1 50.005859 9.9238281 z M 65.337891 9.9238281 A 5.1980691 5.1980691 0 0 1 70.535156 15.123047 A 5.1980691 5.1980691 0 0 1 65.337891 20.320312 A 5.1980691 5.1980691 0 0 1 60.138672 15.123047 A 5.1980691 5.1980691 0 0 1 65.337891 9.9238281 z " fill="none" stroke="#000000" stroke-width="2.21515553333" /></g><g id="icon4" transform="translate(224.0, 151.2) scale(0.451435569626)"><path d="M 66.525391 0 L 33.658203 0.03125 C 31.611203 0.03125 30.329141 0.72685932 28.994141 2.5058594 L 21.417969 13.175781 L 7.8925781 13.175781 C 5.7095781 13.175781 3.9355469 14.947766 3.9355469 17.134766 L 3.9355469 24.796875 L 1.484375 24.796875 C 0.663375 24.796875 0 25.461297 0 26.279297 L 0 30.193359 C 0 31.012359 0.663375 31.679686 1.484375 31.679688 L 16.320312 31.679688 L 19.390625 31.679688 L 22.419922 31.679688 C 22.278126 32.300789 22.195312 32.945292 22.195312 33.609375 C 22.195312 38.384375 26.068844 42.255859 30.839844 42.255859 C 35.612844 42.255859 39.480469 38.385375 39.480469 33.609375 C 39.480469 32.944875 39.397801 32.300998 39.255859 31.679688 L 42.283203 31.679688 L 71.050781 31.679688 L 73.972656 31.679688 C 73.831083 32.300789 73.748047 32.945292 73.748047 33.609375 C 73.748047 38.384375 77.617672 42.255859 82.388672 42.255859 C 87.159672 42.255859 91.03125 38.385375 91.03125 33.609375 C 91.03125 32.944875 90.948647 32.300998 90.806641 31.679688 L 93.939453 31.679688 L 98.195312 31.679688 C 99.022312 31.679688 99.681641 31.014312 99.681641 30.195312 L 99.681641 26.28125 C 99.681641 25.46325 99.021312 24.808594 98.195312 24.808594 L 95.582031 24.789062 L 95.582031 17.134766 C 95.582031 14.947766 93.804094 13.175781 91.621094 13.175781 L 78.787109 13.175781 L 71.191406 2.4746094 C 69.855406 0.69560931 68.571391 -1.4802974e-015 66.525391 0 z M 41.611328 5.5644531 L 52.552734 5.5644531 C 55.559291 5.5644531 57.853516 8.1619775 57.853516 11.433594 L 64.052734 11.433594 L 64.052734 17.503906 L 57.853516 17.503906 C 57.853516 20.775522 55.560991 23.373047 52.523438 23.373047 L 41.611328 23.373047 L 41.611328 20.404297 L 36.15625 20.404297 L 36.15625 17.4375 L 41.611328 17.4375 L 41.611328 11.5 L 36.15625 11.5 L 36.15625 8.5332031 L 41.611328 8.5332031 L 41.611328 5.5644531 z " fill="none" stroke="#000000" stroke-width="2.21515553333" /></g><g id="icon5" transform="translate(224.0, 180.0) scale(0.451435569626)"><path d="M 66.525391 0 L 33.658203 0.03125 C 31.611203 0.03125 30.329141 0.72685934 28.994141 2.5058594 L 21.417969 13.175781 L 7.8925781 13.175781 C 5.7095781 13.175781 3.9355469 14.947766 3.9355469 17.134766 L 3.9355469 24.796875 L 1.484375 24.796875 C 0.663375 24.796875 0 25.461297 0 26.279297 L 0 30.193359 C 0 31.012359 0.663375 31.679686 1.484375 31.679688 L 16.320312 31.679688 L 19.390625 31.679688 L 22.419922 31.679688 C 22.278126 32.300789 22.195312 32.945292 22.195312 33.609375 C 22.195312 38.384375 26.068844 42.255859 30.839844 42.255859 C 35.612844 42.255859 39.480469 38.385375 39.480469 33.609375 C 39.480469 32.944875 39.397801 32.300998 39.255859 31.679688 L 42.283203 31.679688 L 71.050781 31.679688 L 73.972656 31.679688 C 73.831083 32.300789 73.748047 32.945292 73.748047 33.609375 C 73.748047 38.384375 77.617672 42.255859 82.388672 42.255859 C 87.159672 42.255859 91.03125 38.385375 91.03125 33.609375 C 91.03125 32.944875 90.948647 32.300998 90.806641 31.679688 L 93.939453 31.679688 L 98.195312 31.679688 C 99.022312 31.679688 99.681641 31.014312 99.681641 30.195312 L 99.681641 26.28125 C 99.681641 25.46325 99.021312 24.808594 98.195312 24.808594 L 95.582031 24.789062 L 95.582031 17.134766 C 95.582031 14.947766 93.804094 13.175781 91.621094 13.175781 L 78.787109 13.175781 L 71.191406 2.4746094 C 69.855406 0.69560933 68.571391 -1.1842379e-015 66.525391 0 z " fill="none" stroke="#000000" stroke-width="2.21515553333" /></g><g id="icon6" transform="translate(224.0, 208.8) scale(0.450933436723)"><path d="M 58.951172 0 L 10.978516 0.001953125 C 7.6135144 0.001953125 4.8808594 2.7306562 4.8808594 6.0976562 L 4.875 30.539062 L 1.8242188 30.548828 C 0.8162186 30.548828 0 31.368953 0 32.376953 L 0 37.199219 C 0 38.211219 0.8162186 39.029297 1.8242188 39.029297 L 8.4609375 39.03125 C 8.4612781 39.029216 8.4625492 39.027424 8.4628906 39.025391 L 12.189453 39.025391 C 12.013818 39.792324 11.912109 40.588027 11.912109 41.408203 C 11.912109 47.291203 16.683453 52.058594 22.564453 52.058594 C 28.444453 52.058594 33.212891 47.290203 33.212891 41.408203 C 33.212891 40.587622 33.111173 39.792472 32.935547 39.025391 L 68.113281 39.025391 C 67.937746 39.792324 67.835938 40.588027 67.835938 41.408203 C 67.835938 47.291203 72.604375 52.058594 78.484375 52.058594 C 84.362375 52.058594 89.132812 47.290203 89.132812 41.408203 C 89.132812 40.587622 89.031095 39.792472 88.855469 39.025391 L 92.585938 39.025391 L 97.964844 39.029297 C 98.976844 39.029297 99.792969 38.209219 99.792969 37.199219 L 99.792969 32.378906 C 99.792969 31.370906 98.976844 30.550781 97.964844 30.550781 L 94.740234 30.539062 L 94.740234 21.109375 C 94.740234 18.415375 92.560188 16.232422 89.867188 16.232422 L 74.056641 16.232422 L 64.697266 3.0488281 C 63.051266 0.85682818 61.471172 1.4802974e-015 58.951172 0 z " fill="none" stroke="#000000" stroke-width="2.2176222" /></g><g id="icon7" transform="translate(224.0, 237.6) scale(0.498334560362)"><path d="M 25.027344 0 L 37.5 29.050781 L 13.199219 29.050781 L 5.5 18.75 L 0 20.050781 L 6.0996094 35.75 L 7.7324219 42.214844 L 19.025391 42.214844 L 19.025391 42.25 L 61.699219 42.25 L 69.396484 42.25 L 69.396484 42.285156 L 84 42.349609 C 87.5 42.349609 90.300781 39.45 90.300781 35.75 C 90.300781 32.05 87.400391 29.150391 83.900391 29.150391 L 61.599609 29.25 L 35.828125 0 L 25.027344 0 z " fill="none" stroke="#000000" stroke-width="2.00668402222" /></g></g><g id="labels"><text alignment-baseline="before-edge" font-size="14" text-anchor="end" x="214.0" y="36.0">Bicycle</text><text alignment-baseline="before-edge" font-size="14" text-anchor="end" x="214.0" y="64.8">Bus</text><text alignment-baseline="before-edge" font-size="14" text-anchor="end" x="214.0" y="93.6">Train</text><text alignment-baseline="before-edge" font-size="14" text-anchor="end" x="214.0" y="122.4">Car pool</text><text alignment-baseline="before-edge" font-size="14" text-anchor="end" x="214.0" y="151.2">Hybrid car</text><text alignment-baseline="before-edge" font-size="14" text-anchor="end" x="214.0" y="180.0">Car</text><text alignment-baseline="before-edge" font-size="14" text-anchor="end" x="214.0" y="208.8">SUV</text><text alignment-baseline="before-edge" font-size="14" text-anchor="end" x="214.0" y="237.6">Plane</text></g><rect fill="none" height="720.0" stroke="#000000" stroke-width="1" width="540.0" x="36.0" y="36.0" /></svg>