<?xml version="1.0" encoding="utf-8" ?>
<svg baseProfile="full" height="792.0" version="1.1" width="612.0" xmlns="http://www.w3.org/2000/svg" xmlns:ev="http://www.w3.org/2001/xml-events" xmlns:xlink="http://www.w3.org/1999/xlink"><defs /><g id="arcs"><path d="M388.779831459,44.6686128469 A270.0,180.0,0,0,0,306.0,36.0" fill="none" stroke="#000000" stroke-width="1" /><path d="M404.506195305,61.1381103559 A257.6,167.6,0,0,0,306.0,48.4" fill="none" stroke="#000000" stroke-width="1" /><path d="M448.030773442,89.4881314373 A245.2,155.2,0,0,0,306.0,60.8" fill="none" stroke="#000000" stroke-width="1" /><path d="M505.904197965,142.816862347 A232.8,142.8,0,0,0,306.0,73.2" fill="none" stroke="#000000" stroke-width="1" /><path d="M526.4,216.0 A220.4,130.4,0,0,0,306.0,85.6" fill="none" stroke="#000000" stroke-width="1" /><path d="M423.478198419,326.331564361 A220.4,130.4,0,0,0,526.4,216.0" fill="none" stroke="#000000" stroke-width="1" /><path d="M514.0,216.0 A208.0,118.0,0,0,0,306.0,98.0" fill="none" stroke="#000000" stroke-width="1" /><path d="M315.032508226,333.888686724 A208.0,118.0,0,0,0,514.0,216.0" fill="none" stroke="#000000" stroke-width="1" /><path d="M501.6,216.0 A195.6,105.6,0,0,0,306.0,110.4" fill="none" stroke="#000000" stroke-width="1" /><path d="M306.0,321.6 A195.6,105.6,0,0,0,501.6,216.0" fill="none" stroke="#000000" stroke-width="1" /><path d="M137.622057819,341.159533971 A257.6,167.6,0,0,1,306.0,300.4" fill="none" stroke="#000000" stroke-width="1" /><path d="M489.2,216.0 A183.2,93.2,0,0,0,306.0,122.8" fill="none" stroke="#000000" stroke-width="1" /><path d="M306.0,309.2 A183.2,93.2,0,0,0,489.2,216.0" fill="none" stroke="#000000" stroke-width="1" /><path d="M36.0,468.0 A270.0,180.0,0,0,1,306.0,288.0" fill="none" stroke="#000000" stroke-width="1" /><path d="M306.0,648.0 A270.0,180.0,0,0,1,36.0,468.0" fill="none" stroke="#000000" stroke-width="1" /></g><rect fill="none" height="720.0" stroke="#000000" stroke-width="1" width="540.0" x="36.0" y="36.0" /></svg>