<?xml version="1.0" encoding="utf-8" ?>
<svg baseProfile="full" height="792.0" version="1.1" width="612.0" xmlns="http://www.w3.org/2000/svg" xmlns:ev="http://www.w3.org/2001/xml-events" xmlns:xlink="http://www.w3.org/1999/xlink"><defs /><g id="arcs"><path d="M279.0,36.0 L325.934248271,36.0 L325.934248271,59.76 M325.934248271,59.76 L279.0,59.76 L279.0,36.0" fill="none" stroke="#000000" stroke-width="1" /><path d="M279.0,63.36 L333.0,63.36 M338.065150536,63.4278061639 A191.88,194.58,0,0,0,333.0,63.36 M338.065150536,63.4278061639 L337.437946154,87.1795264103 M333.0,87.12 A168.12,170.82,0,0,1,337.437946154,87.1795264103 M333.0,87.12 L279.0,87.12 L279.0,63.36" fill="none" stroke="#000000" stroke-width="1" /><path d="M279.0,90.72 L333.0,90.72 M371.376922137,95.3331040562 A164.52,167.22,0,0,0,333.0,90.72 M371.376922137,95.3331040562 L365.834522004,118.437636096 M333.0,114.48 A140.76,143.46,0,0,1,365.834522004,118.437636096 M333.0,114.48 L279.0,114.48 L279.0,90.72" fill="none" stroke="#000000" stroke-width="1" /><path d="M279.0,118.08 L333.0,118.08 M424.78581024,154.010978335 A137.16,139.86,0,0,0,333.0,118.08 M424.78581024,154.010978335 L408.885906104,171.666873907 M333.0,141.84 A113.4,116.1,0,0,1,408.885906104,171.666873907 M333.0,141.84 L279.0,141.84 L279.0,118.08" fill="none" stroke="#000000" stroke-width="1" /><path d="M279.0,145.44 L333.0,145.44 M442.8,257.94 A109.8,112.5,0,0,0,333.0,145.44 M347.471246348,369.458640614 A109.8,112.5,0,0,0,442.8,257.94 M347.471246348,369.458640614 L344.339763532,345.905903716 M419.04,257.94 A86.04,88.74,0,0,1,344.339763532,345.905903716 M333.0,169.2 A86.04,88.74,0,0,1,419.04,257.94 M333.0,169.2 L279.0,169.2 L279.0,145.44" fill="none" stroke="#000000" stroke-width="1" /><path d="M279.0,172.8 L333.0,172.8 M415.44,257.94 A82.44,85.14,0,0,0,333.0,172.8 M333.0,343.08 A82.44,85.14,0,0,0,415.44,257.94 M333.0,343.08 L279.0,343.08 M189.519393748,369.976130137 A164.52,167.22,0,0,1,279.0,343.08 M189.519393748,369.976130137 L176.596592846,350.037754656 M279.0,319.32 A188.28,190.98,0,0,0,176.596592846,350.037754656 M279.0,319.32 L333.0,319.32 M391.68,257.94 A58.68,61.38,0,0,1,333.0,319.32 M333.0,196.56 A58.68,61.38,0,0,1,391.68,257.94 M333.0,196.56 L279.0,196.56 L279.0,172.8" fill="none" stroke="#000000" stroke-width="1" /><path d="M279.0,200.16 L333.0,200.16 M388.08,257.94 A55.08,57.78,0,0,0,333.0,200.16 M333.0,315.72 A55.08,57.78,0,0,0,388.08,257.94 M333.0,315.72 L279.0,315.72 M87.12,510.3 A191.88,194.58,0,0,1,279.0,315.72 M279.0,704.88 A191.88,194.58,0,0,1,87.12,510.3 M279.0,704.88 L333.0,704.88 L333.0,728.64 M333.0,728.64 L279.0,728.64 M63.36,510.3 A215.64,218.34,0,0,0,279.0,728.64 M279.0,291.96 A215.64,218.34,0,0,0,63.36,510.3 M279.0,291.96 L333.0,291.96 M364.32,257.94 A31.32,34.02,0,0,1,333.0,291.96 M333.0,223.92 A31.32,34.02,0,0,1,364.32,257.94 M333.0,223.92 L279.0,223.92 L279.0,200.16" fill="none" stroke="#000000" stroke-width="1" /><path d="M279.0,227.52 L333.0,227.52 M360.72,257.94 A27.72,30.42,0,0,0,333.0,227.52 M333.0,288.36 A27.72,30.42,0,0,0,360.72,257.94 M333.0,288.36 L279.0,288.36 M59.76,510.3 A219.24,221.94,0,0,1,279.0,288.36 M62.4512304687,544.968036956 A219.24,221.94,0,0,1,59.76,510.3 M62.4512304687,544.968036956 L38.9828909136,548.67945697 M36.0,510.3 A243.0,245.7,0,0,0,38.9828909136,548.67945697 M279.0,264.6 A243.0,245.7,0,0,0,36.0,510.3 M279.0,264.6 L333.0,264.6 M336.96,257.94 A3.96,6.66,0,0,1,333.0,264.6 M333.0,251.28 A3.96,6.66,0,0,1,336.96,257.94 M333.0,251.28 L279.0,251.28 L279.0,227.52" fill="none" stroke="#000000" stroke-width="1" /></g></svg>