<?xml version="1.0" encoding="utf-8" ?>
<svg baseProfile="full" height="792.0" version="1.1" width="612.0" xmlns="http://www.w3.org/2000/svg" xmlns:ev="http://www.w3.org/2001/xml-events" xmlns:xlink="http://www.w3.org/1999/xlink"><defs /><g id="footprints"><polygon fill="none" points="279.0,61.2 279.0,79.2 295.2,79.2 295.2,61.2 279.0,61.2" stroke="#000000" stroke-width="1" /><polygon fill="none" points="297.0,61.2 297.0,79.2 313.2,79.2 313.2,61.2 297.0,61.2" stroke="#000000" stroke-width="1" /><polygon fill="none" points="315.0,61.2 315.0,79.2 331.2,79.2 331.2,61.2 315.0,61.2" stroke="#000000" stroke-width="1" /><polygon fill="none" points="333.0,61.2 333.0,79.2 347.486443838,79.7401753603 349.018702483,61.8055110633 333.0,61.2" stroke="#000000" stroke-width="1" /><polygon fill="none" points="350.889232421,61.9554822573 349.178223641,79.8739768637 363.586580785,81.6215832897 366.81669947,63.9137789854 350.889232421,61.9554822573" stroke="#000000" stroke-width="1" /><polygon fill="none" points="279.0,86.4 279.0,104.4 295.2,104.4 295.2,86.4 279.0,86.4" stroke="#000000" stroke-width="1" /><polygon fill="none" points="297.0,86.4 297.0,104.4 313.2,104.4 313.2,86.4 297.0,86.4" stroke="#000000" stroke-width="1" /><polygon fill="none" points="315.0,86.4 315.0,104.4 331.2,104.4 331.2,86.4 315.0,86.4" stroke="#000000" stroke-width="1" /><polygon fill="none" points="333.0,86.4 333.0,104.4 347.179995463,104.994024087 348.94025875,87.0803010469 333.0,86.4" stroke="#000000" stroke-width="1" /><polygon fill="none" points="351.253839441,87.2926941016 349.238478871,105.17951388 363.323089421,107.136900467 367.077985156,89.5329021136 351.253839441,87.2926941016" stroke="#000000" stroke-width="1" /><polygon fill="none" points="369.365467481,89.9724767111 365.36009067,107.52117913 379.242313121,110.849035001 384.944621313,93.7761418289 369.365467481,89.9724767111" stroke="#000000" stroke-width="1" /><polygon fill="none" points="387.186641883,94.4434744428 381.241618768,111.433374388 394.804052868,116.141030049 402.382063683,99.8139435945 387.186641883,94.4434744428" stroke="#000000" stroke-width="1" /><polygon fill="none" points="404.55750068,100.709318752 396.747593376,116.926758374 409.858047133,123.021568304 419.216462687,107.645611153 404.55750068,100.709318752" stroke="#000000" stroke-width="1" /><polygon fill="none" points="421.301918291,108.768302091 411.725340913,124.009337677 424.233762856,131.490856134 435.254895645,117.259389869 421.301918291,108.768302091" stroke="#000000" stroke-width="1" /><polygon fill="none" points="437.224413066,118.606719799 426.001596632,132.679686484 437.738955225,141.532454748 450.284208109,128.624448314 437.224413066,118.606719799" stroke="#000000" stroke-width="1" /><polygon fill="none" points="452.109318095,130.190681905 439.381396033,142.918603967 450.161170075,153.10402761 464.07277922,141.681806679 452.109318095,130.190681905" stroke="#000000" stroke-width="1" /><polygon fill="none" points="465.722970115,143.45696324 451.65000343,154.679779673 461.272868683,166.127897829 476.375887532,156.335103455 465.722970115,143.45696324" stroke="#000000" stroke-width="1" /><polygon fill="none" points="477.819568839,158.303833834 462.578533253,167.880411212 470.84055629,180.48270465 486.945055618,172.442486904 477.819568839,158.303833834" stroke="#000000" stroke-width="1" /><polygon fill="none" points="488.15102819,174.583202742 471.933588568,182.393110046 478.637728017,195.997748852 495.541184401,189.811218139 488.15102819,174.583202742" stroke="#000000" stroke-width="1" /><polygon fill="none" points="496.480539546,192.095685107 479.490639601,198.040708222 484.460644009,212.451653921 501.950486677,208.196609452 496.480539546,192.095685107" stroke="#000000" stroke-width="1" /><polygon fill="none" points="502.598744594,210.590193282 485.050042175,214.595570093 488.145071136,229.576587989 506.00135517,227.306539418 502.598744594,210.590193282" stroke="#000000" stroke-width="1" /><polygon fill="none" points="506.34055021,229.769210604 488.453730432,231.784571174 489.581461013,247.068439788 507.57963328,246.811934293 506.34055021,229.769210604" stroke="#000000" stroke-width="1" /><polygon fill="none" points="507.6,249.3 489.6,249.3 488.725883302,264.602154361 506.639606342,266.362417648 507.6,249.3" stroke="#000000" stroke-width="1" /><polygon fill="none" points="506.34055021,268.830789396 488.453730432,266.815428826 485.604588522,281.850237009 503.208586875,285.605132745 506.34055021,268.830789396" stroke="#000000" stroke-width="1" /><polygon fill="none" points="279.0,111.6 279.0,129.6 295.2,129.6 295.2,111.6 279.0,111.6" stroke="#000000" stroke-width="1" /><polygon fill="none" points="297.0,111.6 297.0,129.6 313.2,129.6 313.2,111.6 297.0,111.6" stroke="#000000" stroke-width="1" /><polygon fill="none" points="315.0,111.6 315.0,129.6 331.2,129.6 331.2,111.6 315.0,111.6" stroke="#000000" stroke-width="1" /><polygon fill="none" points="333.0,111.6 333.0,129.6 346.76643222,130.256404803 348.834206812,112.375568462 333.0,111.6" stroke="#000000" stroke-width="1" /><polygon fill="none" points="350.996542788,112.602686105 348.647071328,130.448693609 362.304321114,132.60438662 366.68832309,115.146422057 350.996542788,112.602686105" stroke="#000000" stroke-width="1" /><polygon fill="none" points="368.820395362,115.616464564 364.16165255,133.003129437 377.582395644,136.677588725 384.207613513,119.941206553 368.820395362,115.616464564" stroke="#000000" stroke-width="1" /><polygon fill="none" points="386.285972036,120.656283625 379.397670254,137.286115211 392.432197915,142.506038009 401.185272363,126.777602368 386.285972036,120.656283625" stroke="#000000" stroke-width="1" /><polygon fill="none" points="403.182916861,127.739622174 394.182916861,143.328079442 406.649992426,150.117522637 417.381155922,135.666151421 403.182916861,127.739622174" stroke="#000000" stroke-width="1" /><polygon fill="none" points="419.266565803,136.875222618 408.308860081,151.155582743 419.990142658,159.522144694 432.51578202,146.595104872 419.266565803,136.875222618" stroke="#000000" stroke-width="1" /><polygon fill="none" points="434.252560372,148.047439628 421.52463831,160.77536169 432.164684703,170.693159266 446.270482769,159.511636073 434.252560372,148.047439628" stroke="#000000" stroke-width="1" /><polygon fill="none" points="447.817907523,161.197120855 433.537547397,172.154826577 442.851513979,183.546095403 458.296116633,174.3014078 447.817907523,161.197120855" stroke="#000000" stroke-width="1" /><polygon fill="none" points="459.610865319,176.201182826 444.022408051,185.201182826 451.712934351,197.919701476 468.232080159,190.770028632 459.610865319,176.201182826" stroke="#000000" stroke-width="1" /><polygon fill="none" points="469.271236569,192.854605652 452.641404983,199.742907435 458.424423738,213.563615488 475.735465535,208.631290287 469.271236569,192.854605652" stroke="#000000" stroke-width="1" /><polygon fill="none" points="476.460600223,210.859848025 459.07393535,215.518590836 462.710396892,230.137924963 480.517137954,227.507340857 476.460600223,210.859848025" stroke="#000000" stroke-width="1" /><polygon fill="none" points="480.898837083,229.828748708 463.052829579,232.178220168 464.380373059,247.228071077 482.37813511,246.944238089 480.898837083,229.828748708" stroke="#000000" stroke-width="1" /><polygon fill="none" points="482.4,249.3 464.4,249.3 463.356929242,264.37472811 481.237765583,266.442502702 482.4,249.3" stroke="#000000" stroke-width="1" /><polygon fill="none" points="480.898837083,268.771251292 463.052829579,266.421779832 459.687731127,281.113517635 477.14569569,285.49751961 480.898837083,268.771251292" stroke="#000000" stroke-width="1" /><polygon fill="none" points="476.460600223,287.740151975 459.07393535,283.081409164 453.538081001,297.015870727 470.274463172,303.641088596 476.460600223,287.740151975" stroke="#000000" stroke-width="1" /><polygon fill="none" points="469.271236569,305.745394348 452.641404983,298.857092565 445.166204536,311.721919209 460.894640176,320.474993657 469.271236569,305.745394348" stroke="#000000" stroke-width="1" /><polygon fill="none" points="459.610865319,322.398817174 444.022408051,313.398817174 434.88825116,324.959220516 449.339622375,335.690384013 459.610865319,322.398817174" stroke="#000000" stroke-width="1" /><polygon fill="none" points="447.817907523,337.402879145 433.537547397,326.445173423 423.041717851,336.545811946 435.968757673,349.071451309 447.817907523,337.402879145" stroke="#000000" stroke-width="1" /><polygon fill="none" points="434.252560372,350.552560372 421.52463831,337.82463831 409.954570344,346.380300307 421.136093537,360.486098373 434.252560372,350.552560372" stroke="#000000" stroke-width="1" /><polygon fill="none" points="419.266565803,361.724777382 408.308860081,347.444417257 395.924119199,354.423943621 405.168806801,369.868546275 419.266565803,361.724777382" stroke="#000000" stroke-width="1" /><polygon fill="none" points="403.182916861,370.860377826 394.182916861,355.271920558 381.206447031,360.679827407 388.356119875,377.198973215 403.182916861,370.860377826" stroke="#000000" stroke-width="1" /><polygon fill="none" points="279.0,136.8 279.0,154.8 295.2,154.8 295.2,136.8 279.0,136.8" stroke="#000000" stroke-width="1" /><polygon fill="none" points="297.0,136.8 297.0,154.8 313.2,154.8 313.2,136.8 297.0,136.8" stroke="#000000" stroke-width="1" /><polygon fill="none" points="315.0,136.8 315.0,154.8 331.2,154.8 331.2,136.8 315.0,136.8" stroke="#000000" stroke-width="1" /><polygon fill="none" points="333.0,136.8 333.0,154.8 346.178340049,155.525372378 348.683302199,137.700525545 333.0,136.8" stroke="#000000" stroke-width="1" /><polygon fill="none" points="350.637665078,137.9401654 347.821844707,155.718555531 360.883656329,158.093857489 366.146198617,140.880326513 350.637665078,137.9401654" stroke="#000000" stroke-width="1" /><polygon fill="none" points="368.066295094,141.377040879 362.503989195,158.496058172 375.29868469,162.572946686 383.18922586,146.394585828 368.066295094,141.377040879" stroke="#000000" stroke-width="1" /><polygon fill="none" points="385.045929919,147.154111172 376.874100924,163.192228607 389.196651788,169.041391155 399.520900528,154.296565353 385.045929919,147.154111172" stroke="#000000" stroke-width="1" /><polygon fill="none" points="401.277240014,155.324441265 390.697105473,169.886747163 402.266807087,177.570884035 414.77054613,164.622659834 401.277240014,155.324441265" stroke="#000000" stroke-width="1" /><polygon fill="none" points="416.379819642,165.920180358 403.65189758,178.64810242 414.103197097,188.183261131 428.478542889,177.350466786 416.379819642,165.920180358" stroke="#000000" stroke-width="1" /><polygon fill="none" points="429.884439626,178.90933431 415.322133727,189.489468851 424.21611531,200.79852248 440.10909913,192.347897337 429.884439626,178.90933431" stroke="#000000" stroke-width="1" /><polygon fill="none" points="441.248937175,194.144411628 425.21081974,202.316240624 432.07511783,215.184745753 449.09440167,209.32437225 441.248937175,194.144411628" stroke="#000000" stroke-width="1" /><polygon fill="none" points="449.90615269,211.31488838 432.787135397,216.877194279 437.184854143,230.928473136 454.911366751,227.802653119 449.90615269,211.31488838" stroke="#000000" stroke-width="1" /><polygon fill="none" points="455.343765514,229.922651172 437.565375383,232.738471543 439.179667127,247.44571137 457.176922931,247.131412901 455.343765514,229.922651172" stroke="#000000" stroke-width="1" /><polygon fill="none" points="457.2,249.3 439.2,249.3 437.906817549,264.042769448 455.731664382,266.547731598 457.2,249.3" stroke="#000000" stroke-width="1" /><polygon fill="none" points="455.343765514,268.677348828 437.565375383,265.861528457 433.464430125,280.014111635 450.677961101,285.276653924 455.343765514,268.677348828" stroke="#000000" stroke-width="1" /><polygon fill="none" points="449.90615269,287.28511162 432.787135397,281.722805721 426.176904867,294.744418653 442.355265724,302.634959823 449.90615269,287.28511162" stroke="#000000" stroke-width="1" /><polygon fill="none" points="441.248937175,304.455588372 425.21081974,296.283759376 416.519093299,307.779625692 431.263919102,318.103874432 441.248937175,304.455588372" stroke="#000000" stroke-width="1" /><polygon fill="none" points="429.884439626,319.69066569 415.322133727,309.110531149 405.021200256,318.848864742 417.969424456,331.352603785 429.884439626,319.69066569" stroke="#000000" stroke-width="1" /><polygon fill="none" points="416.379819642,332.679819642 403.65189758,319.95189758 392.186929989,327.842300151 403.019724335,342.217645943 416.379819642,332.679819642" stroke="#000000" stroke-width="1" /><polygon fill="none" points="401.277240014,343.275558735 390.697105473,328.713252837 378.442845413,334.763784593 386.893470556,350.656768413 401.277240014,343.275558735" stroke="#000000" stroke-width="1" /><polygon fill="none" points="385.045929919,351.445888828 376.874100924,335.407771393 364.120530666,339.678052595 369.980904168,356.697336435 385.045929919,351.445888828" stroke="#000000" stroke-width="1" /><polygon fill="none" points="368.066295094,357.222959121 362.503989195,340.103941828 349.463656458,342.665328831 352.589476475,360.391841439 368.066295094,357.222959121" stroke="#000000" stroke-width="1" /><polygon fill="none" points="350.637665078,360.6598346 347.821844707,342.881444469 334.650120726,343.78867158 334.964419195,361.785927384 350.637665078,360.6598346" stroke="#000000" stroke-width="1" /><polygon fill="none" points="333.0,361.8 333.0,343.8 316.8,343.8 316.8,361.8 333.0,361.8" stroke="#000000" stroke-width="1" /><polygon fill="none" points="315.0,361.8 315.0,343.8 298.8,343.8 298.8,361.8 315.0,361.8" stroke="#000000" stroke-width="1" /><polygon fill="none" points="279.0,162.0 279.0,180.0 295.2,180.0 295.2,162.0 279.0,162.0" stroke="#000000" stroke-width="1" /><polygon fill="none" points="297.0,162.0 297.0,180.0 313.2,180.0 313.2,162.0 297.0,162.0" stroke="#000000" stroke-width="1" /><polygon fill="none" points="315.0,162.0 315.0,180.0 331.2,180.0 331.2,162.0 315.0,162.0" stroke="#000000" stroke-width="1" /><polygon fill="none" points="333.0,162.0 333.0,180.0 345.27768883,180.787785613 348.452787633,163.070033284 333.0,162.0" stroke="#000000" stroke-width="1" /><polygon fill="none" points="351.238571517,163.494267286 347.496161083,181.100924099 359.673005667,183.808523514 366.462448787,167.138086743 351.238571517,163.494267286" stroke="#000000" stroke-width="1" /><polygon fill="none" points="369.179914182,168.038582271 361.858654606,184.482400509 373.726748671,189.281899472 383.833804865,174.387356341 369.179914182,168.038582271" stroke="#000000" stroke-width="1" /><polygon fill="none" points="386.406428804,175.792356957 375.826294263,190.354662856 386.976959614,197.465231848 399.959902027,184.997545362 386.406428804,175.792356957" stroke="#000000" stroke-width="1" /><polygon fill="none" points="402.269774194,186.929215168 388.893167335,198.973566083 398.651588948,208.530511739 413.943000698,199.034579626 402.269774194,186.929215168" stroke="#000000" stroke-width="1" /><polygon fill="none" points="415.826555086,201.480066125 400.238097818,210.480066125 407.694994861,222.348950028 424.626567878,216.239790086 415.826555086,201.480066125" stroke="#000000" stroke-width="1" /><polygon fill="none" points="425.894625046,219.116706648 408.775607753,224.679012547 412.982911005,238.286545517 430.8146543,235.831157351 425.894625046,219.116706648" stroke="#000000" stroke-width="1" /><polygon fill="none" points="431.304190921,238.96781319 413.402796804,240.849325529 413.712400886,255.170233832 431.664981712,256.475929688 431.304190921,238.96781319" stroke="#000000" stroke-width="1" /><polygon fill="none" points="431.304190921,259.63218681 413.402796804,257.750674471 409.763511729,271.543486813 427.052316158,276.553201516 431.304190921,259.63218681" stroke="#000000" stroke-width="1" /><polygon fill="none" points="425.894625046,279.483293352 408.775607753,273.920987453 401.758670662,286.106005747 417.628094979,294.600790725 425.894625046,279.483293352" stroke="#000000" stroke-width="1" /><polygon fill="none" points="415.826555086,297.119933875 400.238097818,288.119933875 390.769442065,298.049548391 404.525916279,309.658140778 415.826555086,297.119933875" stroke="#000000" stroke-width="1" /><polygon fill="none" points="402.269774194,311.670784832 388.893167335,299.626433917 377.905290882,307.107783013 388.947591058,321.322831618 402.269774194,311.670784832" stroke="#000000" stroke-width="1" /><polygon fill="none" points="386.406428804,322.807643043 375.826294263,308.245337144 364.035496427,313.385256594 371.881021059,329.585495581 386.406428804,322.807643043" stroke="#000000" stroke-width="1" /><polygon fill="none" points="369.179914182,330.561417729 361.858654606,314.117599491 349.711735543,317.132574645 354.01759756,334.609975833 369.179914182,330.561417729" stroke="#000000" stroke-width="1" /><polygon fill="none" points="351.238571517,335.105732714 347.496161083,317.499075901 335.225669889,318.574267547 335.803682457,336.564984639 351.238571517,335.105732714" stroke="#000000" stroke-width="1" /><polygon fill="none" points="333.0,336.6 333.0,318.6 316.8,318.6 316.8,336.6 333.0,336.6" stroke="#000000" stroke-width="1" /><polygon fill="none" points="315.0,336.6 315.0,318.6 298.8,318.6 298.8,336.6 315.0,336.6" stroke="#000000" stroke-width="1" /><polygon fill="none" points="297.0,336.6 297.0,318.6 280.8,318.6 280.8,336.6 297.0,336.6" stroke="#000000" stroke-width="1" /><polygon fill="none" points="279.0,336.6 279.0,318.6 261.449038873,319.270846766 262.981297517,337.205511063 279.0,336.6" stroke="#000000" stroke-width="1" /><polygon fill="none" points="261.110767579,337.355482257 259.3997588,319.436987651 241.953181845,321.605974681 245.18330053,339.313778985 261.110767579,337.355482257" stroke="#000000" stroke-width="1" /><polygon fill="none" points="243.329143604,339.622022468 239.922621205,321.947305917 222.692684562,325.61246365 227.591410832,342.933043344 243.329143604,339.622022468" stroke="#000000" stroke-width="1" /><polygon fill="none" points="225.765372827,343.399509569 220.694186804,326.128636044 203.797368353,331.28554358 210.320338584,348.062040812 225.765372827,343.399509569" stroke="#000000" stroke-width="1" /><polygon fill="none" points="208.534807673,348.686458805 201.844883471,331.975836011 185.403689229,338.615958317 193.491830394,354.696442529 208.534807673,348.686458805" stroke="#000000" stroke-width="1" /><polygon fill="none" points="191.760038544,355.478083317 183.511961153,339.479045242 167.656264666,347.587437716 177.236329305,362.826281554 191.760038544,355.478083317" stroke="#000000" stroke-width="1" /><polygon fill="none" points="175.572487848,363.763649691 165.840953134,348.6210861 150.708676652,358.173539379 161.693906217,372.432737513 175.572487848,363.763649691" stroke="#000000" stroke-width="1" /><polygon fill="none" points="160.113252076,373.523202101 148.986390324,359.374246396 134.723325203,370.333998653 147.014235752,383.484417576 160.113252076,373.523202101" stroke="#000000" stroke-width="1" /><polygon fill="none" points="145.532964467,384.723801662 133.111542261,371.696588976 119.870113479,384.010805158 133.355396625,395.93335264 145.532964467,384.723801662" stroke="#000000" stroke-width="1" /><polygon fill="none" points="131.99046083,397.315509178 118.386968492,385.528015967 106.323787269,399.12431736 120.881318199,409.711020966 131.99046083,397.315509178" stroke="#000000" stroke-width="1" /><polygon fill="none" points="119.650077117,411.227433599 104.987709981,400.786409227 94.2598404059,415.569819185 109.757783864,424.724804087 119.650077117,411.227433599" stroke="#000000" stroke-width="1" /><polygon fill="none" points="108.677501774,426.3642598 93.0890445058,417.3642598 83.8490399459,433.214991739 100.147044158,440.855348976 108.677501774,426.3642598" stroke="#000000" stroke-width="1" /><polygon fill="none" points="99.2342536543,442.603734437 82.8608777379,435.126264203 75.2508141089,451.898790752 92.2012818242,457.955328065 99.2342536543,442.603734437" stroke="#000000" stroke-width="1" /><polygon fill="none" points="91.4710494848,459.795599185 74.4610347479,453.908375846 68.6059586863,471.432159432 86.0553838445,475.850027882 91.4710494848,459.795599185" stroke="#000000" stroke-width="1" /><polygon fill="none" points="85.5205379977,477.762390394 68.0279297679,473.518729555 64.0293129356,491.600851175 81.8196708404,494.340041862 85.5205379977,477.762390394" stroke="#000000" stroke-width="1" /><polygon fill="none" points="81.4900685598,496.30235901 63.673282606,493.740691922 61.6031824002,512.170393031 79.5733608155,513.206099419 81.4900685598,496.30235901" stroke="#000000" stroke-width="1" /><polygon fill="none" points="79.4552784413,515.194513363 61.475666336,514.338038879 61.3722958152,532.892922725 79.3595540225,532.215765296 79.4552784413,515.194513363" stroke="#000000" stroke-width="1" /><polygon fill="none" points="79.4552784413,534.205486637 61.475666336,535.061961121 63.3409501926,553.515337715 81.1823927962,551.131448912 79.4552784413,534.205486637" stroke="#000000" stroke-width="1" /><polygon fill="none" points="81.4900685598,553.09764099 63.673282606,555.659308078 67.4727323393,573.787972848 85.0067844722,569.718941538 81.4900685598,553.09764099" stroke="#000000" stroke-width="1" /><polygon fill="none" points="85.5205379977,571.637609606 68.0279297679,575.881270445 73.6928553454,593.472930333 90.7607259162,587.755606293 85.5205379977,571.637609606" stroke="#000000" stroke-width="1" /><polygon fill="none" points="91.4710494848,589.604400815 74.4610347479,595.491624154 81.8927903592,612.351247029 98.3399100891,605.037407231 91.4710494848,589.604400815" stroke="#000000" stroke-width="1" /><polygon fill="none" points="99.2342536543,606.796265563 82.8608777379,614.273735797 91.9365853357,630.228282836 107.614006561,621.384162545 99.2342536543,606.796265563" stroke="#000000" stroke-width="1" /><polygon fill="none" points="108.677501774,623.0357402 93.0890445058,632.0357402 103.668099381,646.936998746 118.433844948,636.642691686 108.677501774,623.0357402" stroke="#000000" stroke-width="1" /><polygon fill="none" points="119.650077117,638.172566401 104.987709981,648.613590773 116.918362239,662.339095889 130.63871127,650.687828899 119.650077117,638.172566401" stroke="#000000" stroke-width="1" /><polygon fill="none" points="131.99046083,652.084490822 118.386968492,663.871984033 131.512373955,676.324245611 144.063072843,663.421534368 131.99046083,652.084490822" stroke="#000000" stroke-width="1" /><polygon fill="none" points="145.532964467,664.676198338 133.111542261,677.703411024 147.274845013,688.807815747 158.542232686,674.770509202 145.532964467,664.676198338" stroke="#000000" stroke-width="1" /><polygon fill="none" points="160.113252076,675.876797899 148.986390324,690.025753604 164.034590213,699.727578209 173.916627464,684.682800384 160.113252076,675.876797899" stroke="#000000" stroke-width="1" /><polygon fill="none" points="175.572487848,685.636350309 165.840953134,700.7789139 181.627486228,709.039879879 190.034679796,693.123878613 175.572487848,685.636350309" stroke="#000000" stroke-width="1" /><polygon fill="none" points="191.760038544,693.921916683 183.511961153,709.920954758 199.89805587,716.715698087 206.754268909,700.072611151 191.760038544,693.921916683" stroke="#000000" stroke-width="1" /><polygon fill="none" points="208.534807673,700.713541195 201.844883471,717.424163989 218.699841998,722.736912275 223.942983582,705.517462042 208.534807673,700.713541195" stroke="#000000" stroke-width="1" /><polygon fill="none" points="225.765372827,706.000490431 220.694186804,723.271363956 237.89478451,727.093028868 241.477371935,709.453157346 225.765372827,706.000490431" stroke="#000000" stroke-width="1" /><polygon fill="none" points="243.329143604,709.777977532 239.922621205,727.452694083 257.351826935,729.77851309 259.241415736,711.877969686 243.329143604,709.777977532" stroke="#000000" stroke-width="1" /><polygon fill="none" points="261.110767579,712.044517743 259.3997588,729.963012349 276.944968966,730.790817451 277.124446733,712.791712258 261.110767579,712.044517743" stroke="#000000" stroke-width="1" /><polygon fill="none" points="279.0,712.8 279.0,730.8 295.2,730.8 295.2,712.8 279.0,712.8" stroke="#000000" stroke-width="1" /><polygon fill="none" points="279.0,187.2 279.0,205.2 295.2,205.2 295.2,187.2 279.0,187.2" stroke="#000000" stroke-width="1" /><polygon fill="none" points="297.0,187.2 297.0,205.2 313.2,205.2 313.2,187.2 297.0,187.2" stroke="#000000" stroke-width="1" /><polygon fill="none" points="315.0,187.2 315.0,205.2 331.2,205.2 331.2,187.2 315.0,187.2" stroke="#000000" stroke-width="1" /><polygon fill="none" points="333.0,187.2 333.0,205.2 343.733437073,205.97887099 348.062307857,188.507154482 333.0,187.2" stroke="#000000" stroke-width="1" /><polygon fill="none" points="350.701889454,189.012900984 345.63070343,206.283774509 356.466837745,209.107936857 365.542710211,193.563531465 350.701889454,189.012900984" stroke="#000000" stroke-width="1" /><polygon fill="none" points="368.104970367,194.675599866 358.373435653,209.818163457 369.012259441,215.29594184 382.099860377,202.938162842 368.104970367,194.675599866" stroke="#000000" stroke-width="1" /><polygon fill="none" points="384.4138477,204.749647367 370.810355362,216.537140578 380.094365836,225.310990745 396.133415648,217.140991902 384.4138477,204.749647367" stroke="#000000" stroke-width="1" /><polygon fill="none" points="397.862929379,219.678092691 381.489553463,227.155562925 387.338930729,239.101465538 405.030040992,235.781131567 397.862929379,219.678092691" stroke="#000000" stroke-width="1" /><polygon fill="none" points="405.745715339,238.840745153 387.928929385,241.402412242 388.370186605,254.859681231 406.280128777,256.658005843 405.745715339,238.840745153" stroke="#000000" stroke-width="1" /><polygon fill="none" points="405.745715339,259.759254847 387.928929385,257.197587758 382.789625623,269.514886229 399.467442704,276.28617986 405.745715339,259.759254847" stroke="#000000" stroke-width="1" /><polygon fill="none" points="397.862929379,278.921907309 381.489553463,271.444437075 372.571364304,280.732624339 386.66591874,291.928317048 397.862929379,278.921907309" stroke="#000000" stroke-width="1" /><polygon fill="none" points="384.4138477,293.850352633 370.810355362,282.062859422 360.275167904,288.000452421 370.64460272,302.713535769 384.4138477,293.850352633" stroke="#000000" stroke-width="1" /><polygon fill="none" points="368.104970367,303.924400134 358.373435653,288.781836543 347.531430452,291.957378437 353.335675707,308.995885914 368.104970367,303.924400134" stroke="#000000" stroke-width="1" /><polygon fill="none" points="350.701889454,309.587099016 345.63070343,292.316225491 334.884340791,293.37628302 335.653171054,311.35985608 350.701889454,309.587099016" stroke="#000000" stroke-width="1" /><polygon fill="none" points="333.0,311.4 333.0,293.4 316.8,293.4 316.8,311.4 333.0,311.4" stroke="#000000" stroke-width="1" /><polygon fill="none" points="315.0,311.4 315.0,293.4 298.8,293.4 298.8,311.4 315.0,311.4" stroke="#000000" stroke-width="1" /><polygon fill="none" points="297.0,311.4 297.0,293.4 280.8,293.4 280.8,311.4 297.0,311.4" stroke="#000000" stroke-width="1" /><polygon fill="none" points="279.0,311.4 279.0,293.4 261.564510942,293.996528218 262.920998369,311.945342715 279.0,311.4" stroke="#000000" stroke-width="1" /><polygon fill="none" points="260.904303521,312.090956042 259.377796881,294.155801248 242.028052241,296.094503678 244.901818713,313.863619196 260.904303521,312.090956042" stroke="#000000" stroke-width="1" /><polygon fill="none" points="242.899865772,314.163349389 239.857851006,296.422263003 222.685809933,299.700566575 227.056149897,317.161956228 242.899865772,314.163349389" stroke="#000000" stroke-width="1" /><polygon fill="none" points="225.079402451,317.615547966 220.543797346,300.196354921 203.643733416,304.809332445 209.479158472,321.83718652 225.079402451,317.615547966" stroke="#000000" stroke-width="1" /><polygon fill="none" points="207.538459514,322.444142833 201.541943209,305.472348814 185.011455388,311.411847103 192.269921165,327.883479522 207.538459514,322.444142833" stroke="#000000" stroke-width="1" /><polygon fill="none" points="190.376616077,328.642928822 182.962393609,312.240815995 166.903190526,319.494253979 175.532399612,335.290986253 190.376616077,328.642928822" stroke="#000000" stroke-width="1" /><polygon fill="none" points="173.698425171,336.201509027 164.919916182,320.48725499 149.438288164,329.036126379 159.37606691,344.044142691 173.698425171,336.201509027" stroke="#000000" stroke-width="1" /><polygon fill="none" points="157.613995261,345.103563341 147.534449111,330.190389654 132.741339714,340.008524451 143.916086196,354.119691698 157.613995261,345.103563341" stroke="#000000" stroke-width="1" /><polygon fill="none" points="142.239112676,355.324843862 130.931152724,341.320200285 116.941743979,352.371864601 129.272943892,365.4845115 142.239112676,355.324843862" stroke="#000000" stroke-width="1" /><polygon fill="none" points="127.694808343,366.830988645 115.239908702,353.835778954 102.172645376,366.073721964 115.571452143,378.093371594 127.694808343,366.830988645" stroke="#000000" stroke-width="1" /><polygon fill="none" points="114.106285495,379.575278524 100.594184,367.683133503 88.5691853617,381.046721034 102.939060272,391.886771543 114.106285495,379.575278524" stroke="#000000" stroke-width="1" /><polygon fill="none" points="101.601151901,393.496496239 87.1292035544,382.793099066 76.2660485414,397.20670063 91.5034563179,406.789049207 101.601151901,393.496496239" stroke="#000000" stroke-width="1" /><polygon fill="none" points="90.3069433799,408.517077351 74.9794189007,399.079546247 65.3943427804,414.451359959 81.3894975506,422.706965563 90.3069433799,408.517077351" stroke="#000000" stroke-width="1" /><polygon fill="none" points="80.3479848653,424.541761426 64.2753194186,416.43809402 56.0779240201,432.659594738 72.7155803272,439.52897554 80.3479848653,424.541761426" stroke="#000000" stroke-width="1" /><polygon fill="none" points="71.8417079313,441.456951692 55.13970544,434.745535092 48.4293544074,451.691709054 65.5896375566,457.125371009 71.8417079313,441.456951692" stroke="#000000" stroke-width="1" /><polygon fill="none" points="64.8946217012,459.130964872 47.6836204759,453.860154989 42.5457554832,471.390635372 60.1050252411,475.349428821 64.8946217012,459.130964872" stroke="#000000" stroke-width="1" /><polygon fill="none" points="59.5982058742,477.415296302 42.0022115732,473.623069442 38.5048725644,491.584212737 56.3366139901,494.039614482 59.5982058742,477.415296302" stroke="#000000" stroke-width="1" /><polygon fill="none" points="56.02504605,496.146940134 38.1708382154,493.860619379 36.3616882032,512.088468943 54.337423191,513.022787758 56.02504605,496.146940134" stroke="#000000" stroke-width="1" /><polygon fill="none" points="54.22554894,515.151698507 36.2417675483,514.387756849 36.145901553,532.711740194 54.1361145205,532.118244292 54.22554894,515.151698507" stroke="#000000" stroke-width="1" /><polygon fill="none" points="54.22554894,534.248301493 36.2417675483,535.012243151 37.8605238054,553.259359651 55.7355948558,551.142325182 54.22554894,534.248301493" stroke="#000000" stroke-width="1" /><polygon fill="none" points="56.02504605,553.253059866 38.1708382154,555.539380621 41.4817341016,573.538573001 59.1128729385,569.913253247 56.02504605,553.253059866" stroke="#000000" stroke-width="1" /><polygon fill="none" points="59.5982058742,571.984703698 42.0022115732,575.776930558 46.9600109311,593.363309127 64.2201847951,588.255824601 59.5982058742,571.984703698" stroke="#000000" stroke-width="1" /><polygon fill="none" points="64.8946217012,590.269035128 47.6836204759,595.539845011 54.2224221315,612.558453199 70.9872710744,606.005603443 64.8946217012,590.269035128" stroke="#000000" stroke-width="1" /><polygon fill="none" points="71.8417079313,607.943048308 55.13970544,614.654464908 63.1758439668,630.963334112 79.3245768678,623.012332559 71.8417079313,607.943048308" stroke="#000000" stroke-width="1" /><polygon fill="none" points="80.3479848653,624.858238574 64.2753194186,632.96190598 73.7108034552,648.434235442 89.1270683238,639.14236924 80.3479848653,624.858238574" stroke="#000000" stroke-width="1" /><polygon fill="none" points="90.3069433799,640.882922649 74.9794189007,650.320453753 85.7056068182,664.845850731 100.278329113,654.28006799 90.3069433799,640.882922649" stroke="#000000" stroke-width="1" /><polygon fill="none" points="101.601151901,655.903503761 87.1292035544,666.606900934 99.0304297844,680.091711372 112.654612707,668.328138798 101.601151901,655.903503761" stroke="#000000" stroke-width="1" /><polygon fill="none" points="114.106285495,669.824721476 100.594184,681.716866497 113.551093724,694.083703508 126.128574724,681.207097911 114.106285495,669.824721476" stroke="#000000" stroke-width="1" /><polygon fill="none" points="127.694808343,682.569011355 115.239908702,695.564221046 129.132321799,706.750850377 140.572479838,692.853987995 127.694808343,682.569011355" stroke="#000000" stroke-width="1" /><polygon fill="none" points="142.239112676,694.075156138 130.931152724,708.079799715 145.640347258,718.03756632 155.860755734,703.220574366 142.239112676,694.075156138" stroke="#000000" stroke-width="1" /><polygon fill="none" points="157.613995261,704.296436659 147.534449111,719.209610346 162.944819634,727.901591561 171.871840272,712.271226801 157.613995261,704.296436659" stroke="#000000" stroke-width="1" /><polygon fill="none" points="173.698425171,713.198490973 164.919916182,728.91274501 180.920015832,736.311799706 188.489329242,719.980679276 173.698425171,713.198490973" stroke="#000000" stroke-width="1" /><polygon fill="none" points="190.376616077,720.757071178 182.962393609,737.159184005 199.44540808,743.246040543 205.602477186,726.33183054 190.376616077,720.757071178" stroke="#000000" stroke-width="1" /><polygon fill="none" points="207.538459514,726.955857167 201.541943209,743.927651186 218.405669352,748.689146435 223.10613233,731.31371413 207.538459514,726.955857167" stroke="#000000" stroke-width="1" /><polygon fill="none" points="225.079402451,731.784452034 220.543797346,749.203645079 237.690211446,752.63119706 240.900201353,734.91973284 225.079402451,731.784452034" stroke="#000000" stroke-width="1" /><polygon fill="none" points="242.899865772,735.236650611 239.857851006,752.977736997 257.192355035,755.066107991 258.888743819,737.146223362 242.899865772,735.236650611" stroke="#000000" stroke-width="1" /><polygon fill="none" points="260.904303521,737.309043958 259.377796881,755.244198752 276.80822874,755.990585373 276.978793882,737.991393515 260.904303521,737.309043958" stroke="#000000" stroke-width="1" /><polygon fill="none" points="279.0,738.0 279.0,756.0 295.2,756.0 295.2,738.0 279.0,738.0" stroke="#000000" stroke-width="1" /><polygon fill="none" points="297.0,738.0 297.0,756.0 313.2,756.0 313.2,738.0 297.0,738.0" stroke="#000000" stroke-width="1" /><polygon fill="none" points="315.0,738.0 315.0,756.0 331.2,756.0 331.2,738.0 315.0,738.0" stroke="#000000" stroke-width="1" /><polygon fill="none" points="333.0,738.0 333.0,756.0 350.435489058,755.403471782 349.079001631,737.454657285 333.0,738.0" stroke="#000000" stroke-width="1" /><polygon fill="none" points="351.095696479,737.309043958 352.622203119,755.244198752 369.971947759,753.305496322 367.098181287,735.536380804 351.095696479,737.309043958" stroke="#000000" stroke-width="1" /><polygon fill="none" points="369.100134228,735.236650611 372.142148994,752.977736997 389.314190067,749.699433425 384.943850103,732.238043772 369.100134228,735.236650611" stroke="#000000" stroke-width="1" /><polygon fill="none" points="386.920597549,731.784452034 391.456202654,749.203645079 408.356266584,744.590667555 402.520841528,727.56281348 386.920597549,731.784452034" stroke="#000000" stroke-width="1" /><polygon fill="none" points="404.461540486,726.955857167 410.458056791,743.927651186 426.988544612,737.988152897 419.730078835,721.516520478 404.461540486,726.955857167" stroke="#000000" stroke-width="1" /><polygon fill="none" points="421.623383923,720.757071178 429.037606391,737.159184005 445.096809474,729.905746021 436.467600388,714.109013747 421.623383923,720.757071178" stroke="#000000" stroke-width="1" /><polygon fill="none" points="438.301574829,713.198490973 447.080083818,728.91274501 462.561711836,720.363873621 452.62393309,705.355857309 438.301574829,713.198490973" stroke="#000000" stroke-width="1" /><polygon fill="none" points="454.386004739,704.296436659 464.465550889,719.209610346 479.258660286,709.391475549 468.083913804,695.280308302 454.386004739,704.296436659" stroke="#000000" stroke-width="1" /><polygon fill="none" points="469.760887324,694.075156138 481.068847276,708.079799715 495.058256021,697.028135399 482.727056108,683.9154885 469.760887324,694.075156138" stroke="#000000" stroke-width="1" /><polygon fill="none" points="484.305191657,682.569011355 496.760091298,695.564221046 509.827354624,683.326278036 496.428547857,671.306628406 484.305191657,682.569011355" stroke="#000000" stroke-width="1" /><polygon fill="none" points="497.893714505,669.824721476 511.405816,681.716866497 523.430814638,668.353278966 509.060939728,657.513228457 497.893714505,669.824721476" stroke="#000000" stroke-width="1" /><polygon fill="none" points="510.398848099,655.903503761 524.870796446,666.606900934 535.733951459,652.19329937 520.496543682,642.610950793 510.398848099,655.903503761" stroke="#000000" stroke-width="1" /><polygon fill="none" points="521.69305662,640.882922649 537.020581099,650.320453753 546.60565722,634.948640041 530.610502449,626.693034437 521.69305662,640.882922649" stroke="#000000" stroke-width="1" /><polygon fill="none" points="531.652015135,624.858238574 547.724680581,632.96190598 555.92207598,616.740405262 539.284419673,609.87102446 531.652015135,624.858238574" stroke="#000000" stroke-width="1" /><polygon fill="none" points="540.158292069,607.943048308 556.86029456,614.654464908 563.570645593,597.708290946 546.410362443,592.274628991 540.158292069,607.943048308" stroke="#000000" stroke-width="1" /><polygon fill="none" points="547.105378299,590.269035128 564.316379524,595.539845011 569.454244517,578.009364628 551.894974759,574.050571179 547.105378299,590.269035128" stroke="#000000" stroke-width="1" /><polygon fill="none" points="552.401794126,571.984703698 569.997788427,575.776930558 573.495127436,557.815787263 555.66338601,555.360385518 552.401794126,571.984703698" stroke="#000000" stroke-width="1" /><polygon fill="none" points="555.97495395,553.253059866 573.829161785,555.539380621 575.638311797,537.311531057 557.662576809,536.377212242 555.97495395,553.253059866" stroke="#000000" stroke-width="1" /><polygon fill="none" points="557.77445106,534.248301493 575.758232452,535.012243151 575.854098447,516.688259806 557.86388548,517.281755708 557.77445106,534.248301493" stroke="#000000" stroke-width="1" /><polygon fill="none" points="557.77445106,515.151698507 575.758232452,514.387756849 574.139476195,496.140640349 556.264405144,498.257674818 557.77445106,515.151698507" stroke="#000000" stroke-width="1" /><polygon fill="none" points="555.97495395,496.146940134 573.829161785,493.860619379 570.518265898,475.861426999 552.887127062,479.486746753 555.97495395,496.146940134" stroke="#000000" stroke-width="1" /><polygon fill="none" points="552.401794126,477.415296302 569.997788427,473.623069442 565.039989069,456.036690873 547.779815205,461.144175399 552.401794126,477.415296302" stroke="#000000" stroke-width="1" /><polygon fill="none" points="547.105378299,459.130964872 564.316379524,453.860154989 557.777577868,436.841546801 541.012728926,443.394396557 547.105378299,459.130964872" stroke="#000000" stroke-width="1" /><polygon fill="none" points="540.158292069,441.456951692 556.86029456,434.745535092 548.824156033,418.436665888 532.675423132,426.387667441 540.158292069,441.456951692" stroke="#000000" stroke-width="1" /><polygon fill="none" points="531.652015135,424.541761426 547.724680581,416.43809402 538.289196545,400.965764558 522.872931676,410.25763076 531.652015135,424.541761426" stroke="#000000" stroke-width="1" /><polygon fill="none" points="521.69305662,408.517077351 537.020581099,399.079546247 526.294393182,384.554149269 511.721670887,395.11993201 521.69305662,408.517077351" stroke="#000000" stroke-width="1" /><polygon fill="none" points="510.398848099,393.496496239 524.870796446,382.793099066 512.969570216,369.308288628 499.345387293,381.071861202 510.398848099,393.496496239" stroke="#000000" stroke-width="1" /><polygon fill="none" points="497.893714505,379.575278524 511.405816,367.683133503 498.448906276,355.316296492 485.871425276,368.192902089 497.893714505,379.575278524" stroke="#000000" stroke-width="1" /><polygon fill="none" points="484.305191657,366.830988645 496.760091298,353.835778954 482.867678201,342.649149623 471.427520162,356.546012005 484.305191657,366.830988645" stroke="#000000" stroke-width="1" /><polygon fill="none" points="469.760887324,355.324843862 481.068847276,341.320200285 466.359652742,331.36243368 456.139244266,346.179425634 469.760887324,355.324843862" stroke="#000000" stroke-width="1" /></g><g id="icons"><g id="icon0" transform="translate(224.0, 22.5) scale(0.10413340183)"><path d="M344.191,168.108c-7.943,0-15.641,1.065-22.966,3.048l-12.992-35.019h4.499c13.233,0,24-10.766,24-24	c0-13.233-10.767-24-24-24H288c-4.418,0-8,3.582-8,8s3.582,8,8,8h24.732c4.411,0,8,3.589,8,8s-3.589,8-8,8h-16H147.258l-4.717-8.25	h16.293c4.418,0,8-3.582,8-8s-3.582-8-8-8h-39.257c-2.253,0-4.129-1.023-5.577-3.041c-2.578-3.589-7.573-4.41-11.165-1.833	c-3.589,2.577-4.409,7.575-1.833,11.164c4.431,6.17,11.201,9.709,18.575,9.709h4.532l8.574,14.994L112.834,171.7	c-7.895-2.333-16.247-3.592-24.888-3.592C39.452,168.108,0,207.561,0,256.054S39.452,344,87.946,344	c45.939,0,83.758-35.407,87.616-80.363h8.127c0.642,0,1.262-0.084,1.86-0.226c2.715,11.196,11.441,20.066,22.559,22.979v9.413	c0,4.418,3.582,8,8,8H240c4.418,0,8-3.582,8-8s-3.582-8-8-8h-15.892v-1.439c13.428-3.563,23.355-15.818,23.355-30.352	c0-7.426-2.596-14.253-6.922-19.635l54.453-89.926l11.235,30.281c-29.542,14.195-49.984,44.416-49.984,79.323	c0,48.494,39.452,87.946,87.946,87.946s87.946-39.453,87.946-87.946S392.686,168.108,344.191,168.108z M87.946,328	C48.275,328,16,295.726,16,256.054s32.275-71.946,71.946-71.946c6.337,0,12.482,0.832,18.34,2.377l-29.19,65.913	c-1.096,2.474-0.867,5.335,0.609,7.603s3.999,3.636,6.705,3.636h75.079C155.689,299.757,125.056,328,87.946,328z M121.213,192.292	c20.601,10.792,35.35,31.266,38.171,55.345H96.703L121.213,192.292z M175.488,247.637c-2.919-30.602-21.583-56.678-47.779-70.013	l14.834-33.496l51.3,89.718c-3.833,3.842-6.674,8.67-8.116,14.064c-0.652-0.172-1.332-0.272-2.037-0.272H175.488z M208.108,225.634	c-0.153,0.04-0.303,0.087-0.455,0.129l-5.742-10.043h6.197V225.634z M224.108,269.12v-13.334c0-4.418-3.582-8-8-8s-8,3.582-8,8	v13.39c-4.455-2.702-7.447-7.584-7.447-13.163c0-8.492,6.909-15.401,15.401-15.401s15.401,6.909,15.401,15.401	C231.464,261.553,228.512,266.406,224.108,269.12z M227.622,226.825c-1.141-0.454-2.312-0.846-3.514-1.165v-17.939	c0-4.418-3.664-8-8.082-8h-23.264l-36.357-63.583h126.13L227.622,226.825z M344.191,328c-39.671,0-71.946-32.275-71.946-71.946	c0-28.035,16.129-52.359,39.585-64.227l24.861,67.009c1.196,3.225,4.251,5.22,7.501,5.219c0.924,0,1.864-0.161,2.782-0.501	c4.142-1.537,6.254-6.141,4.717-10.283l-24.869-67.031c5.566-1.385,11.381-2.133,17.369-2.133c39.671,0,71.946,32.275,71.946,71.946	S383.862,328,344.191,328z" fill="#000000" /></g><g id="icon1" transform="translate(224.0, 47.7) scale(0.0968495904338)"><path d="M438.252,204.023l-45.113-36.719c-14.918-13.038-37.71-26.93-57.079-26.93H32.033c-17.645,0-32,14.355-32,32V257.8		l-0.03,1.294C0.001,259.157,0,259.22,0,259.283c0,19.553,13.887,35.921,32.315,39.768c3.262,14.415,16.166,25.214,31.553,25.214		c9.704,0,18.417-4.302,24.352-11.091c5.936,6.79,14.651,11.091,24.357,11.091c15.078,0,27.778-10.371,31.348-24.356h154.087		c3.571,13.984,16.274,24.356,31.354,24.356c9.704,0,18.417-4.302,24.351-11.091c5.936,6.79,14.651,11.091,24.357,11.091		c15.078,0,27.778-10.371,31.348-24.356h15.367c0.245,0,0.488-0.011,0.728-0.033c21.384-0.834,38.558-18.348,38.846-39.865		C464.962,254.981,466.992,226.083,438.252,204.023z M393.767,188.445l28.687,23.349H354.42c-0.527-0.109-1.073-0.167-1.633-0.167		c-4.501,0-8.162-3.661-8.162-8.162v-15.021H393.767z M63.868,308.265c-6.113,0-11.445-3.376-14.252-8.356h28.498		C75.307,304.889,69.978,308.265,63.868,308.265z M112.576,308.265c-6.113,0-11.445-3.376-14.252-8.356h28.498		C124.016,304.889,118.686,308.265,112.576,308.265z M329.366,308.265c-6.113,0-11.445-3.376-14.252-8.356h28.498		C340.805,304.889,335.476,308.265,329.366,308.265z M378.074,308.265c-6.113,0-11.445-3.376-14.252-8.356h28.498		C389.513,304.889,384.184,308.265,378.074,308.265z M448.467,258.189c-0.067,0.42-0.102,0.844-0.102,1.27		c0,13.481-10.968,24.448-24.448,24.448c-0.052,0-0.104,0-0.154,0.001h-21.31c-0.01,0-0.019-0.001-0.029-0.001		s-0.019,0.001-0.029,0.001h-48.65c-0.01,0-0.019-0.001-0.029-0.001s-0.019,0.001-0.029,0.001h-48.65		c-0.01,0-0.019-0.001-0.029-0.001s-0.019,0.001-0.029,0.001H136.956c-0.01,0-0.019-0.001-0.029-0.001s-0.019,0.001-0.029,0.001		H88.247c-0.01,0-0.019-0.001-0.029-0.001s-0.019,0.001-0.029,0.001H40.626c-13.55,0-24.579-11-24.626-24.539l0.031-1.288		c0.001-0.063,0.002-0.126,0.002-0.188v-85.52c0-8.823,7.178-16,16-16H336.06c11.151,0,25.749,7.311,37.852,16.071h-37.286		c-4.418,0-8,3.582-8,8v23.021c0,12.656,9.781,23.071,22.182,24.082c0.633,0.161,1.297,0.247,1.98,0.247h86.702		C450.515,242.738,448.573,257.464,448.467,258.189z" fill="#000000" /><path d="M304.542,172.445H40.208c-4.418,0-8,3.582-8,8v23.448c0,13.323,10.839,24.162,24.162,24.162h232.01		c13.322,0,24.161-10.839,24.161-24.162v-23.448C312.542,176.026,308.959,172.445,304.542,172.445z M296.542,203.893		c0,4.5-3.661,8.162-8.161,8.162H56.371c-4.5,0-8.162-3.661-8.162-8.162v-15.448h248.333V203.893z" fill="#000000" /></g><g id="icon2" transform="translate(224.0, 72.9) scale(0.100446428571)"><path d="m 412.372,195.323 c -0.179,-0.076 -0.361,-0.143 -0.545,-0.206 -2.249,-0.828 -4.616,-1.61 -7.138,-2.328 -29.402,-8.367 -90.439,-8.463 -93.023,-8.463 l -12.882,0 -25.392,-42.56 c -11.582,-19.32 -22.441,-29.789 -46.636,-29.789 -0.003,0 -0.01,0 -0.013,0 l -98.019,0.015 c -19.403,0.003 -38.674,13.06 -50.293,34.075 -0.031,0.055 -0.061,0.11 -0.089,0.166 l -11.598,22.196 -43.696,5.265 c -0.158,0.019 -0.316,0.043 -0.473,0.071 C 8.65,176.296 0,186.64 0,200.761 l 0,53.223 c 0,21.674 18.169,32.064 32.056,35.774 0.932,25.667 22.091,46.264 47.982,46.264 23.749,0 43.514,-17.339 47.336,-40.023 l 193.687,0 c 3.823,22.684 23.592,40.023 47.347,40.023 23.749,0 43.514,-17.339 47.336,-40.023 l 24.256,0 c 4.418,0 8,-3.582 8,-8 l 0,-46.583 c 0,-15.298 -6.432,-35.127 -35.628,-46.093 z m 14.594,29.08 -18.632,0.004 0,-7.84 c 0,-0.916 0.614,-2.92 2.196,-4.739 7.41,3.294 12.876,7.47 16.436,12.575 z m -146.813,-40.077 -160.1,0 c -1.434,0 -2.458,-0.566 -2.836,-1.127 -0.542,-0.804 -0.11,-2.278 0.18,-3.053 l 8.626,-17.905 c 3.567,-7.307 8.856,-10.424 17.686,-10.424 l 117.049,0 19.395,32.509 z M 16,207.817 l 8.011,0 c 4.411,0 8,3.589 8,8 l 0,8.167 -16.011,0 0,-16.167 z m 64.038,112.206 c -17.659,0 -32.026,-14.367 -32.026,-32.026 0,-17.656 14.367,-32.021 32.026,-32.021 17.653,0 32.015,14.365 32.015,32.021 0,17.659 -14.362,32.026 -32.015,32.026 z m 288.37,0 c -17.659,0 -32.026,-14.367 -32.026,-32.026 0,-17.656 14.367,-32.021 32.026,-32.021 17.653,0 32.015,14.365 32.015,32.021 0,17.659 -14.362,32.026 -32.015,32.026 z M 432,279.999 l -16.256,0 c -3.82,-22.684 -23.586,-40.024 -47.337,-40.024 -23.756,0 -43.527,17.34 -47.348,40.024 l -193.685,0 c -3.82,-22.684 -23.586,-40.024 -47.337,-40.024 -21.495,0 -39.736,14.194 -45.844,33.7 C 26.729,271.332 16,265.892 16,253.984 l 0,-14 24.011,0 c 4.418,0 8,-3.582 8,-8 l 0,-16.167 c 0,-13.233 -10.766,-24 -24,-24 l -4.253,0 c 1.415,-1.081 3.228,-1.838 5.461,-2.269 l 47.087,-5.673 c 2.782,-0.15 5.333,-1.749 6.658,-4.284 l 13.514,-25.864 c 8.806,-15.875 22.688,-25.734 36.248,-25.736 l 98.02,-0.015 c 0.004,0 0.007,0 0.011,0 10.417,0 16.844,2.237 22.559,7.84 l -105.608,0 c -14.99,0 -25.778,6.528 -32.082,19.441 l -8.776,18.216 c -0.076,0.158 -0.146,0.317 -0.212,0.479 -2.646,6.557 -2.178,13.019 1.315,18.196 3.456,5.12 9.474,8.176 16.099,8.176 l 191.614,0 c 0.572,0 53.947,0.079 83.11,6.475 -1.654,3.342 -2.443,6.781 -2.443,9.767 l 0,15.846 c 0,2.123 0.844,4.158 2.345,5.659 1.5,1.499 3.534,2.341 5.655,2.341 0.002,0 0.004,0 0.006,0 l 31.64,-0.011 c 0.009,0.337 0.02,0.673 0.02,1.015 l 0,38.583 z" fill="#000000" /><path d="m 95.721,279.998 c -4.418,0 -8,3.582 -8,8 0,4.241 -3.448,7.691 -7.687,7.691 -4.241,0 -7.691,-3.45 -7.691,-7.691 0,-4.239 3.45,-7.688 7.691,-7.688 4.418,0 8,-3.582 8,-8 0,-4.418 -3.582,-8 -8,-8 -13.063,0 -23.691,10.626 -23.691,23.688 0,13.063 10.628,23.691 23.691,23.691 13.061,0 23.687,-10.628 23.687,-23.691 0,-4.418 -3.581,-8 -8,-8 z" fill="#000000" /><path d="m 384.091,279.998 c -4.418,0 -8,3.582 -8,8 0,4.241 -3.448,7.691 -7.687,7.691 -4.241,0 -7.691,-3.45 -7.691,-7.691 0,-4.239 3.45,-7.688 7.691,-7.688 4.418,0 8,-3.582 8,-8 0,-4.418 -3.582,-8 -8,-8 -13.063,0 -23.691,10.626 -23.691,23.688 0,13.063 10.628,23.691 23.691,23.691 13.061,0 23.687,-10.628 23.687,-23.691 0,-4.418 -3.581,-8 -8,-8 z" fill="#000000" /><path d="m 240.78758,197.86205 a 27.525423,27.525423 0 0 1 -27.52539,-27.52539 27.525423,27.525423 0 0 1 27.52539,-27.52539 27.525423,27.525423 0 0 1 27.52539,27.52539 27.525423,27.525423 0 0 1 -27.52539,27.52539 z m 0,-14.23633 a 13.288136,13.288136 0 0 0 13.28711,-13.28906 13.288136,13.288136 0 0 0 -13.28711,-13.28711 13.288136,13.288136 0 0 0 -13.28906,13.28711 13.288136,13.288136 0 0 0 13.28906,13.28906 z" fill="#000000" /><path d="m 144.14166,197.86205 a 27.525423,27.525423 0 0 1 -27.52539,-27.52539 27.525423,27.525423 0 0 1 27.52539,-27.52539 27.525423,27.525423 0 0 1 27.52539,27.52539 27.525423,27.525423 0 0 1 -27.52539,27.52539 z m 0,-14.23633 a 13.288136,13.288136 0 0 0 13.28711,-13.28906 13.288136,13.288136 0 0 0 -13.28711,-13.28711 13.288136,13.288136 0 0 0 -13.28906,13.28711 13.288136,13.288136 0 0 0 13.28906,13.28906 z" fill="#000000" /><path d="m 192.46464,197.86205 a 27.525423,27.525423 0 0 1 -27.52539,-27.52539 27.525423,27.525423 0 0 1 27.52539,-27.52539 27.525423,27.525423 0 0 1 27.52539,27.52539 27.525423,27.525423 0 0 1 -27.52539,27.52539 z m 0,-14.23633 a 13.288136,13.288136 0 0 0 13.28711,-13.28906 13.288136,13.288136 0 0 0 -13.28711,-13.28711 13.288136,13.288136 0 0 0 -13.28906,13.28711 13.288136,13.288136 0 0 0 13.28906,13.28906 z" fill="#000000" /></g><g id="icon3" transform="translate(224.0, 98.1) scale(0.100446428571)"><path d="m 447.939,190.699 c 0.195,-1.673 -0.126,-3.421 -1.049,-4.984 l -30.671,-51.967 c -10.519,-17.551 -20.446,-27.8 -40.312,-29.533 -0.651,-0.171 -1.336,-0.263 -2.042,-0.263 l -349.865,0 c -13.233,0 -24,10.766 -24,24 l 0,134.056 c 0,21.674 18.169,32.064 32.056,35.774 0.932,25.667 22.09,46.264 47.981,46.264 23.749,0 43.514,-17.339 47.336,-40.023 l 193.688,0 c 3.823,22.684 23.592,40.023 47.346,40.023 23.749,0 43.514,-17.339 47.336,-40.023 l 24.257,0 c 4.418,0 8,-3.582 8,-8 l 0,-104.375 c 0,-0.322 -0.024,-0.637 -0.061,-0.949 z m -31.516,25.67 c 0,-4.411 3.589,-8 8,-8 l 7.577,0 0,15.75 -15.577,0 0,-7.75 z m 10.894,-32.337 -68.147,0 -19.897,-39.829 64.538,0 23.506,39.829 z m -411.317,16 8.583,0 0,24.086 -8.583,0 0,-24.086 z m 0,-16 0,-39.966 263.375,0 c 8.83,0 14.119,3.118 17.669,10.389 l 14.266,29.577 -295.31,0 z m 64.037,144.015 c -17.659,0 -32.025,-14.367 -32.025,-32.026 0,-17.656 14.366,-32.021 32.025,-32.021 17.653,0 32.016,14.365 32.016,32.021 0,17.659 -14.363,32.026 -32.016,32.026 z m 288.37,0 c -17.659,0 -32.025,-14.367 -32.025,-32.026 0,-17.656 14.366,-32.021 32.025,-32.021 17.653,0 32.016,14.365 32.016,32.021 0,17.659 -14.362,32.026 -32.016,32.026 z m 47.337,-40.023 C 411.925,265.34 392.158,248 368.407,248 c -23.756,0 -43.526,17.34 -47.347,40.024 l -193.686,0 C 123.554,265.34 103.788,248 80.037,248 58.535,248 40.289,262.203 34.187,281.719 26.708,279.394 16,273.979 16,262.009 l 0,-21.89 8.583,0 c 8.822,0 16,-7.177 16,-16 l 0,-24.086 283.282,0 c 4.418,0 8,-3.582 8,-8 l 0,-0.384 c 0,-1.203 -0.271,-2.392 -0.794,-3.476 L 311.438,147.47 c -6.286,-12.875 -17.073,-19.404 -32.063,-19.404 l -263.375,0 0,-0.113 c 0,-4.411 3.589,-8 8,-8 l 345.574,0 c 10.675,0 17.16,2.351 22.975,8.25 l -66.216,0 c -2.772,0 -5.347,1.435 -6.805,3.793 -1.458,2.357 -1.591,5.302 -0.352,7.782 l 27.111,54.271 c 0.895,3.442 4.022,5.983 7.744,5.983 l 52.832,0 c -3.992,4.288 -6.441,10.03 -6.441,16.337 l 0,15.75 c 0,4.418 3.582,8 8,8 l 23.578,0 0,47.905 -16.256,0 z" fill="#000000" /><path d="m 95.721,288.022 c -4.418,0 -8,3.582 -8,8 0,4.241 -3.448,7.691 -7.687,7.691 -4.241,0 -7.691,-3.45 -7.691,-7.691 0,-4.239 3.45,-7.688 7.691,-7.688 4.418,0 8,-3.582 8,-8 0,-4.418 -3.582,-8 -8,-8 -13.063,0 -23.691,10.626 -23.691,23.688 0,13.063 10.628,23.691 23.691,23.691 13.061,0 23.687,-10.628 23.687,-23.691 0,-4.418 -3.582,-8 -8,-8 z" fill="#000000" /><path d="m 384.091,288.022 c -4.418,0 -8,3.582 -8,8 0,4.241 -3.448,7.691 -7.687,7.691 -4.241,0 -7.691,-3.45 -7.691,-7.691 0,-4.239 3.45,-7.688 7.691,-7.688 4.418,0 8,-3.582 8,-8 0,-4.418 -3.582,-8 -8,-8 -13.063,0 -23.691,10.626 -23.691,23.688 0,13.063 10.628,23.691 23.691,23.691 13.061,0 23.687,-10.628 23.687,-23.691 0,-4.418 -3.582,-8 -8,-8 z" fill="#000000" /></g><g id="icon4" transform="translate(224.0, 123.3) scale(0.104997165077)"><path d="M380.416,253.749v-10.44c0-20.145-14.004-33.786-26.358-45.822c-1.544-1.503-3.081-3-4.582-4.502	c-8.306-8.305-15.127-15.144-20.102-20.131c-1.621-1.625-3.047-3.054-4.264-4.273v-9.861c4.167,3.486,9.53,5.589,15.375,5.589	h15.674c4.418,0,8-3.582,8-8v-32c0-4.418-3.582-8-8-8h-15.674c-5.845,0-11.208,2.103-15.375,5.589v-3.714	c0-7.211-2.544-23.187-24.458-25.761v-1.114c0-6.875-3.799-14.737-10.424-21.569c-5.356-5.524-10.858-10.866-11.09-11.09	c-3.172-3.077-8.234-3-11.313,0.172c-3.076,3.171-2.999,8.236,0.172,11.312c0.055,0.054,5.563,5.401,10.744,10.744	c4.675,4.822,5.91,8.932,5.91,10.431v160.917c0,13.28-10.804,24.083-24.084,24.083c-0.589,0-1.162,0.063-1.714,0.184h-78.521	v-40.768c0-8.326-3.199-15.917-8.429-21.616c5.15-4.358,8.429-10.862,8.429-18.121v-8.36c0-13.088-10.648-23.737-23.737-23.737	H23.737C10.648,163.892,0,174.541,0,187.629v8.36c0,13.088,10.648,23.737,23.737,23.737h12.025c-3.792,2.327-7.45,4.888-10.94,7.685	c-3.151,2.524-12.739,10.208-12.739,26.565v37.75c0,13.982,8.876,25.909,21.246,30.371c4.662,28.523,29.52,50.094,58.996,50.094	c28.778,0,53.22-20.649,58.655-48.215h159.16c5.408,27.447,29.644,48.215,58.647,48.215c32.972,0,59.796-26.825,59.796-59.796	C428.583,283.405,407.839,259.177,380.416,253.749z M340.485,132.309h7.674v16h-7.674c-4.411,0-8-3.589-8-8	S336.074,132.309,340.485,132.309z M23.737,203.726c-4.266,0-7.737-3.471-7.737-7.737v-8.36c0-4.266,3.471-7.737,7.737-7.737	h132.859c4.266,0,7.737,3.471,7.737,7.737v8.36c0,4.266-3.471,7.737-7.737,7.737H23.737z M28.083,253.976	c0-7.624,3.242-11.272,6.745-14.08c16.466-13.196,36.346-20.17,57.491-20.17h56.015c8.822,0,16,7.178,16,16v48.583	c0,4.251,3.325,7.76,7.57,7.988l3.417,0.184c0.143,0.008,0.287,0.012,0.43,0.012h84.819c0.657,0,1.297-0.079,1.908-0.229	c21.22-0.999,38.176-18.576,38.176-40.039V108.57c8.449,1.577,8.458,6.472,8.458,9.614v53.708c0,2.122,0.843,4.156,2.343,5.657	c1.565,1.566,3.785,3.791,6.593,6.605c4.979,4.991,11.805,11.833,20.115,20.145c1.551,1.551,3.138,3.097,4.731,4.649	c11.068,10.782,21.523,20.967,21.523,34.361v9.473c-29.468,2.142-53.066,25.729-55.23,55.194H44.083c-8.673,0-16-7.441-16-16.25	V253.976z M108.498,323.976c-3.639,5.06-9.569,8.327-16.17,8.327c-6.597,0-12.525-3.267-16.163-8.327H108.498z M92.325,356.191	c-20.019,0-37.123-13.585-42.226-32.215h8.249c4.861,14.261,18.405,24.327,33.98,24.327c15.579,0,29.126-10.065,33.988-24.327h8.25	C129.454,342.595,112.315,356.191,92.325,356.191z M368.787,356.191c-24.142,0-43.782-19.647-43.782-43.796	c0-9.251,2.891-17.836,7.806-24.914l30.303,30.552c1.563,1.577,3.621,2.366,5.68,2.366c2.036,0,4.073-0.773,5.634-2.32	c3.137-3.111,3.157-8.176,0.046-11.313l-12.83-12.935c2.253-0.867,4.663-1.336,7.146-1.336c10.977,0,19.906,8.928,19.906,19.903	c0,10.977-8.93,19.906-19.906,19.906c-10.972,0-19.898-8.93-19.898-19.906c0-4.418-3.582-8-8-8s-8,3.582-8,8	c0,19.799,16.104,35.906,35.898,35.906c19.799,0,35.906-16.107,35.906-35.906c0-19.797-16.107-35.903-35.906-35.903	c-6.808,0-13.327,1.895-18.967,5.418l-5.658-5.704c7.021-4.793,15.499-7.602,24.622-7.602c24.149,0,43.796,19.644,43.796,43.789	C412.583,336.544,392.937,356.191,368.787,356.191z" fill="#000000" /></g><g id="icon5" transform="translate(224.0, 148.5) scale(0.100446428571)"><path d="m 412.372,195.323 c -0.179,-0.076 -0.361,-0.143 -0.545,-0.206 -2.249,-0.828 -4.616,-1.61 -7.138,-2.328 -29.402,-8.367 -90.439,-8.463 -93.023,-8.463 l -12.882,0 -25.392,-42.56 c -11.582,-19.32 -22.441,-29.789 -46.636,-29.789 -0.003,0 -0.01,0 -0.013,0 l -98.019,0.015 c -19.403,0.003 -38.674,13.06 -50.293,34.075 -0.031,0.055 -0.061,0.11 -0.089,0.166 l -11.598,22.196 -43.696,5.265 c -0.158,0.019 -0.316,0.043 -0.473,0.071 C 8.65,176.296 0,186.64 0,200.761 l 0,53.223 c 0,21.674 18.169,32.064 32.056,35.774 0.932,25.667 22.091,46.264 47.982,46.264 23.749,0 43.514,-17.339 47.336,-40.023 l 193.687,0 c 3.823,22.684 23.592,40.023 47.347,40.023 23.749,0 43.514,-17.339 47.336,-40.023 l 24.256,0 c 4.418,0 8,-3.582 8,-8 l 0,-46.583 c 0,-15.298 -6.432,-35.127 -35.628,-46.093 z m 14.594,29.08 -18.632,0.004 0,-7.84 c 0,-0.916 0.614,-2.92 2.196,-4.739 7.41,3.294 12.876,7.47 16.436,12.575 z m -146.813,-40.077 -160.1,0 c -1.434,0 -2.458,-0.566 -2.836,-1.127 -0.542,-0.804 -0.11,-2.278 0.18,-3.053 l 8.626,-17.905 c 3.567,-7.307 8.856,-10.424 17.686,-10.424 l 117.049,0 19.395,32.509 z M 16,207.817 l 8.011,0 c 4.411,0 8,3.589 8,8 l 0,8.167 -16.011,0 0,-16.167 z m 64.038,112.206 c -17.659,0 -32.026,-14.367 -32.026,-32.026 0,-17.656 14.367,-32.021 32.026,-32.021 17.653,0 32.015,14.365 32.015,32.021 0,17.659 -14.362,32.026 -32.015,32.026 z m 288.37,0 c -17.659,0 -32.026,-14.367 -32.026,-32.026 0,-17.656 14.367,-32.021 32.026,-32.021 17.653,0 32.015,14.365 32.015,32.021 0,17.659 -14.362,32.026 -32.015,32.026 z M 432,279.999 l -16.256,0 c -3.82,-22.684 -23.586,-40.024 -47.337,-40.024 -23.756,0 -43.527,17.34 -47.348,40.024 l -193.685,0 c -3.82,-22.684 -23.586,-40.024 -47.337,-40.024 -21.495,0 -39.736,14.194 -45.844,33.7 C 26.729,271.332 16,265.892 16,253.984 l 0,-14 24.011,0 c 4.418,0 8,-3.582 8,-8 l 0,-16.167 c 0,-13.233 -10.766,-24 -24,-24 l -4.253,0 c 1.415,-1.081 3.228,-1.838 5.461,-2.269 l 47.087,-5.673 c 2.782,-0.15 5.333,-1.749 6.658,-4.284 l 13.514,-25.864 c 8.806,-15.875 22.688,-25.734 36.248,-25.736 l 98.02,-0.015 c 0.004,0 0.007,0 0.011,0 10.417,0 16.844,2.237 22.559,7.84 l -105.608,0 c -14.99,0 -25.778,6.528 -32.082,19.441 l -8.776,18.216 c -0.076,0.158 -0.146,0.317 -0.212,0.479 -2.646,6.557 -2.178,13.019 1.315,18.196 3.456,5.12 9.474,8.176 16.099,8.176 l 191.614,0 c 0.572,0 53.947,0.079 83.11,6.475 -1.654,3.342 -2.443,6.781 -2.443,9.767 l 0,15.846 c 0,2.123 0.844,4.158 2.345,5.659 1.5,1.499 3.534,2.341 5.655,2.341 0.002,0 0.004,0 0.006,0 l 31.64,-0.011 c 0.009,0.337 0.02,0.673 0.02,1.015 l 0,38.583 z" fill="#000000" /><path d="m 95.721,279.998 c -4.418,0 -8,3.582 -8,8 0,4.241 -3.448,7.691 -7.687,7.691 -4.241,0 -7.691,-3.45 -7.691,-7.691 0,-4.239 3.45,-7.688 7.691,-7.688 4.418,0 8,-3.582 8,-8 0,-4.418 -3.582,-8 -8,-8 -13.063,0 -23.691,10.626 -23.691,23.688 0,13.063 10.628,23.691 23.691,23.691 13.061,0 23.687,-10.628 23.687,-23.691 0,-4.418 -3.581,-8 -8,-8 z" fill="#000000" /><path d="m 384.091,279.998 c -4.418,0 -8,3.582 -8,8 0,4.241 -3.448,7.691 -7.687,7.691 -4.241,0 -7.691,-3.45 -7.691,-7.691 0,-4.239 3.45,-7.688 7.691,-7.688 4.418,0 8,-3.582 8,-8 0,-4.418 -3.582,-8 -8,-8 -13.063,0 -23.691,10.626 -23.691,23.688 0,13.063 10.628,23.691 23.691,23.691 13.061,0 23.687,-10.628 23.687,-23.691 0,-4.418 -3.581,-8 -8,-8 z" fill="#000000" /></g><g id="icon6" transform="translate(224.0, 173.7) scale(0.0939682804849)"><path d="M478.607,313.111c-1.223-8.017-4.617-19.613-13.84-29.332c-10.367-10.923-25.144-16.462-43.922-16.462h-96.534		l-4.571-5.462v-9.205c0-9.055-7.43-16.071-16.65-15.293l-3.594,0.306l-11.421-13.648l-69.407-81.63		c-1.52-1.788-3.748-2.818-6.095-2.818h-37.353h-6.897h-11.75c-4.418,0-8,3.582-8,8s3.582,8,8,8h5.495l27.774,111.75h-74.441		l-62.075-54.034c-1.456-1.268-3.322-1.966-5.252-1.966H8c-4.418,0-8,3.582-8,8s3.582,8,8,8h3.271l39.051,88.685		c5.965,14.819,19.215,23.315,36.376,23.315h368.875c9.484,0,15.019-4.125,17.992-7.586		C477.756,326.852,479.641,319.891,478.607,313.111z M303.74,253.36v14.497l-79.322-6.373c-0.23-0.019-0.616-0.436-0.616-0.667		c0-0.244,0.407-0.687,0.65-0.708L303.74,253.36z M461.428,321.305c-1.147,1.335-3.117,2.012-5.855,2.012H86.698		c-7.408,0-17.164-2.32-21.567-13.375c-0.036-0.088-0.072-0.176-0.11-0.263l-36.267-82.361h16.325l62.075,54.034		c1.456,1.268,3.322,1.966,5.252,1.966h87.667c2.461,0,4.786-1.133,6.302-3.072c1.516-1.939,2.055-4.468,1.461-6.857l-29.282-117.82		h30.32l66.97,78.764l4.176,4.99l-56.926,4.846c-8.575,0.731-15.292,8.044-15.292,16.65c0,8.625,6.735,15.924,15.334,16.615		l79.988,6.427c0.431,0.035,0.857,0.052,1.279,0.052c3.823,0,7.273-1.341,9.931-3.583l0.103,0.123		c1.52,1.817,3.767,2.866,6.135,2.866h100.271c12.793,0,21.74,3.187,28.006,7.775H431.74c-4.418,0-8,3.582-8,8s3.582,8,8,8h28.905		c1.096,2.995,1.758,5.895,2.145,8.431C463.12,317.688,462.585,319.958,461.428,321.305z" fill="#000000" /><path d="M400.318,291.097c-2.1,0-4.16,0.85-5.65,2.34c-1.49,1.49-2.34,3.55-2.34,5.66c0,2.1,0.85,4.16,2.34,5.65		c1.49,1.49,3.55,2.35,5.65,2.35c2.11,0,4.17-0.86,5.66-2.35c1.49-1.49,2.35-3.55,2.35-5.65c0-2.11-0.86-4.17-2.35-5.66		C404.488,291.947,402.428,291.097,400.318,291.097z" fill="#000000" /><path d="M376.078,291.097c-2.11,0-4.17,0.85-5.66,2.34c-1.49,1.49-2.34,3.55-2.34,5.65c0,2.11,0.85,4.17,2.34,5.66		c1.49,1.49,3.55,2.35,5.66,2.35c2.1,0,4.16-0.86,5.65-2.35c1.49-1.49,2.34-3.55,2.34-5.66c0-2.1-0.85-4.16-2.34-5.65		C380.238,291.947,378.178,291.097,376.078,291.097z" fill="#000000" /><path d="M351.818,291.097c-2.1,0-4.16,0.85-5.65,2.34c-1.49,1.49-2.35,3.55-2.35,5.66c0,2.1,0.86,4.16,2.35,5.65		c1.49,1.49,3.55,2.35,5.65,2.35c2.11,0,4.17-0.86,5.66-2.35c1.49-1.49,2.34-3.55,2.34-5.65c0-2.11-0.85-4.17-2.34-5.66		C355.988,291.947,353.928,291.097,351.818,291.097z" fill="#000000" /><path d="M328.318,291.097c-2.1,0-4.16,0.85-5.65,2.34c-1.49,1.49-2.35,3.55-2.35,5.66c0,2.1,0.86,4.16,2.35,5.65		c1.49,1.49,3.55,2.35,5.65,2.35c2.11,0,4.17-0.86,5.66-2.35c1.49-1.49,2.34-3.55,2.34-5.65c0-2.11-0.85-4.17-2.34-5.66		C332.488,291.947,330.428,291.097,328.318,291.097z" fill="#000000" /><path d="M304.568,291.097c-2.1,0-4.16,0.85-5.65,2.34c-1.49,1.49-2.34,3.55-2.34,5.66c0,2.1,0.85,4.16,2.34,5.65		c1.49,1.49,3.55,2.34,5.65,2.34c2.11,0,4.17-0.85,5.66-2.34c1.49-1.49,2.34-3.55,2.34-5.65c0-2.11-0.85-4.17-2.34-5.66		C308.738,291.947,306.678,291.097,304.568,291.097z" fill="#000000" /><path d="M280.328,291.097c-2.11,0-4.17,0.85-5.66,2.34c-1.49,1.49-2.34,3.55-2.34,5.65c0,2.11,0.85,4.17,2.34,5.66		c1.49,1.49,3.55,2.35,5.66,2.35c2.1,0,4.16-0.86,5.65-2.35c1.49-1.49,2.35-3.55,2.35-5.66c0-2.1-0.86-4.16-2.35-5.65		C284.488,291.947,282.428,291.097,280.328,291.097z" fill="#000000" /><path d="M256.568,291.097c-2.1,0-4.16,0.85-5.65,2.34c-1.49,1.49-2.34,3.55-2.34,5.66c0,2.1,0.85,4.16,2.34,5.65		c1.49,1.49,3.55,2.35,5.65,2.35c2.11,0,4.17-0.86,5.66-2.35c1.49-1.49,2.34-3.55,2.34-5.65c0-2.11-0.85-4.17-2.34-5.66		C260.738,291.947,258.678,291.097,256.568,291.097z" fill="#000000" /><path d="M232.068,291.097c-2.1,0-4.16,0.85-5.65,2.34c-1.49,1.49-2.35,3.55-2.35,5.66c0,2.1,0.86,4.16,2.35,5.65		c1.49,1.49,3.55,2.35,5.65,2.35c2.11,0,4.17-0.86,5.66-2.35c1.49-1.49,2.34-3.55,2.34-5.65c0-2.11-0.85-4.17-2.34-5.66		C236.238,291.947,234.178,291.097,232.068,291.097z" fill="#000000" /></g></g><g id="labels"><text alignment-baseline="before-edge" font-size="14" text-anchor="end" x="214.0" y="36.0">Bicycle</text><text alignment-baseline="before-edge" font-size="14" text-anchor="end" x="214.0" y="61.2">Train</text><text alignment-baseline="before-edge" font-size="14" text-anchor="end" x="214.0" y="86.4">Car pool</text><text alignment-baseline="before-edge" font-size="14" text-anchor="end" x="214.0" y="111.6">Bus</text><text alignment-baseline="before-edge" font-size="14" text-anchor="end" x="214.0" y="136.8">Scooter</text><text alignment-baseline="before-edge" font-size="14" text-anchor="end" x="214.0" y="162.0">Car</text><text alignment-baseline="before-edge" font-size="14" text-anchor="end" x="214.0" y="187.2">Plane</text></g><g id="numbers1"><text alignment-baseline="middle" font-size="9" text-anchor="middle" x="287.1" y="70.2">1</text><text alignment-baseline="middle" font-size="9" text-anchor="middle" x="305.1" y="70.2">1</text><text alignment-baseline="middle" font-size="9" text-anchor="middle" x="323.1" y="70.2">1</text><text alignment-baseline="middle" font-size="9" text-anchor="middle" x="340.62628658" y="70.4864216059">1</text><text alignment-baseline="middle" font-size="9" text-anchor="middle" x="357.617684079" y="71.841205349">1</text><text alignment-baseline="middle" font-size="9" text-anchor="middle" x="287.1" y="95.4">1</text><text alignment-baseline="middle" font-size="9" text-anchor="middle" x="305.1" y="95.4">1</text><text alignment-baseline="middle" font-size="9" text-anchor="middle" x="323.1" y="95.4">1</text><text alignment-baseline="middle" font-size="9" text-anchor="middle" x="340.530063553" y="95.7185812835">1</text><text alignment-baseline="middle" font-size="9" text-anchor="middle" x="357.723348222" y="97.2855026404">1</text><text alignment-baseline="middle" font-size="9" text-anchor="middle" x="287.1" y="120.6">1</text><text alignment-baseline="middle" font-size="9" text-anchor="middle" x="305.1" y="120.6">1</text><text alignment-baseline="middle" font-size="9" text-anchor="middle" x="323.1" y="120.6">1</text><text alignment-baseline="middle" font-size="9" text-anchor="middle" x="340.400159758" y="120.957993316">1</text><text alignment-baseline="middle" font-size="9" text-anchor="middle" x="357.15906458" y="122.700547098">1</text><text alignment-baseline="middle" font-size="9" text-anchor="middle" x="287.1" y="145.8">1</text><text alignment-baseline="middle" font-size="9" text-anchor="middle" x="305.1" y="145.8">1</text><text alignment-baseline="middle" font-size="9" text-anchor="middle" x="323.1" y="145.8">1</text><text alignment-baseline="middle" font-size="9" text-anchor="middle" x="340.215410562" y="146.206474481">1</text><text alignment-baseline="middle" font-size="9" text-anchor="middle" x="356.372341183" y="148.158226234">1</text><text alignment-baseline="middle" font-size="9" text-anchor="middle" x="287.1" y="171.0">1</text><text alignment-baseline="middle" font-size="9" text-anchor="middle" x="305.1" y="171.0">1</text><text alignment-baseline="middle" font-size="9" text-anchor="middle" x="323.1" y="171.0">1</text><text alignment-baseline="middle" font-size="9" text-anchor="middle" x="339.932619116" y="171.464454724">1</text><text alignment-baseline="middle" font-size="9" text-anchor="middle" x="356.217546764" y="173.885450411">1</text><text alignment-baseline="middle" font-size="9" text-anchor="middle" x="287.1" y="196.2">1</text><text alignment-baseline="middle" font-size="9" text-anchor="middle" x="305.1" y="196.2">1</text><text alignment-baseline="middle" font-size="9" text-anchor="middle" x="323.1" y="196.2">1</text><text alignment-baseline="middle" font-size="9" text-anchor="middle" x="339.448936233" y="196.721506368">1</text><text alignment-baseline="middle" font-size="9" text-anchor="middle" x="354.58553521" y="199.492035954">1</text></g><g id="numbers2"><text alignment-baseline="middle" font-size="9" text-anchor="middle" x="374.728123146" y="100.529708168">2</text><text alignment-baseline="middle" font-size="9" text-anchor="middle" x="391.4035943" y="105.457955619">2</text><text alignment-baseline="middle" font-size="9" text-anchor="middle" x="407.594900969" y="112.075814146">2</text><text alignment-baseline="middle" font-size="9" text-anchor="middle" x="423.128979426" y="120.381971443">2</text><text alignment-baseline="middle" font-size="9" text-anchor="middle" x="437.812293258" y="130.360827336">2</text><text alignment-baseline="middle" font-size="9" text-anchor="middle" x="451.431165856" y="141.97378004">2</text><text alignment-baseline="middle" font-size="9" text-anchor="middle" x="463.75543244" y="155.14993605">2</text><text alignment-baseline="middle" font-size="9" text-anchor="middle" x="474.5459285" y="169.77735915">2</text><text alignment-baseline="middle" font-size="9" text-anchor="middle" x="483.565882294" y="185.696319945">2</text><text alignment-baseline="middle" font-size="9" text-anchor="middle" x="490.595577458" y="202.696164176">2</text><text alignment-baseline="middle" font-size="9" text-anchor="middle" x="495.448803269" y="220.517222696">2</text><text alignment-baseline="middle" font-size="9" text-anchor="middle" x="497.988843734" y="238.858538965">2</text><text alignment-baseline="middle" font-size="9" text-anchor="middle" x="498.141372411" y="257.391143002">2</text><text alignment-baseline="middle" font-size="9" text-anchor="middle" x="495.90186401" y="275.775396994">2</text><text alignment-baseline="middle" font-size="9" text-anchor="middle" x="373.693014267" y="126.30959732">2</text><text alignment-baseline="middle" font-size="9" text-anchor="middle" x="389.825278142" y="131.806509803">2</text><text alignment-baseline="middle" font-size="9" text-anchor="middle" x="405.349245517" y="139.212843918">2</text><text alignment-baseline="middle" font-size="9" text-anchor="middle" x="420.02033764" y="148.537013732">2</text><text alignment-baseline="middle" font-size="9" text-anchor="middle" x="433.553091539" y="159.756899164">2</text><text alignment-baseline="middle" font-size="9" text-anchor="middle" x="445.625771383" y="172.799862658">2</text><text alignment-baseline="middle" font-size="9" text-anchor="middle" x="455.89457197" y="187.52302394">2</text><text alignment-baseline="middle" font-size="9" text-anchor="middle" x="464.018132706" y="203.698104715">2</text><text alignment-baseline="middle" font-size="9" text-anchor="middle" x="469.690517605" y="221.00592617">2</text><text alignment-baseline="middle" font-size="9" text-anchor="middle" x="472.677543708" y="239.04481951">2</text><text alignment-baseline="middle" font-size="9" text-anchor="middle" x="472.848673706" y="257.354307703">2</text><text alignment-baseline="middle" font-size="9" text-anchor="middle" x="470.196273369" y="275.451017093">2</text><text alignment-baseline="middle" font-size="9" text-anchor="middle" x="464.836769936" y="292.869630115">2</text><text alignment-baseline="middle" font-size="9" text-anchor="middle" x="456.993371566" y="309.199849945">2</text><text alignment-baseline="middle" font-size="9" text-anchor="middle" x="372.26454871" y="152.210157891">2</text><text alignment-baseline="middle" font-size="9" text-anchor="middle" x="387.65939579" y="158.421074072">2</text><text alignment-baseline="middle" font-size="9" text-anchor="middle" x="402.252924676" y="166.851183074">2</text><text alignment-baseline="middle" font-size="9" text-anchor="middle" x="415.653364302" y="177.525502674">2</text><text alignment-baseline="middle" font-size="9" text-anchor="middle" x="427.382946948" y="190.386305744">2</text><text alignment-baseline="middle" font-size="9" text-anchor="middle" x="436.907319104" y="205.242442564">2</text><text alignment-baseline="middle" font-size="9" text-anchor="middle" x="443.697377245" y="221.730802229">2</text><text alignment-baseline="middle" font-size="9" text-anchor="middle" x="447.316432739" y="239.309561746">2</text><text alignment-baseline="middle" font-size="9" text-anchor="middle" x="447.509620483" y="257.297625262">2</text><text alignment-baseline="middle" font-size="9" text-anchor="middle" x="444.262883031" y="274.957410711">2</text><text alignment-baseline="middle" font-size="9" text-anchor="middle" x="437.806364669" y="291.596823954">2</text><text alignment-baseline="middle" font-size="9" text-anchor="middle" x="428.560692329" y="306.655711968">2</text><text alignment-baseline="middle" font-size="9" text-anchor="middle" x="417.049299516" y="319.750666341">2</text><text alignment-baseline="middle" font-size="9" text-anchor="middle" x="403.809592886" y="330.672915829">2</text><text alignment-baseline="middle" font-size="9" text-anchor="middle" x="372.149780581" y="179.047559648">2</text><text alignment-baseline="middle" font-size="9" text-anchor="middle" x="387.292396177" y="187.152449256">2</text><text alignment-baseline="middle" font-size="9" text-anchor="middle" x="400.939382794" y="198.366968154">2</text><text alignment-baseline="middle" font-size="9" text-anchor="middle" x="412.096553911" y="212.637218091">2</text><text alignment-baseline="middle" font-size="9" text-anchor="middle" x="419.616949526" y="229.478355516">2</text><text alignment-baseline="middle" font-size="9" text-anchor="middle" x="422.521092581" y="247.865825559">2</text><text alignment-baseline="middle" font-size="9" text-anchor="middle" x="420.380703903" y="266.369887403">2</text><text alignment-baseline="middle" font-size="9" text-anchor="middle" x="413.51424961" y="283.527769319">2</text><text alignment-baseline="middle" font-size="9" text-anchor="middle" x="402.840002812" y="298.23688923">2</text><text alignment-baseline="middle" font-size="9" text-anchor="middle" x="389.503955867" y="309.931958345">2</text><text alignment-baseline="middle" font-size="9" text-anchor="middle" x="374.537310138" y="318.50593309">2</text><text alignment-baseline="middle" font-size="9" text-anchor="middle" x="358.691975473" y="324.105391925">2</text><text alignment-baseline="middle" font-size="9" text-anchor="middle" x="342.441021236" y="326.9360152">2</text><text alignment-baseline="middle" font-size="9" text-anchor="middle" x="324.9" y="327.6">2</text><text alignment-baseline="middle" font-size="9" text-anchor="middle" x="369.39763146" y="205.681967001">2</text><text alignment-baseline="middle" font-size="9" text-anchor="middle" x="382.862996136" y="215.934692648">2</text><text alignment-baseline="middle" font-size="9" text-anchor="middle" x="392.930363641" y="230.42906318">2</text><text alignment-baseline="middle" font-size="9" text-anchor="middle" x="397.081240026" y="247.940211117">2</text><text alignment-baseline="middle" font-size="9" text-anchor="middle" x="393.982928263" y="265.689477173">2</text><text alignment-baseline="middle" font-size="9" text-anchor="middle" x="384.647441472" y="280.756821443">2</text><text alignment-baseline="middle" font-size="9" text-anchor="middle" x="371.535993421" y="291.656800061">2</text><text alignment-baseline="middle" font-size="9" text-anchor="middle" x="356.836378045" y="298.414875257">2</text><text alignment-baseline="middle" font-size="9" text-anchor="middle" x="341.717526182" y="301.659865902">2</text><text alignment-baseline="middle" font-size="9" text-anchor="middle" x="324.9" y="302.4">2</text><text alignment-baseline="middle" font-size="9" text-anchor="middle" x="306.9" y="302.4">2</text><text alignment-baseline="middle" font-size="9" text-anchor="middle" x="288.9" y="302.4">2</text><text alignment-baseline="middle" font-size="9" text-anchor="middle" x="270.621377328" y="302.685467733">2</text><text alignment-baseline="middle" font-size="9" text-anchor="middle" x="251.802992839" y="304.051220041">2</text></g><g id="numbers3"><text alignment-baseline="middle" font-size="9" text-anchor="middle" x="446.965286726" y="324.111809719">3</text><text alignment-baseline="middle" font-size="9" text-anchor="middle" x="435.091482611" y="337.366328956">3</text><text alignment-baseline="middle" font-size="9" text-anchor="middle" x="421.716965641" y="348.81089934">3</text><text alignment-baseline="middle" font-size="9" text-anchor="middle" x="407.167087971" y="358.365421134">3</text><text alignment-baseline="middle" font-size="9" text-anchor="middle" x="391.732100157" y="366.002774751">3</text><text alignment-baseline="middle" font-size="9" text-anchor="middle" x="389.327665364" y="339.352341144">3</text><text alignment-baseline="middle" font-size="9" text-anchor="middle" x="374.005366419" y="345.807262313">3</text><text alignment-baseline="middle" font-size="9" text-anchor="middle" x="358.155854306" y="350.096017805">3</text><text alignment-baseline="middle" font-size="9" text-anchor="middle" x="342.018512426" y="352.278969508">3</text><text alignment-baseline="middle" font-size="9" text-anchor="middle" x="324.9" y="352.8">3</text><text alignment-baseline="middle" font-size="9" text-anchor="middle" x="306.9" y="327.6">3</text><text alignment-baseline="middle" font-size="9" text-anchor="middle" x="288.9" y="327.6">3</text><text alignment-baseline="middle" font-size="9" text-anchor="middle" x="270.607584097" y="327.919089457">3</text><text alignment-baseline="middle" font-size="9" text-anchor="middle" x="251.911752188" y="329.428055894">3</text><text alignment-baseline="middle" font-size="9" text-anchor="middle" x="233.383965051" y="332.528708845">3</text><text alignment-baseline="middle" font-size="9" text-anchor="middle" x="233.124919152" y="306.862033799">3</text><text alignment-baseline="middle" font-size="9" text-anchor="middle" x="214.686522921" y="311.114605463">3</text><text alignment-baseline="middle" font-size="9" text-anchor="middle" x="196.590444819" y="316.802954568">3</text><text alignment-baseline="middle" font-size="9" text-anchor="middle" x="178.943649956" y="323.917246262">3</text><text alignment-baseline="middle" font-size="9" text-anchor="middle" x="161.858174107" y="332.442258272">3</text></g><g id="numbers4"><text alignment-baseline="middle" font-size="9" text-anchor="middle" x="306.9" y="352.8">4</text><text alignment-baseline="middle" font-size="9" text-anchor="middle" x="215.144316642" y="337.218932501">4</text><text alignment-baseline="middle" font-size="9" text-anchor="middle" x="145.451467571" y="342.355542286">4</text></g><g id="numbers5"><text alignment-baseline="middle" font-size="9" text-anchor="middle" x="197.318802692" y="343.493673915">5</text><text alignment-baseline="middle" font-size="9" text-anchor="middle" x="180.041148417" y="351.342711957">5</text><text alignment-baseline="middle" font-size="9" text-anchor="middle" x="163.454005963" y="360.747753171">5</text><text alignment-baseline="middle" font-size="9" text-anchor="middle" x="147.709300839" y="371.678966181">5</text><text alignment-baseline="middle" font-size="9" text-anchor="middle" x="132.967504208" y="384.091137109">5</text><text alignment-baseline="middle" font-size="9" text-anchor="middle" x="119.395633697" y="397.919715868">5</text><text alignment-baseline="middle" font-size="9" text-anchor="middle" x="107.163852842" y="413.077116525">5</text><text alignment-baseline="middle" font-size="9" text-anchor="middle" x="96.4406575958" y="429.449715079">5</text><text alignment-baseline="middle" font-size="9" text-anchor="middle" x="87.3868068313" y="446.896029364">5</text><text alignment-baseline="middle" font-size="9" text-anchor="middle" x="80.1483566909" y="465.246540586">5</text><text alignment-baseline="middle" font-size="9" text-anchor="middle" x="74.8493628854" y="484.305503246">5</text><text alignment-baseline="middle" font-size="9" text-anchor="middle" x="71.5849735954" y="503.854885846">5</text><text alignment-baseline="middle" font-size="9" text-anchor="middle" x="70.4156986538" y="523.660310066">5</text><text alignment-baseline="middle" font-size="9" text-anchor="middle" x="71.3635719416" y="543.478558596">5</text><text alignment-baseline="middle" font-size="9" text-anchor="middle" x="74.4107169943" y="563.065965863">5</text><text alignment-baseline="middle" font-size="9" text-anchor="middle" x="79.5005122568" y="582.186854169">5</text><text alignment-baseline="middle" font-size="9" text-anchor="middle" x="86.5411961703" y="600.621169807">5</text><text alignment-baseline="middle" font-size="9" text-anchor="middle" x="95.4114308223" y="618.170611685">5</text><text alignment-baseline="middle" font-size="9" text-anchor="middle" x="105.967122652" y="634.662792708">5</text><text alignment-baseline="middle" font-size="9" text-anchor="middle" x="118.048715152" y="649.953270491">5</text><text alignment-baseline="middle" font-size="9" text-anchor="middle" x="131.48821903" y="663.925563708">5</text><text alignment-baseline="middle" font-size="9" text-anchor="middle" x="146.115396107" y="676.489483578">5</text><text alignment-baseline="middle" font-size="9" text-anchor="middle" x="161.762715019" y="687.578232524">5</text><text alignment-baseline="middle" font-size="9" text-anchor="middle" x="178.268901752" y="697.144755675">5</text><text alignment-baseline="middle" font-size="9" text-anchor="middle" x="195.481081119" y="705.15779517">5</text><text alignment-baseline="middle" font-size="9" text-anchor="middle" x="213.255629181" y="711.598019875">5</text><text alignment-baseline="middle" font-size="9" text-anchor="middle" x="231.457929019" y="716.45451015">5</text><text alignment-baseline="middle" font-size="9" text-anchor="middle" x="249.96125187" y="719.721788598">5</text><text alignment-baseline="middle" font-size="9" text-anchor="middle" x="268.64498552" y="721.39751495">5</text><text alignment-baseline="middle" font-size="9" text-anchor="middle" x="287.1" y="721.8">5</text><text alignment-baseline="middle" font-size="9" text-anchor="middle" x="129.846238318" y="353.625355062">5</text><text alignment-baseline="middle" font-size="9" text-anchor="middle" x="115.169703641" y="366.208465289">5</text><text alignment-baseline="middle" font-size="9" text-anchor="middle" x="101.552178782" y="380.047976151">5</text><text alignment-baseline="middle" font-size="9" text-anchor="middle" x="89.1249650787" y="395.071336286">5</text><text alignment-baseline="middle" font-size="9" text-anchor="middle" x="78.0175506529" y="411.18873728">5</text><text alignment-baseline="middle" font-size="9" text-anchor="middle" x="68.3542021578" y="428.292106431">5</text><text alignment-baseline="middle" font-size="9" text-anchor="middle" x="60.2501013339" y="446.254891712">5</text><text alignment-baseline="middle" font-size="9" text-anchor="middle" x="53.8072557253" y="464.932796013">5</text><text alignment-baseline="middle" font-size="9" text-anchor="middle" x="49.1104760005" y="484.165548241">5</text><text alignment-baseline="middle" font-size="9" text-anchor="middle" x="46.2237489149" y="503.779704053">5</text><text alignment-baseline="middle" font-size="9" text-anchor="middle" x="45.1873331405" y="523.592359961">5</text><text alignment-baseline="middle" font-size="9" text-anchor="middle" x="46.0158587874" y="543.415557369">5</text><text alignment-baseline="middle" font-size="9" text-anchor="middle" x="48.6976228264" y="563.061066684">5</text><text alignment-baseline="middle" font-size="9" text-anchor="middle" x="53.1951532934" y="582.345191996">5</text><text alignment-baseline="middle" font-size="9" text-anchor="middle" x="59.4469838458" y="601.093234195">5</text><text alignment-baseline="middle" font-size="9" text-anchor="middle" x="67.3704585515" y="619.143294972">5</text><text alignment-baseline="middle" font-size="9" text-anchor="middle" x="76.8652940157" y="636.349187309">5</text><text alignment-baseline="middle" font-size="9" text-anchor="middle" x="87.8175745528" y="652.582323781">5</text><text alignment-baseline="middle" font-size="9" text-anchor="middle" x="100.103849487" y="667.732563716">5</text><text alignment-baseline="middle" font-size="9" text-anchor="middle" x="113.595034486" y="681.708097348">5</text><text alignment-baseline="middle" font-size="9" text-anchor="middle" x="128.15987967" y="694.434517693">5</text><text alignment-baseline="middle" font-size="9" text-anchor="middle" x="143.667842098" y="705.853274135">5</text><text alignment-baseline="middle" font-size="9" text-anchor="middle" x="159.991276069" y="715.919716342">5</text><text alignment-baseline="middle" font-size="9" text-anchor="middle" x="177.006921607" y="724.600928741">5</text><text alignment-baseline="middle" font-size="9" text-anchor="middle" x="194.596723738" y="731.873531566">5</text><text alignment-baseline="middle" font-size="9" text-anchor="middle" x="212.648051101" y="737.721592229">5</text><text alignment-baseline="middle" font-size="9" text-anchor="middle" x="231.053403149" y="742.134756753">5</text><text alignment-baseline="middle" font-size="9" text-anchor="middle" x="249.709703908" y="745.10667974">5</text><text alignment-baseline="middle" font-size="9" text-anchor="middle" x="268.517280756" y="746.6338054">5</text><text alignment-baseline="middle" font-size="9" text-anchor="middle" x="287.1" y="747.0">5</text></g><g id="numbers6"><text alignment-baseline="middle" font-size="9" text-anchor="middle" x="305.1" y="747.0">6</text><text alignment-baseline="middle" font-size="9" text-anchor="middle" x="323.1" y="747.0">6</text><text alignment-baseline="middle" font-size="9" text-anchor="middle" x="341.378622672" y="746.714532267">6</text><text alignment-baseline="middle" font-size="9" text-anchor="middle" x="360.197007161" y="745.348779959">6</text><text alignment-baseline="middle" font-size="9" text-anchor="middle" x="378.875080848" y="742.537966201">6</text><text alignment-baseline="middle" font-size="9" text-anchor="middle" x="397.313477079" y="738.285394537">6</text><text alignment-baseline="middle" font-size="9" text-anchor="middle" x="415.409555181" y="732.597045432">6</text><text alignment-baseline="middle" font-size="9" text-anchor="middle" x="433.056350044" y="725.482753738">6</text><text alignment-baseline="middle" font-size="9" text-anchor="middle" x="450.141825893" y="716.957741728">6</text><text alignment-baseline="middle" font-size="9" text-anchor="middle" x="466.548532429" y="707.044457714">6</text><text alignment-baseline="middle" font-size="9" text-anchor="middle" x="482.153761682" y="695.774644938">6</text><text alignment-baseline="middle" font-size="9" text-anchor="middle" x="496.830296359" y="683.191534711">6</text><text alignment-baseline="middle" font-size="9" text-anchor="middle" x="510.447821218" y="669.352023849">6</text><text alignment-baseline="middle" font-size="9" text-anchor="middle" x="522.875034921" y="654.328663714">6</text><text alignment-baseline="middle" font-size="9" text-anchor="middle" x="533.982449347" y="638.21126272">6</text><text alignment-baseline="middle" font-size="9" text-anchor="middle" x="543.645797842" y="621.107893569">6</text><text alignment-baseline="middle" font-size="9" text-anchor="middle" x="551.749898666" y="603.145108288">6</text><text alignment-baseline="middle" font-size="9" text-anchor="middle" x="558.192744275" y="584.467203987">6</text><text alignment-baseline="middle" font-size="9" text-anchor="middle" x="562.889524" y="565.234451759">6</text><text alignment-baseline="middle" font-size="9" text-anchor="middle" x="565.776251085" y="545.620295947">6</text><text alignment-baseline="middle" font-size="9" text-anchor="middle" x="566.81266686" y="525.807640039">6</text><text alignment-baseline="middle" font-size="9" text-anchor="middle" x="565.984141213" y="505.984442631">6</text><text alignment-baseline="middle" font-size="9" text-anchor="middle" x="563.302377174" y="486.338933316">6</text><text alignment-baseline="middle" font-size="9" text-anchor="middle" x="558.804846707" y="467.054808004">6</text><text alignment-baseline="middle" font-size="9" text-anchor="middle" x="552.553016154" y="448.306765805">6</text><text alignment-baseline="middle" font-size="9" text-anchor="middle" x="544.629541449" y="430.256705028">6</text><text alignment-baseline="middle" font-size="9" text-anchor="middle" x="535.134705984" y="413.050812691">6</text><text alignment-baseline="middle" font-size="9" text-anchor="middle" x="524.182425447" y="396.817676219">6</text><text alignment-baseline="middle" font-size="9" text-anchor="middle" x="511.896150513" y="381.667436284">6</text><text alignment-baseline="middle" font-size="9" text-anchor="middle" x="498.404965514" y="367.691902652">6</text><text alignment-baseline="middle" font-size="9" text-anchor="middle" x="483.84012033" y="354.965482307">6</text><text alignment-baseline="middle" font-size="9" text-anchor="middle" x="468.332157902" y="343.546725865">6</text></g><g id="numbers7" /><rect fill="none" height="720.0" stroke="#000000" stroke-width="1" width="540.0" x="36.0" y="36.0" /></svg>