<?xml version="1.0" encoding="utf-8" ?>
<svg baseProfile="full" height="792.0" version="1.1" width="612.0" xmlns="http://www.w3.org/2000/svg" xmlns:ev="http://www.w3.org/2001/xml-events" xmlns:xlink="http://www.w3.org/1999/xlink"><defs /><g id="footprints"><polygon fill="none" points="279.0,36.0 279.0,54.0 286.62504497,54.0 286.62504497,36.0 279.0,36.0" stroke="#000000" stroke-width="1" /><polygon fill="none" points="289.8,36.0 289.8,54.0 297.42504497,54.0 297.42504497,36.0 289.8,36.0" stroke="#000000" stroke-width="1" /><polygon fill="none" points="300.6,36.0 300.6,54.0 308.22504497,54.0 308.22504497,36.0 300.6,36.0" stroke="#000000" stroke-width="1" /><polygon fill="none" points="311.4,36.0 311.4,54.0 319.02504497,54.0 319.02504497,36.0 311.4,36.0" stroke="#000000" stroke-width="1" /><polygon fill="none" points="322.2,36.0 322.2,54.0 329.82504497,54.0 329.82504497,36.0 322.2,36.0" stroke="#000000" stroke-width="1" /><polygon fill="none" points="333.0,36.0 333.0,54.0 340.030096124,54.1199305055 340.638765486,36.1302245155 333.0,36.0" stroke="#000000" stroke-width="1" /><polygon fill="none" points="279.0,64.8 279.0,82.8 286.62504497,82.8 286.62504497,64.8 279.0,64.8" stroke="#000000" stroke-width="1" /><polygon fill="none" points="289.8,64.8 289.8,82.8 297.42504497,82.8 297.42504497,64.8 289.8,64.8" stroke="#000000" stroke-width="1" /><polygon fill="none" points="300.6,64.8 300.6,82.8 308.22504497,82.8 308.22504497,64.8 300.6,64.8" stroke="#000000" stroke-width="1" /><polygon fill="none" points="311.4,64.8 311.4,82.8 319.02504497,82.8 319.02504497,64.8 311.4,64.8" stroke="#000000" stroke-width="1" /><polygon fill="none" points="322.2,64.8 322.2,82.8 329.82504497,82.8 329.82504497,64.8 322.2,64.8" stroke="#000000" stroke-width="1" /><polygon fill="none" points="333.0,64.8 333.0,82.8 339.942747062,82.9359799156 340.640515891,64.9495094819 333.0,64.8" stroke="#000000" stroke-width="1" /><polygon fill="none" points="344.252036017,65.1243981658 343.224437421,83.0950420365 350.147602249,83.6311183218 351.871059298,65.7138167449 344.252036017,65.1243981658" stroke="#000000" stroke-width="1" /><polygon fill="none" points="355.466364735,66.0964473886 353.414519357,83.9791186249 360.294852704,84.9133853408 363.038376415,67.1236951341 355.466364735,66.0964473886" stroke="#000000" stroke-width="1" /><polygon fill="none" points="279.0,93.6 279.0,111.6 286.62504497,111.6 286.62504497,93.6 279.0,93.6" stroke="#000000" stroke-width="1" /><polygon fill="none" points="289.8,93.6 289.8,111.6 297.42504497,111.6 297.42504497,93.6 289.8,93.6" stroke="#000000" stroke-width="1" /><polygon fill="none" points="300.6,93.6 300.6,111.6 308.22504497,111.6 308.22504497,93.6 300.6,93.6" stroke="#000000" stroke-width="1" /><polygon fill="none" points="311.4,93.6 311.4,111.6 319.02504497,111.6 319.02504497,93.6 311.4,93.6" stroke="#000000" stroke-width="1" /><polygon fill="none" points="322.2,93.6 322.2,111.6 329.82504497,111.6 329.82504497,93.6 322.2,93.6" stroke="#000000" stroke-width="1" /><polygon fill="none" points="333.0,93.6 333.0,111.6 339.825342884,111.756927305 340.642759393,93.7754971549 333.0,93.6" stroke="#000000" stroke-width="1" /><polygon fill="none" points="344.484909843,93.9965613225 343.256546403,111.954599168 350.054443732,112.582470949 352.097050844,94.6987421382 344.484909843,93.9965613225" stroke="#000000" stroke-width="1" /><polygon fill="none" points="355.914556786,95.1842181388 353.463557102,113.016565167 360.201209229,114.112141239 363.459483366,96.4094959669 355.914556786,95.1842181388" stroke="#000000" stroke-width="1" /><polygon fill="none" points="367.234008581,97.1569061195 363.571800346,114.780419698 370.216776041,116.338058926 374.675525625,98.8990350957 367.234008581,97.1569061195" stroke="#000000" stroke-width="1" /><polygon fill="none" points="378.388989544,99.9045747034 373.532647663,117.237085876 380.053078467,119.248795387 385.69151475,102.154701778 378.388989544,99.9045747034" stroke="#000000" stroke-width="1" /><polygon fill="none" points="389.326197159,103.413270605 383.29836414,120.373967203 389.663130382,122.829470982 396.45496437,106.160008151 389.326197159,103.413270605" stroke="#000000" stroke-width="1" /><polygon fill="none" points="399.993605133,107.665251847 392.822385515,124.175055275 399.00129153,127.061880425 406.914856559,110.894769102 399.993605133,107.665251847" stroke="#000000" stroke-width="1" /><polygon fill="none" points="410.340749172,112.639129605 402.059578493,128.621063536 408.023514949,131.9246421 417.021914325,116.33526082 410.340749172,112.639129605" stroke="#000000" stroke-width="1" /><polygon fill="none" points="279.0,122.4 279.0,140.4 286.62504497,140.4 286.62504497,122.4 279.0,122.4" stroke="#000000" stroke-width="1" /><polygon fill="none" points="289.8,122.4 289.8,140.4 297.42504497,140.4 297.42504497,122.4 289.8,122.4" stroke="#000000" stroke-width="1" /><polygon fill="none" points="300.6,122.4 300.6,140.4 308.22504497,140.4 308.22504497,122.4 300.6,122.4" stroke="#000000" stroke-width="1" /><polygon fill="none" points="311.4,122.4 311.4,140.4 319.02504497,140.4 319.02504497,122.4 311.4,122.4" stroke="#000000" stroke-width="1" /><polygon fill="none" points="322.2,122.4 322.2,140.4 329.82504497,140.4 329.82504497,122.4 322.2,122.4" stroke="#000000" stroke-width="1" /><polygon fill="none" points="333.0,122.4 333.0,140.4 339.659154935,140.585358317 340.645718574,122.61241498 333.0,122.4" stroke="#000000" stroke-width="1" /><polygon fill="none" points="344.519306957,122.88263897 343.032878738,140.821159844 349.652528138,141.563825703 352.119916059,123.733738859 344.519306957,122.88263897" stroke="#000000" stroke-width="1" /><polygon fill="none" points="355.956894058,124.326876205 352.994191433,142.081379666 359.527198854,143.375613646 363.458556295,125.810180868 355.956894058,124.326876205" stroke="#000000" stroke-width="1" /><polygon fill="none" points="367.231789052,126.721722062 362.813050283,144.170926849 369.213095695,146.006766564 374.581567499,128.825977569 367.231789052,126.721722062" stroke="#000000" stroke-width="1" /><polygon fill="none" points="378.264497541,130.049023108 372.419907095,147.073733458 378.64190838,149.437132423 385.410822441,132.75834942 378.264497541,130.049023108" stroke="#000000" stroke-width="1" /><polygon fill="none" points="388.977699492,134.283699351 381.747181848,150.76761923 387.747686678,153.640637554 395.870804449,137.577793545 388.977699492,134.283699351" stroke="#000000" stroke-width="1" /><polygon fill="none" points="399.296897532,139.394063379 390.729844458,155.224590901 396.467384636,158.585630284 405.889216986,143.248450779 399.296897532,139.394063379" stroke="#000000" stroke-width="1" /><polygon fill="none" points="409.151005175,145.342209518 399.305938329,160.411206127 404.741340782,164.235280215 415.397527043,149.728533702 409.151005175,145.342209518" stroke="#000000" stroke-width="1" /><polygon fill="none" points="418.472866303,152.084459128 407.417037475,166.288988298 412.513688334,170.548018694 424.331435948,156.970800962 418.472866303,152.084459128" stroke="#000000" stroke-width="1" /><polygon fill="none" points="427.19970074,159.571847107 415.008632451,172.814877499 419.732693036,177.478005525 432.631274804,164.923062739 427.19970074,159.571847107" stroke="#000000" stroke-width="1" /><polygon fill="none" points="435.273474276,167.750634473 422.030443884,179.941702762 426.351019626,184.975607461 440.242325156,173.52870261 435.273474276,167.750634473" stroke="#000000" stroke-width="1" /><polygon fill="none" points="442.641194873,176.562832634 428.436665704,187.618661462 432.325931089,192.987875261 447.115068678,182.727202311 442.641194873,176.562832634" stroke="#000000" stroke-width="1" /><polygon fill="none" points="449.255139778,185.946726398 434.186143169,195.791793244 437.619427425,201.459008022 453.205372267,192.454657774 449.255139778,185.946726398" stroke="#000000" stroke-width="1" /><polygon fill="none" points="455.073020672,195.837384863 439.24249315,204.404437938 442.198332661,210.330795913 458.47461695,202.644277211 455.073020672,195.837384863" stroke="#000000" stroke-width="1" /><polygon fill="none" points="460.058095803,206.167151856 443.574175923,213.397669499 446.03434011,219.543035171 462.889780319,213.22685473 460.058095803,206.167151856" stroke="#000000" stroke-width="1" /><polygon fill="none" points="464.179239098,216.866110335 447.154528747,222.710700781 449.104026455,229.033912061 466.423482837,224.131215799 464.179239098,216.866110335" stroke="#000000" stroke-width="1" /><polygon fill="none" points="279.0,151.2 279.0,169.2 286.62504497,169.2 286.62504497,151.2 279.0,151.2" stroke="#000000" stroke-width="1" /><polygon fill="none" points="289.8,151.2 289.8,169.2 297.42504497,169.2 297.42504497,151.2 289.8,151.2" stroke="#000000" stroke-width="1" /><polygon fill="none" points="300.6,151.2 300.6,169.2 308.22504497,169.2 308.22504497,151.2 300.6,151.2" stroke="#000000" stroke-width="1" /><polygon fill="none" points="311.4,151.2 311.4,169.2 319.02504497,169.2 319.02504497,151.2 311.4,151.2" stroke="#000000" stroke-width="1" /><polygon fill="none" points="322.2,151.2 322.2,169.2 329.82504497,169.2 329.82504497,151.2 322.2,151.2" stroke="#000000" stroke-width="1" /><polygon fill="none" points="333.0,151.2 333.0,169.2 339.405825053,169.425956158 340.64973296,151.468988342 333.0,151.2" stroke="#000000" stroke-width="1" /><polygon fill="none" points="344.570260463,151.816325129 342.688748124,169.717719245 349.03293954,170.624693437 352.14704744,152.896119552 344.570260463,151.816325129" stroke="#000000" stroke-width="1" /><polygon fill="none" points="356.007640108,153.657563599 352.265229673,171.264220412 358.474541294,172.840586883 363.424730369,155.534644894 356.007640108,153.657563599" stroke="#000000" stroke-width="1" /><polygon fill="none" points="367.181327862,156.70068996 361.619021963,173.819707253 367.62239864,176.045421095 374.354433583,159.351718524 367.181327862,156.70068996" stroke="#000000" stroke-width="1" /><polygon fill="none" points="377.964565178,160.907933087 370.643305603,177.351751325 376.372961273,180.198849619 384.8130845,164.300286165 377.964565178,160.907933087" stroke="#000000" stroke-width="1" /><polygon fill="none" points="388.23646332,166.227639099 379.23646332,181.816096367 384.62881866,185.249365137 394.684558415,170.320128787 388.23646332,166.227639099" stroke="#000000" stroke-width="1" /><polygon fill="none" points="397.883592259,172.595396679 387.303457718,187.157702578 392.299908577,191.135464121 403.861092071,177.339122713 397.883592259,172.595396679" stroke="#000000" stroke-width="1" /><polygon fill="none" points="406.801299128,179.935353578 394.756948214,193.311960436 399.304451272,197.786930987 412.244411759,185.274640126 406.801299128,179.935353578" stroke="#000000" stroke-width="1" /><polygon fill="none" points="414.894737494,188.161647153 401.518130636,200.205998068 405.569608083,205.126166259 419.746572648,194.03501322 414.894737494,188.161647153" stroke="#000000" stroke-width="1" /><polygon fill="none" points="422.079611797,197.179873651 407.517305898,207.760008192 411.031884696,213.06949001 426.290527549,203.520991788 422.079611797,197.179873651" stroke="#000000" stroke-width="1" /><polygon fill="none" points="428.282661642,206.888529652 412.694204374,215.888529652 415.637316605,221.5283645 431.810460862,213.62713644 428.282661642,206.888529652" stroke="#000000" stroke-width="1" /><polygon fill="none" points="433.441926464,217.180373131 416.998108226,224.501632706 419.341486267,230.410496493 436.251935574,224.243106102 433.441926464,217.180373131" stroke="#000000" stroke-width="1" /><polygon fill="none" points="437.506841209,227.9436689 420.387823916,233.505974799 422.10942746,239.620798342 439.571907396,235.25481684 437.506841209,227.9436689" stroke="#000000" stroke-width="1" /><polygon fill="none" points="440.438217875,239.063301817 422.831561061,242.805712251 423.915472443,249.06220549 441.738660424,246.545467484 440.438217875,239.063301817" stroke="#000000" stroke-width="1" /><polygon fill="none" points="442.208166162,250.421759211 424.306772046,252.30327155 424.743092356,258.636364984 442.731713805,257.996444382 442.208166162,250.421759211" stroke="#000000" stroke-width="1" /><polygon fill="none" points="442.8,261.9 424.8,261.9 424.584771755,268.244223752 442.54173957,269.488131659 442.8,261.9" stroke="#000000" stroke-width="1" /><polygon fill="none" points="442.208166162,273.378240789 424.306772046,271.49672845 423.441945426,277.786555712 441.170519311,280.900663612 442.208166162,273.378240789" stroke="#000000" stroke-width="1" /><polygon fill="none" points="440.438217875,284.736698183 422.831561061,280.994287749 421.325010756,287.164472952 438.630952745,292.114662027 440.438217875,284.736698183" stroke="#000000" stroke-width="1" /><polygon fill="none" points="437.506841209,295.8563311 420.387823916,290.294025201 418.253413085,296.279967741 434.947115656,303.012002684 437.506841209,295.8563311" stroke="#000000" stroke-width="1" /><polygon fill="none" points="433.441926464,306.619626869 416.998108226,299.298367294 414.255785855,305.036529126 430.154349309,313.476652353 433.441926464,306.619626869" stroke="#000000" stroke-width="1" /><polygon fill="none" points="428.282661642,316.911470348 412.694204374,307.911470348 409.370113036,313.339870316 424.299349385,323.395610071 428.282661642,316.911470348" stroke="#000000" stroke-width="1" /><polygon fill="none" points="422.079611797,326.620126349 407.517305898,316.039991808 403.643869449,321.098791426 417.440210856,332.65997492 422.079611797,326.620126349" stroke="#000000" stroke-width="1" /><polygon fill="none" points="414.894737494,335.638352847 401.518130636,323.594001932 397.134086383,328.226187015 409.646377244,341.166147502 414.894737494,335.638352847" stroke="#000000" stroke-width="1" /><polygon fill="none" points="406.801299128,343.864646422 394.756948214,330.488039564 389.90728631,334.640190197 400.998439349,348.817154762 406.801299128,343.864646422" stroke="#000000" stroke-width="1" /><polygon fill="none" points="397.883592259,351.204603321 387.303457718,336.642297422 382.039232486,340.265426364 391.587730708,355.524069217 397.883592259,351.204603321" stroke="#000000" stroke-width="1" /><polygon fill="none" points="388.23646332,357.572360901 379.23646332,341.983903633 373.614447102,345.034331379 381.515675162,361.207475635 388.23646332,357.572360901" stroke="#000000" stroke-width="1" /><polygon fill="none" points="377.964565178,362.892066913 370.643305603,346.448248675 364.725465495,348.888473565 370.892855886,365.798922872 377.964565178,362.892066913" stroke="#000000" stroke-width="1" /><polygon fill="none" points="367.181327862,367.09931004 361.619021963,349.980292747 355.471812708,351.779807867 359.83779421,369.242287804 367.181327862,367.09931004" stroke="#000000" stroke-width="1" /><polygon fill="none" points="356.007640108,370.142436401 352.265229673,352.535779588 345.95871098,353.671786039 348.475448986,371.49497402 356.007640108,370.142436401" stroke="#000000" stroke-width="1" /><polygon fill="none" points="344.570260463,371.983674871 342.688748124,354.082280755 336.295550161,354.540249687 336.935470763,372.528871136 344.570260463,371.983674871" stroke="#000000" stroke-width="1" /><polygon fill="none" points="333.0,151.2 333.0,169.2 339.405825053,169.425956158 340.64973296,151.468988342 333.0,151.2" stroke="#000000" stroke-width="1" /><polygon fill="none" points="344.570260463,151.816325129 342.688748124,169.717719245 349.03293954,170.624693437 352.14704744,152.896119552 344.570260463,151.816325129" stroke="#000000" stroke-width="1" /><polygon fill="none" points="356.007640108,153.657563599 352.265229673,171.264220412 358.474541294,172.840586883 363.424730369,155.534644894 356.007640108,153.657563599" stroke="#000000" stroke-width="1" /><polygon fill="none" points="367.181327862,156.70068996 361.619021963,173.819707253 367.62239864,176.045421095 374.354433583,159.351718524 367.181327862,156.70068996" stroke="#000000" stroke-width="1" /><polygon fill="none" points="377.964565178,160.907933087 370.643305603,177.351751325 376.372961273,180.198849619 384.8130845,164.300286165 377.964565178,160.907933087" stroke="#000000" stroke-width="1" /><polygon fill="none" points="388.23646332,166.227639099 379.23646332,181.816096367 384.62881866,185.249365137 394.684558415,170.320128787 388.23646332,166.227639099" stroke="#000000" stroke-width="1" /><polygon fill="none" points="397.883592259,172.595396679 387.303457718,187.157702578 392.299908577,191.135464121 403.861092071,177.339122713 397.883592259,172.595396679" stroke="#000000" stroke-width="1" /><polygon fill="none" points="406.801299128,179.935353578 394.756948214,193.311960436 399.304451272,197.786930987 412.244411759,185.274640126 406.801299128,179.935353578" stroke="#000000" stroke-width="1" /><polygon fill="none" points="414.894737494,188.161647153 401.518130636,200.205998068 405.569608083,205.126166259 419.746572648,194.03501322 414.894737494,188.161647153" stroke="#000000" stroke-width="1" /><polygon fill="none" points="422.079611797,197.179873651 407.517305898,207.760008192 411.031884696,213.06949001 426.290527549,203.520991788 422.079611797,197.179873651" stroke="#000000" stroke-width="1" /><polygon fill="none" points="428.282661642,206.888529652 412.694204374,215.888529652 415.637316605,221.5283645 431.810460862,213.62713644 428.282661642,206.888529652" stroke="#000000" stroke-width="1" /><polygon fill="none" points="433.441926464,217.180373131 416.998108226,224.501632706 419.341486267,230.410496493 436.251935574,224.243106102 433.441926464,217.180373131" stroke="#000000" stroke-width="1" /><polygon fill="none" points="437.506841209,227.9436689 420.387823916,233.505974799 422.10942746,239.620798342 439.571907396,235.25481684 437.506841209,227.9436689" stroke="#000000" stroke-width="1" /><polygon fill="none" points="440.438217875,239.063301817 422.831561061,242.805712251 423.915472443,249.06220549 441.738660424,246.545467484 440.438217875,239.063301817" stroke="#000000" stroke-width="1" /><polygon fill="none" points="442.208166162,250.421759211 424.306772046,252.30327155 424.743092356,258.636364984 442.731713805,257.996444382 442.208166162,250.421759211" stroke="#000000" stroke-width="1" /><polygon fill="none" points="442.8,261.9 424.8,261.9 424.584771755,268.244223752 442.54173957,269.488131659 442.8,261.9" stroke="#000000" stroke-width="1" /><polygon fill="none" points="442.208166162,273.378240789 424.306772046,271.49672845 423.441945426,277.786555712 441.170519311,280.900663612 442.208166162,273.378240789" stroke="#000000" stroke-width="1" /><polygon fill="none" points="440.438217875,284.736698183 422.831561061,280.994287749 421.325010756,287.164472952 438.630952745,292.114662027 440.438217875,284.736698183" stroke="#000000" stroke-width="1" /><polygon fill="none" points="279.0,180.0 279.0,198.0 286.62504497,198.0 286.62504497,180.0 279.0,180.0" stroke="#000000" stroke-width="1" /><polygon fill="none" points="289.8,180.0 289.8,198.0 297.42504497,198.0 297.42504497,180.0 289.8,180.0" stroke="#000000" stroke-width="1" /><polygon fill="none" points="300.6,180.0 300.6,198.0 308.22504497,198.0 308.22504497,180.0 300.6,180.0" stroke="#000000" stroke-width="1" /><polygon fill="none" points="311.4,180.0 311.4,198.0 319.02504497,198.0 319.02504497,180.0 311.4,180.0" stroke="#000000" stroke-width="1" /><polygon fill="none" points="322.2,180.0 322.2,198.0 329.82504497,198.0 329.82504497,180.0 322.2,180.0" stroke="#000000" stroke-width="1" /><polygon fill="none" points="333.0,180.0 333.0,198.0 338.972552678,198.287761119 340.655172404,180.366578377 333.0,180.0" stroke="#000000" stroke-width="1" /><polygon fill="none" points="344.652948616,180.851962135 342.091281527,198.668748089 347.95485206,199.826209872 352.170795367,182.326900685 344.652948616,180.851962135" stroke="#000000" stroke-width="1" /><polygon fill="none" points="356.053461091,183.387121751 350.982275068,200.657995276 356.60890479,202.655964181 363.27234723,185.934764019 356.053461091,183.387121751" stroke="#000000" stroke-width="1" /><polygon fill="none" points="366.95708016,187.544366199 359.479609926,203.917742116 364.749318506,206.706821299 373.724611607,191.104125579 366.95708016,187.544366199" stroke="#000000" stroke-width="1" /><polygon fill="none" points="377.134585578,193.225244341 367.403050864,208.367807932 372.207254736,211.881043232 383.311687413,197.714477843 377.134585578,193.225244341" stroke="#000000" stroke-width="1" /><polygon fill="none" points="386.377949365,200.298562593 374.590456154,213.902054932 378.83436876,218.058180135 391.841886785,205.616135495 386.377949365,200.298562593" stroke="#000000" stroke-width="1" /><polygon fill="none" points="394.504645703,208.605921124 380.901153365,220.393414335 384.505107551,225.100268635 399.150915369,214.636028894 394.504645703,208.605921124" stroke="#000000" stroke-width="1" /><polygon fill="none" points="401.360253105,217.96753294 386.217689514,227.699067654 389.117495747,232.856797091 405.103446945,224.583383993 401.360253105,217.96753294" stroke="#000000" stroke-width="1" /><polygon fill="none" points="406.819543119,228.187744251 390.446167202,235.665214485 392.59275158,241.168972827 409.593418292,235.254809204 406.819543119,228.187744251" stroke="#000000" stroke-width="1" /><polygon fill="none" points="410.786435285,239.059841809 393.51556176,244.131027832 394.874196969,249.873031045 412.543494646,246.438512214 410.786435285,239.059841809" stroke="#000000" stroke-width="1" /><polygon fill="none" points="413.193288996,250.369945718 395.376503042,252.931612807 395.925951619,258.80254481 413.904184315,257.91758767 413.193288996,250.369945718" stroke="#000000" stroke-width="1" /><polygon fill="none" points="414.0,261.9 396.0,261.9 395.731842139,267.789892234 413.65302488,269.47251196 414.0,261.9" stroke="#000000" stroke-width="1" /><polygon fill="none" points="413.193288996,273.430054282 395.376503042,270.868387193 394.294835712,276.667185928 411.794144899,280.883129235 413.193288996,273.430054282" stroke="#000000" stroke-width="1" /><polygon fill="none" points="410.786435285,284.740158191 393.51556176,279.668972168 391.637147653,285.267058253 408.358347815,291.930500693 410.786435285,284.740158191" stroke="#000000" stroke-width="1" /><polygon fill="none" points="406.819543119,295.612255749 390.446167202,288.134785515 387.800994977,293.423718781 403.403690698,302.399011882 406.819543119,295.612255749" stroke="#000000" stroke-width="1" /><polygon fill="none" points="401.360253105,305.83246706 386.217689514,296.100932346 382.849794025,300.974656874 397.016359415,312.079089551 401.360253105,305.83246706" stroke="#000000" stroke-width="1" /><polygon fill="none" points="394.504645703,315.194078876 380.901153365,303.406585665 376.869449565,307.763254191 389.311494205,320.770772216 394.504645703,315.194078876" stroke="#000000" stroke-width="1" /><polygon fill="none" points="386.377949365,323.501437407 374.590456154,309.897945068 369.969278213,313.642406258 380.433517955,328.288214075 386.377949365,323.501437407" stroke="#000000" stroke-width="1" /><polygon fill="none" points="377.134585578,330.574755659 367.403050864,315.432192068 362.282074418,318.479045078 370.555487516,334.464996276 377.134585578,330.574755659" stroke="#000000" stroke-width="1" /><polygon fill="none" points="366.95708016,336.255633801 359.479609926,319.882257884 353.962882347,322.159235092 359.877045969,339.159901803 366.95708016,336.255633801" stroke="#000000" stroke-width="1" /><polygon fill="none" points="356.053461091,340.412878249 350.982275068,323.142004724 345.186189084,324.593324188 348.620707915,342.262621865 356.053461091,340.412878249" stroke="#000000" stroke-width="1" /><polygon fill="none" points="344.652948616,342.948037865 342.091281527,325.131251911 336.141489109,325.720517028 337.026446249,343.698749724 344.652948616,342.948037865" stroke="#000000" stroke-width="1" /><polygon fill="none" points="333.0,180.0 333.0,198.0 338.972552678,198.287761119 340.655172404,180.366578377 333.0,180.0" stroke="#000000" stroke-width="1" /><polygon fill="none" points="344.652948616,180.851962135 342.091281527,198.668748089 347.95485206,199.826209872 352.170795367,182.326900685 344.652948616,180.851962135" stroke="#000000" stroke-width="1" /><polygon fill="none" points="356.053461091,183.387121751 350.982275068,200.657995276 356.60890479,202.655964181 363.27234723,185.934764019 356.053461091,183.387121751" stroke="#000000" stroke-width="1" /><polygon fill="none" points="366.95708016,187.544366199 359.479609926,203.917742116 364.749318506,206.706821299 373.724611607,191.104125579 366.95708016,187.544366199" stroke="#000000" stroke-width="1" /><polygon fill="none" points="377.134585578,193.225244341 367.403050864,208.367807932 372.207254736,211.881043232 383.311687413,197.714477843 377.134585578,193.225244341" stroke="#000000" stroke-width="1" /><polygon fill="none" points="386.377949365,200.298562593 374.590456154,213.902054932 378.83436876,218.058180135 391.841886785,205.616135495 386.377949365,200.298562593" stroke="#000000" stroke-width="1" /><polygon fill="none" points="394.504645703,208.605921124 380.901153365,220.393414335 384.505107551,225.100268635 399.150915369,214.636028894 394.504645703,208.605921124" stroke="#000000" stroke-width="1" /><polygon fill="none" points="401.360253105,217.96753294 386.217689514,227.699067654 389.117495747,232.856797091 405.103446945,224.583383993 401.360253105,217.96753294" stroke="#000000" stroke-width="1" /><polygon fill="none" points="406.819543119,228.187744251 390.446167202,235.665214485 392.59275158,241.168972827 409.593418292,235.254809204 406.819543119,228.187744251" stroke="#000000" stroke-width="1" /><polygon fill="none" points="410.786435285,239.059841809 393.51556176,244.131027832 394.874196969,249.873031045 412.543494646,246.438512214 410.786435285,239.059841809" stroke="#000000" stroke-width="1" /><polygon fill="none" points="413.193288996,250.369945718 395.376503042,252.931612807 395.925951619,258.80254481 413.904184315,257.91758767 413.193288996,250.369945718" stroke="#000000" stroke-width="1" /><polygon fill="none" points="414.0,261.9 396.0,261.9 395.731842139,267.789892234 413.65302488,269.47251196 414.0,261.9" stroke="#000000" stroke-width="1" /><polygon fill="none" points="413.193288996,273.430054282 395.376503042,270.868387193 394.294835712,276.667185928 411.794144899,280.883129235 413.193288996,273.430054282" stroke="#000000" stroke-width="1" /><polygon fill="none" points="410.786435285,284.740158191 393.51556176,279.668972168 391.637147653,285.267058253 408.358347815,291.930500693 410.786435285,284.740158191" stroke="#000000" stroke-width="1" /><polygon fill="none" points="406.819543119,295.612255749 390.446167202,288.134785515 387.800994977,293.423718781 403.403690698,302.399011882 406.819543119,295.612255749" stroke="#000000" stroke-width="1" /><polygon fill="none" points="401.360253105,305.83246706 386.217689514,296.100932346 382.849794025,300.974656874 397.016359415,312.079089551 401.360253105,305.83246706" stroke="#000000" stroke-width="1" /><polygon fill="none" points="394.504645703,315.194078876 380.901153365,303.406585665 376.869449565,307.763254191 389.311494205,320.770772216 394.504645703,315.194078876" stroke="#000000" stroke-width="1" /><polygon fill="none" points="386.377949365,323.501437407 374.590456154,309.897945068 369.969278213,313.642406258 380.433517955,328.288214075 386.377949365,323.501437407" stroke="#000000" stroke-width="1" /><polygon fill="none" points="377.134585578,330.574755659 367.403050864,315.432192068 362.282074418,318.479045078 370.555487516,334.464996276 377.134585578,330.574755659" stroke="#000000" stroke-width="1" /><polygon fill="none" points="366.95708016,336.255633801 359.479609926,319.882257884 353.962882347,322.159235092 359.877045969,339.159901803 366.95708016,336.255633801" stroke="#000000" stroke-width="1" /><polygon fill="none" points="356.053461091,340.412878249 350.982275068,323.142004724 345.186189084,324.593324188 348.620707915,342.262621865 356.053461091,340.412878249" stroke="#000000" stroke-width="1" /><polygon fill="none" points="344.652948616,342.948037865 342.091281527,325.131251911 336.141489109,325.720517028 337.026446249,343.698749724 344.652948616,342.948037865" stroke="#000000" stroke-width="1" /><polygon fill="none" points="333.0,343.8 333.0,325.8 325.37495503,325.8 325.37495503,343.8 333.0,343.8" stroke="#000000" stroke-width="1" /><polygon fill="none" points="322.2,343.8 322.2,325.8 314.57495503,325.8 314.57495503,343.8 322.2,343.8" stroke="#000000" stroke-width="1" /><polygon fill="none" points="311.4,343.8 311.4,325.8 303.77495503,325.8 303.77495503,343.8 311.4,343.8" stroke="#000000" stroke-width="1" /><polygon fill="none" points="300.6,343.8 300.6,325.8 292.97495503,325.8 292.97495503,343.8 300.6,343.8" stroke="#000000" stroke-width="1" /><polygon fill="none" points="289.8,343.8 289.8,325.8 282.17495503,325.8 282.17495503,343.8 289.8,343.8" stroke="#000000" stroke-width="1" /><polygon fill="none" points="279.0,343.8 279.0,325.8 270.539824098,325.994067005 271.357240607,343.975497155 279.0,343.8" stroke="#000000" stroke-width="1" /><polygon fill="none" points="267.515090157,344.196561322 266.286726716,326.238523477 257.860342045,327.015013327 259.902949156,344.898742138 267.515090157,344.196561322" stroke="#000000" stroke-width="1" /><polygon fill="none" points="256.085443214,345.384218139 253.63444353,327.55187111 245.282242497,328.906850694 248.540516634,346.609495967 256.085443214,345.384218139" stroke="#000000" stroke-width="1" /><polygon fill="none" points="244.765991419,347.35690612 241.103783184,329.733392541 232.865724791,331.660011266 237.324474375,349.099035096 244.765991419,347.35690612" stroke="#000000" stroke-width="1" /><polygon fill="none" points="233.611010456,350.104574703 228.754668575,332.772063531 220.670048967,335.26060817 226.30848525,352.354701778 233.611010456,350.104574703" stroke="#000000" stroke-width="1" /><polygon fill="none" points="222.673802841,353.613270605 216.645969822,336.652574007 208.753201641,339.69054532 215.54503563,356.360008151 222.673802841,353.613270605" stroke="#000000" stroke-width="1" /><polygon fill="none" points="212.006394867,357.865251847 204.83517525,341.35544842 197.171578412,344.927657779 205.085143441,361.094769102 212.006394867,357.865251847" stroke="#000000" stroke-width="1" /><polygon fill="none" points="201.659250828,362.839129605 193.378080149,346.857195674 185.979686299,350.945879541 194.978085675,366.53526082 201.659250828,362.839129605" stroke="#000000" stroke-width="1" /><polygon fill="none" points="191.681007676,368.510034563 182.328496575,353.130485281 175.229869002,357.715435091 185.271148034,372.654401435 191.681007676,368.510034563" stroke="#000000" stroke-width="1" /><polygon fill="none" points="279.0,208.8 279.0,226.8 286.62504497,226.8 286.62504497,208.8 279.0,208.8" stroke="#000000" stroke-width="1" /><polygon fill="none" points="289.8,208.8 289.8,226.8 297.42504497,226.8 297.42504497,208.8 289.8,208.8" stroke="#000000" stroke-width="1" /><polygon fill="none" points="300.6,208.8 300.6,226.8 308.22504497,226.8 308.22504497,208.8 300.6,208.8" stroke="#000000" stroke-width="1" /><polygon fill="none" points="311.4,208.8 311.4,226.8 319.02504497,226.8 319.02504497,208.8 311.4,208.8" stroke="#000000" stroke-width="1" /><polygon fill="none" points="322.2,208.8 322.2,226.8 329.82504497,226.8 329.82504497,208.8 322.2,208.8" stroke="#000000" stroke-width="1" /><polygon fill="none" points="333.0,208.8 333.0,226.8 338.062746036,227.186463636 340.660448628,209.374896011 333.0,208.8" stroke="#000000" stroke-width="1" /><polygon fill="none" points="344.805700357,210.175847145 340.800323546,227.724549565 345.623981876,229.277226862 352.120001303,212.490275632 344.805700357,210.175847145" stroke="#000000" stroke-width="1" /><polygon fill="none" points="355.96417006,214.214409515 348.154262756,230.431849138 352.473458871,233.042454291 362.542057595,218.121887286 355.96417006,214.214409515" stroke="#000000" stroke-width="1" /><polygon fill="none" points="365.885741185,220.66258488 354.662924751,234.735551564 358.261770329,238.234925969 371.398066766,225.928922723 365.885741185,220.66258488" stroke="#000000" stroke-width="1" /><polygon fill="none" points="374.080865813,229.139102722 360.007899128,240.361919156 362.729831353,244.545584354 378.275116749,235.471219254 374.080865813,229.139102722" stroke="#000000" stroke-width="1" /><polygon fill="none" points="380.180076512,239.179272639 363.96263689,246.989179943 365.707220436,251.639791769 382.881989268,246.252091372 380.180076512,239.179272639" stroke="#000000" stroke-width="1" /><polygon fill="none" points="383.933638309,250.274729429 366.38493589,254.28010624 367.09729831,259.180898857 385.040335954,257.750024958 383.933638309,250.274729429" stroke="#000000" stroke-width="1" /><polygon fill="none" points="385.2,261.9 367.2,261.9 366.86006746,266.838273085 384.671635084,269.435975677 385.2,261.9" stroke="#000000" stroke-width="1" /><polygon fill="none" points="383.933638309,273.525270571 366.38493589,269.51989376 365.00211283,274.283805958 381.78906406,280.779825385 383.933638309,273.525270571" stroke="#000000" stroke-width="1" /><polygon fill="none" points="380.180076512,284.620727361 363.96263689,276.810820057 361.578412297,281.185095901 376.498979302,291.253694625 380.180076512,284.620727361" stroke="#000000" stroke-width="1" /><polygon fill="none" points="374.080865813,294.660897278 360.007899128,283.438080844 356.705183866,287.204586398 369.011187113,300.340882836 374.080865813,294.660897278" stroke="#000000" stroke-width="1" /><polygon fill="none" points="365.885741185,303.13741512 354.662924751,289.064448436 350.577479415,292.011961664 359.651844516,307.557247059 365.885741185,303.13741512" stroke="#000000" stroke-width="1" /><polygon fill="none" points="355.96417006,309.585590485 348.154262756,293.368150862 343.481311409,295.312047298 348.869011806,312.48681613 355.96417006,309.585590485" stroke="#000000" stroke-width="1" /><polygon fill="none" points="344.805700357,313.624152855 340.800323546,296.075450435 335.789740325,296.883107679 337.220614224,314.826145322 344.805700357,313.624152855" stroke="#000000" stroke-width="1" /><polygon fill="none" points="333.0,208.8 333.0,226.8 338.062746036,227.186463636 340.660448628,209.374896011 333.0,208.8" stroke="#000000" stroke-width="1" /><polygon fill="none" points="344.805700357,210.175847145 340.800323546,227.724549565 345.623981876,229.277226862 352.120001303,212.490275632 344.805700357,210.175847145" stroke="#000000" stroke-width="1" /><polygon fill="none" points="355.96417006,214.214409515 348.154262756,230.431849138 352.473458871,233.042454291 362.542057595,218.121887286 355.96417006,214.214409515" stroke="#000000" stroke-width="1" /><polygon fill="none" points="365.885741185,220.66258488 354.662924751,234.735551564 358.261770329,238.234925969 371.398066766,225.928922723 365.885741185,220.66258488" stroke="#000000" stroke-width="1" /><polygon fill="none" points="374.080865813,229.139102722 360.007899128,240.361919156 362.729831353,244.545584354 378.275116749,235.471219254 374.080865813,229.139102722" stroke="#000000" stroke-width="1" /><polygon fill="none" points="380.180076512,239.179272639 363.96263689,246.989179943 365.707220436,251.639791769 382.881989268,246.252091372 380.180076512,239.179272639" stroke="#000000" stroke-width="1" /><polygon fill="none" points="383.933638309,250.274729429 366.38493589,254.28010624 367.09729831,259.180898857 385.040335954,257.750024958 383.933638309,250.274729429" stroke="#000000" stroke-width="1" /><polygon fill="none" points="385.2,261.9 367.2,261.9 366.86006746,266.838273085 384.671635084,269.435975677 385.2,261.9" stroke="#000000" stroke-width="1" /><polygon fill="none" points="383.933638309,273.525270571 366.38493589,269.51989376 365.00211283,274.283805958 381.78906406,280.779825385 383.933638309,273.525270571" stroke="#000000" stroke-width="1" /><polygon fill="none" points="380.180076512,284.620727361 363.96263689,276.810820057 361.578412297,281.185095901 376.498979302,291.253694625 380.180076512,284.620727361" stroke="#000000" stroke-width="1" /><polygon fill="none" points="374.080865813,294.660897278 360.007899128,283.438080844 356.705183866,287.204586398 369.011187113,300.340882836 374.080865813,294.660897278" stroke="#000000" stroke-width="1" /><polygon fill="none" points="365.885741185,303.13741512 354.662924751,289.064448436 350.577479415,292.011961664 359.651844516,307.557247059 365.885741185,303.13741512" stroke="#000000" stroke-width="1" /><polygon fill="none" points="355.96417006,309.585590485 348.154262756,293.368150862 343.481311409,295.312047298 348.869011806,312.48681613 355.96417006,309.585590485" stroke="#000000" stroke-width="1" /><polygon fill="none" points="344.805700357,313.624152855 340.800323546,296.075450435 335.789740325,296.883107679 337.220614224,314.826145322 344.805700357,313.624152855" stroke="#000000" stroke-width="1" /><polygon fill="none" points="333.0,315.0 333.0,297.0 325.37495503,297.0 325.37495503,315.0 333.0,315.0" stroke="#000000" stroke-width="1" /><polygon fill="none" points="322.2,315.0 322.2,297.0 314.57495503,297.0 314.57495503,315.0 322.2,315.0" stroke="#000000" stroke-width="1" /><polygon fill="none" points="311.4,315.0 311.4,297.0 303.77495503,297.0 303.77495503,315.0 311.4,315.0" stroke="#000000" stroke-width="1" /><polygon fill="none" points="300.6,315.0 300.6,297.0 292.97495503,297.0 292.97495503,315.0 300.6,315.0" stroke="#000000" stroke-width="1" /><polygon fill="none" points="289.8,315.0 289.8,297.0 282.17495503,297.0 282.17495503,315.0 289.8,315.0" stroke="#000000" stroke-width="1" /><polygon fill="none" points="279.0,315.0 279.0,297.0 270.66171528,297.163039048 271.359484109,315.149509482 279.0,315.0" stroke="#000000" stroke-width="1" /><polygon fill="none" points="267.747963983,315.324398166 266.720365388,297.353754295 258.405483652,297.996515168 260.128940702,315.913816745 267.747963983,315.324398166" stroke="#000000" stroke-width="1" /><polygon fill="none" points="256.533635265,316.296447389 254.481789887,298.413776152 246.218099874,299.534004928 248.961623585,317.323695134 256.533635265,316.296447389" stroke="#000000" stroke-width="1" /><polygon fill="none" points="245.394568256,317.912718198 242.325168789,300.176349152 234.140255357,301.770122077 237.894896925,319.374174642 245.394568256,317.912718198" stroke="#000000" stroke-width="1" /><polygon fill="none" points="234.368012998,320.167515881 230.291071184,302.635301376 222.212206634,304.69704576 226.965719199,322.058039922 234.368012998,320.167515881" stroke="#000000" stroke-width="1" /><polygon fill="none" points="223.490766474,323.052911741 218.419580451,305.782038216 210.473618554,308.304561814 216.210497147,325.365869618 223.490766474,323.052911741" stroke="#000000" stroke-width="1" /><polygon fill="none" points="212.799028015,326.558786147 206.750138937,309.605587602 198.963412539,312.580116051 205.664944653,329.286087059 212.799028015,326.558786147" stroke="#000000" stroke-width="1" /><polygon fill="none" points="202.328260006,330.672882716 195.321398092,314.09265696 187.71962106,317.508878711 195.363947691,333.805021517 202.328260006,330.672882716" stroke="#000000" stroke-width="1" /><polygon fill="none" points="192.113054996,335.380872785 184.171075174,319.227701069 176.779249361,323.073819159 185.341436304,338.906979133 192.113054996,335.380872785" stroke="#000000" stroke-width="1" /><polygon fill="none" points="182.187010128,340.666429214 173.335817485,324.992999826 166.178145291,329.255789778 175.630264472,344.574322442 182.187010128,340.666429214" stroke="#000000" stroke-width="1" /><polygon fill="none" points="172.582609677,346.511308444 162.851074963,331.368744853 155.950877923,336.033617913 166.262098494,350.787557398 172.582609677,346.511308444" stroke="#000000" stroke-width="1" /><polygon fill="none" points="163.331116278,352.895439684 152.750981736,338.333133785 146.130625461,343.38420469 157.267314364,357.525426712 163.331116278,352.895439684" stroke="#000000" stroke-width="1" /><polygon fill="none" points="154.462471264,359.797020018 143.068247096,345.862471027 136.749072757,351.282629483 148.674904426,364.765008316 154.462471264,359.797020018" stroke="#000000" stroke-width="1" /><polygon fill="none" points="146.00520433,367.192614272 133.834056125,353.93127379 127.836318559,359.702258843 140.512393412,372.481817768 146.00520433,367.192614272" stroke="#000000" stroke-width="1" /><polygon fill="none" points="137.986352568,375.057258434 125.077980083,362.512382198 119.420792458,368.614858713 132.805763772,380.649913466 137.986352568,375.057258434" stroke="#000000" stroke-width="1" /><polygon fill="none" points="130.431388754,383.364565535 116.827896416,371.577072324 111.529181309,377.990708842 125.579390091,389.242003576 130.431388754,383.364565535" stroke="#000000" stroke-width="1" /><polygon fill="none" points="123.364158598,392.086832924 109.109918171,381.095171091 104.186364805,387.798718394 118.855982193,398.229553724 123.364158598,392.086832924" stroke="#000000" stroke-width="1" /><polygon fill="none" points="116.806826543,401.195150009 101.948332397,391.035172069 97.4153596951,398.006541847 112.656536448,407.582894555 116.806826543,401.195150009" stroke="#000000" stroke-width="1" /><polygon fill="none" points="110.779829582,410.659505608 95.3655470372,401.364351299 91.2372721122,408.58069442 107.000294678,417.271328436 110.779829582,410.659505608" stroke="#000000" stroke-width="1" /><polygon fill="none" points="105.30183847,420.448894247 89.3820457118,412.048882429 85.6712573236,419.486666404 101.904709999,427.263234685 105.30183847,420.448894247" stroke="#000000" stroke-width="1" /><polygon fill="none" points="100.389725634,430.531420809 84.0163497178,423.053950575 80.7344862329,430.689035889 97.3854188701,437.526172885 100.389725634,430.531420809" stroke="#000000" stroke-width="1" /><polygon fill="none" points="96.0585390658,440.874403159 79.28498654,434.343864463 76.4421178967,442.151579565 93.456218614,448.026983958 96.0585390658,440.874403159" stroke="#000000" stroke-width="1" /><polygon fill="none" points="92.3214814411,451.444472457 75.2024641477,445.882166558 72.8072773392,453.83738139 90.1290496766,458.731888831 92.3214814411,451.444472457" stroke="#000000" stroke-width="1" /><polygon fill="none" points="89.189893746,462.207671043 71.7812503614,457.631741027 69.8410379697,465.708939068 87.4139819063,469.606584691 89.189893746,462.207671043" stroke="#000000" stroke-width="1" /><polygon fill="none" points="86.6732427073,473.129547922 69.0317566076,469.554919523 67.5524079544,477.728268399 85.3192041994,480.616338894 86.6732427073,473.129547922" stroke="#000000" stroke-width="1" /><polygon fill="none" points="84.7791113885,484.175251977 66.9623254347,481.613584888 65.9483199629,489.857005698 83.85101692,491.726080781 84.7791113885,484.175251977" stroke="#000000" stroke-width="1" /><polygon fill="none" points="83.5131923895,495.30962316 65.5792212339,493.769273007 65.0336237977,502.056508558 83.0138265904,502.900491692 83.5131923895,495.30962316" stroke="#000000" stroke-width="1" /><polygon fill="none" points="82.8792831761,506.49728202 64.8866237052,505.983273106 64.8110815084,514.28795531 82.8101424526,514.104093599 82.8792831761,506.49728202" stroke="#000000" stroke-width="1" /><polygon fill="none" points="82.8792831761,517.70271798 64.8866237052,518.216726894 65.2813647122,526.512443638 83.2405746121,525.3013368 82.8792831761,517.70271798" stroke="#000000" stroke-width="1" /><polygon fill="none" points="83.5131923895,528.89037684 65.5792212339,530.430726993 66.4430539524,538.691088777 84.3038335982,536.456687192 83.5131923895,528.89037684" stroke="#000000" stroke-width="1" /><polygon fill="none" points="84.7791113885,540.024748023 66.9623254347,542.586415112 68.2926400579,550.785121812 85.9967312989,547.534713633 84.7791113885,540.024748023" stroke="#000000" stroke-width="1" /><polygon fill="none" points="86.6732427073,551.070452078 69.0317566076,554.645080477 70.824527587,562.755988538 88.3141833572,558.50017592 86.6732427073,551.070452078" stroke="#000000" stroke-width="1" /><polygon fill="none" points="89.189893746,561.992328957 71.7812503614,566.568258973 74.0310405628,574.565449343 91.2492132405,569.318113863 89.189893746,561.992328957" stroke="#000000" stroke-width="1" /><polygon fill="none" points="92.3214814411,572.755527543 75.2024641477,578.317833442 77.9024308247,586.175680525 94.7929583094,579.9539379 92.3214814411,572.755527543" stroke="#000000" stroke-width="1" /><polygon fill="none" points="96.0585390658,583.325596841 79.28498654,589.856135537 82.426889427,597.549377371 98.9346783288,590.373521633 96.0585390658,583.325596841" stroke="#000000" stroke-width="1" /><polygon fill="none" points="100.389725634,593.668579191 84.0163497178,601.146049425 87.5905616108,608.649859258 103.661766954,600.543296557 100.389725634,593.668579191" stroke="#000000" stroke-width="1" /><polygon fill="none" points="105.30183847,603.751105753 89.3820457118,612.151117571 93.3775659559,619.441176907 108.959766808,610.430349165 105.30183847,603.751105753" stroke="#000000" stroke-width="1" /><polygon fill="none" points="110.779829582,613.540494392 95.3655470372,622.835648701 99.7700183786,629.888221831 114.81238884,620.002520495 110.779829582,613.540494392" stroke="#000000" stroke-width="1" /><polygon fill="none" points="116.806826543,623.004849991 101.948332397,633.164827931 106.748061684,639.956837855 121.201536669,629.228508028 116.806826543,623.004849991" stroke="#000000" stroke-width="1" /><polygon fill="none" points="123.364158598,632.113167076 109.109918171,643.104828909 114.289901395,649.613934462 128.107336672,638.077969727 123.364158598,632.113167076" stroke="#000000" stroke-width="1" /><polygon fill="none" points="130.431388754,640.835434465 116.827896416,652.622927676 122.371848579,658.827601582 135.508174546,646.521629857 130.431388754,640.835434465" stroke="#000000" stroke-width="1" /><polygon fill="none" points="137.986352568,649.142741566 125.077980083,661.687617802 130.96837035,667.567225264 143.380739043,654.531386072 137.986352568,649.142741566" stroke="#000000" stroke-width="1" /><polygon fill="none" points="146.00520433,657.007385728 133.834056125,670.26872621 140.052148681,675.803603571 151.700073531,662.080417109 146.00520433,657.007385728" stroke="#000000" stroke-width="1" /><polygon fill="none" points="154.462471264,664.402979982 143.068247096,678.337528973 149.594148053,683.509061866 160.439635952,669.143290316 154.462471264,664.402979982" stroke="#000000" stroke-width="1" /><polygon fill="none" points="163.331116278,671.304560316 152.750981736,685.866866215 159.563692391,690.657566563 169.571367612,675.696068086 163.331116278,671.304560316" stroke="#000000" stroke-width="1" /><polygon fill="none" points="172.582609677,677.688691556 162.851074963,692.831255147 169.928551573,697.224836297 179.065771159,681.716412191 172.582609677,677.688691556" stroke="#000000" stroke-width="1" /><polygon fill="none" points="182.187010128,683.533570786 173.335817485,699.207000174 180.65503766,703.18844939 188.8919979,687.183684912 182.187010128,683.533570786" stroke="#000000" stroke-width="1" /><polygon fill="none" points="192.113054996,688.819127215 184.171075174,704.972298931 191.708110848,708.527946442 199.017944489,692.079045806 192.113054996,688.819127215" stroke="#000000" stroke-width="1" /><polygon fill="none" points="202.328260006,693.527117284 195.321398092,710.10734304 203.051494921,713.224926824 209.410358806,696.385542925 202.328260006,693.527117284" stroke="#000000" stroke-width="1" /><polygon fill="none" points="212.799028015,697.641213853 206.750138937,714.594412398 214.647801849,717.263137881 220.034954685,700.08819729 212.799028015,697.641213853" stroke="#000000" stroke-width="1" /><polygon fill="none" points="223.490766474,701.147088259 218.419580451,718.417961784 226.458664937,720.628555665 230.856534952,703.174079467 223.490766474,701.147088259" stroke="#000000" stroke-width="1" /><polygon fill="none" points="234.368012998,704.032484119 230.291071184,721.564698624 238.44487981,723.309456075 241.839122066,705.632377145 234.368012998,704.032484119" stroke="#000000" stroke-width="1" /><polygon fill="none" points="245.394568256,706.287281802 242.325168789,724.023650848 250.566552276,725.296475425 252.94609546,707.45445272 245.394568256,706.287281802" stroke="#000000" stroke-width="1" /><polygon fill="none" points="256.533635265,707.903552611 254.481789887,725.786223848 262.783252027,726.582659516 264.140334564,708.633890004 256.533635265,707.903552611" stroke="#000000" stroke-width="1" /><polygon fill="none" points="267.747963983,708.875601834 266.720365388,726.846245705 275.054170947,727.163500497 275.384366315,709.166529335 267.747963983,708.875601834" stroke="#000000" stroke-width="1" /><polygon fill="none" points="279.0,315.0 279.0,297.0 270.66171528,297.163039048 271.359484109,315.149509482 279.0,315.0" stroke="#000000" stroke-width="1" /><polygon fill="none" points="267.747963983,315.324398166 266.720365388,297.353754295 258.405483652,297.996515168 260.128940702,315.913816745 267.747963983,315.324398166" stroke="#000000" stroke-width="1" /><polygon fill="none" points="256.533635265,316.296447389 254.481789887,298.413776152 246.218099874,299.534004928 248.961623585,317.323695134 256.533635265,316.296447389" stroke="#000000" stroke-width="1" /><polygon fill="none" points="245.394568256,317.912718198 242.325168789,300.176349152 234.140255357,301.770122077 237.894896925,319.374174642 245.394568256,317.912718198" stroke="#000000" stroke-width="1" /><polygon fill="none" points="234.368012998,320.167515881 230.291071184,302.635301376 222.212206634,304.69704576 226.965719199,322.058039922 234.368012998,320.167515881" stroke="#000000" stroke-width="1" /><polygon fill="none" points="223.490766474,323.052911741 218.419580451,305.782038216 210.473618554,308.304561814 216.210497147,325.365869618 223.490766474,323.052911741" stroke="#000000" stroke-width="1" /><polygon fill="none" points="212.799028015,326.558786147 206.750138937,309.605587602 198.963412539,312.580116051 205.664944653,329.286087059 212.799028015,326.558786147" stroke="#000000" stroke-width="1" /><polygon fill="none" points="202.328260006,330.672882716 195.321398092,314.09265696 187.71962106,317.508878711 195.363947691,333.805021517 202.328260006,330.672882716" stroke="#000000" stroke-width="1" /><polygon fill="none" points="192.113054996,335.380872785 184.171075174,319.227701069 176.779249361,323.073819159 185.341436304,338.906979133 192.113054996,335.380872785" stroke="#000000" stroke-width="1" /><polygon fill="none" points="182.187010128,340.666429214 173.335817485,324.992999826 166.178145291,329.255789778 175.630264472,344.574322442 182.187010128,340.666429214" stroke="#000000" stroke-width="1" /><polygon fill="none" points="172.582609677,346.511308444 162.851074963,331.368744853 155.950877923,336.033617913 166.262098494,350.787557398 172.582609677,346.511308444" stroke="#000000" stroke-width="1" /><polygon fill="none" points="163.331116278,352.895439684 152.750981736,338.333133785 146.130625461,343.38420469 157.267314364,357.525426712 163.331116278,352.895439684" stroke="#000000" stroke-width="1" /><polygon fill="none" points="154.462471264,359.797020018 143.068247096,345.862471027 136.749072757,351.282629483 148.674904426,364.765008316 154.462471264,359.797020018" stroke="#000000" stroke-width="1" /><polygon fill="none" points="146.00520433,367.192614272 133.834056125,353.93127379 127.836318559,359.702258843 140.512393412,372.481817768 146.00520433,367.192614272" stroke="#000000" stroke-width="1" /><polygon fill="none" points="137.986352568,375.057258434 125.077980083,362.512382198 119.420792458,368.614858713 132.805763772,380.649913466 137.986352568,375.057258434" stroke="#000000" stroke-width="1" /><polygon fill="none" points="130.431388754,383.364565535 116.827896416,371.577072324 111.529181309,377.990708842 125.579390091,389.242003576 130.431388754,383.364565535" stroke="#000000" stroke-width="1" /><polygon fill="none" points="123.364158598,392.086832924 109.109918171,381.095171091 104.186364805,387.798718394 118.855982193,398.229553724 123.364158598,392.086832924" stroke="#000000" stroke-width="1" /><polygon fill="none" points="116.806826543,401.195150009 101.948332397,391.035172069 97.4153596951,398.006541847 112.656536448,407.582894555 116.806826543,401.195150009" stroke="#000000" stroke-width="1" /><polygon fill="none" points="110.779829582,410.659505608 95.3655470372,401.364351299 91.2372721122,408.58069442 107.000294678,417.271328436 110.779829582,410.659505608" stroke="#000000" stroke-width="1" /><polygon fill="none" points="105.30183847,420.448894247 89.3820457118,412.048882429 85.6712573236,419.486666404 101.904709999,427.263234685 105.30183847,420.448894247" stroke="#000000" stroke-width="1" /><polygon fill="none" points="100.389725634,430.531420809 84.0163497178,423.053950575 80.7344862329,430.689035889 97.3854188701,437.526172885 100.389725634,430.531420809" stroke="#000000" stroke-width="1" /><polygon fill="none" points="96.0585390658,440.874403159 79.28498654,434.343864463 76.4421178967,442.151579565 93.456218614,448.026983958 96.0585390658,440.874403159" stroke="#000000" stroke-width="1" /><polygon fill="none" points="92.3214814411,451.444472457 75.2024641477,445.882166558 72.8072773392,453.83738139 90.1290496766,458.731888831 92.3214814411,451.444472457" stroke="#000000" stroke-width="1" /><polygon fill="none" points="89.189893746,462.207671043 71.7812503614,457.631741027 69.8410379697,465.708939068 87.4139819063,469.606584691 89.189893746,462.207671043" stroke="#000000" stroke-width="1" /><polygon fill="none" points="86.6732427073,473.129547922 69.0317566076,469.554919523 67.5524079544,477.728268399 85.3192041994,480.616338894 86.6732427073,473.129547922" stroke="#000000" stroke-width="1" /><polygon fill="none" points="84.7791113885,484.175251977 66.9623254347,481.613584888 65.9483199629,489.857005698 83.85101692,491.726080781 84.7791113885,484.175251977" stroke="#000000" stroke-width="1" /><polygon fill="none" points="83.5131923895,495.30962316 65.5792212339,493.769273007 65.0336237977,502.056508558 83.0138265904,502.900491692 83.5131923895,495.30962316" stroke="#000000" stroke-width="1" /><polygon fill="none" points="82.8792831761,506.49728202 64.8866237052,505.983273106 64.8110815084,514.28795531 82.8101424526,514.104093599 82.8792831761,506.49728202" stroke="#000000" stroke-width="1" /><polygon fill="none" points="82.8792831761,517.70271798 64.8866237052,518.216726894 65.2813647122,526.512443638 83.2405746121,525.3013368 82.8792831761,517.70271798" stroke="#000000" stroke-width="1" /><polygon fill="none" points="83.5131923895,528.89037684 65.5792212339,530.430726993 66.4430539524,538.691088777 84.3038335982,536.456687192 83.5131923895,528.89037684" stroke="#000000" stroke-width="1" /><polygon fill="none" points="84.7791113885,540.024748023 66.9623254347,542.586415112 68.2926400579,550.785121812 85.9967312989,547.534713633 84.7791113885,540.024748023" stroke="#000000" stroke-width="1" /><polygon fill="none" points="86.6732427073,551.070452078 69.0317566076,554.645080477 70.824527587,562.755988538 88.3141833572,558.50017592 86.6732427073,551.070452078" stroke="#000000" stroke-width="1" /><polygon fill="none" points="89.189893746,561.992328957 71.7812503614,566.568258973 74.0310405628,574.565449343 91.2492132405,569.318113863 89.189893746,561.992328957" stroke="#000000" stroke-width="1" /><polygon fill="none" points="92.3214814411,572.755527543 75.2024641477,578.317833442 77.9024308247,586.175680525 94.7929583094,579.9539379 92.3214814411,572.755527543" stroke="#000000" stroke-width="1" /><polygon fill="none" points="96.0585390658,583.325596841 79.28498654,589.856135537 82.426889427,597.549377371 98.9346783288,590.373521633 96.0585390658,583.325596841" stroke="#000000" stroke-width="1" /><polygon fill="none" points="279.0,237.6 279.0,255.6 286.62504497,255.6 286.62504497,237.6 279.0,237.6" stroke="#000000" stroke-width="1" /><polygon fill="none" points="289.8,237.6 289.8,255.6 297.42504497,255.6 297.42504497,237.6 289.8,237.6" stroke="#000000" stroke-width="1" /><polygon fill="none" points="300.6,237.6 300.6,255.6 308.22504497,255.6 308.22504497,237.6 300.6,237.6" stroke="#000000" stroke-width="1" /><polygon fill="none" points="311.4,237.6 311.4,255.6 319.02504497,255.6 319.02504497,237.6 311.4,237.6" stroke="#000000" stroke-width="1" /><polygon fill="none" points="322.2,237.6 322.2,255.6 329.82504497,255.6 329.82504497,237.6 322.2,237.6" stroke="#000000" stroke-width="1" /><polygon fill="none" points="333.0,237.6 333.0,255.6 334.950460342,256.00797981 340.607189393,238.919930874 333.0,237.6" stroke="#000000" stroke-width="1" /><polygon fill="none" points="345.032648731,241.058841049 336.032648731,256.647298317 337.32077507,258.052535744 350.763670599,246.08221579 345.032648731,241.058841049" stroke="#000000" stroke-width="1" /><polygon fill="none" points="353.451707599,250.092201113 337.86325033,259.092201113 338.322352071,260.799373923 355.949401076,257.154220516 353.451707599,250.092201113" stroke="#000000" stroke-width="1" /><polygon fill="none" points="356.4,261.9 338.4,261.9 338.206598434,263.623562282 355.29464737,269.280291333 356.4,261.9" stroke="#000000" stroke-width="1" /><polygon fill="none" points="353.451707599,273.707798887 337.86325033,264.707798887 336.916533804,266.298341478 348.886853758,279.741237006 353.451707599,273.707798887" stroke="#000000" stroke-width="1" /><polygon fill="none" points="345.032648731,282.741158951 336.032648731,267.152701683 334.267911646,268.031303192 337.913065054,285.658352197 345.032648731,282.741158951" stroke="#000000" stroke-width="1" /><polygon fill="none" points="333.0,237.6 333.0,255.6 334.950460342,256.00797981 340.607189393,238.919930874 333.0,237.6" stroke="#000000" stroke-width="1" /><polygon fill="none" points="345.032648731,241.058841049 336.032648731,256.647298317 337.32077507,258.052535744 350.763670599,246.08221579 345.032648731,241.058841049" stroke="#000000" stroke-width="1" /><polygon fill="none" points="353.451707599,250.092201113 337.86325033,259.092201113 338.322352071,260.799373923 355.949401076,257.154220516 353.451707599,250.092201113" stroke="#000000" stroke-width="1" /><polygon fill="none" points="356.4,261.9 338.4,261.9 338.206598434,263.623562282 355.29464737,269.280291333 356.4,261.9" stroke="#000000" stroke-width="1" /><polygon fill="none" points="353.451707599,273.707798887 337.86325033,264.707798887 336.916533804,266.298341478 348.886853758,279.741237006 353.451707599,273.707798887" stroke="#000000" stroke-width="1" /><polygon fill="none" points="345.032648731,282.741158951 336.032648731,267.152701683 334.267911646,268.031303192 337.913065054,285.658352197 345.032648731,282.741158951" stroke="#000000" stroke-width="1" /><polygon fill="none" points="333.0,286.2 333.0,268.2 325.37495503,268.2 325.37495503,286.2 333.0,286.2" stroke="#000000" stroke-width="1" /><polygon fill="none" points="322.2,286.2 322.2,268.2 314.57495503,268.2 314.57495503,286.2 322.2,286.2" stroke="#000000" stroke-width="1" /><polygon fill="none" points="311.4,286.2 311.4,268.2 303.77495503,268.2 303.77495503,286.2 311.4,286.2" stroke="#000000" stroke-width="1" /><polygon fill="none" points="300.6,286.2 300.6,268.2 292.97495503,268.2 292.97495503,286.2 300.6,286.2" stroke="#000000" stroke-width="1" /><polygon fill="none" points="289.8,286.2 289.8,268.2 282.17495503,268.2 282.17495503,286.2 289.8,286.2" stroke="#000000" stroke-width="1" /><polygon fill="none" points="279.0,286.2 279.0,268.2 270.752565151,268.340518525 271.361234514,286.330224515 279.0,286.2" stroke="#000000" stroke-width="1" /><polygon fill="none" points="267.73992656,286.483058253 266.842700618,268.505433671 258.612852383,269.059903782 260.117477949,286.996907487 267.73992656,286.483058253" stroke="#000000" stroke-width="1" /><polygon fill="none" points="256.50851712,287.331478695 254.716295882,269.420924739 246.524941453,270.387876536 248.921782487,288.227583739 256.50851712,287.331478695" stroke="#000000" stroke-width="1" /><polygon fill="none" points="245.334349261,288.743001413 242.65158847,270.944046541 234.519520598,272.320918614 237.802618175,290.01897699 245.334349261,288.743001413" stroke="#000000" stroke-width="1" /><polygon fill="none" points="234.245828288,290.713869946 230.679197711,273.070765165 222.627033341,274.853914548 226.788225163,292.366323938 234.245828288,290.713869946" stroke="#000000" stroke-width="1" /><polygon fill="none" points="223.271102504,293.238846269 218.829469345,275.795455117 210.87758935,277.980171362 215.906530039,295.263393155 223.271102504,293.238846269" stroke="#000000" stroke-width="1" /><polygon fill="none" points="212.437980126,296.311231519 207.132386987,279.110921015 199.30087735,281.69144421 205.185064166,298.702509594 212.437980126,296.311231519" stroke="#000000" stroke-width="1" /><polygon fill="none" points="201.773848383,299.922892242 195.617485804,283.008425068 187.926080581,285.977967627 194.650884511,302.674584414 201.773848383,299.922892242" stroke="#000000" stroke-width="1" /><polygon fill="none" points="191.305595233,304.064291866 184.3137689,287.477720053 176.781795276,290.828492036 184.330497395,307.169149805 191.305595233,304.064291866" stroke="#000000" stroke-width="1" /><polygon fill="none" points="181.059534146,308.724527064 173.249626842,292.507087441 165.895952526,296.230325146 174.249785572,312.174398447 181.059534146,308.724527064" stroke="#000000" stroke-width="1" /><polygon fill="none" points="171.061332316,313.891368607 162.452760701,298.083380286 155.295743916,302.169377829 164.433938945,317.677227184 171.061332316,313.891368607" stroke="#000000" stroke-width="1" /><polygon fill="none" points="161.335942625,319.551306311 151.950108964,304.192070441 145.007551203,308.630214022 154.907389221,323.663284474 161.335942625,319.551306311" stroke="#000000" stroke-width="1" /><polygon fill="none" points="151.907539603,325.689597601 141.767778558,310.817299663 135.056880263,315.596104197 145.693748714,330.117021164 151.907539603,325.689597601" stroke="#000000" stroke-width="1" /><polygon fill="none" points="142.799459603,332.290319258 131.930980218,317.941934128 125.46829948,323.049081913 136.815753431,337.021744108 142.799459603,332.290319258" stroke="#000000" stroke-width="1" /><polygon fill="none" points="134.034145293,339.33642185 122.463968319,325.547621874 116.265382666,330.970002987 128.295210561,344.359672169 134.034145293,339.33642185" stroke="#000000" stroke-width="1" /><polygon fill="none" points="125.633094559,346.809786401 113.389985279,333.614852708 107.470656573,339.338606787 120.152950363,352.11199413 125.633094559,346.809786401" stroke="#000000" stroke-width="1" /><polygon fill="none" points="117.616813819,354.691282823 104.731210532,342.123020097 99.1055529497,348.133579221 112.408782455,360.258928071 117.616813819,354.691282823" stroke="#000000" stroke-width="1" /><polygon fill="none" points="110.0047757,362.960829669 96.508714047,351.050484592 91.1903650977,357.332616958 105.081456393,368.779781788 110.0047757,362.960829669" stroke="#000000" stroke-width="1" /><polygon fill="none" points="102.815380985,371.597454805 88.7424143003,360.374638371 83.7442087914,366.912492504 98.1886264347,377.653013857 102.815380985,371.597454805" stroke="#000000" stroke-width="1" /><polygon fill="none" points="96.065924673,380.579356605 81.4510405701,370.071970505 76.7849874002,376.849119746 91.7468202938,386.856294995 96.065924673,380.579356605" stroke="#000000" stroke-width="1" /><polygon fill="none" points="89.7725659859,389.883965333 74.6520993692,380.118132583 70.3293610141,387.117619654 85.771411684,396.366569384 89.7725659859,389.883965333" stroke="#000000" stroke-width="1" /><polygon fill="none" points="83.9503020781,399.488004399 68.36184481,390.488004399 64.3927193411,397.692385846 80.2765964161,406.160115711 83.9503020781,399.488004399" stroke="#000000" stroke-width="1" /><polygon fill="none" points="78.6129452227,409.367551259 62.5952526641,401.155759426 58.989158126,408.547149791 75.2753717852,416.21260768 78.6129452227,409.367551259" stroke="#000000" stroke-width="1" /><polygon fill="none" points="73.7731031997,419.498097713 57.3659978581,412.094929857 54.1314588259,419.655045458 70.7795189759,426.499173835 73.7731031997,419.498097713" stroke="#000000" stroke-width="1" /><polygon fill="none" points="69.4421626137,429.854609488 52.6864351381,423.278471049 49.8310712685,430.988673291 66.7995882087,436.994456574 69.4421626137,429.854609488" stroke="#000000" stroke-width="1" /><polygon fill="none" points="65.6302748624,440.411584955 48.5675826314,434.678825251 46.0980990254,442.52016339 63.3448863492,447.672670257 65.6302748624,440.411584955" stroke="#000000" stroke-width="1" /><polygon fill="none" points="62.3463444813,451.143112958 45.0191080362,446.267984531 42.9412872366,454.221237898 60.423466713,458.507658403 62.3463444813,451.143112958" stroke="#000000" stroke-width="1" /><polygon fill="none" points="59.5980196009,462.022929706 42.0493171816,458.017552894 40.3680126386,466.063272557 58.0421208151,469.472949985 59.5980196009,462.022929706" stroke="#000000" stroke-width="1" /><polygon fill="none" points="57.3916842701,473.024474787 39.6651447159,469.898807589 38.3842755721,478.017357506 56.206371831,480.541814861 57.3916842701,473.024474787" stroke="#000000" stroke-width="1" /><polygon fill="none" points="55.7324524249,484.120946352 37.8721467061,481.882759668 36.9946937662,490.054357378 54.9204695681,491.687318461 55.7324524249,484.120946352" stroke="#000000" stroke-width="1" /><polygon fill="none" points="54.624163307,495.285355569 36.6744949578,493.940213885 36.202497734,502.144970813 54.1873867758,502.882375826 54.624163307,495.285355569" stroke="#000000" stroke-width="1" /><polygon fill="none" points="54.0693781736,506.490580496 36.0749728976,506.041828045 36.009527643,514.259789518 54.0088166568,514.099805156 54.0693781736,506.490580496" stroke="#000000" stroke-width="1" /><polygon fill="none" points="54.0693781736,517.709419504 36.0749728976,518.158171955 36.4162315679,526.369357028 54.3851714853,525.312381037 54.0693781736,517.709419504" stroke="#000000" stroke-width="1" /><polygon fill="none" points="54.624163307,528.914644431 36.6744949578,530.259786115 37.4216650686,538.444227321 55.3155822737,536.49288751 54.624163307,528.914644431" stroke="#000000" stroke-width="1" /><polygon fill="none" points="55.7324524249,540.079053648 37.8721467061,542.317240332 39.0234920809,550.455023473 56.7978994761,547.614171179 55.7324524249,540.079053648" stroke="#000000" stroke-width="1" /><polygon fill="none" points="57.3916842701,551.175525213 39.6651447159,554.301192411 41.2179871483,562.3724965 58.8286947562,558.649194532 57.3916842701,551.175525213" stroke="#000000" stroke-width="1" /><polygon fill="none" points="59.5980196009,562.177070294 42.0493171816,566.182447106 44.000039064,574.167584571 61.4032638907,569.571089642 59.5980196009,562.177070294" stroke="#000000" stroke-width="1" /><polygon fill="none" points="62.3463444813,573.056887042 45.0191080362,577.932015469 47.3631560329,585.811472707 64.5156309194,580.353212428 62.3463444813,573.056887042" stroke="#000000" stroke-width="1" /><polygon fill="none" points="65.6302748624,583.788415045 48.5675826314,589.521174749 51.2994724992,597.275653122 68.1585536904,590.969197589 65.6302748624,583.788415045" stroke="#000000" stroke-width="1" /><polygon fill="none" points="69.4421626137,594.345390512 52.6864351381,600.921528951 55.7997578205,608.531986285 72.3235309842,601.393014339 69.4421626137,594.345390512" stroke="#000000" stroke-width="1" /><polygon fill="none" points="73.7731031997,604.701902287 57.3659978581,612.105070143 60.8534269978,619.552762764 77.0008114303,611.599023015 73.7731031997,604.701902287" stroke="#000000" stroke-width="1" /><polygon fill="none" points="78.6129452227,614.832448741 62.5952526641,623.044240574 66.4485536953,630.310765902 82.1794044548,621.562032601 78.6129452227,614.832448741" stroke="#000000" stroke-width="1" /><polygon fill="none" points="83.9503020781,624.711995601 68.36184481,633.711995601 72.5718858048,640.77933529 87.8470935177,631.257359165 83.9503020781,624.711995601" stroke="#000000" stroke-width="1" /><polygon fill="none" points="89.7725659859,634.316034667 74.6520993692,644.081867417 79.208863819,650.93243099 93.9904519122,640.660885174 89.7725659859,634.316034667" stroke="#000000" stroke-width="1" /><polygon fill="none" points="96.065924673,643.620643395 81.4510405701,654.128029495 86.3436422863,660.744698401 100.594861403,649.749119576 96.065924673,643.620643395" stroke="#000000" stroke-width="1" /><polygon fill="none" points="102.815380985,652.602545195 88.7424143003,663.825361629 93.9591146171,670.191533616 107.64453398,658.499258523 102.815380985,652.602545195" stroke="#000000" stroke-width="1" /><polygon fill="none" points="110.0047757,661.239170331 96.508714047,673.149515408 102.036941503,679.249149068 115.122537005,666.889246545 110.0047757,661.239170331" stroke="#000000" stroke-width="1" /><polygon fill="none" points="117.616813819,669.508717177 104.731210532,682.076979903 110.557583195,687.894639203 123.010821982,674.897837916 117.616813819,669.508717177" stroke="#000000" stroke-width="1" /></g></svg>