<?xml version="1.0" encoding="utf-8" ?>
<svg baseProfile="full" height="792.0" version="1.1" width="612.0" xmlns="http://www.w3.org/2000/svg" xmlns:ev="http://www.w3.org/2001/xml-events" xmlns:xlink="http://www.w3.org/1999/xlink"><defs /><g id="footprints"><polygon fill="none" points="279.0,36.0 279.0,54.0 284.458498485,54.0 284.458498485,36.0 279.0,36.0" stroke="#000000" stroke-width="1" /><polygon fill="none" points="286.714285714,36.0 286.714285714,54.0 292.1727842,54.0 292.1727842,36.0 286.714285714,36.0" stroke="#000000" stroke-width="1" /><polygon fill="none" points="294.428571429,36.0 294.428571429,54.0 299.887069914,54.0 299.887069914,36.0 294.428571429,36.0" stroke="#000000" stroke-width="1" /><polygon fill="none" points="302.142857143,36.0 302.142857143,54.0 307.601355628,54.0 307.601355628,36.0 302.142857143,36.0" stroke="#000000" stroke-width="1" /><polygon fill="none" points="309.857142857,36.0 309.857142857,54.0 315.315641343,54.0 315.315641343,36.0 309.857142857,36.0" stroke="#000000" stroke-width="1" /><polygon fill="none" points="317.571428571,36.0 317.571428571,54.0 323.029927057,54.0 323.029927057,36.0 317.571428571,36.0" stroke="#000000" stroke-width="1" /><polygon fill="none" points="279.0,64.8 279.0,82.8 284.458498485,82.8 284.458498485,64.8 279.0,64.8" stroke="#000000" stroke-width="1" /><polygon fill="none" points="286.714285714,64.8 286.714285714,82.8 292.1727842,82.8 292.1727842,64.8 286.714285714,64.8" stroke="#000000" stroke-width="1" /><polygon fill="none" points="294.428571429,64.8 294.428571429,82.8 299.887069914,82.8 299.887069914,64.8 294.428571429,64.8" stroke="#000000" stroke-width="1" /><polygon fill="none" points="302.142857143,64.8 302.142857143,82.8 307.601355628,82.8 307.601355628,64.8 302.142857143,64.8" stroke="#000000" stroke-width="1" /><polygon fill="none" points="309.857142857,64.8 309.857142857,82.8 315.315641343,82.8 315.315641343,64.8 309.857142857,64.8" stroke="#000000" stroke-width="1" /><polygon fill="none" points="317.571428571,64.8 317.571428571,82.8 323.029927057,82.8 323.029927057,64.8 317.571428571,64.8" stroke="#000000" stroke-width="1" /><polygon fill="none" points="325.285714286,64.8 325.285714286,82.8 330.744212771,82.8 330.744212771,64.8 325.285714286,64.8" stroke="#000000" stroke-width="1" /><polygon fill="none" points="333.0,64.8 333.0,82.8 337.970691362,82.8696891677 338.47026028,64.8766229783 333.0,64.8" stroke="#000000" stroke-width="1" /><polygon fill="none" points="279.0,93.6 279.0,111.6 284.458498485,111.6 284.458498485,93.6 279.0,93.6" stroke="#000000" stroke-width="1" /><polygon fill="none" points="286.714285714,93.6 286.714285714,111.6 292.1727842,111.6 292.1727842,93.6 286.714285714,93.6" stroke="#000000" stroke-width="1" /><polygon fill="none" points="294.428571429,93.6 294.428571429,111.6 299.887069914,111.6 299.887069914,93.6 294.428571429,93.6" stroke="#000000" stroke-width="1" /><polygon fill="none" points="302.142857143,93.6 302.142857143,111.6 307.601355628,111.6 307.601355628,93.6 302.142857143,93.6" stroke="#000000" stroke-width="1" /><polygon fill="none" points="309.857142857,93.6 309.857142857,111.6 315.315641343,111.6 315.315641343,93.6 309.857142857,93.6" stroke="#000000" stroke-width="1" /><polygon fill="none" points="317.571428571,93.6 317.571428571,111.6 323.029927057,111.6 323.029927057,93.6 317.571428571,93.6" stroke="#000000" stroke-width="1" /><polygon fill="none" points="325.285714286,93.6 325.285714286,111.6 330.744212771,111.6 330.744212771,93.6 325.285714286,93.6" stroke="#000000" stroke-width="1" /><polygon fill="none" points="333.0,93.6 333.0,111.6 337.886869327,111.680426737 338.472126874,93.689943875 333.0,93.6" stroke="#000000" stroke-width="1" /><polygon fill="none" points="340.341067598,93.7619088584 339.555918626,111.744776847 344.434377332,112.040844298 345.803811684,94.0930129646 340.341067598,93.7619088584" stroke="#000000" stroke-width="1" /><polygon fill="none" points="347.667710886,94.2472974074 346.098907517,112.178801973 350.959338335,112.689885808 353.110342696,94.8188707206 347.667710886,94.2472974074" stroke="#000000" stroke-width="1" /><polygon fill="none" points="354.965540852,95.0551527369 352.616069392,112.901160242 357.448900234,113.626183733 360.377380045,95.866003385 354.965540852,95.0551527369" stroke="#000000" stroke-width="1" /><polygon fill="none" points="362.220238867,96.1837905479 359.094571669,113.910330102 363.890299413,114.847768004 367.590680146,97.2322299072 362.220238867,96.1837905479" stroke="#000000" stroke-width="1" /><polygon fill="none" points="369.417591367,97.6308609372 365.521678316,115.204189065 370.270892163,116.352073067 374.736129934,98.9147094002 369.417591367,97.6308609372" stroke="#000000" stroke-width="1" /><polygon fill="none" points="279.0,122.4 279.0,140.4 284.458498485,140.4 284.458498485,122.4 279.0,122.4" stroke="#000000" stroke-width="1" /><polygon fill="none" points="286.714285714,122.4 286.714285714,140.4 292.1727842,140.4 292.1727842,122.4 286.714285714,122.4" stroke="#000000" stroke-width="1" /><polygon fill="none" points="294.428571429,122.4 294.428571429,140.4 299.887069914,140.4 299.887069914,122.4 294.428571429,122.4" stroke="#000000" stroke-width="1" /><polygon fill="none" points="302.142857143,122.4 302.142857143,140.4 307.601355628,140.4 307.601355628,122.4 302.142857143,122.4" stroke="#000000" stroke-width="1" /><polygon fill="none" points="309.857142857,122.4 309.857142857,140.4 315.315641343,140.4 315.315641343,122.4 309.857142857,122.4" stroke="#000000" stroke-width="1" /><polygon fill="none" points="317.571428571,122.4 317.571428571,140.4 323.029927057,140.4 323.029927057,122.4 317.571428571,122.4" stroke="#000000" stroke-width="1" /><polygon fill="none" points="325.285714286,122.4 325.285714286,140.4 330.744212771,140.4 330.744212771,122.4 325.285714286,122.4" stroke="#000000" stroke-width="1" /><polygon fill="none" points="333.0,122.4 333.0,140.4 337.76826948,140.495002236 338.474687911,122.508869439 333.0,122.4" stroke="#000000" stroke-width="1" /><polygon fill="none" points="340.300735624,122.593665634 339.358688412,140.56899726 344.115013599,140.917115632 345.761785367,122.992603289 340.300735624,122.593665634" stroke="#000000" stroke-width="1" /><polygon fill="none" points="347.580682814,123.174069715 345.699170475,141.075463832 350.429943379,141.675617196 353.012554797,123.861855149 347.580682814,123.174069715" stroke="#000000" stroke-width="1" /><polygon fill="none" points="354.819129672,124.139436987 352.003309301,141.917827117 356.695019168,142.768154658 360.206391479,125.113969191 354.819129672,124.139436987" stroke="#000000" stroke-width="1" /><polygon fill="none" points="361.995516651,125.486819322 358.253106217,143.093476135 362.892390213,144.191347964 367.322898988,126.745127973 361.995516651,125.486819322" stroke="#000000" stroke-width="1" /><polygon fill="none" points="369.089510954,127.212111499 364.430768142,144.598776372 369.004460561,145.940808346 374.341962083,128.750372706 369.089510954,127.212111499" stroke="#000000" stroke-width="1" /><polygon fill="none" points="376.081078827,129.310072929 370.518772929,146.429090223 375.013952477,148.011162736 381.243817027,131.123629237 376.081078827,129.310072929" stroke="#000000" stroke-width="1" /><polygon fill="none" points="382.950555148,131.774355008 376.499932056,148.578802685 380.903966803,150.39608313 388.009118754,133.857739326 382.950555148,131.774355008" stroke="#000000" stroke-width="1" /><polygon fill="none" points="389.678709728,134.597533653 382.357450153,151.04135189 386.658039774,153.08832043 394.619004399,136.944496774 389.678709728,134.597533653" stroke="#000000" stroke-width="1" /><polygon fill="none" points="396.246809849,137.771146551 388.074980853,153.809263987 392.260195877,156.079742244 401.055152725,140.374687833 396.246809849,137.771146551" stroke="#000000" stroke-width="1" /><polygon fill="none" points="402.636678615,141.285734569 393.636678615,156.874191837 397.694996429,159.361374053 407.299839135,144.13813535 402.636678615,141.285734569" stroke="#000000" stroke-width="1" /><polygon fill="none" points="408.830748815,145.13088672 399.027246185,160.226956943 402.947583642,162.92344317 413.335986,148.223746015 408.830748815,145.13088672" stroke="#000000" stroke-width="1" /><polygon fill="none" points="414.812112048,149.295288102 404.231977506,163.857594001 408.003720025,166.755424858 419.147208145,152.619560098 414.812112048,149.295288102" stroke="#000000" stroke-width="1" /><polygon fill="none" points="420.564562984,153.766770158 409.236795945,167.755397465 412.84982308,170.846089994 424.717853437,157.312803052 420.564562984,153.766770158" stroke="#000000" stroke-width="1" /><polygon fill="none" points="279.0,151.2 279.0,169.2 284.458498485,169.2 284.458498485,151.2 279.0,151.2" stroke="#000000" stroke-width="1" /><polygon fill="none" points="286.714285714,151.2 286.714285714,169.2 292.1727842,169.2 292.1727842,151.2 286.714285714,151.2" stroke="#000000" stroke-width="1" /><polygon fill="none" points="294.428571429,151.2 294.428571429,169.2 299.887069914,169.2 299.887069914,151.2 294.428571429,151.2" stroke="#000000" stroke-width="1" /><polygon fill="none" points="302.142857143,151.2 302.142857143,169.2 307.601355628,169.2 307.601355628,151.2 302.142857143,151.2" stroke="#000000" stroke-width="1" /><polygon fill="none" points="309.857142857,151.2 309.857142857,169.2 315.315641343,169.2 315.315641343,151.2 309.857142857,151.2" stroke="#000000" stroke-width="1" /><polygon fill="none" points="317.571428571,151.2 317.571428571,169.2 323.029927057,169.2 323.029927057,151.2 317.571428571,151.2" stroke="#000000" stroke-width="1" /><polygon fill="none" points="325.285714286,151.2 325.285714286,169.2 330.744212771,169.2 330.744212771,151.2 325.285714286,151.2" stroke="#000000" stroke-width="1" /><polygon fill="none" points="333.0,151.2 333.0,169.2 337.587590303,169.315820387 338.47840598,151.337877027 333.0,151.2" stroke="#000000" stroke-width="1" /><polygon fill="none" points="340.393673083,151.451261868 339.191405676,169.411065683 343.7601207,169.838966696 345.849741263,151.960670192 340.393673083,151.451261868" stroke="#000000" stroke-width="1" /><polygon fill="none" points="347.752709051,152.203760117 345.353543854,170.043154904 349.881821475,170.780893708 353.160914172,153.082092871 347.752709051,152.203760117" stroke="#000000" stroke-width="1" /><polygon fill="none" points="355.042691945,153.453645349 351.457344213,171.09295604 355.923893399,172.136678897 360.377813006,154.696420868 355.042691945,153.453645349" stroke="#000000" stroke-width="1" /><polygon fill="none" points="362.22964427,155.194543749 357.474127036,172.5549889 361.858066593,173.899271713 367.466920825,156.795448918 362.22964427,155.194543749" stroke="#000000" stroke-width="1" /><polygon fill="none" points="369.280236766,157.417618588 363.375789325,174.421662237 367.656779077,176.059566523 374.395517427,159.368568787 369.280236766,157.417618588" stroke="#000000" stroke-width="1" /><polygon fill="none" points="376.16198725,160.111653857 369.134980297,176.683351817 373.293342526,178.60649445 381.131868155,162.40286782 376.16198725,160.111653857" stroke="#000000" stroke-width="1" /><polygon fill="none" points="382.843445556,163.263157705 374.72526341,179.32849675 378.742092793,181.527131459 387.645396941,165.883245265 382.843445556,163.263157705" stroke="#000000" stroke-width="1" /><polygon fill="none" points="389.294362152,166.856482871 380.121262586,182.343711298 383.978523276,184.806819659 393.906841626,169.792543295 389.294362152,166.856482871" stroke="#000000" stroke-width="1" /><polygon fill="none" points="395.485838609,170.873960997 385.298790911,185.713909083 388.979399907,188.429298567 399.88839018,174.111689436 395.485838609,170.873960997" stroke="#000000" stroke-width="1" /><polygon fill="none" points="401.390458738,175.296047449 390.234960737,189.422436384 393.722857173,192.376842981 405.56379717,178.819847001 401.390458738,175.296047449" stroke="#000000" stroke-width="1" /><polygon fill="none" points="406.982399902,180.101473285 394.90827476,193.451211186 398.188475226,196.63040417 410.908480433,183.894570176 406.982399902,180.101473285" stroke="#000000" stroke-width="1" /><polygon fill="none" points="412.23752463,185.267401011 399.298698321,197.780864709 402.357338759,201.169751267 415.899598546,189.311960585 412.23752463,185.267401011" stroke="#000000" stroke-width="1" /><polygon fill="none" points="417.133453268,190.769581043 403.38771373,202.390882371 406.212078865,205.973610022 420.516110212,195.046822424 417.133453268,190.769581043" stroke="#000000" stroke-width="1" /><polygon fill="none" points="421.649618926,196.58250605 407.15835797,207.259741455 409.736899541,211.019796495 424.738817172,201.072813666 421.649618926,196.58250605" stroke="#000000" stroke-width="1" /><polygon fill="none" points="425.767306418,202.679560773 410.595245533,212.36504313 412.917590874,216.285343681 428.550392583,207.362591263 425.767306418,202.679560773" stroke="#000000" stroke-width="1" /><polygon fill="none" points="429.469677233,209.0331654 413.684578526,217.683636993 415.741531195,221.746619597 431.935397094,213.887948766 429.469677233,209.0331654" stroke="#000000" stroke-width="1" /><polygon fill="none" points="432.741782801,215.614911029 416.414146353,223.191736752 418.197680628,227.379435853 434.880284982,220.619945343 432.741782801,215.614911029" stroke="#000000" stroke-width="1" /><polygon fill="none" points="435.570568439,222.395686338 418.773317441,228.86502625 420.276568511,233.159146292 437.373402758,227.529025627 435.570568439,222.395686338" stroke="#000000" stroke-width="1" /><polygon fill="none" points="437.944870409,229.345795051 420.753025459,234.678755507 421.970277084,239.060735748 439.404982613,234.585130414 437.944870409,229.345795051" stroke="#000000" stroke-width="1" /><polygon fill="none" points="439.855408382,236.435064296 422.345752434,240.607827001 423.27242373,245.058899485 440.967132914,241.757798621 439.855408382,236.435064296" stroke="#000000" stroke-width="1" /><polygon fill="none" points="441.29477551,243.63294444 423.545510938,246.626872823 424.178143766,251.128114272 442.053827737,249.016261397 441.29477551,243.63294444" stroke="#000000" stroke-width="1" /><polygon fill="none" points="442.257428004,250.908601342 424.347827333,252.710323792 424.684075535,257.242702435 442.660897149,256.329529596 442.257428004,250.908601342" stroke="#000000" stroke-width="1" /><polygon fill="none" points="442.73967584,258.231002354 424.749727692,258.83247194 424.788349168,263.376890512 442.786019577,263.666476161 442.73967584,258.231002354" stroke="#000000" stroke-width="1" /><polygon fill="none" points="442.73967584,265.568997646 424.749727692,264.96752806 424.490579993,269.50486435 442.428717231,270.995915127 442.73967584,265.568997646" stroke="#000000" stroke-width="1" /><polygon fill="none" points="442.257428004,272.891398658 424.347827333,271.089676208 423.791867145,275.600822652 441.590355138,278.286679162 442.257428004,272.891398658" stroke="#000000" stroke-width="1" /><polygon fill="none" points="441.29477551,280.16705556 423.545510938,277.173127177 422.694797506,281.639031016 440.274143884,285.507697572 441.29477551,280.16705556" stroke="#000000" stroke-width="1" /><polygon fill="none" points="439.855408382,287.364935704 422.345752434,283.192172999 421.203454624,287.593878503 438.485145759,292.628076702 439.855408382,287.364935704" stroke="#000000" stroke-width="1" /><polygon fill="none" points="437.944870409,294.454204949 420.753025459,289.121244493 419.323431867,293.439938672 436.230283532,299.617184562 437.944870409,294.454204949" stroke="#000000" stroke-width="1" /><polygon fill="none" points="435.570568439,301.404313662 418.773317441,294.93497375 417.061848638,299.152036824 433.518350728,306.444741324 435.570568439,301.404313662" stroke="#000000" stroke-width="1" /><polygon fill="none" points="432.741782801,308.185088971 416.414146353,300.608263248 414.427368074,304.705324958 430.360021858,313.080917081 432.741782801,308.185088971" stroke="#000000" stroke-width="1" /><polygon fill="none" points="429.469677233,314.7668346 413.684578526,306.116363007 411.43021439,310.075365603 426.767860767,319.496437921 429.469677233,314.7668346" stroke="#000000" stroke-width="1" /><polygon fill="none" points="425.767306418,321.120439227 410.595245533,311.43495687 408.082187678,315.238225292 422.756324996,325.662701009 425.767306418,321.120439227" stroke="#000000" stroke-width="1" /><polygon fill="none" points="421.649618926,327.21749395 407.15835797,316.540258545 404.396673846,320.170578002 418.341763845,331.551898879 421.649618926,327.21749395" stroke="#000000" stroke-width="1" /><polygon fill="none" points="417.133453268,333.030418957 403.38771373,321.409117629 400.388647234,324.849818397 413.542407759,337.137152692 417.133453268,333.030418957" stroke="#000000" stroke-width="1" /><polygon fill="none" points="412.23752463,338.532598989 399.298698321,326.019135291 396.074663452,329.254184175 408.378346613,342.39265367 412.23752463,338.532598989" stroke="#000000" stroke-width="1" /><polygon fill="none" points="406.982399902,343.698526715 394.90827476,330.348788814 391.472840043,333.362886311 402.871494606,347.293811412 406.982399902,343.698526715" stroke="#000000" stroke-width="1" /><polygon fill="none" points="401.390458738,348.503952551 390.234960737,334.377563616 386.602822834,337.156245468 397.045539639,351.817407281 401.390458738,348.503952551" stroke="#000000" stroke-width="1" /><polygon fill="none" points="395.485838609,352.926039003 385.298790911,338.086090917 381.485736058,340.615832347 390.925875398,355.941750566 395.485838609,352.926039003" stroke="#000000" stroke-width="1" /><polygon fill="none" points="389.294362152,356.943517129 380.121262586,341.456288702 376.144114826,343.724609359 384.539514746,359.646834711 389.294362152,356.943517129" stroke="#000000" stroke-width="1" /><polygon fill="none" points="382.843445556,360.536842295 374.72526341,344.47150325 370.601818957,346.467070617 377.914983564,362.91449058 382.843445556,360.536842295" stroke="#000000" stroke-width="1" /><polygon fill="none" points="376.16198725,363.688346143 369.134980297,347.116648183 364.883927799,348.829377053 371.082194724,365.728533455 376.16198725,363.688346143" stroke="#000000" stroke-width="1" /><polygon fill="none" points="369.280236766,366.382381412 363.375789325,349.378337763 359.016616272,350.799483291 364.072302551,368.074900399 369.280236766,366.382381412" stroke="#000000" stroke-width="1" /><polygon fill="none" points="362.22964427,368.605456251 357.474127036,351.2450111 353.027013056,352.367252993 356.917538765,369.9417746 362.22964427,368.605456251" stroke="#000000" stroke-width="1" /><polygon fill="none" points="355.042691945,370.346354651 351.457344213,352.70704396 346.943042452,353.524559475 349.65103156,371.319693501 355.042691945,370.346354651" stroke="#000000" stroke-width="1" /><polygon fill="none" points="347.752709051,371.596239883 345.353543854,353.756845096 340.793252131,354.265368756 342.306610102,372.201637812 347.752709051,371.596239883" stroke="#000000" stroke-width="1" /><polygon fill="none" points="279.0,180.0 279.0,198.0 284.458498485,198.0 284.458498485,180.0 279.0,180.0" stroke="#000000" stroke-width="1" /><polygon fill="none" points="286.714285714,180.0 286.714285714,198.0 292.1727842,198.0 292.1727842,180.0 286.714285714,180.0" stroke="#000000" stroke-width="1" /><polygon fill="none" points="294.428571429,180.0 294.428571429,198.0 299.887069914,198.0 299.887069914,180.0 294.428571429,180.0" stroke="#000000" stroke-width="1" /><polygon fill="none" points="302.142857143,180.0 302.142857143,198.0 307.601355628,198.0 307.601355628,180.0 302.142857143,180.0" stroke="#000000" stroke-width="1" /><polygon fill="none" points="309.857142857,180.0 309.857142857,198.0 315.315641343,198.0 315.315641343,180.0 309.857142857,180.0" stroke="#000000" stroke-width="1" /><polygon fill="none" points="317.571428571,180.0 317.571428571,198.0 323.029927057,198.0 323.029927057,180.0 317.571428571,180.0" stroke="#000000" stroke-width="1" /><polygon fill="none" points="325.285714286,180.0 325.285714286,198.0 330.744212771,198.0 330.744212771,180.0 325.285714286,180.0" stroke="#000000" stroke-width="1" /><polygon fill="none" points="333.0,180.0 333.0,198.0 337.278845767,198.147532539 338.484231835,180.187937765 333.0,180.0" stroke="#000000" stroke-width="1" /><polygon fill="none" points="340.340800401,180.337027396 338.72729284,198.264564688 342.97350667,198.805705737 345.783925872,181.026460986 340.340800401,180.337027396" stroke="#000000" stroke-width="1" /><polygon fill="none" points="347.61860319,181.344856839 344.404579084,199.055589434 348.581239907,199.984897857 352.9740644,182.529151153 347.61860319,181.344856839" stroke="#000000" stroke-width="1" /><polygon fill="none" points="354.771208556,183.013797469 349.982545335,200.365128962 354.053685609,201.673338205 359.993546952,184.681632958 354.771208556,183.013797469" stroke="#000000" stroke-width="1" /><polygon fill="none" points="361.737982889,185.327918427 355.413236055,202.180146098 359.344303575,203.854374183 366.783377499,187.463517611 361.737982889,185.327918427" stroke="#000000" stroke-width="1" /><polygon fill="none" points="368.46057073,188.265366145 360.650663426,204.482805767 364.408927664,206.506835975 373.287319118,190.848797618 368.46057073,188.265366145" stroke="#000000" stroke-width="1" /><polygon fill="none" points="374.883527536,191.798782726 365.651340543,207.250861011 369.206230958,209.605476708 379.452456356,194.806325885 374.883527536,191.798782726" stroke="#000000" stroke-width="1" /><polygon fill="none" points="380.954856513,195.895802497 370.374721971,210.458108396 373.698090831,213.121463163 385.22965359,199.300353933 380.954856513,195.895802497" stroke="#000000" stroke-width="1" /><polygon fill="none" points="386.62643963,200.519601011 374.783542563,214.074887399 377.849850129,217.022891 390.573904886,204.291102809 386.62643963,200.519601011" stroke="#000000" stroke-width="1" /><polygon fill="none" points="391.854360106,205.629470096 378.844052557,218.068597778 381.630477609,221.275299387 395.444577757,209.735341107 391.854360106,205.629470096" stroke="#000000" stroke-width="1" /><polygon fill="none" points="396.599120421,211.181393908 382.526153737,222.404210341 385.012636833,225.842162625 399.80555936,215.586947214 396.599120421,211.181393908" stroke="#000000" stroke-width="1" /><polygon fill="none" points="400.825765772,217.128604006 385.803447205,227.044749672 387.972677628,230.685340549 403.62531862,221.797436973 400.825765772,217.128604006" stroke="#000000" stroke-width="1" /><polygon fill="none" points="404.503927473,223.422095846 388.6532079,231.951731771 390.490567579,235.765474526 406.876901174,228.316442958 404.503927473,223.422095846" stroke="#000000" stroke-width="1" /><polygon fill="none" points="407.607803832,230.011094262 391.056303926,237.085544831 392.549782897,241.042321392 409.537875973,235.092137053 407.607803832,230.011094262" stroke="#000000" stroke-width="1" /><polygon fill="none" points="410.116097559,236.843461007 392.997080265,242.405766905 394.137178292,246.475023198 411.590252711,242.071593475 410.116097559,236.843461007" stroke="#000000" stroke-width="1" /><polygon fill="none" points="412.01192877,243.866042859 394.463226351,247.87141967 395.242854469,252.022315793 413.020388339,249.201094513 412.01192877,243.866042859" stroke="#000000" stroke-width="1" /><polygon fill="none" points="413.282741402,251.024963764 395.44564569,253.441162549 395.860039713,257.642683782 413.818898784,256.426385759 413.282741402,251.024963764" stroke="#000000" stroke-width="1" /><polygon fill="none" points="413.92021847,258.265868798 395.938343273,259.073435744 395.984998935,263.294473131 413.980589033,263.692891282 413.92021847,258.265868798" stroke="#000000" stroke-width="1" /><polygon fill="none" points="413.92021847,265.534131202 395.938343273,264.726564256 395.616979854,268.935975454 413.504411069,270.945901952 413.92021847,265.534131202" stroke="#000000" stroke-width="1" /><polygon fill="none" points="413.282741402,272.775036236 395.44564569,270.358837451 394.758201837,274.525499811 412.393455091,278.130751907 413.282741402,272.775036236" stroke="#000000" stroke-width="1" /><polygon fill="none" points="412.01192877,279.933957141 394.463226351,275.92858033 393.413888517,280.021448607 410.654975119,285.192998932 412.01192877,279.933957141" stroke="#000000" stroke-width="1" /><polygon fill="none" points="410.116097559,286.956538993 392.997080265,281.394233095 391.592340878,285.382413962 408.300445737,292.078624233 410.116097559,286.956538993" stroke="#000000" stroke-width="1" /><polygon fill="none" points="407.607803832,293.788905738 391.056303926,286.714455169 389.305043211,290.567309598 405.345642492,298.734265869 407.607803832,293.788905738" stroke="#000000" stroke-width="1" /><polygon fill="none" points="404.503927473,300.377904154 388.6532079,291.848268229 386.566790361,295.535551054 401.810734589,305.107497794 404.503927473,300.377904154" stroke="#000000" stroke-width="1" /><polygon fill="none" points="400.825765772,306.671395994 385.803447205,296.755250328 383.395821266,300.247293751 397.720375165,311.147163272 400.825765772,306.671395994" stroke="#000000" stroke-width="1" /><polygon fill="none" points="396.599120421,312.618606092 382.526153737,301.395789659 379.813941155,304.663734332 393.10377184,316.803767295 396.599120421,312.618606092" stroke="#000000" stroke-width="1" /><polygon fill="none" points="391.854360106,318.170529904 378.844052557,305.731402222 375.846613111,308.747475819 387.994718681,322.029927817 391.854360106,318.170529904" stroke="#000000" stroke-width="1" /><polygon fill="none" points="386.62643963,323.280398989 374.783542563,309.725112601 371.522999336,312.462951742 382.431570387,326.780880281 386.62643963,323.280398989" stroke="#000000" stroke-width="1" /><polygon fill="none" points="380.954856513,327.904197503 370.374721971,313.341891604 366.875933509,315.776898856 376.457140641,331.015024394 380.954856513,327.904197503" stroke="#000000" stroke-width="1" /><polygon fill="none" points="374.883527536,332.001217274 365.651340543,316.549138989 361.94180823,318.658862675 370.118509196,334.694496785 374.883527536,332.001217274" stroke="#000000" stroke-width="1" /><polygon fill="none" points="368.46057073,335.534633855 360.650663426,319.317194233 356.760365689,321.0817154 363.466726501,337.785748585 368.46057073,335.534633855" stroke="#000000" stroke-width="1" /><polygon fill="none" points="361.737982889,338.472081573 355.413236055,321.619853902 351.37438522,323.022162298 356.556410205,340.260103505 361.737982889,338.472081573" stroke="#000000" stroke-width="1" /><polygon fill="none" points="354.771208556,340.786202531 349.982545335,323.434871038 345.829267948,324.461210714 349.445234487,342.094270176 354.771208556,340.786202531" stroke="#000000" stroke-width="1" /><polygon fill="none" points="347.61860319,342.455143161 344.404579084,324.744410566 340.172525813,325.384575963 342.19332027,343.270782653 347.61860319,342.455143161" stroke="#000000" stroke-width="1" /><polygon fill="none" points="340.340800401,343.462972604 338.72729284,325.535435312 334.453189284,325.783000552 334.862541409,343.778345251 340.340800401,343.462972604" stroke="#000000" stroke-width="1" /><polygon fill="none" points="333.0,343.8 333.0,325.8 327.541501515,325.8 327.541501515,343.8 333.0,343.8" stroke="#000000" stroke-width="1" /><polygon fill="none" points="325.285714286,343.8 325.285714286,325.8 319.8272158,325.8 319.8272158,343.8 325.285714286,343.8" stroke="#000000" stroke-width="1" /><polygon fill="none" points="317.571428571,343.8 317.571428571,325.8 312.112930086,325.8 312.112930086,343.8 317.571428571,343.8" stroke="#000000" stroke-width="1" /><polygon fill="none" points="309.857142857,343.8 309.857142857,325.8 304.398644372,325.8 304.398644372,343.8 309.857142857,343.8" stroke="#000000" stroke-width="1" /><polygon fill="none" points="302.142857143,343.8 302.142857143,325.8 296.684358657,325.8 296.684358657,343.8 302.142857143,343.8" stroke="#000000" stroke-width="1" /><polygon fill="none" points="294.428571429,343.8 294.428571429,325.8 288.970072943,325.8 288.970072943,343.8 294.428571429,343.8" stroke="#000000" stroke-width="1" /><polygon fill="none" points="286.714285714,343.8 286.714285714,325.8 281.255787229,325.8 281.255787229,343.8 286.714285714,343.8" stroke="#000000" stroke-width="1" /><polygon fill="none" points="279.0,343.8 279.0,325.8 272.94261558,325.899461013 273.527873126,343.889943875 279.0,343.8" stroke="#000000" stroke-width="1" /><polygon fill="none" points="271.658932402,343.961908858 270.873783429,325.97904087 264.826753964,326.345181632 266.196188316,344.293012965 271.658932402,343.961908858" stroke="#000000" stroke-width="1" /><polygon fill="none" points="264.332289114,344.447297407 262.763485744,326.515792842 256.738652943,327.147855634 258.889657304,345.018870721 264.332289114,344.447297407" stroke="#000000" stroke-width="1" /><polygon fill="none" points="257.034459148,345.255152737 254.684987688,327.409145232 248.694140143,328.305823037 251.622619955,346.066003385 257.034459148,345.255152737" stroke="#000000" stroke-width="1" /><polygon fill="none" points="249.779761133,346.383790548 246.654093935,328.657250994 240.70893912,329.816691811 244.409319854,347.432229907 249.779761133,346.383790548" stroke="#000000" stroke-width="1" /><polygon fill="none" points="242.582408633,347.830860937 238.686495582,330.257532809 232.798632295,331.677345733 237.263870066,349.1147094 242.582408633,347.830860937" stroke="#000000" stroke-width="1" /><polygon fill="none" points="235.456476086,349.593356414 230.797733275,332.206691541 224.978624679,333.883954543 230.200219653,351.109950768 235.456476086,349.593356414" stroke="#000000" stroke-width="1" /><polygon fill="none" points="228.415865541,351.667622068 223.00316115,334.500716954 217.264108544,336.431986292 223.232121119,353.413824411 228.415865541,351.667622068" stroke="#000000" stroke-width="1" /><polygon fill="none" points="221.474274367,354.049367784 215.317911787,337.13490061 209.670029238,339.31622178 216.373098962,356.021575899 221.474274367,354.049367784" stroke="#000000" stroke-width="1" /><polygon fill="none" points="214.645164113,356.733682397 207.75686233,340.103850812 202.211052282,342.530770936 209.636419482,358.927841465 214.645164113,356.733682397" stroke="#000000" stroke-width="1" /><polygon fill="none" points="207.941730654,359.715049628 200.334601943,343.401509462 194.901531896,346.069091011 203.035061963,362.126665194 207.941730654,359.715049628" stroke="#000000" stroke-width="1" /><polygon fill="none" points="201.37687575,362.987365676 193.065400712,347.021170679 187.755481075,349.924006398 196.581691372,365.61151773 201.37687575,362.987365676" stroke="#000000" stroke-width="1" /><polygon fill="none" points="194.963180136,366.543958289 185.963180136,350.955501021 180.786543303,354.087729935 190.288632637,369.375316346 194.963180136,366.543958289" stroke="#000000" stroke-width="1" /><polygon fill="none" points="188.712878227,370.377607153 179.041485276,355.196561128 174.007966001,358.551885496 184.167846605,373.410446198 188.712878227,370.377607153" stroke="#000000" stroke-width="1" /><polygon fill="none" points="279.0,208.8 279.0,226.8 284.458498485,226.8 284.458498485,208.8 279.0,208.8" stroke="#000000" stroke-width="1" /><polygon fill="none" points="286.714285714,208.8 286.714285714,226.8 292.1727842,226.8 292.1727842,208.8 286.714285714,208.8" stroke="#000000" stroke-width="1" /><polygon fill="none" points="294.428571429,208.8 294.428571429,226.8 299.887069914,226.8 299.887069914,208.8 294.428571429,208.8" stroke="#000000" stroke-width="1" /><polygon fill="none" points="302.142857143,208.8 302.142857143,226.8 307.601355628,226.8 307.601355628,208.8 302.142857143,208.8" stroke="#000000" stroke-width="1" /><polygon fill="none" points="309.857142857,208.8 309.857142857,226.8 315.315641343,226.8 315.315641343,208.8 309.857142857,208.8" stroke="#000000" stroke-width="1" /><polygon fill="none" points="317.571428571,208.8 317.571428571,226.8 323.029927057,226.8 323.029927057,208.8 317.571428571,208.8" stroke="#000000" stroke-width="1" /><polygon fill="none" points="325.285714286,208.8 325.285714286,226.8 330.744212771,226.8 330.744212771,208.8 325.285714286,208.8" stroke="#000000" stroke-width="1" /><polygon fill="none" points="333.0,208.8 333.0,226.8 336.631394253,226.998294758 338.494172408,209.09494151 333.0,208.8" stroke="#000000" stroke-width="1" /><polygon fill="none" points="340.554257704,209.358983589 337.992590615,227.175769542 341.55048372,227.913982694 345.942214301,210.457960739 340.554257704,209.358983589" stroke="#000000" stroke-width="1" /><polygon fill="none" points="347.939392115,211.021102917 342.868206092,228.291976442 346.270709134,229.548583842 353.101989172,212.895247449 347.939392115,211.021102917" stroke="#000000" stroke-width="1" /><polygon fill="none" points="354.992636289,213.742843891 347.515166055,230.116219808 350.687173445,231.855749759 359.818937777,216.344112831 354.992636289,213.742843891" stroke="#000000" stroke-width="1" /><polygon fill="none" points="361.5632086,217.454779868 351.831673886,232.597343459 354.707432051,234.772996413 365.95378429,220.718831147 361.5632086,217.454779868" stroke="#000000" stroke-width="1" /><polygon fill="none" points="367.516647136,222.065665722 355.729153925,235.66915806 358.253730456,238.225888683 371.385727303,225.915297356 367.516647136,222.065665722" stroke="#000000" stroke-width="1" /><polygon fill="none" points="372.737552656,227.467214617 359.134060317,239.254707828 361.263702554,242.13228762 376.014014421,231.815878369 372.737552656,227.467214617" stroke="#000000" stroke-width="1" /><polygon fill="none" points="377.130745245,233.538892138 361.988181654,243.270426852 363.689747732,246.406076908 379.758100807,238.293862077 377.130745245,233.538892138" stroke="#000000" stroke-width="1" /><polygon fill="none" points="380.621097982,240.152173254 364.247722066,247.629643488 365.497496937,250.959966279 382.556785888,245.217087166 380.621097982,240.152173254" stroke="#000000" stroke-width="1" /><polygon fill="none" points="383.152476697,247.173904155 365.881603172,252.245090179 366.663863984,255.707194014 384.366810883,252.450559078 383.152476697,247.173904155" stroke="#000000" stroke-width="1" /><polygon fill="none" points="384.686274756,254.468635593 366.869488803,257.030302681 367.175166703,260.562166874 385.161390601,259.858071811 384.686274756,254.468635593" stroke="#000000" stroke-width="1" /><polygon fill="none" points="385.2,261.9 367.2,261.9 367.025718312,265.44025103 384.929071561,267.303029185 385.2,261.9" stroke="#000000" stroke-width="1" /><polygon fill="none" points="384.686274756,269.331364407 366.869488803,266.769697319 366.217161079,270.257048502 383.673183034,274.648779083 384.686274756,269.331364407" stroke="#000000" stroke-width="1" /><polygon fill="none" points="383.152476697,276.626095845 365.881603172,271.554909821 364.758664161,274.927559366 381.412000554,281.758839403 383.152476697,276.626095845" stroke="#000000" stroke-width="1" /><polygon fill="none" points="380.621097982,283.647826746 364.247722066,276.170356512 362.667949876,279.365643875 378.179586804,288.497408208 380.621097982,283.647826746" stroke="#000000" stroke-width="1" /><polygon fill="none" points="377.130745245,290.261107862 361.988181654,280.529573148 359.97295698,283.484161663 374.027122245,294.730513902 377.130745245,290.261107862" stroke="#000000" stroke-width="1" /><polygon fill="none" points="372.737552656,296.332785383 359.134060317,284.545292172 356.71380705,287.196074827 369.024398377,300.328071673 372.737552656,296.332785383" stroke="#000000" stroke-width="1" /><polygon fill="none" points="367.516647136,301.734334278 355.729153925,288.13084194 352.944628438,290.416655589 363.261037689,305.166967456 367.516647136,301.734334278" stroke="#000000" stroke-width="1" /><polygon fill="none" points="361.5632086,306.345220132 351.831673886,291.202656541 348.734737186,293.06674273 356.846952018,309.135095805 361.5632086,306.345220132" stroke="#000000" stroke-width="1" /><polygon fill="none" points="354.992636289,310.057156109 347.515166055,293.683780192 344.168704393,295.07676582 349.911583506,312.13605477 354.992636289,310.057156109" stroke="#000000" stroke-width="1" /><polygon fill="none" points="347.939392115,312.778897083 342.868206092,295.508023558 339.34497409,296.391044159 342.601609025,314.093991058 347.939392115,312.778897083" stroke="#000000" stroke-width="1" /><polygon fill="none" points="340.554257704,314.441016411 337.992590615,296.624230458 334.372930107,296.971724839 335.07702517,314.957948738 340.554257704,314.441016411" stroke="#000000" stroke-width="1" /><polygon fill="none" points="333.0,315.0 333.0,297.0 327.541501515,297.0 327.541501515,315.0 333.0,315.0" stroke="#000000" stroke-width="1" /><polygon fill="none" points="325.285714286,315.0 325.285714286,297.0 319.8272158,297.0 319.8272158,315.0 325.285714286,315.0" stroke="#000000" stroke-width="1" /><polygon fill="none" points="317.571428571,315.0 317.571428571,297.0 312.112930086,297.0 312.112930086,315.0 317.571428571,315.0" stroke="#000000" stroke-width="1" /><polygon fill="none" points="309.857142857,315.0 309.857142857,297.0 304.398644372,297.0 304.398644372,315.0 309.857142857,315.0" stroke="#000000" stroke-width="1" /><polygon fill="none" points="302.142857143,315.0 302.142857143,297.0 296.684358657,297.0 296.684358657,315.0 302.142857143,315.0" stroke="#000000" stroke-width="1" /><polygon fill="none" points="294.428571429,315.0 294.428571429,297.0 288.970072943,297.0 288.970072943,315.0 294.428571429,315.0" stroke="#000000" stroke-width="1" /><polygon fill="none" points="286.714285714,315.0 286.714285714,297.0 281.255787229,297.0 281.255787229,315.0 286.714285714,315.0" stroke="#000000" stroke-width="1" /><polygon fill="none" points="279.0,315.0 279.0,297.0 273.030170802,297.083556789 273.52973972,315.076622978 279.0,315.0" stroke="#000000" stroke-width="1" /><polygon fill="none" points="271.716905192,315.13584393 271.051778203,297.148136847 265.089267835,297.454079802 266.253366352,315.416397989 271.716905192,315.13584393" stroke="#000000" stroke-width="1" /><polygon fill="none" points="264.444031845,315.543174847 263.11468635,297.592329726 257.167842328,298.120209405 258.994880425,316.027245223 264.444031845,315.543174847" stroke="#000000" stroke-width="1" /><polygon fill="none" points="257.191584048,316.221390604 255.199835774,298.33192614 249.276979431,299.080967447 251.764461594,316.908262039 257.191584048,316.221390604" stroke="#000000" stroke-width="1" /><polygon fill="none" points="249.969731212,317.169489177 247.318300647,299.365840226 241.427713297,300.33494415 244.572241925,318.058147577 249.969731212,317.169489177" stroke="#000000" stroke-width="1" /><polygon fill="none" points="242.788590896,318.386070985 239.481099575,300.692555191 233.631008821,301.880301261 237.428288865,319.475205758 242.788590896,318.386070985" stroke="#000000" stroke-width="1" /><polygon fill="none" points="235.658211838,319.86934212 231.699177397,302.310126696 225.897743629,303.714776141 230.342588462,321.157349185 235.658211838,319.86934212" stroke="#000000" stroke-width="1" /><polygon fill="none" points="228.588557243,321.617118455 223.983387247,304.216187178 218.238690394,305.835686762 223.325028893,323.102103897 228.588557243,321.617118455" stroke="#000000" stroke-width="1" /><polygon fill="none" points="221.589488401,323.62683062 216.344472957,306.407951069 210.66449952,308.239937584 216.385384357,325.306614961 221.589488401,323.62683062" stroke="#000000" stroke-width="1" /><polygon fill="none" points="214.670748677,325.895529787 208.793051846,308.882220881 203.185682261,310.924026275 209.533299396,327.767652864 214.670748677,325.895529787" stroke="#000000" stroke-width="1" /><polygon fill="none" points="207.841947943,328.419894263 201.339597951,311.635394134 195.812594326,313.884051223 202.778273679,330.481620658 207.841947943,328.419894263" stroke="#000000" stroke-width="1" /><polygon fill="none" points="201.11254749,331.196236804 193.994425767,314.663471061 188.555420017,317.115719815 196.129647307,333.444561812 201.11254749,331.196236804" stroke="#000000" stroke-width="1" /><polygon fill="none" points="194.491845472,334.220512651 186.767674514,317.962063063 181.42415694,320.614357408 189.596586683,336.652168733 194.491845472,334.220512651" stroke="#000000" stroke-width="1" /><polygon fill="none" points="187.988962911,337.488328197 179.669293007,321.52640185 174.428601325,324.374916963 183.188070965,340.099791894 187.988962911,337.488328197" stroke="#000000" stroke-width="1" /><polygon fill="none" points="181.612830313,340.994950264 172.709025131,325.35134923 167.578333999,328.391989269 176.912879155,343.78244952 181.612830313,340.994950264" stroke="#000000" stroke-width="1" /><polygon fill="none" points="175.372174907,344.735315915 165.896395975,329.431407471 160.882707021,332.659813717 170.779577827,347.69483777 175.372174907,344.735315915" stroke="#000000" stroke-width="1" /><polygon fill="none" points="169.275508548,348.704042759 159.240698639,333.760730204 154.350831007,337.172289555 164.796509527,351.831341375 169.275508548,348.704042759" stroke="#000000" stroke-width="1" /><polygon fill="none" points="163.331116278,352.895439684 152.750981736,338.333133785 147.991563166,341.922987567 158.971781861,356.186044652 163.331116278,352.895439684" stroke="#000000" stroke-width="1" /><polygon fill="none" points="157.547045585,357.30351796 146.436037601,343.142109076 141.813496042,346.905162125 153.313257253,360.752742856 157.547045585,357.30351796" stroke="#000000" stroke-width="1" /><polygon fill="none" points="151.931096339,361.922002668 140.304391214,348.180833579 135.824946978,352.111763556 147.828543414,365.524953803 151.931096339,361.922002668" stroke="#000000" stroke-width="1" /><polygon fill="none" points="146.490811427,366.744344382 134.364289841,353.442183872 130.03394829,357.535450761 142.524984483,370.495929719 146.490811427,366.744344382" stroke="#000000" stroke-width="1" /><polygon fill="none" points="141.233468065,371.763731061 128.623693388,358.918748281 124.448238158,363.168604039 137.409652854,375.658669253 141.233468065,371.763731061" stroke="#000000" stroke-width="1" /><polygon fill="none" points="136.16606979,376.973100098 123.090265458,364.602839751 119.075252196,369.003338065 132.489341663,381.005929609 136.16606979,376.973100098" stroke="#000000" stroke-width="1" /><polygon fill="none" points="131.295339117,382.365150478 117.771365105,370.486508851 113.922115719,375.031514972 127.770557924,386.530238749 131.295339117,382.365150478" stroke="#000000" stroke-width="1" /><polygon fill="none" points="126.627710827,387.932354987 112.674039257,376.561556874 108.99563666,381.24475749 123.259516297,392.223907626 126.627710827,387.932354987" stroke="#000000" stroke-width="1" /><polygon fill="none" points="122.169325886,393.666972445 107.805015795,382.81954899 104.302299121,387.634462102 118.962133445,398.0790424 122.169325886,393.666972445" stroke="#000000" stroke-width="1" /><polygon fill="none" points="117.926025952,399.561059917 103.17069726,389.251827396 99.8482575357,394.19181219 114.884022977,404.087556609 117.926025952,399.561059917" stroke="#000000" stroke-width="1" /><polygon fill="none" points="113.903348455,405.606484864 98.7771551651,395.849524447 95.6393314117,400.907791112 111.030490923,410.241183255 113.903348455,405.606484864" stroke="#000000" stroke-width="1" /><polygon fill="none" points="110.106522198,411.794937205 94.630124872,402.603575728 91.681000618,407.773195211 107.406531727,416.531486787 110.106522198,411.794937205" stroke="#000000" stroke-width="1" /><polygon fill="none" points="106.540463477,418.117941269 90.7350010119,409.504733025 87.9784011871,414.77864671 104.01682471,422.949874946 106.540463477,418.117941269" stroke="#000000" stroke-width="1" /><polygon fill="none" points="103.209772656,424.566867604 87.0968334112,416.5435772 84.5363215987,421.914606483 100.865730979,429.487610464 103.209772656,424.566867604" stroke="#000000" stroke-width="1" /><polygon fill="none" points="100.118731174,431.132944638 83.720323488,423.710530923 81.3591995077,429.171386685 97.957290735,436.1358226 100.118731174,431.132944638" stroke="#000000" stroke-width="1" /><polygon fill="none" points="97.2712989627,437.807270166 80.6098210867,430.995871265 78.4511188841,436.539163227 95.2952209628,442.885518493 97.2712989627,437.807270166" stroke="#000000" stroke-width="1" /><polygon fill="none" points="94.6711122057,444.580822671 77.7693217146,438.389742136 75.8158075304,444.007988092 92.8829134431,449.727594351 94.6711122057,444.580822671" stroke="#000000" stroke-width="1" /><polygon fill="none" points="92.3214814411,451.444472457 75.2024641477,445.882166558 73.4566349416,451.567801488 90.7234330747,456.652846447 92.3214814411,451.444472457" stroke="#000000" stroke-width="1" /><polygon fill="none" points="90.2253899493,458.388992602 72.9125283722,453.463058781 71.3766104792,459.208443845 88.8195164634,463.651981943 90.2253899493,458.388992602" stroke="#000000" stroke-width="1" /><polygon fill="none" points="88.3854924046,465.405069746 70.9024338302,461.122236235 69.5783818258,466.919667646 87.1735707496,470.715629545 88.3854924046,465.405069746" stroke="#000000" stroke-width="1" /><polygon fill="none" points="86.8041137582,472.483314698 69.1747379414,468.849431333 68.0642336956,474.691149128 85.7876726473,477.83435 86.8041137582,472.483314698" stroke="#000000" stroke-width="1" /><polygon fill="none" points="85.4832483247,479.614272898 67.7316348723,476.634303127 66.8360867736,482.512499829 84.6635676675,484.998646441 85.4832483247,479.614272898" stroke="#000000" stroke-width="1" /><polygon fill="none" points="84.4245590485,486.788434726 66.5749545293,484.466448829 65.895496862,490.373278031 83.8026695038,492.198974605 84.4245590485,486.788434726" stroke="#000000" stroke-width="1" /><polygon fill="none" points="83.6293769269,493.996245697 65.7061617536,492.335415227 65.2436542153,498.263000093 83.2060595609,499.425752947 83.6293769269,493.996245697" stroke="#000000" stroke-width="1" /><polygon fill="none" points="83.0987005708,501.228116542 65.1263556994,500.230709994 64.8813830457,506.1711517 82.8744866102,506.669372653 83.0987005708,501.228116542" stroke="#000000" stroke-width="1" /><polygon fill="none" points="82.8331958903,508.474433207 64.8362693821,508.141812918 64.8091411906,514.087199051 82.8083665587,513.920207594 82.8331958903,508.474433207" stroke="#000000" stroke-width="1" /><polygon fill="none" points="82.8331958903,515.725566793 64.8362693821,516.058187082 65.027019929,522.00060001 83.0077823241,521.168624233 82.8331958903,515.725566793" stroke="#000000" stroke-width="1" /><polygon fill="none" points="83.0987005708,522.971883458 65.1263556994,523.969290006 65.5347439463,529.900815234 83.4724838097,528.404991515 83.0987005708,522.971883458" stroke="#000000" stroke-width="1" /><polygon fill="none" points="83.6293769269,530.203754303 65.7061617536,531.864584773 66.3316714429,537.777319309 84.2018879795,535.619690765 83.6293769269,530.203754303" stroke="#000000" stroke-width="1" /><polygon fill="none" points="84.4245590485,537.411565274 66.5749545293,539.733551171 67.416794392,545.619611918 85.1950790357,542.803125609 84.4245590485,537.411565274" stroke="#000000" stroke-width="1" /><polygon fill="none" points="85.4832483247,544.585727102 67.7316348723,547.565696873 68.7887389522,553.417229054 86.4508087046,549.945731962 85.4832483247,544.585727102" stroke="#000000" stroke-width="1" /><polygon fill="none" points="86.8041137582,551.716685302 69.1747379414,555.350568667 70.4457660458,561.159754314 87.9674966441,557.037988085 86.8041137582,551.716685302" stroke="#000000" stroke-width="1" /><polygon fill="none" points="88.3854924046,558.794930254 70.9024338302,563.077763765 72.3857721161,568.836830278 89.7432309839,564.07042475 88.3854924046,558.794930254" stroke="#000000" stroke-width="1" /><polygon fill="none" points="90.2253899493,565.811007398 72.9125283722,570.736941219 74.6062900825,576.438170008 91.7757690189,571.033635519 90.2253899493,565.811007398" stroke="#000000" stroke-width="1" /><polygon fill="none" points="92.3214814411,572.755527543 75.2024641477,578.317833442 77.1044905136,583.953568671 94.0625380756,577.918287162 92.3214814411,572.755527543" stroke="#000000" stroke-width="1" /><polygon fill="none" points="94.6711122057,579.619177329 77.7693217146,585.810257864 79.8771830409,591.372915296 96.6006365754,584.715130237 94.6711122057,579.619177329" stroke="#000000" stroke-width="1" /><polygon fill="none" points="97.2712989627,586.392729834 80.6098210867,593.204128735 82.9208180422,598.686204697 99.3868353232,591.415009823 97.2712989627,586.392729834" stroke="#000000" stroke-width="1" /><polygon fill="none" points="100.118731174,593.067055362 83.720323488,600.489469077 86.2314886213,605.883549543 102.41757905,598.00887643 100.118731174,593.067055362" stroke="#000000" stroke-width="1" /><polygon fill="none" points="103.209772656,599.633132396 87.0968334112,607.6564228 89.8049329155,612.955192594 105.688988239,604.487797098 103.209772656,599.633132396" stroke="#000000" stroke-width="1" /><polygon fill="none" points="106.540463477,606.082058731 90.7350010119,614.695266975 93.6365367641,619.891519095 109.196861274,610.842966661 106.540463477,606.082058731" stroke="#000000" stroke-width="1" /><polygon fill="none" points="110.106522198,612.405062795 94.630124872,621.596424272 97.7213367704,626.683069335 112.936676934,617.065719197 110.106522198,612.405062795" stroke="#000000" stroke-width="1" /><polygon fill="none" points="113.903348455,618.593515136 98.7771551651,628.350475553 102.054023793,633.320551346 116.903597287,623.147539646 113.903348455,618.593515136" stroke="#000000" stroke-width="1" /><polygon fill="none" points="117.926025952,624.638940083 103.17069726,634.948172604 106.628946899,639.794853738 121.092470992,629.080075587 117.926025952,624.638940083" stroke="#000000" stroke-width="1" /><polygon fill="none" points="122.169325886,630.533027555 107.805015795,641.38045101 111.440117816,646.097058654 125.497837074,634.855149151 122.169325886,630.533027555" stroke="#000000" stroke-width="1" /><polygon fill="none" points="126.627710827,636.267645013 112.674039257,647.638443126 116.481215916,652.218454819 130.113929184,640.464769059 126.627710827,636.267645013" stroke="#000000" stroke-width="1" /><polygon fill="none" points="131.295339117,641.834849522 117.771365105,653.713491149 121.745593757,658.150550655 134.93468039,645.90114276 131.295339117,641.834849522" stroke="#000000" stroke-width="1" /><polygon fill="none" points="136.16606979,647.226899902 123.090265458,659.597160249 127.226283227,663.885087434 139.953728519,651.156688621 136.16606979,647.226899902" stroke="#000000" stroke-width="1" /><polygon fill="none" points="141.233468065,652.436268939 128.623693388,665.281251719 132.916002307,669.41405243 145.164422098,656.224048161 141.233468065,652.436268939" stroke="#000000" stroke-width="1" /><polygon fill="none" points="146.490811427,657.455655618 134.364289841,670.757816128 138.807162477,674.729692041 150.559826899,661.096098275 146.490811427,657.455655618" stroke="#000000" stroke-width="1" /><polygon fill="none" points="151.931096339,662.277997332 140.304391214,676.019166421 144.891876797,679.824524818 156.132733124,665.765963404 151.931096339,662.277997332" stroke="#000000" stroke-width="1" /><polygon fill="none" points="157.547045585,666.89648204 146.436037601,681.057890924 151.161968675,684.691354371 161.875663251,670.227027614 157.547045585,666.89648204" stroke="#000000" stroke-width="1" /><polygon fill="none" points="163.331116278,671.304560316 152.750981736,685.866866215 157.608981339,689.323282107 167.780880544,674.472946536 163.331116278,671.304560316" stroke="#000000" stroke-width="1" /><polygon fill="none" points="169.275508548,675.495957241 159.240698639,690.439269796 164.224188014,693.713719716 173.840398258,678.497659104 169.275508548,675.495957241" stroke="#000000" stroke-width="1" /><polygon fill="none" points="175.372174907,679.464684085 165.896395975,694.768592529 170.99860282,697.856401396 180.045989517,682.295399051 175.372174907,679.464684085" stroke="#000000" stroke-width="1" /><polygon fill="none" points="181.612830313,683.205049736 172.709025131,698.84865077 177.922992392,701.74539572 186.389197899,685.8607061 181.612830313,683.205049736" stroke="#000000" stroke-width="1" /><polygon fill="none" points="187.988962911,686.711671803 179.669293007,702.67359815 184.987888196,705.375117113 192.861348694,689.188436793 187.988962911,686.711671803" stroke="#000000" stroke-width="1" /><polygon fill="none" points="194.491845472,689.979487349 186.767674514,706.237936937 192.183599552,708.740336871 199.453560843,692.273774909 194.491845472,689.979487349" stroke="#000000" stroke-width="1" /><polygon fill="none" points="201.11254749,693.003763196 193.994425767,709.536528939 199.50022734,711.836193665 206.15675953,695.112241404 201.11254749,693.003763196" stroke="#000000" stroke-width="1" /><polygon fill="none" points="207.841947943,695.780105737 201.339597951,712.564605866 206.927678353,714.658203476 212.961689421,697.699703825 207.841947943,695.780105737" stroke="#000000" stroke-width="1" /><polygon fill="none" points="214.670748677,698.304470213 208.793051846,715.317779119 214.455680292,717.202268907 219.858928504,700.032385135 214.670748677,698.304470213" stroke="#000000" stroke-width="1" /><polygon fill="none" points="221.589488401,700.57316938 216.344472957,717.792048931 222.073797342,719.464687807 226.83890251,702.106871909 221.589488401,700.57316938" stroke="#000000" stroke-width="1" /><polygon fill="none" points="228.588557243,702.582881545 223.983387247,719.983812822 229.771446311,721.442161173 233.891899875,703.920121839 228.588557243,702.582881545" stroke="#000000" stroke-width="1" /><polygon fill="none" points="235.658211838,704.33065788 231.699177397,721.889873304 237.537913274,723.131800271 241.00808719,705.469470499 235.658211838,704.33065788" stroke="#000000" stroke-width="1" /><polygon fill="none" points="242.788590896,705.813929015 239.481099575,723.507444809 245.362370679,724.531132939 248.177525108,706.752637346 242.788590896,705.813929015" stroke="#000000" stroke-width="1" /><polygon fill="none" points="249.969731212,707.030510823 247.318300647,724.834159774 253.233894858,725.638109021 255.390184636,707.767730894 249.969731212,707.030510823" stroke="#000000" stroke-width="1" /><polygon fill="none" points="257.191584048,707.978609396 255.199835774,725.86807386 261.141483877,726.451104917 262.635963773,708.513253043 257.191584048,707.978609396" stroke="#000000" stroke-width="1" /><polygon fill="none" points="264.444031845,708.656825153 263.11468635,726.607670274 269.074075687,726.968927203 269.90470442,708.988102531 264.444031845,708.656825153" stroke="#000000" stroke-width="1" /><polygon fill="none" points="271.716905192,709.06415607 271.051778203,727.051863153 277.020566477,727.190815306 277.186209508,709.191577478 271.716905192,709.06415607" stroke="#000000" stroke-width="1" /><polygon fill="none" points="279.0,709.2 279.0,727.2 284.458498485,727.2 284.458498485,709.2 279.0,709.2" stroke="#000000" stroke-width="1" /><polygon fill="none" points="286.714285714,709.2 286.714285714,727.2 292.1727842,727.2 292.1727842,709.2 286.714285714,709.2" stroke="#000000" stroke-width="1" /><polygon fill="none" points="294.428571429,709.2 294.428571429,727.2 299.887069914,727.2 299.887069914,709.2 294.428571429,709.2" stroke="#000000" stroke-width="1" /><polygon fill="none" points="302.142857143,709.2 302.142857143,727.2 307.601355628,727.2 307.601355628,709.2 302.142857143,709.2" stroke="#000000" stroke-width="1" /><polygon fill="none" points="309.857142857,709.2 309.857142857,727.2 315.315641343,727.2 315.315641343,709.2 309.857142857,709.2" stroke="#000000" stroke-width="1" /><polygon fill="none" points="317.571428571,709.2 317.571428571,727.2 323.029927057,727.2 323.029927057,709.2 317.571428571,709.2" stroke="#000000" stroke-width="1" /><polygon fill="none" points="325.285714286,709.2 325.285714286,727.2 330.744212771,727.2 330.744212771,709.2 325.285714286,709.2" stroke="#000000" stroke-width="1" /><polygon fill="none" points="279.0,237.6 279.0,255.6 284.458498485,255.6 284.458498485,237.6 279.0,237.6" stroke="#000000" stroke-width="1" /><polygon fill="none" points="286.714285714,237.6 286.714285714,255.6 292.1727842,255.6 292.1727842,237.6 286.714285714,237.6" stroke="#000000" stroke-width="1" /><polygon fill="none" points="294.428571429,237.6 294.428571429,255.6 299.887069914,255.6 299.887069914,237.6 294.428571429,237.6" stroke="#000000" stroke-width="1" /><polygon fill="none" points="302.142857143,237.6 302.142857143,255.6 307.601355628,255.6 307.601355628,237.6 302.142857143,237.6" stroke="#000000" stroke-width="1" /><polygon fill="none" points="309.857142857,237.6 309.857142857,255.6 315.315641343,255.6 315.315641343,237.6 309.857142857,237.6" stroke="#000000" stroke-width="1" /><polygon fill="none" points="317.571428571,237.6 317.571428571,255.6 323.029927057,255.6 323.029927057,237.6 317.571428571,237.6" stroke="#000000" stroke-width="1" /><polygon fill="none" points="325.285714286,237.6 325.285714286,255.6 330.744212771,255.6 330.744212771,237.6 325.285714286,237.6" stroke="#000000" stroke-width="1" /><polygon fill="none" points="333.0,237.6 333.0,255.6 334.418100195,255.811851726 338.50149407,238.281138836 333.0,237.6" stroke="#000000" stroke-width="1" /><polygon fill="none" points="340.481160359,238.875355924 334.91885446,255.994373218 336.125899841,256.720588635 345.426726401,241.309728006 340.481160359,238.875355924" stroke="#000000" stroke-width="1" /><polygon fill="none" points="347.093578163,242.501853822 336.513443621,257.064159721 337.364494844,258.120955072 350.972324383,246.338469119 347.093578163,242.501853822" stroke="#000000" stroke-width="1" /><polygon fill="none" points="352.173327237,247.969762359 337.611021338,258.5498969 338.094367792,259.749311557 354.677171144,252.748552097 352.173327237,247.969762359" stroke="#000000" stroke-width="1" /><polygon fill="none" points="355.332378261,254.643770439 338.213360968,260.206076338 338.386516898,261.4393486 356.32105373,259.905598746 355.332378261,254.643770439" stroke="#000000" stroke-width="1" /><polygon fill="none" points="356.4,261.9 338.4,261.9 338.301968147,263.134976831 355.832681038,267.218370706 356.4,261.9" stroke="#000000" stroke-width="1" /><polygon fill="none" points="355.332378261,269.156229561 338.213360968,263.593923662 337.820575947,264.809334 353.231436575,274.11016056 355.332378261,269.156229561" stroke="#000000" stroke-width="1" /><polygon fill="none" points="352.173327237,275.830237641 337.611021338,265.2501031 336.863241816,266.361735521 348.64572777,279.96956506 352.173327237,275.830237641" stroke="#000000" stroke-width="1" /><polygon fill="none" points="347.093578163,281.298146178 336.513443621,266.735840279 335.394716166,267.572399901 342.395475626,284.155203252 347.093578163,281.298146178" stroke="#000000" stroke-width="1" /><polygon fill="none" points="340.481160359,284.924644076 334.91885446,267.805626782 333.53622338,268.170199754 335.069973234,286.104736586 340.481160359,284.924644076" stroke="#000000" stroke-width="1" /><polygon fill="none" points="333.0,286.2 333.0,268.2 327.541501515,268.2 327.541501515,286.2 333.0,286.2" stroke="#000000" stroke-width="1" /><polygon fill="none" points="325.285714286,286.2 325.285714286,268.2 319.8272158,268.2 319.8272158,286.2 325.285714286,286.2" stroke="#000000" stroke-width="1" /><polygon fill="none" points="317.571428571,286.2 317.571428571,268.2 312.112930086,268.2 312.112930086,286.2 317.571428571,286.2" stroke="#000000" stroke-width="1" /><polygon fill="none" points="309.857142857,286.2 309.857142857,268.2 304.398644372,268.2 304.398644372,286.2 309.857142857,286.2" stroke="#000000" stroke-width="1" /><polygon fill="none" points="302.142857143,286.2 302.142857143,268.2 296.684358657,268.2 296.684358657,286.2 302.142857143,286.2" stroke="#000000" stroke-width="1" /><polygon fill="none" points="294.428571429,286.2 294.428571429,268.2 288.970072943,268.2 288.970072943,286.2 294.428571429,286.2" stroke="#000000" stroke-width="1" /><polygon fill="none" points="286.714285714,286.2 286.714285714,268.2 281.255787229,268.2 281.255787229,286.2 286.714285714,286.2" stroke="#000000" stroke-width="1" /><polygon fill="none" points="279.0,286.2 279.0,268.2 273.095393694,268.272013959 273.531158945,286.266738426 279.0,286.2" stroke="#000000" stroke-width="1" /><polygon fill="none" points="271.684961509,286.319417847 271.102087466,268.328857604 265.203012802,268.593450071 266.221252735,286.564626645 271.684961509,286.319417847" stroke="#000000" stroke-width="1" /><polygon fill="none" points="264.377779583,286.677537112 263.212642852,268.71528624 257.325423715,269.172161208 258.925070337,287.100940605 264.377779583,286.677537112" stroke="#000000" stroke-width="1" /><polygon fill="none" points="257.086300786,287.273955197 255.340123435,269.358853616 249.471068822,270.007500135 251.650444325,287.875077543 257.086300786,287.273955197" stroke="#000000" stroke-width="1" /><polygon fill="none" points="249.818351711,288.108001863 247.492965237,270.258840041 241.648361357,271.098533062 244.405179876,288.886167859 249.818351711,288.108001863" stroke="#000000" stroke-width="1" /><polygon fill="none" points="242.581729059,289.178740365 239.679572473,271.414239608 233.865674907,272.444041172 237.197044921,290.133076585 242.581729059,289.178740365" stroke="#000000" stroke-width="1" /><polygon fill="none" points="235.384189808,290.484969028 231.908307072,272.823761844 226.131333016,274.04252262 230.033760378,291.614405293 235.384189808,290.484969028" stroke="#000000" stroke-width="1" /><polygon fill="none" points="228.233441485,292.02522327 224.187478318,274.485833826 218.453598931,275.892194979 222.922990533,293.328494435 228.233441485,292.02522327" stroke="#000000" stroke-width="1" /><polygon fill="none" points="221.137132572,293.797778042 216.525332632,276.398602736 210.840665493,277.99099813 215.87233356,295.273426098 221.137132572,293.797778042" stroke="#000000" stroke-width="1" /><polygon fill="none" points="214.102843077,295.800650696 208.930043505,278.559938861 203.300645217,280.336597574 208.889312225,297.447027174 214.102843077,295.800650696" stroke="#000000" stroke-width="1" /><polygon fill="none" points="207.138075282,298.031604248 201.40970163,280.967439009 195.841560574,282.926388161 201.981364782,299.846872914 207.138075282,298.031604248" stroke="#000000" stroke-width="1" /><polygon fill="none" points="200.250244696,300.488151033 193.972305238,283.618430342 188.471334499,285.75749821 195.155836101,302.470290865 200.250244696,300.488151033" stroke="#000000" stroke-width="1" /><polygon fill="none" points="193.446671237,303.167556729 186.625750664,286.509974596 181.197781146,288.826794014 188.419969023,305.31436516 193.446671237,303.167556729" stroke="#000000" stroke-width="1" /><polygon fill="none" points="186.734570655,306.066844742 179.377823171,289.638872668 174.028596909,292.130884696 181.780895983,308.375941146 186.734570655,306.066844742" stroke="#000000" stroke-width="1" /><polygon fill="none" points="180.121046221,309.182800909 172.236188038,293.00166957 166.971351719,295.666127404 175.245630899,311.651630338 180.121046221,309.182800909" stroke="#000000" stroke-width="1" /><polygon fill="none" points="173.613080686,312.511978533 165.208381931,296.5946597 160.033480644,299.428632827 168.821061353,315.13781566 173.613080686,312.511978533" stroke="#000000" stroke-width="1" /><polygon fill="none" points="167.21752854,316.050703695 158.301804581,300.413892438 153.222275793,303.414270999 162.513941073,318.830656968 167.21752854,316.050703695" stroke="#000000" stroke-width="1" /><polygon fill="none" points="160.941108566,319.795080842 151.523710768,304.455178016 146.544878544,307.618677381 156.330882721,322.726096824 160.941108566,319.795080842" stroke="#000000" stroke-width="1" /><polygon fill="none" points="154.790396716,323.740998624 144.881202627,308.71409367 140.008272099,312.037259181 150.278351006,326.819866503 154.790396716,323.740998624" stroke="#000000" stroke-width="1" /><polygon fill="none" points="148.771819295,327.88413595 138.381222292,313.185990015 133.619274371,316.66520191 144.362656113,331.107492197 148.771819295,327.88413595" stroke="#000000" stroke-width="1" /><polygon fill="none" points="142.891646483,332.219968245 132.030544868,317.865997655 127.384531218,321.497476133 138.589947472,335.584301416 142.891646483,332.219968245" stroke="#000000" stroke-width="1" /><polygon fill="none" points="137.15598618,336.743773895 125.835771748,322.749033983 121.310510015,326.528844395 132.966207847,340.24542954 137.15598618,336.743773895" stroke="#000000" stroke-width="1" /><polygon fill="none" points="131.570778184,341.45064083 119.803324277,327.829810145 115.403493576,331.75386831 127.497247767,345.085826514 131.570778184,341.45064083" stroke="#000000" stroke-width="1" /><polygon fill="none" points="126.141788704,346.335473255 113.939437755,333.102838168 109.669574412,337.166915777 122.188700285,350.100263657 126.141788704,346.335473255" stroke="#000000" stroke-width="1" /><polygon fill="none" points="120.874605196,351.392998485 108.250155788,338.562438203 104.114649335,342.762168308 117.046016056,355.283340567 120.874605196,351.392998485" stroke="#000000" stroke-width="1" /><polygon fill="none" points="115.774631535,356.617773872 102.741324971,344.20274588 98.7444144017,348.533628446 112.074458752,360.629492104 115.774631535,356.617773872" stroke="#000000" stroke-width="1" /><polygon fill="none" points="110.847083501,362.004193796 97.4185899208,350.017719746 93.5643601778,354.475127259 107.279100781,366.132995425 110.847083501,362.004193796" stroke="#000000" stroke-width="1" /><polygon fill="none" points="106.096984582,367.546496721 92.28738862,356.001148768 88.5797673375,360.580331873 102.664819326,371.787977053 106.096984582,367.546496721" stroke="#000000" stroke-width="1" /><polygon fill="none" points="101.529162082,373.238772265 87.3529480979,362.146659885 83.795702571,366.842753053 98.2362926695,377.588419975 101.529162082,373.238772265" stroke="#000000" stroke-width="1" /><polygon fill="none" points="97.148243532,379.074968303 82.6202804161,368.447725589 79.2170148003,373.255752795 93.9979968241,383.528170739 97.148243532,379.074968303" stroke="#000000" stroke-width="1" /><polygon fill="none" points="92.9586533796,385.048898059 78.0941789594,374.897671522 74.8483316894,379.81255192 89.9542024294,389.600946537 92.9586533796,385.048898059" stroke="#000000" stroke-width="1" /><polygon fill="none" points="88.9646099625,391.154247192 73.779215019,381.489684066 70.6940564381,386.506237662 86.1089719219,395.800342279 88.9646099625,391.154247192" stroke="#000000" stroke-width="1" /><polygon fill="none" points="85.1701227405,397.38458085 69.679734656,388.216817928 66.7583648473,393.329771231 82.4661569573,402.119837614 85.1701227405,397.38458085" stroke="#000000" stroke-width="1" /><polygon fill="none" points="81.5789897806,403.733350698 65.7998558332,395.072003698 63.045202643,400.275995344 79.0293960744,408.552803928 81.5789897806,403.733350698" stroke="#000000" stroke-width="1" /><polygon fill="none" points="78.19479548,410.193901887 62.1434658021,402.048055364 59.5582830458,407.337641716 75.8021125869,415.092511273 78.19479548,410.193901887" stroke="#000000" stroke-width="1" /><polygon fill="none" points="75.0209085127,416.759479976 58.7142187327,409.1376778 56.3010845728,414.507338504 72.7875126895,421.732135245 75.0209085127,416.759479976" stroke="#000000" stroke-width="1" /><polygon fill="none" points="72.060479988,423.4232378 55.5155335717,416.333474188 53.2768490587,421.77761769 69.9885837646,428.464763801 72.060479988,423.4232378" stroke="#000000" stroke-width="1" /><polygon fill="none" points="69.3164418054,430.17824226 52.5505921169,423.627953395 50.4885798828,429.140922416 67.4080928758,435.283404006 69.3164418054,430.17824226" stroke="#000000" stroke-width="1" /><polygon fill="none" points="66.7915051937,437.017481057 49.8223372939,431.013537288 47.9390403883,436.589614254 65.0485854359,442.180988706 66.7915051937,437.017481057" stroke="#000000" stroke-width="1" /><polygon fill="none" points="64.4881594198,443.933869351 47.3334716227,438.482567985 45.6307524828,444.115980407 62.9123840348,449.150383142 64.4881594198,443.933869351" stroke="#000000" stroke-width="1" /><polygon fill="none" points="62.4086706566,450.920256352 45.0864558608,446.027315052 43.5659954058,451.712240862 61.0015874172,456.184391487 62.4086706566,450.920256352" stroke="#000000" stroke-width="1" /><polygon fill="none" points="60.5550809954,457.969431842 43.0835078122,453.639982628 41.7468046541,459.370555473 59.3180695965,463.27576332 60.5550809954,457.969431842" stroke="#000000" stroke-width="1" /><polygon fill="none" points="58.929207593,465.074132634 41.3266012899,461.312716499 40.1749710519,467.083030988 57.8634790949,470.417200032 58.929207593,465.074132634" stroke="#000000" stroke-width="1" /><polygon fill="none" points="57.5326419416,472.227048962 39.8174652219,469.037611113 38.8520399584,474.841728023 56.6392382996,477.601361182 57.5326419416,472.227048962" stroke="#000000" stroke-width="1" /><polygon fill="none" points="56.3667492535,479.420830819 38.5575828913,476.806716537 37.7793106013,482.638667989 55.646542926,484.820870789 56.3667492535,479.420830819" stroke="#000000" stroke-width="1" /><polygon fill="none" points="55.4326679496,486.648094245 37.548191301,484.612045374 36.9578355314,490.465839974 54.8863615801,492.068323584 55.4326679496,486.648094245" stroke="#000000" stroke-width="1" /></g><g id="icons"><g id="icon0" transform="translate(224.0, 22.5) scale(0.10413340183)"><path d="M344.191,168.108c-7.943,0-15.641,1.065-22.966,3.048l-12.992-35.019h4.499c13.233,0,24-10.766,24-24	c0-13.233-10.767-24-24-24H288c-4.418,0-8,3.582-8,8s3.582,8,8,8h24.732c4.411,0,8,3.589,8,8s-3.589,8-8,8h-16H147.258l-4.717-8.25	h16.293c4.418,0,8-3.582,8-8s-3.582-8-8-8h-39.257c-2.253,0-4.129-1.023-5.577-3.041c-2.578-3.589-7.573-4.41-11.165-1.833	c-3.589,2.577-4.409,7.575-1.833,11.164c4.431,6.17,11.201,9.709,18.575,9.709h4.532l8.574,14.994L112.834,171.7	c-7.895-2.333-16.247-3.592-24.888-3.592C39.452,168.108,0,207.561,0,256.054S39.452,344,87.946,344	c45.939,0,83.758-35.407,87.616-80.363h8.127c0.642,0,1.262-0.084,1.86-0.226c2.715,11.196,11.441,20.066,22.559,22.979v9.413	c0,4.418,3.582,8,8,8H240c4.418,0,8-3.582,8-8s-3.582-8-8-8h-15.892v-1.439c13.428-3.563,23.355-15.818,23.355-30.352	c0-7.426-2.596-14.253-6.922-19.635l54.453-89.926l11.235,30.281c-29.542,14.195-49.984,44.416-49.984,79.323	c0,48.494,39.452,87.946,87.946,87.946s87.946-39.453,87.946-87.946S392.686,168.108,344.191,168.108z M87.946,328	C48.275,328,16,295.726,16,256.054s32.275-71.946,71.946-71.946c6.337,0,12.482,0.832,18.34,2.377l-29.19,65.913	c-1.096,2.474-0.867,5.335,0.609,7.603s3.999,3.636,6.705,3.636h75.079C155.689,299.757,125.056,328,87.946,328z M121.213,192.292	c20.601,10.792,35.35,31.266,38.171,55.345H96.703L121.213,192.292z M175.488,247.637c-2.919-30.602-21.583-56.678-47.779-70.013	l14.834-33.496l51.3,89.718c-3.833,3.842-6.674,8.67-8.116,14.064c-0.652-0.172-1.332-0.272-2.037-0.272H175.488z M208.108,225.634	c-0.153,0.04-0.303,0.087-0.455,0.129l-5.742-10.043h6.197V225.634z M224.108,269.12v-13.334c0-4.418-3.582-8-8-8s-8,3.582-8,8	v13.39c-4.455-2.702-7.447-7.584-7.447-13.163c0-8.492,6.909-15.401,15.401-15.401s15.401,6.909,15.401,15.401	C231.464,261.553,228.512,266.406,224.108,269.12z M227.622,226.825c-1.141-0.454-2.312-0.846-3.514-1.165v-17.939	c0-4.418-3.664-8-8.082-8h-23.264l-36.357-63.583h126.13L227.622,226.825z M344.191,328c-39.671,0-71.946-32.275-71.946-71.946	c0-28.035,16.129-52.359,39.585-64.227l24.861,67.009c1.196,3.225,4.251,5.22,7.501,5.219c0.924,0,1.864-0.161,2.782-0.501	c4.142-1.537,6.254-6.141,4.717-10.283l-24.869-67.031c5.566-1.385,11.381-2.133,17.369-2.133c39.671,0,71.946,32.275,71.946,71.946	S383.862,328,344.191,328z" fill="#000000" /></g><g id="icon1" transform="translate(224.0, 51.3) scale(0.100446428571)"><path d="m 447.939,190.699 c 0.195,-1.673 -0.126,-3.421 -1.049,-4.984 l -30.671,-51.967 c -10.519,-17.551 -20.446,-27.8 -40.312,-29.533 -0.651,-0.171 -1.336,-0.263 -2.042,-0.263 l -349.865,0 c -13.233,0 -24,10.766 -24,24 l 0,134.056 c 0,21.674 18.169,32.064 32.056,35.774 0.932,25.667 22.09,46.264 47.981,46.264 23.749,0 43.514,-17.339 47.336,-40.023 l 193.688,0 c 3.823,22.684 23.592,40.023 47.346,40.023 23.749,0 43.514,-17.339 47.336,-40.023 l 24.257,0 c 4.418,0 8,-3.582 8,-8 l 0,-104.375 c 0,-0.322 -0.024,-0.637 -0.061,-0.949 z m -31.516,25.67 c 0,-4.411 3.589,-8 8,-8 l 7.577,0 0,15.75 -15.577,0 0,-7.75 z m 10.894,-32.337 -68.147,0 -19.897,-39.829 64.538,0 23.506,39.829 z m -411.317,16 8.583,0 0,24.086 -8.583,0 0,-24.086 z m 0,-16 0,-39.966 263.375,0 c 8.83,0 14.119,3.118 17.669,10.389 l 14.266,29.577 -295.31,0 z m 64.037,144.015 c -17.659,0 -32.025,-14.367 -32.025,-32.026 0,-17.656 14.366,-32.021 32.025,-32.021 17.653,0 32.016,14.365 32.016,32.021 0,17.659 -14.363,32.026 -32.016,32.026 z m 288.37,0 c -17.659,0 -32.025,-14.367 -32.025,-32.026 0,-17.656 14.366,-32.021 32.025,-32.021 17.653,0 32.016,14.365 32.016,32.021 0,17.659 -14.362,32.026 -32.016,32.026 z m 47.337,-40.023 C 411.925,265.34 392.158,248 368.407,248 c -23.756,0 -43.526,17.34 -47.347,40.024 l -193.686,0 C 123.554,265.34 103.788,248 80.037,248 58.535,248 40.289,262.203 34.187,281.719 26.708,279.394 16,273.979 16,262.009 l 0,-21.89 8.583,0 c 8.822,0 16,-7.177 16,-16 l 0,-24.086 283.282,0 c 4.418,0 8,-3.582 8,-8 l 0,-0.384 c 0,-1.203 -0.271,-2.392 -0.794,-3.476 L 311.438,147.47 c -6.286,-12.875 -17.073,-19.404 -32.063,-19.404 l -263.375,0 0,-0.113 c 0,-4.411 3.589,-8 8,-8 l 345.574,0 c 10.675,0 17.16,2.351 22.975,8.25 l -66.216,0 c -2.772,0 -5.347,1.435 -6.805,3.793 -1.458,2.357 -1.591,5.302 -0.352,7.782 l 27.111,54.271 c 0.895,3.442 4.022,5.983 7.744,5.983 l 52.832,0 c -3.992,4.288 -6.441,10.03 -6.441,16.337 l 0,15.75 c 0,4.418 3.582,8 8,8 l 23.578,0 0,47.905 -16.256,0 z" fill="#000000" /><path d="m 95.721,288.022 c -4.418,0 -8,3.582 -8,8 0,4.241 -3.448,7.691 -7.687,7.691 -4.241,0 -7.691,-3.45 -7.691,-7.691 0,-4.239 3.45,-7.688 7.691,-7.688 4.418,0 8,-3.582 8,-8 0,-4.418 -3.582,-8 -8,-8 -13.063,0 -23.691,10.626 -23.691,23.688 0,13.063 10.628,23.691 23.691,23.691 13.061,0 23.687,-10.628 23.687,-23.691 0,-4.418 -3.582,-8 -8,-8 z" fill="#000000" /><path d="m 384.091,288.022 c -4.418,0 -8,3.582 -8,8 0,4.241 -3.448,7.691 -7.687,7.691 -4.241,0 -7.691,-3.45 -7.691,-7.691 0,-4.239 3.45,-7.688 7.691,-7.688 4.418,0 8,-3.582 8,-8 0,-4.418 -3.582,-8 -8,-8 -13.063,0 -23.691,10.626 -23.691,23.688 0,13.063 10.628,23.691 23.691,23.691 13.061,0 23.687,-10.628 23.687,-23.691 0,-4.418 -3.582,-8 -8,-8 z" fill="#000000" /></g><g id="icon2" transform="translate(224.0, 80.1) scale(0.0968495904338)"><path d="M438.252,204.023l-45.113-36.719c-14.918-13.038-37.71-26.93-57.079-26.93H32.033c-17.645,0-32,14.355-32,32V257.8		l-0.03,1.294C0.001,259.157,0,259.22,0,259.283c0,19.553,13.887,35.921,32.315,39.768c3.262,14.415,16.166,25.214,31.553,25.214		c9.704,0,18.417-4.302,24.352-11.091c5.936,6.79,14.651,11.091,24.357,11.091c15.078,0,27.778-10.371,31.348-24.356h154.087		c3.571,13.984,16.274,24.356,31.354,24.356c9.704,0,18.417-4.302,24.351-11.091c5.936,6.79,14.651,11.091,24.357,11.091		c15.078,0,27.778-10.371,31.348-24.356h15.367c0.245,0,0.488-0.011,0.728-0.033c21.384-0.834,38.558-18.348,38.846-39.865		C464.962,254.981,466.992,226.083,438.252,204.023z M393.767,188.445l28.687,23.349H354.42c-0.527-0.109-1.073-0.167-1.633-0.167		c-4.501,0-8.162-3.661-8.162-8.162v-15.021H393.767z M63.868,308.265c-6.113,0-11.445-3.376-14.252-8.356h28.498		C75.307,304.889,69.978,308.265,63.868,308.265z M112.576,308.265c-6.113,0-11.445-3.376-14.252-8.356h28.498		C124.016,304.889,118.686,308.265,112.576,308.265z M329.366,308.265c-6.113,0-11.445-3.376-14.252-8.356h28.498		C340.805,304.889,335.476,308.265,329.366,308.265z M378.074,308.265c-6.113,0-11.445-3.376-14.252-8.356h28.498		C389.513,304.889,384.184,308.265,378.074,308.265z M448.467,258.189c-0.067,0.42-0.102,0.844-0.102,1.27		c0,13.481-10.968,24.448-24.448,24.448c-0.052,0-0.104,0-0.154,0.001h-21.31c-0.01,0-0.019-0.001-0.029-0.001		s-0.019,0.001-0.029,0.001h-48.65c-0.01,0-0.019-0.001-0.029-0.001s-0.019,0.001-0.029,0.001h-48.65		c-0.01,0-0.019-0.001-0.029-0.001s-0.019,0.001-0.029,0.001H136.956c-0.01,0-0.019-0.001-0.029-0.001s-0.019,0.001-0.029,0.001		H88.247c-0.01,0-0.019-0.001-0.029-0.001s-0.019,0.001-0.029,0.001H40.626c-13.55,0-24.579-11-24.626-24.539l0.031-1.288		c0.001-0.063,0.002-0.126,0.002-0.188v-85.52c0-8.823,7.178-16,16-16H336.06c11.151,0,25.749,7.311,37.852,16.071h-37.286		c-4.418,0-8,3.582-8,8v23.021c0,12.656,9.781,23.071,22.182,24.082c0.633,0.161,1.297,0.247,1.98,0.247h86.702		C450.515,242.738,448.573,257.464,448.467,258.189z" fill="#000000" /><path d="M304.542,172.445H40.208c-4.418,0-8,3.582-8,8v23.448c0,13.323,10.839,24.162,24.162,24.162h232.01		c13.322,0,24.161-10.839,24.161-24.162v-23.448C312.542,176.026,308.959,172.445,304.542,172.445z M296.542,203.893		c0,4.5-3.661,8.162-8.161,8.162H56.371c-4.5,0-8.162-3.661-8.162-8.162v-15.448h248.333V203.893z" fill="#000000" /></g><g id="icon3" transform="translate(224.0, 108.9) scale(0.100446428571)"><path d="m 412.372,195.323 c -0.179,-0.076 -0.361,-0.143 -0.545,-0.206 -2.249,-0.828 -4.616,-1.61 -7.138,-2.328 -29.402,-8.367 -90.439,-8.463 -93.023,-8.463 l -12.882,0 -25.392,-42.56 c -11.582,-19.32 -22.441,-29.789 -46.636,-29.789 -0.003,0 -0.01,0 -0.013,0 l -98.019,0.015 c -19.403,0.003 -38.674,13.06 -50.293,34.075 -0.031,0.055 -0.061,0.11 -0.089,0.166 l -11.598,22.196 -43.696,5.265 c -0.158,0.019 -0.316,0.043 -0.473,0.071 C 8.65,176.296 0,186.64 0,200.761 l 0,53.223 c 0,21.674 18.169,32.064 32.056,35.774 0.932,25.667 22.091,46.264 47.982,46.264 23.749,0 43.514,-17.339 47.336,-40.023 l 193.687,0 c 3.823,22.684 23.592,40.023 47.347,40.023 23.749,0 43.514,-17.339 47.336,-40.023 l 24.256,0 c 4.418,0 8,-3.582 8,-8 l 0,-46.583 c 0,-15.298 -6.432,-35.127 -35.628,-46.093 z m 14.594,29.08 -18.632,0.004 0,-7.84 c 0,-0.916 0.614,-2.92 2.196,-4.739 7.41,3.294 12.876,7.47 16.436,12.575 z m -146.813,-40.077 -160.1,0 c -1.434,0 -2.458,-0.566 -2.836,-1.127 -0.542,-0.804 -0.11,-2.278 0.18,-3.053 l 8.626,-17.905 c 3.567,-7.307 8.856,-10.424 17.686,-10.424 l 117.049,0 19.395,32.509 z M 16,207.817 l 8.011,0 c 4.411,0 8,3.589 8,8 l 0,8.167 -16.011,0 0,-16.167 z m 64.038,112.206 c -17.659,0 -32.026,-14.367 -32.026,-32.026 0,-17.656 14.367,-32.021 32.026,-32.021 17.653,0 32.015,14.365 32.015,32.021 0,17.659 -14.362,32.026 -32.015,32.026 z m 288.37,0 c -17.659,0 -32.026,-14.367 -32.026,-32.026 0,-17.656 14.367,-32.021 32.026,-32.021 17.653,0 32.015,14.365 32.015,32.021 0,17.659 -14.362,32.026 -32.015,32.026 z M 432,279.999 l -16.256,0 c -3.82,-22.684 -23.586,-40.024 -47.337,-40.024 -23.756,0 -43.527,17.34 -47.348,40.024 l -193.685,0 c -3.82,-22.684 -23.586,-40.024 -47.337,-40.024 -21.495,0 -39.736,14.194 -45.844,33.7 C 26.729,271.332 16,265.892 16,253.984 l 0,-14 24.011,0 c 4.418,0 8,-3.582 8,-8 l 0,-16.167 c 0,-13.233 -10.766,-24 -24,-24 l -4.253,0 c 1.415,-1.081 3.228,-1.838 5.461,-2.269 l 47.087,-5.673 c 2.782,-0.15 5.333,-1.749 6.658,-4.284 l 13.514,-25.864 c 8.806,-15.875 22.688,-25.734 36.248,-25.736 l 98.02,-0.015 c 0.004,0 0.007,0 0.011,0 10.417,0 16.844,2.237 22.559,7.84 l -105.608,0 c -14.99,0 -25.778,6.528 -32.082,19.441 l -8.776,18.216 c -0.076,0.158 -0.146,0.317 -0.212,0.479 -2.646,6.557 -2.178,13.019 1.315,18.196 3.456,5.12 9.474,8.176 16.099,8.176 l 191.614,0 c 0.572,0 53.947,0.079 83.11,6.475 -1.654,3.342 -2.443,6.781 -2.443,9.767 l 0,15.846 c 0,2.123 0.844,4.158 2.345,5.659 1.5,1.499 3.534,2.341 5.655,2.341 0.002,0 0.004,0 0.006,0 l 31.64,-0.011 c 0.009,0.337 0.02,0.673 0.02,1.015 l 0,38.583 z" fill="#000000" /><path d="m 95.721,279.998 c -4.418,0 -8,3.582 -8,8 0,4.241 -3.448,7.691 -7.687,7.691 -4.241,0 -7.691,-3.45 -7.691,-7.691 0,-4.239 3.45,-7.688 7.691,-7.688 4.418,0 8,-3.582 8,-8 0,-4.418 -3.582,-8 -8,-8 -13.063,0 -23.691,10.626 -23.691,23.688 0,13.063 10.628,23.691 23.691,23.691 13.061,0 23.687,-10.628 23.687,-23.691 0,-4.418 -3.581,-8 -8,-8 z" fill="#000000" /><path d="m 384.091,279.998 c -4.418,0 -8,3.582 -8,8 0,4.241 -3.448,7.691 -7.687,7.691 -4.241,0 -7.691,-3.45 -7.691,-7.691 0,-4.239 3.45,-7.688 7.691,-7.688 4.418,0 8,-3.582 8,-8 0,-4.418 -3.582,-8 -8,-8 -13.063,0 -23.691,10.626 -23.691,23.688 0,13.063 10.628,23.691 23.691,23.691 13.061,0 23.687,-10.628 23.687,-23.691 0,-4.418 -3.581,-8 -8,-8 z" fill="#000000" /><path d="m 240.78758,197.86205 a 27.525423,27.525423 0 0 1 -27.52539,-27.52539 27.525423,27.525423 0 0 1 27.52539,-27.52539 27.525423,27.525423 0 0 1 27.52539,27.52539 27.525423,27.525423 0 0 1 -27.52539,27.52539 z m 0,-14.23633 a 13.288136,13.288136 0 0 0 13.28711,-13.28906 13.288136,13.288136 0 0 0 -13.28711,-13.28711 13.288136,13.288136 0 0 0 -13.28906,13.28711 13.288136,13.288136 0 0 0 13.28906,13.28906 z" fill="#000000" /><path d="m 144.14166,197.86205 a 27.525423,27.525423 0 0 1 -27.52539,-27.52539 27.525423,27.525423 0 0 1 27.52539,-27.52539 27.525423,27.525423 0 0 1 27.52539,27.52539 27.525423,27.525423 0 0 1 -27.52539,27.52539 z m 0,-14.23633 a 13.288136,13.288136 0 0 0 13.28711,-13.28906 13.288136,13.288136 0 0 0 -13.28711,-13.28711 13.288136,13.288136 0 0 0 -13.28906,13.28711 13.288136,13.288136 0 0 0 13.28906,13.28906 z" fill="#000000" /><path d="m 192.46464,197.86205 a 27.525423,27.525423 0 0 1 -27.52539,-27.52539 27.525423,27.525423 0 0 1 27.52539,-27.52539 27.525423,27.525423 0 0 1 27.52539,27.52539 27.525423,27.525423 0 0 1 -27.52539,27.52539 z m 0,-14.23633 a 13.288136,13.288136 0 0 0 13.28711,-13.28906 13.288136,13.288136 0 0 0 -13.28711,-13.28711 13.288136,13.288136 0 0 0 -13.28906,13.28711 13.288136,13.288136 0 0 0 13.28906,13.28906 z" fill="#000000" /></g><g id="icon4" transform="translate(224.0, 137.7) scale(0.100446428571)"><path d="m 412.4,195.3 c -0.2,-0.1 -0.4,-0.1 -0.5,-0.2 -2.2,-0.8 -4.6,-1.6 -7.1,-2.3 -29.4,-8.4 -90.4,-8.5 -93,-8.5 l -12.9,0 -25.4,-42.6 C 261.8,122.4 251,112 226.8,112 c 0,0 0,0 0,0 l -98,0 c -19.4,0 -38.7,13.1 -50.3,34.1 0,0.1 -0.1,0.1 -0.1,0.2 l -11.6,22.2 -43.7,5.3 c -0.2,0 -0.3,0 -0.5,0.1 C 8.7,176.4 0,186.8 0,200.9 L 0,254 c 0,21.7 18.2,32.1 32.1,35.8 0.9,25.6 22,46.2 47.9,46.2 23.7,0 43.5,-17.3 47.3,-40 l 193.7,0 c 3.8,22.7 23.6,40 47.3,40 23.7,0 43.5,-17.3 47.3,-40 l 24.4,0 c 4.4,0 8,-3.6 8,-8 l 0,-46.6 c 0,-15.3 -6.4,-35.1 -35.6,-46.1 z m 14.6,29.1 -18.6,0 0,-7.8 c 0,-0.9 0.6,-2.9 2.2,-4.7 7.3,3.2 12.8,7.4 16.4,12.5 z m -146.8,-40.1 -160.1,0 c -1.4,0 -2.5,-0.6 -2.8,-1.1 -0.5,-0.8 -0.1,-2.3 0.2,-3.1 l 8.6,-17.9 c 3.6,-7.3 8.9,-10.4 17.7,-10.4 l 117,0 19.4,32.5 z M 16,207.8 l 8,0 c 4.4,0 8,3.6 8,8 l 0,8.2 -16,0 0,-16.2 z M 80,320 c -17.7,0 -32,-14.4 -32,-32 0,-17.7 14.4,-32 32,-32 17.7,0 32,14.4 32,32 0.1,17.7 -14.3,32 -32,32 z m 288.4,0 c -17.7,0 -32,-14.4 -32,-32 0,-17.7 14.4,-32 32,-32 17.7,0 32,14.4 32,32 0,17.7 -14.3,32 -32,32 z m 63.6,-40 -16.3,0 c -3.8,-22.7 -23.6,-40 -47.3,-40 -23.8,0 -43.5,17.3 -47.3,40 l -193.7,0 C 123.6,257.3 103.8,240 80.1,240 58.6,240 40.4,254.2 34.3,273.7 26.8,271.4 16.1,265.9 16.1,254 l 0,-14 24,0 c 4.4,0 8,-3.6 8,-8 l 0,-16.2 c 0,-13.2 -10.8,-24 -24,-24 l -4.3,0 c 1.4,-1.1 3.2,-1.8 5.5,-2.3 l 47.1,-5.7 c 2.8,-0.2 5.3,-1.7 6.7,-4.3 l 13.5,-25.9 c 8.8,-15.9 22.7,-25.7 36.2,-25.7 l 98,0 c 0,0 0,0 0,0 10.4,0 16.8,2.2 22.6,7.8 l -105.7,0 c -15,0 -25.8,6.5 -32.1,19.4 l -8.8,18.2 c -0.1,0.2 -0.1,0.3 -0.2,0.5 -2.6,6.6 -2.2,13 1.3,18.2 3.5,5.1 9.5,8.2 16.1,8.2 l 191.6,0 c 0.6,0 53.9,0.1 83.1,6.5 -1.7,3.3 -2.4,6.8 -2.4,9.8 l 0,15.8 c 0,2.1 0.8,4.2 2.3,5.7 1.5,1.5 3.5,2.3 5.7,2.3 0,0 0,0 0,0 l 31.6,0 c 0,0.3 0,0.7 0,1 l 0.1,38.7 0,0 z" fill="#000000" /><path d="m 95.7,280 c -4.4,0 -8,3.6 -8,8 0,4.2 -3.4,7.7 -7.7,7.7 -4.2,0 -7.7,-3.5 -7.7,-7.7 0,-4.2 3.4,-7.7 7.7,-7.7 4.4,0 8,-3.6 8,-8 0,-4.4 -3.6,-8 -8,-8 -13.1,0 -23.7,10.6 -23.7,23.7 0,13.1 10.6,23.7 23.7,23.7 13.1,0 23.7,-10.6 23.7,-23.7 0,-4.4 -3.6,-8 -8,-8 z" fill="#000000" /><path d="m 384.1,280 c -4.4,0 -8,3.6 -8,8 0,4.2 -3.4,7.7 -7.7,7.7 -4.2,0 -7.7,-3.5 -7.7,-7.7 0,-4.2 3.5,-7.7 7.7,-7.7 4.4,0 8,-3.6 8,-8 0,-4.4 -3.6,-8 -8,-8 -13.1,0 -23.7,10.6 -23.7,23.7 0,13.1 10.6,23.7 23.7,23.7 13.1,0 23.7,-10.6 23.7,-23.7 0,-4.4 -3.6,-8 -8,-8 z" fill="#000000" /><path d="m 155.4,253.5 c 0,3.6 2.9,6.5 6.5,6.5 l 26.1,0 0,6.5 c 0.1,3.5 3.6,6.5 6.5,6.5 l 26.1,0 c 15.7,0 28.9,-11.3 31.9,-26.1 l 33.5,0 c 3.6,0 6.5,-2.9 6.5,-6.5 0,-3.6 -2.9,-6.5 -6.5,-6.5 l -33.4,0 C 249.5,219 236.4,207.8 220.7,207.8 l -26.1,0 c -3.4,0 -6.5,3.1 -6.5,6.5 l 0,6.5 -26.1,0 c -3.6,0 -6.5,2.9 -6.5,6.5 0,3.6 2.9,6.5 6.5,6.5 l 26.1,0 0,13.2 -26.1,0 c -3.6,0 -6.6,2.9 -6.6,6.5 z m 45.7,6.6 0,-39.2 19.6,0 c 11,0 19.6,8.6 19.6,19.6 0,11 -8.6,19.6 -19.6,19.6 l -19.6,0 z" fill="#000000" /></g><g id="icon5" transform="translate(224.0, 166.5) scale(0.100446428571)"><path d="m 412.372,195.323 c -0.179,-0.076 -0.361,-0.143 -0.545,-0.206 -2.249,-0.828 -4.616,-1.61 -7.138,-2.328 -29.402,-8.367 -90.439,-8.463 -93.023,-8.463 l -12.882,0 -25.392,-42.56 c -11.582,-19.32 -22.441,-29.789 -46.636,-29.789 -0.003,0 -0.01,0 -0.013,0 l -98.019,0.015 c -19.403,0.003 -38.674,13.06 -50.293,34.075 -0.031,0.055 -0.061,0.11 -0.089,0.166 l -11.598,22.196 -43.696,5.265 c -0.158,0.019 -0.316,0.043 -0.473,0.071 C 8.65,176.296 0,186.64 0,200.761 l 0,53.223 c 0,21.674 18.169,32.064 32.056,35.774 0.932,25.667 22.091,46.264 47.982,46.264 23.749,0 43.514,-17.339 47.336,-40.023 l 193.687,0 c 3.823,22.684 23.592,40.023 47.347,40.023 23.749,0 43.514,-17.339 47.336,-40.023 l 24.256,0 c 4.418,0 8,-3.582 8,-8 l 0,-46.583 c 0,-15.298 -6.432,-35.127 -35.628,-46.093 z m 14.594,29.08 -18.632,0.004 0,-7.84 c 0,-0.916 0.614,-2.92 2.196,-4.739 7.41,3.294 12.876,7.47 16.436,12.575 z m -146.813,-40.077 -160.1,0 c -1.434,0 -2.458,-0.566 -2.836,-1.127 -0.542,-0.804 -0.11,-2.278 0.18,-3.053 l 8.626,-17.905 c 3.567,-7.307 8.856,-10.424 17.686,-10.424 l 117.049,0 19.395,32.509 z M 16,207.817 l 8.011,0 c 4.411,0 8,3.589 8,8 l 0,8.167 -16.011,0 0,-16.167 z m 64.038,112.206 c -17.659,0 -32.026,-14.367 -32.026,-32.026 0,-17.656 14.367,-32.021 32.026,-32.021 17.653,0 32.015,14.365 32.015,32.021 0,17.659 -14.362,32.026 -32.015,32.026 z m 288.37,0 c -17.659,0 -32.026,-14.367 -32.026,-32.026 0,-17.656 14.367,-32.021 32.026,-32.021 17.653,0 32.015,14.365 32.015,32.021 0,17.659 -14.362,32.026 -32.015,32.026 z M 432,279.999 l -16.256,0 c -3.82,-22.684 -23.586,-40.024 -47.337,-40.024 -23.756,0 -43.527,17.34 -47.348,40.024 l -193.685,0 c -3.82,-22.684 -23.586,-40.024 -47.337,-40.024 -21.495,0 -39.736,14.194 -45.844,33.7 C 26.729,271.332 16,265.892 16,253.984 l 0,-14 24.011,0 c 4.418,0 8,-3.582 8,-8 l 0,-16.167 c 0,-13.233 -10.766,-24 -24,-24 l -4.253,0 c 1.415,-1.081 3.228,-1.838 5.461,-2.269 l 47.087,-5.673 c 2.782,-0.15 5.333,-1.749 6.658,-4.284 l 13.514,-25.864 c 8.806,-15.875 22.688,-25.734 36.248,-25.736 l 98.02,-0.015 c 0.004,0 0.007,0 0.011,0 10.417,0 16.844,2.237 22.559,7.84 l -105.608,0 c -14.99,0 -25.778,6.528 -32.082,19.441 l -8.776,18.216 c -0.076,0.158 -0.146,0.317 -0.212,0.479 -2.646,6.557 -2.178,13.019 1.315,18.196 3.456,5.12 9.474,8.176 16.099,8.176 l 191.614,0 c 0.572,0 53.947,0.079 83.11,6.475 -1.654,3.342 -2.443,6.781 -2.443,9.767 l 0,15.846 c 0,2.123 0.844,4.158 2.345,5.659 1.5,1.499 3.534,2.341 5.655,2.341 0.002,0 0.004,0 0.006,0 l 31.64,-0.011 c 0.009,0.337 0.02,0.673 0.02,1.015 l 0,38.583 z" fill="#000000" /><path d="m 95.721,279.998 c -4.418,0 -8,3.582 -8,8 0,4.241 -3.448,7.691 -7.687,7.691 -4.241,0 -7.691,-3.45 -7.691,-7.691 0,-4.239 3.45,-7.688 7.691,-7.688 4.418,0 8,-3.582 8,-8 0,-4.418 -3.582,-8 -8,-8 -13.063,0 -23.691,10.626 -23.691,23.688 0,13.063 10.628,23.691 23.691,23.691 13.061,0 23.687,-10.628 23.687,-23.691 0,-4.418 -3.581,-8 -8,-8 z" fill="#000000" /><path d="m 384.091,279.998 c -4.418,0 -8,3.582 -8,8 0,4.241 -3.448,7.691 -7.687,7.691 -4.241,0 -7.691,-3.45 -7.691,-7.691 0,-4.239 3.45,-7.688 7.691,-7.688 4.418,0 8,-3.582 8,-8 0,-4.418 -3.582,-8 -8,-8 -13.063,0 -23.691,10.626 -23.691,23.688 0,13.063 10.628,23.691 23.691,23.691 13.061,0 23.687,-10.628 23.687,-23.691 0,-4.418 -3.581,-8 -8,-8 z" fill="#000000" /></g><g id="icon6" transform="translate(224.0, 195.3) scale(0.156130733467)"><path d="m 76.007,184.335 c -2.792,0 -5.056,2.264 -5.056,5.056 0,2.68 -2.179,4.861 -4.858,4.861 -2.68,0 -4.861,-2.18 -4.861,-4.861 0,-2.679 2.18,-4.859 4.861,-4.859 2.792,0 5.056,-2.264 5.056,-5.056 0,-2.792 -2.264,-5.056 -5.056,-5.056 -8.256,0 -14.973,6.716 -14.973,14.971 0,8.256 6.717,14.973 14.973,14.973 8.255,0 14.97,-6.717 14.97,-14.973 0,-2.792 -2.264,-5.056 -5.056,-5.056 z" fill="#000000" /><path d="m 247.829,184.335 c -2.792,0 -5.056,2.264 -5.056,5.056 0,2.68 -2.179,4.861 -4.858,4.861 -2.68,0 -4.861,-2.18 -4.861,-4.861 0,-2.679 2.18,-4.859 4.861,-4.859 2.792,0 5.056,-2.264 5.056,-5.056 0,-2.792 -2.264,-5.056 -5.056,-5.056 -8.256,0 -14.973,6.716 -14.973,14.971 0,8.256 6.717,14.973 14.973,14.973 8.255,0 14.97,-6.717 14.97,-14.973 0,-2.792 -2.263,-5.056 -5.056,-5.056 z" fill="#000000" /><path d="m 286.736,145.373 c -0.938,-0.937 -2.206,-1.465 -3.53,-1.476 l 0,-0.004 c 0,-13.94 -11.341,-25.28 -25.28,-25.28 l -52.053,0 -15.976,-31.021 C 189.848,87.496 189.795,87.4 189.739,87.308 182.42,75.095 175.554,68.477 160.259,68.477 l -101.246,0 c -6.959,0 -15.917,3.71 -20.838,8.631 l -9.084,9.084 c -4.105,4.105 -7.36,11.018 -8.328,17.239 l -10.651,0 C 4.537,103.43 0,107.966 0,113.542 l 0,40.478 c 0,5.576 4.537,10.112 10.112,10.112 l 10.525,0 c 1.269,11.347 9.316,17.094 15.688,19.339 -0.38,1.916 -0.584,3.894 -0.584,5.919 0,16.737 13.616,30.353 30.353,30.353 16.659,0 30.221,-13.497 30.34,-30.133 l 111.136,0 c 0.119,16.636 13.684,30.133 30.347,30.133 16.659,0 30.221,-13.497 30.341,-30.133 l 2.161,0 c 9.816,0 17.802,-7.985 17.802,-17.801 l 0,-22.858 c -10e-4,-1.342 -0.535,-2.63 -1.485,-3.578 z m -28.837,-1.435 0,-4.889 c 0,-2.788 2.268,-5.056 5.056,-5.056 l 6.347,0 c 0.033,0 0.065,-0.004 0.098,-0.005 2.299,2.659 3.694,6.121 3.694,9.904 l 0,0.02 -15.195,0.026 z m -63.401,-25.326 -103.113,0 9.593,-18.568 c 0.018,-0.034 0.035,-0.068 0.052,-0.102 2.254,-4.617 5.597,-6.588 11.178,-6.588 l 69.284,0 13.006,25.258 z M 30.573,107.028 c 0,-4.087 2.564,-10.372 5.439,-13.439 l 38.246,0 -13.169,25.016 -29.998,0 c -0.175,0 -0.348,0.009 -0.518,0.027 l 0,-11.604 0,0 z m -20.461,6.514 10.349,0 0,40.478 -10.349,0 0,-40.478 z m 55.982,96.089 c -11.161,0 -20.241,-9.08 -20.241,-20.241 0,-11.159 9.08,-20.237 20.241,-20.237 11.157,0 20.234,9.079 20.234,20.237 10e-4,11.161 -9.076,20.241 -20.234,20.241 z m 171.823,0 c -11.161,0 -20.24,-9.08 -20.24,-20.241 0,-11.159 9.079,-20.237 20.24,-20.237 11.157,0 20.234,9.079 20.234,20.237 0,11.161 -9.077,20.241 -20.234,20.241 z m 40.191,-37.822 c 0,4.239 -3.449,7.689 -7.69,7.689 l -3.819,0 c -4.112,-11.891 -15.412,-20.457 -28.682,-20.457 -13.273,0 -24.575,8.567 -28.688,20.457 l -114.453,0 c -4.112,-11.891 -15.412,-20.457 -28.682,-20.457 -11.126,0 -20.868,6.021 -26.152,14.972 -3.236,-1.059 -9.369,-4.227 -9.369,-13.027 l 0,-32.294 c 0.17,0.017 0.343,0.027 0.518,0.027 l 33.051,0 c 1.877,0 3.599,-1.04 4.474,-2.701 L 87.108,90.89 c 0.825,-1.567 0.77,-3.452 -0.145,-4.968 -0.915,-1.516 -2.557,-2.443 -4.329,-2.443 l -36.43,0 C 49.44,80.835 55.189,78.59 59.013,78.59 l 101.247,0 c 6.393,0 10.408,1.335 13.943,4.653 l -61.996,0 c -9.452,0 -16.261,4.108 -20.237,12.208 l -13.254,25.655 c -0.37,0.717 -0.564,1.514 -0.564,2.321 l 0,0.243 c 0,2.792 2.264,5.056 5.056,5.056 l 168.651,0 c -2.523,2.71 -4.071,6.339 -4.071,10.325 l 0,9.954 c 0,1.342 0.534,2.63 1.484,3.578 0.948,0.947 2.233,1.478 3.572,1.478 0.003,0 0.006,0 0.009,0 l 25.256,-0.044 -10e-4,17.792 0,0 z" fill="#000000" /></g><g id="icon7" transform="translate(224.0, 224.1) scale(0.0939682804849)"><path d="M478.607,313.111c-1.223-8.017-4.617-19.613-13.84-29.332c-10.367-10.923-25.144-16.462-43.922-16.462h-96.534		l-4.571-5.462v-9.205c0-9.055-7.43-16.071-16.65-15.293l-3.594,0.306l-11.421-13.648l-69.407-81.63		c-1.52-1.788-3.748-2.818-6.095-2.818h-37.353h-6.897h-11.75c-4.418,0-8,3.582-8,8s3.582,8,8,8h5.495l27.774,111.75h-74.441		l-62.075-54.034c-1.456-1.268-3.322-1.966-5.252-1.966H8c-4.418,0-8,3.582-8,8s3.582,8,8,8h3.271l39.051,88.685		c5.965,14.819,19.215,23.315,36.376,23.315h368.875c9.484,0,15.019-4.125,17.992-7.586		C477.756,326.852,479.641,319.891,478.607,313.111z M303.74,253.36v14.497l-79.322-6.373c-0.23-0.019-0.616-0.436-0.616-0.667		c0-0.244,0.407-0.687,0.65-0.708L303.74,253.36z M461.428,321.305c-1.147,1.335-3.117,2.012-5.855,2.012H86.698		c-7.408,0-17.164-2.32-21.567-13.375c-0.036-0.088-0.072-0.176-0.11-0.263l-36.267-82.361h16.325l62.075,54.034		c1.456,1.268,3.322,1.966,5.252,1.966h87.667c2.461,0,4.786-1.133,6.302-3.072c1.516-1.939,2.055-4.468,1.461-6.857l-29.282-117.82		h30.32l66.97,78.764l4.176,4.99l-56.926,4.846c-8.575,0.731-15.292,8.044-15.292,16.65c0,8.625,6.735,15.924,15.334,16.615		l79.988,6.427c0.431,0.035,0.857,0.052,1.279,0.052c3.823,0,7.273-1.341,9.931-3.583l0.103,0.123		c1.52,1.817,3.767,2.866,6.135,2.866h100.271c12.793,0,21.74,3.187,28.006,7.775H431.74c-4.418,0-8,3.582-8,8s3.582,8,8,8h28.905		c1.096,2.995,1.758,5.895,2.145,8.431C463.12,317.688,462.585,319.958,461.428,321.305z" fill="#000000" /><path d="M400.318,291.097c-2.1,0-4.16,0.85-5.65,2.34c-1.49,1.49-2.34,3.55-2.34,5.66c0,2.1,0.85,4.16,2.34,5.65		c1.49,1.49,3.55,2.35,5.65,2.35c2.11,0,4.17-0.86,5.66-2.35c1.49-1.49,2.35-3.55,2.35-5.65c0-2.11-0.86-4.17-2.35-5.66		C404.488,291.947,402.428,291.097,400.318,291.097z" fill="#000000" /><path d="M376.078,291.097c-2.11,0-4.17,0.85-5.66,2.34c-1.49,1.49-2.34,3.55-2.34,5.65c0,2.11,0.85,4.17,2.34,5.66		c1.49,1.49,3.55,2.35,5.66,2.35c2.1,0,4.16-0.86,5.65-2.35c1.49-1.49,2.34-3.55,2.34-5.66c0-2.1-0.85-4.16-2.34-5.65		C380.238,291.947,378.178,291.097,376.078,291.097z" fill="#000000" /><path d="M351.818,291.097c-2.1,0-4.16,0.85-5.65,2.34c-1.49,1.49-2.35,3.55-2.35,5.66c0,2.1,0.86,4.16,2.35,5.65		c1.49,1.49,3.55,2.35,5.65,2.35c2.11,0,4.17-0.86,5.66-2.35c1.49-1.49,2.34-3.55,2.34-5.65c0-2.11-0.85-4.17-2.34-5.66		C355.988,291.947,353.928,291.097,351.818,291.097z" fill="#000000" /><path d="M328.318,291.097c-2.1,0-4.16,0.85-5.65,2.34c-1.49,1.49-2.35,3.55-2.35,5.66c0,2.1,0.86,4.16,2.35,5.65		c1.49,1.49,3.55,2.35,5.65,2.35c2.11,0,4.17-0.86,5.66-2.35c1.49-1.49,2.34-3.55,2.34-5.65c0-2.11-0.85-4.17-2.34-5.66		C332.488,291.947,330.428,291.097,328.318,291.097z" fill="#000000" /><path d="M304.568,291.097c-2.1,0-4.16,0.85-5.65,2.34c-1.49,1.49-2.34,3.55-2.34,5.66c0,2.1,0.85,4.16,2.34,5.65		c1.49,1.49,3.55,2.34,5.65,2.34c2.11,0,4.17-0.85,5.66-2.34c1.49-1.49,2.34-3.55,2.34-5.65c0-2.11-0.85-4.17-2.34-5.66		C308.738,291.947,306.678,291.097,304.568,291.097z" fill="#000000" /><path d="M280.328,291.097c-2.11,0-4.17,0.85-5.66,2.34c-1.49,1.49-2.34,3.55-2.34,5.65c0,2.11,0.85,4.17,2.34,5.66		c1.49,1.49,3.55,2.35,5.66,2.35c2.1,0,4.16-0.86,5.65-2.35c1.49-1.49,2.35-3.55,2.35-5.66c0-2.1-0.86-4.16-2.35-5.65		C284.488,291.947,282.428,291.097,280.328,291.097z" fill="#000000" /><path d="M256.568,291.097c-2.1,0-4.16,0.85-5.65,2.34c-1.49,1.49-2.34,3.55-2.34,5.66c0,2.1,0.85,4.16,2.34,5.65		c1.49,1.49,3.55,2.35,5.65,2.35c2.11,0,4.17-0.86,5.66-2.35c1.49-1.49,2.34-3.55,2.34-5.65c0-2.11-0.85-4.17-2.34-5.66		C260.738,291.947,258.678,291.097,256.568,291.097z" fill="#000000" /><path d="M232.068,291.097c-2.1,0-4.16,0.85-5.65,2.34c-1.49,1.49-2.35,3.55-2.35,5.66c0,2.1,0.86,4.16,2.35,5.65		c1.49,1.49,3.55,2.35,5.65,2.35c2.11,0,4.17-0.86,5.66-2.35c1.49-1.49,2.34-3.55,2.34-5.65c0-2.11-0.85-4.17-2.34-5.66		C236.238,291.947,234.178,291.097,232.068,291.097z" fill="#000000" /></g></g><g id="labels"><text alignment-baseline="before-edge" font-size="14" text-anchor="end" x="214.0" y="36.0">Bicycle</text><text alignment-baseline="before-edge" font-size="14" text-anchor="end" x="214.0" y="64.8">Bus</text><text alignment-baseline="before-edge" font-size="14" text-anchor="end" x="214.0" y="93.6">Train</text><text alignment-baseline="before-edge" font-size="14" text-anchor="end" x="214.0" y="122.4">Car pool</text><text alignment-baseline="before-edge" font-size="14" text-anchor="end" x="214.0" y="151.2">Hybrid car</text><text alignment-baseline="before-edge" font-size="14" text-anchor="end" x="214.0" y="180.0">Car</text><text alignment-baseline="before-edge" font-size="14" text-anchor="end" x="214.0" y="208.8">SUV</text><text alignment-baseline="before-edge" font-size="14" text-anchor="end" x="214.0" y="237.6">Plane</text></g><rect fill="none" height="720.0" stroke="#000000" stroke-width="1" width="540.0" x="36.0" y="36.0" /></svg>