<?xml version="1.0" encoding="utf-8" ?>
<svg baseProfile="full" height="792.0" version="1.1" width="612.0" xmlns="http://www.w3.org/2000/svg" xmlns:ev="http://www.w3.org/2001/xml-events" xmlns:xlink="http://www.w3.org/1999/xlink"><defs /><g id="footprints"><polygon fill="none" points="279.0,36.0 279.0,54.0 284.909409852,54.0 284.909409852,36.0 279.0,36.0" stroke="#000000" stroke-width="1" /><polygon fill="none" points="288.0,36.0 288.0,54.0 293.909409852,54.0 293.909409852,36.0 288.0,36.0" stroke="#000000" stroke-width="1" /><polygon fill="none" points="297.0,36.0 297.0,54.0 302.909409852,54.0 302.909409852,36.0 297.0,36.0" stroke="#000000" stroke-width="1" /><polygon fill="none" points="306.0,36.0 306.0,54.0 311.909409852,54.0 311.909409852,36.0 306.0,36.0" stroke="#000000" stroke-width="1" /><polygon fill="none" points="315.0,36.0 315.0,54.0 320.909409852,54.0 320.909409852,36.0 315.0,36.0" stroke="#000000" stroke-width="1" /><polygon fill="none" points="324.0,36.0 324.0,54.0 329.909409852,54.0 329.909409852,36.0 324.0,36.0" stroke="#000000" stroke-width="1" /><polygon fill="none" points="279.0,64.8 279.0,82.8 284.909409852,82.8 284.909409852,64.8 279.0,64.8" stroke="#000000" stroke-width="1" /><polygon fill="none" points="288.0,64.8 288.0,82.8 293.909409852,82.8 293.909409852,64.8 288.0,64.8" stroke="#000000" stroke-width="1" /><polygon fill="none" points="297.0,64.8 297.0,82.8 302.909409852,82.8 302.909409852,64.8 297.0,64.8" stroke="#000000" stroke-width="1" /><polygon fill="none" points="306.0,64.8 306.0,82.8 311.909409852,82.8 311.909409852,64.8 306.0,64.8" stroke="#000000" stroke-width="1" /><polygon fill="none" points="315.0,64.8 315.0,82.8 320.909409852,82.8 320.909409852,64.8 315.0,64.8" stroke="#000000" stroke-width="1" /><polygon fill="none" points="324.0,64.8 324.0,82.8 329.909409852,82.8 329.909409852,64.8 324.0,64.8" stroke="#000000" stroke-width="1" /><polygon fill="none" points="333.0,64.8 333.0,82.8 338.381183845,82.8816773954 338.922008812,64.8898039978 333.0,64.8" stroke="#000000" stroke-width="1" /><polygon fill="none" points="342.671131556,65.0395947232 341.787913418,83.0179129349 347.158331688,83.3661850106 348.581324592,65.4225206358 342.671131556,65.0395947232" stroke="#000000" stroke-width="1" /><polygon fill="none" points="279.0,93.6 279.0,111.6 284.909409852,111.6 284.909409852,93.6 279.0,93.6" stroke="#000000" stroke-width="1" /><polygon fill="none" points="288.0,93.6 288.0,111.6 293.909409852,111.6 293.909409852,93.6 288.0,93.6" stroke="#000000" stroke-width="1" /><polygon fill="none" points="297.0,93.6 297.0,111.6 302.909409852,111.6 302.909409852,93.6 297.0,93.6" stroke="#000000" stroke-width="1" /><polygon fill="none" points="306.0,93.6 306.0,111.6 311.909409852,111.6 311.909409852,93.6 306.0,93.6" stroke="#000000" stroke-width="1" /><polygon fill="none" points="315.0,93.6 315.0,111.6 320.909409852,111.6 320.909409852,93.6 315.0,93.6" stroke="#000000" stroke-width="1" /><polygon fill="none" points="324.0,93.6 324.0,111.6 329.909409852,111.6 329.909409852,93.6 324.0,93.6" stroke="#000000" stroke-width="1" /><polygon fill="none" points="333.0,93.6 333.0,111.6 338.290393757,111.694261639 338.923978587,93.7054159207 333.0,93.6" stroke="#000000" stroke-width="1" /><polygon fill="none" points="342.607878066,93.8774318255 341.58027947,111.848075696 346.856225359,112.247812972 348.515738688,94.3244757962 342.607878066,93.8774318255" stroke="#000000" stroke-width="1" /><polygon fill="none" points="352.183410568,94.7087349837 350.13156519,112.59140622 355.375246768,113.295175267 358.055275609,95.4958088344 352.183410568,94.7087349837" stroke="#000000" stroke-width="1" /><polygon fill="none" points="361.694387453,96.0909383923 358.624987985,113.827307438 363.818727129,114.83257017 367.510529786,97.2152323137 361.694387453,96.0909383923" stroke="#000000" stroke-width="1" /><polygon fill="none" points="371.108868327,98.0191097181 367.031926513,115.551324223 372.15825816,116.854463917 376.849792739,99.4766187317 371.108868327,98.0191097181" stroke="#000000" stroke-width="1" /><polygon fill="none" points="380.395313911,100.486384229 375.324127888,117.757257754 380.365872544,119.353601005 386.041836235,102.271931409 380.395313911,100.486384229" stroke="#000000" stroke-width="1" /><polygon fill="none" points="389.522713543,103.484004486 383.473824465,120.437203031 388.414157777,122.321047688 395.056036766,105.591270538 389.522713543,103.484004486" stroke="#000000" stroke-width="1" /><polygon fill="none" points="279.0,122.4 279.0,140.4 284.909409852,140.4 284.909409852,122.4 279.0,122.4" stroke="#000000" stroke-width="1" /><polygon fill="none" points="288.0,122.4 288.0,140.4 293.909409852,140.4 293.909409852,122.4 288.0,122.4" stroke="#000000" stroke-width="1" /><polygon fill="none" points="297.0,122.4 297.0,140.4 302.909409852,140.4 302.909409852,122.4 297.0,122.4" stroke="#000000" stroke-width="1" /><polygon fill="none" points="306.0,122.4 306.0,140.4 311.909409852,140.4 311.909409852,122.4 306.0,122.4" stroke="#000000" stroke-width="1" /><polygon fill="none" points="315.0,122.4 315.0,140.4 320.909409852,140.4 320.909409852,122.4 315.0,122.4" stroke="#000000" stroke-width="1" /><polygon fill="none" points="324.0,122.4 324.0,140.4 329.909409852,140.4 329.909409852,122.4 324.0,122.4" stroke="#000000" stroke-width="1" /><polygon fill="none" points="333.0,122.4 333.0,140.4 338.161924614,140.511343478 338.926664511,122.527596012 333.0,122.4" stroke="#000000" stroke-width="1" /><polygon fill="none" points="342.730719631,122.744226125 341.475103103,140.700379029 346.615899693,141.176829663 348.63325953,123.290235262 342.730719631,122.744226125" stroke="#000000" stroke-width="1" /><polygon fill="none" points="352.412198267,123.775032206 349.90708245,141.599857443 355.000624154,142.438786967 358.260775556,124.736487319 352.412198267,123.775032206" stroke="#000000" stroke-width="1" /><polygon fill="none" points="361.995516651,125.486819322 358.253106217,143.093476135 363.273584828,144.290269689 367.760644666,126.858508619 361.995516651,125.486819322" stroke="#000000" stroke-width="1" /><polygon fill="none" points="371.432393647,127.870315285 366.470921242,145.173025812 371.393017063,146.72112825 377.085124832,129.644831546 371.432393647,127.870315285" stroke="#000000" stroke-width="1" /><polygon fill="none" points="380.675492137,130.912661892 374.519129557,147.827129066 379.318172776,149.718109522 386.1875971,133.080471184 380.675492137,130.912661892" stroke="#000000" stroke-width="1" /><polygon fill="none" points="389.678709728,134.597533653 382.357450153,151.04135189 387.009571243,153.264984736 395.022844976,137.147061666 389.678709728,134.597533653" stroke="#000000" stroke-width="1" /><polygon fill="none" points="398.397450142,138.905284753 389.946962011,154.798341424 394.429229093,157.342701364 403.547312371,141.823018464 398.397450142,138.905284753" stroke="#000000" stroke-width="1" /><polygon fill="none" points="406.788871935,143.813120383 397.250325179,159.077986113 401.540866796,161.929554846 411.719337235,147.08372245 406.788871935,143.813120383" stroke="#000000" stroke-width="1" /><polygon fill="none" points="414.812112048,149.295288102 404.231977506,163.857594001 408.310089811,167.0013757 419.499358925,152.901721211 414.812112048,149.295288102" stroke="#000000" stroke-width="1" /><polygon fill="none" points="422.428482555,155.323284635 410.85830558,169.112084611 414.704543482,172.531727437 426.850098277,159.246942956 422.428482555,155.323284635" stroke="#000000" stroke-width="1" /><polygon fill="none" points="429.601639979,161.86607344 417.097789311,174.814189846 420.694041695,178.492110745 433.736710249,166.086918405 429.601639979,161.86607344" stroke="#000000" stroke-width="1" /><polygon fill="none" points="436.297727356,168.890308522 422.921120497,180.934659436 426.250670125,184.852169666 440.126909867,173.387006317 436.297727356,168.890308522" stroke="#000000" stroke-width="1" /><polygon fill="none" points="442.485490099,176.360560275 428.301296534,187.44246683 431.348865678,191.579895913 445.991072964,181.11061868 442.485490099,176.360560275" stroke="#000000" stroke-width="1" /><polygon fill="none" points="448.136367423,184.239539575 433.213691117,194.305011837 435.965474359,198.641828005 451.302313826,189.219442153 448.136367423,184.239539575" stroke="#000000" stroke-width="1" /><polygon fill="none" points="279.0,151.2 279.0,169.2 284.909409852,169.2 284.909409852,151.2 279.0,151.2" stroke="#000000" stroke-width="1" /><polygon fill="none" points="288.0,151.2 288.0,169.2 293.909409852,169.2 293.909409852,151.2 288.0,151.2" stroke="#000000" stroke-width="1" /><polygon fill="none" points="297.0,151.2 297.0,169.2 302.909409852,169.2 302.909409852,151.2 297.0,151.2" stroke="#000000" stroke-width="1" /><polygon fill="none" points="306.0,151.2 306.0,169.2 311.909409852,169.2 311.909409852,151.2 306.0,151.2" stroke="#000000" stroke-width="1" /><polygon fill="none" points="315.0,151.2 315.0,169.2 320.909409852,169.2 320.909409852,151.2 315.0,151.2" stroke="#000000" stroke-width="1" /><polygon fill="none" points="324.0,151.2 324.0,169.2 329.909409852,169.2 329.909409852,151.2 324.0,151.2" stroke="#000000" stroke-width="1" /><polygon fill="none" points="333.0,151.2 333.0,169.2 337.9661887,169.335740328 338.930524388,151.36159065 333.0,151.2" stroke="#000000" stroke-width="1" /><polygon fill="none" points="342.647537592,151.628140735 341.078734222,169.559645301 346.012643822,170.135995795 348.539860287,152.314290575 342.647537592,151.628140735" stroke="#000000" stroke-width="1" /><polygon fill="none" points="352.218084424,152.908827199 349.092417226,170.635366753 353.95441502,171.647186482 358.025278619,154.113559659 352.218084424,152.908827199" stroke="#000000" stroke-width="1" /><polygon fill="none" points="361.63548514,155.030914558 356.976742328,172.417579432 361.728012639,173.855893095 367.311541642,156.743786157 361.63548514,155.030914558" stroke="#000000" stroke-width="1" /><polygon fill="none" points="370.825230613,157.976033005 364.668868033,174.890500179 369.27183329,176.742656725 376.325533669,160.182303137 370.825230613,157.976033005" stroke="#000000" stroke-width="1" /><polygon fill="none" points="379.715221292,161.718884647 372.10809258,178.032424813 376.526796365,180.282313895 384.996985202,164.399747947 379.715221292,161.718884647" stroke="#000000" stroke-width="1" /><polygon fill="none" points="388.23646332,166.227639099 379.23646332,181.816096367 383.436905792,184.444412038 393.259119835,169.360509649 388.23646332,166.227639099" stroke="#000000" stroke-width="1" /><polygon fill="none" points="396.323682073,171.464409667 385.999306219,186.209146465 389.949725386,189.193685774 401.049211656,175.023244548 396.323682073,171.464409667" stroke="#000000" stroke-width="1" /><polygon fill="none" points="403.915842912,177.385789438 392.345665938,191.174589414 396.016761648,194.490572747 408.309046351,181.341438298 403.915842912,177.385789438" stroke="#000000" stroke-width="1" /><polygon fill="none" points="410.956574493,183.943425507 398.228652432,196.671347568 401.593753289,200.291747715 414.985284717,188.263992895 410.956574493,183.943425507" stroke="#000000" stroke-width="1" /><polygon fill="none" points="417.394495399,191.084610038 403.605695422,202.654787012 406.640871919,206.550654964 421.029732432,195.735818251 417.394495399,191.084610038" stroke="#000000" stroke-width="1" /><polygon fill="none" points="423.183449756,198.752868659 408.438712959,209.077244513 411.122842734,213.21802169 426.399524415,203.698410521 423.183449756,198.752868659" stroke="#000000" stroke-width="1" /><polygon fill="none" points="428.282661642,206.888529652 412.694204374,215.888529652 415.008997477,220.242338531 431.057235555,212.090402895 428.282661642,206.888529652" stroke="#000000" stroke-width="1" /><polygon fill="none" points="432.656821093,215.429261137 416.343280927,223.036389848 418.273274257,227.57029755 434.970931948,220.8480786 432.656821093,215.429261137" stroke="#000000" stroke-width="1" /><polygon fill="none" points="436.276116465,224.310567696 419.361649291,230.466930276 420.894179928,235.147182374 438.114177977,229.905840255 436.276116465,224.310567696" stroke="#000000" stroke-width="1" /><polygon fill="none" points="439.116228607,233.466242241 421.729563734,238.124985053 422.854730747,242.917209531 440.46601457,239.196634021 439.116228607,233.466242241" stroke="#000000" stroke-width="1" /><polygon fill="none" points="441.158301938,242.828773181 423.431762384,245.954440379 424.142385924,250.823824103 442.010923017,248.652331028 441.158301938,242.828773181" stroke="#000000" stroke-width="1" /><polygon fill="none" points="442.388906138,252.329710797 424.457401572,253.898514167 424.748986782,258.809956337 442.738786788,258.204072071 442.388906138,252.329710797" stroke="#000000" stroke-width="1" /><polygon fill="none" points="442.8,261.9 424.8,261.9 424.670711546,266.818248722 442.644861225,267.78258441 442.8,261.9" stroke="#000000" stroke-width="1" /><polygon fill="none" points="442.388906138,271.470289203 424.457401572,269.901485833 423.908052588,274.791265144 441.729757808,277.318481609 442.388906138,271.470289203" stroke="#000000" stroke-width="1" /><polygon fill="none" points="441.158301938,280.971226819 423.431762384,277.845559621 422.465819418,282.671694943 439.999446241,286.742558542 441.158301938,280.971226819" stroke="#000000" stroke-width="1" /><polygon fill="none" points="439.116228607,290.333757759 421.729563734,285.675014947 420.353166987,290.402565061 437.465273926,295.986094064 439.116228607,290.333757759" stroke="#000000" stroke-width="1" /><polygon fill="none" points="436.276116465,299.489432304 419.361649291,293.333069724 417.583645193,297.927472905 434.143998781,304.981173284 436.276116465,299.489432304" stroke="#000000" stroke-width="1" /><polygon fill="none" points="432.656821093,308.370738863 416.343280927,300.763610152 414.175261991,305.190851128 430.057827939,313.661039965 432.656821093,308.370738863" stroke="#000000" stroke-width="1" /><polygon fill="none" points="428.282661642,316.911470348 412.694204374,307.911470348 410.150549422,312.138273253 425.234451812,321.960487296 428.282661642,316.911470348" stroke="#000000" stroke-width="1" /><polygon fill="none" points="423.183449756,325.047131341 408.438712959,314.722755487 405.536619338,318.716806019 419.707060564,329.816292289 423.183449756,325.047131341" stroke="#000000" stroke-width="1" /><polygon fill="none" points="417.394495399,332.715389962 403.605695422,321.145212988 400.36519387,324.875410687 413.514328319,337.167695391 417.394495399,332.715389962" stroke="#000000" stroke-width="1" /><polygon fill="none" points="410.956574493,339.856574493 398.228652432,327.128652432 394.672594835,330.56539137 406.700349655,343.956922799 410.956574493,339.856574493" stroke="#000000" stroke-width="1" /><polygon fill="none" points="403.915842912,346.414210562 392.345665938,332.625410586 388.499676527,335.740884079 399.31451324,350.129744592 403.915842912,346.414210562" stroke="#000000" stroke-width="1" /><polygon fill="none" points="396.323682073,352.335590333 385.999306219,337.590853535 381.891687727,340.359375808 391.411298896,355.636057489 396.323682073,352.335590333" stroke="#000000" stroke-width="1" /><polygon fill="none" points="388.23646332,357.572360901 379.23646332,341.983903633 374.898051358,344.382238968 383.049986994,360.430477046 388.23646332,357.572360901" stroke="#000000" stroke-width="1" /><polygon fill="none" points="379.715221292,362.081115353 372.10809258,345.767575187 367.572053872,347.775263142 374.294272823,364.472920834 379.715221292,362.081115353" stroke="#000000" stroke-width="1" /><polygon fill="none" points="370.825230613,365.823966995 364.668868033,348.909499821 359.970441052,350.50916378 365.211783172,367.729161828 370.825230613,365.823966995" stroke="#000000" stroke-width="1" /><polygon fill="none" points="361.63548514,368.769085442 356.976742328,351.382420568 352.152922177,352.560046425 355.873497687,370.171330248 361.63548514,368.769085442" stroke="#000000" stroke-width="1" /><polygon fill="none" points="352.218084424,370.891172801 349.092417226,353.164633247 344.181589984,353.909805465 346.353083059,371.778342558 352.218084424,370.891172801" stroke="#000000" stroke-width="1" /><polygon fill="none" points="342.647537592,372.171859265 341.078734222,354.240354699 336.120269223,354.546438348 336.726153489,372.536238354 342.647537592,372.171859265" stroke="#000000" stroke-width="1" /><polygon fill="none" points="333.0,151.2 333.0,169.2 337.9661887,169.335740328 338.930524388,151.36159065 333.0,151.2" stroke="#000000" stroke-width="1" /><polygon fill="none" points="342.647537592,151.628140735 341.078734222,169.559645301 346.012643822,170.135995795 348.539860287,152.314290575 342.647537592,151.628140735" stroke="#000000" stroke-width="1" /><polygon fill="none" points="352.218084424,152.908827199 349.092417226,170.635366753 353.95441502,171.647186482 358.025278619,154.113559659 352.218084424,152.908827199" stroke="#000000" stroke-width="1" /><polygon fill="none" points="361.63548514,155.030914558 356.976742328,172.417579432 361.728012639,173.855893095 367.311541642,156.743786157 361.63548514,155.030914558" stroke="#000000" stroke-width="1" /><polygon fill="none" points="370.825230613,157.976033005 364.668868033,174.890500179 369.27183329,176.742656725 376.325533669,160.182303137 370.825230613,157.976033005" stroke="#000000" stroke-width="1" /><polygon fill="none" points="379.715221292,161.718884647 372.10809258,178.032424813 376.526796365,180.282313895 384.996985202,164.399747947 379.715221292,161.718884647" stroke="#000000" stroke-width="1" /><polygon fill="none" points="388.23646332,166.227639099 379.23646332,181.816096367 383.436905792,184.444412038 393.259119835,169.360509649 388.23646332,166.227639099" stroke="#000000" stroke-width="1" /><polygon fill="none" points="396.323682073,171.464409667 385.999306219,186.209146465 389.949725386,189.193685774 401.049211656,175.023244548 396.323682073,171.464409667" stroke="#000000" stroke-width="1" /><polygon fill="none" points="403.915842912,177.385789438 392.345665938,191.174589414 396.016761648,194.490572747 408.309046351,181.341438298 403.915842912,177.385789438" stroke="#000000" stroke-width="1" /><polygon fill="none" points="410.956574493,183.943425507 398.228652432,196.671347568 401.593753289,200.291747715 414.985284717,188.263992895 410.956574493,183.943425507" stroke="#000000" stroke-width="1" /><polygon fill="none" points="417.394495399,191.084610038 403.605695422,202.654787012 406.640871919,206.550654964 421.029732432,195.735818251 417.394495399,191.084610038" stroke="#000000" stroke-width="1" /><polygon fill="none" points="279.0,180.0 279.0,198.0 284.909409852,198.0 284.909409852,180.0 279.0,180.0" stroke="#000000" stroke-width="1" /><polygon fill="none" points="288.0,180.0 288.0,198.0 293.909409852,198.0 293.909409852,180.0 288.0,180.0" stroke="#000000" stroke-width="1" /><polygon fill="none" points="297.0,180.0 297.0,198.0 302.909409852,198.0 302.909409852,180.0 297.0,180.0" stroke="#000000" stroke-width="1" /><polygon fill="none" points="306.0,180.0 306.0,198.0 311.909409852,198.0 311.909409852,180.0 306.0,180.0" stroke="#000000" stroke-width="1" /><polygon fill="none" points="315.0,180.0 315.0,198.0 320.909409852,198.0 320.909409852,180.0 315.0,180.0" stroke="#000000" stroke-width="1" /><polygon fill="none" points="324.0,180.0 324.0,198.0 329.909409852,198.0 329.909409852,180.0 324.0,180.0" stroke="#000000" stroke-width="1" /><polygon fill="none" points="333.0,180.0 333.0,198.0 337.631661549,198.172899819 338.936453114,180.220253246 333.0,180.0" stroke="#000000" stroke-width="1" /><polygon fill="none" points="342.870351977,180.610337989 340.700691732,198.479097723 345.273777757,199.224254284 348.733008343,181.559777961 342.870351977,180.610337989" stroke="#000000" stroke-width="1" /><polygon fill="none" points="352.587423102,182.430700561 348.279741145,199.907653274 352.722480985,201.211546833 358.28570722,184.092828602 352.587423102,182.430700561" stroke="#000000" stroke-width="1" /><polygon fill="none" points="362.001424018,185.4295296 355.618536052,202.259821968 359.862350267,204.099131343 367.448447785,187.775800664 362.001424018,185.4295296" stroke="#000000" stroke-width="1" /><polygon fill="none" points="370.969319171,189.555506605 362.604302075,205.493715067 366.58529992,207.836243553 376.083646336,192.546331344 370.969319171,189.555506605" stroke="#000000" stroke-width="1" /><polygon fill="none" points="379.35766284,194.739330732 369.132497399,209.553040318 372.792658067,212.358907518 384.064746103,198.325375129 379.35766284,194.739330732" stroke="#000000" stroke-width="1" /><polygon fill="none" points="387.04486958,200.89595307 375.108661731,214.369146537 378.396653915,217.592126366 391.278111144,205.0196143 387.04486958,200.89595307" stroke="#000000" stroke-width="1" /><polygon fill="none" points="393.922852336,207.927062554 380.449658869,219.863270403 383.321298302,223.45215301 397.624284071,212.523996803 393.922852336,207.927062554" stroke="#000000" stroke-width="1" /><polygon fill="none" points="399.898036099,215.723619747 385.084326513,225.948785188 387.502711742,229.848654594 403.018656312,220.724211373 399.898036099,215.723619747" stroke="#000000" stroke-width="1" /><polygon fill="none" points="404.891820074,224.168262115 388.953611613,232.533279211 390.889008897,236.686625075 407.391654857,229.498949767 404.891820074,224.168262115" stroke="#000000" stroke-width="1" /><polygon fill="none" points="408.8406088,233.137450978 392.010316432,239.520338945 393.439882521,243.867954552 410.688584131,238.721859649 408.8406088,233.137450978" stroke="#000000" stroke-width="1" /><polygon fill="none" points="411.695558537,242.503286902 394.218605823,246.810968859 395.126041964,251.292622864 412.869274316,248.263150018 411.695558537,242.503286902" stroke="#000000" stroke-width="1" /><polygon fill="none" points="413.4221895,252.134978256 395.553429766,254.3046385 395.928653185,258.859540613 413.907679995,257.99086636 413.4221895,252.134978256" stroke="#000000" stroke-width="1" /><polygon fill="none" points="414.0,261.9 396.0,261.9 395.838902615,266.467107685 413.791549188,267.771899251 414.0,261.9" stroke="#000000" stroke-width="1" /><polygon fill="none" points="413.4221895,271.665021744 395.553429766,269.4953615 394.857770906,274.013593926 412.522247229,277.472824512 413.4221895,271.665021744" stroke="#000000" stroke-width="1" /><polygon fill="none" points="411.695558537,281.296713098 394.218605823,276.989031141 392.996058829,281.397467272 410.114777059,286.960693507 411.695558537,281.296713098" stroke="#000000" stroke-width="1" /><polygon fill="none" points="408.8406088,290.662549022 392.010316432,284.279661055 390.274660564,288.517800549 406.597991243,296.103898067 408.8406088,290.662549022" stroke="#000000" stroke-width="1" /><polygon fill="none" points="404.891820074,299.631737885 388.953611613,291.266720789 386.725032919,295.27487926 402.014945128,304.773225676 404.891820074,299.631737885" stroke="#000000" stroke-width="1" /><polygon fill="none" points="399.898036099,308.076380253 385.084326513,297.851214812 382.389766437,301.571109162 396.423298826,312.843197197 399.898036099,308.076380253" stroke="#000000" stroke-width="1" /><polygon fill="none" points="393.922852336,315.872937446 380.449658869,303.936729597 377.323129991,307.312285168 389.895642057,320.193742397 393.922852336,315.872937446" stroke="#000000" stroke-width="1" /><polygon fill="none" points="387.04486958,322.90404693 375.108661731,309.430853463 371.591438839,312.409234138 382.519595046,326.712219907 387.04486958,322.90404693" stroke="#000000" stroke-width="1" /><polygon fill="none" points="379.35766284,329.060669268 369.132497399,314.246959682 365.273091755,316.77978725 374.397534977,332.29573182 379.35766284,329.060669268" stroke="#000000" stroke-width="1" /><polygon fill="none" points="370.969319171,334.244493395 362.604302075,318.306284933 358.45813925,320.35097905 365.645814558,336.85362501 370.969319171,334.244493395" stroke="#000000" stroke-width="1" /><polygon fill="none" points="362.001424018,338.3704704 355.618536052,321.540178032 351.247283413,323.061317997 356.393378315,340.310019607 362.001424018,338.3704704" stroke="#000000" stroke-width="1" /><polygon fill="none" points="352.587423102,341.369299439 348.279741145,323.892346726 343.750268217,324.862936623 346.779741063,342.606168974 352.587423102,341.369299439" stroke="#000000" stroke-width="1" /><polygon fill="none" points="342.870351977,343.189662011 340.700691732,325.320902277 336.083690755,325.723416581 336.952365008,343.702443391 342.870351977,343.189662011" stroke="#000000" stroke-width="1" /><polygon fill="none" points="333.0,180.0 333.0,198.0 337.631661549,198.172899819 338.936453114,180.220253246 333.0,180.0" stroke="#000000" stroke-width="1" /><polygon fill="none" points="342.870351977,180.610337989 340.700691732,198.479097723 345.273777757,199.224254284 348.733008343,181.559777961 342.870351977,180.610337989" stroke="#000000" stroke-width="1" /><polygon fill="none" points="352.587423102,182.430700561 348.279741145,199.907653274 352.722480985,201.211546833 358.28570722,184.092828602 352.587423102,182.430700561" stroke="#000000" stroke-width="1" /><polygon fill="none" points="362.001424018,185.4295296 355.618536052,202.259821968 359.862350267,204.099131343 367.448447785,187.775800664 362.001424018,185.4295296" stroke="#000000" stroke-width="1" /><polygon fill="none" points="370.969319171,189.555506605 362.604302075,205.493715067 366.58529992,207.836243553 376.083646336,192.546331344 370.969319171,189.555506605" stroke="#000000" stroke-width="1" /><polygon fill="none" points="379.35766284,194.739330732 369.132497399,209.553040318 372.792658067,212.358907518 384.064746103,198.325375129 379.35766284,194.739330732" stroke="#000000" stroke-width="1" /><polygon fill="none" points="387.04486958,200.89595307 375.108661731,214.369146537 378.396653915,217.592126366 391.278111144,205.0196143 387.04486958,200.89595307" stroke="#000000" stroke-width="1" /><polygon fill="none" points="393.922852336,207.927062554 380.449658869,219.863270403 383.321298302,223.45215301 397.624284071,212.523996803 393.922852336,207.927062554" stroke="#000000" stroke-width="1" /><polygon fill="none" points="399.898036099,215.723619747 385.084326513,225.948785188 387.502711742,229.848654594 403.018656312,220.724211373 399.898036099,215.723619747" stroke="#000000" stroke-width="1" /><polygon fill="none" points="404.891820074,224.168262115 388.953611613,232.533279211 390.889008897,236.686625075 407.391654857,229.498949767 404.891820074,224.168262115" stroke="#000000" stroke-width="1" /><polygon fill="none" points="408.8406088,233.137450978 392.010316432,239.520338945 393.439882521,243.867954552 410.688584131,238.721859649 408.8406088,233.137450978" stroke="#000000" stroke-width="1" /><polygon fill="none" points="411.695558537,242.503286902 394.218605823,246.810968859 395.126041964,251.292622864 412.869274316,248.263150018 411.695558537,242.503286902" stroke="#000000" stroke-width="1" /><polygon fill="none" points="413.4221895,252.134978256 395.553429766,254.3046385 395.928653185,258.859540613 413.907679995,257.99086636 413.4221895,252.134978256" stroke="#000000" stroke-width="1" /><polygon fill="none" points="414.0,261.9 396.0,261.9 395.838902615,266.467107685 413.791549188,267.771899251 414.0,261.9" stroke="#000000" stroke-width="1" /><polygon fill="none" points="413.4221895,271.665021744 395.553429766,269.4953615 394.857770906,274.013593926 412.522247229,277.472824512 413.4221895,271.665021744" stroke="#000000" stroke-width="1" /><polygon fill="none" points="411.695558537,281.296713098 394.218605823,276.989031141 392.996058829,281.397467272 410.114777059,286.960693507 411.695558537,281.296713098" stroke="#000000" stroke-width="1" /><polygon fill="none" points="408.8406088,290.662549022 392.010316432,284.279661055 390.274660564,288.517800549 406.597991243,296.103898067 408.8406088,290.662549022" stroke="#000000" stroke-width="1" /><polygon fill="none" points="404.891820074,299.631737885 388.953611613,291.266720789 386.725032919,295.27487926 402.014945128,304.773225676 404.891820074,299.631737885" stroke="#000000" stroke-width="1" /><polygon fill="none" points="399.898036099,308.076380253 385.084326513,297.851214812 382.389766437,301.571109162 396.423298826,312.843197197 399.898036099,308.076380253" stroke="#000000" stroke-width="1" /><polygon fill="none" points="393.922852336,315.872937446 380.449658869,303.936729597 377.323129991,307.312285168 389.895642057,320.193742397 393.922852336,315.872937446" stroke="#000000" stroke-width="1" /><polygon fill="none" points="387.04486958,322.90404693 375.108661731,309.430853463 371.591438839,312.409234138 382.519595046,326.712219907 387.04486958,322.90404693" stroke="#000000" stroke-width="1" /><polygon fill="none" points="379.35766284,329.060669268 369.132497399,314.246959682 365.273091755,316.77978725 374.397534977,332.29573182 379.35766284,329.060669268" stroke="#000000" stroke-width="1" /><polygon fill="none" points="370.969319171,334.244493395 362.604302075,318.306284933 358.45813925,320.35097905 365.645814558,336.85362501 370.969319171,334.244493395" stroke="#000000" stroke-width="1" /><polygon fill="none" points="362.001424018,338.3704704 355.618536052,321.540178032 351.247283413,323.061317997 356.393378315,340.310019607 362.001424018,338.3704704" stroke="#000000" stroke-width="1" /><polygon fill="none" points="352.587423102,341.369299439 348.279741145,323.892346726 343.750268217,324.862936623 346.779741063,342.606168974 352.587423102,341.369299439" stroke="#000000" stroke-width="1" /><polygon fill="none" points="342.870351977,343.189662011 340.700691732,325.320902277 336.083690755,325.723416581 336.952365008,343.702443391 342.870351977,343.189662011" stroke="#000000" stroke-width="1" /><polygon fill="none" points="333.0,343.8 333.0,325.8 327.090590148,325.8 327.090590148,343.8 333.0,343.8" stroke="#000000" stroke-width="1" /><polygon fill="none" points="324.0,343.8 324.0,325.8 318.090590148,325.8 318.090590148,343.8 324.0,343.8" stroke="#000000" stroke-width="1" /><polygon fill="none" points="315.0,343.8 315.0,325.8 309.090590148,325.8 309.090590148,343.8 315.0,343.8" stroke="#000000" stroke-width="1" /><polygon fill="none" points="306.0,343.8 306.0,325.8 300.090590148,325.8 300.090590148,343.8 306.0,343.8" stroke="#000000" stroke-width="1" /><polygon fill="none" points="297.0,343.8 297.0,325.8 291.090590148,325.8 291.090590148,343.8 297.0,343.8" stroke="#000000" stroke-width="1" /><polygon fill="none" points="279.0,208.8 279.0,226.8 284.909409852,226.8 284.909409852,208.8 279.0,208.8" stroke="#000000" stroke-width="1" /><polygon fill="none" points="288.0,208.8 288.0,226.8 293.909409852,226.8 293.909409852,208.8 288.0,208.8" stroke="#000000" stroke-width="1" /><polygon fill="none" points="297.0,208.8 297.0,226.8 302.909409852,226.8 302.909409852,208.8 297.0,208.8" stroke="#000000" stroke-width="1" /><polygon fill="none" points="306.0,208.8 306.0,226.8 311.909409852,226.8 311.909409852,208.8 306.0,208.8" stroke="#000000" stroke-width="1" /><polygon fill="none" points="315.0,208.8 315.0,226.8 320.909409852,226.8 320.909409852,208.8 315.0,208.8" stroke="#000000" stroke-width="1" /><polygon fill="none" points="324.0,208.8 324.0,226.8 329.909409852,226.8 329.909409852,208.8 324.0,208.8" stroke="#000000" stroke-width="1" /><polygon fill="none" points="333.0,208.8 333.0,226.8 336.929971647,227.032356684 338.946006833,209.14561293 333.0,208.8" stroke="#000000" stroke-width="1" /><polygon fill="none" points="342.751375513,209.734748475 339.443884193,227.42826427 343.250256794,228.412574618 348.518645691,211.20083216 342.751375513,209.734748475" stroke="#000000" stroke-width="1" /><polygon fill="none" points="352.138550167,212.497707263 345.636200176,229.282207392 349.174219551,230.971042403 357.515553492,215.020426488 352.138550167,212.497707263" stroke="#000000" stroke-width="1" /><polygon fill="none" points="360.819797189,216.969484825 351.344018258,232.273393268 354.487774478,234.589435417 365.617999341,220.443125138 360.819797189,216.969484825" stroke="#000000" stroke-width="1" /><polygon fill="none" points="368.494189471,222.964728894 356.367667885,236.266889404 359.015837751,239.111757851 372.555927078,227.251488839 368.494189471,222.964728894" stroke="#000000" stroke-width="1" /><polygon fill="none" points="374.913090081,230.24870359 360.54877999,241.096127045 362.626057111,244.359587632 378.114919399,235.189247124 374.913090081,230.24870359" stroke="#000000" stroke-width="1" /><polygon fill="none" points="379.884331171,238.55437704 363.771391927,246.577667443 365.226404808,250.145154564 382.136585428,243.977027506 379.884331171,238.55437704" stroke="#000000" stroke-width="1" /><polygon fill="none" points="383.270608481,247.596778697 365.957746904,252.522712518 366.759072785,256.279968313 384.514715818,253.324102874 383.270608481,247.596778697" stroke="#000000" stroke-width="1" /><polygon fill="none" points="384.984762146,257.08290239 367.061546973,258.743732861 367.19361592,262.578410651 385.190074238,262.935465285 384.984762146,257.08290239" stroke="#000000" stroke-width="1" /><polygon fill="none" points="384.984762146,266.71709761 367.061546973,265.056267139 366.521916168,268.857218952 384.146341968,272.51503459 384.984762146,266.71709761" stroke="#000000" stroke-width="1" /><polygon fill="none" points="383.270608481,276.203221303 365.957746904,271.277287482 364.756619115,274.932812069 381.408833713,281.766826187 383.270608481,276.203221303" stroke="#000000" stroke-width="1" /><polygon fill="none" points="379.884331171,285.24562296 363.771391927,277.222332557 361.933525352,280.618883008 377.046457553,290.396371453 379.884331171,285.24562296" stroke="#000000" stroke-width="1" /><polygon fill="none" points="374.913090081,293.55129641 360.54877999,282.703872955 358.117193393,285.72662655 371.176190417,298.114628678 374.913090081,293.55129641" stroke="#000000" stroke-width="1" /><polygon fill="none" points="368.494189471,300.835271106 356.367667885,287.533110596 353.407875362,290.069379774 363.968228728,304.646037031 368.494189471,300.835271106" stroke="#000000" stroke-width="1" /><polygon fill="none" points="360.819797189,306.830515175 351.344018258,291.526606732 347.947074283,293.472313136 355.649163822,309.741234942 360.819797189,306.830515175" stroke="#000000" stroke-width="1" /><polygon fill="none" points="352.138550167,311.302292737 345.636200176,294.517792608 341.918802355,295.786221384 346.500342646,313.193389119 352.138550167,311.302292737" stroke="#000000" stroke-width="1" /><polygon fill="none" points="342.751375513,314.065251525 339.443884193,296.37173573 335.544343937,296.902795188 336.849316121,314.855428632 342.751375513,314.065251525" stroke="#000000" stroke-width="1" /><polygon fill="none" points="333.0,208.8 333.0,226.8 336.929971647,227.032356684 338.946006833,209.14561293 333.0,208.8" stroke="#000000" stroke-width="1" /><polygon fill="none" points="342.751375513,209.734748475 339.443884193,227.42826427 343.250256794,228.412574618 348.518645691,211.20083216 342.751375513,209.734748475" stroke="#000000" stroke-width="1" /><polygon fill="none" points="352.138550167,212.497707263 345.636200176,229.282207392 349.174219551,230.971042403 357.515553492,215.020426488 352.138550167,212.497707263" stroke="#000000" stroke-width="1" /><polygon fill="none" points="360.819797189,216.969484825 351.344018258,232.273393268 354.487774478,234.589435417 365.617999341,220.443125138 360.819797189,216.969484825" stroke="#000000" stroke-width="1" /><polygon fill="none" points="368.494189471,222.964728894 356.367667885,236.266889404 359.015837751,239.111757851 372.555927078,227.251488839 368.494189471,222.964728894" stroke="#000000" stroke-width="1" /><polygon fill="none" points="374.913090081,230.24870359 360.54877999,241.096127045 362.626057111,244.359587632 378.114919399,235.189247124 374.913090081,230.24870359" stroke="#000000" stroke-width="1" /><polygon fill="none" points="379.884331171,238.55437704 363.771391927,246.577667443 365.226404808,250.145154564 382.136585428,243.977027506 379.884331171,238.55437704" stroke="#000000" stroke-width="1" /><polygon fill="none" points="383.270608481,247.596778697 365.957746904,252.522712518 366.759072785,256.279968313 384.514715818,253.324102874 383.270608481,247.596778697" stroke="#000000" stroke-width="1" /><polygon fill="none" points="384.984762146,257.08290239 367.061546973,258.743732861 367.19361592,262.578410651 385.190074238,262.935465285 384.984762146,257.08290239" stroke="#000000" stroke-width="1" /><polygon fill="none" points="384.984762146,266.71709761 367.061546973,265.056267139 366.521916168,268.857218952 384.146341968,272.51503459 384.984762146,266.71709761" stroke="#000000" stroke-width="1" /><polygon fill="none" points="383.270608481,276.203221303 365.957746904,271.277287482 364.756619115,274.932812069 381.408833713,281.766826187 383.270608481,276.203221303" stroke="#000000" stroke-width="1" /><polygon fill="none" points="379.884331171,285.24562296 363.771391927,277.222332557 361.933525352,280.618883008 377.046457553,290.396371453 379.884331171,285.24562296" stroke="#000000" stroke-width="1" /><polygon fill="none" points="374.913090081,293.55129641 360.54877999,282.703872955 358.117193393,285.72662655 371.176190417,298.114628678 374.913090081,293.55129641" stroke="#000000" stroke-width="1" /><polygon fill="none" points="368.494189471,300.835271106 356.367667885,287.533110596 353.407875362,290.069379774 363.968228728,304.646037031 368.494189471,300.835271106" stroke="#000000" stroke-width="1" /><polygon fill="none" points="360.819797189,306.830515175 351.344018258,291.526606732 347.947074283,293.472313136 355.649163822,309.741234942 360.819797189,306.830515175" stroke="#000000" stroke-width="1" /><polygon fill="none" points="352.138550167,311.302292737 345.636200176,294.517792608 341.918802355,295.786221384 346.500342646,313.193389119 352.138550167,311.302292737" stroke="#000000" stroke-width="1" /><polygon fill="none" points="342.751375513,314.065251525 339.443884193,296.37173573 335.544343937,296.902795188 336.849316121,314.855428632 342.751375513,314.065251525" stroke="#000000" stroke-width="1" /><polygon fill="none" points="333.0,315.0 333.0,297.0 327.090590148,297.0 327.090590148,315.0 333.0,315.0" stroke="#000000" stroke-width="1" /><polygon fill="none" points="324.0,315.0 324.0,297.0 318.090590148,297.0 318.090590148,315.0 324.0,315.0" stroke="#000000" stroke-width="1" /><polygon fill="none" points="315.0,315.0 315.0,297.0 309.090590148,297.0 309.090590148,315.0 315.0,315.0" stroke="#000000" stroke-width="1" /><polygon fill="none" points="306.0,315.0 306.0,297.0 300.090590148,297.0 300.090590148,315.0 306.0,315.0" stroke="#000000" stroke-width="1" /><polygon fill="none" points="297.0,315.0 297.0,297.0 291.090590148,297.0 291.090590148,315.0 297.0,315.0" stroke="#000000" stroke-width="1" /><polygon fill="none" points="288.0,315.0 288.0,297.0 282.090590148,297.0 282.090590148,315.0 288.0,315.0" stroke="#000000" stroke-width="1" /><polygon fill="none" points="279.0,315.0 279.0,297.0 272.537166221,297.0979306 273.077991188,315.089803998 279.0,315.0" stroke="#000000" stroke-width="1" /><polygon fill="none" points="269.328868444,315.239594723 268.445650307,297.261276511 261.995682504,297.678856261 263.418675408,315.622520636 269.328868444,315.239594723" stroke="#000000" stroke-width="1" /><polygon fill="none" points="259.681674942,315.957754086 257.917366416,298.044429006 251.496188539,298.780576163 253.797921266,316.632803656 259.681674942,315.957754086" stroke="#000000" stroke-width="1" /><polygon fill="none" points="250.082285827,317.15260623 247.441137287,299.347429051 241.064588515,300.400238204 244.239515989,318.118021235 250.082285827,317.15260623" stroke="#000000" stroke-width="1" /><polygon fill="none" points="240.554424482,318.8210399 237.042798686,301.166904853 230.726587153,302.533654435 234.767060695,320.074309313 240.554424482,318.8210399" stroke="#000000" stroke-width="1" /><polygon fill="none" points="231.121601079,320.958717099 226.747957841,303.498154541 220.507615203,305.175317493 225.403900959,322.496587244 231.121601079,320.958717099" stroke="#000000" stroke-width="1" /><polygon fill="none" points="221.807043754,323.560090595 216.581919564,306.335164552 210.432756695,308.318422006 216.173059083,325.378578174 221.807043754,323.560090595" stroke="#000000" stroke-width="1" /><polygon fill="none" points="212.633631653,326.618426081 206.569614292,309.670632908 200.52667836,311.954890745 207.097168489,328.71283392 212.633631653,326.618426081" stroke="#000000" stroke-width="1" /><polygon fill="none" points="203.623830252,330.125828715 196.735528469,313.495997129 190.813561634,316.075405228 198.198410618,332.490764057 203.623830252,330.125828715" stroke="#000000" stroke-width="1" /><polygon fill="none" points="194.799629323,334.073273763 187.103637641,317.801466486 181.317037582,320.669440456 189.498454673,336.702668901 194.799629323,334.073273763" stroke="#000000" stroke-width="1" /><polygon fill="none" points="186.18248386,338.450640992 177.697342597,322.576058234 172.060125048,325.725303407 181.018400496,341.337776017 186.18248386,338.450640992" stroke="#000000" stroke-width="1" /><polygon fill="none" points="177.79325824,343.246752448 168.539408844,327.807637468 163.065172286,331.230174919 172.77872482,346.38427988 177.79325824,343.246752448" stroke="#000000" stroke-width="1" /><polygon fill="none" points="169.652173833,348.449413224 159.651909639,333.482960202 154.35380225,337.170154527 164.799231072,351.829384272 169.652173833,348.449413224" stroke="#000000" stroke-width="1" /><polygon fill="none" points="161.778760227,354.045454821 151.056172746,339.587719254 145.946861716,343.530307865 157.099002873,357.659347027 161.778760227,354.045454821" stroke="#000000" stroke-width="1" /><polygon fill="none" points="154.191810176,360.020780677 142.772731061,346.106592516 137.864374282,350.294716194 149.696361288,363.859526679 154.191810176,360.020780677" stroke="#000000" stroke-width="1" /><polygon fill="none" points="146.90933832,366.360413454 134.821277133,353.023293197 130.125497308,357.446527643 142.608825871,370.414430634 146.90933832,366.360413454" stroke="#000000" stroke-width="1" /><polygon fill="none" points="139.948543689,373.048543689 127.220621628,360.320621628 122.748482758,364.968009773 135.853079446,377.307764457 139.948543689,373.048543689" stroke="#000000" stroke-width="1" /><polygon fill="none" points="133.325775926,380.068579411 119.988655669,367.980518224 115.750641884,372.840603072 129.444936575,384.522481898 133.325775926,380.068579411" stroke="#000000" stroke-width="1" /><polygon fill="none" points="127.05650514,387.403196364 113.142316979,375.984117249 109.14831363,381.044975027 123.399315569,392.040835327 127.05650514,387.403196364" stroke="#000000" stroke-width="1" /><polygon fill="none" points="121.155295261,395.034388504 106.697559694,384.311801023 102.956836619,389.561074457 117.730213895,399.844426239 121.155295261,395.034388504" stroke="#000000" stroke-width="1" /><polygon fill="none" points="115.635780704,402.943518466 100.669327683,392.943254272 97.1905245219,398.368185805 112.450686774,407.914255575 115.635780704,402.943518466" stroke="#000000" stroke-width="1" /><polygon fill="none" points="110.510646163,411.111367739 95.0715311834,401.857518344 91.8626446124,407.444983162 107.572828773,416.230773602 110.510646163,411.111367739" stroke="#000000" stroke-width="1" /><polygon fill="none" points="105.791609283,419.518186322 89.9170265249,411.033045059 86.9853992713,416.769583792 103.107758131,424.773929162 105.791609283,419.518186322" stroke="#000000" stroke-width="1" /><polygon fill="none" points="101.489405988,428.143741685 85.2175987119,420.447750003 82.5699101948,426.319601011 99.0656035789,433.523218142 101.489405988,428.143741685" stroke="#000000" stroke-width="1" /><polygon fill="none" points="97.6137782003,436.967366903 80.9839466151,430.07906512 78.6262050594,436.072196295 95.4554933977,442.457731043 97.6137782003,436.967366903" stroke="#000000" stroke-width="1" /><polygon fill="none" points="94.173463694,445.968007859 77.2256705207,439.903990498 75.1632063906,446.00413054 92.2855464536,451.556199593 94.173463694,445.968007859" stroke="#000000" stroke-width="1" /><polygon fill="none" points="91.1761878307,455.124269476 73.9512617876,449.899145285 72.1887223915,456.091814441 89.5628649621,460.797042378 91.1761878307,455.124269476" stroke="#000000" stroke-width="1" /><polygon fill="none" points="88.6286569292,464.414460967 71.1680943717,460.040817728 69.7094394967,466.311357985 87.2935287437,470.158409499 88.6286569292,464.414460967" stroke="#000000" stroke-width="1" /><polygon fill="none" points="86.5365530383,473.816640131 68.882417991,470.305014335 67.7309164377,476.638619115 85.48259075,479.618226323 86.5365530383,473.816640131" stroke="#000000" stroke-width="1" /><polygon fill="none" points="84.9045299018,483.308656766 67.0993527224,480.667508226 66.2575796234,487.049251622 84.1340736626,489.154236389 84.9045299018,483.308656766" stroke="#000000" stroke-width="1" /><polygon fill="none" points="83.7362099264,492.868195291 65.8228848463,491.103886765 65.2927196704,497.518752382 83.2509673966,498.744043614 83.7362099264,492.868195291" stroke="#000000" stroke-width="1" /><polygon fill="none" points="83.0341819954,502.472816699 65.0558637837,501.589598561 64.8384889442,508.022508047 82.8352273657,508.365153911 83.0341819954,502.472816699" stroke="#000000" stroke-width="1" /><polygon fill="none" points="82.8,512.1 64.8,512.1 64.8959000077,518.535841355 82.8877734053,517.995016388 82.8,512.1" stroke="#000000" stroke-width="1" /><polygon fill="none" points="83.0341819954,521.727183301 65.0558637837,522.610401439 65.4648249065,529.034057205 83.4084892812,527.6110643 83.0341819954,521.727183301" stroke="#000000" stroke-width="1" /><polygon fill="none" points="83.7362099264,531.331804709 65.8228848463,533.096113235 66.5439952586,539.492488658 84.3962227514,537.190755932 83.7362099264,531.331804709" stroke="#000000" stroke-width="1" /><polygon fill="none" points="84.9045299018,540.891343234 67.0993527224,543.532491774 68.1310031529,549.886543059 85.8487861841,546.711615586 84.9045299018,540.891343234" stroke="#000000" stroke-width="1" /><polygon fill="none" points="86.5365530383,550.383359869 68.882417991,553.894985665 70.2223028967,560.191748407 87.7629577749,556.151274865 86.5365530383,550.383359869" stroke="#000000" stroke-width="1" /><polygon fill="none" points="88.6286569292,559.785539033 71.1680943717,564.159182272 72.8132136911,570.383800167 90.1344834424,565.487514411 88.6286569292,559.785539033" stroke="#000000" stroke-width="1" /><polygon fill="none" points="91.1761878307,569.075730524 73.9512617876,574.300854715 75.8979233455,580.438608636 92.958079514,574.698306248 91.1761878307,569.075730524" stroke="#000000" stroke-width="1" /><polygon fill="none" points="94.173463694,578.231992141 77.2256705207,584.296009502 79.4694931768,590.332347007 96.2274363519,583.761856877 94.173463694,578.231992141" stroke="#000000" stroke-width="1" /><polygon fill="none" points="97.6137782003,587.232633097 80.9839466151,594.12093488 83.519864265,600.041500208 99.9352230938,592.656651223 97.6137782003,587.232633097" stroke="#000000" stroke-width="1" /><polygon fill="none" points="101.489405988,596.056258315 85.2175987119,603.752249997 88.0398652675,609.542914595 104.073093713,601.361497503 101.489405988,596.056258315" stroke="#000000" stroke-width="1" /><polygon fill="none" points="105.791609283,604.681813678 89.9170265249,613.166954941 93.0192220089,618.813848529 108.631694619,609.855573081 105.791609283,604.681813678" stroke="#000000" stroke-width="1" /><polygon fill="none" points="110.510646163,613.088632261 95.0715311834,622.342481656 98.4465690854,627.832023829 113.600674046,618.118471295 110.510646163,613.088632261" stroke="#000000" stroke-width="1" /><polygon fill="none" points="115.635780704,621.256481534 100.669327683,631.256745728 104.309463729,636.575678064 118.968693475,626.130249243 115.635780704,621.256481534" stroke="#000000" stroke-width="1" /><polygon fill="none" points="121.155295261,629.165611496 106.697559694,639.888198977 110.594402184,645.023617586 124.723441346,633.87147643 121.155295261,629.165611496" stroke="#000000" stroke-width="1" /><polygon fill="none" points="127.05650514,636.796803636 113.142316979,648.215882751 117.286838844,653.155271186 130.851649329,641.323284179 127.05650514,636.796803636" stroke="#000000" stroke-width="1" /><polygon fill="none" points="133.325775926,644.131420589 119.988655669,656.219481776 124.371208393,660.950744192 137.339111385,648.46741563 133.325775926,644.131420589" stroke="#000000" stroke-width="1" /><polygon fill="none" points="139.948543689,651.151456311 127.220621628,663.879378372 131.830951176,668.390872802 144.17070586,655.286276115 139.948543689,651.151456311" stroke="#000000" stroke-width="1" /><polygon fill="none" points="146.90933832,657.839586546 134.821277133,671.176706803 139.648542003,675.457278377 151.330420829,661.762983686 146.90933832,657.839586546" stroke="#000000" stroke-width="1" /><polygon fill="none" points="154.191810176,664.179219323 142.772731061,678.093407484 147.805522564,682.132421416 158.801382864,667.881419477 154.191810176,664.179219323" stroke="#000000" stroke-width="1" /><polygon fill="none" points="161.778760227,670.154545179 151.056172746,684.612280746 156.282537606,688.399654874 166.565889388,673.626277599 161.778760227,670.154545179" stroke="#000000" stroke-width="1" /><polygon fill="none" points="169.652173833,675.750586776 159.651909639,690.717039798 165.059374952,694.243276464 174.605444722,678.983114212 169.652173833,675.750586776" stroke="#000000" stroke-width="1" /><polygon fill="none" points="177.79325824,680.953247552 168.539408844,696.392362532 174.115009456,699.648579545 182.900799896,683.938395385 177.79325824,680.953247552" stroke="#000000" stroke-width="1" /><polygon fill="none" points="186.18248386,685.749359008 177.697342597,701.623941766 183.427650868,704.601902218 191.431996238,688.479543359 186.18248386,685.749359008" stroke="#000000" stroke-width="1" /><polygon fill="none" points="194.799629323,690.126726237 187.103637641,706.398533514 192.974795588,709.090674178 200.17841272,692.594980794 194.799629323,690.126726237" stroke="#000000" stroke-width="1" /><polygon fill="none" points="203.623830252,694.074171285 196.735528469,710.704002871 202.733282206,713.103460934 209.118816955,696.274172595 203.623830252,694.074171285" stroke="#000000" stroke-width="1" /><polygon fill="none" points="212.633631653,697.581573919 206.569614292,714.529367092 212.679350676,716.630004959 218.231419729,699.507664896 212.633631653,697.581573919" stroke="#000000" stroke-width="1" /><polygon fill="none" points="221.807043754,700.639909405 216.581919564,717.864835448 222.788704907,719.66126338 227.493932843,702.28712081 221.807043754,700.639909405" stroke="#000000" stroke-width="1" /><polygon fill="none" points="231.121601079,703.241282901 226.747957841,720.701845459 233.036578529,722.189441815 236.883630043,704.605352568 231.121601079,703.241282901" stroke="#000000" stroke-width="1" /><polygon fill="none" points="240.554424482,705.3789601 237.042798686,723.033095147 243.397803497,724.208024004 246.377410705,706.456349692 240.554424482,705.3789601" stroke="#000000" stroke-width="1" /><polygon fill="none" points="250.082285827,707.04739377 247.441137287,724.852570949 253.846881193,725.71179692 255.951865959,707.83530288 250.082285827,707.04739377" stroke="#000000" stroke-width="1" /><polygon fill="none" points="259.681674942,708.242245914 257.917366416,726.155570994 264.358055606,726.696871078 265.583346838,708.738623352 259.681674942,708.242245914" stroke="#000000" stroke-width="1" /><polygon fill="none" points="269.328868444,708.960405277 268.445650307,726.938723489 274.90538817,727.160695821 275.248034035,709.1639574 269.328868444,708.960405277" stroke="#000000" stroke-width="1" /><polygon fill="none" points="279.0,315.0 279.0,297.0 272.537166221,297.0979306 273.077991188,315.089803998 279.0,315.0" stroke="#000000" stroke-width="1" /><polygon fill="none" points="269.328868444,315.239594723 268.445650307,297.261276511 261.995682504,297.678856261 263.418675408,315.622520636 269.328868444,315.239594723" stroke="#000000" stroke-width="1" /><polygon fill="none" points="259.681674942,315.957754086 257.917366416,298.044429006 251.496188539,298.780576163 253.797921266,316.632803656 259.681674942,315.957754086" stroke="#000000" stroke-width="1" /><polygon fill="none" points="250.082285827,317.15260623 247.441137287,299.347429051 241.064588515,300.400238204 244.239515989,318.118021235 250.082285827,317.15260623" stroke="#000000" stroke-width="1" /><polygon fill="none" points="240.554424482,318.8210399 237.042798686,301.166904853 230.726587153,302.533654435 234.767060695,320.074309313 240.554424482,318.8210399" stroke="#000000" stroke-width="1" /><polygon fill="none" points="231.121601079,320.958717099 226.747957841,303.498154541 220.507615203,305.175317493 225.403900959,322.496587244 231.121601079,320.958717099" stroke="#000000" stroke-width="1" /><polygon fill="none" points="221.807043754,323.560090595 216.581919564,306.335164552 210.432756695,308.318422006 216.173059083,325.378578174 221.807043754,323.560090595" stroke="#000000" stroke-width="1" /><polygon fill="none" points="212.633631653,326.618426081 206.569614292,309.670632908 200.52667836,311.954890745 207.097168489,328.71283392 212.633631653,326.618426081" stroke="#000000" stroke-width="1" /><polygon fill="none" points="203.623830252,330.125828715 196.735528469,313.495997129 190.813561634,316.075405228 198.198410618,332.490764057 203.623830252,330.125828715" stroke="#000000" stroke-width="1" /><polygon fill="none" points="194.799629323,334.073273763 187.103637641,317.801466486 181.317037582,320.669440456 189.498454673,336.702668901 194.799629323,334.073273763" stroke="#000000" stroke-width="1" /><polygon fill="none" points="186.18248386,338.450640992 177.697342597,322.576058234 172.060125048,325.725303407 181.018400496,341.337776017 186.18248386,338.450640992" stroke="#000000" stroke-width="1" /><polygon fill="none" points="177.79325824,343.246752448 168.539408844,327.807637468 163.065172286,331.230174919 172.77872482,346.38427988 177.79325824,343.246752448" stroke="#000000" stroke-width="1" /><polygon fill="none" points="169.652173833,348.449413224 159.651909639,333.482960202 154.35380225,337.170154527 164.799231072,351.829384272 169.652173833,348.449413224" stroke="#000000" stroke-width="1" /><polygon fill="none" points="161.778760227,354.045454821 151.056172746,339.587719254 145.946861716,343.530307865 157.099002873,357.659347027 161.778760227,354.045454821" stroke="#000000" stroke-width="1" /><polygon fill="none" points="154.191810176,360.020780677 142.772731061,346.106592516 137.864374282,350.294716194 149.696361288,363.859526679 154.191810176,360.020780677" stroke="#000000" stroke-width="1" /><polygon fill="none" points="146.90933832,366.360413454 134.821277133,353.023293197 130.125497308,357.446527643 142.608825871,370.414430634 146.90933832,366.360413454" stroke="#000000" stroke-width="1" /><polygon fill="none" points="139.948543689,373.048543689 127.220621628,360.320621628 122.748482758,364.968009773 135.853079446,377.307764457 139.948543689,373.048543689" stroke="#000000" stroke-width="1" /><polygon fill="none" points="133.325775926,380.068579411 119.988655669,367.980518224 115.750641884,372.840603072 129.444936575,384.522481898 133.325775926,380.068579411" stroke="#000000" stroke-width="1" /><polygon fill="none" points="279.0,237.6 279.0,255.6 284.909409852,255.6 284.909409852,237.6 279.0,237.6" stroke="#000000" stroke-width="1" /><polygon fill="none" points="288.0,237.6 288.0,255.6 293.909409852,255.6 293.909409852,237.6 288.0,237.6" stroke="#000000" stroke-width="1" /><polygon fill="none" points="297.0,237.6 297.0,255.6 302.909409852,255.6 302.909409852,237.6 297.0,237.6" stroke="#000000" stroke-width="1" /><polygon fill="none" points="306.0,237.6 306.0,255.6 311.909409852,255.6 311.909409852,237.6 306.0,237.6" stroke="#000000" stroke-width="1" /><polygon fill="none" points="315.0,237.6 315.0,255.6 320.909409852,255.6 320.909409852,237.6 315.0,237.6" stroke="#000000" stroke-width="1" /><polygon fill="none" points="324.0,237.6 324.0,255.6 329.909409852,255.6 329.909409852,237.6 324.0,237.6" stroke="#000000" stroke-width="1" /><polygon fill="none" points="333.0,237.6 333.0,255.6 334.5309205,255.847702828 338.944973562,238.397312129 333.0,237.6" stroke="#000000" stroke-width="1" /><polygon fill="none" points="343.466417481,240.166260155 335.656510177,256.383699777 336.796292847,257.361202395 348.344658002,243.554129489 343.466417481,240.166260155" stroke="#000000" stroke-width="1" /><polygon fill="none" points="351.558996044,247.09969453 337.48602936,258.322510964 338.05183382,259.610907037 354.447215719,252.181812046 351.558996044,247.09969453" stroke="#000000" stroke-width="1" /><polygon fill="none" points="355.854487135,256.683612451 338.305784716,260.688989262 338.398991331,262.02610272 356.394083513,262.446409019 355.854487135,256.683612451" stroke="#000000" stroke-width="1" /><polygon fill="none" points="355.854487135,267.116387549 338.305784716,263.111010738 337.96768276,264.436873458 353.998336521,272.62333423 355.854487135,267.116387549" stroke="#000000" stroke-width="1" /><polygon fill="none" points="351.558996044,276.70030547 337.48602936,265.477489036 336.605325449,266.644090501 347.496473211,280.975276789 351.558996044,276.70030547" stroke="#000000" stroke-width="1" /><polygon fill="none" points="343.466417481,283.633739845 335.656510177,267.416300223 334.250512535,268.035970253 337.845028911,285.673414853 343.466417481,283.633739845" stroke="#000000" stroke-width="1" /><polygon fill="none" points="333.0,237.6 333.0,255.6 334.5309205,255.847702828 338.944973562,238.397312129 333.0,237.6" stroke="#000000" stroke-width="1" /><polygon fill="none" points="343.466417481,240.166260155 335.656510177,256.383699777 336.796292847,257.361202395 348.344658002,243.554129489 343.466417481,240.166260155" stroke="#000000" stroke-width="1" /><polygon fill="none" points="351.558996044,247.09969453 337.48602936,258.322510964 338.05183382,259.610907037 354.447215719,252.181812046 351.558996044,247.09969453" stroke="#000000" stroke-width="1" /><polygon fill="none" points="355.854487135,256.683612451 338.305784716,260.688989262 338.398991331,262.02610272 356.394083513,262.446409019 355.854487135,256.683612451" stroke="#000000" stroke-width="1" /><polygon fill="none" points="355.854487135,267.116387549 338.305784716,263.111010738 337.96768276,264.436873458 353.998336521,272.62333423 355.854487135,267.116387549" stroke="#000000" stroke-width="1" /><polygon fill="none" points="351.558996044,276.70030547 337.48602936,265.477489036 336.605325449,266.644090501 347.496473211,280.975276789 351.558996044,276.70030547" stroke="#000000" stroke-width="1" /><polygon fill="none" points="343.466417481,283.633739845 335.656510177,267.416300223 334.250512535,268.035970253 337.845028911,285.673414853 343.466417481,283.633739845" stroke="#000000" stroke-width="1" /><polygon fill="none" points="333.0,286.2 333.0,268.2 327.090590148,268.2 327.090590148,286.2 333.0,286.2" stroke="#000000" stroke-width="1" /><polygon fill="none" points="324.0,286.2 324.0,268.2 318.090590148,268.2 318.090590148,286.2 324.0,286.2" stroke="#000000" stroke-width="1" /><polygon fill="none" points="315.0,286.2 315.0,268.2 309.090590148,268.2 309.090590148,286.2 315.0,286.2" stroke="#000000" stroke-width="1" /><polygon fill="none" points="306.0,286.2 306.0,268.2 300.090590148,268.2 300.090590148,286.2 306.0,286.2" stroke="#000000" stroke-width="1" /><polygon fill="none" points="297.0,286.2 297.0,268.2 291.090590148,268.2 291.090590148,286.2 297.0,286.2" stroke="#000000" stroke-width="1" /><polygon fill="none" points="288.0,286.2 288.0,268.2 282.090590148,268.2 282.090590148,286.2 288.0,286.2" stroke="#000000" stroke-width="1" /><polygon fill="none" points="279.0,286.2 279.0,268.2 272.607740441,268.284402367 273.079495117,286.278219292 279.0,286.2" stroke="#000000" stroke-width="1" /><polygon fill="none" points="269.412601413,286.405172917 268.648659756,268.421391525 262.265922523,268.779015287 263.500931372,286.736597339 269.412601413,286.405172917" stroke="#000000" stroke-width="1" /><polygon fill="none" points="259.84289387,287.020295328 258.31638723,269.085140535 251.954927033,269.715298389 253.950964486,287.604284791 259.84289387,287.020295328" stroke="#000000" stroke-width="1" /><polygon fill="none" points="250.308529741,288.044179367 248.022208985,270.189971533 241.69373465,271.091453076 244.447203713,288.879606665 250.308529741,288.044179367" stroke="#000000" stroke-width="1" /><polygon fill="none" points="240.82708423,289.474849096 237.785069464,271.73376271 231.501218815,272.904837852 235.00715755,290.560103174 240.82708423,289.474849096" stroke="#000000" stroke-width="1" /><polygon fill="none" points="231.416017256,291.309546232 227.623790396,273.713551931 221.396105457,275.151975761 225.648195926,292.642536834 231.416017256,291.309546232" stroke="#000000" stroke-width="1" /><polygon fill="none" points="222.092635861,293.544738094 217.557030756,276.125545049 211.39693339,277.828564104 216.387513038,295.122901754 222.092635861,293.544738094" stroke="#000000" stroke-width="1" /><polygon fill="none" points="212.874057347,296.176127712 207.603247464,278.965126487 201.522015534,280.929486377 207.242091,297.99643504 212.874057347,296.176127712" stroke="#000000" stroke-width="1" /><polygon fill="none" points="203.777173272,299.198666011 197.780656967,282.226871993 191.789401138,284.448826323 198.228664458,301.257630203 203.777173272,299.198666011" stroke="#000000" stroke-width="1" /><polygon fill="none" points="194.818614476,302.60656597 188.107197876,285.904563478 182.21683913,288.379884001 189.363686318,304.900252498 194.818614476,302.60656597" stroke="#000000" stroke-width="1" /><polygon fill="none" points="186.01471726,306.393318652 178.600494792,289.991205825 172.821742747,292.715193743 180.6632947,308.917356036 186.01471726,306.393318652" stroke="#000000" stroke-width="1" /><polygon fill="none" points="177.381490858,310.551710978 169.277823452,294.479045532 163.621155545,297.446543875 172.143281257,313.301302572 177.381490858,310.551710978" stroke="#000000" stroke-width="1" /><polygon fill="none" points="168.934586289,315.073845107 160.156077301,299.35959107 154.631718911,302.56499805 163.819060935,318.043781805 168.934586289,315.073845107" stroke="#000000" stroke-width="1" /><polygon fill="none" points="160.689266696,319.951159282 151.251735591,304.623634803 145.869641138,308.060918067 155.705643263,323.135833065 160.689266696,319.951159282" stroke="#000000" stroke-width="1" /><polygon fill="none" points="152.66037924,325.174450006 142.580833089,310.261276319 137.350668153,313.923987989 147.817605239,328.567868214 152.66037924,325.174450006" stroke="#000000" stroke-width="1" /><polygon fill="none" points="144.862328612,330.73389537 134.158931438,316.261947023 129.09005594,320.143239443 140.169065857,334.329695634 144.862328612,330.73389537" stroke="#000000" stroke-width="1" /><polygon fill="none" points="137.309052192,336.619079411 126.001092241,322.614435834 121.10254468,326.707077922 132.773662305,340.410545125 137.309052192,336.619079411" stroke="#000000" stroke-width="1" /><polygon fill="none" points="130.013996891,342.819017325 118.12185187,329.30691583 113.402334648,333.603309935 125.644527837,346.799093576 130.013996891,342.819017325" stroke="#000000" stroke-width="1" /><polygon fill="none" points="122.990097669,349.322181388 110.535198027,336.326971697 106.003063842,340.819170873 118.794271336,353.483491258 122.990097669,349.322181388" stroke="#000000" stroke-width="1" /><polygon fill="none" points="116.24975773,356.116527452 103.254548039,343.661627811 98.9177873456,348.34135343 112.234958525,360.451388598 116.24975773,356.116527452" stroke="#000000" stroke-width="1" /><polygon fill="none" points="109.804830368,363.189521868 96.2927288731,351.297376847 92.1589583875,356.156036445 105.978094809,367.689963294 109.804830368,363.189521868" stroke="#000000" stroke-width="1" /><polygon fill="none" points="103.666602411,370.528168696 89.6619588338,359.220208745 85.7384110518,364.248914044 100.034609697,375.185947658 103.666602411,370.528168696" stroke="#000000" stroke-width="1" /><polygon fill="none" points="97.8457792412,378.119037106 83.3738308946,367.415639932 79.6673445914,372.605224955 94.4148427447,382.925656062 97.8457792412,378.119037106" stroke="#000000" stroke-width="1" /><polygon fill="none" points="92.352471292,385.948288832 77.4392976056,375.868742681 73.9563092754,381.2097819 89.1285309481,390.895012383 92.352471292,385.948288832" stroke="#000000" stroke-width="1" /><polygon fill="none" points="87.1961819883,394.001705601 71.8686575091,384.564174497 68.615193698,390.047000953 84.1847975212,399.079577373 87.1961819883,394.001705601" stroke="#000000" stroke-width="1" /><polygon fill="none" points="82.385797024,402.264716437 66.6715429871,393.486207449 63.6532134703,399.100930804 79.5921419655,407.464575848 82.385797024,402.264716437" stroke="#000000" stroke-width="1" /><polygon fill="none" points="77.9295749071,410.722424782 61.8569094604,402.618757375 59.0789012101,408.355281846 75.3584313509,416.034923661 77.9295749071,410.722424782" stroke="#000000" stroke-width="1" /><polygon fill="none" points="73.8351386789,419.359635354 57.4330258519,411.945412886 54.9000977431,417.793455034 71.4908927158,424.775254385 73.8351386789,419.359635354" stroke="#000000" stroke-width="1" /><polygon fill="none" points="70.1094687187,428.160880726 53.4074662274,421.449464126 51.1239444262,427.398570473 67.9961064968,433.669945686 70.1094687187,428.160880726" stroke="#000000" stroke-width="1" /><polygon fill="none" points="66.7588965439,437.11044756 49.7871025256,431.113931254 47.7568765061,437.153495722 64.8800008982,442.703145356 66.7588965439,437.11044756" stroke="#000000" stroke-width="1" /><polygon fill="none" points="63.789099515,446.192402507 46.5780982897,440.921592624 44.8046174268,447.040873774 62.1478471129,451.858796984 63.789099515,446.192402507" stroke="#000000" stroke-width="1" /><polygon fill="none" points="61.2050963611,455.390617755 43.7859033163,450.85501265 42.2721740056,457.043150731 59.8042553136,461.120665294 61.2050963611,455.390617755" stroke="#000000" stroke-width="1" /><polygon fill="none" points="59.0112434434,464.688796221 41.4152491423,460.896569361 40.1638323994,467.142603176 57.8531713337,470.472361135 59.0112434434,464.688796221" stroke="#000000" stroke-width="1" /><polygon fill="none" points="57.2112316823,474.070496427 39.4701452961,471.028481662 38.4831547932,477.321365254 56.2978739694,479.897366161 57.2112316823,474.070496427" stroke="#000000" stroke-width="1" /><polygon fill="none" points="55.808084079,483.519157067 37.9538762444,481.232836311 37.2329767485,487.561455507 55.1409728387,489.379057233 55.808084079,483.519157067" stroke="#000000" stroke-width="1" /><polygon fill="none" points="54.8041537728,493.018121311 36.8689989791,491.49161467 36.4154051581,497.844803476 54.3844067428,498.900730581 54.8041537728,493.018121311" stroke="#000000" stroke-width="1" /><polygon fill="none" points="54.2011225836,502.550660888 36.2173411919,501.786719231 36.0318167648,508.153276143 54.0294424885,508.445625774 54.2011225836,502.550660888" stroke="#000000" stroke-width="1" /><polygon fill="none" points="54.0,512.1 36.0,512.1 36.082857211,518.46870423 54.0766741359,517.996949554 54.0,512.1" stroke="#000000" stroke-width="1" /><polygon fill="none" points="54.2011225836,521.649339112 36.2173411919,522.413280769 36.5684405984,528.772908433 54.52602265,527.537899584 54.2011225836,521.649339112" stroke="#000000" stroke-width="1" /><polygon fill="none" points="54.8041537728,531.181878689 36.8689989791,532.70838533 37.4877495457,539.047725631 55.3767359475,537.051688177 54.8041537728,531.181878689" stroke="#000000" stroke-width="1" /><polygon fill="none" points="55.808084079,540.680842933 37.9538762444,542.967163689 38.8392357485,549.275035127 56.6273893379,546.521566064 55.808084079,540.680842933" stroke="#000000" stroke-width="1" /><polygon fill="none" points="57.2112316823,550.129503573 39.4701452961,553.171518338 40.6206210514,559.436784983 58.2758863732,555.930846248 57.2112316823,550.129503573" stroke="#000000" stroke-width="1" /><polygon fill="none" points="59.0112434434,559.511203779 41.4152491423,563.303430639 42.8288990583,569.515018489 60.3194601312,565.26292802 59.0112434434,559.511203779" stroke="#000000" stroke-width="1" /><polygon fill="none" points="61.2050963611,568.809382245 43.7859033163,573.34498735 45.4603373161,579.491900819 62.7546749667,574.50132117 61.2050963611,568.809382245" stroke="#000000" stroke-width="1" /></g></svg>