<?xml version="1.0" encoding="utf-8" ?>
<svg baseProfile="full" height="792.0" version="1.1" width="612.0" xmlns="http://www.w3.org/2000/svg" xmlns:ev="http://www.w3.org/2001/xml-events" xmlns:xlink="http://www.w3.org/1999/xlink"><defs><circle cx="0" cy="0" fill="#FFFFFF" id="circle" r="5" stroke="#000000" stroke-width="1" /></defs><g id="circles"><use x="306.0" xlink:href="#circle" y="421.0" /><use x="280.0" xlink:href="#circle" y="466.033320997" /><use x="254.0" xlink:href="#circle" y="330.933358006" /><use x="425.502933127" xlink:href="#circle" y="521.274867111" /><use x="110.543934877" xlink:href="#circle" y="492.140189812" /><use x="307.805941048" xlink:href="#circle" y="410.757999369" /><use x="316.835646286" xlink:href="#circle" y="482.452003788" /><use x="198.499164182" xlink:href="#circle" y="381.872895604" /><use x="433.469795335" xlink:href="#circle" y="314.040141748" /><use x="518.512999735" xlink:href="#circle" y="471.36650617" /><use x="291.726173932" xlink:href="#circle" y="436.129371745" /><use x="285.120724659" xlink:href="#circle" y="351.258363503" /><use x="380.525392245" xlink:href="#circle" y="521.104974456" /><use x="130.395458351" xlink:href="#circle" y="441.525227217" /><use x="396.62305047" xlink:href="#circle" y="210.912154746" /><use x="304.185881338" xlink:href="#circle" y="452.147214538" /><use x="236.48741409" xlink:href="#circle" y="375.280853025" /><use x="426.819132972" xlink:href="#circle" y="360.322350837" /><use x="473.288030269" xlink:href="#circle" y="505.015206534" /><use x="106.15131551" xlink:href="#circle" y="552.442547555" /><use x="303.581175117" xlink:href="#circle" y="379.470380616" /><use x="343.073066101" xlink:href="#circle" y="506.945027604" /><use x="161.384495113" xlink:href="#circle" y="404.096871703" /><use x="423.99853772" xlink:href="#circle" y="262.500457112" /><use x="234.413913115" xlink:href="#circle" y="660.114182274" /><use x="304.572617393" xlink:href="#circle" y="419.487062826" /><use x="358.622266601" xlink:href="#circle" y="408.52829371" /><use x="411.761011199" xlink:href="#circle" y="429.220395985" /><use x="216.588865123" xlink:href="#circle" y="551.36462465" /><use x="215.374415322" xlink:href="#circle" y="231.472667402" /><use x="314.909843087" xlink:href="#circle" y="429.7387125" /><use x="243.881845747" xlink:href="#circle" y="438.291770071" /><use x="335.05490446" xlink:href="#circle" y="308.201937398" /><use x="322.310695496" xlink:href="#circle" y="588.688615035" /><use x="105.283178776" xlink:href="#circle" y="329.763011461" /><use x="324.614071368" xlink:href="#circle" y="407.695461409" /><use x="377.304321654" xlink:href="#circle" y="443.862810707" /><use x="212.039775617" xlink:href="#circle" y="506.264357347" /><use x="268.130411336" xlink:href="#circle" y="246.174519436" /><use x="429.106239445" xlink:href="#circle" y="616.321346016" /><use x="272.745028141" xlink:href="#circle" y="422.290444355" /><use x="345.74419136" xlink:href="#circle" y="345.547513937" /><use x="287.42171917" xlink:href="#circle" y="557.017079374" /><use x="156.394475513" xlink:href="#circle" y="305.046968806" /><use x="529.358679305" xlink:href="#circle" y="329.74793822" /><use x="343.397370171" xlink:href="#circle" y="443.569428532" /><use x="222.226588429" xlink:href="#circle" y="467.224213501" /><use x="308.863711876" xlink:href="#circle" y="273.347768204" /><use x="370.64319355" xlink:href="#circle" y="609.926863965" /><use x="59.0376634213" xlink:href="#circle" y="372.498178265" /><use x="308.735288893" xlink:href="#circle" y="417.865706671" /><use x="285.772418975" xlink:href="#circle" y="473.390748858" /><use x="238.095840595" xlink:href="#circle" y="336.812051126" /><use x="464.236454292" xlink:href="#circle" y="396.252270144" /><use x="515.611926465" xlink:href="#circle" y="453.782707082" /><use x="296.859055465" xlink:href="#circle" y="432.332993118" /><use x="282.026570637" xlink:href="#circle" y="358.907260613" /><use x="383.955733458" xlink:href="#circle" y="510.327359869" /><use x="138.637094219" xlink:href="#circle" y="453.869003159" /><use x="378.050226144" xlink:href="#circle" y="210.425266206" /><use x="306.484007641" xlink:href="#circle" y="445.955306782" /><use x="238.617038519" xlink:href="#circle" y="383.819654358" /><use x="416.411283363" xlink:href="#circle" y="354.366449096" /><use x="473.519009479" xlink:href="#circle" y="489.439046335" /><use x="121.870123709" xlink:href="#circle" y="563.711423008" /><use x="301.214685241" xlink:href="#circle" y="385.965297737" /><use x="346.713561881" xlink:href="#circle" y="498.292790601" /><use x="166.744805339" xlink:href="#circle" y="415.596264262" /><use x="408.034000261" xlink:href="#circle" y="259.112037536" /><use x="254.479745654" xlink:href="#circle" y="658.843967744" /><use x="272.11270596" xlink:href="#circle" y="390.248920301" /><use x="399.091753271" xlink:href="#circle" y="391.151330465" /><use x="427.837558043" xlink:href="#circle" y="508.084252596" /><use x="122.325173031" xlink:href="#circle" y="504.490451776" /><use x="330.56672655" xlink:href="#circle" y="168.43196254" /><use x="307.556512739" xlink:href="#circle" y="427.042753354" /><use x="249.893280029" xlink:href="#circle" y="405.381627033" /><use x="384.703613938" xlink:href="#circle" y="343.808039582" /><use x="236.011924704" xlink:href="#circle" y="567.367642996" /><use x="184.824382996" xlink:href="#circle" y="244.32162712" /><use x="322.589962541" xlink:href="#circle" y="419.71052612" /><use x="374.61705594" xlink:href="#circle" y="422.774608167" /><use x="242.999022546" xlink:href="#circle" y="523.882877292" /><use x="223.574278972" xlink:href="#circle" y="269.307646491" /><use x="474.29351432" xlink:href="#circle" y="569.796581405" /><use x="280.36010281" xlink:href="#circle" y="429.588205406" /><use x="321.733007117" xlink:href="#circle" y="343.54166225" /><use x="325.410832331" xlink:href="#circle" y="550.594371746" /><use x="135.674694967" xlink:href="#circle" y="353.97066265" /><use x="489.896920966" xlink:href="#circle" y="274.624714998" /><use x="342.19539355" xlink:href="#circle" y="430.573248442" /><use x="242.961108651" xlink:href="#circle" y="484.447709001" /><use x="268.951256162" xlink:href="#circle" y="284.498482865" /><use x="417.464192166" xlink:href="#circle" y="579.097335413" /><use x="61.5643895813" xlink:href="#circle" y="443.181658171" /><use x="326.077816033" xlink:href="#circle" y="377.577115442" /><use x="297.61987958" xlink:href="#circle" y="520.487683568" /><use x="181.339114957" xlink:href="#circle" y="334.310615757" /><use x="490.462381485" xlink:href="#circle" y="334.256842246" /><use x="531.581993218" xlink:href="#circle" y="541.693288694" /><use x="298.932863392" xlink:href="#circle" y="425.390669672" /><use x="304.050742004" xlink:href="#circle" y="360.711503641" /><use x="347.8063969" xlink:href="#circle" y="525.249736586" /><use x="143.338826388" xlink:href="#circle" y="397.710410066" /><use x="439.620204893" xlink:href="#circle" y="250.882442869" /><use x="300.169186507" xlink:href="#circle" y="438.78876089" /><use x="258.815132119" xlink:href="#circle" y="368.322617348" /><use x="426.103845464" xlink:href="#circle" y="395.795541968" /><use x="479.786331684" xlink:href="#circle" y="439.03855093" /><use x="172.974571402" xlink:href="#circle" y="604.592466475" /><use x="294.121446252" xlink:href="#circle" y="394.412891078" /><use x="362.426080584" xlink:href="#circle" y="479.279943634" /><use x="176.875976189" xlink:href="#circle" y="453.371605998" /><use x="356.795886074" xlink:href="#circle" y="242.985415322" /><use x="322.846451774" xlink:href="#circle" y="657.52080556" /><use x="270.457291329" xlink:href="#circle" y="403.721508737" /><use x="381.807291325" xlink:href="#circle" y="369.724616218" /><use x="441.488007762" xlink:href="#circle" y="468.339097506" /><use x="157.860270987" xlink:href="#circle" y="548.603648412" /><use x="259.87086958" xlink:href="#circle" y="177.816419702" /><use x="331.516817435" xlink:href="#circle" y="463.905692256" /><use x="204.088517469" xlink:href="#circle" y="422.317622238" /><use x="381.230283126" xlink:href="#circle" y="286.717570395" /><use x="272.867046442" xlink:href="#circle" y="624.23694002" /><use x="106.295023668" xlink:href="#circle" y="257.780366291" /><use x="306.38904006" xlink:href="#circle" y="420.852677797" /><use x="350.16163547" xlink:href="#circle" y="449.234500326" /><use x="213.304081887" xlink:href="#circle" y="469.064205196" /><use x="313.075295878" xlink:href="#circle" y="264.74410333" /><use x="368.350597034" xlink:href="#circle" y="619.870893057" /><use x="295.444179354" xlink:href="#circle" y="418.641927376" /><use x="348.512662652" xlink:href="#circle" y="374.755828797" /><use x="261.890452579" xlink:href="#circle" y="527.005007817" /><use x="204.66285996" xlink:href="#circle" y="288.492030789" /><use x="522.989871713" xlink:href="#circle" y="392.789409261" /><use x="326.869430105" xlink:href="#circle" y="424.819102393" /><use x="258.576093432" xlink:href="#circle" y="476.781320725" /><use x="263.93510032" xlink:href="#circle" y="303.061071436" /><use x="419.032327979" xlink:href="#circle" y="557.488840158" /><use x="80.0137306068" xlink:href="#circle" y="459.342935487" /><use x="317.00512807" xlink:href="#circle" y="391.361197525" /><use x="305.459494687" xlink:href="#circle" y="504.614253031" /><use x="188.993872858" xlink:href="#circle" y="352.43422379" /><use x="469.083215298" xlink:href="#circle" y="328.244254388" /><use x="525.401181652" xlink:href="#circle" y="517.327301145" /><use x="272.136509461" xlink:href="#circle" y="445.871836775" /><use x="295.689259694" xlink:href="#circle" y="327.551100112" /><use x="370.687021161" xlink:href="#circle" y="551.905544379" /><use x="108.397567366" xlink:href="#circle" y="408.208797041" /><use x="444.733429701" xlink:href="#circle" y="213.007125749" /><use x="305.408695233" xlink:href="#circle" y="423.424948386" /><use x="266.603616285" xlink:href="#circle" y="383.347125393" /><use x="408.217356297" xlink:href="#circle" y="391.116725621" /><use x="432.518848577" xlink:href="#circle" y="516.467077941" /><use x="112.184284673" xlink:href="#circle" y="503.122070775" /><use x="307.579900796" xlink:href="#circle" y="408.201143431" /><use x="320.557545792" xlink:href="#circle" y="484.2421432" /><use x="194.233915291" xlink:href="#circle" y="386.750662418" /><use x="429.597147822" xlink:href="#circle" y="305.893076375" /><use x="205.588107636" xlink:href="#circle" y="617.7549102" /><use x="293.324721196" xlink:href="#circle" y="401.454132835" /><use x="381.195341072" xlink:href="#circle" y="417.107918662" /><use x="433.125825237" xlink:href="#circle" y="427.579982814" /><use x="208.445622064" xlink:href="#circle" y="571.433370505" /><use x="200.860617412" xlink:href="#circle" y="214.981675948" /><use x="330.65854427" xlink:href="#circle" y="443.964681807" /><use x="224.064720818" xlink:href="#circle" y="446.108055309" /><use x="336.888126007" xlink:href="#circle" y="286.813144877" /><use x="329.23983107" xlink:href="#circle" y="609.267051466" /><use x="83.4566588837" xlink:href="#circle" y="326.705685533" /><use x="341.199469683" xlink:href="#circle" y="394.439605612" /><use x="398.235192596" xlink:href="#circle" y="447.964985866" /><use x="198.938071736" xlink:href="#circle" y="523.323842443" /><use x="258.597067853" xlink:href="#circle" y="226.599971091" /><use x="445.887617969" xlink:href="#circle" y="630.72326422" /><use x="301.433557229" xlink:href="#circle" y="421.295595026" /><use x="331.063917031" xlink:href="#circle" y="370.278763431" /><use x="294.092463629" xlink:href="#circle" y="528.92107465" /><use x="176.581115367" xlink:href="#circle" y="325.945257475" /><use x="500.64236775" xlink:href="#circle" y="335.542967213" /><use x="319.017728937" xlink:href="#circle" y="428.404006302" /><use x="248.21476543" xlink:href="#circle" y="454.862239171" /><use x="305.230922789" xlink:href="#circle" y="302.026485736" /><use x="365.51457417" xlink:href="#circle" y="581.283523911" /><use x="86.165806906" xlink:href="#circle" y="383.700883084" /><use x="322.185380297" xlink:href="#circle" y="401.455823358" /><use x="280.006407507" xlink:href="#circle" y="493.879205027" /><use x="222.199801462" xlink:href="#circle" y="322.431870765" /><use x="484.413167174" xlink:href="#circle" y="388.350418762" /><use x="537.428361276" xlink:href="#circle" y="451.087721301" /><use x="284.266847772" xlink:href="#circle" y="449.418167961" /><use x="272.278570631" xlink:href="#circle" y="339.959939676" /><use x="400.59771292" xlink:href="#circle" y="523.900937247" /><use x="118.837180092" xlink:href="#circle" y="462.810441519" /><use x="378.929041641" xlink:href="#circle" y="188.388536264" /><use x="308.088717666" xlink:href="#circle" y="467.128735453" /><use x="218.843678587" xlink:href="#circle" y="375.808157664" /><use x="432.526590513" xlink:href="#circle" y="340.105915734" /><use x="495.073469281" xlink:href="#circle" y="492.598590698" /><use x="109.193966872" xlink:href="#circle" y="581.850316445" /><use x="304.929035845" xlink:href="#circle" y="414.430725171" /><use x="334.668837624" xlink:href="#circle" y="472.172493444" /><use x="195.353247538" xlink:href="#circle" y="419.569438713" /><use x="389.142296808" xlink:href="#circle" y="281.198952731" /><use x="265.995577653" xlink:href="#circle" y="631.895340225" /><use x="293.077172575" xlink:href="#circle" y="409.868617904" /><use x="371.191331271" xlink:href="#circle" y="398.222347287" /><use x="406.272371707" xlink:href="#circle" y="488.823348548" /><use x="150.360349399" xlink:href="#circle" y="496.661603848" /><use x="321.989351596" xlink:href="#circle" y="196.512709109" /><use x="313.533771867" xlink:href="#circle" y="447.402163121" /><use x="228.929098288" xlink:href="#circle" y="401.67819767" /><use x="397.439186998" xlink:href="#circle" y="326.556604163" /><use x="231.165111386" xlink:href="#circle" y="588.498786211" /><use x="167.848820942" xlink:href="#circle" y="230.333328395" /><use x="343.653705198" xlink:href="#circle" y="417.091647299" /><use x="393.940442781" xlink:href="#circle" y="439.45478961" /><use x="211.352706191" xlink:href="#circle" y="526.66463226" /><use x="245.618686938" xlink:href="#circle" y="236.787498337" /><use x="457.8645021" xlink:href="#circle" y="614.345146663" /><use x="258.231149015" xlink:href="#circle" y="427.839474512" /><use x="343.316080196" xlink:href="#circle" y="327.947457344" /><use x="301.079803956" xlink:href="#circle" y="573.176480466" /><use x="132.501796283" xlink:href="#circle" y="313.209059551" /><use x="531.948793207" xlink:href="#circle" y="300.110462056" /><use x="313.905530635" xlink:href="#circle" y="424.717563904" /><use x="256.135645983" xlink:href="#circle" y="455.675753697" /><use x="296.53744736" xlink:href="#circle" y="308.661823971" /><use x="375.137523036" xlink:href="#circle" y="570.525759" /><use x="90.1509270709" xlink:href="#circle" y="401.412467954" /><use x="317.026565247" xlink:href="#circle" y="405.360263594" /><use x="287.366661188" xlink:href="#circle" y="489.652233618" /><use x="219.211572841" xlink:href="#circle" y="333.648735515" /><use x="475.314007608" xlink:href="#circle" y="376.218471176" /><use x="483.712776721" xlink:href="#circle" y="562.452930285" /><use x="278.515689415" xlink:href="#circle" y="431.816097618" /><use x="318.077851228" xlink:href="#circle" y="340.363502025" /><use x="332.580501498" xlink:href="#circle" y="551.863823252" /><use x="130.070859283" xlink:href="#circle" y="362.071698289" /><use x="483.95480866" xlink:href="#circle" y="263.661392625" /><use x="286.932845256" xlink:href="#circle" y="456.090279366" /><use x="257.988910285" xlink:href="#circle" y="342.596152133" /><use x="449.887887001" xlink:href="#circle" y="417.278700451" /><use x="501.928722433" xlink:href="#circle" y="422.688733819" /><use x="180.185984773" xlink:href="#circle" y="634.642443509" /><use x="281.208647868" xlink:href="#circle" y="377.192446365" /><use x="383.82406481" xlink:href="#circle" y="487.453531377" /><use x="160.522034082" xlink:href="#circle" y="472.534088994" /><use x="343.579891519" xlink:href="#circle" y="218.115065494" /><use x="348.665188542" xlink:href="#circle" y="675.788482045" /><use x="305.220657352" xlink:href="#circle" y="420.708711421" /><use x="346.762849241" xlink:href="#circle" y="387.39032363" /><use x="407.794083577" xlink:href="#circle" y="446.05419671" /><use x="197.396154944" xlink:href="#circle" y="534.143630236" /><use x="247.832799901" xlink:href="#circle" y="220.432352916" /><use x="312.62938552" xlink:href="#circle" y="430.066921839" /><use x="243.134616083" xlink:href="#circle" y="427.799215316" /><use x="352.551305652" xlink:href="#circle" y="315.589422893" /><use x="294.83778396" xlink:href="#circle" y="587.859062556" /><use x="123.87944618" xlink:href="#circle" y="298.955853478" /><use x="325.414018265" xlink:href="#circle" y="411.458547342" /><use x="371.512697784" xlink:href="#circle" y="454.611870716" /><use x="200.444886973" xlink:href="#circle" y="489.128683664" /><use x="297.200386452" xlink:href="#circle" y="243.586093484" /><use x="395.131920449" xlink:href="#circle" y="632.627871938" /><use x="274.217821273" xlink:href="#circle" y="417.00723913" /><use x="356.759508896" xlink:href="#circle" y="354.030982681" /><use x="265.863853194" xlink:href="#circle" y="550.976131438" /><use x="178.148194633" xlink:href="#circle" y="283.123428791" /><use x="540.030326761" xlink:href="#circle" y="367.659891449" /><use x="348.274493195" xlink:href="#circle" y="424.652649599" /><use x="251.919399954" xlink:href="#circle" y="498.412475239" /><use x="243.972219046" xlink:href="#circle" y="288.354287616" /><use x="446.463699065" xlink:href="#circle" y="561.161363682" /><use x="64.1712348679" xlink:href="#circle" y="486.077146362" /><use x="306.75065024" xlink:href="#circle" y="418.186413638" /><use x="310.844828432" xlink:href="#circle" y="475.697855364" /><use x="209.056199629" xlink:href="#circle" y="375.921453954" /><use x="436.074814392" xlink:href="#circle" y="329.711630506" /><use x="506.278021908" xlink:href="#circle" y="487.12552975" /><use x="296.065142434" xlink:href="#circle" y="429.860471158" /><use x="292.723862506" xlink:href="#circle" y="357.051571425" /><use x="367.693587504" xlink:href="#circle" y="520.779790564" /><use x="136.765031008" xlink:href="#circle" y="426.106722447" /><use x="410.824826594" xlink:href="#circle" y="226.087822152" /><use x="302.588654462" xlink:href="#circle" y="444.465329012" /><use x="246.559763441" xlink:href="#circle" y="374.104742012" /><use x="424.637962227" xlink:href="#circle" y="373.720100862" /><use x="459.05743409" xlink:href="#circle" y="515.179747366" /><use x="102.165371927" xlink:href="#circle" y="531.190268818" /><use x="306.955401873" xlink:href="#circle" y="386.901381974" /><use x="333.174127291" xlink:href="#circle" y="502.711953532" /><use x="170.711297211" xlink:href="#circle" y="393.21706564" /><use x="432.232592778" xlink:href="#circle" y="278.845488765" /><use x="216.8532266" xlink:href="#circle" y="646.102361907" /><use x="278.354476707" xlink:href="#circle" y="386.113853955" /><use x="401.477866204" xlink:href="#circle" y="406.909463846" /><use x="452.525115267" xlink:href="#circle" y="445.21166537" /><use x="178.775661324" xlink:href="#circle" y="575.980740069" /><use x="217.084463038" xlink:href="#circle" y="184.660546183" /><use x="309.249808128" xlink:href="#circle" y="424.789302196" /><use x="249.983713679" xlink:href="#circle" y="431.500653828" /><use x="342.171892478" xlink:href="#circle" y="318.185359707" /><use x="307.734435872" xlink:href="#circle" y="581.982656818" /><use x="120.406895053" xlink:href="#circle" y="316.497409313" /><use x="319.246177106" xlink:href="#circle" y="413.160838306" /><use x="368.164399552" xlink:href="#circle" y="447.024394179" /><use x="211.006567564" xlink:href="#circle" y="493.323560878" /><use x="284.26976371" xlink:href="#circle" y="250.99113407" /><use x="408.403031718" xlink:href="#circle" y="619.538673207" /><use x="280.236973686" xlink:href="#circle" y="419.777813776" /><use x="348.044710448" xlink:href="#circle" y="355.548968019" /><use x="277.430255416" xlink:href="#circle" y="547.608581693" /><use x="172.432944805" xlink:href="#circle" y="297.678578379" /><use x="529.234902728" xlink:href="#circle" y="351.538662063" /><use x="335.261597074" xlink:href="#circle" y="442.298352065" /><use x="225.401712107" xlink:href="#circle" y="456.801464394" /><use x="320.774217165" xlink:href="#circle" y="281.588668426" /><use x="352.334707626" xlink:href="#circle" y="607.523080966" /><use x="71.3256836599" xlink:href="#circle" y="353.489274079" /><use x="339.543363078" xlink:href="#circle" y="388.663375912" /><use x="262.703752434" xlink:href="#circle" y="509.576618872" /><use x="221.897657555" xlink:href="#circle" y="296.081040433" /><use x="508.110601336" xlink:href="#circle" y="407.042088571" /><use x="560.440714814" xlink:href="#circle" y="429.775483403" /><use x="302.254995862" xlink:href="#circle" y="426.999010586" /><use x="278.244901388" xlink:href="#circle" y="368.854475887" /><use x="388.574602981" xlink:href="#circle" y="495.286096455" /><use x="150.931042389" xlink:href="#circle" y="471.458850259" /><use x="350.625320083" xlink:href="#circle" y="210.608588599" /><use x="308.439088397" xlink:href="#circle" y="438.300914189" /><use x="241.575474023" xlink:href="#circle" y="395.003091787" /><use x="401.689004844" xlink:href="#circle" y="346.173125577" /><use x="473.316798368" xlink:href="#circle" y="466.799822792" /><use x="145.710701698" xlink:href="#circle" y="579.571635653" /><use x="298.931325003" xlink:href="#circle" y="394.039246713" /><use x="351.459589071" xlink:href="#circle" y="486.673146304" /><use x="174.569806233" xlink:href="#circle" y="431.785571395" /><use x="384.604217612" xlink:href="#circle" y="254.776387485" /><use x="284.176940356" xlink:href="#circle" y="655.86028709" /><use x="274.768118249" xlink:href="#circle" y="398.879522014" /><use x="388.018538867" xlink:href="#circle" y="383.290674017" /><use x="430.862466545" xlink:href="#circle" y="489.195941465" /><use x="140.104871273" xlink:href="#circle" y="522.096074349" /><use x="300.163407038" xlink:href="#circle" y="174.797172708" /><use x="323.726078995" xlink:href="#circle" y="466.329347089" /><use x="206.470973006" xlink:href="#circle" y="405.873058156" /><use x="401.336332213" xlink:href="#circle" y="301.753518525" /><use x="240.575865394" xlink:href="#circle" y="614.93377786" /><use x="136.400857171" xlink:href="#circle" y="228.343190269" /><use x="314.97276464" xlink:href="#circle" y="419.19761305" /><use x="366.768542132" xlink:href="#circle" y="427.837498892" /><use x="238.822071327" xlink:href="#circle" y="512.052188349" /><use x="239.933735639" xlink:href="#circle" y="269.638076725" /><use x="455.698039469" xlink:href="#circle" y="578.306986759" /><use x="286.994634629" xlink:href="#circle" y="425.590946647" /><use x="326.225759085" xlink:href="#circle" y="352.366135375" /><use x="313.715382519" xlink:href="#circle" y="544.310865606" /><use x="148.782928921" xlink:href="#circle" y="342.889198792" /><use x="495.576296473" xlink:href="#circle" y="295.139996346" /><use x="334.189558753" xlink:href="#circle" y="431.122800073" /><use x="243.448720345" xlink:href="#circle" y="473.947782933" /><use x="282.171206824" xlink:href="#circle" y="289.184496664" /><use x="399.669125492" xlink:href="#circle" y="581.636985883" /><use x="68.0502095477" xlink:href="#circle" y="422.025440249" /><use x="326.025215522" xlink:href="#circle" y="385.967520109" /><use x="290.355331665" xlink:href="#circle" y="512.017230548" /><use x="195.021116283" xlink:href="#circle" y="328.689722821" /><use x="490.219405848" xlink:href="#circle" y="353.049147075" /><use x="514.081258828" xlink:href="#circle" y="556.576198606" /><use x="260.744935495" xlink:href="#circle" y="443.972693369" /><use x="311.532387393" xlink:href="#circle" y="318.397045882" /><use x="351.021839874" xlink:href="#circle" y="569.058148842" /><use x="104.617419567" xlink:href="#circle" y="374.187119273" /><use x="482.753670104" xlink:href="#circle" y="232.027151133" /><use x="305.510635376" xlink:href="#circle" y="422.14805325" /><use x="274.018732046" xlink:href="#circle" y="378.42597031" /><use x="410.482724869" xlink:href="#circle" y="408.331073133" /><use x="460.42959397" xlink:href="#circle" y="450.638387442" /><use x="169.095651061" xlink:href="#circle" y="579.246405158" /><use x="302.181688849" xlink:href="#circle" y="409.995618874" /><use x="346.172110705" xlink:href="#circle" y="470.368708971" /><use x="191.819019675" xlink:href="#circle" y="439.362016122" /><use x="365.708534704" xlink:href="#circle" y="264.345147578" /><use x="302.687154557" xlink:href="#circle" y="640.62301555" /><use x="287.074313515" xlink:href="#circle" y="409.689266378" /><use x="370.678569986" xlink:href="#circle" y="384.947414954" /><use x="420.973142991" xlink:href="#circle" y="472.665023902" /><use x="161.596197611" xlink:href="#circle" y="525.15676723" /><use x="282.742337904" xlink:href="#circle" y="192.130684761" /><use x="320.123637644" xlink:href="#circle" y="450.21293487" /><use x="221.778520574" xlink:href="#circle" y="414.81881021" /><use x="382.6902893" xlink:href="#circle" y="308.143204763" /><use x="259.780186734" xlink:href="#circle" y="603.692029289" /><use x="133.613054348" xlink:href="#circle" y="253.375474131" /><use x="347.228613779" xlink:href="#circle" y="409.331559235" /><use x="381.216863318" xlink:href="#circle" y="478.78033036" /><use x="170.299886169" xlink:href="#circle" y="477.123205632" /><use x="332.061067921" xlink:href="#circle" y="223.867182228" /><use x="360.161512193" xlink:href="#circle" y="665.931112154" /><use x="302.826569534" xlink:href="#circle" y="419.997541484" /><use x="346.812209991" xlink:href="#circle" y="383.642924369" /><use x="256.390168926" xlink:href="#circle" y="516.174388597" /><use x="220.465526264" xlink:href="#circle" y="286.578032351" /><use x="517.131797506" xlink:href="#circle" y="411.895733651" /><use x="319.703022654" xlink:href="#circle" y="421.827740389" /><use x="269.76363109" xlink:href="#circle" y="475.836990729" /><use x="253.390581954" xlink:href="#circle" y="315.680813159" /><use x="429.204416404" xlink:href="#circle" y="537.740163451" /><use x="93.450370529" xlink:href="#circle" y="484.134467573" /><use x="311.61487466" xlink:href="#circle" y="397.534417404" /><use x="314.67497503" xlink:href="#circle" y="496.632117465" /><use x="188.460429754" xlink:href="#circle" y="369.997707794" /><use x="450.716284098" xlink:href="#circle" y="313.746592125" /><use x="528.232222284" xlink:href="#circle" y="488.054065968" /><use x="280.834245945" xlink:href="#circle" y="444.640380852" /><use x="286.226734749" xlink:href="#circle" y="336.76157192" /><use x="381.872818365" xlink:href="#circle" y="536.902209717" /><use x="115.770914247" xlink:href="#circle" y="431.668351209" /><use x="415.31311064" xlink:href="#circle" y="204.504100209" /><use x="300.688036719" xlink:href="#circle" y="465.612870678" /><use x="228.376702179" xlink:href="#circle" y="362.951220345" /><use x="442.874872518" xlink:href="#circle" y="362.307424173" /><use x="479.79187601" xlink:href="#circle" y="521.838707929" /><use x="86.6859399171" xlink:href="#circle" y="546.991730816" /><use x="306.011652757" xlink:href="#circle" y="415.592012554" /><use x="325.518408241" xlink:href="#circle" y="474.988056121" /><use x="198.29534004" xlink:href="#circle" y="401.769381525" /><use x="410.017244238" xlink:href="#circle" y="297.578140651" /><use x="232.578230457" xlink:href="#circle" y="621.380184203" /><use x="295.864929988" xlink:href="#circle" y="408.868502984" /><use x="372.803060423" xlink:href="#circle" y="409.369179647" /><use x="424.670602926" xlink:href="#circle" y="437.469513204" /><use x="200.457967181" xlink:href="#circle" y="556.568684336" /><use x="221.802468275" xlink:href="#circle" y="213.633665906" /><use x="323.570121824" xlink:href="#circle" y="440.446081433" /><use x="229.529175395" xlink:href="#circle" y="437.392200834" /><use x="346.022960301" xlink:href="#circle" y="297.095658217" /><use x="312.672853425" xlink:href="#circle" y="603.085771798" /><use x="99.0173807847" xlink:href="#circle" y="311.402634125" /><use x="337.011858459" xlink:href="#circle" y="401.547229018" /><use x="388.592000146" xlink:href="#circle" y="453.092665454" /><use x="196.365711233" xlink:href="#circle" y="509.039379772" /><use x="276.64854645" xlink:href="#circle" y="230.641564835" /><use x="423.711457862" xlink:href="#circle" y="635.422681524" /><use x="259.002912134" xlink:href="#circle" y="419.987184087" /><use x="357.339903026" xlink:href="#circle" y="336.3430545" /><use x="276.579692844" xlink:href="#circle" y="569.114353088" /><use x="153.334457949" xlink:href="#circle" y="287.188638994" /><use x="547.452671926" xlink:href="#circle" y="338.965328769" /><use x="312.166026262" xlink:href="#circle" y="425.248560242" /><use x="252.276693613" xlink:href="#circle" y="446.546594585" /><use x="314.878958637" xlink:href="#circle" y="309.866124707" /><use x="349.503533931" xlink:href="#circle" y="578.593682232" /><use x="97.4398885142" xlink:href="#circle" y="366.798911072" /><use x="318.552976359" xlink:href="#circle" y="408.256243547" /><use x="276.942572143" xlink:href="#circle" y="484.560981981" /><use x="235.336926376" xlink:href="#circle" y="321.68527516" /><use x="479.107083973" xlink:href="#circle" y="404.538711402" /><use x="526.664436149" xlink:href="#circle" y="469.296947763" /><use x="286.945147477" xlink:href="#circle" y="441.907499596" /><use x="281.65078078" xlink:href="#circle" y="344.493278286" /><use x="386.814215817" xlink:href="#circle" y="525.733841073" /><use x="123.354060419" xlink:href="#circle" y="445.546439632" /><use x="395.835199896" xlink:href="#circle" y="202.455597638" /><use x="304.41656258" xlink:href="#circle" y="459.655582649" /><use x="229.383553399" xlink:href="#circle" y="372.479556327" /><use x="432.387884966" xlink:href="#circle" y="354.773359758" /><use x="481.459797724" xlink:href="#circle" y="505.363953954" /><use x="102.262399345" xlink:href="#circle" y="560.089753121" /><use x="302.301514005" xlink:href="#circle" y="372.051527651" /><use x="347.632908957" xlink:href="#circle" y="513.116690322" /><use x="153.663373602" xlink:href="#circle" y="405.851138599" /><use x="425.616284568" xlink:href="#circle" y="254.407586577" /><use x="236.522536085" xlink:href="#circle" y="668.521962161" /><use x="299.315054642" xlink:href="#circle" y="414.154700185" /><use x="365.654786083" xlink:href="#circle" y="405.770911996" /><use x="394.243510523" xlink:href="#circle" y="492.489673902" /><use x="151.416174617" xlink:href="#circle" y="480.300957446" /><use x="340.081435704" xlink:href="#circle" y="206.117961746" /><use x="309.805850422" xlink:href="#circle" y="440.601952111" /><use x="237.957969363" xlink:href="#circle" y="397.554849313" /><use x="399.577359538" xlink:href="#circle" y="339.689835777" /><use x="220.655860375" xlink:href="#circle" y="574.886694862" /><use x="188.629907686" xlink:href="#circle" y="225.567990201" /><use x="336.363488301" xlink:href="#circle" y="420.476547813" /><use x="388.355762789" xlink:href="#circle" y="422.419774424" /><use x="236.820182815" xlink:href="#circle" y="536.1907649" /><use x="215.611880491" xlink:href="#circle" y="258.018346813" /><use x="485.93230542" xlink:href="#circle" y="577.344711744" /><use x="267.455959523" xlink:href="#circle" y="434.281068019" /><use x="323.68134675" xlink:href="#circle" y="329.932597484" /><use x="328.677513623" xlink:href="#circle" y="563.980782624" /><use x="122.286056769" xlink:href="#circle" y="350.524239016" /><use x="499.295308765" xlink:href="#circle" y="264.403571453" /><use x="355.577964109" xlink:href="#circle" y="433.656606922" /><use x="233.918850054" xlink:href="#circle" y="494.810189313" /><use x="264.066190873" xlink:href="#circle" y="271.60567656" /><use x="426.829431471" xlink:href="#circle" y="589.281991652" /><use x="48.1040265059" xlink:href="#circle" y="446.646034383" /><use x="306.685315374" xlink:href="#circle" y="419.483675879" /><use x="301.956739887" xlink:href="#circle" y="474.511465535" /><use x="218.732967004" xlink:href="#circle" y="361.423613334" /><use x="448.092443029" xlink:href="#circle" y="352.679618486" /><use x="491.712810562" xlink:href="#circle" y="518.312614234" /><use x="295.807903893" xlink:href="#circle" y="427.454554434" /><use x="303.377963841" xlink:href="#circle" y="356.989680345" /><use x="350.126797132" xlink:href="#circle" y="528.348394822" /><use x="139.433499795" xlink:href="#circle" y="398.614533609" /><use x="440.43622694" xlink:href="#circle" y="246.772949913" /><use x="299.187265089" xlink:href="#circle" y="442.406025764" /><use x="255.840902918" xlink:href="#circle" y="365.964081947" /><use x="429.539573829" xlink:href="#circle" y="393.960824825" /><use x="483.662533551" xlink:href="#circle" y="437.894480403" /><use x="172.391321544" xlink:href="#circle" y="608.782790312" /><use x="292.336090472" xlink:href="#circle" y="391.111204902" /><use x="365.553655282" xlink:href="#circle" y="481.458751546" /><use x="173.536145408" xlink:href="#circle" y="455.425015941" /><use x="356.255990852" xlink:href="#circle" y="238.945211874" /><use x="325.182526308" xlink:href="#circle" y="661.098932069" /><use x="266.928504446" xlink:href="#circle" y="402.420658484" /><use x="384.445556338" xlink:href="#circle" y="366.948872474" /><use x="445.435963885" xlink:href="#circle" y="468.374018949" /><use x="156.150010979" xlink:href="#circle" y="552.343528529" /><use x="257.047202417" xlink:href="#circle" y="174.550773373" /><use x="307.941424904" xlink:href="#circle" y="424.201313065" /><use x="250.268940052" xlink:href="#circle" y="422.201038339" /><use x="357.849094534" xlink:href="#circle" y="326.551914091" /><use x="281.656677833" xlink:href="#circle" y="578.878270202" /><use x="140.899843247" xlink:href="#circle" y="288.419987267" /><use x="319.183699554" xlink:href="#circle" y="415.877227111" /><use x="362.032789716" xlink:href="#circle" y="456.147620298" /><use x="201.589584623" xlink:href="#circle" y="476.285349749" /><use x="312.231043495" xlink:href="#circle" y="250.970135467" /></g><text alignment-baseline="before-edge" font-size="28" text-anchor="middle" x="306.0" y="61.0">1900 carbon emissions from fossil fuels</text><circle cx="306.0" cy="421.0" fill="none" r="270.0" stroke="#000000" stroke-width="2" /></svg>