<?xml version="1.0" encoding="utf-8" ?>
<svg baseProfile="full" height="1115" version="1.1" width="880" xmlns="http://www.w3.org/2000/svg" xmlns:ev="http://www.w3.org/2001/xml-events" xmlns:xlink="http://www.w3.org/1999/xlink"><defs><circle cx="0" cy="0" fill="#FFFFFF" id="circle" r="5" stroke="#000000" stroke-width="1" /></defs><use x="40" xlink:href="#circle" y="40" /><use x="306.666666667" xlink:href="#circle" y="247.0" /><use x="573.333333333" xlink:href="#circle" y="454.0" /><use x="128.888888889" xlink:href="#circle" y="661.0" /><use x="395.555555556" xlink:href="#circle" y="868.0" /><use x="662.222222222" xlink:href="#circle" y="81.4" /><use x="217.777777778" xlink:href="#circle" y="288.4" /><use x="484.444444444" xlink:href="#circle" y="495.4" /><use x="751.111111111" xlink:href="#circle" y="702.4" /><use x="69.6296296296" xlink:href="#circle" y="909.4" /><use x="336.296296296" xlink:href="#circle" y="122.8" /><use x="602.962962963" xlink:href="#circle" y="329.8" /><use x="158.518518519" xlink:href="#circle" y="536.8" /><use x="425.185185185" xlink:href="#circle" y="743.8" /><use x="691.851851852" xlink:href="#circle" y="950.8" /><use x="247.407407407" xlink:href="#circle" y="164.2" /><use x="514.074074074" xlink:href="#circle" y="371.2" /><use x="780.740740741" xlink:href="#circle" y="578.2" /><use x="99.2592592593" xlink:href="#circle" y="785.2" /><use x="365.925925926" xlink:href="#circle" y="992.2" /><use x="632.592592593" xlink:href="#circle" y="205.6" /><use x="188.148148148" xlink:href="#circle" y="412.6" /><use x="454.814814815" xlink:href="#circle" y="619.6" /><use x="721.481481481" xlink:href="#circle" y="826.6" /><use x="277.037037037" xlink:href="#circle" y="1033.6" /><use x="543.703703704" xlink:href="#circle" y="48.28" /><use x="810.37037037" xlink:href="#circle" y="255.28" /><use x="49.8765432099" xlink:href="#circle" y="462.28" /><use x="316.543209877" xlink:href="#circle" y="669.28" /><use x="583.209876543" xlink:href="#circle" y="876.28" /><use x="138.765432099" xlink:href="#circle" y="89.68" /><use x="405.432098765" xlink:href="#circle" y="296.68" /><use x="672.098765432" xlink:href="#circle" y="503.68" /><use x="227.654320988" xlink:href="#circle" y="710.68" /><use x="494.320987654" xlink:href="#circle" y="917.68" /><use x="760.987654321" xlink:href="#circle" y="131.08" /><use x="79.5061728395" xlink:href="#circle" y="338.08" /><use x="346.172839506" xlink:href="#circle" y="545.08" /><use x="612.839506173" xlink:href="#circle" y="752.08" /><use x="168.395061728" xlink:href="#circle" y="959.08" /><use x="435.061728395" xlink:href="#circle" y="172.48" /><use x="701.728395062" xlink:href="#circle" y="379.48" /><use x="257.283950617" xlink:href="#circle" y="586.48" /><use x="523.950617284" xlink:href="#circle" y="793.48" /><use x="790.617283951" xlink:href="#circle" y="1000.48" /><use x="109.135802469" xlink:href="#circle" y="213.88" /><use x="375.802469136" xlink:href="#circle" y="420.88" /><use x="642.469135802" xlink:href="#circle" y="627.88" /><use x="198.024691358" xlink:href="#circle" y="834.88" /><use x="464.691358025" xlink:href="#circle" y="1041.88" /><use x="731.358024691" xlink:href="#circle" y="56.56" /><use x="286.913580247" xlink:href="#circle" y="263.56" /><use x="553.580246914" xlink:href="#circle" y="470.56" /><use x="820.24691358" xlink:href="#circle" y="677.56" /><use x="59.7530864198" xlink:href="#circle" y="884.56" /><use x="326.419753086" xlink:href="#circle" y="97.96" /><use x="593.086419753" xlink:href="#circle" y="304.96" /><use x="148.641975309" xlink:href="#circle" y="511.96" /><use x="415.308641975" xlink:href="#circle" y="718.96" /><use x="681.975308642" xlink:href="#circle" y="925.96" /><use x="237.530864198" xlink:href="#circle" y="139.36" /><use x="504.197530864" xlink:href="#circle" y="346.36" /><use x="770.864197531" xlink:href="#circle" y="553.36" /><use x="89.3827160494" xlink:href="#circle" y="760.36" /><use x="356.049382716" xlink:href="#circle" y="967.36" /><use x="622.716049383" xlink:href="#circle" y="180.76" /><use x="178.271604938" xlink:href="#circle" y="387.76" /><use x="444.938271605" xlink:href="#circle" y="594.76" /><use x="711.604938272" xlink:href="#circle" y="801.76" /><use x="267.160493827" xlink:href="#circle" y="1008.76" /><use x="533.827160494" xlink:href="#circle" y="222.16" /><use x="800.49382716" xlink:href="#circle" y="429.16" /><use x="119.012345679" xlink:href="#circle" y="636.16" /><use x="385.679012346" xlink:href="#circle" y="843.16" /><use x="652.345679012" xlink:href="#circle" y="1050.16" /><use x="207.901234568" xlink:href="#circle" y="64.84" /><use x="474.567901235" xlink:href="#circle" y="271.84" /><use x="741.234567901" xlink:href="#circle" y="478.84" /><use x="296.790123457" xlink:href="#circle" y="685.84" /><use x="563.456790123" xlink:href="#circle" y="892.84" /><use x="830.12345679" xlink:href="#circle" y="106.24" /><use x="43.29218107" xlink:href="#circle" y="313.24" /><use x="309.958847737" xlink:href="#circle" y="520.24" /><use x="576.625514403" xlink:href="#circle" y="727.24" /><use x="132.181069959" xlink:href="#circle" y="934.24" /><use x="398.847736626" xlink:href="#circle" y="147.64" /><use x="665.514403292" xlink:href="#circle" y="354.64" /><use x="221.069958848" xlink:href="#circle" y="561.64" /><use x="487.736625514" xlink:href="#circle" y="768.64" /><use x="754.403292181" xlink:href="#circle" y="975.64" /><use x="72.9218106996" xlink:href="#circle" y="189.04" /><use x="339.588477366" xlink:href="#circle" y="396.04" /><use x="606.255144033" xlink:href="#circle" y="603.04" /><use x="161.810699588" xlink:href="#circle" y="810.04" /><use x="428.477366255" xlink:href="#circle" y="1017.04" /><use x="695.144032922" xlink:href="#circle" y="230.44" /><use x="250.699588477" xlink:href="#circle" y="437.44" /><use x="517.366255144" xlink:href="#circle" y="644.44" /><use x="784.032921811" xlink:href="#circle" y="851.44" /><use x="102.551440329" xlink:href="#circle" y="1058.44" /><use x="369.218106996" xlink:href="#circle" y="73.12" /><use x="635.884773663" xlink:href="#circle" y="280.12" /><use x="191.440329218" xlink:href="#circle" y="487.12" /><use x="458.106995885" xlink:href="#circle" y="694.12" /><use x="724.773662551" xlink:href="#circle" y="901.12" /><use x="280.329218107" xlink:href="#circle" y="114.52" /><use x="546.995884774" xlink:href="#circle" y="321.52" /><use x="813.66255144" xlink:href="#circle" y="528.52" /><use x="53.1687242798" xlink:href="#circle" y="735.52" /><use x="319.835390947" xlink:href="#circle" y="942.52" /><use x="586.502057613" xlink:href="#circle" y="155.92" /><use x="142.057613169" xlink:href="#circle" y="362.92" /><use x="408.724279835" xlink:href="#circle" y="569.92" /><use x="675.390946502" xlink:href="#circle" y="776.92" /><use x="230.946502058" xlink:href="#circle" y="983.92" /><use x="497.613168724" xlink:href="#circle" y="197.32" /><use x="764.279835391" xlink:href="#circle" y="404.32" /><use x="82.7983539095" xlink:href="#circle" y="611.32" /><use x="349.465020576" xlink:href="#circle" y="818.32" /><use x="616.131687243" xlink:href="#circle" y="1025.32" /><use x="171.687242798" xlink:href="#circle" y="238.72" /><use x="438.353909465" xlink:href="#circle" y="445.72" /><use x="705.020576132" xlink:href="#circle" y="652.72" /><use x="260.576131687" xlink:href="#circle" y="859.72" /><use x="527.242798354" xlink:href="#circle" y="1066.72" /><use x="793.909465021" xlink:href="#circle" y="41.656" /><use x="112.427983539" xlink:href="#circle" y="248.656" /><use x="379.094650206" xlink:href="#circle" y="455.656" /><use x="645.761316872" xlink:href="#circle" y="662.656" /><use x="201.316872428" xlink:href="#circle" y="869.656" /><use x="467.983539095" xlink:href="#circle" y="83.056" /><use x="734.650205761" xlink:href="#circle" y="290.056" /><use x="290.205761317" xlink:href="#circle" y="497.056" /><use x="556.872427984" xlink:href="#circle" y="704.056" /><use x="823.53909465" xlink:href="#circle" y="911.056" /><use x="63.0452674897" xlink:href="#circle" y="124.456" /><use x="329.711934156" xlink:href="#circle" y="331.456" /><use x="596.378600823" xlink:href="#circle" y="538.456" /><use x="151.934156379" xlink:href="#circle" y="745.456" /><use x="418.600823045" xlink:href="#circle" y="952.456" /><use x="685.267489712" xlink:href="#circle" y="165.856" /><use x="240.823045267" xlink:href="#circle" y="372.856" /><use x="507.489711934" xlink:href="#circle" y="579.856" /><use x="774.156378601" xlink:href="#circle" y="786.856" /><use x="92.6748971193" xlink:href="#circle" y="993.856" /><use x="359.341563786" xlink:href="#circle" y="207.256" /><use x="626.008230453" xlink:href="#circle" y="414.256" /><use x="181.563786008" xlink:href="#circle" y="621.256" /><use x="448.230452675" xlink:href="#circle" y="828.256" /><use x="714.897119342" xlink:href="#circle" y="1035.256" /><use x="270.452674897" xlink:href="#circle" y="49.936" /><use x="537.119341564" xlink:href="#circle" y="256.936" /><use x="803.78600823" xlink:href="#circle" y="463.936" /><use x="122.304526749" xlink:href="#circle" y="670.936" /><use x="388.971193416" xlink:href="#circle" y="877.936" /><use x="655.637860082" xlink:href="#circle" y="91.336" /><use x="211.193415638" xlink:href="#circle" y="298.336" /><use x="477.860082305" xlink:href="#circle" y="505.336" /><use x="744.526748971" xlink:href="#circle" y="712.336" /><use x="300.082304527" xlink:href="#circle" y="919.336" /><use x="566.748971193" xlink:href="#circle" y="132.736" /><use x="833.41563786" xlink:href="#circle" y="339.736" /><use x="46.5843621399" xlink:href="#circle" y="546.736" /><use x="313.251028807" xlink:href="#circle" y="753.736" /><use x="579.917695473" xlink:href="#circle" y="960.736" /><use x="135.473251029" xlink:href="#circle" y="174.136" /><use x="402.139917695" xlink:href="#circle" y="381.136" /><use x="668.806584362" xlink:href="#circle" y="588.136" /><use x="224.362139918" xlink:href="#circle" y="795.136" /><use x="491.028806584" xlink:href="#circle" y="1002.136" /><use x="757.695473251" xlink:href="#circle" y="215.536" /><use x="76.2139917695" xlink:href="#circle" y="422.536" /><use x="342.880658436" xlink:href="#circle" y="629.536" /><use x="609.547325103" xlink:href="#circle" y="836.536" /><use x="165.102880658" xlink:href="#circle" y="1043.536" /><use x="431.769547325" xlink:href="#circle" y="58.216" /><use x="698.436213992" xlink:href="#circle" y="265.216" /><use x="253.991769547" xlink:href="#circle" y="472.216" /><use x="520.658436214" xlink:href="#circle" y="679.216" /><use x="787.325102881" xlink:href="#circle" y="886.216" /><use x="105.843621399" xlink:href="#circle" y="99.616" /><use x="372.510288066" xlink:href="#circle" y="306.616" /><use x="639.176954733" xlink:href="#circle" y="513.616" /><use x="194.732510288" xlink:href="#circle" y="720.616" /><use x="461.399176955" xlink:href="#circle" y="927.616" /><use x="728.065843621" xlink:href="#circle" y="141.016" /><use x="283.621399177" xlink:href="#circle" y="348.016" /><use x="550.288065844" xlink:href="#circle" y="555.016" /><use x="816.95473251" xlink:href="#circle" y="762.016" /><use x="56.4609053498" xlink:href="#circle" y="969.016" /><use x="323.127572016" xlink:href="#circle" y="182.416" /><use x="589.794238683" xlink:href="#circle" y="389.416" /><use x="145.349794239" xlink:href="#circle" y="596.416" /><use x="412.016460905" xlink:href="#circle" y="803.416" /><use x="678.683127572" xlink:href="#circle" y="1010.416" /><use x="234.238683128" xlink:href="#circle" y="223.816" /><use x="500.905349794" xlink:href="#circle" y="430.816" /><use x="767.572016461" xlink:href="#circle" y="637.816" /><use x="86.0905349794" xlink:href="#circle" y="844.816" /><use x="352.757201646" xlink:href="#circle" y="1051.816" /><use x="619.423868313" xlink:href="#circle" y="66.496" /><use x="174.979423868" xlink:href="#circle" y="273.496" /><use x="441.646090535" xlink:href="#circle" y="480.496" /><use x="708.312757202" xlink:href="#circle" y="687.496" /><use x="263.868312757" xlink:href="#circle" y="894.496" /><use x="530.534979424" xlink:href="#circle" y="107.896" /><use x="797.201646091" xlink:href="#circle" y="314.896" /><use x="115.720164609" xlink:href="#circle" y="521.896" /><use x="382.386831276" xlink:href="#circle" y="728.896" /><use x="649.053497942" xlink:href="#circle" y="935.896" /><use x="204.609053498" xlink:href="#circle" y="149.296" /><use x="471.275720165" xlink:href="#circle" y="356.296" /><use x="737.942386831" xlink:href="#circle" y="563.296" /><use x="293.497942387" xlink:href="#circle" y="770.296" /><use x="560.164609053" xlink:href="#circle" y="977.296" /><use x="826.83127572" xlink:href="#circle" y="190.696" /><use x="66.3374485597" xlink:href="#circle" y="397.696" /><use x="333.004115226" xlink:href="#circle" y="604.696" /><use x="599.670781893" xlink:href="#circle" y="811.696" /><use x="155.226337449" xlink:href="#circle" y="1018.696" /><use x="421.893004115" xlink:href="#circle" y="232.096" /><use x="688.559670782" xlink:href="#circle" y="439.096" /><use x="244.115226337" xlink:href="#circle" y="646.096" /><use x="510.781893004" xlink:href="#circle" y="853.096" /><use x="777.448559671" xlink:href="#circle" y="1060.096" /><use x="95.9670781893" xlink:href="#circle" y="74.776" /><use x="362.633744856" xlink:href="#circle" y="281.776" /><use x="629.300411523" xlink:href="#circle" y="488.776" /><use x="184.855967078" xlink:href="#circle" y="695.776" /><use x="451.522633745" xlink:href="#circle" y="902.776" /><use x="718.189300412" xlink:href="#circle" y="116.176" /><use x="273.744855967" xlink:href="#circle" y="323.176" /><use x="540.411522634" xlink:href="#circle" y="530.176" /><use x="807.0781893" xlink:href="#circle" y="737.176" /><use x="125.596707819" xlink:href="#circle" y="944.176" /><use x="392.263374486" xlink:href="#circle" y="157.576" /><use x="658.930041152" xlink:href="#circle" y="364.576" /><use x="214.485596708" xlink:href="#circle" y="571.576" /><use x="481.152263374" xlink:href="#circle" y="778.576" /><use x="747.818930041" xlink:href="#circle" y="985.576" /><use x="303.374485597" xlink:href="#circle" y="198.976" /><use x="570.041152263" xlink:href="#circle" y="405.976" /><use x="836.70781893" xlink:href="#circle" y="612.976" /><use x="41.09739369" xlink:href="#circle" y="819.976" /><use x="307.764060357" xlink:href="#circle" y="1026.976" /><use x="574.430727023" xlink:href="#circle" y="240.376" /><use x="129.986282579" xlink:href="#circle" y="447.376" /><use x="396.652949246" xlink:href="#circle" y="654.376" /><use x="663.319615912" xlink:href="#circle" y="861.376" /><use x="218.875171468" xlink:href="#circle" y="1068.376" /><use x="485.541838134" xlink:href="#circle" y="43.312" /><use x="752.208504801" xlink:href="#circle" y="250.312" /><use x="70.7270233196" xlink:href="#circle" y="457.312" /><use x="337.393689986" xlink:href="#circle" y="664.312" /><use x="604.060356653" xlink:href="#circle" y="871.312" /><use x="159.615912209" xlink:href="#circle" y="84.712" /><use x="426.282578875" xlink:href="#circle" y="291.712" /><use x="692.949245542" xlink:href="#circle" y="498.712" /><use x="248.504801097" xlink:href="#circle" y="705.712" /><use x="515.171467764" xlink:href="#circle" y="912.712" /><use x="781.838134431" xlink:href="#circle" y="126.112" /><use x="100.356652949" xlink:href="#circle" y="333.112" /><use x="367.023319616" xlink:href="#circle" y="540.112" /><use x="633.689986283" xlink:href="#circle" y="747.112" /><use x="189.245541838" xlink:href="#circle" y="954.112" /><use x="455.912208505" xlink:href="#circle" y="167.512" /><use x="722.578875171" xlink:href="#circle" y="374.512" /><use x="278.134430727" xlink:href="#circle" y="581.512" /><use x="544.801097394" xlink:href="#circle" y="788.512" /><use x="811.46776406" xlink:href="#circle" y="995.512" /><use x="50.9739368999" xlink:href="#circle" y="208.912" /><use x="317.640603567" xlink:href="#circle" y="415.912" /><use x="584.307270233" xlink:href="#circle" y="622.912" /><use x="139.862825789" xlink:href="#circle" y="829.912" /><use x="406.529492455" xlink:href="#circle" y="1036.912" /><use x="673.196159122" xlink:href="#circle" y="51.592" /><use x="228.751714678" xlink:href="#circle" y="258.592" /><use x="495.418381344" xlink:href="#circle" y="465.592" /><use x="762.085048011" xlink:href="#circle" y="672.592" /><use x="80.6035665295" xlink:href="#circle" y="879.592" /><use x="347.270233196" xlink:href="#circle" y="92.992" /><use x="613.936899863" xlink:href="#circle" y="299.992" /><use x="169.492455418" xlink:href="#circle" y="506.992" /><use x="436.159122085" xlink:href="#circle" y="713.992" /><use x="702.825788752" xlink:href="#circle" y="920.992" /><use x="258.381344307" xlink:href="#circle" y="134.392" /><use x="525.048010974" xlink:href="#circle" y="341.392" /><use x="791.714677641" xlink:href="#circle" y="548.392" /><use x="110.233196159" xlink:href="#circle" y="755.392" /><use x="376.899862826" xlink:href="#circle" y="962.392" /><use x="643.566529492" xlink:href="#circle" y="175.792" /><use x="199.122085048" xlink:href="#circle" y="382.792" /><use x="465.788751715" xlink:href="#circle" y="589.792" /><use x="732.455418381" xlink:href="#circle" y="796.792" /><use x="288.010973937" xlink:href="#circle" y="1003.792" /><use x="554.677640604" xlink:href="#circle" y="217.192" /><use x="821.34430727" xlink:href="#circle" y="424.192" /><use x="60.8504801097" xlink:href="#circle" y="631.192" /><use x="327.517146776" xlink:href="#circle" y="838.192" /><use x="594.183813443" xlink:href="#circle" y="1045.192" /><use x="149.739368999" xlink:href="#circle" y="59.872" /><use x="416.406035665" xlink:href="#circle" y="266.872" /><use x="683.072702332" xlink:href="#circle" y="473.872" /><use x="238.628257888" xlink:href="#circle" y="680.872" /><use x="505.294924554" xlink:href="#circle" y="887.872" /><use x="771.961591221" xlink:href="#circle" y="101.272" /><use x="90.4801097394" xlink:href="#circle" y="308.272" /><use x="357.146776406" xlink:href="#circle" y="515.272" /><use x="623.813443073" xlink:href="#circle" y="722.272" /><use x="179.368998628" xlink:href="#circle" y="929.272" /><use x="446.035665295" xlink:href="#circle" y="142.672" /><use x="712.702331962" xlink:href="#circle" y="349.672" /><use x="268.257887517" xlink:href="#circle" y="556.672" /><use x="534.924554184" xlink:href="#circle" y="763.672" /><use x="801.59122085" xlink:href="#circle" y="970.672" /><use x="120.109739369" xlink:href="#circle" y="184.072" /><use x="386.776406036" xlink:href="#circle" y="391.072" /><use x="653.443072702" xlink:href="#circle" y="598.072" /><use x="208.998628258" xlink:href="#circle" y="805.072" /><use x="475.665294925" xlink:href="#circle" y="1012.072" /><use x="742.331961591" xlink:href="#circle" y="225.472" /><use x="297.887517147" xlink:href="#circle" y="432.472" /><use x="564.554183813" xlink:href="#circle" y="639.472" /><use x="831.22085048" xlink:href="#circle" y="846.472" /><use x="44.3895747599" xlink:href="#circle" y="1053.472" /><use x="311.056241427" xlink:href="#circle" y="68.152" /><use x="577.722908093" xlink:href="#circle" y="275.152" /><use x="133.278463649" xlink:href="#circle" y="482.152" /><use x="399.945130316" xlink:href="#circle" y="689.152" /><use x="666.611796982" xlink:href="#circle" y="896.152" /><use x="222.167352538" xlink:href="#circle" y="109.552" /><use x="488.834019204" xlink:href="#circle" y="316.552" /><use x="755.500685871" xlink:href="#circle" y="523.552" /><use x="74.0192043896" xlink:href="#circle" y="730.552" /><use x="340.685871056" xlink:href="#circle" y="937.552" /><use x="607.352537723" xlink:href="#circle" y="150.952" /><use x="162.908093278" xlink:href="#circle" y="357.952" /><use x="429.574759945" xlink:href="#circle" y="564.952" /><use x="696.241426612" xlink:href="#circle" y="771.952" /><use x="251.796982167" xlink:href="#circle" y="978.952" /><use x="518.463648834" xlink:href="#circle" y="192.352" /><use x="785.130315501" xlink:href="#circle" y="399.352" /><use x="103.648834019" xlink:href="#circle" y="606.352" /><use x="370.315500686" xlink:href="#circle" y="813.352" /><use x="636.982167353" xlink:href="#circle" y="1020.352" /><use x="192.537722908" xlink:href="#circle" y="233.752" /><use x="459.204389575" xlink:href="#circle" y="440.752" /><use x="725.871056241" xlink:href="#circle" y="647.752" /><use x="281.426611797" xlink:href="#circle" y="854.752" /><use x="548.093278464" xlink:href="#circle" y="1061.752" /><use x="814.75994513" xlink:href="#circle" y="76.432" /><use x="54.2661179698" xlink:href="#circle" y="283.432" /><use x="320.932784636" xlink:href="#circle" y="490.432" /><use x="587.599451303" xlink:href="#circle" y="697.432" /><use x="143.155006859" xlink:href="#circle" y="904.432" /><use x="409.821673525" xlink:href="#circle" y="117.832" /><use x="676.488340192" xlink:href="#circle" y="324.832" /><use x="232.043895748" xlink:href="#circle" y="531.832" /><use x="498.710562414" xlink:href="#circle" y="738.832" /><use x="765.377229081" xlink:href="#circle" y="945.832" /><use x="83.8957475995" xlink:href="#circle" y="159.232" /><use x="350.562414266" xlink:href="#circle" y="366.232" /><use x="617.229080933" xlink:href="#circle" y="573.232" /><use x="172.784636488" xlink:href="#circle" y="780.232" /><use x="439.451303155" xlink:href="#circle" y="987.232" /><use x="706.117969822" xlink:href="#circle" y="200.632" /><use x="261.673525377" xlink:href="#circle" y="407.632" /><use x="528.340192044" xlink:href="#circle" y="614.632" /><use x="795.006858711" xlink:href="#circle" y="821.632" /><use x="113.525377229" xlink:href="#circle" y="1028.632" /><use x="380.192043896" xlink:href="#circle" y="242.032" /><use x="646.858710562" xlink:href="#circle" y="449.032" /><use x="202.414266118" xlink:href="#circle" y="656.032" /><use x="469.080932785" xlink:href="#circle" y="863.032" /><use x="735.747599451" xlink:href="#circle" y="1070.032" /><use x="291.303155007" xlink:href="#circle" y="44.968" /><use x="557.969821674" xlink:href="#circle" y="251.968" /><use x="824.63648834" xlink:href="#circle" y="458.968" /><use x="64.1426611797" xlink:href="#circle" y="665.968" /><use x="330.809327846" xlink:href="#circle" y="872.968" /><use x="597.475994513" xlink:href="#circle" y="86.368" /><use x="153.031550069" xlink:href="#circle" y="293.368" /><use x="419.698216735" xlink:href="#circle" y="500.368" /><use x="686.364883402" xlink:href="#circle" y="707.368" /><use x="241.920438957" xlink:href="#circle" y="914.368" /><use x="508.587105624" xlink:href="#circle" y="127.768" /><use x="775.253772291" xlink:href="#circle" y="334.768" /><use x="93.7722908093" xlink:href="#circle" y="541.768" /><use x="360.438957476" xlink:href="#circle" y="748.768" /><use x="627.105624143" xlink:href="#circle" y="955.768" /><use x="182.661179698" xlink:href="#circle" y="169.168" /><use x="449.327846365" xlink:href="#circle" y="376.168" /><use x="715.994513032" xlink:href="#circle" y="583.168" /><use x="271.550068587" xlink:href="#circle" y="790.168" /><use x="538.216735254" xlink:href="#circle" y="997.168" /><use x="804.88340192" xlink:href="#circle" y="210.568" /><use x="123.401920439" xlink:href="#circle" y="417.568" /><use x="390.068587106" xlink:href="#circle" y="624.568" /><use x="656.735253772" xlink:href="#circle" y="831.568" /><use x="212.290809328" xlink:href="#circle" y="1038.568" /><use x="478.957475995" xlink:href="#circle" y="53.248" /><use x="745.624142661" xlink:href="#circle" y="260.248" /><use x="301.179698217" xlink:href="#circle" y="467.248" /><use x="567.846364883" xlink:href="#circle" y="674.248" /><use x="834.51303155" xlink:href="#circle" y="881.248" /><use x="47.6817558299" xlink:href="#circle" y="94.648" /><use x="314.348422497" xlink:href="#circle" y="301.648" /><use x="581.015089163" xlink:href="#circle" y="508.648" /><use x="136.570644719" xlink:href="#circle" y="715.648" /><use x="403.237311385" xlink:href="#circle" y="922.648" /><use x="669.903978052" xlink:href="#circle" y="136.048" /><use x="225.459533608" xlink:href="#circle" y="343.048" /><use x="492.126200274" xlink:href="#circle" y="550.048" /><use x="758.792866941" xlink:href="#circle" y="757.048" /><use x="77.3113854595" xlink:href="#circle" y="964.048" /><use x="343.978052126" xlink:href="#circle" y="177.448" /><use x="610.644718793" xlink:href="#circle" y="384.448" /><use x="166.200274348" xlink:href="#circle" y="591.448" /><use x="432.866941015" xlink:href="#circle" y="798.448" /><use x="699.533607682" xlink:href="#circle" y="1005.448" /><use x="255.089163237" xlink:href="#circle" y="218.848" /><use x="521.755829904" xlink:href="#circle" y="425.848" /><use x="788.422496571" xlink:href="#circle" y="632.848" /><use x="106.941015089" xlink:href="#circle" y="839.848" /><use x="373.607681756" xlink:href="#circle" y="1046.848" /><use x="640.274348422" xlink:href="#circle" y="61.528" /><use x="195.829903978" xlink:href="#circle" y="268.528" /><use x="462.496570645" xlink:href="#circle" y="475.528" /><use x="729.163237311" xlink:href="#circle" y="682.528" /><use x="284.718792867" xlink:href="#circle" y="889.528" /><use x="551.385459534" xlink:href="#circle" y="102.928" /><use x="818.0521262" xlink:href="#circle" y="309.928" /><use x="57.5582990398" xlink:href="#circle" y="516.928" /><use x="324.224965706" xlink:href="#circle" y="723.928" /><use x="590.891632373" xlink:href="#circle" y="930.928" /><use x="146.447187929" xlink:href="#circle" y="144.328" /><use x="413.113854595" xlink:href="#circle" y="351.328" /><use x="679.780521262" xlink:href="#circle" y="558.328" /><use x="235.336076818" xlink:href="#circle" y="765.328" /><use x="502.002743484" xlink:href="#circle" y="972.328" /><use x="768.669410151" xlink:href="#circle" y="185.728" /><use x="87.1879286694" xlink:href="#circle" y="392.728" /><use x="353.854595336" xlink:href="#circle" y="599.728" /><use x="620.521262003" xlink:href="#circle" y="806.728" /><use x="176.076817558" xlink:href="#circle" y="1013.728" /><use x="442.743484225" xlink:href="#circle" y="227.128" /><use x="709.410150892" xlink:href="#circle" y="434.128" /><use x="264.965706447" xlink:href="#circle" y="641.128" /><use x="531.632373114" xlink:href="#circle" y="848.128" /><use x="798.299039781" xlink:href="#circle" y="1055.128" /><use x="116.817558299" xlink:href="#circle" y="69.808" /><use x="383.484224966" xlink:href="#circle" y="276.808" /><use x="650.150891632" xlink:href="#circle" y="483.808" /><use x="205.706447188" xlink:href="#circle" y="690.808" /><use x="472.373113855" xlink:href="#circle" y="897.808" /><use x="739.039780521" xlink:href="#circle" y="111.208" /><use x="294.595336077" xlink:href="#circle" y="318.208" /><use x="561.262002743" xlink:href="#circle" y="525.208" /><use x="827.92866941" xlink:href="#circle" y="732.208" /><use x="67.4348422497" xlink:href="#circle" y="939.208" /><use x="334.101508916" xlink:href="#circle" y="152.608" /><use x="600.768175583" xlink:href="#circle" y="359.608" /><use x="156.323731139" xlink:href="#circle" y="566.608" /><use x="422.990397805" xlink:href="#circle" y="773.608" /><use x="689.657064472" xlink:href="#circle" y="980.608" /><use x="245.212620027" xlink:href="#circle" y="194.008" /><use x="511.879286694" xlink:href="#circle" y="401.008" /><use x="778.545953361" xlink:href="#circle" y="608.008" /><use x="97.0644718793" xlink:href="#circle" y="815.008" /><use x="363.731138546" xlink:href="#circle" y="1022.008" /><use x="630.397805213" xlink:href="#circle" y="235.408" /><use x="185.953360768" xlink:href="#circle" y="442.408" /><use x="452.620027435" xlink:href="#circle" y="649.408" /><use x="719.286694102" xlink:href="#circle" y="856.408" /><use x="274.842249657" xlink:href="#circle" y="1063.408" /><use x="541.508916324" xlink:href="#circle" y="78.088" /><use x="808.17558299" xlink:href="#circle" y="285.088" /><use x="126.694101509" xlink:href="#circle" y="492.088" /><use x="393.360768176" xlink:href="#circle" y="699.088" /><use x="660.027434842" xlink:href="#circle" y="906.088" /><use x="215.582990398" xlink:href="#circle" y="119.488" /><use x="482.249657064" xlink:href="#circle" y="326.488" /><use x="748.916323731" xlink:href="#circle" y="533.488" /><use x="304.471879287" xlink:href="#circle" y="740.488" /><use x="571.138545953" xlink:href="#circle" y="947.488" /><use x="837.80521262" xlink:href="#circle" y="160.888" /><use x="42.19478738" xlink:href="#circle" y="367.888" /><use x="308.861454047" xlink:href="#circle" y="574.888" /><use x="575.528120713" xlink:href="#circle" y="781.888" /><use x="131.083676269" xlink:href="#circle" y="988.888" /><use x="397.750342936" xlink:href="#circle" y="202.288" /><use x="664.417009602" xlink:href="#circle" y="409.288" /><use x="219.972565158" xlink:href="#circle" y="616.288" /><use x="486.639231824" xlink:href="#circle" y="823.288" /><use x="753.305898491" xlink:href="#circle" y="1030.288" /><use x="71.8244170096" xlink:href="#circle" y="243.688" /><use x="338.491083676" xlink:href="#circle" y="450.688" /><use x="605.157750343" xlink:href="#circle" y="657.688" /><use x="160.713305898" xlink:href="#circle" y="864.688" /><use x="427.379972565" xlink:href="#circle" y="1071.688" /><use x="694.046639232" xlink:href="#circle" y="46.624" /><use x="249.602194787" xlink:href="#circle" y="253.624" /><use x="516.268861454" xlink:href="#circle" y="460.624" /><use x="782.935528121" xlink:href="#circle" y="667.624" /><use x="101.454046639" xlink:href="#circle" y="874.624" /><use x="368.120713306" xlink:href="#circle" y="88.024" /><use x="634.787379973" xlink:href="#circle" y="295.024" /><use x="190.342935528" xlink:href="#circle" y="502.024" /><use x="457.009602195" xlink:href="#circle" y="709.024" /><use x="723.676268861" xlink:href="#circle" y="916.024" /><use x="279.231824417" xlink:href="#circle" y="129.424" /><use x="545.898491084" xlink:href="#circle" y="336.424" /><use x="812.56515775" xlink:href="#circle" y="543.424" /><use x="52.0713305898" xlink:href="#circle" y="750.424" /><use x="318.737997257" xlink:href="#circle" y="957.424" /><use x="585.404663923" xlink:href="#circle" y="170.824" /><use x="140.960219479" xlink:href="#circle" y="377.824" /><use x="407.626886145" xlink:href="#circle" y="584.824" /><use x="674.293552812" xlink:href="#circle" y="791.824" /><use x="229.849108368" xlink:href="#circle" y="998.824" /><use x="496.515775034" xlink:href="#circle" y="212.224" /><use x="763.182441701" xlink:href="#circle" y="419.224" /><use x="81.7009602195" xlink:href="#circle" y="626.224" /><use x="348.367626886" xlink:href="#circle" y="833.224" /><use x="615.034293553" xlink:href="#circle" y="1040.224" /><use x="170.589849108" xlink:href="#circle" y="54.904" /><use x="437.256515775" xlink:href="#circle" y="261.904" /><use x="703.923182442" xlink:href="#circle" y="468.904" /><use x="259.478737997" xlink:href="#circle" y="675.904" /><use x="526.145404664" xlink:href="#circle" y="882.904" /><use x="792.812071331" xlink:href="#circle" y="96.304" /><use x="111.330589849" xlink:href="#circle" y="303.304" /><use x="377.997256516" xlink:href="#circle" y="510.304" /><use x="644.663923182" xlink:href="#circle" y="717.304" /></svg>