<?xml version="1.0" encoding="utf-8" ?>
<svg baseProfile="full" height="792.0" version="1.1" width="612.0" xmlns="http://www.w3.org/2000/svg" xmlns:ev="http://www.w3.org/2001/xml-events" xmlns:xlink="http://www.w3.org/1999/xlink"><defs><pattern height="98" id="water" patternUnits="userSpaceOnUse" width="40"><rect fill="#A92D2D" height="98" width="40" x="0" y="0" /><path d="M0,0 C0,24 40,24 40,0 M-20.0,49.0 C-20.0,73.0 20.0,73.0 20.0,49.0 M20.0,49.0 C20.0,73.0 60.0,73.0 60.0,49.0" fill="none" stroke="#FFFFFF" stroke-width="10" /></pattern><pattern height="24" id="dot" patternUnits="userSpaceOnUse" width="24"><path d="M0,0 L0,4 L4,0 Z M24,0 L24,4 L20,0 Z M0,24 L4,24 L0,20 Z M24,24 L20,24 L24,20 Z M12,8 L8,12 L12,16 L16,12 Z" fill="#000000" /></pattern></defs><path d="M28.6624635331,579.807634655 C28.8778984224,579.732087257 30.6009245204,579.126403603 30.8168124265,579.052160671 S34.3003831534,577.867684739 34.6873222757,577.735711378 S39.1513705607,576.214383565 39.6458184819,576.040850791 S44.5796147909,574.282208078 45.1227760227,574.073256431 S50.1560493567,572.045321414 50.7011653025,571.787909313 S55.5858070275,569.224584907 56.0990839718,568.890075659 S60.6602862142,565.434326228 61.121282753,564.996983499 S65.2348337138,560.393248567 65.6391563049,559.839506032 S69.2580933152,554.030250383 69.617864075,553.360437378 S72.7989798271,546.638387625 73.1351748297,545.883589499 S75.9967458442,539.048582828 76.3281929682,538.294943724 S78.9751072662,532.46097243 79.3136711998,531.835024484 S81.8319697478,527.888303305 82.1703066051,527.493855158 S84.6798164163,525.447017744 84.972449725,525.237768952 S87.5671627186,523.691832665 87.8098680365,523.461260841 S90.539750453,520.130912477 90.7817930055,519.718850417 S93.6870463547,513.607820586 93.999409436,512.923960067 S97.1729968468,505.597864308 97.5893948508,504.814879984 S101.145797245,499.062139451 101.661032238,498.517237412 S105.71743639,495.84339771 106.229139096,495.677662355 S110.66423322,495.434233984 111.157592559,495.441397122 S115.699406388,495.826490442 116.205631244,495.822512122 S120.66128348,495.467904434 121.146239415,495.36289834 S125.373137007,493.933397006 125.828974933,493.738797577 S129.728060529,491.736718652 130.161318778,491.514317089 S133.701682547,489.679718418 134.102799657,489.491650384 S137.331402472,488.142981885 137.686988417,487.985826618 S140.705232984,486.63857776 141.012275585,486.437928637 S143.931575268,484.042747267 144.20570441,483.725913991 S147.108831767,479.548813166 147.394597453,479.061361801 S150.357617241,473.324182605 150.679547025,472.68300865 S153.755810828,466.365399468 154.116756099,465.673122329 S157.35546693,459.754614031 157.751909221,459.118529296 S161.275532193,454.038266924 161.703178762,453.500839633 S165.744723517,448.985480272 166.205630906,448.494661204 S171.000155391,443.609418696 171.516300711,443.050871857 S177.095010872,436.778864658 177.693219544,436.063363136 S183.769681545,428.419574825 184.453402956,427.577147111 S190.575905541,420.051597758 191.320625609,419.272745852 S197.218570894,413.89767246 197.974109069,413.436763104 S203.781173766,411.328934786 204.461719734,411.256138065 S210.415754573,411.914213922 211.069934682,412.035927295 S217.261866557,413.643598218 217.961507306,413.767838829 S224.20669555,414.505467385 224.90466736,414.492667607 S230.737808601,413.679512134 231.372568095,413.521899674 S236.403227942,411.731587425 236.950105903,411.501753385 S241.182109727,409.465572894 241.636077172,409.20849901 S245.373138197,406.818717458 245.759526158,406.513131604 S249.312997856,403.228365088 249.686432569,402.841647618 S253.234798221,398.797713721 253.636984574,398.355478637 S257.237673405,394.466568048 257.668221058,394.065052189 S261.279546924,391.108206216 261.713004829,390.824023787 S265.233244831,388.986227147 265.647006608,388.834023676 S269.004760149,388.041337872 269.385718786,388.001593669 S272.592805937,388.060944108 272.949028242,388.072226983 S276.113414854,388.275309543 276.461478708,388.225709101 S279.784587577,387.253906089 280.110225642,387.051728712 S283.697479411,383.904813612 284.053313805,383.512202081 S287.87974558,378.558579984 288.30592416,378.008966699 S292.236048286,372.863289393 292.721824377,372.333018504 S296.63419467,368.690341414 297.134381172,368.371864674 S301.084560925,366.810445112 301.545962426,366.714548781 S305.709488916,366.509804897 306.172368249,366.493436027 S310.756499404,366.416472889 311.263740751,366.370897547 S316.302094182,365.650168135 316.855336538,365.53357749 S322.1407444,364.131584975 322.722389277,363.956094704 S328.026688407,362.199596639 328.609979546,361.987039794 S333.917243708,359.929273029 334.492613908,359.666912787 S340.001180161,356.875730852 340.590257729,356.524211374 S346.545338467,352.55793161 347.188588379,352.090860733 S353.794227139,346.982255509 354.522748325,346.407675829 S361.967168901,340.438029645 362.798233579,339.779640231 S371.195674603,333.164519502 372.143212426,332.448320618 S381.347697127,325.671402436 382.401362774,324.962564959 S391.926795819,318.992458238 393.025990894,318.399750227 S402.249840419,314.084193704 403.309498858,313.688479012 S411.798571529,311.210972051 412.763675074,311.028986855 S420.456153985,310.274783001 421.314157888,310.293422169 S428.489048778,311.222396108 429.275483832,311.387687293 S436.418413828,313.452250539 437.223459551,313.63720411 S444.856879183,315.172547868 445.720162,315.165736012 S454.060388741,313.869581884 454.917966954,313.497583079 S463.574228506,307.832967416 464.418198359,307.054933909 S472.786131518,297.378281859 473.637553244,296.240491094 S481.465394698,284.431933655 482.331087067,283.117185157 S489.860920469,271.465303254 490.77011793,270.220839647 S498.543344728,260.558416831 499.520926855,259.588599846 S508.037863558,252.737340411 509.057501236,252.078716896 S518.36597424,247.292193857 519.395346899,246.750941242 S528.999531932,241.758377847 529.987168477,241.07372562 S539.17972777,233.406171593 540.069371567,232.419234808 S548.365059855,221.111330924 549.178936109,219.783113002 S556.528723648,205.87235502 557.298007508,204.302696278 S563.840523551,189.974086462 564.56830709,188.382401318 S570.34097313,175.719650395 571.005692622,174.323564332 S575.869381341,164.538705865 576.433015525,163.463387672 S580.078303337,156.939781159 580.494191902,156.221120939 S582.490001591,152.974395402 582.711758224,152.61364812 Q588.355879112,140.61364812 594.0,152.61364812 L594.0,18.0 L18.0,18.0 L18.0,579.807634655 Q23.3312317665,567.807634655 28.6624635331,579.807634655" fill="url(#dot)" /><path d="M28.6624635331,609.807634655 C28.8778984224,609.732087257 30.6009245204,609.126403603 30.8168124265,609.052160671 S34.3003831534,607.867684739 34.6873222757,607.735711378 S39.1513705607,606.214383565 39.6458184819,606.040850791 S44.5796147909,604.282208078 45.1227760227,604.073256431 S50.1560493567,602.045321414 50.7011653025,601.787909313 S55.5858070275,599.224584907 56.0990839718,598.890075659 S60.6602862142,595.434326228 61.121282753,594.996983499 S65.2348337138,590.393248567 65.6391563049,589.839506032 S69.2580933152,584.030250383 69.617864075,583.360437378 S72.7989798271,576.638387625 73.1351748297,575.883589499 S75.9967458442,569.048582828 76.3281929682,568.294943724 S78.9751072662,562.46097243 79.3136711998,561.835024484 S81.8319697478,557.888303305 82.1703066051,557.493855158 S84.6798164163,555.447017744 84.972449725,555.237768952 S87.5671627186,553.691832665 87.8098680365,553.461260841 S90.539750453,550.130912477 90.7817930055,549.718850417 S93.6870463547,543.607820586 93.999409436,542.923960067 S97.1729968468,535.597864308 97.5893948508,534.814879984 S101.145797245,529.062139451 101.661032238,528.517237412 S105.71743639,525.84339771 106.229139096,525.677662355 S110.66423322,525.434233984 111.157592559,525.441397122 S115.699406388,525.826490442 116.205631244,525.822512122 S120.66128348,525.467904434 121.146239415,525.36289834 S125.373137007,523.933397006 125.828974933,523.738797577 S129.728060529,521.736718652 130.161318778,521.514317089 S133.701682547,519.679718418 134.102799657,519.491650384 S137.331402472,518.142981885 137.686988417,517.985826618 S140.705232984,516.63857776 141.012275585,516.437928637 S143.931575268,514.042747267 144.20570441,513.725913991 S147.108831767,509.548813166 147.394597453,509.061361801 S150.357617241,503.324182605 150.679547025,502.68300865 S153.755810828,496.365399468 154.116756099,495.673122329 S157.35546693,489.754614031 157.751909221,489.118529296 S161.275532193,484.038266924 161.703178762,483.500839633 S165.744723517,478.985480272 166.205630906,478.494661204 S171.000155391,473.609418696 171.516300711,473.050871857 S177.095010872,466.778864658 177.693219544,466.063363136 S183.769681545,458.419574825 184.453402956,457.577147111 S190.575905541,450.051597758 191.320625609,449.272745852 S197.218570894,443.89767246 197.974109069,443.436763104 S203.781173766,441.328934786 204.461719734,441.256138065 S210.415754573,441.914213922 211.069934682,442.035927295 S217.261866557,443.643598218 217.961507306,443.767838829 S224.20669555,444.505467385 224.90466736,444.492667607 S230.737808601,443.679512134 231.372568095,443.521899674 S236.403227942,441.731587425 236.950105903,441.501753385 S241.182109727,439.465572894 241.636077172,439.20849901 S245.373138197,436.818717458 245.759526158,436.513131604 S249.312997856,433.228365088 249.686432569,432.841647618 S253.234798221,428.797713721 253.636984574,428.355478637 S257.237673405,424.466568048 257.668221058,424.065052189 S261.279546924,421.108206216 261.713004829,420.824023787 S265.233244831,418.986227147 265.647006608,418.834023676 S269.004760149,418.041337872 269.385718786,418.001593669 S272.592805937,418.060944108 272.949028242,418.072226983 S276.113414854,418.275309543 276.461478708,418.225709101 S279.784587577,417.253906089 280.110225642,417.051728712 S283.697479411,413.904813612 284.053313805,413.512202081 S287.87974558,408.558579984 288.30592416,408.008966699 S292.236048286,402.863289393 292.721824377,402.333018504 S296.63419467,398.690341414 297.134381172,398.371864674 S301.084560925,396.810445112 301.545962426,396.714548781 S305.709488916,396.509804897 306.172368249,396.493436027 S310.756499404,396.416472889 311.263740751,396.370897547 S316.302094182,395.650168135 316.855336538,395.53357749 S322.1407444,394.131584975 322.722389277,393.956094704 S328.026688407,392.199596639 328.609979546,391.987039794 S333.917243708,389.929273029 334.492613908,389.666912787 S340.001180161,386.875730852 340.590257729,386.524211374 S346.545338467,382.55793161 347.188588379,382.090860733 S353.794227139,376.982255509 354.522748325,376.407675829 S361.967168901,370.438029645 362.798233579,369.779640231 S371.195674603,363.164519502 372.143212426,362.448320618 S381.347697127,355.671402436 382.401362774,354.962564959 S391.926795819,348.992458238 393.025990894,348.399750227 S402.249840419,344.084193704 403.309498858,343.688479012 S411.798571529,341.210972051 412.763675074,341.028986855 S420.456153985,340.274783001 421.314157888,340.293422169 S428.489048778,341.222396108 429.275483832,341.387687293 S436.418413828,343.452250539 437.223459551,343.63720411 S444.856879183,345.172547868 445.720162,345.165736012 S454.060388741,343.869581884 454.917966954,343.497583079 S463.574228506,337.832967416 464.418198359,337.054933909 S472.786131518,327.378281859 473.637553244,326.240491094 S481.465394698,314.431933655 482.331087067,313.117185157 S489.860920469,301.465303254 490.77011793,300.220839647 S498.543344728,290.558416831 499.520926855,289.588599846 S508.037863558,282.737340411 509.057501236,282.078716896 S518.36597424,277.292193857 519.395346899,276.750941242 S528.999531932,271.758377847 529.987168477,271.07372562 S539.17972777,263.406171593 540.069371567,262.419234808 S548.365059855,251.111330924 549.178936109,249.783113002 S556.528723648,235.87235502 557.298007508,234.302696278 S563.840523551,219.974086462 564.56830709,218.382401318 S570.34097313,205.719650395 571.005692622,204.323564332 S575.869381341,194.538705865 576.433015525,193.463387672 S580.078303337,186.939781159 580.494191902,186.221120939 S582.490001591,182.974395402 582.711758224,182.61364812 Q588.355879112,170.61364812 594.0,182.61364812 L594.0,774.0 L18.0,774.0 L18.0,609.807634655 Q23.3312317665,597.807634655 28.6624635331,609.807634655" fill="url(#water)" /></svg>