<?xml version="1.0" encoding="utf-8" ?>
<svg baseProfile="full" height="792.0" version="1.1" width="612.0" xmlns="http://www.w3.org/2000/svg" xmlns:ev="http://www.w3.org/2001/xml-events" xmlns:xlink="http://www.w3.org/1999/xlink"><defs><pattern height="72" id="water" patternUnits="userSpaceOnUse" width="36"><path d="M0,0 C0,18 36,18 36,0 M-18.0,36.0 C-18.0,54.0 18.0,54.0 18.0,36.0 M18.0,36.0 C18.0,54.0 54.0,54.0 54.0,36.0" fill="none" stroke="#000000" stroke-width="2" /></pattern><pattern height="48" id="diagonal" patternUnits="userSpaceOnUse" width="48"><rect fill="#FFFFFF" height="48" width="48" x="0" y="0" /><path d="M0,0 l48,48 M-12.0,36.0 l24.0,24.0 M36.0,-12.0 l24.0,24.0" stroke="#A92D2D" stroke-width="12" /></pattern></defs><rect fill="url(#water)" height="756.0" width="576.0" x="18.0" y="18.0" /><path d="M385.097172256,86.6434500337 C385.641613797,86.8888203011 386.461866581,87.0688927538 386.911977394,87.461350925 S387.978013879,89.0733389152 388.556429144,89.6596264799 S390.31757339,90.6007364784 390.71278719,91.3138901868 S391.02813175,92.9583320283 390.71270933,93.5505817349 S389.020166509,94.5071323042 388.639786546,95.2062388163 S388.18383169,96.9024034938 388.640496117,97.3591360557 S390.215217482,97.6481562419 390.792986273,97.3597598015 S391.741163283,95.1932641388 392.450623627,95.4572901496 S394.421912257,97.603697433 394.600118329,98.7765858416 S394.98123763,106.378423507 394.600088751,109.604298187 S392.854235222,114.183232106 392.536152329,116.245076597 S392.146199806,120.996402122 392.53688364,122.978195977 S394.115301065,125.850279517 394.682640831,127.1334148 S395.648109092,130.345630057 396.345118852,131.591167014 S397.931631289,133.314643139 398.573431271,134.086148553 S399.519373757,135.867176888 400.23774614,136.270480062 S401.873724789,136.582418248 402.464592157,136.270694582 S403.428710238,134.587064725 404.130364648,134.21685284 S405.770643072,133.896124824 406.355761824,134.217607997 S407.435439652,135.793598105 408.023385855,136.355804648 S409.62053351,137.552797428 410.334850395,138.022496301 S412.498336447,140.024902401 413.672057108,140.07008689 S418.602846691,139.668383646 420.164049476,138.400889011 S422.253202451,133.827709 423.503791012,132.087991227 S425.027234059,130.361783076 425.901936633,130.418803951 S428.14516792,132.048173599 429.245347128,132.462276801 S433.871711376,133.443350262 435.771118204,134.133525755 S438.660101483,135.762958438 439.951820194,136.352620473 S443.180792621,137.187277722 444.298215896,138.026095968 S445.337586203,139.562009114 445.135466998,140.243838435 S443.499706087,141.223695769 443.144317999,141.9186574 S442.821591524,143.554415711 443.145579256,144.135065177 S444.683304972,145.285583857 445.316264027,145.811210051 S446.954343928,147.534676544 447.831405022,148.0263007 S450.965470529,149.11937243 452.260590796,149.703753921 S455.118166837,151.430917795 456.45527391,151.917545004 S461.082542724,152.856808843 462.956121393,153.596289011 S465.32010117,155.125371486 466.314319627,155.808798089 S468.006622196,156.891135961 468.61879458,157.488815319 S469.710748904,159.110754804 470.299940046,159.700059954 S471.921306141,160.792268032 472.510559045,161.381332847 S473.603412788,163.002103454 474.192453183,163.591330601 S475.812712844,164.684744985 476.401834082,165.273841594 S477.509975854,166.879008021 478.083895301,167.482610028 S480.03225711,168.380286693 480.102153559,169.165538029 S479.20788834,171.110436815 478.41747783,171.230241429 S473.786123757,171.201958555 472.034266732,170.388408996 S469.407781889,167.072324258 467.82276339,166.310133711 S464.471072754,165.416443034 463.555613332,166.311264484 S462.910757302,169.409186059 463.554817711,170.481863505 S466.660794666,171.920346935 467.578619927,173.011549702 S468.070472226,174.80230632 467.576928792,175.263752749 S464.57195888,176.325246867 463.36327433,176.952755347 S461.02190754,178.563504538 459.986673514,179.204358725 S456.692440544,180.662844016 455.630882298,181.739437085 S453.77502723,184.813060988 453.09641168,186.192207165 S451.202337243,189.630953699 450.944581895,191.263376359 S450.528142395,197.287224795 450.944570697,199.820300644 S452.338423229,202.821774783 453.046451906,204.048761331 S454.12523333,205.782124167 454.739090105,206.396057284 S456.339465805,207.647622793 457.086997039,208.089808961 S459.952325516,209.865273611 461.31906943,210.288303797 S467.281321036,211.058963477 469.662796121,211.982229899 S471.773056141,213.459108686 471.35646914,214.179671033 S468.406759909,215.056582829 467.412251852,215.87495208 S466.405116515,217.419614374 466.566112235,218.121600681 S468.248044646,219.741459287 468.510911184,220.665413637 S468.870708761,223.719922997 468.51035638,224.95545959 S466.889691023,226.605080259 466.517403658,227.500532877 S466.191225186,229.157044511 466.518922289,229.745401542 S468.024300045,230.97610268 468.71328058,231.443074981 S470.939198157,233.285398009 472.10954932,233.534576751 S476.643714784,233.904915 478.535565644,233.534331609 S481.482707689,232.014780572 482.783114215,231.443795733 S485.936739345,230.434670183 487.166808514,229.74450995 S488.934399608,228.188945471 489.71762058,227.553022235 S491.350959505,226.437480536 491.959929973,225.85281474 S492.944312989,224.135776793 493.662595128,223.765495898 S495.338552062,223.549180406 496.00787397,223.76606325 S498.922319513,225.41105182 500.263164106,225.904302587 S506.381689257,227.263667466 508.760879343,228.45745681 S512.244240893,231.56794506 513.868738288,232.731075094 S517.023790919,234.430437371 518.297083057,235.285319376 S519.940809932,237.014137658 520.853683509,237.420732558 S522.492581755,237.722530647 523.093268924,237.421545863 S524.098412946,235.794928375 524.798840756,235.443942703 S526.421728413,235.177501775 527.037978725,235.444844481 S528.723775489,237.062567748 529.598424076,237.52610569 S532.777841327,238.803457132 534.181115467,239.230496176 S539.480216681,241.133141916 541.859349886,241.257303951 S552.320391913,241.319796985 556.678395435,240.404582631 S562.51655093,237.229158633 565.211598158,236.353151691 S569.8045577,235.198064472 571.763255753,235.501350432 S573.488380405,236.812820785 573.473505532,237.632430296 S571.775646206,239.893674496 571.66259272,241.047910546 S571.64240413,245.677359462 572.518413615,247.383580517 S575.440867791,249.756569568 576.670172446,250.801272934 S578.441589456,252.430147347 579.233510498,253.090289822 S580.871693808,254.204239046 581.46884461,254.801428445 S582.647894816,256.380656766 583.1796226,257.036656978 S584.862901994,258.723695621 585.360737933,259.602913188 S586.44668584,262.668592305 587.071872312,263.910677222 S588.716692405,266.240785496 589.252276395,267.334400429 S590.472314935,270.491834517 590.963367055,271.856763812 S592.7980882,275.961136855 593.034747077,277.848162278 S593.469067802,285.240657892 593.033824188,288.365780072 S591.853800693,292.159801006 590.854473149,293.502894914 S588.585410572,295.41340538 587.429054694,295.898577307 S582.916470499,296.93425975 581.057052506,297.613596073 S578.089181705,299.202634585 576.773290434,299.791649082 S573.641755305,300.888468161 572.363343238,301.50504281 S570.095818475,303.270419157 568.932872993,303.573061003 S565.747028386,303.821593551 564.414329317,303.5736731 S560.293289424,301.838269434 558.412454033,301.615959754 S551.000633755,301.224577702 547.858994549,301.61687709 S543.647104863,303.035944639 541.855868046,303.683395933 S538.640909709,304.690470315 537.394340598,305.39937736 S535.483528871,306.894385112 534.818860534,307.685247219 S533.04974504,309.97958983 532.588461249,311.117699808 S531.57273395,315.591379348 530.872423295,317.422159051 S529.098925979,319.685537725 528.863576852,320.85543933 S529.15108315,322.681962998 529.722071507,323.140465386 S532.689403253,324.185365309 533.849199205,324.858883059 S535.639103239,326.396420462 536.424798965,327.032879315 S538.052662683,328.158296653 538.65397898,328.751031791 S539.785003147,330.336667871 540.37277854,330.924518757 S541.962399253,332.051607937 542.546017447,332.643570145 S543.733646625,334.216007096 544.264914101,334.872300347 S545.938906075,336.570942369 546.437670061,337.451064416 S547.533521866,340.502179637 548.15704088,341.740371596 S549.783687115,344.087730208 550.329331455,345.179174928 S551.443289481,348.258928687 552.047950668,349.523303863 S553.876946737,351.781623023 554.051783578,352.962998591 S553.967163743,356.192301427 553.191486545,357.250195623 S550.269918894,359.057395226 549.016671408,359.830050966 S546.745545757,361.627128496 545.576506174,361.945005196 S542.49825438,362.261886212 541.234506596,361.946120346 S538.942991755,360.289678411 537.79273025,360.000114946 S534.73915607,359.631919471 533.507811822,360.001024812 S531.713770544,361.460008725 530.924415982,362.058947387 S529.299463783,363.344456275 528.52876283,363.778978449 S525.637355695,365.606387453 524.224830585,365.836182115 S518.353703979,366.237852072 515.883882839,365.836092972 S512.823778778,364.486661028 511.579746041,363.779240541 S509.878828687,362.651636825 509.240836149,362.05851768 S508.228841298,360.378246401 507.517071803,360.00231569 S505.923282527,359.698436555 505.347872089,360.002395918 S504.202401598,361.497769836 503.625024051,362.058281798 S502.043647379,363.192984018 501.456131667,363.780455991 S500.312521885,365.353061208 499.733814862,365.949201296 S498.063156366,366.965024475 497.678719292,367.671659756 S497.242960958,369.290563333 497.678788377,369.726553466 S499.18525737,370.008947608 499.733611741,369.727319392 S500.759696538,368.133797081 501.456471925,367.786380589 S503.049414078,367.483513175 503.62454769,367.787274804 S504.778901148,369.272730178 505.34764907,369.841538352 S507.026148867,370.853447245 507.401630593,371.564757845 S507.70503144,373.15730839 507.401574879,373.732484572 S505.899716139,374.872054548 505.347812877,375.457595187 S504.097064151,377.022990964 503.625111906,377.739115254 S501.820537807,380.009287729 501.571743593,381.187274346 S501.182895424,385.619600493 501.571790393,387.461147076 S502.966852708,389.901641826 503.624974308,390.910002373 S504.808696463,392.564391661 505.348879692,393.248326574 S507.016593365,394.955433974 507.515945659,395.836425503 S508.632544676,398.870431268 509.240006097,400.113318371 S510.989823293,402.397949202 511.292648829,403.56369098 S511.585043437,406.709918063 511.291772115,408.01169244 S509.769003982,411.631062969 509.124928783,413.185778797 S507.329261978,419.408191134 505.676254385,421.566839911 S501.28940439,424.589817742 499.40495654,425.879009169 S496.974813801,427.493560985 495.955281668,428.217167051 S494.264203071,429.322283501 493.6743251,429.946286244 S492.297402775,431.611675291 491.948121251,432.456143942 S490.164242187,437.221671934 489.78162604,439.357784149 S488.679514854,449.746612683 488.057042252,454.179694964 S486.283995256,462.58984733 486.005090867,466.25325086 S485.602289108,476.686510255 486.00510201,481.1318887 S487.363103796,486.590211961 488.05700949,488.897894973 S489.2780796,492.246311559 489.780834633,493.688629635 S491.598410226,497.830070889 491.832690763,499.729677837 S492.1670703,507.169154874 491.833534855,510.332451833 S490.177191165,515.711787691 489.896194875,518.095676541 S489.537641244,524.1864405 489.897038967,526.761106278 S491.399437757,530.967821856 491.948895097,532.800881043 S493.049725459,537.421264721 493.672720239,539.357256588 S495.435354899,542.888797108 495.72462772,544.534185851 S496.044534211,549.109926907 495.725484483,551.033414645 S494.059432822,554.57403078 493.787990451,556.209789084 S493.468740696,560.785670864 493.787975551,562.709175934 S495.451718066,566.249448192 495.725589401,567.884521155 S496.126236119,572.396790718 495.724341828,574.269714535 S494.383930135,576.781852324 493.615000433,577.720372126 S491.919927867,579.476455767 491.028372041,580.001396675 S487.99648893,581.048556872 486.809387704,581.727462225 S485.01249882,583.261947791 484.221624594,583.894187934 S482.606911353,585.079144607 481.940536478,585.619716006 S480.188880773,587.252912248 479.352987565,587.843685476 S476.183260357,589.380675771 475.133394797,590.430709837 S473.390393302,593.428325524 472.547283496,594.650481876 S470.831656842,596.317404586 470.437246141,597.238159913 S470.196902546,598.917428599 470.437202848,599.576484113 S472.01981936,601.933100641 472.547327847,603.025339411 S473.965472611,607.631484795 475.132899147,609.299212141 S478.118222608,611.677286911 479.35373051,612.748626909 S481.329331257,614.322910627 481.939064372,615.201009301 S483.813624421,618.091223674 484.049804969,619.511613302 S484.427094184,625.41036049 484.050279242,627.897853864 S482.615798826,631.517970481 481.996297719,633.067566386 S481.115663159,636.249056573 480.272779947,637.346743238 S478.744660946,638.373970382 478.047888139,638.209579518 S476.322885686,636.681865297 475.462799362,636.211915846 S472.42762875,635.168515827 471.239708108,634.489603539 S469.441824731,632.957782874 468.654948112,632.321139221 S467.030973042,631.190568291 466.429591973,630.597849945 S465.293705331,629.016734727 464.706030495,628.42910464 S463.120391533,627.297720663 462.537138111,626.705692476 S461.332102298,625.147684928 460.815526243,624.480069634 S458.977738792,622.863134203 458.815949392,621.896482922 S458.924284171,618.723805035 459.675859251,617.670843858 S462.660569537,616.092494592 463.675900314,615.087662643 S464.743201461,613.546587081 464.535486004,612.861467127 S463.091494824,611.660436444 462.478625829,611.138622682 S460.734800826,609.498919166 459.897131452,608.912242652 S456.738770927,607.322463617 455.613055705,606.330199614 S453.397979131,603.183474734 452.170914716,602.101952984 S449.105762754,600.394010684 447.885904592,599.51956939 S445.963917464,597.991316333 445.305026924,597.180220287 S443.447566806,594.923035657 443.190034584,593.738940649 S442.818841691,589.299890407 443.188716829,587.449739984 S444.784754321,585.139302627 445.135916131,584.005457114 S445.260918378,582.005988345 445.136020429,581.162207039 S443.373125913,573.98987977 443.187982399,570.845672758 S442.797312116,554.892207114 443.187473658,548.070934797 S444.832205409,540.892885222 445.080593937,537.756766503 S444.861098524,535.598204885 444.220681994,535.025791261 S441.265267549,533.962618237 440.098220385,533.303448438 S438.430966377,531.631999162 437.521012027,531.241693888 S435.881321682,530.925834526 435.292094944,531.24196469 S434.095595398,532.729853728 433.573292533,533.359712524 S431.898049134,535.056221889 431.399553118,535.936083507 S430.305713064,538.989844228 429.681657481,540.228574461 S428.065312649,542.577869559 427.507399995,543.661882105 S426.710108226,546.813928157 425.79003121,547.789922418 S424.065938274,548.262334687 423.615238092,547.790588309 S422.568621799,544.861076741 421.89841372,543.716579353 S420.368267689,541.921992679 419.723067408,541.144026865 S418.729293874,539.406685647 418.006032414,539.023246633 S416.369088938,538.799970296 415.720284488,539.021940703 S413.451479039,540.741434233 412.290988317,540.978490101 S407.913454238,541.499953564 406.145171606,540.977869046 S404.856467871,539.425386345 405.287632931,538.910753106 S408.186993926,537.870457144 409.313359037,537.196360026 S411.177006911,535.702913452 411.881712935,534.964385904 S413.852795958,533.372455338 413.896164324,532.393608479 S413.225053646,529.042620122 412.183785149,528.146456993 S407.779304374,526.475849531 405.975216324,525.576479604 S403.567652006,524.027296587 402.549060367,523.343375611 S400.88063703,522.070318467 400.098883394,521.630887282 S397.22603614,519.788834817 395.817828705,519.559686007 S389.875014185,519.177360609 387.36948795,519.55951218 S383.780403265,521.022655488 382.234920634,521.631398361 S379.053608471,522.707268569 377.766107199,523.342142582 S375.432210283,524.978495639 374.343097487,525.522900095 S371.238090806,526.604859505 369.980866822,527.233676654 S367.644954117,528.861860621 366.561129047,529.415154197 S363.436863288,530.295094142 362.357910666,531.125201946 S361.317325638,532.628904979 361.502066566,533.30741708 S363.081316962,534.324096056 363.417565688,535.017077796 S363.683272461,536.63765917 363.4166729,537.253267652 S361.828444921,538.954357311 361.339939939,539.814550203 S360.549713437,542.949422101 359.632509729,543.916680271 S357.911734669,544.381780228 357.448373783,543.918490395 S356.746003871,540.810728358 355.741015171,540.025782442 S353.902515947,540.265990472 353.556080167,540.878416437 S352.802081036,545.287092096 351.848483234,546.906964379 S350.182404031,548.077538205 349.505075115,547.759840445 S346.87371292,544.422961606 345.24177032,543.808118546 S339.305332499,542.726595892 336.757787803,542.957232107 S333.133996424,544.315112141 331.64430809,545.039134129 S328.313623724,546.522437765 327.216876663,547.594329208 S325.530509429,550.652571779 324.659367747,551.865774521 S323.113944322,553.754615596 322.315034093,554.420921226 S320.043927272,556.205770239 318.90896652,556.661713504 S314.363731237,557.674705873 312.496991202,558.36508451 S309.500482295,559.899676526 308.242927,560.606347298 S304.854282621,561.957864226 303.965534297,563.159252413 S302.947015249,566.211648644 303.113524735,567.540147482 S304.79794165,570.412527358 305.047435867,571.791222971 S305.50174169,576.340718311 305.04473301,578.211931402 S303.709593757,580.954512201 302.648966729,581.611707884 S297.969833776,583.5140695 295.854454013,583.906498416 S285.493608853,584.804486181 281.115431194,585.606443093 S276.232126021,586.871206583 274.322350891,587.850563795 S272.416131272,589.528546337 271.772848217,590.397439623 S270.224877553,593.604856247 269.225111101,594.735491656 S266.022563041,596.899304029 264.936309175,598.128878402 S263.236093217,601.217783833 262.392668663,602.469407623 S260.543865855,604.056257455 260.296777838,605.013842528 S260.613837687,606.801880302 261.143512112,607.310490907 S264.31604766,608.794337219 265.337110905,609.853734225 S267.182670041,612.928806544 267.878297543,614.298120278 S269.616071869,617.802147635 270.175765854,619.378424739 S271.433254005,625.577696157 272.716626872,627.924401669 S275.648625578,631.109434974 277.163801141,632.1563643 S280.630573978,634.029097414 282.239616395,634.504429251 S288.315472835,635.468754423 290.843078615,636.197398903 S294.42857157,637.699534978 295.916186276,638.447036613 S299.281135092,639.896547623 300.367974264,640.983500464 S302.213328744,644.062266234 302.903895381,645.435476537 S304.693328968,648.904682647 305.155067444,650.502763815 S306.098381259,656.559720861 306.843799327,659.071520805 S308.51843065,661.944823807 308.950626558,663.292479513 S309.277116798,665.017070021 308.950918499,665.64185412 S307.415541837,666.756406186 306.842940977,667.329436299 S305.868965053,669.052629781 305.156792959,669.438823946 S303.541614389,669.738409449 302.951020991,669.439932906 S302.01218607,667.688110707 301.265491579,667.472221902 S299.490158873,667.752454436 299.058534196,668.314513694 S298.055846187,671.357414825 297.374198981,672.539441521 S295.801254599,674.283927295 295.16603862,675.064389057 S294.076373127,676.719766692 293.482915163,677.320489742 S291.845251057,678.398157168 291.273534264,679.004545277 S289.975499292,680.645495671 289.591132348,681.448286672 S287.839612632,685.517358502 287.287312863,687.330190122 S285.892390539,696.619651521 283.92733345,700.038759285 S279.779660012,703.652902127 277.570110535,704.237669361 S275.851396083,702.964910883 275.890584449,702.165721153 S277.548492818,698.717540259 277.918531751,697.132125403 S278.929254762,689.515744564 279.595167144,686.293606313 S281.414710042,681.078908645 281.718230919,678.746589466 S282.144044029,672.573229078 281.718562974,669.976979689 S280.301955797,667.00494026 279.594190852,665.785876744 S278.521237787,664.056037124 277.919180438,663.432873962 S276.291482666,662.347002439 275.702107511,661.757351948 S274.620656434,660.125625396 274.027733906,659.539609481 S272.412958779,658.406757825 271.764580368,657.865690796 S270.045066868,656.207837084 269.255776316,655.557445859 S265.841660229,653.567463859 264.905370633,652.213564589 S263.202143876,647.592471722 262.398276246,645.641321214 S260.657950312,642.193587335 260.132708187,640.629340506 S259.076931444,635.901035686 258.462451824,633.919868225 S256.726850336,629.889053923 256.239899645,628.078386216 S255.483669238,621.921317622 254.570249398,619.4471806 S253.175142708,617.023140754 252.129224938,616.9439965 S248.131284008,618.719177381 246.295679497,618.821046614 S237.099634768,618.985107831 233.33263475,617.987137447 S228.574156456,615.065495767 226.67000304,613.621725197 S223.110578729,611.009762261 222.086755256,609.460266812 S220.503828486,604.800743594 219.589317519,602.905532138 S218.009485731,600.569568058 217.31828111,599.578190864 S216.240292106,597.887934015 215.655975468,597.264039748 S213.677537842,596.392029316 213.59425747,595.601927234 S214.467475485,593.663609019 215.254492017,593.455064069 S219.811092905,593.031857399 221.696985065,593.454852986 S224.090625648,594.892611245 225.016839934,595.644706818 S226.724579929,597.386051272 227.456874815,598.131942994 S229.88623996,601.8986004 231.601915762,602.352050594 S238.012066363,602.81213099 240.292639521,601.524413759 S243.161555813,597.011575989 244.434640309,595.106099961 S246.085203938,592.787640133 246.793343401,591.794552592 S247.850853093,590.086747532 248.449025322,589.476367465 S250.090228055,588.406201501 250.686504952,587.821937197 S251.626817602,586.059290185 252.340127777,585.663655154 S253.986781961,585.346368169 254.579383872,585.662765316 S255.527776786,587.369311844 256.232171242,587.741663046 S257.888200261,588.023191181 258.51081406,587.7409656 S260.129818521,586.06227277 260.992475466,585.583857311 S264.162361995,584.627801468 265.384738021,583.928799587 S267.153807361,582.366891656 267.868361157,581.651959986 S269.641952062,580.044123331 270.144236503,579.166784166 S271.092706132,575.994987326 271.802443261,574.780307149 S273.330756546,572.900423105 274.160467465,572.293202476 S276.951519121,570.435225293 278.308211016,570.019086949 S284.449914283,569.128491796 286.986468289,568.359080986 S289.923745445,566.853558635 291.13686159,566.127783077 S292.871578096,565.068037609 293.492929219,564.466436136 S294.562550722,562.823534762 295.155745156,562.236639753 S296.773077516,561.107841802 297.427346817,560.573800067 S299.048492734,558.838227251 299.922903225,558.345487648 S303.074186622,557.321929823 304.335507815,556.680977942 S306.634552179,555.042727069 307.665410281,554.41106199 S310.968717929,552.925269719 312.117649082,551.912419719 S314.218050231,548.641335608 315.450435476,547.548107016 S318.605467008,545.910981314 319.856213119,545.047667405 S321.576774475,543.425090818 322.357921599,542.780289795 S324.024242257,541.705169463 324.62475948,541.111451707 S325.711215389,539.485403755 326.293877447,538.888899528 S328.039974441,537.933287978 328.427233512,537.218643165 S328.708730221,535.571451733 328.426662406,534.953075105 S326.809485087,533.269935688 326.250118606,532.445759123 S324.755975304,529.180456869 323.741981659,528.0506163 S320.544449668,525.819067517 319.303469202,524.705467694 S316.651041027,521.297090321 315.12005976,520.313692977 S310.48366665,518.6581732 308.556947474,517.802639324 S305.669004957,516.133688961 304.370530527,515.540508319 S301.185224955,514.547410951 299.938029658,513.865268607 S298.327217297,512.139054483 297.423508322,511.740896485 S295.750320321,511.462407903 295.11704382,511.74122854 S293.464464738,513.385268857 292.600706477,513.864292315 S289.488471986,514.871671921 288.265115031,515.541174395 S286.69631301,517.379087251 285.746407091,517.615421843 S283.94729864,517.205793415 283.301946617,516.77600024 S280.128169849,513.222472088 278.262021971,512.630952083 S270.782910044,511.531521789 267.578596569,511.792110049 S263.928489842,513.04156249 262.536416822,513.909824492 S260.671119405,515.533755627 260.139424155,516.432061145 S259.087541443,519.548423154 258.455888136,520.803926771 S256.800744023,523.095524393 256.247119701,524.168587281 S255.579055637,527.455223422 254.563923857,528.347530374 S252.644265608,528.15936101 252.451602698,527.504869596 S252.110622616,523.03916273 252.450816335,521.169134024 S254.332492245,518.345606048 254.370346898,516.957623929 S253.854214342,513.391516891 252.683366313,512.642435664 S248.224355378,511.578981232 246.307581446,511.799254877 S243.383132881,513.301226827 242.090607471,513.85974437 S238.911464954,514.904800476 237.634377651,515.547062414 S235.292993893,517.158388237 234.257508015,517.799100454 S230.973501113,519.267224844 229.900455604,520.332466489 S228.213952117,523.40282675 227.366821568,524.639673488 S225.623687313,526.264683266 225.214307707,527.174442326 S224.907834907,528.822762819 225.213712951,529.424499221 S226.857807495,530.416490189 227.217915742,531.116025954 S227.53061617,532.735339324 227.217055665,533.316134272 S225.669972509,534.419082898 225.115976133,535.009360376 S223.857630783,536.604985091 223.424308796,537.35726731 S221.555923191,540.191690586 221.325317523,541.590252066 S220.901818197,547.571138701 221.325891056,550.083607661 S222.659562157,553.150193669 223.473828404,554.319354614 S225.259263187,556.060438139 226.014878109,556.816271028 S229.541483814,559.394504697 230.206957495,561.054425957 S231.364263744,566.892498606 231.053946969,569.385449597 S229.690191471,571.426543454 228.958808109,571.081519254 S227.631369267,567.873336307 226.413469363,567.196341727 S223.193167398,566.662993507 221.973744316,567.198728632 S218.605945757,570.416415281 216.881416127,571.384105438 S210.689458145,573.21052244 208.463996311,574.779491489 S206.04981327,577.611806448 205.916785579,579.114260902 S207.277816634,580.895320385 207.854471199,581.663650042 S209.024850914,583.283345273 209.552130121,583.957963171 S211.347587406,585.563615995 211.640817374,586.508022551 S212.121224475,589.527240221 211.640581147,590.684243076 S210.198212583,591.736178998 209.552824664,591.534230938 S208.425604304,590.050015545 207.851691678,589.49866328 S206.238803008,588.396112344 205.662047942,587.796399669 S204.400756432,586.200389431 203.959349768,585.451387549 S202.186825661,582.56789587 201.770601679,581.193190415 S200.710739342,575.145136038 200.067016638,572.595781414 S198.405037148,567.863340526 197.879146634,565.781742515 S196.936205748,559.704333308 196.174692289,557.189048631 S194.730306205,554.158212285 193.987682809,552.928208264 S193.06918276,551.011908456 192.282376721,550.742222654 S190.525025252,551.03614573 190.096210203,551.594366305 S188.997071631,554.586634417 188.390773608,555.808213053 S186.618746407,558.06190672 186.311121385,559.220621813 S186.016965695,562.349491376 186.310616636,563.643431611 S188.026855611,566.524236629 188.283392836,567.911216764 S188.680085639,572.428130521 188.282485524,574.304430108 S186.867925973,576.720753797 186.204810705,577.720174657 S185.094533073,579.395580823 184.496986041,580.009783809 S182.902211091,581.131232441 182.314015753,581.719421159 S181.19274231,583.313870297 180.604714377,583.902011674 S179.010571007,585.023618048 178.422499243,585.611688432 S177.292712407,587.197256347 176.713184345,587.793532575 S175.014395051,588.790333779 174.639208783,589.504314717 S174.368131148,591.126266723 174.639760668,591.739265963 S176.20299178,593.480125899 176.766935994,594.306057789 S178.338211112,597.485072061 179.333149471,598.613030041 S182.501703706,600.808104165 183.585255333,602.0359615 S185.291926017,605.108321479 186.153070187,606.341217104 S187.738125544,608.12101248 188.386524756,608.909913936 S189.50689456,610.541842676 190.099755472,611.143113393 S191.694638201,612.264817812 192.278458265,612.857054999 S193.477774898,614.419349987 193.990457066,615.089908493 S195.914741053,616.690728535 195.950296744,617.659606519 S195.372887332,621.080101935 194.236582104,621.79671463 S189.89758792,622.877321587 188.031935666,622.653333494 S185.610433323,621.278776763 184.602900451,620.64010574 S182.929156428,619.374726746 182.152156446,618.926165167 S179.242896892,617.173509786 177.863855965,616.749659783 S171.940124572,615.787423984 169.488509291,615.033976922 S166.436681731,613.602267982 165.201113848,612.858059854 S163.289372464,611.929850317 163.025890735,611.141407907 S163.371601067,609.414058277 163.882043471,608.910875246 S167.072193773,607.503301488 167.901063537,606.335568488 S168.951857549,603.340555611 168.758237019,602.041168602 S167.26786014,599.682257966 166.749468338,598.607215282 S165.730545173,595.51267757 165.032219564,594.314140909 S163.545827553,592.393402341 162.747220196,591.7381544 S160.494712897,589.876188599 159.311182539,589.620097328 S154.82874271,589.257499066 152.957345097,589.619829721 S149.971554661,591.109050081 148.661964639,591.681945685 S145.538327123,592.713317883 144.316088783,593.400049236 S142.523495485,594.936402287 141.737047571,595.572805196 S140.131531956,596.720524706 139.508791534,597.29017075 S138.544228963,599.324171459 137.790398528,599.182965923 S135.862505615,597.572930775 135.842140866,596.603343383 S136.342219266,590.50063631 137.560798647,588.25147106 S142.270550413,584.408362222 143.627652845,582.233411251 S145.414610803,577.778966586 145.345497083,575.775377128 S144.132439109,573.189821421 143.286204877,572.334920135 S141.048040238,570.375319735 139.846748885,570.220311252 S135.254157195,570.212916204 133.559143435,571.079789949 S131.163502308,573.972649103 130.117478819,575.196110845 S128.514847021,576.997585031 127.834574059,577.775425081 S126.901838382,579.720122598 126.111684975,579.776429422 S124.33140161,578.773229993 123.885219501,578.056858545 S122.683280362,573.446416515 121.302548487,572.055079785 S118.251021754,570.653482 117.076083695,571.195424459 S115.323293179,574.032768417 114.493809378,575.195623906 S112.783937189,576.861187799 112.381105508,577.777326537 S112.085404972,579.403819702 112.379947816,580.003067206 S113.982698923,581.025967173 114.32252984,581.727154914 S114.553008386,583.365022031 114.321628755,584.009420968 S112.70650799,586.33417548 112.266187305,587.45412812 S111.402761518,591.902106094 110.543310236,593.619548208 S109.16256492,595.341904207 108.318060615,595.343672529 S106.663583447,593.628172116 105.733101355,593.629620383 S102.40443779,594.318348324 101.510330614,595.354268553 S99.8226351697,599.724567559 98.9250535318,601.517482886 S97.413092944,603.959685109 96.7002527632,604.96237765 S95.7551302331,606.826743672 94.9753645365,607.073179385 S93.2368476452,606.735985507 92.7506837018,606.210592171 S90.9867315344,603.147474734 90.165504689,601.875203801 S86.690768515,597.938793462 86.0584329483,595.842742957 S84.968921515,588.538493553 85.1966877041,585.404690513 S86.4593031288,581.725033404 87.1930043889,580.232333684 S88.3087447302,578.48077569 88.9164055506,577.837003106 S90.4959020409,576.698459397 91.0835527404,576.110579767 S92.2208496515,574.531066012 92.8083786653,573.9435138 S94.3878188527,572.806138118 94.9753677998,572.218611043 S96.1128177141,570.639240182 96.7003429993,570.051694351 S98.2796487742,568.914174744 98.8671916401,568.3266511 S100.004776399,566.747406169 100.592298552,566.15986612 S102.171391291,565.022125142 102.759024261,564.434699937 S103.885259933,562.842892068 104.485512054,562.268029108 S106.076981535,560.991983917 106.823738709,560.541912735 S109.805990385,558.874513888 111.134108349,558.260914487 S117.439512479,556.752228443 119.228086124,554.811021093 S120.975576446,550.220308678 120.090300454,548.540416821 S115.886452045,546.151256373 114.105930533,545.091264144 S111.801592153,543.353584896 110.657563472,542.924855406 S108.974856123,542.672868874 108.319437106,542.922751748 S106.680328664,544.658726072 105.731603083,544.802910679 S102.517443031,544.829303766 101.627856367,543.939719098 S100.575614231,541.079764096 100.764675596,539.835994335 S102.288411203,538.140364238 102.644767734,537.249808632 S103.084575664,535.594357852 102.643498303,535.140707599 S101.149416514,534.87777411 100.591649801,535.138166659 S99.5914231976,537.056861569 98.8669677283,536.903775206 S97.0439038131,535.268432484 96.7005932536,534.315938488 S95.7025957851,528.517182327 94.9759370233,526.108350247 S93.3463780958,523.165549917 92.923998324,521.7967431 S92.6078812074,520.084769953 92.9239849527,519.458585813 S94.4158584252,518.309435694 94.9759763371,517.731887474 S96.1213372254,516.161508423 96.6996825771,515.565392262 S98.3764824566,514.551409849 98.7518108966,513.8400329 S99.0357186843,512.258770904 98.7530993619,511.673458661 S97.0634881067,510.689277587 96.8724207777,509.947765248 S97.2215056565,508.221941237 97.7354140388,507.723928263 S100.849695047,506.201005543 101.840175824,505.133665016 S103.894996862,502.011210632 104.425743893,500.514439332 S106.313916968,494.545995846 106.535502965,491.892270362 S106.940280925,480.220956571 106.535960032,475.24238052 S105.218312363,469.176451233 104.483212555,466.621540962 S103.60835284,463.287941754 102.759228416,462.115985584 S101.264282922,461.055664213 100.592081226,461.251026062 S99.4396154786,462.700371369 98.8674221375,463.247060494 S97.2963952908,464.391423853 96.7000993306,464.969531716 S95.6988443302,466.675482048 94.9726947283,467.022991726 S93.1638806994,467.162343089 92.4064999828,467.024297459 S87.042121501,465.241378741 84.6495486006,465.141421228 S72.9051191633,465.058970895 67.990923593,466.004257357 S61.3220612589,468.845445702 58.5122469096,470.169148983 S53.6436442258,472.266590645 51.8375632631,473.614103919 S49.6957505773,476.785028866 48.387782068,477.722991277 S46.5941096562,478.204235897 46.1058896953,477.724366756 S45.1941414381,474.787096958 44.3814954304,473.785230678 S42.8847484632,472.728646288 42.2130311126,472.925076895 S41.0656917746,474.380637286 40.4893280297,474.923418942 S38.9315206036,476.127844503 38.263930797,476.644081135 S36.6463761821,478.484094559 35.6790567644,478.643125584 S32.4910448857,478.443932562 31.3410419963,477.782230621 S28.5435247566,474.628380016 27.0364106661,473.670220082 S22.5408864759,472.134328188 20.8109172753,471.087618934 S19.041491295,469.704559821 19.0887926756,468.861553374 S20.4984010093,467.706251275 21.0324787964,467.138943679 S22.1616545842,465.552379267 22.7532692096,464.96907662 S24.3233911707,463.77851353 24.9796492397,463.2472296 S26.6861486145,461.585318977 27.560877501,461.077002526 S30.6224489049,460.180120927 31.6766330381,459.355524301 S32.7427003881,457.854340477 32.5366097332,457.18491965 S31.0912726928,455.98530631 30.4783945813,455.463422645 S28.7299168807,453.832489161 27.8995407117,453.236319543 S24.6372336857,451.835781365 23.7814460426,450.655339993 S22.747203058,447.668789129 22.920645549,446.368618327 S24.5342426063,444.072980913 24.8122061182,442.928489747 S25.1446597056,439.844497446 24.8111068841,438.584804245 S23.2672239383,436.230684483 22.7509458192,435.143948838 S21.5222480307,431.995232971 21.032946914,430.631995553 S19.2070654944,426.508635243 18.9718957713,424.615171659 S18.6186456325,417.186028814 18.9709804585,414.030120346 S20.6184941254,409.277018847 20.9212650787,407.154419413 S21.1928085424,402.377845859 20.9213842761,400.356661928 S19.1986100516,395.006436531 18.9701411107,392.625208504 S18.5542507302,383.783199333 18.9708049578,380.026659418 S20.2562266295,375.755902173 21.0337981013,374.014882783 S22.1382259406,372.220000149 22.7506432385,371.563422303 S24.3496040693,370.443505833 24.9251663452,369.842913465 S26.2014957542,368.253582767 26.6422651192,367.502561297 S28.3966459523,364.591788923 28.8173326387,363.211099447 S29.8603002094,357.237235986 30.533878219,354.730326224 S32.1390203311,350.55448487 32.7095077131,348.725276649 S33.6907376191,344.122090938 34.4254825379,342.252303332 S35.9157852033,339.828259054 36.6016915684,338.820400897 S37.7193354773,337.14887631 38.317078076,336.534064655 S39.9181630994,335.41734433 40.4938842045,334.817063338 S41.7634687494,333.224028833 42.2090453798,332.476068566 S43.9269770846,329.546431116 44.441019501,328.191266187 S45.7141978905,322.094792505 47.0144438299,319.807644244 S49.9517884555,316.373031557 51.642403719,315.523944651 S57.5765585754,313.604014604 60.2064810476,313.182135582 S71.951220847,312.272017559 76.9299818875,311.467437717 S82.4559437651,310.254106957 84.6361726098,309.234238261 S86.6209007149,307.589313746 87.1952570473,306.665541429 S88.2843898866,303.601799989 88.9100591888,302.360285824 S90.5456631894,300.026030443 91.090114233,298.936985223 S92.1730005013,295.833151821 92.8016020418,294.576177057 S94.4379974656,292.242832688 94.9823595543,291.153908298 S96.0643659697,288.048925126 96.6931361139,286.791677633 S98.3273788791,284.458315327 98.8746136564,283.371212575 S99.8993154605,280.271587466 100.584661405,279.061014258 S102.134953812,277.284317695 102.766876539,276.496043617 S103.939882578,274.875277409 104.476177916,274.206652389 S106.158761235,272.520765638 106.659148203,271.643362573 S107.685299113,268.579151675 108.367685645,267.383091769 S109.915363255,265.605562033 110.551428648,264.821128604 S111.666152511,263.184925136 112.259184594,262.583865307 S113.855603662,261.464439801 114.443717873,260.876150306 S115.56244341,259.279323904 116.150674762,258.691215302 S117.747893079,257.572911409 118.33601588,256.984664528 S119.453919664,255.387076206 120.042156149,254.798912905 S121.644094874,253.685107194 122.228322667,253.092841996 S123.401580093,251.50950022 123.933628755,250.853904092 S125.623610196,249.175310028 126.120638235,248.296688559 S127.191802399,245.215801493 127.825433214,243.974165566 S129.420647616,241.606430244 130.065347407,240.566804675 S131.558706457,237.311621787 132.620276257,236.24213044 S135.671605706,234.545903648 136.893894542,233.687302194 S138.66049194,232.093702103 139.447716494,231.446169009 S141.095983937,230.344065845 141.689193934,229.742919308 S142.907934137,228.157149581 143.391323263,227.449800838 S145.140635523,225.177842348 145.581880208,224.046707716 S146.713531575,219.429669174 147.282751965,217.474089121 S149.009073804,212.766508535 149.47423968,210.674346717 S150.425166067,203.134263466 151.174495097,199.970319357 S152.622144065,195.755833259 153.41788123,194.022834568 S154.883451685,190.641449906 155.966221299,189.534643359 S159.019707082,187.780916427 160.302075096,186.985815114 S162.609558552,185.295681181 163.697438778,184.741088696 S166.819158605,183.731205042 168.035726304,183.043262674 S169.798621994,181.484078496 170.581365604,180.848378964 S172.226383327,179.745137722 172.827235286,179.151873486 S173.934825991,177.544499352 174.523547545,176.955979977 S176.131431224,175.849170432 176.719952538,175.260493079 S177.826248612,173.652135486 178.414923562,173.06357221 S180.027529646,171.961315831 180.612364696,171.368819331 S181.773633007,169.776338511 182.306290798,169.121227321 S184.00641002,167.457416047 184.504785634,166.581564635 S185.51196063,163.487132036 186.197649253,162.282506281 S187.773325374,160.534798128 188.397215353,159.743298785 S189.65105182,158.110123668 190.088415191,157.346477831 S191.961246046,154.516748209 192.19110455,153.119086787 S192.583076984,147.097191502 192.191385349,144.559305692 S190.696837534,141.019547004 190.087589602,139.489792051 S189.093868833,136.284462809 188.398598337,135.036032142 S186.827355397,133.286320059 186.195713075,132.501521958 S185.044300763,130.867821116 184.507275006,130.201170622 S182.800889202,128.544947081 182.303248232,127.669512363 S181.290472438,124.571521051 180.616509647,123.356655637 S178.905825026,121.730906949 178.507122,120.826727384 S178.182245737,119.16591246 178.507093484,118.572917208 S180.03336627,117.412148754 180.665275524,116.887113201 S182.314270312,115.172313918 183.192246581,114.680155817 S186.315042409,113.579040431 187.607074426,112.995820602 S190.475656216,111.275214962 191.815459757,110.787660242 S196.43106809,109.843180602 198.300347665,109.104536785 S200.662551141,107.567194794 201.666187159,106.895155886 S203.335475945,105.651514135 204.110516244,105.214023415 S206.913981903,103.278113124 208.312986492,103.143205144 S214.479236382,103.02858304 216.878366702,103.982801643 S219.827787719,106.939893382 221.078376166,108.220450091 S222.72820728,110.011871121 223.476385925,110.738931367 S225.113433257,112.495295214 225.995086563,112.998379398 S229.113239678,114.055586692 230.376520194,114.676248225 S232.581863807,116.487591639 233.731419234,116.799312 S236.903023564,117.1193021 238.2071322,116.799644055 S241.068798796,115.146712772 242.39686358,114.675271933 S247.033395808,113.740827675 248.910121276,113.000261519 S251.264586289,111.462427238 252.260090344,110.783188592 S253.936768686,109.650393403 254.613164908,109.109039167 S256.248062921,107.384058875 257.123665147,106.89062277 S260.248476966,105.834676795 261.516956453,105.21848258 S263.693470043,103.318572935 264.861177575,103.131941258 S268.169578737,103.268209205 269.346354558,103.967130113 S272.057593092,107.229980443 273.522595989,108.276206052 S278.323689436,110.257430648 280.05607066,111.615428468 S282.296348989,114.777286106 283.397156056,116.016783505 S285.124169257,118.154032303 286.187637446,118.519509399 S293.714892444,120.50321282 297.025584401,120.700401192 S315.087715882,121.150566618 322.809931619,120.700772599 S331.050717608,119.494897661 334.474404105,118.519128913 S338.220256257,117.276699567 339.230363906,116.020862607 S340.250048199,112.914280295 340.065796202,111.567516519 S338.309947594,108.770096298 338.052010542,107.407856204 S337.53953874,102.807953383 338.052579685,100.935138447 S339.447962985,99.22448461 340.280927497,99.271373129 S342.466790941,101.019390488 343.604010728,101.24763481 S348.212142914,101.649197505 350.12756928,101.247631455 S352.347236332,99.5870906251 353.448778893,99.1836950325 S355.148101488,98.8629041617 355.764515936,99.1833267976 S356.718715486,100.883338956 357.424273881,101.25022444 S359.087999056,101.490282743 359.740088324,101.250596932 S361.907126995,99.42075648 363.054612064,99.1807038356 S367.696826265,98.8125042112 369.637019626,99.1801695284 S372.406541937,101.020843735 373.776696528,101.212531521 S377.155826064,101.200499255 378.250452661,100.385208665 S379.942275751,97.3109299694 380.732280628,96.0319317805 S382.488575796,93.834654509 382.970929934,92.7428737064 S383.421563744,90.1672552642 383.788982399,89.1132634309 S384.704715299,87.3843940529 385.097172256,86.6434500337" fill="url(#diagonal)" stroke="#FFFFFF" stroke-width="4" /></svg>