<?xml version="1.0" encoding="utf-8" ?>
<svg baseProfile="full" height="1375.0" version="1.1" width="1050.0" xmlns="http://www.w3.org/2000/svg" xmlns:ev="http://www.w3.org/2001/xml-events" xmlns:xlink="http://www.w3.org/1999/xlink"><defs /><g id="xaxis"><text alignment-baseline="middle" font-size="14" text-anchor="middle" x="193.333333333" y="79.3548387097">Jan</text><text alignment-baseline="middle" font-size="14" text-anchor="middle" x="260.0" y="87.4644509715">Feb</text><text alignment-baseline="middle" font-size="14" text-anchor="middle" x="326.666666667" y="92.99931864">Mar</text><text alignment-baseline="middle" font-size="14" text-anchor="middle" x="393.333333333" y="94.2021603379">Apr</text><text alignment-baseline="middle" font-size="14" text-anchor="middle" x="460.0" y="90.691082325">May</text><text alignment-baseline="middle" font-size="14" text-anchor="middle" x="526.666666667" y="83.5808270623">Jun</text><text alignment-baseline="middle" font-size="14" text-anchor="middle" x="593.333333333" y="75.1288503571">Jul</text><text alignment-baseline="middle" font-size="14" text-anchor="middle" x="660.0" y="68.0185950944">Aug</text><text alignment-baseline="middle" font-size="14" text-anchor="middle" x="726.666666667" y="64.5075170815">Sep</text><text alignment-baseline="middle" font-size="14" text-anchor="middle" x="793.333333333" y="65.7103587794">Oct</text><text alignment-baseline="middle" font-size="14" text-anchor="middle" x="860.0" y="71.2452264478">Nov</text><text alignment-baseline="middle" font-size="14" text-anchor="middle" x="926.666666667" y="79.3548387097">Dec</text></g><g id="yaxis"><text alignment-baseline="middle" font-size="14" text-anchor="middle" x="110.0" y="119.35483871">1986</text><text alignment-baseline="middle" font-size="14" text-anchor="middle" x="121.830675653" y="158.064516129">1987</text><text alignment-baseline="middle" font-size="14" text-anchor="middle" x="131.743783617" y="196.774193548">1988</text><text alignment-baseline="middle" font-size="14" text-anchor="middle" x="138.132563964" y="235.483870968">1989</text><text alignment-baseline="middle" font-size="14" text-anchor="middle" x="139.961495215" y="274.193548387">1990</text><text alignment-baseline="middle" font-size="14" text-anchor="middle" x="136.934136187" y="312.903225806">1991</text><text alignment-baseline="middle" font-size="14" text-anchor="middle" x="129.541174482" y="351.612903226">1992</text><text alignment-baseline="middle" font-size="14" text-anchor="middle" x="118.980893689" y="390.322580645">1993</text><text alignment-baseline="middle" font-size="14" text-anchor="middle" x="106.96495034" y="429.032258065">1994</text><text alignment-baseline="middle" font-size="14" text-anchor="middle" x="95.4409411241" y="467.741935484">1995</text><text alignment-baseline="middle" font-size="14" text-anchor="middle" x="86.2767278919" y="506.451612903">1996</text><text alignment-baseline="middle" font-size="14" text-anchor="middle" x="80.957686434" y="545.161290323">1997</text><text alignment-baseline="middle" font-size="14" text-anchor="middle" x="80.3459502702" y="583.870967742">1998</text><text alignment-baseline="middle" font-size="14" text-anchor="middle" x="84.5406722752" y="622.580645161">1999</text><text alignment-baseline="middle" font-size="14" text-anchor="middle" x="92.8619535472" y="661.290322581">2000</text><text alignment-baseline="middle" font-size="14" text-anchor="middle" x="103.961044397" y="700.0">2001</text><text alignment-baseline="middle" font-size="14" text-anchor="middle" x="116.038955603" y="738.709677419">2002</text><text alignment-baseline="middle" font-size="14" text-anchor="middle" x="127.138046453" y="777.419354839">2003</text><text alignment-baseline="middle" font-size="14" text-anchor="middle" x="135.459327725" y="816.129032258">2004</text><text alignment-baseline="middle" font-size="14" text-anchor="middle" x="139.65404973" y="854.838709677">2005</text><text alignment-baseline="middle" font-size="14" text-anchor="middle" x="139.042313566" y="893.548387097">2006</text><text alignment-baseline="middle" font-size="14" text-anchor="middle" x="133.723272108" y="932.258064516">2007</text><text alignment-baseline="middle" font-size="14" text-anchor="middle" x="124.559058876" y="970.967741935">2008</text><text alignment-baseline="middle" font-size="14" text-anchor="middle" x="113.03504966" y="1009.67741935">2009</text><text alignment-baseline="middle" font-size="14" text-anchor="middle" x="101.019106311" y="1048.38709677">2010</text><text alignment-baseline="middle" font-size="14" text-anchor="middle" x="90.4588255183" y="1087.09677419">2011</text><text alignment-baseline="middle" font-size="14" text-anchor="middle" x="83.0658638129" y="1125.80645161">2012</text><text alignment-baseline="middle" font-size="14" text-anchor="middle" x="80.0385047849" y="1164.51612903">2013</text><text alignment-baseline="middle" font-size="14" text-anchor="middle" x="81.8674360356" y="1203.22580645">2014</text><text alignment-baseline="middle" font-size="14" text-anchor="middle" x="88.2562163831" y="1241.93548387">2015</text><text alignment-baseline="middle" font-size="14" text-anchor="middle" x="98.1693243466" y="1280.64516129">2016</text></g><g id="xgrid"><polyline fill="none" points="160.0,100.0 171.830675653,138.709677419 181.743783617,177.419354839 188.132563964,216.129032258 189.961495215,254.838709677 186.934136187,293.548387097 179.541174482,332.258064516 168.980893689,370.967741935 156.96495034,409.677419355 145.440941124,448.387096774 136.276727892,487.096774194 130.957686434,525.806451613 130.34595027,564.516129032 134.540672275,603.225806452 142.861953547,641.935483871 153.961044397,680.64516129 166.038955603,719.35483871 177.138046453,758.064516129 185.459327725,796.774193548 189.65404973,835.483870968 189.042313566,874.193548387 183.723272108,912.903225806 174.559058876,951.612903226 163.03504966,990.322580645 151.019106311,1029.03225806 140.458825518,1067.74193548 133.065863813,1106.4516129 130.038504785,1145.16129032 131.867436036,1183.87096774 138.256216383,1222.58064516 148.169324347,1261.29032258 160.0,1300.0" stroke="#000000" stroke-width="1" /><polyline fill="none" points="226.666666667,108.109612262 238.49734232,146.819289681 248.410450284,185.528967101 254.799230631,224.23864452 256.628161882,262.948321939 253.600802854,301.657999359 246.207841148,340.367676778 235.647560356,379.077354197 223.631617007,417.787031617 212.107607791,456.496709036 202.943394559,495.206386455 197.624353101,533.916063875 197.012616937,572.625741294 201.207338942,611.335418713 209.528620214,650.045096133 220.627711064,688.754773552 232.705622269,727.464450972 243.80471312,766.174128391 252.125994392,804.88380581 256.320716397,843.59348323 255.708980233,882.303160649 250.389938775,921.012838068 241.225725543,959.722515488 229.701716326,998.432192907 217.685772977,1037.14187033 207.125492185,1075.85154775 199.73253048,1114.56122517 196.705171452,1153.27090258 198.534102702,1191.98058 204.92288305,1230.69025742 214.835991013,1269.39993484 226.666666667,1308.10961226" stroke="#000000" stroke-width="1" /><polyline fill="none" points="293.333333333,113.64447993 305.164008987,152.35415735 315.07711695,191.063834769 321.465897298,229.773512188 323.294828548,268.483189608 320.26746952,307.192867027 312.874507815,345.902544446 302.314227023,384.612221866 290.298283674,423.321899285 278.774274457,462.031576705 269.610061225,500.741254124 264.291019767,539.450931543 263.679283603,578.160608963 267.874005608,616.870286382 276.19528688,655.579963801 287.294377731,694.289641221 299.372288936,732.99931864 310.471379786,771.708996059 318.792661058,810.418673479 322.987383063,849.128350898 322.375646899,887.838028317 317.056605441,926.547705737 307.892392209,965.257383156 296.368382993,1003.96706058 284.352439644,1042.67673799 273.792158852,1081.38641541 266.399197146,1120.09609283 263.371838118,1158.80577025 265.200769369,1197.51544767 271.589549716,1236.22512509 281.50265768,1274.93480251 293.333333333,1313.64447993" stroke="#000000" stroke-width="1" /><polyline fill="none" points="360.0,114.847321628 371.830675653,153.556999048 381.743783617,192.266676467 388.132563964,230.976353886 389.961495215,269.686031306 386.934136187,308.395708725 379.541174482,347.105386144 368.980893689,385.815063564 356.96495034,424.524740983 345.440941124,463.234418402 336.276727892,501.944095822 330.957686434,540.653773241 330.34595027,579.36345066 334.540672275,618.07312808 342.861953547,656.782805499 353.961044397,695.492482919 366.038955603,734.202160338 377.138046453,772.911837757 385.459327725,811.621515177 389.65404973,850.331192596 389.042313566,889.040870015 383.723272108,927.750547435 374.559058876,966.460224854 363.03504966,1005.16990227 351.019106311,1043.87957969 340.458825518,1082.58925711 333.065863813,1121.29893453 330.038504785,1160.00861195 331.867436036,1198.71828937 338.256216383,1237.42796679 348.169324347,1276.13764421 360.0,1314.84732163" stroke="#000000" stroke-width="1" /><polyline fill="none" points="426.666666667,111.336243615 438.49734232,150.045921035 448.410450284,188.755598454 454.799230631,227.465275873 456.628161882,266.174953293 453.600802854,304.884630712 446.207841148,343.594308131 435.647560356,382.303985551 423.631617007,421.01366297 412.107607791,459.72334039 402.943394559,498.433017809 397.624353101,537.142695228 397.012616937,575.852372648 401.207338942,614.562050067 409.528620214,653.271727486 420.627711064,691.981404906 432.705622269,730.691082325 443.80471312,769.400759744 452.125994392,808.110437164 456.320716397,846.820114583 455.708980233,885.529792002 450.389938775,924.239469422 441.225725543,962.949146841 429.701716326,1001.65882426 417.685772977,1040.36850168 407.125492185,1079.0781791 399.73253048,1117.78785652 396.705171452,1156.49753394 398.534102702,1195.20721136 404.92288305,1233.91688878 414.835991013,1272.6265662 426.666666667,1311.33624362" stroke="#000000" stroke-width="1" /><polyline fill="none" points="493.333333333,104.225988353 505.164008987,142.935665772 515.07711695,181.645343191 521.465897298,220.355020611 523.294828548,259.06469803 520.26746952,297.774375449 512.874507815,336.484052869 502.314227023,375.193730288 490.298283674,413.903407707 478.774274457,452.613085127 469.610061225,491.322762546 464.291019767,530.032439966 463.679283603,568.742117385 467.874005608,607.451794804 476.19528688,646.161472224 487.294377731,684.871149643 499.372288936,723.580827062 510.471379786,762.290504482 518.792661058,801.000181901 522.987383063,839.70985932 522.375646899,878.41953674 517.056605441,917.129214159 507.892392209,955.838891578 496.368382993,994.548568998 484.352439644,1033.25824642 473.792158852,1071.96792384 466.399197146,1110.67760126 463.371838118,1149.38727868 465.200769369,1188.09695609 471.589549716,1226.80663351 481.50265768,1265.51631093 493.333333333,1304.22598835" stroke="#000000" stroke-width="1" /><polyline fill="none" points="560.0,95.7740116474 571.830675653,134.483689067 581.743783617,173.193366486 588.132563964,211.903043905 589.961495215,250.612721325 586.934136187,289.322398744 579.541174482,328.032076164 568.980893689,366.741753583 556.96495034,405.451431002 545.440941124,444.161108422 536.276727892,482.870785841 530.957686434,521.58046326 530.34595027,560.29014068 534.540672275,598.999818099 542.861953547,637.709495518 553.961044397,676.419172938 566.038955603,715.128850357 577.138046453,753.838527776 585.459327725,792.548205196 589.65404973,831.257882615 589.042313566,869.967560034 583.723272108,908.677237454 574.559058876,947.386914873 563.03504966,986.096592293 551.019106311,1024.80626971 540.458825518,1063.51594713 533.065863813,1102.22562455 530.038504785,1140.93530197 531.867436036,1179.64497939 538.256216383,1218.35465681 548.169324347,1257.06433423 560.0,1295.77401165" stroke="#000000" stroke-width="1" /><polyline fill="none" points="626.666666667,88.6637563847 638.49734232,127.373433804 648.410450284,166.083111223 654.799230631,204.792788643 656.628161882,243.502466062 653.600802854,282.212143481 646.207841148,320.921820901 635.647560356,359.63149832 623.631617007,398.34117574 612.107607791,437.050853159 602.943394559,475.760530578 597.624353101,514.470207998 597.012616937,553.179885417 601.207338942,591.889562836 609.528620214,630.599240256 620.627711064,669.308917675 632.705622269,708.018595094 643.80471312,746.728272514 652.125994392,785.437949933 656.320716397,824.147627352 655.708980233,862.857304772 650.389938775,901.566982191 641.225725543,940.27665961 629.701716326,978.98633703 617.685772977,1017.69601445 607.125492185,1056.40569187 599.73253048,1095.11536929 596.705171452,1133.82504671 598.534102702,1172.53472413 604.92288305,1211.24440155 614.835991013,1249.95407897 626.666666667,1288.66375638" stroke="#000000" stroke-width="1" /><polyline fill="none" points="693.333333333,85.1526783718 705.164008987,123.862355791 715.07711695,162.57203321 721.465897298,201.28171063 723.294828548,239.991388049 720.26746952,278.701065469 712.874507815,317.410742888 702.314227023,356.120420307 690.298283674,394.830097727 678.774274457,433.539775146 669.610061225,472.249452565 664.291019767,510.959129985 663.679283603,549.668807404 667.874005608,588.378484823 676.19528688,627.088162243 687.294377731,665.797839662 699.372288936,704.507517081 710.471379786,743.217194501 718.792661058,781.92687192 722.987383063,820.63654934 722.375646899,859.346226759 717.056605441,898.055904178 707.892392209,936.765581598 696.368382993,975.475259017 684.352439644,1014.18493644 673.792158852,1052.89461386 666.399197146,1091.60429128 663.371838118,1130.31396869 665.200769369,1169.02364611 671.589549716,1207.73332353 681.50265768,1246.44300095 693.333333333,1285.15267837" stroke="#000000" stroke-width="1" /><polyline fill="none" points="760.0,86.3555200697 771.830675653,125.065197489 781.743783617,163.774874908 788.132563964,202.484552328 789.961495215,241.194229747 786.934136187,279.903907166 779.541174482,318.613584586 768.980893689,357.323262005 756.96495034,396.032939425 745.440941124,434.742616844 736.276727892,473.452294263 730.957686434,512.161971683 730.34595027,550.871649102 734.540672275,589.581326521 742.861953547,628.291003941 753.961044397,667.00068136 766.038955603,705.710358779 777.138046453,744.420036199 785.459327725,783.129713618 789.65404973,821.839391037 789.042313566,860.549068457 783.723272108,899.258745876 774.559058876,937.968423295 763.03504966,976.678100715 751.019106311,1015.38777813 740.458825518,1054.09745555 733.065863813,1092.80713297 730.038504785,1131.51681039 731.867436036,1170.22648781 738.256216383,1208.93616523 748.169324347,1247.64584265 760.0,1286.35552007" stroke="#000000" stroke-width="1" /><polyline fill="none" points="826.666666667,91.8903877382 838.49734232,130.600065158 848.410450284,169.309742577 854.799230631,208.019419996 856.628161882,246.729097416 853.600802854,285.438774835 846.207841148,324.148452254 835.647560356,362.858129674 823.631617007,401.567807093 812.107607791,440.277484512 802.943394559,478.987161932 797.624353101,517.696839351 797.012616937,556.40651677 801.207338942,595.11619419 809.528620214,633.825871609 820.627711064,672.535549028 832.705622269,711.245226448 843.80471312,749.954903867 852.125994392,788.664581287 856.320716397,827.374258706 855.708980233,866.083936125 850.389938775,904.793613545 841.225725543,943.503290964 829.701716326,982.212968383 817.685772977,1020.9226458 807.125492185,1059.63232322 799.73253048,1098.34200064 796.705171452,1137.05167806 798.534102702,1175.76135548 804.92288305,1214.4710329 814.835991013,1253.18071032 826.666666667,1291.89038774" stroke="#000000" stroke-width="1" /><polyline fill="none" points="893.333333333,100.0 905.164008987,138.709677419 915.07711695,177.419354839 921.465897298,216.129032258 923.294828548,254.838709677 920.26746952,293.548387097 912.874507815,332.258064516 902.314227023,370.967741935 890.298283674,409.677419355 878.774274457,448.387096774 869.610061225,487.096774194 864.291019767,525.806451613 863.679283603,564.516129032 867.874005608,603.225806452 876.19528688,641.935483871 887.294377731,680.64516129 899.372288936,719.35483871 910.471379786,758.064516129 918.792661058,796.774193548 922.987383063,835.483870968 922.375646899,874.193548387 917.056605441,912.903225806 907.892392209,951.612903226 896.368382993,990.322580645 884.352439644,1029.03225806 873.792158852,1067.74193548 866.399197146,1106.4516129 863.371838118,1145.16129032 865.200769369,1183.87096774 871.589549716,1222.58064516 881.50265768,1261.29032258 893.333333333,1300.0" stroke="#000000" stroke-width="1" /><polyline fill="none" points="960.0,108.109612262 971.830675653,146.819289681 981.743783617,185.528967101 988.132563964,224.23864452 989.961495215,262.948321939 986.934136187,301.657999359 979.541174482,340.367676778 968.980893689,379.077354197 956.96495034,417.787031617 945.440941124,456.496709036 936.276727892,495.206386455 930.957686434,533.916063875 930.34595027,572.625741294 934.540672275,611.335418713 942.861953547,650.045096133 953.961044397,688.754773552 966.038955603,727.464450972 977.138046453,766.174128391 985.459327725,804.88380581 989.65404973,843.59348323 989.042313566,882.303160649 983.723272108,921.012838068 974.559058876,959.722515488 963.03504966,998.432192907 951.019106311,1037.14187033 940.458825518,1075.85154775 933.065863813,1114.56122517 930.038504785,1153.27090258 931.867436036,1191.98058 938.256216383,1230.69025742 948.169324347,1269.39993484 960.0,1308.10961226" stroke="#000000" stroke-width="1" /></g><g id="ygrid"><polyline fill="none" points="160.0,100.0 226.666666667,108.109612262 293.333333333,113.64447993 360.0,114.847321628 426.666666667,111.336243615 493.333333333,104.225988353 560.0,95.7740116474 626.666666667,88.6637563847 693.333333333,85.1526783718 760.0,86.3555200697 826.666666667,91.8903877382 893.333333333,100.0 960.0,108.109612262" stroke="#000000" stroke-width="1" /><polyline fill="none" points="171.830675653,138.709677419 238.49734232,146.819289681 305.164008987,152.35415735 371.830675653,153.556999048 438.49734232,150.045921035 505.164008987,142.935665772 571.830675653,134.483689067 638.49734232,127.373433804 705.164008987,123.862355791 771.830675653,125.065197489 838.49734232,130.600065158 905.164008987,138.709677419 971.830675653,146.819289681" stroke="#000000" stroke-width="1" /><polyline fill="none" points="181.743783617,177.419354839 248.410450284,185.528967101 315.07711695,191.063834769 381.743783617,192.266676467 448.410450284,188.755598454 515.07711695,181.645343191 581.743783617,173.193366486 648.410450284,166.083111223 715.07711695,162.57203321 781.743783617,163.774874908 848.410450284,169.309742577 915.07711695,177.419354839 981.743783617,185.528967101" stroke="#000000" stroke-width="1" /><polyline fill="none" points="188.132563964,216.129032258 254.799230631,224.23864452 321.465897298,229.773512188 388.132563964,230.976353886 454.799230631,227.465275873 521.465897298,220.355020611 588.132563964,211.903043905 654.799230631,204.792788643 721.465897298,201.28171063 788.132563964,202.484552328 854.799230631,208.019419996 921.465897298,216.129032258 988.132563964,224.23864452" stroke="#000000" stroke-width="1" /><polyline fill="none" points="189.961495215,254.838709677 256.628161882,262.948321939 323.294828548,268.483189608 389.961495215,269.686031306 456.628161882,266.174953293 523.294828548,259.06469803 589.961495215,250.612721325 656.628161882,243.502466062 723.294828548,239.991388049 789.961495215,241.194229747 856.628161882,246.729097416 923.294828548,254.838709677 989.961495215,262.948321939" stroke="#000000" stroke-width="1" /><polyline fill="none" points="186.934136187,293.548387097 253.600802854,301.657999359 320.26746952,307.192867027 386.934136187,308.395708725 453.600802854,304.884630712 520.26746952,297.774375449 586.934136187,289.322398744 653.600802854,282.212143481 720.26746952,278.701065469 786.934136187,279.903907166 853.600802854,285.438774835 920.26746952,293.548387097 986.934136187,301.657999359" stroke="#000000" stroke-width="1" /><polyline fill="none" points="179.541174482,332.258064516 246.207841148,340.367676778 312.874507815,345.902544446 379.541174482,347.105386144 446.207841148,343.594308131 512.874507815,336.484052869 579.541174482,328.032076164 646.207841148,320.921820901 712.874507815,317.410742888 779.541174482,318.613584586 846.207841148,324.148452254 912.874507815,332.258064516 979.541174482,340.367676778" stroke="#000000" stroke-width="1" /><polyline fill="none" points="168.980893689,370.967741935 235.647560356,379.077354197 302.314227023,384.612221866 368.980893689,385.815063564 435.647560356,382.303985551 502.314227023,375.193730288 568.980893689,366.741753583 635.647560356,359.63149832 702.314227023,356.120420307 768.980893689,357.323262005 835.647560356,362.858129674 902.314227023,370.967741935 968.980893689,379.077354197" stroke="#000000" stroke-width="1" /><polyline fill="none" points="156.96495034,409.677419355 223.631617007,417.787031617 290.298283674,423.321899285 356.96495034,424.524740983 423.631617007,421.01366297 490.298283674,413.903407707 556.96495034,405.451431002 623.631617007,398.34117574 690.298283674,394.830097727 756.96495034,396.032939425 823.631617007,401.567807093 890.298283674,409.677419355 956.96495034,417.787031617" stroke="#000000" stroke-width="1" /><polyline fill="none" points="145.440941124,448.387096774 212.107607791,456.496709036 278.774274457,462.031576705 345.440941124,463.234418402 412.107607791,459.72334039 478.774274457,452.613085127 545.440941124,444.161108422 612.107607791,437.050853159 678.774274457,433.539775146 745.440941124,434.742616844 812.107607791,440.277484512 878.774274457,448.387096774 945.440941124,456.496709036" stroke="#000000" stroke-width="1" /><polyline fill="none" points="136.276727892,487.096774194 202.943394559,495.206386455 269.610061225,500.741254124 336.276727892,501.944095822 402.943394559,498.433017809 469.610061225,491.322762546 536.276727892,482.870785841 602.943394559,475.760530578 669.610061225,472.249452565 736.276727892,473.452294263 802.943394559,478.987161932 869.610061225,487.096774194 936.276727892,495.206386455" stroke="#000000" stroke-width="1" /><polyline fill="none" points="130.957686434,525.806451613 197.624353101,533.916063875 264.291019767,539.450931543 330.957686434,540.653773241 397.624353101,537.142695228 464.291019767,530.032439966 530.957686434,521.58046326 597.624353101,514.470207998 664.291019767,510.959129985 730.957686434,512.161971683 797.624353101,517.696839351 864.291019767,525.806451613 930.957686434,533.916063875" stroke="#000000" stroke-width="1" /><polyline fill="none" points="130.34595027,564.516129032 197.012616937,572.625741294 263.679283603,578.160608963 330.34595027,579.36345066 397.012616937,575.852372648 463.679283603,568.742117385 530.34595027,560.29014068 597.012616937,553.179885417 663.679283603,549.668807404 730.34595027,550.871649102 797.012616937,556.40651677 863.679283603,564.516129032 930.34595027,572.625741294" stroke="#000000" stroke-width="1" /><polyline fill="none" points="134.540672275,603.225806452 201.207338942,611.335418713 267.874005608,616.870286382 334.540672275,618.07312808 401.207338942,614.562050067 467.874005608,607.451794804 534.540672275,598.999818099 601.207338942,591.889562836 667.874005608,588.378484823 734.540672275,589.581326521 801.207338942,595.11619419 867.874005608,603.225806452 934.540672275,611.335418713" stroke="#000000" stroke-width="1" /><polyline fill="none" points="142.861953547,641.935483871 209.528620214,650.045096133 276.19528688,655.579963801 342.861953547,656.782805499 409.528620214,653.271727486 476.19528688,646.161472224 542.861953547,637.709495518 609.528620214,630.599240256 676.19528688,627.088162243 742.861953547,628.291003941 809.528620214,633.825871609 876.19528688,641.935483871 942.861953547,650.045096133" stroke="#000000" stroke-width="1" /><polyline fill="none" points="153.961044397,680.64516129 220.627711064,688.754773552 287.294377731,694.289641221 353.961044397,695.492482919 420.627711064,691.981404906 487.294377731,684.871149643 553.961044397,676.419172938 620.627711064,669.308917675 687.294377731,665.797839662 753.961044397,667.00068136 820.627711064,672.535549028 887.294377731,680.64516129 953.961044397,688.754773552" stroke="#000000" stroke-width="1" /><polyline fill="none" points="166.038955603,719.35483871 232.705622269,727.464450972 299.372288936,732.99931864 366.038955603,734.202160338 432.705622269,730.691082325 499.372288936,723.580827062 566.038955603,715.128850357 632.705622269,708.018595094 699.372288936,704.507517081 766.038955603,705.710358779 832.705622269,711.245226448 899.372288936,719.35483871 966.038955603,727.464450972" stroke="#000000" stroke-width="1" /><polyline fill="none" points="177.138046453,758.064516129 243.80471312,766.174128391 310.471379786,771.708996059 377.138046453,772.911837757 443.80471312,769.400759744 510.471379786,762.290504482 577.138046453,753.838527776 643.80471312,746.728272514 710.471379786,743.217194501 777.138046453,744.420036199 843.80471312,749.954903867 910.471379786,758.064516129 977.138046453,766.174128391" stroke="#000000" stroke-width="1" /><polyline fill="none" points="185.459327725,796.774193548 252.125994392,804.88380581 318.792661058,810.418673479 385.459327725,811.621515177 452.125994392,808.110437164 518.792661058,801.000181901 585.459327725,792.548205196 652.125994392,785.437949933 718.792661058,781.92687192 785.459327725,783.129713618 852.125994392,788.664581287 918.792661058,796.774193548 985.459327725,804.88380581" stroke="#000000" stroke-width="1" /><polyline fill="none" points="189.65404973,835.483870968 256.320716397,843.59348323 322.987383063,849.128350898 389.65404973,850.331192596 456.320716397,846.820114583 522.987383063,839.70985932 589.65404973,831.257882615 656.320716397,824.147627352 722.987383063,820.63654934 789.65404973,821.839391037 856.320716397,827.374258706 922.987383063,835.483870968 989.65404973,843.59348323" stroke="#000000" stroke-width="1" /><polyline fill="none" points="189.042313566,874.193548387 255.708980233,882.303160649 322.375646899,887.838028317 389.042313566,889.040870015 455.708980233,885.529792002 522.375646899,878.41953674 589.042313566,869.967560034 655.708980233,862.857304772 722.375646899,859.346226759 789.042313566,860.549068457 855.708980233,866.083936125 922.375646899,874.193548387 989.042313566,882.303160649" stroke="#000000" stroke-width="1" /><polyline fill="none" points="183.723272108,912.903225806 250.389938775,921.012838068 317.056605441,926.547705737 383.723272108,927.750547435 450.389938775,924.239469422 517.056605441,917.129214159 583.723272108,908.677237454 650.389938775,901.566982191 717.056605441,898.055904178 783.723272108,899.258745876 850.389938775,904.793613545 917.056605441,912.903225806 983.723272108,921.012838068" stroke="#000000" stroke-width="1" /><polyline fill="none" points="174.559058876,951.612903226 241.225725543,959.722515488 307.892392209,965.257383156 374.559058876,966.460224854 441.225725543,962.949146841 507.892392209,955.838891578 574.559058876,947.386914873 641.225725543,940.27665961 707.892392209,936.765581598 774.559058876,937.968423295 841.225725543,943.503290964 907.892392209,951.612903226 974.559058876,959.722515488" stroke="#000000" stroke-width="1" /><polyline fill="none" points="163.03504966,990.322580645 229.701716326,998.432192907 296.368382993,1003.96706058 363.03504966,1005.16990227 429.701716326,1001.65882426 496.368382993,994.548568998 563.03504966,986.096592293 629.701716326,978.98633703 696.368382993,975.475259017 763.03504966,976.678100715 829.701716326,982.212968383 896.368382993,990.322580645 963.03504966,998.432192907" stroke="#000000" stroke-width="1" /><polyline fill="none" points="151.019106311,1029.03225806 217.685772977,1037.14187033 284.352439644,1042.67673799 351.019106311,1043.87957969 417.685772977,1040.36850168 484.352439644,1033.25824642 551.019106311,1024.80626971 617.685772977,1017.69601445 684.352439644,1014.18493644 751.019106311,1015.38777813 817.685772977,1020.9226458 884.352439644,1029.03225806 951.019106311,1037.14187033" stroke="#000000" stroke-width="1" /><polyline fill="none" points="140.458825518,1067.74193548 207.125492185,1075.85154775 273.792158852,1081.38641541 340.458825518,1082.58925711 407.125492185,1079.0781791 473.792158852,1071.96792384 540.458825518,1063.51594713 607.125492185,1056.40569187 673.792158852,1052.89461386 740.458825518,1054.09745555 807.125492185,1059.63232322 873.792158852,1067.74193548 940.458825518,1075.85154775" stroke="#000000" stroke-width="1" /><polyline fill="none" points="133.065863813,1106.4516129 199.73253048,1114.56122517 266.399197146,1120.09609283 333.065863813,1121.29893453 399.73253048,1117.78785652 466.399197146,1110.67760126 533.065863813,1102.22562455 599.73253048,1095.11536929 666.399197146,1091.60429128 733.065863813,1092.80713297 799.73253048,1098.34200064 866.399197146,1106.4516129 933.065863813,1114.56122517" stroke="#000000" stroke-width="1" /><polyline fill="none" points="130.038504785,1145.16129032 196.705171452,1153.27090258 263.371838118,1158.80577025 330.038504785,1160.00861195 396.705171452,1156.49753394 463.371838118,1149.38727868 530.038504785,1140.93530197 596.705171452,1133.82504671 663.371838118,1130.31396869 730.038504785,1131.51681039 796.705171452,1137.05167806 863.371838118,1145.16129032 930.038504785,1153.27090258" stroke="#000000" stroke-width="1" /><polyline fill="none" points="131.867436036,1183.87096774 198.534102702,1191.98058 265.200769369,1197.51544767 331.867436036,1198.71828937 398.534102702,1195.20721136 465.200769369,1188.09695609 531.867436036,1179.64497939 598.534102702,1172.53472413 665.200769369,1169.02364611 731.867436036,1170.22648781 798.534102702,1175.76135548 865.200769369,1183.87096774 931.867436036,1191.98058" stroke="#000000" stroke-width="1" /><polyline fill="none" points="138.256216383,1222.58064516 204.92288305,1230.69025742 271.589549716,1236.22512509 338.256216383,1237.42796679 404.92288305,1233.91688878 471.589549716,1226.80663351 538.256216383,1218.35465681 604.92288305,1211.24440155 671.589549716,1207.73332353 738.256216383,1208.93616523 804.92288305,1214.4710329 871.589549716,1222.58064516 938.256216383,1230.69025742" stroke="#000000" stroke-width="1" /><polyline fill="none" points="148.169324347,1261.29032258 214.835991013,1269.39993484 281.50265768,1274.93480251 348.169324347,1276.13764421 414.835991013,1272.6265662 481.50265768,1265.51631093 548.169324347,1257.06433423 614.835991013,1249.95407897 681.50265768,1246.44300095 748.169324347,1247.64584265 814.835991013,1253.18071032 881.50265768,1261.29032258 948.169324347,1269.39993484" stroke="#000000" stroke-width="1" /><polyline fill="none" points="160.0,1300.0 226.666666667,1308.10961226 293.333333333,1313.64447993 360.0,1314.84732163 426.666666667,1311.33624362 493.333333333,1304.22598835 560.0,1295.77401165 626.666666667,1288.66375638 693.333333333,1285.15267837 760.0,1286.35552007 826.666666667,1291.89038774 893.333333333,1300.0 960.0,1308.10961226" stroke="#000000" stroke-width="1" /></g><g id="labels"><text alignment-baseline="middle" font-size="14" text-anchor="middle" x="355.708980233" y="289.040870015">7</text><text alignment-baseline="middle" font-size="14" text-anchor="middle" x="240.458825518" y="479.078179099">7</text><text alignment-baseline="middle" font-size="14" text-anchor="middle" x="896.705171452" y="549.387278675">6</text><text alignment-baseline="middle" font-size="14" text-anchor="middle" x="165.200769369" y="588.096956095">9</text><text alignment-baseline="middle" font-size="14" text-anchor="middle" x="231.867436036" y="595.207211357">3</text><text alignment-baseline="middle" font-size="14" text-anchor="middle" x="365.200769369" y="597.515447672">5</text><text alignment-baseline="middle" font-size="14" text-anchor="middle" x="431.867436036" y="591.980580004">7</text><text alignment-baseline="middle" font-size="14" text-anchor="middle" x="498.534102702" y="583.870967742">9</text><text alignment-baseline="middle" font-size="14" text-anchor="middle" x="565.200769369" y="575.76135548">3</text><text alignment-baseline="middle" font-size="14" text-anchor="middle" x="631.867436036" y="570.226487812">5</text><text alignment-baseline="middle" font-size="14" text-anchor="middle" x="898.534102702" y="588.096956095">9</text><text alignment-baseline="middle" font-size="14" text-anchor="middle" x="238.256216383" y="633.916888777">8</text><text alignment-baseline="middle" font-size="14" text-anchor="middle" x="860.0" y="695.774011647">9</text><text alignment-baseline="middle" font-size="14" text-anchor="middle" x="205.164008987" y="742.935665772">4</text><text alignment-baseline="middle" font-size="14" text-anchor="middle" x="271.830675653" y="750.045921035">4</text><text alignment-baseline="middle" font-size="14" text-anchor="middle" x="338.49734232" y="753.556999048">4</text><text alignment-baseline="middle" font-size="14" text-anchor="middle" x="215.07711695" y="781.645343191">7</text><text alignment-baseline="middle" font-size="14" text-anchor="middle" x="748.410450284" y="762.57203321">8</text><text alignment-baseline="middle" font-size="14" text-anchor="middle" x="815.07711695" y="766.083111223">3</text><text alignment-baseline="middle" font-size="14" text-anchor="middle" x="948.410450284" y="781.645343191">4</text><text alignment-baseline="middle" font-size="14" text-anchor="middle" x="288.132563964" y="827.465275873">5</text><text alignment-baseline="middle" font-size="14" text-anchor="middle" x="354.799230631" y="830.976353886">8</text><text alignment-baseline="middle" font-size="14" text-anchor="middle" x="888.132563964" y="811.903043905">4</text><text alignment-baseline="middle" font-size="14" text-anchor="middle" x="223.294828548" y="859.06469803">8</text><text alignment-baseline="middle" font-size="14" text-anchor="middle" x="356.628161882" y="869.686031306">9</text><text alignment-baseline="middle" font-size="14" text-anchor="middle" x="423.294828548" y="868.483189608">8</text><text alignment-baseline="middle" font-size="14" text-anchor="middle" x="489.961495215" y="862.948321939">8</text><text alignment-baseline="middle" font-size="14" text-anchor="middle" x="556.628161882" y="854.838709677">8</text><text alignment-baseline="middle" font-size="14" text-anchor="middle" x="623.294828548" y="846.729097416">8</text><text alignment-baseline="middle" font-size="14" text-anchor="middle" x="689.961495215" y="841.194229747">9</text><text alignment-baseline="middle" font-size="14" text-anchor="middle" x="756.628161882" y="839.991388049">6</text><text alignment-baseline="middle" font-size="14" text-anchor="middle" x="823.294828548" y="843.502466062">6</text><text alignment-baseline="middle" font-size="14" text-anchor="middle" x="889.961495215" y="850.612721325">6</text><text alignment-baseline="middle" font-size="14" text-anchor="middle" x="956.628161882" y="859.06469803">7</text><text alignment-baseline="middle" font-size="14" text-anchor="middle" x="753.600802854" y="878.701065469">9</text><text alignment-baseline="middle" font-size="14" text-anchor="middle" x="820.26746952" y="882.212143481">7</text><text alignment-baseline="middle" font-size="14" text-anchor="middle" x="953.600802854" y="897.774375449">3</text><text alignment-baseline="middle" font-size="14" text-anchor="middle" x="212.874507815" y="936.484052869">2</text><text alignment-baseline="middle" font-size="14" text-anchor="middle" x="279.541174482" y="943.594308131">9</text><text alignment-baseline="middle" font-size="14" text-anchor="middle" x="412.874507815" y="945.902544446">6</text><text alignment-baseline="middle" font-size="14" text-anchor="middle" x="479.541174482" y="940.367676778">9</text><text alignment-baseline="middle" font-size="14" text-anchor="middle" x="335.647560356" y="985.815063564">6</text><text alignment-baseline="middle" font-size="14" text-anchor="middle" x="802.314227023" y="959.63149832">9</text><text alignment-baseline="middle" font-size="14" text-anchor="middle" x="523.631617007" y="1009.67741935">7</text><text alignment-baseline="middle" font-size="14" text-anchor="middle" x="590.298283674" y="1001.56780709">9</text><text alignment-baseline="middle" font-size="14" text-anchor="middle" x="656.96495034" y="996.032939425">4</text><text alignment-baseline="middle" font-size="14" text-anchor="middle" x="723.631617007" y="994.830097727">5</text><text alignment-baseline="middle" font-size="14" text-anchor="middle" x="923.631617007" y="1013.90340771">8</text><text alignment-baseline="middle" font-size="14" text-anchor="middle" x="178.774274457" y="1052.61308513">5</text><text alignment-baseline="middle" font-size="14" text-anchor="middle" x="245.440941124" y="1059.72334039">6</text><text alignment-baseline="middle" font-size="14" text-anchor="middle" x="312.107607791" y="1063.2344184">3</text><text alignment-baseline="middle" font-size="14" text-anchor="middle" x="378.774274457" y="1062.0315767">2</text><text alignment-baseline="middle" font-size="14" text-anchor="middle" x="445.440941124" y="1056.49670904">4</text><text alignment-baseline="middle" font-size="14" text-anchor="middle" x="512.107607791" y="1048.38709677">4</text><text alignment-baseline="middle" font-size="14" text-anchor="middle" x="578.774274457" y="1040.27748451">4</text><text alignment-baseline="middle" font-size="14" text-anchor="middle" x="645.440941124" y="1034.74261684">8</text><text alignment-baseline="middle" font-size="14" text-anchor="middle" x="845.440941124" y="1044.16110842">3</text><text alignment-baseline="middle" font-size="14" text-anchor="middle" x="369.610061225" y="1100.74125412">9</text><text alignment-baseline="middle" font-size="14" text-anchor="middle" x="364.291019767" y="1139.45093154">7</text><text alignment-baseline="middle" font-size="14" text-anchor="middle" x="430.957686434" y="1133.91606387">5</text><text alignment-baseline="middle" font-size="14" text-anchor="middle" x="497.624353101" y="1125.80645161">5</text><text alignment-baseline="middle" font-size="14" text-anchor="middle" x="564.291019767" y="1117.69683935">6</text><text alignment-baseline="middle" font-size="14" text-anchor="middle" x="630.957686434" y="1112.16197168">6</text><text alignment-baseline="middle" font-size="14" text-anchor="middle" x="697.624353101" y="1110.95912998">4</text><text alignment-baseline="middle" font-size="14" text-anchor="middle" x="764.291019767" y="1114.470208">5</text><text alignment-baseline="middle" font-size="14" text-anchor="middle" x="830.957686434" y="1121.58046326">7</text><text alignment-baseline="middle" font-size="14" text-anchor="middle" x="430.34595027" y="1172.62574129">6</text><text alignment-baseline="middle" font-size="14" text-anchor="middle" x="497.012616937" y="1164.51612903">6</text><text alignment-baseline="middle" font-size="14" text-anchor="middle" x="563.679283603" y="1156.40651677">7</text><text alignment-baseline="middle" font-size="14" text-anchor="middle" x="630.34595027" y="1150.8716491">7</text><text alignment-baseline="middle" font-size="14" text-anchor="middle" x="697.012616937" y="1149.6688074">7</text><text alignment-baseline="middle" font-size="14" text-anchor="middle" x="763.679283603" y="1153.17988542">8</text><text alignment-baseline="middle" font-size="14" text-anchor="middle" x="830.34595027" y="1160.29014068">2</text><text alignment-baseline="middle" font-size="14" text-anchor="middle" x="897.012616937" y="1168.74211738">5</text><text alignment-baseline="middle" font-size="14" text-anchor="middle" x="167.874005608" y="1207.4517948">6</text><text alignment-baseline="middle" font-size="14" text-anchor="middle" x="301.207338942" y="1218.07312808">5</text><text alignment-baseline="middle" font-size="14" text-anchor="middle" x="367.874005608" y="1216.87028638">3</text><text alignment-baseline="middle" font-size="14" text-anchor="middle" x="434.540672275" y="1211.33541871">3</text><text alignment-baseline="middle" font-size="14" text-anchor="middle" x="501.207338942" y="1203.22580645">3</text><text alignment-baseline="middle" font-size="14" text-anchor="middle" x="567.874005608" y="1195.11619419">5</text><text alignment-baseline="middle" font-size="14" text-anchor="middle" x="634.540672275" y="1189.58132652">3</text><text alignment-baseline="middle" font-size="14" text-anchor="middle" x="701.207338942" y="1188.37848482">3</text><text alignment-baseline="middle" font-size="14" text-anchor="middle" x="767.874005608" y="1191.88956284">2</text><text alignment-baseline="middle" font-size="14" text-anchor="middle" x="834.540672275" y="1198.9998181">8</text><text alignment-baseline="middle" font-size="14" text-anchor="middle" x="901.207338942" y="1207.4517948">2</text><text alignment-baseline="middle" font-size="14" text-anchor="middle" x="176.19528688" y="1246.16147222">3</text><text alignment-baseline="middle" font-size="14" text-anchor="middle" x="242.861953547" y="1253.27172749">2</text><text alignment-baseline="middle" font-size="14" text-anchor="middle" x="309.528620214" y="1256.7828055">2</text><text alignment-baseline="middle" font-size="14" text-anchor="middle" x="376.19528688" y="1255.5799638">4</text><text alignment-baseline="middle" font-size="14" text-anchor="middle" x="442.861953547" y="1250.04509613">2</text><text alignment-baseline="middle" font-size="14" text-anchor="middle" x="509.528620214" y="1241.93548387">2</text><text alignment-baseline="middle" font-size="14" text-anchor="middle" x="576.19528688" y="1233.82587161">2</text><text alignment-baseline="middle" font-size="14" text-anchor="middle" x="642.861953547" y="1228.29100394">2</text><text alignment-baseline="middle" font-size="14" text-anchor="middle" x="709.528620214" y="1227.08816224">1</text><text alignment-baseline="middle" font-size="14" text-anchor="middle" x="776.19528688" y="1230.59924026">1</text><text alignment-baseline="middle" font-size="14" text-anchor="middle" x="842.861953547" y="1237.70949552">1</text><text alignment-baseline="middle" font-size="14" text-anchor="middle" x="909.528620214" y="1246.16147222">1</text><text alignment-baseline="middle" font-size="14" text-anchor="middle" x="187.294377731" y="1284.87114964">1</text><text alignment-baseline="middle" font-size="14" text-anchor="middle" x="253.961044397" y="1291.98140491">1</text><text alignment-baseline="middle" font-size="14" text-anchor="middle" x="320.627711064" y="1295.49248292">1</text><text alignment-baseline="middle" font-size="14" text-anchor="middle" x="387.294377731" y="1294.28964122">1</text><text alignment-baseline="middle" font-size="14" text-anchor="middle" x="453.961044397" y="1288.75477355">1</text><text alignment-baseline="middle" font-size="14" text-anchor="middle" x="520.627711064" y="1280.64516129">1</text><text alignment-baseline="middle" font-size="14" text-anchor="middle" x="587.294377731" y="1272.53554903">1</text><text alignment-baseline="middle" font-size="14" text-anchor="middle" x="653.961044397" y="1267.00068136">1</text><text alignment-baseline="middle" font-size="14" text-anchor="middle" x="720.627711064" y="1265.79783966">2</text><text alignment-baseline="middle" font-size="14" text-anchor="middle" x="787.294377731" y="1269.30891768">4</text><text alignment-baseline="middle" font-size="14" text-anchor="middle" x="853.961044397" y="1276.41917294">5</text></g></svg>