<?xml version="1.0" encoding="utf-8" ?>
<svg baseProfile="full" height="792.0" version="1.1" width="612.0" xmlns="http://www.w3.org/2000/svg" xmlns:ev="http://www.w3.org/2001/xml-events" xmlns:xlink="http://www.w3.org/1999/xlink"><defs /><g id="xaxis"><text alignment-baseline="middle" font-size="14" text-anchor="middle" x="124.25" y="57.3333333333">Jan</text><text alignment-baseline="middle" font-size="14" text-anchor="middle" x="162.75" y="62.7397415079">Feb</text><text alignment-baseline="middle" font-size="14" text-anchor="middle" x="201.25" y="66.4296532869">Mar</text><text alignment-baseline="middle" font-size="14" text-anchor="middle" x="239.75" y="67.2315477521">Apr</text><text alignment-baseline="middle" font-size="14" text-anchor="middle" x="278.25" y="64.8908290769">May</text><text alignment-baseline="middle" font-size="14" text-anchor="middle" x="316.75" y="60.1506589017">Jun</text><text alignment-baseline="middle" font-size="14" text-anchor="middle" x="355.25" y="54.5160077649">Jul</text><text alignment-baseline="middle" font-size="14" text-anchor="middle" x="393.75" y="49.7758375898">Aug</text><text alignment-baseline="middle" font-size="14" text-anchor="middle" x="432.25" y="47.4351189145">Sep</text><text alignment-baseline="middle" font-size="14" text-anchor="middle" x="470.75" y="48.2370133798">Oct</text><text alignment-baseline="middle" font-size="14" text-anchor="middle" x="509.25" y="51.9269251588">Nov</text><text alignment-baseline="middle" font-size="14" text-anchor="middle" x="547.75" y="57.3333333333">Dec</text></g><g id="yaxis"><text alignment-baseline="middle" font-size="14" text-anchor="middle" x="75.0" y="93.3333333333">1990</text><text alignment-baseline="middle" font-size="14" text-anchor="middle" x="83.975983604" y="118.0">1991</text><text alignment-baseline="middle" font-size="14" text-anchor="middle" x="91.0424638551" y="142.666666667">1992</text><text alignment-baseline="middle" font-size="14" text-anchor="middle" x="94.6961550602" y="167.333333333">1993</text><text alignment-baseline="middle" font-size="14" text-anchor="middle" x="94.1597902463" y="192.0">1994</text><text alignment-baseline="middle" font-size="14" text-anchor="middle" x="89.5474728315" y="216.666666667">1995</text><text alignment-baseline="middle" font-size="14" text-anchor="middle" x="81.8404028665" y="241.333333333">1996</text><text alignment-baseline="middle" font-size="14" text-anchor="middle" x="72.6781417175" y="266.0">1997</text><text alignment-baseline="middle" font-size="14" text-anchor="middle" x="64.0098204386" y="290.666666667">1998</text><text alignment-baseline="middle" font-size="14" text-anchor="middle" x="57.6794919243" y="315.333333333">1999</text><text alignment-baseline="middle" font-size="14" text-anchor="middle" x="55.0338368346" y="340.0">2000</text><text alignment-baseline="middle" font-size="14" text-anchor="middle" x="56.6356778624" y="364.666666667">2001</text><text alignment-baseline="middle" font-size="14" text-anchor="middle" x="62.1442478063" y="389.333333333">2002</text><text alignment-baseline="middle" font-size="14" text-anchor="middle" x="70.3876825852" y="414.0">2003</text><text alignment-baseline="middle" font-size="14" text-anchor="middle" x="79.6123174148" y="438.666666667">2004</text><text alignment-baseline="middle" font-size="14" text-anchor="middle" x="87.8557521937" y="463.333333333">2005</text><text alignment-baseline="middle" font-size="14" text-anchor="middle" x="93.3643221376" y="488.0">2006</text><text alignment-baseline="middle" font-size="14" text-anchor="middle" x="94.9661631654" y="512.666666667">2007</text><text alignment-baseline="middle" font-size="14" text-anchor="middle" x="92.3205080757" y="537.333333333">2008</text><text alignment-baseline="middle" font-size="14" text-anchor="middle" x="85.9901795614" y="562.0">2009</text><text alignment-baseline="middle" font-size="14" text-anchor="middle" x="77.3218582825" y="586.666666667">2010</text><text alignment-baseline="middle" font-size="14" text-anchor="middle" x="68.1595971335" y="611.333333333">2011</text><text alignment-baseline="middle" font-size="14" text-anchor="middle" x="60.4525271685" y="636.0">2012</text><text alignment-baseline="middle" font-size="14" text-anchor="middle" x="55.8402097537" y="660.666666667">2013</text><text alignment-baseline="middle" font-size="14" text-anchor="middle" x="55.3038449398" y="685.333333333">2014</text><text alignment-baseline="middle" font-size="14" text-anchor="middle" x="58.9575361449" y="710.0">2015</text><text alignment-baseline="middle" font-size="14" text-anchor="middle" x="66.024016396" y="734.666666667">2016</text></g><g id="xgrid"><polyline fill="none" points="105.0,81.0 113.975983604,105.666666667 121.042463855,130.333333333 124.69615506,155.0 124.159790246,179.666666667 119.547472831,204.333333333 111.840402867,229.0 102.678141717,253.666666667 94.0098204386,278.333333333 87.6794919243,303.0 85.0338368346,327.666666667 86.6356778624,352.333333333 92.1442478063,377.0 100.387682585,401.666666667 109.612317415,426.333333333 117.855752194,451.0 123.364322138,475.666666667 124.966163165,500.333333333 122.320508076,525.0 115.990179561,549.666666667 107.321858283,574.333333333 98.1595971335,599.0 90.4525271685,623.666666667 85.8402097537,648.333333333 85.3038449398,673.0 88.9575361449,697.666666667 96.024016396,722.333333333 105.0,747.0" stroke="#000000" stroke-width="2" /><polyline fill="none" points="143.5,86.4064081746 152.475983604,111.073074841 159.542463855,135.739741508 163.19615506,160.406408175 162.659790246,185.073074841 158.047472831,209.739741508 150.340402867,234.406408175 141.178141717,259.073074841 132.509820439,283.739741508 126.179491924,308.406408175 123.533836835,333.073074841 125.135677862,357.739741508 130.644247806,382.406408175 138.887682585,407.073074841 148.112317415,431.739741508 156.355752194,456.406408175 161.864322138,481.073074841 163.466163165,505.739741508 160.820508076,530.406408175 154.490179561,555.073074841 145.821858283,579.739741508 136.659597133,604.406408175 128.952527169,629.073074841 124.340209754,653.739741508 123.80384494,678.406408175 127.457536145,703.073074841 134.524016396,727.739741508 143.5,752.406408175" stroke="#000000" stroke-width="2" /><polyline fill="none" points="182.0,90.0963199535 190.975983604,114.76298662 198.042463855,139.429653287 201.69615506,164.096319954 201.159790246,188.76298662 196.547472831,213.429653287 188.840402867,238.096319954 179.678141717,262.76298662 171.009820439,287.429653287 164.679491924,312.096319954 162.033836835,336.76298662 163.635677862,361.429653287 169.144247806,386.096319954 177.387682585,410.76298662 186.612317415,435.429653287 194.855752194,460.096319954 200.364322138,484.76298662 201.966163165,509.429653287 199.320508076,534.096319954 192.990179561,558.76298662 184.321858283,583.429653287 175.159597133,608.096319954 167.452527169,632.76298662 162.840209754,657.429653287 162.30384494,682.096319954 165.957536145,706.76298662 173.024016396,731.429653287 182.0,756.096319954" stroke="#000000" stroke-width="2" /><polyline fill="none" points="220.5,90.8982144188 229.475983604,115.564881085 236.542463855,140.231547752 240.19615506,164.898214419 239.659790246,189.564881085 235.047472831,214.231547752 227.340402867,238.898214419 218.178141717,263.564881085 209.509820439,288.231547752 203.179491924,312.898214419 200.533836835,337.564881085 202.135677862,362.231547752 207.644247806,386.898214419 215.887682585,411.564881085 225.112317415,436.231547752 233.355752194,460.898214419 238.864322138,485.564881085 240.466163165,510.231547752 237.820508076,534.898214419 231.490179561,559.564881085 222.821858283,584.231547752 213.659597133,608.898214419 205.952527169,633.564881085 201.340209754,658.231547752 200.80384494,682.898214419 204.457536145,707.564881085 211.524016396,732.231547752 220.5,756.898214419" stroke="#000000" stroke-width="2" /><polyline fill="none" points="259.0,88.5574957435 267.975983604,113.22416241 275.042463855,137.890829077 278.69615506,162.557495744 278.159790246,187.22416241 273.547472831,211.890829077 265.840402867,236.557495744 256.678141717,261.22416241 248.009820439,285.890829077 241.679491924,310.557495744 239.033836835,335.22416241 240.635677862,359.890829077 246.144247806,384.557495744 254.387682585,409.22416241 263.612317415,433.890829077 271.855752194,458.557495744 277.364322138,483.22416241 278.966163165,507.890829077 276.320508076,532.557495744 269.990179561,557.22416241 261.321858283,581.890829077 252.159597133,606.557495744 244.452527169,631.22416241 239.840209754,655.890829077 239.30384494,680.557495744 242.957536145,705.22416241 250.024016396,729.890829077 259.0,754.557495744" stroke="#000000" stroke-width="2" /><polyline fill="none" points="297.5,83.8173255684 306.475983604,108.483992235 313.542463855,133.150658902 317.19615506,157.817325568 316.659790246,182.483992235 312.047472831,207.150658902 304.340402867,231.817325568 295.178141717,256.483992235 286.509820439,281.150658902 280.179491924,305.817325568 277.533836835,330.483992235 279.135677862,355.150658902 284.644247806,379.817325568 292.887682585,404.483992235 302.112317415,429.150658902 310.355752194,453.817325568 315.864322138,478.483992235 317.466163165,503.150658902 314.820508076,527.817325568 308.490179561,552.483992235 299.821858283,577.150658902 290.659597133,601.817325568 282.952527169,626.483992235 278.340209754,651.150658902 277.80384494,675.817325568 281.457536145,700.483992235 288.524016396,725.150658902 297.5,749.817325568" stroke="#000000" stroke-width="2" /><polyline fill="none" points="336.0,78.1826744316 344.975983604,102.849341098 352.042463855,127.516007765 355.69615506,152.182674432 355.159790246,176.849341098 350.547472831,201.516007765 342.840402867,226.182674432 333.678141717,250.849341098 325.009820439,275.516007765 318.679491924,300.182674432 316.033836835,324.849341098 317.635677862,349.516007765 323.144247806,374.182674432 331.387682585,398.849341098 340.612317415,423.516007765 348.855752194,448.182674432 354.364322138,472.849341098 355.966163165,497.516007765 353.320508076,522.182674432 346.990179561,546.849341098 338.321858283,571.516007765 329.159597133,596.182674432 321.452527169,620.849341098 316.840209754,645.516007765 316.30384494,670.182674432 319.957536145,694.849341098 327.024016396,719.516007765 336.0,744.182674432" stroke="#000000" stroke-width="2" /><polyline fill="none" points="374.5,73.4425042565 383.475983604,98.1091709231 390.542463855,122.77583759 394.19615506,147.442504256 393.659790246,172.109170923 389.047472831,196.77583759 381.340402867,221.442504256 372.178141717,246.109170923 363.509820439,270.77583759 357.179491924,295.442504256 354.533836835,320.109170923 356.135677862,344.77583759 361.644247806,369.442504256 369.887682585,394.109170923 379.112317415,418.77583759 387.355752194,443.442504256 392.864322138,468.109170923 394.466163165,492.77583759 391.820508076,517.442504256 385.490179561,542.109170923 376.821858283,566.77583759 367.659597133,591.442504256 359.952527169,616.109170923 355.340209754,640.77583759 354.80384494,665.442504256 358.457536145,690.109170923 365.524016396,714.77583759 374.5,739.442504256" stroke="#000000" stroke-width="2" /><polyline fill="none" points="413.0,71.1017855812 421.975983604,95.7684522479 429.042463855,120.435118915 432.69615506,145.101785581 432.159790246,169.768452248 427.547472831,194.435118915 419.840402867,219.101785581 410.678141717,243.768452248 402.009820439,268.435118915 395.679491924,293.101785581 393.033836835,317.768452248 394.635677862,342.435118915 400.144247806,367.101785581 408.387682585,391.768452248 417.612317415,416.435118915 425.855752194,441.101785581 431.364322138,465.768452248 432.966163165,490.435118915 430.320508076,515.101785581 423.990179561,539.768452248 415.321858283,564.435118915 406.159597133,589.101785581 398.452527169,613.768452248 393.840209754,638.435118915 393.30384494,663.101785581 396.957536145,687.768452248 404.024016396,712.435118915 413.0,737.101785581" stroke="#000000" stroke-width="2" /><polyline fill="none" points="451.5,71.9036800465 460.475983604,96.5703467131 467.542463855,121.23701338 471.19615506,145.903680046 470.659790246,170.570346713 466.047472831,195.23701338 458.340402867,219.903680046 449.178141717,244.570346713 440.509820439,269.23701338 434.179491924,293.903680046 431.533836835,318.570346713 433.135677862,343.23701338 438.644247806,367.903680046 446.887682585,392.570346713 456.112317415,417.23701338 464.355752194,441.903680046 469.864322138,466.570346713 471.466163165,491.23701338 468.820508076,515.903680046 462.490179561,540.570346713 453.821858283,565.23701338 444.659597133,589.903680046 436.952527169,614.570346713 432.340209754,639.23701338 431.80384494,663.903680046 435.457536145,688.570346713 442.524016396,713.23701338 451.5,737.903680046" stroke="#000000" stroke-width="2" /><polyline fill="none" points="490.0,75.5935918254 498.975983604,100.260258492 506.042463855,124.926925159 509.69615506,149.593591825 509.159790246,174.260258492 504.547472831,198.926925159 496.840402867,223.593591825 487.678141717,248.260258492 479.009820439,272.926925159 472.679491924,297.593591825 470.033836835,322.260258492 471.635677862,346.926925159 477.144247806,371.593591825 485.387682585,396.260258492 494.612317415,420.926925159 502.855752194,445.593591825 508.364322138,470.260258492 509.966163165,494.926925159 507.320508076,519.593591825 500.990179561,544.260258492 492.321858283,568.926925159 483.159597133,593.593591825 475.452527169,618.260258492 470.840209754,642.926925159 470.30384494,667.593591825 473.957536145,692.260258492 481.024016396,716.926925159 490.0,741.593591825" stroke="#000000" stroke-width="2" /><polyline fill="none" points="528.5,81.0 537.475983604,105.666666667 544.542463855,130.333333333 548.19615506,155.0 547.659790246,179.666666667 543.047472831,204.333333333 535.340402867,229.0 526.178141717,253.666666667 517.509820439,278.333333333 511.179491924,303.0 508.533836835,327.666666667 510.135677862,352.333333333 515.644247806,377.0 523.887682585,401.666666667 533.112317415,426.333333333 541.355752194,451.0 546.864322138,475.666666667 548.466163165,500.333333333 545.820508076,525.0 539.490179561,549.666666667 530.821858283,574.333333333 521.659597133,599.0 513.952527169,623.666666667 509.340209754,648.333333333 508.80384494,673.0 512.457536145,697.666666667 519.524016396,722.333333333 528.5,747.0" stroke="#000000" stroke-width="2" /><polyline fill="none" points="567.0,86.4064081746 575.975983604,111.073074841 583.042463855,135.739741508 586.69615506,160.406408175 586.159790246,185.073074841 581.547472831,209.739741508 573.840402867,234.406408175 564.678141717,259.073074841 556.009820439,283.739741508 549.679491924,308.406408175 547.033836835,333.073074841 548.635677862,357.739741508 554.144247806,382.406408175 562.387682585,407.073074841 571.612317415,431.739741508 579.855752194,456.406408175 585.364322138,481.073074841 586.966163165,505.739741508 584.320508076,530.406408175 577.990179561,555.073074841 569.321858283,579.739741508 560.159597133,604.406408175 552.452527169,629.073074841 547.840209754,653.739741508 547.30384494,678.406408175 550.957536145,703.073074841 558.024016396,727.739741508 567.0,752.406408175" stroke="#000000" stroke-width="2" /></g><g id="ygrid"><polyline fill="none" points="105.0,81.0 124.25,75.8173255684 143.5,86.4064081746 162.75,80.5574957435 182.0,90.0963199535 201.25,82.8982144188 220.5,90.8982144188 239.75,82.0963199535 259.0,88.5574957435 278.25,78.4064081746 297.5,83.8173255684 316.75,73.0 336.0,78.1826744316 355.25,67.5935918254 374.5,73.4425042565 393.75,63.9036800465 413.0,71.1017855812 432.25,63.1017855812 451.5,71.9036800465 470.75,65.4425042565 490.0,75.5935918254 509.25,70.1826744316 528.5,81.0 547.75,75.8173255684 567.0,86.4064081746" stroke="#000000" stroke-width="1" /><polyline fill="none" points="113.975983604,105.666666667 133.225983604,100.483992235 152.475983604,111.073074841 171.725983604,105.22416241 190.975983604,114.76298662 210.225983604,107.564881085 229.475983604,115.564881085 248.725983604,106.76298662 267.975983604,113.22416241 287.225983604,103.073074841 306.475983604,108.483992235 325.725983604,97.6666666667 344.975983604,102.849341098 364.225983604,92.2602584921 383.475983604,98.1091709231 402.725983604,88.5703467131 421.975983604,95.7684522479 441.225983604,87.7684522479 460.475983604,96.5703467131 479.725983604,90.1091709231 498.975983604,100.260258492 518.225983604,94.8493410983 537.475983604,105.666666667 556.725983604,100.483992235 575.975983604,111.073074841" stroke="#000000" stroke-width="1" /><polyline fill="none" points="121.042463855,130.333333333 140.292463855,125.150658902 159.542463855,135.739741508 178.792463855,129.890829077 198.042463855,139.429653287 217.292463855,132.231547752 236.542463855,140.231547752 255.792463855,131.429653287 275.042463855,137.890829077 294.292463855,127.739741508 313.542463855,133.150658902 332.792463855,122.333333333 352.042463855,127.516007765 371.292463855,116.926925159 390.542463855,122.77583759 409.792463855,113.23701338 429.042463855,120.435118915 448.292463855,112.435118915 467.542463855,121.23701338 486.792463855,114.77583759 506.042463855,124.926925159 525.292463855,119.516007765 544.542463855,130.333333333 563.792463855,125.150658902 583.042463855,135.739741508" stroke="#000000" stroke-width="1" /><polyline fill="none" points="124.69615506,155.0 143.94615506,149.817325568 163.19615506,160.406408175 182.44615506,154.557495744 201.69615506,164.096319954 220.94615506,156.898214419 240.19615506,164.898214419 259.44615506,156.096319954 278.69615506,162.557495744 297.94615506,152.406408175 317.19615506,157.817325568 336.44615506,147.0 355.69615506,152.182674432 374.94615506,141.593591825 394.19615506,147.442504256 413.44615506,137.903680046 432.69615506,145.101785581 451.94615506,137.101785581 471.19615506,145.903680046 490.44615506,139.442504256 509.69615506,149.593591825 528.94615506,144.182674432 548.19615506,155.0 567.44615506,149.817325568 586.69615506,160.406408175" stroke="#000000" stroke-width="1" /><polyline fill="none" points="124.159790246,179.666666667 143.409790246,174.483992235 162.659790246,185.073074841 181.909790246,179.22416241 201.159790246,188.76298662 220.409790246,181.564881085 239.659790246,189.564881085 258.909790246,180.76298662 278.159790246,187.22416241 297.409790246,177.073074841 316.659790246,182.483992235 335.909790246,171.666666667 355.159790246,176.849341098 374.409790246,166.260258492 393.659790246,172.109170923 412.909790246,162.570346713 432.159790246,169.768452248 451.409790246,161.768452248 470.659790246,170.570346713 489.909790246,164.109170923 509.159790246,174.260258492 528.409790246,168.849341098 547.659790246,179.666666667 566.909790246,174.483992235 586.159790246,185.073074841" stroke="#000000" stroke-width="1" /><polyline fill="none" points="119.547472831,204.333333333 138.797472831,199.150658902 158.047472831,209.739741508 177.297472831,203.890829077 196.547472831,213.429653287 215.797472831,206.231547752 235.047472831,214.231547752 254.297472831,205.429653287 273.547472831,211.890829077 292.797472831,201.739741508 312.047472831,207.150658902 331.297472831,196.333333333 350.547472831,201.516007765 369.797472831,190.926925159 389.047472831,196.77583759 408.297472831,187.23701338 427.547472831,194.435118915 446.797472831,186.435118915 466.047472831,195.23701338 485.297472831,188.77583759 504.547472831,198.926925159 523.797472831,193.516007765 543.047472831,204.333333333 562.297472831,199.150658902 581.547472831,209.739741508" stroke="#000000" stroke-width="1" /><polyline fill="none" points="111.840402867,229.0 131.090402867,223.817325568 150.340402867,234.406408175 169.590402867,228.557495744 188.840402867,238.096319954 208.090402867,230.898214419 227.340402867,238.898214419 246.590402867,230.096319954 265.840402867,236.557495744 285.090402867,226.406408175 304.340402867,231.817325568 323.590402867,221.0 342.840402867,226.182674432 362.090402867,215.593591825 381.340402867,221.442504256 400.590402867,211.903680046 419.840402867,219.101785581 439.090402867,211.101785581 458.340402867,219.903680046 477.590402867,213.442504256 496.840402867,223.593591825 516.090402867,218.182674432 535.340402867,229.0 554.590402867,223.817325568 573.840402867,234.406408175" stroke="#000000" stroke-width="1" /><polyline fill="none" points="102.678141717,253.666666667 121.928141717,248.483992235 141.178141717,259.073074841 160.428141717,253.22416241 179.678141717,262.76298662 198.928141717,255.564881085 218.178141717,263.564881085 237.428141717,254.76298662 256.678141717,261.22416241 275.928141717,251.073074841 295.178141717,256.483992235 314.428141717,245.666666667 333.678141717,250.849341098 352.928141717,240.260258492 372.178141717,246.109170923 391.428141717,236.570346713 410.678141717,243.768452248 429.928141717,235.768452248 449.178141717,244.570346713 468.428141717,238.109170923 487.678141717,248.260258492 506.928141717,242.849341098 526.178141717,253.666666667 545.428141717,248.483992235 564.678141717,259.073074841" stroke="#000000" stroke-width="1" /><polyline fill="none" points="94.0098204386,278.333333333 113.259820439,273.150658902 132.509820439,283.739741508 151.759820439,277.890829077 171.009820439,287.429653287 190.259820439,280.231547752 209.509820439,288.231547752 228.759820439,279.429653287 248.009820439,285.890829077 267.259820439,275.739741508 286.509820439,281.150658902 305.759820439,270.333333333 325.009820439,275.516007765 344.259820439,264.926925159 363.509820439,270.77583759 382.759820439,261.23701338 402.009820439,268.435118915 421.259820439,260.435118915 440.509820439,269.23701338 459.759820439,262.77583759 479.009820439,272.926925159 498.259820439,267.516007765 517.509820439,278.333333333 536.759820439,273.150658902 556.009820439,283.739741508" stroke="#000000" stroke-width="1" /><polyline fill="none" points="87.6794919243,303.0 106.929491924,297.817325568 126.179491924,308.406408175 145.429491924,302.557495744 164.679491924,312.096319954 183.929491924,304.898214419 203.179491924,312.898214419 222.429491924,304.096319954 241.679491924,310.557495744 260.929491924,300.406408175 280.179491924,305.817325568 299.429491924,295.0 318.679491924,300.182674432 337.929491924,289.593591825 357.179491924,295.442504256 376.429491924,285.903680046 395.679491924,293.101785581 414.929491924,285.101785581 434.179491924,293.903680046 453.429491924,287.442504256 472.679491924,297.593591825 491.929491924,292.182674432 511.179491924,303.0 530.429491924,297.817325568 549.679491924,308.406408175" stroke="#000000" stroke-width="1" /><polyline fill="none" points="85.0338368346,327.666666667 104.283836835,322.483992235 123.533836835,333.073074841 142.783836835,327.22416241 162.033836835,336.76298662 181.283836835,329.564881085 200.533836835,337.564881085 219.783836835,328.76298662 239.033836835,335.22416241 258.283836835,325.073074841 277.533836835,330.483992235 296.783836835,319.666666667 316.033836835,324.849341098 335.283836835,314.260258492 354.533836835,320.109170923 373.783836835,310.570346713 393.033836835,317.768452248 412.283836835,309.768452248 431.533836835,318.570346713 450.783836835,312.109170923 470.033836835,322.260258492 489.283836835,316.849341098 508.533836835,327.666666667 527.783836835,322.483992235 547.033836835,333.073074841" stroke="#000000" stroke-width="1" /><polyline fill="none" points="86.6356778624,352.333333333 105.885677862,347.150658902 125.135677862,357.739741508 144.385677862,351.890829077 163.635677862,361.429653287 182.885677862,354.231547752 202.135677862,362.231547752 221.385677862,353.429653287 240.635677862,359.890829077 259.885677862,349.739741508 279.135677862,355.150658902 298.385677862,344.333333333 317.635677862,349.516007765 336.885677862,338.926925159 356.135677862,344.77583759 375.385677862,335.23701338 394.635677862,342.435118915 413.885677862,334.435118915 433.135677862,343.23701338 452.385677862,336.77583759 471.635677862,346.926925159 490.885677862,341.516007765 510.135677862,352.333333333 529.385677862,347.150658902 548.635677862,357.739741508" stroke="#000000" stroke-width="1" /><polyline fill="none" points="92.1442478063,377.0 111.394247806,371.817325568 130.644247806,382.406408175 149.894247806,376.557495744 169.144247806,386.096319954 188.394247806,378.898214419 207.644247806,386.898214419 226.894247806,378.096319954 246.144247806,384.557495744 265.394247806,374.406408175 284.644247806,379.817325568 303.894247806,369.0 323.144247806,374.182674432 342.394247806,363.593591825 361.644247806,369.442504256 380.894247806,359.903680046 400.144247806,367.101785581 419.394247806,359.101785581 438.644247806,367.903680046 457.894247806,361.442504256 477.144247806,371.593591825 496.394247806,366.182674432 515.644247806,377.0 534.894247806,371.817325568 554.144247806,382.406408175" stroke="#000000" stroke-width="1" /><polyline fill="none" points="100.387682585,401.666666667 119.637682585,396.483992235 138.887682585,407.073074841 158.137682585,401.22416241 177.387682585,410.76298662 196.637682585,403.564881085 215.887682585,411.564881085 235.137682585,402.76298662 254.387682585,409.22416241 273.637682585,399.073074841 292.887682585,404.483992235 312.137682585,393.666666667 331.387682585,398.849341098 350.637682585,388.260258492 369.887682585,394.109170923 389.137682585,384.570346713 408.387682585,391.768452248 427.637682585,383.768452248 446.887682585,392.570346713 466.137682585,386.109170923 485.387682585,396.260258492 504.637682585,390.849341098 523.887682585,401.666666667 543.137682585,396.483992235 562.387682585,407.073074841" stroke="#000000" stroke-width="1" /><polyline fill="none" points="109.612317415,426.333333333 128.862317415,421.150658902 148.112317415,431.739741508 167.362317415,425.890829077 186.612317415,435.429653287 205.862317415,428.231547752 225.112317415,436.231547752 244.362317415,427.429653287 263.612317415,433.890829077 282.862317415,423.739741508 302.112317415,429.150658902 321.362317415,418.333333333 340.612317415,423.516007765 359.862317415,412.926925159 379.112317415,418.77583759 398.362317415,409.23701338 417.612317415,416.435118915 436.862317415,408.435118915 456.112317415,417.23701338 475.362317415,410.77583759 494.612317415,420.926925159 513.862317415,415.516007765 533.112317415,426.333333333 552.362317415,421.150658902 571.612317415,431.739741508" stroke="#000000" stroke-width="1" /><polyline fill="none" points="117.855752194,451.0 137.105752194,445.817325568 156.355752194,456.406408175 175.605752194,450.557495744 194.855752194,460.096319954 214.105752194,452.898214419 233.355752194,460.898214419 252.605752194,452.096319954 271.855752194,458.557495744 291.105752194,448.406408175 310.355752194,453.817325568 329.605752194,443.0 348.855752194,448.182674432 368.105752194,437.593591825 387.355752194,443.442504256 406.605752194,433.903680046 425.855752194,441.101785581 445.105752194,433.101785581 464.355752194,441.903680046 483.605752194,435.442504256 502.855752194,445.593591825 522.105752194,440.182674432 541.355752194,451.0 560.605752194,445.817325568 579.855752194,456.406408175" stroke="#000000" stroke-width="1" /><polyline fill="none" points="123.364322138,475.666666667 142.614322138,470.483992235 161.864322138,481.073074841 181.114322138,475.22416241 200.364322138,484.76298662 219.614322138,477.564881085 238.864322138,485.564881085 258.114322138,476.76298662 277.364322138,483.22416241 296.614322138,473.073074841 315.864322138,478.483992235 335.114322138,467.666666667 354.364322138,472.849341098 373.614322138,462.260258492 392.864322138,468.109170923 412.114322138,458.570346713 431.364322138,465.768452248 450.614322138,457.768452248 469.864322138,466.570346713 489.114322138,460.109170923 508.364322138,470.260258492 527.614322138,464.849341098 546.864322138,475.666666667 566.114322138,470.483992235 585.364322138,481.073074841" stroke="#000000" stroke-width="1" /><polyline fill="none" points="124.966163165,500.333333333 144.216163165,495.150658902 163.466163165,505.739741508 182.716163165,499.890829077 201.966163165,509.429653287 221.216163165,502.231547752 240.466163165,510.231547752 259.716163165,501.429653287 278.966163165,507.890829077 298.216163165,497.739741508 317.466163165,503.150658902 336.716163165,492.333333333 355.966163165,497.516007765 375.216163165,486.926925159 394.466163165,492.77583759 413.716163165,483.23701338 432.966163165,490.435118915 452.216163165,482.435118915 471.466163165,491.23701338 490.716163165,484.77583759 509.966163165,494.926925159 529.216163165,489.516007765 548.466163165,500.333333333 567.716163165,495.150658902 586.966163165,505.739741508" stroke="#000000" stroke-width="1" /><polyline fill="none" points="122.320508076,525.0 141.570508076,519.817325568 160.820508076,530.406408175 180.070508076,524.557495744 199.320508076,534.096319954 218.570508076,526.898214419 237.820508076,534.898214419 257.070508076,526.096319954 276.320508076,532.557495744 295.570508076,522.406408175 314.820508076,527.817325568 334.070508076,517.0 353.320508076,522.182674432 372.570508076,511.593591825 391.820508076,517.442504256 411.070508076,507.903680046 430.320508076,515.101785581 449.570508076,507.101785581 468.820508076,515.903680046 488.070508076,509.442504256 507.320508076,519.593591825 526.570508076,514.182674432 545.820508076,525.0 565.070508076,519.817325568 584.320508076,530.406408175" stroke="#000000" stroke-width="1" /><polyline fill="none" points="115.990179561,549.666666667 135.240179561,544.483992235 154.490179561,555.073074841 173.740179561,549.22416241 192.990179561,558.76298662 212.240179561,551.564881085 231.490179561,559.564881085 250.740179561,550.76298662 269.990179561,557.22416241 289.240179561,547.073074841 308.490179561,552.483992235 327.740179561,541.666666667 346.990179561,546.849341098 366.240179561,536.260258492 385.490179561,542.109170923 404.740179561,532.570346713 423.990179561,539.768452248 443.240179561,531.768452248 462.490179561,540.570346713 481.740179561,534.109170923 500.990179561,544.260258492 520.240179561,538.849341098 539.490179561,549.666666667 558.740179561,544.483992235 577.990179561,555.073074841" stroke="#000000" stroke-width="1" /><polyline fill="none" points="107.321858283,574.333333333 126.571858283,569.150658902 145.821858283,579.739741508 165.071858283,573.890829077 184.321858283,583.429653287 203.571858283,576.231547752 222.821858283,584.231547752 242.071858283,575.429653287 261.321858283,581.890829077 280.571858283,571.739741508 299.821858283,577.150658902 319.071858283,566.333333333 338.321858283,571.516007765 357.571858283,560.926925159 376.821858283,566.77583759 396.071858283,557.23701338 415.321858283,564.435118915 434.571858283,556.435118915 453.821858283,565.23701338 473.071858283,558.77583759 492.321858283,568.926925159 511.571858283,563.516007765 530.821858283,574.333333333 550.071858283,569.150658902 569.321858283,579.739741508" stroke="#000000" stroke-width="1" /><polyline fill="none" points="98.1595971335,599.0 117.409597133,593.817325568 136.659597133,604.406408175 155.909597133,598.557495744 175.159597133,608.096319954 194.409597133,600.898214419 213.659597133,608.898214419 232.909597133,600.096319954 252.159597133,606.557495744 271.409597133,596.406408175 290.659597133,601.817325568 309.909597133,591.0 329.159597133,596.182674432 348.409597133,585.593591825 367.659597133,591.442504256 386.909597133,581.903680046 406.159597133,589.101785581 425.409597133,581.101785581 444.659597133,589.903680046 463.909597133,583.442504256 483.159597133,593.593591825 502.409597133,588.182674432 521.659597133,599.0 540.909597133,593.817325568 560.159597133,604.406408175" stroke="#000000" stroke-width="1" /><polyline fill="none" points="90.4525271685,623.666666667 109.702527169,618.483992235 128.952527169,629.073074841 148.202527169,623.22416241 167.452527169,632.76298662 186.702527169,625.564881085 205.952527169,633.564881085 225.202527169,624.76298662 244.452527169,631.22416241 263.702527169,621.073074841 282.952527169,626.483992235 302.202527169,615.666666667 321.452527169,620.849341098 340.702527169,610.260258492 359.952527169,616.109170923 379.202527169,606.570346713 398.452527169,613.768452248 417.702527169,605.768452248 436.952527169,614.570346713 456.202527169,608.109170923 475.452527169,618.260258492 494.702527169,612.849341098 513.952527169,623.666666667 533.202527169,618.483992235 552.452527169,629.073074841" stroke="#000000" stroke-width="1" /><polyline fill="none" points="85.8402097537,648.333333333 105.090209754,643.150658902 124.340209754,653.739741508 143.590209754,647.890829077 162.840209754,657.429653287 182.090209754,650.231547752 201.340209754,658.231547752 220.590209754,649.429653287 239.840209754,655.890829077 259.090209754,645.739741508 278.340209754,651.150658902 297.590209754,640.333333333 316.840209754,645.516007765 336.090209754,634.926925159 355.340209754,640.77583759 374.590209754,631.23701338 393.840209754,638.435118915 413.090209754,630.435118915 432.340209754,639.23701338 451.590209754,632.77583759 470.840209754,642.926925159 490.090209754,637.516007765 509.340209754,648.333333333 528.590209754,643.150658902 547.840209754,653.739741508" stroke="#000000" stroke-width="1" /><polyline fill="none" points="85.3038449398,673.0 104.55384494,667.817325568 123.80384494,678.406408175 143.05384494,672.557495744 162.30384494,682.096319954 181.55384494,674.898214419 200.80384494,682.898214419 220.05384494,674.096319954 239.30384494,680.557495744 258.55384494,670.406408175 277.80384494,675.817325568 297.05384494,665.0 316.30384494,670.182674432 335.55384494,659.593591825 354.80384494,665.442504256 374.05384494,655.903680046 393.30384494,663.101785581 412.55384494,655.101785581 431.80384494,663.903680046 451.05384494,657.442504256 470.30384494,667.593591825 489.55384494,662.182674432 508.80384494,673.0 528.05384494,667.817325568 547.30384494,678.406408175" stroke="#000000" stroke-width="1" /><polyline fill="none" points="88.9575361449,697.666666667 108.207536145,692.483992235 127.457536145,703.073074841 146.707536145,697.22416241 165.957536145,706.76298662 185.207536145,699.564881085 204.457536145,707.564881085 223.707536145,698.76298662 242.957536145,705.22416241 262.207536145,695.073074841 281.457536145,700.483992235 300.707536145,689.666666667 319.957536145,694.849341098 339.207536145,684.260258492 358.457536145,690.109170923 377.707536145,680.570346713 396.957536145,687.768452248 416.207536145,679.768452248 435.457536145,688.570346713 454.707536145,682.109170923 473.957536145,692.260258492 493.207536145,686.849341098 512.457536145,697.666666667 531.707536145,692.483992235 550.957536145,703.073074841" stroke="#000000" stroke-width="1" /><polyline fill="none" points="96.024016396,722.333333333 115.274016396,717.150658902 134.524016396,727.739741508 153.774016396,721.890829077 173.024016396,731.429653287 192.274016396,724.231547752 211.524016396,732.231547752 230.774016396,723.429653287 250.024016396,729.890829077 269.274016396,719.739741508 288.524016396,725.150658902 307.774016396,714.333333333 327.024016396,719.516007765 346.274016396,708.926925159 365.524016396,714.77583759 384.774016396,705.23701338 404.024016396,712.435118915 423.274016396,704.435118915 442.524016396,713.23701338 461.774016396,706.77583759 481.024016396,716.926925159 500.274016396,711.516007765 519.524016396,722.333333333 538.774016396,717.150658902 558.024016396,727.739741508" stroke="#000000" stroke-width="1" /><polyline fill="none" points="105.0,747.0 124.25,741.817325568 143.5,752.406408175 162.75,746.557495744 182.0,756.096319954 201.25,748.898214419 220.5,756.898214419 239.75,748.096319954 259.0,754.557495744 278.25,744.406408175 297.5,749.817325568 316.75,739.0 336.0,744.182674432 355.25,733.593591825 374.5,739.442504256 393.75,729.903680046 413.0,737.101785581 432.25,729.101785581 451.5,737.903680046 470.75,731.442504256 490.0,741.593591825 509.25,736.182674432 528.5,747.0 547.75,741.817325568 567.0,752.406408175" stroke="#000000" stroke-width="1" /></g><g id="labels"><text alignment-baseline="middle" font-size="14" text-anchor="middle" x="205.862317415" y="99.2315477521">7</text><text alignment-baseline="middle" font-size="14" text-anchor="middle" x="173.740179561" y="220.22416241">7</text><text alignment-baseline="middle" font-size="14" text-anchor="middle" x="540.909597133" y="264.817325568">7</text><text alignment-baseline="middle" font-size="14" text-anchor="middle" x="109.702527169" y="289.483992235">9</text><text alignment-baseline="middle" font-size="14" text-anchor="middle" x="148.202527169" y="294.22416241">3</text><text alignment-baseline="middle" font-size="14" text-anchor="middle" x="225.202527169" y="295.76298662">5</text><text alignment-baseline="middle" font-size="14" text-anchor="middle" x="263.702527169" y="292.073074841">7</text><text alignment-baseline="middle" font-size="14" text-anchor="middle" x="302.202527169" y="286.666666667">9</text><text alignment-baseline="middle" font-size="14" text-anchor="middle" x="340.702527169" y="281.260258492">3</text><text alignment-baseline="middle" font-size="14" text-anchor="middle" x="379.202527169" y="277.570346713">5</text><text alignment-baseline="middle" font-size="14" text-anchor="middle" x="143.590209754" y="318.890829077">8</text><text alignment-baseline="middle" font-size="14" text-anchor="middle" x="493.207536145" y="357.849341098">9</text><text alignment-baseline="middle" font-size="14" text-anchor="middle" x="115.274016396" y="388.150658902">4</text><text alignment-baseline="middle" font-size="14" text-anchor="middle" x="153.774016396" y="392.890829077">4</text><text alignment-baseline="middle" font-size="14" text-anchor="middle" x="192.274016396" y="395.231547752">4</text><text alignment-baseline="middle" font-size="14" text-anchor="middle" x="124.25" y="412.817325568">7</text><text alignment-baseline="middle" font-size="14" text-anchor="middle" x="432.25" y="400.101785581">8</text><text alignment-baseline="middle" font-size="14" text-anchor="middle" x="470.75" y="402.442504256">4</text><text alignment-baseline="middle" font-size="14" text-anchor="middle" x="547.75" y="412.817325568">5</text><text alignment-baseline="middle" font-size="14" text-anchor="middle" x="171.725983604" y="442.22416241">5</text><text alignment-baseline="middle" font-size="14" text-anchor="middle" x="210.225983604" y="444.564881085">8</text><text alignment-baseline="middle" font-size="14" text-anchor="middle" x="518.225983604" y="431.849341098">4</text><text alignment-baseline="middle" font-size="14" text-anchor="middle" x="140.292463855" y="462.150658902">8</text><text alignment-baseline="middle" font-size="14" text-anchor="middle" x="217.292463855" y="469.231547752">9</text><text alignment-baseline="middle" font-size="14" text-anchor="middle" x="255.792463855" y="468.429653287">8</text><text alignment-baseline="middle" font-size="14" text-anchor="middle" x="294.292463855" y="464.739741508">8</text><text alignment-baseline="middle" font-size="14" text-anchor="middle" x="332.792463855" y="459.333333333">8</text><text alignment-baseline="middle" font-size="14" text-anchor="middle" x="371.292463855" y="453.926925159">8</text><text alignment-baseline="middle" font-size="14" text-anchor="middle" x="409.792463855" y="450.23701338">9</text><text alignment-baseline="middle" font-size="14" text-anchor="middle" x="448.292463855" y="449.435118915">6</text><text alignment-baseline="middle" font-size="14" text-anchor="middle" x="486.792463855" y="451.77583759">6</text><text alignment-baseline="middle" font-size="14" text-anchor="middle" x="525.292463855" y="456.516007765">6</text><text alignment-baseline="middle" font-size="14" text-anchor="middle" x="563.792463855" y="462.150658902">8</text><text alignment-baseline="middle" font-size="14" text-anchor="middle" x="451.94615506" y="474.101785581">9</text><text alignment-baseline="middle" font-size="14" text-anchor="middle" x="490.44615506" y="476.442504256">8</text><text alignment-baseline="middle" font-size="14" text-anchor="middle" x="567.44615506" y="486.817325568">4</text><text alignment-baseline="middle" font-size="14" text-anchor="middle" x="143.409790246" y="511.483992235">2</text><text alignment-baseline="middle" font-size="14" text-anchor="middle" x="181.909790246" y="516.22416241">9</text><text alignment-baseline="middle" font-size="14" text-anchor="middle" x="258.909790246" y="517.76298662">6</text><text alignment-baseline="middle" font-size="14" text-anchor="middle" x="297.409790246" y="514.073074841">9</text><text alignment-baseline="middle" font-size="14" text-anchor="middle" x="215.797472831" y="543.231547752">6</text><text alignment-baseline="middle" font-size="14" text-anchor="middle" x="485.297472831" y="525.77583759">9</text><text alignment-baseline="middle" font-size="14" text-anchor="middle" x="246.590402867" y="567.096319954">9</text><text alignment-baseline="middle" font-size="14" text-anchor="middle" x="323.590402867" y="558.0">7</text><text alignment-baseline="middle" font-size="14" text-anchor="middle" x="362.090402867" y="552.593591825">9</text><text alignment-baseline="middle" font-size="14" text-anchor="middle" x="400.590402867" y="548.903680046">4</text><text alignment-baseline="middle" font-size="14" text-anchor="middle" x="439.090402867" y="548.101785581">5</text><text alignment-baseline="middle" font-size="14" text-anchor="middle" x="554.590402867" y="560.817325568">9</text><text alignment-baseline="middle" font-size="14" text-anchor="middle" x="121.928141717" y="585.483992235">5</text><text alignment-baseline="middle" font-size="14" text-anchor="middle" x="160.428141717" y="590.22416241">6</text><text alignment-baseline="middle" font-size="14" text-anchor="middle" x="198.928141717" y="592.564881085">3</text><text alignment-baseline="middle" font-size="14" text-anchor="middle" x="237.428141717" y="591.76298662">2</text><text alignment-baseline="middle" font-size="14" text-anchor="middle" x="275.928141717" y="588.073074841">4</text><text alignment-baseline="middle" font-size="14" text-anchor="middle" x="314.428141717" y="582.666666667">4</text><text alignment-baseline="middle" font-size="14" text-anchor="middle" x="352.928141717" y="577.260258492">4</text><text alignment-baseline="middle" font-size="14" text-anchor="middle" x="391.428141717" y="573.570346713">8</text><text alignment-baseline="middle" font-size="14" text-anchor="middle" x="506.928141717" y="579.849341098">3</text><text alignment-baseline="middle" font-size="14" text-anchor="middle" x="222.429491924" y="641.096319954">7</text><text alignment-baseline="middle" font-size="14" text-anchor="middle" x="260.929491924" y="637.406408175">5</text><text alignment-baseline="middle" font-size="14" text-anchor="middle" x="299.429491924" y="632.0">5</text><text alignment-baseline="middle" font-size="14" text-anchor="middle" x="337.929491924" y="626.593591825">6</text><text alignment-baseline="middle" font-size="14" text-anchor="middle" x="376.429491924" y="622.903680046">6</text><text alignment-baseline="middle" font-size="14" text-anchor="middle" x="414.929491924" y="622.101785581">4</text><text alignment-baseline="middle" font-size="14" text-anchor="middle" x="453.429491924" y="624.442504256">5</text><text alignment-baseline="middle" font-size="14" text-anchor="middle" x="491.929491924" y="629.182674432">7</text><text alignment-baseline="middle" font-size="14" text-anchor="middle" x="258.283836835" y="662.073074841">6</text><text alignment-baseline="middle" font-size="14" text-anchor="middle" x="296.783836835" y="656.666666667">6</text><text alignment-baseline="middle" font-size="14" text-anchor="middle" x="335.283836835" y="651.260258492">7</text><text alignment-baseline="middle" font-size="14" text-anchor="middle" x="373.783836835" y="647.570346713">7</text><text alignment-baseline="middle" font-size="14" text-anchor="middle" x="412.283836835" y="646.768452248">7</text><text alignment-baseline="middle" font-size="14" text-anchor="middle" x="450.783836835" y="649.109170923">7</text><text alignment-baseline="middle" font-size="14" text-anchor="middle" x="489.283836835" y="653.849341098">2</text><text alignment-baseline="middle" font-size="14" text-anchor="middle" x="527.783836835" y="659.483992235">6</text><text alignment-baseline="middle" font-size="14" text-anchor="middle" x="105.885677862" y="684.150658902">6</text><text alignment-baseline="middle" font-size="14" text-anchor="middle" x="182.885677862" y="691.231547752">5</text><text alignment-baseline="middle" font-size="14" text-anchor="middle" x="221.385677862" y="690.429653287">3</text><text alignment-baseline="middle" font-size="14" text-anchor="middle" x="259.885677862" y="686.739741508">3</text><text alignment-baseline="middle" font-size="14" text-anchor="middle" x="298.385677862" y="681.333333333">3</text><text alignment-baseline="middle" font-size="14" text-anchor="middle" x="336.885677862" y="675.926925159">5</text><text alignment-baseline="middle" font-size="14" text-anchor="middle" x="375.385677862" y="672.23701338">3</text><text alignment-baseline="middle" font-size="14" text-anchor="middle" x="413.885677862" y="671.435118915">3</text><text alignment-baseline="middle" font-size="14" text-anchor="middle" x="452.385677862" y="673.77583759">2</text><text alignment-baseline="middle" font-size="14" text-anchor="middle" x="490.885677862" y="678.516007765">8</text><text alignment-baseline="middle" font-size="14" text-anchor="middle" x="529.385677862" y="684.150658902">2</text><text alignment-baseline="middle" font-size="14" text-anchor="middle" x="111.394247806" y="708.817325568">3</text><text alignment-baseline="middle" font-size="14" text-anchor="middle" x="149.894247806" y="713.557495744">2</text><text alignment-baseline="middle" font-size="14" text-anchor="middle" x="188.394247806" y="715.898214419">2</text><text alignment-baseline="middle" font-size="14" text-anchor="middle" x="226.894247806" y="715.096319954">4</text><text alignment-baseline="middle" font-size="14" text-anchor="middle" x="265.394247806" y="711.406408175">2</text><text alignment-baseline="middle" font-size="14" text-anchor="middle" x="303.894247806" y="706.0">2</text><text alignment-baseline="middle" font-size="14" text-anchor="middle" x="342.394247806" y="700.593591825">2</text><text alignment-baseline="middle" font-size="14" text-anchor="middle" x="380.894247806" y="696.903680046">2</text><text alignment-baseline="middle" font-size="14" text-anchor="middle" x="419.394247806" y="696.101785581">1</text><text alignment-baseline="middle" font-size="14" text-anchor="middle" x="457.894247806" y="698.442504256">1</text><text alignment-baseline="middle" font-size="14" text-anchor="middle" x="496.394247806" y="703.182674432">1</text><text alignment-baseline="middle" font-size="14" text-anchor="middle" x="534.894247806" y="708.817325568">1</text><text alignment-baseline="middle" font-size="14" text-anchor="middle" x="119.637682585" y="733.483992235">1</text><text alignment-baseline="middle" font-size="14" text-anchor="middle" x="158.137682585" y="738.22416241">1</text><text alignment-baseline="middle" font-size="14" text-anchor="middle" x="196.637682585" y="740.564881085">1</text><text alignment-baseline="middle" font-size="14" text-anchor="middle" x="235.137682585" y="739.76298662">1</text><text alignment-baseline="middle" font-size="14" text-anchor="middle" x="273.637682585" y="736.073074841">1</text><text alignment-baseline="middle" font-size="14" text-anchor="middle" x="312.137682585" y="730.666666667">1</text><text alignment-baseline="middle" font-size="14" text-anchor="middle" x="350.637682585" y="725.260258492">1</text><text alignment-baseline="middle" font-size="14" text-anchor="middle" x="389.137682585" y="721.570346713">1</text><text alignment-baseline="middle" font-size="14" text-anchor="middle" x="427.637682585" y="720.768452248">2</text><text alignment-baseline="middle" font-size="14" text-anchor="middle" x="466.137682585" y="723.109170923">3</text><text alignment-baseline="middle" font-size="14" text-anchor="middle" x="504.637682585" y="727.849341098">5</text><text alignment-baseline="middle" font-size="14" text-anchor="middle" x="543.137682585" y="733.483992235">3</text></g></svg>