<?xml version="1.0" encoding="utf-8" ?>
<svg baseProfile="full" height="1385.0" version="1.1" width="1050.0" xmlns="http://www.w3.org/2000/svg" xmlns:ev="http://www.w3.org/2001/xml-events" xmlns:xlink="http://www.w3.org/1999/xlink"><defs /><g id="xaxis"><text alignment-baseline="middle" font-size="14" text-anchor="middle" x="193.333333333" y="79.3548387097">Jan</text><text alignment-baseline="middle" font-size="14" text-anchor="middle" x="260.0" y="87.4644509715">Feb</text><text alignment-baseline="middle" font-size="14" text-anchor="middle" x="326.666666667" y="92.99931864">Mar</text><text alignment-baseline="middle" font-size="14" text-anchor="middle" x="393.333333333" y="94.2021603379">Apr</text><text alignment-baseline="middle" font-size="14" text-anchor="middle" x="460.0" y="90.691082325">May</text><text alignment-baseline="middle" font-size="14" text-anchor="middle" x="526.666666667" y="83.5808270623">Jun</text><text alignment-baseline="middle" font-size="14" text-anchor="middle" x="593.333333333" y="75.1288503571">Jul</text><text alignment-baseline="middle" font-size="14" text-anchor="middle" x="660.0" y="68.0185950944">Aug</text><text alignment-baseline="middle" font-size="14" text-anchor="middle" x="726.666666667" y="64.5075170815">Sep</text><text alignment-baseline="middle" font-size="14" text-anchor="middle" x="793.333333333" y="65.7103587794">Oct</text><text alignment-baseline="middle" font-size="14" text-anchor="middle" x="860.0" y="71.2452264478">Nov</text><text alignment-baseline="middle" font-size="14" text-anchor="middle" x="926.666666667" y="79.3548387097">Dec</text></g><g id="yaxis"><text alignment-baseline="middle" font-size="14" text-anchor="middle" x="110.0" y="129.35483871">1986</text><text alignment-baseline="middle" font-size="14" text-anchor="middle" x="121.830675653" y="168.064516129">1987</text><text alignment-baseline="middle" font-size="14" text-anchor="middle" x="131.743783617" y="206.774193548">1988</text><text alignment-baseline="middle" font-size="14" text-anchor="middle" x="138.132563964" y="245.483870968">1989</text><text alignment-baseline="middle" font-size="14" text-anchor="middle" x="139.961495215" y="284.193548387">1990</text><text alignment-baseline="middle" font-size="14" text-anchor="middle" x="136.934136187" y="322.903225806">1991</text><text alignment-baseline="middle" font-size="14" text-anchor="middle" x="129.541174482" y="361.612903226">1992</text><text alignment-baseline="middle" font-size="14" text-anchor="middle" x="118.980893689" y="400.322580645">1993</text><text alignment-baseline="middle" font-size="14" text-anchor="middle" x="106.96495034" y="439.032258065">1994</text><text alignment-baseline="middle" font-size="14" text-anchor="middle" x="95.4409411241" y="477.741935484">1995</text><text alignment-baseline="middle" font-size="14" text-anchor="middle" x="86.2767278919" y="516.451612903">1996</text><text alignment-baseline="middle" font-size="14" text-anchor="middle" x="80.957686434" y="555.161290323">1997</text><text alignment-baseline="middle" font-size="14" text-anchor="middle" x="80.3459502702" y="593.870967742">1998</text><text alignment-baseline="middle" font-size="14" text-anchor="middle" x="84.5406722752" y="632.580645161">1999</text><text alignment-baseline="middle" font-size="14" text-anchor="middle" x="92.8619535472" y="671.290322581">2000</text><text alignment-baseline="middle" font-size="14" text-anchor="middle" x="103.961044397" y="710.0">2001</text><text alignment-baseline="middle" font-size="14" text-anchor="middle" x="116.038955603" y="748.709677419">2002</text><text alignment-baseline="middle" font-size="14" text-anchor="middle" x="127.138046453" y="787.419354839">2003</text><text alignment-baseline="middle" font-size="14" text-anchor="middle" x="135.459327725" y="826.129032258">2004</text><text alignment-baseline="middle" font-size="14" text-anchor="middle" x="139.65404973" y="864.838709677">2005</text><text alignment-baseline="middle" font-size="14" text-anchor="middle" x="139.042313566" y="903.548387097">2006</text><text alignment-baseline="middle" font-size="14" text-anchor="middle" x="133.723272108" y="942.258064516">2007</text><text alignment-baseline="middle" font-size="14" text-anchor="middle" x="124.559058876" y="980.967741935">2008</text><text alignment-baseline="middle" font-size="14" text-anchor="middle" x="113.03504966" y="1019.67741935">2009</text><text alignment-baseline="middle" font-size="14" text-anchor="middle" x="101.019106311" y="1058.38709677">2010</text><text alignment-baseline="middle" font-size="14" text-anchor="middle" x="90.4588255183" y="1097.09677419">2011</text><text alignment-baseline="middle" font-size="14" text-anchor="middle" x="83.0658638129" y="1135.80645161">2012</text><text alignment-baseline="middle" font-size="14" text-anchor="middle" x="80.0385047849" y="1174.51612903">2013</text><text alignment-baseline="middle" font-size="14" text-anchor="middle" x="81.8674360356" y="1213.22580645">2014</text><text alignment-baseline="middle" font-size="14" text-anchor="middle" x="88.2562163831" y="1251.93548387">2015</text><text alignment-baseline="middle" font-size="14" text-anchor="middle" x="98.1693243466" y="1290.64516129">2016</text></g><g id="xgrid"><polyline fill="none" points="160.0,110.0 171.830675653,148.709677419 181.743783617,187.419354839 188.132563964,226.129032258 189.961495215,264.838709677 186.934136187,303.548387097 179.541174482,342.258064516 168.980893689,380.967741935 156.96495034,419.677419355 145.440941124,458.387096774 136.276727892,497.096774194 130.957686434,535.806451613 130.34595027,574.516129032 134.540672275,613.225806452 142.861953547,651.935483871 153.961044397,690.64516129 166.038955603,729.35483871 177.138046453,768.064516129 185.459327725,806.774193548 189.65404973,845.483870968 189.042313566,884.193548387 183.723272108,922.903225806 174.559058876,961.612903226 163.03504966,1000.32258065 151.019106311,1039.03225806 140.458825518,1077.74193548 133.065863813,1116.4516129 130.038504785,1155.16129032 131.867436036,1193.87096774 138.256216383,1232.58064516 148.169324347,1271.29032258 160.0,1310.0" stroke="#000000" stroke-width="2" /><polyline fill="none" points="226.666666667,118.109612262 238.49734232,156.819289681 248.410450284,195.528967101 254.799230631,234.23864452 256.628161882,272.948321939 253.600802854,311.657999359 246.207841148,350.367676778 235.647560356,389.077354197 223.631617007,427.787031617 212.107607791,466.496709036 202.943394559,505.206386455 197.624353101,543.916063875 197.012616937,582.625741294 201.207338942,621.335418713 209.528620214,660.045096133 220.627711064,698.754773552 232.705622269,737.464450972 243.80471312,776.174128391 252.125994392,814.88380581 256.320716397,853.59348323 255.708980233,892.303160649 250.389938775,931.012838068 241.225725543,969.722515488 229.701716326,1008.43219291 217.685772977,1047.14187033 207.125492185,1085.85154775 199.73253048,1124.56122517 196.705171452,1163.27090258 198.534102702,1201.98058 204.92288305,1240.69025742 214.835991013,1279.39993484 226.666666667,1318.10961226" stroke="#000000" stroke-width="2" /><polyline fill="none" points="293.333333333,123.64447993 305.164008987,162.35415735 315.07711695,201.063834769 321.465897298,239.773512188 323.294828548,278.483189608 320.26746952,317.192867027 312.874507815,355.902544446 302.314227023,394.612221866 290.298283674,433.321899285 278.774274457,472.031576705 269.610061225,510.741254124 264.291019767,549.450931543 263.679283603,588.160608963 267.874005608,626.870286382 276.19528688,665.579963801 287.294377731,704.289641221 299.372288936,742.99931864 310.471379786,781.708996059 318.792661058,820.418673479 322.987383063,859.128350898 322.375646899,897.838028317 317.056605441,936.547705737 307.892392209,975.257383156 296.368382993,1013.96706058 284.352439644,1052.67673799 273.792158852,1091.38641541 266.399197146,1130.09609283 263.371838118,1168.80577025 265.200769369,1207.51544767 271.589549716,1246.22512509 281.50265768,1284.93480251 293.333333333,1323.64447993" stroke="#000000" stroke-width="2" /><polyline fill="none" points="360.0,124.847321628 371.830675653,163.556999048 381.743783617,202.266676467 388.132563964,240.976353886 389.961495215,279.686031306 386.934136187,318.395708725 379.541174482,357.105386144 368.980893689,395.815063564 356.96495034,434.524740983 345.440941124,473.234418402 336.276727892,511.944095822 330.957686434,550.653773241 330.34595027,589.36345066 334.540672275,628.07312808 342.861953547,666.782805499 353.961044397,705.492482919 366.038955603,744.202160338 377.138046453,782.911837757 385.459327725,821.621515177 389.65404973,860.331192596 389.042313566,899.040870015 383.723272108,937.750547435 374.559058876,976.460224854 363.03504966,1015.16990227 351.019106311,1053.87957969 340.458825518,1092.58925711 333.065863813,1131.29893453 330.038504785,1170.00861195 331.867436036,1208.71828937 338.256216383,1247.42796679 348.169324347,1286.13764421 360.0,1324.84732163" stroke="#000000" stroke-width="2" /><polyline fill="none" points="426.666666667,121.336243615 438.49734232,160.045921035 448.410450284,198.755598454 454.799230631,237.465275873 456.628161882,276.174953293 453.600802854,314.884630712 446.207841148,353.594308131 435.647560356,392.303985551 423.631617007,431.01366297 412.107607791,469.72334039 402.943394559,508.433017809 397.624353101,547.142695228 397.012616937,585.852372648 401.207338942,624.562050067 409.528620214,663.271727486 420.627711064,701.981404906 432.705622269,740.691082325 443.80471312,779.400759744 452.125994392,818.110437164 456.320716397,856.820114583 455.708980233,895.529792002 450.389938775,934.239469422 441.225725543,972.949146841 429.701716326,1011.65882426 417.685772977,1050.36850168 407.125492185,1089.0781791 399.73253048,1127.78785652 396.705171452,1166.49753394 398.534102702,1205.20721136 404.92288305,1243.91688878 414.835991013,1282.6265662 426.666666667,1321.33624362" stroke="#000000" stroke-width="2" /><polyline fill="none" points="493.333333333,114.225988353 505.164008987,152.935665772 515.07711695,191.645343191 521.465897298,230.355020611 523.294828548,269.06469803 520.26746952,307.774375449 512.874507815,346.484052869 502.314227023,385.193730288 490.298283674,423.903407707 478.774274457,462.613085127 469.610061225,501.322762546 464.291019767,540.032439966 463.679283603,578.742117385 467.874005608,617.451794804 476.19528688,656.161472224 487.294377731,694.871149643 499.372288936,733.580827062 510.471379786,772.290504482 518.792661058,811.000181901 522.987383063,849.70985932 522.375646899,888.41953674 517.056605441,927.129214159 507.892392209,965.838891578 496.368382993,1004.548569 484.352439644,1043.25824642 473.792158852,1081.96792384 466.399197146,1120.67760126 463.371838118,1159.38727868 465.200769369,1198.09695609 471.589549716,1236.80663351 481.50265768,1275.51631093 493.333333333,1314.22598835" stroke="#000000" stroke-width="2" /><polyline fill="none" points="560.0,105.774011647 571.830675653,144.483689067 581.743783617,183.193366486 588.132563964,221.903043905 589.961495215,260.612721325 586.934136187,299.322398744 579.541174482,338.032076164 568.980893689,376.741753583 556.96495034,415.451431002 545.440941124,454.161108422 536.276727892,492.870785841 530.957686434,531.58046326 530.34595027,570.29014068 534.540672275,608.999818099 542.861953547,647.709495518 553.961044397,686.419172938 566.038955603,725.128850357 577.138046453,763.838527776 585.459327725,802.548205196 589.65404973,841.257882615 589.042313566,879.967560034 583.723272108,918.677237454 574.559058876,957.386914873 563.03504966,996.096592293 551.019106311,1034.80626971 540.458825518,1073.51594713 533.065863813,1112.22562455 530.038504785,1150.93530197 531.867436036,1189.64497939 538.256216383,1228.35465681 548.169324347,1267.06433423 560.0,1305.77401165" stroke="#000000" stroke-width="2" /><polyline fill="none" points="626.666666667,98.6637563847 638.49734232,137.373433804 648.410450284,176.083111223 654.799230631,214.792788643 656.628161882,253.502466062 653.600802854,292.212143481 646.207841148,330.921820901 635.647560356,369.63149832 623.631617007,408.34117574 612.107607791,447.050853159 602.943394559,485.760530578 597.624353101,524.470207998 597.012616937,563.179885417 601.207338942,601.889562836 609.528620214,640.599240256 620.627711064,679.308917675 632.705622269,718.018595094 643.80471312,756.728272514 652.125994392,795.437949933 656.320716397,834.147627352 655.708980233,872.857304772 650.389938775,911.566982191 641.225725543,950.27665961 629.701716326,988.98633703 617.685772977,1027.69601445 607.125492185,1066.40569187 599.73253048,1105.11536929 596.705171452,1143.82504671 598.534102702,1182.53472413 604.92288305,1221.24440155 614.835991013,1259.95407897 626.666666667,1298.66375638" stroke="#000000" stroke-width="2" /><polyline fill="none" points="693.333333333,95.1526783718 705.164008987,133.862355791 715.07711695,172.57203321 721.465897298,211.28171063 723.294828548,249.991388049 720.26746952,288.701065469 712.874507815,327.410742888 702.314227023,366.120420307 690.298283674,404.830097727 678.774274457,443.539775146 669.610061225,482.249452565 664.291019767,520.959129985 663.679283603,559.668807404 667.874005608,598.378484823 676.19528688,637.088162243 687.294377731,675.797839662 699.372288936,714.507517081 710.471379786,753.217194501 718.792661058,791.92687192 722.987383063,830.63654934 722.375646899,869.346226759 717.056605441,908.055904178 707.892392209,946.765581598 696.368382993,985.475259017 684.352439644,1024.18493644 673.792158852,1062.89461386 666.399197146,1101.60429128 663.371838118,1140.31396869 665.200769369,1179.02364611 671.589549716,1217.73332353 681.50265768,1256.44300095 693.333333333,1295.15267837" stroke="#000000" stroke-width="2" /><polyline fill="none" points="760.0,96.3555200697 771.830675653,135.065197489 781.743783617,173.774874908 788.132563964,212.484552328 789.961495215,251.194229747 786.934136187,289.903907166 779.541174482,328.613584586 768.980893689,367.323262005 756.96495034,406.032939425 745.440941124,444.742616844 736.276727892,483.452294263 730.957686434,522.161971683 730.34595027,560.871649102 734.540672275,599.581326521 742.861953547,638.291003941 753.961044397,677.00068136 766.038955603,715.710358779 777.138046453,754.420036199 785.459327725,793.129713618 789.65404973,831.839391037 789.042313566,870.549068457 783.723272108,909.258745876 774.559058876,947.968423295 763.03504966,986.678100715 751.019106311,1025.38777813 740.458825518,1064.09745555 733.065863813,1102.80713297 730.038504785,1141.51681039 731.867436036,1180.22648781 738.256216383,1218.93616523 748.169324347,1257.64584265 760.0,1296.35552007" stroke="#000000" stroke-width="2" /><polyline fill="none" points="826.666666667,101.890387738 838.49734232,140.600065158 848.410450284,179.309742577 854.799230631,218.019419996 856.628161882,256.729097416 853.600802854,295.438774835 846.207841148,334.148452254 835.647560356,372.858129674 823.631617007,411.567807093 812.107607791,450.277484512 802.943394559,488.987161932 797.624353101,527.696839351 797.012616937,566.40651677 801.207338942,605.11619419 809.528620214,643.825871609 820.627711064,682.535549028 832.705622269,721.245226448 843.80471312,759.954903867 852.125994392,798.664581287 856.320716397,837.374258706 855.708980233,876.083936125 850.389938775,914.793613545 841.225725543,953.503290964 829.701716326,992.212968383 817.685772977,1030.9226458 807.125492185,1069.63232322 799.73253048,1108.34200064 796.705171452,1147.05167806 798.534102702,1185.76135548 804.92288305,1224.4710329 814.835991013,1263.18071032 826.666666667,1301.89038774" stroke="#000000" stroke-width="2" /><polyline fill="none" points="893.333333333,110.0 905.164008987,148.709677419 915.07711695,187.419354839 921.465897298,226.129032258 923.294828548,264.838709677 920.26746952,303.548387097 912.874507815,342.258064516 902.314227023,380.967741935 890.298283674,419.677419355 878.774274457,458.387096774 869.610061225,497.096774194 864.291019767,535.806451613 863.679283603,574.516129032 867.874005608,613.225806452 876.19528688,651.935483871 887.294377731,690.64516129 899.372288936,729.35483871 910.471379786,768.064516129 918.792661058,806.774193548 922.987383063,845.483870968 922.375646899,884.193548387 917.056605441,922.903225806 907.892392209,961.612903226 896.368382993,1000.32258065 884.352439644,1039.03225806 873.792158852,1077.74193548 866.399197146,1116.4516129 863.371838118,1155.16129032 865.200769369,1193.87096774 871.589549716,1232.58064516 881.50265768,1271.29032258 893.333333333,1310.0" stroke="#000000" stroke-width="2" /><polyline fill="none" points="960.0,118.109612262 971.830675653,156.819289681 981.743783617,195.528967101 988.132563964,234.23864452 989.961495215,272.948321939 986.934136187,311.657999359 979.541174482,350.367676778 968.980893689,389.077354197 956.96495034,427.787031617 945.440941124,466.496709036 936.276727892,505.206386455 930.957686434,543.916063875 930.34595027,582.625741294 934.540672275,621.335418713 942.861953547,660.045096133 953.961044397,698.754773552 966.038955603,737.464450972 977.138046453,776.174128391 985.459327725,814.88380581 989.65404973,853.59348323 989.042313566,892.303160649 983.723272108,931.012838068 974.559058876,969.722515488 963.03504966,1008.43219291 951.019106311,1047.14187033 940.458825518,1085.85154775 933.065863813,1124.56122517 930.038504785,1163.27090258 931.867436036,1201.98058 938.256216383,1240.69025742 948.169324347,1279.39993484 960.0,1318.10961226" stroke="#000000" stroke-width="2" /></g><g id="ygrid"><polyline fill="none" points="160.0,110.0 193.333333333,99.2259883526 226.666666667,118.109612262 260.0,106.336243615 293.333333333,123.64447993 326.666666667,109.847321628 360.0,124.847321628 393.333333333,108.64447993 426.666666667,121.336243615 460.0,103.109612262 493.333333333,114.225988353 526.666666667,95.0 560.0,105.774011647 593.333333333,86.8903877382 626.666666667,98.6637563847 660.0,81.3555200697 693.333333333,95.1526783718 726.666666667,80.1526783718 760.0,96.3555200697 793.333333333,83.6637563847 826.666666667,101.890387738 860.0,90.7740116474 893.333333333,110.0 926.666666667,99.2259883526 960.0,118.109612262" stroke="#000000" stroke-width="1" /><polyline fill="none" points="171.830675653,148.709677419 205.164008987,137.935665772 238.49734232,156.819289681 271.830675653,145.045921035 305.164008987,162.35415735 338.49734232,148.556999048 371.830675653,163.556999048 405.164008987,147.35415735 438.49734232,160.045921035 471.830675653,141.819289681 505.164008987,152.935665772 538.49734232,133.709677419 571.830675653,144.483689067 605.164008987,125.600065158 638.49734232,137.373433804 671.830675653,120.065197489 705.164008987,133.862355791 738.49734232,118.862355791 771.830675653,135.065197489 805.164008987,122.373433804 838.49734232,140.600065158 871.830675653,129.483689067 905.164008987,148.709677419 938.49734232,137.935665772 971.830675653,156.819289681" stroke="#000000" stroke-width="1" /><polyline fill="none" points="181.743783617,187.419354839 215.07711695,176.645343191 248.410450284,195.528967101 281.743783617,183.755598454 315.07711695,201.063834769 348.410450284,187.266676467 381.743783617,202.266676467 415.07711695,186.063834769 448.410450284,198.755598454 481.743783617,180.528967101 515.07711695,191.645343191 548.410450284,172.419354839 581.743783617,183.193366486 615.07711695,164.309742577 648.410450284,176.083111223 681.743783617,158.774874908 715.07711695,172.57203321 748.410450284,157.57203321 781.743783617,173.774874908 815.07711695,161.083111223 848.410450284,179.309742577 881.743783617,168.193366486 915.07711695,187.419354839 948.410450284,176.645343191 981.743783617,195.528967101" stroke="#000000" stroke-width="1" /><polyline fill="none" points="188.132563964,226.129032258 221.465897298,215.355020611 254.799230631,234.23864452 288.132563964,222.465275873 321.465897298,239.773512188 354.799230631,225.976353886 388.132563964,240.976353886 421.465897298,224.773512188 454.799230631,237.465275873 488.132563964,219.23864452 521.465897298,230.355020611 554.799230631,211.129032258 588.132563964,221.903043905 621.465897298,203.019419996 654.799230631,214.792788643 688.132563964,197.484552328 721.465897298,211.28171063 754.799230631,196.28171063 788.132563964,212.484552328 821.465897298,199.792788643 854.799230631,218.019419996 888.132563964,206.903043905 921.465897298,226.129032258 954.799230631,215.355020611 988.132563964,234.23864452" stroke="#000000" stroke-width="1" /><polyline fill="none" points="189.961495215,264.838709677 223.294828548,254.06469803 256.628161882,272.948321939 289.961495215,261.174953293 323.294828548,278.483189608 356.628161882,264.686031306 389.961495215,279.686031306 423.294828548,263.483189608 456.628161882,276.174953293 489.961495215,257.948321939 523.294828548,269.06469803 556.628161882,249.838709677 589.961495215,260.612721325 623.294828548,241.729097416 656.628161882,253.502466062 689.961495215,236.194229747 723.294828548,249.991388049 756.628161882,234.991388049 789.961495215,251.194229747 823.294828548,238.502466062 856.628161882,256.729097416 889.961495215,245.612721325 923.294828548,264.838709677 956.628161882,254.06469803 989.961495215,272.948321939" stroke="#000000" stroke-width="1" /><polyline fill="none" points="186.934136187,303.548387097 220.26746952,292.774375449 253.600802854,311.657999359 286.934136187,299.884630712 320.26746952,317.192867027 353.600802854,303.395708725 386.934136187,318.395708725 420.26746952,302.192867027 453.600802854,314.884630712 486.934136187,296.657999359 520.26746952,307.774375449 553.600802854,288.548387097 586.934136187,299.322398744 620.26746952,280.438774835 653.600802854,292.212143481 686.934136187,274.903907166 720.26746952,288.701065469 753.600802854,273.701065469 786.934136187,289.903907166 820.26746952,277.212143481 853.600802854,295.438774835 886.934136187,284.322398744 920.26746952,303.548387097 953.600802854,292.774375449 986.934136187,311.657999359" stroke="#000000" stroke-width="1" /><polyline fill="none" points="179.541174482,342.258064516 212.874507815,331.484052869 246.207841148,350.367676778 279.541174482,338.594308131 312.874507815,355.902544446 346.207841148,342.105386144 379.541174482,357.105386144 412.874507815,340.902544446 446.207841148,353.594308131 479.541174482,335.367676778 512.874507815,346.484052869 546.207841148,327.258064516 579.541174482,338.032076164 612.874507815,319.148452254 646.207841148,330.921820901 679.541174482,313.613584586 712.874507815,327.410742888 746.207841148,312.410742888 779.541174482,328.613584586 812.874507815,315.921820901 846.207841148,334.148452254 879.541174482,323.032076164 912.874507815,342.258064516 946.207841148,331.484052869 979.541174482,350.367676778" stroke="#000000" stroke-width="1" /><polyline fill="none" points="168.980893689,380.967741935 202.314227023,370.193730288 235.647560356,389.077354197 268.980893689,377.303985551 302.314227023,394.612221866 335.647560356,380.815063564 368.980893689,395.815063564 402.314227023,379.612221866 435.647560356,392.303985551 468.980893689,374.077354197 502.314227023,385.193730288 535.647560356,365.967741935 568.980893689,376.741753583 602.314227023,357.858129674 635.647560356,369.63149832 668.980893689,352.323262005 702.314227023,366.120420307 735.647560356,351.120420307 768.980893689,367.323262005 802.314227023,354.63149832 835.647560356,372.858129674 868.980893689,361.741753583 902.314227023,380.967741935 935.647560356,370.193730288 968.980893689,389.077354197" stroke="#000000" stroke-width="1" /><polyline fill="none" points="156.96495034,419.677419355 190.298283674,408.903407707 223.631617007,427.787031617 256.96495034,416.01366297 290.298283674,433.321899285 323.631617007,419.524740983 356.96495034,434.524740983 390.298283674,418.321899285 423.631617007,431.01366297 456.96495034,412.787031617 490.298283674,423.903407707 523.631617007,404.677419355 556.96495034,415.451431002 590.298283674,396.567807093 623.631617007,408.34117574 656.96495034,391.032939425 690.298283674,404.830097727 723.631617007,389.830097727 756.96495034,406.032939425 790.298283674,393.34117574 823.631617007,411.567807093 856.96495034,400.451431002 890.298283674,419.677419355 923.631617007,408.903407707 956.96495034,427.787031617" stroke="#000000" stroke-width="1" /><polyline fill="none" points="145.440941124,458.387096774 178.774274457,447.613085127 212.107607791,466.496709036 245.440941124,454.72334039 278.774274457,472.031576705 312.107607791,458.234418402 345.440941124,473.234418402 378.774274457,457.031576705 412.107607791,469.72334039 445.440941124,451.496709036 478.774274457,462.613085127 512.107607791,443.387096774 545.440941124,454.161108422 578.774274457,435.277484512 612.107607791,447.050853159 645.440941124,429.742616844 678.774274457,443.539775146 712.107607791,428.539775146 745.440941124,444.742616844 778.774274457,432.050853159 812.107607791,450.277484512 845.440941124,439.161108422 878.774274457,458.387096774 912.107607791,447.613085127 945.440941124,466.496709036" stroke="#000000" stroke-width="1" /><polyline fill="none" points="136.276727892,497.096774194 169.610061225,486.322762546 202.943394559,505.206386455 236.276727892,493.433017809 269.610061225,510.741254124 302.943394559,496.944095822 336.276727892,511.944095822 369.610061225,495.741254124 402.943394559,508.433017809 436.276727892,490.206386455 469.610061225,501.322762546 502.943394559,482.096774194 536.276727892,492.870785841 569.610061225,473.987161932 602.943394559,485.760530578 636.276727892,468.452294263 669.610061225,482.249452565 702.943394559,467.249452565 736.276727892,483.452294263 769.610061225,470.760530578 802.943394559,488.987161932 836.276727892,477.870785841 869.610061225,497.096774194 902.943394559,486.322762546 936.276727892,505.206386455" stroke="#000000" stroke-width="1" /><polyline fill="none" points="130.957686434,535.806451613 164.291019767,525.032439966 197.624353101,543.916063875 230.957686434,532.142695228 264.291019767,549.450931543 297.624353101,535.653773241 330.957686434,550.653773241 364.291019767,534.450931543 397.624353101,547.142695228 430.957686434,528.916063875 464.291019767,540.032439966 497.624353101,520.806451613 530.957686434,531.58046326 564.291019767,512.696839351 597.624353101,524.470207998 630.957686434,507.161971683 664.291019767,520.959129985 697.624353101,505.959129985 730.957686434,522.161971683 764.291019767,509.470207998 797.624353101,527.696839351 830.957686434,516.58046326 864.291019767,535.806451613 897.624353101,525.032439966 930.957686434,543.916063875" stroke="#000000" stroke-width="1" /><polyline fill="none" points="130.34595027,574.516129032 163.679283603,563.742117385 197.012616937,582.625741294 230.34595027,570.852372648 263.679283603,588.160608963 297.012616937,574.36345066 330.34595027,589.36345066 363.679283603,573.160608963 397.012616937,585.852372648 430.34595027,567.625741294 463.679283603,578.742117385 497.012616937,559.516129032 530.34595027,570.29014068 563.679283603,551.40651677 597.012616937,563.179885417 630.34595027,545.871649102 663.679283603,559.668807404 697.012616937,544.668807404 730.34595027,560.871649102 763.679283603,548.179885417 797.012616937,566.40651677 830.34595027,555.29014068 863.679283603,574.516129032 897.012616937,563.742117385 930.34595027,582.625741294" stroke="#000000" stroke-width="1" /><polyline fill="none" points="134.540672275,613.225806452 167.874005608,602.451794804 201.207338942,621.335418713 234.540672275,609.562050067 267.874005608,626.870286382 301.207338942,613.07312808 334.540672275,628.07312808 367.874005608,611.870286382 401.207338942,624.562050067 434.540672275,606.335418713 467.874005608,617.451794804 501.207338942,598.225806452 534.540672275,608.999818099 567.874005608,590.11619419 601.207338942,601.889562836 634.540672275,584.581326521 667.874005608,598.378484823 701.207338942,583.378484823 734.540672275,599.581326521 767.874005608,586.889562836 801.207338942,605.11619419 834.540672275,593.999818099 867.874005608,613.225806452 901.207338942,602.451794804 934.540672275,621.335418713" stroke="#000000" stroke-width="1" /><polyline fill="none" points="142.861953547,651.935483871 176.19528688,641.161472224 209.528620214,660.045096133 242.861953547,648.271727486 276.19528688,665.579963801 309.528620214,651.782805499 342.861953547,666.782805499 376.19528688,650.579963801 409.528620214,663.271727486 442.861953547,645.045096133 476.19528688,656.161472224 509.528620214,636.935483871 542.861953547,647.709495518 576.19528688,628.825871609 609.528620214,640.599240256 642.861953547,623.291003941 676.19528688,637.088162243 709.528620214,622.088162243 742.861953547,638.291003941 776.19528688,625.599240256 809.528620214,643.825871609 842.861953547,632.709495518 876.19528688,651.935483871 909.528620214,641.161472224 942.861953547,660.045096133" stroke="#000000" stroke-width="1" /><polyline fill="none" points="153.961044397,690.64516129 187.294377731,679.871149643 220.627711064,698.754773552 253.961044397,686.981404906 287.294377731,704.289641221 320.627711064,690.492482919 353.961044397,705.492482919 387.294377731,689.289641221 420.627711064,701.981404906 453.961044397,683.754773552 487.294377731,694.871149643 520.627711064,675.64516129 553.961044397,686.419172938 587.294377731,667.535549028 620.627711064,679.308917675 653.961044397,662.00068136 687.294377731,675.797839662 720.627711064,660.797839662 753.961044397,677.00068136 787.294377731,664.308917675 820.627711064,682.535549028 853.961044397,671.419172938 887.294377731,690.64516129 920.627711064,679.871149643 953.961044397,698.754773552" stroke="#000000" stroke-width="1" /><polyline fill="none" points="166.038955603,729.35483871 199.372288936,718.580827062 232.705622269,737.464450972 266.038955603,725.691082325 299.372288936,742.99931864 332.705622269,729.202160338 366.038955603,744.202160338 399.372288936,727.99931864 432.705622269,740.691082325 466.038955603,722.464450972 499.372288936,733.580827062 532.705622269,714.35483871 566.038955603,725.128850357 599.372288936,706.245226448 632.705622269,718.018595094 666.038955603,700.710358779 699.372288936,714.507517081 732.705622269,699.507517081 766.038955603,715.710358779 799.372288936,703.018595094 832.705622269,721.245226448 866.038955603,710.128850357 899.372288936,729.35483871 932.705622269,718.580827062 966.038955603,737.464450972" stroke="#000000" stroke-width="1" /><polyline fill="none" points="177.138046453,768.064516129 210.471379786,757.290504482 243.80471312,776.174128391 277.138046453,764.400759744 310.471379786,781.708996059 343.80471312,767.911837757 377.138046453,782.911837757 410.471379786,766.708996059 443.80471312,779.400759744 477.138046453,761.174128391 510.471379786,772.290504482 543.80471312,753.064516129 577.138046453,763.838527776 610.471379786,744.954903867 643.80471312,756.728272514 677.138046453,739.420036199 710.471379786,753.217194501 743.80471312,738.217194501 777.138046453,754.420036199 810.471379786,741.728272514 843.80471312,759.954903867 877.138046453,748.838527776 910.471379786,768.064516129 943.80471312,757.290504482 977.138046453,776.174128391" stroke="#000000" stroke-width="1" /><polyline fill="none" points="185.459327725,806.774193548 218.792661058,796.000181901 252.125994392,814.88380581 285.459327725,803.110437164 318.792661058,820.418673479 352.125994392,806.621515177 385.459327725,821.621515177 418.792661058,805.418673479 452.125994392,818.110437164 485.459327725,799.88380581 518.792661058,811.000181901 552.125994392,791.774193548 585.459327725,802.548205196 618.792661058,783.664581287 652.125994392,795.437949933 685.459327725,778.129713618 718.792661058,791.92687192 752.125994392,776.92687192 785.459327725,793.129713618 818.792661058,780.437949933 852.125994392,798.664581287 885.459327725,787.548205196 918.792661058,806.774193548 952.125994392,796.000181901 985.459327725,814.88380581" stroke="#000000" stroke-width="1" /><polyline fill="none" points="189.65404973,845.483870968 222.987383063,834.70985932 256.320716397,853.59348323 289.65404973,841.820114583 322.987383063,859.128350898 356.320716397,845.331192596 389.65404973,860.331192596 422.987383063,844.128350898 456.320716397,856.820114583 489.65404973,838.59348323 522.987383063,849.70985932 556.320716397,830.483870968 589.65404973,841.257882615 622.987383063,822.374258706 656.320716397,834.147627352 689.65404973,816.839391037 722.987383063,830.63654934 756.320716397,815.63654934 789.65404973,831.839391037 822.987383063,819.147627352 856.320716397,837.374258706 889.65404973,826.257882615 922.987383063,845.483870968 956.320716397,834.70985932 989.65404973,853.59348323" stroke="#000000" stroke-width="1" /><polyline fill="none" points="189.042313566,884.193548387 222.375646899,873.41953674 255.708980233,892.303160649 289.042313566,880.529792002 322.375646899,897.838028317 355.708980233,884.040870015 389.042313566,899.040870015 422.375646899,882.838028317 455.708980233,895.529792002 489.042313566,877.303160649 522.375646899,888.41953674 555.708980233,869.193548387 589.042313566,879.967560034 622.375646899,861.083936125 655.708980233,872.857304772 689.042313566,855.549068457 722.375646899,869.346226759 755.708980233,854.346226759 789.042313566,870.549068457 822.375646899,857.857304772 855.708980233,876.083936125 889.042313566,864.967560034 922.375646899,884.193548387 955.708980233,873.41953674 989.042313566,892.303160649" stroke="#000000" stroke-width="1" /><polyline fill="none" points="183.723272108,922.903225806 217.056605441,912.129214159 250.389938775,931.012838068 283.723272108,919.239469422 317.056605441,936.547705737 350.389938775,922.750547435 383.723272108,937.750547435 417.056605441,921.547705737 450.389938775,934.239469422 483.723272108,916.012838068 517.056605441,927.129214159 550.389938775,907.903225806 583.723272108,918.677237454 617.056605441,899.793613545 650.389938775,911.566982191 683.723272108,894.258745876 717.056605441,908.055904178 750.389938775,893.055904178 783.723272108,909.258745876 817.056605441,896.566982191 850.389938775,914.793613545 883.723272108,903.677237454 917.056605441,922.903225806 950.389938775,912.129214159 983.723272108,931.012838068" stroke="#000000" stroke-width="1" /><polyline fill="none" points="174.559058876,961.612903226 207.892392209,950.838891578 241.225725543,969.722515488 274.559058876,957.949146841 307.892392209,975.257383156 341.225725543,961.460224854 374.559058876,976.460224854 407.892392209,960.257383156 441.225725543,972.949146841 474.559058876,954.722515488 507.892392209,965.838891578 541.225725543,946.612903226 574.559058876,957.386914873 607.892392209,938.503290964 641.225725543,950.27665961 674.559058876,932.968423295 707.892392209,946.765581598 741.225725543,931.765581598 774.559058876,947.968423295 807.892392209,935.27665961 841.225725543,953.503290964 874.559058876,942.386914873 907.892392209,961.612903226 941.225725543,950.838891578 974.559058876,969.722515488" stroke="#000000" stroke-width="1" /><polyline fill="none" points="163.03504966,1000.32258065 196.368382993,989.548568998 229.701716326,1008.43219291 263.03504966,996.65882426 296.368382993,1013.96706058 329.701716326,1000.16990227 363.03504966,1015.16990227 396.368382993,998.967060575 429.701716326,1011.65882426 463.03504966,993.432192907 496.368382993,1004.548569 529.701716326,985.322580645 563.03504966,996.096592293 596.368382993,977.212968383 629.701716326,988.98633703 663.03504966,971.678100715 696.368382993,985.475259017 729.701716326,970.475259017 763.03504966,986.678100715 796.368382993,973.98633703 829.701716326,992.212968383 863.03504966,981.096592293 896.368382993,1000.32258065 929.701716326,989.548568998 963.03504966,1008.43219291" stroke="#000000" stroke-width="1" /><polyline fill="none" points="151.019106311,1039.03225806 184.352439644,1028.25824642 217.685772977,1047.14187033 251.019106311,1035.36850168 284.352439644,1052.67673799 317.685772977,1038.87957969 351.019106311,1053.87957969 384.352439644,1037.67673799 417.685772977,1050.36850168 451.019106311,1032.14187033 484.352439644,1043.25824642 517.685772977,1024.03225806 551.019106311,1034.80626971 584.352439644,1015.9226458 617.685772977,1027.69601445 651.019106311,1010.38777813 684.352439644,1024.18493644 717.685772977,1009.18493644 751.019106311,1025.38777813 784.352439644,1012.69601445 817.685772977,1030.9226458 851.019106311,1019.80626971 884.352439644,1039.03225806 917.685772977,1028.25824642 951.019106311,1047.14187033" stroke="#000000" stroke-width="1" /><polyline fill="none" points="140.458825518,1077.74193548 173.792158852,1066.96792384 207.125492185,1085.85154775 240.458825518,1074.0781791 273.792158852,1091.38641541 307.125492185,1077.58925711 340.458825518,1092.58925711 373.792158852,1076.38641541 407.125492185,1089.0781791 440.458825518,1070.85154775 473.792158852,1081.96792384 507.125492185,1062.74193548 540.458825518,1073.51594713 573.792158852,1054.63232322 607.125492185,1066.40569187 640.458825518,1049.09745555 673.792158852,1062.89461386 707.125492185,1047.89461386 740.458825518,1064.09745555 773.792158852,1051.40569187 807.125492185,1069.63232322 840.458825518,1058.51594713 873.792158852,1077.74193548 907.125492185,1066.96792384 940.458825518,1085.85154775" stroke="#000000" stroke-width="1" /><polyline fill="none" points="133.065863813,1116.4516129 166.399197146,1105.67760126 199.73253048,1124.56122517 233.065863813,1112.78785652 266.399197146,1130.09609283 299.73253048,1116.29893453 333.065863813,1131.29893453 366.399197146,1115.09609283 399.73253048,1127.78785652 433.065863813,1109.56122517 466.399197146,1120.67760126 499.73253048,1101.4516129 533.065863813,1112.22562455 566.399197146,1093.34200064 599.73253048,1105.11536929 633.065863813,1087.80713297 666.399197146,1101.60429128 699.73253048,1086.60429128 733.065863813,1102.80713297 766.399197146,1090.11536929 799.73253048,1108.34200064 833.065863813,1097.22562455 866.399197146,1116.4516129 899.73253048,1105.67760126 933.065863813,1124.56122517" stroke="#000000" stroke-width="1" /><polyline fill="none" points="130.038504785,1155.16129032 163.371838118,1144.38727868 196.705171452,1163.27090258 230.038504785,1151.49753394 263.371838118,1168.80577025 296.705171452,1155.00861195 330.038504785,1170.00861195 363.371838118,1153.80577025 396.705171452,1166.49753394 430.038504785,1148.27090258 463.371838118,1159.38727868 496.705171452,1140.16129032 530.038504785,1150.93530197 563.371838118,1132.05167806 596.705171452,1143.82504671 630.038504785,1126.51681039 663.371838118,1140.31396869 696.705171452,1125.31396869 730.038504785,1141.51681039 763.371838118,1128.82504671 796.705171452,1147.05167806 830.038504785,1135.93530197 863.371838118,1155.16129032 896.705171452,1144.38727868 930.038504785,1163.27090258" stroke="#000000" stroke-width="1" /><polyline fill="none" points="131.867436036,1193.87096774 165.200769369,1183.09695609 198.534102702,1201.98058 231.867436036,1190.20721136 265.200769369,1207.51544767 298.534102702,1193.71828937 331.867436036,1208.71828937 365.200769369,1192.51544767 398.534102702,1205.20721136 431.867436036,1186.98058 465.200769369,1198.09695609 498.534102702,1178.87096774 531.867436036,1189.64497939 565.200769369,1170.76135548 598.534102702,1182.53472413 631.867436036,1165.22648781 665.200769369,1179.02364611 698.534102702,1164.02364611 731.867436036,1180.22648781 765.200769369,1167.53472413 798.534102702,1185.76135548 831.867436036,1174.64497939 865.200769369,1193.87096774 898.534102702,1183.09695609 931.867436036,1201.98058" stroke="#000000" stroke-width="1" /><polyline fill="none" points="138.256216383,1232.58064516 171.589549716,1221.80663351 204.92288305,1240.69025742 238.256216383,1228.91688878 271.589549716,1246.22512509 304.92288305,1232.42796679 338.256216383,1247.42796679 371.589549716,1231.22512509 404.92288305,1243.91688878 438.256216383,1225.69025742 471.589549716,1236.80663351 504.92288305,1217.58064516 538.256216383,1228.35465681 571.589549716,1209.4710329 604.92288305,1221.24440155 638.256216383,1203.93616523 671.589549716,1217.73332353 704.92288305,1202.73332353 738.256216383,1218.93616523 771.589549716,1206.24440155 804.92288305,1224.4710329 838.256216383,1213.35465681 871.589549716,1232.58064516 904.92288305,1221.80663351 938.256216383,1240.69025742" stroke="#000000" stroke-width="1" /><polyline fill="none" points="148.169324347,1271.29032258 181.50265768,1260.51631093 214.835991013,1279.39993484 248.169324347,1267.6265662 281.50265768,1284.93480251 314.835991013,1271.13764421 348.169324347,1286.13764421 381.50265768,1269.93480251 414.835991013,1282.6265662 448.169324347,1264.39993484 481.50265768,1275.51631093 514.835991013,1256.29032258 548.169324347,1267.06433423 581.50265768,1248.18071032 614.835991013,1259.95407897 648.169324347,1242.64584265 681.50265768,1256.44300095 714.835991013,1241.44300095 748.169324347,1257.64584265 781.50265768,1244.95407897 814.835991013,1263.18071032 848.169324347,1252.06433423 881.50265768,1271.29032258 914.835991013,1260.51631093 948.169324347,1279.39993484" stroke="#000000" stroke-width="1" /><polyline fill="none" points="160.0,1310.0 193.333333333,1299.22598835 226.666666667,1318.10961226 260.0,1306.33624362 293.333333333,1323.64447993 326.666666667,1309.84732163 360.0,1324.84732163 393.333333333,1308.64447993 426.666666667,1321.33624362 460.0,1303.10961226 493.333333333,1314.22598835 526.666666667,1295.0 560.0,1305.77401165 593.333333333,1286.89038774 626.666666667,1298.66375638 660.0,1281.35552007 693.333333333,1295.15267837 726.666666667,1280.15267837 760.0,1296.35552007 793.333333333,1283.66375638 826.666666667,1301.89038774 860.0,1290.77401165 893.333333333,1310.0 926.666666667,1299.22598835 960.0,1318.10961226" stroke="#000000" stroke-width="1" /></g><g id="labels"><text alignment-baseline="middle" font-size="14" text-anchor="middle" x="355.708980233" y="291.540870015">7</text><text alignment-baseline="middle" font-size="14" text-anchor="middle" x="240.458825518" y="481.578179099">7</text><text alignment-baseline="middle" font-size="14" text-anchor="middle" x="896.705171452" y="551.887278675">7</text><text alignment-baseline="middle" font-size="14" text-anchor="middle" x="165.200769369" y="590.596956095">9</text><text alignment-baseline="middle" font-size="14" text-anchor="middle" x="231.867436036" y="597.707211357">3</text><text alignment-baseline="middle" font-size="14" text-anchor="middle" x="365.200769369" y="600.015447672">5</text><text alignment-baseline="middle" font-size="14" text-anchor="middle" x="431.867436036" y="594.480580004">7</text><text alignment-baseline="middle" font-size="14" text-anchor="middle" x="498.534102702" y="586.370967742">9</text><text alignment-baseline="middle" font-size="14" text-anchor="middle" x="565.200769369" y="578.26135548">3</text><text alignment-baseline="middle" font-size="14" text-anchor="middle" x="631.867436036" y="572.726487812">5</text><text alignment-baseline="middle" font-size="14" text-anchor="middle" x="238.256216383" y="636.416888777">8</text><text alignment-baseline="middle" font-size="14" text-anchor="middle" x="860.0" y="698.274011647">9</text><text alignment-baseline="middle" font-size="14" text-anchor="middle" x="205.164008987" y="745.435665772">4</text><text alignment-baseline="middle" font-size="14" text-anchor="middle" x="271.830675653" y="752.545921035">4</text><text alignment-baseline="middle" font-size="14" text-anchor="middle" x="338.49734232" y="756.056999048">4</text><text alignment-baseline="middle" font-size="14" text-anchor="middle" x="215.07711695" y="784.145343191">7</text><text alignment-baseline="middle" font-size="14" text-anchor="middle" x="748.410450284" y="765.07203321">8</text><text alignment-baseline="middle" font-size="14" text-anchor="middle" x="815.07711695" y="768.583111223">4</text><text alignment-baseline="middle" font-size="14" text-anchor="middle" x="948.410450284" y="784.145343191">5</text><text alignment-baseline="middle" font-size="14" text-anchor="middle" x="288.132563964" y="829.965275873">5</text><text alignment-baseline="middle" font-size="14" text-anchor="middle" x="354.799230631" y="833.476353886">8</text><text alignment-baseline="middle" font-size="14" text-anchor="middle" x="888.132563964" y="814.403043905">4</text><text alignment-baseline="middle" font-size="14" text-anchor="middle" x="223.294828548" y="861.56469803">8</text><text alignment-baseline="middle" font-size="14" text-anchor="middle" x="356.628161882" y="872.186031306">9</text><text alignment-baseline="middle" font-size="14" text-anchor="middle" x="423.294828548" y="870.983189608">8</text><text alignment-baseline="middle" font-size="14" text-anchor="middle" x="489.961495215" y="865.448321939">8</text><text alignment-baseline="middle" font-size="14" text-anchor="middle" x="556.628161882" y="857.338709677">8</text><text alignment-baseline="middle" font-size="14" text-anchor="middle" x="623.294828548" y="849.229097416">8</text><text alignment-baseline="middle" font-size="14" text-anchor="middle" x="689.961495215" y="843.694229747">9</text><text alignment-baseline="middle" font-size="14" text-anchor="middle" x="756.628161882" y="842.491388049">6</text><text alignment-baseline="middle" font-size="14" text-anchor="middle" x="823.294828548" y="846.002466062">6</text><text alignment-baseline="middle" font-size="14" text-anchor="middle" x="889.961495215" y="853.112721325">6</text><text alignment-baseline="middle" font-size="14" text-anchor="middle" x="956.628161882" y="861.56469803">8</text><text alignment-baseline="middle" font-size="14" text-anchor="middle" x="753.600802854" y="881.201065469">9</text><text alignment-baseline="middle" font-size="14" text-anchor="middle" x="820.26746952" y="884.712143481">8</text><text alignment-baseline="middle" font-size="14" text-anchor="middle" x="953.600802854" y="900.274375449">4</text><text alignment-baseline="middle" font-size="14" text-anchor="middle" x="212.874507815" y="938.984052869">2</text><text alignment-baseline="middle" font-size="14" text-anchor="middle" x="279.541174482" y="946.094308131">9</text><text alignment-baseline="middle" font-size="14" text-anchor="middle" x="412.874507815" y="948.402544446">6</text><text alignment-baseline="middle" font-size="14" text-anchor="middle" x="479.541174482" y="942.867676778">9</text><text alignment-baseline="middle" font-size="14" text-anchor="middle" x="335.647560356" y="988.315063564">6</text><text alignment-baseline="middle" font-size="14" text-anchor="middle" x="802.314227023" y="962.13149832">9</text><text alignment-baseline="middle" font-size="14" text-anchor="middle" x="390.298283674" y="1025.82189929">9</text><text alignment-baseline="middle" font-size="14" text-anchor="middle" x="523.631617007" y="1012.17741935">7</text><text alignment-baseline="middle" font-size="14" text-anchor="middle" x="590.298283674" y="1004.06780709">9</text><text alignment-baseline="middle" font-size="14" text-anchor="middle" x="656.96495034" y="998.532939425">4</text><text alignment-baseline="middle" font-size="14" text-anchor="middle" x="723.631617007" y="997.330097727">5</text><text alignment-baseline="middle" font-size="14" text-anchor="middle" x="923.631617007" y="1016.40340771">9</text><text alignment-baseline="middle" font-size="14" text-anchor="middle" x="178.774274457" y="1055.11308513">5</text><text alignment-baseline="middle" font-size="14" text-anchor="middle" x="245.440941124" y="1062.22334039">6</text><text alignment-baseline="middle" font-size="14" text-anchor="middle" x="312.107607791" y="1065.7344184">3</text><text alignment-baseline="middle" font-size="14" text-anchor="middle" x="378.774274457" y="1064.5315767">2</text><text alignment-baseline="middle" font-size="14" text-anchor="middle" x="445.440941124" y="1058.99670904">4</text><text alignment-baseline="middle" font-size="14" text-anchor="middle" x="512.107607791" y="1050.88709677">4</text><text alignment-baseline="middle" font-size="14" text-anchor="middle" x="578.774274457" y="1042.77748451">4</text><text alignment-baseline="middle" font-size="14" text-anchor="middle" x="645.440941124" y="1037.24261684">8</text><text alignment-baseline="middle" font-size="14" text-anchor="middle" x="845.440941124" y="1046.66110842">3</text><text alignment-baseline="middle" font-size="14" text-anchor="middle" x="364.291019767" y="1141.95093154">7</text><text alignment-baseline="middle" font-size="14" text-anchor="middle" x="430.957686434" y="1136.41606387">5</text><text alignment-baseline="middle" font-size="14" text-anchor="middle" x="497.624353101" y="1128.30645161">5</text><text alignment-baseline="middle" font-size="14" text-anchor="middle" x="564.291019767" y="1120.19683935">6</text><text alignment-baseline="middle" font-size="14" text-anchor="middle" x="630.957686434" y="1114.66197168">6</text><text alignment-baseline="middle" font-size="14" text-anchor="middle" x="697.624353101" y="1113.45912998">4</text><text alignment-baseline="middle" font-size="14" text-anchor="middle" x="764.291019767" y="1116.970208">5</text><text alignment-baseline="middle" font-size="14" text-anchor="middle" x="830.957686434" y="1124.08046326">7</text><text alignment-baseline="middle" font-size="14" text-anchor="middle" x="430.34595027" y="1175.12574129">6</text><text alignment-baseline="middle" font-size="14" text-anchor="middle" x="497.012616937" y="1167.01612903">6</text><text alignment-baseline="middle" font-size="14" text-anchor="middle" x="563.679283603" y="1158.90651677">7</text><text alignment-baseline="middle" font-size="14" text-anchor="middle" x="630.34595027" y="1153.3716491">7</text><text alignment-baseline="middle" font-size="14" text-anchor="middle" x="697.012616937" y="1152.1688074">7</text><text alignment-baseline="middle" font-size="14" text-anchor="middle" x="763.679283603" y="1155.67988542">7</text><text alignment-baseline="middle" font-size="14" text-anchor="middle" x="830.34595027" y="1162.79014068">2</text><text alignment-baseline="middle" font-size="14" text-anchor="middle" x="897.012616937" y="1171.24211738">6</text><text alignment-baseline="middle" font-size="14" text-anchor="middle" x="167.874005608" y="1209.9517948">6</text><text alignment-baseline="middle" font-size="14" text-anchor="middle" x="301.207338942" y="1220.57312808">5</text><text alignment-baseline="middle" font-size="14" text-anchor="middle" x="367.874005608" y="1219.37028638">3</text><text alignment-baseline="middle" font-size="14" text-anchor="middle" x="434.540672275" y="1213.83541871">3</text><text alignment-baseline="middle" font-size="14" text-anchor="middle" x="501.207338942" y="1205.72580645">3</text><text alignment-baseline="middle" font-size="14" text-anchor="middle" x="567.874005608" y="1197.61619419">5</text><text alignment-baseline="middle" font-size="14" text-anchor="middle" x="634.540672275" y="1192.08132652">3</text><text alignment-baseline="middle" font-size="14" text-anchor="middle" x="701.207338942" y="1190.87848482">3</text><text alignment-baseline="middle" font-size="14" text-anchor="middle" x="767.874005608" y="1194.38956284">2</text><text alignment-baseline="middle" font-size="14" text-anchor="middle" x="834.540672275" y="1201.4998181">8</text><text alignment-baseline="middle" font-size="14" text-anchor="middle" x="901.207338942" y="1209.9517948">2</text><text alignment-baseline="middle" font-size="14" text-anchor="middle" x="176.19528688" y="1248.66147222">3</text><text alignment-baseline="middle" font-size="14" text-anchor="middle" x="242.861953547" y="1255.77172749">2</text><text alignment-baseline="middle" font-size="14" text-anchor="middle" x="309.528620214" y="1259.2828055">2</text><text alignment-baseline="middle" font-size="14" text-anchor="middle" x="376.19528688" y="1258.0799638">4</text><text alignment-baseline="middle" font-size="14" text-anchor="middle" x="442.861953547" y="1252.54509613">2</text><text alignment-baseline="middle" font-size="14" text-anchor="middle" x="509.528620214" y="1244.43548387">2</text><text alignment-baseline="middle" font-size="14" text-anchor="middle" x="576.19528688" y="1236.32587161">2</text><text alignment-baseline="middle" font-size="14" text-anchor="middle" x="642.861953547" y="1230.79100394">2</text><text alignment-baseline="middle" font-size="14" text-anchor="middle" x="709.528620214" y="1229.58816224">1</text><text alignment-baseline="middle" font-size="14" text-anchor="middle" x="776.19528688" y="1233.09924026">1</text><text alignment-baseline="middle" font-size="14" text-anchor="middle" x="842.861953547" y="1240.20949552">1</text><text alignment-baseline="middle" font-size="14" text-anchor="middle" x="909.528620214" y="1248.66147222">1</text><text alignment-baseline="middle" font-size="14" text-anchor="middle" x="187.294377731" y="1287.37114964">1</text><text alignment-baseline="middle" font-size="14" text-anchor="middle" x="253.961044397" y="1294.48140491">1</text><text alignment-baseline="middle" font-size="14" text-anchor="middle" x="320.627711064" y="1297.99248292">1</text><text alignment-baseline="middle" font-size="14" text-anchor="middle" x="387.294377731" y="1296.78964122">1</text><text alignment-baseline="middle" font-size="14" text-anchor="middle" x="453.961044397" y="1291.25477355">1</text><text alignment-baseline="middle" font-size="14" text-anchor="middle" x="520.627711064" y="1283.14516129">1</text><text alignment-baseline="middle" font-size="14" text-anchor="middle" x="587.294377731" y="1275.03554903">1</text><text alignment-baseline="middle" font-size="14" text-anchor="middle" x="653.961044397" y="1269.50068136">1</text><text alignment-baseline="middle" font-size="14" text-anchor="middle" x="720.627711064" y="1268.29783966">2</text><text alignment-baseline="middle" font-size="14" text-anchor="middle" x="787.294377731" y="1271.80891768">3</text><text alignment-baseline="middle" font-size="14" text-anchor="middle" x="853.961044397" y="1278.91917294">5</text><text alignment-baseline="middle" font-size="14" text-anchor="middle" x="920.627711064" y="1287.37114964">3</text></g></svg>