<?xml version="1.0" encoding="utf-8" ?>
<svg baseProfile="full" height="881.874096083" version="1.1" width="1000" xmlns="http://www.w3.org/2000/svg" xmlns:ev="http://www.w3.org/2001/xml-events" xmlns:xlink="http://www.w3.org/1999/xlink"><defs><pattern height="134.985779076" id="solar" patternUnits="userSpaceOnUse" width="66"><path d="m 0,54.4 17.9,-15.9 0,-11.9 7.7,0 0,5.1 13.9,-12.4 39.6,35.1 -8.6,0 0,32.1 -61.9,0 0,-32.1 z" fill="none" stroke="#000000" stroke-width="1.4066667" transform="scale(0.710900457088)" /><path d="m 0,54.4 17.9,-15.9 0,-11.9 7.7,0 0,5.1 13.9,-12.4 39.6,35.1 -8.6,0 0,32.1 -61.9,0 0,-32.1 z" fill="none" stroke="#000000" stroke-width="1.4066667" transform="translate(33.0, 67.4928895381) scale(0.710900457088)" /><path d="m 0,54.4 17.9,-15.9 0,-11.9 7.7,0 0,5.1 13.9,-12.4 39.6,35.1 -8.6,0 0,32.1 -61.9,0 0,-32.1 z" fill="none" stroke="#000000" stroke-width="1.4066667" transform="translate(-33.0, 67.4928895381) scale(0.710900457088)" /><path d="m 56.5,19.6 c 0.3,-4.2 3,-7.3 7.2,-8.1 l 0,0 C 66.3,11 68.5,9.7 70,8 71.2,6.6 72.1,4.9 72.5,2.9 L 69.2,0 l 0,0 c -0.3,4.2 -3,7.3 -7.2,8.1 l 0,0 c -4.7,1 -7.9,4.1 -8.8,8.6 l 3.3,2.9 0,0 z" fill="none" stroke="#000000" stroke-width="1.4066667" transform="scale(0.710900457088)" /><path d="m 56.5,19.6 c 0.3,-4.2 3,-7.3 7.2,-8.1 l 0,0 C 66.3,11 68.5,9.7 70,8 71.2,6.6 72.1,4.9 72.5,2.9 L 69.2,0 l 0,0 c -0.3,4.2 -3,7.3 -7.2,8.1 l 0,0 c -4.7,1 -7.9,4.1 -8.8,8.6 l 3.3,2.9 0,0 z" fill="none" stroke="#000000" stroke-width="1.4066667" transform="translate(33.0, 67.4928895381) scale(0.710900457088)" /><path d="m 56.5,19.6 c 0.3,-4.2 3,-7.3 7.2,-8.1 l 0,0 C 66.3,11 68.5,9.7 70,8 71.2,6.6 72.1,4.9 72.5,2.9 L 69.2,0 l 0,0 c -0.3,4.2 -3,7.3 -7.2,8.1 l 0,0 c -4.7,1 -7.9,4.1 -8.8,8.6 l 3.3,2.9 0,0 z" fill="none" stroke="#000000" stroke-width="1.4066667" transform="translate(-33.0, 67.4928895381) scale(0.710900457088)" /><path d="m 67.9,13.3 0,0 c -4.7,1 -7.9,4.1 -8.8,8.6 l 3.3,2.9 0,0 c 0.3,-4.2 3,-7.3 7.2,-8.1 l 0,0 c 2.6,-0.5 4.8,-1.8 6.3,-3.5 1.2,-1.4 2.1,-3.1 2.5,-5.1 l -3.3,-2.9 0,0 c -0.3,4.2 -3,7.3 -7.2,8.1 z" fill="none" stroke="#000000" stroke-width="1.4066667" transform="scale(0.710900457088)" /><path d="m 67.9,13.3 0,0 c -4.7,1 -7.9,4.1 -8.8,8.6 l 3.3,2.9 0,0 c 0.3,-4.2 3,-7.3 7.2,-8.1 l 0,0 c 2.6,-0.5 4.8,-1.8 6.3,-3.5 1.2,-1.4 2.1,-3.1 2.5,-5.1 l -3.3,-2.9 0,0 c -0.3,4.2 -3,7.3 -7.2,8.1 z" fill="none" stroke="#000000" stroke-width="1.4066667" transform="translate(33.0, 67.4928895381) scale(0.710900457088)" /><path d="m 67.9,13.3 0,0 c -4.7,1 -7.9,4.1 -8.8,8.6 l 3.3,2.9 0,0 c 0.3,-4.2 3,-7.3 7.2,-8.1 l 0,0 c 2.6,-0.5 4.8,-1.8 6.3,-3.5 1.2,-1.4 2.1,-3.1 2.5,-5.1 l -3.3,-2.9 0,0 c -0.3,4.2 -3,7.3 -7.2,8.1 z" fill="none" stroke="#000000" stroke-width="1.4066667" transform="translate(-33.0, 67.4928895381) scale(0.710900457088)" /><path d="m 81.1,10.5 c -0.3,4.2 -3,7.3 -7.2,8.1 l 0,0 c -4.7,1 -7.9,4.1 -8.8,8.6 l 3.3,2.9 0,0 c 0.3,-4.2 3,-7.3 7.2,-8.1 l 0,0 c 2.6,-0.5 4.8,-1.8 6.3,-3.5 1.2,-1.4 2.1,-3.1 2.5,-5.1 l -3.3,-2.9 0,0 z" fill="none" stroke="#000000" stroke-width="1.4066667" transform="scale(0.710900457088)" /><path d="m 81.1,10.5 c -0.3,4.2 -3,7.3 -7.2,8.1 l 0,0 c -4.7,1 -7.9,4.1 -8.8,8.6 l 3.3,2.9 0,0 c 0.3,-4.2 3,-7.3 7.2,-8.1 l 0,0 c 2.6,-0.5 4.8,-1.8 6.3,-3.5 1.2,-1.4 2.1,-3.1 2.5,-5.1 l -3.3,-2.9 0,0 z" fill="none" stroke="#000000" stroke-width="1.4066667" transform="translate(33.0, 67.4928895381) scale(0.710900457088)" /><path d="m 81.1,10.5 c -0.3,4.2 -3,7.3 -7.2,8.1 l 0,0 c -4.7,1 -7.9,4.1 -8.8,8.6 l 3.3,2.9 0,0 c 0.3,-4.2 3,-7.3 7.2,-8.1 l 0,0 c 2.6,-0.5 4.8,-1.8 6.3,-3.5 1.2,-1.4 2.1,-3.1 2.5,-5.1 l -3.3,-2.9 0,0 z" fill="none" stroke="#000000" stroke-width="1.4066667" transform="translate(-33.0, 67.4928895381) scale(0.710900457088)" /><path d="m 44,13.6 -1.3,1.5 -1.4,1.5 29.8,26.2 2.6,-3 z" fill="none" stroke="#000000" stroke-width="1.4066667" transform="scale(0.710900457088)" /><path d="m 44,13.6 -1.3,1.5 -1.4,1.5 29.8,26.2 2.6,-3 z" fill="none" stroke="#000000" stroke-width="1.4066667" transform="translate(33.0, 67.4928895381) scale(0.710900457088)" /><path d="m 44,13.6 -1.3,1.5 -1.4,1.5 29.8,26.2 2.6,-3 z" fill="none" stroke="#000000" stroke-width="1.4066667" transform="translate(-33.0, 67.4928895381) scale(0.710900457088)" /></pattern></defs><polygon fill="url(#solar)" points="602.886669604,204.71960686 602.797472729,197.720130003 602.767740438,194.263751165 602.599257455,192.844034266 602.443162927,192.135414662 602.207782289,191.414406604 602.049210071,191.060096802 601.816307124,190.65375549 601.318291249,189.984778941 600.327214878,188.931760299 598.545755106,187.16268898 598.372316742,186.932263724 598.027917704,186.369827884 597.584411026,185.490247607 597.356463462,184.853481039 597.207802007,184.273701363 597.08143977,183.369344177 597.05666286,182.757354519 597.106216679,182.078467206 597.222668152,181.382236056 597.517513372,180.383726615 597.869345485,179.628030883 598.122069959,179.184524208 598.649818125,178.456083076 599.25437471,177.735075018 600.805409228,176.107232081 601.276170503,175.646381569 601.803918669,175.066601894 604.422837975,172.333708806 604.720160885,171.979399004 605.019961487,171.568102311 605.505588907,170.800018124 605.889631003,170.004679338 606.09775704,169.504185772 606.266240022,169.021036042 606.873274298,166.853056484 607.539773156,164.149895687 607.656224629,163.161297009 607.626492338,162.229685222 607.517473937,161.550797909 607.274660227,160.69599454 606.989725771,159.932865736 606.754345134,159.521569043 606.343048441,158.894713239 605.547709653,157.92841378 604.86634465,157.25943723 603.377252406,155.938827969 603.171604058,155.757956531 601.821262506,154.576097961 601.090343684,153.946764466 600.309871042,153.208412571 599.722658294,152.536958331 599.244463946,151.850637946 597.044274406,147.868988632 596.38273093,146.461660188 595.760830509,144.952746416 595.069554742,143.037491332 594.955580957,142.318960965 594.863906393,141.694582852 594.839129484,140.901721757 594.816830266,140.312031317 594.772231829,138.803117545 594.886205611,137.202529209 594.678079574,136.816009425 594.839129484,134.293720065 594.90850483,133.629698898 595.186006215,132.398286509 595.394132253,131.716921505 595.991255765,130.262516933 599.306406219,123.230830094 599.935739713,121.895354687 600.446144042,120.837380662 600.859918429,119.833915839 601.352978922,118.666923414 601.538805741,118.14660832 601.709766414,117.551962499 601.823740197,117.048991242 601.905503997,116.546019984 601.957535506,116.082691781 602.031866234,114.918177047 602.041776998,112.586669889 602.017000089,110.056947457 601.018490648,110.081724366 598.122069959,110.099068202 597.552201047,110.056947457 597.316820407,109.982616729 596.687486913,109.655561527 596.469450112,109.578753109 596.286100984,109.546543127 594.447654318,109.511855453 594.071045299,109.487078544 593.734079333,109.504422381 593.607717096,109.553976199 593.491265623,109.638217691 593.097312767,110.064380529 592.72813682,110.517797968 592.401081616,110.827509334 592.207821724,110.904317752 591.95509725,111.189252208 591.786614267,111.280926773 591.536367484,111.238806027 591.216745355,111.248716791 591.100293882,111.280926773 590.857480172,111.399855937 590.731117935,111.3825121 590.570068025,111.2734937 590.513081134,111.189252208 590.309910478,111.020769226 589.13548498,110.517797968 588.825773614,110.366658822 588.506151486,110.242774275 588.154319375,110.141188948 587.95362641,110.141188948 587.785143428,110.165965857 587.643915045,110.22543044 587.465521299,110.418690331 586.93777313,111.3825121 586.821321657,111.523740483 586.712303257,111.590638138 586.459578783,111.583205065 586.3183504,111.541084319 585.830245289,111.238806027 585.579998506,111.122354553 585.260376377,111.13969839 585.13401414,111.189252208 585.007651903,111.280926773 584.856512757,111.466753592 584.722717447,111.548517392 584.25195617,111.456842828 583.758895677,111.402333628 582.894181545,111.305703682 580.862474988,111.206596045 580.711335842,111.221462191 580.552763623,111.2734937 579.554254182,111.808674939 578.984385268,112.05396634 578.632553157,112.128297068 577.993308899,112.195194723 577.767839026,112.242270851 577.48290457,112.353766942 577.18805935,112.556937598 577.012143295,112.623835253 576.828794167,112.656045235 575.225728139,112.740286726 574.628604627,112.866648963 574.353580934,112.9657566 574.024048042,113.12680651 573.312950745,113.704108495 572.943774798,113.914712224 571.836246957,114.425116554 571.4150395,114.501924972 571.298588024,114.501924972 570.988876659,114.44246039 570.644477621,114.425116554 570.550325366,114.444938081 570.359543165,114.509358045 570.26539091,114.5762557 570.181149419,114.677841028 569.702955071,115.750681198 569.452708288,116.169410964 569.284225306,116.355237782 568.404645029,116.949883604 568.211385135,117.034125096 568.067679061,117.066335077 567.757967696,117.048991242 567.463122477,116.982093586 567.297117185,116.982093586 567.103857293,117.058902005 566.994838893,117.23481806 566.734681346,118.493485049 566.633096018,118.751164905 566.541421454,118.84531716 565.401683628,119.605968274 564.985431553,119.467217582 564.851636244,119.382976091 564.750050916,119.249180781 564.559268715,118.862660997 564.22230275,118.426587394 563.030533415,117.07376815 562.267404611,116.298250892 562.032023974,116.087647163 561.796643336,115.795279634 561.714879536,115.626796652 561.655414954,115.324518359 561.680191863,113.991520642 561.546396553,112.8839928 561.546396553,112.651089853 561.588517299,112.490039943 562.460664503,110.60451715 563.803572984,108.406805302 563.942323676,108.121870846 564.076118986,107.343875896 564.403174187,106.57579171 564.482460297,106.266080345 564.645987897,103.966783168 564.591478697,103.748746367 564.053819767,102.673428506 563.902680621,102.589187015 563.647478456,102.559454724 563.085042615,102.579276251 561.189609061,102.455391705 561.068202205,102.390971741 560.996349169,102.257176431 561.001304551,102.004451957 560.567708639,101.42219459 560.490900221,101.129827061 560.528065582,100.0 558.79863732,100.790383404 557.819949403,101.464315336 557.35414351,101.873134338 556.940369127,102.158068794 556.858605326,102.212577994 554.086069183,103.243297419 552.3070871,104.147654605 549.655957812,106.025744325 549.371023357,106.176883471 549.068745064,106.261124963 548.397290825,106.293334945 548.095012532,106.142195798 547.693626603,106.008400488 547.408692147,106.025744325 547.257552999,106.09264198 547.123757689,106.22643729 547.004828525,106.394920272 546.350718122,107.83693639 546.132681321,108.523256775 545.10939497,112.197672414 544.940911988,113.035131946 544.908702006,113.438995567 544.908702006,114.008864479 545.176292625,114.477148063 545.411673263,114.677841028 545.713951555,114.846324011 547.222865326,115.517778251 547.995904896,115.919164181 548.498876152,116.221442473 549.036535082,116.625306093 549.606403994,117.093589678 549.940892268,117.462765626 550.243170563,117.864151555 550.513238873,118.401810485 551.216903095,122.76254651 551.350698405,123.902284334 551.754562025,126.550935931 551.754562025,127.489980791 551.652976697,128.027639721 551.28380075,129.10047989 550.882414821,129.737246458 550.545448855,130.208007733 549.707989322,131.213950248 549.472608684,131.548438522 548.833364427,131.531094686 548.583117644,131.600470032 548.397290825,131.699577669 548.161910187,131.934958307 547.79273424,132.621278692 547.693626603,132.740207857 547.205521492,133.074696131 546.972618543,133.342286751 546.871033215,133.560323552 546.754581742,134.33336312 546.368061958,136.327904313 546.182235139,136.897773225 546.031095993,137.133153863 545.679263882,137.519673647 545.461227081,137.777353503 544.990465806,138.339789342 544.170350109,139.179726565 541.618328458,141.142057776 540.830422746,141.711926688 540.258076143,142.081102636 539.60396574,142.398247074 539.083650644,142.700525367 538.959766098,142.81697684 538.741729297,143.144032042 538.548469405,143.210929697 538.397330259,143.228273533 538.263534949,143.280305043 538.112395803,143.371979607 537.497928455,143.899727773 537.128752508,144.110331502 536.457298266,144.353145212 536.088122318,144.420042867 535.912206263,144.402699031 535.803187863,144.335801376 535.627271807,144.311024467 535.409235006,144.311024467 534.554431638,144.42747594 534.051460379,144.437386704 533.436993031,144.402699031 532.740761882,144.437386704 532.30468828,144.595958923 531.214504272,145.081586344 529.787354302,145.594468365 528.261096693,145.90417973 527.42115947,145.921523567 527.128791942,145.886835894 526.432560793,145.577124528 526.070817919,145.485449964 524.812150928,145.240158563 524.685788692,145.250069327 524.435541909,145.359087727 524.108486707,145.63411142 523.947436797,145.710919838 521.967761749,146.365030242 520.726438598,146.741639262 515.382059275,148.369482199 513.627854103,148.812988874 513.057985191,148.914574202 512.671465405,148.946784184 510.337480558,148.929440347 509.668504006,148.83033271 509.046603585,148.711403546 508.424703164,148.562742091 506.127883678,147.856600177 505.119463474,147.673251049 504.398455413,147.571665722 503.055546934,147.554321885 502.032260584,147.638563377 500.52086912,147.841734032 499.648721916,148.059770833 498.910370019,148.310017616 498.608091727,148.461156763 498.305813434,148.679193564 495.721581802,150.255004991 495.238432072,150.515162538 494.497602487,150.909115395 494.160636522,151.127152196 493.977287393,151.322889779 493.642799117,151.679677271 493.407418479,152.016643237 492.282546801,154.229221232 492.166095328,154.514155688 492.131407655,154.81643398 492.131407655,155.168266091 492.247859128,155.688581185 492.33210062,155.956171805 492.465895929,156.241106261 492.718620403,156.578072227 493.541213789,157.49977325 493.709696772,157.752497724 493.791460572,158.052298326 493.791460572,158.43881811 493.62545528,159.127616186 493.506526116,159.412550642 493.08779635,159.898178063 492.483239766,160.40114932 492.265202965,160.735637595 492.131407655,161.122157379 492.029822327,161.674682455 492.029822327,162.665758824 492.299890638,163.837706631 492.299890638,164.139984923 492.081853837,164.610746199 490.989192138,165.884279333 490.538252391,166.622631228 490.387113244,167.024017158 490.183942589,167.797056726 490.067491116,168.349581802 490.000593461,169.087933697 490.000593461,169.675146446 490.248362553,171.233614036 489.933695806,171.493771583 488.020918413,173.674139595 487.515469465,174.41249149 486.945600553,175.014570384 486.544214624,175.35153635 486.108141019,175.552229315 485.300413779,176.020512899 484.596749558,176.523484157 484.125988283,176.994245432 483.288528749,178.067085602 481.94562027,180.683527216 481.576444323,181.236052292 480.904990084,182.160231006 479.730564585,183.299968831 477.062091461,185.361407679 472.396599452,189.268726264 471.742489049,189.907970523 469.780157837,191.550679604 468.184524884,192.757315084 463.402581403,196.882670471 462.832712491,197.353431746 462.228155906,197.737473839 461.858979957,197.938166804 459.512606655,199.020917737 458.922916213,199.29841912 458.132532809,199.382660612 457.780700699,199.516455922 457.580007734,199.632907395 457.252952533,199.959962597 456.300512018,202.578659731 454.781136549,205.227556461 454.781136549,209.985966822 455.460909457,214.744377184 455.121023003,218.483128182 457.840114637,222.22187918 460.899092727,225.620743724 462.598525,228.679721813 464.297957271,230.379154086 465.317616634,233.098245721 465.317616634,235.137564447 465.317616634,238.196542537 465.317616634,242.615066444 464.637843725,244.994271625 463.278297909,246.353817442 463.278297909,248.733022623 462.258638546,250.772341349 460.559206273,253.15154653 457.840114637,254.511092347 455.121023003,254.511092347 453.42159073,254.171205893 449.342953277,254.511092347 436.768976378,264.844315805 428.349751968,270.457132078 427.227188715,275.508666723 422.736935695,278.31507486 416.001556168,283.366609505 407.58233176,286.173017642 405.337205249,291.785833915 403.092078741,298.521213442 403.092078741,303.572748088 403.092078741,309.746845988 401.408233859,313.114535752 398.601825721,314.798380634 391.866446193,315.920943888 389.060038058,318.166070397 386.253629921,322.095041788 380.079532022,324.901449925 369.415181104,321.533760161 362.118519947,318.166070397 355.944422048,316.482225516 346.402634383,313.114535752 340.228536484,309.746845988 336.86084672,306.379156224 336.299565093,302.450184833 335.738283464,298.521213442 332.3705937,294.592242052 329.564185565,292.908397169 323.390087664,293.469678797 320.583679529,293.469678797 313.848300001,296.83736856 306.551638847,305.817874597 304.306512336,309.185564361 300.938822572,313.114535752 296.448569555,313.675817379 293.080879791,313.114535752 289.1519084,309.746845988 286.906781889,304.695311343 282.977810499,304.134029715 278.487557482,305.817874597 272.874741207,309.746845988 269.507051443,314.798380634 265.578080053,317.043507143 259.403982154,315.359662261 242.004251707,307.501719479 230.77861916,300.205058324 222.920676379,297.398650188 219.552986615,296.276086933 217.307860107,296.276086933 213.378888714,297.959931815 212.256325461,300.205058324 212.256325461,303.01146646 212.256325461,306.379156224 212.256325461,309.185564361 210.01119895,313.114535752 204.398382678,313.114535752 199.346848032,313.114535752 194.295313386,311.991972498 190.927623624,311.991972498 188.121215487,311.991972498 186.437370605,313.114535752 184.192244096,313.114535752 180.824554332,314.237099007 178.018146195,314.237099007 174.650456431,314.237099007 171.844048296,314.237099007 169.037640159,316.482225516 165.669950395,320.411196907 160.618415749,321.533760161 157.812007614,324.901449925 157.812007614,328.269139689 157.250725985,328.269139689 155.005599476,328.830421316 152.760472968,329.391702944 150.515346457,330.514266198 130.870489502,329.391702944 125.25767323,322.656323416 112.348195803,321.533760161 100.0,335.004519216 117.961012075,346.230151763 117.399730446,495.531064622 141.53484042,494.408501368 141.53484042,566.813831289 251.54603937,566.813831289 251.209270394,572.538903887 251.059086564,602.087432178 272.537972231,602.286830134 272.245568486,638.339856802 319.797450135,638.339856802 319.797450135,709.432273923 428.554724009,709.432273923 428.554724009,745.213887838 492.518225153,745.121402079 515.288916002,745.920373688 515.288916002,781.874096083 559.631840289,781.874096083 559.631840289,763.098263277 581.204073727,763.098263277 581.204073727,758.703919429 587.196360792,758.703919429 586.796874987,745.920373688 576.809729879,745.920373688 564.026184138,749.915231732 564.026184138,744.322430471 552.840581614,744.322430471 552.441095811,709.167679685 653.111518515,708.848091041 767.835117747,708.700931298 767.364458571,672.494882842 853.23396474,673.728070148 853.640625916,533.023303197 900.0,532.209980844 900.0,494.390491462 888.206825891,494.390491462 883.326891777,491.543863228 880.073602367,490.3238797 875.193668253,491.950524404 868.28042826,489.917218524 866.653783554,483.003978529 862.587171792,481.783995001 856.080592974,484.223962057 846.727385923,484.630623234 821.514393,473.244110301 787.863719202,473.394726459 783.495584162,473.394726459 780.31875868,472.600520088 775.553520457,471.806313717 768.802766307,470.615004161 765.625940825,469.820797791 761.654908973,467.835281865 756.492567564,463.864250012 752.918638896,461.878734085 721.150384075,461.4816309 721.547487261,469.820797791 699.309708884,470.217900976 699.309708884,485.307822017 671.11538273,485.307822017 671.11538273,476.571551941 632.596373759,476.571551941 632.596373759,458.304805418 598.576999386,457.33798292 598.576999386,421.459333474 596.933702466,418.720505272 605.150187071,411.599551947 609.258429375,411.599551947 610.080077836,393.797168634 608.984546555,391.606106073 607.615132455,389.962809152 605.697952713,387.49786377 604.328538612,386.128449669 603.65140357,350.01918603 602.886669604,204.71960686" stroke="#000000" stroke-width="1" /></svg>