<?xml version="1.0" encoding="UTF-8" standalone="no"?>
<svg
   xmlns:dc="http://purl.org/dc/elements/1.1/"
   xmlns:cc="http://creativecommons.org/ns#"
   xmlns:rdf="http://www.w3.org/1999/02/22-rdf-syntax-ns#"
   xmlns:svg="http://www.w3.org/2000/svg"
   xmlns="http://www.w3.org/2000/svg"
   height="75.209"
   width="81.246712"
   id="svg2"
   xml:space="preserve"
   enable-background="new 0 0 100 100"
   viewBox="0 0 81.246712 75.209"
   y="0px"
   x="0px"
   version="1.1"><metadata
     id="metadata14"><rdf:RDF><cc:Work
         rdf:about=""><dc:format>image/svg+xml</dc:format><dc:type
           rdf:resource="http://purl.org/dc/dcmitype/StillImage" /><dc:title></dc:title></cc:Work></rdf:RDF></metadata><defs
     id="defs12" /><path
     id="path4"
     d="m 9.3287143,43.195 -8.199,0 c -0.29000001,0 -0.57500001,-0.12 -0.78800001,-0.319 -0.448,-0.44 -0.456,-1.151 -0.021,-1.593 L 40.623714,0 l 19.174,19.643 0,-9.981 9.883,0 0,20.105 11.24,11.517 c 0.205,0.206 0.326,0.49 0.326,0.789 0,0.619 -0.498,1.123 -1.123,1.123 l -8.205,0 0,32.013 -62.5899997,0 0,-32.014 M 31.237714,42.357 c 2.034,2.779 3.3,6.05 3.642,9.484 l 0.155,1.484 11.176,0 0.15,-1.484 c 0.348,-3.435 1.613,-6.705 3.652,-9.484 3.805,-5.19 2.695,-12.477 -2.496,-16.288 -5.189,-3.811 -12.476,-2.695 -16.28,2.495 -3.013,4.103 -3.013,9.691 0.001,13.793 z m 3.797,12.854 0,0.902 c 0,0.234 0.185,0.42 0.413,0.42 l 10.343,0 c 0.234,0 0.42,-0.186 0.42,-0.42 l 0,-0.902 c 0,-0.228 -0.186,-0.412 -0.42,-0.412 l -10.343,0 c -0.229,0 -0.413,0.184 -0.413,0.412 z m 2.333,5.631 c 0.056,0.178 0.227,0.299 0.398,0.299 l 5.708,0 c 0.184,0 0.348,-0.121 0.398,-0.299 l 0.334,-1.109 1.584,0 c 0.234,0 0.42,-0.186 0.42,-0.42 l 0,-0.895 c 0,-0.229 -0.186,-0.42 -0.42,-0.42 l -10.342,0 c -0.229,0 -0.413,0.191 -0.413,0.42 l 0,0.895 c 0,0.234 0.185,0.42 0.413,0.42 l 1.592,0 0.328,1.109 z" /><text
     style="font-weight:bold;font-size:5px;font-family:'Helvetica Neue', Helvetica, Arial-Unicode, Arial, Sans-serif;fill:#000000"
     id="text6"
     font-weight="bold"
     font-size="5px"
     y="115"
     x="-8.9038305e-10">Created by Aldric Rodríguez</text>
<text
     style="font-weight:bold;font-size:5px;font-family:'Helvetica Neue', Helvetica, Arial-Unicode, Arial, Sans-serif;fill:#000000"
     id="text8"
     font-weight="bold"
     font-size="5px"
     y="120"
     x="-8.9038305e-10">from the Noun Project</text>
</svg>