<?xml version="1.0" encoding="utf-8" ?>
<svg baseProfile="full" height="1235" version="1.1" width="1000" xmlns="http://www.w3.org/2000/svg" xmlns:ev="http://www.w3.org/2001/xml-events" xmlns:xlink="http://www.w3.org/1999/xlink"><defs /><g id="geo0"><polygon fill="none" points="287.083077835,445.369410036 245.718404775,410.610090526 241.387025396,406.82013357 155.300860255,348.887934387 131.478273675,337.51806352 114.15275616,326.689615074 126.064049453,313.695476939 138.516765164,314.778321784 143.930989386,321.275390851 162.880774165,322.358235696 165.046463856,321.275390851 167.212153544,320.733968429 169.377843233,320.192546007 169.919265657,320.192546007 169.919265657,316.944011473 172.626377767,313.695476939 177.499179567,312.612632095 180.747714101,308.822675139 183.454826214,306.65698545 186.161938323,306.65698545 189.410472857,306.65698545 192.11758497,306.65698545 195.366119503,305.574140605 197.531809192,305.574140605 199.156076459,304.491295761 201.863188571,304.491295761 205.111723102,304.491295761 209.984524903,305.574140605 214.857326704,305.574140605 220.271550926,305.574140605 222.437240617,301.784183649 222.437240617,299.077071538 222.437240617,295.828537004 222.437240617,293.121424893 223.52008546,290.955735204 227.310042418,289.331467937 229.475732106,289.331467937 232.72426664,290.414312781 240.304180551,293.121424893 251.132628997,300.159916383 267.916724088,307.739830294 273.872370732,309.364097561 277.662327687,307.198407872 280.910862221,302.325606072 286.325086446,298.535649116 290.656465822,296.911381849 294.446422778,297.452804271 296.612112469,302.325606072 300.402069424,305.574140605 303.650603958,306.115563027 307.981983335,305.574140605 311.230517868,301.784183649 313.396207559,298.535649116 320.434699048,289.872890359 326.931768116,286.624355825 329.638880226,286.624355825 335.594526872,286.082933403 338.301638982,287.70720067 341.550173516,291.497157626 342.09159594,295.287114582 342.633018361,299.077071538 345.881552895,302.325606072 351.837199539,305.574140605 361.041380719,308.822675139 366.997027362,310.446942405 374.035518854,313.695476939 384.322544877,316.944011473 390.278191521,314.236899361 392.985303633,310.446942405 395.692415743,308.281252717 402.18948481,307.198407872 404.896596923,305.574140605 406.52086419,302.325606072 406.52086419,296.369959426 406.52086419,291.497157626 408.686553878,285.000088559 410.852243569,279.585864336 418.973579901,276.878752225 425.470648969,272.005950424 429.802028348,269.298838313 430.884873191,264.426036512 439.006209525,259.01181229 451.135295352,249.044197812 453.102459128,295.928267775 454.741762273,324.124281878 456.053204791,341.173034592 455.8598018,384.723031055 454.274647832,385.251415711 455.331417145,390.00687762 454.803032487,444.958881901 287.083077835,445.369410036" stroke="#000000" stroke-width="2" /><polygon fill="none" points="468.157354757,613.861024758 469.45196689,628.120657224 420.625030771,583.148479221 418.055192029,581.542330007 415.164123442,579.293721107 411.951825015,577.687571892 404.242308786,574.154043621 395.569103028,571.584204878 416.127812972,560.983620062 423.516099358,558.092551477 433.152994644,553.595333676 442.468660087,549.419345719 449.535716631,546.849506976 454.675394117,545.885817447 457.245232859,545.885817447 461.421220819,544.922127919 464.312289403,543.95843839 466.882128148,542.994748861 474.591644376,542.352289175 480.373781548,541.388599647 489.87444019,538.828600967 488.929432074,556.594753516 485.846622145,566.999237035 485.846622145,583.569340418 485.995303798,587.195975242 484.710384426,592.014422885 473.146110083,601.651318171 469.291351969,607.433455343 468.157354757,613.861024758" stroke="#000000" stroke-width="2" /><polygon fill="none" points="469.45196689,628.120657224 468.157354757,613.861024758 513.206560287,653.317915118 493.553646973,653.317915118 492.782944491,722.295787336 431.082592933,722.385000773 431.082592933,687.869408 326.173357004,687.869408 326.173357004,619.292374991 280.30395082,619.292374991 280.586008768,584.514972561 259.867086679,584.322629681 260.011956722,555.81958418 389.300559576,555.711019883 396.112847625,556.165172419 402.925135671,557.073477492 407.466661035,557.981782566 412.986225589,562.603501057 395.569103028,571.584204878 404.242308786,574.154043621 411.951825015,577.687571892 415.164123442,579.293721107 418.055192029,581.542330007 420.625030771,583.148479221 469.45196689,628.120657224" stroke="#000000" stroke-width="2" /><polygon fill="none" points="454.803032487,444.958881901 453.998835945,514.576830364 486.435603525,514.634342363 490.856188284,520.371736821 489.87444019,538.828600967 480.373781548,541.388599647 474.591644376,542.352289175 466.882128148,542.994748861 464.312289403,543.95843839 461.421220819,544.922127919 457.245232859,545.885817447 449.535716631,546.849506976 442.468660087,549.419345719 433.152994644,553.595333676 423.516099358,558.092551477 416.127812972,560.983620062 412.986225589,562.603501057 407.466661035,557.981782566 304.40859535,455.656436059 295.20441417,451.866479103 287.083077835,445.369410036 454.803032487,444.958881901" stroke="#000000" stroke-width="2" /><polygon fill="none" points="595.089158798,444.694689572 454.803032487,444.958881901 455.331417145,390.00687762 454.274647832,385.251415711 455.8598018,384.723031055 456.053204791,341.173034592 599.984020969,341.173034592 600.637197693,376.004684222 601.958159334,377.325645863 603.807505633,379.703376818 605.128467273,381.288530788 606.185236587,383.402069414 605.392659601,400.574570751 601.429774676,400.574570751 593.504004829,407.443571286 595.089158798,410.085494569 595.089158798,444.694689572" stroke="#000000" stroke-width="2" /><polygon fill="none" points="627.904863395,445.627304062 627.904863395,463.247738562 665.060997013,463.247738562 665.060997013,471.674902888 692.257754608,471.674902888 692.257754608,457.118891779 713.708718348,456.735838855 713.325665424,448.691727454 743.969899334,449.074780377 747.41737565,450.990044997 752.397063661,454.820574236 756.227592899,456.735838855 759.29201629,457.501944703 765.803915996,458.651103475 770.400551083,459.417209323 773.464974474,460.183315171 777.678556639,460.183315171 777.295503714,515.342936212 756.993698748,515.725989135 756.993698748,549.817699362 670.040685024,549.051593514 670.040685024,514.959883287 486.435603525,514.634342363 453.998835945,514.576830364 454.803032487,444.958881901 595.089158798,444.694689572 627.904863395,445.627304062" stroke="#000000" stroke-width="2" /><polygon fill="none" points="559.024605019,102.368515305 560.852974551,102.488016581 561.395510349,102.468896377 561.641682979,102.497576683 561.787474537,102.578837552 562.306110077,103.616108634 562.358690639,103.82643088 562.200948954,106.044374577 562.124468137,106.343127768 561.808984766,107.084035684 561.679923388,107.834503702 561.546081958,108.109356638 560.250688117,110.229309287 559.40939913,112.048118719 559.368768696,112.203470378 559.368768696,112.428132779 559.497830074,113.496474193 559.473929819,114.78230793 559.531290432,115.073891045 559.610161274,115.236412782 559.8372137,115.518435794 560.064266126,115.721587965 560.800393989,116.469665957 561.949996273,117.774619899 562.275039745,118.195264393 562.459071711,118.568108376 562.557062758,118.697169755 562.686124137,118.778430623 563.087648426,118.912272053 564.187060173,118.178534214 564.275491118,118.087713244 564.373482165,117.839150588 564.624434845,116.625017617 564.729595969,116.455325804 564.91601796,116.381235012 565.076149671,116.381235012 565.360562709,116.445765702 565.659315901,116.46249588 565.797937382,116.431425549 565.984359376,116.35016468 566.832818439,115.776558552 566.995340176,115.597306637 567.236732754,115.193392322 567.698007682,114.158511265 567.77926855,114.060520219 567.87008952,113.995989529 568.054121486,113.933848865 568.144942457,113.914728661 568.477156006,113.93145884 568.775909197,113.988819452 568.888240399,113.988819452 569.29454474,113.914728661 570.362886153,113.422383401 570.718999957,113.21923123 571.404937287,112.662355281 571.722810683,112.507003621 571.988103517,112.4114026 572.56409967,112.289511297 574.110446192,112.208250429 574.287308081,112.177180097 574.456999894,112.112649408 574.741412932,111.916667314 575.016265868,111.809116165 575.233758192,111.76370568 575.850384779,111.69917499 576.189768405,111.627474225 576.739474279,111.390861697 577.702654569,110.874616181 577.855616203,110.824425645 578.00140776,110.810085492 579.961228699,110.905686513 580.79534761,110.998897509 581.270962691,111.051478071 581.725067544,111.139909016 581.854128923,111.061038173 581.99992048,110.881786258 582.121811783,110.793355313 582.243703085,110.745554802 582.552016378,110.728824624 582.793408957,110.841155824 583.264243987,111.132738939 583.400475442,111.173369373 583.644258046,111.18053945 583.74941917,111.11600876 583.86175037,110.979777305 584.370825811,110.050057372 584.542907649,109.86363538 584.679139104,109.806274767 584.84166084,109.782374512 585.035252908,109.782374512 585.374636534,109.880365559 585.682949828,109.999866836 585.981703019,110.145658393 587.114575124,110.630833577 587.310557217,110.793355313 587.365527805,110.874616181 587.520879464,110.979777305 587.642770766,110.996507484 587.876993269,110.881786258 587.989324469,110.850715926 588.297637762,110.841155824 588.539030341,110.881786258 588.701552077,110.793355313 588.945334681,110.518502377 589.131756673,110.444411585 589.447240045,110.145658393 589.80335385,109.708283721 590.183367909,109.297199329 590.295699109,109.215938461 590.417590412,109.16813795 590.742633884,109.151407771 591.105917765,109.175308026 592.879316712,109.208768384 593.056178601,109.239838716 593.266500848,109.313929508 593.873567333,109.629412878 594.100619761,109.701113644 594.650325634,109.741744078 597.444265483,109.725013899 598.407445772,109.701113644 598.431346028,112.141329714 598.421785926,114.390343742 598.35008516,115.513655743 598.299894623,115.960590518 598.221023781,116.445765702 598.111082606,116.930940885 597.946170845,117.504547013 597.76691893,118.006452376 597.291303849,119.132154402 596.892169583,120.100114744 596.399824323,121.120655647 595.792757838,122.408879409 592.594903674,129.191771876 592.01890752,130.594716865 591.818145376,131.251973887 591.550462514,132.439816577 591.483541799,133.08034342 591.328190139,135.513389414 591.528952284,135.886233398 591.419011109,137.430189893 591.462031569,138.885715443 591.483541799,139.45454152 591.507442054,140.219349691 591.595872999,140.821636126 591.705814176,141.514743531 592.372631299,143.362233269 592.972527708,144.817758819 593.610664525,146.175293323 595.7330072,150.016064357 596.194282127,150.678101429 596.760718178,151.325798349 597.513576223,152.038025959 598.218633755,152.645092444 599.52119767,153.785134624 599.719569792,153.959606488 601.155975137,155.233490098 601.813232158,155.878796992 602.580430356,156.81090695 602.977174594,157.415583411 603.20422702,157.812327649 603.479079956,158.548455514 603.713302458,159.373014323 603.818463582,160.027881319 603.847143888,160.92653092 603.734812688,161.880151108 603.09189582,164.487668967 602.506339565,166.578941309 602.343817828,167.044996288 602.143055684,167.527781446 601.772601724,168.294979643 601.30415672,169.035887559 601.01496363,169.432631797 600.728160566,169.774405448 598.201903577,172.410603613 597.692828138,172.969869588 597.238723287,173.414414337 595.742567302,174.984661113 595.159401072,175.680158544 594.650325634,176.382826051 594.406543029,176.810640621 594.067159401,177.539598409 593.782746363,178.5027787 593.670415163,179.174375875 593.622614652,179.829242871 593.646514908,180.419579178 593.76840621,181.291938498 593.911807742,181.851204473 594.131690091,182.465441036 594.559504663,183.3139001 594.891718212,183.856435897 595.05902,184.078708271 596.777448357,185.785186503 597.733458572,186.800947355 598.213853704,187.446254249 598.438516104,187.838218437 598.591477738,188.179992088 598.818530164,188.875489519 598.969101772,189.559036821 599.131623509,190.928521453 599.160303815,194.262607073 599.246344737,201.014429207 457.846682512,198.949232835 458.765423881,196.423190156 459.080907251,196.107706785 459.274499319,195.995375585 459.613882945,195.866314207 460.37630109,195.785053338 460.945127169,195.517370478 463.208481347,194.47292932 463.564595154,194.279337252 464.147761384,193.908883294 464.697467256,193.454778442 469.310216538,189.475385928 470.849392981,188.311443492 472.742293204,186.726856563 473.373259945,186.110229976 477.873678027,182.341159708 480.447735527,180.352658463 481.580607632,179.253246718 482.228304551,178.361767193 482.584418355,177.828791499 483.879812193,175.304924535 484.687640826,174.270043478 485.141745677,173.815938627 485.820512928,173.330763444 486.599661251,172.879048618 487.020305747,172.685456549 487.407489884,172.360413077 487.957195756,171.779636872 488.444760965,171.067409263 490.289860678,168.964186792 490.59339392,168.713234111 490.354391367,167.20990805 490.354391367,166.643471999 490.418922056,165.931244389 490.531253256,165.398268695 490.72723535,164.652580728 490.873026908,164.265396592 491.308011554,163.553168983 492.362012816,162.324695858 492.572335063,161.870591006 492.572335063,161.579007891 492.31182228,160.448525814 492.31182228,159.4925156 492.409813327,158.959539906 492.538874706,158.586695922 492.749196953,158.264042475 493.332363182,157.778867292 493.736277497,157.310422287 493.850998723,157.035569351 494.011130434,156.371142252 494.011130434,155.998298269 493.932259591,155.709105179 493.769737855,155.465322575 492.976249378,154.576233076 492.732466774,154.251189603 492.603405395,153.976336667 492.522144527,153.718213909 492.409813327,153.216308547 492.409813327,152.876924921 492.443273684,152.585341806 492.555604884,152.310488869 493.640676476,150.176196067 493.867728902,149.851152594 494.190382351,149.506988918 494.36724424,149.3181769 494.692287713,149.107854654 495.406905347,148.727840594 495.872960325,148.476887912 498.365756958,146.956831672 498.657340073,146.746509426 498.948923188,146.600717868 499.661150799,146.359325289 500.502439786,146.149003042 501.960355363,145.953020948 502.947435907,145.87176008 504.242829746,145.888490259 504.938327178,145.986481306 505.91106757,146.163343195 508.12662124,146.844500473 508.726517649,146.987902005 509.326414057,147.10262323 509.971720953,147.198224252 512.223125005,147.21495443 512.59596899,147.183884098 513.145674862,147.085893051 514.837812939,146.658078481 519.993098019,145.087831705 521.190500811,144.724547823 523.100131213,144.093581083 523.255482873,144.019490291 523.570966243,143.754197457 523.812358822,143.649036333 523.934250124,143.639476231 525.148383096,143.876088759 525.497326824,143.964519704 526.168923999,144.263272895 526.450947011,144.296733253 527.261165667,144.280003074 528.733421397,143.981249883 530.110076103,143.486514597 531.16168734,143.018069592 531.582331834,142.865107958 532.253929008,142.8316476 532.84665534,142.865107958 533.331830525,142.855547855 534.156389334,142.743216655 534.366711581,142.743216655 534.536403394,142.767116911 534.641564517,142.8316476 534.81125633,142.848377779 535.167370134,142.78384709 535.815067056,142.549624588 536.17118086,142.346472417 536.763907192,141.837396978 536.909698749,141.748966033 537.038760128,141.698775497 537.184551685,141.682045319 537.370973677,141.617514629 537.581295924,141.302031258 537.7007972,141.189700058 538.202702565,140.898116943 538.833669305,140.592193675 539.385765203,140.23607987 540.145793322,139.686373997 542.607519623,137.793473774 543.398618076,136.983255118 543.852722927,136.440719322 544.063045174,136.192156666 544.4024288,135.819312683 544.548220357,135.592260257 544.727472272,135.042554384 545.100316255,133.118583829 545.212647455,132.372895862 545.310638502,132.162573615 545.535300904,131.904450858 546.006135934,131.58179741 546.101736955,131.467076185 546.457850759,130.805039112 546.684903185,130.577986686 546.8641551,130.482385665 547.105547679,130.41546495 547.722174266,130.432195128 547.949226691,130.109541681 548.757055324,129.139191314 549.082098796,128.685086463 549.469282932,128.0708499 549.825396737,127.035968844 549.923387783,126.517333303 549.923387783,125.611513626 549.533813622,123.05657633 549.404752243,121.957164584 548.725984992,117.750719643 548.465472209,117.232084102 548.173889091,116.844899966 547.851235645,116.488786161 547.301529772,116.037071335 546.782894232,115.647497173 546.297719049,115.355914058 545.55203108,114.968729921 544.096505531,114.321033002 543.804922416,114.158511265 543.577869991,113.964919197 543.319747233,113.513204371 543.319747233,112.963498498 543.350817565,112.573924336 543.513339302,111.766095705 544.500419846,108.221687838 544.710742093,107.559650765 545.341708834,106.168655904 545.456430059,106.006134168 545.585491438,105.877072789 545.731282998,105.812542099 546.006135934,105.795811921 546.39332007,105.9248733 546.684903185,106.070664857 547.332600104,106.039594526 547.624183219,105.958333657 547.899036155,105.812542099 550.456363477,104.000902745 552.172401811,103.128543425 554.846840384,102.134292802 554.925711227,102.08171224 555.324845491,101.806859304 555.774170291,101.412505091 556.718230378,100.762418145 558.3864682,100.0 558.350617819,101.089851644 558.424708611,101.371874657 558.842963079,101.933530658 558.838183028,102.177313262 558.907493768,102.306374641 559.024605019,102.368515305" stroke="#000000" stroke-width="2" /><polygon fill="none" points="756.993698748,549.817699362 757.9045986,652.238931642 648.07949479,651.853580401 647.694143548,687.305894613 550.585630706,687.614175606 550.970981946,721.525084853 561.760816708,721.525084853 561.760816708,726.920002233 574.092056434,723.066489818 583.725837469,723.066489818 584.111188711,735.397729545 578.330920091,735.397729545 578.330920091,739.6365932 557.521953052,739.6365932 557.521953052,757.748101548 514.747965252,757.748101548 514.747965252,723.066489818 492.782944491,722.295787336 493.553646973,653.317915118 513.206560287,653.317915118 468.157354757,613.861024758 469.291351969,607.433455343 473.146110083,601.651318171 484.710384426,592.014422885 485.995303798,587.195975242 485.846622145,583.569340418 485.846622145,566.999237035 488.929432074,556.594753516 489.87444019,538.828600967 490.856188284,520.371736821 486.435603525,514.634342363 670.040685024,514.959883287 670.040685024,549.051593514 756.993698748,549.817699362" stroke="#000000" stroke-width="2" /><polygon fill="none" points="757.9045986,652.238931642 758.358604966,687.16394166 647.694143548,687.305894613 648.07949479,651.853580401 757.9045986,652.238931642" stroke="#000000" stroke-width="2" /><polygon fill="none" points="777.678556639,460.183315171 810.138605985,460.038028098 834.459515555,471.021664678 843.48178846,470.629391942 849.758152219,468.275755533 853.680879569,469.452573738 855.24997051,476.121210233 861.918607004,478.082573907 866.625879824,476.513482967 869.764061704,477.690301172 874.471334524,480.436210318 885.84724384,480.436210318 885.84724384,516.917574672 841.128152049,517.702120142 840.735879314,653.42848645 757.9045986,652.238931642 756.993698748,515.725989135 777.295503714,515.342936212 777.678556639,460.183315171" stroke="#000000" stroke-width="2" /><polygon fill="none" points="260.011956722,555.81958418 260.336810175,550.297075473 154.218015409,550.297075473 154.218015409,480.453583 130.936851251,481.536427844 131.478273675,337.51806352 155.300860255,348.887934387 241.387025396,406.82013357 245.718404775,410.610090526 287.083077835,445.369410036 295.20441417,451.866479103 304.40859535,455.656436059 407.466661035,557.981782566 402.925135671,557.073477492 396.112847625,556.165172419 389.300559576,555.711019883 260.011956722,555.81958418" stroke="#000000" stroke-width="2" /><polygon fill="none" points="599.246344737,201.014429207 599.984020969,341.173034592 456.053204791,341.173034592 454.741762273,324.124281878 453.102459128,295.928267775 451.135295352,249.044197812 455.069622902,248.716337183 456.708926049,249.044197812 459.33181108,249.044197812 461.954696114,247.732755296 463.593999261,245.437730892 464.577581147,243.470567117 464.577581147,241.175542714 465.889023663,239.864100197 466.544744921,237.569075793 466.544744921,233.306887615 466.544744921,230.356141953 466.544744921,228.388978178 465.561163034,225.766093145 463.92185989,224.126789999 462.282556743,221.176044338 459.33181108,217.897438046 456.708926049,214.290971126 457.036786678,210.684504206 456.38106542,206.094455399 456.38106542,201.504406591 457.846682512,198.949232835 599.246344737,201.014429207" stroke="#000000" stroke-width="2" /></g><g id="geo1"><polygon fill="none" points="768.837328917,926.922336019 756.868464467,939.514756293 742.821659154,938.614188993 740.310516387,941.683363484 733.529447249,942.38095139 720.426841092,941.971494947 711.418799359,938.695843408 709.780973587,940.743125621 718.78901532,944.428233603 729.844339268,945.247146487 789.215523423,941.971494947 816.649105065,979.232031209 797.814108713,979.641487653 792.491174961,985.373877847 796.995195828,987.011703616 794.129000733,996.838658235 793.71954429,1000.11430977 793.310087847,1004.2088742 796.585739385,1007.89398218 807.231606889,1007.89398218 819.51530016,1016.49256747 824.838233913,1017.31148036 826.885516127,1016.08311103 831.798993436,1015.67365459 835.89355786,1014.03582882 844.49214315,1005.84669997 843.263773822,1012.39800305 846.129968922,1016.90202391 850.633989788,1013.21691593 860.87040085,1018.13039324 858.823118636,1024.27223988 860.87040085,1026.31952209 873.973007007,1024.27223988 878.06757143,1027.54789142 880.93376653,1028.3668043 885.84724384,1032.05191229 881.343222968,1046.79234421 861.689313736,1051.70582152 863.736595945,1054.98147306 880.114853645,1050.88690864 881.343222968,1054.57201662 862.917683059,1059.48549393 844.082686707,1050.06799575 844.082686707,1052.93419085 871.516268354,1066.85570989 869.46898614,1072.17864364 855.547467098,1064.80842768 853.500184883,1067.26516634 872.335181235,1078.72994672 869.46898614,1085.2812498 855.547467098,1078.72994672 853.09072844,1082.41505471 857.185292869,1089.37581423 852.271815555,1094.28929154 849.815076902,1097.56494307 847.767794688,1097.56494307 839.169209398,1097.97439952 836.303014303,1096.74603019 833.436819203,1095.10820442 829.751711222,1090.60418355 823.200408146,1089.78527067 818.286930837,1089.78527067 814.601822851,1086.50961913 801.499216694,1087.32853201 792.900631404,1077.09212095 788.396610538,1072.17864364 786.758784766,1064.80842768 790.034436304,1058.66658104 794.997625501,1055.24281965 790.533371697,1051.05758171 791.091403422,1056.07986724 784.953054438,1059.14904173 777.698642005,1059.70707346 773.234388201,1061.10215277 772.676356476,1069.75164452 767.375055084,1072.26278728 763.010311105,1070.13136143 755.098357117,1064.72935899 745.403684082,1055.3909295 745.813140524,1058.66658104 754.002269372,1068.08407922 754.002269372,1075.45429518 790.034436304,1096.33657375 774.884547938,1114.35265722 771.608896395,1118.85667808 773.246722167,1122.54178606 779.388568805,1125.40798116 786.758784766,1120.49450385 794.538457171,1122.54178606 796.560114332,1127.44514955 800.466336411,1131.63038749 796.839130194,1134.42054612 772.843765994,1134.69956198 746.616274889,1129.67727645 741.873005223,1130.23530818 735.576729463,1134.82547934 727.085164493,1131.90940336 721.504847234,1134.97857785 716.482561705,1132.46743508 708.962060702,1134.82547934 697.038981083,1134.06469585 695.040541659,1121.72287318 678.05780867,1092.5261881 666.018482134,1057.06362739 662.377709718,1047.96169635 661.827530805,1039.15883378 650.409789432,1015.67365459 640.582834813,1002.57104843 632.554590169,984.316987323 647.342430898,955.74576297 654.675204968,932.974304035 710.599886473,930.916171002 768.837328917,926.922336019" stroke="#000000" stroke-width="2" /><polygon fill="none" points="654.675204968,932.974304035 647.342430898,955.74576297 632.554590169,984.316987323 640.582834813,1002.57104843 599.107134999,1017.42676681 569.766720504,1019.86593338 560.044432351,1022.10328755 535.561470828,1019.352393 502.000557284,1021.82819809 503.376004561,1018.25203518 515.204851137,1013.57551444 537.940994619,1002.3793736 551.398176202,991.964347096 556.383259621,985.042428566 556.509532851,968.956004788 553.717374878,940.951898239 635.143853646,938.476093141 654.675204968,932.974304035" stroke="#000000" stroke-width="2" /><polygon fill="none" points="546.370162898,833.787491537 549.288434651,897.982925322 489.883840353,901.662185562 484.711185017,904.172438066 484.298550835,899.633462054 474.807964631,901.077681694 459.612814222,889.465607073 456.445743488,890.968144213 447.857075916,887.849193057 447.563182462,877.415975313 447.563182462,870.950319246 455.498305817,866.688864112 459.612814222,855.814806181 477.981155317,846.26326881 486.797959045,837.446465083 498.847590806,836.858678168 546.370162898,833.787491537" stroke="#000000" stroke-width="2" /><polygon fill="none" points="623.700878918,698.401796638 642.137795158,695.683282155 647.432775619,695.620829796 654.640512664,731.593389002 639.541736282,733.356749749 631.342108814,733.962905005 623.700878918,698.401796638" stroke="#000000" stroke-width="2" /><polygon fill="none" points="409.295410851,1134.61487476 448.633202956,1121.13549145 474.216522299,1095.27708266 510.903673978,1113.02700484 513.135800883,1109.67881449 553.442285421,1124.98674383 558.393895617,1129.38817511 580.125962585,1134.88996422 409.295410851,1134.61487476" stroke="#000000" stroke-width="2" /><polygon fill="none" points="422.609740487,953.482222927 426.736082318,950.593783647 448.605694012,947.911661458 455.41415803,945.848490543 459.334182768,945.642173452 461.603670772,944.816905085 464.285792963,946.054807634 468.412134795,944.404270903 478.109038093,942.960051262 477.696403911,947.499027275 478.934306457,953.89485711 499.359698511,970.193907336 499.772332698,972.669712434 500.391283969,979.478176452 495.645990867,985.461372105 492.138600311,987.730860111 481.616428648,987.52454302 478.934306457,1005.06149579 469.492517316,999.449670906 467.223029307,992.022255614 460.620882382,980.881132674 450.256230745,974.113932074 448.241856893,968.708424278 431.117538301,962.725228625 422.609740487,953.482222927" stroke="#000000" stroke-width="2" /><polygon fill="none" points="645.713498891,755.28854902 568.265225484,816.594724268 565.473237636,810.129068202 555.128187932,766.618141809 570.998434638,764.707834335 566.685548153,741.604134901 631.342108814,733.962905005 639.541736282,733.356749749 645.713498891,755.28854902" stroke="#000000" stroke-width="2" /><polygon fill="none" points="666.018482134,1057.06362739 602.434827777,1074.02523748 539.921323712,1101.58735447 522.622340221,1097.12310066 513.135800883,1109.67881449 510.903673978,1113.02700484 474.216522299,1095.27708266 517.125727721,1038.86691364 535.286381372,1022.378377 535.561470828,1019.352393 560.044432351,1022.10328755 569.766720504,1019.86593338 599.107134999,1017.42676681 640.582834813,1002.57104843 650.409789432,1015.67365459 661.827530805,1039.15883378 662.377709718,1047.96169635 666.018482134,1057.06362739" stroke="#000000" stroke-width="2" /><polygon fill="none" points="700.884648213,689.889907374 694.161835369,693.967679098 695.374145886,695.069779564 703.639899376,690.551167653 705.623680216,692.424738445 698.019187,697.604610635 699.231497517,698.927131194 707.276830917,694.18809919 709.150401707,696.061669983 704.411369704,700.690491939 708.819771568,705.870364129 715.542584412,702.784482824 718.187625525,705.760154082 712.787333243,710.168555946 715.322164317,712.923807111 720.171406365,720.087460139 727.114639303,726.964567046 668.482894517,773.693626799 645.713498891,755.28854902 639.541736282,733.356749749 654.640512664,731.593389002 647.432775619,695.620829796 691.903753974,690.980986835 691.737214345,692.424738445 699.011077422,688.016336581 700.884648213,689.889907374" stroke="#000000" stroke-width="2" /><polygon fill="none" points="556.509532851,968.956004788 556.383259621,985.042428566 551.398176202,991.964347096 537.940994619,1002.3793736 515.204851137,1013.57551444 478.934306457,1005.06149579 481.616428648,987.52454302 492.138600311,987.730860111 495.645990867,985.461372105 500.391283969,979.478176452 499.772332698,972.669712434 511.945041094,970.400224428 517.928236747,971.019175702 556.509532851,968.956004788" stroke="#000000" stroke-width="2" /><polygon fill="none" points="498.847590806,836.858678168 486.797959045,837.446465083 477.981155317,846.26326881 459.612814222,855.814806181 455.498305817,866.688864112 447.563182462,870.950319246 447.563182462,877.415975313 443.889514241,884.763311752 437.129964717,887.261406142 427.561350682,888.286022023 421.784472122,889.317607481 419.79025072,874.917880923 414.563373917,850.529994285 406.853223993,809.385218418 448.004022646,804.677344564 487.826586148,799.240315599 494.145295487,831.421649203 498.318582581,833.34665135 498.847590806,836.858678168" stroke="#000000" stroke-width="2" /><polygon fill="none" points="288.918653521,745.695646045 322.902785615,743.916919919 342.712911873,742.521840604 363.639101587,737.220539211 364.219079749,750.519447361 384.769851891,750.519447361 386.511442749,776.643310257 414.29443148,776.166503396 442.38167753,772.811810365 448.004022646,804.677344564 406.853223993,809.385218418 389.437315395,812.171763794 368.538225081,815.306627342 294.207127189,818.441490889 288.918653521,745.695646045" stroke="#000000" stroke-width="2" /><polygon fill="none" points="302.326876163,938.008441067 296.137363416,855.275287388 357.207222494,852.5931652 380.727370921,851.767896834 385.678981112,851.561579742 391.249542583,853.005799382 414.563373917,850.529994285 419.79025072,874.917880923 421.784472122,889.317607481 416.007593562,891.587095487 411.674934637,894.475534767 405.898056077,904.378755158 400.327494611,921.296756658 384.028444383,921.296756658 372.681004352,924.597830122 364.518381176,916.097565953 348.748221742,917.170414829 350.398758471,935.738953061 339.587742883,936.316640917 302.326876163,938.008441067" stroke="#000000" stroke-width="2" /><polygon fill="none" points="327.167453974,1134.38104873 172.388371956,1135.0 170.737835222,1134.79368291 168.468347218,1128.81048726 167.024127578,1118.0819985 164.960956662,1112.51143703 161.866200288,1103.02085082 155.470370453,1078.46911694 154.232467906,1071.86697001 152.16929699,1067.12167691 152.375614084,1063.40796926 151.137711532,1061.13848125 149.487174804,1057.01213943 149.899808986,1052.6794805 149.074540617,1047.72787031 148.249272252,1044.22047975 149.074540617,1035.06000089 149.074540617,1032.3778787 148.455589346,1031.34629325 147.424003888,1030.72734197 144.741881697,1021.64938995 145.979784248,1016.49146266 145.360832972,1014.42829175 143.916613332,1013.1903892 142.885027875,1009.68299864 143.091344968,1008.238779 144.122930426,1007.00087645 142.885027875,1006.17560809 143.297662057,1003.90612008 143.751559658,1002.75074437 178.577884698,1002.25558335 204.20246746,1010.38447675 237.412325248,999.913974054 233.785119031,995.449720249 236.296261793,992.938577484 241.318547327,996.844799563 257.780483231,997.960863015 329.106834634,991.939728777 334.396085819,987.524543019 340.791915655,993.095104489 326.349719255,1005.26781289 324.980492803,1024.62035606 324.980492803,1034.64736671 323.329956074,1044.42679685 319.203614243,1092.00351814 321.060468065,1093.9428988 326.83734663,1113.50175907 327.167453974,1134.38104873" stroke="#000000" stroke-width="2" /><polygon fill="none" points="548.87560462,650.815547633 557.770779936,697.760129256 441.93095269,712.38812742 431.774775283,649.916475736 463.528944542,645.055235865 479.203262281,643.29187512 478.027688449,647.210454554 467.488805726,649.079428147 468.325853313,651.590570912 498.992088421,648.190099413 501.343236085,651.912749875 506.437389346,651.912749875 509.964110837,657.398761083 513.6867613,657.986547998 515.646051017,656.027258281 514.666406161,643.683733063 517.01755382,642.508159233 519.760559426,640.548869516 527.793647265,640.548869516 527.793647265,642.900017177 529.948865953,643.683733063 539.941243509,645.251164837 538.961598653,644.271519978 536.218593046,643.487804092 536.414522022,641.528514374 541.90053323,643.683733063 542.488320144,638.589579799 545.035396774,634.671000364 550.325479011,632.711710648 555.223703306,632.319852704 557.378921994,632.907639619 556.007419191,635.062858308 554.244058445,635.454716251 552.088839757,635.258787279 548.562118266,635.454716251 546.602828549,636.630290082 544.643538832,638.981437742 544.643538832,641.724443346 545.819112664,644.46744895 546.015041635,646.426738667 548.87560462,650.815547633" stroke="#000000" stroke-width="2" /><polygon fill="none" points="561.970058536,821.287985188 568.297116009,830.365937212 639.809002602,840.309925126 648.623236952,851.272735814 648.3481475,866.1275664 641.746000571,877.956412977 656.600831158,898.037943213 659.076636256,920.870368002 654.675204968,932.974304035 635.418943098,938.476093141 553.717374878,940.951898239 549.288434651,897.982925322 546.370162898,833.787491537 561.970058536,821.287985188" stroke="#000000" stroke-width="2" /><polygon fill="none" points="631.342108814,733.962905005 566.685548153,741.604134901 564.826672033,733.114287645 559.7790519,706.483866722 623.700878918,698.401796638 631.342108814,733.962905005" stroke="#000000" stroke-width="2" /><polygon fill="none" points="556.509532851,968.956004788 517.928236747,971.019175702 511.945041094,970.400224428 499.772332698,972.669712434 499.359698511,970.193907336 478.934306457,953.89485711 477.696403911,947.499027275 478.109038093,942.960051262 468.412134795,944.404270903 464.285792963,946.054807634 461.603670772,944.816905085 459.334182768,945.642173452 462.63525623,933.675782146 461.809987866,927.692586494 474.807964631,901.077681694 484.298550835,899.633462054 484.711185017,904.172438066 489.883840353,901.662185562 549.288434651,897.982925322 553.717374878,940.951898239 556.509532851,968.956004788" stroke="#000000" stroke-width="2" /><polygon fill="none" points="579.91075374,627.5 599.503650914,638.667951387 605.577449035,639.05980933 599.895508856,635.141229896 603.422230347,632.594153264 612.630892018,638.667951387 605.969306978,632.202295321 610.671602301,629.459289716 621.055837799,641.606885963 623.211056492,641.410956992 618.900619111,632.594153264 621.839553689,631.810437378 628.109280782,642.782459793 631.831931244,643.174317737 628.892996671,634.553442982 632.027860215,632.398224293 637.317942452,644.545820538 640.844663944,645.133607453 640.452806001,636.512732699 644.959172349,636.512732699 645.546959267,649.639973803 648.094035898,650.42368969 651.81668636,641.998743907 654.951549909,642.978388765 650.641112528,652.382979407 653.188189163,653.362624266 660.437561117,645.329536425 663.180566719,647.092897171 657.694555511,654.146340153 660.241632146,655.321913983 666.315430268,650.031831747 669.842151759,652.382979407 663.768353632,661.199783134 667.295075124,663.550930795 676.895594737,658.260848559 686.496114355,668.645084059 676.307807823,674.718882183 677.091523713,675.502598069 687.475759211,670.604373777 693.15769939,676.482242928 683.557179777,682.751970023 684.340895662,683.53568591 694.333273222,678.441532645 701.386716205,684.71125974 691.903753974,690.980986835 647.432775619,695.620829796 642.137795158,695.683282155 579.518895798,651.991121464 574.03288459,643.566175681 580.890398601,643.174317737 584.417120092,642.782459793 581.870043457,641.998743907 578.343321966,640.039454189 578.147392995,637.100519613 588.335699526,641.802814935 589.511273353,643.762104652 593.037994845,643.762104652 593.625781763,643.174317737 586.964196723,640.039454189 573.249168705,630.047076631 575.404387393,628.67557383 578.539250937,629.85114766 577.36367711,628.67557383 579.91075374,627.5" stroke="#000000" stroke-width="2" /><polygon fill="none" points="418.098273422,1062.81652693 446.294942589,1074.5490922 419.680037788,1105.9092901 394.71566972,1126.91237001 388.93879116,1134.38104873 385.859919409,1133.18115416 381.84023637,1134.47402416 327.167453974,1134.38104873 326.83734663,1113.50175907 321.060468065,1093.9428988 319.203614243,1092.00351814 323.329956074,1044.42679685 324.980492803,1034.31725936 324.980492803,1024.62035607 339.216372114,1030.80986881 348.838282224,1042.61120644 369.428727953,1052.8857976 418.098273422,1062.81652693" stroke="#000000" stroke-width="2" /><polygon fill="none" points="535.561470828,1019.352393 535.286381372,1022.378377 517.125727721,1038.86691364 474.216522299,1095.27708266 448.633202956,1121.13549145 409.295410851,1134.61487476 388.93879116,1134.38104873 394.71566972,1126.91237001 419.680037788,1105.9092901 446.294942589,1074.5490922 417.982016811,1062.81652693 418.070764473,1029.81954677 414.447117311,1029.81954677 414.247021047,1013.85060389 436.29080595,1013.82003646 436.388455511,1010.40009924 449.413228079,1006.14765346 469.698834405,1006.97336751 469.492517316,999.449670906 478.934306457,1005.06149579 515.204851137,1013.57551444 503.376004561,1018.25203518 502.000557284,1021.82819809 535.561470828,1019.352393" stroke="#000000" stroke-width="2" /><polygon fill="none" points="294.207127189,818.441490889 120.566164499,826.909976444 120.370235528,809.864155905 141.321573573,807.676282387 139.366151051,780.293613034 216.932560915,772.760184738 216.37452919,766.342819893 247.55861601,766.226419927 247.136280229,747.362813928 264.182100767,746.38316907 288.918653521,745.695646044 294.207127189,818.441490889" stroke="#000000" stroke-width="2" /><polygon fill="none" points="303.193407946,947.168919929 138.38731528,954.678862058 138.511105536,945.105749014 137.066885896,938.297284995 137.066885896,933.964626074 132.940544064,925.918259507 130.052104784,913.951868202 130.464738966,906.937087092 129.22683642,902.191793989 131.083690242,898.890720525 128.607885144,889.606451409 125.925762958,879.290596835 126.544714229,872.193288889 124.687860406,868.685898334 124.275226224,864.559556505 125.100494589,863.734288139 135.416349162,862.290068498 204.738891898,859.195312126 296.137363416,855.275287388 302.326876163,938.008441067 303.193407946,947.168919929" stroke="#000000" stroke-width="2" /><polygon fill="none" points="441.93095269,712.38812742 557.770779936,697.760129256 559.7790519,706.483866722 564.826672033,733.114287646 445.377213809,748.777856502 439.140794065,719.363523991 441.93095269,712.38812742" stroke="#000000" stroke-width="2" /><polygon fill="none" points="143.751559658,1002.75074437 138.38731528,954.678862058 303.275934784,947.045129673 302.326876163,938.008441067 339.587742883,936.316640917 340.206694153,944.981958759 330.097156673,945.807227125 334.396085819,987.52454302 329.106834634,991.939728777 257.780483231,997.960863015 241.318547327,996.844799563 236.296261793,992.938577484 233.785119031,995.44972025 237.412325248,999.913974054 204.20246746,1010.38447675 178.577884698,1002.25558335 143.751559658,1002.75074437" stroke="#000000" stroke-width="2" /><polygon fill="none" points="654.675204968,932.974304035 659.076636256,920.870368003 656.600831158,898.037943213 641.746000571,877.956412977 648.3481475,866.127566399 648.623236952,851.272735814 758.108840156,846.871304529 758.108840156,847.97166235 744.354367395,849.897288537 744.079277938,852.373093635 741.60347284,854.573809277 743.254009574,858.425061652 739.127667742,864.477029668 739.677846655,865.027208578 748.480709226,863.926850757 749.581067047,867.503013676 750.956514319,867.778103132 749.856156498,860.625777293 761.960092531,859.250330017 764.435897629,866.127566399 766.086434363,869.978818773 772.138402379,869.978818773 772.138402379,882.632933717 765.53625545,885.658917725 768.287150004,904.915179595 756.458303428,906.015537417 756.458303428,907.666074148 758.659019069,912.617684344 760.309555803,912.892773799 772.688581287,909.591700335 771.313134015,915.093489441 768.837328917,926.922336019 710.599886473,930.916171002 654.675204968,932.974304035" stroke="#000000" stroke-width="2" /><polygon fill="none" points="439.140794065,719.363523991 445.377213809,748.777856502 442.938986605,758.530765316 442.38167753,772.811810365 414.29443148,776.166503396 386.511442749,776.643310257 384.769851891,750.519447361 364.219079749,750.519447361 363.639101587,737.220539211 432.723429219,724.385809522 439.140794065,719.363523991" stroke="#000000" stroke-width="2" /><polygon fill="none" points="579.518895798,651.991121464 642.137795158,695.683282155 623.700878918,698.401796638 559.7790519,706.483866722 557.770779936,697.760129256 548.87560462,650.815547633 554.949402746,652.970766323 567.488856932,644.545820538 569.644075625,642.390601849 563.374348527,636.512732699 564.353993388,634.749371953 574.03288459,643.566175681 579.518895798,651.991121464" stroke="#000000" stroke-width="2" /><polygon fill="none" points="254.524979453,731.742920905 264.644273458,735.930090845 264.182100767,746.383169069 247.136280229,747.362813928 247.55861601,766.226419927 216.37452919,766.342819893 216.932560915,772.760184738 139.366151051,780.293613034 141.321573573,807.676282387 120.422483253,809.766191419 120.422483253,798.968328089 115.197710678,794.788510026 114.15275616,787.473828415 114.849392506,783.294010352 116.590983364,777.024283257 120.074165086,769.709601646 122.860710457,766.923056271 126.692210351,764.833147239 130.175392068,759.956692832 132.613619271,761.34996552 136.096800993,759.260056488 139.928300882,755.776874769 145.849709807,754.035283909 149.681209697,748.810511331 159.434118511,742.540784235 168.490390981,741.49582972 183.816390548,739.057602516 192.524344844,739.754238859 199.142390115,745.327329611 213.075116991,743.934056923 218.648207739,745.327329611 236.41243451,736.967693485 246.861979669,736.967693485 254.524979453,731.742920905" stroke="#000000" stroke-width="2" /><polygon fill="none" points="727.114639303,726.964567046 729.224447351,728.85792821 740.228025563,725.006675836 740.778204476,727.207391478 731.425162997,730.508464942 732.250431362,731.883912218 742.703830661,729.408107121 746.555083036,737.385701324 736.926952101,739.586416966 736.926952101,741.236953698 745.454725215,740.686774787 746.27999358,743.162579885 735.82659428,744.538027161 736.101683737,746.188563893 749.581067047,745.913474438 750.406335411,755.266515918 735.82659428,756.91705265 734.72623646,758.292499926 744.904546303,758.567589381 745.454725215,766.270094129 748.480709221,769.846257048 750.406335411,777.823851251 750.406335411,786.351624365 748.480709221,791.578324016 735.82659428,791.853413471 719.871405872,798.730649854 678.368994844,830.635050082 679.485058294,830.914065945 724.127596345,798.827241721 736.651862645,797.630292033 737.477131014,801.481544407 746.830172493,801.206454951 747.3803514,806.708244057 737.477131014,807.533512423 737.477131014,810.00931752 760.859734711,809.184049155 764.160808173,823.763790285 747.655440857,816.336374992 739.402757199,816.886553903 739.402757199,818.81218009 738.577488835,819.912537911 741.878562297,828.440311025 756.458303428,833.667010676 753.432319417,836.692994684 745.179635759,833.116831765 747.930530313,838.893710326 745.179635759,842.7449627 750.681424868,842.7449627 754.807766694,844.670588887 749.030888134,845.220767798 758.108840156,846.871304529 648.623236952,851.272735814 639.809002602,840.309925126 568.297116009,830.365937212 561.970058536,821.287985188 568.265225484,816.594724269 645.713498891,755.28854902 668.704767191,773.697509422 727.114639303,726.964567046" stroke="#000000" stroke-width="2" /><polygon fill="none" points="474.807964631,901.077681694 461.809987866,927.692586494 462.63525623,933.675782146 459.334182768,945.642173452 455.41415803,945.848490543 448.605694012,947.911661458 426.736082318,950.593783647 422.609740487,953.482222927 411.055983366,952.244320379 399.708543335,947.705344366 387.948469121,946.673758909 385.678981112,943.785319628 387.123200757,941.309514531 372.681004352,924.597830122 384.028444383,921.296756658 400.327494611,921.296756658 405.898056077,904.378755158 411.674934637,894.475534767 416.007593562,891.587095487 421.784472122,889.317607481 427.561350682,888.286022023 437.129964717,887.261406142 443.889514241,884.763311752 447.574108554,877.144899084 447.857075916,887.849193057 456.445743488,890.968144213 459.612814222,889.465607073 474.807964631,901.077681694" stroke="#000000" stroke-width="2" /><polygon fill="none" points="666.018482134,1057.06362739 678.05780867,1092.5261881 695.040541659,1121.72287318 697.038981083,1134.06469585 580.125962585,1134.88996422 558.94407453,1129.66326457 553.442285421,1124.98674383 513.135800883,1109.67881449 522.622340221,1097.12310066 539.921323712,1101.58735447 602.434827777,1074.02523748 666.018482134,1057.06362739" stroke="#000000" stroke-width="2" /><polygon fill="none" points="414.447117311,1029.81954677 418.070764473,1029.81954677 417.982016811,1062.81652693 369.428727953,1052.8857976 348.838282224,1042.61120644 339.216372114,1030.80986881 324.980492803,1024.62035607 326.349719255,1005.26781289 340.791915655,993.095104489 334.396085819,987.52454302 330.097156673,945.807227125 340.206694153,944.981958759 339.587742883,936.316640917 350.398758471,935.738953061 348.748221742,917.170414829 364.518381176,916.097565953 372.56474774,924.597830122 387.006944145,941.268251112 385.678981112,943.785319628 387.948469121,946.673758909 399.708543335,947.705344366 411.055983366,952.244320379 422.609740487,953.482222927 431.117538301,962.725228625 448.241856893,968.708424278 450.256230745,974.113932074 460.620882382,980.881132674 467.223029307,992.022255614 469.492517316,999.449670906 469.698834405,1006.97336751 449.413228079,1006.14765346 436.388455511,1010.40009924 436.29080595,1013.82003646 414.247021047,1013.85060389 414.447117311,1029.81954677" stroke="#000000" stroke-width="2" /><polygon fill="none" points="568.118278754,816.594724269 561.970058536,821.287985188 546.370162898,833.787491537 498.847590806,836.858678168 498.318582581,833.34665135 494.145295487,831.421649203 487.826586148,799.240315599 448.004022646,804.677344564 442.38167753,772.811810365 442.938986605,758.530765316 445.377213809,748.777856502 564.826672033,733.114287646 566.685548148,741.604134901 570.998434638,764.707834335 555.128187932,766.618141809 565.473237636,810.129068202 568.118278754,816.594724269" stroke="#000000" stroke-width="2" /></g></svg>