<?xml version="1.0" encoding="UTF-8" standalone="no"?>
<svg
   xmlns:dc="http://purl.org/dc/elements/1.1/"
   xmlns:cc="http://creativecommons.org/ns#"
   xmlns:rdf="http://www.w3.org/1999/02/22-rdf-syntax-ns#"
   xmlns:svg="http://www.w3.org/2000/svg"
   xmlns="http://www.w3.org/2000/svg"
   height="86.5"
   width="84.400002"
   id="svg2"
   xml:space="preserve"
   viewBox="0 0 84.400002 86.5"
   y="0px"
   x="0px"
   version="1.1"><metadata
     id="metadata28"><rdf:RDF><cc:Work
         rdf:about=""><dc:format>image/svg+xml</dc:format><dc:type
           rdf:resource="http://purl.org/dc/dcmitype/StillImage" /><dc:title></dc:title></cc:Work></rdf:RDF></metadata><defs
     id="defs26" /><path
     id="polygon10"
     d="m 0,54.4 17.9,-15.9 0,-11.9 7.7,0 0,5.1 13.9,-12.4 39.6,35.1 -8.6,0 0,32.1 -61.9,0 0,-32.1 z" /><path
     d="m 56.5,19.6 c 0.3,-4.2 3,-7.3 7.2,-8.1 l 0,0 C 66.3,11 68.5,9.7 70,8 71.2,6.6 72.1,4.9 72.5,2.9 L 69.2,0 l 0,0 c -0.3,4.2 -3,7.3 -7.2,8.1 l 0,0 c -4.7,1 -7.9,4.1 -8.8,8.6 l 3.3,2.9 0,0 z"
     id="path12" /><path
     d="m 67.9,13.3 0,0 c -4.7,1 -7.9,4.1 -8.8,8.6 l 3.3,2.9 0,0 c 0.3,-4.2 3,-7.3 7.2,-8.1 l 0,0 c 2.6,-0.5 4.8,-1.8 6.3,-3.5 1.2,-1.4 2.1,-3.1 2.5,-5.1 l -3.3,-2.9 0,0 c -0.3,4.2 -3,7.3 -7.2,8.1 z"
     id="path14" /><path
     d="m 81.1,10.5 c -0.3,4.2 -3,7.3 -7.2,8.1 l 0,0 c -4.7,1 -7.9,4.1 -8.8,8.6 l 3.3,2.9 0,0 c 0.3,-4.2 3,-7.3 7.2,-8.1 l 0,0 c 2.6,-0.5 4.8,-1.8 6.3,-3.5 1.2,-1.4 2.1,-3.1 2.5,-5.1 l -3.3,-2.9 0,0 z"
     id="path16" /><path
     id="polygon18"
     d="m 44,13.6 -1.3,1.5 -1.4,1.5 29.8,26.2 2.6,-3 z" /><text
     style="font-weight:bold;font-size:5px;font-family:'Helvetica Neue', Helvetica, Arial-Unicode, Arial, Sans-serif;fill:#000000"
     id="text20"
     font-weight="bold"
     font-size="5px"
     y="135"
     x="0">Created by Myart</text>
<text
     style="font-weight:bold;font-size:5px;font-family:'Helvetica Neue', Helvetica, Arial-Unicode, Arial, Sans-serif;fill:#000000"
     id="text22"
     font-weight="bold"
     font-size="5px"
     y="140"
     x="0">from the Noun Project</text>
</svg>
