<?xml version="1.0" encoding="utf-8" ?>
<svg baseProfile="full" height="792.0" version="1.1" width="612.0" xmlns="http://www.w3.org/2000/svg" xmlns:ev="http://www.w3.org/2001/xml-events" xmlns:xlink="http://www.w3.org/1999/xlink"><defs><g id="arrowsEven"><polygon fill="none" points="0.0,5.13267326733 6.48,15.398019802 19.44,15.398019802 3.24,41.0613861386 6.48,46.1940594059 12.96,46.1940594059 29.16,20.5306930693 35.64,30.796039604 48.6,30.796039604 32.4,5.13267326733 0.0,5.13267326733" stroke="#000000" stroke-linejoin="round" stroke-width="1" /><polygon fill="none" points="32.4,5.13267326733 48.6,30.796039604 35.64,30.796039604 29.16,41.0613861386 61.56,41.0613861386 77.76,15.398019802 64.8,15.398019802 58.32,25.6633663366 42.12,0.0 35.64,0.0 32.4,5.13267326733" stroke="#000000" stroke-linejoin="round" stroke-width="1" /></g><g id="arrowsOdd"><polygon fill="none" points="29.16,5.13267326733 35.64,15.398019802 48.6,15.398019802 32.4,41.0613861386 35.64,46.1940594059 42.12,46.1940594059 58.32,20.5306930693 64.8,30.796039604 77.76,30.796039604 61.56,5.13267326733 29.16,5.13267326733" stroke="#000000" stroke-linejoin="round" stroke-width="1" /><polygon fill="none" points="3.24,5.13267326733 19.44,30.796039604 6.48,30.796039604 0.0,41.0613861386 32.4,41.0613861386 48.6,15.398019802 35.64,15.398019802 29.16,25.6633663366 12.96,0.0 6.48,0.0 3.24,5.13267326733" stroke="#000000" stroke-linejoin="round" stroke-width="1" /></g></defs><g id="arrows"><use x="63.0" xlink:href="#arrowsEven" y="155.477227723" /><use x="121.32" xlink:href="#arrowsEven" y="155.477227723" /><use x="179.64" xlink:href="#arrowsEven" y="155.477227723" /><use x="237.96" xlink:href="#arrowsEven" y="155.477227723" /><use x="296.28" xlink:href="#arrowsEven" y="155.477227723" /><use x="354.6" xlink:href="#arrowsEven" y="155.477227723" /><use x="412.92" xlink:href="#arrowsEven" y="155.477227723" /><use x="471.24" xlink:href="#arrowsEven" y="155.477227723" /><use x="63.0" xlink:href="#arrowsOdd" y="201.671287129" /><use x="121.32" xlink:href="#arrowsOdd" y="201.671287129" /><use x="179.64" xlink:href="#arrowsOdd" y="201.671287129" /><use x="237.96" xlink:href="#arrowsOdd" y="201.671287129" /><use x="296.28" xlink:href="#arrowsOdd" y="201.671287129" /><use x="354.6" xlink:href="#arrowsOdd" y="201.671287129" /><use x="412.92" xlink:href="#arrowsOdd" y="201.671287129" /><use x="471.24" xlink:href="#arrowsOdd" y="201.671287129" /><use x="63.0" xlink:href="#arrowsEven" y="247.865346535" /><use x="121.32" xlink:href="#arrowsEven" y="247.865346535" /><use x="179.64" xlink:href="#arrowsEven" y="247.865346535" /><use x="237.96" xlink:href="#arrowsEven" y="247.865346535" /><use x="296.28" xlink:href="#arrowsEven" y="247.865346535" /><use x="354.6" xlink:href="#arrowsEven" y="247.865346535" /><use x="412.92" xlink:href="#arrowsEven" y="247.865346535" /><use x="471.24" xlink:href="#arrowsEven" y="247.865346535" /><use x="63.0" xlink:href="#arrowsOdd" y="294.059405941" /><use x="121.32" xlink:href="#arrowsOdd" y="294.059405941" /><use x="179.64" xlink:href="#arrowsOdd" y="294.059405941" /><use x="237.96" xlink:href="#arrowsOdd" y="294.059405941" /><use x="296.28" xlink:href="#arrowsOdd" y="294.059405941" /><use x="354.6" xlink:href="#arrowsOdd" y="294.059405941" /><use x="412.92" xlink:href="#arrowsOdd" y="294.059405941" /><use x="471.24" xlink:href="#arrowsOdd" y="294.059405941" /><use x="63.0" xlink:href="#arrowsEven" y="340.253465347" /><use x="121.32" xlink:href="#arrowsEven" y="340.253465347" /><use x="179.64" xlink:href="#arrowsEven" y="340.253465347" /><use x="237.96" xlink:href="#arrowsEven" y="340.253465347" /><use x="296.28" xlink:href="#arrowsEven" y="340.253465347" /><use x="354.6" xlink:href="#arrowsEven" y="340.253465347" /><use x="412.92" xlink:href="#arrowsEven" y="340.253465347" /><use x="471.24" xlink:href="#arrowsEven" y="340.253465347" /><use x="63.0" xlink:href="#arrowsOdd" y="386.447524752" /><use x="121.32" xlink:href="#arrowsOdd" y="386.447524752" /><use x="179.64" xlink:href="#arrowsOdd" y="386.447524752" /><use x="237.96" xlink:href="#arrowsOdd" y="386.447524752" /><use x="296.28" xlink:href="#arrowsOdd" y="386.447524752" /><use x="354.6" xlink:href="#arrowsOdd" y="386.447524752" /><use x="412.92" xlink:href="#arrowsOdd" y="386.447524752" /><use x="471.24" xlink:href="#arrowsOdd" y="386.447524752" /><use x="63.0" xlink:href="#arrowsEven" y="432.641584158" /><use x="121.32" xlink:href="#arrowsEven" y="432.641584158" /><use x="179.64" xlink:href="#arrowsEven" y="432.641584158" /><use x="237.96" xlink:href="#arrowsEven" y="432.641584158" /><use x="296.28" xlink:href="#arrowsEven" y="432.641584158" /><use x="354.6" xlink:href="#arrowsEven" y="432.641584158" /><use x="412.92" xlink:href="#arrowsEven" y="432.641584158" /><use x="471.24" xlink:href="#arrowsEven" y="432.641584158" /><use x="63.0" xlink:href="#arrowsOdd" y="478.835643564" /><use x="121.32" xlink:href="#arrowsOdd" y="478.835643564" /><use x="179.64" xlink:href="#arrowsOdd" y="478.835643564" /><use x="237.96" xlink:href="#arrowsOdd" y="478.835643564" /><use x="296.28" xlink:href="#arrowsOdd" y="478.835643564" /><use x="354.6" xlink:href="#arrowsOdd" y="478.835643564" /><use x="412.92" xlink:href="#arrowsOdd" y="478.835643564" /><use x="471.24" xlink:href="#arrowsOdd" y="478.835643564" /><use x="63.0" xlink:href="#arrowsEven" y="525.02970297" /><use x="121.32" xlink:href="#arrowsEven" y="525.02970297" /><use x="179.64" xlink:href="#arrowsEven" y="525.02970297" /><use x="237.96" xlink:href="#arrowsEven" y="525.02970297" /><use x="296.28" xlink:href="#arrowsEven" y="525.02970297" /><use x="354.6" xlink:href="#arrowsEven" y="525.02970297" /><use x="412.92" xlink:href="#arrowsEven" y="525.02970297" /><use x="471.24" xlink:href="#arrowsEven" y="525.02970297" /><use x="63.0" xlink:href="#arrowsOdd" y="571.223762376" /><use x="121.32" xlink:href="#arrowsOdd" y="571.223762376" /><use x="179.64" xlink:href="#arrowsOdd" y="571.223762376" /><use x="237.96" xlink:href="#arrowsOdd" y="571.223762376" /><use x="296.28" xlink:href="#arrowsOdd" y="571.223762376" /><use x="354.6" xlink:href="#arrowsOdd" y="571.223762376" /><use x="412.92" xlink:href="#arrowsOdd" y="571.223762376" /><use x="471.24" xlink:href="#arrowsOdd" y="571.223762376" /><use x="63.0" xlink:href="#arrowsEven" y="617.417821782" /><use x="121.32" xlink:href="#arrowsEven" y="617.417821782" /><use x="179.64" xlink:href="#arrowsEven" y="617.417821782" /><use x="237.96" xlink:href="#arrowsEven" y="617.417821782" /><use x="296.28" xlink:href="#arrowsEven" y="617.417821782" /><use x="354.6" xlink:href="#arrowsEven" y="617.417821782" /><use x="412.92" xlink:href="#arrowsEven" y="617.417821782" /><use x="471.24" xlink:href="#arrowsEven" y="617.417821782" /><use x="63.0" xlink:href="#arrowsOdd" y="663.611881188" /><use x="121.32" xlink:href="#arrowsOdd" y="663.611881188" /><use x="179.64" xlink:href="#arrowsOdd" y="663.611881188" /><use x="237.96" xlink:href="#arrowsOdd" y="663.611881188" /><use x="296.28" xlink:href="#arrowsOdd" y="663.611881188" /><use x="354.6" xlink:href="#arrowsOdd" y="663.611881188" /><use x="412.92" xlink:href="#arrowsOdd" y="663.611881188" /><use x="471.24" xlink:href="#arrowsOdd" y="663.611881188" /><use x="63.0" xlink:href="#arrowsEven" y="709.805940594" /><use x="121.32" xlink:href="#arrowsEven" y="709.805940594" /><use x="179.64" xlink:href="#arrowsEven" y="709.805940594" /><use x="237.96" xlink:href="#arrowsEven" y="709.805940594" /><use x="296.28" xlink:href="#arrowsEven" y="709.805940594" /><use x="354.6" xlink:href="#arrowsEven" y="709.805940594" /><use x="412.92" xlink:href="#arrowsEven" y="709.805940594" /><use x="471.24" xlink:href="#arrowsEven" y="709.805940594" /></g><g id="yes"><text alignment-baseline="middle" dominant-baseline="central" font-size="9" text-anchor="middle" transform="rotate(-57.7378307039,286.56,319.722772277)" x="286.56" y="319.722772277">YES</text><text alignment-baseline="middle" dominant-baseline="central" font-size="9" text-anchor="middle" transform="rotate(-57.7378307039,344.88,319.722772277)" x="344.88" y="319.722772277">YES</text><text alignment-baseline="middle" dominant-baseline="central" font-size="9" text-anchor="middle" transform="rotate(-57.7378307039,403.2,319.722772277)" x="403.2" y="319.722772277">YES</text><text alignment-baseline="middle" dominant-baseline="central" font-size="9" text-anchor="middle" transform="rotate(-57.7378307039,461.52,319.722772277)" x="461.52" y="319.722772277">YES</text><text alignment-baseline="middle" dominant-baseline="central" font-size="9" text-anchor="middle" transform="rotate(-57.7378307039,519.84,319.722772277)" x="519.84" y="319.722772277">YES</text><text alignment-baseline="middle" dominant-baseline="central" font-size="9" text-anchor="middle" transform="rotate(-57.7378307039,82.44,365.916831683)" x="82.44" y="365.916831683">YES</text><text alignment-baseline="middle" dominant-baseline="central" font-size="9" text-anchor="middle" transform="rotate(-57.7378307039,140.76,365.916831683)" x="140.76" y="365.916831683">YES</text><text alignment-baseline="middle" dominant-baseline="central" font-size="9" text-anchor="middle" transform="rotate(-57.7378307039,199.08,365.916831683)" x="199.08" y="365.916831683">YES</text><text alignment-baseline="middle" dominant-baseline="central" font-size="9" text-anchor="middle" transform="rotate(-57.7378307039,257.4,365.916831683)" x="257.4" y="365.916831683">YES</text><text alignment-baseline="middle" dominant-baseline="central" font-size="9" text-anchor="middle" transform="rotate(-57.7378307039,315.72,365.916831683)" x="315.72" y="365.916831683">YES</text><text alignment-baseline="middle" dominant-baseline="central" font-size="9" text-anchor="middle" transform="rotate(-57.7378307039,374.04,365.916831683)" x="374.04" y="365.916831683">YES</text><text alignment-baseline="middle" dominant-baseline="central" font-size="9" text-anchor="middle" transform="rotate(-57.7378307039,432.36,365.916831683)" x="432.36" y="365.916831683">YES</text><text alignment-baseline="middle" dominant-baseline="central" font-size="9" text-anchor="middle" transform="rotate(-57.7378307039,490.68,365.916831683)" x="490.68" y="365.916831683">YES</text><text alignment-baseline="middle" dominant-baseline="central" font-size="9" text-anchor="middle" transform="rotate(-57.7378307039,111.6,412.110891089)" x="111.6" y="412.110891089">YES</text><text alignment-baseline="middle" dominant-baseline="central" font-size="9" text-anchor="middle" transform="rotate(-57.7378307039,169.92,412.110891089)" x="169.92" y="412.110891089">YES</text><text alignment-baseline="middle" dominant-baseline="central" font-size="9" text-anchor="middle" transform="rotate(-57.7378307039,228.24,412.110891089)" x="228.24" y="412.110891089">YES</text><text alignment-baseline="middle" dominant-baseline="central" font-size="9" text-anchor="middle" transform="rotate(-57.7378307039,286.56,412.110891089)" x="286.56" y="412.110891089">YES</text><text alignment-baseline="middle" dominant-baseline="central" font-size="9" text-anchor="middle" transform="rotate(-57.7378307039,344.88,412.110891089)" x="344.88" y="412.110891089">YES</text><text alignment-baseline="middle" dominant-baseline="central" font-size="9" text-anchor="middle" transform="rotate(-57.7378307039,403.2,412.110891089)" x="403.2" y="412.110891089">YES</text><text alignment-baseline="middle" dominant-baseline="central" font-size="9" text-anchor="middle" transform="rotate(-57.7378307039,461.52,412.110891089)" x="461.52" y="412.110891089">YES</text><text alignment-baseline="middle" dominant-baseline="central" font-size="9" text-anchor="middle" transform="rotate(-57.7378307039,519.84,412.110891089)" x="519.84" y="412.110891089">YES</text><text alignment-baseline="middle" dominant-baseline="central" font-size="9" text-anchor="middle" transform="rotate(-57.7378307039,82.44,458.304950495)" x="82.44" y="458.304950495">YES</text><text alignment-baseline="middle" dominant-baseline="central" font-size="9" text-anchor="middle" transform="rotate(-57.7378307039,140.76,458.304950495)" x="140.76" y="458.304950495">YES</text><text alignment-baseline="middle" dominant-baseline="central" font-size="9" text-anchor="middle" transform="rotate(-57.7378307039,199.08,458.304950495)" x="199.08" y="458.304950495">YES</text><text alignment-baseline="middle" dominant-baseline="central" font-size="9" text-anchor="middle" transform="rotate(-57.7378307039,257.4,458.304950495)" x="257.4" y="458.304950495">YES</text><text alignment-baseline="middle" dominant-baseline="central" font-size="9" text-anchor="middle" transform="rotate(-57.7378307039,315.72,458.304950495)" x="315.72" y="458.304950495">YES</text><text alignment-baseline="middle" dominant-baseline="central" font-size="9" text-anchor="middle" transform="rotate(-57.7378307039,374.04,458.304950495)" x="374.04" y="458.304950495">YES</text><text alignment-baseline="middle" dominant-baseline="central" font-size="9" text-anchor="middle" transform="rotate(-57.7378307039,432.36,458.304950495)" x="432.36" y="458.304950495">YES</text><text alignment-baseline="middle" dominant-baseline="central" font-size="9" text-anchor="middle" transform="rotate(-57.7378307039,490.68,458.304950495)" x="490.68" y="458.304950495">YES</text><text alignment-baseline="middle" dominant-baseline="central" font-size="9" text-anchor="middle" transform="rotate(-57.7378307039,111.6,504.499009901)" x="111.6" y="504.499009901">YES</text><text alignment-baseline="middle" dominant-baseline="central" font-size="9" text-anchor="middle" transform="rotate(-57.7378307039,169.92,504.499009901)" x="169.92" y="504.499009901">YES</text><text alignment-baseline="middle" dominant-baseline="central" font-size="9" text-anchor="middle" transform="rotate(-57.7378307039,228.24,504.499009901)" x="228.24" y="504.499009901">YES</text><text alignment-baseline="middle" dominant-baseline="central" font-size="9" text-anchor="middle" transform="rotate(-57.7378307039,286.56,504.499009901)" x="286.56" y="504.499009901">YES</text><text alignment-baseline="middle" dominant-baseline="central" font-size="9" text-anchor="middle" transform="rotate(-57.7378307039,344.88,504.499009901)" x="344.88" y="504.499009901">YES</text><text alignment-baseline="middle" dominant-baseline="central" font-size="9" text-anchor="middle" transform="rotate(-57.7378307039,403.2,504.499009901)" x="403.2" y="504.499009901">YES</text><text alignment-baseline="middle" dominant-baseline="central" font-size="9" text-anchor="middle" transform="rotate(-57.7378307039,461.52,504.499009901)" x="461.52" y="504.499009901">YES</text><text alignment-baseline="middle" dominant-baseline="central" font-size="9" text-anchor="middle" transform="rotate(-57.7378307039,519.84,504.499009901)" x="519.84" y="504.499009901">YES</text><text alignment-baseline="middle" dominant-baseline="central" font-size="9" text-anchor="middle" transform="rotate(-57.7378307039,82.44,550.693069307)" x="82.44" y="550.693069307">YES</text><text alignment-baseline="middle" dominant-baseline="central" font-size="9" text-anchor="middle" transform="rotate(-57.7378307039,140.76,550.693069307)" x="140.76" y="550.693069307">YES</text><text alignment-baseline="middle" dominant-baseline="central" font-size="9" text-anchor="middle" transform="rotate(-57.7378307039,199.08,550.693069307)" x="199.08" y="550.693069307">YES</text><text alignment-baseline="middle" dominant-baseline="central" font-size="9" text-anchor="middle" transform="rotate(-57.7378307039,257.4,550.693069307)" x="257.4" y="550.693069307">YES</text><text alignment-baseline="middle" dominant-baseline="central" font-size="9" text-anchor="middle" transform="rotate(-57.7378307039,315.72,550.693069307)" x="315.72" y="550.693069307">YES</text><text alignment-baseline="middle" dominant-baseline="central" font-size="9" text-anchor="middle" transform="rotate(-57.7378307039,374.04,550.693069307)" x="374.04" y="550.693069307">YES</text><text alignment-baseline="middle" dominant-baseline="central" font-size="9" text-anchor="middle" transform="rotate(-57.7378307039,432.36,550.693069307)" x="432.36" y="550.693069307">YES</text><text alignment-baseline="middle" dominant-baseline="central" font-size="9" text-anchor="middle" transform="rotate(-57.7378307039,490.68,550.693069307)" x="490.68" y="550.693069307">YES</text><text alignment-baseline="middle" dominant-baseline="central" font-size="9" text-anchor="middle" transform="rotate(-57.7378307039,111.6,596.887128713)" x="111.6" y="596.887128713">YES</text><text alignment-baseline="middle" dominant-baseline="central" font-size="9" text-anchor="middle" transform="rotate(-57.7378307039,169.92,596.887128713)" x="169.92" y="596.887128713">YES</text><text alignment-baseline="middle" dominant-baseline="central" font-size="9" text-anchor="middle" transform="rotate(-57.7378307039,228.24,596.887128713)" x="228.24" y="596.887128713">YES</text></g><g id="no"><text alignment-baseline="middle" dominant-baseline="central" font-size="9" text-anchor="middle" transform="rotate(57.7378307039,140.76,314.59009901)" x="140.76" y="314.59009901">NO</text><text alignment-baseline="middle" dominant-baseline="central" font-size="9" text-anchor="middle" transform="rotate(57.7378307039,199.08,314.59009901)" x="199.08" y="314.59009901">NO</text><text alignment-baseline="middle" dominant-baseline="central" font-size="9" text-anchor="middle" transform="rotate(57.7378307039,257.4,314.59009901)" x="257.4" y="314.59009901">NO</text><text alignment-baseline="middle" dominant-baseline="central" font-size="9" text-anchor="middle" transform="rotate(57.7378307039,315.72,314.59009901)" x="315.72" y="314.59009901">NO</text><text alignment-baseline="middle" dominant-baseline="central" font-size="9" text-anchor="middle" transform="rotate(57.7378307039,374.04,314.59009901)" x="374.04" y="314.59009901">NO</text><text alignment-baseline="middle" dominant-baseline="central" font-size="9" text-anchor="middle" transform="rotate(57.7378307039,432.36,314.59009901)" x="432.36" y="314.59009901">NO</text><text alignment-baseline="middle" dominant-baseline="central" font-size="9" text-anchor="middle" transform="rotate(57.7378307039,490.68,314.59009901)" x="490.68" y="314.59009901">NO</text><text alignment-baseline="middle" dominant-baseline="central" font-size="9" text-anchor="middle" transform="rotate(57.7378307039,111.6,360.784158416)" x="111.6" y="360.784158416">NO</text><text alignment-baseline="middle" dominant-baseline="central" font-size="9" text-anchor="middle" transform="rotate(57.7378307039,169.92,360.784158416)" x="169.92" y="360.784158416">NO</text><text alignment-baseline="middle" dominant-baseline="central" font-size="9" text-anchor="middle" transform="rotate(57.7378307039,228.24,360.784158416)" x="228.24" y="360.784158416">NO</text><text alignment-baseline="middle" dominant-baseline="central" font-size="9" text-anchor="middle" transform="rotate(57.7378307039,286.56,360.784158416)" x="286.56" y="360.784158416">NO</text><text alignment-baseline="middle" dominant-baseline="central" font-size="9" text-anchor="middle" transform="rotate(57.7378307039,344.88,360.784158416)" x="344.88" y="360.784158416">NO</text><text alignment-baseline="middle" dominant-baseline="central" font-size="9" text-anchor="middle" transform="rotate(57.7378307039,403.2,360.784158416)" x="403.2" y="360.784158416">NO</text><text alignment-baseline="middle" dominant-baseline="central" font-size="9" text-anchor="middle" transform="rotate(57.7378307039,461.52,360.784158416)" x="461.52" y="360.784158416">NO</text><text alignment-baseline="middle" dominant-baseline="central" font-size="9" text-anchor="middle" transform="rotate(57.7378307039,519.84,360.784158416)" x="519.84" y="360.784158416">NO</text><text alignment-baseline="middle" dominant-baseline="central" font-size="9" text-anchor="middle" transform="rotate(57.7378307039,82.44,406.978217822)" x="82.44" y="406.978217822">NO</text><text alignment-baseline="middle" dominant-baseline="central" font-size="9" text-anchor="middle" transform="rotate(57.7378307039,140.76,406.978217822)" x="140.76" y="406.978217822">NO</text><text alignment-baseline="middle" dominant-baseline="central" font-size="9" text-anchor="middle" transform="rotate(57.7378307039,199.08,406.978217822)" x="199.08" y="406.978217822">NO</text><text alignment-baseline="middle" dominant-baseline="central" font-size="9" text-anchor="middle" transform="rotate(57.7378307039,257.4,406.978217822)" x="257.4" y="406.978217822">NO</text><text alignment-baseline="middle" dominant-baseline="central" font-size="9" text-anchor="middle" transform="rotate(57.7378307039,315.72,406.978217822)" x="315.72" y="406.978217822">NO</text><text alignment-baseline="middle" dominant-baseline="central" font-size="9" text-anchor="middle" transform="rotate(57.7378307039,374.04,406.978217822)" x="374.04" y="406.978217822">NO</text><text alignment-baseline="middle" dominant-baseline="central" font-size="9" text-anchor="middle" transform="rotate(57.7378307039,432.36,406.978217822)" x="432.36" y="406.978217822">NO</text><text alignment-baseline="middle" dominant-baseline="central" font-size="9" text-anchor="middle" transform="rotate(57.7378307039,490.68,406.978217822)" x="490.68" y="406.978217822">NO</text><text alignment-baseline="middle" dominant-baseline="central" font-size="9" text-anchor="middle" transform="rotate(57.7378307039,111.6,453.172277228)" x="111.6" y="453.172277228">NO</text><text alignment-baseline="middle" dominant-baseline="central" font-size="9" text-anchor="middle" transform="rotate(57.7378307039,169.92,453.172277228)" x="169.92" y="453.172277228">NO</text><text alignment-baseline="middle" dominant-baseline="central" font-size="9" text-anchor="middle" transform="rotate(57.7378307039,228.24,453.172277228)" x="228.24" y="453.172277228">NO</text><text alignment-baseline="middle" dominant-baseline="central" font-size="9" text-anchor="middle" transform="rotate(57.7378307039,286.56,453.172277228)" x="286.56" y="453.172277228">NO</text><text alignment-baseline="middle" dominant-baseline="central" font-size="9" text-anchor="middle" transform="rotate(57.7378307039,344.88,453.172277228)" x="344.88" y="453.172277228">NO</text><text alignment-baseline="middle" dominant-baseline="central" font-size="9" text-anchor="middle" transform="rotate(57.7378307039,403.2,453.172277228)" x="403.2" y="453.172277228">NO</text><text alignment-baseline="middle" dominant-baseline="central" font-size="9" text-anchor="middle" transform="rotate(57.7378307039,461.52,453.172277228)" x="461.52" y="453.172277228">NO</text><text alignment-baseline="middle" dominant-baseline="central" font-size="9" text-anchor="middle" transform="rotate(57.7378307039,519.84,453.172277228)" x="519.84" y="453.172277228">NO</text><text alignment-baseline="middle" dominant-baseline="central" font-size="9" text-anchor="middle" transform="rotate(57.7378307039,82.44,499.366336634)" x="82.44" y="499.366336634">NO</text><text alignment-baseline="middle" dominant-baseline="central" font-size="9" text-anchor="middle" transform="rotate(57.7378307039,140.76,499.366336634)" x="140.76" y="499.366336634">NO</text><text alignment-baseline="middle" dominant-baseline="central" font-size="9" text-anchor="middle" transform="rotate(57.7378307039,199.08,499.366336634)" x="199.08" y="499.366336634">NO</text><text alignment-baseline="middle" dominant-baseline="central" font-size="9" text-anchor="middle" transform="rotate(57.7378307039,257.4,499.366336634)" x="257.4" y="499.366336634">NO</text><text alignment-baseline="middle" dominant-baseline="central" font-size="9" text-anchor="middle" transform="rotate(57.7378307039,315.72,499.366336634)" x="315.72" y="499.366336634">NO</text><text alignment-baseline="middle" dominant-baseline="central" font-size="9" text-anchor="middle" transform="rotate(57.7378307039,374.04,499.366336634)" x="374.04" y="499.366336634">NO</text><text alignment-baseline="middle" dominant-baseline="central" font-size="9" text-anchor="middle" transform="rotate(57.7378307039,432.36,499.366336634)" x="432.36" y="499.366336634">NO</text><text alignment-baseline="middle" dominant-baseline="central" font-size="9" text-anchor="middle" transform="rotate(57.7378307039,490.68,499.366336634)" x="490.68" y="499.366336634">NO</text><text alignment-baseline="middle" dominant-baseline="central" font-size="9" text-anchor="middle" transform="rotate(57.7378307039,111.6,545.56039604)" x="111.6" y="545.56039604">NO</text><text alignment-baseline="middle" dominant-baseline="central" font-size="9" text-anchor="middle" transform="rotate(57.7378307039,169.92,545.56039604)" x="169.92" y="545.56039604">NO</text><text alignment-baseline="middle" dominant-baseline="central" font-size="9" text-anchor="middle" transform="rotate(57.7378307039,228.24,545.56039604)" x="228.24" y="545.56039604">NO</text><text alignment-baseline="middle" dominant-baseline="central" font-size="9" text-anchor="middle" transform="rotate(57.7378307039,286.56,545.56039604)" x="286.56" y="545.56039604">NO</text><text alignment-baseline="middle" dominant-baseline="central" font-size="9" text-anchor="middle" transform="rotate(57.7378307039,344.88,545.56039604)" x="344.88" y="545.56039604">NO</text><text alignment-baseline="middle" dominant-baseline="central" font-size="9" text-anchor="middle" transform="rotate(57.7378307039,403.2,545.56039604)" x="403.2" y="545.56039604">NO</text><text alignment-baseline="middle" dominant-baseline="central" font-size="9" text-anchor="middle" transform="rotate(57.7378307039,461.52,545.56039604)" x="461.52" y="545.56039604">NO</text><text alignment-baseline="middle" dominant-baseline="central" font-size="9" text-anchor="middle" transform="rotate(57.7378307039,519.84,545.56039604)" x="519.84" y="545.56039604">NO</text><text alignment-baseline="middle" dominant-baseline="central" font-size="9" text-anchor="middle" transform="rotate(57.7378307039,82.44,591.754455446)" x="82.44" y="591.754455446">NO</text><text alignment-baseline="middle" dominant-baseline="central" font-size="9" text-anchor="middle" transform="rotate(57.7378307039,140.76,591.754455446)" x="140.76" y="591.754455446">NO</text><text alignment-baseline="middle" dominant-baseline="central" font-size="9" text-anchor="middle" transform="rotate(57.7378307039,199.08,591.754455446)" x="199.08" y="591.754455446">NO</text><text alignment-baseline="middle" dominant-baseline="central" font-size="9" text-anchor="middle" transform="rotate(57.7378307039,257.4,591.754455446)" x="257.4" y="591.754455446">NO</text><text alignment-baseline="middle" dominant-baseline="central" font-size="9" text-anchor="middle" transform="rotate(57.7378307039,315.72,591.754455446)" x="315.72" y="591.754455446">NO</text></g><rect fill="none" height="720.0" stroke="#000000" stroke-width="1" width="486.0" x="63.0" y="36.0" /><line fill="none" stroke="#000000" stroke-width="1" x1="0" x2="612.0" y1="153.0" y2="153.0" /></svg>