<?xml version="1.0" encoding="utf-8" ?>
<svg baseProfile="full" height="792.0" version="1.1" width="612.0" xmlns="http://www.w3.org/2000/svg" xmlns:ev="http://www.w3.org/2001/xml-events" xmlns:xlink="http://www.w3.org/1999/xlink"><defs><g id="yesArrow"><polygon fill="none" points="0.0,5.4 6.48,16.2 19.44,16.2 3.24,43.2 6.48,48.6 12.96,48.6 29.16,21.6 35.64,32.4 48.6,32.4 32.4,5.4 0.0,5.4" stroke="#000000" stroke-linejoin="round" stroke-width="1" /></g><g id="noArrow"><polygon fill="none" points="3.24,5.4 19.44,32.4 6.48,32.4 0.0,43.2 32.4,43.2 48.6,16.2 35.64,16.2 29.16,27.0 12.96,0.0 6.48,0.0 3.24,5.4" stroke="#000000" stroke-linejoin="round" stroke-width="1" /></g></defs><g id="arrows"><use x="63.0" xlink:href="#yesArrow" y="270.0" /><use x="111.6" xlink:href="#yesArrow" y="270.0" /><use x="160.2" xlink:href="#yesArrow" y="270.0" /><use x="208.8" xlink:href="#yesArrow" y="270.0" /><use x="257.4" xlink:href="#yesArrow" y="270.0" /><use x="306.0" xlink:href="#yesArrow" y="270.0" /><use x="354.6" xlink:href="#yesArrow" y="270.0" /><use x="403.2" xlink:href="#yesArrow" y="270.0" /><use x="451.8" xlink:href="#yesArrow" y="270.0" /><use x="500.4" xlink:href="#yesArrow" y="270.0" /><use x="63.0" xlink:href="#yesArrow" y="318.6" /><use x="111.6" xlink:href="#yesArrow" y="318.6" /><use x="160.2" xlink:href="#yesArrow" y="318.6" /><use x="208.8" xlink:href="#yesArrow" y="318.6" /><use x="257.4" xlink:href="#yesArrow" y="318.6" /><use x="306.0" xlink:href="#yesArrow" y="318.6" /><use x="354.6" xlink:href="#yesArrow" y="318.6" /><use x="403.2" xlink:href="#yesArrow" y="318.6" /><use x="451.8" xlink:href="#yesArrow" y="318.6" /><use x="500.4" xlink:href="#yesArrow" y="318.6" /><use x="63.0" xlink:href="#yesArrow" y="367.2" /><use x="111.6" xlink:href="#yesArrow" y="367.2" /><use x="160.2" xlink:href="#yesArrow" y="367.2" /><use x="208.8" xlink:href="#yesArrow" y="367.2" /><use x="257.4" xlink:href="#yesArrow" y="367.2" /><use x="306.0" xlink:href="#yesArrow" y="367.2" /><use x="354.6" xlink:href="#yesArrow" y="367.2" /><use x="403.2" xlink:href="#yesArrow" y="367.2" /><use x="451.8" xlink:href="#yesArrow" y="367.2" /><use x="500.4" xlink:href="#yesArrow" y="367.2" /><use x="63.0" xlink:href="#yesArrow" y="415.8" /><use x="111.6" xlink:href="#yesArrow" y="415.8" /><use x="160.2" xlink:href="#yesArrow" y="415.8" /><use x="208.8" xlink:href="#yesArrow" y="415.8" /><use x="257.4" xlink:href="#yesArrow" y="415.8" /><use x="306.0" xlink:href="#yesArrow" y="415.8" /><use x="354.6" xlink:href="#yesArrow" y="415.8" /><use x="403.2" xlink:href="#yesArrow" y="415.8" /><use x="451.8" xlink:href="#yesArrow" y="415.8" /><use x="500.4" xlink:href="#yesArrow" y="415.8" /><use x="63.0" xlink:href="#yesArrow" y="464.4" /><use x="111.6" xlink:href="#yesArrow" y="464.4" /><use x="160.2" xlink:href="#yesArrow" y="464.4" /><use x="208.8" xlink:href="#yesArrow" y="464.4" /><use x="257.4" xlink:href="#yesArrow" y="464.4" /><use x="306.0" xlink:href="#yesArrow" y="464.4" /><use x="354.6" xlink:href="#yesArrow" y="464.4" /><use x="403.2" xlink:href="#yesArrow" y="464.4" /><use x="451.8" xlink:href="#yesArrow" y="464.4" /><use x="500.4" xlink:href="#yesArrow" y="464.4" /><use x="63.0" xlink:href="#yesArrow" y="513.0" /><use x="111.6" xlink:href="#yesArrow" y="513.0" /><use x="160.2" xlink:href="#yesArrow" y="513.0" /><use x="208.8" xlink:href="#yesArrow" y="513.0" /><use x="257.4" xlink:href="#yesArrow" y="513.0" /><use x="306.0" xlink:href="#yesArrow" y="513.0" /><use x="354.6" xlink:href="#yesArrow" y="513.0" /><use x="403.2" xlink:href="#yesArrow" y="513.0" /><use x="451.8" xlink:href="#yesArrow" y="513.0" /><use x="500.4" xlink:href="#yesArrow" y="513.0" /><use x="63.0" xlink:href="#yesArrow" y="561.6" /><use x="111.6" xlink:href="#yesArrow" y="561.6" /><use x="160.2" xlink:href="#yesArrow" y="561.6" /><use x="208.8" xlink:href="#yesArrow" y="561.6" /><use x="257.4" xlink:href="#yesArrow" y="561.6" /><use x="306.0" xlink:href="#yesArrow" y="561.6" /><use x="354.6" xlink:href="#yesArrow" y="561.6" /><use x="403.2" xlink:href="#yesArrow" y="561.6" /><use x="451.8" xlink:href="#yesArrow" y="561.6" /><use x="500.4" xlink:href="#yesArrow" y="561.6" /><use x="63.0" xlink:href="#yesArrow" y="610.2" /><use x="111.6" xlink:href="#yesArrow" y="610.2" /><use x="160.2" xlink:href="#yesArrow" y="610.2" /><use x="208.8" xlink:href="#yesArrow" y="610.2" /><use x="257.4" xlink:href="#yesArrow" y="610.2" /><use x="306.0" xlink:href="#yesArrow" y="610.2" /><use x="354.6" xlink:href="#yesArrow" y="610.2" /><use x="403.2" xlink:href="#yesArrow" y="610.2" /><use x="451.8" xlink:href="#yesArrow" y="610.2" /><use x="500.4" xlink:href="#yesArrow" y="610.2" /><use x="63.0" xlink:href="#yesArrow" y="658.8" /><use x="111.6" xlink:href="#yesArrow" y="658.8" /><use x="160.2" xlink:href="#yesArrow" y="658.8" /><use x="208.8" xlink:href="#yesArrow" y="658.8" /><use x="257.4" xlink:href="#yesArrow" y="658.8" /><use x="306.0" xlink:href="#yesArrow" y="658.8" /><use x="354.6" xlink:href="#yesArrow" y="658.8" /><use x="403.2" xlink:href="#yesArrow" y="658.8" /><use x="451.8" xlink:href="#yesArrow" y="658.8" /><use x="500.4" xlink:href="#yesArrow" y="658.8" /><use x="63.0" xlink:href="#yesArrow" y="707.4" /><use x="111.6" xlink:href="#yesArrow" y="707.4" /><use x="160.2" xlink:href="#yesArrow" y="707.4" /><use x="208.8" xlink:href="#yesArrow" y="707.4" /><use x="257.4" xlink:href="#yesArrow" y="707.4" /><use x="306.0" xlink:href="#yesArrow" y="707.4" /><use x="354.6" xlink:href="#yesArrow" y="707.4" /><use x="403.2" xlink:href="#noArrow" y="707.4" /><use x="451.8" xlink:href="#noArrow" y="707.4" /><use x="500.4" xlink:href="#noArrow" y="707.4" /></g><g id="yes"><text alignment-baseline="middle" dominant-baseline="central" font-size="9" text-anchor="middle" transform="rotate(-63.4349488229,87.3,294.3)" x="87.3" y="294.3">YES</text><text alignment-baseline="middle" dominant-baseline="central" font-size="9" text-anchor="middle" transform="rotate(-63.4349488229,135.9,294.3)" x="135.9" y="294.3">YES</text><text alignment-baseline="middle" dominant-baseline="central" font-size="9" text-anchor="middle" transform="rotate(-63.4349488229,184.5,294.3)" x="184.5" y="294.3">YES</text><text alignment-baseline="middle" dominant-baseline="central" font-size="9" text-anchor="middle" transform="rotate(-63.4349488229,233.1,294.3)" x="233.1" y="294.3">YES</text><text alignment-baseline="middle" dominant-baseline="central" font-size="9" text-anchor="middle" transform="rotate(-63.4349488229,281.7,294.3)" x="281.7" y="294.3">YES</text><text alignment-baseline="middle" dominant-baseline="central" font-size="9" text-anchor="middle" transform="rotate(-63.4349488229,330.3,294.3)" x="330.3" y="294.3">YES</text><text alignment-baseline="middle" dominant-baseline="central" font-size="9" text-anchor="middle" transform="rotate(-63.4349488229,378.9,294.3)" x="378.9" y="294.3">YES</text><text alignment-baseline="middle" dominant-baseline="central" font-size="9" text-anchor="middle" transform="rotate(-63.4349488229,427.5,294.3)" x="427.5" y="294.3">YES</text><text alignment-baseline="middle" dominant-baseline="central" font-size="9" text-anchor="middle" transform="rotate(-63.4349488229,476.1,294.3)" x="476.1" y="294.3">YES</text><text alignment-baseline="middle" dominant-baseline="central" font-size="9" text-anchor="middle" transform="rotate(-63.4349488229,524.7,294.3)" x="524.7" y="294.3">YES</text><text alignment-baseline="middle" dominant-baseline="central" font-size="9" text-anchor="middle" transform="rotate(-63.4349488229,87.3,342.9)" x="87.3" y="342.9">YES</text><text alignment-baseline="middle" dominant-baseline="central" font-size="9" text-anchor="middle" transform="rotate(-63.4349488229,135.9,342.9)" x="135.9" y="342.9">YES</text><text alignment-baseline="middle" dominant-baseline="central" font-size="9" text-anchor="middle" transform="rotate(-63.4349488229,184.5,342.9)" x="184.5" y="342.9">YES</text><text alignment-baseline="middle" dominant-baseline="central" font-size="9" text-anchor="middle" transform="rotate(-63.4349488229,233.1,342.9)" x="233.1" y="342.9">YES</text><text alignment-baseline="middle" dominant-baseline="central" font-size="9" text-anchor="middle" transform="rotate(-63.4349488229,281.7,342.9)" x="281.7" y="342.9">YES</text><text alignment-baseline="middle" dominant-baseline="central" font-size="9" text-anchor="middle" transform="rotate(-63.4349488229,330.3,342.9)" x="330.3" y="342.9">YES</text><text alignment-baseline="middle" dominant-baseline="central" font-size="9" text-anchor="middle" transform="rotate(-63.4349488229,378.9,342.9)" x="378.9" y="342.9">YES</text><text alignment-baseline="middle" dominant-baseline="central" font-size="9" text-anchor="middle" transform="rotate(-63.4349488229,427.5,342.9)" x="427.5" y="342.9">YES</text><text alignment-baseline="middle" dominant-baseline="central" font-size="9" text-anchor="middle" transform="rotate(-63.4349488229,476.1,342.9)" x="476.1" y="342.9">YES</text><text alignment-baseline="middle" dominant-baseline="central" font-size="9" text-anchor="middle" transform="rotate(-63.4349488229,524.7,342.9)" x="524.7" y="342.9">YES</text><text alignment-baseline="middle" dominant-baseline="central" font-size="9" text-anchor="middle" transform="rotate(-63.4349488229,87.3,391.5)" x="87.3" y="391.5">YES</text><text alignment-baseline="middle" dominant-baseline="central" font-size="9" text-anchor="middle" transform="rotate(-63.4349488229,135.9,391.5)" x="135.9" y="391.5">YES</text><text alignment-baseline="middle" dominant-baseline="central" font-size="9" text-anchor="middle" transform="rotate(-63.4349488229,184.5,391.5)" x="184.5" y="391.5">YES</text><text alignment-baseline="middle" dominant-baseline="central" font-size="9" text-anchor="middle" transform="rotate(-63.4349488229,233.1,391.5)" x="233.1" y="391.5">YES</text><text alignment-baseline="middle" dominant-baseline="central" font-size="9" text-anchor="middle" transform="rotate(-63.4349488229,281.7,391.5)" x="281.7" y="391.5">YES</text><text alignment-baseline="middle" dominant-baseline="central" font-size="9" text-anchor="middle" transform="rotate(-63.4349488229,330.3,391.5)" x="330.3" y="391.5">YES</text><text alignment-baseline="middle" dominant-baseline="central" font-size="9" text-anchor="middle" transform="rotate(-63.4349488229,378.9,391.5)" x="378.9" y="391.5">YES</text><text alignment-baseline="middle" dominant-baseline="central" font-size="9" text-anchor="middle" transform="rotate(-63.4349488229,427.5,391.5)" x="427.5" y="391.5">YES</text><text alignment-baseline="middle" dominant-baseline="central" font-size="9" text-anchor="middle" transform="rotate(-63.4349488229,476.1,391.5)" x="476.1" y="391.5">YES</text><text alignment-baseline="middle" dominant-baseline="central" font-size="9" text-anchor="middle" transform="rotate(-63.4349488229,524.7,391.5)" x="524.7" y="391.5">YES</text><text alignment-baseline="middle" dominant-baseline="central" font-size="9" text-anchor="middle" transform="rotate(-63.4349488229,87.3,440.1)" x="87.3" y="440.1">YES</text><text alignment-baseline="middle" dominant-baseline="central" font-size="9" text-anchor="middle" transform="rotate(-63.4349488229,135.9,440.1)" x="135.9" y="440.1">YES</text><text alignment-baseline="middle" dominant-baseline="central" font-size="9" text-anchor="middle" transform="rotate(-63.4349488229,184.5,440.1)" x="184.5" y="440.1">YES</text><text alignment-baseline="middle" dominant-baseline="central" font-size="9" text-anchor="middle" transform="rotate(-63.4349488229,233.1,440.1)" x="233.1" y="440.1">YES</text><text alignment-baseline="middle" dominant-baseline="central" font-size="9" text-anchor="middle" transform="rotate(-63.4349488229,281.7,440.1)" x="281.7" y="440.1">YES</text><text alignment-baseline="middle" dominant-baseline="central" font-size="9" text-anchor="middle" transform="rotate(-63.4349488229,330.3,440.1)" x="330.3" y="440.1">YES</text><text alignment-baseline="middle" dominant-baseline="central" font-size="9" text-anchor="middle" transform="rotate(-63.4349488229,378.9,440.1)" x="378.9" y="440.1">YES</text><text alignment-baseline="middle" dominant-baseline="central" font-size="9" text-anchor="middle" transform="rotate(-63.4349488229,427.5,440.1)" x="427.5" y="440.1">YES</text><text alignment-baseline="middle" dominant-baseline="central" font-size="9" text-anchor="middle" transform="rotate(-63.4349488229,476.1,440.1)" x="476.1" y="440.1">YES</text><text alignment-baseline="middle" dominant-baseline="central" font-size="9" text-anchor="middle" transform="rotate(-63.4349488229,524.7,440.1)" x="524.7" y="440.1">YES</text><text alignment-baseline="middle" dominant-baseline="central" font-size="9" text-anchor="middle" transform="rotate(-63.4349488229,87.3,488.7)" x="87.3" y="488.7">YES</text><text alignment-baseline="middle" dominant-baseline="central" font-size="9" text-anchor="middle" transform="rotate(-63.4349488229,135.9,488.7)" x="135.9" y="488.7">YES</text><text alignment-baseline="middle" dominant-baseline="central" font-size="9" text-anchor="middle" transform="rotate(-63.4349488229,184.5,488.7)" x="184.5" y="488.7">YES</text><text alignment-baseline="middle" dominant-baseline="central" font-size="9" text-anchor="middle" transform="rotate(-63.4349488229,233.1,488.7)" x="233.1" y="488.7">YES</text><text alignment-baseline="middle" dominant-baseline="central" font-size="9" text-anchor="middle" transform="rotate(-63.4349488229,281.7,488.7)" x="281.7" y="488.7">YES</text><text alignment-baseline="middle" dominant-baseline="central" font-size="9" text-anchor="middle" transform="rotate(-63.4349488229,330.3,488.7)" x="330.3" y="488.7">YES</text><text alignment-baseline="middle" dominant-baseline="central" font-size="9" text-anchor="middle" transform="rotate(-63.4349488229,378.9,488.7)" x="378.9" y="488.7">YES</text><text alignment-baseline="middle" dominant-baseline="central" font-size="9" text-anchor="middle" transform="rotate(-63.4349488229,427.5,488.7)" x="427.5" y="488.7">YES</text><text alignment-baseline="middle" dominant-baseline="central" font-size="9" text-anchor="middle" transform="rotate(-63.4349488229,476.1,488.7)" x="476.1" y="488.7">YES</text><text alignment-baseline="middle" dominant-baseline="central" font-size="9" text-anchor="middle" transform="rotate(-63.4349488229,524.7,488.7)" x="524.7" y="488.7">YES</text><text alignment-baseline="middle" dominant-baseline="central" font-size="9" text-anchor="middle" transform="rotate(-63.4349488229,87.3,537.3)" x="87.3" y="537.3">YES</text><text alignment-baseline="middle" dominant-baseline="central" font-size="9" text-anchor="middle" transform="rotate(-63.4349488229,135.9,537.3)" x="135.9" y="537.3">YES</text><text alignment-baseline="middle" dominant-baseline="central" font-size="9" text-anchor="middle" transform="rotate(-63.4349488229,184.5,537.3)" x="184.5" y="537.3">YES</text><text alignment-baseline="middle" dominant-baseline="central" font-size="9" text-anchor="middle" transform="rotate(-63.4349488229,233.1,537.3)" x="233.1" y="537.3">YES</text><text alignment-baseline="middle" dominant-baseline="central" font-size="9" text-anchor="middle" transform="rotate(-63.4349488229,281.7,537.3)" x="281.7" y="537.3">YES</text><text alignment-baseline="middle" dominant-baseline="central" font-size="9" text-anchor="middle" transform="rotate(-63.4349488229,330.3,537.3)" x="330.3" y="537.3">YES</text><text alignment-baseline="middle" dominant-baseline="central" font-size="9" text-anchor="middle" transform="rotate(-63.4349488229,378.9,537.3)" x="378.9" y="537.3">YES</text><text alignment-baseline="middle" dominant-baseline="central" font-size="9" text-anchor="middle" transform="rotate(-63.4349488229,427.5,537.3)" x="427.5" y="537.3">YES</text><text alignment-baseline="middle" dominant-baseline="central" font-size="9" text-anchor="middle" transform="rotate(-63.4349488229,476.1,537.3)" x="476.1" y="537.3">YES</text><text alignment-baseline="middle" dominant-baseline="central" font-size="9" text-anchor="middle" transform="rotate(-63.4349488229,524.7,537.3)" x="524.7" y="537.3">YES</text><text alignment-baseline="middle" dominant-baseline="central" font-size="9" text-anchor="middle" transform="rotate(-63.4349488229,87.3,585.9)" x="87.3" y="585.9">YES</text><text alignment-baseline="middle" dominant-baseline="central" font-size="9" text-anchor="middle" transform="rotate(-63.4349488229,135.9,585.9)" x="135.9" y="585.9">YES</text><text alignment-baseline="middle" dominant-baseline="central" font-size="9" text-anchor="middle" transform="rotate(-63.4349488229,184.5,585.9)" x="184.5" y="585.9">YES</text><text alignment-baseline="middle" dominant-baseline="central" font-size="9" text-anchor="middle" transform="rotate(-63.4349488229,233.1,585.9)" x="233.1" y="585.9">YES</text><text alignment-baseline="middle" dominant-baseline="central" font-size="9" text-anchor="middle" transform="rotate(-63.4349488229,281.7,585.9)" x="281.7" y="585.9">YES</text><text alignment-baseline="middle" dominant-baseline="central" font-size="9" text-anchor="middle" transform="rotate(-63.4349488229,330.3,585.9)" x="330.3" y="585.9">YES</text><text alignment-baseline="middle" dominant-baseline="central" font-size="9" text-anchor="middle" transform="rotate(-63.4349488229,378.9,585.9)" x="378.9" y="585.9">YES</text><text alignment-baseline="middle" dominant-baseline="central" font-size="9" text-anchor="middle" transform="rotate(-63.4349488229,427.5,585.9)" x="427.5" y="585.9">YES</text><text alignment-baseline="middle" dominant-baseline="central" font-size="9" text-anchor="middle" transform="rotate(-63.4349488229,476.1,585.9)" x="476.1" y="585.9">YES</text><text alignment-baseline="middle" dominant-baseline="central" font-size="9" text-anchor="middle" transform="rotate(-63.4349488229,524.7,585.9)" x="524.7" y="585.9">YES</text><text alignment-baseline="middle" dominant-baseline="central" font-size="9" text-anchor="middle" transform="rotate(-63.4349488229,87.3,634.5)" x="87.3" y="634.5">YES</text><text alignment-baseline="middle" dominant-baseline="central" font-size="9" text-anchor="middle" transform="rotate(-63.4349488229,135.9,634.5)" x="135.9" y="634.5">YES</text><text alignment-baseline="middle" dominant-baseline="central" font-size="9" text-anchor="middle" transform="rotate(-63.4349488229,184.5,634.5)" x="184.5" y="634.5">YES</text><text alignment-baseline="middle" dominant-baseline="central" font-size="9" text-anchor="middle" transform="rotate(-63.4349488229,233.1,634.5)" x="233.1" y="634.5">YES</text><text alignment-baseline="middle" dominant-baseline="central" font-size="9" text-anchor="middle" transform="rotate(-63.4349488229,281.7,634.5)" x="281.7" y="634.5">YES</text><text alignment-baseline="middle" dominant-baseline="central" font-size="9" text-anchor="middle" transform="rotate(-63.4349488229,330.3,634.5)" x="330.3" y="634.5">YES</text><text alignment-baseline="middle" dominant-baseline="central" font-size="9" text-anchor="middle" transform="rotate(-63.4349488229,378.9,634.5)" x="378.9" y="634.5">YES</text><text alignment-baseline="middle" dominant-baseline="central" font-size="9" text-anchor="middle" transform="rotate(-63.4349488229,427.5,634.5)" x="427.5" y="634.5">YES</text><text alignment-baseline="middle" dominant-baseline="central" font-size="9" text-anchor="middle" transform="rotate(-63.4349488229,476.1,634.5)" x="476.1" y="634.5">YES</text><text alignment-baseline="middle" dominant-baseline="central" font-size="9" text-anchor="middle" transform="rotate(-63.4349488229,524.7,634.5)" x="524.7" y="634.5">YES</text><text alignment-baseline="middle" dominant-baseline="central" font-size="9" text-anchor="middle" transform="rotate(-63.4349488229,87.3,683.1)" x="87.3" y="683.1">YES</text><text alignment-baseline="middle" dominant-baseline="central" font-size="9" text-anchor="middle" transform="rotate(-63.4349488229,135.9,683.1)" x="135.9" y="683.1">YES</text><text alignment-baseline="middle" dominant-baseline="central" font-size="9" text-anchor="middle" transform="rotate(-63.4349488229,184.5,683.1)" x="184.5" y="683.1">YES</text><text alignment-baseline="middle" dominant-baseline="central" font-size="9" text-anchor="middle" transform="rotate(-63.4349488229,233.1,683.1)" x="233.1" y="683.1">YES</text><text alignment-baseline="middle" dominant-baseline="central" font-size="9" text-anchor="middle" transform="rotate(-63.4349488229,281.7,683.1)" x="281.7" y="683.1">YES</text><text alignment-baseline="middle" dominant-baseline="central" font-size="9" text-anchor="middle" transform="rotate(-63.4349488229,330.3,683.1)" x="330.3" y="683.1">YES</text><text alignment-baseline="middle" dominant-baseline="central" font-size="9" text-anchor="middle" transform="rotate(-63.4349488229,378.9,683.1)" x="378.9" y="683.1">YES</text><text alignment-baseline="middle" dominant-baseline="central" font-size="9" text-anchor="middle" transform="rotate(-63.4349488229,427.5,683.1)" x="427.5" y="683.1">YES</text><text alignment-baseline="middle" dominant-baseline="central" font-size="9" text-anchor="middle" transform="rotate(-63.4349488229,476.1,683.1)" x="476.1" y="683.1">YES</text><text alignment-baseline="middle" dominant-baseline="central" font-size="9" text-anchor="middle" transform="rotate(-63.4349488229,524.7,683.1)" x="524.7" y="683.1">YES</text><text alignment-baseline="middle" dominant-baseline="central" font-size="9" text-anchor="middle" transform="rotate(-63.4349488229,87.3,731.7)" x="87.3" y="731.7">YES</text><text alignment-baseline="middle" dominant-baseline="central" font-size="9" text-anchor="middle" transform="rotate(-63.4349488229,135.9,731.7)" x="135.9" y="731.7">YES</text><text alignment-baseline="middle" dominant-baseline="central" font-size="9" text-anchor="middle" transform="rotate(-63.4349488229,184.5,731.7)" x="184.5" y="731.7">YES</text><text alignment-baseline="middle" dominant-baseline="central" font-size="9" text-anchor="middle" transform="rotate(-63.4349488229,233.1,731.7)" x="233.1" y="731.7">YES</text><text alignment-baseline="middle" dominant-baseline="central" font-size="9" text-anchor="middle" transform="rotate(-63.4349488229,281.7,731.7)" x="281.7" y="731.7">YES</text><text alignment-baseline="middle" dominant-baseline="central" font-size="9" text-anchor="middle" transform="rotate(-63.4349488229,330.3,731.7)" x="330.3" y="731.7">YES</text><text alignment-baseline="middle" dominant-baseline="central" font-size="9" text-anchor="middle" transform="rotate(-63.4349488229,378.9,731.7)" x="378.9" y="731.7">YES</text></g><g id="no"><text alignment-baseline="middle" dominant-baseline="central" font-size="9" text-anchor="middle" transform="rotate(63.4349488229,427.5,731.7)" x="427.5" y="731.7">NO</text><text alignment-baseline="middle" dominant-baseline="central" font-size="9" text-anchor="middle" transform="rotate(63.4349488229,476.1,731.7)" x="476.1" y="731.7">NO</text><text alignment-baseline="middle" dominant-baseline="central" font-size="9" text-anchor="middle" transform="rotate(63.4349488229,524.7,731.7)" x="524.7" y="731.7">NO</text></g><rect fill="none" height="720.0" stroke="#000000" stroke-width="1" width="486.0" x="63.0" y="36.0" /><line fill="none" stroke="#000000" stroke-width="1" x1="0" x2="612.0" y1="153.0" y2="153.0" /></svg>