<?xml version="1.0" encoding="utf-8" ?>
<svg baseProfile="full" height="792.0" version="1.1" width="612.0" xmlns="http://www.w3.org/2000/svg" xmlns:ev="http://www.w3.org/2001/xml-events" xmlns:xlink="http://www.w3.org/1999/xlink"><defs><g id="arrowsEven"><polyline fill="none" points="0.0,5.16129032258 5.8064516129,15.4838709677 17.4193548387,15.4838709677 2.90322580645,41.2903225806 5.8064516129,46.4516129032 11.6129032258,46.4516129032 26.1290322581,20.6451612903 31.935483871,30.9677419355 43.5483870968,30.9677419355 29.0322580645,5.16129032258 0.0,5.16129032258" stroke="#000000" stroke-linejoin="round" stroke-width="1" /><polyline fill="none" points="29.0322580645,5.16129032258 43.5483870968,30.9677419355 31.935483871,30.9677419355 26.1290322581,41.2903225806 55.1612903226,41.2903225806 69.6774193548,15.4838709677 58.064516129,15.4838709677 52.2580645161,25.8064516129 37.7419354839,0.0 31.935483871,0.0 29.0322580645,5.16129032258" stroke="#000000" stroke-linejoin="round" stroke-width="1" /></g><g id="arrowsOdd"><polyline fill="none" points="26.1290322581,5.16129032258 31.935483871,15.4838709677 43.5483870968,15.4838709677 29.0322580645,41.2903225806 31.935483871,46.4516129032 37.7419354839,46.4516129032 52.2580645161,20.6451612903 58.064516129,30.9677419355 69.6774193548,30.9677419355 55.1612903226,5.16129032258 26.1290322581,5.16129032258" stroke="#000000" stroke-linejoin="round" stroke-width="1" /><polyline fill="none" points="2.90322580645,5.16129032258 17.4193548387,30.9677419355 5.8064516129,30.9677419355 0.0,41.2903225806 29.0322580645,41.2903225806 43.5483870968,15.4838709677 31.935483871,15.4838709677 26.1290322581,25.8064516129 11.6129032258,0.0 5.8064516129,0.0 2.90322580645,5.16129032258" stroke="#000000" stroke-linejoin="round" stroke-width="1" /></g></defs><g id="arrows"><use x="36.0" xlink:href="#arrowsEven" y="234.0" /><use x="88.2580645161" xlink:href="#arrowsEven" y="234.0" /><use x="140.516129032" xlink:href="#arrowsEven" y="234.0" /><use x="192.774193548" xlink:href="#arrowsEven" y="234.0" /><use x="245.032258065" xlink:href="#arrowsEven" y="234.0" /><use x="297.290322581" xlink:href="#arrowsEven" y="234.0" /><use x="349.548387097" xlink:href="#arrowsEven" y="234.0" /><use x="401.806451613" xlink:href="#arrowsEven" y="234.0" /><use x="454.064516129" xlink:href="#arrowsEven" y="234.0" /><use x="506.322580645" xlink:href="#arrowsEven" y="234.0" /><use x="36.0" xlink:href="#arrowsOdd" y="280.451612903" /><use x="88.2580645161" xlink:href="#arrowsOdd" y="280.451612903" /><use x="140.516129032" xlink:href="#arrowsOdd" y="280.451612903" /><use x="192.774193548" xlink:href="#arrowsOdd" y="280.451612903" /><use x="245.032258065" xlink:href="#arrowsOdd" y="280.451612903" /><use x="297.290322581" xlink:href="#arrowsOdd" y="280.451612903" /><use x="349.548387097" xlink:href="#arrowsOdd" y="280.451612903" /><use x="401.806451613" xlink:href="#arrowsOdd" y="280.451612903" /><use x="454.064516129" xlink:href="#arrowsOdd" y="280.451612903" /><use x="506.322580645" xlink:href="#arrowsOdd" y="280.451612903" /><use x="36.0" xlink:href="#arrowsEven" y="326.903225806" /><use x="88.2580645161" xlink:href="#arrowsEven" y="326.903225806" /><use x="140.516129032" xlink:href="#arrowsEven" y="326.903225806" /><use x="192.774193548" xlink:href="#arrowsEven" y="326.903225806" /><use x="245.032258065" xlink:href="#arrowsEven" y="326.903225806" /><use x="297.290322581" xlink:href="#arrowsEven" y="326.903225806" /><use x="349.548387097" xlink:href="#arrowsEven" y="326.903225806" /><use x="401.806451613" xlink:href="#arrowsEven" y="326.903225806" /><use x="454.064516129" xlink:href="#arrowsEven" y="326.903225806" /><use x="506.322580645" xlink:href="#arrowsEven" y="326.903225806" /><use x="36.0" xlink:href="#arrowsOdd" y="373.35483871" /><use x="88.2580645161" xlink:href="#arrowsOdd" y="373.35483871" /><use x="140.516129032" xlink:href="#arrowsOdd" y="373.35483871" /><use x="192.774193548" xlink:href="#arrowsOdd" y="373.35483871" /><use x="245.032258065" xlink:href="#arrowsOdd" y="373.35483871" /><use x="297.290322581" xlink:href="#arrowsOdd" y="373.35483871" /><use x="349.548387097" xlink:href="#arrowsOdd" y="373.35483871" /><use x="401.806451613" xlink:href="#arrowsOdd" y="373.35483871" /><use x="454.064516129" xlink:href="#arrowsOdd" y="373.35483871" /><use x="506.322580645" xlink:href="#arrowsOdd" y="373.35483871" /><use x="36.0" xlink:href="#arrowsEven" y="419.806451613" /><use x="88.2580645161" xlink:href="#arrowsEven" y="419.806451613" /><use x="140.516129032" xlink:href="#arrowsEven" y="419.806451613" /><use x="192.774193548" xlink:href="#arrowsEven" y="419.806451613" /><use x="245.032258065" xlink:href="#arrowsEven" y="419.806451613" /><use x="297.290322581" xlink:href="#arrowsEven" y="419.806451613" /><use x="349.548387097" xlink:href="#arrowsEven" y="419.806451613" /><use x="401.806451613" xlink:href="#arrowsEven" y="419.806451613" /><use x="454.064516129" xlink:href="#arrowsEven" y="419.806451613" /><use x="506.322580645" xlink:href="#arrowsEven" y="419.806451613" /><use x="36.0" xlink:href="#arrowsOdd" y="466.258064516" /><use x="88.2580645161" xlink:href="#arrowsOdd" y="466.258064516" /><use x="140.516129032" xlink:href="#arrowsOdd" y="466.258064516" /><use x="192.774193548" xlink:href="#arrowsOdd" y="466.258064516" /><use x="245.032258065" xlink:href="#arrowsOdd" y="466.258064516" /><use x="297.290322581" xlink:href="#arrowsOdd" y="466.258064516" /><use x="349.548387097" xlink:href="#arrowsOdd" y="466.258064516" /><use x="401.806451613" xlink:href="#arrowsOdd" y="466.258064516" /><use x="454.064516129" xlink:href="#arrowsOdd" y="466.258064516" /><use x="506.322580645" xlink:href="#arrowsOdd" y="466.258064516" /><use x="36.0" xlink:href="#arrowsEven" y="512.709677419" /><use x="88.2580645161" xlink:href="#arrowsEven" y="512.709677419" /><use x="140.516129032" xlink:href="#arrowsEven" y="512.709677419" /><use x="192.774193548" xlink:href="#arrowsEven" y="512.709677419" /><use x="245.032258065" xlink:href="#arrowsEven" y="512.709677419" /><use x="297.290322581" xlink:href="#arrowsEven" y="512.709677419" /><use x="349.548387097" xlink:href="#arrowsEven" y="512.709677419" /><use x="401.806451613" xlink:href="#arrowsEven" y="512.709677419" /><use x="454.064516129" xlink:href="#arrowsEven" y="512.709677419" /><use x="506.322580645" xlink:href="#arrowsEven" y="512.709677419" /><use x="36.0" xlink:href="#arrowsOdd" y="559.161290323" /><use x="88.2580645161" xlink:href="#arrowsOdd" y="559.161290323" /><use x="140.516129032" xlink:href="#arrowsOdd" y="559.161290323" /><use x="192.774193548" xlink:href="#arrowsOdd" y="559.161290323" /><use x="245.032258065" xlink:href="#arrowsOdd" y="559.161290323" /><use x="297.290322581" xlink:href="#arrowsOdd" y="559.161290323" /><use x="349.548387097" xlink:href="#arrowsOdd" y="559.161290323" /><use x="401.806451613" xlink:href="#arrowsOdd" y="559.161290323" /><use x="454.064516129" xlink:href="#arrowsOdd" y="559.161290323" /><use x="506.322580645" xlink:href="#arrowsOdd" y="559.161290323" /><use x="36.0" xlink:href="#arrowsEven" y="605.612903226" /><use x="88.2580645161" xlink:href="#arrowsEven" y="605.612903226" /><use x="140.516129032" xlink:href="#arrowsEven" y="605.612903226" /><use x="192.774193548" xlink:href="#arrowsEven" y="605.612903226" /><use x="245.032258065" xlink:href="#arrowsEven" y="605.612903226" /><use x="297.290322581" xlink:href="#arrowsEven" y="605.612903226" /><use x="349.548387097" xlink:href="#arrowsEven" y="605.612903226" /><use x="401.806451613" xlink:href="#arrowsEven" y="605.612903226" /><use x="454.064516129" xlink:href="#arrowsEven" y="605.612903226" /><use x="506.322580645" xlink:href="#arrowsEven" y="605.612903226" /><use x="36.0" xlink:href="#arrowsOdd" y="652.064516129" /><use x="88.2580645161" xlink:href="#arrowsOdd" y="652.064516129" /><use x="140.516129032" xlink:href="#arrowsOdd" y="652.064516129" /><use x="192.774193548" xlink:href="#arrowsOdd" y="652.064516129" /><use x="245.032258065" xlink:href="#arrowsOdd" y="652.064516129" /><use x="297.290322581" xlink:href="#arrowsOdd" y="652.064516129" /><use x="349.548387097" xlink:href="#arrowsOdd" y="652.064516129" /><use x="401.806451613" xlink:href="#arrowsOdd" y="652.064516129" /><use x="454.064516129" xlink:href="#arrowsOdd" y="652.064516129" /><use x="506.322580645" xlink:href="#arrowsOdd" y="652.064516129" /></g><g id="yes"><text alignment-baseline="middle" dominant-baseline="central" font-size="10" text-anchor="middle" transform="rotate(-60.6422464572,157.935483871,259.806451613)" x="157.935483871" y="259.806451613">YES</text><text alignment-baseline="middle" dominant-baseline="central" font-size="10" text-anchor="middle" transform="rotate(-60.6422464572,210.193548387,259.806451613)" x="210.193548387" y="259.806451613">YES</text><text alignment-baseline="middle" dominant-baseline="central" font-size="10" text-anchor="middle" transform="rotate(-60.6422464572,262.451612903,259.806451613)" x="262.451612903" y="259.806451613">YES</text><text alignment-baseline="middle" dominant-baseline="central" font-size="10" text-anchor="middle" transform="rotate(-60.6422464572,314.709677419,259.806451613)" x="314.709677419" y="259.806451613">YES</text><text alignment-baseline="middle" dominant-baseline="central" font-size="10" text-anchor="middle" transform="rotate(-60.6422464572,366.967741935,259.806451613)" x="366.967741935" y="259.806451613">YES</text><text alignment-baseline="middle" dominant-baseline="central" font-size="10" text-anchor="middle" transform="rotate(-60.6422464572,419.225806452,259.806451613)" x="419.225806452" y="259.806451613">YES</text><text alignment-baseline="middle" dominant-baseline="central" font-size="10" text-anchor="middle" transform="rotate(-60.6422464572,471.483870968,259.806451613)" x="471.483870968" y="259.806451613">YES</text><text alignment-baseline="middle" dominant-baseline="central" font-size="10" text-anchor="middle" transform="rotate(-60.6422464572,523.741935484,259.806451613)" x="523.741935484" y="259.806451613">YES</text><text alignment-baseline="middle" dominant-baseline="central" font-size="10" text-anchor="middle" transform="rotate(-60.6422464572,79.5483870968,306.258064516)" x="79.5483870968" y="306.258064516">YES</text><text alignment-baseline="middle" dominant-baseline="central" font-size="10" text-anchor="middle" transform="rotate(-60.6422464572,131.806451613,306.258064516)" x="131.806451613" y="306.258064516">YES</text><text alignment-baseline="middle" dominant-baseline="central" font-size="10" text-anchor="middle" transform="rotate(-60.6422464572,184.064516129,306.258064516)" x="184.064516129" y="306.258064516">YES</text><text alignment-baseline="middle" dominant-baseline="central" font-size="10" text-anchor="middle" transform="rotate(-60.6422464572,236.322580645,306.258064516)" x="236.322580645" y="306.258064516">YES</text><text alignment-baseline="middle" dominant-baseline="central" font-size="10" text-anchor="middle" transform="rotate(-60.6422464572,288.580645161,306.258064516)" x="288.580645161" y="306.258064516">YES</text><text alignment-baseline="middle" dominant-baseline="central" font-size="10" text-anchor="middle" transform="rotate(-60.6422464572,340.838709677,306.258064516)" x="340.838709677" y="306.258064516">YES</text><text alignment-baseline="middle" dominant-baseline="central" font-size="10" text-anchor="middle" transform="rotate(-60.6422464572,393.096774194,306.258064516)" x="393.096774194" y="306.258064516">YES</text><text alignment-baseline="middle" dominant-baseline="central" font-size="10" text-anchor="middle" transform="rotate(-60.6422464572,445.35483871,306.258064516)" x="445.35483871" y="306.258064516">YES</text><text alignment-baseline="middle" dominant-baseline="central" font-size="10" text-anchor="middle" transform="rotate(-60.6422464572,497.612903226,306.258064516)" x="497.612903226" y="306.258064516">YES</text><text alignment-baseline="middle" dominant-baseline="central" font-size="10" text-anchor="middle" transform="rotate(-60.6422464572,549.870967742,306.258064516)" x="549.870967742" y="306.258064516">YES</text><text alignment-baseline="middle" dominant-baseline="central" font-size="10" text-anchor="middle" transform="rotate(-60.6422464572,53.4193548387,352.709677419)" x="53.4193548387" y="352.709677419">YES</text><text alignment-baseline="middle" dominant-baseline="central" font-size="10" text-anchor="middle" transform="rotate(-60.6422464572,105.677419355,352.709677419)" x="105.677419355" y="352.709677419">YES</text><text alignment-baseline="middle" dominant-baseline="central" font-size="10" text-anchor="middle" transform="rotate(-60.6422464572,157.935483871,352.709677419)" x="157.935483871" y="352.709677419">YES</text><text alignment-baseline="middle" dominant-baseline="central" font-size="10" text-anchor="middle" transform="rotate(-60.6422464572,210.193548387,352.709677419)" x="210.193548387" y="352.709677419">YES</text><text alignment-baseline="middle" dominant-baseline="central" font-size="10" text-anchor="middle" transform="rotate(-60.6422464572,262.451612903,352.709677419)" x="262.451612903" y="352.709677419">YES</text><text alignment-baseline="middle" dominant-baseline="central" font-size="10" text-anchor="middle" transform="rotate(-60.6422464572,314.709677419,352.709677419)" x="314.709677419" y="352.709677419">YES</text><text alignment-baseline="middle" dominant-baseline="central" font-size="10" text-anchor="middle" transform="rotate(-60.6422464572,366.967741935,352.709677419)" x="366.967741935" y="352.709677419">YES</text><text alignment-baseline="middle" dominant-baseline="central" font-size="10" text-anchor="middle" transform="rotate(-60.6422464572,419.225806452,352.709677419)" x="419.225806452" y="352.709677419">YES</text><text alignment-baseline="middle" dominant-baseline="central" font-size="10" text-anchor="middle" transform="rotate(-60.6422464572,471.483870968,352.709677419)" x="471.483870968" y="352.709677419">YES</text><text alignment-baseline="middle" dominant-baseline="central" font-size="10" text-anchor="middle" transform="rotate(-60.6422464572,523.741935484,352.709677419)" x="523.741935484" y="352.709677419">YES</text><text alignment-baseline="middle" dominant-baseline="central" font-size="10" text-anchor="middle" transform="rotate(-60.6422464572,79.5483870968,399.161290323)" x="79.5483870968" y="399.161290323">YES</text><text alignment-baseline="middle" dominant-baseline="central" font-size="10" text-anchor="middle" transform="rotate(-60.6422464572,131.806451613,399.161290323)" x="131.806451613" y="399.161290323">YES</text><text alignment-baseline="middle" dominant-baseline="central" font-size="10" text-anchor="middle" transform="rotate(-60.6422464572,184.064516129,399.161290323)" x="184.064516129" y="399.161290323">YES</text><text alignment-baseline="middle" dominant-baseline="central" font-size="10" text-anchor="middle" transform="rotate(-60.6422464572,236.322580645,399.161290323)" x="236.322580645" y="399.161290323">YES</text><text alignment-baseline="middle" dominant-baseline="central" font-size="10" text-anchor="middle" transform="rotate(-60.6422464572,288.580645161,399.161290323)" x="288.580645161" y="399.161290323">YES</text><text alignment-baseline="middle" dominant-baseline="central" font-size="10" text-anchor="middle" transform="rotate(-60.6422464572,340.838709677,399.161290323)" x="340.838709677" y="399.161290323">YES</text><text alignment-baseline="middle" dominant-baseline="central" font-size="10" text-anchor="middle" transform="rotate(-60.6422464572,393.096774194,399.161290323)" x="393.096774194" y="399.161290323">YES</text><text alignment-baseline="middle" dominant-baseline="central" font-size="10" text-anchor="middle" transform="rotate(-60.6422464572,445.35483871,399.161290323)" x="445.35483871" y="399.161290323">YES</text><text alignment-baseline="middle" dominant-baseline="central" font-size="10" text-anchor="middle" transform="rotate(-60.6422464572,497.612903226,399.161290323)" x="497.612903226" y="399.161290323">YES</text><text alignment-baseline="middle" dominant-baseline="central" font-size="10" text-anchor="middle" transform="rotate(-60.6422464572,549.870967742,399.161290323)" x="549.870967742" y="399.161290323">YES</text><text alignment-baseline="middle" dominant-baseline="central" font-size="10" text-anchor="middle" transform="rotate(-60.6422464572,53.4193548387,445.612903226)" x="53.4193548387" y="445.612903226">YES</text><text alignment-baseline="middle" dominant-baseline="central" font-size="10" text-anchor="middle" transform="rotate(-60.6422464572,105.677419355,445.612903226)" x="105.677419355" y="445.612903226">YES</text><text alignment-baseline="middle" dominant-baseline="central" font-size="10" text-anchor="middle" transform="rotate(-60.6422464572,157.935483871,445.612903226)" x="157.935483871" y="445.612903226">YES</text><text alignment-baseline="middle" dominant-baseline="central" font-size="10" text-anchor="middle" transform="rotate(-60.6422464572,210.193548387,445.612903226)" x="210.193548387" y="445.612903226">YES</text><text alignment-baseline="middle" dominant-baseline="central" font-size="10" text-anchor="middle" transform="rotate(-60.6422464572,262.451612903,445.612903226)" x="262.451612903" y="445.612903226">YES</text><text alignment-baseline="middle" dominant-baseline="central" font-size="10" text-anchor="middle" transform="rotate(-60.6422464572,314.709677419,445.612903226)" x="314.709677419" y="445.612903226">YES</text><text alignment-baseline="middle" dominant-baseline="central" font-size="10" text-anchor="middle" transform="rotate(-60.6422464572,366.967741935,445.612903226)" x="366.967741935" y="445.612903226">YES</text><text alignment-baseline="middle" dominant-baseline="central" font-size="10" text-anchor="middle" transform="rotate(-60.6422464572,419.225806452,445.612903226)" x="419.225806452" y="445.612903226">YES</text><text alignment-baseline="middle" dominant-baseline="central" font-size="10" text-anchor="middle" transform="rotate(-60.6422464572,471.483870968,445.612903226)" x="471.483870968" y="445.612903226">YES</text><text alignment-baseline="middle" dominant-baseline="central" font-size="10" text-anchor="middle" transform="rotate(-60.6422464572,523.741935484,445.612903226)" x="523.741935484" y="445.612903226">YES</text><text alignment-baseline="middle" dominant-baseline="central" font-size="10" text-anchor="middle" transform="rotate(-60.6422464572,79.5483870968,492.064516129)" x="79.5483870968" y="492.064516129">YES</text><text alignment-baseline="middle" dominant-baseline="central" font-size="10" text-anchor="middle" transform="rotate(-60.6422464572,131.806451613,492.064516129)" x="131.806451613" y="492.064516129">YES</text><text alignment-baseline="middle" dominant-baseline="central" font-size="10" text-anchor="middle" transform="rotate(-60.6422464572,184.064516129,492.064516129)" x="184.064516129" y="492.064516129">YES</text><text alignment-baseline="middle" dominant-baseline="central" font-size="10" text-anchor="middle" transform="rotate(-60.6422464572,236.322580645,492.064516129)" x="236.322580645" y="492.064516129">YES</text><text alignment-baseline="middle" dominant-baseline="central" font-size="10" text-anchor="middle" transform="rotate(-60.6422464572,288.580645161,492.064516129)" x="288.580645161" y="492.064516129">YES</text><text alignment-baseline="middle" dominant-baseline="central" font-size="10" text-anchor="middle" transform="rotate(-60.6422464572,340.838709677,492.064516129)" x="340.838709677" y="492.064516129">YES</text><text alignment-baseline="middle" dominant-baseline="central" font-size="10" text-anchor="middle" transform="rotate(-60.6422464572,393.096774194,492.064516129)" x="393.096774194" y="492.064516129">YES</text><text alignment-baseline="middle" dominant-baseline="central" font-size="10" text-anchor="middle" transform="rotate(-60.6422464572,445.35483871,492.064516129)" x="445.35483871" y="492.064516129">YES</text><text alignment-baseline="middle" dominant-baseline="central" font-size="10" text-anchor="middle" transform="rotate(-60.6422464572,497.612903226,492.064516129)" x="497.612903226" y="492.064516129">YES</text><text alignment-baseline="middle" dominant-baseline="central" font-size="10" text-anchor="middle" transform="rotate(-60.6422464572,549.870967742,492.064516129)" x="549.870967742" y="492.064516129">YES</text><text alignment-baseline="middle" dominant-baseline="central" font-size="10" text-anchor="middle" transform="rotate(-60.6422464572,53.4193548387,538.516129032)" x="53.4193548387" y="538.516129032">YES</text><text alignment-baseline="middle" dominant-baseline="central" font-size="10" text-anchor="middle" transform="rotate(-60.6422464572,105.677419355,538.516129032)" x="105.677419355" y="538.516129032">YES</text><text alignment-baseline="middle" dominant-baseline="central" font-size="10" text-anchor="middle" transform="rotate(-60.6422464572,157.935483871,538.516129032)" x="157.935483871" y="538.516129032">YES</text><text alignment-baseline="middle" dominant-baseline="central" font-size="10" text-anchor="middle" transform="rotate(-60.6422464572,210.193548387,538.516129032)" x="210.193548387" y="538.516129032">YES</text><text alignment-baseline="middle" dominant-baseline="central" font-size="10" text-anchor="middle" transform="rotate(-60.6422464572,262.451612903,538.516129032)" x="262.451612903" y="538.516129032">YES</text><text alignment-baseline="middle" dominant-baseline="central" font-size="10" text-anchor="middle" transform="rotate(-60.6422464572,314.709677419,538.516129032)" x="314.709677419" y="538.516129032">YES</text><text alignment-baseline="middle" dominant-baseline="central" font-size="10" text-anchor="middle" transform="rotate(-60.6422464572,366.967741935,538.516129032)" x="366.967741935" y="538.516129032">YES</text><text alignment-baseline="middle" dominant-baseline="central" font-size="10" text-anchor="middle" transform="rotate(-60.6422464572,419.225806452,538.516129032)" x="419.225806452" y="538.516129032">YES</text><text alignment-baseline="middle" dominant-baseline="central" font-size="10" text-anchor="middle" transform="rotate(-60.6422464572,471.483870968,538.516129032)" x="471.483870968" y="538.516129032">YES</text><text alignment-baseline="middle" dominant-baseline="central" font-size="10" text-anchor="middle" transform="rotate(-60.6422464572,523.741935484,538.516129032)" x="523.741935484" y="538.516129032">YES</text><text alignment-baseline="middle" dominant-baseline="central" font-size="10" text-anchor="middle" transform="rotate(-60.6422464572,79.5483870968,584.967741935)" x="79.5483870968" y="584.967741935">YES</text><text alignment-baseline="middle" dominant-baseline="central" font-size="10" text-anchor="middle" transform="rotate(-60.6422464572,131.806451613,584.967741935)" x="131.806451613" y="584.967741935">YES</text><text alignment-baseline="middle" dominant-baseline="central" font-size="10" text-anchor="middle" transform="rotate(-60.6422464572,184.064516129,584.967741935)" x="184.064516129" y="584.967741935">YES</text><text alignment-baseline="middle" dominant-baseline="central" font-size="10" text-anchor="middle" transform="rotate(-60.6422464572,236.322580645,584.967741935)" x="236.322580645" y="584.967741935">YES</text><text alignment-baseline="middle" dominant-baseline="central" font-size="10" text-anchor="middle" transform="rotate(-60.6422464572,288.580645161,584.967741935)" x="288.580645161" y="584.967741935">YES</text><text alignment-baseline="middle" dominant-baseline="central" font-size="10" text-anchor="middle" transform="rotate(-60.6422464572,340.838709677,584.967741935)" x="340.838709677" y="584.967741935">YES</text><text alignment-baseline="middle" dominant-baseline="central" font-size="10" text-anchor="middle" transform="rotate(-60.6422464572,393.096774194,584.967741935)" x="393.096774194" y="584.967741935">YES</text><text alignment-baseline="middle" dominant-baseline="central" font-size="10" text-anchor="middle" transform="rotate(-60.6422464572,445.35483871,584.967741935)" x="445.35483871" y="584.967741935">YES</text><text alignment-baseline="middle" dominant-baseline="central" font-size="10" text-anchor="middle" transform="rotate(-60.6422464572,497.612903226,584.967741935)" x="497.612903226" y="584.967741935">YES</text><text alignment-baseline="middle" dominant-baseline="central" font-size="10" text-anchor="middle" transform="rotate(-60.6422464572,549.870967742,584.967741935)" x="549.870967742" y="584.967741935">YES</text><text alignment-baseline="middle" dominant-baseline="central" font-size="10" text-anchor="middle" transform="rotate(-60.6422464572,53.4193548387,631.419354839)" x="53.4193548387" y="631.419354839">YES</text><text alignment-baseline="middle" dominant-baseline="central" font-size="10" text-anchor="middle" transform="rotate(-60.6422464572,105.677419355,631.419354839)" x="105.677419355" y="631.419354839">YES</text><text alignment-baseline="middle" dominant-baseline="central" font-size="10" text-anchor="middle" transform="rotate(-60.6422464572,157.935483871,631.419354839)" x="157.935483871" y="631.419354839">YES</text><text alignment-baseline="middle" dominant-baseline="central" font-size="10" text-anchor="middle" transform="rotate(-60.6422464572,210.193548387,631.419354839)" x="210.193548387" y="631.419354839">YES</text><text alignment-baseline="middle" dominant-baseline="central" font-size="10" text-anchor="middle" transform="rotate(-60.6422464572,262.451612903,631.419354839)" x="262.451612903" y="631.419354839">YES</text><text alignment-baseline="middle" dominant-baseline="central" font-size="10" text-anchor="middle" transform="rotate(-60.6422464572,314.709677419,631.419354839)" x="314.709677419" y="631.419354839">YES</text><text alignment-baseline="middle" dominant-baseline="central" font-size="10" text-anchor="middle" transform="rotate(-60.6422464572,366.967741935,631.419354839)" x="366.967741935" y="631.419354839">YES</text><text alignment-baseline="middle" dominant-baseline="central" font-size="10" text-anchor="middle" transform="rotate(-60.6422464572,419.225806452,631.419354839)" x="419.225806452" y="631.419354839">YES</text><text alignment-baseline="middle" dominant-baseline="central" font-size="10" text-anchor="middle" transform="rotate(-60.6422464572,471.483870968,631.419354839)" x="471.483870968" y="631.419354839">YES</text><text alignment-baseline="middle" dominant-baseline="central" font-size="10" text-anchor="middle" transform="rotate(-60.6422464572,523.741935484,631.419354839)" x="523.741935484" y="631.419354839">YES</text><text alignment-baseline="middle" dominant-baseline="central" font-size="10" text-anchor="middle" transform="rotate(-60.6422464572,79.5483870968,677.870967742)" x="79.5483870968" y="677.870967742">YES</text><text alignment-baseline="middle" dominant-baseline="central" font-size="10" text-anchor="middle" transform="rotate(-60.6422464572,131.806451613,677.870967742)" x="131.806451613" y="677.870967742">YES</text><text alignment-baseline="middle" dominant-baseline="central" font-size="10" text-anchor="middle" transform="rotate(-60.6422464572,184.064516129,677.870967742)" x="184.064516129" y="677.870967742">YES</text><text alignment-baseline="middle" dominant-baseline="central" font-size="10" text-anchor="middle" transform="rotate(-60.6422464572,236.322580645,677.870967742)" x="236.322580645" y="677.870967742">YES</text><text alignment-baseline="middle" dominant-baseline="central" font-size="10" text-anchor="middle" transform="rotate(-60.6422464572,288.580645161,677.870967742)" x="288.580645161" y="677.870967742">YES</text><text alignment-baseline="middle" dominant-baseline="central" font-size="10" text-anchor="middle" transform="rotate(-60.6422464572,340.838709677,677.870967742)" x="340.838709677" y="677.870967742">YES</text><text alignment-baseline="middle" dominant-baseline="central" font-size="10" text-anchor="middle" transform="rotate(-60.6422464572,393.096774194,677.870967742)" x="393.096774194" y="677.870967742">YES</text><text alignment-baseline="middle" dominant-baseline="central" font-size="10" text-anchor="middle" transform="rotate(-60.6422464572,445.35483871,677.870967742)" x="445.35483871" y="677.870967742">YES</text><text alignment-baseline="middle" dominant-baseline="central" font-size="10" text-anchor="middle" transform="rotate(-60.6422464572,497.612903226,677.870967742)" x="497.612903226" y="677.870967742">YES</text></g><g id="no"><text alignment-baseline="middle" dominant-baseline="central" font-size="10" text-anchor="middle" transform="rotate(60.6422464572,262.451612903,486.903225806)" x="262.451612903" y="486.903225806">NO</text><text alignment-baseline="middle" dominant-baseline="central" font-size="10" text-anchor="middle" transform="rotate(60.6422464572,314.709677419,486.903225806)" x="314.709677419" y="486.903225806">NO</text><text alignment-baseline="middle" dominant-baseline="central" font-size="10" text-anchor="middle" transform="rotate(60.6422464572,366.967741935,486.903225806)" x="366.967741935" y="486.903225806">NO</text></g><rect fill="none" height="720.0" stroke="#000000" stroke-width="1" width="540.0" x="36.0" y="36.0" /></svg>