<?xml version="1.0" encoding="utf-8" ?>
<svg baseProfile="full" height="1080.0" version="1.1" width="680" xmlns="http://www.w3.org/2000/svg" xmlns:ev="http://www.w3.org/2001/xml-events" xmlns:xlink="http://www.w3.org/1999/xlink"><defs><polygon fill="none" id="triangle" points="0,100.0 50.0,0 100.0,100.0" stroke="#000000" stroke-linejoin="round" stroke-width="2" /></defs><g id="triangles"><g id="triangle0" transform="translate(50.0,50.0) scale(0.8) rotate(0 50.0 50.0)"><use xlink:href="#triangle" /></g><g id="triangle1" transform="translate(100.0,50.0) scale(0.8) rotate(180 50.0 50.0)"><use xlink:href="#triangle" /></g><g id="triangle2" transform="translate(150.0,50.0) scale(0.8) rotate(0 50.0 50.0)"><use xlink:href="#triangle" /></g><g id="triangle3" transform="translate(200.0,50.0) scale(0.8) rotate(180 50.0 50.0)"><use xlink:href="#triangle" /></g><g id="triangle4" transform="translate(250.0,50.0) scale(0.8) rotate(0 50.0 50.0)"><use xlink:href="#triangle" /></g><g id="triangle5" transform="translate(300.0,50.0) scale(0.8) rotate(180 50.0 50.0)"><use xlink:href="#triangle" /></g><g id="triangle6" transform="translate(350.0,50.0) scale(0.8) rotate(0 50.0 50.0)"><use xlink:href="#triangle" /></g><g id="triangle7" transform="translate(400.0,50.0) scale(0.8) rotate(180 50.0 50.0)"><use xlink:href="#triangle" /></g><g id="triangle8" transform="translate(450.0,50.0) scale(0.8) rotate(0 50.0 50.0)"><use xlink:href="#triangle" /></g><g id="triangle9" transform="translate(500.0,50.0) scale(0.8) rotate(180 50.0 50.0)"><use xlink:href="#triangle" /></g><g id="triangle10" transform="translate(50.0,130.0) scale(0.8) rotate(180 50.0 50.0)"><use xlink:href="#triangle" /></g><g id="triangle11" transform="translate(100.0,130.0) scale(0.8) rotate(0 50.0 50.0)"><use xlink:href="#triangle" /></g><g id="triangle12" transform="translate(150.0,130.0) scale(0.8) rotate(180 50.0 50.0)"><use xlink:href="#triangle" /></g><g id="triangle13" transform="translate(200.0,130.0) scale(0.8) rotate(0 50.0 50.0)"><use xlink:href="#triangle" /></g><g id="triangle14" transform="translate(250.0,130.0) scale(0.8) rotate(180 50.0 50.0)"><use xlink:href="#triangle" /></g><g id="triangle15" transform="translate(300.0,130.0) scale(0.8) rotate(0 50.0 50.0)"><use xlink:href="#triangle" /></g><g id="triangle16" transform="translate(350.0,130.0) scale(0.8) rotate(180 50.0 50.0)"><use xlink:href="#triangle" /></g><g id="triangle17" transform="translate(400.0,130.0) scale(0.8) rotate(0 50.0 50.0)"><use xlink:href="#triangle" /></g><g id="triangle18" transform="translate(450.0,130.0) scale(0.8) rotate(180 50.0 50.0)"><use xlink:href="#triangle" /></g><g id="triangle19" transform="translate(500.0,130.0) scale(0.8) rotate(0 50.0 50.0)"><use xlink:href="#triangle" /></g><g id="triangle20" transform="translate(50.0,210.0) scale(0.8) rotate(0 50.0 50.0)"><use xlink:href="#triangle" /></g><g id="triangle21" transform="translate(100.0,210.0) scale(0.8) rotate(180 50.0 50.0)"><use xlink:href="#triangle" /></g><g id="triangle22" transform="translate(150.0,210.0) scale(0.8) rotate(0 50.0 50.0)"><use xlink:href="#triangle" /></g><g id="triangle23" transform="translate(200.0,210.0) scale(0.8) rotate(180 50.0 50.0)"><use xlink:href="#triangle" /></g><g id="triangle24" transform="translate(250.0,210.0) scale(0.8) rotate(0 50.0 50.0)"><use xlink:href="#triangle" /></g><g id="triangle25" transform="translate(300.0,210.0) scale(0.8) rotate(180 50.0 50.0)"><use xlink:href="#triangle" /></g><g id="triangle26" transform="translate(350.0,210.0) scale(0.8) rotate(0 50.0 50.0)"><use xlink:href="#triangle" /></g><g id="triangle27" transform="translate(400.0,210.0) scale(0.8) rotate(180 50.0 50.0)"><use xlink:href="#triangle" /></g><g id="triangle28" transform="translate(450.0,210.0) scale(0.8) rotate(0 50.0 50.0)"><use xlink:href="#triangle" /></g><g id="triangle29" transform="translate(500.0,210.0) scale(0.8) rotate(180 50.0 50.0)"><use xlink:href="#triangle" /></g><g id="triangle30" transform="translate(50.0,290.0) scale(0.8) rotate(180 50.0 50.0)"><use xlink:href="#triangle" /></g><g id="triangle31" transform="translate(100.0,290.0) scale(0.8) rotate(0 50.0 50.0)"><use xlink:href="#triangle" /></g><g id="triangle32" transform="translate(150.0,290.0) scale(0.8) rotate(180 50.0 50.0)"><use xlink:href="#triangle" /></g><g id="triangle33" transform="translate(200.0,290.0) scale(0.8) rotate(0 50.0 50.0)"><use xlink:href="#triangle" /></g><g id="triangle34" transform="translate(250.0,290.0) scale(0.8) rotate(180 50.0 50.0)"><use xlink:href="#triangle" /></g><g id="triangle35" transform="translate(300.0,290.0) scale(0.8) rotate(0 50.0 50.0)"><use xlink:href="#triangle" /></g><g id="triangle36" transform="translate(350.0,290.0) scale(0.8) rotate(180 50.0 50.0)"><use xlink:href="#triangle" /></g><g id="triangle37" transform="translate(400.0,290.0) scale(0.8) rotate(0 50.0 50.0)"><use xlink:href="#triangle" /></g><g id="triangle38" transform="translate(450.0,290.0) scale(0.8) rotate(180 50.0 50.0)"><use xlink:href="#triangle" /></g><g id="triangle39" transform="translate(500.0,290.0) scale(0.8) rotate(0 50.0 50.0)"><use xlink:href="#triangle" /></g><g id="triangle40" transform="translate(50.0,370.0) scale(0.8) rotate(0 50.0 50.0)"><use xlink:href="#triangle" /></g><g id="triangle41" transform="translate(100.0,370.0) scale(0.8) rotate(180 50.0 50.0)"><use xlink:href="#triangle" /></g><g id="triangle42" transform="translate(150.0,370.0) scale(0.8) rotate(0 50.0 50.0)"><use xlink:href="#triangle" /></g><g id="triangle43" transform="translate(200.0,370.0) scale(0.8) rotate(180 50.0 50.0)"><use xlink:href="#triangle" /></g><g id="triangle44" transform="translate(250.0,370.0) scale(0.8) rotate(0 50.0 50.0)"><use xlink:href="#triangle" /></g><g id="triangle45" transform="translate(300.0,370.0) scale(0.8) rotate(180 50.0 50.0)"><use xlink:href="#triangle" /></g><g id="triangle46" transform="translate(350.0,370.0) scale(0.8) rotate(0 50.0 50.0)"><use xlink:href="#triangle" /></g><g id="triangle47" transform="translate(400.0,370.0) scale(0.8) rotate(180 50.0 50.0)"><use xlink:href="#triangle" /></g><g id="triangle48" transform="translate(450.0,370.0) scale(0.8) rotate(0 50.0 50.0)"><use xlink:href="#triangle" /></g><g id="triangle49" transform="translate(500.0,370.0) scale(0.8) rotate(180 50.0 50.0)"><use xlink:href="#triangle" /></g><g id="triangle50" transform="translate(50.0,450.0) scale(0.8) rotate(180 50.0 50.0)"><use xlink:href="#triangle" /></g><g id="triangle51" transform="translate(100.0,450.0) scale(0.8) rotate(0 50.0 50.0)"><use xlink:href="#triangle" /></g><g id="triangle52" transform="translate(150.0,450.0) scale(0.8) rotate(180 50.0 50.0)"><use xlink:href="#triangle" /></g><g id="triangle53" transform="translate(200.0,450.0) scale(0.8) rotate(0 50.0 50.0)"><use xlink:href="#triangle" /></g><g id="triangle54" transform="translate(250.0,450.0) scale(0.8) rotate(180 50.0 50.0)"><use xlink:href="#triangle" /></g><g id="triangle55" transform="translate(300.0,450.0) scale(0.8) rotate(0 50.0 50.0)"><use xlink:href="#triangle" /></g><g id="triangle56" transform="translate(350.0,450.0) scale(0.8) rotate(180 50.0 50.0)"><use xlink:href="#triangle" /></g><g id="triangle57" transform="translate(400.0,450.0) scale(0.8) rotate(0 50.0 50.0)"><use xlink:href="#triangle" /></g><g id="triangle58" transform="translate(450.0,450.0) scale(0.8) rotate(180 50.0 50.0)"><use xlink:href="#triangle" /></g><g id="triangle59" transform="translate(500.0,450.0) scale(0.8) rotate(0 50.0 50.0)"><use xlink:href="#triangle" /></g><g id="triangle60" transform="translate(50.0,530.0) scale(0.8) rotate(0 50.0 50.0)"><use xlink:href="#triangle" /></g><g id="triangle61" transform="translate(100.0,530.0) scale(0.8) rotate(180 50.0 50.0)"><use xlink:href="#triangle" /></g><g id="triangle62" transform="translate(150.0,530.0) scale(0.8) rotate(0 50.0 50.0)"><use xlink:href="#triangle" /></g><g id="triangle63" transform="translate(200.0,530.0) scale(0.8) rotate(180 50.0 50.0)"><use xlink:href="#triangle" /></g><g id="triangle64" transform="translate(250.0,530.0) scale(0.8) rotate(0 50.0 50.0)"><use xlink:href="#triangle" /></g><g id="triangle65" transform="translate(300.0,530.0) scale(0.8) rotate(180 50.0 50.0)"><use xlink:href="#triangle" /></g><g id="triangle66" transform="translate(350.0,530.0) scale(0.8) rotate(0 50.0 50.0)"><use xlink:href="#triangle" /></g><g id="triangle67" transform="translate(400.0,530.0) scale(0.8) rotate(180 50.0 50.0)"><use xlink:href="#triangle" /></g><g id="triangle68" transform="translate(450.0,530.0) scale(0.8) rotate(0 50.0 50.0)"><use xlink:href="#triangle" /></g><g id="triangle69" transform="translate(500.0,530.0) scale(0.8) rotate(180 50.0 50.0)"><use xlink:href="#triangle" /></g><g id="triangle70" transform="translate(50.0,610.0) scale(0.8) rotate(180 50.0 50.0)"><use xlink:href="#triangle" /></g><g id="triangle71" transform="translate(100.0,610.0) scale(0.8) rotate(0 50.0 50.0)"><use xlink:href="#triangle" /></g><g id="triangle72" transform="translate(150.0,610.0) scale(0.8) rotate(180 50.0 50.0)"><use xlink:href="#triangle" /></g><g id="triangle73" transform="translate(200.0,610.0) scale(0.8) rotate(0 50.0 50.0)"><use xlink:href="#triangle" /></g><g id="triangle74" transform="translate(250.0,610.0) scale(0.8) rotate(180 50.0 50.0)"><use xlink:href="#triangle" /></g><g id="triangle75" transform="translate(300.0,610.0) scale(0.8) rotate(0 50.0 50.0)"><use xlink:href="#triangle" /></g><g id="triangle76" transform="translate(350.0,610.0) scale(0.8) rotate(180 50.0 50.0)"><use xlink:href="#triangle" /></g><g id="triangle77" transform="translate(400.0,610.0) scale(0.8) rotate(0 50.0 50.0)"><use xlink:href="#triangle" /></g><g id="triangle78" transform="translate(450.0,610.0) scale(0.8) rotate(180 50.0 50.0)"><use xlink:href="#triangle" /></g><g id="triangle79" transform="translate(500.0,610.0) scale(0.8) rotate(0 50.0 50.0)"><use xlink:href="#triangle" /></g><g id="triangle80" transform="translate(50.0,690.0) scale(0.8) rotate(0 50.0 50.0)"><use xlink:href="#triangle" /></g><g id="triangle81" transform="translate(100.0,690.0) scale(0.8) rotate(180 50.0 50.0)"><use xlink:href="#triangle" /></g><g id="triangle82" transform="translate(150.0,690.0) scale(0.8) rotate(0 50.0 50.0)"><use xlink:href="#triangle" /></g><g id="triangle83" transform="translate(200.0,690.0) scale(0.8) rotate(180 50.0 50.0)"><use xlink:href="#triangle" /></g><g id="triangle84" transform="translate(250.0,690.0) scale(0.8) rotate(0 50.0 50.0)"><use xlink:href="#triangle" /></g><g id="triangle85" transform="translate(300.0,690.0) scale(0.8) rotate(180 50.0 50.0)"><use xlink:href="#triangle" /></g><g id="triangle86" transform="translate(350.0,690.0) scale(0.8) rotate(0 50.0 50.0)"><use xlink:href="#triangle" /></g><g id="triangle87" transform="translate(400.0,690.0) scale(0.8) rotate(180 50.0 50.0)"><use xlink:href="#triangle" /></g><g id="triangle88" transform="translate(450.0,690.0) scale(0.8) rotate(0 50.0 50.0)"><use xlink:href="#triangle" /></g><g id="triangle89" transform="translate(500.0,690.0) scale(0.8) rotate(180 50.0 50.0)"><use xlink:href="#triangle" /></g><g id="triangle90" transform="translate(50.0,770.0) scale(0.8) rotate(180 50.0 50.0)"><use xlink:href="#triangle" /></g><g id="triangle91" transform="translate(100.0,770.0) scale(0.8) rotate(0 50.0 50.0)"><use xlink:href="#triangle" /></g><g id="triangle92" transform="translate(150.0,770.0) scale(0.8) rotate(180 50.0 50.0)"><use xlink:href="#triangle" /></g><g id="triangle93" transform="translate(200.0,770.0) scale(0.8) rotate(0 50.0 50.0)"><use xlink:href="#triangle" /></g><g id="triangle94" transform="translate(250.0,770.0) scale(0.8) rotate(180 50.0 50.0)"><use xlink:href="#triangle" /></g><g id="triangle95" transform="translate(300.0,770.0) scale(0.8) rotate(0 50.0 50.0)"><use xlink:href="#triangle" /></g><g id="triangle96" transform="translate(350.0,770.0) scale(0.8) rotate(180 50.0 50.0)"><use xlink:href="#triangle" /></g><g id="triangle97" transform="translate(400.0,770.0) scale(0.8) rotate(0 50.0 50.0)"><use xlink:href="#triangle" /></g><g id="triangle98" transform="translate(450.0,770.0) scale(0.8) rotate(180 50.0 50.0)"><use xlink:href="#triangle" /></g><g id="triangle99" transform="translate(500.0,770.0) scale(0.8) rotate(0 50.0 50.0)"><use xlink:href="#triangle" /></g></g><g id="labels"><text alignment-baseline="middle" font-size="12" text-anchor="middle" x="90.0" y="105.0">yes</text><text alignment-baseline="middle" font-size="12" text-anchor="middle" x="140.0" y="75.0">no</text><text alignment-baseline="middle" font-size="12" text-anchor="middle" x="190.0" y="105.0">yes</text><text alignment-baseline="middle" font-size="12" text-anchor="middle" x="240.0" y="75.0">no</text><text alignment-baseline="middle" font-size="12" text-anchor="middle" x="290.0" y="105.0">yes</text><text alignment-baseline="middle" font-size="12" text-anchor="middle" x="340.0" y="75.0">no</text><text alignment-baseline="middle" font-size="12" text-anchor="middle" x="390.0" y="105.0">yes</text><text alignment-baseline="middle" font-size="12" text-anchor="middle" x="440.0" y="75.0">no</text><text alignment-baseline="middle" font-size="12" text-anchor="middle" x="490.0" y="105.0">yes</text><text alignment-baseline="middle" font-size="12" text-anchor="middle" x="540.0" y="75.0">no</text><text alignment-baseline="middle" font-size="12" text-anchor="middle" x="90.0" y="155.0">no</text><text alignment-baseline="middle" font-size="12" text-anchor="middle" x="140.0" y="185.0">yes</text><text alignment-baseline="middle" font-size="12" text-anchor="middle" x="190.0" y="155.0">no</text><text alignment-baseline="middle" font-size="12" text-anchor="middle" x="240.0" y="185.0">yes</text><text alignment-baseline="middle" font-size="12" text-anchor="middle" x="290.0" y="155.0">no</text><text alignment-baseline="middle" font-size="12" text-anchor="middle" x="340.0" y="185.0">yes</text><text alignment-baseline="middle" font-size="12" text-anchor="middle" x="390.0" y="155.0">no</text><text alignment-baseline="middle" font-size="12" text-anchor="middle" x="440.0" y="185.0">yes</text><text alignment-baseline="middle" font-size="12" text-anchor="middle" x="490.0" y="155.0">no</text><text alignment-baseline="middle" font-size="12" text-anchor="middle" x="540.0" y="185.0">yes</text><text alignment-baseline="middle" font-size="12" text-anchor="middle" x="90.0" y="265.0">yes</text><text alignment-baseline="middle" font-size="12" text-anchor="middle" x="140.0" y="235.0">no</text><text alignment-baseline="middle" font-size="12" text-anchor="middle" x="190.0" y="265.0">yes</text><text alignment-baseline="middle" font-size="12" text-anchor="middle" x="240.0" y="235.0">no</text><text alignment-baseline="middle" font-size="12" text-anchor="middle" x="290.0" y="265.0">yes</text><text alignment-baseline="middle" font-size="12" text-anchor="middle" x="340.0" y="235.0">no</text><text alignment-baseline="middle" font-size="12" text-anchor="middle" x="390.0" y="265.0">yes</text><text alignment-baseline="middle" font-size="12" text-anchor="middle" x="440.0" y="235.0">no</text><text alignment-baseline="middle" font-size="12" text-anchor="middle" x="490.0" y="265.0">yes</text><text alignment-baseline="middle" font-size="12" text-anchor="middle" x="540.0" y="235.0">no</text><text alignment-baseline="middle" font-size="12" text-anchor="middle" x="90.0" y="315.0">no</text><text alignment-baseline="middle" font-size="12" text-anchor="middle" x="140.0" y="345.0">yes</text><text alignment-baseline="middle" font-size="12" text-anchor="middle" x="190.0" y="315.0">no</text><text alignment-baseline="middle" font-size="12" text-anchor="middle" x="240.0" y="345.0">yes</text><text alignment-baseline="middle" font-size="12" text-anchor="middle" x="290.0" y="315.0">no</text><text alignment-baseline="middle" font-size="12" text-anchor="middle" x="340.0" y="345.0">yes</text><text alignment-baseline="middle" font-size="12" text-anchor="middle" x="390.0" y="315.0">no</text><text alignment-baseline="middle" font-size="12" text-anchor="middle" x="440.0" y="345.0">yes</text><text alignment-baseline="middle" font-size="12" text-anchor="middle" x="490.0" y="315.0">no</text><text alignment-baseline="middle" font-size="12" text-anchor="middle" x="540.0" y="345.0">yes</text><text alignment-baseline="middle" font-size="12" text-anchor="middle" x="90.0" y="425.0">yes</text><text alignment-baseline="middle" font-size="12" text-anchor="middle" x="140.0" y="395.0">no</text><text alignment-baseline="middle" font-size="12" text-anchor="middle" x="190.0" y="425.0">yes</text><text alignment-baseline="middle" font-size="12" text-anchor="middle" x="240.0" y="395.0">no</text><text alignment-baseline="middle" font-size="12" text-anchor="middle" x="290.0" y="425.0">yes</text><text alignment-baseline="middle" font-size="12" text-anchor="middle" x="340.0" y="395.0">no</text><text alignment-baseline="middle" font-size="12" text-anchor="middle" x="390.0" y="425.0">yes</text><text alignment-baseline="middle" font-size="12" text-anchor="middle" x="440.0" y="395.0">no</text><text alignment-baseline="middle" font-size="12" text-anchor="middle" x="490.0" y="425.0">yes</text><text alignment-baseline="middle" font-size="12" text-anchor="middle" x="540.0" y="395.0">no</text><text alignment-baseline="middle" font-size="12" text-anchor="middle" x="90.0" y="475.0">no</text><text alignment-baseline="middle" font-size="12" text-anchor="middle" x="140.0" y="505.0">yes</text><text alignment-baseline="middle" font-size="12" text-anchor="middle" x="190.0" y="475.0">no</text><text alignment-baseline="middle" font-size="12" text-anchor="middle" x="240.0" y="505.0">yes</text><text alignment-baseline="middle" font-size="12" text-anchor="middle" x="290.0" y="475.0">no</text><text alignment-baseline="middle" font-size="12" text-anchor="middle" x="340.0" y="505.0">yes</text><text alignment-baseline="middle" font-size="12" text-anchor="middle" x="390.0" y="475.0">no</text><text alignment-baseline="middle" font-size="12" text-anchor="middle" x="440.0" y="505.0">yes</text><text alignment-baseline="middle" font-size="12" text-anchor="middle" x="490.0" y="475.0">no</text><text alignment-baseline="middle" font-size="12" text-anchor="middle" x="540.0" y="505.0">yes</text><text alignment-baseline="middle" font-size="12" text-anchor="middle" x="90.0" y="585.0">yes</text><text alignment-baseline="middle" font-size="12" text-anchor="middle" x="140.0" y="555.0">no</text><text alignment-baseline="middle" font-size="12" text-anchor="middle" x="190.0" y="585.0">yes</text><text alignment-baseline="middle" font-size="12" text-anchor="middle" x="240.0" y="555.0">no</text><text alignment-baseline="middle" font-size="12" text-anchor="middle" x="290.0" y="585.0">yes</text><text alignment-baseline="middle" font-size="12" text-anchor="middle" x="340.0" y="555.0">no</text><text alignment-baseline="middle" font-size="12" text-anchor="middle" x="390.0" y="585.0">yes</text><text alignment-baseline="middle" font-size="12" text-anchor="middle" x="440.0" y="555.0">no</text><text alignment-baseline="middle" font-size="12" text-anchor="middle" x="490.0" y="585.0">yes</text><text alignment-baseline="middle" font-size="12" text-anchor="middle" x="540.0" y="555.0">no</text><text alignment-baseline="middle" font-size="12" text-anchor="middle" x="90.0" y="635.0">no</text><text alignment-baseline="middle" font-size="12" text-anchor="middle" x="140.0" y="665.0">yes</text><text alignment-baseline="middle" font-size="12" text-anchor="middle" x="190.0" y="635.0">no</text><text alignment-baseline="middle" font-size="12" text-anchor="middle" x="240.0" y="665.0">yes</text><text alignment-baseline="middle" font-size="12" text-anchor="middle" x="290.0" y="635.0">no</text><text alignment-baseline="middle" font-size="12" text-anchor="middle" x="340.0" y="665.0">yes</text><text alignment-baseline="middle" font-size="12" text-anchor="middle" x="390.0" y="635.0">no</text><text alignment-baseline="middle" font-size="12" text-anchor="middle" x="440.0" y="665.0">yes</text><text alignment-baseline="middle" font-size="12" text-anchor="middle" x="490.0" y="635.0">no</text><text alignment-baseline="middle" font-size="12" text-anchor="middle" x="540.0" y="665.0">yes</text><text alignment-baseline="middle" font-size="12" text-anchor="middle" x="90.0" y="745.0">yes</text><text alignment-baseline="middle" font-size="12" text-anchor="middle" x="140.0" y="715.0">no</text><text alignment-baseline="middle" font-size="12" text-anchor="middle" x="190.0" y="745.0">yes</text><text alignment-baseline="middle" font-size="12" text-anchor="middle" x="240.0" y="715.0">no</text><text alignment-baseline="middle" font-size="12" text-anchor="middle" x="290.0" y="745.0">yes</text><text alignment-baseline="middle" font-size="12" text-anchor="middle" x="340.0" y="715.0">no</text><text alignment-baseline="middle" font-size="12" text-anchor="middle" x="390.0" y="745.0">yes</text><text alignment-baseline="middle" font-size="12" text-anchor="middle" x="440.0" y="715.0">no</text><text alignment-baseline="middle" font-size="12" text-anchor="middle" x="490.0" y="745.0">yes</text><text alignment-baseline="middle" font-size="12" text-anchor="middle" x="540.0" y="715.0">no</text><text alignment-baseline="middle" font-size="12" text-anchor="middle" x="90.0" y="795.0">no</text><text alignment-baseline="middle" font-size="12" text-anchor="middle" x="140.0" y="825.0">yes</text><text alignment-baseline="middle" font-size="12" text-anchor="middle" x="190.0" y="795.0">no</text><text alignment-baseline="middle" font-size="12" text-anchor="middle" x="240.0" y="825.0">yes</text><text alignment-baseline="middle" font-size="12" text-anchor="middle" x="290.0" y="795.0">no</text><text alignment-baseline="middle" font-size="12" text-anchor="middle" x="340.0" y="825.0">yes</text><text alignment-baseline="middle" font-size="12" text-anchor="middle" x="390.0" y="795.0">no</text><text alignment-baseline="middle" font-size="12" text-anchor="middle" x="440.0" y="825.0">no</text><text alignment-baseline="middle" font-size="12" text-anchor="middle" x="490.0" y="795.0">no</text><text alignment-baseline="middle" font-size="12" text-anchor="middle" x="540.0" y="825.0">no</text></g><g id="triangle0" transform="translate(50.0,50.0) scale(0.8) rotate(0 50.0 50.0)"><use xlink:href="#triangle" /></g><g id="triangle1" transform="translate(100.0,50.0) scale(0.8) rotate(180 50.0 50.0)"><use xlink:href="#triangle" /></g><g id="triangle2" transform="translate(150.0,50.0) scale(0.8) rotate(0 50.0 50.0)"><use xlink:href="#triangle" /></g><g id="triangle3" transform="translate(200.0,50.0) scale(0.8) rotate(180 50.0 50.0)"><use xlink:href="#triangle" /></g><g id="triangle4" transform="translate(250.0,50.0) scale(0.8) rotate(0 50.0 50.0)"><use xlink:href="#triangle" /></g><g id="triangle5" transform="translate(300.0,50.0) scale(0.8) rotate(180 50.0 50.0)"><use xlink:href="#triangle" /></g><g id="triangle6" transform="translate(350.0,50.0) scale(0.8) rotate(0 50.0 50.0)"><use xlink:href="#triangle" /></g><g id="triangle7" transform="translate(400.0,50.0) scale(0.8) rotate(180 50.0 50.0)"><use xlink:href="#triangle" /></g><g id="triangle8" transform="translate(450.0,50.0) scale(0.8) rotate(0 50.0 50.0)"><use xlink:href="#triangle" /></g><g id="triangle9" transform="translate(500.0,50.0) scale(0.8) rotate(180 50.0 50.0)"><use xlink:href="#triangle" /></g><g id="triangle10" transform="translate(50.0,130.0) scale(0.8) rotate(180 50.0 50.0)"><use xlink:href="#triangle" /></g><g id="triangle11" transform="translate(100.0,130.0) scale(0.8) rotate(0 50.0 50.0)"><use xlink:href="#triangle" /></g><g id="triangle12" transform="translate(150.0,130.0) scale(0.8) rotate(180 50.0 50.0)"><use xlink:href="#triangle" /></g><g id="triangle13" transform="translate(200.0,130.0) scale(0.8) rotate(0 50.0 50.0)"><use xlink:href="#triangle" /></g><g id="triangle14" transform="translate(250.0,130.0) scale(0.8) rotate(180 50.0 50.0)"><use xlink:href="#triangle" /></g><g id="triangle15" transform="translate(300.0,130.0) scale(0.8) rotate(0 50.0 50.0)"><use xlink:href="#triangle" /></g><g id="triangle16" transform="translate(350.0,130.0) scale(0.8) rotate(180 50.0 50.0)"><use xlink:href="#triangle" /></g><g id="triangle17" transform="translate(400.0,130.0) scale(0.8) rotate(0 50.0 50.0)"><use xlink:href="#triangle" /></g><g id="triangle18" transform="translate(450.0,130.0) scale(0.8) rotate(180 50.0 50.0)"><use xlink:href="#triangle" /></g><g id="triangle19" transform="translate(500.0,130.0) scale(0.8) rotate(0 50.0 50.0)"><use xlink:href="#triangle" /></g><g id="triangle20" transform="translate(50.0,210.0) scale(0.8) rotate(0 50.0 50.0)"><use xlink:href="#triangle" /></g><g id="triangle21" transform="translate(100.0,210.0) scale(0.8) rotate(180 50.0 50.0)"><use xlink:href="#triangle" /></g><g id="triangle22" transform="translate(150.0,210.0) scale(0.8) rotate(0 50.0 50.0)"><use xlink:href="#triangle" /></g><g id="triangle23" transform="translate(200.0,210.0) scale(0.8) rotate(180 50.0 50.0)"><use xlink:href="#triangle" /></g><g id="triangle24" transform="translate(250.0,210.0) scale(0.8) rotate(0 50.0 50.0)"><use xlink:href="#triangle" /></g><g id="triangle25" transform="translate(300.0,210.0) scale(0.8) rotate(180 50.0 50.0)"><use xlink:href="#triangle" /></g><g id="triangle26" transform="translate(350.0,210.0) scale(0.8) rotate(0 50.0 50.0)"><use xlink:href="#triangle" /></g><g id="triangle27" transform="translate(400.0,210.0) scale(0.8) rotate(180 50.0 50.0)"><use xlink:href="#triangle" /></g><g id="triangle28" transform="translate(450.0,210.0) scale(0.8) rotate(0 50.0 50.0)"><use xlink:href="#triangle" /></g><g id="triangle29" transform="translate(500.0,210.0) scale(0.8) rotate(180 50.0 50.0)"><use xlink:href="#triangle" /></g><g id="triangle30" transform="translate(50.0,290.0) scale(0.8) rotate(180 50.0 50.0)"><use xlink:href="#triangle" /></g><g id="triangle31" transform="translate(100.0,290.0) scale(0.8) rotate(0 50.0 50.0)"><use xlink:href="#triangle" /></g><g id="triangle32" transform="translate(150.0,290.0) scale(0.8) rotate(180 50.0 50.0)"><use xlink:href="#triangle" /></g><g id="triangle33" transform="translate(200.0,290.0) scale(0.8) rotate(0 50.0 50.0)"><use xlink:href="#triangle" /></g><g id="triangle34" transform="translate(250.0,290.0) scale(0.8) rotate(180 50.0 50.0)"><use xlink:href="#triangle" /></g><g id="triangle35" transform="translate(300.0,290.0) scale(0.8) rotate(0 50.0 50.0)"><use xlink:href="#triangle" /></g><g id="triangle36" transform="translate(350.0,290.0) scale(0.8) rotate(180 50.0 50.0)"><use xlink:href="#triangle" /></g><g id="triangle37" transform="translate(400.0,290.0) scale(0.8) rotate(0 50.0 50.0)"><use xlink:href="#triangle" /></g><g id="triangle38" transform="translate(450.0,290.0) scale(0.8) rotate(180 50.0 50.0)"><use xlink:href="#triangle" /></g><g id="triangle39" transform="translate(500.0,290.0) scale(0.8) rotate(0 50.0 50.0)"><use xlink:href="#triangle" /></g><g id="triangle40" transform="translate(50.0,370.0) scale(0.8) rotate(0 50.0 50.0)"><use xlink:href="#triangle" /></g><g id="triangle41" transform="translate(100.0,370.0) scale(0.8) rotate(180 50.0 50.0)"><use xlink:href="#triangle" /></g><g id="triangle42" transform="translate(150.0,370.0) scale(0.8) rotate(0 50.0 50.0)"><use xlink:href="#triangle" /></g><g id="triangle43" transform="translate(200.0,370.0) scale(0.8) rotate(180 50.0 50.0)"><use xlink:href="#triangle" /></g><g id="triangle44" transform="translate(250.0,370.0) scale(0.8) rotate(0 50.0 50.0)"><use xlink:href="#triangle" /></g><g id="triangle45" transform="translate(300.0,370.0) scale(0.8) rotate(180 50.0 50.0)"><use xlink:href="#triangle" /></g><g id="triangle46" transform="translate(350.0,370.0) scale(0.8) rotate(0 50.0 50.0)"><use xlink:href="#triangle" /></g><g id="triangle47" transform="translate(400.0,370.0) scale(0.8) rotate(180 50.0 50.0)"><use xlink:href="#triangle" /></g><g id="triangle48" transform="translate(450.0,370.0) scale(0.8) rotate(0 50.0 50.0)"><use xlink:href="#triangle" /></g><g id="triangle49" transform="translate(500.0,370.0) scale(0.8) rotate(180 50.0 50.0)"><use xlink:href="#triangle" /></g><g id="triangle50" transform="translate(50.0,450.0) scale(0.8) rotate(180 50.0 50.0)"><use xlink:href="#triangle" /></g><g id="triangle51" transform="translate(100.0,450.0) scale(0.8) rotate(0 50.0 50.0)"><use xlink:href="#triangle" /></g><g id="triangle52" transform="translate(150.0,450.0) scale(0.8) rotate(180 50.0 50.0)"><use xlink:href="#triangle" /></g><g id="triangle53" transform="translate(200.0,450.0) scale(0.8) rotate(0 50.0 50.0)"><use xlink:href="#triangle" /></g><g id="triangle54" transform="translate(250.0,450.0) scale(0.8) rotate(180 50.0 50.0)"><use xlink:href="#triangle" /></g><g id="triangle55" transform="translate(300.0,450.0) scale(0.8) rotate(0 50.0 50.0)"><use xlink:href="#triangle" /></g><g id="triangle56" transform="translate(350.0,450.0) scale(0.8) rotate(180 50.0 50.0)"><use xlink:href="#triangle" /></g><g id="triangle57" transform="translate(400.0,450.0) scale(0.8) rotate(0 50.0 50.0)"><use xlink:href="#triangle" /></g><g id="triangle58" transform="translate(450.0,450.0) scale(0.8) rotate(180 50.0 50.0)"><use xlink:href="#triangle" /></g><g id="triangle59" transform="translate(500.0,450.0) scale(0.8) rotate(0 50.0 50.0)"><use xlink:href="#triangle" /></g><g id="triangle60" transform="translate(50.0,530.0) scale(0.8) rotate(0 50.0 50.0)"><use xlink:href="#triangle" /></g><g id="triangle61" transform="translate(100.0,530.0) scale(0.8) rotate(180 50.0 50.0)"><use xlink:href="#triangle" /></g><g id="triangle62" transform="translate(150.0,530.0) scale(0.8) rotate(0 50.0 50.0)"><use xlink:href="#triangle" /></g><g id="triangle63" transform="translate(200.0,530.0) scale(0.8) rotate(180 50.0 50.0)"><use xlink:href="#triangle" /></g><g id="triangle64" transform="translate(250.0,530.0) scale(0.8) rotate(0 50.0 50.0)"><use xlink:href="#triangle" /></g><g id="triangle65" transform="translate(300.0,530.0) scale(0.8) rotate(180 50.0 50.0)"><use xlink:href="#triangle" /></g><g id="triangle66" transform="translate(350.0,530.0) scale(0.8) rotate(0 50.0 50.0)"><use xlink:href="#triangle" /></g><g id="triangle67" transform="translate(400.0,530.0) scale(0.8) rotate(180 50.0 50.0)"><use xlink:href="#triangle" /></g><g id="triangle68" transform="translate(450.0,530.0) scale(0.8) rotate(0 50.0 50.0)"><use xlink:href="#triangle" /></g><g id="triangle69" transform="translate(500.0,530.0) scale(0.8) rotate(180 50.0 50.0)"><use xlink:href="#triangle" /></g><g id="triangle70" transform="translate(50.0,610.0) scale(0.8) rotate(180 50.0 50.0)"><use xlink:href="#triangle" /></g><g id="triangle71" transform="translate(100.0,610.0) scale(0.8) rotate(0 50.0 50.0)"><use xlink:href="#triangle" /></g><g id="triangle72" transform="translate(150.0,610.0) scale(0.8) rotate(180 50.0 50.0)"><use xlink:href="#triangle" /></g><g id="triangle73" transform="translate(200.0,610.0) scale(0.8) rotate(0 50.0 50.0)"><use xlink:href="#triangle" /></g><g id="triangle74" transform="translate(250.0,610.0) scale(0.8) rotate(180 50.0 50.0)"><use xlink:href="#triangle" /></g><g id="triangle75" transform="translate(300.0,610.0) scale(0.8) rotate(0 50.0 50.0)"><use xlink:href="#triangle" /></g><g id="triangle76" transform="translate(350.0,610.0) scale(0.8) rotate(180 50.0 50.0)"><use xlink:href="#triangle" /></g><g id="triangle77" transform="translate(400.0,610.0) scale(0.8) rotate(0 50.0 50.0)"><use xlink:href="#triangle" /></g><g id="triangle78" transform="translate(450.0,610.0) scale(0.8) rotate(180 50.0 50.0)"><use xlink:href="#triangle" /></g><g id="triangle79" transform="translate(500.0,610.0) scale(0.8) rotate(0 50.0 50.0)"><use xlink:href="#triangle" /></g><g id="triangle80" transform="translate(50.0,690.0) scale(0.8) rotate(0 50.0 50.0)"><use xlink:href="#triangle" /></g><g id="triangle81" transform="translate(100.0,690.0) scale(0.8) rotate(180 50.0 50.0)"><use xlink:href="#triangle" /></g><g id="triangle82" transform="translate(150.0,690.0) scale(0.8) rotate(0 50.0 50.0)"><use xlink:href="#triangle" /></g><g id="triangle83" transform="translate(200.0,690.0) scale(0.8) rotate(180 50.0 50.0)"><use xlink:href="#triangle" /></g><g id="triangle84" transform="translate(250.0,690.0) scale(0.8) rotate(0 50.0 50.0)"><use xlink:href="#triangle" /></g><g id="triangle85" transform="translate(300.0,690.0) scale(0.8) rotate(180 50.0 50.0)"><use xlink:href="#triangle" /></g><g id="triangle86" transform="translate(350.0,690.0) scale(0.8) rotate(0 50.0 50.0)"><use xlink:href="#triangle" /></g><g id="triangle87" transform="translate(400.0,690.0) scale(0.8) rotate(180 50.0 50.0)"><use xlink:href="#triangle" /></g><g id="triangle88" transform="translate(450.0,690.0) scale(0.8) rotate(0 50.0 50.0)"><use xlink:href="#triangle" /></g><g id="triangle89" transform="translate(500.0,690.0) scale(0.8) rotate(180 50.0 50.0)"><use xlink:href="#triangle" /></g><g id="triangle90" transform="translate(50.0,770.0) scale(0.8) rotate(180 50.0 50.0)"><use xlink:href="#triangle" /></g><g id="triangle91" transform="translate(100.0,770.0) scale(0.8) rotate(0 50.0 50.0)"><use xlink:href="#triangle" /></g><g id="triangle92" transform="translate(150.0,770.0) scale(0.8) rotate(180 50.0 50.0)"><use xlink:href="#triangle" /></g><g id="triangle93" transform="translate(200.0,770.0) scale(0.8) rotate(0 50.0 50.0)"><use xlink:href="#triangle" /></g><g id="triangle94" transform="translate(250.0,770.0) scale(0.8) rotate(180 50.0 50.0)"><use xlink:href="#triangle" /></g><g id="triangle95" transform="translate(300.0,770.0) scale(0.8) rotate(0 50.0 50.0)"><use xlink:href="#triangle" /></g><g id="triangle96" transform="translate(350.0,770.0) scale(0.8) rotate(180 50.0 50.0)"><use xlink:href="#triangle" /></g><g id="triangle97" transform="translate(400.0,770.0) scale(0.8) rotate(0 50.0 50.0)"><use xlink:href="#triangle" /></g><g id="triangle98" transform="translate(450.0,770.0) scale(0.8) rotate(180 50.0 50.0)"><use xlink:href="#triangle" /></g><g id="triangle99" transform="translate(500.0,770.0) scale(0.8) rotate(0 50.0 50.0)"><use xlink:href="#triangle" /></g></svg>