<svg xmlns="http://www.w3.org/2000/svg" xmlns:xlink="http://www.w3.org/1999/xlink" version="1.0" x="0px" y="0px" viewBox="0 0 32 40" enable-background="new 0 0 32 32" xml:space="preserve"><path d="M18.188,4.193c-0.651-0.029-1.247,0.48-1.417,1.133l-0.057,0.34c-0.17-0.227-0.34-0.453-0.623-0.51L15.893,5.1  c-0.765-0.17-1.501,0.367-1.671,1.133l-1.417,5.803c-0.199,0.709-0.397,1.246-0.624,1.672V13.48  c0.028-0.623-0.198-1.246-0.652-1.727c-0.425-0.482-1.077-0.736-1.813-0.596l0,0c-0.028,0-0.028,0-0.057,0  c-0.028,0.029-0.028,0-0.057,0v0.029c0,0.027-0.028,0-0.028,0l-0.028,0.027c-0.028,0.029-0.085,0.029-0.085,0.029  c-0.029,0.027-0.029,0.027-0.057,0.057l-0.028,0.027c-0.057,0.057-0.085,0.17-0.085,0.256v4.445c0,0.027,0,0.027,0,0.027  c0.057,1.416,0.963,2.803,1.813,4.191c0.878,1.416,1.644,2.773,1.644,3.766v3.426c0,0.197,0.198,0.396,0.425,0.396  c0.198,0,0.396-0.199,0.396-0.396v-3.426c0-1.389-0.907-2.775-1.756-4.191c-0.227-0.34-0.425-0.68-0.624-1.047  c-0.198-0.313-0.396-0.652-0.566-0.963c0,0,0.028-0.029,0-0.029c-0.142-0.311-0.255-0.623-0.369-0.904  c-0.057-0.17-0.085-0.313-0.113-0.453c-0.028-0.143-0.057-0.256-0.057-0.396l0,0v-4.078c0.34-0.029,0.624,0.084,0.85,0.311  c0.283,0.313,0.453,0.793,0.453,1.189c0,0,0,0,0,0.029V16c0,0.199,0.198,0.396,0.397,0.396c0.227,0,0.396-0.197,0.396-0.396v-0.877  c0.595-0.68,1.048-1.529,1.417-2.889v-0.029l1.389-5.803c0.085-0.396,0.425-0.596,0.736-0.539l0.17,0.057  c0.284,0.086,0.51,0.426,0.425,0.793l-1.502,6.342l-0.028,0.057v0.029l0.369,0.113l0.368,0.113l0.028-0.057l0.028-0.086l0.142-0.367  v-0.029l1.842-7.305c0.085-0.396,0.425-0.594,0.709-0.51l0.197,0.029c0.313,0.084,0.51,0.424,0.426,0.82l-0.623,2.322  c0,0.057-0.029,0.057-0.029,0.084l-0.566,2.266l-0.651,2.605l-0.255,1.33l0.397,0.086l0.368,0.084l0.821-3.482l0.736-2.803  c0.114-0.313,0.397-0.482,0.737-0.396c0.368,0.084,0.595,0.453,0.511,0.82l-0.539,2.238l-0.936,3.963l-0.396,1.559v0.027  l0.396,0.086l0.397,0.084l0.368-1.557l0.936-3.965c0.113-0.367,0.453-0.594,0.821-0.48c0.368,0.084,0.595,0.453,0.481,0.82  l-1.105,4.389l-0.027,0.029l-0.17,0.736v0.057v0.057c0.027,1.98-0.652,3.17-1.475,4.586l-0.027,0.113v0.086v5.832h0.793v-5.719  c0.793-1.389,1.474-2.748,1.502-4.842l0.028-0.057l0.142-0.68v-0.029l1.133-4.359c0.199-0.793-0.283-1.615-1.076-1.813  c-0.255-0.057-0.482,0.057-0.736,0.141l0.254-1.104c0.199-0.793-0.311-1.615-1.104-1.813c-0.227-0.057-0.425,0.057-0.651,0.113  l0.312-1.217c0.198-0.793-0.255-1.586-0.991-1.785l-0.199-0.057c-0.113-0.027-0.197-0.027-0.283-0.057V4.193z"/><text x="0" y="47" fill="#000000" font-size="5px" font-weight="bold" font-family="'Helvetica Neue', Helvetica, Arial-Unicode, Arial, Sans-serif">Created by Chameleon Design</text><text x="0" y="52" fill="#000000" font-size="5px" font-weight="bold" font-family="'Helvetica Neue', Helvetica, Arial-Unicode, Arial, Sans-serif">from the Noun Project</text></svg>