<svg xmlns="http://www.w3.org/2000/svg" xmlns:xlink="http://www.w3.org/1999/xlink" version="1.0" x="0px" y="0px" viewBox="0 0 32 40" enable-background="new 0 0 32 32" xml:space="preserve"><path d="M13.798,4.18c-0.085,0-0.17,0-0.283,0.028l-0.198,0.057c-0.737,0.198-1.19,0.991-0.992,1.784l0.312,1.217  c-0.227-0.057-0.425-0.17-0.651-0.113c-0.793,0.198-1.304,1.02-1.105,1.813l0.255,1.104c-0.255-0.085-0.482-0.198-0.737-0.142  c-0.793,0.198-1.275,1.02-1.077,1.813l1.162,4.36v0.028l0.142,0.68c0,0.028,0,0.028,0,0.057c0,2.095,0.708,3.454,1.502,4.842v5.719  h0.793v-5.832v-0.085l-0.057-0.113c-0.793-1.416-1.445-2.605-1.445-4.587v-0.057l-0.028-0.057l-0.142-0.736v-0.028l-1.133-4.389  c-0.113-0.368,0.113-0.736,0.481-0.821c0.369-0.113,0.708,0.113,0.793,0.453c0,0.028,0.028,0.028,0.028,0.028l0.935,3.964  l0.368,1.558l0.397-0.085l0.396-0.085v-0.028l-0.057-0.312l-1.247-5.21h-0.028c0,0,0,0,0-0.028l-0.539-2.209  c-0.085-0.368,0.17-0.736,0.539-0.821c0.312-0.085,0.595,0.085,0.708,0.396l0.737,2.804l0.822,3.482l0.396-0.085l0.369-0.085  l-0.255-1.331l-0.651-2.604l-0.567-2.266c0-0.028-0.028-0.028-0.028-0.085L13.09,5.851c-0.085-0.396,0.142-0.736,0.425-0.821  l0.198-0.028c0.312-0.085,0.624,0.113,0.708,0.51l1.842,7.305v0.028l0.198,0.453v0.057l0.368-0.113l0.396-0.113L15.696,6.7  c-0.085-0.368,0.113-0.708,0.396-0.793l0.199-0.057C16.603,5.794,16.915,5.992,17,6.389l1.389,5.804v0.028  c0.368,1.331,0.821,2.181,1.417,2.832v0.935c0,0.198,0.17,0.396,0.396,0.396c0.198,0,0.397-0.198,0.397-0.396v-2.521  c0-0.028,0-0.028,0-0.028c0-0.396,0.17-0.878,0.453-1.189c0.227-0.255,0.51-0.34,0.878-0.312l-0.028,4.078l0,0  c0,0.142-0.028,0.255-0.057,0.396c0,0,0,0,0,0.028c0,0-0.028,0.028-0.028,0.057c-0.057,0.312-0.198,0.679-0.34,1.019  c-0.057,0.085-0.085,0.17-0.142,0.255c0,0,0.028,0.028,0,0.028c-0.142,0.312-0.312,0.651-0.51,0.963  c-0.198,0.368-0.397,0.708-0.624,1.048c-0.878,1.416-1.785,2.803-1.785,4.19v3.426c0,0.198,0.198,0.396,0.396,0.396  c0.227,0,0.425-0.198,0.396-0.396V24c0-0.142,0-0.283,0.028-0.396c0.17-0.963,0.878-2.151,1.644-3.369  c0.85-1.388,1.756-2.775,1.813-4.19c0,0,0,0,0-0.028l0.028-4.445c0-0.085-0.028-0.198-0.114-0.255c0,0,0-0.028-0.028-0.028l0,0  v-0.028c-0.028,0-0.057-0.028-0.057-0.028s-0.028,0-0.057-0.028c-0.028,0-0.057,0-0.085-0.028c-0.028,0,0-0.028,0-0.028  c-0.028,0-0.057,0.028-0.057,0c-0.028,0-0.028,0-0.057,0l0,0c-0.737-0.142-1.417,0.142-1.813,0.595  c-0.453,0.48-0.68,1.104-0.651,1.727v0.198c-0.227-0.425-0.454-0.963-0.624-1.643l-1.417-5.804c-0.17-0.765-0.907-1.303-1.672-1.133  l-0.198,0.057c-0.283,0.057-0.453,0.283-0.623,0.51l-0.085-0.34C15.016,4.661,14.45,4.151,13.798,4.18L13.798,4.18z"/><text x="0" y="47" fill="#000000" font-size="5px" font-weight="bold" font-family="'Helvetica Neue', Helvetica, Arial-Unicode, Arial, Sans-serif">Created by Chameleon Design</text><text x="0" y="52" fill="#000000" font-size="5px" font-weight="bold" font-family="'Helvetica Neue', Helvetica, Arial-Unicode, Arial, Sans-serif">from the Noun Project</text></svg>